%TF.GenerationSoftware,Altium Limited,Altium Designer,23.4.1 (23)*%
G04 Layer_Color=65535*
%FSLAX45Y45*%
%MOMM*%
%TF.SameCoordinates,30DB59E4-3B06-4861-84B7-939192905612*%
%TF.FilePolarity,Positive*%
%TF.FileFunction,Legend,Top*%
%TF.Part,Single*%
G01*
G75*
%TA.AperFunction,NonConductor*%
%ADD30C,0.25400*%
%ADD33C,0.15000*%
%ADD34C,0.20000*%
G36*
X525000Y348589D02*
X557158Y310000D01*
X492843D01*
X525000Y348589D01*
D02*
G37*
G36*
X713920Y969294D02*
X746078Y930706D01*
X681763D01*
X713920Y969294D01*
D02*
G37*
G36*
X770705Y1028921D02*
X809293Y1061079D01*
Y996764D01*
X770705Y1028921D01*
D02*
G37*
G36*
X1933921Y969294D02*
X1966079Y930706D01*
X1901764D01*
X1933921Y969294D01*
D02*
G37*
G36*
X1990705Y1028921D02*
X2029294Y1061079D01*
Y996764D01*
X1990705Y1028921D01*
D02*
G37*
D30*
X35400Y957751D02*
X86183D01*
X60792D01*
Y805400D01*
X35400D01*
X86183D01*
X162359D02*
Y957751D01*
X263926Y805400D01*
Y957751D01*
D33*
X1594846Y416097D02*
G03*
X1550849Y396884I-14797J-26097D01*
G01*
X1594804Y466093D02*
G03*
X1595091Y414072I-14804J-26093D01*
G01*
X1550438Y483752D02*
G03*
X1594812Y464037I29342J6247D01*
G01*
X1006097Y215154D02*
G03*
X986884Y259151I-26097J14797D01*
G01*
X1056093Y215196D02*
G03*
X1004072Y214909I-26093J14804D01*
G01*
X1073752Y259562D02*
G03*
X1054038Y215188I6247J-29342D01*
G01*
X1280000Y1645000D02*
X1970000D01*
Y990000D02*
Y1670000D01*
X1280000D02*
X1970000D01*
X1280000Y990000D02*
Y1670000D01*
Y990000D02*
X1970000D01*
X298000Y302000D02*
X322000D01*
X298000Y238000D02*
X322000D01*
X298000Y338000D02*
X322000D01*
X298000Y402000D02*
X322000D01*
X550000Y780000D02*
X610000D01*
X435000Y835000D02*
X505000D01*
X435000Y805000D02*
X505000D01*
X298000Y202000D02*
X322000D01*
X298000Y138000D02*
X322000D01*
X95000Y285000D02*
X165000D01*
X95000Y255000D02*
X165000D01*
X255000Y495000D02*
Y565000D01*
X285000Y495000D02*
Y565000D01*
X305000Y835000D02*
X375000D01*
X305000Y805000D02*
X375000D01*
X1220000Y655000D02*
X1220073Y620000D01*
Y685000D02*
Y720000D01*
X1170000Y685000D02*
X1270000D01*
X1170000Y655000D02*
X1270000D01*
X1630000Y859927D02*
X1665000Y860000D01*
X1695000Y859927D02*
X1730000D01*
X1695000Y810000D02*
Y910000D01*
X1665000Y810000D02*
Y910000D01*
X1380000Y350000D02*
Y530000D01*
X1780000Y350000D02*
Y530000D01*
X940000Y430000D02*
X1120000D01*
X940000Y30000D02*
X1120000D01*
X59999Y1645000D02*
X749999D01*
Y990000D02*
Y1670000D01*
X59999D02*
X749999D01*
X59999Y990000D02*
Y1670000D01*
Y990000D02*
X749999D01*
X1484974Y1561684D02*
Y1615000D01*
X1444987D01*
X1458316Y1588342D01*
Y1575013D01*
X1444987Y1561684D01*
X1418329D01*
X1405000Y1575013D01*
Y1601671D01*
X1418329Y1615000D01*
X1484974Y1535026D02*
X1431658D01*
X1405000Y1508368D01*
X1431658Y1481710D01*
X1484974D01*
X184999Y1625000D02*
Y1598342D01*
Y1611671D01*
X264974D01*
X251645Y1625000D01*
X184999Y1505039D02*
Y1558355D01*
X238315Y1505039D01*
X251645D01*
X264974Y1518368D01*
Y1545026D01*
X251645Y1558355D01*
X264974Y1478381D02*
X211657D01*
X184999Y1451723D01*
X211657Y1425064D01*
X264974D01*
X1831645Y1591684D02*
X1844974Y1605013D01*
Y1631671D01*
X1831645Y1645000D01*
X1778329D01*
X1765000Y1631671D01*
Y1605013D01*
X1778329Y1591684D01*
X1804987D01*
Y1618342D01*
X1765000Y1565026D02*
X1844974D01*
X1765000Y1511710D01*
X1844974D01*
Y1485052D02*
X1765000D01*
Y1445064D01*
X1778329Y1431736D01*
X1831645D01*
X1844974Y1445064D01*
Y1485052D01*
X611645Y1591684D02*
X624974Y1605013D01*
Y1631671D01*
X611645Y1645000D01*
X558329D01*
X544999Y1631671D01*
Y1605013D01*
X558329Y1591684D01*
X584987D01*
Y1618342D01*
X544999Y1565026D02*
X624974D01*
X544999Y1511710D01*
X624974D01*
Y1485052D02*
X544999D01*
Y1445064D01*
X558329Y1431736D01*
X611645D01*
X624974Y1445064D01*
Y1485052D01*
D34*
X1603339Y1129984D02*
X1570016D01*
X1586678D01*
Y1046678D01*
X1570016Y1030016D01*
X1553355D01*
X1536694Y1046678D01*
X1703306Y1030016D02*
X1636661D01*
X1703306Y1096661D01*
Y1113323D01*
X1686645Y1129984D01*
X1653323D01*
X1636661Y1113323D01*
X976693Y1080016D02*
Y1179984D01*
X1026677D01*
X1043339Y1163323D01*
Y1130000D01*
X1026677Y1113339D01*
X976693D01*
X1010016D02*
X1043339Y1080016D01*
X1143306D02*
X1076661D01*
X1143306Y1146661D01*
Y1163323D01*
X1126645Y1179984D01*
X1093323D01*
X1076661Y1163323D01*
X976693Y1220016D02*
Y1319984D01*
X1026677D01*
X1043339Y1303323D01*
Y1270000D01*
X1026677Y1253339D01*
X976693D01*
X1010016D02*
X1043339Y1220016D01*
X1076661Y1303323D02*
X1093323Y1319984D01*
X1126645D01*
X1143306Y1303323D01*
Y1286661D01*
X1126645Y1270000D01*
X1109984D01*
X1126645D01*
X1143306Y1253339D01*
Y1236677D01*
X1126645Y1220016D01*
X1093323D01*
X1076661Y1236677D01*
X1073355Y1459984D02*
Y1376677D01*
X1090016Y1360016D01*
X1123339D01*
X1140000Y1376677D01*
Y1459984D01*
X1173323Y1360016D02*
X1206645D01*
X1189984D01*
Y1459984D01*
X1173323Y1443322D01*
X1116677Y1563339D02*
X1100016Y1546677D01*
Y1513355D01*
X1116677Y1496693D01*
X1183323D01*
X1199984Y1513355D01*
Y1546677D01*
X1183323Y1563339D01*
X1199984Y1646645D02*
X1100016D01*
X1150000Y1596661D01*
Y1663306D01*
X976677Y1563338D02*
X960016Y1546677D01*
Y1513355D01*
X976677Y1496693D01*
X1043322D01*
X1059984Y1513355D01*
Y1546677D01*
X1043322Y1563338D01*
X1059984Y1663306D02*
Y1596661D01*
X993339Y1663306D01*
X976677D01*
X960016Y1646645D01*
Y1613322D01*
X976677Y1596661D01*
X973355Y940016D02*
Y1039984D01*
X1023339D01*
X1040000Y1023323D01*
Y990000D01*
X1023339Y973339D01*
X973355D01*
X1006677D02*
X1040000Y940016D01*
X1073323D02*
X1106645D01*
X1089984D01*
Y1039984D01*
X1073323Y1023323D01*
X846678Y1193339D02*
X830016Y1176678D01*
Y1143355D01*
X846678Y1126694D01*
X913323D01*
X929984Y1143355D01*
Y1176678D01*
X913323Y1193339D01*
X830016Y1293307D02*
Y1226662D01*
X880000D01*
X863339Y1259984D01*
Y1276645D01*
X880000Y1293307D01*
X913323D01*
X929984Y1276645D01*
Y1243323D01*
X913323Y1226662D01*
X893339Y1443322D02*
X876677Y1459984D01*
X843355D01*
X826694Y1443322D01*
Y1376677D01*
X843355Y1360016D01*
X876677D01*
X893339Y1376677D01*
X926661Y1459984D02*
X993306D01*
Y1443322D01*
X926661Y1376677D01*
Y1360016D01*
X836678Y1563339D02*
X820016Y1546677D01*
Y1513355D01*
X836678Y1496693D01*
X903323D01*
X919984Y1513355D01*
Y1546677D01*
X903323Y1563339D01*
X836678Y1596661D02*
X820016Y1613323D01*
Y1646645D01*
X836678Y1663306D01*
X853339D01*
X870000Y1646645D01*
Y1629984D01*
Y1646645D01*
X886661Y1663306D01*
X903323D01*
X919984Y1646645D01*
Y1613323D01*
X903323Y1596661D01*
X1030000Y593322D02*
X1013339Y609984D01*
X980016D01*
X963355Y593322D01*
Y526677D01*
X980016Y510016D01*
X1013339D01*
X1030000Y526677D01*
X1063323Y510016D02*
X1096645D01*
X1079984D01*
Y609984D01*
X1063323Y593322D01*
X1873339Y693322D02*
X1856678Y709984D01*
X1823355D01*
X1806694Y693322D01*
Y626677D01*
X1823355Y610016D01*
X1856678D01*
X1873339Y626677D01*
X1973306Y709984D02*
X1939984Y693322D01*
X1906661Y660000D01*
Y626677D01*
X1923323Y610016D01*
X1956645D01*
X1973306Y626677D01*
Y643339D01*
X1956645Y660000D01*
X1906661D01*
X1806694Y569984D02*
Y470016D01*
X1873339D01*
X1973306D02*
X1906661D01*
X1973306Y536661D01*
Y553322D01*
X1956645Y569984D01*
X1923323D01*
X1906661Y553322D01*
X1343355Y139984D02*
Y40016D01*
X1410000D01*
X1443323D02*
X1476645D01*
X1459984D01*
Y139984D01*
X1443323Y123323D01*
X400000Y1139984D02*
X366677D01*
X383339D01*
Y1056678D01*
X366677Y1040016D01*
X350016D01*
X333355Y1056678D01*
X433323Y1040016D02*
X466645D01*
X449984D01*
Y1139984D01*
X433323Y1123323D01*
%TF.MD5,4ed108576d4c0e8b9884c628fede007d*%
M02*
