%TF.GenerationSoftware,Altium Limited,Altium Designer,21.1.0 (24)*%
G04 Layer_Color=0*
%FSLAX45Y45*%
%MOMM*%
%TF.SameCoordinates,396C0E3A-29EE-4C6C-8395-06145A698007*%
%TF.FilePolarity,Positive*%
%TF.FileFunction,Plated,1,4,PTH,Drill*%
%TF.Part,Single*%
G01*
G75*
%TA.AperFunction,ComponentDrill*%
%ADD231C,1.10000*%
%ADD232C,1.10000*%
%ADD233C,3.20000*%
%ADD234C,1.20000*%
%TA.AperFunction,ViaDrill,NotFilled*%
%ADD235C,0.25000*%
%ADD236C,0.50000*%
D231*
X2032000Y190500D02*
D03*
X2286000D02*
D03*
X2540000D02*
D03*
X2794000D02*
D03*
X3048000D02*
D03*
X3302000D02*
D03*
X3556000D02*
D03*
X3810000D02*
D03*
X4064000D02*
D03*
X4318000D02*
D03*
X4572000D02*
D03*
X4826000D02*
D03*
X5080000D02*
D03*
X5334000D02*
D03*
X5588000D02*
D03*
X5842000D02*
D03*
X6096000D02*
D03*
X6350000D02*
D03*
X6604000D02*
D03*
X6858000D02*
D03*
X7112000D02*
D03*
X7366000D02*
D03*
X7620000D02*
D03*
X2032000Y444500D02*
D03*
X2286000D02*
D03*
X2540000D02*
D03*
X2794000D02*
D03*
X3048000D02*
D03*
X3302000D02*
D03*
X3556000D02*
D03*
X3810000D02*
D03*
X4064000D02*
D03*
X4318000D02*
D03*
X4572000D02*
D03*
X4826000D02*
D03*
X5080000D02*
D03*
X5334000D02*
D03*
X5588000D02*
D03*
X5842000D02*
D03*
X6096000D02*
D03*
X6350000D02*
D03*
X6604000D02*
D03*
X6858000D02*
D03*
X7112000D02*
D03*
X7366000D02*
D03*
X7620000D02*
D03*
X2032000Y5016500D02*
D03*
X2286000D02*
D03*
X2540000D02*
D03*
X2794000D02*
D03*
X3048000D02*
D03*
X3302000D02*
D03*
X3556000D02*
D03*
X3810000D02*
D03*
X4064000D02*
D03*
X4318000D02*
D03*
X4572000D02*
D03*
X4826000D02*
D03*
X5080000D02*
D03*
X5334000D02*
D03*
X5588000D02*
D03*
X5842000D02*
D03*
X6096000D02*
D03*
X6350000D02*
D03*
X6604000D02*
D03*
X6858000D02*
D03*
X7112000D02*
D03*
X7366000D02*
D03*
X7620000D02*
D03*
X2032000Y5270500D02*
D03*
X2286000D02*
D03*
X2540000D02*
D03*
X2794000D02*
D03*
X3048000D02*
D03*
X3302000D02*
D03*
X3556000D02*
D03*
X3810000D02*
D03*
X4064000D02*
D03*
X4318000D02*
D03*
X4572000D02*
D03*
X4826000D02*
D03*
X5080000D02*
D03*
X5334000D02*
D03*
X5588000D02*
D03*
X5842000D02*
D03*
X6096000D02*
D03*
X6350000D02*
D03*
X6604000D02*
D03*
X6858000D02*
D03*
X7112000D02*
D03*
X7366000D02*
D03*
X7620000D02*
D03*
X2286000Y4258400D02*
D03*
X2032000D02*
D03*
X2286000Y4512400D02*
D03*
X2032000D02*
D03*
D232*
X8382000Y952800D02*
D03*
Y1206800D02*
D03*
Y1460800D02*
D03*
Y1714800D02*
D03*
Y1968800D02*
D03*
Y2222800D02*
D03*
Y2476800D02*
D03*
X8128000Y952800D02*
D03*
Y1206800D02*
D03*
Y1460800D02*
D03*
Y1714800D02*
D03*
Y1968800D02*
D03*
Y2222800D02*
D03*
Y2476800D02*
D03*
Y4508800D02*
D03*
Y4254800D02*
D03*
Y4000800D02*
D03*
Y3746800D02*
D03*
Y3492800D02*
D03*
Y3238800D02*
D03*
Y2984800D02*
D03*
X8382000Y4508800D02*
D03*
Y4254800D02*
D03*
Y4000800D02*
D03*
Y3746800D02*
D03*
Y3492800D02*
D03*
Y3238800D02*
D03*
Y2984800D02*
D03*
D233*
X8064500Y615000D02*
D03*
Y4846000D02*
D03*
X1460500Y5143500D02*
D03*
D234*
X1480000Y695000D02*
D03*
Y345000D02*
D03*
D235*
X4480000Y3460000D02*
D03*
X4420000Y3340000D02*
D03*
X3218327Y2818327D02*
D03*
X5670000Y3720000D02*
D03*
X4937951Y3702049D02*
D03*
X2510000Y1055000D02*
D03*
Y1245000D02*
D03*
X3570000Y1395000D02*
D03*
Y1585000D02*
D03*
X7430000Y2855000D02*
D03*
Y3045000D02*
D03*
Y975000D02*
D03*
Y1165000D02*
D03*
Y1725000D02*
D03*
Y1915000D02*
D03*
Y1355000D02*
D03*
Y1545000D02*
D03*
Y2095000D02*
D03*
Y2285000D02*
D03*
X7330000Y4365000D02*
D03*
Y4175000D02*
D03*
X7430000Y2475000D02*
D03*
Y2665000D02*
D03*
X8224500Y755000D02*
D03*
Y475000D02*
D03*
X7904500D02*
D03*
Y755000D02*
D03*
X8224500Y4986000D02*
D03*
Y4706000D02*
D03*
X7904500D02*
D03*
Y4986000D02*
D03*
X7670000Y2500000D02*
D03*
X7205153Y2243440D02*
D03*
X7149861Y1819851D02*
D03*
X7201861Y1873897D02*
D03*
X7649985Y1449997D02*
D03*
X7789634Y1953060D02*
D03*
X7814733Y1601672D02*
D03*
X7195514Y1363489D02*
D03*
X7150000Y1430000D02*
D03*
X4177489Y3515000D02*
D03*
X4246654Y3463445D02*
D03*
X2360000Y870000D02*
D03*
X3592272Y2185804D02*
D03*
X6110659Y4600659D02*
D03*
X6540012Y4604881D02*
D03*
X7945208Y5287588D02*
D03*
X7707970Y2864162D02*
D03*
X4320000Y2330000D02*
D03*
X4620000Y2480000D02*
D03*
X4290000Y3030000D02*
D03*
X4420000Y2760000D02*
D03*
X4290000Y2890000D02*
D03*
X4321405Y2760000D02*
D03*
X3530000Y3860000D02*
D03*
X2650000Y3970000D02*
D03*
X2970000Y4560000D02*
D03*
X3121034Y4610965D02*
D03*
X3200000Y4610000D02*
D03*
X4000000Y4602500D02*
D03*
X4230000D02*
D03*
X4434292Y4747500D02*
D03*
X2772500Y3740000D02*
D03*
X5705659Y2004341D02*
D03*
X5820000Y2690000D02*
D03*
X5600000Y2390000D02*
D03*
X2910000Y1900000D02*
D03*
X3050000Y950000D02*
D03*
X5030000Y870000D02*
D03*
X5140000D02*
D03*
X7955161Y1080000D02*
D03*
X4811250Y4830000D02*
D03*
X3010000D02*
D03*
X2508228Y4313171D02*
D03*
X1320000Y4670000D02*
D03*
X4590000Y4210000D02*
D03*
X4650000Y3420000D02*
D03*
X2640000Y4530000D02*
D03*
X5280000Y2500000D02*
D03*
X6570000Y3610000D02*
D03*
Y2840000D02*
D03*
X6120000Y2570000D02*
D03*
X5620000Y1270000D02*
D03*
X7680000Y3970000D02*
D03*
X7580000Y4510000D02*
D03*
X3230000Y2300000D02*
D03*
X3077354Y2569391D02*
D03*
X2387416Y2543022D02*
D03*
X2646036Y1005198D02*
D03*
X1470000Y1200000D02*
D03*
X1962644Y1591929D02*
D03*
X2218243Y1370541D02*
D03*
X2560000Y1470000D02*
D03*
X2915692Y1991900D02*
D03*
X3220000Y1410000D02*
D03*
X4342217Y1798770D02*
D03*
X3890000Y1279012D02*
D03*
X4292233Y1439012D02*
D03*
X3795060Y1359012D02*
D03*
X4390000Y1620000D02*
D03*
X7719999Y4280000D02*
D03*
X7650000Y4420000D02*
D03*
X7570000Y4340000D02*
D03*
X7760000Y4490000D02*
D03*
X7750000Y3740000D02*
D03*
X7650000Y3550000D02*
D03*
X7940000Y3700000D02*
D03*
X7810000Y4774736D02*
D03*
X5140529Y4700000D02*
D03*
X3870000Y4602500D02*
D03*
X5470000Y4610000D02*
D03*
X5703349Y4613348D02*
D03*
X5590000Y4830000D02*
D03*
X4340000D02*
D03*
X3870000D02*
D03*
X3540000D02*
D03*
X3310000D02*
D03*
Y4610000D02*
D03*
X3560000Y4530000D02*
D03*
X3640000Y4510000D02*
D03*
X5160000Y4830000D02*
D03*
X3850000Y970000D02*
D03*
X7250000Y4600000D02*
D03*
X7460000D02*
D03*
X7204341Y4465659D02*
D03*
X7149606Y4600923D02*
D03*
X7050000Y4595265D02*
D03*
X7549859Y4599532D02*
D03*
X6950000Y4600000D02*
D03*
X6820000D02*
D03*
X6720695Y4598026D02*
D03*
X5760000Y1920000D02*
D03*
Y1830000D02*
D03*
X5838749Y3281251D02*
D03*
X6142500Y1520000D02*
D03*
X6241568Y1531568D02*
D03*
X5710000Y1552500D02*
D03*
X6340000Y1550000D02*
D03*
X6057500Y2016697D02*
D03*
X5630000Y1790000D02*
D03*
X6006652Y846652D02*
D03*
X6013303Y1076697D02*
D03*
X5950000Y1010000D02*
D03*
X5820000Y980000D02*
D03*
X5830000Y850529D02*
D03*
X6080000Y920000D02*
D03*
X4770000Y4200000D02*
D03*
X4220000Y2760000D02*
D03*
X4570000Y1160000D02*
D03*
X2620000Y2340000D02*
D03*
X2550000Y1740000D02*
D03*
X2430000Y1810000D02*
D03*
X3970659Y2339342D02*
D03*
X3479341Y2010658D02*
D03*
X3409993Y2059996D02*
D03*
X4020000Y2420000D02*
D03*
X2390000Y1470000D02*
D03*
X1440000Y1380000D02*
D03*
X3862500Y2780000D02*
D03*
X3810000Y2400000D02*
D03*
X4014886Y1725615D02*
D03*
X5440000Y1002500D02*
D03*
X5359342Y849342D02*
D03*
X5740000Y850000D02*
D03*
X5460000D02*
D03*
X5550000D02*
D03*
X5630000D02*
D03*
X4320000Y1720000D02*
D03*
X4760000Y1690000D02*
D03*
X4260000Y2120000D02*
D03*
X3990000Y2110000D02*
D03*
X4840000Y960000D02*
D03*
X3820000Y870000D02*
D03*
X4180000D02*
D03*
X5030000Y970000D02*
D03*
X2340000Y960000D02*
D03*
X5580000Y620000D02*
D03*
X2150000Y960000D02*
D03*
X2119640Y2050360D02*
D03*
X2130000Y1790000D02*
D03*
X2750000Y990000D02*
D03*
X3710000Y870000D02*
D03*
X2400000Y620000D02*
D03*
X2700000D02*
D03*
X2787500Y1452500D02*
D03*
X1960000Y1360000D02*
D03*
X1744381Y690018D02*
D03*
X1880000Y870000D02*
D03*
X2250000Y1240000D02*
D03*
X1870000Y1440000D02*
D03*
X2320000Y2610000D02*
D03*
X2710000Y3590000D02*
D03*
X2950000Y3170000D02*
D03*
X3021664Y3349445D02*
D03*
X2310000Y3620000D02*
D03*
X2410000Y3544998D02*
D03*
X2300573Y2211071D02*
D03*
X5210000Y3410000D02*
D03*
X5214602Y3502534D02*
D03*
X7040659Y2300659D02*
D03*
X6879848Y2460817D02*
D03*
X7019342Y1090658D02*
D03*
X7109986Y999998D02*
D03*
X6999895Y614807D02*
D03*
X7510457Y792345D02*
D03*
X5000000Y1680000D02*
D03*
X7730000Y320000D02*
D03*
X8248354Y2583854D02*
D03*
X7210000Y3760000D02*
D03*
X6410000Y2690000D02*
D03*
X6176154Y2770358D02*
D03*
X3410000Y910000D02*
D03*
Y820000D02*
D03*
X6710253Y1885314D02*
D03*
X7130000Y2220000D02*
D03*
X7800000Y5340000D02*
D03*
X7502500Y1252366D02*
D03*
X7689985Y1249997D02*
D03*
X7280000Y1307500D02*
D03*
X7870000Y1320000D02*
D03*
X7754146Y1387500D02*
D03*
X7000000Y4284038D02*
D03*
X7189986Y2449995D02*
D03*
X7120000Y2500000D02*
D03*
X7040000Y2690000D02*
D03*
X6960000Y2650000D02*
D03*
X7169986Y2619995D02*
D03*
X7080000Y2790000D02*
D03*
X7090000Y4280000D02*
D03*
X7142717Y4143903D02*
D03*
X7129986Y4069992D02*
D03*
X4410000Y3760000D02*
D03*
X4420000Y3660000D02*
D03*
X7350000Y3249251D02*
D03*
X7426750D02*
D03*
X7566184D02*
D03*
X7590000Y3080000D02*
D03*
X7658087Y3011913D02*
D03*
X7141317Y3321317D02*
D03*
X7100000Y3010000D02*
D03*
X7640000Y2720000D02*
D03*
X7689985Y2659995D02*
D03*
Y2579995D02*
D03*
X7560000Y2730000D02*
D03*
X7182123Y1747877D02*
D03*
X7060000Y1570000D02*
D03*
Y1930000D02*
D03*
X7181317Y2108683D02*
D03*
X7229986Y2039996D02*
D03*
X7200000Y1000000D02*
D03*
X7210000Y1122500D02*
D03*
X7300000Y910000D02*
D03*
X7209986Y1499997D02*
D03*
X4249991Y3359993D02*
D03*
X4160000Y3930000D02*
D03*
X6810000Y3500000D02*
D03*
X7097500Y3596747D02*
D03*
X7558364Y4210000D02*
D03*
X7920000Y4280000D02*
D03*
X7721054Y2265000D02*
D03*
X7724103Y2190000D02*
D03*
X7649985Y2299995D02*
D03*
X7659985Y2129996D02*
D03*
X7720000Y1880000D02*
D03*
Y1800000D02*
D03*
X7651897Y1922499D02*
D03*
X7687327Y1726203D02*
D03*
X7660000Y1570000D02*
D03*
X7659985Y1129998D02*
D03*
Y1009998D02*
D03*
X7719985Y1069998D02*
D03*
X7630000Y930000D02*
D03*
X6040000Y1940000D02*
D03*
X6780000Y2240000D02*
D03*
X5070000Y3170000D02*
D03*
X5286249Y3033751D02*
D03*
X5280000Y2950000D02*
D03*
X5149951Y2364951D02*
D03*
X4320000Y2240000D02*
D03*
X6719987Y779998D02*
D03*
X6720000Y1020000D02*
D03*
X7570000Y3890000D02*
D03*
X4860000Y3460000D02*
D03*
X4440000Y3950000D02*
D03*
X4380000Y4140000D02*
D03*
X4829990Y3789992D02*
D03*
X4460000Y4040000D02*
D03*
X3730000Y3500000D02*
D03*
X2929994Y3369993D02*
D03*
X3600000Y3370000D02*
D03*
X4090098Y2928585D02*
D03*
X4092500Y3090000D02*
D03*
X3421109Y2379792D02*
D03*
X3730000Y2890000D02*
D03*
X2930000Y2350000D02*
D03*
X3532374Y2452374D02*
D03*
X2727310Y3290000D02*
D03*
X6450000Y3320000D02*
D03*
X4450000Y4310000D02*
D03*
X1270000Y1090000D02*
D03*
Y1760000D02*
D03*
X2740000Y4210000D02*
D03*
X2490000Y4160000D02*
D03*
X3660000Y4380000D02*
D03*
X3280000Y4350000D02*
D03*
X3330000Y4097503D02*
D03*
X3080000Y3740000D02*
D03*
X3050000Y3530000D02*
D03*
X3440000Y3710000D02*
D03*
X3260000Y3290000D02*
D03*
X3330000Y3180000D02*
D03*
X6100000Y2810000D02*
D03*
X6320000Y3020000D02*
D03*
X7090000Y3210000D02*
D03*
X7089986Y3389993D02*
D03*
X4453075Y4211807D02*
D03*
X4960000Y4210000D02*
D03*
X4800000Y3010000D02*
D03*
X5100000Y3450000D02*
D03*
X5010000Y3330000D02*
D03*
X5310000Y3640000D02*
D03*
X5910000Y4160000D02*
D03*
X6239999Y2409999D02*
D03*
X6590000Y2240000D02*
D03*
X7850000Y150000D02*
D03*
X6790000Y620000D02*
D03*
X6620000Y1370000D02*
D03*
X4844366Y1570330D02*
D03*
X2990000Y2070000D02*
D03*
X1850000Y1820000D02*
D03*
X2400000Y2440000D02*
D03*
X2620000Y2130000D02*
D03*
X4240000Y700000D02*
D03*
X4687501Y2117501D02*
D03*
X7660000Y2930000D02*
D03*
X6145217Y2404784D02*
D03*
X6850000Y1380000D02*
D03*
X6620000Y2340000D02*
D03*
X3610000Y2380000D02*
D03*
X1650000Y4670000D02*
D03*
X5710000Y1420000D02*
D03*
X6710000Y1990000D02*
D03*
Y1800000D02*
D03*
Y1650000D02*
D03*
X5280000Y1310000D02*
D03*
X7099986Y2929994D02*
D03*
X6890000Y3550000D02*
D03*
X4320000Y3130000D02*
D03*
X4940000Y3160000D02*
D03*
X4840000Y3085003D02*
D03*
X6960001Y3069999D02*
D03*
X6750000Y3650000D02*
D03*
X7667500Y3410000D02*
D03*
X7300000Y3730000D02*
D03*
X4450000Y3830000D02*
D03*
X4240000Y2560000D02*
D03*
X5060000Y2980003D02*
D03*
X2700000Y4100000D02*
D03*
X3560000Y3600000D02*
D03*
X2487877Y3737876D02*
D03*
X2490000Y3890000D02*
D03*
X3170000Y3430000D02*
D03*
X2992500Y4370000D02*
D03*
X3120000Y4030000D02*
D03*
X6710000Y2840000D02*
D03*
X7140000Y2860000D02*
D03*
X3380000Y4340000D02*
D03*
X3290000Y3560000D02*
D03*
X5210000Y2090000D02*
D03*
X5550000Y1720000D02*
D03*
X5430000Y3120000D02*
D03*
X7310000Y3540000D02*
D03*
X7220000Y3670000D02*
D03*
X6710000Y1370000D02*
D03*
Y2080000D02*
D03*
X7250000Y1660000D02*
D03*
X6720000Y940000D02*
D03*
X7080000Y1280000D02*
D03*
X6720000Y1110000D02*
D03*
X7270000Y3610000D02*
D03*
X8000000Y2840000D02*
D03*
X6210000Y2990000D02*
D03*
X6410000Y2970000D02*
D03*
X3500000Y3380000D02*
D03*
X4761155Y3608969D02*
D03*
X4880000Y2770000D02*
D03*
X4935771Y3510813D02*
D03*
X4690000Y700000D02*
D03*
X6090000D02*
D03*
X3740000D02*
D03*
X4520000D02*
D03*
X5220000D02*
D03*
X3110000Y3100000D02*
D03*
X4800000Y2680000D02*
D03*
X2890000Y3010000D02*
D03*
X2980000Y3840000D02*
D03*
X5250000Y3810000D02*
D03*
X5240000Y2230000D02*
D03*
X2540000Y2100000D02*
D03*
D236*
X1280500Y5323500D02*
D03*
Y4963500D02*
D03*
X1640988D02*
D03*
X1640484Y5323500D02*
D03*
%TF.MD5,5790ca6966d6017d678236c237a4a7f8*%
M02*
