%TF.GenerationSoftware,Altium Limited,Altium Designer,21.1.0 (24)*%
G04 Layer_Color=65535*
%FSLAX45Y45*%
%MOMM*%
%TF.SameCoordinates,22AD4BEA-BF74-4225-A0B4-C9A39FC99EA3*%
%TF.FilePolarity,Positive*%
%TF.FileFunction,Legend,Top*%
%TF.Part,Single*%
G01*
G75*
%TA.AperFunction,NonConductor*%
%ADD76C,0.15000*%
%ADD97C,0.20000*%
%ADD98C,0.25000*%
%ADD126C,0.10000*%
%ADD127C,0.30000*%
G36*
X4895000Y2120000D02*
X4870000Y2150000D01*
X4920000D01*
X4895000Y2120000D01*
D02*
G37*
G36*
X2520000Y1950000D02*
X2490000Y1975000D01*
X2520000Y2000000D01*
Y1950000D01*
D02*
G37*
G36*
X2870000Y1920000D02*
X2820000D01*
X2845000Y1950000D01*
X2870000Y1920000D01*
D02*
G37*
G36*
X2090000Y1860000D02*
X2060000Y1885000D01*
X2090000Y1910000D01*
Y1860000D01*
D02*
G37*
G36*
X4740000Y1800000D02*
X4720000Y1825000D01*
X4760000D01*
X4740000Y1800000D01*
D02*
G37*
G36*
X4870000Y1710000D02*
X4820000Y1750000D01*
X4870000Y1790000D01*
Y1710000D01*
D02*
G37*
G36*
X3385000Y1635000D02*
X3360000Y1665000D01*
X3410000D01*
X3385000Y1635000D01*
D02*
G37*
G36*
X2580000Y1570000D02*
X2530000D01*
X2555000Y1600000D01*
X2580000Y1570000D01*
D02*
G37*
G36*
X2350000Y1510000D02*
X2320000Y1535000D01*
X2350000Y1560000D01*
Y1510000D01*
D02*
G37*
G36*
X2210000Y1490000D02*
X2180000Y1515000D01*
X2210000Y1540000D01*
Y1490000D01*
D02*
G37*
G36*
X2325000Y1295000D02*
X2300000Y1325000D01*
X2350000D01*
X2325000Y1295000D01*
D02*
G37*
G36*
X1775000Y1175000D02*
X1745000Y1200000D01*
X1775000Y1225000D01*
Y1175000D01*
D02*
G37*
G36*
X2220000Y1150000D02*
X2190000Y1175000D01*
X2220000Y1200000D01*
Y1150000D01*
D02*
G37*
G36*
X1730000Y890000D02*
X1705000Y920000D01*
X1755000D01*
X1730000Y890000D01*
D02*
G37*
G36*
X1825000Y805000D02*
X1795000Y830000D01*
X1825000Y855000D01*
Y805000D01*
D02*
G37*
G36*
X1867000Y70500D02*
X1837000Y45500D01*
Y95500D01*
X1867000Y70500D01*
D02*
G37*
G36*
X2220000Y2545000D02*
X2190000Y2520000D01*
Y2570000D01*
X2220000Y2545000D01*
D02*
G37*
G36*
X2540000Y2360000D02*
X2570000Y2385000D01*
Y2335000D01*
X2540000Y2360000D01*
D02*
G37*
G36*
X2860000Y2835000D02*
X2830000Y2810000D01*
Y2860000D01*
X2860000Y2835000D01*
D02*
G37*
G36*
X2380000Y3740000D02*
X2410000Y3765000D01*
Y3715000D01*
X2380000Y3740000D01*
D02*
G37*
G36*
X2985000Y3670000D02*
X2960000Y3700000D01*
X3010000D01*
X2985000Y3670000D01*
D02*
G37*
G36*
X1867000Y4138400D02*
X1837000Y4113400D01*
Y4163400D01*
X1867000Y4138400D01*
D02*
G37*
G36*
X1470000Y4670000D02*
X1520000Y4710000D01*
Y4630000D01*
X1470000Y4670000D01*
D02*
G37*
G36*
X1390000Y4720000D02*
X1370000Y4745000D01*
X1410000D01*
X1390000Y4720000D01*
D02*
G37*
G36*
X1867000Y4896500D02*
X1837000Y4871500D01*
Y4921500D01*
X1867000Y4896500D01*
D02*
G37*
G36*
X3099999Y2290000D02*
X3074999Y2320000D01*
X3124999D01*
X3099999Y2290000D01*
D02*
G37*
G36*
X3630000Y3320000D02*
X3605000Y3350000D01*
X3655000D01*
X3630000Y3320000D01*
D02*
G37*
G36*
X3225000Y3870000D02*
X3250000Y3840000D01*
X3200000D01*
X3225000Y3870000D01*
D02*
G37*
G36*
X3755000Y3675000D02*
X3730000Y3705000D01*
X3780000D01*
X3755000Y3675000D01*
D02*
G37*
G36*
X3710000Y4350000D02*
X3685000Y4380000D01*
X3735000D01*
X3710000Y4350000D01*
D02*
G37*
G36*
X4560000Y4750000D02*
X4540000Y4775000D01*
X4580000D01*
X4560000Y4750000D01*
D02*
G37*
G36*
X4640000Y4700000D02*
X4690000Y4740000D01*
Y4660000D01*
X4640000Y4700000D01*
D02*
G37*
G36*
X4870000Y4750000D02*
X4850000Y4775000D01*
X4890000D01*
X4870000Y4750000D01*
D02*
G37*
G36*
X7245000Y3095000D02*
X7220000Y3125000D01*
X7270000D01*
X7245000Y3095000D01*
D02*
G37*
G36*
Y2715000D02*
X7220000Y2745000D01*
X7270000D01*
X7245000Y2715000D01*
D02*
G37*
G36*
X5765000Y2710000D02*
X5715000D01*
X5740000Y2740000D01*
X5765000Y2710000D01*
D02*
G37*
G36*
X8008000Y2641800D02*
X7983000Y2671800D01*
X8033000D01*
X8008000Y2641800D01*
D02*
G37*
G36*
X7245000Y2335000D02*
X7220000Y2365000D01*
X7270000D01*
X7245000Y2335000D01*
D02*
G37*
G36*
X6127500Y2120000D02*
X6102500Y2150000D01*
X6152500D01*
X6127500Y2120000D01*
D02*
G37*
G36*
X7245000Y1965000D02*
X7220000Y1995000D01*
X7270000D01*
X7245000Y1965000D01*
D02*
G37*
G36*
Y1595000D02*
X7220000Y1625000D01*
X7270000D01*
X7245000Y1595000D01*
D02*
G37*
G36*
X4980000Y1425000D02*
X4950000Y1400000D01*
Y1450000D01*
X4980000Y1425000D01*
D02*
G37*
G36*
X5150000Y1310000D02*
X5125000Y1340000D01*
X5175000D01*
X5150000Y1310000D01*
D02*
G37*
G36*
X6137500Y1260000D02*
X6112500Y1290000D01*
X6162500D01*
X6137500Y1260000D01*
D02*
G37*
G36*
X7245000Y1215000D02*
X7220000Y1245000D01*
X7270000D01*
X7245000Y1215000D01*
D02*
G37*
G36*
X5515000Y1110000D02*
X5490000Y1140000D01*
X5540000D01*
X5515000Y1110000D01*
D02*
G37*
G36*
X7710000Y920000D02*
X7690000Y945000D01*
X7730000D01*
X7710000Y920000D01*
D02*
G37*
G36*
X7840000Y830000D02*
X7790000Y870000D01*
X7840000Y910000D01*
Y830000D01*
D02*
G37*
G36*
X7830000Y280000D02*
X7810000Y305000D01*
X7850000D01*
X7830000Y280000D01*
D02*
G37*
G36*
X7960000Y190000D02*
X7910000Y230000D01*
X7960000Y270000D01*
Y190000D01*
D02*
G37*
G36*
X5135000Y4165000D02*
X5165000Y4190000D01*
Y4140000D01*
X5135000Y4165000D01*
D02*
G37*
G36*
X4950000Y4700000D02*
X5000000Y4740000D01*
Y4660000D01*
X4950000Y4700000D01*
D02*
G37*
G36*
X5815000Y3910000D02*
X5840000Y3880000D01*
X5790000D01*
X5815000Y3910000D01*
D02*
G37*
G36*
X6090000Y4750000D02*
X6070000Y4775000D01*
X6110000D01*
X6090000Y4750000D01*
D02*
G37*
G36*
X6170000Y4700000D02*
X6220000Y4740000D01*
Y4660000D01*
X6170000Y4700000D01*
D02*
G37*
G36*
X6390000Y3745000D02*
X6420000Y3770000D01*
Y3720000D01*
X6390000Y3745000D01*
D02*
G37*
G36*
X6825429Y4180571D02*
X6826286D01*
Y4180143D01*
Y4179714D01*
Y4179286D01*
X6826714D01*
Y4178857D01*
Y4178429D01*
Y4178000D01*
Y4177571D01*
Y4177143D01*
X6827143D01*
Y4176714D01*
Y4176286D01*
Y4175857D01*
Y4175429D01*
Y4175000D01*
Y4174571D01*
X6827572D01*
Y4174143D01*
Y4173714D01*
Y4173286D01*
Y4172857D01*
Y4172429D01*
X6828000D01*
Y4172000D01*
Y4171571D01*
Y4171143D01*
Y4170714D01*
Y4170286D01*
X6828429D01*
Y4169857D01*
Y4169429D01*
Y4169000D01*
Y4168571D01*
Y4168143D01*
Y4167714D01*
X6828857D01*
Y4167286D01*
Y4166857D01*
Y4166429D01*
Y4166000D01*
Y4165571D01*
X6829286D01*
Y4165143D01*
Y4164714D01*
Y4164286D01*
Y4163857D01*
Y4163429D01*
X6829714D01*
Y4163000D01*
Y4162571D01*
Y4162143D01*
Y4161714D01*
Y4161286D01*
Y4160857D01*
X6830143D01*
Y4160429D01*
Y4160000D01*
Y4159571D01*
Y4159143D01*
Y4158714D01*
X6830572D01*
Y4158286D01*
Y4157857D01*
Y4157429D01*
Y4157000D01*
Y4156571D01*
Y4156143D01*
X6831000D01*
Y4155714D01*
Y4155286D01*
Y4154857D01*
Y4154429D01*
Y4154000D01*
X6831429D01*
Y4153571D01*
Y4153143D01*
Y4152714D01*
Y4152286D01*
Y4151857D01*
X6831857D01*
Y4151429D01*
Y4151000D01*
Y4150571D01*
Y4150143D01*
Y4149714D01*
Y4149286D01*
X6832286D01*
Y4148857D01*
Y4148429D01*
Y4148000D01*
Y4147571D01*
Y4147143D01*
X6832714D01*
Y4146714D01*
Y4146286D01*
X6833143D01*
Y4145857D01*
X6834000D01*
Y4145429D01*
X6834857D01*
Y4145000D01*
X6836143D01*
Y4144571D01*
X6837000D01*
Y4144143D01*
X6838286D01*
Y4143714D01*
X6839143D01*
Y4143286D01*
X6840000D01*
Y4142857D01*
X6841286D01*
Y4142429D01*
X6842143D01*
Y4142000D01*
X6843429D01*
Y4141571D01*
X6844286D01*
Y4141143D01*
X6845572D01*
Y4140714D01*
X6846429D01*
Y4140286D01*
X6847715D01*
Y4139857D01*
X6848572D01*
Y4139429D01*
X6849429D01*
Y4139000D01*
X6850715D01*
Y4138571D01*
X6851572D01*
Y4138143D01*
X6852857D01*
Y4137714D01*
X6853715D01*
Y4137286D01*
X6855000D01*
Y4136857D01*
X6855857D01*
Y4136429D01*
X6857143D01*
Y4136857D01*
X6858000D01*
Y4137286D01*
X6858429D01*
Y4137714D01*
X6859286D01*
Y4138143D01*
X6859714D01*
Y4138571D01*
X6860143D01*
Y4139000D01*
X6861000D01*
Y4139429D01*
X6861429D01*
Y4139857D01*
X6862286D01*
Y4140286D01*
X6862714D01*
Y4140714D01*
X6863571D01*
Y4141143D01*
X6864000D01*
Y4141571D01*
X6864857D01*
Y4142000D01*
X6865286D01*
Y4142429D01*
X6866143D01*
Y4142857D01*
X6866571D01*
Y4143286D01*
X6867000D01*
Y4143714D01*
X6867857D01*
Y4144143D01*
X6868286D01*
Y4144571D01*
X6869143D01*
Y4145000D01*
X6869571D01*
Y4145429D01*
X6870429D01*
Y4145857D01*
X6870857D01*
Y4146286D01*
X6871714D01*
Y4146714D01*
X6872143D01*
Y4147143D01*
X6873000D01*
Y4147571D01*
X6873429D01*
Y4148000D01*
X6873857D01*
Y4148429D01*
X6874714D01*
Y4148857D01*
X6875143D01*
Y4149286D01*
X6876000D01*
Y4149714D01*
X6876429D01*
Y4150143D01*
X6877286D01*
Y4150571D01*
X6877714D01*
Y4151000D01*
X6878571D01*
Y4151429D01*
X6879000D01*
Y4151857D01*
X6879857D01*
Y4152286D01*
X6880286D01*
Y4152714D01*
X6881143D01*
Y4153143D01*
X6881571D01*
Y4153571D01*
X6882000D01*
Y4154000D01*
X6882857D01*
Y4154429D01*
X6883286D01*
Y4154857D01*
X6884143D01*
Y4155286D01*
X6884571D01*
Y4155714D01*
X6886714D01*
Y4155286D01*
X6887143D01*
Y4154857D01*
X6887571D01*
Y4154429D01*
X6888000D01*
Y4154000D01*
X6888429D01*
Y4153571D01*
X6888857D01*
Y4153143D01*
X6889286D01*
Y4152714D01*
X6889714D01*
Y4152286D01*
X6890143D01*
Y4151857D01*
X6890571D01*
Y4151429D01*
X6891000D01*
Y4151000D01*
X6891429D01*
Y4150571D01*
X6891857D01*
Y4150143D01*
X6892286D01*
Y4149714D01*
X6892714D01*
Y4149286D01*
X6893143D01*
Y4148857D01*
X6893571D01*
Y4148429D01*
X6894000D01*
Y4148000D01*
X6894429D01*
Y4147571D01*
X6894857D01*
Y4147143D01*
X6895286D01*
Y4146714D01*
X6895714D01*
Y4146286D01*
X6896143D01*
Y4145857D01*
X6896571D01*
Y4145429D01*
X6897000D01*
Y4145000D01*
X6897429D01*
Y4144571D01*
X6897857D01*
Y4144143D01*
X6898286D01*
Y4143714D01*
X6898714D01*
Y4143286D01*
X6899143D01*
Y4142857D01*
X6899571D01*
Y4142429D01*
X6900000D01*
Y4142000D01*
X6900429D01*
Y4141571D01*
X6900857D01*
Y4141143D01*
X6901286D01*
Y4140714D01*
X6901714D01*
Y4140286D01*
X6902143D01*
Y4139857D01*
X6902571D01*
Y4139429D01*
X6903000D01*
Y4139000D01*
X6903429D01*
Y4138571D01*
X6903857D01*
Y4138143D01*
X6904286D01*
Y4137714D01*
X6904714D01*
Y4137286D01*
X6905143D01*
Y4136857D01*
X6905572D01*
Y4136429D01*
X6906000D01*
Y4136000D01*
X6906429D01*
Y4135571D01*
X6906857D01*
Y4135143D01*
X6907286D01*
Y4134714D01*
X6907714D01*
Y4134286D01*
X6908143D01*
Y4133857D01*
X6908572D01*
Y4133429D01*
X6909000D01*
Y4133000D01*
X6909429D01*
Y4132571D01*
X6909857D01*
Y4132143D01*
X6910286D01*
Y4131714D01*
Y4131286D01*
Y4130857D01*
Y4130429D01*
Y4130000D01*
X6909857D01*
Y4129571D01*
X6909429D01*
Y4129143D01*
Y4128714D01*
X6909000D01*
Y4128286D01*
X6908572D01*
Y4127857D01*
Y4127429D01*
X6908143D01*
Y4127000D01*
X6907714D01*
Y4126571D01*
Y4126143D01*
X6907286D01*
Y4125714D01*
X6906857D01*
Y4125286D01*
X6906429D01*
Y4124857D01*
Y4124429D01*
X6906000D01*
Y4124000D01*
X6905572D01*
Y4123571D01*
Y4123143D01*
X6905143D01*
Y4122714D01*
X6904714D01*
Y4122286D01*
Y4121857D01*
X6904286D01*
Y4121429D01*
X6903857D01*
Y4121000D01*
Y4120571D01*
X6903429D01*
Y4120143D01*
X6903000D01*
Y4119714D01*
Y4119286D01*
X6902571D01*
Y4118857D01*
X6902143D01*
Y4118429D01*
X6901714D01*
Y4118000D01*
Y4117571D01*
X6901286D01*
Y4117143D01*
X6900857D01*
Y4116714D01*
Y4116286D01*
X6900429D01*
Y4115857D01*
X6900000D01*
Y4115429D01*
Y4115000D01*
X6899571D01*
Y4114571D01*
X6899143D01*
Y4114143D01*
Y4113714D01*
X6898714D01*
Y4113286D01*
X6898286D01*
Y4112857D01*
Y4112429D01*
X6897857D01*
Y4112000D01*
X6897429D01*
Y4111571D01*
X6897000D01*
Y4111143D01*
Y4110714D01*
X6896571D01*
Y4110286D01*
X6896143D01*
Y4109857D01*
Y4109429D01*
X6895714D01*
Y4109000D01*
X6895286D01*
Y4108571D01*
Y4108143D01*
X6894857D01*
Y4107714D01*
X6894429D01*
Y4107286D01*
Y4106857D01*
X6894000D01*
Y4106429D01*
X6893571D01*
Y4106000D01*
Y4105571D01*
X6893143D01*
Y4105143D01*
X6892714D01*
Y4104714D01*
Y4104286D01*
X6892286D01*
Y4103857D01*
X6891857D01*
Y4103429D01*
Y4103000D01*
X6891429D01*
Y4102571D01*
Y4102143D01*
Y4101714D01*
X6891857D01*
Y4101286D01*
Y4100857D01*
Y4100429D01*
X6892286D01*
Y4100000D01*
Y4099571D01*
X6892714D01*
Y4099143D01*
Y4098714D01*
X6893143D01*
Y4098286D01*
Y4097857D01*
Y4097429D01*
X6893571D01*
Y4097000D01*
Y4096571D01*
X6894000D01*
Y4096143D01*
Y4095714D01*
X6894429D01*
Y4095286D01*
Y4094857D01*
Y4094428D01*
X6894857D01*
Y4094000D01*
Y4093571D01*
X6895286D01*
Y4093143D01*
Y4092714D01*
X6895714D01*
Y4092286D01*
Y4091857D01*
Y4091428D01*
X6896143D01*
Y4091000D01*
Y4090571D01*
X6896571D01*
Y4090143D01*
Y4089714D01*
X6897000D01*
Y4089286D01*
Y4088857D01*
Y4088428D01*
X6897429D01*
Y4088000D01*
Y4087571D01*
X6897857D01*
Y4087143D01*
Y4086714D01*
X6898286D01*
Y4086286D01*
Y4085857D01*
Y4085428D01*
X6898714D01*
Y4085000D01*
Y4084571D01*
X6899143D01*
Y4084143D01*
Y4083714D01*
X6899571D01*
Y4083286D01*
Y4082857D01*
Y4082428D01*
X6900000D01*
Y4082000D01*
Y4081571D01*
X6900429D01*
Y4081143D01*
Y4080714D01*
X6900857D01*
Y4080286D01*
Y4079857D01*
Y4079428D01*
X6901286D01*
Y4079000D01*
Y4078571D01*
X6901714D01*
Y4078143D01*
X6902571D01*
Y4077714D01*
X6903857D01*
Y4077286D01*
X6906429D01*
Y4076857D01*
X6908572D01*
Y4076428D01*
X6910714D01*
Y4076000D01*
X6913286D01*
Y4075571D01*
X6915429D01*
Y4075143D01*
X6918000D01*
Y4074714D01*
X6920143D01*
Y4074286D01*
X6922286D01*
Y4073857D01*
X6924857D01*
Y4073428D01*
X6927000D01*
Y4073000D01*
X6929143D01*
Y4072571D01*
X6931714D01*
Y4072143D01*
X6933857D01*
Y4071714D01*
X6935143D01*
Y4071286D01*
Y4070857D01*
X6935572D01*
Y4070428D01*
Y4070000D01*
Y4069571D01*
Y4069143D01*
Y4068714D01*
Y4068286D01*
Y4067857D01*
Y4067428D01*
Y4067000D01*
Y4066571D01*
Y4066143D01*
Y4065714D01*
Y4065286D01*
Y4064857D01*
Y4064428D01*
Y4064000D01*
Y4063572D01*
Y4063143D01*
Y4062714D01*
Y4062286D01*
Y4061857D01*
Y4061429D01*
Y4061000D01*
Y4060572D01*
Y4060143D01*
Y4059714D01*
Y4059286D01*
Y4058857D01*
Y4058429D01*
Y4058000D01*
Y4057572D01*
Y4057143D01*
Y4056714D01*
Y4056286D01*
Y4055857D01*
Y4055429D01*
Y4055000D01*
Y4054572D01*
Y4054143D01*
Y4053714D01*
Y4053286D01*
Y4052857D01*
Y4052429D01*
Y4052000D01*
Y4051572D01*
Y4051143D01*
Y4050714D01*
Y4050286D01*
Y4049857D01*
Y4049429D01*
Y4049000D01*
Y4048572D01*
Y4048143D01*
Y4047714D01*
Y4047286D01*
Y4046857D01*
Y4046429D01*
Y4046000D01*
Y4045572D01*
Y4045143D01*
Y4044714D01*
Y4044286D01*
Y4043857D01*
Y4043429D01*
Y4043000D01*
Y4042572D01*
Y4042143D01*
Y4041714D01*
Y4041286D01*
Y4040857D01*
Y4040429D01*
Y4040000D01*
Y4039572D01*
Y4039143D01*
Y4038714D01*
Y4038286D01*
Y4037857D01*
Y4037429D01*
Y4037000D01*
X6935143D01*
Y4036572D01*
X6934714D01*
Y4036143D01*
X6933429D01*
Y4035714D01*
X6931286D01*
Y4035286D01*
X6928714D01*
Y4034857D01*
X6926572D01*
Y4034429D01*
X6924000D01*
Y4034000D01*
X6921857D01*
Y4033572D01*
X6919714D01*
Y4033143D01*
X6917143D01*
Y4032714D01*
X6915000D01*
Y4032286D01*
X6912857D01*
Y4031857D01*
X6910286D01*
Y4031429D01*
X6908143D01*
Y4031000D01*
X6905572D01*
Y4030571D01*
X6903429D01*
Y4030143D01*
X6903000D01*
Y4029714D01*
X6902571D01*
Y4029286D01*
X6902143D01*
Y4028857D01*
Y4028429D01*
X6901714D01*
Y4028000D01*
Y4027571D01*
X6901286D01*
Y4027143D01*
Y4026714D01*
Y4026286D01*
X6900857D01*
Y4025857D01*
Y4025429D01*
X6900429D01*
Y4025000D01*
Y4024571D01*
Y4024143D01*
X6900000D01*
Y4023714D01*
Y4023286D01*
X6899571D01*
Y4022857D01*
Y4022429D01*
Y4022000D01*
X6899143D01*
Y4021571D01*
Y4021143D01*
X6898714D01*
Y4020714D01*
Y4020286D01*
Y4019857D01*
X6898286D01*
Y4019429D01*
Y4019000D01*
X6897857D01*
Y4018571D01*
Y4018143D01*
Y4017714D01*
X6897429D01*
Y4017286D01*
Y4016857D01*
X6897000D01*
Y4016429D01*
Y4016000D01*
Y4015571D01*
X6896571D01*
Y4015143D01*
Y4014714D01*
X6896143D01*
Y4014286D01*
Y4013857D01*
Y4013429D01*
X6895714D01*
Y4013000D01*
Y4012571D01*
X6895286D01*
Y4012143D01*
Y4011714D01*
Y4011286D01*
X6894857D01*
Y4010857D01*
Y4010429D01*
X6894429D01*
Y4010000D01*
Y4009571D01*
Y4009143D01*
X6894000D01*
Y4008714D01*
Y4008286D01*
X6893571D01*
Y4007857D01*
Y4007429D01*
Y4007000D01*
X6893143D01*
Y4006571D01*
Y4006143D01*
X6892714D01*
Y4005714D01*
Y4005286D01*
Y4004857D01*
X6892286D01*
Y4004429D01*
Y4004000D01*
Y4003571D01*
X6892714D01*
Y4003143D01*
Y4002714D01*
X6893143D01*
Y4002286D01*
X6893571D01*
Y4001857D01*
Y4001429D01*
X6894000D01*
Y4001000D01*
X6894429D01*
Y4000571D01*
Y4000143D01*
X6894857D01*
Y3999714D01*
X6895286D01*
Y3999286D01*
X6895714D01*
Y3998857D01*
Y3998429D01*
X6896143D01*
Y3998000D01*
X6896571D01*
Y3997571D01*
Y3997143D01*
X6897000D01*
Y3996714D01*
X6897429D01*
Y3996286D01*
Y3995857D01*
X6897857D01*
Y3995429D01*
X6898286D01*
Y3995000D01*
Y3994571D01*
X6898714D01*
Y3994143D01*
X6899143D01*
Y3993714D01*
Y3993286D01*
X6899571D01*
Y3992857D01*
X6900000D01*
Y3992429D01*
X6900429D01*
Y3992000D01*
Y3991571D01*
X6900857D01*
Y3991143D01*
X6901286D01*
Y3990714D01*
Y3990286D01*
X6901714D01*
Y3989857D01*
X6902143D01*
Y3989429D01*
Y3989000D01*
X6902571D01*
Y3988571D01*
X6903000D01*
Y3988143D01*
Y3987714D01*
X6903429D01*
Y3987286D01*
X6903857D01*
Y3986857D01*
Y3986429D01*
X6904286D01*
Y3986000D01*
X6904714D01*
Y3985571D01*
Y3985143D01*
X6905143D01*
Y3984714D01*
X6905572D01*
Y3984286D01*
X6906000D01*
Y3983857D01*
Y3983429D01*
X6906429D01*
Y3983000D01*
X6906857D01*
Y3982571D01*
Y3982143D01*
X6907286D01*
Y3981714D01*
X6907714D01*
Y3981286D01*
Y3980857D01*
X6908143D01*
Y3980429D01*
X6908572D01*
Y3980000D01*
Y3979571D01*
X6909000D01*
Y3979143D01*
X6909429D01*
Y3978714D01*
Y3978286D01*
X6909857D01*
Y3977857D01*
X6910286D01*
Y3977429D01*
Y3977000D01*
Y3976571D01*
Y3976143D01*
Y3975714D01*
X6909857D01*
Y3975286D01*
X6909429D01*
Y3974857D01*
X6909000D01*
Y3974429D01*
X6908572D01*
Y3974000D01*
X6908143D01*
Y3973571D01*
X6907714D01*
Y3973143D01*
X6907286D01*
Y3972714D01*
X6906857D01*
Y3972286D01*
X6906429D01*
Y3971857D01*
X6906000D01*
Y3971429D01*
X6905572D01*
Y3971000D01*
X6905143D01*
Y3970571D01*
X6904714D01*
Y3970143D01*
X6904286D01*
Y3969714D01*
X6903857D01*
Y3969286D01*
X6903429D01*
Y3968857D01*
X6903000D01*
Y3968429D01*
X6902571D01*
Y3968000D01*
X6902143D01*
Y3967571D01*
X6901714D01*
Y3967143D01*
X6901286D01*
Y3966714D01*
X6900857D01*
Y3966286D01*
X6900429D01*
Y3965857D01*
X6900000D01*
Y3965429D01*
X6899571D01*
Y3965000D01*
X6899143D01*
Y3964571D01*
X6898714D01*
Y3964143D01*
X6898286D01*
Y3963714D01*
X6897857D01*
Y3963286D01*
X6897429D01*
Y3962857D01*
X6897000D01*
Y3962429D01*
X6896571D01*
Y3962000D01*
X6896143D01*
Y3961571D01*
X6895714D01*
Y3961143D01*
X6895286D01*
Y3960714D01*
X6894857D01*
Y3960286D01*
X6894429D01*
Y3959857D01*
X6894000D01*
Y3959429D01*
X6893571D01*
Y3959000D01*
X6893143D01*
Y3958571D01*
X6892714D01*
Y3958143D01*
X6892286D01*
Y3957714D01*
X6891857D01*
Y3957286D01*
X6891429D01*
Y3956857D01*
X6891000D01*
Y3956429D01*
X6890571D01*
Y3956000D01*
X6890143D01*
Y3955571D01*
X6889714D01*
Y3955143D01*
X6889286D01*
Y3954714D01*
X6888857D01*
Y3954286D01*
X6888429D01*
Y3953857D01*
X6888000D01*
Y3953429D01*
X6887571D01*
Y3953000D01*
X6887143D01*
Y3952571D01*
X6886286D01*
Y3952143D01*
X6885000D01*
Y3952571D01*
X6884143D01*
Y3953000D01*
X6883714D01*
Y3953429D01*
X6882857D01*
Y3953857D01*
X6882429D01*
Y3954286D01*
X6881571D01*
Y3954714D01*
X6881143D01*
Y3955143D01*
X6880286D01*
Y3955571D01*
X6879857D01*
Y3956000D01*
X6879000D01*
Y3956429D01*
X6878571D01*
Y3956857D01*
X6878143D01*
Y3957286D01*
X6877286D01*
Y3957714D01*
X6876857D01*
Y3958143D01*
X6876000D01*
Y3958571D01*
X6875571D01*
Y3959000D01*
X6874714D01*
Y3959429D01*
X6874286D01*
Y3959857D01*
X6873429D01*
Y3960286D01*
X6873000D01*
Y3960714D01*
X6872143D01*
Y3961143D01*
X6871714D01*
Y3961571D01*
X6871286D01*
Y3962000D01*
X6870429D01*
Y3962429D01*
X6870000D01*
Y3962857D01*
X6869143D01*
Y3963286D01*
X6868714D01*
Y3963714D01*
X6867857D01*
Y3964143D01*
X6867429D01*
Y3964571D01*
X6866571D01*
Y3965000D01*
X6866143D01*
Y3965429D01*
X6865286D01*
Y3965857D01*
X6864857D01*
Y3966286D01*
X6864429D01*
Y3966714D01*
X6863571D01*
Y3967143D01*
X6863143D01*
Y3967571D01*
X6862286D01*
Y3968000D01*
X6861857D01*
Y3968429D01*
X6861000D01*
Y3968857D01*
X6860571D01*
Y3969286D01*
X6859714D01*
Y3969714D01*
X6857572D01*
Y3969286D01*
X6856715D01*
Y3968857D01*
X6856286D01*
Y3968429D01*
X6855429D01*
Y3968000D01*
X6854572D01*
Y3967571D01*
X6853715D01*
Y3967143D01*
X6852857D01*
Y3966714D01*
X6852000D01*
Y3966286D01*
X6851143D01*
Y3965857D01*
X6850286D01*
Y3965429D01*
X6849857D01*
Y3965000D01*
X6849000D01*
Y3964571D01*
X6848143D01*
Y3964143D01*
X6847286D01*
Y3963714D01*
X6845143D01*
Y3964143D01*
X6844715D01*
Y3964571D01*
Y3965000D01*
X6844286D01*
Y3965429D01*
Y3965857D01*
Y3966286D01*
X6843857D01*
Y3966714D01*
Y3967143D01*
X6843429D01*
Y3967571D01*
Y3968000D01*
X6843000D01*
Y3968429D01*
Y3968857D01*
Y3969286D01*
X6842572D01*
Y3969714D01*
Y3970143D01*
X6842143D01*
Y3970571D01*
Y3971000D01*
Y3971429D01*
X6841715D01*
Y3971857D01*
Y3972286D01*
X6841286D01*
Y3972714D01*
Y3973143D01*
Y3973571D01*
X6840857D01*
Y3974000D01*
Y3974429D01*
X6840429D01*
Y3974857D01*
Y3975286D01*
X6840000D01*
Y3975714D01*
Y3976143D01*
Y3976571D01*
X6839572D01*
Y3977000D01*
Y3977429D01*
X6839143D01*
Y3977857D01*
Y3978286D01*
Y3978714D01*
X6838714D01*
Y3979143D01*
Y3979571D01*
X6838286D01*
Y3980000D01*
Y3980429D01*
X6837857D01*
Y3980857D01*
Y3981286D01*
Y3981714D01*
X6837429D01*
Y3982143D01*
Y3982571D01*
X6837000D01*
Y3983000D01*
Y3983429D01*
Y3983857D01*
X6836572D01*
Y3984286D01*
Y3984714D01*
X6836143D01*
Y3985143D01*
Y3985571D01*
Y3986000D01*
X6835714D01*
Y3986429D01*
Y3986857D01*
X6835286D01*
Y3987286D01*
Y3987714D01*
X6834857D01*
Y3988143D01*
Y3988571D01*
Y3989000D01*
X6834429D01*
Y3989429D01*
Y3989857D01*
X6834000D01*
Y3990286D01*
Y3990714D01*
Y3991143D01*
X6833572D01*
Y3991571D01*
Y3992000D01*
X6833143D01*
Y3992429D01*
Y3992857D01*
X6832714D01*
Y3993286D01*
Y3993714D01*
Y3994143D01*
X6832286D01*
Y3994571D01*
Y3995000D01*
X6831857D01*
Y3995429D01*
Y3995857D01*
Y3996286D01*
X6831429D01*
Y3996714D01*
Y3997143D01*
X6831000D01*
Y3997571D01*
Y3998000D01*
Y3998429D01*
X6830572D01*
Y3998857D01*
Y3999286D01*
X6830143D01*
Y3999714D01*
Y4000143D01*
X6829714D01*
Y4000571D01*
Y4001000D01*
Y4001429D01*
X6829286D01*
Y4001857D01*
Y4002286D01*
X6828857D01*
Y4002714D01*
Y4003143D01*
Y4003571D01*
X6828429D01*
Y4004000D01*
Y4004429D01*
X6828000D01*
Y4004857D01*
Y4005286D01*
X6827572D01*
Y4005714D01*
Y4006143D01*
Y4006571D01*
X6827143D01*
Y4007000D01*
Y4007429D01*
X6826714D01*
Y4007857D01*
Y4008286D01*
Y4008714D01*
X6826286D01*
Y4009143D01*
Y4009571D01*
X6825857D01*
Y4010000D01*
Y4010429D01*
Y4010857D01*
X6825429D01*
Y4011286D01*
Y4011714D01*
X6825000D01*
Y4012143D01*
Y4012571D01*
X6824572D01*
Y4013000D01*
Y4013429D01*
Y4013857D01*
X6824143D01*
Y4014286D01*
Y4014714D01*
X6823714D01*
Y4015143D01*
Y4015571D01*
Y4016000D01*
X6823286D01*
Y4016429D01*
Y4016857D01*
X6822857D01*
Y4017286D01*
Y4017714D01*
X6822429D01*
Y4018143D01*
Y4018571D01*
Y4019000D01*
X6822000D01*
Y4019429D01*
Y4019857D01*
X6822429D01*
Y4020286D01*
Y4020714D01*
X6822857D01*
Y4021143D01*
X6823286D01*
Y4021571D01*
X6824143D01*
Y4022000D01*
X6824572D01*
Y4022429D01*
X6825429D01*
Y4022857D01*
X6825857D01*
Y4023286D01*
X6826714D01*
Y4023714D01*
X6827143D01*
Y4024143D01*
X6827572D01*
Y4024571D01*
X6828429D01*
Y4025000D01*
X6828857D01*
Y4025429D01*
X6829714D01*
Y4025857D01*
X6830143D01*
Y4026286D01*
X6830572D01*
Y4026714D01*
X6831000D01*
Y4027143D01*
X6831857D01*
Y4027571D01*
X6832286D01*
Y4028000D01*
X6832714D01*
Y4028429D01*
X6833143D01*
Y4028857D01*
X6833572D01*
Y4029286D01*
X6834000D01*
Y4029714D01*
X6834429D01*
Y4030143D01*
X6834857D01*
Y4030571D01*
X6835286D01*
Y4031000D01*
Y4031429D01*
X6835714D01*
Y4031857D01*
X6836143D01*
Y4032286D01*
X6836572D01*
Y4032714D01*
X6837000D01*
Y4033143D01*
Y4033572D01*
X6837429D01*
Y4034000D01*
X6837857D01*
Y4034429D01*
Y4034857D01*
X6838286D01*
Y4035286D01*
X6838714D01*
Y4035714D01*
Y4036143D01*
X6839143D01*
Y4036572D01*
Y4037000D01*
X6839572D01*
Y4037429D01*
Y4037857D01*
X6840000D01*
Y4038286D01*
Y4038714D01*
X6840429D01*
Y4039143D01*
Y4039572D01*
X6840857D01*
Y4040000D01*
Y4040429D01*
X6841286D01*
Y4040857D01*
Y4041286D01*
X6841715D01*
Y4041714D01*
Y4042143D01*
Y4042572D01*
X6842143D01*
Y4043000D01*
Y4043429D01*
Y4043857D01*
X6842572D01*
Y4044286D01*
Y4044714D01*
Y4045143D01*
Y4045572D01*
X6843000D01*
Y4046000D01*
Y4046429D01*
Y4046857D01*
Y4047286D01*
Y4047714D01*
X6843429D01*
Y4048143D01*
Y4048572D01*
Y4049000D01*
Y4049429D01*
Y4049857D01*
Y4050286D01*
Y4050714D01*
X6843857D01*
Y4051143D01*
Y4051572D01*
Y4052000D01*
Y4052429D01*
Y4052857D01*
Y4053286D01*
Y4053714D01*
Y4054143D01*
Y4054572D01*
Y4055000D01*
Y4055429D01*
Y4055857D01*
Y4056286D01*
Y4056714D01*
X6843429D01*
Y4057143D01*
Y4057572D01*
Y4058000D01*
Y4058429D01*
Y4058857D01*
Y4059286D01*
Y4059714D01*
X6843000D01*
Y4060143D01*
Y4060572D01*
Y4061000D01*
Y4061429D01*
Y4061857D01*
X6842572D01*
Y4062286D01*
Y4062714D01*
Y4063143D01*
Y4063572D01*
X6842143D01*
Y4064000D01*
Y4064428D01*
Y4064857D01*
X6841715D01*
Y4065286D01*
Y4065714D01*
Y4066143D01*
X6841286D01*
Y4066571D01*
Y4067000D01*
X6840857D01*
Y4067428D01*
Y4067857D01*
Y4068286D01*
X6840429D01*
Y4068714D01*
Y4069143D01*
X6840000D01*
Y4069571D01*
Y4070000D01*
X6839572D01*
Y4070428D01*
Y4070857D01*
X6839143D01*
Y4071286D01*
X6838714D01*
Y4071714D01*
Y4072143D01*
X6838286D01*
Y4072571D01*
Y4073000D01*
X6837857D01*
Y4073428D01*
X6837429D01*
Y4073857D01*
Y4074286D01*
X6837000D01*
Y4074714D01*
X6836572D01*
Y4075143D01*
X6836143D01*
Y4075571D01*
Y4076000D01*
X6835714D01*
Y4076428D01*
X6835286D01*
Y4076857D01*
X6834857D01*
Y4077286D01*
X6834429D01*
Y4077714D01*
X6834000D01*
Y4078143D01*
X6833572D01*
Y4078571D01*
X6833143D01*
Y4079000D01*
X6832714D01*
Y4079428D01*
X6832286D01*
Y4079857D01*
X6831857D01*
Y4080286D01*
X6831429D01*
Y4080714D01*
X6831000D01*
Y4081143D01*
X6830572D01*
Y4081571D01*
X6829714D01*
Y4082000D01*
X6829286D01*
Y4082428D01*
X6828429D01*
Y4082857D01*
X6828000D01*
Y4083286D01*
X6827143D01*
Y4083714D01*
X6826714D01*
Y4084143D01*
X6825857D01*
Y4084571D01*
X6825000D01*
Y4085000D01*
X6824143D01*
Y4085428D01*
X6823286D01*
Y4085857D01*
X6822429D01*
Y4086286D01*
X6821572D01*
Y4086714D01*
X6820286D01*
Y4087143D01*
X6819000D01*
Y4087571D01*
X6817714D01*
Y4088000D01*
X6816000D01*
Y4088428D01*
X6813429D01*
Y4088857D01*
X6803572D01*
Y4088428D01*
X6801000D01*
Y4088000D01*
X6799286D01*
Y4087571D01*
X6798000D01*
Y4087143D01*
X6796714D01*
Y4086714D01*
X6795429D01*
Y4086286D01*
X6794572D01*
Y4085857D01*
X6793714D01*
Y4085428D01*
X6792857D01*
Y4085000D01*
X6792000D01*
Y4084571D01*
X6791143D01*
Y4084143D01*
X6790286D01*
Y4083714D01*
X6789857D01*
Y4083286D01*
X6789000D01*
Y4082857D01*
X6788572D01*
Y4082428D01*
X6787714D01*
Y4082000D01*
X6787286D01*
Y4081571D01*
X6786857D01*
Y4081143D01*
X6786429D01*
Y4080714D01*
X6785572D01*
Y4080286D01*
X6785143D01*
Y4079857D01*
X6784714D01*
Y4079428D01*
X6784286D01*
Y4079000D01*
X6783857D01*
Y4078571D01*
X6783429D01*
Y4078143D01*
X6783000D01*
Y4077714D01*
X6782572D01*
Y4077286D01*
X6782143D01*
Y4076857D01*
X6781714D01*
Y4076428D01*
X6781286D01*
Y4076000D01*
Y4075571D01*
X6780857D01*
Y4075143D01*
X6780429D01*
Y4074714D01*
X6780000D01*
Y4074286D01*
Y4073857D01*
X6779572D01*
Y4073428D01*
X6779143D01*
Y4073000D01*
Y4072571D01*
X6778714D01*
Y4072143D01*
X6778286D01*
Y4071714D01*
Y4071286D01*
X6777857D01*
Y4070857D01*
Y4070428D01*
X6777429D01*
Y4070000D01*
Y4069571D01*
X6777000D01*
Y4069143D01*
Y4068714D01*
X6776572D01*
Y4068286D01*
Y4067857D01*
X6776143D01*
Y4067428D01*
Y4067000D01*
X6775714D01*
Y4066571D01*
Y4066143D01*
Y4065714D01*
X6775286D01*
Y4065286D01*
Y4064857D01*
Y4064428D01*
X6774857D01*
Y4064000D01*
Y4063572D01*
Y4063143D01*
X6774429D01*
Y4062714D01*
Y4062286D01*
Y4061857D01*
Y4061429D01*
X6774000D01*
Y4061000D01*
Y4060572D01*
Y4060143D01*
Y4059714D01*
Y4059286D01*
X6773572D01*
Y4058857D01*
Y4058429D01*
Y4058000D01*
Y4057572D01*
Y4057143D01*
Y4056714D01*
Y4056286D01*
Y4055857D01*
Y4055429D01*
Y4055000D01*
X6773143D01*
Y4054572D01*
Y4054143D01*
Y4053714D01*
Y4053286D01*
Y4052857D01*
Y4052429D01*
X6773572D01*
Y4052000D01*
Y4051572D01*
Y4051143D01*
Y4050714D01*
Y4050286D01*
Y4049857D01*
Y4049429D01*
Y4049000D01*
Y4048572D01*
Y4048143D01*
X6774000D01*
Y4047714D01*
Y4047286D01*
Y4046857D01*
Y4046429D01*
Y4046000D01*
X6774429D01*
Y4045572D01*
Y4045143D01*
Y4044714D01*
Y4044286D01*
X6774857D01*
Y4043857D01*
Y4043429D01*
Y4043000D01*
X6775286D01*
Y4042572D01*
Y4042143D01*
Y4041714D01*
X6775714D01*
Y4041286D01*
Y4040857D01*
X6776143D01*
Y4040429D01*
Y4040000D01*
Y4039572D01*
X6776572D01*
Y4039143D01*
Y4038714D01*
X6777000D01*
Y4038286D01*
Y4037857D01*
X6777429D01*
Y4037429D01*
Y4037000D01*
X6777857D01*
Y4036572D01*
Y4036143D01*
X6778286D01*
Y4035714D01*
X6778714D01*
Y4035286D01*
Y4034857D01*
X6779143D01*
Y4034429D01*
X6779572D01*
Y4034000D01*
Y4033572D01*
X6780000D01*
Y4033143D01*
X6780429D01*
Y4032714D01*
Y4032286D01*
X6780857D01*
Y4031857D01*
X6781286D01*
Y4031429D01*
X6781714D01*
Y4031000D01*
X6782143D01*
Y4030571D01*
X6782572D01*
Y4030143D01*
Y4029714D01*
X6783000D01*
Y4029286D01*
X6783429D01*
Y4028857D01*
X6783857D01*
Y4028429D01*
X6784286D01*
Y4028000D01*
X6785143D01*
Y4027571D01*
X6785572D01*
Y4027143D01*
X6786000D01*
Y4026714D01*
X6786429D01*
Y4026286D01*
X6786857D01*
Y4025857D01*
X6787714D01*
Y4025429D01*
X6788143D01*
Y4025000D01*
X6788572D01*
Y4024571D01*
X6789429D01*
Y4024143D01*
X6789857D01*
Y4023714D01*
X6790286D01*
Y4023286D01*
X6791143D01*
Y4022857D01*
X6791572D01*
Y4022429D01*
X6792429D01*
Y4022000D01*
X6793286D01*
Y4021571D01*
X6793714D01*
Y4021143D01*
X6794572D01*
Y4020714D01*
Y4020286D01*
X6795000D01*
Y4019857D01*
Y4019429D01*
Y4019000D01*
Y4018571D01*
X6794572D01*
Y4018143D01*
Y4017714D01*
X6794143D01*
Y4017286D01*
Y4016857D01*
Y4016429D01*
X6793714D01*
Y4016000D01*
Y4015571D01*
X6793286D01*
Y4015143D01*
Y4014714D01*
X6792857D01*
Y4014286D01*
Y4013857D01*
Y4013429D01*
X6792429D01*
Y4013000D01*
Y4012571D01*
X6792000D01*
Y4012143D01*
Y4011714D01*
Y4011286D01*
X6791572D01*
Y4010857D01*
Y4010429D01*
X6791143D01*
Y4010000D01*
Y4009571D01*
X6790714D01*
Y4009143D01*
Y4008714D01*
Y4008286D01*
X6790286D01*
Y4007857D01*
Y4007429D01*
X6789857D01*
Y4007000D01*
Y4006571D01*
Y4006143D01*
X6789429D01*
Y4005714D01*
Y4005286D01*
X6789000D01*
Y4004857D01*
Y4004429D01*
Y4004000D01*
X6788572D01*
Y4003571D01*
Y4003143D01*
X6788143D01*
Y4002714D01*
Y4002286D01*
X6787714D01*
Y4001857D01*
Y4001429D01*
Y4001000D01*
X6787286D01*
Y4000571D01*
Y4000143D01*
X6786857D01*
Y3999714D01*
Y3999286D01*
Y3998857D01*
X6786429D01*
Y3998429D01*
Y3998000D01*
X6786000D01*
Y3997571D01*
Y3997143D01*
X6785572D01*
Y3996714D01*
Y3996286D01*
Y3995857D01*
X6785143D01*
Y3995429D01*
Y3995000D01*
X6784714D01*
Y3994571D01*
Y3994143D01*
Y3993714D01*
X6784286D01*
Y3993286D01*
Y3992857D01*
X6783857D01*
Y3992429D01*
Y3992000D01*
Y3991571D01*
X6783429D01*
Y3991143D01*
Y3990714D01*
X6783000D01*
Y3990286D01*
Y3989857D01*
X6782572D01*
Y3989429D01*
Y3989000D01*
Y3988571D01*
X6782143D01*
Y3988143D01*
Y3987714D01*
X6781714D01*
Y3987286D01*
Y3986857D01*
Y3986429D01*
X6781286D01*
Y3986000D01*
Y3985571D01*
X6780857D01*
Y3985143D01*
Y3984714D01*
X6780429D01*
Y3984286D01*
Y3983857D01*
Y3983429D01*
X6780000D01*
Y3983000D01*
Y3982571D01*
X6779572D01*
Y3982143D01*
Y3981714D01*
Y3981286D01*
X6779143D01*
Y3980857D01*
Y3980429D01*
X6778714D01*
Y3980000D01*
Y3979571D01*
Y3979143D01*
X6778286D01*
Y3978714D01*
Y3978286D01*
X6777857D01*
Y3977857D01*
Y3977429D01*
X6777429D01*
Y3977000D01*
Y3976571D01*
Y3976143D01*
X6777000D01*
Y3975714D01*
Y3975286D01*
X6776572D01*
Y3974857D01*
Y3974429D01*
Y3974000D01*
X6776143D01*
Y3973571D01*
Y3973143D01*
X6775714D01*
Y3972714D01*
Y3972286D01*
X6775286D01*
Y3971857D01*
Y3971429D01*
Y3971000D01*
X6774857D01*
Y3970571D01*
Y3970143D01*
X6774429D01*
Y3969714D01*
Y3969286D01*
Y3968857D01*
X6774000D01*
Y3968429D01*
Y3968000D01*
X6773572D01*
Y3967571D01*
Y3967143D01*
Y3966714D01*
X6773143D01*
Y3966286D01*
Y3965857D01*
X6772714D01*
Y3965429D01*
Y3965000D01*
X6772286D01*
Y3964571D01*
Y3964143D01*
X6771857D01*
Y3963714D01*
X6769714D01*
Y3964143D01*
X6768857D01*
Y3964571D01*
X6768429D01*
Y3965000D01*
X6767572D01*
Y3965429D01*
X6766714D01*
Y3965857D01*
X6765857D01*
Y3966286D01*
X6765000D01*
Y3966714D01*
X6764143D01*
Y3967143D01*
X6763286D01*
Y3967571D01*
X6762429D01*
Y3968000D01*
X6762000D01*
Y3968429D01*
X6761143D01*
Y3968857D01*
X6760286D01*
Y3969286D01*
X6759429D01*
Y3969714D01*
X6757286D01*
Y3969286D01*
X6756429D01*
Y3968857D01*
X6756000D01*
Y3968429D01*
X6755572D01*
Y3968000D01*
X6754714D01*
Y3967571D01*
X6754286D01*
Y3967143D01*
X6753429D01*
Y3966714D01*
X6753000D01*
Y3966286D01*
X6752143D01*
Y3965857D01*
X6751714D01*
Y3965429D01*
X6750857D01*
Y3965000D01*
X6750429D01*
Y3964571D01*
X6749571D01*
Y3964143D01*
X6749143D01*
Y3963714D01*
X6748714D01*
Y3963286D01*
X6747857D01*
Y3962857D01*
X6747429D01*
Y3962429D01*
X6746571D01*
Y3962000D01*
X6746143D01*
Y3961571D01*
X6745286D01*
Y3961143D01*
X6744857D01*
Y3960714D01*
X6744000D01*
Y3960286D01*
X6743571D01*
Y3959857D01*
X6742714D01*
Y3959429D01*
X6742286D01*
Y3959000D01*
X6741857D01*
Y3958571D01*
X6741000D01*
Y3958143D01*
X6740571D01*
Y3957714D01*
X6739714D01*
Y3957286D01*
X6739286D01*
Y3956857D01*
X6738429D01*
Y3956429D01*
X6738000D01*
Y3956000D01*
X6737143D01*
Y3955571D01*
X6736714D01*
Y3955143D01*
X6735857D01*
Y3954714D01*
X6735429D01*
Y3954286D01*
X6734571D01*
Y3953857D01*
X6734143D01*
Y3953429D01*
X6733714D01*
Y3953000D01*
X6732857D01*
Y3952571D01*
X6732000D01*
Y3952143D01*
X6730715D01*
Y3952571D01*
X6729857D01*
Y3953000D01*
X6729429D01*
Y3953429D01*
X6729000D01*
Y3953857D01*
X6728572D01*
Y3954286D01*
X6728143D01*
Y3954714D01*
X6727715D01*
Y3955143D01*
X6727286D01*
Y3955571D01*
X6726857D01*
Y3956000D01*
X6726429D01*
Y3956429D01*
X6726000D01*
Y3956857D01*
X6725572D01*
Y3957286D01*
X6725143D01*
Y3957714D01*
X6724715D01*
Y3958143D01*
X6724286D01*
Y3958571D01*
X6723857D01*
Y3959000D01*
X6723429D01*
Y3959429D01*
X6723000D01*
Y3959857D01*
X6722572D01*
Y3960286D01*
X6722143D01*
Y3960714D01*
X6721715D01*
Y3961143D01*
X6721286D01*
Y3961571D01*
X6720857D01*
Y3962000D01*
X6720429D01*
Y3962429D01*
X6720000D01*
Y3962857D01*
X6719572D01*
Y3963286D01*
X6719143D01*
Y3963714D01*
X6718715D01*
Y3964143D01*
X6718286D01*
Y3964571D01*
X6717857D01*
Y3965000D01*
X6717429D01*
Y3965429D01*
X6717000D01*
Y3965857D01*
X6716572D01*
Y3966286D01*
X6716143D01*
Y3966714D01*
X6715715D01*
Y3967143D01*
X6715286D01*
Y3967571D01*
X6714857D01*
Y3968000D01*
X6714429D01*
Y3968429D01*
X6714000D01*
Y3968857D01*
X6713572D01*
Y3969286D01*
X6713143D01*
Y3969714D01*
X6712715D01*
Y3970143D01*
X6712286D01*
Y3970571D01*
X6711857D01*
Y3971000D01*
X6711429D01*
Y3971429D01*
X6711000D01*
Y3971857D01*
X6710572D01*
Y3972286D01*
X6710143D01*
Y3972714D01*
X6709715D01*
Y3973143D01*
X6709286D01*
Y3973571D01*
X6708857D01*
Y3974000D01*
X6708429D01*
Y3974429D01*
X6708000D01*
Y3974857D01*
X6707572D01*
Y3975286D01*
X6707143D01*
Y3975714D01*
Y3976143D01*
X6706715D01*
Y3976571D01*
Y3977000D01*
Y3977429D01*
X6707143D01*
Y3977857D01*
Y3978286D01*
X6707572D01*
Y3978714D01*
Y3979143D01*
X6708000D01*
Y3979571D01*
X6708429D01*
Y3980000D01*
X6708857D01*
Y3980429D01*
Y3980857D01*
X6709286D01*
Y3981286D01*
X6709715D01*
Y3981714D01*
Y3982143D01*
X6710143D01*
Y3982571D01*
X6710572D01*
Y3983000D01*
Y3983429D01*
X6711000D01*
Y3983857D01*
X6711429D01*
Y3984286D01*
Y3984714D01*
X6711857D01*
Y3985143D01*
X6712286D01*
Y3985571D01*
Y3986000D01*
X6712715D01*
Y3986429D01*
X6713143D01*
Y3986857D01*
X6713572D01*
Y3987286D01*
Y3987714D01*
X6714000D01*
Y3988143D01*
X6714429D01*
Y3988571D01*
Y3989000D01*
X6714857D01*
Y3989429D01*
X6715286D01*
Y3989857D01*
Y3990286D01*
X6715715D01*
Y3990714D01*
X6716143D01*
Y3991143D01*
Y3991571D01*
X6716572D01*
Y3992000D01*
X6717000D01*
Y3992429D01*
Y3992857D01*
X6717429D01*
Y3993286D01*
X6717857D01*
Y3993714D01*
Y3994143D01*
X6718286D01*
Y3994571D01*
X6718715D01*
Y3995000D01*
X6719143D01*
Y3995429D01*
Y3995857D01*
X6719572D01*
Y3996286D01*
X6720000D01*
Y3996714D01*
Y3997143D01*
X6720429D01*
Y3997571D01*
X6720857D01*
Y3998000D01*
Y3998429D01*
X6721286D01*
Y3998857D01*
X6721715D01*
Y3999286D01*
Y3999714D01*
X6722143D01*
Y4000143D01*
X6722572D01*
Y4000571D01*
Y4001000D01*
X6723000D01*
Y4001429D01*
X6723429D01*
Y4001857D01*
X6723857D01*
Y4002286D01*
Y4002714D01*
X6724286D01*
Y4003143D01*
X6724715D01*
Y4003571D01*
Y4004000D01*
Y4004429D01*
Y4004857D01*
Y4005286D01*
X6724286D01*
Y4005714D01*
Y4006143D01*
Y4006571D01*
X6723857D01*
Y4007000D01*
Y4007429D01*
X6723429D01*
Y4007857D01*
Y4008286D01*
Y4008714D01*
X6723000D01*
Y4009143D01*
Y4009571D01*
X6722572D01*
Y4010000D01*
Y4010429D01*
Y4010857D01*
X6722143D01*
Y4011286D01*
Y4011714D01*
X6721715D01*
Y4012143D01*
Y4012571D01*
Y4013000D01*
X6721286D01*
Y4013429D01*
Y4013857D01*
X6720857D01*
Y4014286D01*
Y4014714D01*
Y4015143D01*
X6720429D01*
Y4015571D01*
Y4016000D01*
X6720000D01*
Y4016429D01*
Y4016857D01*
Y4017286D01*
X6719572D01*
Y4017714D01*
Y4018143D01*
X6719143D01*
Y4018571D01*
Y4019000D01*
Y4019429D01*
X6718715D01*
Y4019857D01*
Y4020286D01*
X6718286D01*
Y4020714D01*
Y4021143D01*
Y4021571D01*
X6717857D01*
Y4022000D01*
Y4022429D01*
X6717429D01*
Y4022857D01*
Y4023286D01*
Y4023714D01*
X6717000D01*
Y4024143D01*
Y4024571D01*
X6716572D01*
Y4025000D01*
Y4025429D01*
Y4025857D01*
X6716143D01*
Y4026286D01*
Y4026714D01*
X6715715D01*
Y4027143D01*
Y4027571D01*
Y4028000D01*
X6715286D01*
Y4028429D01*
Y4028857D01*
X6714857D01*
Y4029286D01*
Y4029714D01*
X6714429D01*
Y4030143D01*
X6713572D01*
Y4030571D01*
X6711429D01*
Y4031000D01*
X6708857D01*
Y4031429D01*
X6706715D01*
Y4031857D01*
X6704572D01*
Y4032286D01*
X6702000D01*
Y4032714D01*
X6699857D01*
Y4033143D01*
X6697715D01*
Y4033572D01*
X6695143D01*
Y4034000D01*
X6693000D01*
Y4034429D01*
X6690429D01*
Y4034857D01*
X6688286D01*
Y4035286D01*
X6686143D01*
Y4035714D01*
X6683572D01*
Y4036143D01*
X6682286D01*
Y4036572D01*
X6681857D01*
Y4037000D01*
X6681429D01*
Y4037429D01*
Y4037857D01*
Y4038286D01*
Y4038714D01*
Y4039143D01*
Y4039572D01*
Y4040000D01*
Y4040429D01*
Y4040857D01*
Y4041286D01*
Y4041714D01*
Y4042143D01*
Y4042572D01*
Y4043000D01*
Y4043429D01*
Y4043857D01*
Y4044286D01*
Y4044714D01*
Y4045143D01*
Y4045572D01*
Y4046000D01*
Y4046429D01*
Y4046857D01*
Y4047286D01*
Y4047714D01*
Y4048143D01*
Y4048572D01*
Y4049000D01*
Y4049429D01*
Y4049857D01*
Y4050286D01*
Y4050714D01*
Y4051143D01*
Y4051572D01*
Y4052000D01*
Y4052429D01*
Y4052857D01*
Y4053286D01*
Y4053714D01*
Y4054143D01*
Y4054572D01*
Y4055000D01*
Y4055429D01*
Y4055857D01*
Y4056286D01*
Y4056714D01*
Y4057143D01*
Y4057572D01*
Y4058000D01*
Y4058429D01*
Y4058857D01*
Y4059286D01*
Y4059714D01*
Y4060143D01*
Y4060572D01*
Y4061000D01*
Y4061429D01*
Y4061857D01*
Y4062286D01*
Y4062714D01*
Y4063143D01*
Y4063572D01*
Y4064000D01*
Y4064428D01*
Y4064857D01*
Y4065286D01*
Y4065714D01*
Y4066143D01*
Y4066571D01*
Y4067000D01*
Y4067428D01*
Y4067857D01*
Y4068286D01*
Y4068714D01*
Y4069143D01*
Y4069571D01*
Y4070000D01*
Y4070428D01*
Y4070857D01*
X6681857D01*
Y4071286D01*
X6682286D01*
Y4071714D01*
X6683143D01*
Y4072143D01*
X6685286D01*
Y4072571D01*
X6687857D01*
Y4073000D01*
X6690000D01*
Y4073428D01*
X6692572D01*
Y4073857D01*
X6694715D01*
Y4074286D01*
X6696857D01*
Y4074714D01*
X6699429D01*
Y4075143D01*
X6701572D01*
Y4075571D01*
X6703715D01*
Y4076000D01*
X6706286D01*
Y4076428D01*
X6708429D01*
Y4076857D01*
X6711000D01*
Y4077286D01*
X6713143D01*
Y4077714D01*
X6714857D01*
Y4078143D01*
X6715286D01*
Y4078571D01*
X6715715D01*
Y4079000D01*
Y4079428D01*
X6716143D01*
Y4079857D01*
Y4080286D01*
X6716572D01*
Y4080714D01*
Y4081143D01*
X6717000D01*
Y4081571D01*
Y4082000D01*
Y4082428D01*
X6717429D01*
Y4082857D01*
Y4083286D01*
X6717857D01*
Y4083714D01*
Y4084143D01*
X6718286D01*
Y4084571D01*
Y4085000D01*
Y4085428D01*
X6718715D01*
Y4085857D01*
Y4086286D01*
X6719143D01*
Y4086714D01*
Y4087143D01*
X6719572D01*
Y4087571D01*
Y4088000D01*
Y4088428D01*
X6720000D01*
Y4088857D01*
Y4089286D01*
X6720429D01*
Y4089714D01*
Y4090143D01*
X6720857D01*
Y4090571D01*
Y4091000D01*
Y4091428D01*
X6721286D01*
Y4091857D01*
Y4092286D01*
X6721715D01*
Y4092714D01*
Y4093143D01*
X6722143D01*
Y4093571D01*
Y4094000D01*
Y4094428D01*
X6722572D01*
Y4094857D01*
Y4095286D01*
X6723000D01*
Y4095714D01*
Y4096143D01*
X6723429D01*
Y4096571D01*
Y4097000D01*
Y4097429D01*
X6723857D01*
Y4097857D01*
Y4098286D01*
X6724286D01*
Y4098714D01*
Y4099143D01*
X6724715D01*
Y4099571D01*
Y4100000D01*
Y4100429D01*
X6725143D01*
Y4100857D01*
Y4101286D01*
X6725572D01*
Y4101714D01*
Y4102143D01*
Y4102571D01*
Y4103000D01*
Y4103429D01*
X6725143D01*
Y4103857D01*
X6724715D01*
Y4104286D01*
Y4104714D01*
X6724286D01*
Y4105143D01*
X6723857D01*
Y4105571D01*
Y4106000D01*
X6723429D01*
Y4106429D01*
X6723000D01*
Y4106857D01*
Y4107286D01*
X6722572D01*
Y4107714D01*
X6722143D01*
Y4108143D01*
Y4108571D01*
X6721715D01*
Y4109000D01*
X6721286D01*
Y4109429D01*
Y4109857D01*
X6720857D01*
Y4110286D01*
X6720429D01*
Y4110714D01*
X6720000D01*
Y4111143D01*
Y4111571D01*
X6719572D01*
Y4112000D01*
X6719143D01*
Y4112429D01*
Y4112857D01*
X6718715D01*
Y4113286D01*
X6718286D01*
Y4113714D01*
Y4114143D01*
X6717857D01*
Y4114571D01*
X6717429D01*
Y4115000D01*
Y4115429D01*
X6717000D01*
Y4115857D01*
X6716572D01*
Y4116286D01*
Y4116714D01*
X6716143D01*
Y4117143D01*
X6715715D01*
Y4117571D01*
X6715286D01*
Y4118000D01*
Y4118429D01*
X6714857D01*
Y4118857D01*
X6714429D01*
Y4119286D01*
Y4119714D01*
X6714000D01*
Y4120143D01*
X6713572D01*
Y4120571D01*
Y4121000D01*
X6713143D01*
Y4121429D01*
X6712715D01*
Y4121857D01*
Y4122286D01*
X6712286D01*
Y4122714D01*
X6711857D01*
Y4123143D01*
Y4123571D01*
X6711429D01*
Y4124000D01*
X6711000D01*
Y4124429D01*
X6710572D01*
Y4124857D01*
Y4125286D01*
X6710143D01*
Y4125714D01*
X6709715D01*
Y4126143D01*
Y4126571D01*
X6709286D01*
Y4127000D01*
X6708857D01*
Y4127429D01*
Y4127857D01*
X6708429D01*
Y4128286D01*
X6708000D01*
Y4128714D01*
Y4129143D01*
X6707572D01*
Y4129571D01*
X6707143D01*
Y4130000D01*
Y4130429D01*
X6706715D01*
Y4130857D01*
Y4131286D01*
Y4131714D01*
X6707143D01*
Y4132143D01*
Y4132571D01*
X6707572D01*
Y4133000D01*
X6708000D01*
Y4133429D01*
X6708429D01*
Y4133857D01*
X6708857D01*
Y4134286D01*
X6709286D01*
Y4134714D01*
X6709715D01*
Y4135143D01*
X6710143D01*
Y4135571D01*
X6710572D01*
Y4136000D01*
X6711000D01*
Y4136429D01*
X6711429D01*
Y4136857D01*
X6711857D01*
Y4137286D01*
X6712286D01*
Y4137714D01*
X6712715D01*
Y4138143D01*
X6713143D01*
Y4138571D01*
X6713572D01*
Y4139000D01*
X6714000D01*
Y4139429D01*
X6714429D01*
Y4139857D01*
X6714857D01*
Y4140286D01*
X6715286D01*
Y4140714D01*
X6715715D01*
Y4141143D01*
X6716143D01*
Y4141571D01*
X6716572D01*
Y4142000D01*
X6717000D01*
Y4142429D01*
X6717429D01*
Y4142857D01*
X6717857D01*
Y4143286D01*
X6718286D01*
Y4143714D01*
X6718715D01*
Y4144143D01*
X6719143D01*
Y4144571D01*
X6719572D01*
Y4145000D01*
X6720000D01*
Y4145429D01*
X6720429D01*
Y4145857D01*
X6720857D01*
Y4146286D01*
X6721286D01*
Y4146714D01*
X6721715D01*
Y4147143D01*
X6722143D01*
Y4147571D01*
X6722572D01*
Y4148000D01*
X6723000D01*
Y4148429D01*
X6723429D01*
Y4148857D01*
X6723857D01*
Y4149286D01*
X6724286D01*
Y4149714D01*
X6724715D01*
Y4150143D01*
X6725143D01*
Y4150571D01*
X6725572D01*
Y4151000D01*
X6726000D01*
Y4151429D01*
X6726429D01*
Y4151857D01*
X6726857D01*
Y4152286D01*
X6727286D01*
Y4152714D01*
X6727715D01*
Y4153143D01*
X6728143D01*
Y4153571D01*
X6728572D01*
Y4154000D01*
X6729000D01*
Y4154429D01*
X6729429D01*
Y4154857D01*
X6729857D01*
Y4155286D01*
X6730286D01*
Y4155714D01*
X6732429D01*
Y4155286D01*
X6732857D01*
Y4154857D01*
X6733714D01*
Y4154429D01*
X6734143D01*
Y4154000D01*
X6735000D01*
Y4153571D01*
X6735429D01*
Y4153143D01*
X6736286D01*
Y4152714D01*
X6736714D01*
Y4152286D01*
X6737571D01*
Y4151857D01*
X6738000D01*
Y4151429D01*
X6738857D01*
Y4151000D01*
X6739286D01*
Y4150571D01*
X6739714D01*
Y4150143D01*
X6740571D01*
Y4149714D01*
X6741000D01*
Y4149286D01*
X6741857D01*
Y4148857D01*
X6742286D01*
Y4148429D01*
X6743143D01*
Y4148000D01*
X6743571D01*
Y4147571D01*
X6744429D01*
Y4147143D01*
X6744857D01*
Y4146714D01*
X6745714D01*
Y4146286D01*
X6746143D01*
Y4145857D01*
X6747000D01*
Y4145429D01*
X6747429D01*
Y4145000D01*
X6747857D01*
Y4144571D01*
X6748714D01*
Y4144143D01*
X6749143D01*
Y4143714D01*
X6750000D01*
Y4143286D01*
X6750429D01*
Y4142857D01*
X6751286D01*
Y4142429D01*
X6751714D01*
Y4142000D01*
X6752571D01*
Y4141571D01*
X6753000D01*
Y4141143D01*
X6753857D01*
Y4140714D01*
X6754286D01*
Y4140286D01*
X6754714D01*
Y4139857D01*
X6755572D01*
Y4139429D01*
X6756000D01*
Y4139000D01*
X6756857D01*
Y4138571D01*
X6757286D01*
Y4138143D01*
X6758143D01*
Y4137714D01*
X6758572D01*
Y4137286D01*
X6759429D01*
Y4136857D01*
X6760286D01*
Y4136429D01*
X6761143D01*
Y4136857D01*
X6762429D01*
Y4137286D01*
X6763286D01*
Y4137714D01*
X6764143D01*
Y4138143D01*
X6765429D01*
Y4138571D01*
X6766286D01*
Y4139000D01*
X6767572D01*
Y4139429D01*
X6768429D01*
Y4139857D01*
X6769714D01*
Y4140286D01*
X6770572D01*
Y4140714D01*
X6771857D01*
Y4141143D01*
X6772714D01*
Y4141571D01*
X6773572D01*
Y4142000D01*
X6774857D01*
Y4142429D01*
X6775714D01*
Y4142857D01*
X6777000D01*
Y4143286D01*
X6777857D01*
Y4143714D01*
X6779143D01*
Y4144143D01*
X6780000D01*
Y4144571D01*
X6781286D01*
Y4145000D01*
X6782143D01*
Y4145429D01*
X6783000D01*
Y4145857D01*
X6783857D01*
Y4146286D01*
X6784286D01*
Y4146714D01*
Y4147143D01*
X6784714D01*
Y4147571D01*
Y4148000D01*
Y4148429D01*
Y4148857D01*
X6785143D01*
Y4149286D01*
Y4149714D01*
Y4150143D01*
Y4150571D01*
Y4151000D01*
X6785572D01*
Y4151429D01*
Y4151857D01*
Y4152286D01*
Y4152714D01*
Y4153143D01*
Y4153571D01*
X6786000D01*
Y4154000D01*
Y4154429D01*
Y4154857D01*
Y4155286D01*
Y4155714D01*
X6786429D01*
Y4156143D01*
Y4156571D01*
Y4157000D01*
Y4157429D01*
Y4157857D01*
Y4158286D01*
X6786857D01*
Y4158714D01*
Y4159143D01*
Y4159571D01*
Y4160000D01*
Y4160429D01*
X6787286D01*
Y4160857D01*
Y4161286D01*
Y4161714D01*
Y4162143D01*
Y4162571D01*
X6787714D01*
Y4163000D01*
Y4163429D01*
Y4163857D01*
Y4164286D01*
Y4164714D01*
Y4165143D01*
X6788143D01*
Y4165571D01*
Y4166000D01*
Y4166429D01*
Y4166857D01*
Y4167286D01*
X6788572D01*
Y4167714D01*
Y4168143D01*
Y4168571D01*
Y4169000D01*
Y4169429D01*
X6789000D01*
Y4169857D01*
Y4170286D01*
Y4170714D01*
Y4171143D01*
Y4171571D01*
Y4172000D01*
X6789429D01*
Y4172429D01*
Y4172857D01*
Y4173286D01*
Y4173714D01*
Y4174143D01*
X6789857D01*
Y4174571D01*
Y4175000D01*
Y4175429D01*
Y4175857D01*
Y4176286D01*
Y4176714D01*
X6790286D01*
Y4177143D01*
Y4177571D01*
Y4178000D01*
Y4178429D01*
Y4178857D01*
X6790714D01*
Y4179286D01*
Y4179714D01*
Y4180143D01*
X6791143D01*
Y4180571D01*
X6791572D01*
Y4181000D01*
X6825429D01*
Y4180571D01*
D02*
G37*
G36*
X6400000Y4750000D02*
X6380000Y4775000D01*
X6420000D01*
X6400000Y4750000D01*
D02*
G37*
G36*
X6480000Y4700000D02*
X6530000Y4740000D01*
Y4660000D01*
X6480000Y4700000D01*
D02*
G37*
G36*
X7205000Y3490000D02*
X7180000Y3520000D01*
X7230000D01*
X7205000Y3490000D01*
D02*
G37*
G36*
X7110000Y3855000D02*
X7085000Y3885000D01*
X7135000D01*
X7110000Y3855000D01*
D02*
G37*
G36*
X7515000Y4125000D02*
X7540000Y4095000D01*
X7490000D01*
X7515000Y4125000D01*
D02*
G37*
G36*
X7720000Y4560000D02*
X7770000Y4600000D01*
Y4520000D01*
X7720000Y4560000D01*
D02*
G37*
G36*
X7640000Y4610000D02*
X7620000Y4635000D01*
X7660000D01*
X7640000Y4610000D01*
D02*
G37*
G36*
X8008000Y4673800D02*
X7983000Y4703800D01*
X8033000D01*
X8008000Y4673800D01*
D02*
G37*
G36*
X7830000Y5280000D02*
X7810000Y5305000D01*
X7850000D01*
X7830000Y5280000D01*
D02*
G37*
G36*
X7910000Y5230000D02*
X7960000Y5270000D01*
Y5190000D01*
X7910000Y5230000D01*
D02*
G37*
D76*
X5480000Y2710000D02*
G03*
X5480000Y2750000I0J20000D01*
G01*
Y2630000D02*
G03*
X5480000Y2670000I0J20000D01*
G01*
Y2710000D02*
G03*
X5480000Y2670000I0J-20000D01*
G01*
X3320000Y2440000D02*
G03*
X3320000Y2480000I0J20000D01*
G01*
Y2360000D02*
G03*
X3320000Y2400000I0J20000D01*
G01*
Y2440000D02*
G03*
X3320000Y2400000I0J-20000D01*
G01*
X3890000Y3740000D02*
G03*
X3890000Y3700000I0J-20000D01*
G01*
Y3820000D02*
G03*
X3890000Y3780000I0J-20000D01*
G01*
Y3740000D02*
G03*
X3890000Y3780000I0J20000D01*
G01*
X2510000Y3970000D02*
G03*
X2550000Y3970000I20000J0D01*
G01*
X2430000D02*
G03*
X2470000Y3970000I20000J0D01*
G01*
X2510000D02*
G03*
X2470000Y3970000I-20000J0D01*
G01*
Y3660000D02*
G03*
X2430000Y3660000I-20000J0D01*
G01*
X2550000D02*
G03*
X2510000Y3660000I-20000J0D01*
G01*
X2470000D02*
G03*
X2510000Y3660000I20000J0D01*
G01*
X3650000Y2720000D02*
G03*
X3650000Y2760000I0J20000D01*
G01*
Y2640000D02*
G03*
X3650000Y2680000I0J20000D01*
G01*
Y2720000D02*
G03*
X3650000Y2680000I0J-20000D01*
G01*
X5550000Y3370000D02*
G03*
X5550000Y3410000I0J20000D01*
G01*
Y3290000D02*
G03*
X5550000Y3330000I0J20000D01*
G01*
Y3370000D02*
G03*
X5550000Y3330000I0J-20000D01*
G01*
X6280000Y4260000D02*
G03*
X6280000Y4220000I0J-20000D01*
G01*
Y4340000D02*
G03*
X6280000Y4300000I0J-20000D01*
G01*
Y4260000D02*
G03*
X6280000Y4300000I0J20000D01*
G01*
X5930000Y4260000D02*
G03*
X5930000Y4220000I0J-20000D01*
G01*
Y4340000D02*
G03*
X5930000Y4300000I0J-20000D01*
G01*
Y4260000D02*
G03*
X5930000Y4300000I0J20000D01*
G01*
X5550000Y3600000D02*
G03*
X5550000Y3640000I0J20000D01*
G01*
Y3520000D02*
G03*
X5550000Y3560000I0J20000D01*
G01*
Y3600000D02*
G03*
X5550000Y3560000I0J-20000D01*
G01*
X5520000Y4260000D02*
G03*
X5520000Y4220000I0J-20000D01*
G01*
Y4340000D02*
G03*
X5520000Y4300000I0J-20000D01*
G01*
Y4260000D02*
G03*
X5520000Y4300000I0J20000D01*
G01*
X3836447Y1846230D02*
G03*
X3883879Y1834960I27758J11379D01*
G01*
X3883697Y1789347D02*
G03*
X3835919Y1772675I-18578J-23555D01*
G01*
X3883495Y1834467D02*
G03*
X3884743Y1788142I-18425J-23675D01*
G01*
X3673446Y1096077D02*
G03*
X3625668Y1079406I-18578J-23555D01*
G01*
X3673244Y1141197D02*
G03*
X3674492Y1094873I-18425J-23675D01*
G01*
X3673582Y1187027D02*
G03*
X3673628Y1141690I-19627J-22688D01*
G01*
X3624613Y1203092D02*
G03*
X3672449Y1185718I29342J6247D01*
G01*
X4176448Y1026230D02*
G03*
X4223879Y1014960I27758J11379D01*
G01*
X4223697Y969347D02*
G03*
X4175920Y952676I-18578J-23555D01*
G01*
X4223495Y1014467D02*
G03*
X4224743Y968143I-18425J-23675D01*
G01*
X2986077Y1196554D02*
G03*
X2969406Y1244332I-23555J18578D01*
G01*
X3031197Y1196757D02*
G03*
X2984873Y1195508I-23675J18425D01*
G01*
X3077027Y1196418D02*
G03*
X3031690Y1196373I-22688J19627D01*
G01*
X3093092Y1245388D02*
G03*
X3075718Y1197551I6247J-29342D01*
G01*
X5276554Y1563923D02*
G03*
X5324332Y1580595I18578J23555D01*
G01*
X5276757Y1518803D02*
G03*
X5275508Y1565127I18425J23675D01*
G01*
X5276418Y1472973D02*
G03*
X5276372Y1518310I19627J22688D01*
G01*
X5325388Y1456908D02*
G03*
X5277551Y1474282I-29342J-6247D01*
G01*
X3073923Y1673446D02*
G03*
X3090595Y1625668I23555J-18578D01*
G01*
X3028803Y1673244D02*
G03*
X3075127Y1674492I23675J-18425D01*
G01*
X2982973Y1673582D02*
G03*
X3028310Y1673628I22688J-19627D01*
G01*
X2966908Y1624612D02*
G03*
X2984282Y1672449I-6247J29342D01*
G01*
X1843770Y1046448D02*
G03*
X1855040Y1093879I-11379J27758D01*
G01*
X1900653Y1093697D02*
G03*
X1917324Y1045919I23555J-18578D01*
G01*
X1855533Y1093495D02*
G03*
X1901857Y1094743I23675J-18425D01*
G01*
X1943770Y766448D02*
G03*
X1955040Y813879I-11379J27758D01*
G01*
X2000653Y813697D02*
G03*
X2017324Y765919I23555J-18578D01*
G01*
X1955533Y813495D02*
G03*
X2001857Y814743I23675J-18425D01*
G01*
X2823770Y766448D02*
G03*
X2835040Y813879I-11379J27758D01*
G01*
X2880653Y813697D02*
G03*
X2897324Y765919I23555J-18578D01*
G01*
X2835533Y813495D02*
G03*
X2881857Y814743I23675J-18425D01*
G01*
X2596231Y813552D02*
G03*
X2584961Y766121I11379J-27758D01*
G01*
X2539347Y766303D02*
G03*
X2522676Y814080I-23555J18578D01*
G01*
X2584467Y766505D02*
G03*
X2538143Y765257I-23675J18425D01*
G01*
X2223770Y766448D02*
G03*
X2235040Y813879I-11379J27758D01*
G01*
X2280653Y813697D02*
G03*
X2297325Y765919I23555J-18578D01*
G01*
X2235533Y813495D02*
G03*
X2281858Y814743I23675J-18425D01*
G01*
X6580000Y4020000D02*
Y4210000D01*
X6130000Y4470000D02*
X6320000D01*
X5535000D02*
X5725000D01*
X6580000Y3420000D02*
Y3610000D01*
Y2825000D02*
Y3015000D01*
X6130000Y2565000D02*
X6320000D01*
X5530000D02*
X5720000D01*
X4935000Y4470000D02*
X5125000D01*
X4675000Y4020000D02*
Y4210000D01*
Y3425000D02*
Y3615000D01*
X4935000Y2565000D02*
X5125000D01*
X4675000Y2825000D02*
Y3015000D01*
X5220000Y1243137D02*
X5286949Y1310086D01*
X5220000Y1030410D02*
Y1243137D01*
X5340000Y1030410D02*
Y1310086D01*
X5220000Y1030410D02*
X5340000D01*
X5286949Y1310086D02*
X5340000D01*
X5240000Y1845606D02*
Y2135516D01*
X4980000Y1845606D02*
X5240000D01*
X5050516Y2135516D02*
X5240000D01*
X4980000Y2065000D02*
X5050516Y2135516D01*
X4980000Y1845606D02*
Y2065000D01*
X3790000Y3844315D02*
Y4275000D01*
X3850311Y4335311D01*
X4185000D01*
Y3844315D02*
Y4335311D01*
X3790000Y3844315D02*
X4185000D01*
X2880000Y3854484D02*
Y4144394D01*
X3140000D01*
X2880000Y3854484D02*
X3069484D01*
X3140000Y3925000D01*
Y4144394D01*
X3165000Y2085000D02*
X3374999D01*
X3164999Y2295000D02*
X3374999D01*
X4044000Y3362500D02*
X4107500D01*
X3772500D02*
X3836000D01*
X4044000Y3697500D02*
X4107500D01*
Y3362500D02*
Y3380000D01*
Y3680000D02*
Y3697500D01*
X3772500Y3362500D02*
Y3380000D01*
X3795000Y3697500D02*
X3836000D01*
X2473137Y2290000D02*
X2540086Y2223050D01*
X2260410Y2290000D02*
X2473137D01*
X2260410Y2170000D02*
X2540086D01*
X2260410D02*
Y2290000D01*
X2540086Y2170000D02*
Y2223050D01*
X3050000Y3390564D02*
X3170000D01*
Y3669655D01*
X3050000Y3390564D02*
Y3635470D01*
X3084185Y3669655D01*
X3170000D01*
X3710000Y2814315D02*
Y3245000D01*
X3770311Y3305311D01*
X4105000D01*
Y2814315D02*
Y3305311D01*
X3710000Y2814315D02*
X4105000D01*
X2844484Y3180000D02*
X3134394D01*
Y2920000D02*
Y3180000D01*
X2844484Y2990515D02*
Y3180000D01*
Y2990515D02*
X2915000Y2920000D01*
X3134394D01*
X6115606Y3400000D02*
X6405516D01*
X6115606D02*
Y3660000D01*
X6405516Y3400000D02*
Y3589484D01*
X6335000Y3660000D02*
X6405516Y3589484D01*
X6115606Y3660000D02*
X6335000D01*
X2616000Y982500D02*
X2677500D01*
X2342500D02*
X2404000D01*
X2616000Y1317500D02*
X2677500D01*
X2365000D02*
X2404000D01*
X2677500Y982500D02*
Y1000000D01*
Y1300000D02*
Y1317500D01*
X2342500Y982500D02*
Y1000000D01*
X3676000Y1322500D02*
X3737500D01*
X3402500D02*
X3464000D01*
X3676000Y1657500D02*
X3737500D01*
X3425000D02*
X3464000D01*
X3737500Y1322500D02*
Y1340000D01*
Y1640000D02*
Y1657500D01*
X3402500Y1322500D02*
Y1340000D01*
X7165000Y3655000D02*
Y3845000D01*
X7355000Y3655000D02*
Y3845000D01*
X7165000D02*
X7355000D01*
X7165000Y3655000D02*
X7355000D01*
X7536000Y2782500D02*
X7597500D01*
X7262500D02*
X7324000D01*
X7536000Y3117500D02*
X7597500D01*
X7285000D02*
X7324000D01*
X7597500Y2782500D02*
Y2800000D01*
Y3100000D02*
Y3117500D01*
X7262500Y2782500D02*
Y2800000D01*
X7536000Y902500D02*
X7597500D01*
X7262500D02*
X7324000D01*
X7536000Y1237500D02*
X7597500D01*
X7285000D02*
X7324000D01*
X7597500Y902500D02*
Y920000D01*
Y1220000D02*
Y1237500D01*
X7262500Y902500D02*
Y920000D01*
X7536000Y1652500D02*
X7597500D01*
X7262500D02*
X7324000D01*
X7536000Y1987500D02*
X7597500D01*
X7285000D02*
X7324000D01*
X7597500Y1652500D02*
Y1670000D01*
Y1970000D02*
Y1987500D01*
X7262500Y1652500D02*
Y1670000D01*
X7536000Y1282500D02*
X7597500D01*
X7262500D02*
X7324000D01*
X7536000Y1617500D02*
X7597500D01*
X7285000D02*
X7324000D01*
X7597500Y1282500D02*
Y1300000D01*
Y1600000D02*
Y1617500D01*
X7262500Y1282500D02*
Y1300000D01*
X7255000Y3290668D02*
Y3470000D01*
X7275218Y3490218D01*
X7345000D01*
Y3290668D02*
Y3490218D01*
X7255000Y3290668D02*
X7345000D01*
X6183491Y1285002D02*
X6217500Y1285000D01*
X6362500D02*
X6435000D01*
Y1262500D02*
Y1285000D01*
Y795000D02*
Y817500D01*
X6362500Y795000D02*
X6435000D01*
X6145000D02*
Y817500D01*
Y795000D02*
X6217500D01*
X7536000Y2022500D02*
X7597500D01*
X7262500D02*
X7324000D01*
X7536000Y2357500D02*
X7597500D01*
X7285000D02*
X7324000D01*
X7597500Y2022500D02*
Y2040000D01*
Y2340000D02*
Y2357500D01*
X7262500Y2022500D02*
Y2040000D01*
X7162500Y4437500D02*
X7224000D01*
X7436000D02*
X7497500D01*
X7162500Y4102500D02*
X7224000D01*
X7436000D02*
X7475000D01*
X7162500Y4420000D02*
Y4437500D01*
Y4102500D02*
Y4120000D01*
X7497500Y4420000D02*
Y4437500D01*
X7536000Y2402500D02*
X7597500D01*
X7262500D02*
X7324000D01*
X7536000Y2737500D02*
X7597500D01*
X7285000D02*
X7324000D01*
X7597500Y2402500D02*
Y2420000D01*
Y2720000D02*
Y2737500D01*
X7262500Y2402500D02*
Y2420000D01*
X6173490Y2145002D02*
X6207500Y2145000D01*
X6352500D02*
X6425000D01*
Y2122500D02*
Y2145000D01*
Y1655000D02*
Y1677500D01*
X6352500Y1655000D02*
X6425000D01*
X6135000D02*
Y1677500D01*
Y1655000D02*
X6207500D01*
X5660000Y2815000D02*
Y3245685D01*
X5599689Y2754689D02*
X5660000Y2815000D01*
X5265000Y2754689D02*
X5599689D01*
X5265000D02*
Y3245685D01*
X5660000D01*
X5470000Y3894484D02*
Y4184394D01*
X5730000D01*
X5470000Y3894484D02*
X5659484D01*
X5730000Y3965000D01*
Y4184394D01*
X4822500Y3812500D02*
Y3876000D01*
Y4084000D02*
Y4147500D01*
X5157500Y3812500D02*
Y3876000D01*
X4822500Y3812500D02*
X4840000D01*
X5140000D02*
X5157500D01*
X4822500Y4147500D02*
X4840000D01*
X5157500Y4084000D02*
Y4125000D01*
X5420190Y2640228D02*
X5436731Y2656769D01*
X5421694Y2672834D02*
X5438234Y2689374D01*
X5421125Y2705252D02*
X5437666Y2721793D01*
X5421694Y2732692D02*
X5438234Y2749233D01*
Y2631393D02*
Y2749420D01*
X3260190Y2370228D02*
X3276731Y2386769D01*
X3261694Y2402834D02*
X3278234Y2419374D01*
X3261125Y2435252D02*
X3277666Y2451793D01*
X3261694Y2462692D02*
X3278234Y2479233D01*
Y2361393D02*
Y2479420D01*
X3933269Y3793231D02*
X3949810Y3809772D01*
X3931766Y3760626D02*
X3948306Y3777166D01*
X3932335Y3728207D02*
X3948875Y3744748D01*
X3931766Y3700767D02*
X3948306Y3717308D01*
X3931766Y3700580D02*
Y3818607D01*
X2440228Y4029810D02*
X2456769Y4013269D01*
X2472834Y4028306D02*
X2489374Y4011765D01*
X2505252Y4028875D02*
X2521793Y4012334D01*
X2532692Y4028306D02*
X2549233Y4011765D01*
X2431393D02*
X2549420D01*
X2523231Y3616731D02*
X2539772Y3600190D01*
X2490626Y3618234D02*
X2507166Y3601694D01*
X2458207Y3617665D02*
X2474748Y3601125D01*
X2430767Y3618234D02*
X2447308Y3601694D01*
X2430580Y3618234D02*
X2548607D01*
X3590190Y2650228D02*
X3606731Y2666769D01*
X3591694Y2682834D02*
X3608234Y2699374D01*
X3591125Y2715252D02*
X3607665Y2731793D01*
X3591694Y2742692D02*
X3608234Y2759233D01*
Y2641393D02*
Y2759420D01*
X5490190Y3300228D02*
X5506731Y3316769D01*
X5491694Y3332834D02*
X5508235Y3349374D01*
X5491125Y3365252D02*
X5507666Y3381793D01*
X5491694Y3392692D02*
X5508235Y3409233D01*
Y3291393D02*
Y3409420D01*
X6323269Y4313231D02*
X6339810Y4329772D01*
X6321766Y4280626D02*
X6338306Y4297166D01*
X6322335Y4248207D02*
X6338875Y4264748D01*
X6321766Y4220767D02*
X6338306Y4237308D01*
X6321766Y4220580D02*
Y4338607D01*
X5973269Y4313231D02*
X5989810Y4329772D01*
X5971766Y4280626D02*
X5988306Y4297166D01*
X5972335Y4248207D02*
X5988875Y4264748D01*
X5971766Y4220767D02*
X5988306Y4237308D01*
X5971766Y4220580D02*
Y4338607D01*
X5490190Y3530228D02*
X5506731Y3546769D01*
X5491694Y3562834D02*
X5508235Y3579374D01*
X5491125Y3595252D02*
X5507666Y3611793D01*
X5491694Y3622692D02*
X5508235Y3639233D01*
Y3521393D02*
Y3639420D01*
X5563269Y4313231D02*
X5579810Y4329772D01*
X5561765Y4280626D02*
X5578306Y4297166D01*
X5562334Y4248207D02*
X5578875Y4264748D01*
X5561765Y4220767D02*
X5578306Y4237308D01*
X5561765Y4220580D02*
Y4338607D01*
X5050000Y1730000D02*
X5090000D01*
X5050000Y1790000D02*
X5090000D01*
X7460000Y720000D02*
Y760000D01*
X7400000Y720000D02*
Y760000D01*
X7350000Y720000D02*
Y760000D01*
X7290000Y720000D02*
Y760000D01*
X5550000Y720000D02*
Y760000D01*
X5490000Y720000D02*
Y760000D01*
X5440000Y720000D02*
Y760000D01*
X5380000Y720000D02*
Y760000D01*
X5330000Y720000D02*
Y760000D01*
X5270000Y720000D02*
Y760000D01*
X5050000Y720000D02*
Y760000D01*
X4990000Y720000D02*
Y760000D01*
X5330000Y4710000D02*
Y4750000D01*
X5390000Y4710000D02*
Y4750000D01*
X4910000Y720000D02*
Y760000D01*
X4850000Y720000D02*
Y760000D01*
X4100000Y730000D02*
Y770000D01*
X4040000Y730000D02*
Y770000D01*
X3900000Y730000D02*
Y770000D01*
X3960000Y730000D02*
Y770000D01*
X3970000Y4700000D02*
Y4740000D01*
X4030000Y4700000D02*
Y4740000D01*
X4160000Y4700000D02*
Y4740000D01*
X4100000Y4700000D02*
Y4740000D01*
X3610000Y4700000D02*
Y4740000D01*
X3670000Y4700000D02*
Y4740000D01*
X3800000Y4700000D02*
Y4740000D01*
X3740000Y4700000D02*
Y4740000D01*
X7410000Y4700000D02*
Y4740000D01*
X7470000Y4700000D02*
Y4740000D01*
X7580000Y4700000D02*
Y4740000D01*
X7520000Y4700000D02*
Y4740000D01*
X7170000Y4700000D02*
Y4740000D01*
X7230000Y4700000D02*
Y4740000D01*
X7340000Y4700000D02*
Y4740000D01*
X7280000Y4700000D02*
Y4740000D01*
X6930000Y4700000D02*
Y4740000D01*
X6990000Y4700000D02*
Y4740000D01*
X7100000Y4700000D02*
Y4740000D01*
X7040000Y4700000D02*
Y4740000D01*
X6690000Y4700000D02*
Y4740000D01*
X6750000Y4700000D02*
Y4740000D01*
X6860000Y4700000D02*
Y4740000D01*
X6800000Y4700000D02*
Y4740000D01*
X5500000Y4710000D02*
Y4750000D01*
X5440000Y4710000D02*
Y4750000D01*
X5670000Y4710000D02*
Y4750000D01*
X5730000Y4710000D02*
Y4750000D01*
X6810000Y1640000D02*
X6850000D01*
X6810000Y1700000D02*
X6850000D01*
X6570000Y1640000D02*
X6610000D01*
X6570000Y1700000D02*
X6610000D01*
X5280000Y4710000D02*
Y4750000D01*
X5220000Y4710000D02*
Y4750000D01*
X5710000Y720000D02*
Y760000D01*
X5770000Y720000D02*
Y760000D01*
X5660000Y720000D02*
Y760000D01*
X5600000Y720000D02*
Y760000D01*
X4090000Y1600000D02*
Y1640000D01*
X4030000Y1600000D02*
Y1640000D01*
X5070000Y4250000D02*
X5110000D01*
X5070000Y4310000D02*
X5110000D01*
X5220000Y4180000D02*
Y4220000D01*
X5280000Y4180000D02*
Y4220000D01*
X3890000Y1700000D02*
X3930000D01*
X3890000Y1640000D02*
X3930000D01*
X3890000Y1540000D02*
X3930000D01*
X3890000Y1600000D02*
X3930000D01*
X4060000Y1350000D02*
Y1390000D01*
X4120000Y1350000D02*
Y1390000D01*
X2965000Y2745000D02*
X3035000D01*
X2965000Y2655000D02*
X3035000D01*
X6940000Y3630000D02*
Y3670000D01*
X7000000Y3630000D02*
Y3670000D01*
X7610000Y3700000D02*
X7650000D01*
X7610000Y3760000D02*
X7650000D01*
X6820000Y1180000D02*
X6860000D01*
X6820000Y1240000D02*
X6860000D01*
X6580000Y1180000D02*
X6619999D01*
X6580000Y1240000D02*
X6619999D01*
X6820000Y780000D02*
X6859999D01*
X6820000Y840000D02*
X6859999D01*
X6580000Y780000D02*
X6619999D01*
X6580000Y840000D02*
X6619999D01*
X6820000Y880000D02*
X6860000D01*
X6820000Y940000D02*
X6860000D01*
X6580000Y880000D02*
X6619999D01*
X6580000Y940000D02*
X6619999D01*
X6820000Y980000D02*
X6860000D01*
X6820000Y1040000D02*
X6860000D01*
X6580000Y980000D02*
X6620000D01*
X6580000Y1040000D02*
X6620000D01*
X6820000Y1080000D02*
X6860000D01*
X6820000Y1140000D02*
X6860000D01*
X6580000Y1080000D02*
X6620000D01*
X6580000Y1140000D02*
X6620000D01*
X6810000Y1740000D02*
X6850000D01*
X6810000Y1800000D02*
X6850000D01*
X6570000Y1740000D02*
X6610000D01*
X6570000Y1800000D02*
X6610000D01*
X6810000Y1840000D02*
X6850000D01*
X6810000Y1900000D02*
X6850000D01*
X6570000Y1840000D02*
X6610000D01*
X6570000Y1900000D02*
X6610000D01*
X6810000Y1940000D02*
X6850000D01*
X6810000Y2000000D02*
X6850000D01*
X6570000Y1940000D02*
X6610000D01*
X6570000Y2000000D02*
X6610000D01*
X6810000Y2040000D02*
X6850000D01*
X6810000Y2100000D02*
X6850000D01*
X6570000Y2040000D02*
X6610000D01*
X6570000Y2100000D02*
X6610000D01*
X5620000Y4710000D02*
Y4750000D01*
X5560000Y4710000D02*
Y4750000D01*
X4150000Y730000D02*
Y770000D01*
X4210000Y730000D02*
Y770000D01*
X3790000Y730000D02*
Y770000D01*
X3850000Y730000D02*
Y770000D01*
X5100000Y720000D02*
Y760000D01*
X5160000Y720000D02*
Y760000D01*
X4740000Y720000D02*
Y760000D01*
X4800000Y720000D02*
Y760000D01*
X3900000Y4700000D02*
Y4740000D01*
X3840000Y4700000D02*
Y4740000D01*
X3570000Y4700000D02*
Y4740000D01*
X3510000Y4700000D02*
Y4740000D01*
X4260000Y4700000D02*
Y4740000D01*
X4200000Y4700000D02*
Y4740000D01*
X1890000Y720000D02*
Y760000D01*
X1830000Y720000D02*
Y760000D01*
X2100000Y1910000D02*
Y1950000D01*
X2160000Y1910000D02*
Y1950000D01*
X1850000Y1520000D02*
Y1560000D01*
X1790000Y1520000D02*
Y1560000D01*
X1850000Y1320000D02*
Y1360000D01*
X1790000Y1320000D02*
Y1360000D01*
X3380000Y4700000D02*
Y4740000D01*
X3440000Y4700000D02*
Y4740000D01*
X5975000Y3575000D02*
Y3645000D01*
X6065000Y3575000D02*
Y3645000D01*
X5370000Y2280001D02*
X5410000D01*
X5370000Y2340000D02*
X5410000D01*
X2230000Y2100000D02*
Y2140000D01*
X2170000Y2100000D02*
Y2140000D01*
X5060000Y1260000D02*
Y1300000D01*
X5000000Y1260000D02*
Y1300000D01*
X2170000Y2310000D02*
Y2350000D01*
X2230000Y2310000D02*
Y2350000D01*
X5060000Y1060000D02*
Y1100000D01*
X5000000Y1060000D02*
Y1100000D01*
X2600000Y1910000D02*
Y1950000D01*
X2540000Y1910000D02*
Y1950000D01*
X5880000Y720000D02*
Y760000D01*
X5820000Y720000D02*
Y760000D01*
X3590000Y3690000D02*
X3630000D01*
X3590000Y3630000D02*
X3630000D01*
X3020000Y4340000D02*
X3060000D01*
X3020000Y4280000D02*
X3060000D01*
X4370000Y3910000D02*
Y3950000D01*
X4430000Y3910000D02*
Y3950000D01*
X2920000Y4240000D02*
Y4280000D01*
X2860000Y4240000D02*
Y4280000D01*
X3420000Y3860000D02*
Y3900000D01*
X3480000Y3860000D02*
Y3900000D01*
X5960000Y4710000D02*
Y4750000D01*
X5900000Y4710000D02*
Y4750000D01*
X3210000Y4700000D02*
Y4740000D01*
X3150000Y4700000D02*
Y4740000D01*
X5850000Y4710000D02*
Y4750000D01*
X5790000Y4710000D02*
Y4750000D01*
X3110000Y4700000D02*
Y4740000D01*
X3050000Y4700000D02*
Y4740000D01*
X2739998Y2149998D02*
Y2189998D01*
X2799998Y2149998D02*
Y2189998D01*
X3504641Y2120097D02*
Y2160097D01*
X3564641Y2120097D02*
Y2160097D01*
X4350000Y730000D02*
Y770000D01*
X4290000Y730000D02*
Y770000D01*
X4460000Y730000D02*
Y770000D01*
X4400000Y730000D02*
Y770000D01*
X3340000Y4700000D02*
Y4740000D01*
X3280000Y4700000D02*
Y4740000D01*
X2849999Y2150000D02*
Y2189999D01*
X2909999Y2150000D02*
Y2189999D01*
X3020003Y2249998D02*
Y2289998D01*
X2960003Y2249998D02*
Y2289998D01*
X3590000Y3460000D02*
X3630000D01*
X3590000Y3400000D02*
X3630000D01*
X4250000Y3360000D02*
X4290000D01*
X4250000Y3420000D02*
X4290000D01*
X3590000Y3560000D02*
X3630000D01*
X3590000Y3500000D02*
X3630000D01*
X4350000Y2930000D02*
X4390000D01*
X4350000Y2990000D02*
X4390000D01*
X4970000Y3070000D02*
X5010000D01*
X4970000Y3130000D02*
X5010000D01*
X4820000Y3640000D02*
Y3680000D01*
X4880000Y3640000D02*
Y3680000D01*
X3890000Y2730000D02*
X3930000D01*
X3890000Y2670000D02*
X3930000D01*
X2810000Y3720000D02*
X2850000D01*
X2810000Y3660000D02*
X2850000D01*
X2810000Y3620000D02*
X2850000D01*
X2810000Y3560000D02*
X2850000D01*
X2810000Y3420000D02*
X2850000D01*
X2810000Y3360000D02*
X2850000D01*
X4250000Y2670000D02*
X4290000D01*
X4250000Y2730000D02*
X4290000D01*
X7540000Y3440000D02*
X7580000D01*
X7540000Y3380000D02*
X7580000D01*
X6410000Y1400000D02*
Y1440000D01*
X6470000Y1400000D02*
Y1440000D01*
X7540000Y3540000D02*
X7580000D01*
X7540000Y3480000D02*
X7580000D01*
X6410000Y2270000D02*
Y2310000D01*
X6470000Y2270000D02*
Y2310000D01*
X4870000Y3160000D02*
Y3200000D01*
X4810000Y3160000D02*
Y3200000D01*
X6270000Y4160000D02*
X6310000D01*
X6270000Y4100000D02*
X6310000D01*
X4860000Y4310000D02*
X4900000D01*
X4860000Y4250000D02*
X4900000D01*
X5480000Y3740000D02*
Y3780000D01*
X5540000Y3740000D02*
Y3780000D01*
X5640000Y3740000D02*
Y3780000D01*
X5580000Y3740000D02*
Y3780000D01*
X1080000Y975000D02*
Y1875000D01*
X1580000Y1700000D02*
Y1875000D01*
X1080000Y975000D02*
X1160000D01*
X1120000D02*
Y1874821D01*
X1080000Y1875000D02*
X1159648D01*
X1380000D02*
X1580000D01*
Y975000D02*
Y1155000D01*
X1380000Y975000D02*
X1580000D01*
X2905000Y2565000D02*
X3095000D01*
X3500000D02*
X3690000D01*
X4100000D02*
X4290000D01*
X4550000Y2825000D02*
Y3015000D01*
Y3420000D02*
Y3610000D01*
Y4020000D02*
Y4210000D01*
X4100000Y4470000D02*
X4290000D01*
X3505000D02*
X3695000D01*
X2905000D02*
X3095000D01*
X2645000Y4020000D02*
Y4210000D01*
Y3425000D02*
Y3615000D01*
Y2825000D02*
Y3015000D01*
X3580000Y990000D02*
X3720000D01*
X3580000Y1290000D02*
X3720000D01*
X2880000Y1150000D02*
Y1290000D01*
X3180000Y1150000D02*
Y1290000D01*
X5230000Y1670000D02*
X5370000D01*
X5230000Y1370000D02*
X5370000D01*
X3180000Y1580000D02*
Y1720000D01*
X2880000Y1580000D02*
Y1720000D01*
X1770000Y175000D02*
Y865000D01*
X1090000Y175000D02*
X1770000D01*
X1090000D02*
Y865000D01*
X1770000D01*
X1115000Y175000D02*
Y865000D01*
X4820000Y1715000D02*
Y1785000D01*
X6480000Y4665000D02*
Y4735000D01*
X4950000Y4665000D02*
Y4735000D01*
X6170000Y4665000D02*
Y4735000D01*
X4640000Y4665000D02*
Y4735000D01*
X1470000Y4635000D02*
Y4705000D01*
X2310000Y3480000D02*
Y3549894D01*
X2250000Y3589894D02*
X2365000D01*
X2250106Y3530000D02*
X2309878Y3589772D01*
X2250106Y3530000D02*
X2369894D01*
X2310000Y3549894D02*
Y3589894D01*
X2369894Y3530000D01*
X2310000Y3589894D02*
Y3640000D01*
X7790000Y835000D02*
Y905000D01*
X7720000Y4525000D02*
Y4595000D01*
X7910000Y195000D02*
Y265000D01*
Y5195000D02*
Y5265000D01*
X2592381Y2218000D02*
X2647489D01*
X2592105Y2242000D02*
X2647627D01*
X5600000Y2135001D02*
X5600073Y2095001D01*
Y2165000D02*
Y2205000D01*
X5550000Y2165000D02*
X5650000D01*
X5550000Y2135001D02*
X5650000D01*
X4882511Y1532000D02*
X4937619D01*
X4882373Y1508000D02*
X4937895D01*
X4859927Y1255000D02*
X4860000Y1215000D01*
X4859927Y1145000D02*
Y1185000D01*
X4810000D02*
X4910000D01*
X4810000Y1215000D02*
X4910000D01*
X4135000Y1775000D02*
Y1845000D01*
X4165000Y1775000D02*
Y1845000D01*
Y1810000D02*
X4180000D01*
X4120000D02*
X4135000D01*
X6315000Y2735000D02*
Y2805000D01*
X6345000Y2735000D02*
Y2805000D01*
Y2770000D02*
X6360000D01*
X6300000D02*
X6315000D01*
X4752511Y2132000D02*
X4807619D01*
X4752373Y2108000D02*
X4807895D01*
X5545000Y1485000D02*
X5615000D01*
X5545000Y1515000D02*
X5615000D01*
X5580000D02*
Y1530000D01*
Y1470000D02*
Y1485000D01*
X5582000Y1152381D02*
Y1207489D01*
X5558000Y1152105D02*
Y1207627D01*
X5535000Y1825000D02*
Y1895000D01*
X5565000Y1825000D02*
Y1895000D01*
Y1860000D02*
X5580000D01*
X5520000D02*
X5535000D01*
X4635000Y1945000D02*
X4705000D01*
X4635000Y1975000D02*
X4705000D01*
X4670000D02*
Y1990000D01*
Y1930000D02*
Y1945000D01*
X5412511Y2032001D02*
X5467619D01*
X5412373Y2008001D02*
X5467896D01*
X4752511Y1932000D02*
X4807619D01*
X4752373Y1908000D02*
X4807895D01*
X2752381Y3028000D02*
X2807489D01*
X2752104Y3052000D02*
X2807627D01*
X2752511Y3252000D02*
X2807619D01*
X2752373Y3228000D02*
X2807895D01*
X3318000Y4262511D02*
Y4317619D01*
X3342000Y4262373D02*
Y4317895D01*
X3518000Y4262511D02*
Y4317619D01*
X3542000Y4262373D02*
Y4317895D01*
X4312381Y4708000D02*
X4367489D01*
X4312105Y4732000D02*
X4367627D01*
X4372381Y4248000D02*
X4427489D01*
X4372105Y4272000D02*
X4427627D01*
X3042000Y3762381D02*
Y3817489D01*
X3018000Y3762105D02*
Y3817627D01*
X2818000Y3762511D02*
Y3817619D01*
X2842000Y3762373D02*
Y3817895D01*
X3505000Y4135000D02*
Y4205000D01*
X3475000Y4135000D02*
Y4205000D01*
X3460000Y4170000D02*
X3475000D01*
X3505000D02*
X3520000D01*
X3505000Y4005000D02*
Y4075000D01*
X3475000Y4005000D02*
Y4075000D01*
X3460000Y4040000D02*
X3475000D01*
X3505000D02*
X3520000D01*
X3552381Y3868000D02*
X3607489D01*
X3552104Y3892000D02*
X3607627D01*
X2762511Y4272000D02*
X2817619D01*
X2762373Y4248000D02*
X2817895D01*
X3052000Y4182381D02*
Y4237489D01*
X3028000Y4182105D02*
Y4237627D01*
X3322511Y3892000D02*
X3377619D01*
X3322373Y3868000D02*
X3377895D01*
X6358000Y3062511D02*
Y3117619D01*
X6382000Y3062373D02*
Y3117895D01*
X6358000Y3162511D02*
Y3217619D01*
X6382000Y3162373D02*
Y3217895D01*
X3502511Y2342000D02*
X3557618D01*
X3502372Y2318000D02*
X3557895D01*
X1985000Y1055000D02*
X2055000D01*
X1985000Y1085000D02*
X2055000D01*
X2020000D02*
Y1100000D01*
Y1040000D02*
Y1055000D01*
X7862381Y1018000D02*
X7917489D01*
X7862105Y1042000D02*
X7917627D01*
X3402000Y3532381D02*
Y3587489D01*
X3378000Y3532105D02*
Y3587627D01*
X3402000Y3632381D02*
Y3687489D01*
X3378000Y3632105D02*
Y3687627D01*
X4402511Y3522000D02*
X4457619D01*
X4402373Y3498000D02*
X4457895D01*
X4302000Y3532381D02*
Y3587489D01*
X4278000Y3532105D02*
Y3587627D01*
X4302000Y3732381D02*
Y3787489D01*
X4278000Y3732105D02*
Y3787627D01*
X4302000Y3632381D02*
Y3687489D01*
X4278000Y3632105D02*
Y3687627D01*
X3402000Y3402381D02*
Y3457489D01*
X3378000Y3402105D02*
Y3457627D01*
X6202000Y1442381D02*
Y1497489D01*
X6178000Y1442105D02*
Y1497627D01*
X6202000Y2312381D02*
Y2367489D01*
X6178000Y2312105D02*
Y2367627D01*
X7882381Y2388000D02*
X7937489D01*
X7882105Y2412000D02*
X7937627D01*
X7892381Y4378000D02*
X7947489D01*
X7892105Y4402000D02*
X7947627D01*
X3438000Y3302511D02*
Y3357619D01*
X3462000Y3302373D02*
Y3357895D01*
X3438000Y3202511D02*
Y3257619D01*
X3462000Y3202373D02*
Y3257895D01*
X4382000Y3162381D02*
Y3217489D01*
X4358000Y3162105D02*
Y3217627D01*
X4382000Y3262381D02*
Y3317489D01*
X4358000Y3262105D02*
Y3317627D01*
X3172381Y3028000D02*
X3227489D01*
X3172105Y3052000D02*
X3227627D01*
X3172511Y3252000D02*
X3227619D01*
X3172373Y3228000D02*
X3227895D01*
X3425000Y3055000D02*
Y3125000D01*
X3395000Y3055000D02*
Y3125000D01*
X3380000Y3090000D02*
X3395000D01*
X3425000D02*
X3440000D01*
X3425000Y2805000D02*
Y2875000D01*
X3395000Y2805000D02*
Y2875000D01*
X3380000Y2840000D02*
X3395000D01*
X3425000D02*
X3440000D01*
X3438000Y2932511D02*
Y2987619D01*
X3462000Y2932373D02*
Y2987895D01*
X2842000Y3462381D02*
Y3517489D01*
X2818000Y3462105D02*
Y3517627D01*
X6192000Y3062381D02*
Y3117489D01*
X6168000Y3062105D02*
Y3117627D01*
X6192000Y3162381D02*
Y3217489D01*
X6168000Y3162105D02*
Y3217627D01*
X5255000Y3405000D02*
X5325000D01*
X5255000Y3435000D02*
X5325000D01*
X5290000D02*
Y3450000D01*
Y3390000D02*
Y3405000D01*
X2685000Y4595000D02*
Y4665000D01*
X2715000Y4595000D02*
Y4665000D01*
Y4630000D02*
X2730000D01*
X2670000D02*
X2685000D01*
X5800000Y1545000D02*
X5800073Y1505000D01*
Y1575000D02*
Y1615000D01*
X5750000Y1575000D02*
X5850000D01*
X5750000Y1545000D02*
X5850000D01*
X2760000Y1665000D02*
X2760073Y1625000D01*
Y1695000D02*
Y1735000D01*
X2710000Y1695000D02*
X2810000D01*
X2710000Y1665000D02*
X2810000D01*
X3925000Y2279927D02*
X3965000Y2280000D01*
X3995000Y2279927D02*
X4035000D01*
X3995000Y2230000D02*
Y2330000D01*
X3965000Y2230000D02*
Y2330000D01*
X4285000Y1619927D02*
X4325000Y1620000D01*
X4355000Y1619927D02*
X4395000D01*
X4355000Y1570000D02*
Y1670000D01*
X4325000Y1570000D02*
Y1670000D01*
X7642000Y3802381D02*
Y3857489D01*
X7618000Y3802105D02*
Y3857627D01*
X6512381Y1408000D02*
X6567489D01*
X6512104Y1432000D02*
X6567627D01*
X6512381Y2278000D02*
X6567489D01*
X6512105Y2302000D02*
X6567627D01*
X7882511Y2932000D02*
X7937619D01*
X7882373Y2908000D02*
X7937895D01*
X4475000Y955000D02*
Y1025000D01*
X4505000Y955000D02*
Y1025000D01*
Y990000D02*
X4520000D01*
X4460000D02*
X4475000D01*
X4450000Y1265000D02*
X4450073Y1225000D01*
Y1295000D02*
Y1335000D01*
X4400000Y1295000D02*
X4500000D01*
X4400000Y1265000D02*
X4500000D01*
X4065000Y1159927D02*
X4105000Y1160000D01*
X4135000Y1159927D02*
X4175000D01*
X4135000Y1110000D02*
Y1210000D01*
X4105000Y1110000D02*
Y1210000D01*
X3795000Y1989927D02*
X3835000Y1990000D01*
X3865000Y1989927D02*
X3905000D01*
X3865000Y1940000D02*
Y2040000D01*
X3835000Y1940000D02*
Y2040000D01*
X3948000Y942511D02*
Y997619D01*
X3972000Y942373D02*
Y997895D01*
X3622381Y1778000D02*
X3677489D01*
X3622105Y1802000D02*
X3677627D01*
X3365000Y1815000D02*
X3435000D01*
X3365000Y1845000D02*
X3435000D01*
X3400000D02*
Y1860000D01*
Y1800000D02*
Y1815000D01*
X3502381Y1778000D02*
X3557489D01*
X3502105Y1802000D02*
X3557627D01*
X3235000Y1645000D02*
X3305000D01*
X3235000Y1675000D02*
X3305000D01*
X3270000D02*
Y1690000D01*
Y1630000D02*
Y1645000D01*
X3898000Y1332511D02*
Y1387619D01*
X3922000Y1332373D02*
Y1387895D01*
X3252381Y1408000D02*
X3307489D01*
X3252105Y1432000D02*
X3307627D01*
X4162511Y1382000D02*
X4217619D01*
X4162373Y1358000D02*
X4217895D01*
X3342000Y1132381D02*
Y1187489D01*
X3318000Y1132104D02*
Y1187627D01*
Y1232511D02*
Y1287619D01*
X3342000Y1232373D02*
Y1287895D01*
X5402000Y2162382D02*
Y2217489D01*
X5378000Y2162105D02*
Y2217628D01*
X4382000Y2792381D02*
Y2847489D01*
X4358000Y2792105D02*
Y2847627D01*
X4912511Y3292000D02*
X4967619D01*
X4912373Y3268000D02*
X4967895D01*
X7132511Y1632000D02*
X7187619D01*
X7132373Y1608000D02*
X7187895D01*
X7132511Y1242000D02*
X7187619D01*
X7132373Y1218000D02*
X7187895D01*
X7092511Y2362000D02*
X7147619D01*
X7092373Y2338000D02*
X7147895D01*
X7122511Y1992000D02*
X7177619D01*
X7122373Y1968000D02*
X7177895D01*
X7112511Y2752000D02*
X7167619D01*
X7112373Y2728000D02*
X7167895D01*
X7652000Y4092381D02*
Y4147489D01*
X7628000Y4092105D02*
Y4147627D01*
X7132511Y3132000D02*
X7187619D01*
X7132373Y3108000D02*
X7187895D01*
X6828000Y682511D02*
Y737619D01*
X6852000Y682373D02*
Y737895D01*
X7572000Y3282381D02*
Y3337489D01*
X7548000Y3282105D02*
Y3337627D01*
X6202000Y2212381D02*
Y2267489D01*
X6178000Y2212105D02*
Y2267627D01*
X6202000Y1342381D02*
Y1397489D01*
X6178000Y1342105D02*
Y1397627D01*
X6312511Y1432000D02*
X6367619D01*
X6312373Y1408000D02*
X6367895D01*
X6312511Y2302000D02*
X6367619D01*
X6312373Y2278000D02*
X6367895D01*
X2385000Y805000D02*
X2455000D01*
X2385000Y775000D02*
X2455000D01*
X2420000Y760000D02*
Y775000D01*
Y805000D02*
Y820000D01*
X2085000Y805000D02*
X2155000D01*
X2085000Y775000D02*
X2155000D01*
X2120000Y760000D02*
Y775000D01*
Y805000D02*
Y820000D01*
X2715000Y1355000D02*
Y1425000D01*
X2685000Y1355000D02*
Y1425000D01*
X2670000Y1390000D02*
X2685000D01*
X2715000D02*
X2730000D01*
X2685000Y805000D02*
X2755000D01*
X2685000Y775000D02*
X2755000D01*
X2720000Y760000D02*
Y775000D01*
Y805000D02*
Y820000D01*
X2875000Y4725000D02*
Y4795000D01*
X2845000Y4725000D02*
Y4795000D01*
X2830000Y4760000D02*
X2845000D01*
X2875000D02*
X2890000D01*
X3595000Y775000D02*
X3665000D01*
X3595000Y805000D02*
X3665000D01*
X3630000D02*
Y820000D01*
Y760000D02*
Y775000D01*
X5952000Y2712381D02*
Y2767489D01*
X5928000Y2712105D02*
Y2767627D01*
X5952000Y2812381D02*
Y2867489D01*
X5928000Y2812105D02*
Y2867627D01*
X4922511Y2842000D02*
X4977619D01*
X4922373Y2818000D02*
X4977895D01*
X5022511Y2842000D02*
X5077619D01*
X5022373Y2818000D02*
X5077895D01*
X5975000Y2925000D02*
Y2995000D01*
X6005000Y2925000D02*
Y2995000D01*
Y2960000D02*
X6020000D01*
X5960000D02*
X5975000D01*
X5875000Y3245000D02*
X5945000D01*
X5875000Y3275000D02*
X5945000D01*
X5910000D02*
Y3290000D01*
Y3230000D02*
Y3245000D01*
X5952000Y3052381D02*
Y3107489D01*
X5928000Y3052105D02*
Y3107627D01*
X5922381Y3978000D02*
X5977489D01*
X5922105Y4002000D02*
X5977627D01*
X5282381Y3748000D02*
X5337489D01*
X5282105Y3772000D02*
X5337627D01*
X5382381Y3748000D02*
X5437489D01*
X5382105Y3772000D02*
X5437627D01*
X5192381Y3648000D02*
X5247489D01*
X5192105Y3672000D02*
X5247627D01*
X5102511D02*
X5157619D01*
X5102373Y3648000D02*
X5157895D01*
X5002381Y3648000D02*
X5057489D01*
X5002105Y3672000D02*
X5057627D01*
X5062000Y3482381D02*
Y3537489D01*
X5038000Y3482105D02*
Y3537627D01*
X5222381Y3998000D02*
X5277489D01*
X5222105Y4022000D02*
X5277627D01*
X3800000Y3280000D02*
X3830000Y3250000D01*
X3770000D02*
X3800000Y3280000D01*
Y3210000D02*
Y3280000D01*
X3773368Y2929987D02*
Y2863342D01*
X3786697Y2850013D01*
X3813355D01*
X3826684Y2863342D01*
Y2929987D01*
X3906658Y2850013D02*
X3853342D01*
X3906658Y2903329D01*
Y2916658D01*
X3893329Y2929987D01*
X3866671D01*
X3853342Y2916658D01*
X3986632Y2929987D02*
X3959974Y2916658D01*
X3933316Y2890000D01*
Y2863342D01*
X3946645Y2850013D01*
X3973303D01*
X3986632Y2863342D01*
Y2876671D01*
X3973303Y2890000D01*
X3933316D01*
X5245000Y1240000D02*
X5291651D01*
X5314977Y1216674D01*
X5291651Y1193348D01*
X5245000D01*
X5279988D01*
Y1240000D01*
X5314977Y1170022D02*
X5245000D01*
Y1135034D01*
X5256663Y1123371D01*
X5268326D01*
X5279988Y1135034D01*
Y1170022D01*
Y1135034D01*
X5291651Y1123371D01*
X5303314D01*
X5314977Y1135034D01*
Y1170022D01*
X5303314Y1053393D02*
X5314977Y1065056D01*
Y1088382D01*
X5303314Y1100045D01*
X5256663D01*
X5245000Y1088382D01*
Y1065056D01*
X5256663Y1053393D01*
X2470001Y2265000D02*
Y2218348D01*
X2446675Y2195022D01*
X2423349Y2218348D01*
Y2265000D01*
Y2230011D01*
X2470001D01*
X2400023Y2195022D02*
Y2265000D01*
X2365034D01*
X2353371Y2253337D01*
Y2241674D01*
X2365034Y2230011D01*
X2400023D01*
X2365034D01*
X2353371Y2218348D01*
Y2206685D01*
X2365034Y2195022D01*
X2400023D01*
X2283394Y2206685D02*
X2295057Y2195022D01*
X2318383D01*
X2330046Y2206685D01*
Y2253337D01*
X2318383Y2265000D01*
X2295057D01*
X2283394Y2253337D01*
X4585000Y1565000D02*
Y1644974D01*
X4624987D01*
X4638316Y1631645D01*
Y1604987D01*
X4624987Y1591658D01*
X4585000D01*
X4664974Y1644974D02*
Y1565000D01*
X4691632Y1591658D01*
X4718290Y1565000D01*
Y1644974D01*
X4744948Y1565000D02*
Y1644974D01*
X4784935D01*
X4798264Y1631645D01*
Y1604987D01*
X4784935Y1591658D01*
X4744948D01*
X4771606D02*
X4798264Y1565000D01*
X4728316Y1504974D02*
X4701658Y1491645D01*
X4675000Y1464987D01*
Y1438329D01*
X4688329Y1425000D01*
X4714987D01*
X4728316Y1438329D01*
Y1451658D01*
X4714987Y1464987D01*
X4675000D01*
X4754974Y1504974D02*
Y1451658D01*
X4781632Y1425000D01*
X4808290Y1451658D01*
Y1504974D01*
X1705000Y755000D02*
X1731658D01*
X1718329D01*
Y834974D01*
X1705000Y821645D01*
X2925000Y2385000D02*
Y2438316D01*
X2964987D01*
X2978316Y2424987D01*
Y2385000D01*
X3004974Y2464974D02*
Y2385000D01*
X3031632Y2411658D01*
X3058290Y2385000D01*
Y2464974D01*
X3084948Y2385000D02*
Y2464974D01*
X3124935D01*
X3138264Y2451645D01*
Y2424987D01*
X3124935Y2411658D01*
X3084948D01*
X4155000Y1895000D02*
X4181658D01*
X4168329D01*
Y1974974D01*
X4155000Y1961645D01*
X4221645D02*
X4234974Y1974974D01*
X4261632D01*
X4274961Y1961645D01*
Y1908329D01*
X4261632Y1895000D01*
X4234974D01*
X4221645Y1908329D01*
Y1961645D01*
X4301619Y1974974D02*
Y1921658D01*
X4328277Y1895000D01*
X4354935Y1921658D01*
Y1974974D01*
X4475000Y894987D02*
X4528316D01*
X4608290Y934974D02*
X4581632Y921645D01*
X4554974Y894987D01*
Y868329D01*
X4568303Y855000D01*
X4594961D01*
X4608290Y868329D01*
Y881658D01*
X4594961Y894987D01*
X4554974D01*
X4634948Y934974D02*
Y881658D01*
X4661606Y855000D01*
X4688264Y881658D01*
Y934974D01*
X5715000Y2065000D02*
Y2118316D01*
X5741658Y2144974D01*
X5768316Y2118316D01*
Y2065000D01*
Y2104987D01*
X5715000D01*
X5848290Y2144974D02*
X5794974D01*
Y2104987D01*
X5821632Y2118316D01*
X5834961D01*
X5848290Y2104987D01*
Y2078329D01*
X5834961Y2065000D01*
X5808303D01*
X5794974Y2078329D01*
X5874948Y2144974D02*
Y2091658D01*
X5901606Y2065000D01*
X5928264Y2091658D01*
Y2144974D01*
X6675000Y1445000D02*
Y1471658D01*
Y1458329D01*
X6595026D01*
X6608355Y1445000D01*
X6675000Y1511645D02*
X6595026D01*
X6648342D02*
X6621684Y1551632D01*
X6648342Y1511645D02*
X6675000Y1551632D01*
X6885000Y1285000D02*
Y1311658D01*
Y1298329D01*
X6805026D01*
X6818355Y1285000D01*
Y1351645D02*
X6805026Y1364974D01*
Y1391632D01*
X6818355Y1404961D01*
X6871671D01*
X6885000Y1391632D01*
Y1364974D01*
X6871671Y1351645D01*
X6818355D01*
Y1431619D02*
X6805026Y1444948D01*
Y1471606D01*
X6818355Y1484935D01*
X6871671D01*
X6885000Y1471606D01*
Y1444948D01*
X6871671Y1431619D01*
X6818355D01*
X6885000Y1511593D02*
X6805026D01*
X6858342D02*
X6831684Y1551581D01*
X6858342Y1511593D02*
X6885000Y1551581D01*
X1348316Y134974D02*
X1295000D01*
Y94987D01*
X1321658Y108316D01*
X1334987D01*
X1348316Y94987D01*
Y68329D01*
X1334987Y55000D01*
X1308329D01*
X1295000Y68329D01*
X1374974Y134974D02*
Y81658D01*
X1401632Y55000D01*
X1428290Y81658D01*
Y134974D01*
X1534922Y55000D02*
Y134974D01*
X1561580Y108316D01*
X1588238Y134974D01*
Y55000D01*
X1628226Y108316D02*
X1654884D01*
X1668213Y94987D01*
Y55000D01*
X1628226D01*
X1614896Y68329D01*
X1628226Y81658D01*
X1668213D01*
X1694871Y108316D02*
X1748187Y55000D01*
X1721529Y81658D01*
X1748187Y108316D01*
X1694871Y55000D01*
X5033374Y2719987D02*
X5086690D01*
X5060032D01*
Y2640013D01*
X5113348D02*
Y2719987D01*
X5153336D01*
X5166665Y2706658D01*
Y2680000D01*
X5153336Y2666671D01*
X5113348D01*
X5193323Y2640013D02*
X5219981D01*
X5206652D01*
Y2719987D01*
X5193323Y2706658D01*
X5259968Y2640013D02*
X5286626D01*
X5273297D01*
Y2719987D01*
X5259968Y2706658D01*
X2360032Y1429987D02*
Y1363342D01*
X2373361Y1350013D01*
X2400019D01*
X2413348Y1363342D01*
Y1429987D01*
X2440006Y1350013D02*
X2466664D01*
X2453335D01*
Y1429987D01*
X2440006Y1416658D01*
X2559968Y1429987D02*
X2533310Y1416658D01*
X2506652Y1390000D01*
Y1363342D01*
X2519981Y1350013D01*
X2546639D01*
X2559968Y1363342D01*
Y1376671D01*
X2546639Y1390000D01*
X2506652D01*
X3523368Y3789987D02*
X3576684D01*
X3550026D01*
Y3710013D01*
X3603342D02*
Y3789987D01*
X3643329D01*
X3656658Y3776658D01*
Y3750000D01*
X3643329Y3736671D01*
X3603342D01*
X3683316Y3723342D02*
X3696645Y3710013D01*
X3723303D01*
X3736632Y3723342D01*
Y3776658D01*
X3723303Y3789987D01*
X3696645D01*
X3683316Y3776658D01*
Y3763329D01*
X3696645Y3750000D01*
X3736632D01*
X8383355Y2660013D02*
Y2739987D01*
X8423342D01*
X8436671Y2726658D01*
Y2700000D01*
X8423342Y2686671D01*
X8383355D01*
X8516645Y2739987D02*
X8463329D01*
Y2700000D01*
X8489987Y2713329D01*
X8503316D01*
X8516645Y2700000D01*
Y2673342D01*
X8503316Y2660013D01*
X8476658D01*
X8463329Y2673342D01*
X8063355Y2720013D02*
Y2799987D01*
X8103342D01*
X8116671Y2786658D01*
Y2760000D01*
X8103342Y2746671D01*
X8063355D01*
X8183316Y2720013D02*
Y2799987D01*
X8143329Y2760000D01*
X8196645D01*
X1673355Y1050013D02*
Y1129987D01*
X1713342D01*
X1726671Y1116658D01*
Y1090000D01*
X1713342Y1076671D01*
X1673355D01*
X1753329Y1116658D02*
X1766658Y1129987D01*
X1793316D01*
X1806645Y1116658D01*
Y1103329D01*
X1793316Y1090000D01*
X1779987D01*
X1793316D01*
X1806645Y1076671D01*
Y1063342D01*
X1793316Y1050013D01*
X1766658D01*
X1753329Y1063342D01*
X1983355Y4010013D02*
Y4089987D01*
X2023342D01*
X2036671Y4076658D01*
Y4050000D01*
X2023342Y4036671D01*
X1983355D01*
X2116645Y4010013D02*
X2063329D01*
X2116645Y4063329D01*
Y4076658D01*
X2103316Y4089987D01*
X2076658D01*
X2063329Y4076658D01*
X1750000Y1019987D02*
X1723342D01*
X1736671D01*
Y953342D01*
X1723342Y940013D01*
X1710013D01*
X1696684Y953342D01*
X1776658Y940013D02*
X1803316D01*
X1789987D01*
Y1019987D01*
X1776658Y1006658D01*
X2573368Y2479987D02*
Y2413342D01*
X2586697Y2400013D01*
X2613355D01*
X2626684Y2413342D01*
Y2479987D01*
X2706658Y2400013D02*
X2653342D01*
X2706658Y2453329D01*
Y2466658D01*
X2693329Y2479987D01*
X2666671D01*
X2653342Y2466658D01*
X2733316D02*
X2746645Y2479987D01*
X2773303D01*
X2786632Y2466658D01*
Y2453329D01*
X2773303Y2440000D01*
X2786632Y2426671D01*
Y2413342D01*
X2773303Y2400013D01*
X2746645D01*
X2733316Y2413342D01*
Y2426671D01*
X2746645Y2440000D01*
X2733316Y2453329D01*
Y2466658D01*
X2746645Y2440000D02*
X2773303D01*
X5133368Y989987D02*
Y923342D01*
X5146697Y910013D01*
X5173355D01*
X5186684Y923342D01*
Y989987D01*
X5213342Y976658D02*
X5226671Y989987D01*
X5253329D01*
X5266658Y976658D01*
Y963329D01*
X5253329Y950000D01*
X5240000D01*
X5253329D01*
X5266658Y936671D01*
Y923342D01*
X5253329Y910013D01*
X5226671D01*
X5213342Y923342D01*
X5293316Y989987D02*
X5346632D01*
Y976658D01*
X5293316Y923342D01*
Y910013D01*
X4983368Y2259987D02*
Y2193342D01*
X4996697Y2180013D01*
X5023355D01*
X5036684Y2193342D01*
Y2259987D01*
X5063342Y2246658D02*
X5076671Y2259987D01*
X5103329D01*
X5116658Y2246658D01*
Y2233329D01*
X5103329Y2220000D01*
X5090000D01*
X5103329D01*
X5116658Y2206671D01*
Y2193342D01*
X5103329Y2180013D01*
X5076671D01*
X5063342Y2193342D01*
X5196632Y2259987D02*
X5169974Y2246658D01*
X5143316Y2220000D01*
Y2193342D01*
X5156645Y2180013D01*
X5183303D01*
X5196632Y2193342D01*
Y2206671D01*
X5183303Y2220000D01*
X5143316D01*
X3823368Y3949987D02*
Y3883342D01*
X3836697Y3870013D01*
X3863355D01*
X3876684Y3883342D01*
Y3949987D01*
X3903342Y3936658D02*
X3916671Y3949987D01*
X3943329D01*
X3956658Y3936658D01*
Y3923329D01*
X3943329Y3910000D01*
X3930000D01*
X3943329D01*
X3956658Y3896671D01*
Y3883342D01*
X3943329Y3870013D01*
X3916671D01*
X3903342Y3883342D01*
X4036632Y3949987D02*
X3983316D01*
Y3910000D01*
X4009974Y3923329D01*
X4023303D01*
X4036632Y3910000D01*
Y3883342D01*
X4023303Y3870013D01*
X3996645D01*
X3983316Y3883342D01*
X2903368Y4119987D02*
Y4053342D01*
X2916697Y4040013D01*
X2943355D01*
X2956684Y4053342D01*
Y4119987D01*
X2983342Y4106658D02*
X2996671Y4119987D01*
X3023329D01*
X3036658Y4106658D01*
Y4093329D01*
X3023329Y4080000D01*
X3010000D01*
X3023329D01*
X3036658Y4066671D01*
Y4053342D01*
X3023329Y4040013D01*
X2996671D01*
X2983342Y4053342D01*
X3103303Y4040013D02*
Y4119987D01*
X3063316Y4080000D01*
X3116632D01*
X2173368Y3999987D02*
X2226684D01*
X2200026D01*
Y3920013D01*
X2253342D02*
Y3999987D01*
X2293329D01*
X2306658Y3986658D01*
Y3960000D01*
X2293329Y3946671D01*
X2253342D01*
X2333316Y3986658D02*
X2346645Y3999987D01*
X2373303D01*
X2386632Y3986658D01*
Y3973329D01*
X2373303Y3960000D01*
X2386632Y3946671D01*
Y3933342D01*
X2373303Y3920013D01*
X2346645D01*
X2333316Y3933342D01*
Y3946671D01*
X2346645Y3960000D01*
X2333316Y3973329D01*
Y3986658D01*
X2346645Y3960000D02*
X2373303D01*
X2173368Y3879987D02*
X2226684D01*
X2200026D01*
Y3800013D01*
X2253342D02*
Y3879987D01*
X2293329D01*
X2306658Y3866658D01*
Y3840000D01*
X2293329Y3826671D01*
X2253342D01*
X2333316Y3879987D02*
X2386632D01*
Y3866658D01*
X2333316Y3813342D01*
Y3800013D01*
X3113368Y2049987D02*
Y1983342D01*
X3126697Y1970013D01*
X3153355D01*
X3166684Y1983342D01*
Y2049987D01*
X3193342Y2036658D02*
X3206671Y2049987D01*
X3233329D01*
X3246658Y2036658D01*
Y2023329D01*
X3233329Y2010000D01*
X3220000D01*
X3233329D01*
X3246658Y1996671D01*
Y1983342D01*
X3233329Y1970013D01*
X3206671D01*
X3193342Y1983342D01*
X3273316Y2036658D02*
X3286645Y2049987D01*
X3313303D01*
X3326632Y2036658D01*
Y2023329D01*
X3313303Y2010000D01*
X3299974D01*
X3313303D01*
X3326632Y1996671D01*
Y1983342D01*
X3313303Y1970013D01*
X3286645D01*
X3273316Y1983342D01*
X2953355Y620013D02*
Y699987D01*
X2993342D01*
X3006671Y686658D01*
Y660000D01*
X2993342Y646671D01*
X2953355D01*
X3033329Y633342D02*
X3046658Y620013D01*
X3073316D01*
X3086645Y633342D01*
Y686658D01*
X3073316Y699987D01*
X3046658D01*
X3033329Y686658D01*
Y673329D01*
X3046658Y660000D01*
X3086645D01*
X1963355Y4770013D02*
Y4849987D01*
X2003342D01*
X2016671Y4836658D01*
Y4810000D01*
X2003342Y4796671D01*
X1963355D01*
X2043329Y4836658D02*
X2056658Y4849987D01*
X2083316D01*
X2096645Y4836658D01*
Y4823329D01*
X2083316Y4810000D01*
X2096645Y4796671D01*
Y4783342D01*
X2083316Y4770013D01*
X2056658D01*
X2043329Y4783342D01*
Y4796671D01*
X2056658Y4810000D01*
X2043329Y4823329D01*
Y4836658D01*
X2056658Y4810000D02*
X2083316D01*
X3863368Y3279987D02*
Y3213342D01*
X3876697Y3200013D01*
X3903355D01*
X3916684Y3213342D01*
Y3279987D01*
X3943342Y3266658D02*
X3956671Y3279987D01*
X3983329D01*
X3996658Y3266658D01*
Y3253329D01*
X3983329Y3240000D01*
X3970000D01*
X3983329D01*
X3996658Y3226671D01*
Y3213342D01*
X3983329Y3200013D01*
X3956671D01*
X3943342Y3213342D01*
X4076632Y3200013D02*
X4023316D01*
X4076632Y3253329D01*
Y3266658D01*
X4063303Y3279987D01*
X4036645D01*
X4023316Y3266658D01*
X3133368Y3779987D02*
Y3713342D01*
X3146697Y3700013D01*
X3173355D01*
X3186684Y3713342D01*
Y3779987D01*
X3266658Y3700013D02*
X3213342D01*
X3266658Y3753329D01*
Y3766658D01*
X3253329Y3779987D01*
X3226671D01*
X3213342Y3766658D01*
X3293316Y3779987D02*
X3346632D01*
Y3766658D01*
X3293316Y3713342D01*
Y3700013D01*
X2873368Y3129987D02*
Y3063342D01*
X2886697Y3050013D01*
X2913355D01*
X2926684Y3063342D01*
Y3129987D01*
X3006658Y3050013D02*
X2953342D01*
X3006658Y3103329D01*
Y3116658D01*
X2993329Y3129987D01*
X2966671D01*
X2953342Y3116658D01*
X3086632Y3129987D02*
X3033316D01*
Y3090000D01*
X3059974Y3103329D01*
X3073303D01*
X3086632Y3090000D01*
Y3063342D01*
X3073303Y3050013D01*
X3046645D01*
X3033316Y3063342D01*
X6253368Y2959987D02*
Y2893342D01*
X6266697Y2880013D01*
X6293355D01*
X6306684Y2893342D01*
Y2959987D01*
X6386658Y2880013D02*
X6333342D01*
X6386658Y2933329D01*
Y2946658D01*
X6373329Y2959987D01*
X6346671D01*
X6333342Y2946658D01*
X6453303Y2880013D02*
Y2959987D01*
X6413316Y2920000D01*
X6466632D01*
X3810032Y1499987D02*
Y1433342D01*
X3823361Y1420013D01*
X3850019D01*
X3863348Y1433342D01*
Y1499987D01*
X3890006Y1420013D02*
X3916665D01*
X3903336D01*
Y1499987D01*
X3890006Y1486658D01*
X4009968Y1499987D02*
X3956652D01*
Y1460000D01*
X3983310Y1473329D01*
X3996639D01*
X4009968Y1460000D01*
Y1433342D01*
X3996639Y1420013D01*
X3969981D01*
X3956652Y1433342D01*
X7170032Y3969987D02*
Y3903342D01*
X7183361Y3890013D01*
X7210019D01*
X7223348Y3903342D01*
Y3969987D01*
X7250006Y3890013D02*
X7276664D01*
X7263335D01*
Y3969987D01*
X7250006Y3956658D01*
X7356639Y3890013D02*
Y3969987D01*
X7316652Y3930000D01*
X7369968D01*
X7680032Y3119987D02*
Y3053342D01*
X7693361Y3040013D01*
X7720019D01*
X7733348Y3053342D01*
Y3119987D01*
X7760006Y3040013D02*
X7786664D01*
X7773335D01*
Y3119987D01*
X7760006Y3106658D01*
X7826652D02*
X7839981Y3119987D01*
X7866639D01*
X7879968Y3106658D01*
Y3093329D01*
X7866639Y3080000D01*
X7853310D01*
X7866639D01*
X7879968Y3066671D01*
Y3053342D01*
X7866639Y3040013D01*
X7839981D01*
X7826652Y3053342D01*
X7700032Y1209987D02*
Y1143342D01*
X7713361Y1130013D01*
X7740019D01*
X7753348Y1143342D01*
Y1209987D01*
X7780006Y1130013D02*
X7806664D01*
X7793335D01*
Y1209987D01*
X7780006Y1196658D01*
X7899968Y1130013D02*
X7846652D01*
X7899968Y1183329D01*
Y1196658D01*
X7886639Y1209987D01*
X7859981D01*
X7846652Y1196658D01*
X7693361Y2009987D02*
Y1943342D01*
X7706690Y1930013D01*
X7733349D01*
X7746677Y1943342D01*
Y2009987D01*
X7773335Y1930013D02*
X7799994D01*
X7786665D01*
Y2009987D01*
X7773335Y1996658D01*
X7839981Y1930013D02*
X7866639D01*
X7853310D01*
Y2009987D01*
X7839981Y1996658D01*
X7700032Y1609987D02*
Y1543342D01*
X7713361Y1530013D01*
X7740019D01*
X7753348Y1543342D01*
Y1609987D01*
X7780006Y1530013D02*
X7806664D01*
X7793335D01*
Y1609987D01*
X7780006Y1596658D01*
X7846652D02*
X7859981Y1609987D01*
X7886639D01*
X7899968Y1596658D01*
Y1543342D01*
X7886639Y1530013D01*
X7859981D01*
X7846652Y1543342D01*
Y1596658D01*
X7693355Y3519987D02*
Y3453342D01*
X7706684Y3440013D01*
X7733342D01*
X7746671Y3453342D01*
Y3519987D01*
X7773329Y3453342D02*
X7786658Y3440013D01*
X7813316D01*
X7826645Y3453342D01*
Y3506658D01*
X7813316Y3519987D01*
X7786658D01*
X7773329Y3506658D01*
Y3493329D01*
X7786658Y3480000D01*
X7826645D01*
X5943355Y1279987D02*
Y1213342D01*
X5956684Y1200013D01*
X5983342D01*
X5996671Y1213342D01*
Y1279987D01*
X6023329Y1266658D02*
X6036658Y1279987D01*
X6063316D01*
X6076645Y1266658D01*
Y1253329D01*
X6063316Y1240000D01*
X6076645Y1226671D01*
Y1213342D01*
X6063316Y1200013D01*
X6036658D01*
X6023329Y1213342D01*
Y1226671D01*
X6036658Y1240000D01*
X6023329Y1253329D01*
Y1266658D01*
X6036658Y1240000D02*
X6063316D01*
X7693355Y2389987D02*
Y2323342D01*
X7706684Y2310013D01*
X7733342D01*
X7746671Y2323342D01*
Y2389987D01*
X7773329D02*
X7826645D01*
Y2376658D01*
X7773329Y2323342D01*
Y2310013D01*
X7273355Y4539987D02*
Y4473342D01*
X7286684Y4460013D01*
X7313342D01*
X7326671Y4473342D01*
Y4539987D01*
X7406645D02*
X7379987Y4526658D01*
X7353329Y4500000D01*
Y4473342D01*
X7366658Y4460013D01*
X7393316D01*
X7406645Y4473342D01*
Y4486671D01*
X7393316Y4500000D01*
X7353329D01*
X7683355Y2779987D02*
Y2713342D01*
X7696684Y2700013D01*
X7723342D01*
X7736671Y2713342D01*
Y2779987D01*
X7816645D02*
X7763329D01*
Y2740000D01*
X7789987Y2753329D01*
X7803316D01*
X7816645Y2740000D01*
Y2713342D01*
X7803316Y2700013D01*
X7776658D01*
X7763329Y2713342D01*
X5953355Y1739987D02*
Y1673342D01*
X5966684Y1660013D01*
X5993342D01*
X6006671Y1673342D01*
Y1739987D01*
X6073316Y1660013D02*
Y1739987D01*
X6033329Y1700000D01*
X6086645D01*
X5083355Y3359987D02*
Y3293342D01*
X5096684Y3280013D01*
X5123342D01*
X5136671Y3293342D01*
Y3359987D01*
X5163329Y3346658D02*
X5176658Y3359987D01*
X5203316D01*
X5216645Y3346658D01*
Y3333329D01*
X5203316Y3320000D01*
X5189987D01*
X5203316D01*
X5216645Y3306671D01*
Y3293342D01*
X5203316Y3280013D01*
X5176658D01*
X5163329Y3293342D01*
X5663355Y3839987D02*
Y3773342D01*
X5676684Y3760013D01*
X5703342D01*
X5716671Y3773342D01*
Y3839987D01*
X5796645Y3760013D02*
X5743329D01*
X5796645Y3813329D01*
Y3826658D01*
X5783316Y3839987D01*
X5756658D01*
X5743329Y3826658D01*
X4696684Y4119987D02*
Y4053342D01*
X4710013Y4040013D01*
X4736671D01*
X4750000Y4053342D01*
Y4119987D01*
X4776658Y4040013D02*
X4803316D01*
X4789987D01*
Y4119987D01*
X4776658Y4106658D01*
X3223368Y2739987D02*
X3276684D01*
X3250026D01*
Y2660013D01*
X3303342D02*
Y2739987D01*
X3343329D01*
X3356658Y2726658D01*
Y2700000D01*
X3343329Y2686671D01*
X3303342D01*
X3436632Y2739987D02*
X3409974Y2726658D01*
X3383316Y2700000D01*
Y2673342D01*
X3396645Y2660013D01*
X3423303D01*
X3436632Y2673342D01*
Y2686671D01*
X3423303Y2700000D01*
X3383316D01*
X5683368Y3479987D02*
X5736684D01*
X5710026D01*
Y3400013D01*
X5763342D02*
Y3479987D01*
X5803329D01*
X5816658Y3466658D01*
Y3440000D01*
X5803329Y3426671D01*
X5763342D01*
X5896632Y3479987D02*
X5843316D01*
Y3440000D01*
X5869974Y3453329D01*
X5883303D01*
X5896632Y3440000D01*
Y3413342D01*
X5883303Y3400013D01*
X5856645D01*
X5843316Y3413342D01*
X6113368Y4429987D02*
X6166684D01*
X6140026D01*
Y4350013D01*
X6193342D02*
Y4429987D01*
X6233329D01*
X6246658Y4416658D01*
Y4390000D01*
X6233329Y4376671D01*
X6193342D01*
X6313303Y4350013D02*
Y4429987D01*
X6273316Y4390000D01*
X6326632D01*
X5923368Y4199987D02*
X5976684D01*
X5950026D01*
Y4120013D01*
X6003342D02*
Y4199987D01*
X6043329D01*
X6056658Y4186658D01*
Y4160000D01*
X6043329Y4146671D01*
X6003342D01*
X6083316Y4186658D02*
X6096645Y4199987D01*
X6123303D01*
X6136632Y4186658D01*
Y4173329D01*
X6123303Y4160000D01*
X6109974D01*
X6123303D01*
X6136632Y4146671D01*
Y4133342D01*
X6123303Y4120013D01*
X6096645D01*
X6083316Y4133342D01*
X5683368Y3629987D02*
X5736684D01*
X5710026D01*
Y3550013D01*
X5763342D02*
Y3629987D01*
X5803329D01*
X5816658Y3616658D01*
Y3590000D01*
X5803329Y3576671D01*
X5763342D01*
X5896632Y3550013D02*
X5843316D01*
X5896632Y3603329D01*
Y3616658D01*
X5883303Y3629987D01*
X5856645D01*
X5843316Y3616658D01*
X5526697Y4429987D02*
X5580013D01*
X5553355D01*
Y4350013D01*
X5606671D02*
Y4429987D01*
X5646658D01*
X5659987Y4416658D01*
Y4390000D01*
X5646658Y4376671D01*
X5606671D01*
X5686645Y4350013D02*
X5713303D01*
X5699974D01*
Y4429987D01*
X5686645Y4416658D01*
D97*
X2290000Y2970000D02*
Y3110000D01*
X2430000Y2970000D02*
Y3110000D01*
X6180000Y3880000D02*
X6320000D01*
X6180000Y4020000D02*
X6320000D01*
X1890000Y1340000D02*
X1970000D01*
X1890000D02*
Y1440000D01*
X2110000Y1340000D02*
X2190000D01*
Y1440000D01*
X2200000Y1800000D02*
X2280000D01*
X2200000D02*
Y1900000D01*
X2420000Y1800000D02*
X2500000D01*
Y1900000D01*
X1770000Y1710000D02*
X1850000D01*
X1770000D02*
Y1810000D01*
X1990000Y1710000D02*
X2070000D01*
Y1810000D01*
X2430000Y2720000D02*
X2510000D01*
Y2620000D02*
Y2720000D01*
X2210000D02*
X2290000D01*
X2210000Y2620000D02*
Y2720000D01*
X5390039Y2290001D02*
Y2330000D01*
X2749998Y2169959D02*
X2789998D01*
X2859999Y2169961D02*
X2899999D01*
X2970003Y2270037D02*
X3010003D01*
X1890000Y70500D02*
X1949997D01*
X1880000Y35500D02*
Y600500D01*
X1890000Y564500D02*
X1952000D01*
X3175000Y55500D02*
Y579500D01*
X3175748Y70500D02*
X3219997D01*
X3175146Y564500D02*
X3222000D01*
X7777000Y35500D02*
Y600500D01*
X7702003Y564500D02*
X7767000D01*
X7700000Y70500D02*
X7767000D01*
X6985000Y35500D02*
Y600500D01*
X6940003Y564500D02*
X6984252D01*
X6938000Y70500D02*
X6984854D01*
X6985000Y55500D02*
Y579500D01*
X6985748Y70500D02*
X7029997D01*
X6985146Y564500D02*
X7032000D01*
X5715000Y35500D02*
Y600500D01*
X5670003Y564500D02*
X5714252D01*
X5668000Y70500D02*
X5714854D01*
X5715000Y55500D02*
Y579500D01*
X5715748Y70500D02*
X5759997D01*
X5715146Y564500D02*
X5762000D01*
X4445000Y35500D02*
Y600500D01*
X4400003Y564500D02*
X4444252D01*
X4398000Y70500D02*
X4444854D01*
X4445000Y55500D02*
Y579500D01*
X4445748Y70500D02*
X4489997D01*
X4445146Y564500D02*
X4492000D01*
X3175000Y35500D02*
Y600500D01*
X3130003Y564500D02*
X3174252D01*
X3128000Y70500D02*
X3174854D01*
X1890000Y4896500D02*
X1949997D01*
X1880000Y4861500D02*
Y5426500D01*
X1890000Y5390500D02*
X1952000D01*
X3175000Y4881500D02*
Y5405500D01*
X3175748Y4896500D02*
X3219997D01*
X3175146Y5390500D02*
X3222000D01*
X7777000Y4861500D02*
Y5426500D01*
X7702003Y5390500D02*
X7767000D01*
X7700000Y4896500D02*
X7767000D01*
X6985000Y4861500D02*
Y5426500D01*
X6940003Y5390500D02*
X6984252D01*
X6938000Y4896500D02*
X6984854D01*
X6985000Y4881500D02*
Y5405500D01*
X6985748Y4896500D02*
X7029997D01*
X6985146Y5390500D02*
X7032000D01*
X5715000Y4861500D02*
Y5426500D01*
X5670003Y5390500D02*
X5714252D01*
X5668000Y4896500D02*
X5714854D01*
X5715000Y4881500D02*
Y5405500D01*
X5715748Y4896500D02*
X5759997D01*
X5715146Y5390500D02*
X5762000D01*
X4445000Y4861500D02*
Y5426500D01*
X4400003Y5390500D02*
X4444252D01*
X4398000Y4896500D02*
X4444854D01*
X4445000Y4881500D02*
Y5405500D01*
X4445748Y4896500D02*
X4489997D01*
X4445146Y5390500D02*
X4492000D01*
X3175000Y4861500D02*
Y5426500D01*
X3130003Y5390500D02*
X3174252D01*
X3128000Y4896500D02*
X3174854D01*
X7973000Y795800D02*
X8538000D01*
X8502000Y805800D02*
Y870797D01*
X8008000Y805800D02*
Y872800D01*
Y1333946D02*
Y1380800D01*
X8502000Y1334548D02*
Y1378797D01*
X7973000Y1333800D02*
X8538000D01*
X8502000Y1286800D02*
Y1333654D01*
X8008000Y1288803D02*
Y1333052D01*
X7993000Y1333800D02*
X8517000D01*
X8502000Y2556800D02*
Y2618800D01*
X7973000Y2628800D02*
X8538000D01*
X8008000Y2558803D02*
Y2618800D01*
X7973000Y2827800D02*
X8538000D01*
X8502000Y2837800D02*
Y2902797D01*
X8008000Y2837800D02*
Y2904800D01*
Y3365946D02*
Y3412800D01*
X8502000Y3366548D02*
Y3410797D01*
X7973000Y3365800D02*
X8538000D01*
X8502000Y3318800D02*
Y3365654D01*
X8008000Y3320803D02*
Y3365052D01*
X7993000Y3365800D02*
X8517000D01*
X8502000Y4588800D02*
Y4650800D01*
X7973000Y4660800D02*
X8538000D01*
X8008000Y4590803D02*
Y4650800D01*
X1890000Y4632400D02*
X1952000D01*
X1880000Y4103400D02*
Y4668400D01*
X1890000Y4138400D02*
X1949997D01*
X2443000Y4103400D02*
Y4668400D01*
X2368003Y4632400D02*
X2433000D01*
X2366000Y4138400D02*
X2433000D01*
X4860000Y1610000D02*
Y1680000D01*
X4830000Y1650000D02*
X4860000Y1680000D01*
X4860000D02*
X4890000Y1650000D01*
X5750000Y2010000D02*
X5820000D01*
X5750000D02*
X5780000Y1980000D01*
X5750000Y2010000D02*
X5780000Y2040000D01*
X4060000Y1930000D02*
X4090000Y1900000D01*
X4090000D02*
X4120000Y1930000D01*
X4090000Y1900000D02*
Y1970000D01*
X4410000Y930000D02*
X4440000Y900000D01*
X4380000D02*
X4410000Y930000D01*
Y860000D02*
Y930000D01*
X4720000Y1330000D02*
X4750000Y1360000D01*
X4720000Y1390000D02*
X4750000Y1360000D01*
X4680000D02*
X4750000D01*
X7840000Y340000D02*
X7870000Y310000D01*
X7870000D02*
X7900000Y340000D01*
X7870000Y310000D02*
Y380000D01*
X7870000Y5150000D02*
X7900000Y5120000D01*
X7840000D02*
X7870000Y5150000D01*
Y5080000D02*
Y5150000D01*
X7610000Y4680000D02*
X7640000Y4650000D01*
X7640000D02*
X7670000Y4680000D01*
X7640000Y4650000D02*
Y4720000D01*
X7810000Y720000D02*
Y790000D01*
X7780000Y760000D02*
X7810000Y790000D01*
X7810000D02*
X7840000Y760000D01*
X8016645Y5143306D02*
X7999984Y5159968D01*
X7966661D01*
X7950000Y5143306D01*
Y5126645D01*
X7966661Y5109984D01*
X7999984D01*
X8016645Y5093323D01*
Y5076661D01*
X7999984Y5060000D01*
X7966661D01*
X7950000Y5076661D01*
X8116613Y5159968D02*
X8049968D01*
Y5060000D01*
X8116613D01*
X8049968Y5109984D02*
X8083290D01*
X8149935Y5159968D02*
Y5060000D01*
X8216580D01*
X6160000Y4540000D02*
Y4639968D01*
X6209984D01*
X6226645Y4623306D01*
Y4589984D01*
X6209984Y4573323D01*
X6160000D01*
X6259968Y4540000D02*
Y4639968D01*
X6309952D01*
X6326613Y4623306D01*
Y4589984D01*
X6309952Y4573323D01*
X6259968D01*
X6293290D02*
X6326613Y4540000D01*
X6359936Y4639968D02*
Y4556661D01*
X6376597Y4540000D01*
X6409920D01*
X6426581Y4556661D01*
Y4639968D01*
X6459904Y4540000D02*
X6493226D01*
X6476565D01*
Y4639968D01*
X6459904Y4623306D01*
X6160000Y4853306D02*
X6176662Y4869968D01*
X6209984D01*
X6226645Y4853306D01*
Y4786661D01*
X6209984Y4770000D01*
X6176662D01*
X6160000Y4786661D01*
Y4853306D01*
X6480000Y4770000D02*
X6513323D01*
X6496661D01*
Y4869968D01*
X6480000Y4853306D01*
X4950000Y4770000D02*
X4983323D01*
X4966661D01*
Y4869968D01*
X4950000Y4853306D01*
X4630000D02*
X4646661Y4869968D01*
X4679984D01*
X4696645Y4853306D01*
Y4786661D01*
X4679984Y4770000D01*
X4646661D01*
X4630000Y4786661D01*
Y4853306D01*
X1826645Y5230000D02*
X1760000D01*
X1826645Y5296645D01*
Y5313306D01*
X1809984Y5329968D01*
X1776661D01*
X1760000Y5313306D01*
X1836645Y4500000D02*
X1770000D01*
X1836645Y4566645D01*
Y4583306D01*
X1819984Y4599968D01*
X1786661D01*
X1770000Y4583306D01*
X1780000Y4950000D02*
X1813323D01*
X1796661D01*
Y5049968D01*
X1780000Y5033306D01*
X1790000Y4190000D02*
X1823322D01*
X1806661D01*
Y4289968D01*
X1790000Y4273306D01*
X1856645Y420000D02*
X1790000D01*
X1856645Y486645D01*
Y503306D01*
X1839984Y519968D01*
X1806661D01*
X1790000Y503306D01*
X1810000Y130000D02*
X1843322D01*
X1826661D01*
Y229968D01*
X1810000Y213306D01*
X7890000Y2500000D02*
X7923322D01*
X7906661D01*
Y2599968D01*
X7890000Y2583306D01*
X7920000Y4510000D02*
X7953322D01*
X7936661D01*
Y4609968D01*
X7920000Y4593306D01*
X7590000Y789968D02*
X7623323D01*
X7606661D01*
Y690000D01*
X7590000D01*
X7623323D01*
X7723290Y789968D02*
X7689968D01*
X7673306Y773306D01*
Y706661D01*
X7689968Y690000D01*
X7723290D01*
X7739952Y706661D01*
Y773306D01*
X7723290Y789968D01*
X8006645Y383306D02*
X7989984Y399968D01*
X7956661D01*
X7940000Y383306D01*
Y366645D01*
X7956661Y349984D01*
X7989984D01*
X8006645Y333322D01*
Y316661D01*
X7989984Y300000D01*
X7956661D01*
X7940000Y316661D01*
X8106613Y399968D02*
X8039968D01*
Y300000D01*
X8106613D01*
X8039968Y349984D02*
X8073290D01*
X8139935Y399968D02*
Y300000D01*
X8206580D01*
X7710000Y4719974D02*
X7736658D01*
X7723329D01*
Y4640000D01*
X7710000D01*
X7736658D01*
X7816633Y4719974D02*
X7789975D01*
X7776645Y4706645D01*
Y4653329D01*
X7789975Y4640000D01*
X7816633D01*
X7829961Y4653329D01*
Y4706645D01*
X7816633Y4719974D01*
X4260000Y2479968D02*
Y2380000D01*
Y2429984D01*
X4326645D01*
Y2479968D01*
Y2380000D01*
X4359968D02*
Y2479968D01*
X4409952D01*
X4426613Y2463306D01*
Y2429984D01*
X4409952Y2413323D01*
X4359968D01*
X4393290D02*
X4426613Y2380000D01*
X4459935Y2479968D02*
Y2413323D01*
X4493258Y2380000D01*
X4526580Y2413323D01*
Y2479968D01*
X4746645D02*
X4680000D01*
Y2380000D01*
X4746645D01*
X4680000Y2429984D02*
X4713323D01*
X4779968Y2380000D02*
Y2479968D01*
X4813290Y2446645D01*
X4846613Y2479968D01*
Y2380000D01*
X4879936Y2479968D02*
Y2396661D01*
X4896597Y2380000D01*
X4929920D01*
X4946581Y2396661D01*
Y2479968D01*
X1180000Y4859968D02*
Y4760000D01*
Y4809984D01*
X1246645D01*
Y4859968D01*
Y4760000D01*
X1296629Y4826645D02*
X1329952D01*
X1346613Y4809984D01*
Y4760000D01*
X1296629D01*
X1279968Y4776661D01*
X1296629Y4793322D01*
X1346613D01*
X1379936Y4826645D02*
Y4760000D01*
Y4793322D01*
X1396597Y4809984D01*
X1413258Y4826645D01*
X1429919D01*
X1479903D02*
X1513226Y4760000D01*
X1546548Y4826645D01*
X1629855Y4760000D02*
X1596532D01*
X1579871Y4776661D01*
Y4809984D01*
X1596532Y4826645D01*
X1629855D01*
X1646516Y4809984D01*
Y4793322D01*
X1579871D01*
X1679839Y4760000D02*
X1729823D01*
X1746484Y4776661D01*
X1729823Y4793322D01*
X1696500D01*
X1679839Y4809984D01*
X1696500Y4826645D01*
X1746484D01*
X1796468Y4843306D02*
Y4826645D01*
X1779807D01*
X1813129D01*
X1796468D01*
Y4776661D01*
X1813129Y4760000D01*
X4630000Y4540000D02*
Y4639968D01*
X4679984D01*
X4696645Y4623306D01*
Y4589984D01*
X4679984Y4573323D01*
X4630000D01*
X4729968Y4540000D02*
Y4639968D01*
X4779952D01*
X4796613Y4623306D01*
Y4589984D01*
X4779952Y4573323D01*
X4729968D01*
X4763290D02*
X4796613Y4540000D01*
X4829935Y4639968D02*
Y4556661D01*
X4846597Y4540000D01*
X4879919D01*
X4896581Y4556661D01*
Y4639968D01*
X4929903Y4623306D02*
X4946565Y4639968D01*
X4979887D01*
X4996548Y4623306D01*
Y4556661D01*
X4979887Y4540000D01*
X4946565D01*
X4929903Y4556661D01*
Y4623306D01*
X8540000Y2579968D02*
Y2480000D01*
X8589984D01*
X8606645Y2496661D01*
Y2513322D01*
X8589984Y2529984D01*
X8540000D01*
X8589984D01*
X8606645Y2546645D01*
Y2563306D01*
X8589984Y2579968D01*
X8540000D01*
Y2890000D02*
Y2956645D01*
X8573322Y2989968D01*
X8606645Y2956645D01*
Y2890000D01*
Y2939984D01*
X8540000D01*
D98*
X1500000Y4560000D02*
X1600000D01*
X1470000Y4440000D02*
Y4540000D01*
X1630000Y4440000D02*
Y4540000D01*
X1500000Y4420000D02*
X1600000D01*
X1470000Y4290000D02*
Y4390000D01*
X1630000Y4290000D02*
Y4390000D01*
X1500000Y4260000D02*
X1600000D01*
X1240000D02*
X1340000D01*
X1370000Y4290000D02*
Y4390000D01*
X1210000Y4290000D02*
Y4390000D01*
X1240000Y4420000D02*
X1340000D01*
X1370000Y4440000D02*
Y4540000D01*
X1210000Y4440000D02*
Y4540000D01*
X1240000Y4560000D02*
X1340000D01*
D126*
X5438234Y2749233D02*
Y2749420D01*
X3278234Y2479233D02*
Y2479420D01*
X3931766Y3700580D02*
Y3700767D01*
X2549233Y4011765D02*
X2549420D01*
X2430580Y3618234D02*
X2430767D01*
X3608234Y2759233D02*
Y2759420D01*
X5508235Y3409233D02*
Y3409420D01*
X6321766Y4220580D02*
Y4220767D01*
X5971766Y4220580D02*
Y4220767D01*
X5508235Y3639233D02*
Y3639420D01*
X5561765Y4220580D02*
Y4220767D01*
X2740000Y1990000D02*
X2780000D01*
X2740000Y1950000D02*
Y2030000D01*
X2780000Y1990000D01*
X2740000Y1950000D02*
X2780000Y1990000D01*
Y1950000D02*
Y2030000D01*
Y1990000D02*
X2790106D01*
X2790228Y1990122D01*
X2730577Y1990000D02*
X2740000D01*
X2150000Y1070000D02*
Y1110000D01*
X2110000Y1070000D02*
X2190000D01*
X2110000D02*
X2150000Y1110000D01*
X2190000Y1070000D01*
X2110000Y1110000D02*
X2190000D01*
X2150000D02*
Y1120106D01*
X2149878Y1120228D02*
X2150000Y1120106D01*
Y1060577D02*
Y1070000D01*
X2280000Y1430000D02*
Y1470000D01*
X2240000Y1430000D02*
X2320000D01*
X2240000D02*
X2280000Y1470000D01*
X2320000Y1430000D01*
X2240000Y1470000D02*
X2320000D01*
X2280000D02*
Y1480106D01*
X2279878Y1480228D02*
X2280000Y1480106D01*
Y1420577D02*
Y1430000D01*
X5580000Y1070000D02*
X5620000D01*
Y1030000D02*
Y1110000D01*
X5580000Y1070000D02*
X5620000Y1030000D01*
X5580000Y1070000D02*
X5620000Y1110000D01*
X5580000Y1030000D02*
Y1110000D01*
X5569894Y1070000D02*
X5580000D01*
X5569772Y1069878D02*
X5569894Y1070000D01*
X5620000D02*
X5629423D01*
X5020000Y1490000D02*
Y1530000D01*
X4980000D02*
X5060000D01*
X5020000Y1490000D02*
X5060000Y1530000D01*
X4980000D02*
X5020000Y1490000D01*
X4980000D02*
X5060000D01*
X5020000Y1479894D02*
Y1490000D01*
Y1479894D02*
X5020122Y1479772D01*
X5020000Y1530000D02*
Y1539423D01*
X2450000Y1640000D02*
X2490000D01*
X2450000Y1600000D02*
Y1680000D01*
X2490000Y1640000D01*
X2450000Y1600000D02*
X2490000Y1640000D01*
Y1600000D02*
Y1680000D01*
Y1640000D02*
X2500106D01*
X2500228Y1640122D01*
X2440577Y1640000D02*
X2450000D01*
X2620000Y2240000D02*
Y2245094D01*
Y2214711D02*
Y2220000D01*
X4910000Y1504906D02*
Y1510000D01*
Y1530000D02*
Y1535289D01*
X4780000Y2104907D02*
Y2110000D01*
Y2130000D02*
Y2135289D01*
X5554906Y1180000D02*
X5560000D01*
X5580000D02*
X5585289D01*
X5440000Y2004907D02*
Y2010001D01*
Y2030001D02*
Y2035289D01*
X4780000Y1904907D02*
Y1910000D01*
Y1930000D02*
Y1935289D01*
X2780000Y3050000D02*
Y3055094D01*
Y3024711D02*
Y3030000D01*
Y3224906D02*
Y3230000D01*
Y3250000D02*
Y3255289D01*
X3340000Y4290000D02*
X3345094D01*
X3314711D02*
X3320000D01*
X3540000D02*
X3545093D01*
X3514711D02*
X3520000D01*
X4340000Y4730000D02*
Y4735094D01*
Y4704711D02*
Y4710000D01*
X4400000Y4270000D02*
Y4275094D01*
Y4244711D02*
Y4250000D01*
X3014906Y3790000D02*
X3020000D01*
X3040000D02*
X3045289D01*
X2840000D02*
X2845094D01*
X2814711D02*
X2820000D01*
X3580000Y3890000D02*
Y3895094D01*
Y3864711D02*
Y3870000D01*
X2790000Y4244906D02*
Y4250000D01*
Y4270000D02*
Y4275289D01*
X3024906Y4210000D02*
X3030000D01*
X3050000D02*
X3055289D01*
X3350000Y3864906D02*
Y3870000D01*
Y3890000D02*
Y3895289D01*
X6380000Y3090000D02*
X6385094D01*
X6354711D02*
X6360000D01*
X6380000Y3190000D02*
X6385094D01*
X6354711D02*
X6360000D01*
X3530000Y2314906D02*
Y2320000D01*
Y2340000D02*
Y2345288D01*
X7890000Y1040000D02*
Y1045094D01*
Y1014711D02*
Y1020000D01*
X3374906Y3560000D02*
X3380000D01*
X3400000D02*
X3405289D01*
X3374906Y3660000D02*
X3380000D01*
X3400000D02*
X3405289D01*
X4430000Y3494906D02*
Y3500000D01*
Y3520000D02*
Y3525289D01*
X4274906Y3560000D02*
X4280000D01*
X4300000D02*
X4305289D01*
X4274906Y3760000D02*
X4280000D01*
X4300000D02*
X4305289D01*
X4274906Y3660000D02*
X4280000D01*
X4300000D02*
X4305289D01*
X3374906Y3430000D02*
X3380000D01*
X3400000D02*
X3405289D01*
X6174906Y1470000D02*
X6180000D01*
X6200000D02*
X6205289D01*
X6174906Y2340000D02*
X6180000D01*
X6200000D02*
X6205288D01*
X7910000Y2410000D02*
Y2415094D01*
Y2384711D02*
Y2390000D01*
X7920000Y4400000D02*
Y4405094D01*
Y4374711D02*
Y4380000D01*
X3460000Y3330000D02*
X3465094D01*
X3434711D02*
X3440000D01*
X3460000Y3230000D02*
X3465094D01*
X3434711D02*
X3440000D01*
X4354906Y3190000D02*
X4360000D01*
X4380000D02*
X4385289D01*
X4354906Y3290000D02*
X4360000D01*
X4380000D02*
X4385289D01*
X3200000Y3050000D02*
Y3055094D01*
Y3024711D02*
Y3030000D01*
Y3224906D02*
Y3230000D01*
Y3250000D02*
Y3255289D01*
X3460000Y2960000D02*
X3465094D01*
X3434711D02*
X3440000D01*
X2814906Y3490000D02*
X2820000D01*
X2840000D02*
X2845289D01*
X6164906Y3090000D02*
X6170000D01*
X6190000D02*
X6195289D01*
X6164906Y3190000D02*
X6170000D01*
X6190000D02*
X6195289D01*
X7614906Y3830000D02*
X7620000D01*
X7640000D02*
X7645289D01*
X6540000Y1430000D02*
Y1435094D01*
Y1404711D02*
Y1410000D01*
X6540000Y2300000D02*
Y2305094D01*
Y2274711D02*
Y2280000D01*
X7910000Y2904906D02*
Y2910000D01*
Y2930000D02*
Y2935289D01*
X3970000Y970000D02*
X3975094D01*
X3944711D02*
X3950000D01*
X3650000Y1800000D02*
Y1805094D01*
Y1774711D02*
Y1780000D01*
X3530000Y1800000D02*
Y1805094D01*
Y1774711D02*
Y1780000D01*
X3920000Y1360000D02*
X3925094D01*
X3894711D02*
X3900000D01*
X3280000Y1430000D02*
Y1435094D01*
Y1404711D02*
Y1410000D01*
X4190000Y1354906D02*
Y1360000D01*
Y1380000D02*
Y1385288D01*
X3314906Y1160000D02*
X3320000D01*
X3340000D02*
X3345288D01*
X3340000Y1260000D02*
X3345093D01*
X3314711D02*
X3320000D01*
X5374906Y2190000D02*
X5380000D01*
X5400000D02*
X5405289D01*
X4354906Y2820000D02*
X4360000D01*
X4380000D02*
X4385289D01*
X4940000Y3264906D02*
Y3270000D01*
Y3290000D02*
Y3295289D01*
X7160000Y1604906D02*
Y1610000D01*
Y1630000D02*
Y1635289D01*
Y1214906D02*
Y1220000D01*
Y1240000D02*
Y1245289D01*
X7120000Y2334906D02*
Y2340000D01*
Y2360000D02*
Y2365289D01*
X7150000Y1964906D02*
Y1970000D01*
Y1990000D02*
Y1995289D01*
X7140000Y2724906D02*
Y2730000D01*
Y2750000D02*
Y2755289D01*
X7624906Y4120000D02*
X7630000D01*
X7650000D02*
X7655289D01*
X7160000Y3104906D02*
Y3110000D01*
Y3130000D02*
Y3135289D01*
X6850000Y710000D02*
X6855094D01*
X6824711D02*
X6830000D01*
X7544906Y3310000D02*
X7550000D01*
X7570000D02*
X7575289D01*
X6174906Y2240000D02*
X6180000D01*
X6200000D02*
X6205288D01*
X6174906Y1370000D02*
X6180000D01*
X6200000D02*
X6205289D01*
X6340000Y1404906D02*
Y1410000D01*
Y1430000D02*
Y1435289D01*
X6340000Y2274906D02*
Y2280000D01*
Y2300000D02*
Y2305289D01*
X5924906Y2740000D02*
X5930000D01*
X5950000D02*
X5955289D01*
X5924906Y2840000D02*
X5930000D01*
X5950000D02*
X5955289D01*
X4950000Y2814906D02*
Y2820000D01*
Y2840000D02*
Y2845289D01*
X5050000Y2814906D02*
Y2820000D01*
Y2840000D02*
Y2845289D01*
X5924906Y3080000D02*
X5930000D01*
X5950000D02*
X5955289D01*
X5950000Y4000000D02*
Y4005094D01*
Y3974711D02*
Y3980000D01*
X5310000Y3770000D02*
Y3775094D01*
Y3744711D02*
Y3750000D01*
X5410000Y3770000D02*
Y3775094D01*
Y3744711D02*
Y3750000D01*
X5220000Y3670000D02*
Y3675093D01*
Y3644711D02*
Y3650000D01*
X5130000Y3644906D02*
Y3650000D01*
Y3670000D02*
Y3675289D01*
X5030000Y3670000D02*
Y3675094D01*
Y3644711D02*
Y3650000D01*
X5034906Y3510000D02*
X5040000D01*
X5060000D02*
X5065289D01*
X5250000Y4020000D02*
Y4025094D01*
Y3994711D02*
Y4000000D01*
D127*
X8330000Y4730000D02*
Y4829967D01*
X8379984Y4879951D01*
X8429967Y4829967D01*
Y4730000D01*
Y4804976D01*
X8330000D01*
Y729951D02*
Y580000D01*
X8404976D01*
X8429967Y604992D01*
Y629984D01*
X8404976Y654976D01*
X8330000D01*
X8404976D01*
X8429967Y679967D01*
Y704959D01*
X8404976Y729951D01*
X8330000D01*
%TF.MD5,2944a8d73a958511a3bf9bc5e9b3b654*%
M02*
