%TF.GenerationSoftware,Altium Limited,Altium Designer,21.9.2 (33)*%
G04 Layer_Color=128*
%FSLAX45Y45*%
%MOMM*%
%TF.SameCoordinates,7777544D-92F5-45BF-99EE-D781317D7DBF*%
%TF.FilePolarity,Positive*%
%TF.FileFunction,Drillmap*%
%TF.Part,Single*%
G01*
G75*
%TA.AperFunction,NonConductor*%
%ADD244C,0.12700*%
D244*
X8073000Y2349500D02*
X8183000D01*
X8128000Y2294500D02*
Y2404500D01*
X8073000Y2095500D02*
X8183000D01*
X8128000Y2040500D02*
Y2150500D01*
X8073000Y1841500D02*
X8183000D01*
X8128000Y1786500D02*
Y1896500D01*
X8073000Y1587500D02*
X8183000D01*
X8128000Y1532500D02*
Y1642500D01*
X8073000Y1333500D02*
X8183000D01*
X8128000Y1278500D02*
Y1388500D01*
X8073000Y1079500D02*
X8183000D01*
X8128000Y1024500D02*
Y1134500D01*
X8073000Y825500D02*
X8183000D01*
X8128000Y770500D02*
Y880500D01*
X8327000Y2349500D02*
X8437000D01*
X8382000Y2294500D02*
Y2404500D01*
X8327000Y2095500D02*
X8437000D01*
X8382000Y2040500D02*
Y2150500D01*
X8327000Y1841500D02*
X8437000D01*
X8382000Y1786500D02*
Y1896500D01*
X8327000Y1587500D02*
X8437000D01*
X8382000Y1532500D02*
Y1642500D01*
X8327000Y1333500D02*
X8437000D01*
X8382000Y1278500D02*
Y1388500D01*
X8327000Y1079500D02*
X8437000D01*
X8382000Y1024500D02*
Y1134500D01*
X8327000Y825500D02*
X8437000D01*
X8382000Y770500D02*
Y880500D01*
X8073000Y571500D02*
X8183000D01*
X8128000Y516500D02*
Y626500D01*
X8073000Y317500D02*
X8183000D01*
X8128000Y262500D02*
Y372500D01*
X8327000Y571500D02*
X8437000D01*
X8382000Y516500D02*
Y626500D01*
X8327000Y317500D02*
X8437000D01*
X8382000Y262500D02*
Y372500D01*
X8073000Y5143500D02*
X8183000D01*
X8128000Y5088500D02*
Y5198500D01*
X8073000Y4889500D02*
X8183000D01*
X8128000Y4834500D02*
Y4944500D01*
X8073000Y4635500D02*
X8183000D01*
X8128000Y4580500D02*
Y4690500D01*
X8073000Y4381500D02*
X8183000D01*
X8128000Y4326500D02*
Y4436500D01*
X8073000Y4127500D02*
X8183000D01*
X8128000Y4072500D02*
Y4182500D01*
X8073000Y3873500D02*
X8183000D01*
X8128000Y3818500D02*
Y3928500D01*
X8073000Y3619500D02*
X8183000D01*
X8128000Y3564500D02*
Y3674500D01*
X8327000Y5143500D02*
X8437000D01*
X8382000Y5088500D02*
Y5198500D01*
X8327000Y4889500D02*
X8437000D01*
X8382000Y4834500D02*
Y4944500D01*
X8327000Y4635500D02*
X8437000D01*
X8382000Y4580500D02*
Y4690500D01*
X8327000Y4381500D02*
X8437000D01*
X8382000Y4326500D02*
Y4436500D01*
X8327000Y4127500D02*
X8437000D01*
X8382000Y4072500D02*
Y4182500D01*
X8327000Y3873500D02*
X8437000D01*
X8382000Y3818500D02*
Y3928500D01*
X8327000Y3619500D02*
X8437000D01*
X8382000Y3564500D02*
Y3674500D01*
X8073000Y3365500D02*
X8183000D01*
X8128000Y3310500D02*
Y3420500D01*
X8073000Y3111500D02*
X8183000D01*
X8128000Y3056500D02*
Y3166500D01*
X8327000Y3365500D02*
X8437000D01*
X8382000Y3310500D02*
Y3420500D01*
X8327000Y3111500D02*
X8437000D01*
X8382000Y3056500D02*
Y3166500D01*
X7565000Y444500D02*
X7675000D01*
X7620000Y389500D02*
Y499500D01*
X7311000Y444500D02*
X7421000D01*
X7366000Y389500D02*
Y499500D01*
X7057000Y444500D02*
X7167000D01*
X7112000Y389500D02*
Y499500D01*
X6803000Y444500D02*
X6913000D01*
X6858000Y389500D02*
Y499500D01*
X6549000Y444500D02*
X6659000D01*
X6604000Y389500D02*
Y499500D01*
X6295000Y444500D02*
X6405000D01*
X6350000Y389500D02*
Y499500D01*
X6041000Y444500D02*
X6151000D01*
X6096000Y389500D02*
Y499500D01*
X5787000Y444500D02*
X5897000D01*
X5842000Y389500D02*
Y499500D01*
X5533000Y444500D02*
X5643000D01*
X5588000Y389500D02*
Y499500D01*
X5279000Y444500D02*
X5389000D01*
X5334000Y389500D02*
Y499500D01*
X5025000Y444500D02*
X5135000D01*
X5080000Y389500D02*
Y499500D01*
X4771000Y444500D02*
X4881000D01*
X4826000Y389500D02*
Y499500D01*
X4517000Y444500D02*
X4627000D01*
X4572000Y389500D02*
Y499500D01*
X4263000Y444500D02*
X4373000D01*
X4318000Y389500D02*
Y499500D01*
X4009000Y444500D02*
X4119000D01*
X4064000Y389500D02*
Y499500D01*
X3755000Y444500D02*
X3865000D01*
X3810000Y389500D02*
Y499500D01*
X3501000Y444500D02*
X3611000D01*
X3556000Y389500D02*
Y499500D01*
X3247000Y444500D02*
X3357000D01*
X3302000Y389500D02*
Y499500D01*
X2993000Y444500D02*
X3103000D01*
X3048000Y389500D02*
Y499500D01*
X2739000Y444500D02*
X2849000D01*
X2794000Y389500D02*
Y499500D01*
X2485000Y444500D02*
X2595000D01*
X2540000Y389500D02*
Y499500D01*
X2231000Y444500D02*
X2341000D01*
X2286000Y389500D02*
Y499500D01*
X1977000Y444500D02*
X2087000D01*
X2032000Y389500D02*
Y499500D01*
X7565000Y190500D02*
X7675000D01*
X7620000Y135500D02*
Y245500D01*
X7311000Y190500D02*
X7421000D01*
X7366000Y135500D02*
Y245500D01*
X7057000Y190500D02*
X7167000D01*
X7112000Y135500D02*
Y245500D01*
X6803000Y190500D02*
X6913000D01*
X6858000Y135500D02*
Y245500D01*
X6549000Y190500D02*
X6659000D01*
X6604000Y135500D02*
Y245500D01*
X6295000Y190500D02*
X6405000D01*
X6350000Y135500D02*
Y245500D01*
X6041000Y190500D02*
X6151000D01*
X6096000Y135500D02*
Y245500D01*
X5787000Y190500D02*
X5897000D01*
X5842000Y135500D02*
Y245500D01*
X5533000Y190500D02*
X5643000D01*
X5588000Y135500D02*
Y245500D01*
X5279000Y190500D02*
X5389000D01*
X5334000Y135500D02*
Y245500D01*
X5025000Y190500D02*
X5135000D01*
X5080000Y135500D02*
Y245500D01*
X4771000Y190500D02*
X4881000D01*
X4826000Y135500D02*
Y245500D01*
X4517000Y190500D02*
X4627000D01*
X4572000Y135500D02*
Y245500D01*
X4263000Y190500D02*
X4373000D01*
X4318000Y135500D02*
Y245500D01*
X4009000Y190500D02*
X4119000D01*
X4064000Y135500D02*
Y245500D01*
X3755000Y190500D02*
X3865000D01*
X3810000Y135500D02*
Y245500D01*
X3501000Y190500D02*
X3611000D01*
X3556000Y135500D02*
Y245500D01*
X3247000Y190500D02*
X3357000D01*
X3302000Y135500D02*
Y245500D01*
X2993000Y190500D02*
X3103000D01*
X3048000Y135500D02*
Y245500D01*
X2739000Y190500D02*
X2849000D01*
X2794000Y135500D02*
Y245500D01*
X2485000Y190500D02*
X2595000D01*
X2540000Y135500D02*
Y245500D01*
X2231000Y190500D02*
X2341000D01*
X2286000Y135500D02*
Y245500D01*
X1977000Y190500D02*
X2087000D01*
X2032000Y135500D02*
Y245500D01*
X7565000Y5270500D02*
X7675000D01*
X7620000Y5215500D02*
Y5325500D01*
X7311000Y5270500D02*
X7421000D01*
X7366000Y5215500D02*
Y5325500D01*
X7057000Y5270500D02*
X7167000D01*
X7112000Y5215500D02*
Y5325500D01*
X6803000Y5270500D02*
X6913000D01*
X6858000Y5215500D02*
Y5325500D01*
X6549000Y5270500D02*
X6659000D01*
X6604000Y5215500D02*
Y5325500D01*
X6295000Y5270500D02*
X6405000D01*
X6350000Y5215500D02*
Y5325500D01*
X6041000Y5270500D02*
X6151000D01*
X6096000Y5215500D02*
Y5325500D01*
X5787000Y5270500D02*
X5897000D01*
X5842000Y5215500D02*
Y5325500D01*
X5533000Y5270500D02*
X5643000D01*
X5588000Y5215500D02*
Y5325500D01*
X5279000Y5270500D02*
X5389000D01*
X5334000Y5215500D02*
Y5325500D01*
X5025000Y5270500D02*
X5135000D01*
X5080000Y5215500D02*
Y5325500D01*
X4771000Y5270500D02*
X4881000D01*
X4826000Y5215500D02*
Y5325500D01*
X4517000Y5270500D02*
X4627000D01*
X4572000Y5215500D02*
Y5325500D01*
X4263000Y5270500D02*
X4373000D01*
X4318000Y5215500D02*
Y5325500D01*
X4009000Y5270500D02*
X4119000D01*
X4064000Y5215500D02*
Y5325500D01*
X3755000Y5270500D02*
X3865000D01*
X3810000Y5215500D02*
Y5325500D01*
X3501000Y5270500D02*
X3611000D01*
X3556000Y5215500D02*
Y5325500D01*
X3247000Y5270500D02*
X3357000D01*
X3302000Y5215500D02*
Y5325500D01*
X2993000Y5270500D02*
X3103000D01*
X3048000Y5215500D02*
Y5325500D01*
X2739000Y5270500D02*
X2849000D01*
X2794000Y5215500D02*
Y5325500D01*
X2485000Y5270500D02*
X2595000D01*
X2540000Y5215500D02*
Y5325500D01*
X2231000Y5270500D02*
X2341000D01*
X2286000Y5215500D02*
Y5325500D01*
X1977000Y5270500D02*
X2087000D01*
X2032000Y5215500D02*
Y5325500D01*
X7565000Y5016500D02*
X7675000D01*
X7620000Y4961500D02*
Y5071500D01*
X7311000Y5016500D02*
X7421000D01*
X7366000Y4961500D02*
Y5071500D01*
X7057000Y5016500D02*
X7167000D01*
X7112000Y4961500D02*
Y5071500D01*
X6803000Y5016500D02*
X6913000D01*
X6858000Y4961500D02*
Y5071500D01*
X6549000Y5016500D02*
X6659000D01*
X6604000Y4961500D02*
Y5071500D01*
X6295000Y5016500D02*
X6405000D01*
X6350000Y4961500D02*
Y5071500D01*
X6041000Y5016500D02*
X6151000D01*
X6096000Y4961500D02*
Y5071500D01*
X5787000Y5016500D02*
X5897000D01*
X5842000Y4961500D02*
Y5071500D01*
X5533000Y5016500D02*
X5643000D01*
X5588000Y4961500D02*
Y5071500D01*
X5279000Y5016500D02*
X5389000D01*
X5334000Y4961500D02*
Y5071500D01*
X5025000Y5016500D02*
X5135000D01*
X5080000Y4961500D02*
Y5071500D01*
X4771000Y5016500D02*
X4881000D01*
X4826000Y4961500D02*
Y5071500D01*
X4517000Y5016500D02*
X4627000D01*
X4572000Y4961500D02*
Y5071500D01*
X4263000Y5016500D02*
X4373000D01*
X4318000Y4961500D02*
Y5071500D01*
X4009000Y5016500D02*
X4119000D01*
X4064000Y4961500D02*
Y5071500D01*
X3755000Y5016500D02*
X3865000D01*
X3810000Y4961500D02*
Y5071500D01*
X3501000Y5016500D02*
X3611000D01*
X3556000Y4961500D02*
Y5071500D01*
X3247000Y5016500D02*
X3357000D01*
X3302000Y4961500D02*
Y5071500D01*
X2993000Y5016500D02*
X3103000D01*
X3048000Y4961500D02*
Y5071500D01*
X2739000Y5016500D02*
X2849000D01*
X2794000Y4961500D02*
Y5071500D01*
X2485000Y5016500D02*
X2595000D01*
X2540000Y4961500D02*
Y5071500D01*
X2231000Y5016500D02*
X2341000D01*
X2286000Y4961500D02*
Y5071500D01*
X1977000Y5016500D02*
X2087000D01*
X2032000Y4961500D02*
Y5071500D01*
X1977000Y4512400D02*
X2087000D01*
X2032000Y4457400D02*
Y4567400D01*
X2231000Y4512400D02*
X2341000D01*
X2286000Y4457400D02*
Y4567400D01*
X1977000Y4258400D02*
X2087000D01*
X2032000Y4203400D02*
Y4313400D01*
X2231000Y4258400D02*
X2341000D01*
X2286000Y4203400D02*
Y4313400D01*
X1300500Y5143500D02*
X1620500D01*
X1460500Y4983500D02*
Y5303500D01*
X1420000Y345000D02*
X1540000D01*
X1480000Y285000D02*
Y405000D01*
X1420000Y695000D02*
X1540000D01*
X1480000Y635000D02*
Y755000D01*
X7907500Y1310000D02*
X7932500D01*
X7920000Y1297500D02*
Y1322500D01*
X6607436Y2469793D02*
X6632436D01*
X6619936Y2457293D02*
Y2482292D01*
X7150609Y1476362D02*
X7175609D01*
X7163109Y1463862D02*
Y1488862D01*
X7195238Y1581508D02*
X7220237D01*
X7207737Y1569008D02*
Y1594007D01*
X7161251Y1400898D02*
X7186251D01*
X7173751Y1388398D02*
Y1413397D01*
X6607500Y4210000D02*
X6632500D01*
X6620000Y4197500D02*
Y4222500D01*
X7377500Y2770000D02*
X7402500D01*
X7390000Y2757500D02*
Y2782500D01*
X6745977Y3132500D02*
X6770977D01*
X6758477Y3120000D02*
Y3145000D01*
X4165318Y3512327D02*
X4190317D01*
X4177817Y3499827D02*
Y3524827D01*
X6247500Y1110000D02*
X6272500D01*
X6260000Y1097500D02*
Y1122500D01*
X5767500Y4720764D02*
X5792500D01*
X5780000Y4708265D02*
Y4733264D01*
X3927500Y4200000D02*
X3952500D01*
X3940000Y4187500D02*
Y4212500D01*
X3927500Y3890000D02*
X3952500D01*
X3940000Y3877500D02*
Y3902500D01*
X3937500Y3270000D02*
X3962500D01*
X3950000Y3257500D02*
Y3282500D01*
X3939639Y2870563D02*
X3964639D01*
X3952139Y2858063D02*
Y2883063D01*
X5452589Y3146265D02*
X5477589D01*
X5465089Y3133765D02*
Y3158765D01*
X5977500Y3320000D02*
X6002500D01*
X5990000Y3307500D02*
Y3332500D01*
X6227500Y3580000D02*
X6252500D01*
X6240000Y3567500D02*
Y3592500D01*
X7147500Y2910000D02*
X7172500D01*
X7160000Y2897500D02*
Y2922500D01*
X3877500Y2120000D02*
X3902500D01*
X3890000Y2107500D02*
Y2132500D01*
X5613954Y1732447D02*
X5638954D01*
X5626454Y1719947D02*
Y1744947D01*
X3627500Y1900000D02*
X3652500D01*
X3640000Y1887500D02*
Y1912500D01*
X4051816Y1439665D02*
X4076815D01*
X4064315Y1427165D02*
Y1452165D01*
X1847500Y690000D02*
X1872500D01*
X1860000Y677500D02*
Y702500D01*
X3290872Y984531D02*
X3315871D01*
X3303372Y972031D02*
Y997031D01*
X3737500Y850000D02*
X3762500D01*
X3750000Y837500D02*
Y862500D01*
X4227500Y880000D02*
X4252500D01*
X4240000Y867500D02*
Y892500D01*
X6031459Y1405486D02*
X6056458D01*
X6043958Y1392986D02*
Y1417985D01*
X6507500Y2130000D02*
X6532500D01*
X6520000Y2117500D02*
Y2142500D01*
X6036730Y1911878D02*
X6061729D01*
X6049229Y1899378D02*
Y1924378D01*
X6107500Y1680000D02*
X6132500D01*
X6120000Y1667500D02*
Y1692500D01*
X5967500Y730000D02*
X5992500D01*
X5980000Y717500D02*
Y742500D01*
X6297500Y1030000D02*
X6322500D01*
X6310000Y1017500D02*
Y1042500D01*
X6477500Y1130000D02*
X6502500D01*
X6490000Y1117500D02*
Y1142500D01*
X7737500Y820000D02*
X7762500D01*
X7750000Y807500D02*
Y832500D01*
X7487500Y1810000D02*
X7512500D01*
X7500000Y1797500D02*
Y1822500D01*
X6157500Y2490000D02*
X6182500D01*
X6170000Y2477500D02*
Y2502500D01*
X5967500Y2200000D02*
X5992500D01*
X5980000Y2187500D02*
Y2212500D01*
X6367500Y3030000D02*
X6392500D01*
X6380000Y3017500D02*
Y3042500D01*
X7362015Y3795271D02*
X7387015D01*
X7374515Y3782771D02*
Y3807771D01*
X8477500Y2580000D02*
X8502500D01*
X8490000Y2567500D02*
Y2592500D01*
X7077500Y3510000D02*
X7102500D01*
X7090000Y3497500D02*
Y3522500D01*
X7487500Y3440000D02*
X7512500D01*
X7500000Y3427500D02*
Y3452500D01*
X6933354Y4187091D02*
X6958354D01*
X6945854Y4174591D02*
Y4199591D01*
X7687500Y4830000D02*
X7712500D01*
X7700000Y4817500D02*
Y4842500D01*
X6266213Y4576547D02*
X6291213D01*
X6278713Y4564047D02*
Y4589046D01*
X4867500Y4830000D02*
X4892500D01*
X4880000Y4817500D02*
Y4842500D01*
X1187500Y4080000D02*
X1212500D01*
X1200000Y4067500D02*
Y4092500D01*
X2847500Y4820000D02*
X2872500D01*
X2860000Y4807500D02*
Y4832500D01*
X5347500Y4550000D02*
X5372500D01*
X5360000Y4537500D02*
Y4562500D01*
X4717500Y4820000D02*
X4742500D01*
X4730000Y4807500D02*
Y4832500D01*
X3467500Y4570000D02*
X3492500D01*
X3480000Y4557500D02*
Y4582500D01*
X4127500Y770000D02*
X4152500D01*
X4140000Y757500D02*
Y782500D01*
X4077500Y952501D02*
X4102500D01*
X4090000Y940001D02*
Y965000D01*
X7807562Y1664308D02*
X7832562D01*
X7820062Y1651808D02*
Y1676808D01*
X5807500Y4180000D02*
X5832500D01*
X5820000Y4167500D02*
Y4192500D01*
X5907500Y4240000D02*
X5932500D01*
X5920000Y4227500D02*
Y4252500D01*
X4814998Y4212502D02*
X4839998D01*
X4827498Y4200002D02*
Y4225002D01*
X7927500Y900000D02*
X7952500D01*
X7940000Y887500D02*
Y912500D01*
X7677500Y1730000D02*
X7702500D01*
X7690000Y1717500D02*
Y1742500D01*
X7027444Y3238075D02*
X7052443D01*
X7039944Y3225575D02*
Y3250575D01*
X3867500Y2460000D02*
X3892500D01*
X3880000Y2447500D02*
Y2472500D01*
X4007500Y2460000D02*
X4032500D01*
X4020000Y2447500D02*
Y2472500D01*
X6407500Y1190000D02*
X6432500D01*
X6420000Y1177500D02*
Y1202500D01*
X4498159Y1000658D02*
X4523158D01*
X4510658Y988159D02*
Y1013158D01*
X4247500Y1970000D02*
X4272500D01*
X4260000Y1957500D02*
Y1982500D01*
X7467500Y3210000D02*
X7492500D01*
X7480000Y3197500D02*
Y3222500D01*
X7425233Y3144823D02*
X7450232D01*
X7437733Y3132323D02*
Y3157323D01*
X7387504Y3080004D02*
X7412504D01*
X7400004Y3067504D02*
Y3092504D01*
X7897500Y4900000D02*
X7922500D01*
X7910000Y4887500D02*
Y4912500D01*
X7157500Y4290000D02*
X7182500D01*
X7170000Y4277500D02*
Y4302500D01*
X1608000Y5283500D02*
X1633000D01*
X1620500Y5271000D02*
Y5296000D01*
X1608000Y5003500D02*
X1633000D01*
X1620500Y4991000D02*
Y5016000D01*
X1288000Y5003500D02*
X1313000D01*
X1300500Y4991000D02*
Y5016000D01*
X1288000Y5283500D02*
X1313000D01*
X1300500Y5271000D02*
Y5296000D01*
X6817500Y1140000D02*
X6842500D01*
X6830000Y1127500D02*
Y1152500D01*
X6731300Y967390D02*
X6756300D01*
X6743800Y954891D02*
Y979890D01*
X6901332Y1126814D02*
X6926331D01*
X6913831Y1114315D02*
Y1139314D01*
X7900000Y3760182D02*
X7925000D01*
X7912500Y3747682D02*
Y3772682D01*
X8247500Y4250000D02*
X8272500D01*
X8260000Y4237500D02*
Y4262500D01*
X7678819Y4259599D02*
X7703818D01*
X7691319Y4247099D02*
Y4272099D01*
X7759955Y4541138D02*
X7784955D01*
X7772455Y4528638D02*
Y4553638D01*
X7707500Y4730000D02*
X7732500D01*
X7720000Y4717500D02*
Y4742500D01*
X6507500Y800000D02*
X6532500D01*
X6520000Y787500D02*
Y812500D01*
X6857078Y930441D02*
X6882078D01*
X6869578Y917941D02*
Y942940D01*
X6745017Y2979934D02*
X6770017D01*
X6757517Y2967434D02*
Y2992433D01*
X6817500Y2940000D02*
X6842500D01*
X6830000Y2927500D02*
Y2952500D01*
X6914444Y2946987D02*
X6939444D01*
X6926944Y2934487D02*
Y2959487D01*
X6879967Y2880382D02*
X6904967D01*
X6892467Y2867882D02*
Y2892882D01*
X6803710Y1722534D02*
X6828710D01*
X6816210Y1710034D02*
Y1735033D01*
X6689217Y1654212D02*
X6714217D01*
X6701717Y1641712D02*
Y1666711D01*
X6908657Y1636737D02*
X6933657D01*
X6921157Y1624238D02*
Y1649237D01*
X6509184Y1431004D02*
X6534184D01*
X6521684Y1418504D02*
Y1443504D01*
X6235377Y1192123D02*
X6260377D01*
X6247877Y1179623D02*
Y1204623D01*
X6177500Y1330000D02*
X6202500D01*
X6190000Y1317500D02*
Y1342500D01*
X7264217Y3254924D02*
X7289217D01*
X7276717Y3242425D02*
Y3267424D01*
X7007884Y3452499D02*
X7032884D01*
X7020384Y3439999D02*
Y3464998D01*
X8288541Y2657970D02*
X8313540D01*
X8301041Y2645470D02*
Y2670470D01*
X8178004Y2548612D02*
X8203004D01*
X8190504Y2536112D02*
Y2561112D01*
X7277500Y3760000D02*
X7302500D01*
X7290000Y3747500D02*
Y3772500D01*
X7278003Y3890503D02*
X7303002D01*
X7290503Y3878003D02*
Y3903003D01*
X7124175Y3909711D02*
X7149175D01*
X7136675Y3897211D02*
Y3922211D01*
X7351997Y4014497D02*
X7376997D01*
X7364497Y4001998D02*
Y4026997D01*
X7115407Y3714183D02*
X7140407D01*
X7127907Y3701683D02*
Y3726683D01*
X7171636Y4430000D02*
X7196635D01*
X7184135Y4417500D02*
Y4442500D01*
X7422717Y2540000D02*
X7447716D01*
X7435217Y2527500D02*
Y2552500D01*
X7387504Y2467263D02*
X7412504D01*
X7400004Y2454763D02*
Y2479763D01*
X7425817Y2399991D02*
X7450817D01*
X7438317Y2387492D02*
Y2412491D01*
X7817500Y5080000D02*
X7842500D01*
X7830000Y5067500D02*
Y5092500D01*
X6447500Y3600000D02*
X6472500D01*
X6460000Y3587500D02*
Y3612500D01*
X6762500Y2670000D02*
X6787500D01*
X6775000Y2657500D02*
Y2682500D01*
X6683905Y2533105D02*
X6708905D01*
X6696405Y2520605D02*
Y2545605D01*
X6786733Y4547500D02*
X6811733D01*
X6799233Y4535000D02*
Y4560000D01*
X6987500Y4617500D02*
X7012500D01*
X7000000Y4605000D02*
Y4630000D01*
X7018208Y4757037D02*
X7043208D01*
X7030708Y4744538D02*
Y4769537D01*
X6667500Y4657500D02*
X6692500D01*
X6680000Y4645000D02*
Y4670000D01*
X7469243Y4650021D02*
X7494243D01*
X7481743Y4637521D02*
Y4662521D01*
X7327500Y4180000D02*
X7352500D01*
X7340000Y4167500D02*
Y4192500D01*
X7878168Y3972969D02*
X7903167D01*
X7890667Y3960469D02*
Y3985469D01*
X7672466Y3077937D02*
X7697465D01*
X7684966Y3065437D02*
Y3090437D01*
X7564234Y2973305D02*
X7589234D01*
X7576734Y2960805D02*
Y2985805D01*
X4607500Y3370000D02*
X4632500D01*
X4620000Y3357500D02*
Y3382500D01*
X7425078Y3013266D02*
X7450078D01*
X7437578Y3000766D02*
Y3025766D01*
X7367088Y3200479D02*
X7392087D01*
X7379587Y3187979D02*
Y3212979D01*
X7347500Y4780000D02*
X7372500D01*
X7360000Y4767500D02*
Y4792500D01*
X7164986Y4714545D02*
X7189986D01*
X7177486Y4702045D02*
Y4727045D01*
X7397500Y1467039D02*
X7422500D01*
X7410000Y1454539D02*
Y1479539D01*
X7254118Y1519539D02*
X7279118D01*
X7266618Y1507039D02*
Y1532039D01*
X7257500Y1642497D02*
X7282500D01*
X7270000Y1629997D02*
Y1654996D01*
X7027500Y4390000D02*
X7052500D01*
X7040000Y4377500D02*
Y4402500D01*
X7627500Y1160000D02*
X7652500D01*
X7640000Y1147500D02*
Y1172500D01*
X6917199Y1899612D02*
X6942198D01*
X6929698Y1887112D02*
Y1912112D01*
X7037500Y1700000D02*
X7062500D01*
X7050000Y1687500D02*
Y1712500D01*
X7147500Y2050000D02*
X7172500D01*
X7160000Y2037500D02*
Y2062500D01*
X7149234Y2360373D02*
X7174234D01*
X7161734Y2347873D02*
Y2372873D01*
X7422717Y2831292D02*
X7447716D01*
X7435217Y2818792D02*
Y2843792D01*
X7422717Y2709013D02*
X7447716D01*
X7435217Y2696513D02*
Y2721513D01*
X7651892Y2770005D02*
X7676891D01*
X7664392Y2757505D02*
Y2782504D01*
X7337500Y720000D02*
X7362500D01*
X7350000Y707500D02*
Y732500D01*
X7402638Y1173188D02*
X7427638D01*
X7415138Y1160688D02*
Y1185687D01*
X7018004Y1381385D02*
X7043003D01*
X7030504Y1368885D02*
Y1393885D01*
X6507500Y910000D02*
X6532500D01*
X6520000Y897500D02*
Y922500D01*
X6627620Y676869D02*
X6652620D01*
X6640120Y664369D02*
Y689369D01*
X6732539Y717180D02*
X6757538D01*
X6745039Y704680D02*
Y729680D01*
X7137500Y670000D02*
X7162500D01*
X7150000Y657500D02*
Y682500D01*
X7137500Y880000D02*
X7162500D01*
X7150000Y867500D02*
Y892500D01*
X2367500Y1120000D02*
X2392500D01*
X2380000Y1107500D02*
Y1132500D01*
X4140910Y4394019D02*
X4165910D01*
X4153410Y4381519D02*
Y4406519D01*
X4051787Y4646664D02*
X4076787D01*
X4064287Y4634164D02*
Y4659164D01*
X4067500Y4720000D02*
X4092500D01*
X4080000Y4707500D02*
Y4732500D01*
X7117500Y3794248D02*
X7142500D01*
X7130000Y3781749D02*
Y3806748D01*
X6997500Y3782532D02*
X7022500D01*
X7010000Y3770033D02*
Y3795032D01*
X6717500Y3570000D02*
X6742500D01*
X6730000Y3557500D02*
Y3582500D01*
X6647500Y3960000D02*
X6672500D01*
X6660000Y3947500D02*
Y3972500D01*
X6737500Y3990000D02*
X6762500D01*
X6750000Y3977500D02*
Y4002500D01*
X7547500Y3390000D02*
X7572500D01*
X7560000Y3377500D02*
Y3402500D01*
X6657500Y3380000D02*
X6682500D01*
X6670000Y3367500D02*
Y3392500D01*
X4437500Y4840000D02*
X4462500D01*
X4450000Y4827500D02*
Y4852500D01*
X7377499Y2160464D02*
X7402499D01*
X7389999Y2147964D02*
Y2172963D01*
X7426346Y2100975D02*
X7451346D01*
X7438846Y2088475D02*
Y2113475D01*
X7424012Y2220975D02*
X7449011D01*
X7436511Y2208475D02*
Y2233475D01*
X7667500Y932498D02*
X7692500D01*
X7680000Y919998D02*
Y944998D01*
X8047500Y2920000D02*
X8072500D01*
X8060000Y2907500D02*
Y2932500D01*
X8175500Y2914999D02*
X8200500D01*
X8188000Y2902499D02*
Y2927499D01*
X7277500Y1017500D02*
X7302500D01*
X7290000Y1005000D02*
Y1030000D01*
X6567500Y1120000D02*
X6592500D01*
X6580000Y1107500D02*
Y1132500D01*
X6507500Y662500D02*
X6532500D01*
X6520000Y650000D02*
Y675000D01*
X6347500Y620000D02*
X6372500D01*
X6360000Y607500D02*
Y632500D01*
X6044446Y789165D02*
X6069445D01*
X6056945Y776665D02*
Y801665D01*
X6197500Y792500D02*
X6222500D01*
X6210000Y780000D02*
Y805000D01*
X6167500Y620000D02*
X6192500D01*
X6180000Y607500D02*
Y632500D01*
X6267498Y619999D02*
X6292497D01*
X6279998Y607499D02*
Y632499D01*
X5947298Y2059267D02*
X5972298D01*
X5959798Y2046767D02*
Y2071766D01*
X5537500Y2090000D02*
X5562500D01*
X5550000Y2077500D02*
Y2102500D01*
X5567500Y1820000D02*
X5592500D01*
X5580000Y1807500D02*
Y1832500D01*
X5632500Y2320000D02*
X5657500D01*
X5645000Y2307501D02*
Y2332500D01*
X5077503Y1820001D02*
X5102502D01*
X5090003Y1807502D02*
Y1832501D01*
X5267500Y1840000D02*
X5292500D01*
X5280000Y1827500D02*
Y1852500D01*
X6242500Y1801795D02*
X6267500D01*
X6255000Y1789295D02*
Y1814295D01*
X5835377Y2277877D02*
X5860377D01*
X5847877Y2265377D02*
Y2290377D01*
X7417500Y3390000D02*
X7442500D01*
X7430000Y3377500D02*
Y3402500D01*
X8036755Y2489428D02*
X8061755D01*
X8049255Y2476928D02*
Y2501927D01*
X5067500Y2470000D02*
X5092500D01*
X5080000Y2457500D02*
Y2482500D01*
X4627501Y3013684D02*
X4652501D01*
X4640001Y3001184D02*
Y3026184D01*
X7907500Y1080000D02*
X7932500D01*
X7920000Y1067500D02*
Y1092500D01*
X7555000Y2050000D02*
X7580000D01*
X7567500Y2037500D02*
Y2062500D01*
X7668220Y2161393D02*
X7693219D01*
X7680719Y2148893D02*
Y2173893D01*
X7497500Y1577499D02*
X7522500D01*
X7510000Y1564999D02*
Y1589999D01*
X7517500Y4710000D02*
X7542500D01*
X7530000Y4697500D02*
Y4722500D01*
X6997546Y3870045D02*
X7022545D01*
X7010045Y3857545D02*
Y3882545D01*
X6996927Y3950000D02*
X7021927D01*
X7009427Y3937500D02*
Y3962500D01*
X6892500Y3770000D02*
X6917500D01*
X6905000Y3757500D02*
Y3782500D01*
X6817500Y3770000D02*
X6842500D01*
X6830000Y3757500D02*
Y3782500D01*
X8436640Y2890804D02*
X8461640D01*
X8449140Y2878304D02*
Y2903304D01*
X7497500Y1282500D02*
X7522500D01*
X7510000Y1270000D02*
Y1295000D01*
X6892500Y2680000D02*
X6917500D01*
X6905000Y2667500D02*
Y2692500D01*
X6819514Y3457082D02*
X6844514D01*
X6832014Y3444582D02*
Y3469582D01*
X6447500Y3460000D02*
X6472500D01*
X6460000Y3447500D02*
Y3472500D01*
X6447502Y2839999D02*
X6472502D01*
X6460002Y2827500D02*
Y2852499D01*
X6127500Y2990000D02*
X6152500D01*
X6140000Y2977500D02*
Y3002500D01*
X6487500Y2390000D02*
X6512500D01*
X6500000Y2377500D02*
Y2402500D01*
X7367500Y1970000D02*
X7392500D01*
X7380000Y1957500D02*
Y1982500D01*
X5718057Y1165349D02*
X5743057D01*
X5730557Y1152849D02*
Y1177849D01*
X7147500Y1110000D02*
X7172500D01*
X7160000Y1097500D02*
Y1122500D01*
X6697500Y3260000D02*
X6722500D01*
X6710000Y3247500D02*
Y3272500D01*
X7377500Y4250000D02*
X7402500D01*
X7390000Y4237500D02*
Y4262500D01*
X6727500Y2840694D02*
X6752500D01*
X6740000Y2828194D02*
Y2853194D01*
X6687500Y2230000D02*
X6712500D01*
X6700000Y2217500D02*
Y2242500D01*
X6567500Y1660000D02*
X6592500D01*
X6580000Y1647500D02*
Y1672500D01*
X6689985Y1482858D02*
X6714985D01*
X6702485Y1470358D02*
Y1495358D01*
X7307500Y4680000D02*
X7332500D01*
X7320000Y4667500D02*
Y4692500D01*
X7477500Y4780000D02*
X7502500D01*
X7490000Y4767500D02*
Y4792500D01*
X6609167Y769049D02*
X6634166D01*
X6621666Y756549D02*
Y781549D01*
X7280685Y3039809D02*
X7305685D01*
X7293185Y3027309D02*
Y3052309D01*
X7275273Y2768818D02*
X7300272D01*
X7287773Y2756318D02*
Y2781318D01*
X7282902Y2519304D02*
X7307902D01*
X7295402Y2506804D02*
Y2531804D01*
X7286261Y2159163D02*
X7311260D01*
X7298761Y2146663D02*
Y2171663D01*
X6377500Y980001D02*
X6402499D01*
X6389999Y967501D02*
Y992501D01*
X7312499Y1819514D02*
X7337499D01*
X7324999Y1807014D02*
Y1832014D01*
X6687500Y1890000D02*
X6712500D01*
X6700000Y1877500D02*
Y1902500D01*
X6567500Y1890000D02*
X6592500D01*
X6580000Y1877500D02*
Y1902500D01*
X6893304Y2556414D02*
X6918304D01*
X6905804Y2543914D02*
Y2568914D01*
X6892500Y2223004D02*
X6917500D01*
X6905000Y2210504D02*
Y2235504D01*
X6887500Y1340000D02*
X6912500D01*
X6900000Y1327500D02*
Y1352500D01*
X6958766Y861523D02*
X6983766D01*
X6971266Y849023D02*
Y874023D01*
X7262567Y1340000D02*
X7287566D01*
X7275066Y1327500D02*
Y1352500D01*
X7207500Y1280000D02*
X7232500D01*
X7220000Y1267500D02*
Y1292500D01*
X7263879Y1219998D02*
X7288878D01*
X7276379Y1207498D02*
Y1232497D01*
X7388301Y994051D02*
X7413301D01*
X7400801Y981551D02*
Y1006551D01*
X6117500Y1200000D02*
X6142500D01*
X6130000Y1187500D02*
Y1212500D01*
X6746170Y3834586D02*
X6771170D01*
X6758670Y3822086D02*
Y3847086D01*
X6967500Y4040000D02*
X6992500D01*
X6980000Y4027500D02*
Y4052500D01*
X6607500Y4130000D02*
X6632500D01*
X6620000Y4117500D02*
Y4142500D01*
X6793025Y4232500D02*
X6818025D01*
X6805525Y4220000D02*
Y4245000D01*
X6629271Y4528229D02*
X6654270D01*
X6641771Y4515729D02*
Y4540729D01*
X6663316Y4271571D02*
X6688315D01*
X6675815Y4259071D02*
Y4284071D01*
X6607500Y4710000D02*
X6632500D01*
X6620000Y4697500D02*
Y4722500D01*
X6607500Y4600000D02*
X6632500D01*
X6620000Y4587500D02*
Y4612500D01*
X6567500Y4480000D02*
X6592500D01*
X6580000Y4467500D02*
Y4492500D01*
X6547500Y4400000D02*
X6572500D01*
X6560000Y4387500D02*
Y4412500D01*
X6568107Y4325754D02*
X6593106D01*
X6580607Y4313254D02*
Y4338254D01*
X6607500Y2390000D02*
X6632500D01*
X6620000Y2377500D02*
Y2402500D01*
X6607500Y2150000D02*
X6632500D01*
X6620000Y2137500D02*
Y2162500D01*
X6607500Y2230000D02*
X6632500D01*
X6620000Y2217500D02*
Y2242500D01*
X7024657Y4467089D02*
X7049657D01*
X7037157Y4454589D02*
Y4479589D01*
X7426891Y929389D02*
X7451891D01*
X7439391Y916889D02*
Y941889D01*
X7388007Y865000D02*
X7413006D01*
X7400506Y852500D02*
Y877500D01*
X7147265Y3093321D02*
X7172265D01*
X7159765Y3080821D02*
Y3105821D01*
X7005801Y687703D02*
X7030800D01*
X7018300Y675203D02*
Y700203D01*
X4507500Y650000D02*
X4532500D01*
X4520000Y637500D02*
Y662500D01*
X4907500Y850001D02*
X4932500D01*
X4920000Y837501D02*
Y862501D01*
X4987500Y850001D02*
X5012500D01*
X5000000Y837501D02*
Y862501D01*
X6337500Y4610000D02*
X6362500D01*
X6350000Y4597500D02*
Y4622500D01*
X5720000Y2680000D02*
X5745000D01*
X5732500Y2667500D02*
Y2692500D01*
X7562385Y2673333D02*
X7587385D01*
X7574885Y2660833D02*
Y2685833D01*
X7561461Y2363192D02*
X7586461D01*
X7573961Y2350692D02*
Y2375692D01*
X7567460Y801570D02*
X7592460D01*
X7579960Y789070D02*
Y814069D01*
X7657500Y2470000D02*
X7682500D01*
X7670000Y2457500D02*
Y2482500D01*
X6730223Y2740224D02*
X6755223D01*
X6742723Y2727724D02*
Y2752724D01*
X5987500Y2570002D02*
X6012500D01*
X6000000Y2557503D02*
Y2582502D01*
X5157503Y2899999D02*
X5182502D01*
X5170002Y2887499D02*
Y2912499D01*
X5269932Y2976251D02*
X5294932D01*
X5282432Y2963751D02*
Y2988750D01*
X5195308Y2968752D02*
X5220308D01*
X5207808Y2956252D02*
Y2981252D01*
X5153748Y3033751D02*
X5178748D01*
X5166248Y3021251D02*
Y3046250D01*
X5337500Y3160000D02*
X5362500D01*
X5350000Y3147500D02*
Y3172500D01*
X3627498Y4509999D02*
X3652498D01*
X3639998Y4497499D02*
Y4522498D01*
X5417502Y4609998D02*
X5442502D01*
X5430002Y4597499D02*
Y4622498D01*
X3847503Y790001D02*
X3872502D01*
X3860002Y777501D02*
Y802501D01*
X6107498Y4580001D02*
X6132498D01*
X6119998Y4567501D02*
Y4592501D01*
X6107498Y4500001D02*
X6132498D01*
X6119998Y4487501D02*
Y4512501D01*
X5953610Y4566107D02*
X5978609D01*
X5966109Y4553607D02*
Y4578607D01*
X5857501Y4589998D02*
X5882501D01*
X5870001Y4577499D02*
Y4602498D01*
X5336192Y1082629D02*
X5361191D01*
X5348691Y1070129D02*
Y1095129D01*
X4027502Y1549999D02*
X4052502D01*
X4040002Y1537500D02*
Y1562499D01*
X3997500Y2229998D02*
X4022499D01*
X4010000Y2217498D02*
Y2242498D01*
X1407502Y1340002D02*
X1432502D01*
X1420002Y1327503D02*
Y1352502D01*
X2147501Y1019998D02*
X2172501D01*
X2160001Y1007498D02*
Y1032498D01*
X2797406Y869808D02*
X2822405D01*
X2809905Y857308D02*
Y882308D01*
X1377500Y1640002D02*
X1402500D01*
X1390000Y1627502D02*
Y1652502D01*
X2697502Y950001D02*
X2722502D01*
X2710002Y937501D02*
Y962500D01*
X5207500Y3530001D02*
X5232500D01*
X5220000Y3517501D02*
Y3542500D01*
X5117503Y3820003D02*
X5142502D01*
X5130002Y3807503D02*
Y3832502D01*
X2937502Y3170001D02*
X2962502D01*
X2950002Y3157501D02*
Y3182501D01*
X3727498Y2959999D02*
X3752497D01*
X3739998Y2947499D02*
Y2972499D01*
X5487499Y3770000D02*
X5512499D01*
X5499999Y3757500D02*
Y3782500D01*
X1957499Y1600002D02*
X1982498D01*
X1969999Y1587502D02*
Y1612502D01*
X2737502Y2140001D02*
X2762502D01*
X2750002Y2127501D02*
Y2152501D01*
X3290354Y2413635D02*
X3315353D01*
X3302853Y2401135D02*
Y2426135D01*
X2437498Y739999D02*
X2462497D01*
X2449998Y727499D02*
Y752498D01*
X3160001Y3434999D02*
X3185000D01*
X3172501Y3422500D02*
Y3447499D01*
X2677574Y3494999D02*
X2702573D01*
X2690073Y3482500D02*
Y3507499D01*
X2377498Y2780000D02*
X2402498D01*
X2389998Y2767500D02*
Y2792499D01*
X2491747Y3914247D02*
X2516747D01*
X2504247Y3901747D02*
Y3926747D01*
X3147357Y3625738D02*
X3172356D01*
X3159857Y3613238D02*
Y3638238D01*
X3547498Y3599998D02*
X3572498D01*
X3559998Y3587498D02*
Y3612498D01*
X2687500Y4100002D02*
X2712500D01*
X2700000Y4087502D02*
Y4112502D01*
X4417499Y3750000D02*
X4442499D01*
X4429999Y3737500D02*
Y3762500D01*
X4307502Y2770002D02*
X4332501D01*
X4320002Y2757502D02*
Y2782502D01*
X3527498Y859998D02*
X3552498D01*
X3539998Y847498D02*
Y872498D01*
X2969999Y4369999D02*
X2994998D01*
X2982498Y4357499D02*
Y4382499D01*
X3167499Y4360001D02*
X3192499D01*
X3179999Y4347502D02*
Y4372501D01*
X2457498Y2280001D02*
X2482497D01*
X2469998Y2267501D02*
Y2292500D01*
X2163564Y1458011D02*
X2188564D01*
X2176064Y1445511D02*
Y1470511D01*
X3397501Y779998D02*
X3422501D01*
X3410001Y767499D02*
Y792498D01*
X4704808Y899556D02*
X4729808D01*
X4717308Y887056D02*
Y912056D01*
X4867501Y3239999D02*
X4892500D01*
X4880000Y3227499D02*
Y3252498D01*
X4939987Y5137236D02*
X4964987D01*
X4952487Y5124737D02*
Y5149736D01*
X5697969Y5139578D02*
X5722968D01*
X5710469Y5127078D02*
Y5152078D01*
X5637502Y4609998D02*
X5662501D01*
X5650001Y4597499D02*
Y4622498D01*
X3899735Y4607992D02*
X3924735D01*
X3912235Y4595492D02*
Y4620492D01*
X3769347Y4608104D02*
X3794346D01*
X3781847Y4595604D02*
Y4620603D01*
X5528317Y4609998D02*
X5553317D01*
X5540817Y4597499D02*
Y4622498D01*
X4237494Y3359993D02*
X4262494D01*
X4249994Y3347493D02*
Y3372493D01*
X4467501Y2449998D02*
X4492501D01*
X4480001Y2437498D02*
Y2462497D01*
X5427499Y859998D02*
X5452499D01*
X5439999Y847498D02*
Y872498D01*
X4757498Y3499998D02*
X4782498D01*
X4769998Y3487498D02*
Y3512498D01*
X5317502Y859998D02*
X5342502D01*
X5330002Y847498D02*
Y872498D01*
X4077601Y2928584D02*
X4102601D01*
X4090101Y2916085D02*
Y2941084D01*
X5207500Y859003D02*
X5232500D01*
X5220000Y846503D02*
Y871502D01*
X4547501Y2389998D02*
X4572501D01*
X4560001Y2377498D02*
Y2402498D01*
X4427501Y3970000D02*
X4452501D01*
X4440001Y3957500D02*
Y3982500D01*
X1477500Y1410000D02*
X1502499D01*
X1490000Y1397500D02*
Y1422500D01*
X2112500Y1809039D02*
X2137499D01*
X2125000Y1796539D02*
Y1821539D01*
X4667501Y2680000D02*
X4692501D01*
X4680001Y2667500D02*
Y2692500D01*
X6044633Y2982869D02*
X6069633D01*
X6057133Y2970369D02*
Y2995369D01*
X3088855Y3019999D02*
X3113855D01*
X3101355Y3007499D02*
Y3032499D01*
X4637737Y1021964D02*
X4662737D01*
X4650237Y1009464D02*
Y1034464D01*
X2288075Y2211070D02*
X2313074D01*
X2300575Y2198570D02*
Y2223570D01*
X2231864Y1110305D02*
X2256864D01*
X2244364Y1097805D02*
Y1122805D01*
X2877502Y3010002D02*
X2902502D01*
X2890002Y2997502D02*
Y3022501D01*
X4377499Y1920001D02*
X4402499D01*
X4389999Y1907501D02*
Y1932501D01*
X3586248Y2591252D02*
X3611248D01*
X3598748Y2578752D02*
Y2603752D01*
X4218124Y2590002D02*
X4243124D01*
X4230624Y2577503D02*
Y2602502D01*
X6287503Y2990002D02*
X6312502D01*
X6300003Y2977502D02*
Y3002501D01*
X5607499Y1310000D02*
X5632499D01*
X5619999Y1297500D02*
Y1322500D01*
X3737932Y1306337D02*
X3762932D01*
X3750432Y1293837D02*
Y1318837D01*
X2735002Y1370000D02*
X2805002D01*
X2770002Y1335000D02*
Y1405000D01*
X2787500Y1480002D02*
X2812499D01*
X2799999Y1467502D02*
Y1492502D01*
X3394031Y2222546D02*
X3419031D01*
X3406531Y2210046D02*
Y2235046D01*
X3284710Y2135215D02*
X3309709D01*
X3297210Y2122716D02*
Y2147715D01*
X3322500Y2200001D02*
X3347500D01*
X3335000Y2187501D02*
Y2212501D01*
X5527499Y3699998D02*
X5552499D01*
X5539999Y3687498D02*
Y3712498D01*
X4287502Y3039999D02*
X4312501D01*
X4300002Y3027499D02*
Y3052499D01*
X4447501Y4060002D02*
X4472501D01*
X4460001Y4047502D02*
Y4072502D01*
X4238002Y3461385D02*
X4263002D01*
X4250502Y3448885D02*
Y3473885D01*
X4697488Y3789995D02*
X4722488D01*
X4709988Y3777495D02*
Y3802495D01*
X5757501Y859998D02*
X5782501D01*
X5770001Y847498D02*
Y872498D01*
X4147502Y3930000D02*
X4172502D01*
X4160002Y3917500D02*
Y3942500D01*
X4241096Y2895651D02*
X4266096D01*
X4253596Y2883151D02*
Y2908151D01*
X4803686Y3703818D02*
X4828685D01*
X4816185Y3691318D02*
Y3716318D01*
X4984645Y3165409D02*
X5009645D01*
X4997145Y3152909D02*
Y3177909D01*
X5647499Y859003D02*
X5672499D01*
X5659999Y846503D02*
Y871502D01*
X4079999Y3090001D02*
X4104999D01*
X4092499Y3077502D02*
Y3102501D01*
X4187502Y4120002D02*
X4212502D01*
X4200002Y4107502D02*
Y4132502D01*
X5557502Y859998D02*
X5582501D01*
X5570002Y847498D02*
Y872498D01*
X1387502Y919998D02*
X1412502D01*
X1400002Y907498D02*
Y932498D01*
X1747502Y1199998D02*
X1772501D01*
X1760002Y1187498D02*
Y1212497D01*
X1407502Y1840001D02*
X1432502D01*
X1420002Y1827502D02*
Y1852501D01*
X1807502Y1280003D02*
X1832501D01*
X1820001Y1267503D02*
Y1292502D01*
X1837499Y1820001D02*
X1862499D01*
X1849999Y1807502D02*
Y1832501D01*
X2427500Y619999D02*
X2452500D01*
X2440000Y607499D02*
Y632499D01*
X2657502Y619999D02*
X2682502D01*
X2670002Y607499D02*
Y632499D01*
X3027499Y899998D02*
X3052499D01*
X3039999Y887498D02*
Y912498D01*
X2314998Y1370000D02*
X2384998D01*
X2349998Y1335000D02*
Y1405000D01*
X2417498Y1629999D02*
X2442498D01*
X2429998Y1617499D02*
Y1642499D01*
X2107140Y2050359D02*
X2132140D01*
X2119640Y2037859D02*
Y2062859D01*
X2187501Y2799999D02*
X2212501D01*
X2200001Y2787500D02*
Y2812499D01*
X2187501Y2899999D02*
X2212501D01*
X2200001Y2887499D02*
Y2912499D01*
X2282522Y2747533D02*
X2307522D01*
X2295022Y2735033D02*
Y2760033D01*
X2387500Y2440000D02*
X2412500D01*
X2400000Y2427500D02*
Y2452500D01*
X2387500Y2560000D02*
X2412500D01*
X2400000Y2547500D02*
Y2572500D01*
X2387500Y2680000D02*
X2412500D01*
X2400000Y2667500D02*
Y2692500D01*
X2756842Y2040661D02*
X2781842D01*
X2769342Y2028162D02*
Y2053161D01*
X3057502Y2389998D02*
X3082501D01*
X3070001Y2377498D02*
Y2402498D01*
X2622501Y2429998D02*
X2647501D01*
X2635001Y2417498D02*
Y2442498D01*
X2737502Y2460000D02*
X2762502D01*
X2750002Y2447500D02*
Y2472500D01*
X3117502Y1170000D02*
X3142501D01*
X3130001Y1157500D02*
Y1182500D01*
X3426203Y1660022D02*
X3451203D01*
X3438703Y1647522D02*
Y1672522D01*
X3267499Y1849999D02*
X3292498D01*
X3279999Y1837499D02*
Y1862499D01*
X3537501Y2229998D02*
X3562500D01*
X3550001Y2217498D02*
Y2242498D01*
X3667498Y319999D02*
X3692498D01*
X3679998Y307500D02*
Y332499D01*
X4007457Y920049D02*
X4032456D01*
X4019956Y907549D02*
Y932549D01*
X4067502Y1070000D02*
X4092502D01*
X4080002Y1057501D02*
Y1082500D01*
X4177499Y319999D02*
X4202499D01*
X4189999Y307500D02*
Y332499D01*
X3777500Y1230000D02*
X3802500D01*
X3790000Y1217500D02*
Y1242500D01*
X4047502Y1629999D02*
X4072502D01*
X4060002Y1617499D02*
Y1642499D01*
X3064852Y2569393D02*
X3089852D01*
X3077352Y2556893D02*
Y2581893D01*
X3307499Y2919999D02*
X3332498D01*
X3319998Y2907499D02*
Y2932499D01*
X3547498Y2770002D02*
X3572498D01*
X3559998Y2757502D02*
Y2782502D01*
X4298124Y2309998D02*
X4323124D01*
X4310624Y2297498D02*
Y2322498D01*
X2187501Y3199999D02*
X2212501D01*
X2200001Y3187499D02*
Y3212499D01*
X2187501Y2999999D02*
X2212501D01*
X2200001Y2987499D02*
Y3012499D01*
X2187501Y3099999D02*
X2212501D01*
X2200001Y3087499D02*
Y3112499D01*
X2187501Y3299998D02*
X2212501D01*
X2200001Y3287499D02*
Y3312498D01*
X2187501Y3399998D02*
X2212501D01*
X2200001Y3387498D02*
Y3412498D01*
X2714810Y3290001D02*
X2739810D01*
X2727310Y3277501D02*
Y3302501D01*
X2167501Y3900002D02*
X2192501D01*
X2180001Y3887503D02*
Y3912502D01*
X2187501Y3699998D02*
X2212501D01*
X2200001Y3687498D02*
Y3712498D01*
X2177498Y3800003D02*
X2202498D01*
X2189998Y3787503D02*
Y3812502D01*
X2037499Y4050000D02*
X2062498D01*
X2049998Y4037500D02*
Y4062499D01*
X1937499Y4080002D02*
X1962498D01*
X1949999Y4067502D02*
Y4092502D01*
X2117498Y3990000D02*
X2142498D01*
X2129998Y3977500D02*
Y4002499D01*
X2147501Y4089999D02*
X2172501D01*
X2160001Y4077500D02*
Y4102499D01*
X2187501Y3599998D02*
X2212501D01*
X2200001Y3587498D02*
Y3612498D01*
X2187501Y3499998D02*
X2212501D01*
X2200001Y3487498D02*
Y3512498D01*
X2517500Y3680000D02*
X2542500D01*
X2530000Y3667500D02*
Y3692500D01*
X2386210Y3902954D02*
X2411210D01*
X2398710Y3890454D02*
Y3915454D01*
X2387500Y4000002D02*
X2412500D01*
X2400000Y3987502D02*
Y4012502D01*
X2637502Y3970000D02*
X2662502D01*
X2650002Y3957500D02*
Y3982500D01*
X3247499Y3290001D02*
X3272498D01*
X3259999Y3277501D02*
Y3302501D01*
X2752498Y3739998D02*
X2777498D01*
X2764998Y3727498D02*
Y3752497D01*
X3009165Y3349447D02*
X3034165D01*
X3021665Y3336947D02*
Y3361947D01*
X3067499Y3739998D02*
X3092499D01*
X3079999Y3727498D02*
Y3752497D01*
X1837499Y4600001D02*
X1862499D01*
X1849999Y4587501D02*
Y4612501D01*
X1837499Y4400001D02*
X1862499D01*
X1849999Y4387502D02*
Y4412501D01*
X1837499Y4500001D02*
X1862499D01*
X1849999Y4487501D02*
Y4512501D01*
X1837499Y4700001D02*
X1862499D01*
X1849999Y4687501D02*
Y4712501D01*
X1837499Y4300002D02*
X1862499D01*
X1849999Y4287502D02*
Y4312501D01*
X1837499Y4100002D02*
X1862499D01*
X1849999Y4087502D02*
Y4112502D01*
X1837499Y4200002D02*
X1862499D01*
X1849999Y4187502D02*
Y4212502D01*
X1937499Y4700001D02*
X1962498D01*
X1949999Y4687501D02*
Y4712501D01*
X2037499Y4700001D02*
X2062498D01*
X2049998Y4687501D02*
Y4712501D01*
X2392805Y4087301D02*
X2417805D01*
X2405305Y4074802D02*
Y4099801D01*
X2489624Y4182125D02*
X2514623D01*
X2502124Y4169625D02*
Y4194625D01*
X2697502Y4180002D02*
X2722502D01*
X2710002Y4167502D02*
Y4192502D01*
X2627500Y4529999D02*
X2652500D01*
X2640000Y4517499D02*
Y4542498D01*
X2577503Y4620001D02*
X2602502D01*
X2590002Y4607501D02*
Y4632501D01*
X2237498Y4700001D02*
X2262498D01*
X2249998Y4687501D02*
Y4712501D01*
X2137498Y4700001D02*
X2162498D01*
X2149998Y4687501D02*
Y4712501D01*
X2337498Y4700001D02*
X2362498D01*
X2349998Y4687501D02*
Y4712501D01*
X3267499Y4349999D02*
X3292498D01*
X3279999Y4337499D02*
Y4362499D01*
X3317501Y3179999D02*
X3342501D01*
X3330001Y3167499D02*
Y3192499D01*
X3436840Y3689340D02*
X3461840D01*
X3449340Y3676840D02*
Y3701840D01*
X3707498Y3156915D02*
X3732497D01*
X3719998Y3144415D02*
Y3169415D01*
X3717500Y3499998D02*
X3742500D01*
X3730000Y3487498D02*
Y3512498D01*
X3529947Y3860002D02*
X3554946D01*
X3542447Y3847503D02*
Y3872502D01*
X3317501Y4097503D02*
X3342501D01*
X3330001Y4085003D02*
Y4110002D01*
X3647498Y4380001D02*
X3672498D01*
X3659998Y4367502D02*
Y4392501D01*
X4807501Y899998D02*
X4832500D01*
X4820001Y887498D02*
Y912498D01*
X4937498Y319999D02*
X4962498D01*
X4949998Y307500D02*
Y332499D01*
X5017503Y970001D02*
X5042502D01*
X5030003Y957501D02*
Y982500D01*
X4837498Y1560002D02*
X4862498D01*
X4849998Y1547502D02*
Y1572502D01*
X4657498Y1580002D02*
X4682498D01*
X4669998Y1567502D02*
Y1592502D01*
X4719210Y2143470D02*
X4744210D01*
X4731710Y2130971D02*
Y2155970D01*
X4866449Y2084182D02*
X4891449D01*
X4878949Y2071682D02*
Y2096682D01*
X4614999Y2507498D02*
X4639999D01*
X4627499Y2494998D02*
Y2519998D01*
X5097503Y2129998D02*
X5122502D01*
X5110002Y2117498D02*
Y2142498D01*
X5180002Y2500000D02*
X5205002D01*
X5192502Y2487500D02*
Y2512500D01*
X5967498Y2790002D02*
X5992498D01*
X5979998Y2777502D02*
Y2802502D01*
X6287503Y2780000D02*
X6312502D01*
X6300003Y2767500D02*
Y2792499D01*
X4407501Y3339998D02*
X4432501D01*
X4420001Y3327499D02*
Y3352498D01*
X4807501Y3390001D02*
X4832500D01*
X4820001Y3377501D02*
Y3402501D01*
X5037503Y3510001D02*
X5062502D01*
X5050003Y3497501D02*
Y3522500D01*
X5157503Y3390001D02*
X5182502D01*
X5170002Y3377501D02*
Y3402501D01*
X5697501Y3290001D02*
X5722501D01*
X5710001Y3277501D02*
Y3302501D01*
X4407501Y3660003D02*
X4432501D01*
X4420001Y3647503D02*
Y3672503D01*
X4577499Y4209999D02*
X4602498D01*
X4589998Y4197499D02*
Y4222499D01*
X4440577Y4211808D02*
X4465577D01*
X4453077Y4199308D02*
Y4224308D01*
X5401612Y3623213D02*
X5426611D01*
X5414112Y3610714D02*
Y3635713D01*
X5167500Y3639998D02*
X5192500D01*
X5180000Y3627498D02*
Y3652498D01*
X2417503Y1760002D02*
X2442503D01*
X2430003Y1747502D02*
Y1772501D01*
X2527500Y2100001D02*
X2552500D01*
X2540000Y2087501D02*
Y2112501D01*
X2495730Y4323171D02*
X2520730D01*
X2508230Y4310672D02*
Y4335671D01*
X3367498Y4340001D02*
X3392498D01*
X3379998Y4327502D02*
Y4352501D01*
X2967499Y3840002D02*
X2992499D01*
X2979999Y3827503D02*
Y3852502D01*
X6117501Y2630002D02*
X6142500D01*
X6130000Y2617503D02*
Y2642502D01*
X3457501Y3399998D02*
X3482501D01*
X3470001Y3387498D02*
Y3412498D01*
X4467501Y3459998D02*
X4492501D01*
X4480001Y3447498D02*
Y3472498D01*
X4903360Y3469142D02*
X4928360D01*
X4915860Y3456642D02*
Y3481642D01*
X2584584Y810001D02*
X2609584D01*
X2597084Y797501D02*
Y822501D01*
X4747501Y2770002D02*
X4772500D01*
X4760001Y2757502D02*
Y2782502D01*
X4707501Y3085003D02*
X4732501D01*
X4720001Y3072503D02*
Y3097503D01*
X4307502Y3130001D02*
X4332501D01*
X4320002Y3117502D02*
Y3142501D01*
X3587498Y3370001D02*
X3612498D01*
X3599998Y3357501D02*
Y3382501D01*
X3266808Y2029998D02*
X3291807D01*
X3279308Y2017499D02*
Y2042498D01*
X4877498Y2220001D02*
X4902498D01*
X4889998Y2207501D02*
Y2232500D01*
X4627669Y3578276D02*
X4652668D01*
X4640169Y3565776D02*
Y3590776D01*
X4438159Y3840658D02*
X4463159D01*
X4450659Y3828158D02*
Y3853158D01*
X4402503Y2755001D02*
X4427502D01*
X4415003Y2742501D02*
Y2767501D01*
X4697498Y4200002D02*
X4722498D01*
X4709998Y4187502D02*
Y4212502D01*
X4437499Y4289999D02*
X4462499D01*
X4449999Y4277499D02*
Y4302499D01*
%TF.MD5,3ba7a31cc31aad680bc7242005ba8062*%
M02*
