%TF.GenerationSoftware,Altium Limited,Altium Designer,23.9.2 (47)*%
G04 Layer_Color=255*
%FSLAX45Y45*%
%MOMM*%
%TF.SameCoordinates,14EE52A8-4136-4093-BC95-9A2147CF655B*%
%TF.FilePolarity,Positive*%
%TF.FileFunction,Pads,Top*%
%TF.Part,Single*%
G01*
G75*
%TA.AperFunction,SMDPad,CuDef*%
G04:AMPARAMS|DCode=10|XSize=0.2mm|YSize=0.65mm|CornerRadius=0.05mm|HoleSize=0mm|Usage=FLASHONLY|Rotation=180.000|XOffset=0mm|YOffset=0mm|HoleType=Round|Shape=RoundedRectangle|*
%AMROUNDEDRECTD10*
21,1,0.20000,0.55000,0,0,180.0*
21,1,0.10000,0.65000,0,0,180.0*
1,1,0.10000,-0.05000,0.27500*
1,1,0.10000,0.05000,0.27500*
1,1,0.10000,0.05000,-0.27500*
1,1,0.10000,-0.05000,-0.27500*
%
%ADD10ROUNDEDRECTD10*%
G04:AMPARAMS|DCode=11|XSize=0.2mm|YSize=1mm|CornerRadius=0.05mm|HoleSize=0mm|Usage=FLASHONLY|Rotation=180.000|XOffset=0mm|YOffset=0mm|HoleType=Round|Shape=RoundedRectangle|*
%AMROUNDEDRECTD11*
21,1,0.20000,0.90000,0,0,180.0*
21,1,0.10000,1.00000,0,0,180.0*
1,1,0.10000,-0.05000,0.45000*
1,1,0.10000,0.05000,0.45000*
1,1,0.10000,0.05000,-0.45000*
1,1,0.10000,-0.05000,-0.45000*
%
%ADD11ROUNDEDRECTD11*%
G04:AMPARAMS|DCode=12|XSize=0.22mm|YSize=0.55mm|CornerRadius=0.055mm|HoleSize=0mm|Usage=FLASHONLY|Rotation=90.000|XOffset=0mm|YOffset=0mm|HoleType=Round|Shape=RoundedRectangle|*
%AMROUNDEDRECTD12*
21,1,0.22000,0.44000,0,0,90.0*
21,1,0.11000,0.55000,0,0,90.0*
1,1,0.11000,0.22000,0.05500*
1,1,0.11000,0.22000,-0.05500*
1,1,0.11000,-0.22000,-0.05500*
1,1,0.11000,-0.22000,0.05500*
%
%ADD12ROUNDEDRECTD12*%
G04:AMPARAMS|DCode=13|XSize=0.6mm|YSize=0.6mm|CornerRadius=0.15mm|HoleSize=0mm|Usage=FLASHONLY|Rotation=90.000|XOffset=0mm|YOffset=0mm|HoleType=Round|Shape=RoundedRectangle|*
%AMROUNDEDRECTD13*
21,1,0.60000,0.30000,0,0,90.0*
21,1,0.30000,0.60000,0,0,90.0*
1,1,0.30000,0.15000,0.15000*
1,1,0.30000,0.15000,-0.15000*
1,1,0.30000,-0.15000,-0.15000*
1,1,0.30000,-0.15000,0.15000*
%
%ADD13ROUNDEDRECTD13*%
G04:AMPARAMS|DCode=14|XSize=3.6mm|YSize=2mm|CornerRadius=0.5mm|HoleSize=0mm|Usage=FLASHONLY|Rotation=90.000|XOffset=0mm|YOffset=0mm|HoleType=Round|Shape=RoundedRectangle|*
%AMROUNDEDRECTD14*
21,1,3.60000,1.00000,0,0,90.0*
21,1,2.60000,2.00000,0,0,90.0*
1,1,1.00000,0.50000,1.30000*
1,1,1.00000,0.50000,-1.30000*
1,1,1.00000,-0.50000,-1.30000*
1,1,1.00000,-0.50000,1.30000*
%
%ADD14ROUNDEDRECTD14*%
G04:AMPARAMS|DCode=15|XSize=0.8mm|YSize=0.8mm|CornerRadius=0.2mm|HoleSize=0mm|Usage=FLASHONLY|Rotation=90.000|XOffset=0mm|YOffset=0mm|HoleType=Round|Shape=RoundedRectangle|*
%AMROUNDEDRECTD15*
21,1,0.80000,0.40000,0,0,90.0*
21,1,0.40000,0.80000,0,0,90.0*
1,1,0.40000,0.20000,0.20000*
1,1,0.40000,0.20000,-0.20000*
1,1,0.40000,-0.20000,-0.20000*
1,1,0.40000,-0.20000,0.20000*
%
%ADD15ROUNDEDRECTD15*%
G04:AMPARAMS|DCode=16|XSize=1.65mm|YSize=1.25mm|CornerRadius=0.3125mm|HoleSize=0mm|Usage=FLASHONLY|Rotation=270.000|XOffset=0mm|YOffset=0mm|HoleType=Round|Shape=RoundedRectangle|*
%AMROUNDEDRECTD16*
21,1,1.65000,0.62500,0,0,270.0*
21,1,1.02500,1.25000,0,0,270.0*
1,1,0.62500,-0.31250,-0.51250*
1,1,0.62500,-0.31250,0.51250*
1,1,0.62500,0.31250,0.51250*
1,1,0.62500,0.31250,-0.51250*
%
%ADD16ROUNDEDRECTD16*%
G04:AMPARAMS|DCode=17|XSize=0.8mm|YSize=0.8mm|CornerRadius=0.2mm|HoleSize=0mm|Usage=FLASHONLY|Rotation=0.000|XOffset=0mm|YOffset=0mm|HoleType=Round|Shape=RoundedRectangle|*
%AMROUNDEDRECTD17*
21,1,0.80000,0.40000,0,0,0.0*
21,1,0.40000,0.80000,0,0,0.0*
1,1,0.40000,0.20000,-0.20000*
1,1,0.40000,-0.20000,-0.20000*
1,1,0.40000,-0.20000,0.20000*
1,1,0.40000,0.20000,0.20000*
%
%ADD17ROUNDEDRECTD17*%
G04:AMPARAMS|DCode=18|XSize=0.6mm|YSize=0.6mm|CornerRadius=0.15mm|HoleSize=0mm|Usage=FLASHONLY|Rotation=0.000|XOffset=0mm|YOffset=0mm|HoleType=Round|Shape=RoundedRectangle|*
%AMROUNDEDRECTD18*
21,1,0.60000,0.30000,0,0,0.0*
21,1,0.30000,0.60000,0,0,0.0*
1,1,0.30000,0.15000,-0.15000*
1,1,0.30000,-0.15000,-0.15000*
1,1,0.30000,-0.15000,0.15000*
1,1,0.30000,0.15000,0.15000*
%
%ADD18ROUNDEDRECTD18*%
%TA.AperFunction,ComponentPad*%
G04:AMPARAMS|DCode=25|XSize=2.2mm|YSize=2.2mm|CornerRadius=0mm|HoleSize=0mm|Usage=FLASHONLY|Rotation=180.000|XOffset=0mm|YOffset=0mm|HoleType=Round|Shape=Octagon|*
%AMOCTAGOND25*
4,1,8,-1.10000,0.55000,-1.10000,-0.55000,-0.55000,-1.10000,0.55000,-1.10000,1.10000,-0.55000,1.10000,0.55000,0.55000,1.10000,-0.55000,1.10000,-1.10000,0.55000,0.0*
%
%ADD25OCTAGOND25*%

G04:AMPARAMS|DCode=26|XSize=2.2mm|YSize=2.2mm|CornerRadius=0.55mm|HoleSize=0mm|Usage=FLASHONLY|Rotation=180.000|XOffset=0mm|YOffset=0mm|HoleType=Round|Shape=RoundedRectangle|*
%AMROUNDEDRECTD26*
21,1,2.20000,1.10000,0,0,180.0*
21,1,1.10000,2.20000,0,0,180.0*
1,1,1.10000,-0.55000,0.55000*
1,1,1.10000,0.55000,0.55000*
1,1,1.10000,0.55000,-0.55000*
1,1,1.10000,-0.55000,-0.55000*
%
%ADD26ROUNDEDRECTD26*%
D10*
X555000Y392500D02*
D03*
X655000D02*
D03*
X605000Y567500D02*
D03*
D11*
Y410000D02*
D03*
X655000Y550000D02*
D03*
X555000D02*
D03*
D12*
X487500Y505000D02*
D03*
Y405000D02*
D03*
Y555000D02*
D03*
Y455000D02*
D03*
D13*
X260000Y370000D02*
D03*
X360000D02*
D03*
Y270000D02*
D03*
X260000D02*
D03*
X360000Y170000D02*
D03*
X260000D02*
D03*
D14*
X1200000Y230000D02*
D03*
X860000D02*
D03*
D15*
X350000Y530000D02*
D03*
X190000D02*
D03*
D16*
X1540000Y860000D02*
D03*
X1820000D02*
D03*
X1420000Y270000D02*
D03*
X1700000D02*
D03*
D17*
X130000Y190000D02*
D03*
Y350000D02*
D03*
X340000Y740000D02*
D03*
Y900000D02*
D03*
X470000Y740000D02*
D03*
Y900000D02*
D03*
D18*
X580000Y830000D02*
D03*
Y730000D02*
D03*
D25*
X1800000Y1280000D02*
D03*
X579999D02*
D03*
D26*
X1450000D02*
D03*
X229999D02*
D03*
%TF.MD5,87a5bd6b4819e04953d39a5fe801fca5*%
M02*
