%TF.GenerationSoftware,Altium Limited,Altium Designer,23.9.2 (47)*%
G04 Layer_Color=2752767*
%FSLAX45Y45*%
%MOMM*%
%TF.SameCoordinates,14EE52A8-4136-4093-BC95-9A2147CF655B*%
%TF.FilePolarity,Positive*%
%TF.FileFunction,Drawing*%
%TF.Part,Single*%
G01*
G75*
%TA.AperFunction,NonConductor*%
%ADD63C,0.12700*%
%ADD64C,0.16933*%
D63*
X1749200Y1229200D02*
Y1330800D01*
X1850800D01*
Y1229200D01*
X1749200D01*
X1399200D02*
Y1330800D01*
X1500800D01*
Y1229200D01*
X1399200D01*
X529199D02*
Y1330800D01*
X630799D01*
Y1229200D01*
X529199D01*
X179199D02*
Y1330800D01*
X280799D01*
Y1229200D01*
X179199D01*
D64*
X1100800Y400000D02*
G03*
X1100800Y400000I-50800J0D01*
G01*
X1750800Y160000D02*
G03*
X1750800Y160000I-50800J0D01*
G01*
X1840800Y270000D02*
G03*
X1840800Y270000I-50800J0D01*
G01*
X1310800Y1620000D02*
G03*
X1310800Y1620000I-50800J0D01*
G01*
X790800D02*
G03*
X790800Y1620000I-50800J0D01*
G01*
X310800Y110000D02*
G03*
X310800Y110000I-50800J0D01*
G01*
X520800Y970000D02*
G03*
X520800Y970000I-50800J0D01*
G01*
X1250800Y570000D02*
G03*
X1250800Y570000I-50800J0D01*
G01*
X960800Y540000D02*
G03*
X960800Y540000I-50800J0D01*
G01*
X1060800Y140000D02*
G03*
X1060800Y140000I-50800J0D01*
G01*
X1400800Y490000D02*
G03*
X1400800Y490000I-50800J0D01*
G01*
X1750800Y390000D02*
G03*
X1750800Y390000I-50800J0D01*
G01*
X1440800Y80000D02*
G03*
X1440800Y80000I-50800J0D01*
G01*
X1930800Y120000D02*
G03*
X1930800Y120000I-50800J0D01*
G01*
X1970800Y1620000D02*
G03*
X1970800Y1620000I-50800J0D01*
G01*
X130800D02*
G03*
X130800Y1620000I-50800J0D01*
G01*
X230800Y90000D02*
G03*
X230800Y90000I-50800J0D01*
G01*
X490800Y130000D02*
G03*
X490800Y130000I-50800J0D01*
G01*
X710800Y630000D02*
G03*
X710800Y630000I-50800J0D01*
G01*
X1870800Y750000D02*
G03*
X1870800Y750000I-50800J0D01*
G01*
X1960800Y860000D02*
G03*
X1960800Y860000I-50800J0D01*
G01*
X1870800Y970000D02*
G03*
X1870800Y970000I-50800J0D01*
G01*
X390800D02*
G03*
X390800Y970000I-50800J0D01*
G01*
X690800Y830000D02*
G03*
X690800Y830000I-50800J0D01*
G01*
X170800Y530000D02*
G03*
X170800Y530000I-50800J0D01*
G01*
X480800Y580000D02*
G03*
X480800Y580000I-50800J0D01*
G01*
X470800Y370000D02*
G03*
X470800Y370000I-50800J0D01*
G01*
X750800Y130000D02*
G03*
X750800Y130000I-50800J0D01*
G01*
X1590292Y745051D02*
G03*
X1590292Y745051I-50800J0D01*
G01*
%TF.MD5,c40f6560bd9a130080ca3e24073c6004*%
M02*
