%TF.GenerationSoftware,Altium Limited,Altium Designer,20.2.6 (244)*%
G04 Layer_Physical_Order=2*
G04 Layer_Color=36540*
%FSLAX45Y45*%
%MOMM*%
%TF.SameCoordinates,9E4D4D7D-1FFC-428C-BB03-7E89B6F1CBBC*%
%TF.FilePolarity,Positive*%
%TF.FileFunction,Copper,L2,Inr,Signal*%
%TF.Part,Single*%
G01*
G75*
%TA.AperFunction,NonConductor*%
%ADD22C,0.15000*%
%TA.AperFunction,ComponentPad*%
G04:AMPARAMS|DCode=27|XSize=1.1mm|YSize=1.2mm|CornerRadius=0.275mm|HoleSize=0mm|Usage=FLASHONLY|Rotation=180.000|XOffset=0mm|YOffset=0mm|HoleType=Round|Shape=RoundedRectangle|*
%AMROUNDEDRECTD27*
21,1,1.10000,0.65000,0,0,180.0*
21,1,0.55000,1.20000,0,0,180.0*
1,1,0.55000,-0.27500,0.32500*
1,1,0.55000,0.27500,0.32500*
1,1,0.55000,0.27500,-0.32500*
1,1,0.55000,-0.27500,-0.32500*
%
%ADD27ROUNDEDRECTD27*%
G04:AMPARAMS|DCode=28|XSize=1.9mm|YSize=1.9mm|CornerRadius=0.475mm|HoleSize=0mm|Usage=FLASHONLY|Rotation=180.000|XOffset=0mm|YOffset=0mm|HoleType=Round|Shape=RoundedRectangle|*
%AMROUNDEDRECTD28*
21,1,1.90000,0.95000,0,0,180.0*
21,1,0.95000,1.90000,0,0,180.0*
1,1,0.95000,-0.47500,0.47500*
1,1,0.95000,0.47500,0.47500*
1,1,0.95000,0.47500,-0.47500*
1,1,0.95000,-0.47500,-0.47500*
%
%ADD28ROUNDEDRECTD28*%
%TA.AperFunction,ViaPad*%
%ADD29C,0.60000*%
%TA.AperFunction,ComponentPad*%
G04:AMPARAMS|DCode=30|XSize=1.5mm|YSize=1.9mm|CornerRadius=0.375mm|HoleSize=0mm|Usage=FLASHONLY|Rotation=270.000|XOffset=0mm|YOffset=0mm|HoleType=Round|Shape=RoundedRectangle|*
%AMROUNDEDRECTD30*
21,1,1.50000,1.15000,0,0,270.0*
21,1,0.75000,1.90000,0,0,270.0*
1,1,0.75000,-0.57500,-0.37500*
1,1,0.75000,-0.57500,0.37500*
1,1,0.75000,0.57500,0.37500*
1,1,0.75000,0.57500,-0.37500*
%
%ADD30ROUNDEDRECTD30*%
G36*
X2179924Y1942827D02*
X2173917Y1933837D01*
X2168678Y1907500D01*
Y1812500D01*
X2173917Y1786163D01*
X2188836Y1763836D01*
X2211163Y1748917D01*
X2237500Y1743678D01*
X2332500D01*
X2358837Y1748917D01*
X2381164Y1763836D01*
X2389566Y1776409D01*
X2396770Y1771596D01*
X2407500Y1769462D01*
X2942500D01*
X2956056Y1756864D01*
Y1194971D01*
X2610000D01*
X2593183Y1191626D01*
X2578927Y1182100D01*
X2569401Y1167844D01*
X2566056Y1151027D01*
Y650000D01*
X2569401Y633183D01*
X2578927Y618927D01*
X2593183Y609401D01*
X2610000Y606056D01*
X2956056D01*
Y200000D01*
X2956165Y199453D01*
X2950913Y159563D01*
X2935305Y121882D01*
X2910476Y89524D01*
X2878118Y64695D01*
X2840437Y49087D01*
X2800547Y43836D01*
X2800000Y43944D01*
X200000D01*
X199453Y43836D01*
X159563Y49087D01*
X121882Y64695D01*
X89524Y89524D01*
X64695Y121882D01*
X49087Y159563D01*
X45697Y185316D01*
X60504Y187761D01*
X63250Y173958D01*
X77152Y153152D01*
X97958Y139250D01*
X122500Y134368D01*
X167300D01*
Y236000D01*
Y337632D01*
X122500D01*
X97958Y332750D01*
X77152Y318848D01*
X63250Y298042D01*
X58944Y276397D01*
X43944Y277875D01*
Y1956056D01*
X1337853D01*
X1344924Y1942827D01*
X1338917Y1933837D01*
X1333678Y1907500D01*
Y1812500D01*
X1338917Y1786163D01*
X1353835Y1763836D01*
X1376163Y1748917D01*
X1402500Y1743678D01*
X1497500D01*
X1523837Y1748917D01*
X1546164Y1763836D01*
X1561083Y1786163D01*
X1566322Y1812500D01*
Y1907500D01*
X1561083Y1933837D01*
X1555076Y1942827D01*
X1562147Y1956056D01*
X2172853D01*
X2179924Y1942827D01*
D02*
G37*
G36*
X2675500Y1804500D02*
X2544500D01*
Y1935500D01*
X2675500D01*
Y1804500D01*
D02*
G37*
%LPC*%
G36*
X830000Y1920980D02*
X810491Y1917099D01*
X793952Y1906048D01*
X782901Y1889509D01*
X779021Y1870000D01*
X782901Y1850491D01*
X793952Y1833952D01*
X810491Y1822901D01*
X830000Y1819020D01*
X849509Y1822901D01*
X866048Y1833952D01*
X877099Y1850491D01*
X880980Y1870000D01*
X877099Y1889509D01*
X866048Y1906048D01*
X849509Y1917099D01*
X830000Y1920980D01*
D02*
G37*
G36*
X531500Y1861632D02*
X486700D01*
Y1772700D01*
X595632D01*
Y1797500D01*
X590750Y1822042D01*
X576848Y1842848D01*
X556042Y1856750D01*
X531500Y1861632D01*
D02*
G37*
G36*
X461300D02*
X416500D01*
X391958Y1856750D01*
X371152Y1842848D01*
X357250Y1822042D01*
X352368Y1797500D01*
Y1772700D01*
X461300D01*
Y1861632D01*
D02*
G37*
G36*
X237500Y1856126D02*
X122500D01*
X100065Y1851664D01*
X81045Y1838955D01*
X68337Y1819935D01*
X63874Y1797500D01*
Y1722500D01*
X68337Y1700065D01*
X81045Y1681045D01*
X100065Y1668337D01*
X122500Y1663874D01*
X237500D01*
X259935Y1668337D01*
X278955Y1681045D01*
X291664Y1700065D01*
X296126Y1722500D01*
Y1797500D01*
X291664Y1819935D01*
X278955Y1838955D01*
X259935Y1851664D01*
X237500Y1856126D01*
D02*
G37*
G36*
X595632Y1747300D02*
X486700D01*
Y1658368D01*
X531500D01*
X556042Y1663250D01*
X576848Y1677152D01*
X590750Y1697958D01*
X595632Y1722500D01*
Y1747300D01*
D02*
G37*
G36*
X461300D02*
X352368D01*
Y1722500D01*
X357250Y1697958D01*
X371152Y1677152D01*
X391958Y1663250D01*
X416500Y1658368D01*
X461300D01*
Y1747300D01*
D02*
G37*
G36*
X2125000Y1640931D02*
X2070000D01*
X2051467Y1637244D01*
X2035755Y1626746D01*
X2025256Y1611034D01*
X2021569Y1592500D01*
Y1527500D01*
X2025256Y1508967D01*
X2035755Y1493255D01*
X2051467Y1482756D01*
X2070000Y1479070D01*
X2125000D01*
X2143533Y1482756D01*
X2159245Y1493255D01*
X2169744Y1508967D01*
X2173431Y1527500D01*
Y1592500D01*
X2169744Y1611034D01*
X2159245Y1626746D01*
X2143533Y1637244D01*
X2125000Y1640931D01*
D02*
G37*
G36*
X1665000D02*
X1610000D01*
X1591466Y1637244D01*
X1575755Y1626746D01*
X1565256Y1611034D01*
X1561569Y1592500D01*
Y1527500D01*
X1565256Y1508967D01*
X1575755Y1493255D01*
X1591466Y1482756D01*
X1610000Y1479070D01*
X1665000D01*
X1683533Y1482756D01*
X1699245Y1493255D01*
X1709744Y1508967D01*
X1713430Y1527500D01*
Y1592500D01*
X1709744Y1611034D01*
X1699245Y1626746D01*
X1683533Y1637244D01*
X1665000Y1640931D01*
D02*
G37*
G36*
X2250000Y1560980D02*
X2230491Y1557099D01*
X2213952Y1546048D01*
X2202901Y1529509D01*
X2199020Y1510000D01*
X2202901Y1490491D01*
X2213952Y1473952D01*
X2230491Y1462901D01*
X2250000Y1459020D01*
X2269509Y1462901D01*
X2286048Y1473952D01*
X2297099Y1490491D01*
X2300980Y1510000D01*
X2297099Y1529509D01*
X2286048Y1546048D01*
X2269509Y1557099D01*
X2250000Y1560980D01*
D02*
G37*
G36*
X531500Y1602126D02*
X416500D01*
X394065Y1597664D01*
X375045Y1584955D01*
X362337Y1565935D01*
X357874Y1543500D01*
Y1468500D01*
X362337Y1446065D01*
X375045Y1427045D01*
X394065Y1414337D01*
X416500Y1409874D01*
X531500D01*
X553935Y1414337D01*
X572955Y1427045D01*
X585664Y1446065D01*
X590126Y1468500D01*
Y1543500D01*
X585664Y1565935D01*
X572955Y1584955D01*
X553935Y1597664D01*
X531500Y1602126D01*
D02*
G37*
G36*
X237500D02*
X122500D01*
X100065Y1597664D01*
X81045Y1584955D01*
X68337Y1565935D01*
X63874Y1543500D01*
Y1468500D01*
X68337Y1446065D01*
X81045Y1427045D01*
X100065Y1414337D01*
X122500Y1409874D01*
X237500D01*
X259935Y1414337D01*
X278955Y1427045D01*
X291664Y1446065D01*
X296126Y1468500D01*
Y1543500D01*
X291664Y1565935D01*
X278955Y1584955D01*
X259935Y1597664D01*
X237500Y1602126D01*
D02*
G37*
G36*
X1170000Y1500979D02*
X1150491Y1497099D01*
X1133952Y1486048D01*
X1122901Y1469509D01*
X1119020Y1450000D01*
X1122901Y1430491D01*
X1133952Y1413952D01*
X1150491Y1402901D01*
X1170000Y1399020D01*
X1171402Y1399299D01*
X1175744Y1395600D01*
X1182233Y1386160D01*
X1179018Y1369997D01*
X1182899Y1350488D01*
X1193950Y1333949D01*
X1210489Y1322898D01*
X1229998Y1319018D01*
X1249507Y1322898D01*
X1259041Y1329269D01*
X1273952Y1333952D01*
X1290491Y1322901D01*
X1310000Y1319020D01*
X1329509Y1322901D01*
X1346048Y1333952D01*
X1357099Y1350491D01*
X1360979Y1370000D01*
X1357099Y1389509D01*
X1346048Y1406048D01*
X1329509Y1417099D01*
X1310000Y1420980D01*
X1290491Y1417099D01*
X1273952Y1406048D01*
X1259038Y1410727D01*
X1249507Y1417096D01*
X1229998Y1420977D01*
X1228596Y1420698D01*
X1224253Y1424397D01*
X1217765Y1433838D01*
X1220980Y1450000D01*
X1217099Y1469509D01*
X1206048Y1486048D01*
X1189509Y1497099D01*
X1170000Y1500979D01*
D02*
G37*
G36*
X2119996Y1410977D02*
X2100487Y1407096D01*
X2083948Y1396045D01*
X2072897Y1379506D01*
X2069016Y1359997D01*
X2072897Y1340488D01*
X2083948Y1323949D01*
X2100487Y1312898D01*
X2119996Y1309018D01*
X2139505Y1312898D01*
X2156044Y1323949D01*
X2167095Y1340488D01*
X2170975Y1359997D01*
X2167095Y1379506D01*
X2156044Y1396045D01*
X2139505Y1407096D01*
X2119996Y1410977D01*
D02*
G37*
G36*
X2026435Y1323480D02*
X2006926Y1319599D01*
X1990387Y1308548D01*
X1979336Y1292009D01*
X1975455Y1272500D01*
X1979336Y1252991D01*
X1990387Y1236452D01*
X2006926Y1225401D01*
X2026435Y1221521D01*
X2045944Y1225401D01*
X2062483Y1236452D01*
X2073534Y1252991D01*
X2077414Y1272500D01*
X2073534Y1292009D01*
X2062483Y1308548D01*
X2045944Y1319599D01*
X2026435Y1323480D01*
D02*
G37*
G36*
X531500Y1348126D02*
X416500D01*
X394065Y1343664D01*
X375045Y1330955D01*
X362337Y1311935D01*
X357874Y1289500D01*
Y1214500D01*
X362337Y1192065D01*
X375045Y1173045D01*
X394065Y1160337D01*
X416500Y1155874D01*
X531500D01*
X553935Y1160337D01*
X572955Y1173045D01*
X585664Y1192065D01*
X590126Y1214500D01*
Y1289500D01*
X585664Y1311935D01*
X572955Y1330955D01*
X553935Y1343664D01*
X531500Y1348126D01*
D02*
G37*
G36*
X237500D02*
X122500D01*
X100065Y1343664D01*
X81045Y1330955D01*
X68337Y1311935D01*
X63874Y1289500D01*
Y1214500D01*
X68337Y1192065D01*
X81045Y1173045D01*
X100065Y1160337D01*
X122500Y1155874D01*
X237500D01*
X259935Y1160337D01*
X278955Y1173045D01*
X291664Y1192065D01*
X296126Y1214500D01*
Y1289500D01*
X291664Y1311935D01*
X278955Y1330955D01*
X259935Y1343664D01*
X237500Y1348126D01*
D02*
G37*
G36*
X2144642Y1221687D02*
X2125133Y1217807D01*
X2108594Y1206756D01*
X2097543Y1190217D01*
X2093663Y1170708D01*
X2097543Y1151199D01*
X2108594Y1134660D01*
X2125133Y1123609D01*
X2144642Y1119728D01*
X2164151Y1123609D01*
X2180690Y1134660D01*
X2191741Y1151199D01*
X2195622Y1170708D01*
X2191741Y1190217D01*
X2180690Y1206756D01*
X2164151Y1217807D01*
X2144642Y1221687D01*
D02*
G37*
G36*
X1921065Y1225980D02*
X1901557Y1222099D01*
X1885018Y1211048D01*
X1873967Y1194509D01*
X1870086Y1175000D01*
X1873967Y1155491D01*
X1885018Y1138952D01*
X1901557Y1127901D01*
X1913875Y1125451D01*
X1921065Y1124020D01*
X1922795Y1109547D01*
X1910491Y1107099D01*
X1893952Y1096048D01*
X1884039Y1081212D01*
X1877224Y1080799D01*
X1868430Y1082796D01*
X1867095Y1089507D01*
X1856044Y1106046D01*
X1839505Y1117097D01*
X1819996Y1120977D01*
X1800487Y1117097D01*
X1783948Y1106046D01*
X1772897Y1089507D01*
X1770566Y1077786D01*
X1755272D01*
X1753215Y1088125D01*
X1742164Y1104664D01*
X1725625Y1115715D01*
X1706116Y1119596D01*
X1686607Y1115715D01*
X1670069Y1104664D01*
X1659018Y1088125D01*
X1656638Y1076161D01*
X1655909Y1072499D01*
X1640616D01*
X1639995Y1075618D01*
X1638216Y1084561D01*
X1627165Y1101100D01*
X1610626Y1112151D01*
X1591117Y1116031D01*
X1571608Y1112151D01*
X1555069Y1101100D01*
X1544018Y1084561D01*
X1540137Y1065052D01*
X1544018Y1045543D01*
X1555069Y1029004D01*
X1571608Y1017953D01*
X1591117Y1014072D01*
X1610626Y1017953D01*
X1627165Y1029004D01*
X1638216Y1045543D01*
X1640596Y1057507D01*
X1641325Y1061169D01*
X1656618D01*
X1657239Y1058050D01*
X1659018Y1049107D01*
X1670069Y1032568D01*
X1675356Y1029035D01*
X1676136Y1025662D01*
X1674329Y1011681D01*
X1662156Y1003548D01*
X1651105Y987009D01*
X1647225Y967500D01*
X1651105Y947991D01*
X1662156Y931452D01*
X1678695Y920401D01*
X1698204Y916520D01*
X1717713Y920401D01*
X1734252Y931452D01*
X1745303Y947991D01*
X1749184Y967500D01*
X1745303Y987009D01*
X1734252Y1003548D01*
X1728964Y1007081D01*
X1728184Y1010454D01*
X1729992Y1024435D01*
X1742164Y1032568D01*
X1753215Y1049107D01*
X1755547Y1060828D01*
X1770841D01*
X1772897Y1050489D01*
X1783948Y1033950D01*
X1800487Y1022899D01*
X1819996Y1019018D01*
X1839505Y1022899D01*
X1856044Y1033950D01*
X1865957Y1048786D01*
X1872773Y1049199D01*
X1881566Y1047202D01*
X1882901Y1040491D01*
X1893418Y1024751D01*
X1893922Y1023689D01*
X1892059Y1007176D01*
X1882887Y1001048D01*
X1871836Y984509D01*
X1867955Y965000D01*
X1871836Y945491D01*
X1882887Y928952D01*
X1899426Y917901D01*
X1918935Y914020D01*
X1938444Y917901D01*
X1954983Y928952D01*
X1966034Y945491D01*
X1969915Y965000D01*
X1966034Y984509D01*
X1955517Y1000248D01*
X1955013Y1001310D01*
X1956876Y1017823D01*
X1966048Y1023952D01*
X1977099Y1040491D01*
X1980980Y1060000D01*
X1977099Y1079509D01*
X1966048Y1096048D01*
X1949509Y1107099D01*
X1937191Y1109549D01*
X1930000Y1110980D01*
X1928270Y1125453D01*
X1940574Y1127901D01*
X1957113Y1138952D01*
X1968164Y1155491D01*
X1972045Y1175000D01*
X1968164Y1194509D01*
X1957113Y1211048D01*
X1940574Y1222099D01*
X1921065Y1225980D01*
D02*
G37*
G36*
X2159996Y1100977D02*
X2140487Y1097097D01*
X2123948Y1086046D01*
X2117348Y1076169D01*
X2099912Y1075265D01*
X2096048Y1081048D01*
X2079509Y1092099D01*
X2060000Y1095980D01*
X2040491Y1092099D01*
X2023952Y1081048D01*
X2012901Y1064509D01*
X2009020Y1045000D01*
X2012901Y1025491D01*
X2023952Y1008952D01*
X2040491Y997901D01*
X2060000Y994020D01*
X2079509Y997901D01*
X2096048Y1008952D01*
X2102647Y1018829D01*
X2120083Y1019733D01*
X2123948Y1013950D01*
X2140487Y1002899D01*
X2159996Y999018D01*
X2179505Y1002899D01*
X2196044Y1013950D01*
X2207095Y1030489D01*
X2210975Y1049998D01*
X2207095Y1069507D01*
X2196044Y1086046D01*
X2179505Y1097097D01*
X2159996Y1100977D01*
D02*
G37*
G36*
X1180000Y1210980D02*
X1160491Y1207099D01*
X1143952Y1196048D01*
X1132901Y1179509D01*
X1129020Y1160000D01*
X1116072Y1148207D01*
X1110489Y1147097D01*
X1093950Y1136046D01*
X1082899Y1119507D01*
X1079018Y1099998D01*
X1082899Y1080489D01*
X1093950Y1063950D01*
X1099216Y1060431D01*
X1103355Y1040188D01*
X1102901Y1039509D01*
X1099020Y1020000D01*
X1102901Y1000491D01*
X1113952Y983952D01*
X1130491Y972901D01*
X1150000Y969020D01*
X1169509Y972901D01*
X1186048Y983952D01*
X1197099Y1000491D01*
X1200980Y1020000D01*
X1197099Y1039509D01*
X1186048Y1056048D01*
X1180781Y1059567D01*
X1176643Y1079810D01*
X1177097Y1080489D01*
X1180977Y1099998D01*
X1193925Y1111791D01*
X1199509Y1112901D01*
X1216048Y1123952D01*
X1227099Y1140491D01*
X1230980Y1160000D01*
X1227099Y1179509D01*
X1216048Y1196048D01*
X1199509Y1207099D01*
X1180000Y1210980D01*
D02*
G37*
G36*
X2300000Y1400980D02*
X2280491Y1397099D01*
X2263952Y1386048D01*
X2252901Y1369509D01*
X2249020Y1350000D01*
X2252901Y1330491D01*
X2263952Y1313952D01*
X2280491Y1302901D01*
X2300000Y1299020D01*
X2299994Y1284892D01*
X2299021Y1280000D01*
X2302901Y1260491D01*
X2313952Y1243952D01*
X2330491Y1232901D01*
X2339518Y1231105D01*
X2341408Y1215435D01*
X2328952Y1207113D01*
X2317901Y1190574D01*
X2314021Y1171065D01*
X2317901Y1151556D01*
X2327820Y1136712D01*
X2328901Y1134728D01*
X2326090Y1118889D01*
X2317938Y1113442D01*
X2306887Y1096903D01*
X2303006Y1077394D01*
X2306887Y1057885D01*
X2317938Y1041346D01*
X2334477Y1030295D01*
X2336668Y1029859D01*
Y1014565D01*
X2332347Y1013706D01*
X2315808Y1002655D01*
X2304757Y986116D01*
X2300876Y966607D01*
X2304757Y947098D01*
X2315808Y930559D01*
X2332347Y919508D01*
X2351856Y915627D01*
X2371365Y919508D01*
X2387904Y930559D01*
X2398955Y947098D01*
X2402835Y966607D01*
X2398955Y986116D01*
X2387904Y1002655D01*
X2371365Y1013706D01*
X2369174Y1014142D01*
Y1029436D01*
X2373495Y1030295D01*
X2390034Y1041346D01*
X2401085Y1057885D01*
X2404965Y1077394D01*
X2401085Y1096903D01*
X2391166Y1111747D01*
X2390085Y1113731D01*
X2392896Y1129570D01*
X2401048Y1135017D01*
X2412099Y1151556D01*
X2415980Y1171065D01*
X2412099Y1190574D01*
X2401048Y1207113D01*
X2384509Y1218164D01*
X2375482Y1219959D01*
X2373592Y1235629D01*
X2386048Y1243952D01*
X2397099Y1260491D01*
X2400980Y1280000D01*
X2397099Y1299509D01*
X2386048Y1316048D01*
X2369509Y1327099D01*
X2350000Y1330980D01*
X2350006Y1345108D01*
X2350980Y1350000D01*
X2347099Y1369509D01*
X2336048Y1386048D01*
X2319509Y1397099D01*
X2300000Y1400980D01*
D02*
G37*
G36*
X531500Y1094126D02*
X416500D01*
X394065Y1089664D01*
X375045Y1076955D01*
X362337Y1057935D01*
X357874Y1035500D01*
Y960500D01*
X362337Y938065D01*
X375045Y919045D01*
X394065Y906337D01*
X416500Y901874D01*
X531500D01*
X553935Y906337D01*
X572955Y919045D01*
X585664Y938065D01*
X590126Y960500D01*
Y1035500D01*
X585664Y1057935D01*
X572955Y1076955D01*
X553935Y1089664D01*
X531500Y1094126D01*
D02*
G37*
G36*
X237500D02*
X122500D01*
X100065Y1089664D01*
X81045Y1076955D01*
X68337Y1057935D01*
X63874Y1035500D01*
Y960500D01*
X68337Y938065D01*
X81045Y919045D01*
X100065Y906337D01*
X122500Y901874D01*
X237500D01*
X259935Y906337D01*
X278955Y919045D01*
X291664Y938065D01*
X296126Y960500D01*
Y1035500D01*
X291664Y1057935D01*
X278955Y1076955D01*
X259935Y1089664D01*
X237500Y1094126D01*
D02*
G37*
G36*
X1811065Y895980D02*
X1791556Y892100D01*
X1775017Y881049D01*
X1764250Y864935D01*
X1759719Y864194D01*
X1753579Y863736D01*
X1748639Y864342D01*
X1738208Y879954D01*
X1721669Y891005D01*
X1702160Y894885D01*
X1682651Y891005D01*
X1666112Y879954D01*
X1655061Y863415D01*
X1651180Y843906D01*
X1655061Y824397D01*
X1666112Y807858D01*
X1682651Y796807D01*
X1702160Y792926D01*
X1721669Y796807D01*
X1738208Y807858D01*
X1748974Y823971D01*
X1753505Y824713D01*
X1759645Y825170D01*
X1764586Y824564D01*
X1775017Y808953D01*
X1791556Y797902D01*
X1811065Y794021D01*
X1830574Y797902D01*
X1847113Y808953D01*
X1858164Y825492D01*
X1862044Y845001D01*
X1858164Y864510D01*
X1847113Y881049D01*
X1830574Y892100D01*
X1811065Y895980D01*
D02*
G37*
G36*
X2140000Y900980D02*
X2120491Y897099D01*
X2103952Y886048D01*
X2092901Y869509D01*
X2089020Y850000D01*
X2092901Y830491D01*
X2103952Y813952D01*
X2120491Y802901D01*
X2140000Y799021D01*
X2159509Y802901D01*
X2176048Y813952D01*
X2187099Y830491D01*
X2190980Y850000D01*
X2187099Y869509D01*
X2176048Y886048D01*
X2159509Y897099D01*
X2140000Y900980D01*
D02*
G37*
G36*
X1390000Y800980D02*
X1370491Y797099D01*
X1353952Y786048D01*
X1342901Y769509D01*
X1339020Y750000D01*
X1340576Y742181D01*
X1327819Y729424D01*
X1320000Y730979D01*
X1300491Y727099D01*
X1283952Y716048D01*
X1272901Y699509D01*
X1269020Y680000D01*
X1272901Y660491D01*
X1283952Y643952D01*
X1300491Y632901D01*
X1320000Y629020D01*
X1339509Y632901D01*
X1356048Y643952D01*
X1367099Y660491D01*
X1370979Y680000D01*
X1369424Y687819D01*
X1382181Y700576D01*
X1390000Y699020D01*
X1409509Y702901D01*
X1426048Y713952D01*
X1437099Y730491D01*
X1440980Y750000D01*
X1437099Y769509D01*
X1426048Y786048D01*
X1409509Y797099D01*
X1390000Y800980D01*
D02*
G37*
G36*
X531500Y840126D02*
X416500D01*
X394065Y835664D01*
X375045Y822955D01*
X362337Y803935D01*
X357874Y781500D01*
Y706500D01*
X362337Y684065D01*
X375045Y665045D01*
X394065Y652337D01*
X416500Y647874D01*
X531500D01*
X553935Y652337D01*
X572955Y665045D01*
X585664Y684065D01*
X590126Y706500D01*
Y781500D01*
X585664Y803935D01*
X572955Y822955D01*
X553935Y835664D01*
X531500Y840126D01*
D02*
G37*
G36*
X237500D02*
X122500D01*
X100065Y835664D01*
X81045Y822955D01*
X68337Y803935D01*
X63874Y781500D01*
Y706500D01*
X68337Y684065D01*
X81045Y665045D01*
X100065Y652337D01*
X122500Y647874D01*
X237500D01*
X259935Y652337D01*
X278955Y665045D01*
X291664Y684065D01*
X296126Y706500D01*
Y781500D01*
X291664Y803935D01*
X278955Y822955D01*
X259935Y835664D01*
X237500Y840126D01*
D02*
G37*
G36*
X2148934Y675980D02*
X2129426Y672099D01*
X2112887Y661048D01*
X2101836Y644509D01*
X2097955Y625000D01*
X2101836Y605491D01*
X2112887Y588952D01*
X2129426Y577901D01*
X2148934Y574020D01*
X2168443Y577901D01*
X2184982Y588952D01*
X2196033Y605491D01*
X2199914Y625000D01*
X2196033Y644509D01*
X2184982Y661048D01*
X2168443Y672099D01*
X2148934Y675980D01*
D02*
G37*
G36*
X1710000Y670980D02*
X1690491Y667099D01*
X1673952Y656048D01*
X1662901Y639509D01*
X1659020Y620000D01*
X1662901Y600491D01*
X1673952Y583952D01*
X1690491Y572901D01*
X1710000Y569020D01*
X1729509Y572901D01*
X1746048Y583952D01*
X1757099Y600491D01*
X1760979Y620000D01*
X1757099Y639509D01*
X1746048Y656048D01*
X1729509Y667099D01*
X1710000Y670980D01*
D02*
G37*
G36*
X1910991Y665905D02*
X1891482Y662025D01*
X1874943Y650974D01*
X1863892Y634435D01*
X1860012Y614926D01*
X1863892Y595417D01*
X1874943Y578878D01*
X1891482Y567827D01*
X1910991Y563946D01*
X1930500Y567827D01*
X1947039Y578878D01*
X1958090Y595417D01*
X1961971Y614926D01*
X1958090Y634435D01*
X1947039Y650974D01*
X1930500Y662025D01*
X1910991Y665905D01*
D02*
G37*
G36*
X531500Y586126D02*
X416500D01*
X394065Y581664D01*
X375045Y568955D01*
X362337Y549935D01*
X357874Y527500D01*
Y452500D01*
X362337Y430065D01*
X375045Y411045D01*
X394065Y398337D01*
X416500Y393874D01*
X531500D01*
X553935Y398337D01*
X572955Y411045D01*
X585664Y430065D01*
X590126Y452500D01*
Y527500D01*
X585664Y549935D01*
X572955Y568955D01*
X553935Y581664D01*
X531500Y586126D01*
D02*
G37*
G36*
X237500D02*
X122500D01*
X100065Y581664D01*
X81045Y568955D01*
X68337Y549935D01*
X63874Y527500D01*
Y452500D01*
X68337Y430065D01*
X81045Y411045D01*
X100065Y398337D01*
X122500Y393874D01*
X237500D01*
X259935Y398337D01*
X278955Y411045D01*
X291664Y430065D01*
X296126Y452500D01*
Y527500D01*
X291664Y549935D01*
X278955Y568955D01*
X259935Y581664D01*
X237500Y586126D01*
D02*
G37*
G36*
X1480000Y450980D02*
X1460491Y447099D01*
X1443952Y436048D01*
X1432901Y419509D01*
X1429021Y400000D01*
X1432901Y380491D01*
X1443952Y363952D01*
X1460491Y352901D01*
X1480000Y349020D01*
X1499509Y352901D01*
X1516048Y363952D01*
X1527099Y380491D01*
X1530980Y400000D01*
X1527099Y419509D01*
X1516048Y436048D01*
X1499509Y447099D01*
X1480000Y450980D01*
D02*
G37*
G36*
X990000D02*
X970491Y447099D01*
X953952Y436048D01*
X942901Y419509D01*
X939020Y400000D01*
X942901Y380491D01*
X953952Y363952D01*
X970491Y352901D01*
X990000Y349020D01*
X1009509Y352901D01*
X1026048Y363952D01*
X1037099Y380491D01*
X1040980Y400000D01*
X1037099Y419509D01*
X1026048Y436048D01*
X1009509Y447099D01*
X990000Y450980D01*
D02*
G37*
G36*
X2290000Y530980D02*
X2270491Y527099D01*
X2253952Y516048D01*
X2242901Y499509D01*
X2239020Y480000D01*
X2242901Y460491D01*
X2253952Y443952D01*
X2270491Y432901D01*
X2290000Y429020D01*
X2299109Y430832D01*
X2308129Y417333D01*
X2302901Y409509D01*
X2299021Y390000D01*
X2302901Y370491D01*
X2313952Y353952D01*
X2330491Y342901D01*
X2350000Y339020D01*
X2369509Y342901D01*
X2386048Y353952D01*
X2397099Y370491D01*
X2400980Y390000D01*
X2397099Y409509D01*
X2386048Y426048D01*
X2369509Y437099D01*
X2350000Y440980D01*
X2340891Y439168D01*
X2331871Y452667D01*
X2337099Y460491D01*
X2340980Y480000D01*
X2337099Y499509D01*
X2326048Y516048D01*
X2309509Y527099D01*
X2290000Y530980D01*
D02*
G37*
G36*
X1890000Y430980D02*
X1870491Y427099D01*
X1853952Y416048D01*
X1842901Y399509D01*
X1839020Y380000D01*
X1842901Y360491D01*
X1853952Y343952D01*
X1870491Y332901D01*
X1890000Y329020D01*
X1909509Y332901D01*
X1926048Y343952D01*
X1937099Y360491D01*
X1940980Y380000D01*
X1937099Y399509D01*
X1926048Y416048D01*
X1909509Y427099D01*
X1890000Y430980D01*
D02*
G37*
G36*
X2100000Y400980D02*
X2080491Y397099D01*
X2063952Y386048D01*
X2052901Y369509D01*
X2049021Y350000D01*
X2052901Y330491D01*
X2063952Y313952D01*
X2080491Y302901D01*
X2100000Y299020D01*
X2119509Y302901D01*
X2136048Y313952D01*
X2147099Y330491D01*
X2150980Y350000D01*
X2147099Y369509D01*
X2136048Y386048D01*
X2119509Y397099D01*
X2100000Y400980D01*
D02*
G37*
G36*
X237500Y337632D02*
X192700D01*
Y248700D01*
X301632D01*
Y273500D01*
X296750Y298042D01*
X282848Y318848D01*
X262042Y332750D01*
X237500Y337632D01*
D02*
G37*
G36*
X2470000Y320980D02*
X2450491Y317099D01*
X2433952Y306048D01*
X2422901Y289509D01*
X2419020Y270000D01*
X2422901Y250491D01*
X2433952Y233952D01*
X2450491Y222901D01*
X2470000Y219020D01*
X2489509Y222901D01*
X2506048Y233952D01*
X2517099Y250491D01*
X2520979Y270000D01*
X2517099Y289509D01*
X2506048Y306048D01*
X2489509Y317099D01*
X2470000Y320980D01*
D02*
G37*
G36*
X1710000Y280980D02*
X1690491Y277099D01*
X1673952Y266048D01*
X1662901Y249509D01*
X1659020Y230000D01*
X1662901Y210491D01*
X1673952Y193952D01*
X1690491Y182901D01*
X1710000Y179020D01*
X1729509Y182901D01*
X1746048Y193952D01*
X1757099Y210491D01*
X1760979Y230000D01*
X1757099Y249509D01*
X1746048Y266048D01*
X1729509Y277099D01*
X1710000Y280980D01*
D02*
G37*
G36*
X1201480Y280683D02*
X1181971Y276803D01*
X1165433Y265752D01*
X1154381Y249213D01*
X1150501Y229704D01*
X1154381Y210195D01*
X1165433Y193656D01*
X1181971Y182605D01*
X1201480Y178724D01*
X1220989Y182605D01*
X1237528Y193656D01*
X1248579Y210195D01*
X1252460Y229704D01*
X1248579Y249213D01*
X1237528Y265752D01*
X1220989Y276803D01*
X1201480Y280683D01*
D02*
G37*
G36*
X531500Y332126D02*
X416500D01*
X394065Y327664D01*
X375045Y314955D01*
X362337Y295935D01*
X357874Y273500D01*
Y198500D01*
X362337Y176065D01*
X375045Y157045D01*
X394065Y144337D01*
X416500Y139874D01*
X531500D01*
X553935Y144337D01*
X572955Y157045D01*
X585664Y176065D01*
X590126Y198500D01*
Y273500D01*
X585664Y295935D01*
X572955Y314955D01*
X553935Y327664D01*
X531500Y332126D01*
D02*
G37*
G36*
X301632Y223300D02*
X192700D01*
Y134368D01*
X237500D01*
X262042Y139250D01*
X282848Y153152D01*
X296750Y173958D01*
X301632Y198500D01*
Y223300D01*
D02*
G37*
G36*
X1970000Y220979D02*
X1950491Y217099D01*
X1933952Y206048D01*
X1922901Y189509D01*
X1919021Y170000D01*
X1922901Y150491D01*
X1933952Y133952D01*
X1950491Y122901D01*
X1970000Y119020D01*
X1989509Y122901D01*
X2006048Y133952D01*
X2017099Y150491D01*
X2020980Y170000D01*
X2017099Y189509D01*
X2006048Y206048D01*
X1989509Y217099D01*
X1970000Y220979D01*
D02*
G37*
G36*
X949998Y220979D02*
X930489Y217099D01*
X913950Y206048D01*
X902899Y189509D01*
X899019Y170000D01*
X902899Y150491D01*
X913950Y133952D01*
X930489Y122901D01*
X949998Y119020D01*
X969507Y122901D01*
X986046Y133952D01*
X997097Y150491D01*
X1000978Y170000D01*
X997097Y189509D01*
X986046Y206048D01*
X969507Y217099D01*
X949998Y220979D01*
D02*
G37*
G36*
X2220000Y160980D02*
X2200491Y157099D01*
X2183952Y146048D01*
X2172901Y129509D01*
X2169020Y110000D01*
X2172901Y90491D01*
X2183952Y73952D01*
X2200491Y62901D01*
X2220000Y59020D01*
X2239509Y62901D01*
X2256048Y73952D01*
X2267099Y90491D01*
X2270979Y110000D01*
X2267099Y129509D01*
X2256048Y146048D01*
X2239509Y157099D01*
X2220000Y160980D01*
D02*
G37*
G36*
X1450000D02*
X1430491Y157099D01*
X1413952Y146048D01*
X1402901Y129509D01*
X1399020Y110000D01*
X1402901Y90491D01*
X1413952Y73952D01*
X1430491Y62901D01*
X1450000Y59020D01*
X1469509Y62901D01*
X1486048Y73952D01*
X1497099Y90491D01*
X1500979Y110000D01*
X1497099Y129509D01*
X1486048Y146048D01*
X1469509Y157099D01*
X1450000Y160980D01*
D02*
G37*
G36*
X2663378Y1906868D02*
X2614008D01*
X2640020D01*
X2638215Y1906815D01*
X2636464Y1906656D01*
X2634818Y1906391D01*
X2633225Y1906072D01*
X2631792Y1905701D01*
X2630412Y1905276D01*
X2629138Y1904798D01*
X2628023Y1904320D01*
X2627014Y1903843D01*
X2626059Y1903365D01*
X2625316Y1902940D01*
X2624625Y1902568D01*
X2624148Y1902250D01*
X2623776Y1901985D01*
X2623511Y1901825D01*
X2623458Y1901772D01*
X2622290Y1900764D01*
X2621228Y1899596D01*
X2620272Y1898375D01*
X2619476Y1897048D01*
X2618733Y1895667D01*
X2618096Y1894287D01*
X2617565Y1892907D01*
X2617087Y1891527D01*
X2616716Y1890253D01*
X2616397Y1889032D01*
X2616132Y1887970D01*
X2615972Y1887014D01*
X2615813Y1886218D01*
X2615760Y1885899D01*
X2615707Y1885634D01*
Y1885422D01*
X2615654Y1885262D01*
Y1885156D01*
Y1885103D01*
X2629669Y1883723D01*
X2629775Y1884838D01*
X2629881Y1885846D01*
X2630093Y1886802D01*
X2630306Y1887704D01*
X2630518Y1888501D01*
X2630783Y1889244D01*
X2631049Y1889881D01*
X2631314Y1890465D01*
X2631580Y1890943D01*
X2631792Y1891367D01*
X2632004Y1891739D01*
X2632217Y1892004D01*
X2632376Y1892270D01*
X2632535Y1892429D01*
X2632588Y1892482D01*
X2632641Y1892535D01*
X2633172Y1893013D01*
X2633703Y1893438D01*
X2634287Y1893756D01*
X2634818Y1894075D01*
X2636039Y1894552D01*
X2637154Y1894871D01*
X2638162Y1895030D01*
X2638587Y1895136D01*
X2638959D01*
X2639277Y1895190D01*
X2639702D01*
X2640498Y1895136D01*
X2641294Y1895083D01*
X2642675Y1894818D01*
X2643896Y1894393D01*
X2644904Y1893915D01*
X2645276Y1893703D01*
X2645647Y1893438D01*
X2645966Y1893225D01*
X2646231Y1893066D01*
X2646444Y1892854D01*
X2646603Y1892748D01*
X2646656Y1892694D01*
X2646709Y1892641D01*
X2647134Y1892164D01*
X2647559Y1891580D01*
X2648196Y1890465D01*
X2648620Y1889244D01*
X2648939Y1888076D01*
X2649151Y1887014D01*
X2649204Y1886590D01*
Y1886218D01*
X2649257Y1885846D01*
Y1885634D01*
Y1885475D01*
Y1885422D01*
X2649204Y1884625D01*
X2649151Y1883829D01*
X2648780Y1882237D01*
X2648355Y1880803D01*
X2647824Y1879476D01*
X2647505Y1878892D01*
X2647240Y1878361D01*
X2647028Y1877937D01*
X2646815Y1877512D01*
X2646603Y1877193D01*
X2646444Y1876981D01*
X2646391Y1876822D01*
X2646338Y1876769D01*
X2645860Y1876132D01*
X2645223Y1875335D01*
X2644480Y1874486D01*
X2643577Y1873584D01*
X2642675Y1872575D01*
X2641666Y1871619D01*
X2639702Y1869602D01*
X2638693Y1868647D01*
X2637791Y1867744D01*
X2636941Y1866948D01*
X2636198Y1866205D01*
X2635561Y1865621D01*
X2635083Y1865143D01*
X2634765Y1864877D01*
X2634712Y1864824D01*
X2634659Y1864771D01*
X2632535Y1862754D01*
X2630571Y1860843D01*
X2628819Y1859091D01*
X2627174Y1857392D01*
X2625740Y1855800D01*
X2624413Y1854366D01*
X2623298Y1853039D01*
X2622290Y1851818D01*
X2621440Y1850757D01*
X2620697Y1849801D01*
X2620060Y1849005D01*
X2619582Y1848368D01*
X2619264Y1847837D01*
X2618998Y1847465D01*
X2618839Y1847200D01*
X2618786Y1847147D01*
X2618096Y1845873D01*
X2617459Y1844652D01*
X2616875Y1843378D01*
X2616344Y1842157D01*
X2615919Y1840936D01*
X2615548Y1839821D01*
X2615176Y1838706D01*
X2614911Y1837644D01*
X2614645Y1836689D01*
X2614486Y1835839D01*
X2614327Y1835043D01*
X2614221Y1834406D01*
X2614114Y1833875D01*
X2614061Y1833450D01*
X2614008Y1833238D01*
Y1833132D01*
X2663378D01*
Y1850491D01*
Y1846191D01*
X2635349D01*
X2635773Y1846881D01*
X2636251Y1847571D01*
X2636729Y1848261D01*
X2637207Y1848845D01*
X2637578Y1849323D01*
X2637950Y1849748D01*
X2638162Y1849960D01*
X2638215Y1850066D01*
X2638587Y1850491D01*
X2639118Y1851022D01*
X2639649Y1851553D01*
X2640286Y1852190D01*
X2641719Y1853517D01*
X2643152Y1854897D01*
X2643843Y1855534D01*
X2644480Y1856171D01*
X2645117Y1856702D01*
X2645647Y1857180D01*
X2646072Y1857605D01*
X2646444Y1857923D01*
X2646656Y1858135D01*
X2646709Y1858189D01*
X2647930Y1859303D01*
X2649045Y1860365D01*
X2650054Y1861321D01*
X2650956Y1862223D01*
X2651805Y1863072D01*
X2652549Y1863869D01*
X2653239Y1864559D01*
X2653823Y1865196D01*
X2654354Y1865727D01*
X2654778Y1866205D01*
X2655150Y1866629D01*
X2655468Y1867001D01*
X2655681Y1867266D01*
X2655840Y1867426D01*
X2655893Y1867532D01*
X2655946Y1867585D01*
X2657273Y1869390D01*
X2658441Y1871088D01*
X2659397Y1872681D01*
X2659821Y1873424D01*
X2660193Y1874114D01*
X2660512Y1874698D01*
X2660777Y1875282D01*
X2661042Y1875760D01*
X2661255Y1876132D01*
X2661361Y1876503D01*
X2661467Y1876716D01*
X2661573Y1876875D01*
Y1876928D01*
X2662157Y1878627D01*
X2662635Y1880325D01*
X2662954Y1881918D01*
X2663166Y1883351D01*
X2663219Y1883988D01*
X2663272Y1884572D01*
X2663325Y1885103D01*
X2663378Y1885528D01*
Y1886377D01*
X2663325Y1887970D01*
X2663113Y1889509D01*
X2662794Y1890996D01*
X2662423Y1892376D01*
X2661945Y1893650D01*
X2661414Y1894871D01*
X2660830Y1895933D01*
X2660246Y1896941D01*
X2659662Y1897844D01*
X2659078Y1898693D01*
X2658547Y1899330D01*
X2658070Y1899914D01*
X2657698Y1900392D01*
X2657379Y1900710D01*
X2657167Y1900923D01*
X2657114Y1900976D01*
X2655893Y1902038D01*
X2654619Y1902940D01*
X2653239Y1903683D01*
X2651805Y1904373D01*
X2650425Y1904957D01*
X2648992Y1905435D01*
X2647559Y1905807D01*
X2646231Y1906125D01*
X2644957Y1906391D01*
X2643789Y1906550D01*
X2642728Y1906709D01*
X2641825Y1906762D01*
X2641082Y1906815D01*
X2640498Y1906868D01*
X2663378D01*
D02*
G37*
G36*
X2571433Y1905966D02*
X2556622D01*
Y1833132D01*
X2608328D01*
Y1845873D01*
Y1845554D01*
X2571433D01*
Y1905966D01*
D02*
G37*
%LPD*%
D22*
X2407500Y1942500D02*
X2942500D01*
Y1797500D02*
Y1942500D01*
X2407500Y1797500D02*
X2942500D01*
X2407500D02*
Y1942500D01*
D27*
X1637500Y1560000D02*
D03*
X2097500D02*
D03*
D28*
X1450000Y1860000D02*
D03*
X2285000D02*
D03*
D29*
X1811065Y845001D02*
D03*
X1810000Y960000D02*
D03*
X1706116Y1068616D02*
D03*
X1918935Y965000D02*
D03*
X1702160Y843906D02*
D03*
X1710000Y620000D02*
D03*
X1910991Y614926D02*
D03*
X1698204Y967500D02*
D03*
X1591117Y1065052D02*
D03*
X1819996Y1069998D02*
D03*
X1921065Y1175000D02*
D03*
X2350000Y1280000D02*
D03*
X2290000Y480000D02*
D03*
X2350000Y390000D02*
D03*
X2300000Y1350000D02*
D03*
X2250000Y1510000D02*
D03*
X2365000Y1171065D02*
D03*
X2159996Y1049998D02*
D03*
X1229998Y1369997D02*
D03*
X1310000Y1370000D02*
D03*
X2119996Y1359997D02*
D03*
X1309997Y759998D02*
D03*
X1390000Y750000D02*
D03*
X1320000Y680000D02*
D03*
X1129998Y1099998D02*
D03*
X1180000Y1160000D02*
D03*
X2144642Y1170708D02*
D03*
X1930000Y1060000D02*
D03*
X2026435Y1272500D02*
D03*
X1170000Y1450000D02*
D03*
X1150000Y1020000D02*
D03*
X970000D02*
D03*
X2148934Y625000D02*
D03*
X1890000Y380000D02*
D03*
X1480000Y400000D02*
D03*
X949998Y170000D02*
D03*
X2490000Y170000D02*
D03*
X727797Y490264D02*
D03*
X970000Y1140000D02*
D03*
X965000Y1445000D02*
D03*
X1470000Y1520000D02*
D03*
X2000000Y1710000D02*
D03*
X2620000Y568944D02*
D03*
X830000Y1870000D02*
D03*
X990000Y400000D02*
D03*
X2060000Y1045000D02*
D03*
X1201480Y229704D02*
D03*
X2100000Y350000D02*
D03*
X2351856Y966607D02*
D03*
X2353986Y1077394D02*
D03*
X1970000Y170000D02*
D03*
X1710000Y230000D02*
D03*
X2220000Y110000D02*
D03*
X1450000D02*
D03*
X2470000Y270000D02*
D03*
X2140000Y850000D02*
D03*
D30*
X474000Y236000D02*
D03*
Y490000D02*
D03*
Y744000D02*
D03*
Y998000D02*
D03*
Y1252000D02*
D03*
Y1506000D02*
D03*
Y1760000D02*
D03*
X180000Y236000D02*
D03*
Y490000D02*
D03*
Y744000D02*
D03*
Y998000D02*
D03*
Y1252000D02*
D03*
Y1506000D02*
D03*
Y1760000D02*
D03*
%TF.MD5,8f4f16f088327ab0050f7ab67e734da9*%
M02*
