%TF.GenerationSoftware,Altium Limited,Altium Designer,20.2.6 (244)*%
G04 Layer_Color=16711935*
%FSLAX45Y45*%
%MOMM*%
%TF.SameCoordinates,9E4D4D7D-1FFC-428C-BB03-7E89B6F1CBBC*%
%TF.FilePolarity,Negative*%
%TF.FileFunction,Soldermask,Bot*%
%TF.Part,Single*%
G01*
G75*
%TA.AperFunction,NonConductor*%
%ADD87R,5.40000X1.50000*%
%TA.AperFunction,SMDPad,CuDef*%
G04:AMPARAMS|DCode=88|XSize=1.55mm|YSize=2.35mm|CornerRadius=0.425mm|HoleSize=0mm|Usage=FLASHONLY|Rotation=0.000|XOffset=0mm|YOffset=0mm|HoleType=Round|Shape=RoundedRectangle|*
%AMROUNDEDRECTD88*
21,1,1.55000,1.50000,0,0,0.0*
21,1,0.70000,2.35000,0,0,0.0*
1,1,0.85000,0.35000,-0.75000*
1,1,0.85000,-0.35000,-0.75000*
1,1,0.85000,-0.35000,0.75000*
1,1,0.85000,0.35000,0.75000*
%
%ADD88ROUNDEDRECTD88*%
G04:AMPARAMS|DCode=89|XSize=1.55mm|YSize=2.35mm|CornerRadius=0mm|HoleSize=0mm|Usage=FLASHONLY|Rotation=0.000|XOffset=0mm|YOffset=0mm|HoleType=Round|Shape=Octagon|*
%AMOCTAGOND89*
4,1,8,-0.38750,1.17500,0.38750,1.17500,0.77500,0.78750,0.77500,-0.78750,0.38750,-1.17500,-0.38750,-1.17500,-0.77500,-0.78750,-0.77500,0.78750,-0.38750,1.17500,0.0*
%
%ADD89OCTAGOND89*%

%TA.AperFunction,ComponentPad*%
G04:AMPARAMS|DCode=90|XSize=1.85mm|YSize=2.25mm|CornerRadius=0.5mm|HoleSize=0mm|Usage=FLASHONLY|Rotation=270.000|XOffset=0mm|YOffset=0mm|HoleType=Round|Shape=RoundedRectangle|*
%AMROUNDEDRECTD90*
21,1,1.85000,1.25001,0,0,270.0*
21,1,0.85000,2.25000,0,0,270.0*
1,1,1.00000,-0.62500,-0.42500*
1,1,1.00000,-0.62500,0.42500*
1,1,1.00000,0.62500,0.42500*
1,1,1.00000,0.62500,-0.42500*
%
%ADD90ROUNDEDRECTD90*%
G04:AMPARAMS|DCode=91|XSize=1.85mm|YSize=2.25mm|CornerRadius=0mm|HoleSize=0mm|Usage=FLASHONLY|Rotation=270.000|XOffset=0mm|YOffset=0mm|HoleType=Round|Shape=Octagon|*
%AMOCTAGOND91*
4,1,8,1.12500,0.46250,1.12500,-0.46250,0.66250,-0.92500,-0.66250,-0.92500,-1.12500,-0.46250,-1.12500,0.46250,-0.66250,0.92500,0.66250,0.92500,1.12500,0.46250,0.0*
%
%ADD91OCTAGOND91*%

G04:AMPARAMS|DCode=92|XSize=1.25mm|YSize=1.35mm|CornerRadius=0.35mm|HoleSize=0mm|Usage=FLASHONLY|Rotation=180.000|XOffset=0mm|YOffset=0mm|HoleType=Round|Shape=RoundedRectangle|*
%AMROUNDEDRECTD92*
21,1,1.25000,0.65000,0,0,180.0*
21,1,0.55000,1.35000,0,0,180.0*
1,1,0.70000,-0.27500,0.32500*
1,1,0.70000,0.27500,0.32500*
1,1,0.70000,0.27500,-0.32500*
1,1,0.70000,-0.27500,-0.32500*
%
%ADD92ROUNDEDRECTD92*%
G04:AMPARAMS|DCode=93|XSize=2.05mm|YSize=2.05mm|CornerRadius=0.55mm|HoleSize=0mm|Usage=FLASHONLY|Rotation=180.000|XOffset=0mm|YOffset=0mm|HoleType=Round|Shape=RoundedRectangle|*
%AMROUNDEDRECTD93*
21,1,2.05000,0.95000,0,0,180.0*
21,1,0.95000,2.05000,0,0,180.0*
1,1,1.10000,-0.47500,0.47500*
1,1,1.10000,0.47500,0.47500*
1,1,1.10000,0.47500,-0.47500*
1,1,1.10000,-0.47500,-0.47500*
%
%ADD93ROUNDEDRECTD93*%
G36*
X2956752Y1781795D02*
X2956752Y1195285D01*
X2445895Y1195286D01*
X2445896Y1781796D01*
X2956752Y1781795D01*
D02*
G37*
D87*
X2675000Y1870000D02*
D03*
D88*
X1334000Y170000D02*
D03*
X2350000D02*
D03*
X1080000D02*
D03*
X2096000D02*
D03*
X1842000D02*
D03*
X2604000D02*
D03*
X1588000D02*
D03*
D89*
X826000D02*
D03*
D90*
X474000Y236000D02*
D03*
Y490000D02*
D03*
Y744000D02*
D03*
Y998000D02*
D03*
Y1252000D02*
D03*
Y1506000D02*
D03*
Y1760000D02*
D03*
X180000Y236000D02*
D03*
Y490000D02*
D03*
Y744000D02*
D03*
Y998000D02*
D03*
Y1252000D02*
D03*
Y1506000D02*
D03*
D91*
Y1760000D02*
D03*
D92*
X1637500Y1560000D02*
D03*
X2097500D02*
D03*
D93*
X1450000Y1860000D02*
D03*
X2285000D02*
D03*
%TF.MD5,6b753f979b1de5ef011d4bee706cefce*%
M02*
