%TF.GenerationSoftware,Altium Limited,Altium Designer,21.5.1 (32)*%
G04 Layer_Physical_Order=2*
G04 Layer_Color=36540*
%FSLAX45Y45*%
%MOMM*%
%TF.SameCoordinates,6D93875A-9943-4EB1-8E24-321CDD5DE8D5*%
%TF.FilePolarity,Positive*%
%TF.FileFunction,Copper,L2,Inr,Signal*%
%TF.Part,Single*%
G01*
G75*
%TA.AperFunction,ComponentPad*%
G04:AMPARAMS|DCode=90|XSize=5mm|YSize=5mm|CornerRadius=1mm|HoleSize=0mm|Usage=FLASHONLY|Rotation=0.000|XOffset=0mm|YOffset=0mm|HoleType=Round|Shape=RoundedRectangle|*
%AMROUNDEDRECTD90*
21,1,5.00000,3.00000,0,0,0.0*
21,1,3.00000,5.00000,0,0,0.0*
1,1,2.00000,1.50000,-1.50000*
1,1,2.00000,-1.50000,-1.50000*
1,1,2.00000,-1.50000,1.50000*
1,1,2.00000,1.50000,1.50000*
%
%ADD90ROUNDEDRECTD90*%
G04:AMPARAMS|DCode=91|XSize=2.2mm|YSize=2.2mm|CornerRadius=0.55mm|HoleSize=0mm|Usage=FLASHONLY|Rotation=270.000|XOffset=0mm|YOffset=0mm|HoleType=Round|Shape=RoundedRectangle|*
%AMROUNDEDRECTD91*
21,1,2.20000,1.10000,0,0,270.0*
21,1,1.10000,2.20000,0,0,270.0*
1,1,1.10000,-0.55000,-0.55000*
1,1,1.10000,-0.55000,0.55000*
1,1,1.10000,0.55000,0.55000*
1,1,1.10000,0.55000,-0.55000*
%
%ADD91ROUNDEDRECTD91*%
G04:AMPARAMS|DCode=92|XSize=2.2mm|YSize=2.2mm|CornerRadius=0mm|HoleSize=0mm|Usage=FLASHONLY|Rotation=270.000|XOffset=0mm|YOffset=0mm|HoleType=Round|Shape=Octagon|*
%AMOCTAGOND92*
4,1,8,-0.55000,-1.10000,0.55000,-1.10000,1.10000,-0.55000,1.10000,0.55000,0.55000,1.10000,-0.55000,1.10000,-1.10000,0.55000,-1.10000,-0.55000,-0.55000,-1.10000,0.0*
%
%ADD92OCTAGOND92*%

%TA.AperFunction,ViaPad*%
%ADD93C,0.60000*%
%ADD94C,1.20000*%
%ADD95C,1.10000*%
%TA.AperFunction,ComponentPad*%
G04:AMPARAMS|DCode=96|XSize=1.5mm|YSize=1.9mm|CornerRadius=0.375mm|HoleSize=0mm|Usage=FLASHONLY|Rotation=270.000|XOffset=0mm|YOffset=0mm|HoleType=Round|Shape=RoundedRectangle|*
%AMROUNDEDRECTD96*
21,1,1.50000,1.15000,0,0,270.0*
21,1,0.75000,1.90000,0,0,270.0*
1,1,0.75000,-0.57500,-0.37500*
1,1,0.75000,-0.57500,0.37500*
1,1,0.75000,0.57500,0.37500*
1,1,0.75000,0.57500,-0.37500*
%
%ADD96ROUNDEDRECTD96*%
G04:AMPARAMS|DCode=97|XSize=1.5mm|YSize=1.9mm|CornerRadius=0.375mm|HoleSize=0mm|Usage=FLASHONLY|Rotation=0.000|XOffset=0mm|YOffset=0mm|HoleType=Round|Shape=RoundedRectangle|*
%AMROUNDEDRECTD97*
21,1,1.50000,1.15000,0,0,0.0*
21,1,0.75000,1.90000,0,0,0.0*
1,1,0.75000,0.37500,-0.57500*
1,1,0.75000,-0.37500,-0.57500*
1,1,0.75000,-0.37500,0.57500*
1,1,0.75000,0.37500,0.57500*
%
%ADD97ROUNDEDRECTD97*%
G04:AMPARAMS|DCode=98|XSize=3.6mm|YSize=3.6mm|CornerRadius=0.54mm|HoleSize=0mm|Usage=FLASHONLY|Rotation=0.000|XOffset=0mm|YOffset=0mm|HoleType=Round|Shape=RoundedRectangle|*
%AMROUNDEDRECTD98*
21,1,3.60000,2.52000,0,0,0.0*
21,1,2.52000,3.60000,0,0,0.0*
1,1,1.08000,1.26000,-1.26000*
1,1,1.08000,-1.26000,-1.26000*
1,1,1.08000,-1.26000,1.26000*
1,1,1.08000,1.26000,1.26000*
%
%ADD98ROUNDEDRECTD98*%
G36*
X7493002Y5417006D02*
Y5417006D01*
X7507894Y5416745D01*
X7534640Y5415242D01*
X7538805Y5399985D01*
X7533836Y5396664D01*
X7518917Y5374337D01*
X7513678Y5348000D01*
Y5233000D01*
X7518917Y5206663D01*
X7533836Y5184336D01*
X7556163Y5169417D01*
X7582500Y5164178D01*
X7657500D01*
X7683837Y5169417D01*
X7706164Y5184336D01*
X7721083Y5206663D01*
X7726322Y5233000D01*
Y5348000D01*
X7721083Y5374337D01*
X7717675Y5379438D01*
X7725832Y5392026D01*
X7737693Y5390011D01*
X7856187Y5355873D01*
X7892162Y5340972D01*
X7896631Y5322884D01*
X7888689Y5310999D01*
X7884032Y5287588D01*
X7888689Y5264177D01*
X7901950Y5244330D01*
X7921797Y5231069D01*
X7945208Y5226412D01*
X7968619Y5231069D01*
X7988465Y5244330D01*
X8001727Y5264177D01*
X8003500Y5273092D01*
X8020351Y5280918D01*
X8078040Y5249034D01*
X8178610Y5177676D01*
X8270558Y5095506D01*
X8352728Y5003559D01*
X8424085Y4902989D01*
X8483734Y4795062D01*
X8530925Y4681135D01*
X8565062Y4562641D01*
X8583960Y4451417D01*
X8570936Y4438753D01*
X8570825Y4438736D01*
X8561131Y4440664D01*
X8537720Y4436008D01*
X8533059Y4432893D01*
X8522245Y4443708D01*
X8523083Y4444963D01*
X8528322Y4471300D01*
Y4546300D01*
X8523083Y4572637D01*
X8508164Y4594964D01*
X8485837Y4609883D01*
X8459500Y4615122D01*
X8344500D01*
X8318163Y4609883D01*
X8295836Y4594964D01*
X8280917Y4572637D01*
X8275678Y4546300D01*
Y4471300D01*
X8280917Y4444963D01*
X8295836Y4422636D01*
X8318163Y4407717D01*
X8344500Y4402478D01*
X8459500D01*
X8485837Y4407717D01*
X8492978Y4412489D01*
X8502680Y4404492D01*
X8504456Y4402117D01*
X8499955Y4379489D01*
X8503396Y4362191D01*
X8489896Y4353171D01*
X8485837Y4355883D01*
X8459500Y4361122D01*
X8344500D01*
X8318163Y4355883D01*
X8295836Y4340964D01*
X8280917Y4318637D01*
X8275678Y4292300D01*
Y4217300D01*
X8280917Y4190963D01*
X8295836Y4168636D01*
X8318163Y4153717D01*
X8344500Y4148478D01*
X8430678D01*
X8440194Y4136883D01*
X8438825Y4130000D01*
X8441069Y4118717D01*
X8431553Y4107122D01*
X8344500D01*
X8318163Y4101883D01*
X8295836Y4086964D01*
X8280917Y4064637D01*
X8275678Y4038300D01*
Y3963300D01*
X8280917Y3936963D01*
X8295836Y3914636D01*
X8318163Y3899717D01*
X8344500Y3894478D01*
X8459500D01*
X8485837Y3899717D01*
X8508164Y3914636D01*
X8523083Y3936963D01*
X8528322Y3963300D01*
Y4038300D01*
X8524330Y4058370D01*
X8523411Y4073481D01*
X8543257Y4086743D01*
X8556519Y4106589D01*
X8561175Y4130000D01*
X8556519Y4153411D01*
X8543257Y4173258D01*
X8523411Y4186519D01*
X8525172Y4201463D01*
X8528322Y4217300D01*
Y4292300D01*
X8523984Y4314107D01*
X8536158Y4324014D01*
X8537720Y4322970D01*
X8561131Y4318313D01*
X8577406Y4321551D01*
X8577614Y4321532D01*
X8579625Y4321034D01*
X8590958Y4312181D01*
X8592056Y4310335D01*
Y1143246D01*
X8592006Y1142998D01*
X8592006D01*
X8591745Y1128106D01*
X8585667Y1019879D01*
X8565011Y898307D01*
X8530873Y779813D01*
X8483683Y665886D01*
X8424034Y557960D01*
X8352676Y457390D01*
X8270506Y365442D01*
X8178559Y283272D01*
X8145231Y259625D01*
X8129773Y267050D01*
X8126519Y283411D01*
X8113258Y303257D01*
X8093411Y316519D01*
X8070000Y321175D01*
X8046589Y316519D01*
X8026743Y303257D01*
X8013481Y283411D01*
X8008825Y260000D01*
X8013481Y236589D01*
X8026743Y216743D01*
X8039858Y207979D01*
X8039659Y190730D01*
X7970062Y152266D01*
X7856135Y105075D01*
X7737641Y70938D01*
X7732584Y70079D01*
X7724426Y82666D01*
X7725793Y84712D01*
X7731420Y113000D01*
Y157800D01*
X7508580D01*
Y113000D01*
X7514207Y84712D01*
X7530231Y60731D01*
X7531639Y59789D01*
X7527690Y45319D01*
X7495249Y43497D01*
X7493000Y43944D01*
X7457646D01*
X7453096Y58944D01*
X7455769Y60731D01*
X7471793Y84712D01*
X7477420Y113000D01*
Y157800D01*
X7254580D01*
Y113000D01*
X7260207Y84712D01*
X7276231Y60731D01*
X7278904Y58944D01*
X7274354Y43944D01*
X7194646D01*
X7190096Y58944D01*
X7198164Y64336D01*
X7213083Y86663D01*
X7218322Y113000D01*
Y228000D01*
X7213083Y254337D01*
X7198164Y276664D01*
X7175837Y291583D01*
X7149500Y296822D01*
X7074500D01*
X7048163Y291583D01*
X7025836Y276664D01*
X7010917Y254337D01*
X7005678Y228000D01*
Y113000D01*
X7010917Y86663D01*
X7025836Y64336D01*
X7033904Y58944D01*
X7029354Y43944D01*
X6940646D01*
X6936096Y58944D01*
X6944164Y64336D01*
X6959083Y86663D01*
X6964322Y113000D01*
Y228000D01*
X6959083Y254337D01*
X6944164Y276664D01*
X6921837Y291583D01*
X6895500Y296822D01*
X6820500D01*
X6794163Y291583D01*
X6771836Y276664D01*
X6756917Y254337D01*
X6751678Y228000D01*
Y113000D01*
X6756917Y86663D01*
X6771836Y64336D01*
X6779904Y58944D01*
X6775354Y43944D01*
X6686646D01*
X6682096Y58944D01*
X6690164Y64336D01*
X6705083Y86663D01*
X6710322Y113000D01*
Y228000D01*
X6705083Y254337D01*
X6690164Y276664D01*
X6667837Y291583D01*
X6641500Y296822D01*
X6566500D01*
X6540163Y291583D01*
X6517836Y276664D01*
X6502917Y254337D01*
X6497678Y228000D01*
Y113000D01*
X6502917Y86663D01*
X6517836Y64336D01*
X6525904Y58944D01*
X6521354Y43944D01*
X6432646D01*
X6428096Y58944D01*
X6436164Y64336D01*
X6451083Y86663D01*
X6456322Y113000D01*
Y228000D01*
X6451083Y254337D01*
X6436164Y276664D01*
X6413837Y291583D01*
X6387500Y296822D01*
X6312500D01*
X6286163Y291583D01*
X6263836Y276664D01*
X6248917Y254337D01*
X6243678Y228000D01*
Y113000D01*
X6248917Y86663D01*
X6263836Y64336D01*
X6271904Y58944D01*
X6267354Y43944D01*
X6178646D01*
X6174096Y58944D01*
X6182164Y64336D01*
X6197083Y86663D01*
X6202322Y113000D01*
Y228000D01*
X6197083Y254337D01*
X6182164Y276664D01*
X6159837Y291583D01*
X6133500Y296822D01*
X6058500D01*
X6032163Y291583D01*
X6009836Y276664D01*
X5994917Y254337D01*
X5989678Y228000D01*
Y113000D01*
X5994917Y86663D01*
X6009836Y64336D01*
X6017904Y58944D01*
X6013354Y43944D01*
X5924646D01*
X5920096Y58944D01*
X5928164Y64336D01*
X5943083Y86663D01*
X5948322Y113000D01*
Y228000D01*
X5943083Y254337D01*
X5928164Y276664D01*
X5905837Y291583D01*
X5879500Y296822D01*
X5804500D01*
X5778163Y291583D01*
X5755836Y276664D01*
X5740917Y254337D01*
X5735678Y228000D01*
Y113000D01*
X5740917Y86663D01*
X5755836Y64336D01*
X5763904Y58944D01*
X5759354Y43944D01*
X5670646D01*
X5666096Y58944D01*
X5674164Y64336D01*
X5689083Y86663D01*
X5694322Y113000D01*
Y228000D01*
X5689083Y254337D01*
X5674164Y276664D01*
X5651837Y291583D01*
X5625500Y296822D01*
X5550500D01*
X5524163Y291583D01*
X5501836Y276664D01*
X5486917Y254337D01*
X5481678Y228000D01*
Y113000D01*
X5486917Y86663D01*
X5501836Y64336D01*
X5509904Y58944D01*
X5505354Y43944D01*
X5416646D01*
X5412096Y58944D01*
X5420164Y64336D01*
X5435083Y86663D01*
X5440322Y113000D01*
Y228000D01*
X5435083Y254337D01*
X5420164Y276664D01*
X5397837Y291583D01*
X5371500Y296822D01*
X5296500D01*
X5270163Y291583D01*
X5247836Y276664D01*
X5232917Y254337D01*
X5227678Y228000D01*
Y113000D01*
X5232917Y86663D01*
X5247836Y64336D01*
X5255904Y58944D01*
X5251354Y43944D01*
X5162646D01*
X5158096Y58944D01*
X5166164Y64336D01*
X5181083Y86663D01*
X5186322Y113000D01*
Y228000D01*
X5181083Y254337D01*
X5166164Y276664D01*
X5143837Y291583D01*
X5117500Y296822D01*
X5042500D01*
X5016163Y291583D01*
X4993836Y276664D01*
X4978917Y254337D01*
X4973678Y228000D01*
Y113000D01*
X4978917Y86663D01*
X4993836Y64336D01*
X5001904Y58944D01*
X4997354Y43944D01*
X4908646D01*
X4904096Y58944D01*
X4912164Y64336D01*
X4927083Y86663D01*
X4932322Y113000D01*
Y228000D01*
X4927083Y254337D01*
X4912164Y276664D01*
X4889837Y291583D01*
X4863500Y296822D01*
X4788500D01*
X4762163Y291583D01*
X4739836Y276664D01*
X4724917Y254337D01*
X4719678Y228000D01*
Y113000D01*
X4724917Y86663D01*
X4739836Y64336D01*
X4747904Y58944D01*
X4743354Y43944D01*
X4654646D01*
X4650096Y58944D01*
X4658164Y64336D01*
X4673083Y86663D01*
X4678322Y113000D01*
Y228000D01*
X4673083Y254337D01*
X4658164Y276664D01*
X4635837Y291583D01*
X4609500Y296822D01*
X4534500D01*
X4508163Y291583D01*
X4485836Y276664D01*
X4470917Y254337D01*
X4465678Y228000D01*
Y113000D01*
X4470917Y86663D01*
X4485836Y64336D01*
X4493904Y58944D01*
X4489354Y43944D01*
X4400646D01*
X4396096Y58944D01*
X4404164Y64336D01*
X4419083Y86663D01*
X4424322Y113000D01*
Y228000D01*
X4419083Y254337D01*
X4404164Y276664D01*
X4381837Y291583D01*
X4355500Y296822D01*
X4280500D01*
X4254163Y291583D01*
X4231836Y276664D01*
X4216917Y254337D01*
X4211678Y228000D01*
Y113000D01*
X4216917Y86663D01*
X4231836Y64336D01*
X4239904Y58944D01*
X4235354Y43944D01*
X4146646D01*
X4142096Y58944D01*
X4150164Y64336D01*
X4165083Y86663D01*
X4170322Y113000D01*
Y228000D01*
X4165083Y254337D01*
X4150164Y276664D01*
X4127837Y291583D01*
X4101500Y296822D01*
X4026500D01*
X4000163Y291583D01*
X3977836Y276664D01*
X3962917Y254337D01*
X3957678Y228000D01*
Y113000D01*
X3962917Y86663D01*
X3977836Y64336D01*
X3985904Y58944D01*
X3981354Y43944D01*
X3892646D01*
X3888096Y58944D01*
X3896164Y64336D01*
X3911083Y86663D01*
X3916322Y113000D01*
Y228000D01*
X3911083Y254337D01*
X3896164Y276664D01*
X3873837Y291583D01*
X3847500Y296822D01*
X3772500D01*
X3746163Y291583D01*
X3723836Y276664D01*
X3708917Y254337D01*
X3703678Y228000D01*
Y113000D01*
X3708917Y86663D01*
X3723836Y64336D01*
X3731904Y58944D01*
X3727354Y43944D01*
X3638646D01*
X3634096Y58944D01*
X3642164Y64336D01*
X3657083Y86663D01*
X3662322Y113000D01*
Y228000D01*
X3657083Y254337D01*
X3642164Y276664D01*
X3619837Y291583D01*
X3593500Y296822D01*
X3518500D01*
X3492163Y291583D01*
X3469836Y276664D01*
X3454917Y254337D01*
X3449678Y228000D01*
Y113000D01*
X3454917Y86663D01*
X3469836Y64336D01*
X3477904Y58944D01*
X3473354Y43944D01*
X3384646D01*
X3380096Y58944D01*
X3388164Y64336D01*
X3403083Y86663D01*
X3408322Y113000D01*
Y228000D01*
X3403083Y254337D01*
X3388164Y276664D01*
X3365837Y291583D01*
X3339500Y296822D01*
X3264500D01*
X3238163Y291583D01*
X3215836Y276664D01*
X3200917Y254337D01*
X3195678Y228000D01*
Y113000D01*
X3200917Y86663D01*
X3215836Y64336D01*
X3223904Y58944D01*
X3219354Y43944D01*
X3130646D01*
X3126096Y58944D01*
X3134164Y64336D01*
X3149083Y86663D01*
X3154322Y113000D01*
Y228000D01*
X3149083Y254337D01*
X3134164Y276664D01*
X3111837Y291583D01*
X3085500Y296822D01*
X3010500D01*
X2984163Y291583D01*
X2961836Y276664D01*
X2946917Y254337D01*
X2941678Y228000D01*
Y113000D01*
X2946917Y86663D01*
X2961836Y64336D01*
X2969904Y58944D01*
X2965354Y43944D01*
X2876646D01*
X2872096Y58944D01*
X2880164Y64336D01*
X2895083Y86663D01*
X2900322Y113000D01*
Y228000D01*
X2895083Y254337D01*
X2880164Y276664D01*
X2857837Y291583D01*
X2831500Y296822D01*
X2756500D01*
X2730163Y291583D01*
X2707836Y276664D01*
X2692917Y254337D01*
X2687678Y228000D01*
Y113000D01*
X2692917Y86663D01*
X2707836Y64336D01*
X2715904Y58944D01*
X2711354Y43944D01*
X2622646D01*
X2618096Y58944D01*
X2626164Y64336D01*
X2641083Y86663D01*
X2646322Y113000D01*
Y228000D01*
X2641083Y254337D01*
X2626164Y276664D01*
X2603837Y291583D01*
X2577500Y296822D01*
X2502500D01*
X2476163Y291583D01*
X2453836Y276664D01*
X2438917Y254337D01*
X2433678Y228000D01*
Y113000D01*
X2438917Y86663D01*
X2453836Y64336D01*
X2461904Y58944D01*
X2457354Y43944D01*
X2368646D01*
X2364096Y58944D01*
X2372164Y64336D01*
X2387083Y86663D01*
X2392322Y113000D01*
Y228000D01*
X2387083Y254337D01*
X2372164Y276664D01*
X2349837Y291583D01*
X2323500Y296822D01*
X2248500D01*
X2222163Y291583D01*
X2199836Y276664D01*
X2184917Y254337D01*
X2179678Y228000D01*
Y113000D01*
X2184917Y86663D01*
X2199836Y64336D01*
X2207904Y58944D01*
X2203354Y43944D01*
X2123646D01*
X2119096Y58944D01*
X2121769Y60731D01*
X2137793Y84712D01*
X2143420Y113000D01*
Y157800D01*
X1920580D01*
Y113000D01*
X1926207Y84712D01*
X1942231Y60731D01*
X1944904Y58944D01*
X1940354Y43944D01*
X1371600D01*
X1369643Y43555D01*
X1317066Y50477D01*
X1266249Y71526D01*
X1222611Y105011D01*
X1189126Y148649D01*
X1168077Y199466D01*
X1161155Y252043D01*
X1161544Y254000D01*
Y1924556D01*
X1841500D01*
Y1923962D01*
X1899742Y1929699D01*
X1955745Y1946687D01*
X2007359Y1974275D01*
X2052598Y2011402D01*
X2089725Y2056641D01*
X2117313Y2108255D01*
X2134301Y2164258D01*
X2140038Y2222500D01*
X2139444D01*
Y3746500D01*
X2140038D01*
X2134301Y3804742D01*
X2117313Y3860745D01*
X2089725Y3912359D01*
X2052598Y3957598D01*
X2007359Y3994725D01*
X1955745Y4022313D01*
X1899742Y4039301D01*
X1841500Y4045038D01*
Y4044444D01*
X1161544D01*
Y4975738D01*
X1176544Y4976721D01*
X1178975Y4958258D01*
X1192578Y4925418D01*
X1214217Y4897217D01*
X1242418Y4875578D01*
X1275258Y4861975D01*
X1310500Y4857335D01*
X1447800D01*
Y5143500D01*
X1460500D01*
Y5156200D01*
X1746665D01*
Y5293500D01*
X1742025Y5328742D01*
X1728422Y5361582D01*
X1706783Y5389783D01*
X1690789Y5402056D01*
X1695881Y5417056D01*
X1940354D01*
X1944904Y5402056D01*
X1942231Y5400269D01*
X1926207Y5376288D01*
X1920580Y5348000D01*
Y5303200D01*
X2143420D01*
Y5348000D01*
X2137793Y5376288D01*
X2121769Y5400269D01*
X2119096Y5402056D01*
X2123646Y5417056D01*
X2203354D01*
X2207904Y5402056D01*
X2199836Y5396664D01*
X2184917Y5374337D01*
X2179678Y5348000D01*
Y5233000D01*
X2184917Y5206663D01*
X2199836Y5184336D01*
X2222163Y5169417D01*
X2248500Y5164178D01*
X2323500D01*
X2349837Y5169417D01*
X2372164Y5184336D01*
X2387083Y5206663D01*
X2392322Y5233000D01*
Y5348000D01*
X2387083Y5374337D01*
X2372164Y5396664D01*
X2364096Y5402056D01*
X2368646Y5417056D01*
X2457354D01*
X2461904Y5402056D01*
X2453836Y5396664D01*
X2438917Y5374337D01*
X2433678Y5348000D01*
Y5233000D01*
X2438917Y5206663D01*
X2453836Y5184336D01*
X2476163Y5169417D01*
X2502500Y5164178D01*
X2577500D01*
X2603837Y5169417D01*
X2626164Y5184336D01*
X2641083Y5206663D01*
X2646322Y5233000D01*
Y5348000D01*
X2641083Y5374337D01*
X2626164Y5396664D01*
X2618096Y5402056D01*
X2622646Y5417056D01*
X2711354D01*
X2715904Y5402056D01*
X2707836Y5396664D01*
X2692917Y5374337D01*
X2687678Y5348000D01*
Y5233000D01*
X2692917Y5206663D01*
X2707836Y5184336D01*
X2730163Y5169417D01*
X2756500Y5164178D01*
X2831500D01*
X2857837Y5169417D01*
X2880164Y5184336D01*
X2895083Y5206663D01*
X2900322Y5233000D01*
Y5348000D01*
X2895083Y5374337D01*
X2880164Y5396664D01*
X2872096Y5402056D01*
X2876646Y5417056D01*
X2965354D01*
X2969904Y5402056D01*
X2961836Y5396664D01*
X2946917Y5374337D01*
X2941678Y5348000D01*
Y5233000D01*
X2946917Y5206663D01*
X2961836Y5184336D01*
X2984163Y5169417D01*
X3010500Y5164178D01*
X3085500D01*
X3111837Y5169417D01*
X3134164Y5184336D01*
X3149083Y5206663D01*
X3154322Y5233000D01*
Y5348000D01*
X3149083Y5374337D01*
X3134164Y5396664D01*
X3126096Y5402056D01*
X3130646Y5417056D01*
X3219354D01*
X3223904Y5402056D01*
X3215836Y5396664D01*
X3200917Y5374337D01*
X3195678Y5348000D01*
Y5233000D01*
X3200917Y5206663D01*
X3215836Y5184336D01*
X3238163Y5169417D01*
X3264500Y5164178D01*
X3339500D01*
X3365837Y5169417D01*
X3388164Y5184336D01*
X3403083Y5206663D01*
X3408322Y5233000D01*
Y5348000D01*
X3403083Y5374337D01*
X3388164Y5396664D01*
X3380096Y5402056D01*
X3384646Y5417056D01*
X3473354D01*
X3477904Y5402056D01*
X3469836Y5396664D01*
X3454917Y5374337D01*
X3449678Y5348000D01*
Y5233000D01*
X3454917Y5206663D01*
X3469836Y5184336D01*
X3492163Y5169417D01*
X3518500Y5164178D01*
X3593500D01*
X3619837Y5169417D01*
X3642164Y5184336D01*
X3657083Y5206663D01*
X3662322Y5233000D01*
Y5348000D01*
X3657083Y5374337D01*
X3642164Y5396664D01*
X3634096Y5402056D01*
X3638646Y5417056D01*
X3727354D01*
X3731904Y5402056D01*
X3723836Y5396664D01*
X3708917Y5374337D01*
X3703678Y5348000D01*
Y5233000D01*
X3708917Y5206663D01*
X3723836Y5184336D01*
X3746163Y5169417D01*
X3772500Y5164178D01*
X3847500D01*
X3873837Y5169417D01*
X3896164Y5184336D01*
X3911083Y5206663D01*
X3916322Y5233000D01*
Y5348000D01*
X3911083Y5374337D01*
X3896164Y5396664D01*
X3888096Y5402056D01*
X3892646Y5417056D01*
X3981354D01*
X3985904Y5402056D01*
X3977836Y5396664D01*
X3962917Y5374337D01*
X3957678Y5348000D01*
Y5233000D01*
X3962917Y5206663D01*
X3977836Y5184336D01*
X4000163Y5169417D01*
X4026500Y5164178D01*
X4101500D01*
X4127837Y5169417D01*
X4150164Y5184336D01*
X4165083Y5206663D01*
X4170322Y5233000D01*
Y5348000D01*
X4165083Y5374337D01*
X4150164Y5396664D01*
X4142096Y5402056D01*
X4146646Y5417056D01*
X4235354D01*
X4239904Y5402056D01*
X4231836Y5396664D01*
X4216917Y5374337D01*
X4211678Y5348000D01*
Y5233000D01*
X4216917Y5206663D01*
X4231836Y5184336D01*
X4254163Y5169417D01*
X4280500Y5164178D01*
X4355500D01*
X4381837Y5169417D01*
X4404164Y5184336D01*
X4419083Y5206663D01*
X4424322Y5233000D01*
Y5348000D01*
X4419083Y5374337D01*
X4404164Y5396664D01*
X4396096Y5402056D01*
X4400646Y5417056D01*
X4489354D01*
X4493904Y5402056D01*
X4485836Y5396664D01*
X4470917Y5374337D01*
X4465678Y5348000D01*
Y5233000D01*
X4470917Y5206663D01*
X4485836Y5184336D01*
X4508163Y5169417D01*
X4534500Y5164178D01*
X4609500D01*
X4635837Y5169417D01*
X4658164Y5184336D01*
X4673083Y5206663D01*
X4678322Y5233000D01*
Y5348000D01*
X4673083Y5374337D01*
X4658164Y5396664D01*
X4650096Y5402056D01*
X4654646Y5417056D01*
X4743354D01*
X4747904Y5402056D01*
X4739836Y5396664D01*
X4724917Y5374337D01*
X4719678Y5348000D01*
Y5233000D01*
X4724917Y5206663D01*
X4739836Y5184336D01*
X4762163Y5169417D01*
X4788500Y5164178D01*
X4863500D01*
X4889837Y5169417D01*
X4912164Y5184336D01*
X4927083Y5206663D01*
X4932322Y5233000D01*
Y5348000D01*
X4927083Y5374337D01*
X4912164Y5396664D01*
X4904096Y5402056D01*
X4908646Y5417056D01*
X4997354D01*
X5001904Y5402056D01*
X4993836Y5396664D01*
X4978917Y5374337D01*
X4973678Y5348000D01*
Y5233000D01*
X4978917Y5206663D01*
X4993836Y5184336D01*
X5016163Y5169417D01*
X5042500Y5164178D01*
X5117500D01*
X5143837Y5169417D01*
X5166164Y5184336D01*
X5181083Y5206663D01*
X5186322Y5233000D01*
Y5348000D01*
X5181083Y5374337D01*
X5166164Y5396664D01*
X5158096Y5402056D01*
X5162646Y5417056D01*
X5251354D01*
X5255904Y5402056D01*
X5247836Y5396664D01*
X5232917Y5374337D01*
X5227678Y5348000D01*
Y5233000D01*
X5232917Y5206663D01*
X5247836Y5184336D01*
X5270163Y5169417D01*
X5296500Y5164178D01*
X5371500D01*
X5397837Y5169417D01*
X5420164Y5184336D01*
X5435083Y5206663D01*
X5440322Y5233000D01*
Y5348000D01*
X5435083Y5374337D01*
X5420164Y5396664D01*
X5412096Y5402056D01*
X5416646Y5417056D01*
X5505354D01*
X5509904Y5402056D01*
X5501836Y5396664D01*
X5486917Y5374337D01*
X5481678Y5348000D01*
Y5233000D01*
X5486917Y5206663D01*
X5501836Y5184336D01*
X5524163Y5169417D01*
X5550500Y5164178D01*
X5625500D01*
X5651837Y5169417D01*
X5674164Y5184336D01*
X5689083Y5206663D01*
X5694322Y5233000D01*
Y5348000D01*
X5689083Y5374337D01*
X5674164Y5396664D01*
X5666096Y5402056D01*
X5670646Y5417056D01*
X5759354D01*
X5763904Y5402056D01*
X5755836Y5396664D01*
X5740917Y5374337D01*
X5735678Y5348000D01*
Y5233000D01*
X5740917Y5206663D01*
X5755836Y5184336D01*
X5778163Y5169417D01*
X5804500Y5164178D01*
X5879500D01*
X5905837Y5169417D01*
X5928164Y5184336D01*
X5943083Y5206663D01*
X5948322Y5233000D01*
Y5348000D01*
X5943083Y5374337D01*
X5928164Y5396664D01*
X5920096Y5402056D01*
X5924646Y5417056D01*
X6013354D01*
X6017904Y5402056D01*
X6009836Y5396664D01*
X5994917Y5374337D01*
X5989678Y5348000D01*
Y5233000D01*
X5994917Y5206663D01*
X6009836Y5184336D01*
X6032163Y5169417D01*
X6058500Y5164178D01*
X6133500D01*
X6159837Y5169417D01*
X6182164Y5184336D01*
X6197083Y5206663D01*
X6202322Y5233000D01*
Y5348000D01*
X6197083Y5374337D01*
X6182164Y5396664D01*
X6174096Y5402056D01*
X6178646Y5417056D01*
X6267354D01*
X6271904Y5402056D01*
X6263836Y5396664D01*
X6248917Y5374337D01*
X6243678Y5348000D01*
Y5233000D01*
X6248917Y5206663D01*
X6263836Y5184336D01*
X6286163Y5169417D01*
X6312500Y5164178D01*
X6387500D01*
X6413837Y5169417D01*
X6436164Y5184336D01*
X6451083Y5206663D01*
X6456322Y5233000D01*
Y5348000D01*
X6451083Y5374337D01*
X6436164Y5396664D01*
X6428096Y5402056D01*
X6432646Y5417056D01*
X6521354D01*
X6525904Y5402056D01*
X6517836Y5396664D01*
X6502917Y5374337D01*
X6497678Y5348000D01*
Y5233000D01*
X6502917Y5206663D01*
X6517836Y5184336D01*
X6540163Y5169417D01*
X6566500Y5164178D01*
X6641500D01*
X6667837Y5169417D01*
X6690164Y5184336D01*
X6705083Y5206663D01*
X6710322Y5233000D01*
Y5348000D01*
X6705083Y5374337D01*
X6690164Y5396664D01*
X6682096Y5402056D01*
X6686646Y5417056D01*
X6775354D01*
X6779904Y5402056D01*
X6771836Y5396664D01*
X6756917Y5374337D01*
X6751678Y5348000D01*
Y5233000D01*
X6756917Y5206663D01*
X6771836Y5184336D01*
X6794163Y5169417D01*
X6820500Y5164178D01*
X6895500D01*
X6921837Y5169417D01*
X6944164Y5184336D01*
X6959083Y5206663D01*
X6964322Y5233000D01*
Y5348000D01*
X6959083Y5374337D01*
X6944164Y5396664D01*
X6936096Y5402056D01*
X6940646Y5417056D01*
X7029354D01*
X7033904Y5402056D01*
X7025836Y5396664D01*
X7010917Y5374337D01*
X7005678Y5348000D01*
Y5233000D01*
X7010917Y5206663D01*
X7025836Y5184336D01*
X7048163Y5169417D01*
X7074500Y5164178D01*
X7149500D01*
X7175837Y5169417D01*
X7198164Y5184336D01*
X7213083Y5206663D01*
X7218322Y5233000D01*
Y5348000D01*
X7213083Y5374337D01*
X7198164Y5396664D01*
X7190096Y5402056D01*
X7194646Y5417056D01*
X7283354D01*
X7287904Y5402056D01*
X7279836Y5396664D01*
X7264917Y5374337D01*
X7259678Y5348000D01*
Y5233000D01*
X7264917Y5206663D01*
X7279836Y5184336D01*
X7302163Y5169417D01*
X7328500Y5164178D01*
X7403500D01*
X7429837Y5169417D01*
X7452164Y5184336D01*
X7467083Y5206663D01*
X7472322Y5233000D01*
Y5348000D01*
X7467083Y5374337D01*
X7452164Y5396664D01*
X7444096Y5402056D01*
X7448646Y5417056D01*
X7492754D01*
X7493002Y5417006D01*
D02*
G37*
%LPC*%
G36*
X2143420Y5277800D02*
X2044700D01*
Y5159080D01*
X2069500D01*
X2097788Y5164707D01*
X2121769Y5180731D01*
X2137793Y5204712D01*
X2143420Y5233000D01*
Y5277800D01*
D02*
G37*
G36*
X2019300D02*
X1920580D01*
Y5233000D01*
X1926207Y5204712D01*
X1942231Y5180731D01*
X1966212Y5164707D01*
X1994500Y5159080D01*
X2019300D01*
Y5277800D01*
D02*
G37*
G36*
X2069500Y5127920D02*
X2044700D01*
Y5009200D01*
X2143420D01*
Y5054000D01*
X2137793Y5082288D01*
X2121769Y5106269D01*
X2097788Y5122293D01*
X2069500Y5127920D01*
D02*
G37*
G36*
X2019300D02*
X1994500D01*
X1966212Y5122293D01*
X1942231Y5106269D01*
X1926207Y5082288D01*
X1920580Y5054000D01*
Y5009200D01*
X2019300D01*
Y5127920D01*
D02*
G37*
G36*
X7657500Y5122822D02*
X7582500D01*
X7556163Y5117583D01*
X7533836Y5102664D01*
X7518917Y5080337D01*
X7513678Y5054000D01*
Y4939000D01*
X7518917Y4912663D01*
X7533836Y4890336D01*
X7556163Y4875417D01*
X7582500Y4870178D01*
X7657500D01*
X7683837Y4875417D01*
X7706164Y4890336D01*
X7721083Y4912663D01*
X7726322Y4939000D01*
Y5054000D01*
X7721083Y5080337D01*
X7706164Y5102664D01*
X7683837Y5117583D01*
X7657500Y5122822D01*
D02*
G37*
G36*
X7403500D02*
X7328500D01*
X7302163Y5117583D01*
X7279836Y5102664D01*
X7264917Y5080337D01*
X7259678Y5054000D01*
Y4939000D01*
X7264917Y4912663D01*
X7279836Y4890336D01*
X7302163Y4875417D01*
X7328500Y4870178D01*
X7403500D01*
X7429837Y4875417D01*
X7452164Y4890336D01*
X7467083Y4912663D01*
X7472322Y4939000D01*
Y5054000D01*
X7467083Y5080337D01*
X7452164Y5102664D01*
X7429837Y5117583D01*
X7403500Y5122822D01*
D02*
G37*
G36*
X6895500D02*
X6820500D01*
X6794163Y5117583D01*
X6771836Y5102664D01*
X6756917Y5080337D01*
X6751678Y5054000D01*
Y4939000D01*
X6756917Y4912663D01*
X6771836Y4890336D01*
X6794163Y4875417D01*
X6820500Y4870178D01*
X6895500D01*
X6921837Y4875417D01*
X6944164Y4890336D01*
X6959083Y4912663D01*
X6964322Y4939000D01*
Y5054000D01*
X6959083Y5080337D01*
X6944164Y5102664D01*
X6921837Y5117583D01*
X6895500Y5122822D01*
D02*
G37*
G36*
X6641500D02*
X6566500D01*
X6540163Y5117583D01*
X6517836Y5102664D01*
X6502917Y5080337D01*
X6497678Y5054000D01*
Y4939000D01*
X6502917Y4912663D01*
X6517836Y4890336D01*
X6540163Y4875417D01*
X6566500Y4870178D01*
X6641500D01*
X6667837Y4875417D01*
X6690164Y4890336D01*
X6705083Y4912663D01*
X6710322Y4939000D01*
Y5054000D01*
X6705083Y5080337D01*
X6690164Y5102664D01*
X6667837Y5117583D01*
X6641500Y5122822D01*
D02*
G37*
G36*
X6387500D02*
X6312500D01*
X6286163Y5117583D01*
X6263836Y5102664D01*
X6248917Y5080337D01*
X6243678Y5054000D01*
Y4939000D01*
X6248917Y4912663D01*
X6263836Y4890336D01*
X6286163Y4875417D01*
X6312500Y4870178D01*
X6387500D01*
X6413837Y4875417D01*
X6436164Y4890336D01*
X6451083Y4912663D01*
X6456322Y4939000D01*
Y5054000D01*
X6451083Y5080337D01*
X6436164Y5102664D01*
X6413837Y5117583D01*
X6387500Y5122822D01*
D02*
G37*
G36*
X6133500D02*
X6058500D01*
X6032163Y5117583D01*
X6009836Y5102664D01*
X5994917Y5080337D01*
X5989678Y5054000D01*
Y4939000D01*
X5994917Y4912663D01*
X6009836Y4890336D01*
X6032163Y4875417D01*
X6058500Y4870178D01*
X6133500D01*
X6159837Y4875417D01*
X6182164Y4890336D01*
X6197083Y4912663D01*
X6202322Y4939000D01*
Y5054000D01*
X6197083Y5080337D01*
X6182164Y5102664D01*
X6159837Y5117583D01*
X6133500Y5122822D01*
D02*
G37*
G36*
X5879500D02*
X5804500D01*
X5778163Y5117583D01*
X5755836Y5102664D01*
X5740917Y5080337D01*
X5735678Y5054000D01*
Y4939000D01*
X5740917Y4912663D01*
X5755836Y4890336D01*
X5778163Y4875417D01*
X5804500Y4870178D01*
X5879500D01*
X5905837Y4875417D01*
X5928164Y4890336D01*
X5943083Y4912663D01*
X5948322Y4939000D01*
Y5054000D01*
X5943083Y5080337D01*
X5928164Y5102664D01*
X5905837Y5117583D01*
X5879500Y5122822D01*
D02*
G37*
G36*
X5371500D02*
X5296500D01*
X5270163Y5117583D01*
X5247836Y5102664D01*
X5232917Y5080337D01*
X5227678Y5054000D01*
Y4939000D01*
X5232917Y4912663D01*
X5247836Y4890336D01*
X5270163Y4875417D01*
X5296500Y4870178D01*
X5371500D01*
X5397837Y4875417D01*
X5420164Y4890336D01*
X5435083Y4912663D01*
X5440322Y4939000D01*
Y5054000D01*
X5435083Y5080337D01*
X5420164Y5102664D01*
X5397837Y5117583D01*
X5371500Y5122822D01*
D02*
G37*
G36*
X4609500D02*
X4534500D01*
X4508163Y5117583D01*
X4485836Y5102664D01*
X4470917Y5080337D01*
X4465678Y5054000D01*
Y4939000D01*
X4470917Y4912663D01*
X4485836Y4890336D01*
X4508163Y4875417D01*
X4534500Y4870178D01*
X4609500D01*
X4635837Y4875417D01*
X4658164Y4890336D01*
X4673083Y4912663D01*
X4678322Y4939000D01*
Y5054000D01*
X4673083Y5080337D01*
X4658164Y5102664D01*
X4635837Y5117583D01*
X4609500Y5122822D01*
D02*
G37*
G36*
X4101500D02*
X4026500D01*
X4000163Y5117583D01*
X3977836Y5102664D01*
X3962917Y5080337D01*
X3957678Y5054000D01*
Y4939000D01*
X3962917Y4912663D01*
X3977836Y4890336D01*
X4000163Y4875417D01*
X4026500Y4870178D01*
X4101500D01*
X4127837Y4875417D01*
X4150164Y4890336D01*
X4165083Y4912663D01*
X4170322Y4939000D01*
Y5054000D01*
X4165083Y5080337D01*
X4150164Y5102664D01*
X4127837Y5117583D01*
X4101500Y5122822D01*
D02*
G37*
G36*
X2831500D02*
X2756500D01*
X2730163Y5117583D01*
X2707836Y5102664D01*
X2692917Y5080337D01*
X2687678Y5054000D01*
Y4939000D01*
X2692917Y4912663D01*
X2707836Y4890336D01*
X2730163Y4875417D01*
X2756500Y4870178D01*
X2831500D01*
X2857837Y4875417D01*
X2880164Y4890336D01*
X2895083Y4912663D01*
X2900322Y4939000D01*
Y5054000D01*
X2895083Y5080337D01*
X2880164Y5102664D01*
X2857837Y5117583D01*
X2831500Y5122822D01*
D02*
G37*
G36*
X2577500D02*
X2502500D01*
X2476163Y5117583D01*
X2453836Y5102664D01*
X2438917Y5080337D01*
X2433678Y5054000D01*
Y4939000D01*
X2438917Y4912663D01*
X2453836Y4890336D01*
X2476163Y4875417D01*
X2502500Y4870178D01*
X2577500D01*
X2603837Y4875417D01*
X2626164Y4890336D01*
X2641083Y4912663D01*
X2646322Y4939000D01*
Y5054000D01*
X2641083Y5080337D01*
X2626164Y5102664D01*
X2603837Y5117583D01*
X2577500Y5122822D01*
D02*
G37*
G36*
X2323500D02*
X2248500D01*
X2222163Y5117583D01*
X2199836Y5102664D01*
X2184917Y5080337D01*
X2179678Y5054000D01*
Y4939000D01*
X2184917Y4912663D01*
X2199836Y4890336D01*
X2222163Y4875417D01*
X2248500Y4870178D01*
X2323500D01*
X2349837Y4875417D01*
X2372164Y4890336D01*
X2387083Y4912663D01*
X2392322Y4939000D01*
Y5054000D01*
X2387083Y5080337D01*
X2372164Y5102664D01*
X2349837Y5117583D01*
X2323500Y5122822D01*
D02*
G37*
G36*
X2143420Y4983800D02*
X2044700D01*
Y4865080D01*
X2069500D01*
X2097788Y4870707D01*
X2121769Y4886731D01*
X2137793Y4910712D01*
X2143420Y4939000D01*
Y4983800D01*
D02*
G37*
G36*
X2019300D02*
X1920580D01*
Y4939000D01*
X1926207Y4910712D01*
X1942231Y4886731D01*
X1966212Y4870707D01*
X1994500Y4865080D01*
X2019300D01*
Y4983800D01*
D02*
G37*
G36*
X8190500Y5062743D02*
X8077200D01*
Y4858700D01*
X8281244D01*
Y4972000D01*
X8274336Y5006726D01*
X8254665Y5036165D01*
X8225226Y5055836D01*
X8190500Y5062743D01*
D02*
G37*
G36*
X8051800D02*
X7938500D01*
X7903774Y5055836D01*
X7874335Y5036165D01*
X7854664Y5006726D01*
X7847756Y4972000D01*
Y4858700D01*
X8051800D01*
Y5062743D01*
D02*
G37*
G36*
X1746665Y5130800D02*
X1473200D01*
Y4857335D01*
X1610500D01*
X1645742Y4861975D01*
X1678582Y4875578D01*
X1706783Y4897217D01*
X1728422Y4925418D01*
X1742025Y4958258D01*
X1746665Y4993500D01*
Y5130800D01*
D02*
G37*
G36*
X5625500Y5122822D02*
X5550500D01*
X5524163Y5117583D01*
X5501836Y5102664D01*
X5486917Y5080337D01*
X5481678Y5054000D01*
Y4939000D01*
X5486917Y4912663D01*
X5501836Y4890336D01*
X5524163Y4875417D01*
X5532127Y4873833D01*
X5537867Y4859975D01*
X5533481Y4853411D01*
X5528825Y4830000D01*
X5533481Y4806589D01*
X5546743Y4786743D01*
X5566589Y4773481D01*
X5590000Y4768825D01*
X5613411Y4773481D01*
X5633257Y4786743D01*
X5646519Y4806589D01*
X5651175Y4830000D01*
X5646519Y4853411D01*
X5641664Y4860677D01*
X5647404Y4874535D01*
X5651837Y4875417D01*
X5674164Y4890336D01*
X5689083Y4912663D01*
X5694322Y4939000D01*
Y5054000D01*
X5689083Y5080337D01*
X5674164Y5102664D01*
X5651837Y5117583D01*
X5625500Y5122822D01*
D02*
G37*
G36*
X4863500D02*
X4788500D01*
X4762163Y5117583D01*
X4739836Y5102664D01*
X4724917Y5080337D01*
X4719678Y5054000D01*
Y4939000D01*
X4724917Y4912663D01*
X4739836Y4890336D01*
X4754718Y4880391D01*
X4759932Y4862741D01*
X4759562Y4860640D01*
X4754731Y4853411D01*
X4750075Y4830000D01*
X4754731Y4806589D01*
X4767992Y4786743D01*
X4787839Y4773481D01*
X4811250Y4768825D01*
X4834661Y4773481D01*
X4854507Y4786743D01*
X4867769Y4806589D01*
X4872425Y4830000D01*
X4867769Y4853411D01*
X4866391Y4855473D01*
X4873303Y4872128D01*
X4889837Y4875417D01*
X4912164Y4890336D01*
X4927083Y4912663D01*
X4932322Y4939000D01*
Y5054000D01*
X4927083Y5080337D01*
X4912164Y5102664D01*
X4889837Y5117583D01*
X4863500Y5122822D01*
D02*
G37*
G36*
X3847500D02*
X3772500D01*
X3746163Y5117583D01*
X3723836Y5102664D01*
X3708917Y5080337D01*
X3703678Y5054000D01*
Y4939000D01*
X3708917Y4912663D01*
X3723836Y4890336D01*
X3746163Y4875417D01*
X3772500Y4870178D01*
X3808774D01*
X3815845Y4856949D01*
X3813481Y4853411D01*
X3808824Y4830000D01*
X3813481Y4806589D01*
X3826742Y4786743D01*
X3846589Y4773481D01*
X3870000Y4768825D01*
X3893411Y4773481D01*
X3913257Y4786743D01*
X3926519Y4806589D01*
X3931175Y4830000D01*
X3926519Y4853411D01*
X3913257Y4873257D01*
X3905074Y4878726D01*
X3896164Y4890336D01*
X3911083Y4912663D01*
X3916322Y4939000D01*
Y5054000D01*
X3911083Y5080337D01*
X3896164Y5102664D01*
X3873837Y5117583D01*
X3847500Y5122822D01*
D02*
G37*
G36*
X3593500D02*
X3518500D01*
X3492163Y5117583D01*
X3469836Y5102664D01*
X3454917Y5080337D01*
X3449678Y5054000D01*
Y4939000D01*
X3454917Y4912663D01*
X3469836Y4890336D01*
X3483854Y4880968D01*
X3488972Y4862509D01*
X3488627Y4861112D01*
X3483481Y4853411D01*
X3478825Y4830000D01*
X3483481Y4806589D01*
X3496743Y4786743D01*
X3516589Y4773481D01*
X3540000Y4768825D01*
X3563411Y4773481D01*
X3583258Y4786743D01*
X3596519Y4806589D01*
X3601175Y4830000D01*
X3596519Y4853411D01*
X3594949Y4855760D01*
X3602200Y4871908D01*
X3619837Y4875417D01*
X3642164Y4890336D01*
X3657083Y4912663D01*
X3662322Y4939000D01*
Y5054000D01*
X3657083Y5080337D01*
X3642164Y5102664D01*
X3619837Y5117583D01*
X3593500Y5122822D01*
D02*
G37*
G36*
X3339500D02*
X3264500D01*
X3238163Y5117583D01*
X3215836Y5102664D01*
X3200917Y5080337D01*
X3195678Y5054000D01*
Y4939000D01*
X3200917Y4912663D01*
X3215836Y4890336D01*
X3238163Y4875417D01*
X3248739Y4873313D01*
X3255643Y4856646D01*
X3253481Y4853411D01*
X3248825Y4830000D01*
X3253481Y4806589D01*
X3266743Y4786743D01*
X3286589Y4773481D01*
X3310000Y4768825D01*
X3333411Y4773481D01*
X3353257Y4786743D01*
X3366519Y4806589D01*
X3371175Y4830000D01*
X3366519Y4853411D01*
X3360624Y4862233D01*
X3368615Y4877273D01*
X3388164Y4890336D01*
X3403083Y4912663D01*
X3408322Y4939000D01*
Y5054000D01*
X3403083Y5080337D01*
X3388164Y5102664D01*
X3365837Y5117583D01*
X3339500Y5122822D01*
D02*
G37*
G36*
X3085500D02*
X3010500D01*
X2984163Y5117583D01*
X2961836Y5102664D01*
X2946917Y5080337D01*
X2941678Y5054000D01*
Y4939000D01*
X2946917Y4912663D01*
X2961836Y4890336D01*
X2966676Y4887102D01*
Y4872102D01*
X2963394Y4869909D01*
X2950133Y4850063D01*
X2945476Y4826652D01*
X2950133Y4803241D01*
X2963394Y4783394D01*
X2983241Y4770133D01*
X3006652Y4765476D01*
X3030063Y4770133D01*
X3049909Y4783394D01*
X3063171Y4803241D01*
X3067827Y4826652D01*
X3063171Y4850063D01*
X3059753Y4855178D01*
X3067770Y4870178D01*
X3085500D01*
X3111837Y4875417D01*
X3134164Y4890336D01*
X3149083Y4912663D01*
X3154322Y4939000D01*
Y5054000D01*
X3149083Y5080337D01*
X3134164Y5102664D01*
X3111837Y5117583D01*
X3085500Y5122822D01*
D02*
G37*
G36*
X8281244Y4833300D02*
X7847756D01*
Y4758292D01*
X7832756Y4750274D01*
X7823411Y4756519D01*
X7800000Y4761175D01*
X7776589Y4756519D01*
X7756742Y4743257D01*
X7743481Y4723411D01*
X7738825Y4700000D01*
X7743481Y4676589D01*
X7756742Y4656743D01*
X7776589Y4643481D01*
X7800000Y4638825D01*
X7823411Y4643481D01*
X7843257Y4656743D01*
X7849472Y4666044D01*
X7867513Y4666044D01*
X7874335Y4655834D01*
X7903774Y4636164D01*
X7938500Y4629256D01*
X8019213D01*
X8022000Y4615630D01*
X8021708Y4614256D01*
X7998231Y4598569D01*
X7982207Y4574588D01*
X7976580Y4546300D01*
Y4521500D01*
X8108000D01*
X8239420D01*
Y4546300D01*
X8233793Y4574588D01*
X8217769Y4598569D01*
X8193788Y4614593D01*
X8193729Y4614605D01*
Y4629899D01*
X8225226Y4636164D01*
X8254665Y4655834D01*
X8274336Y4685274D01*
X8281244Y4720000D01*
Y4833300D01*
D02*
G37*
G36*
X7010000Y4811175D02*
X6986589Y4806519D01*
X6966742Y4793257D01*
X6953481Y4773411D01*
X6948825Y4750000D01*
X6953481Y4726589D01*
X6966742Y4706742D01*
X6986589Y4693481D01*
X7010000Y4688825D01*
X7033411Y4693481D01*
X7053257Y4706742D01*
X7066519Y4726589D01*
X7071175Y4750000D01*
X7066519Y4773411D01*
X7053257Y4793257D01*
X7033411Y4806519D01*
X7010000Y4811175D01*
D02*
G37*
G36*
X4355500Y5122822D02*
X4280500D01*
X4254163Y5117583D01*
X4231836Y5102664D01*
X4216917Y5080337D01*
X4211678Y5054000D01*
Y4939000D01*
X4216917Y4912663D01*
X4231836Y4890336D01*
X4254163Y4875417D01*
X4277097Y4870855D01*
X4285970Y4857136D01*
X4283481Y4853411D01*
X4278825Y4830000D01*
X4283481Y4806589D01*
X4296742Y4786743D01*
X4316589Y4773481D01*
X4340000Y4768825D01*
X4363411Y4773481D01*
X4376426Y4764137D01*
X4373116Y4747500D01*
X4377773Y4724089D01*
X4391034Y4704243D01*
X4410881Y4690981D01*
X4434292Y4686325D01*
X4457703Y4690981D01*
X4477549Y4704243D01*
X4490811Y4724089D01*
X4495467Y4747500D01*
X4490811Y4770911D01*
X4477549Y4790758D01*
X4457703Y4804019D01*
X4434292Y4808675D01*
X4410881Y4804019D01*
X4397866Y4813363D01*
X4401175Y4830000D01*
X4396519Y4853411D01*
X4390151Y4862941D01*
X4393403Y4883145D01*
X4404164Y4890336D01*
X4419083Y4912663D01*
X4424322Y4939000D01*
Y5054000D01*
X4419083Y5080337D01*
X4404164Y5102664D01*
X4381837Y5117583D01*
X4355500Y5122822D01*
D02*
G37*
G36*
X7149500D02*
X7074500D01*
X7048163Y5117583D01*
X7025836Y5102664D01*
X7010917Y5080337D01*
X7005678Y5054000D01*
Y4939000D01*
X7010917Y4912663D01*
X7025836Y4890336D01*
X7048163Y4875417D01*
X7074500Y4870178D01*
X7118775D01*
X7125846Y4856949D01*
X7123481Y4853411D01*
X7118825Y4830000D01*
X7123481Y4806589D01*
X7136743Y4786743D01*
X7156589Y4773481D01*
X7159225Y4772957D01*
X7162393Y4757033D01*
X7156743Y4753257D01*
X7143481Y4733411D01*
X7138825Y4710000D01*
X7143481Y4686589D01*
X7156743Y4666743D01*
X7176589Y4653481D01*
X7200000Y4648825D01*
X7223411Y4653481D01*
X7243258Y4666743D01*
X7256519Y4686589D01*
X7261175Y4710000D01*
X7256519Y4733411D01*
X7243258Y4753257D01*
X7223411Y4766519D01*
X7220775Y4767043D01*
X7217607Y4782967D01*
X7223258Y4786743D01*
X7236519Y4806589D01*
X7241176Y4830000D01*
X7236519Y4853411D01*
X7223258Y4873257D01*
X7209543Y4882421D01*
X7203433Y4886671D01*
X7205549Y4901387D01*
X7213083Y4912663D01*
X7218322Y4939000D01*
Y5054000D01*
X7213083Y5080337D01*
X7198164Y5102664D01*
X7175837Y5117583D01*
X7149500Y5122822D01*
D02*
G37*
G36*
X3310000Y4671175D02*
X3286589Y4666519D01*
X3266743Y4653257D01*
X3262500Y4646908D01*
X3247500D01*
X3243257Y4653257D01*
X3223411Y4666519D01*
X3200000Y4671175D01*
X3176589Y4666519D01*
X3166805Y4659981D01*
X3155000Y4654123D01*
X3143195Y4659981D01*
X3133411Y4666519D01*
X3110000Y4671175D01*
X3086589Y4666519D01*
X3066742Y4653257D01*
X3053481Y4633411D01*
X3048824Y4610000D01*
X3052852Y4589754D01*
X3036589Y4586519D01*
X3016743Y4573258D01*
X3003481Y4553411D01*
X2998825Y4530000D01*
X3003481Y4506589D01*
X3016743Y4486743D01*
X3036589Y4473481D01*
X3060000Y4468825D01*
X3083411Y4473481D01*
X3103257Y4486743D01*
X3116519Y4506589D01*
X3121175Y4530000D01*
X3117148Y4550246D01*
X3133411Y4553481D01*
X3143195Y4560019D01*
X3155000Y4565877D01*
X3166805Y4560019D01*
X3176589Y4553481D01*
X3200000Y4548825D01*
X3223411Y4553481D01*
X3243257Y4566742D01*
X3247500Y4573092D01*
X3262500D01*
X3266743Y4566742D01*
X3286589Y4553481D01*
X3310000Y4548825D01*
X3333411Y4553481D01*
X3353257Y4566742D01*
X3366519Y4586589D01*
X3371175Y4610000D01*
X3366519Y4633411D01*
X3353257Y4653257D01*
X3333411Y4666519D01*
X3310000Y4671175D01*
D02*
G37*
G36*
X5117500Y5122822D02*
X5042500D01*
X5016163Y5117583D01*
X4993836Y5102664D01*
X4978917Y5080337D01*
X4973678Y5054000D01*
Y4939000D01*
X4978917Y4912663D01*
X4993836Y4890336D01*
X5016163Y4875417D01*
X5042500Y4870178D01*
X5098775D01*
X5105846Y4856949D01*
X5103481Y4853411D01*
X5098825Y4830000D01*
X5103481Y4806589D01*
X5116743Y4786743D01*
X5132770Y4776033D01*
X5131194Y4760441D01*
X5131187Y4760424D01*
X5116195Y4757442D01*
X5096349Y4744181D01*
X5083087Y4724334D01*
X5078431Y4700923D01*
X5083087Y4677512D01*
X5096349Y4657666D01*
X5116195Y4644404D01*
X5139606Y4639748D01*
X5163017Y4644404D01*
X5182864Y4657666D01*
X5196125Y4677512D01*
X5200782Y4700923D01*
X5196125Y4724334D01*
X5182864Y4744181D01*
X5166836Y4754890D01*
X5168413Y4770482D01*
X5168420Y4770499D01*
X5183411Y4773481D01*
X5203258Y4786743D01*
X5216519Y4806589D01*
X5221175Y4830000D01*
X5216519Y4853411D01*
X5203258Y4873257D01*
X5183411Y4886519D01*
X5181861Y4886827D01*
X5174957Y4903494D01*
X5181083Y4912663D01*
X5186322Y4939000D01*
Y5054000D01*
X5181083Y5080337D01*
X5166164Y5102664D01*
X5143837Y5117583D01*
X5117500Y5122822D01*
D02*
G37*
G36*
X4000000Y4663675D02*
X3976589Y4659019D01*
X3956742Y4645758D01*
X3943481Y4625911D01*
X3942647Y4621717D01*
X3927353D01*
X3926519Y4625911D01*
X3913257Y4645758D01*
X3893411Y4659019D01*
X3870000Y4663675D01*
X3846589Y4659019D01*
X3826742Y4645758D01*
X3813481Y4625911D01*
X3808824Y4602500D01*
X3813481Y4579089D01*
X3826742Y4559243D01*
X3846589Y4545981D01*
X3870000Y4541325D01*
X3893411Y4545981D01*
X3913257Y4559243D01*
X3926519Y4579089D01*
X3927353Y4583283D01*
X3942647D01*
X3943481Y4579089D01*
X3956742Y4559243D01*
X3976589Y4545981D01*
X4000000Y4541325D01*
X4023411Y4545981D01*
X4043257Y4559243D01*
X4056519Y4579089D01*
X4061175Y4602500D01*
X4056519Y4625911D01*
X4043257Y4645758D01*
X4023411Y4659019D01*
X4000000Y4663675D01*
D02*
G37*
G36*
X1650000Y4731175D02*
X1626589Y4726519D01*
X1606743Y4713258D01*
X1593481Y4693411D01*
X1588825Y4670000D01*
X1593481Y4646589D01*
X1606743Y4626743D01*
X1626589Y4613481D01*
X1650000Y4608825D01*
X1673411Y4613481D01*
X1693257Y4626743D01*
X1706519Y4646589D01*
X1711175Y4670000D01*
X1706519Y4693411D01*
X1693257Y4713258D01*
X1673411Y4726519D01*
X1650000Y4731175D01*
D02*
G37*
G36*
X5680000Y4671175D02*
X5656589Y4666519D01*
X5636743Y4653257D01*
X5623481Y4633411D01*
X5618825Y4610000D01*
X5623481Y4586589D01*
X5636743Y4566742D01*
X5656589Y4553481D01*
X5680000Y4548825D01*
X5703411Y4553481D01*
X5723258Y4566742D01*
X5736519Y4586589D01*
X5741175Y4610000D01*
X5736519Y4633411D01*
X5723258Y4653257D01*
X5703411Y4666519D01*
X5680000Y4671175D01*
D02*
G37*
G36*
X2069500Y4663820D02*
X2044700D01*
Y4545100D01*
X2143420D01*
Y4589900D01*
X2137793Y4618188D01*
X2121769Y4642169D01*
X2097788Y4658193D01*
X2069500Y4663820D01*
D02*
G37*
G36*
X2019300D02*
X1994500D01*
X1966212Y4658193D01*
X1942231Y4642169D01*
X1926207Y4618188D01*
X1920580Y4589900D01*
Y4545100D01*
X2019300D01*
Y4663820D01*
D02*
G37*
G36*
X4230000Y4663675D02*
X4206589Y4659019D01*
X4186742Y4645758D01*
X4173481Y4625911D01*
X4168825Y4602500D01*
X4173481Y4579089D01*
X4186742Y4559243D01*
X4206589Y4545981D01*
X4230000Y4541325D01*
X4253411Y4545981D01*
X4273257Y4559243D01*
X4286519Y4579089D01*
X4291175Y4602500D01*
X4286519Y4625911D01*
X4273257Y4645758D01*
X4253411Y4659019D01*
X4230000Y4663675D01*
D02*
G37*
G36*
X5470000Y4661175D02*
X5446589Y4656519D01*
X5426743Y4643257D01*
X5413481Y4623411D01*
X5408825Y4600000D01*
X5413481Y4576589D01*
X5426743Y4556742D01*
X5446589Y4543481D01*
X5470000Y4538825D01*
X5493411Y4543481D01*
X5513257Y4556742D01*
X5526519Y4576589D01*
X5531175Y4600000D01*
X5526519Y4623411D01*
X5513257Y4643257D01*
X5493411Y4656519D01*
X5470000Y4661175D01*
D02*
G37*
G36*
X6628683Y4642492D02*
X6605272Y4637836D01*
X6585425Y4624574D01*
X6572164Y4604728D01*
X6567507Y4581317D01*
X6572164Y4557906D01*
X6585425Y4538060D01*
X6605272Y4524798D01*
X6628683Y4520142D01*
X6652094Y4524798D01*
X6668356Y4535665D01*
X6686589Y4523481D01*
X6710000Y4518825D01*
X6733411Y4523481D01*
X6752266Y4536080D01*
X6769481Y4524578D01*
X6792892Y4519921D01*
X6816303Y4524578D01*
X6836149Y4537839D01*
X6849410Y4557686D01*
X6854067Y4581097D01*
X6849410Y4604507D01*
X6836149Y4624354D01*
X6816303Y4637615D01*
X6792892Y4642272D01*
X6769481Y4637615D01*
X6750625Y4625016D01*
X6733411Y4636519D01*
X6710000Y4641175D01*
X6686589Y4636519D01*
X6670327Y4625652D01*
X6652094Y4637836D01*
X6628683Y4642492D01*
D02*
G37*
G36*
X7290000Y4631175D02*
X7266589Y4626519D01*
X7246742Y4613257D01*
X7233481Y4593411D01*
X7228825Y4570000D01*
X7233481Y4546589D01*
X7246742Y4526743D01*
X7266589Y4513481D01*
X7290000Y4508825D01*
X7313411Y4513481D01*
X7333257Y4526743D01*
X7346519Y4546589D01*
X7351175Y4570000D01*
X7346519Y4593411D01*
X7333257Y4613257D01*
X7313411Y4626519D01*
X7290000Y4631175D01*
D02*
G37*
G36*
X7530000Y4651175D02*
X7506589Y4646519D01*
X7486742Y4633257D01*
X7473481Y4613411D01*
X7471545Y4603675D01*
X7458486Y4590979D01*
X7435075Y4586322D01*
X7415229Y4573061D01*
X7401967Y4553214D01*
X7397311Y4529803D01*
X7401967Y4506392D01*
X7415229Y4486546D01*
X7435075Y4473284D01*
X7458486Y4468628D01*
X7481897Y4473284D01*
X7501744Y4486546D01*
X7515005Y4506392D01*
X7516942Y4516128D01*
X7530000Y4528825D01*
X7553411Y4533481D01*
X7573257Y4546742D01*
X7586519Y4566589D01*
X7591175Y4590000D01*
X7586519Y4613411D01*
X7573257Y4633257D01*
X7553411Y4646519D01*
X7530000Y4651175D01*
D02*
G37*
G36*
X3560000Y4591175D02*
X3536589Y4586519D01*
X3516743Y4573258D01*
X3503481Y4553411D01*
X3498825Y4530000D01*
X3503481Y4506589D01*
X3516743Y4486743D01*
X3536589Y4473481D01*
X3560000Y4468825D01*
X3583411Y4473481D01*
X3589515Y4477560D01*
X3596743Y4466743D01*
X3616589Y4453481D01*
X3640000Y4448825D01*
X3663411Y4453481D01*
X3683258Y4466743D01*
X3696519Y4486589D01*
X3701175Y4510000D01*
X3696519Y4533411D01*
X3683258Y4553258D01*
X3663411Y4566519D01*
X3640000Y4571176D01*
X3616589Y4566519D01*
X3610485Y4562440D01*
X3603257Y4573258D01*
X3583411Y4586519D01*
X3560000Y4591175D01*
D02*
G37*
G36*
X2143420Y4519700D02*
X2044700D01*
Y4400980D01*
X2069500D01*
X2097788Y4406607D01*
X2121769Y4422630D01*
X2137793Y4446612D01*
X2143420Y4474900D01*
Y4519700D01*
D02*
G37*
G36*
X2019300D02*
X1920580D01*
Y4474900D01*
X1926207Y4446612D01*
X1942231Y4422630D01*
X1966212Y4406607D01*
X1994500Y4400980D01*
X2019300D01*
Y4519700D01*
D02*
G37*
G36*
X8239420Y4496100D02*
X8120700D01*
Y4397380D01*
X8165500D01*
X8193788Y4403007D01*
X8217769Y4419031D01*
X8233793Y4443012D01*
X8239420Y4471300D01*
Y4496100D01*
D02*
G37*
G36*
X8095300D02*
X7976580D01*
Y4471300D01*
X7982207Y4443012D01*
X7998231Y4419031D01*
X8022212Y4403007D01*
X8050500Y4397380D01*
X8095300D01*
Y4496100D01*
D02*
G37*
G36*
X2323500Y4668918D02*
X2248500D01*
X2218261Y4662903D01*
X2192626Y4645774D01*
X2175497Y4620139D01*
X2169482Y4589900D01*
Y4474900D01*
X2175497Y4444661D01*
X2192626Y4419026D01*
X2218261Y4401897D01*
X2248500Y4395882D01*
X2323500D01*
X2353739Y4401897D01*
X2379374Y4419026D01*
X2396503Y4444661D01*
X2402518Y4474900D01*
Y4589900D01*
X2396503Y4620139D01*
X2379374Y4645774D01*
X2353739Y4662903D01*
X2323500Y4668918D01*
D02*
G37*
G36*
X6992073Y4478921D02*
X6968662Y4474265D01*
X6948815Y4461003D01*
X6935554Y4441157D01*
X6930897Y4417746D01*
X6935554Y4394335D01*
X6948815Y4374488D01*
X6968662Y4361227D01*
X6992073Y4356570D01*
X7015484Y4361227D01*
X7035330Y4374488D01*
X7048592Y4394335D01*
X7053248Y4417746D01*
X7048592Y4441157D01*
X7035330Y4461003D01*
X7015484Y4474265D01*
X6992073Y4478921D01*
D02*
G37*
G36*
X7691850Y4469325D02*
X7668439Y4464669D01*
X7648593Y4451407D01*
X7635331Y4431561D01*
X7630675Y4408150D01*
X7635331Y4384739D01*
X7648593Y4364892D01*
X7668439Y4351631D01*
X7691850Y4346975D01*
X7715261Y4351631D01*
X7735108Y4364892D01*
X7748369Y4384739D01*
X7753026Y4408150D01*
X7748369Y4431561D01*
X7735108Y4451407D01*
X7715261Y4464669D01*
X7691850Y4469325D01*
D02*
G37*
G36*
X7200000Y4461175D02*
X7176589Y4456519D01*
X7156743Y4443258D01*
X7143481Y4423411D01*
X7138825Y4400000D01*
X7143481Y4376589D01*
X7156743Y4356743D01*
X7176589Y4343481D01*
X7200000Y4338825D01*
X7223411Y4343481D01*
X7243258Y4356743D01*
X7256519Y4376589D01*
X7261175Y4400000D01*
X7256519Y4423411D01*
X7243258Y4443258D01*
X7223411Y4456519D01*
X7200000Y4461175D01*
D02*
G37*
G36*
X8165500Y4361122D02*
X8050500D01*
X8024163Y4355883D01*
X8001836Y4340964D01*
X7990651Y4324226D01*
X7973603Y4322740D01*
X7973257Y4323258D01*
X7953411Y4336519D01*
X7930000Y4341175D01*
X7906589Y4336519D01*
X7886742Y4323258D01*
X7873481Y4303411D01*
X7868824Y4280000D01*
X7873481Y4256589D01*
X7886742Y4236743D01*
X7906589Y4223481D01*
X7930000Y4218825D01*
X7953411Y4223481D01*
X7966678Y4232346D01*
X7981678Y4224401D01*
Y4217300D01*
X7986917Y4190963D01*
X8001836Y4168636D01*
X8024163Y4153717D01*
X8050500Y4148478D01*
X8165500D01*
X8191837Y4153717D01*
X8214164Y4168636D01*
X8229083Y4190963D01*
X8234322Y4217300D01*
Y4292300D01*
X8229083Y4318637D01*
X8214164Y4340964D01*
X8191837Y4355883D01*
X8165500Y4361122D01*
D02*
G37*
G36*
X2982500Y4431175D02*
X2959089Y4426519D01*
X2939243Y4413257D01*
X2925981Y4393411D01*
X2921325Y4370000D01*
X2925981Y4346589D01*
X2939243Y4326742D01*
X2959089Y4313481D01*
X2982500Y4308825D01*
X3005911Y4313481D01*
X3025758Y4326742D01*
X3039019Y4346589D01*
X3043676Y4370000D01*
X3039019Y4393411D01*
X3025758Y4413257D01*
X3005911Y4426519D01*
X2982500Y4431175D01*
D02*
G37*
G36*
X3180000Y4431371D02*
X3152687Y4425938D01*
X3129533Y4410467D01*
X3114062Y4387313D01*
X3108629Y4360000D01*
X3114062Y4332687D01*
X3129533Y4309533D01*
X3152687Y4294062D01*
X3180000Y4288629D01*
X3207313Y4294062D01*
X3230467Y4309533D01*
X3245938Y4332687D01*
X3251371Y4360000D01*
X3245938Y4387313D01*
X3230467Y4410467D01*
X3207313Y4425938D01*
X3180000Y4431371D01*
D02*
G37*
G36*
X3380000Y4401175D02*
X3356589Y4396519D01*
X3336743Y4383257D01*
X3323481Y4363411D01*
X3318825Y4340000D01*
X3323481Y4316589D01*
X3336743Y4296742D01*
X3356589Y4283481D01*
X3380000Y4278825D01*
X3403411Y4283481D01*
X3423258Y4296742D01*
X3436519Y4316589D01*
X3441175Y4340000D01*
X3436519Y4363411D01*
X3423258Y4383257D01*
X3403411Y4396519D01*
X3380000Y4401175D01*
D02*
G37*
G36*
X2508228Y4384346D02*
X2484817Y4379690D01*
X2464971Y4366428D01*
X2451709Y4346582D01*
X2447053Y4323171D01*
X2451709Y4299760D01*
X2464971Y4279913D01*
X2484817Y4266652D01*
X2508228Y4261996D01*
X2531639Y4266652D01*
X2551486Y4279913D01*
X2564747Y4299760D01*
X2569404Y4323171D01*
X2564747Y4346582D01*
X2551486Y4366428D01*
X2531639Y4379690D01*
X2508228Y4384346D01*
D02*
G37*
G36*
X4450000Y4351175D02*
X4426589Y4346519D01*
X4406743Y4333258D01*
X4393481Y4313411D01*
X4388825Y4290000D01*
X4393481Y4266589D01*
X4406743Y4246743D01*
X4426589Y4233481D01*
X4450000Y4228825D01*
X4473411Y4233481D01*
X4493257Y4246743D01*
X4506519Y4266589D01*
X4511175Y4290000D01*
X4506519Y4313411D01*
X4493257Y4333258D01*
X4473411Y4346519D01*
X4450000Y4351175D01*
D02*
G37*
G36*
X6050000Y4301175D02*
X6026589Y4296519D01*
X6006743Y4283257D01*
X5993481Y4263411D01*
X5988825Y4240000D01*
X5993481Y4216589D01*
X6006743Y4196742D01*
X6026589Y4183481D01*
X6050000Y4178825D01*
X6073411Y4183481D01*
X6093258Y4196742D01*
X6106519Y4216589D01*
X6111175Y4240000D01*
X6106519Y4263411D01*
X6093258Y4283257D01*
X6073411Y4296519D01*
X6050000Y4301175D01*
D02*
G37*
G36*
X7248451Y4271408D02*
X7225040Y4266751D01*
X7205194Y4253490D01*
X7191932Y4233643D01*
X7187276Y4210232D01*
X7191932Y4186821D01*
X7205194Y4166975D01*
X7225040Y4153713D01*
X7248451Y4149057D01*
X7271862Y4153713D01*
X7291709Y4166975D01*
X7304970Y4186821D01*
X7309626Y4210232D01*
X7304970Y4233643D01*
X7291709Y4253490D01*
X7271862Y4266751D01*
X7248451Y4271408D01*
D02*
G37*
G36*
X4770000Y4271175D02*
X4746589Y4266519D01*
X4726743Y4253257D01*
X4713481Y4233411D01*
X4708825Y4210000D01*
X4713481Y4186589D01*
X4726743Y4166742D01*
X4746589Y4153481D01*
X4770000Y4148825D01*
X4793411Y4153481D01*
X4813258Y4166742D01*
X4826519Y4186589D01*
X4831176Y4210000D01*
X4826519Y4233411D01*
X4813258Y4253257D01*
X4793411Y4266519D01*
X4770000Y4271175D01*
D02*
G37*
G36*
X6930000Y4251175D02*
X6906589Y4246519D01*
X6886743Y4233257D01*
X6873481Y4213411D01*
X6868825Y4190000D01*
X6873481Y4166589D01*
X6886743Y4146743D01*
X6906589Y4133481D01*
X6930000Y4128825D01*
X6953411Y4133481D01*
X6973258Y4146743D01*
X6986519Y4166589D01*
X6991176Y4190000D01*
X6986519Y4213411D01*
X6973258Y4233257D01*
X6953411Y4246519D01*
X6930000Y4251175D01*
D02*
G37*
G36*
X2069500Y4364722D02*
X1994500D01*
X1968163Y4359483D01*
X1945836Y4344564D01*
X1930917Y4322237D01*
X1925678Y4295900D01*
Y4180900D01*
X1930917Y4154563D01*
X1945836Y4132236D01*
X1968163Y4117317D01*
X1994500Y4112078D01*
X2069500D01*
X2095837Y4117317D01*
X2118164Y4132236D01*
X2133083Y4154563D01*
X2138322Y4180900D01*
Y4295900D01*
X2133083Y4322237D01*
X2118164Y4344564D01*
X2095837Y4359483D01*
X2069500Y4364722D01*
D02*
G37*
G36*
X2323500Y4374918D02*
X2248500D01*
X2218261Y4368903D01*
X2192626Y4351774D01*
X2175497Y4326139D01*
X2169482Y4295900D01*
Y4180900D01*
X2175497Y4150661D01*
X2192626Y4125026D01*
X2218261Y4107897D01*
X2248500Y4101882D01*
X2323500D01*
X2353739Y4107897D01*
X2379374Y4125026D01*
X2396503Y4150661D01*
X2402518Y4180900D01*
Y4295900D01*
X2396503Y4326139D01*
X2379374Y4351774D01*
X2353739Y4368903D01*
X2323500Y4374918D01*
D02*
G37*
G36*
X4200000Y4181175D02*
X4176589Y4176519D01*
X4156743Y4163257D01*
X4143481Y4143411D01*
X4138825Y4120000D01*
X4143481Y4096589D01*
X4156743Y4076742D01*
X4176589Y4063481D01*
X4200000Y4058824D01*
X4223411Y4063481D01*
X4243257Y4076742D01*
X4256519Y4096589D01*
X4261175Y4120000D01*
X4256519Y4143411D01*
X4243257Y4163257D01*
X4223411Y4176519D01*
X4200000Y4181175D01*
D02*
G37*
G36*
X7714497Y4176678D02*
X7691086Y4172021D01*
X7671240Y4158760D01*
X7657979Y4138913D01*
X7653322Y4115503D01*
X7657979Y4092092D01*
X7671240Y4072245D01*
X7691086Y4058984D01*
X7714497Y4054327D01*
X7737908Y4058984D01*
X7757755Y4072245D01*
X7771016Y4092092D01*
X7775673Y4115503D01*
X7771016Y4138913D01*
X7757755Y4158760D01*
X7737908Y4172021D01*
X7714497Y4176678D01*
D02*
G37*
G36*
X2700000Y4161175D02*
X2676589Y4156519D01*
X2656742Y4143257D01*
X2643481Y4123411D01*
X2638825Y4100000D01*
X2643481Y4076589D01*
X2656742Y4056742D01*
X2676589Y4043481D01*
X2700000Y4038825D01*
X2723411Y4043481D01*
X2743257Y4056742D01*
X2756519Y4076589D01*
X2761175Y4100000D01*
X2756519Y4123411D01*
X2743257Y4143257D01*
X2723411Y4156519D01*
X2700000Y4161175D01*
D02*
G37*
G36*
X6824877Y4146580D02*
X6801466Y4141923D01*
X6781620Y4128662D01*
X6768359Y4108816D01*
X6763702Y4085405D01*
X6768359Y4061994D01*
X6781620Y4042147D01*
X6801466Y4028886D01*
X6824877Y4024229D01*
X6848288Y4028886D01*
X6868135Y4042147D01*
X6881396Y4061994D01*
X6886053Y4085405D01*
X6881396Y4108816D01*
X6868135Y4128662D01*
X6848288Y4141923D01*
X6824877Y4146580D01*
D02*
G37*
G36*
X7830000Y4051175D02*
X7806589Y4046519D01*
X7786743Y4033257D01*
X7773481Y4013411D01*
X7768825Y3990000D01*
X7773481Y3966589D01*
X7786743Y3946742D01*
X7806589Y3933481D01*
X7830000Y3928825D01*
X7853411Y3933481D01*
X7873258Y3946742D01*
X7886519Y3966589D01*
X7891175Y3990000D01*
X7886519Y4013411D01*
X7873258Y4033257D01*
X7853411Y4046519D01*
X7830000Y4051175D01*
D02*
G37*
G36*
X8165500Y4107122D02*
X8050500D01*
X8024163Y4101883D01*
X8001836Y4086964D01*
X7986917Y4064637D01*
X7981678Y4038300D01*
Y3963300D01*
X7986917Y3936963D01*
X8001836Y3914636D01*
X8024163Y3899717D01*
X8050500Y3894478D01*
X8165500D01*
X8191837Y3899717D01*
X8214164Y3914636D01*
X8229083Y3936963D01*
X8234322Y3963300D01*
Y4038300D01*
X8229083Y4064637D01*
X8214164Y4086964D01*
X8191837Y4101883D01*
X8165500Y4107122D01*
D02*
G37*
G36*
X7309341Y4142542D02*
X7285930Y4137886D01*
X7266084Y4124624D01*
X7252822Y4104778D01*
X7248166Y4081367D01*
X7252822Y4057956D01*
X7266084Y4038109D01*
X7285930Y4024848D01*
X7309341Y4020191D01*
X7332752Y4024848D01*
X7336976Y4027670D01*
X7340863Y4025073D01*
X7341207Y4024074D01*
X7339836Y4007719D01*
X7325677Y3998258D01*
X7312415Y3978411D01*
X7307759Y3955000D01*
X7312415Y3931589D01*
X7325677Y3911743D01*
X7345523Y3898481D01*
X7368934Y3893825D01*
X7392345Y3898481D01*
X7412192Y3911743D01*
X7425453Y3931589D01*
X7430110Y3955000D01*
X7425453Y3978411D01*
X7412192Y3998258D01*
X7410332Y3999500D01*
X7413258Y4014212D01*
X7416938Y4014944D01*
X7436784Y4028205D01*
X7450046Y4048052D01*
X7454702Y4071463D01*
X7450046Y4094873D01*
X7436784Y4114720D01*
X7416938Y4127981D01*
X7393527Y4132638D01*
X7370116Y4127981D01*
X7356455Y4118853D01*
X7352599Y4124624D01*
X7332752Y4137886D01*
X7309341Y4142542D01*
D02*
G37*
G36*
X4160000Y3991175D02*
X4136589Y3986519D01*
X4116743Y3973257D01*
X4103481Y3953411D01*
X4098825Y3930000D01*
X4103481Y3906589D01*
X4116743Y3886743D01*
X4136589Y3873481D01*
X4160000Y3868825D01*
X4183411Y3873481D01*
X4203258Y3886743D01*
X4216519Y3906589D01*
X4221175Y3930000D01*
X4216519Y3953411D01*
X4203258Y3973257D01*
X4183411Y3986519D01*
X4160000Y3991175D01*
D02*
G37*
G36*
X2504246Y3975422D02*
X2480836Y3970766D01*
X2460989Y3957504D01*
X2447728Y3937658D01*
X2443071Y3914247D01*
X2447728Y3890836D01*
X2460989Y3870989D01*
X2480836Y3857728D01*
X2504246Y3853072D01*
X2527657Y3857728D01*
X2547504Y3870989D01*
X2560765Y3890836D01*
X2565422Y3914247D01*
X2560765Y3937658D01*
X2547504Y3957504D01*
X2527657Y3970766D01*
X2504246Y3975422D01*
D02*
G37*
G36*
X6810000Y4011175D02*
X6786589Y4006519D01*
X6766743Y3993257D01*
X6753481Y3973411D01*
X6748825Y3950000D01*
X6753481Y3926589D01*
X6766743Y3906742D01*
X6786589Y3893481D01*
X6810000Y3888824D01*
X6817923Y3890400D01*
X6831853Y3883548D01*
X6832716Y3879213D01*
X6836510Y3860137D01*
X6849772Y3840290D01*
X6869618Y3827029D01*
X6893029Y3822372D01*
X6916440Y3827029D01*
X6936287Y3840290D01*
X6949548Y3860137D01*
X6954205Y3883548D01*
X6949548Y3906959D01*
X6936287Y3926805D01*
X6916440Y3940067D01*
X6893029Y3944723D01*
X6885106Y3943147D01*
X6871176Y3950000D01*
X6870313Y3954335D01*
X6866519Y3973411D01*
X6853258Y3993257D01*
X6833411Y4006519D01*
X6810000Y4011175D01*
D02*
G37*
G36*
X7664046Y3918653D02*
X7640635Y3913996D01*
X7620789Y3900735D01*
X7607527Y3880889D01*
X7602871Y3857478D01*
X7607527Y3834067D01*
X7620789Y3814220D01*
X7640635Y3800959D01*
X7664046Y3796302D01*
X7687457Y3800959D01*
X7694341Y3805559D01*
X7695139Y3804366D01*
X7714985Y3791105D01*
X7738396Y3786448D01*
X7761807Y3791105D01*
X7781653Y3804366D01*
X7794915Y3824213D01*
X7799571Y3847623D01*
X7794915Y3871034D01*
X7781653Y3890881D01*
X7761807Y3904142D01*
X7738396Y3908799D01*
X7714985Y3904142D01*
X7708101Y3899542D01*
X7707304Y3900735D01*
X7687457Y3913996D01*
X7664046Y3918653D01*
D02*
G37*
G36*
X2980000Y3901175D02*
X2956589Y3896519D01*
X2936742Y3883257D01*
X2923481Y3863411D01*
X2918824Y3840000D01*
X2923481Y3816589D01*
X2936742Y3796742D01*
X2956589Y3783481D01*
X2980000Y3778825D01*
X3003411Y3783481D01*
X3023257Y3796742D01*
X3036519Y3816589D01*
X3041175Y3840000D01*
X3036519Y3863411D01*
X3023257Y3883257D01*
X3003411Y3896519D01*
X2980000Y3901175D01*
D02*
G37*
G36*
X5250000Y3881176D02*
X5226589Y3876519D01*
X5206742Y3863258D01*
X5193481Y3843411D01*
X5188825Y3820000D01*
X5193481Y3796589D01*
X5206742Y3776743D01*
X5226589Y3763481D01*
X5250000Y3758825D01*
X5273411Y3763481D01*
X5293257Y3776743D01*
X5306519Y3796589D01*
X5311175Y3820000D01*
X5306519Y3843411D01*
X5293257Y3863258D01*
X5273411Y3876519D01*
X5250000Y3881176D01*
D02*
G37*
G36*
X8165500Y3853122D02*
X8050500D01*
X8024163Y3847883D01*
X8001836Y3832964D01*
X7986917Y3810637D01*
X7981678Y3784300D01*
Y3756111D01*
X7966678Y3747396D01*
X7947678Y3751175D01*
X7924267Y3746519D01*
X7904421Y3733257D01*
X7891159Y3713411D01*
X7886503Y3690000D01*
X7891159Y3666589D01*
X7904421Y3646743D01*
X7924267Y3633481D01*
X7947678Y3628825D01*
X7971089Y3633481D01*
X7990936Y3646743D01*
X8000219Y3660636D01*
X8001836D01*
X8024163Y3645717D01*
X8050500Y3640478D01*
X8165500D01*
X8191837Y3645717D01*
X8214164Y3660636D01*
X8229083Y3682963D01*
X8234322Y3709300D01*
Y3784300D01*
X8229083Y3810637D01*
X8214164Y3832964D01*
X8191837Y3847883D01*
X8165500Y3853122D01*
D02*
G37*
G36*
X4829990Y3851168D02*
X4806579Y3846511D01*
X4786733Y3833250D01*
X4773472Y3813403D01*
X4768815Y3789992D01*
X4773472Y3766581D01*
X4786733Y3746735D01*
X4806579Y3733474D01*
X4829990Y3728817D01*
X4853401Y3733474D01*
X4873248Y3746735D01*
X4886509Y3766581D01*
X4891166Y3789992D01*
X4886509Y3813403D01*
X4873248Y3833250D01*
X4853401Y3846511D01*
X4829990Y3851168D01*
D02*
G37*
G36*
X4460000Y4121175D02*
X4436589Y4116519D01*
X4416743Y4103257D01*
X4403481Y4083411D01*
X4398825Y4060000D01*
X4403481Y4036589D01*
X4412179Y4023572D01*
X4396743Y4013257D01*
X4383481Y3993411D01*
X4378825Y3970000D01*
X4383481Y3946589D01*
X4396743Y3926742D01*
X4416589Y3913481D01*
X4424457Y3911916D01*
X4426447Y3901406D01*
X4425967Y3896322D01*
X4407401Y3883916D01*
X4394140Y3864069D01*
X4389483Y3840659D01*
X4394140Y3817248D01*
X4402939Y3804080D01*
X4386743Y3793258D01*
X4373481Y3773411D01*
X4368825Y3750000D01*
X4373481Y3726589D01*
X4386743Y3706743D01*
X4406589Y3693481D01*
X4430000Y3688825D01*
X4453411Y3693481D01*
X4473257Y3706743D01*
X4486519Y3726589D01*
X4491175Y3750000D01*
X4486519Y3773411D01*
X4477720Y3786579D01*
X4493916Y3797401D01*
X4507177Y3817248D01*
X4511834Y3840659D01*
X4507177Y3864069D01*
X4493916Y3883916D01*
X4474070Y3897177D01*
X4466202Y3898742D01*
X4464212Y3909252D01*
X4464691Y3914337D01*
X4483257Y3926742D01*
X4496519Y3946589D01*
X4501175Y3970000D01*
X4496519Y3993411D01*
X4487821Y4006428D01*
X4503257Y4016743D01*
X4516519Y4036589D01*
X4521175Y4060000D01*
X4516519Y4083411D01*
X4503257Y4103257D01*
X4483411Y4116519D01*
X4460000Y4121175D01*
D02*
G37*
G36*
X4936183Y3764992D02*
X4912772Y3760336D01*
X4892925Y3747074D01*
X4879664Y3727228D01*
X4875008Y3703817D01*
X4879664Y3680406D01*
X4892925Y3660559D01*
X4912772Y3647298D01*
X4936183Y3642641D01*
X4959594Y3647298D01*
X4979440Y3660559D01*
X4992702Y3680406D01*
X4997358Y3703817D01*
X4992702Y3727228D01*
X4979440Y3747074D01*
X4959594Y3760336D01*
X4936183Y3764992D01*
D02*
G37*
G36*
X8459500Y3853122D02*
X8344500D01*
X8318163Y3847883D01*
X8295836Y3832964D01*
X8280917Y3810637D01*
X8275678Y3784300D01*
Y3709300D01*
X8280917Y3682963D01*
X8295836Y3660636D01*
X8318163Y3645717D01*
X8344500Y3640478D01*
X8459500D01*
X8485837Y3645717D01*
X8508164Y3660636D01*
X8523083Y3682963D01*
X8528322Y3709300D01*
Y3784300D01*
X8523083Y3810637D01*
X8508164Y3832964D01*
X8485837Y3847883D01*
X8459500Y3853122D01*
D02*
G37*
G36*
X7220000Y3891175D02*
X7196589Y3886519D01*
X7176743Y3873257D01*
X7163481Y3853411D01*
X7158825Y3830000D01*
X7163481Y3806589D01*
X7176743Y3786742D01*
X7196589Y3773481D01*
X7220000Y3768825D01*
X7243411Y3773481D01*
X7248326Y3776765D01*
X7261825Y3767745D01*
X7260285Y3760000D01*
X7264942Y3736589D01*
X7278203Y3716743D01*
X7298049Y3703481D01*
X7321460Y3698825D01*
X7344871Y3703481D01*
X7347853Y3705473D01*
X7353958Y3703154D01*
X7362623Y3697302D01*
X7366729Y3676661D01*
X7379990Y3656815D01*
X7399837Y3643554D01*
X7423248Y3638897D01*
X7446659Y3643554D01*
X7466505Y3656815D01*
X7479767Y3676661D01*
X7484423Y3700072D01*
X7479767Y3723483D01*
X7466505Y3743330D01*
X7446659Y3756591D01*
X7423248Y3761248D01*
X7399837Y3756591D01*
X7396855Y3754599D01*
X7390750Y3756918D01*
X7382085Y3762770D01*
X7377979Y3783411D01*
X7364718Y3803258D01*
X7344871Y3816519D01*
X7321460Y3821175D01*
X7298049Y3816519D01*
X7293135Y3813235D01*
X7279635Y3822255D01*
X7281175Y3830000D01*
X7276519Y3853411D01*
X7263258Y3873257D01*
X7243411Y3886519D01*
X7220000Y3891175D01*
D02*
G37*
G36*
X5620000Y3831175D02*
X5596589Y3826519D01*
X5576742Y3813258D01*
X5563481Y3793411D01*
X5558825Y3770000D01*
X5563417Y3746911D01*
X5551231Y3738768D01*
X5537970Y3718922D01*
X5533314Y3695511D01*
X5537970Y3672100D01*
X5551231Y3652254D01*
X5571078Y3638992D01*
X5594489Y3634336D01*
X5617900Y3638992D01*
X5637746Y3652254D01*
X5651008Y3672100D01*
X5655664Y3695511D01*
X5651072Y3718600D01*
X5663257Y3726743D01*
X5676519Y3746589D01*
X5681175Y3770000D01*
X5676519Y3793411D01*
X5663257Y3813258D01*
X5643411Y3826519D01*
X5620000Y3831175D01*
D02*
G37*
G36*
X7582500Y3699607D02*
X7559089Y3694950D01*
X7539242Y3681689D01*
X7525981Y3661842D01*
X7521325Y3638431D01*
X7525981Y3615020D01*
X7539242Y3595174D01*
X7559089Y3581913D01*
X7582500Y3577256D01*
X7605911Y3581913D01*
X7625757Y3595174D01*
X7639019Y3615020D01*
X7643675Y3638431D01*
X7639019Y3661842D01*
X7625757Y3681689D01*
X7605911Y3694950D01*
X7582500Y3699607D01*
D02*
G37*
G36*
X3159857Y3686914D02*
X3136446Y3682257D01*
X3116599Y3668996D01*
X3103338Y3649149D01*
X3098681Y3625738D01*
X3103338Y3602328D01*
X3116599Y3582481D01*
X3136446Y3569220D01*
X3159857Y3564563D01*
X3183268Y3569220D01*
X3203114Y3582481D01*
X3216376Y3602328D01*
X3221032Y3625738D01*
X3216376Y3649149D01*
X3203114Y3668996D01*
X3183268Y3682257D01*
X3159857Y3686914D01*
D02*
G37*
G36*
X3560000Y3661175D02*
X3536589Y3656519D01*
X3516743Y3643257D01*
X3503481Y3623411D01*
X3498825Y3600000D01*
X3503481Y3576589D01*
X3516743Y3556742D01*
X3536589Y3543481D01*
X3560000Y3538825D01*
X3583411Y3543481D01*
X3603257Y3556742D01*
X3616519Y3576589D01*
X3621175Y3600000D01*
X3616519Y3623411D01*
X3603257Y3643257D01*
X3583411Y3656519D01*
X3560000Y3661175D01*
D02*
G37*
G36*
X7329038Y3660213D02*
X7305627Y3655557D01*
X7285781Y3642295D01*
X7272519Y3622449D01*
X7267863Y3599038D01*
X7272519Y3575627D01*
X7285781Y3555781D01*
X7305627Y3542519D01*
X7329038Y3537863D01*
X7352449Y3542519D01*
X7372296Y3555781D01*
X7385557Y3575627D01*
X7390214Y3599038D01*
X7385557Y3622449D01*
X7372296Y3642295D01*
X7352449Y3655557D01*
X7329038Y3660213D01*
D02*
G37*
G36*
X4760167Y3639449D02*
X4736756Y3634793D01*
X4716910Y3621531D01*
X4703648Y3601685D01*
X4698992Y3578274D01*
X4703648Y3554863D01*
X4716910Y3535016D01*
X4736756Y3521755D01*
X4760167Y3517098D01*
X4783578Y3521755D01*
X4803425Y3535016D01*
X4816686Y3554863D01*
X4821343Y3578274D01*
X4816686Y3601685D01*
X4803425Y3621531D01*
X4783578Y3634793D01*
X4760167Y3639449D01*
D02*
G37*
G36*
X6746078Y3830636D02*
X6722668Y3825979D01*
X6702821Y3812718D01*
X6689560Y3792871D01*
X6684903Y3769460D01*
X6689560Y3746049D01*
X6702821Y3726203D01*
X6722668Y3712942D01*
X6732658Y3710954D01*
X6737473Y3696427D01*
X6733867Y3690704D01*
X6712825Y3686519D01*
X6692978Y3673257D01*
X6679717Y3653411D01*
X6675060Y3630000D01*
X6679717Y3606589D01*
X6692978Y3586742D01*
X6712825Y3573481D01*
X6735297Y3569011D01*
X6734657Y3565790D01*
X6739313Y3542379D01*
X6752575Y3522533D01*
X6772421Y3509271D01*
X6795832Y3504615D01*
X6819243Y3509271D01*
X6839089Y3522533D01*
X6852351Y3542379D01*
X6857007Y3565790D01*
X6852351Y3589201D01*
X6839089Y3609048D01*
X6827246Y3616961D01*
X6830414Y3632885D01*
X6833411Y3633481D01*
X6853258Y3646743D01*
X6866519Y3666589D01*
X6871175Y3690000D01*
X6866519Y3713411D01*
X6853258Y3733257D01*
X6833411Y3746519D01*
X6818572Y3749471D01*
X6806280Y3764565D01*
X6807254Y3769460D01*
X6802597Y3792871D01*
X6789336Y3812718D01*
X6769489Y3825979D01*
X6746078Y3830636D01*
D02*
G37*
G36*
X4959598Y3564344D02*
X4936187Y3559687D01*
X4916340Y3546426D01*
X4903079Y3526579D01*
X4898423Y3503168D01*
X4900125Y3494607D01*
X4886625Y3485587D01*
X4881159Y3489240D01*
X4857748Y3493897D01*
X4834337Y3489240D01*
X4814490Y3475979D01*
X4801229Y3456132D01*
X4796573Y3432721D01*
X4801229Y3409310D01*
X4814490Y3389464D01*
X4834337Y3376203D01*
X4857748Y3371546D01*
X4881159Y3376203D01*
X4901005Y3389464D01*
X4914267Y3409310D01*
X4918923Y3432721D01*
X4917221Y3441282D01*
X4930720Y3450302D01*
X4936187Y3446649D01*
X4959598Y3441993D01*
X4983009Y3446649D01*
X5002855Y3459911D01*
X5016117Y3479757D01*
X5020773Y3503168D01*
X5016117Y3526579D01*
X5002855Y3546426D01*
X4983009Y3559687D01*
X4959598Y3564344D01*
D02*
G37*
G36*
X6920000Y3551175D02*
X6896589Y3546519D01*
X6876742Y3533257D01*
X6863481Y3513411D01*
X6859032Y3491043D01*
X6857356Y3486666D01*
X6848527Y3477838D01*
X6839381Y3479657D01*
X6815970Y3475001D01*
X6796123Y3461739D01*
X6786828Y3447828D01*
X6770000Y3451175D01*
X6746589Y3446519D01*
X6726742Y3433257D01*
X6713481Y3413411D01*
X6708825Y3390000D01*
X6713481Y3366589D01*
X6726742Y3346742D01*
X6746589Y3333481D01*
X6770000Y3328824D01*
X6793411Y3333481D01*
X6813257Y3346742D01*
X6822553Y3360654D01*
X6839381Y3357306D01*
X6862792Y3361963D01*
X6882638Y3375224D01*
X6895900Y3395071D01*
X6900349Y3417439D01*
X6902025Y3421815D01*
X6910853Y3430644D01*
X6920000Y3428824D01*
X6943411Y3433481D01*
X6963257Y3446742D01*
X6976519Y3466589D01*
X6981175Y3490000D01*
X6976519Y3513411D01*
X6963257Y3533257D01*
X6943411Y3546519D01*
X6920000Y3551175D01*
D02*
G37*
G36*
X5307936Y3582562D02*
X5284525Y3577905D01*
X5264679Y3564644D01*
X5251417Y3544797D01*
X5246761Y3521386D01*
X5251417Y3497975D01*
X5264679Y3478129D01*
X5284525Y3464867D01*
X5307936Y3460211D01*
X5331347Y3464867D01*
X5351194Y3478129D01*
X5364455Y3497975D01*
X5369111Y3521386D01*
X5364455Y3544797D01*
X5351194Y3564644D01*
X5331347Y3577905D01*
X5307936Y3582562D01*
D02*
G37*
G36*
X2690072Y3566371D02*
X2662759Y3560939D01*
X2639605Y3545467D01*
X2624133Y3522313D01*
X2618700Y3495000D01*
X2624133Y3467688D01*
X2639605Y3444533D01*
X2662759Y3429062D01*
X2690072Y3423629D01*
X2717384Y3429062D01*
X2740539Y3444533D01*
X2756010Y3467688D01*
X2761443Y3495000D01*
X2756010Y3522313D01*
X2740539Y3545467D01*
X2717384Y3560939D01*
X2690072Y3566371D01*
D02*
G37*
G36*
X4480000Y3521175D02*
X4456589Y3516519D01*
X4436742Y3503257D01*
X4423481Y3483411D01*
X4418825Y3460000D01*
X4423481Y3436589D01*
X4436742Y3416742D01*
X4456589Y3403481D01*
X4480000Y3398825D01*
X4503411Y3403481D01*
X4523257Y3416742D01*
X4536519Y3436589D01*
X4541175Y3460000D01*
X4536519Y3483411D01*
X4523257Y3503257D01*
X4503411Y3516519D01*
X4480000Y3521175D01*
D02*
G37*
G36*
X8459500Y3599122D02*
X8344500D01*
X8318163Y3593883D01*
X8295836Y3578964D01*
X8280917Y3556637D01*
X8275678Y3530300D01*
Y3455300D01*
X8280917Y3428963D01*
X8295836Y3406636D01*
X8318163Y3391717D01*
X8344500Y3386478D01*
X8459500D01*
X8485837Y3391717D01*
X8508164Y3406636D01*
X8523083Y3428963D01*
X8528322Y3455300D01*
Y3530300D01*
X8523083Y3556637D01*
X8508164Y3578964D01*
X8485837Y3593883D01*
X8459500Y3599122D01*
D02*
G37*
G36*
X8165500D02*
X8050500D01*
X8024163Y3593883D01*
X8001836Y3578964D01*
X7986917Y3556637D01*
X7981678Y3530300D01*
Y3455300D01*
X7986917Y3428963D01*
X8001836Y3406636D01*
X8024163Y3391717D01*
X8050500Y3386478D01*
X8165500D01*
X8191837Y3391717D01*
X8214164Y3406636D01*
X8229083Y3428963D01*
X8234322Y3455300D01*
Y3530300D01*
X8229083Y3556637D01*
X8214164Y3578964D01*
X8191837Y3593883D01*
X8165500Y3599122D01*
D02*
G37*
G36*
X7522500Y3571175D02*
X7499089Y3566519D01*
X7479243Y3553258D01*
X7465981Y3533411D01*
X7461325Y3510000D01*
X7465981Y3486589D01*
X7479243Y3466743D01*
X7499089Y3453481D01*
X7502371Y3452829D01*
X7498825Y3435000D01*
X7503481Y3411589D01*
X7516743Y3391743D01*
X7536589Y3378481D01*
X7560000Y3373825D01*
X7583411Y3378481D01*
X7603258Y3391743D01*
X7616519Y3411589D01*
X7621176Y3435000D01*
X7616519Y3458411D01*
X7603258Y3478258D01*
X7583411Y3491519D01*
X7580129Y3492172D01*
X7583675Y3510000D01*
X7579019Y3533411D01*
X7565758Y3553258D01*
X7545911Y3566519D01*
X7522500Y3571175D01*
D02*
G37*
G36*
X3172500Y3506371D02*
X3145188Y3500938D01*
X3122033Y3485467D01*
X3106562Y3462313D01*
X3101129Y3435000D01*
X3106562Y3407687D01*
X3122033Y3384533D01*
X3145188Y3369062D01*
X3172500Y3363629D01*
X3199813Y3369062D01*
X3222967Y3384533D01*
X3238439Y3407687D01*
X3243871Y3435000D01*
X3238439Y3462313D01*
X3222967Y3485467D01*
X3199813Y3500938D01*
X3172500Y3506371D01*
D02*
G37*
G36*
X3470000Y3461175D02*
X3446589Y3456519D01*
X3426742Y3443258D01*
X3413481Y3423411D01*
X3408825Y3400000D01*
X3413481Y3376589D01*
X3426742Y3356743D01*
X3446589Y3343481D01*
X3470000Y3338825D01*
X3493411Y3343481D01*
X3513257Y3356743D01*
X3524130Y3373015D01*
X3535028Y3370779D01*
X3539081Y3368710D01*
X3543481Y3346589D01*
X3556742Y3326743D01*
X3576589Y3313481D01*
X3600000Y3308825D01*
X3623411Y3313481D01*
X3643257Y3326743D01*
X3656519Y3346589D01*
X3661175Y3370000D01*
X3656519Y3393411D01*
X3643257Y3413258D01*
X3623411Y3426519D01*
X3600000Y3431176D01*
X3576589Y3426519D01*
X3556742Y3413258D01*
X3545870Y3396986D01*
X3534972Y3399221D01*
X3530919Y3401290D01*
X3526519Y3423411D01*
X3513257Y3443258D01*
X3493411Y3456519D01*
X3470000Y3461175D01*
D02*
G37*
G36*
X4177819Y3573505D02*
X4154408Y3568848D01*
X4134562Y3555587D01*
X4121300Y3535740D01*
X4116644Y3512330D01*
X4121300Y3488919D01*
X4134562Y3469072D01*
X4154408Y3455811D01*
X4177819Y3451154D01*
X4190849Y3453746D01*
X4193985Y3437976D01*
X4205628Y3420552D01*
X4207247Y3409883D01*
Y3403593D01*
X4206734Y3403251D01*
X4193473Y3383404D01*
X4188816Y3359993D01*
X4193473Y3336582D01*
X4206734Y3316736D01*
X4226581Y3303474D01*
X4249991Y3298818D01*
X4273402Y3303474D01*
X4293249Y3316736D01*
X4306510Y3336582D01*
X4311167Y3359993D01*
X4306510Y3383404D01*
X4294868Y3400828D01*
X4293249Y3411497D01*
Y3417787D01*
X4293762Y3418130D01*
X4307023Y3437976D01*
X4311679Y3461387D01*
X4307023Y3484798D01*
X4293762Y3504645D01*
X4273915Y3517906D01*
X4250504Y3522562D01*
X4237475Y3519971D01*
X4234338Y3535740D01*
X4221077Y3555587D01*
X4201230Y3568848D01*
X4177819Y3573505D01*
D02*
G37*
G36*
X8459500Y3345122D02*
X8344500D01*
X8318163Y3339883D01*
X8295836Y3324964D01*
X8280917Y3302637D01*
X8275678Y3276300D01*
Y3201300D01*
X8280917Y3174963D01*
X8295836Y3152636D01*
X8318163Y3137717D01*
X8344500Y3132478D01*
X8459500D01*
X8485837Y3137717D01*
X8508164Y3152636D01*
X8523083Y3174963D01*
X8528322Y3201300D01*
Y3276300D01*
X8523083Y3302637D01*
X8508164Y3324964D01*
X8485837Y3339883D01*
X8459500Y3345122D01*
D02*
G37*
G36*
X8165500D02*
X8050500D01*
X8024163Y3339883D01*
X8001836Y3324964D01*
X7986917Y3302637D01*
X7981678Y3276300D01*
Y3201300D01*
X7986917Y3174963D01*
X8001836Y3152636D01*
X8024163Y3137717D01*
X8050500Y3132478D01*
X8165500D01*
X8191837Y3137717D01*
X8214164Y3152636D01*
X8229083Y3174963D01*
X8234322Y3201300D01*
Y3276300D01*
X8229083Y3302637D01*
X8214164Y3324964D01*
X8191837Y3339883D01*
X8165500Y3345122D01*
D02*
G37*
G36*
X7320000Y3402607D02*
X7296589Y3397951D01*
X7276743Y3384689D01*
X7263481Y3364843D01*
X7258825Y3341432D01*
X7263481Y3318021D01*
X7276743Y3298174D01*
X7293609Y3286904D01*
X7293481Y3286713D01*
X7288825Y3263302D01*
X7291951Y3247585D01*
X7286589Y3246519D01*
X7266743Y3233257D01*
X7253481Y3213411D01*
X7248825Y3190000D01*
X7253481Y3166589D01*
X7266743Y3146742D01*
X7286589Y3133481D01*
X7310000Y3128825D01*
X7333411Y3133481D01*
X7353258Y3146742D01*
X7366519Y3166589D01*
X7371176Y3190000D01*
X7368049Y3205717D01*
X7373411Y3206784D01*
X7393258Y3220045D01*
X7406519Y3239891D01*
X7411175Y3263302D01*
X7406519Y3286713D01*
X7393258Y3306560D01*
X7376391Y3317830D01*
X7376519Y3318021D01*
X7381175Y3341432D01*
X7376519Y3364843D01*
X7363258Y3384689D01*
X7343411Y3397951D01*
X7320000Y3402607D01*
D02*
G37*
G36*
X5070000Y3241175D02*
X5046589Y3236519D01*
X5026743Y3223257D01*
X5013481Y3203411D01*
X5008825Y3180000D01*
X5013481Y3156589D01*
X5026743Y3136743D01*
X5046589Y3123481D01*
X5070000Y3118825D01*
X5093411Y3123481D01*
X5113257Y3136743D01*
X5126519Y3156589D01*
X5131175Y3180000D01*
X5126519Y3203411D01*
X5113257Y3223257D01*
X5093411Y3236519D01*
X5070000Y3241175D01*
D02*
G37*
G36*
X2950000Y3231175D02*
X2926589Y3226519D01*
X2906742Y3213257D01*
X2893481Y3193411D01*
X2888825Y3170000D01*
X2893481Y3146589D01*
X2906742Y3126743D01*
X2926589Y3113481D01*
X2950000Y3108825D01*
X2973411Y3113481D01*
X2993257Y3126743D01*
X3006519Y3146589D01*
X3011175Y3170000D01*
X3006519Y3193411D01*
X2993257Y3213257D01*
X2973411Y3226519D01*
X2950000Y3231175D01*
D02*
G37*
G36*
X6810000Y3311175D02*
X6786589Y3306519D01*
X6766743Y3293257D01*
X6753481Y3273411D01*
X6748825Y3250000D01*
X6753481Y3226589D01*
X6766743Y3206742D01*
X6770646Y3204134D01*
X6763481Y3193411D01*
X6758825Y3170000D01*
X6763481Y3146589D01*
X6776743Y3126742D01*
X6796589Y3113481D01*
X6820000Y3108824D01*
X6843411Y3113481D01*
X6863258Y3126742D01*
X6876519Y3146589D01*
X6881175Y3170000D01*
X6876519Y3193411D01*
X6863258Y3213257D01*
X6859354Y3215866D01*
X6866519Y3226589D01*
X6871175Y3250000D01*
X6866519Y3273411D01*
X6853258Y3293257D01*
X6833411Y3306519D01*
X6810000Y3311175D01*
D02*
G37*
G36*
X7640000Y3161175D02*
X7616589Y3156519D01*
X7596742Y3143257D01*
X7583481Y3123411D01*
X7581870Y3115312D01*
X7565244Y3108612D01*
X7553411Y3116519D01*
X7530000Y3121175D01*
X7506589Y3116519D01*
X7486742Y3103257D01*
X7473481Y3083411D01*
X7468825Y3060000D01*
X7473481Y3036589D01*
X7486742Y3016743D01*
X7506589Y3003481D01*
X7530000Y2998825D01*
X7553411Y3003481D01*
X7573257Y3016743D01*
X7586519Y3036589D01*
X7588130Y3044688D01*
X7604756Y3051388D01*
X7616589Y3043481D01*
X7640000Y3038825D01*
X7663411Y3043481D01*
X7683257Y3056742D01*
X7696519Y3076589D01*
X7701175Y3100000D01*
X7696519Y3123411D01*
X7683257Y3143257D01*
X7663411Y3156519D01*
X7640000Y3161175D01*
D02*
G37*
G36*
X5380000D02*
X5356589Y3156519D01*
X5336742Y3143257D01*
X5323481Y3123411D01*
X5319209Y3101930D01*
X5316244Y3098310D01*
X5305293Y3091139D01*
X5286249Y3094927D01*
X5262838Y3090270D01*
X5242991Y3077009D01*
X5229730Y3057162D01*
X5225073Y3033751D01*
X5229730Y3010340D01*
X5239786Y2995291D01*
X5236743Y2993257D01*
X5223481Y2973411D01*
X5218825Y2950000D01*
X5223481Y2926589D01*
X5236743Y2906742D01*
X5256589Y2893481D01*
X5280000Y2888825D01*
X5303411Y2893481D01*
X5323258Y2906742D01*
X5336519Y2926589D01*
X5341175Y2950000D01*
X5336519Y2973411D01*
X5326463Y2988460D01*
X5329506Y2990494D01*
X5342768Y3010340D01*
X5347040Y3031821D01*
X5350005Y3035441D01*
X5360955Y3042613D01*
X5380000Y3038825D01*
X5403411Y3043481D01*
X5423257Y3056742D01*
X5436519Y3076589D01*
X5441175Y3100000D01*
X5436519Y3123411D01*
X5423257Y3143257D01*
X5403411Y3156519D01*
X5380000Y3161175D01*
D02*
G37*
G36*
X4092500Y3151175D02*
X4069089Y3146519D01*
X4049243Y3133257D01*
X4035981Y3113411D01*
X4031325Y3090000D01*
X4035981Y3066589D01*
X4049243Y3046742D01*
X4069089Y3033481D01*
X4092500Y3028825D01*
X4115911Y3033481D01*
X4135758Y3046742D01*
X4149019Y3066589D01*
X4153675Y3090000D01*
X4149019Y3113411D01*
X4135758Y3133257D01*
X4115911Y3146519D01*
X4092500Y3151175D01*
D02*
G37*
G36*
X4888683Y3259194D02*
X4865272Y3254538D01*
X4845425Y3241276D01*
X4832164Y3221430D01*
X4827507Y3198019D01*
X4832164Y3174608D01*
X4841517Y3160610D01*
X4841294Y3158488D01*
X4834857Y3145155D01*
X4816589Y3141522D01*
X4796743Y3128260D01*
X4783481Y3108414D01*
X4778825Y3085003D01*
X4783481Y3061592D01*
X4796743Y3041745D01*
X4816589Y3028484D01*
X4840000Y3023827D01*
X4863411Y3028484D01*
X4883257Y3041745D01*
X4896519Y3061592D01*
X4901175Y3085003D01*
X4896519Y3108414D01*
X4887165Y3122412D01*
X4887388Y3124534D01*
X4893825Y3137866D01*
X4912094Y3141500D01*
X4931940Y3154761D01*
X4945201Y3174608D01*
X4949858Y3198019D01*
X4945201Y3221430D01*
X4931940Y3241276D01*
X4912094Y3254538D01*
X4888683Y3259194D01*
D02*
G37*
G36*
X7090000Y3141175D02*
X7066589Y3136519D01*
X7046743Y3123257D01*
X7033481Y3103411D01*
X7028825Y3080000D01*
X7033481Y3056589D01*
X7046743Y3036742D01*
X7066589Y3023481D01*
X7090000Y3018825D01*
X7113411Y3023481D01*
X7133258Y3036742D01*
X7146519Y3056589D01*
X7151175Y3080000D01*
X7146519Y3103411D01*
X7133258Y3123257D01*
X7113411Y3136519D01*
X7090000Y3141175D01*
D02*
G37*
G36*
X8459500Y3096220D02*
X8414700D01*
Y2997500D01*
X8533420D01*
Y3022300D01*
X8527793Y3050588D01*
X8511769Y3074569D01*
X8487788Y3090593D01*
X8459500Y3096220D01*
D02*
G37*
G36*
X8389300D02*
X8344500D01*
X8316212Y3090593D01*
X8292231Y3074569D01*
X8276207Y3050588D01*
X8270580Y3022300D01*
Y2997500D01*
X8389300D01*
Y3096220D01*
D02*
G37*
G36*
X4320000Y3191175D02*
X4296589Y3186519D01*
X4276743Y3173258D01*
X4263481Y3153411D01*
X4258825Y3130000D01*
X4263481Y3106589D01*
X4272179Y3093572D01*
X4256743Y3083257D01*
X4243481Y3063411D01*
X4238825Y3040000D01*
X4243481Y3016589D01*
X4256743Y2996743D01*
X4276589Y2983481D01*
X4300000Y2978825D01*
X4323411Y2983481D01*
X4343258Y2996743D01*
X4356519Y3016589D01*
X4361175Y3040000D01*
X4356519Y3063411D01*
X4347821Y3076428D01*
X4363257Y3086743D01*
X4376519Y3106589D01*
X4381175Y3130000D01*
X4376519Y3153411D01*
X4363257Y3173258D01*
X4343411Y3186519D01*
X4320000Y3191175D01*
D02*
G37*
G36*
X3101353Y3081175D02*
X3077942Y3076519D01*
X3058095Y3063258D01*
X3044834Y3043411D01*
X3040178Y3020000D01*
X3044834Y2996589D01*
X3058095Y2976743D01*
X3077942Y2963481D01*
X3101353Y2958825D01*
X3124764Y2963481D01*
X3144610Y2976743D01*
X3157872Y2996589D01*
X3162528Y3020000D01*
X3157872Y3043411D01*
X3144610Y3063258D01*
X3124764Y3076519D01*
X3101353Y3081175D01*
D02*
G37*
G36*
X2890000Y3071175D02*
X2866589Y3066519D01*
X2846743Y3053258D01*
X2833481Y3033411D01*
X2828825Y3010000D01*
X2833481Y2986589D01*
X2846743Y2966743D01*
X2866589Y2953481D01*
X2890000Y2948825D01*
X2913411Y2953481D01*
X2933258Y2966743D01*
X2946519Y2986589D01*
X2951175Y3010000D01*
X2946519Y3033411D01*
X2933258Y3053258D01*
X2913411Y3066519D01*
X2890000Y3071175D01*
D02*
G37*
G36*
X6177130Y3044045D02*
X6153719Y3039388D01*
X6133873Y3026127D01*
X6120612Y3006280D01*
X6115955Y2982870D01*
X6120612Y2959459D01*
X6133873Y2939612D01*
X6153719Y2926351D01*
X6177130Y2921694D01*
X6200541Y2926351D01*
X6220388Y2939612D01*
X6233649Y2959459D01*
X6238306Y2982870D01*
X6233649Y3006280D01*
X6220388Y3026127D01*
X6200541Y3039388D01*
X6177130Y3044045D01*
D02*
G37*
G36*
X5060000Y3041178D02*
X5036589Y3036521D01*
X5016743Y3023260D01*
X5003481Y3003414D01*
X4998825Y2980003D01*
X5003481Y2956592D01*
X5016743Y2936745D01*
X5036589Y2923484D01*
X5060000Y2918827D01*
X5083411Y2923484D01*
X5103258Y2936745D01*
X5116519Y2956592D01*
X5121175Y2980003D01*
X5116519Y3003414D01*
X5103258Y3023260D01*
X5083411Y3036521D01*
X5060000Y3041178D01*
D02*
G37*
G36*
X6420002Y3051178D02*
X6396591Y3046521D01*
X6376745Y3033260D01*
X6363484Y3013413D01*
X6358827Y2990002D01*
X6363484Y2966591D01*
X6376745Y2946745D01*
X6396591Y2933484D01*
X6420002Y2928827D01*
X6443413Y2933484D01*
X6463260Y2946745D01*
X6465500Y2950098D01*
X6481424Y2946930D01*
X6483481Y2936589D01*
X6496742Y2916742D01*
X6516589Y2903481D01*
X6540000Y2898825D01*
X6563411Y2903481D01*
X6583257Y2916742D01*
X6596519Y2936589D01*
X6601175Y2960000D01*
X6596519Y2983411D01*
X6583257Y3003257D01*
X6563411Y3016519D01*
X6540000Y3021175D01*
X6516589Y3016519D01*
X6496742Y3003257D01*
X6494502Y2999905D01*
X6478578Y3003072D01*
X6476521Y3013413D01*
X6463260Y3033260D01*
X6443413Y3046521D01*
X6420002Y3051178D01*
D02*
G37*
G36*
X3740000Y3021175D02*
X3716589Y3016519D01*
X3696742Y3003257D01*
X3683481Y2983411D01*
X3678824Y2960000D01*
X3683481Y2936589D01*
X3696742Y2916742D01*
X3716589Y2903481D01*
X3740000Y2898825D01*
X3763411Y2903481D01*
X3783257Y2916742D01*
X3796519Y2936589D01*
X3801175Y2960000D01*
X3796519Y2983411D01*
X3783257Y3003257D01*
X3763411Y3016519D01*
X3740000Y3021175D01*
D02*
G37*
G36*
X8165500Y3091122D02*
X8050500D01*
X8024163Y3085883D01*
X8001836Y3070964D01*
X7986917Y3048637D01*
X7981678Y3022300D01*
Y2947300D01*
X7986917Y2920963D01*
X8001836Y2898636D01*
X8024163Y2883717D01*
X8050500Y2878478D01*
X8165500D01*
X8191837Y2883717D01*
X8214164Y2898636D01*
X8229083Y2920963D01*
X8234322Y2947300D01*
Y3022300D01*
X8229083Y3048637D01*
X8214164Y3070964D01*
X8191837Y3085883D01*
X8165500Y3091122D01*
D02*
G37*
G36*
X8533420Y2972100D02*
X8414700D01*
Y2873380D01*
X8459500D01*
X8487788Y2879007D01*
X8511769Y2895031D01*
X8527793Y2919012D01*
X8533420Y2947300D01*
Y2972100D01*
D02*
G37*
G36*
X8389300D02*
X8270580D01*
Y2947300D01*
X8276207Y2919012D01*
X8292231Y2895031D01*
X8316212Y2879007D01*
X8344500Y2873380D01*
X8389300D01*
Y2972100D01*
D02*
G37*
G36*
X4090098Y2989760D02*
X4066688Y2985104D01*
X4046841Y2971842D01*
X4033580Y2951996D01*
X4028923Y2928585D01*
X4033580Y2905174D01*
X4046841Y2885327D01*
X4066688Y2872066D01*
X4090098Y2867409D01*
X4113509Y2872066D01*
X4133356Y2885327D01*
X4146617Y2905174D01*
X4151274Y2928585D01*
X4146617Y2951996D01*
X4133356Y2971842D01*
X4113509Y2985104D01*
X4090098Y2989760D01*
D02*
G37*
G36*
X4253595Y2956828D02*
X4230184Y2952172D01*
X4210337Y2938911D01*
X4197076Y2919064D01*
X4192419Y2895653D01*
X4197076Y2872242D01*
X4210337Y2852396D01*
X4230184Y2839134D01*
X4253595Y2834478D01*
X4277006Y2839134D01*
X4296852Y2852396D01*
X4310114Y2872242D01*
X4314770Y2895653D01*
X4310114Y2919064D01*
X4296852Y2938911D01*
X4277006Y2952172D01*
X4253595Y2956828D01*
D02*
G37*
G36*
X7530000Y2911175D02*
X7506589Y2906519D01*
X7486742Y2893257D01*
X7473481Y2873411D01*
X7468825Y2850000D01*
X7473481Y2826589D01*
X7486742Y2806742D01*
X7506589Y2793481D01*
X7530000Y2788824D01*
X7553411Y2793481D01*
X7570083Y2804622D01*
X7572007Y2801742D01*
X7591854Y2788481D01*
X7615265Y2783825D01*
X7638676Y2788481D01*
X7657632Y2801148D01*
X7676589Y2788481D01*
X7700000Y2783825D01*
X7723411Y2788481D01*
X7743258Y2801742D01*
X7756519Y2821589D01*
X7761175Y2845000D01*
X7756519Y2868411D01*
X7743258Y2888257D01*
X7723411Y2901519D01*
X7700000Y2906175D01*
X7676589Y2901519D01*
X7657632Y2888852D01*
X7638676Y2901519D01*
X7615265Y2906175D01*
X7591854Y2901519D01*
X7575181Y2890378D01*
X7573257Y2893257D01*
X7553411Y2906519D01*
X7530000Y2911175D01*
D02*
G37*
G36*
X4880000Y2831175D02*
X4856589Y2826519D01*
X4836742Y2813258D01*
X4823481Y2793411D01*
X4818824Y2770000D01*
X4822402Y2752013D01*
X4813416Y2740551D01*
X4810858Y2739016D01*
X4800000Y2741175D01*
X4776589Y2736519D01*
X4756743Y2723257D01*
X4743481Y2703411D01*
X4738825Y2680000D01*
X4743481Y2656589D01*
X4756743Y2636743D01*
X4776589Y2623481D01*
X4800000Y2618825D01*
X4823411Y2623481D01*
X4843258Y2636743D01*
X4856519Y2656589D01*
X4861175Y2680000D01*
X4857598Y2697987D01*
X4866584Y2709449D01*
X4869142Y2710984D01*
X4880000Y2708825D01*
X4903411Y2713481D01*
X4923257Y2726743D01*
X4936519Y2746589D01*
X4941175Y2770000D01*
X4936519Y2793411D01*
X4923257Y2813258D01*
X4903411Y2826519D01*
X4880000Y2831175D01*
D02*
G37*
G36*
X3862500Y2841175D02*
X3839089Y2836519D01*
X3819243Y2823257D01*
X3805981Y2803411D01*
X3801325Y2780000D01*
X3805981Y2756589D01*
X3819243Y2736743D01*
X3839089Y2723481D01*
X3862500Y2718825D01*
X3885911Y2723481D01*
X3905758Y2736743D01*
X3919019Y2756589D01*
X3923676Y2780000D01*
X3919019Y2803411D01*
X3905758Y2823257D01*
X3885911Y2836519D01*
X3862500Y2841175D01*
D02*
G37*
G36*
X7200000Y2831175D02*
X7176589Y2826519D01*
X7156743Y2813258D01*
X7143481Y2793411D01*
X7138825Y2770000D01*
X7143481Y2746589D01*
X7156743Y2726743D01*
X7176589Y2713481D01*
X7200000Y2708825D01*
X7223411Y2713481D01*
X7243258Y2726743D01*
X7256519Y2746589D01*
X7261175Y2770000D01*
X7256519Y2793411D01*
X7243258Y2813258D01*
X7223411Y2826519D01*
X7200000Y2831175D01*
D02*
G37*
G36*
X6830000D02*
X6806589Y2826519D01*
X6786743Y2813258D01*
X6773481Y2793411D01*
X6768825Y2770000D01*
X6773481Y2746589D01*
X6786743Y2726743D01*
X6806589Y2713481D01*
X6830000Y2708825D01*
X6853411Y2713481D01*
X6873258Y2726743D01*
X6886519Y2746589D01*
X6891175Y2770000D01*
X6886519Y2793411D01*
X6873258Y2813258D01*
X6853411Y2826519D01*
X6830000Y2831175D01*
D02*
G37*
G36*
X2390000Y2851371D02*
X2362687Y2845938D01*
X2339533Y2830467D01*
X2324062Y2807313D01*
X2318629Y2780000D01*
X2324062Y2752687D01*
X2339533Y2729533D01*
X2362687Y2714062D01*
X2390000Y2708629D01*
X2417313Y2714062D01*
X2440467Y2729533D01*
X2455938Y2752687D01*
X2461371Y2780000D01*
X2455938Y2807313D01*
X2440467Y2830467D01*
X2417313Y2845938D01*
X2390000Y2851371D01*
D02*
G37*
G36*
X4320000Y2831175D02*
X4296589Y2826519D01*
X4276743Y2813258D01*
X4263481Y2793411D01*
X4258825Y2770000D01*
X4263481Y2746589D01*
X4276743Y2726743D01*
X4296589Y2713481D01*
X4320000Y2708825D01*
X4343411Y2713481D01*
X4362194Y2726032D01*
X4371743Y2711743D01*
X4391589Y2698481D01*
X4415000Y2693825D01*
X4438411Y2698481D01*
X4458258Y2711743D01*
X4471519Y2731589D01*
X4476175Y2755000D01*
X4471519Y2778411D01*
X4458258Y2798258D01*
X4438411Y2811519D01*
X4415000Y2816175D01*
X4391589Y2811519D01*
X4372806Y2798968D01*
X4363257Y2813258D01*
X4343411Y2826519D01*
X4320000Y2831175D01*
D02*
G37*
G36*
X8100000Y2741175D02*
X8076589Y2736519D01*
X8056743Y2723257D01*
X8043481Y2703411D01*
X8038825Y2680000D01*
X8043481Y2656589D01*
X8056743Y2636743D01*
X8076589Y2623481D01*
X8100000Y2618825D01*
X8123411Y2623481D01*
X8143258Y2636743D01*
X8156519Y2656589D01*
X8161175Y2680000D01*
X8156519Y2703411D01*
X8143258Y2723257D01*
X8123411Y2736519D01*
X8100000Y2741175D01*
D02*
G37*
G36*
X5850000D02*
X5826589Y2736519D01*
X5806743Y2723257D01*
X5793481Y2703411D01*
X5788825Y2680000D01*
X5793481Y2656589D01*
X5806743Y2636743D01*
X5826589Y2623481D01*
X5850000Y2618825D01*
X5873411Y2623481D01*
X5893257Y2636743D01*
X5906519Y2656589D01*
X5911175Y2680000D01*
X5906519Y2703411D01*
X5893257Y2723257D01*
X5873411Y2736519D01*
X5850000Y2741175D01*
D02*
G37*
G36*
X6250000Y2691175D02*
X6226589Y2686519D01*
X6206742Y2673258D01*
X6193481Y2653411D01*
X6188825Y2630000D01*
X6193481Y2606589D01*
X6206742Y2586743D01*
X6226589Y2573481D01*
X6250000Y2568825D01*
X6273411Y2573481D01*
X6293257Y2586743D01*
X6306519Y2606589D01*
X6311175Y2630000D01*
X6306519Y2653411D01*
X6293257Y2673258D01*
X6273411Y2686519D01*
X6250000Y2691175D01*
D02*
G37*
G36*
X7000000Y2751175D02*
X6976589Y2746519D01*
X6956743Y2733257D01*
X6943481Y2713411D01*
X6938825Y2690000D01*
X6943481Y2666589D01*
X6956743Y2646742D01*
X6976589Y2633481D01*
X6995465Y2629727D01*
X7003718Y2623718D01*
X7009726Y2615465D01*
X7013481Y2596589D01*
X7026742Y2576743D01*
X7046589Y2563481D01*
X7070000Y2558825D01*
X7076671Y2560152D01*
X7082524Y2546022D01*
X7077401Y2542599D01*
X7064140Y2522752D01*
X7059483Y2499341D01*
X7064140Y2475931D01*
X7077401Y2456084D01*
X7097248Y2442823D01*
X7120659Y2438166D01*
X7130763Y2440176D01*
X7133467Y2426584D01*
X7146728Y2406738D01*
X7166575Y2393476D01*
X7189986Y2388820D01*
X7213397Y2393476D01*
X7233243Y2406738D01*
X7246504Y2426584D01*
X7251161Y2449995D01*
X7246504Y2473406D01*
X7233243Y2493253D01*
X7213397Y2506514D01*
X7189986Y2511170D01*
X7179881Y2509161D01*
X7177177Y2522752D01*
X7163916Y2542599D01*
X7159369Y2545637D01*
X7165222Y2559767D01*
X7169986Y2558819D01*
X7193397Y2563476D01*
X7213243Y2576737D01*
X7226504Y2596584D01*
X7231161Y2619995D01*
X7226504Y2643406D01*
X7213243Y2663252D01*
X7193397Y2676514D01*
X7169986Y2681170D01*
X7146575Y2676514D01*
X7129890Y2665365D01*
X7113257Y2663258D01*
X7093411Y2676519D01*
X7074535Y2680274D01*
X7066282Y2686282D01*
X7060273Y2694535D01*
X7056519Y2713411D01*
X7043257Y2733257D01*
X7023411Y2746519D01*
X7000000Y2751175D01*
D02*
G37*
G36*
X3598750Y2652425D02*
X3575339Y2647769D01*
X3555493Y2634508D01*
X3542231Y2614661D01*
X3537575Y2591250D01*
X3542231Y2567839D01*
X3555493Y2547993D01*
X3575339Y2534731D01*
X3598750Y2530075D01*
X3622161Y2534731D01*
X3642008Y2547993D01*
X3655269Y2567839D01*
X3659926Y2591250D01*
X3655269Y2614661D01*
X3642008Y2634508D01*
X3622161Y2647769D01*
X3598750Y2652425D01*
D02*
G37*
G36*
X4230625Y2651175D02*
X4207214Y2646519D01*
X4187368Y2633257D01*
X4174106Y2613411D01*
X4169450Y2590000D01*
X4174106Y2566589D01*
X4187368Y2546742D01*
X4207214Y2533481D01*
X4230625Y2528825D01*
X4254036Y2533481D01*
X4273883Y2546742D01*
X4287144Y2566589D01*
X4291801Y2590000D01*
X4287144Y2613411D01*
X4273883Y2633257D01*
X4254036Y2646519D01*
X4230625Y2651175D01*
D02*
G37*
G36*
X8165500Y2588220D02*
X8120700D01*
Y2489500D01*
X8239420D01*
Y2514300D01*
X8233793Y2542588D01*
X8217769Y2566569D01*
X8193788Y2582593D01*
X8165500Y2588220D01*
D02*
G37*
G36*
X8095300D02*
X8050500D01*
X8022212Y2582593D01*
X7998231Y2566569D01*
X7982207Y2542588D01*
X7976580Y2514300D01*
Y2489500D01*
X8095300D01*
Y2588220D01*
D02*
G37*
G36*
X5080000Y2541176D02*
X5056589Y2536519D01*
X5036743Y2523258D01*
X5023481Y2503411D01*
X5018825Y2480000D01*
X5023481Y2456589D01*
X5036743Y2436743D01*
X5056589Y2423481D01*
X5080000Y2418825D01*
X5103411Y2423481D01*
X5123257Y2436743D01*
X5136519Y2456589D01*
X5141175Y2480000D01*
X5136519Y2503411D01*
X5123257Y2523258D01*
X5103411Y2536519D01*
X5080000Y2541176D01*
D02*
G37*
G36*
X7687944Y2756176D02*
X7664533Y2751519D01*
X7644686Y2738258D01*
X7631425Y2718411D01*
X7626768Y2695000D01*
X7631425Y2671589D01*
X7644686Y2651743D01*
X7653997Y2645521D01*
X7649631Y2623570D01*
X7654287Y2600159D01*
X7663656Y2586138D01*
X7654196Y2571981D01*
X7649539Y2548570D01*
X7654196Y2525160D01*
X7646808Y2512484D01*
X7636742Y2505757D01*
X7623481Y2485911D01*
X7618824Y2462500D01*
X7623481Y2439089D01*
X7636742Y2419243D01*
X7656589Y2405981D01*
X7680000Y2401325D01*
X7703411Y2405981D01*
X7723257Y2419243D01*
X7736519Y2439089D01*
X7741175Y2462500D01*
X7736519Y2485911D01*
X7735378Y2487618D01*
X7734126Y2492051D01*
X7753972Y2505313D01*
X7767234Y2525159D01*
X7771890Y2548570D01*
X7767234Y2571981D01*
X7757865Y2586002D01*
X7767325Y2600159D01*
X7771982Y2623570D01*
X7767325Y2646981D01*
X7754064Y2666827D01*
X7744753Y2673049D01*
X7749119Y2695000D01*
X7744463Y2718411D01*
X7731201Y2738258D01*
X7711355Y2751519D01*
X7687944Y2756176D01*
D02*
G37*
G36*
X8459500Y2583122D02*
X8344500D01*
X8318163Y2577883D01*
X8295836Y2562964D01*
X8280917Y2540637D01*
X8275678Y2514300D01*
Y2439300D01*
X8280917Y2412963D01*
X8295836Y2390636D01*
X8318163Y2375717D01*
X8344500Y2370478D01*
X8459500D01*
X8485837Y2375717D01*
X8508164Y2390636D01*
X8523083Y2412963D01*
X8528322Y2439300D01*
Y2514300D01*
X8523083Y2540637D01*
X8508164Y2562964D01*
X8485837Y2577883D01*
X8459500Y2583122D01*
D02*
G37*
G36*
X8239420Y2464100D02*
X8120700D01*
Y2365380D01*
X8165500D01*
X8193788Y2371007D01*
X8217769Y2387031D01*
X8233793Y2411012D01*
X8239420Y2439300D01*
Y2464100D01*
D02*
G37*
G36*
X8095300D02*
X7976580D01*
Y2439300D01*
X7982207Y2411012D01*
X7998231Y2387031D01*
X8022212Y2371007D01*
X8050500Y2365380D01*
X8095300D01*
Y2464100D01*
D02*
G37*
G36*
X6530000Y2481175D02*
X6506589Y2476519D01*
X6486742Y2463257D01*
X6473481Y2443411D01*
X6468825Y2420000D01*
X6473481Y2396589D01*
X6486742Y2376743D01*
X6506589Y2363481D01*
X6530000Y2358825D01*
X6553411Y2363481D01*
X6573257Y2376743D01*
X6586519Y2396589D01*
X6591175Y2420000D01*
X6586519Y2443411D01*
X6573257Y2463257D01*
X6553411Y2476519D01*
X6530000Y2481175D01*
D02*
G37*
G36*
X3302852Y2474812D02*
X3279441Y2470155D01*
X3259595Y2456894D01*
X3246334Y2437047D01*
X3241677Y2413636D01*
X3246334Y2390225D01*
X3259595Y2370379D01*
X3279441Y2357117D01*
X3302852Y2352461D01*
X3326263Y2357117D01*
X3346110Y2370379D01*
X3359371Y2390225D01*
X3364028Y2413636D01*
X3359371Y2437047D01*
X3346110Y2456894D01*
X3326263Y2470155D01*
X3302852Y2474812D01*
D02*
G37*
G36*
X4480000Y2511175D02*
X4456589Y2506519D01*
X4436742Y2493257D01*
X4423481Y2473411D01*
X4418825Y2450000D01*
X4423481Y2426589D01*
X4436742Y2406742D01*
X4456589Y2393481D01*
X4480000Y2388825D01*
X4484645Y2389748D01*
X4501123Y2378443D01*
X4503481Y2366589D01*
X4516743Y2346743D01*
X4536589Y2333481D01*
X4560000Y2328825D01*
X4583411Y2333481D01*
X4603257Y2346743D01*
X4616519Y2366589D01*
X4621175Y2390000D01*
X4616519Y2413411D01*
X4603257Y2433258D01*
X4583411Y2446519D01*
X4560000Y2451175D01*
X4555355Y2450252D01*
X4538877Y2461557D01*
X4536519Y2473411D01*
X4523257Y2493257D01*
X4503411Y2506519D01*
X4480000Y2511175D01*
D02*
G37*
G36*
X4030000Y2521175D02*
X4006589Y2516519D01*
X3986743Y2503257D01*
X3973481Y2483411D01*
X3968825Y2460000D01*
X3973481Y2436589D01*
X3985054Y2419270D01*
X3976743Y2413716D01*
X3963481Y2393870D01*
X3958825Y2370459D01*
X3963481Y2347048D01*
X3976743Y2327201D01*
X3996589Y2313940D01*
X4020000Y2309283D01*
X4043411Y2313940D01*
X4063258Y2327201D01*
X4076519Y2347048D01*
X4081175Y2370459D01*
X4076519Y2393870D01*
X4064946Y2411189D01*
X4073258Y2416742D01*
X4086519Y2436589D01*
X4091175Y2460000D01*
X4086519Y2483411D01*
X4073258Y2503257D01*
X4053411Y2516519D01*
X4030000Y2521175D01*
D02*
G37*
G36*
X6300000Y2401175D02*
X6276589Y2396519D01*
X6256743Y2383257D01*
X6243481Y2363411D01*
X6238825Y2340000D01*
X6243481Y2316589D01*
X6256743Y2296742D01*
X6276589Y2283481D01*
X6300000Y2278824D01*
X6323411Y2283481D01*
X6343258Y2296742D01*
X6356519Y2316589D01*
X6361175Y2340000D01*
X6356519Y2363411D01*
X6343258Y2383257D01*
X6323411Y2396519D01*
X6300000Y2401175D01*
D02*
G37*
G36*
X5612500Y2381175D02*
X5589089Y2376519D01*
X5569243Y2363257D01*
X5555981Y2343411D01*
X5551325Y2320000D01*
X5555981Y2296589D01*
X5569243Y2276742D01*
X5589089Y2263481D01*
X5612500Y2258825D01*
X5635911Y2263481D01*
X5655758Y2276742D01*
X5669019Y2296589D01*
X5673675Y2320000D01*
X5669019Y2343411D01*
X5655758Y2363257D01*
X5635911Y2376519D01*
X5612500Y2381175D01*
D02*
G37*
G36*
X5310000D02*
X5286589Y2376519D01*
X5266743Y2363257D01*
X5253481Y2343411D01*
X5248825Y2320000D01*
X5253481Y2296589D01*
X5266743Y2276742D01*
X5286589Y2263481D01*
X5310000Y2258825D01*
X5333411Y2263481D01*
X5353258Y2276742D01*
X5366519Y2296589D01*
X5371175Y2320000D01*
X5366519Y2343411D01*
X5353258Y2363257D01*
X5333411Y2376519D01*
X5310000Y2381175D01*
D02*
G37*
G36*
X3406530Y2283723D02*
X3383119Y2279066D01*
X3363272Y2265805D01*
X3357225Y2256754D01*
X3334999Y2261175D01*
X3311588Y2256519D01*
X3291742Y2243257D01*
X3278481Y2223411D01*
X3273824Y2200000D01*
X3275404Y2192055D01*
X3273799Y2191735D01*
X3253952Y2178474D01*
X3240691Y2158627D01*
X3236034Y2135216D01*
X3240691Y2111805D01*
X3249366Y2098823D01*
X3253422Y2091180D01*
X3245542Y2079601D01*
X3236049Y2073257D01*
X3222788Y2053411D01*
X3218131Y2030000D01*
X3222788Y2006589D01*
X3236049Y1986743D01*
X3255896Y1973481D01*
X3279307Y1968825D01*
X3302718Y1973481D01*
X3322564Y1986743D01*
X3335825Y2006589D01*
X3340482Y2030000D01*
X3335825Y2053411D01*
X3327151Y2066393D01*
X3323094Y2074036D01*
X3330974Y2085616D01*
X3340467Y2091959D01*
X3353728Y2111805D01*
X3358385Y2135216D01*
X3356805Y2143162D01*
X3358410Y2143481D01*
X3378257Y2156742D01*
X3384304Y2165793D01*
X3406530Y2161372D01*
X3429941Y2166029D01*
X3449787Y2179290D01*
X3463048Y2199137D01*
X3467705Y2222547D01*
X3463048Y2245958D01*
X3449787Y2265805D01*
X3429941Y2279066D01*
X3406530Y2283723D01*
D02*
G37*
G36*
X7070000Y2391175D02*
X7046589Y2386519D01*
X7026743Y2373257D01*
X7013481Y2353411D01*
X7008825Y2330000D01*
X7013481Y2306589D01*
X7026743Y2286742D01*
X7046589Y2273481D01*
X7070000Y2268825D01*
X7072793Y2269380D01*
X7081813Y2255880D01*
X7073481Y2243411D01*
X7068825Y2220000D01*
X7073481Y2196589D01*
X7086742Y2176742D01*
X7106589Y2163481D01*
X7125250Y2159769D01*
X7132042Y2148262D01*
X7132840Y2144130D01*
X7124798Y2132094D01*
X7120142Y2108683D01*
X7124798Y2085272D01*
X7138060Y2065426D01*
X7157906Y2052165D01*
X7170724Y2049615D01*
X7168810Y2039996D01*
X7173467Y2016585D01*
X7186728Y1996738D01*
X7206575Y1983477D01*
X7229986Y1978821D01*
X7253396Y1983477D01*
X7273243Y1996738D01*
X7286504Y2016585D01*
X7291161Y2039996D01*
X7286504Y2063407D01*
X7273243Y2083253D01*
X7253396Y2096515D01*
X7240579Y2099064D01*
X7242493Y2108683D01*
X7237836Y2132094D01*
X7224575Y2151941D01*
X7204728Y2165202D01*
X7199793Y2166184D01*
X7193184Y2182792D01*
X7194336Y2184416D01*
X7205153Y2182264D01*
X7228564Y2186921D01*
X7248410Y2200182D01*
X7261672Y2220029D01*
X7266328Y2243440D01*
X7261672Y2266851D01*
X7248410Y2286697D01*
X7228564Y2299959D01*
X7205153Y2304615D01*
X7181742Y2299959D01*
X7161896Y2286697D01*
X7154575Y2275741D01*
X7153411Y2276519D01*
X7130000Y2281175D01*
X7127207Y2280620D01*
X7118187Y2294120D01*
X7126519Y2306589D01*
X7131175Y2330000D01*
X7126519Y2353411D01*
X7113258Y2373257D01*
X7093411Y2386519D01*
X7070000Y2391175D01*
D02*
G37*
G36*
X3920000Y2291176D02*
X3896589Y2286519D01*
X3876743Y2273258D01*
X3863481Y2253411D01*
X3858825Y2230000D01*
X3863481Y2206589D01*
X3876743Y2186743D01*
X3896589Y2173481D01*
X3920000Y2168825D01*
X3943411Y2173481D01*
X3963258Y2186743D01*
X3976519Y2206589D01*
X3981175Y2230000D01*
X3976519Y2253411D01*
X3963258Y2273258D01*
X3943411Y2286519D01*
X3920000Y2291176D01*
D02*
G37*
G36*
X4890000Y2281175D02*
X4866589Y2276519D01*
X4846743Y2263257D01*
X4833481Y2243411D01*
X4828825Y2220000D01*
X4833481Y2196589D01*
X4846743Y2176742D01*
X4866589Y2163481D01*
X4890000Y2158824D01*
X4913411Y2163481D01*
X4933258Y2176742D01*
X4946519Y2196589D01*
X4951176Y2220000D01*
X4946519Y2243411D01*
X4933258Y2263257D01*
X4913411Y2276519D01*
X4890000Y2281175D01*
D02*
G37*
G36*
X2300573Y2272246D02*
X2277162Y2267589D01*
X2257316Y2254328D01*
X2244054Y2234481D01*
X2239398Y2211071D01*
X2244054Y2187660D01*
X2257316Y2167813D01*
X2277162Y2154552D01*
X2300573Y2149895D01*
X2323984Y2154552D01*
X2343830Y2167813D01*
X2357092Y2187660D01*
X2361748Y2211071D01*
X2357092Y2234481D01*
X2343830Y2254328D01*
X2323984Y2267589D01*
X2300573Y2272246D01*
D02*
G37*
G36*
X8459500Y2329122D02*
X8344500D01*
X8318163Y2323883D01*
X8295836Y2308964D01*
X8280917Y2286637D01*
X8275678Y2260300D01*
Y2185300D01*
X8280917Y2158963D01*
X8295836Y2136636D01*
X8318163Y2121717D01*
X8344500Y2116478D01*
X8459500D01*
X8485837Y2121717D01*
X8508164Y2136636D01*
X8523083Y2158963D01*
X8528322Y2185300D01*
Y2260300D01*
X8523083Y2286637D01*
X8508164Y2308964D01*
X8485837Y2323883D01*
X8459500Y2329122D01*
D02*
G37*
G36*
X8165500D02*
X8050500D01*
X8024163Y2323883D01*
X8001836Y2308964D01*
X7986917Y2286637D01*
X7981678Y2260300D01*
Y2185300D01*
X7986917Y2158963D01*
X8001836Y2136636D01*
X8024163Y2121717D01*
X8050500Y2116478D01*
X8165500D01*
X8191837Y2121717D01*
X8214164Y2136636D01*
X8229083Y2158963D01*
X8234322Y2185300D01*
Y2260300D01*
X8229083Y2286637D01*
X8214164Y2308964D01*
X8191837Y2323883D01*
X8165500Y2329122D01*
D02*
G37*
G36*
X2750000Y2201175D02*
X2726589Y2196519D01*
X2706743Y2183258D01*
X2693481Y2163411D01*
X2688825Y2140000D01*
X2693481Y2116589D01*
X2706743Y2096743D01*
X2726589Y2083481D01*
X2750000Y2078825D01*
X2773411Y2083481D01*
X2793258Y2096743D01*
X2806519Y2116589D01*
X2811175Y2140000D01*
X2806519Y2163411D01*
X2793258Y2183258D01*
X2773411Y2196519D01*
X2750000Y2201175D01*
D02*
G37*
G36*
X7649985Y2361171D02*
X7626574Y2356514D01*
X7606727Y2343253D01*
X7593466Y2323406D01*
X7588809Y2299995D01*
X7593466Y2276584D01*
X7606727Y2256738D01*
X7626574Y2243477D01*
X7649985Y2238820D01*
X7671112Y2243022D01*
X7681531Y2227430D01*
X7672164Y2213411D01*
X7670249Y2203783D01*
X7659984Y2191171D01*
X7653348Y2189851D01*
X7636574Y2186515D01*
X7616727Y2173253D01*
X7603466Y2153407D01*
X7598809Y2129996D01*
X7603466Y2106585D01*
X7616727Y2086738D01*
X7636574Y2073477D01*
X7659985Y2068820D01*
X7683396Y2073477D01*
X7703242Y2086738D01*
X7716503Y2106585D01*
X7718296Y2115596D01*
X7728683Y2128825D01*
X7752094Y2133481D01*
X7771940Y2146742D01*
X7785202Y2166589D01*
X7789858Y2190000D01*
X7785202Y2213411D01*
X7772406Y2232560D01*
X7781773Y2246579D01*
X7786430Y2269990D01*
X7781773Y2293401D01*
X7768512Y2313247D01*
X7748665Y2326509D01*
X7725255Y2331165D01*
X7704127Y2326963D01*
X7693242Y2343253D01*
X7673396Y2356514D01*
X7649985Y2361171D01*
D02*
G37*
G36*
X2540000Y2161176D02*
X2516589Y2156519D01*
X2496743Y2143258D01*
X2483481Y2123411D01*
X2478825Y2100000D01*
X2483481Y2076589D01*
X2496743Y2056743D01*
X2516589Y2043481D01*
X2540000Y2038825D01*
X2563411Y2043481D01*
X2583257Y2056743D01*
X2596519Y2076589D01*
X2601175Y2100000D01*
X2596519Y2123411D01*
X2583257Y2143258D01*
X2563411Y2156519D01*
X2540000Y2161176D01*
D02*
G37*
G36*
X6130000Y2126176D02*
X6106589Y2121519D01*
X6086742Y2108258D01*
X6073481Y2088411D01*
X6068825Y2065000D01*
X6073481Y2041589D01*
X6083861Y2026055D01*
X6083103Y2007507D01*
X6076742Y2003257D01*
X6063481Y1983411D01*
X6058825Y1960000D01*
X6063481Y1936589D01*
X6076742Y1916742D01*
X6096589Y1903481D01*
X6120000Y1898824D01*
X6143411Y1903481D01*
X6163257Y1916742D01*
X6176519Y1936589D01*
X6181175Y1960000D01*
X6176519Y1983411D01*
X6166139Y1998945D01*
X6166897Y2017493D01*
X6173257Y2021743D01*
X6186519Y2041589D01*
X6191175Y2065000D01*
X6186519Y2088411D01*
X6173257Y2108258D01*
X6153411Y2121519D01*
X6130000Y2126176D01*
D02*
G37*
G36*
X7060000Y1991175D02*
X7036589Y1986519D01*
X7016743Y1973257D01*
X7003481Y1953411D01*
X6998825Y1930000D01*
X7003481Y1906589D01*
X7016743Y1886742D01*
X7036589Y1873481D01*
X7060000Y1868825D01*
X7083411Y1873481D01*
X7103258Y1886742D01*
X7116519Y1906589D01*
X7121175Y1930000D01*
X7116519Y1953411D01*
X7103258Y1973257D01*
X7083411Y1986519D01*
X7060000Y1991175D01*
D02*
G37*
G36*
X8459500Y2075122D02*
X8344500D01*
X8318163Y2069883D01*
X8295836Y2054964D01*
X8280917Y2032637D01*
X8275678Y2006300D01*
Y1931300D01*
X8280917Y1904963D01*
X8295836Y1882636D01*
X8318163Y1867717D01*
X8344500Y1862478D01*
X8459500D01*
X8485837Y1867717D01*
X8508164Y1882636D01*
X8523083Y1904963D01*
X8528322Y1931300D01*
Y2006300D01*
X8523083Y2032637D01*
X8508164Y2054964D01*
X8485837Y2069883D01*
X8459500Y2075122D01*
D02*
G37*
G36*
X8165500D02*
X8050500D01*
X8024163Y2069883D01*
X8001836Y2054964D01*
X7986917Y2032637D01*
X7981678Y2006300D01*
Y1931300D01*
X7986917Y1904963D01*
X8001836Y1882636D01*
X8024163Y1867717D01*
X8050500Y1862478D01*
X8165500D01*
X8191837Y1867717D01*
X8214164Y1882636D01*
X8229083Y1904963D01*
X8234322Y1931300D01*
Y2006300D01*
X8229083Y2032637D01*
X8214164Y2054964D01*
X8191837Y2069883D01*
X8165500Y2075122D01*
D02*
G37*
G36*
X7194602Y1918987D02*
X7171191Y1914330D01*
X7151345Y1901069D01*
X7138084Y1881222D01*
X7133940Y1860392D01*
X7130000Y1861175D01*
X7106589Y1856519D01*
X7086742Y1843257D01*
X7073481Y1823411D01*
X7068825Y1800000D01*
X7073481Y1776589D01*
X7086742Y1756742D01*
X7106589Y1743481D01*
X7119025Y1741007D01*
X7118825Y1740000D01*
X7123481Y1716589D01*
X7136743Y1696743D01*
X7156589Y1683481D01*
X7180000Y1678825D01*
X7190484Y1668341D01*
X7188825Y1660000D01*
X7193481Y1636589D01*
X7206743Y1616743D01*
X7226589Y1603481D01*
X7250000Y1598825D01*
X7273411Y1603481D01*
X7293257Y1616743D01*
X7306519Y1636589D01*
X7311175Y1660000D01*
X7306519Y1683411D01*
X7293257Y1703257D01*
X7273411Y1716519D01*
X7250000Y1721175D01*
X7239516Y1731659D01*
X7241176Y1740000D01*
X7236519Y1763411D01*
X7223258Y1783258D01*
X7218893Y1786174D01*
X7218543Y1792201D01*
X7220640Y1803047D01*
X7237860Y1814554D01*
X7251121Y1834400D01*
X7255778Y1857811D01*
X7251121Y1881222D01*
X7237860Y1901069D01*
X7218013Y1914330D01*
X7194602Y1918987D01*
D02*
G37*
G36*
X4283724Y2030872D02*
X4260313Y2026216D01*
X4240467Y2012955D01*
X4227205Y1993108D01*
X4222549Y1969697D01*
X4227205Y1946286D01*
X4240467Y1926440D01*
X4260313Y1913178D01*
X4283724Y1908522D01*
X4307135Y1913178D01*
X4314289Y1917958D01*
X4330645Y1910847D01*
X4333481Y1896589D01*
X4346743Y1876742D01*
X4366589Y1863481D01*
X4390000Y1858825D01*
X4413411Y1863481D01*
X4433258Y1876742D01*
X4446519Y1896589D01*
X4451176Y1920000D01*
X4446519Y1943411D01*
X4433258Y1963257D01*
X4413411Y1976519D01*
X4390000Y1981175D01*
X4366589Y1976519D01*
X4359436Y1971739D01*
X4343079Y1978850D01*
X4340243Y1993108D01*
X4326982Y2012955D01*
X4307135Y2026216D01*
X4283724Y2030872D01*
D02*
G37*
G36*
X2240000Y1960118D02*
X2216589Y1955461D01*
X2196743Y1942200D01*
X2183481Y1922354D01*
X2178825Y1898943D01*
X2183481Y1875532D01*
X2196743Y1855685D01*
X2216589Y1842424D01*
X2240000Y1837767D01*
X2263411Y1842424D01*
X2283258Y1855685D01*
X2296519Y1875532D01*
X2301175Y1898943D01*
X2296519Y1922354D01*
X2283258Y1942200D01*
X2263411Y1955461D01*
X2240000Y1960118D01*
D02*
G37*
G36*
X2660000Y1891175D02*
X2636589Y1886519D01*
X2616743Y1873257D01*
X2603481Y1853411D01*
X2598825Y1830000D01*
X2603481Y1806589D01*
X2616743Y1786742D01*
X2636589Y1773481D01*
X2660000Y1768825D01*
X2683411Y1773481D01*
X2703257Y1786742D01*
X2716519Y1806589D01*
X2721175Y1830000D01*
X2716519Y1853411D01*
X2703257Y1873257D01*
X2683411Y1886519D01*
X2660000Y1891175D01*
D02*
G37*
G36*
X5528224Y1881100D02*
X5504813Y1876444D01*
X5484966Y1863182D01*
X5471705Y1843336D01*
X5467048Y1819925D01*
X5471705Y1796514D01*
X5484966Y1776668D01*
X5504813Y1763406D01*
X5528224Y1758750D01*
X5551635Y1763406D01*
X5571481Y1776668D01*
X5584742Y1796514D01*
X5589399Y1819925D01*
X5584742Y1843336D01*
X5571481Y1863182D01*
X5551635Y1876444D01*
X5528224Y1881100D01*
D02*
G37*
G36*
X2130000Y1851175D02*
X2106589Y1846519D01*
X2086743Y1833257D01*
X2073481Y1813411D01*
X2068825Y1790000D01*
X2073481Y1766589D01*
X2086743Y1746743D01*
X2106589Y1733481D01*
X2130000Y1728825D01*
X2153411Y1733481D01*
X2173258Y1746743D01*
X2186519Y1766589D01*
X2191175Y1790000D01*
X2186519Y1813411D01*
X2173258Y1833257D01*
X2153411Y1846519D01*
X2130000Y1851175D01*
D02*
G37*
G36*
X2430000Y1821176D02*
X2406589Y1816519D01*
X2386743Y1803258D01*
X2373481Y1783411D01*
X2368825Y1760000D01*
X2373481Y1736589D01*
X2386743Y1716743D01*
X2406589Y1703481D01*
X2430000Y1698825D01*
X2453411Y1703481D01*
X2473258Y1716743D01*
X2486519Y1736589D01*
X2491176Y1760000D01*
X2486519Y1783411D01*
X2473258Y1803258D01*
X2453411Y1816519D01*
X2430000Y1821176D01*
D02*
G37*
G36*
X5700000Y1821175D02*
X5676589Y1816519D01*
X5656743Y1803258D01*
X5643481Y1783411D01*
X5638825Y1760000D01*
X5643481Y1736589D01*
X5656743Y1716743D01*
X5676589Y1703481D01*
X5700000Y1698825D01*
X5723411Y1703481D01*
X5743257Y1716743D01*
X5756519Y1736589D01*
X5761175Y1760000D01*
X5756519Y1783411D01*
X5743257Y1803258D01*
X5723411Y1816519D01*
X5700000Y1821175D01*
D02*
G37*
G36*
X7650000Y2001175D02*
X7626589Y1996519D01*
X7606742Y1983257D01*
X7593481Y1963411D01*
X7588825Y1940000D01*
X7593481Y1916589D01*
X7606742Y1896742D01*
X7626589Y1883481D01*
X7650000Y1878825D01*
X7661640Y1865846D01*
X7663481Y1856589D01*
X7674566Y1840000D01*
X7663481Y1823411D01*
X7658825Y1800000D01*
X7662456Y1781746D01*
X7644070Y1769461D01*
X7630808Y1749614D01*
X7626152Y1726203D01*
X7630808Y1702792D01*
X7644070Y1682946D01*
X7663916Y1669684D01*
X7687327Y1665028D01*
X7710738Y1669684D01*
X7730585Y1682946D01*
X7743846Y1702792D01*
X7748503Y1726203D01*
X7744872Y1744457D01*
X7763258Y1756742D01*
X7776519Y1776589D01*
X7781175Y1800000D01*
X7776519Y1823411D01*
X7765434Y1840000D01*
X7776519Y1856589D01*
X7781175Y1880000D01*
X7776519Y1903411D01*
X7763258Y1923258D01*
X7743411Y1936519D01*
X7720000Y1941175D01*
X7708360Y1954154D01*
X7706519Y1963411D01*
X7693257Y1983257D01*
X7673411Y1996519D01*
X7650000Y2001175D01*
D02*
G37*
G36*
X3900000Y1781176D02*
X3876589Y1776519D01*
X3856743Y1763258D01*
X3843481Y1743411D01*
X3838825Y1720000D01*
X3843481Y1696589D01*
X3856743Y1676743D01*
X3876589Y1663481D01*
X3900000Y1658825D01*
X3923411Y1663481D01*
X3943258Y1676743D01*
X3956519Y1696589D01*
X3961175Y1720000D01*
X3956519Y1743411D01*
X3943258Y1763258D01*
X3923411Y1776519D01*
X3900000Y1781176D01*
D02*
G37*
G36*
X5902500Y1831175D02*
X5879089Y1826519D01*
X5859243Y1813257D01*
X5845981Y1793411D01*
X5841325Y1770000D01*
X5845981Y1746589D01*
X5859243Y1726743D01*
Y1724563D01*
X5845981Y1704717D01*
X5841325Y1681306D01*
X5845981Y1657895D01*
X5859243Y1638048D01*
X5879089Y1624787D01*
X5902500Y1620130D01*
X5925911Y1624787D01*
X5945757Y1638048D01*
X5959019Y1657895D01*
X5963675Y1681306D01*
X5959019Y1704717D01*
X5945757Y1724563D01*
Y1726743D01*
X5959019Y1746589D01*
X5963675Y1770000D01*
X5959019Y1793411D01*
X5945757Y1813257D01*
X5925911Y1826519D01*
X5902500Y1831175D01*
D02*
G37*
G36*
X8459500Y1821122D02*
X8344500D01*
X8318163Y1815883D01*
X8295836Y1800964D01*
X8280917Y1778637D01*
X8275678Y1752300D01*
Y1677300D01*
X8280917Y1650963D01*
X8295836Y1628636D01*
X8318163Y1613717D01*
X8344500Y1608478D01*
X8459500D01*
X8485837Y1613717D01*
X8508164Y1628636D01*
X8523083Y1650963D01*
X8528322Y1677300D01*
Y1752300D01*
X8523083Y1778637D01*
X8508164Y1800964D01*
X8485837Y1815883D01*
X8459500Y1821122D01*
D02*
G37*
G36*
X8165500D02*
X8050500D01*
X8024163Y1815883D01*
X8001836Y1800964D01*
X7986917Y1778637D01*
X7981678Y1752300D01*
Y1677300D01*
X7986917Y1650963D01*
X8001836Y1628636D01*
X8024163Y1613717D01*
X8050500Y1608478D01*
X8165500D01*
X8191837Y1613717D01*
X8214164Y1628636D01*
X8229083Y1650963D01*
X8234322Y1677300D01*
Y1752300D01*
X8229083Y1778637D01*
X8214164Y1800964D01*
X8191837Y1815883D01*
X8165500Y1821122D01*
D02*
G37*
G36*
X1390000Y1701175D02*
X1366589Y1696519D01*
X1346743Y1683257D01*
X1333481Y1663411D01*
X1328825Y1640000D01*
X1333481Y1616589D01*
X1346743Y1596743D01*
X1366589Y1583481D01*
X1390000Y1578825D01*
X1413411Y1583481D01*
X1433257Y1596743D01*
X1446519Y1616589D01*
X1451175Y1640000D01*
X1446519Y1663411D01*
X1433257Y1683257D01*
X1413411Y1696519D01*
X1390000Y1701175D01*
D02*
G37*
G36*
X1970000Y1661175D02*
X1946589Y1656519D01*
X1926743Y1643258D01*
X1913481Y1623411D01*
X1908825Y1600000D01*
X1913481Y1576589D01*
X1926743Y1556743D01*
X1946589Y1543481D01*
X1970000Y1538825D01*
X1993411Y1543481D01*
X2013258Y1556743D01*
X2026519Y1576589D01*
X2031176Y1600000D01*
X2026519Y1623411D01*
X2013258Y1643258D01*
X1993411Y1656519D01*
X1970000Y1661175D01*
D02*
G37*
G36*
X6350000Y1591175D02*
X6326589Y1586519D01*
X6306743Y1573257D01*
X6293481Y1553411D01*
X6291044Y1541156D01*
X6275120Y1537989D01*
X6268258Y1548258D01*
X6248411Y1561519D01*
X6225000Y1566176D01*
X6201589Y1561519D01*
X6181743Y1548258D01*
X6168481Y1528411D01*
X6163825Y1505000D01*
X6168481Y1481589D01*
X6181743Y1461743D01*
X6201589Y1448481D01*
X6225000Y1443825D01*
X6248411Y1448481D01*
X6268258Y1461743D01*
X6281519Y1481589D01*
X6283957Y1493844D01*
X6299881Y1497012D01*
X6306743Y1486743D01*
X6326589Y1473481D01*
X6350000Y1468825D01*
X6373411Y1473481D01*
X6393257Y1486743D01*
X6406519Y1506589D01*
X6411175Y1530000D01*
X6406519Y1553411D01*
X6393257Y1573257D01*
X6373411Y1586519D01*
X6350000Y1591175D01*
D02*
G37*
G36*
X7060000Y1621175D02*
X7036589Y1616519D01*
X7016743Y1603257D01*
X7003481Y1583411D01*
X6998825Y1560000D01*
X7003481Y1536589D01*
X7016743Y1516742D01*
X7036589Y1503481D01*
X7060000Y1498825D01*
X7083411Y1503481D01*
X7103258Y1516742D01*
X7116519Y1536589D01*
X7121175Y1560000D01*
X7116519Y1583411D01*
X7103258Y1603257D01*
X7083411Y1616519D01*
X7060000Y1621175D01*
D02*
G37*
G36*
X6770000Y2011175D02*
X6746589Y2006519D01*
X6726742Y1993257D01*
X6713481Y1973411D01*
X6708825Y1950000D01*
X6713481Y1926589D01*
X6724638Y1909892D01*
X6725889Y1900000D01*
X6724638Y1890108D01*
X6713481Y1873411D01*
X6708825Y1850000D01*
X6713481Y1826589D01*
X6724638Y1809892D01*
X6725889Y1800000D01*
X6724638Y1790108D01*
X6713481Y1773411D01*
X6708825Y1750000D01*
X6713481Y1726589D01*
X6726742Y1706743D01*
Y1693257D01*
X6713481Y1673411D01*
X6708825Y1650000D01*
X6713481Y1626589D01*
X6724638Y1609892D01*
X6725889Y1600000D01*
X6724638Y1590108D01*
X6713481Y1573411D01*
X6708825Y1550000D01*
X6713481Y1526589D01*
X6726742Y1506742D01*
X6746589Y1493481D01*
X6770000Y1488825D01*
X6793411Y1493481D01*
X6813257Y1506742D01*
X6826519Y1526589D01*
X6831175Y1550000D01*
X6826519Y1573411D01*
X6815362Y1590108D01*
X6814111Y1600000D01*
X6815362Y1609892D01*
X6826519Y1626589D01*
X6831175Y1650000D01*
X6826519Y1673411D01*
X6813257Y1693257D01*
Y1706743D01*
X6826519Y1726589D01*
X6831175Y1750000D01*
X6826519Y1773411D01*
X6815362Y1790108D01*
X6814111Y1800000D01*
X6815362Y1809892D01*
X6826519Y1826589D01*
X6831175Y1850000D01*
X6826519Y1873411D01*
X6815362Y1890108D01*
X6814111Y1900000D01*
X6815362Y1909892D01*
X6826519Y1926589D01*
X6831175Y1950000D01*
X6826519Y1973411D01*
X6813257Y1993257D01*
X6793411Y2006519D01*
X6770000Y2011175D01*
D02*
G37*
G36*
X6919342Y1561834D02*
X6895931Y1557177D01*
X6876084Y1543916D01*
X6862823Y1524069D01*
X6858166Y1500658D01*
X6862823Y1477247D01*
X6876084Y1457401D01*
X6895931Y1444140D01*
X6919342Y1439483D01*
X6942752Y1444140D01*
X6962599Y1457401D01*
X6975860Y1477247D01*
X6980517Y1500658D01*
X6975860Y1524069D01*
X6962599Y1543916D01*
X6942752Y1557177D01*
X6919342Y1561834D01*
D02*
G37*
G36*
X1490000Y1471175D02*
X1466589Y1466519D01*
X1446743Y1453257D01*
X1433481Y1433411D01*
X1432160Y1426768D01*
X1410000Y1431175D01*
X1386589Y1426519D01*
X1366743Y1413258D01*
X1353481Y1393411D01*
X1348825Y1370000D01*
X1353481Y1346589D01*
X1366743Y1326743D01*
X1386589Y1313481D01*
X1410000Y1308825D01*
X1433411Y1313481D01*
X1453257Y1326743D01*
X1466519Y1346589D01*
X1467840Y1353232D01*
X1490000Y1348825D01*
X1513411Y1353481D01*
X1533258Y1366743D01*
X1546519Y1386589D01*
X1551175Y1410000D01*
X1546519Y1433411D01*
X1533258Y1453257D01*
X1513411Y1466519D01*
X1490000Y1471175D01*
D02*
G37*
G36*
X2160000Y1521175D02*
X2136589Y1516519D01*
X2116743Y1503257D01*
X2103481Y1483411D01*
X2098825Y1460000D01*
X2103481Y1436589D01*
X2116743Y1416742D01*
X2136589Y1403481D01*
X2160000Y1398824D01*
X2183411Y1403481D01*
X2203257Y1416742D01*
X2216519Y1436589D01*
X2221175Y1460000D01*
X2216519Y1483411D01*
X2203257Y1503257D01*
X2183411Y1516519D01*
X2160000Y1521175D01*
D02*
G37*
G36*
X8459500Y1567122D02*
X8344500D01*
X8318163Y1561883D01*
X8295836Y1546964D01*
X8280917Y1524637D01*
X8275678Y1498300D01*
Y1423300D01*
X8280917Y1396963D01*
X8295836Y1374636D01*
X8318163Y1359717D01*
X8344500Y1354478D01*
X8459500D01*
X8485837Y1359717D01*
X8508164Y1374636D01*
X8523083Y1396963D01*
X8528322Y1423300D01*
Y1498300D01*
X8523083Y1524637D01*
X8508164Y1546964D01*
X8485837Y1561883D01*
X8459500Y1567122D01*
D02*
G37*
G36*
X8165500D02*
X8050500D01*
X8024163Y1561883D01*
X8001836Y1546964D01*
X7986917Y1524637D01*
X7981678Y1498300D01*
Y1423300D01*
X7986917Y1396963D01*
X8001836Y1374636D01*
X8024163Y1359717D01*
X8050500Y1354478D01*
X8165500D01*
X8191837Y1359717D01*
X8214164Y1374636D01*
X8229083Y1396963D01*
X8234322Y1423300D01*
Y1498300D01*
X8229083Y1524637D01*
X8214164Y1546964D01*
X8191837Y1561883D01*
X8165500Y1567122D01*
D02*
G37*
G36*
X2800000Y1541175D02*
X2776589Y1536519D01*
X2756743Y1523258D01*
X2743481Y1503411D01*
X2738825Y1480000D01*
X2743481Y1456589D01*
X2731970Y1446818D01*
X2708718Y1431282D01*
X2689932Y1403165D01*
X2683335Y1370000D01*
X2689932Y1336835D01*
X2708718Y1308718D01*
X2736835Y1289932D01*
X2770000Y1283335D01*
X2803165Y1289932D01*
X2831282Y1308718D01*
X2850068Y1336835D01*
X2856665Y1370000D01*
X2850068Y1403165D01*
X2832456Y1429525D01*
X2843257Y1436743D01*
X2856519Y1456589D01*
X2861175Y1480000D01*
X2856519Y1503411D01*
X2843257Y1523258D01*
X2823411Y1536519D01*
X2800000Y1541175D01*
D02*
G37*
G36*
X7660000Y1631175D02*
X7636589Y1626519D01*
X7616742Y1613257D01*
X7603481Y1593411D01*
X7598825Y1570000D01*
X7603481Y1546589D01*
X7616742Y1526742D01*
X7624686Y1521434D01*
X7625326Y1516374D01*
X7623294Y1504324D01*
X7606727Y1493255D01*
X7593466Y1473408D01*
X7588809Y1449997D01*
X7593466Y1426586D01*
X7606727Y1406740D01*
X7626574Y1393478D01*
X7649985Y1388822D01*
X7673396Y1393478D01*
X7679704Y1397693D01*
X7693204Y1388673D01*
X7692970Y1387500D01*
X7697627Y1364089D01*
X7710888Y1344242D01*
X7730735Y1330981D01*
X7754146Y1326324D01*
X7777556Y1330981D01*
X7797403Y1344242D01*
X7798755Y1346266D01*
X7812885Y1340413D01*
X7808825Y1320000D01*
X7813481Y1296589D01*
X7826743Y1276742D01*
X7846589Y1263481D01*
X7870000Y1258825D01*
X7893411Y1263481D01*
X7913257Y1276742D01*
X7926519Y1296589D01*
X7931175Y1320000D01*
X7926519Y1343411D01*
X7913257Y1363257D01*
X7893411Y1376519D01*
X7870000Y1381175D01*
X7846589Y1376519D01*
X7826743Y1363257D01*
X7825390Y1361233D01*
X7811260Y1367086D01*
X7815321Y1387500D01*
X7810664Y1410911D01*
X7797403Y1430757D01*
X7777556Y1444019D01*
X7754146Y1448675D01*
X7730735Y1444019D01*
X7724427Y1439804D01*
X7710927Y1448824D01*
X7711160Y1449997D01*
X7706504Y1473408D01*
X7693242Y1493255D01*
X7685298Y1498563D01*
X7684658Y1503623D01*
X7686691Y1515673D01*
X7703257Y1526742D01*
X7716519Y1546589D01*
X7721175Y1570000D01*
X7716519Y1593411D01*
X7703257Y1613257D01*
X7683411Y1626519D01*
X7660000Y1631175D01*
D02*
G37*
G36*
X5620000Y1371175D02*
X5596589Y1366519D01*
X5576742Y1353257D01*
X5563481Y1333411D01*
X5558825Y1310000D01*
X5563481Y1286589D01*
X5576742Y1266742D01*
X5596589Y1253481D01*
X5620000Y1248825D01*
X5643411Y1253481D01*
X5663257Y1266742D01*
X5676519Y1286589D01*
X5681175Y1310000D01*
X5676519Y1333411D01*
X5663257Y1353257D01*
X5643411Y1366519D01*
X5620000Y1371175D01*
D02*
G37*
G36*
X7209986Y1561172D02*
X7186575Y1556516D01*
X7166728Y1543254D01*
X7153467Y1523408D01*
X7148810Y1499997D01*
X7135071Y1492179D01*
X7124202Y1490017D01*
X7104356Y1476755D01*
X7091094Y1456909D01*
X7086438Y1433498D01*
X7091094Y1410087D01*
X7104356Y1390240D01*
X7124202Y1376979D01*
X7129579Y1375910D01*
X7128711Y1371546D01*
X7133367Y1348135D01*
X7146629Y1328289D01*
X7166475Y1315028D01*
X7189886Y1310371D01*
X7204687Y1313315D01*
X7216715Y1308367D01*
X7219877Y1302207D01*
X7223481Y1284089D01*
X7236742Y1264243D01*
X7256589Y1250981D01*
X7280000Y1246325D01*
X7303411Y1250981D01*
X7323257Y1264243D01*
X7336519Y1284089D01*
X7341175Y1307500D01*
X7336519Y1330911D01*
X7323257Y1350758D01*
X7303411Y1364019D01*
X7280000Y1368675D01*
X7265199Y1365731D01*
X7253171Y1370679D01*
X7250009Y1376840D01*
X7246405Y1394957D01*
X7233144Y1414804D01*
X7217770Y1425076D01*
X7219976Y1439864D01*
X7222527Y1441316D01*
X7233397Y1443478D01*
X7253243Y1456740D01*
X7266504Y1476586D01*
X7271161Y1499997D01*
X7266504Y1523408D01*
X7253243Y1543254D01*
X7233397Y1556516D01*
X7209986Y1561172D01*
D02*
G37*
G36*
X3750434Y1367514D02*
X3727023Y1362857D01*
X3707176Y1349596D01*
X3693915Y1329749D01*
X3689259Y1306338D01*
X3693915Y1282927D01*
X3707176Y1263081D01*
X3727023Y1249819D01*
X3750434Y1245163D01*
X3773845Y1249819D01*
X3793691Y1263081D01*
X3806953Y1282927D01*
X3811609Y1306338D01*
X3806953Y1329749D01*
X3793691Y1349596D01*
X3773845Y1362857D01*
X3750434Y1367514D01*
D02*
G37*
G36*
X7060000Y1338575D02*
X7036589Y1333918D01*
X7016743Y1320657D01*
X7003481Y1300810D01*
X6998825Y1277400D01*
X7003481Y1253989D01*
X7016743Y1234142D01*
X7036589Y1220881D01*
X7060000Y1216224D01*
X7083411Y1220881D01*
X7103258Y1234142D01*
X7116519Y1253989D01*
X7121175Y1277400D01*
X7116519Y1300810D01*
X7103258Y1320657D01*
X7083411Y1333918D01*
X7060000Y1338575D01*
D02*
G37*
G36*
X6515758Y1314382D02*
X6492347Y1309726D01*
X6472501Y1296465D01*
X6459240Y1276618D01*
X6454583Y1253207D01*
X6459240Y1229796D01*
X6472501Y1209950D01*
X6492347Y1196688D01*
X6515758Y1192032D01*
X6539169Y1196688D01*
X6559016Y1209950D01*
X6572277Y1229796D01*
X6576934Y1253207D01*
X6572277Y1276618D01*
X6559016Y1296465D01*
X6539169Y1309726D01*
X6515758Y1314382D01*
D02*
G37*
G36*
X6919704Y1306851D02*
X6896293Y1302195D01*
X6876446Y1288933D01*
X6863185Y1269087D01*
X6858528Y1245676D01*
X6863185Y1222265D01*
X6876446Y1202418D01*
X6896293Y1189157D01*
X6919704Y1184501D01*
X6943115Y1189157D01*
X6962961Y1202418D01*
X6976223Y1222265D01*
X6980879Y1245676D01*
X6976223Y1269087D01*
X6962961Y1288933D01*
X6943115Y1302195D01*
X6919704Y1306851D01*
D02*
G37*
G36*
X1983392Y1284134D02*
X1959981Y1279478D01*
X1940135Y1266216D01*
X1926873Y1246370D01*
X1922217Y1222959D01*
X1926873Y1199548D01*
X1940135Y1179701D01*
X1959981Y1166440D01*
X1983392Y1161783D01*
X2006803Y1166440D01*
X2026649Y1179701D01*
X2039911Y1199548D01*
X2044567Y1222959D01*
X2039911Y1246370D01*
X2026649Y1266216D01*
X2006803Y1279478D01*
X1983392Y1284134D01*
D02*
G37*
G36*
X8459500Y1313122D02*
X8344500D01*
X8318163Y1307883D01*
X8295836Y1292964D01*
X8280917Y1270637D01*
X8275678Y1244300D01*
Y1169300D01*
X8280917Y1142963D01*
X8295836Y1120636D01*
X8318163Y1105717D01*
X8344500Y1100478D01*
X8459500D01*
X8485837Y1105717D01*
X8508164Y1120636D01*
X8523083Y1142963D01*
X8528322Y1169300D01*
Y1244300D01*
X8523083Y1270637D01*
X8508164Y1292964D01*
X8485837Y1307883D01*
X8459500Y1313122D01*
D02*
G37*
G36*
X8165500D02*
X8050500D01*
X8024163Y1307883D01*
X8001836Y1292964D01*
X7986917Y1270637D01*
X7981678Y1244300D01*
Y1169300D01*
X7986917Y1142963D01*
X8001836Y1120636D01*
X8024163Y1105717D01*
X8050500Y1100478D01*
X8165500D01*
X8191837Y1105717D01*
X8214164Y1120636D01*
X8229083Y1142963D01*
X8234322Y1169300D01*
Y1244300D01*
X8229083Y1270637D01*
X8214164Y1292964D01*
X8191837Y1307883D01*
X8165500Y1313122D01*
D02*
G37*
G36*
X1380000Y1181175D02*
X1356589Y1176519D01*
X1336743Y1163258D01*
X1323481Y1143411D01*
X1318825Y1120000D01*
X1323481Y1096589D01*
X1336743Y1076743D01*
X1356589Y1063481D01*
X1380000Y1058825D01*
X1403411Y1063481D01*
X1423258Y1076743D01*
X1436519Y1096589D01*
X1441175Y1120000D01*
X1436519Y1143411D01*
X1423258Y1163258D01*
X1403411Y1176519D01*
X1380000Y1181175D01*
D02*
G37*
G36*
X4650239Y1083138D02*
X4626828Y1078481D01*
X4606981Y1065220D01*
X4596802Y1049986D01*
X4588235Y1045730D01*
X4578621Y1046356D01*
X4563411Y1056519D01*
X4540000Y1061175D01*
X4516589Y1056519D01*
X4496743Y1043258D01*
X4483481Y1023411D01*
X4478825Y1000000D01*
X4483481Y976589D01*
X4496743Y956743D01*
X4516589Y943481D01*
X4540000Y938825D01*
X4563411Y943481D01*
X4583258Y956743D01*
X4593437Y971976D01*
X4602004Y976232D01*
X4611617Y975607D01*
X4626828Y965443D01*
X4650239Y960787D01*
X4673650Y965443D01*
X4693496Y978705D01*
X4706757Y998551D01*
X4711414Y1021962D01*
X4706757Y1045373D01*
X4693496Y1065220D01*
X4673650Y1078481D01*
X4650239Y1083138D01*
D02*
G37*
G36*
X7047500Y1151834D02*
X7024089Y1147177D01*
X7004243Y1133916D01*
X6990981Y1114069D01*
X6986325Y1090658D01*
X6990981Y1067248D01*
X7004243Y1047401D01*
X7024089Y1034140D01*
X7047500Y1029483D01*
X7070911Y1034140D01*
X7090757Y1047401D01*
X7104019Y1067248D01*
X7108675Y1090658D01*
X7104019Y1114069D01*
X7090757Y1133916D01*
X7070911Y1147177D01*
X7047500Y1151834D01*
D02*
G37*
G36*
X6030000Y1101175D02*
X6006589Y1096519D01*
X5986742Y1083257D01*
X5973481Y1063411D01*
X5968824Y1040000D01*
X5970937Y1029380D01*
X5969814Y1028458D01*
X5969558Y1028361D01*
X5950675Y1032156D01*
X5943257Y1043258D01*
X5923411Y1056519D01*
X5900000Y1061175D01*
X5876589Y1056519D01*
X5856742Y1043258D01*
X5843481Y1023411D01*
X5838824Y1000000D01*
X5843481Y976589D01*
X5856742Y956743D01*
X5876589Y943481D01*
X5900000Y938825D01*
X5923411Y943481D01*
X5928692Y947010D01*
X5942550Y941270D01*
X5943481Y936589D01*
X5956742Y916743D01*
X5976589Y903481D01*
X6000000Y898825D01*
X6023411Y903481D01*
X6043257Y916743D01*
X6056519Y936589D01*
X6061175Y960000D01*
X6056519Y983411D01*
X6055527Y984895D01*
X6073257Y996742D01*
X6086519Y1016589D01*
X6091175Y1040000D01*
X6086519Y1063411D01*
X6073257Y1083257D01*
X6053411Y1096519D01*
X6030000Y1101175D01*
D02*
G37*
G36*
X2310000Y1136176D02*
X2286589Y1131519D01*
X2266742Y1118258D01*
X2253481Y1098411D01*
X2248825Y1075000D01*
X2253481Y1051589D01*
X2266742Y1031743D01*
X2286589Y1018481D01*
X2310000Y1013825D01*
X2333411Y1018481D01*
X2353257Y1031743D01*
X2366519Y1051589D01*
X2371175Y1075000D01*
X2366519Y1098411D01*
X2353257Y1118258D01*
X2333411Y1131519D01*
X2310000Y1136176D01*
D02*
G37*
G36*
X8459500Y1064220D02*
X8414700D01*
Y965500D01*
X8533420D01*
Y990300D01*
X8527793Y1018588D01*
X8511769Y1042569D01*
X8487788Y1058593D01*
X8459500Y1064220D01*
D02*
G37*
G36*
X8389300D02*
X8344500D01*
X8316212Y1058593D01*
X8292231Y1042569D01*
X8276207Y1018588D01*
X8270580Y990300D01*
Y965500D01*
X8389300D01*
Y1064220D01*
D02*
G37*
G36*
X7689985Y1311173D02*
X7666574Y1306516D01*
X7646727Y1293255D01*
X7633466Y1273408D01*
X7628809Y1249997D01*
X7633466Y1226587D01*
X7646727Y1206740D01*
X7650083Y1204497D01*
X7646916Y1188574D01*
X7636574Y1186517D01*
X7616727Y1173255D01*
X7603466Y1153409D01*
X7598809Y1129998D01*
X7603466Y1106587D01*
X7616727Y1086740D01*
X7628308Y1079002D01*
Y1060994D01*
X7616727Y1053255D01*
X7603466Y1033409D01*
X7598809Y1009998D01*
X7603466Y986587D01*
X7616727Y966741D01*
X7636574Y953479D01*
X7659985Y948823D01*
X7683396Y953479D01*
X7703242Y966741D01*
X7716503Y986587D01*
X7720965Y1009018D01*
X7743395Y1013479D01*
X7763242Y1026740D01*
X7776503Y1046587D01*
X7781160Y1069998D01*
X7776503Y1093409D01*
X7763242Y1113255D01*
X7743395Y1126517D01*
X7720965Y1130978D01*
X7716503Y1153409D01*
X7703242Y1173255D01*
X7699886Y1175498D01*
X7703054Y1191422D01*
X7713396Y1193479D01*
X7733242Y1206740D01*
X7746503Y1226587D01*
X7751160Y1249997D01*
X7746503Y1273408D01*
X7733242Y1293255D01*
X7713396Y1306516D01*
X7689985Y1311173D01*
D02*
G37*
G36*
X5440000Y1063675D02*
X5416589Y1059019D01*
X5396743Y1045757D01*
X5383481Y1025911D01*
X5378825Y1002500D01*
X5383481Y979089D01*
X5396743Y959242D01*
X5416589Y945981D01*
X5440000Y941325D01*
X5463411Y945981D01*
X5483258Y959242D01*
X5496519Y979089D01*
X5501175Y1002500D01*
X5496519Y1025911D01*
X5483258Y1045757D01*
X5463411Y1059019D01*
X5440000Y1063675D01*
D02*
G37*
G36*
X5740000Y921175D02*
X5716589Y916519D01*
X5696742Y903258D01*
X5692500Y896908D01*
X5677500D01*
X5673257Y903258D01*
X5653411Y916519D01*
X5630000Y921175D01*
X5606589Y916519D01*
X5596805Y909981D01*
X5585000Y904122D01*
X5573195Y909981D01*
X5563411Y916519D01*
X5540000Y921175D01*
X5516589Y916519D01*
X5506805Y909981D01*
X5495000Y904123D01*
X5483195Y909981D01*
X5473411Y916519D01*
X5450000Y921175D01*
X5426589Y916519D01*
X5406743Y903258D01*
X5402500Y896908D01*
X5387500D01*
X5383257Y903258D01*
X5363411Y916519D01*
X5340000Y921175D01*
X5316589Y916519D01*
X5296743Y903258D01*
X5283481Y883411D01*
X5278825Y860000D01*
X5283481Y836589D01*
X5296743Y816743D01*
X5316589Y803481D01*
X5340000Y798825D01*
X5363411Y803481D01*
X5383257Y816743D01*
X5387500Y823092D01*
X5402500D01*
X5406743Y816743D01*
X5426589Y803481D01*
X5450000Y798825D01*
X5473411Y803481D01*
X5483195Y810019D01*
X5495000Y815877D01*
X5506805Y810019D01*
X5516589Y803481D01*
X5540000Y798825D01*
X5563411Y803481D01*
X5573195Y810019D01*
X5585000Y815878D01*
X5596805Y810019D01*
X5606589Y803481D01*
X5630000Y798825D01*
X5653411Y803481D01*
X5673257Y816743D01*
X5677500Y823092D01*
X5692500D01*
X5696742Y816743D01*
X5716589Y803481D01*
X5740000Y798825D01*
X5763411Y803481D01*
X5783257Y816743D01*
X5787854D01*
X5790091Y813394D01*
X5809938Y800133D01*
X5833349Y795476D01*
X5856759Y800133D01*
X5876606Y813394D01*
X5889867Y833241D01*
X5894524Y856652D01*
X5889867Y880063D01*
X5876606Y899909D01*
X5856759Y913171D01*
X5833349Y917827D01*
X5809938Y913171D01*
X5790091Y899909D01*
X5785495D01*
X5783257Y903258D01*
X5763411Y916519D01*
X5740000Y921175D01*
D02*
G37*
G36*
X7210000Y1181175D02*
X7186589Y1176519D01*
X7166743Y1163258D01*
X7153481Y1143411D01*
X7148825Y1120000D01*
X7153481Y1096589D01*
X7166743Y1076743D01*
X7174687Y1071434D01*
X7175331Y1066386D01*
X7173300Y1054321D01*
X7156743Y1043258D01*
X7143481Y1023411D01*
X7138825Y1000000D01*
X7143481Y976589D01*
X7156743Y956743D01*
X7176589Y943481D01*
X7200000Y938825D01*
X7223411Y943481D01*
X7239234Y954054D01*
X7250049Y943240D01*
X7243481Y933411D01*
X7238824Y910000D01*
X7243481Y886589D01*
X7256742Y866742D01*
X7276589Y853481D01*
X7300000Y848825D01*
X7323411Y853481D01*
X7343257Y866742D01*
X7356519Y886589D01*
X7361175Y910000D01*
X7356519Y933411D01*
X7343257Y953257D01*
X7323411Y966519D01*
X7300000Y971175D01*
X7276589Y966519D01*
X7260766Y955946D01*
X7249951Y966760D01*
X7256519Y976589D01*
X7261175Y1000000D01*
X7256519Y1023411D01*
X7243258Y1043258D01*
X7235313Y1048566D01*
X7234670Y1053614D01*
X7236701Y1065679D01*
X7253258Y1076743D01*
X7266519Y1096589D01*
X7271175Y1120000D01*
X7266519Y1143411D01*
X7253258Y1163258D01*
X7233411Y1176519D01*
X7210000Y1181175D01*
D02*
G37*
G36*
X8533420Y940100D02*
X8414700D01*
Y841380D01*
X8459500D01*
X8487788Y847007D01*
X8511769Y863031D01*
X8527793Y887012D01*
X8533420Y915300D01*
Y940100D01*
D02*
G37*
G36*
X8389300D02*
X8270580D01*
Y915300D01*
X8276207Y887012D01*
X8292231Y863031D01*
X8316212Y847007D01*
X8344500Y841380D01*
X8389300D01*
Y940100D01*
D02*
G37*
G36*
X4717307Y960731D02*
X4693896Y956074D01*
X4674049Y942813D01*
X4660788Y922966D01*
X4656131Y899555D01*
X4660788Y876145D01*
X4674049Y856298D01*
X4693896Y843037D01*
X4717307Y838380D01*
X4740718Y843037D01*
X4760564Y856298D01*
X4773826Y876145D01*
X4778482Y899555D01*
X4773826Y922966D01*
X4760564Y942813D01*
X4740718Y956074D01*
X4717307Y960731D01*
D02*
G37*
G36*
X4960000Y941175D02*
X4936589Y936519D01*
X4916743Y923257D01*
X4903481Y903411D01*
X4898825Y880000D01*
X4903481Y856589D01*
X4916743Y836743D01*
X4936589Y823481D01*
X4960000Y818825D01*
X4983411Y823481D01*
X5003257Y836743D01*
X5016519Y856589D01*
X5021175Y880000D01*
X5016519Y903411D01*
X5003257Y923257D01*
X4983411Y936519D01*
X4960000Y941175D01*
D02*
G37*
G36*
X5140000Y931175D02*
X5116589Y926519D01*
X5096742Y913258D01*
X5083481Y893411D01*
X5078824Y870000D01*
X5083481Y846589D01*
X5096742Y826743D01*
X5116589Y813481D01*
X5140000Y808825D01*
X5163411Y813481D01*
X5183257Y826743D01*
X5196519Y846589D01*
X5201175Y870000D01*
X5196519Y893411D01*
X5183257Y913258D01*
X5163411Y926519D01*
X5140000Y931175D01*
D02*
G37*
G36*
X2710000Y1011175D02*
X2686589Y1006519D01*
X2666742Y993257D01*
X2653481Y973411D01*
X2648825Y950000D01*
X2653481Y926589D01*
X2666742Y906742D01*
X2686589Y893481D01*
X2710000Y888824D01*
X2733411Y893481D01*
X2739704Y897686D01*
X2752369Y888108D01*
X2748728Y869806D01*
X2753385Y846395D01*
X2766646Y826549D01*
X2786493Y813287D01*
X2809904Y808631D01*
X2833315Y813287D01*
X2853161Y826549D01*
X2866423Y846395D01*
X2871079Y869806D01*
X2866423Y893217D01*
X2853161Y913064D01*
X2833315Y926325D01*
X2809904Y930982D01*
X2786493Y926325D01*
X2780200Y922120D01*
X2767535Y931698D01*
X2771175Y950000D01*
X2766519Y973411D01*
X2753257Y993257D01*
X2733411Y1006519D01*
X2710000Y1011175D01*
D02*
G37*
G36*
X4091598Y1007024D02*
X4068187Y1002368D01*
X4048340Y989106D01*
X4035079Y969260D01*
X4030422Y945849D01*
X4035079Y922438D01*
X4048340Y902592D01*
X4068187Y889330D01*
X4091598Y884674D01*
X4115009Y889330D01*
X4130005Y899351D01*
X4133760Y897418D01*
X4142162Y889434D01*
X4138166Y869341D01*
X4142823Y845930D01*
X4156084Y826084D01*
X4175930Y812823D01*
X4199341Y808166D01*
X4222752Y812823D01*
X4242599Y826084D01*
X4255860Y845930D01*
X4260517Y869341D01*
X4255860Y892752D01*
X4242599Y912599D01*
X4222752Y925860D01*
X4199341Y930517D01*
X4175930Y925860D01*
X4160934Y915840D01*
X4157180Y917772D01*
X4148777Y925757D01*
X4152773Y945849D01*
X4148117Y969260D01*
X4134855Y989106D01*
X4115009Y1002368D01*
X4091598Y1007024D01*
D02*
G37*
G36*
X3410000Y941175D02*
X3386589Y936519D01*
X3366743Y923257D01*
X3353481Y903411D01*
X3348825Y880000D01*
X3353481Y856589D01*
X3364638Y839892D01*
X3365889Y830000D01*
X3364638Y820108D01*
X3353481Y803411D01*
X3348825Y780000D01*
X3353481Y756589D01*
X3366743Y736742D01*
X3386589Y723481D01*
X3410000Y718825D01*
X3433411Y723481D01*
X3453258Y736742D01*
X3466519Y756589D01*
X3471175Y780000D01*
X3466519Y803411D01*
X3455362Y820108D01*
X3454111Y830000D01*
X3455362Y839892D01*
X3464739Y853925D01*
X3475693Y853771D01*
X3480348Y852342D01*
X3483481Y836589D01*
X3496743Y816743D01*
X3516589Y803481D01*
X3540000Y798825D01*
X3563411Y803481D01*
X3583258Y816743D01*
X3596519Y836589D01*
X3601175Y860000D01*
X3596519Y883411D01*
X3583258Y903258D01*
X3563411Y916519D01*
X3540000Y921175D01*
X3516589Y916519D01*
X3496743Y903258D01*
X3485261Y886075D01*
X3474307Y886229D01*
X3469652Y887658D01*
X3466519Y903411D01*
X3453258Y923257D01*
X3433411Y936519D01*
X3410000Y941175D01*
D02*
G37*
G36*
X1810000Y881175D02*
X1786589Y876519D01*
X1766742Y863257D01*
X1753481Y843411D01*
X1748825Y820000D01*
X1753481Y796589D01*
X1766742Y776742D01*
X1786589Y763481D01*
X1810000Y758824D01*
X1833411Y763481D01*
X1853257Y776742D01*
X1866519Y796589D01*
X1871175Y820000D01*
X1866519Y843411D01*
X1853257Y863257D01*
X1833411Y876519D01*
X1810000Y881175D01*
D02*
G37*
G36*
X2597085Y871175D02*
X2573674Y866519D01*
X2553828Y853257D01*
X2540566Y833411D01*
X2535910Y810000D01*
X2540566Y786589D01*
X2553828Y766742D01*
X2573674Y753481D01*
X2597085Y748825D01*
X2620496Y753481D01*
X2640343Y766742D01*
X2653604Y786589D01*
X2658261Y810000D01*
X2653604Y833411D01*
X2640343Y853257D01*
X2620496Y866519D01*
X2597085Y871175D01*
D02*
G37*
G36*
X7528431Y852744D02*
X7505020Y848087D01*
X7485174Y834826D01*
X7471912Y814979D01*
X7467256Y791568D01*
X7471912Y768157D01*
X7485174Y748311D01*
X7505020Y735050D01*
X7528431Y730393D01*
X7551842Y735050D01*
X7571689Y748311D01*
X7584950Y768157D01*
X7589607Y791568D01*
X7584950Y814979D01*
X7571689Y834826D01*
X7551842Y848087D01*
X7528431Y852744D01*
D02*
G37*
G36*
X6770000Y1251175D02*
X6746589Y1246519D01*
X6726742Y1233257D01*
X6713481Y1213411D01*
X6708825Y1190000D01*
X6713481Y1166589D01*
X6724638Y1149892D01*
X6725889Y1140000D01*
X6724638Y1130108D01*
X6713481Y1113411D01*
X6708825Y1090000D01*
X6713481Y1066589D01*
X6724638Y1049892D01*
X6725889Y1040000D01*
X6724638Y1030108D01*
X6713481Y1013411D01*
X6708825Y990000D01*
X6713481Y966589D01*
X6724566Y950000D01*
X6713481Y933411D01*
X6708825Y910000D01*
X6713481Y886589D01*
X6726742Y866742D01*
X6738323Y859004D01*
Y840996D01*
X6726742Y833257D01*
X6713481Y813411D01*
X6708825Y790000D01*
X6713481Y766589D01*
X6726742Y746742D01*
X6746589Y733481D01*
X6770000Y728825D01*
X6793411Y733481D01*
X6813257Y746742D01*
X6826519Y766589D01*
X6831175Y790000D01*
X6826519Y813411D01*
X6813257Y833257D01*
X6801677Y840996D01*
Y859004D01*
X6813257Y866742D01*
X6826519Y886589D01*
X6831175Y910000D01*
X6826519Y933411D01*
X6815434Y950000D01*
X6826519Y966589D01*
X6831175Y990000D01*
X6826519Y1013411D01*
X6815362Y1030108D01*
X6814111Y1040000D01*
X6815362Y1049892D01*
X6826519Y1066589D01*
X6831175Y1090000D01*
X6826519Y1113411D01*
X6815362Y1130108D01*
X6814111Y1140000D01*
X6815362Y1149892D01*
X6826519Y1166589D01*
X6831175Y1190000D01*
X6826519Y1213411D01*
X6813257Y1233257D01*
X6793411Y1246519D01*
X6770000Y1251175D01*
D02*
G37*
G36*
X6140000Y921175D02*
X6116589Y916519D01*
X6096742Y903258D01*
X6083481Y883411D01*
X6078825Y860000D01*
X6065465Y850273D01*
X6046589Y846519D01*
X6026743Y833257D01*
X6013481Y813411D01*
X6008825Y790000D01*
X6013481Y766589D01*
X6026743Y746742D01*
X6046589Y733481D01*
X6070000Y728825D01*
X6093411Y733481D01*
X6113258Y746742D01*
X6126519Y766589D01*
X6131175Y790000D01*
X6144535Y799727D01*
X6163411Y803481D01*
X6183257Y816743D01*
X6196519Y836589D01*
X6201175Y860000D01*
X6196519Y883411D01*
X6183257Y903258D01*
X6163411Y916519D01*
X6140000Y921175D01*
D02*
G37*
G36*
X2450000Y801175D02*
X2426589Y796519D01*
X2406742Y783258D01*
X2393481Y763411D01*
X2388825Y740000D01*
X2393481Y716589D01*
X2406742Y696743D01*
X2426589Y683481D01*
X2450000Y678825D01*
X2473411Y683481D01*
X2493257Y696743D01*
X2506519Y716589D01*
X2511175Y740000D01*
X2506519Y763411D01*
X2493257Y783258D01*
X2473411Y796519D01*
X2450000Y801175D01*
D02*
G37*
G36*
X6200000Y761176D02*
X6176589Y756519D01*
X6156743Y743258D01*
X6143481Y723411D01*
X6138825Y700000D01*
X6143481Y676589D01*
X6156743Y656743D01*
X6176589Y643481D01*
X6200000Y638825D01*
X6223411Y643481D01*
X6243258Y656743D01*
X6256519Y676589D01*
X6261175Y700000D01*
X6256519Y723411D01*
X6243258Y743258D01*
X6223411Y756519D01*
X6200000Y761176D01*
D02*
G37*
G36*
X5220000D02*
X5196589Y756519D01*
X5176743Y743258D01*
X5163481Y723411D01*
X5158825Y700000D01*
X5163481Y676589D01*
X5176743Y656743D01*
X5196589Y643481D01*
X5220000Y638825D01*
X5243411Y643481D01*
X5263257Y656743D01*
X5276519Y676589D01*
X5281175Y700000D01*
X5276519Y723411D01*
X5263257Y743258D01*
X5243411Y756519D01*
X5220000Y761176D01*
D02*
G37*
G36*
X4690000D02*
X4666589Y756519D01*
X4646743Y743258D01*
X4633481Y723411D01*
X4628825Y700000D01*
X4633481Y676589D01*
X4646743Y656743D01*
X4666589Y643481D01*
X4690000Y638825D01*
X4713411Y643481D01*
X4733257Y656743D01*
X4746519Y676589D01*
X4751175Y700000D01*
X4746519Y723411D01*
X4733257Y743258D01*
X4713411Y756519D01*
X4690000Y761176D01*
D02*
G37*
G36*
X4240000D02*
X4216589Y756519D01*
X4196742Y743258D01*
X4183481Y723411D01*
X4178825Y700000D01*
X4183481Y676589D01*
X4196742Y656743D01*
X4216589Y643481D01*
X4240000Y638825D01*
X4263411Y643481D01*
X4283257Y656743D01*
X4296519Y676589D01*
X4301175Y700000D01*
X4296519Y723411D01*
X4283257Y743258D01*
X4263411Y756519D01*
X4240000Y761176D01*
D02*
G37*
G36*
X3750000Y861175D02*
X3726589Y856519D01*
X3706743Y843257D01*
X3693481Y823411D01*
X3688825Y800000D01*
X3693481Y776589D01*
X3701551Y764512D01*
X3699361Y745007D01*
X3696742Y743258D01*
X3683481Y723411D01*
X3678824Y700000D01*
X3683481Y676589D01*
X3696742Y656743D01*
X3716589Y643481D01*
X3740000Y638825D01*
X3763411Y643481D01*
X3783257Y656743D01*
X3796519Y676589D01*
X3801175Y700000D01*
X3796519Y723411D01*
X3788449Y735488D01*
X3790639Y754993D01*
X3793258Y756742D01*
X3806519Y776589D01*
X3811176Y800000D01*
X3806519Y823411D01*
X3793258Y843257D01*
X3773411Y856519D01*
X3750000Y861175D01*
D02*
G37*
G36*
X8165500Y1059122D02*
X8050500D01*
X8024163Y1053883D01*
X8001836Y1038964D01*
X7986917Y1016637D01*
X7981678Y990300D01*
Y915300D01*
X7986917Y888963D01*
X8001836Y866636D01*
X8024163Y851717D01*
X8050500Y846478D01*
X8049859Y831744D01*
X7938500D01*
X7903774Y824836D01*
X7874335Y805166D01*
X7854664Y775726D01*
X7847756Y741000D01*
Y627700D01*
X8281244D01*
Y741000D01*
X8274336Y775726D01*
X8254665Y805166D01*
X8225226Y824836D01*
X8190500Y831744D01*
X8166141D01*
X8165500Y846478D01*
X8191837Y851717D01*
X8214164Y866636D01*
X8229083Y888963D01*
X8234322Y915300D01*
Y990300D01*
X8229083Y1016637D01*
X8214164Y1038964D01*
X8191837Y1053883D01*
X8165500Y1059122D01*
D02*
G37*
G36*
X6999895Y675982D02*
X6976484Y671326D01*
X6956638Y658064D01*
X6943376Y638218D01*
X6938720Y614807D01*
X6943376Y591396D01*
X6945989Y587485D01*
X6935175Y576671D01*
X6921837Y585583D01*
X6895500Y590822D01*
X6820500D01*
X6794163Y585583D01*
X6771836Y570664D01*
X6756917Y548337D01*
X6751678Y522000D01*
Y407000D01*
X6756917Y380663D01*
X6771836Y358336D01*
X6794163Y343417D01*
X6820500Y338178D01*
X6895500D01*
X6921837Y343417D01*
X6944164Y358336D01*
X6959083Y380663D01*
X6964322Y407000D01*
Y522000D01*
X6959083Y548337D01*
X6954813Y554728D01*
X6965627Y565543D01*
X6976484Y558288D01*
X6997918Y554025D01*
X6998102Y553944D01*
X7001974Y550664D01*
X7009300Y540208D01*
X7005678Y522000D01*
Y407000D01*
X7010917Y380663D01*
X7025836Y358336D01*
X7048163Y343417D01*
X7074500Y338178D01*
X7149500D01*
X7175837Y343417D01*
X7198164Y358336D01*
X7213083Y380663D01*
X7218322Y407000D01*
Y522000D01*
X7213083Y548337D01*
X7198164Y570664D01*
X7175837Y585583D01*
X7149500Y590822D01*
X7074500D01*
X7071474Y590220D01*
X7058717Y602977D01*
X7061070Y614807D01*
X7056414Y638218D01*
X7043153Y658064D01*
X7023306Y671326D01*
X6999895Y675982D01*
D02*
G37*
G36*
X1550000Y835000D02*
X1410000D01*
X1340000Y765000D01*
Y625000D01*
X1410000Y555000D01*
X1550000D01*
X1620000Y625000D01*
Y765000D01*
X1550000Y835000D01*
D02*
G37*
G36*
X7657500Y595920D02*
X7632700D01*
Y477200D01*
X7731420D01*
Y522000D01*
X7725793Y550288D01*
X7709769Y574269D01*
X7685788Y590293D01*
X7657500Y595920D01*
D02*
G37*
G36*
X7607300D02*
X7582500D01*
X7554212Y590293D01*
X7530231Y574269D01*
X7514207Y550288D01*
X7508580Y522000D01*
Y477200D01*
X7607300D01*
Y595920D01*
D02*
G37*
G36*
X7403500D02*
X7378700D01*
Y477200D01*
X7477420D01*
Y522000D01*
X7471793Y550288D01*
X7455769Y574269D01*
X7431788Y590293D01*
X7403500Y595920D01*
D02*
G37*
G36*
X7353300D02*
X7328500D01*
X7300212Y590293D01*
X7276231Y574269D01*
X7260207Y550288D01*
X7254580Y522000D01*
Y477200D01*
X7353300D01*
Y595920D01*
D02*
G37*
G36*
X6133500D02*
X6108700D01*
Y477200D01*
X6207420D01*
Y522000D01*
X6201793Y550288D01*
X6185769Y574269D01*
X6161788Y590293D01*
X6133500Y595920D01*
D02*
G37*
G36*
X6083300D02*
X6058500D01*
X6030212Y590293D01*
X6006231Y574269D01*
X5990207Y550288D01*
X5984580Y522000D01*
Y477200D01*
X6083300D01*
Y595920D01*
D02*
G37*
G36*
X2069500D02*
X2044700D01*
Y477200D01*
X2143420D01*
Y522000D01*
X2137793Y550288D01*
X2121769Y574269D01*
X2097788Y590293D01*
X2069500Y595920D01*
D02*
G37*
G36*
X2019300D02*
X1994500D01*
X1966212Y590293D01*
X1942231Y574269D01*
X1926207Y550288D01*
X1920580Y522000D01*
Y477200D01*
X2019300D01*
Y595920D01*
D02*
G37*
G36*
X8281244Y602300D02*
X8077200D01*
Y398257D01*
X8190500D01*
X8225226Y405164D01*
X8254665Y424835D01*
X8274336Y454274D01*
X8281244Y489000D01*
Y602300D01*
D02*
G37*
G36*
X8051800D02*
X7847756D01*
Y489000D01*
X7854664Y454274D01*
X7874335Y424835D01*
X7903774Y405164D01*
X7938500Y398257D01*
X8051800D01*
Y602300D01*
D02*
G37*
G36*
X6641500Y590822D02*
X6566500D01*
X6540163Y585583D01*
X6517836Y570664D01*
X6502917Y548337D01*
X6497678Y522000D01*
Y407000D01*
X6502917Y380663D01*
X6517836Y358336D01*
X6540163Y343417D01*
X6566500Y338178D01*
X6641500D01*
X6667837Y343417D01*
X6690164Y358336D01*
X6705083Y380663D01*
X6710322Y407000D01*
Y522000D01*
X6705083Y548337D01*
X6690164Y570664D01*
X6667837Y585583D01*
X6641500Y590822D01*
D02*
G37*
G36*
X6387500D02*
X6312500D01*
X6286163Y585583D01*
X6263836Y570664D01*
X6248917Y548337D01*
X6243678Y522000D01*
Y407000D01*
X6248917Y380663D01*
X6263836Y358336D01*
X6286163Y343417D01*
X6312500Y338178D01*
X6387500D01*
X6413837Y343417D01*
X6436164Y358336D01*
X6451083Y380663D01*
X6456322Y407000D01*
Y522000D01*
X6451083Y548337D01*
X6436164Y570664D01*
X6413837Y585583D01*
X6387500Y590822D01*
D02*
G37*
G36*
X5879500D02*
X5804500D01*
X5778163Y585583D01*
X5755836Y570664D01*
X5740917Y548337D01*
X5735678Y522000D01*
Y407000D01*
X5740917Y380663D01*
X5755836Y358336D01*
X5778163Y343417D01*
X5804500Y338178D01*
X5879500D01*
X5905837Y343417D01*
X5928164Y358336D01*
X5943083Y380663D01*
X5948322Y407000D01*
Y522000D01*
X5943083Y548337D01*
X5928164Y570664D01*
X5905837Y585583D01*
X5879500Y590822D01*
D02*
G37*
G36*
X5580000Y681175D02*
X5556589Y676519D01*
X5536743Y663258D01*
X5523481Y643411D01*
X5518825Y620000D01*
X5523481Y596589D01*
X5516304Y580332D01*
X5501836Y570664D01*
X5486917Y548337D01*
X5481678Y522000D01*
Y407000D01*
X5486917Y380663D01*
X5501836Y358336D01*
X5524163Y343417D01*
X5550500Y338178D01*
X5625500D01*
X5651837Y343417D01*
X5674164Y358336D01*
X5689083Y380663D01*
X5694322Y407000D01*
Y522000D01*
X5689083Y548337D01*
X5674164Y570664D01*
X5651837Y585583D01*
X5640112Y587916D01*
X5636519Y596589D01*
X5641175Y620000D01*
X5636519Y643411D01*
X5623257Y663258D01*
X5603411Y676519D01*
X5580000Y681175D01*
D02*
G37*
G36*
X5371500Y590822D02*
X5296500D01*
X5270163Y585583D01*
X5247836Y570664D01*
X5232917Y548337D01*
X5227678Y522000D01*
Y407000D01*
X5232917Y380663D01*
X5247836Y358336D01*
X5270163Y343417D01*
X5296500Y338178D01*
X5371500D01*
X5397837Y343417D01*
X5420164Y358336D01*
X5435083Y380663D01*
X5440322Y407000D01*
Y522000D01*
X5435083Y548337D01*
X5420164Y570664D01*
X5397837Y585583D01*
X5371500Y590822D01*
D02*
G37*
G36*
X5117500D02*
X5042500D01*
X5016163Y585583D01*
X4993836Y570664D01*
X4978917Y548337D01*
X4973678Y522000D01*
Y407000D01*
X4978917Y380663D01*
X4993836Y358336D01*
X5016163Y343417D01*
X5042500Y338178D01*
X5117500D01*
X5143837Y343417D01*
X5166164Y358336D01*
X5181083Y380663D01*
X5186322Y407000D01*
Y522000D01*
X5181083Y548337D01*
X5166164Y570664D01*
X5143837Y585583D01*
X5117500Y590822D01*
D02*
G37*
G36*
X4863500D02*
X4788500D01*
X4762163Y585583D01*
X4739836Y570664D01*
X4724917Y548337D01*
X4719678Y522000D01*
Y407000D01*
X4724917Y380663D01*
X4739836Y358336D01*
X4762163Y343417D01*
X4788500Y338178D01*
X4863500D01*
X4889837Y343417D01*
X4912164Y358336D01*
X4927083Y380663D01*
X4932322Y407000D01*
Y522000D01*
X4927083Y548337D01*
X4912164Y570664D01*
X4889837Y585583D01*
X4863500Y590822D01*
D02*
G37*
G36*
X4520000Y681175D02*
X4496589Y676519D01*
X4476743Y663258D01*
X4463481Y643411D01*
X4458825Y620000D01*
X4463481Y596589D01*
X4474414Y580227D01*
X4474986Y579371D01*
X4474986Y579371D01*
X4476742Y576742D01*
X4477507Y558200D01*
X4470917Y548337D01*
X4465678Y522000D01*
Y407000D01*
X4470917Y380663D01*
X4485836Y358336D01*
X4508163Y343417D01*
X4534500Y338178D01*
X4609500D01*
X4635837Y343417D01*
X4658164Y358336D01*
X4673083Y380663D01*
X4678322Y407000D01*
Y522000D01*
X4673083Y548337D01*
X4658164Y570664D01*
X4635837Y585583D01*
X4609500Y590822D01*
X4589333D01*
X4578355Y605822D01*
X4581175Y620000D01*
X4576519Y643411D01*
X4563258Y663258D01*
X4543411Y676519D01*
X4520000Y681175D01*
D02*
G37*
G36*
X4355500Y590822D02*
X4280500D01*
X4254163Y585583D01*
X4231836Y570664D01*
X4216917Y548337D01*
X4211678Y522000D01*
Y407000D01*
X4216917Y380663D01*
X4231836Y358336D01*
X4254163Y343417D01*
X4280500Y338178D01*
X4355500D01*
X4381837Y343417D01*
X4404164Y358336D01*
X4419083Y380663D01*
X4424322Y407000D01*
Y522000D01*
X4419083Y548337D01*
X4404164Y570664D01*
X4381837Y585583D01*
X4355500Y590822D01*
D02*
G37*
G36*
X4101500D02*
X4026500D01*
X4000163Y585583D01*
X3977836Y570664D01*
X3962917Y548337D01*
X3957678Y522000D01*
Y407000D01*
X3962917Y380663D01*
X3977836Y358336D01*
X4000163Y343417D01*
X4026500Y338178D01*
X4101500D01*
X4127837Y343417D01*
X4150164Y358336D01*
X4165083Y380663D01*
X4170322Y407000D01*
Y522000D01*
X4165083Y548337D01*
X4150164Y570664D01*
X4127837Y585583D01*
X4101500Y590822D01*
D02*
G37*
G36*
X3847500D02*
X3772500D01*
X3746163Y585583D01*
X3723836Y570664D01*
X3708917Y548337D01*
X3703678Y522000D01*
Y407000D01*
X3708917Y380663D01*
X3723836Y358336D01*
X3746163Y343417D01*
X3772500Y338178D01*
X3847500D01*
X3873837Y343417D01*
X3896164Y358336D01*
X3911083Y380663D01*
X3916322Y407000D01*
Y522000D01*
X3911083Y548337D01*
X3896164Y570664D01*
X3873837Y585583D01*
X3847500Y590822D01*
D02*
G37*
G36*
X3593500D02*
X3518500D01*
X3492163Y585583D01*
X3469836Y570664D01*
X3454917Y548337D01*
X3449678Y522000D01*
Y407000D01*
X3454917Y380663D01*
X3469836Y358336D01*
X3492163Y343417D01*
X3518500Y338178D01*
X3593500D01*
X3619837Y343417D01*
X3642164Y358336D01*
X3657083Y380663D01*
X3662322Y407000D01*
Y522000D01*
X3657083Y548337D01*
X3642164Y570664D01*
X3619837Y585583D01*
X3593500Y590822D01*
D02*
G37*
G36*
X3339500D02*
X3264500D01*
X3238163Y585583D01*
X3215836Y570664D01*
X3200917Y548337D01*
X3195678Y522000D01*
Y407000D01*
X3200917Y380663D01*
X3215836Y358336D01*
X3238163Y343417D01*
X3264500Y338178D01*
X3339500D01*
X3365837Y343417D01*
X3388164Y358336D01*
X3403083Y380663D01*
X3408322Y407000D01*
Y522000D01*
X3403083Y548337D01*
X3388164Y570664D01*
X3365837Y585583D01*
X3339500Y590822D01*
D02*
G37*
G36*
X3085500D02*
X3010500D01*
X2984163Y585583D01*
X2961836Y570664D01*
X2946917Y548337D01*
X2941678Y522000D01*
Y407000D01*
X2946917Y380663D01*
X2961836Y358336D01*
X2984163Y343417D01*
X3010500Y338178D01*
X3085500D01*
X3111837Y343417D01*
X3134164Y358336D01*
X3149083Y380663D01*
X3154322Y407000D01*
Y522000D01*
X3149083Y548337D01*
X3134164Y570664D01*
X3111837Y585583D01*
X3085500Y590822D01*
D02*
G37*
G36*
X2831500D02*
X2756500D01*
X2730163Y585583D01*
X2707836Y570664D01*
X2692917Y548337D01*
X2687678Y522000D01*
Y407000D01*
X2692917Y380663D01*
X2707836Y358336D01*
X2730163Y343417D01*
X2756500Y338178D01*
X2831500D01*
X2857837Y343417D01*
X2880164Y358336D01*
X2895083Y380663D01*
X2900322Y407000D01*
Y522000D01*
X2895083Y548337D01*
X2880164Y570664D01*
X2857837Y585583D01*
X2831500Y590822D01*
D02*
G37*
G36*
X2577500D02*
X2502500D01*
X2476163Y585583D01*
X2453836Y570664D01*
X2438917Y548337D01*
X2433678Y522000D01*
Y407000D01*
X2438917Y380663D01*
X2453836Y358336D01*
X2476163Y343417D01*
X2502500Y338178D01*
X2577500D01*
X2603837Y343417D01*
X2626164Y358336D01*
X2641083Y380663D01*
X2646322Y407000D01*
Y522000D01*
X2641083Y548337D01*
X2626164Y570664D01*
X2603837Y585583D01*
X2577500Y590822D01*
D02*
G37*
G36*
X2323500D02*
X2248500D01*
X2222163Y585583D01*
X2199836Y570664D01*
X2184917Y548337D01*
X2179678Y522000D01*
Y407000D01*
X2184917Y380663D01*
X2199836Y358336D01*
X2222163Y343417D01*
X2248500Y338178D01*
X2323500D01*
X2349837Y343417D01*
X2372164Y358336D01*
X2387083Y380663D01*
X2392322Y407000D01*
Y522000D01*
X2387083Y548337D01*
X2372164Y570664D01*
X2349837Y585583D01*
X2323500Y590822D01*
D02*
G37*
G36*
X7731420Y451800D02*
X7632700D01*
Y333080D01*
X7657500D01*
X7685788Y338707D01*
X7709769Y354731D01*
X7725793Y378712D01*
X7731420Y407000D01*
Y451800D01*
D02*
G37*
G36*
X7607300D02*
X7508580D01*
Y407000D01*
X7514207Y378712D01*
X7530231Y354731D01*
X7554212Y338707D01*
X7582500Y333080D01*
X7607300D01*
Y451800D01*
D02*
G37*
G36*
X7477420D02*
X7378700D01*
Y333080D01*
X7403500D01*
X7431788Y338707D01*
X7455769Y354731D01*
X7471793Y378712D01*
X7477420Y407000D01*
Y451800D01*
D02*
G37*
G36*
X7353300D02*
X7254580D01*
Y407000D01*
X7260207Y378712D01*
X7276231Y354731D01*
X7300212Y338707D01*
X7328500Y333080D01*
X7353300D01*
Y451800D01*
D02*
G37*
G36*
X6207420D02*
X6108700D01*
Y333080D01*
X6133500D01*
X6161788Y338707D01*
X6185769Y354731D01*
X6201793Y378712D01*
X6207420Y407000D01*
Y451800D01*
D02*
G37*
G36*
X6083300D02*
X5984580D01*
Y407000D01*
X5990207Y378712D01*
X6006231Y354731D01*
X6030212Y338707D01*
X6058500Y333080D01*
X6083300D01*
Y451800D01*
D02*
G37*
G36*
X2143420D02*
X2044700D01*
Y333080D01*
X2069500D01*
X2097788Y338707D01*
X2121769Y354731D01*
X2137793Y378712D01*
X2143420Y407000D01*
Y451800D01*
D02*
G37*
G36*
X2019300D02*
X1920580D01*
Y407000D01*
X1926207Y378712D01*
X1942231Y354731D01*
X1966212Y338707D01*
X1994500Y333080D01*
X2019300D01*
Y451800D01*
D02*
G37*
G36*
X1535000Y486665D02*
X1425000D01*
X1391835Y480068D01*
X1363719Y461282D01*
X1344932Y433165D01*
X1338335Y400000D01*
Y290000D01*
X1344932Y256835D01*
X1363719Y228719D01*
X1391835Y209932D01*
X1425000Y203335D01*
X1535000D01*
X1568165Y209932D01*
X1596282Y228719D01*
X1615068Y256835D01*
X1621665Y290000D01*
Y400000D01*
X1615068Y433165D01*
X1596282Y461282D01*
X1568165Y480068D01*
X1535000Y486665D01*
D02*
G37*
G36*
X7657500Y301920D02*
X7632700D01*
Y183200D01*
X7731420D01*
Y228000D01*
X7725793Y256288D01*
X7709769Y280269D01*
X7685788Y296293D01*
X7657500Y301920D01*
D02*
G37*
G36*
X7607300D02*
X7582500D01*
X7554212Y296293D01*
X7530231Y280269D01*
X7514207Y256288D01*
X7508580Y228000D01*
Y183200D01*
X7607300D01*
Y301920D01*
D02*
G37*
G36*
X7403500D02*
X7378700D01*
Y183200D01*
X7477420D01*
Y228000D01*
X7471793Y256288D01*
X7455769Y280269D01*
X7431788Y296293D01*
X7403500Y301920D01*
D02*
G37*
G36*
X7353300D02*
X7328500D01*
X7300212Y296293D01*
X7276231Y280269D01*
X7260207Y256288D01*
X7254580Y228000D01*
Y183200D01*
X7353300D01*
Y301920D01*
D02*
G37*
G36*
X2069500D02*
X2044700D01*
Y183200D01*
X2143420D01*
Y228000D01*
X2137793Y256288D01*
X2121769Y280269D01*
X2097788Y296293D01*
X2069500Y301920D01*
D02*
G37*
G36*
X2019300D02*
X1994500D01*
X1966212Y296293D01*
X1942231Y280269D01*
X1926207Y256288D01*
X1920580Y228000D01*
Y183200D01*
X2019300D01*
Y301920D01*
D02*
G37*
%LPD*%
D90*
X1460500Y5143500D02*
D03*
D91*
X1480000Y345000D02*
D03*
D92*
Y695000D02*
D03*
D93*
X3540000Y860000D02*
D03*
X4019958Y920049D02*
D03*
X4080000Y1070000D02*
D03*
X4540000Y1000000D02*
D03*
X4091598Y945849D02*
D03*
X4199341Y869341D02*
D03*
X3750000Y800000D02*
D03*
X4717307Y899555D02*
D03*
X4888683Y3198019D02*
D03*
X4320000Y2770000D02*
D03*
X4780000Y3010000D02*
D03*
X6830000Y2770000D02*
D03*
X1380000Y1120000D02*
D03*
X1410000Y1370000D02*
D03*
X4415000Y2755000D02*
D03*
X6100000Y2790000D02*
D03*
X7889301Y1137694D02*
D03*
X7530000Y4590000D02*
D03*
X7248451Y4210232D02*
D03*
X3542445Y3860000D02*
D03*
X4177819Y3512330D02*
D03*
X4250504Y3461387D02*
D03*
X4450659Y3840659D02*
D03*
X4440000Y3970000D02*
D03*
X4460000Y4060000D02*
D03*
X4430000Y3750000D02*
D03*
X4959598Y3503168D02*
D03*
X4760167Y3578274D02*
D03*
X4857748Y3432721D02*
D03*
X4940000Y3400000D02*
D03*
X4936183Y3703817D02*
D03*
X7528431Y791568D02*
D03*
X7060000Y1560000D02*
D03*
Y1930000D02*
D03*
X4253595Y2895653D02*
D03*
X4090098Y2928585D02*
D03*
X2750000Y2460000D02*
D03*
X3438702Y1660022D02*
D03*
X4300000Y3040000D02*
D03*
X5070000Y3180000D02*
D03*
X6530000Y2310000D02*
D03*
X6320000Y2100000D02*
D03*
X3021664Y3349445D02*
D03*
X4200000Y4120000D02*
D03*
X7582500Y3638431D02*
D03*
Y3560000D02*
D03*
X7640000Y3100000D02*
D03*
X7194602Y1857811D02*
D03*
X7130000Y1800000D02*
D03*
X7180000Y1740000D02*
D03*
X5340000Y860000D02*
D03*
X4960000Y880000D02*
D03*
X4060000Y1630000D02*
D03*
X2295020Y2747532D02*
D03*
X2400000Y2680000D02*
D03*
X2390000Y2780000D02*
D03*
X3470000Y3400000D02*
D03*
X3110000Y4610000D02*
D03*
X5680000D02*
D03*
X5900000Y4160000D02*
D03*
X2160000Y1460000D02*
D03*
X2800000Y1480000D02*
D03*
X7200000Y4710000D02*
D03*
Y4400000D02*
D03*
X6992073Y4417746D02*
D03*
X7160000Y4210000D02*
D03*
X6930000Y4190000D02*
D03*
X7290000Y4570000D02*
D03*
Y4645000D02*
D03*
X7180000Y4830000D02*
D03*
X7680000Y2462500D02*
D03*
X6824877Y4085405D02*
D03*
X7310000Y3190000D02*
D03*
X7664046Y3857478D02*
D03*
X7423248Y3700072D02*
D03*
X7220000Y3830000D02*
D03*
X7368934Y3955000D02*
D03*
X7321460Y3760000D02*
D03*
X7409294Y3789233D02*
D03*
X7090000Y3080000D02*
D03*
X7320000Y3341432D02*
D03*
X6839381Y3418482D02*
D03*
X6770000Y3390000D02*
D03*
X6810000Y3250000D02*
D03*
X7300000Y3520000D02*
D03*
X7329038Y3599038D02*
D03*
X6920000Y3490000D02*
D03*
X7393527Y4071463D02*
D03*
X6893029Y3883548D02*
D03*
X6795832Y3565790D02*
D03*
X6810000Y3690000D02*
D03*
X7309341Y4081367D02*
D03*
X6710000Y4580000D02*
D03*
X6628683Y4581317D02*
D03*
X6792892Y4581097D02*
D03*
X4230000Y4602500D02*
D03*
X6110659Y4600659D02*
D03*
X5470000Y4600000D02*
D03*
X4000000Y4602500D02*
D03*
X6540012D02*
D03*
X7738396Y3847623D02*
D03*
X5594489Y3695511D02*
D03*
X5534110Y3623215D02*
D03*
X5620000Y3770000D02*
D03*
X5380000Y3100000D02*
D03*
X8224500Y755000D02*
D03*
Y475000D02*
D03*
X7904500D02*
D03*
Y755000D02*
D03*
X8224500Y4986000D02*
D03*
Y4706000D02*
D03*
X7904500D02*
D03*
Y4986000D02*
D03*
X7458486Y4529803D02*
D03*
X7800000Y4700000D02*
D03*
X7010000Y4750000D02*
D03*
X7152459Y3023777D02*
D03*
X7190000Y2850000D02*
D03*
X7730000Y4490000D02*
D03*
X8070000Y260000D02*
D03*
X6120000Y1960000D02*
D03*
X6130000Y2065000D02*
D03*
X6030000Y1040000D02*
D03*
X5900000Y1000000D02*
D03*
X5902500Y1500000D02*
D03*
Y1770000D02*
D03*
Y1681306D02*
D03*
X6000000Y960000D02*
D03*
X6140000Y860000D02*
D03*
X6070000Y790000D02*
D03*
X6770000Y1950000D02*
D03*
Y1850000D02*
D03*
Y1750000D02*
D03*
Y1650000D02*
D03*
Y1550000D02*
D03*
Y790000D02*
D03*
Y910000D02*
D03*
Y990000D02*
D03*
Y1090000D02*
D03*
Y1190000D02*
D03*
X6919342Y1500658D02*
D03*
X6730000Y610000D02*
D03*
X6919704Y1245676D02*
D03*
X6515758Y1253207D02*
D03*
X6530000Y2420000D02*
D03*
X2690072Y3495000D02*
D03*
X2772500Y3740000D02*
D03*
X2450000Y740000D02*
D03*
X1810000Y820000D02*
D03*
X2310000Y1075000D02*
D03*
X2597085Y810000D02*
D03*
X2710000Y950000D02*
D03*
X4520000Y620000D02*
D03*
X3302852Y2413636D02*
D03*
X3297210Y2135216D02*
D03*
X2540000Y2100000D02*
D03*
X2660000Y1830000D02*
D03*
X2750000Y2140000D02*
D03*
X2240000Y1898943D02*
D03*
X2130000Y1790000D02*
D03*
X1970000Y1600000D02*
D03*
X2670000Y620000D02*
D03*
X1760000Y1200000D02*
D03*
X1400000Y920000D02*
D03*
X1820000Y1280000D02*
D03*
X1390000Y1640000D02*
D03*
X2809904Y869806D02*
D03*
X1983392Y1222959D02*
D03*
X2440000Y620000D02*
D03*
X1420000Y1840000D02*
D03*
X1490000Y1410000D02*
D03*
X3172500Y3435000D02*
D03*
X7725255Y2269990D02*
D03*
X7728683Y2190000D02*
D03*
X7650000Y1940000D02*
D03*
X3550000Y2230000D02*
D03*
X7210000Y1120000D02*
D03*
X7189886Y1371546D02*
D03*
X7147613Y1433498D02*
D03*
X3410000Y780000D02*
D03*
X7754146Y1387500D02*
D03*
X7840000Y1510000D02*
D03*
X3060000Y4530000D02*
D03*
X7714497Y4115503D02*
D03*
X8007127Y1835937D02*
D03*
X3680000Y320000D02*
D03*
X4190000D02*
D03*
X6730000D02*
D03*
X6220000D02*
D03*
X4950000D02*
D03*
X4820000Y900000D02*
D03*
X5220000Y700000D02*
D03*
X5450000Y860000D02*
D03*
X5540000D02*
D03*
X5630000D02*
D03*
X5740000D02*
D03*
X5833349Y856652D02*
D03*
X2430000Y1760000D02*
D03*
X5700000Y1760000D02*
D03*
X4310625Y2310000D02*
D03*
X5312500Y2500000D02*
D03*
X5110000Y2130000D02*
D03*
X5409314Y2996103D02*
D03*
X2590000Y4620000D02*
D03*
X3560000Y2770000D02*
D03*
X3449341Y3689341D02*
D03*
X3720000Y3156916D02*
D03*
X7920000Y4500000D02*
D03*
X7590000Y4230000D02*
D03*
X7869341Y3630658D02*
D03*
X6420000Y2780000D02*
D03*
X6790000Y2310000D02*
D03*
X6125423Y2350275D02*
D03*
X5610000Y2040000D02*
D03*
X4731710Y2143472D02*
D03*
X3070000Y2390000D02*
D03*
X2769342Y2040663D02*
D03*
X3130000Y1170000D02*
D03*
X3280000Y1850000D02*
D03*
X2430000Y1630000D02*
D03*
X3660229Y857472D02*
D03*
X3790000Y1230000D02*
D03*
X3750434Y1306338D02*
D03*
X4878948Y2084181D02*
D03*
X5090000Y1820000D02*
D03*
X4670000Y1580000D02*
D03*
X4640000Y930000D02*
D03*
X5827091Y1237500D02*
D03*
X6575636Y1447653D02*
D03*
X6320000Y1300000D02*
D03*
X6660000Y3470000D02*
D03*
X7930000Y4280000D02*
D03*
X7691850Y4408150D02*
D03*
X5139606Y4700923D02*
D03*
X7522500Y3510000D02*
D03*
X4450000Y4290000D02*
D03*
X7530000Y2850000D02*
D03*
X7560000Y3435000D02*
D03*
X6730000Y3880000D02*
D03*
X7530000Y3060000D02*
D03*
X7350000Y3263302D02*
D03*
X7615265Y2845000D02*
D03*
X7700000D02*
D03*
X7200000Y2770000D02*
D03*
X7830000Y3990000D02*
D03*
X8100000Y2680000D02*
D03*
X7947678Y3690000D02*
D03*
X8561131Y4379489D02*
D03*
X8500000Y4130000D02*
D03*
X6820000Y3170000D02*
D03*
X7047500Y1090658D02*
D03*
X7120659Y2499341D02*
D03*
X3410000Y880000D02*
D03*
X4650239Y1021962D02*
D03*
X7070000Y2330000D02*
D03*
X7710806Y2623570D02*
D03*
X7687944Y2695000D02*
D03*
X7710715Y2548570D02*
D03*
X2430000Y3810000D02*
D03*
X2398709Y3902954D02*
D03*
X2500000Y2650000D02*
D03*
X2450000Y4700000D02*
D03*
X2350000D02*
D03*
X2250000D02*
D03*
X2150000D02*
D03*
X2050000D02*
D03*
X1950000D02*
D03*
X1850000D02*
D03*
Y4600000D02*
D03*
Y4500000D02*
D03*
Y4400000D02*
D03*
Y4300000D02*
D03*
Y4200000D02*
D03*
X2190000Y3800000D02*
D03*
X2200000Y3700000D02*
D03*
Y3600000D02*
D03*
X3159857Y3625738D02*
D03*
X2504246Y3914247D02*
D03*
X2502123Y4182123D02*
D03*
X2200000Y3500000D02*
D03*
X3180000Y4360000D02*
D03*
X2710000Y4180000D02*
D03*
X6746078Y3769460D02*
D03*
X6736236Y3630000D02*
D03*
X2400000Y4100000D02*
D03*
X2160000Y4090000D02*
D03*
X1850000Y4100000D02*
D03*
X2130000Y3990000D02*
D03*
X2180000Y3900000D02*
D03*
X2400000Y4000000D02*
D03*
X1950000Y4080000D02*
D03*
X2050000Y4050000D02*
D03*
X2200000Y3400000D02*
D03*
Y3300000D02*
D03*
Y3200000D02*
D03*
Y3100000D02*
D03*
Y3000000D02*
D03*
Y2900000D02*
D03*
Y2800000D02*
D03*
X6300000Y2340000D02*
D03*
X6225000Y1505000D02*
D03*
X6350000Y1530000D02*
D03*
X7060000Y1277400D02*
D03*
X6540000Y3610000D02*
D03*
X6810000Y3950000D02*
D03*
X5620000Y1310000D02*
D03*
X6540000Y2960000D02*
D03*
X5847500Y3281251D02*
D03*
X6420002Y2990002D02*
D03*
X6570000Y2840000D02*
D03*
X6320000Y3020000D02*
D03*
X6050000Y4240000D02*
D03*
X5307936Y3521386D02*
D03*
X5612500Y2320000D02*
D03*
X5528224Y1819925D02*
D03*
X5850000Y2680000D02*
D03*
X5310000Y2320000D02*
D03*
X5290000Y3390000D02*
D03*
X5170000Y3510000D02*
D03*
X7000000Y2690000D02*
D03*
X7070000Y2620000D02*
D03*
X6200000Y700000D02*
D03*
X6999895Y614807D02*
D03*
X4890000Y2220000D02*
D03*
X4283724Y1969697D02*
D03*
X3279307Y2030000D02*
D03*
X3334999Y2200000D02*
D03*
X3406530Y2222547D02*
D03*
X5080000Y2480000D02*
D03*
X4230625Y2590000D02*
D03*
X3598750Y2591250D02*
D03*
X3920000Y2230000D02*
D03*
X6250000Y2630000D02*
D03*
X3101353Y3020000D02*
D03*
X3320000Y2920000D02*
D03*
X3740000Y2960000D02*
D03*
X3900000Y1720000D02*
D03*
X4390000Y1920000D02*
D03*
X4020000Y2370459D02*
D03*
X4850000Y1560000D02*
D03*
X7649985Y2299995D02*
D03*
X6177130Y2982870D02*
D03*
X3006652Y4826652D02*
D03*
X4030000Y2460000D02*
D03*
X4560000Y2390000D02*
D03*
X4480000Y2450000D02*
D03*
X4627500Y2507500D02*
D03*
X6480000Y600000D02*
D03*
X4092500Y3090000D02*
D03*
X3862500Y2780000D02*
D03*
X1650000Y4670000D02*
D03*
X2700000Y4100000D02*
D03*
X3560000Y3600000D02*
D03*
X2982500Y4370000D02*
D03*
X2950000Y3170000D02*
D03*
X7130000Y2220000D02*
D03*
X7720000Y1880000D02*
D03*
X7659985Y1129998D02*
D03*
X7169986Y2619995D02*
D03*
X7205153Y2243440D02*
D03*
X7689985Y1249997D02*
D03*
X7660000Y1570000D02*
D03*
X7209986Y1499997D02*
D03*
X3310000Y4610000D02*
D03*
X3560000Y4530000D02*
D03*
X3870000Y4602500D02*
D03*
X5140000Y870000D02*
D03*
X7250000Y1660000D02*
D03*
X7189986Y2449995D02*
D03*
X7229986Y2039996D02*
D03*
X7659985Y2129996D02*
D03*
X7687327Y1726203D02*
D03*
X7300000Y910000D02*
D03*
X7659985Y1009998D02*
D03*
X7870000Y1320000D02*
D03*
X7280000Y1307500D02*
D03*
X3330000Y3180000D02*
D03*
X4420000Y3340000D02*
D03*
X4420000Y3660000D02*
D03*
X3330000Y4097503D02*
D03*
X3280000Y4350000D02*
D03*
X3730000Y3500000D02*
D03*
X2980000Y3840000D02*
D03*
X3380000Y4340000D02*
D03*
X3660000Y4380000D02*
D03*
X4480000Y3460000D02*
D03*
X3260000Y3290000D02*
D03*
X3080000Y3740000D02*
D03*
X1320000Y4670000D02*
D03*
X6120000Y2570000D02*
D03*
X4650000Y3420000D02*
D03*
X7649985Y1449997D02*
D03*
X7945208Y5287588D02*
D03*
X2650000Y3970000D02*
D03*
X3200000Y4610000D02*
D03*
X4434292Y4747500D02*
D03*
X3040000Y900000D02*
D03*
X4811250Y4830000D02*
D03*
X2508228Y4323171D02*
D03*
X4590000Y4210000D02*
D03*
X2640000Y4530000D02*
D03*
X3077354Y2569391D02*
D03*
X2062644Y1591929D02*
D03*
X5590000Y4830000D02*
D03*
X4340000D02*
D03*
X3870000D02*
D03*
X3540000D02*
D03*
X3310000D02*
D03*
X3640000Y4510000D02*
D03*
X5160000Y4830000D02*
D03*
X4770000Y4210000D02*
D03*
X5440000Y1002500D02*
D03*
X5030000Y970000D02*
D03*
X5580000Y620000D02*
D03*
X2119640Y2050360D02*
D03*
X2300573Y2211071D02*
D03*
X7800000Y5340000D02*
D03*
X7502500Y1252366D02*
D03*
X7181317Y2108683D02*
D03*
X7200000Y1000000D02*
D03*
X4249991Y3359993D02*
D03*
X4160000Y3930000D02*
D03*
X7720000Y1800000D02*
D03*
X7719985Y1069998D02*
D03*
X7630000Y930000D02*
D03*
X5286249Y3033751D02*
D03*
X5280000Y2950000D02*
D03*
X4829990Y3789992D02*
D03*
X3600000Y3370000D02*
D03*
X2727310Y3290000D02*
D03*
X4453075Y4211807D02*
D03*
X4960000Y4210000D02*
D03*
X5310000Y3640000D02*
D03*
X7850000Y150000D02*
D03*
X1850000Y1820000D02*
D03*
X2400000Y2440000D02*
D03*
X2630000Y2430000D02*
D03*
X4240000Y700000D02*
D03*
X4320000Y3130000D02*
D03*
X4840000Y3085003D02*
D03*
X5060000Y2980003D02*
D03*
X4880000Y2770000D02*
D03*
X4690000Y700000D02*
D03*
X3740000D02*
D03*
X4800000Y2680000D02*
D03*
X2890000Y3010000D02*
D03*
X5250000Y3820000D02*
D03*
D94*
X1640484Y5323500D02*
D03*
X1640988Y4963500D02*
D03*
X1280500D02*
D03*
Y5323500D02*
D03*
D95*
X2350000Y1370000D02*
D03*
X2770000D02*
D03*
D96*
X8108000Y2476800D02*
D03*
Y2222800D02*
D03*
Y1968800D02*
D03*
Y1714800D02*
D03*
Y1460800D02*
D03*
Y1206800D02*
D03*
Y952800D02*
D03*
X8402000Y2476800D02*
D03*
Y2222800D02*
D03*
Y1968800D02*
D03*
Y1714800D02*
D03*
Y1460800D02*
D03*
Y1206800D02*
D03*
Y952800D02*
D03*
X8108000Y4508800D02*
D03*
Y4254800D02*
D03*
Y4000800D02*
D03*
Y3746800D02*
D03*
Y3492800D02*
D03*
Y3238800D02*
D03*
Y2984800D02*
D03*
X8402000Y4508800D02*
D03*
Y4254800D02*
D03*
Y4000800D02*
D03*
Y3746800D02*
D03*
Y3492800D02*
D03*
Y3238800D02*
D03*
Y2984800D02*
D03*
D97*
X7620000Y464500D02*
D03*
X7366000D02*
D03*
X7112000D02*
D03*
X6858000D02*
D03*
X6604000D02*
D03*
X6350000D02*
D03*
X6096000D02*
D03*
X5842000D02*
D03*
X5588000D02*
D03*
X5334000D02*
D03*
X5080000D02*
D03*
X4826000D02*
D03*
X4572000D02*
D03*
X4318000D02*
D03*
X4064000D02*
D03*
X3810000D02*
D03*
X3556000D02*
D03*
X3302000D02*
D03*
X3048000D02*
D03*
X2794000D02*
D03*
X2540000D02*
D03*
X2286000D02*
D03*
X2032000D02*
D03*
X7620000Y170500D02*
D03*
X7366000D02*
D03*
X7112000D02*
D03*
X6858000D02*
D03*
X6604000D02*
D03*
X6350000D02*
D03*
X6096000D02*
D03*
X5842000D02*
D03*
X5588000D02*
D03*
X5334000D02*
D03*
X5080000D02*
D03*
X4826000D02*
D03*
X4572000D02*
D03*
X4318000D02*
D03*
X4064000D02*
D03*
X3810000D02*
D03*
X3556000D02*
D03*
X3302000D02*
D03*
X3048000D02*
D03*
X2794000D02*
D03*
X2540000D02*
D03*
X2286000D02*
D03*
X2032000D02*
D03*
X7620000Y5290500D02*
D03*
X7366000D02*
D03*
X7112000D02*
D03*
X6858000D02*
D03*
X6604000D02*
D03*
X6350000D02*
D03*
X6096000D02*
D03*
X5842000D02*
D03*
X5588000D02*
D03*
X5334000D02*
D03*
X5080000D02*
D03*
X4826000D02*
D03*
X4572000D02*
D03*
X4318000D02*
D03*
X4064000D02*
D03*
X3810000D02*
D03*
X3556000D02*
D03*
X3302000D02*
D03*
X3048000D02*
D03*
X2794000D02*
D03*
X2540000D02*
D03*
X2286000D02*
D03*
X2032000D02*
D03*
X7620000Y4996500D02*
D03*
X7366000D02*
D03*
X7112000D02*
D03*
X6858000D02*
D03*
X6604000D02*
D03*
X6350000D02*
D03*
X6096000D02*
D03*
X5842000D02*
D03*
X5588000D02*
D03*
X5334000D02*
D03*
X5080000D02*
D03*
X4826000D02*
D03*
X4572000D02*
D03*
X4318000D02*
D03*
X4064000D02*
D03*
X3810000D02*
D03*
X3556000D02*
D03*
X3302000D02*
D03*
X3048000D02*
D03*
X2794000D02*
D03*
X2540000D02*
D03*
X2286000D02*
D03*
X2032000D02*
D03*
Y4532400D02*
D03*
X2286000D02*
D03*
X2032000Y4238400D02*
D03*
X2286000D02*
D03*
D98*
X8064500Y615000D02*
D03*
Y4846000D02*
D03*
%TF.MD5,8eee453882e1a832a8780b920f498147*%
M02*
