%TF.GenerationSoftware,Altium Limited,Altium Designer,21.2.2 (38)*%
G04 Layer_Color=128*
%FSLAX45Y45*%
%MOMM*%
%TF.SameCoordinates,D1C1B47B-FFDC-44FD-B647-F1046EBF8E97*%
%TF.FilePolarity,Positive*%
%TF.FileFunction,Drillmap*%
%TF.Part,Single*%
G01*
G75*
%TA.AperFunction,NonConductor*%
%ADD226C,0.12700*%
D226*
X1977000Y190500D02*
X2087000D01*
X2032000Y135500D02*
Y245500D01*
X2231000Y190500D02*
X2341000D01*
X2286000Y135500D02*
Y245500D01*
X2485000Y190500D02*
X2595000D01*
X2540000Y135500D02*
Y245500D01*
X2739000Y190500D02*
X2849000D01*
X2794000Y135500D02*
Y245500D01*
X2993000Y190500D02*
X3103000D01*
X3048000Y135500D02*
Y245500D01*
X3247000Y190500D02*
X3357000D01*
X3302000Y135500D02*
Y245500D01*
X3501000Y190500D02*
X3611000D01*
X3556000Y135500D02*
Y245500D01*
X3755000Y190500D02*
X3865000D01*
X3810000Y135500D02*
Y245500D01*
X4009000Y190500D02*
X4119000D01*
X4064000Y135500D02*
Y245500D01*
X4263000Y190500D02*
X4373000D01*
X4318000Y135500D02*
Y245500D01*
X4517000Y190500D02*
X4627000D01*
X4572000Y135500D02*
Y245500D01*
X4771000Y190500D02*
X4881000D01*
X4826000Y135500D02*
Y245500D01*
X5025000Y190500D02*
X5135000D01*
X5080000Y135500D02*
Y245500D01*
X5279000Y190500D02*
X5389000D01*
X5334000Y135500D02*
Y245500D01*
X5533000Y190500D02*
X5643000D01*
X5588000Y135500D02*
Y245500D01*
X5787000Y190500D02*
X5897000D01*
X5842000Y135500D02*
Y245500D01*
X6041000Y190500D02*
X6151000D01*
X6096000Y135500D02*
Y245500D01*
X6295000Y190500D02*
X6405000D01*
X6350000Y135500D02*
Y245500D01*
X6549000Y190500D02*
X6659000D01*
X6604000Y135500D02*
Y245500D01*
X6803000Y190500D02*
X6913000D01*
X6858000Y135500D02*
Y245500D01*
X7057000Y190500D02*
X7167000D01*
X7112000Y135500D02*
Y245500D01*
X7311000Y190500D02*
X7421000D01*
X7366000Y135500D02*
Y245500D01*
X7565000Y190500D02*
X7675000D01*
X7620000Y135500D02*
Y245500D01*
X1977000Y444500D02*
X2087000D01*
X2032000Y389500D02*
Y499500D01*
X2231000Y444500D02*
X2341000D01*
X2286000Y389500D02*
Y499500D01*
X2485000Y444500D02*
X2595000D01*
X2540000Y389500D02*
Y499500D01*
X2739000Y444500D02*
X2849000D01*
X2794000Y389500D02*
Y499500D01*
X2993000Y444500D02*
X3103000D01*
X3048000Y389500D02*
Y499500D01*
X3247000Y444500D02*
X3357000D01*
X3302000Y389500D02*
Y499500D01*
X3501000Y444500D02*
X3611000D01*
X3556000Y389500D02*
Y499500D01*
X3755000Y444500D02*
X3865000D01*
X3810000Y389500D02*
Y499500D01*
X4009000Y444500D02*
X4119000D01*
X4064000Y389500D02*
Y499500D01*
X4263000Y444500D02*
X4373000D01*
X4318000Y389500D02*
Y499500D01*
X4517000Y444500D02*
X4627000D01*
X4572000Y389500D02*
Y499500D01*
X4771000Y444500D02*
X4881000D01*
X4826000Y389500D02*
Y499500D01*
X5025000Y444500D02*
X5135000D01*
X5080000Y389500D02*
Y499500D01*
X5279000Y444500D02*
X5389000D01*
X5334000Y389500D02*
Y499500D01*
X5533000Y444500D02*
X5643000D01*
X5588000Y389500D02*
Y499500D01*
X5787000Y444500D02*
X5897000D01*
X5842000Y389500D02*
Y499500D01*
X6041000Y444500D02*
X6151000D01*
X6096000Y389500D02*
Y499500D01*
X6295000Y444500D02*
X6405000D01*
X6350000Y389500D02*
Y499500D01*
X6549000Y444500D02*
X6659000D01*
X6604000Y389500D02*
Y499500D01*
X6803000Y444500D02*
X6913000D01*
X6858000Y389500D02*
Y499500D01*
X7057000Y444500D02*
X7167000D01*
X7112000Y389500D02*
Y499500D01*
X7311000Y444500D02*
X7421000D01*
X7366000Y389500D02*
Y499500D01*
X7565000Y444500D02*
X7675000D01*
X7620000Y389500D02*
Y499500D01*
X1977000Y5016500D02*
X2087000D01*
X2032000Y4961500D02*
Y5071500D01*
X2231000Y5016500D02*
X2341000D01*
X2286000Y4961500D02*
Y5071500D01*
X2485000Y5016500D02*
X2595000D01*
X2540000Y4961500D02*
Y5071500D01*
X2739000Y5016500D02*
X2849000D01*
X2794000Y4961500D02*
Y5071500D01*
X2993000Y5016500D02*
X3103000D01*
X3048000Y4961500D02*
Y5071500D01*
X3247000Y5016500D02*
X3357000D01*
X3302000Y4961500D02*
Y5071500D01*
X3501000Y5016500D02*
X3611000D01*
X3556000Y4961500D02*
Y5071500D01*
X3755000Y5016500D02*
X3865000D01*
X3810000Y4961500D02*
Y5071500D01*
X4009000Y5016500D02*
X4119000D01*
X4064000Y4961500D02*
Y5071500D01*
X4263000Y5016500D02*
X4373000D01*
X4318000Y4961500D02*
Y5071500D01*
X4517000Y5016500D02*
X4627000D01*
X4572000Y4961500D02*
Y5071500D01*
X4771000Y5016500D02*
X4881000D01*
X4826000Y4961500D02*
Y5071500D01*
X5025000Y5016500D02*
X5135000D01*
X5080000Y4961500D02*
Y5071500D01*
X5279000Y5016500D02*
X5389000D01*
X5334000Y4961500D02*
Y5071500D01*
X5533000Y5016500D02*
X5643000D01*
X5588000Y4961500D02*
Y5071500D01*
X5787000Y5016500D02*
X5897000D01*
X5842000Y4961500D02*
Y5071500D01*
X6041000Y5016500D02*
X6151000D01*
X6096000Y4961500D02*
Y5071500D01*
X6295000Y5016500D02*
X6405000D01*
X6350000Y4961500D02*
Y5071500D01*
X6549000Y5016500D02*
X6659000D01*
X6604000Y4961500D02*
Y5071500D01*
X6803000Y5016500D02*
X6913000D01*
X6858000Y4961500D02*
Y5071500D01*
X7057000Y5016500D02*
X7167000D01*
X7112000Y4961500D02*
Y5071500D01*
X7311000Y5016500D02*
X7421000D01*
X7366000Y4961500D02*
Y5071500D01*
X7565000Y5016500D02*
X7675000D01*
X7620000Y4961500D02*
Y5071500D01*
X1977000Y5270500D02*
X2087000D01*
X2032000Y5215500D02*
Y5325500D01*
X2231000Y5270500D02*
X2341000D01*
X2286000Y5215500D02*
Y5325500D01*
X2485000Y5270500D02*
X2595000D01*
X2540000Y5215500D02*
Y5325500D01*
X2739000Y5270500D02*
X2849000D01*
X2794000Y5215500D02*
Y5325500D01*
X2993000Y5270500D02*
X3103000D01*
X3048000Y5215500D02*
Y5325500D01*
X3247000Y5270500D02*
X3357000D01*
X3302000Y5215500D02*
Y5325500D01*
X3501000Y5270500D02*
X3611000D01*
X3556000Y5215500D02*
Y5325500D01*
X3755000Y5270500D02*
X3865000D01*
X3810000Y5215500D02*
Y5325500D01*
X4009000Y5270500D02*
X4119000D01*
X4064000Y5215500D02*
Y5325500D01*
X4263000Y5270500D02*
X4373000D01*
X4318000Y5215500D02*
Y5325500D01*
X4517000Y5270500D02*
X4627000D01*
X4572000Y5215500D02*
Y5325500D01*
X4771000Y5270500D02*
X4881000D01*
X4826000Y5215500D02*
Y5325500D01*
X5025000Y5270500D02*
X5135000D01*
X5080000Y5215500D02*
Y5325500D01*
X5279000Y5270500D02*
X5389000D01*
X5334000Y5215500D02*
Y5325500D01*
X5533000Y5270500D02*
X5643000D01*
X5588000Y5215500D02*
Y5325500D01*
X5787000Y5270500D02*
X5897000D01*
X5842000Y5215500D02*
Y5325500D01*
X6041000Y5270500D02*
X6151000D01*
X6096000Y5215500D02*
Y5325500D01*
X6295000Y5270500D02*
X6405000D01*
X6350000Y5215500D02*
Y5325500D01*
X6549000Y5270500D02*
X6659000D01*
X6604000Y5215500D02*
Y5325500D01*
X6803000Y5270500D02*
X6913000D01*
X6858000Y5215500D02*
Y5325500D01*
X7057000Y5270500D02*
X7167000D01*
X7112000Y5215500D02*
Y5325500D01*
X7311000Y5270500D02*
X7421000D01*
X7366000Y5215500D02*
Y5325500D01*
X7565000Y5270500D02*
X7675000D01*
X7620000Y5215500D02*
Y5325500D01*
X8327000Y952800D02*
X8437000D01*
X8382000Y897800D02*
Y1007800D01*
X8327000Y1206800D02*
X8437000D01*
X8382000Y1151800D02*
Y1261800D01*
X8327000Y1460800D02*
X8437000D01*
X8382000Y1405800D02*
Y1515800D01*
X8327000Y1714800D02*
X8437000D01*
X8382000Y1659800D02*
Y1769800D01*
X8327000Y1968800D02*
X8437000D01*
X8382000Y1913800D02*
Y2023800D01*
X8327000Y2222800D02*
X8437000D01*
X8382000Y2167800D02*
Y2277800D01*
X8327000Y2476800D02*
X8437000D01*
X8382000Y2421800D02*
Y2531800D01*
X8073000Y952800D02*
X8183000D01*
X8128000Y897800D02*
Y1007800D01*
X8073000Y1206800D02*
X8183000D01*
X8128000Y1151800D02*
Y1261800D01*
X8073000Y1460800D02*
X8183000D01*
X8128000Y1405800D02*
Y1515800D01*
X8073000Y1714800D02*
X8183000D01*
X8128000Y1659800D02*
Y1769800D01*
X8073000Y1968800D02*
X8183000D01*
X8128000Y1913800D02*
Y2023800D01*
X8073000Y2222800D02*
X8183000D01*
X8128000Y2167800D02*
Y2277800D01*
X8073000Y2476800D02*
X8183000D01*
X8128000Y2421800D02*
Y2531800D01*
X8073000Y4508800D02*
X8183000D01*
X8128000Y4453800D02*
Y4563800D01*
X8073000Y4254800D02*
X8183000D01*
X8128000Y4199800D02*
Y4309800D01*
X8073000Y4000800D02*
X8183000D01*
X8128000Y3945800D02*
Y4055800D01*
X8073000Y3746800D02*
X8183000D01*
X8128000Y3691800D02*
Y3801800D01*
X8073000Y3492800D02*
X8183000D01*
X8128000Y3437800D02*
Y3547800D01*
X8073000Y3238800D02*
X8183000D01*
X8128000Y3183800D02*
Y3293800D01*
X8073000Y2984800D02*
X8183000D01*
X8128000Y2929800D02*
Y3039800D01*
X8327000Y4508800D02*
X8437000D01*
X8382000Y4453800D02*
Y4563800D01*
X8327000Y4254800D02*
X8437000D01*
X8382000Y4199800D02*
Y4309800D01*
X8327000Y4000800D02*
X8437000D01*
X8382000Y3945800D02*
Y4055800D01*
X8327000Y3746800D02*
X8437000D01*
X8382000Y3691800D02*
Y3801800D01*
X8327000Y3492800D02*
X8437000D01*
X8382000Y3437800D02*
Y3547800D01*
X8327000Y3238800D02*
X8437000D01*
X8382000Y3183800D02*
Y3293800D01*
X8327000Y2984800D02*
X8437000D01*
X8382000Y2929800D02*
Y3039800D01*
X2231000Y4258400D02*
X2341000D01*
X2286000Y4203400D02*
Y4313400D01*
X1977000Y4258400D02*
X2087000D01*
X2032000Y4203400D02*
Y4313400D01*
X2231000Y4512400D02*
X2341000D01*
X2286000Y4457400D02*
Y4567400D01*
X1977000Y4512400D02*
X2087000D01*
X2032000Y4457400D02*
Y4567400D01*
X7904500Y615000D02*
X8224500D01*
X8064500Y455000D02*
Y775000D01*
X7904500Y4846000D02*
X8224500D01*
X8064500Y4686000D02*
Y5006000D01*
X1300500Y5143500D02*
X1620500D01*
X1460500Y4983500D02*
Y5303500D01*
X1420000Y345000D02*
X1540000D01*
X1480000Y285000D02*
Y405000D01*
X1420000Y695000D02*
X1540000D01*
X1480000Y635000D02*
Y755000D01*
X7127500Y1810000D02*
X7152500D01*
X7140000Y1797500D02*
Y1822500D01*
X7167500Y1740000D02*
X7192500D01*
X7180000Y1727500D02*
Y1752500D01*
X5897500Y1770000D02*
X5922500D01*
X5910000Y1757500D02*
Y1782500D01*
X7712755Y2269990D02*
X7737754D01*
X7725255Y2257490D02*
Y2282490D01*
X7716183Y2190000D02*
X7741183D01*
X7728683Y2177500D02*
Y2202500D01*
X7637500Y1940000D02*
X7662500D01*
X7650000Y1927500D02*
Y1952500D01*
X3537500Y2230000D02*
X3562500D01*
X3550000Y2217500D02*
Y2242500D01*
X7197500Y1120000D02*
X7222500D01*
X7210000Y1107500D02*
Y1132500D01*
X7177386Y1371546D02*
X7202386D01*
X7189886Y1359047D02*
Y1384046D01*
X7135113Y1433498D02*
X7160113D01*
X7147613Y1420998D02*
Y1445998D01*
X4226071Y3460097D02*
X4251070D01*
X4238570Y3447597D02*
Y3472597D01*
X3397500Y780000D02*
X3422500D01*
X3410000Y767500D02*
Y792500D01*
X7741646Y1387500D02*
X7766645D01*
X7754146Y1375000D02*
Y1400000D01*
X7827500Y1510000D02*
X7852500D01*
X7840000Y1497500D02*
Y1522500D01*
X3047500Y4530000D02*
X3072500D01*
X3060000Y4517500D02*
Y4542500D01*
X6810575Y1292754D02*
X6835575D01*
X6823075Y1280254D02*
Y1305254D01*
X6747500Y1450000D02*
X6772500D01*
X6760000Y1437500D02*
Y1462500D01*
X6627500Y1000000D02*
X6652500D01*
X6640000Y987500D02*
Y1012500D01*
X6627500Y1190000D02*
X6652500D01*
X6640000Y1177500D02*
Y1202500D01*
X6629660Y907841D02*
X6654659D01*
X6642159Y895341D02*
Y920341D01*
X6627500Y1090000D02*
X6652500D01*
X6640000Y1077500D02*
Y1102500D01*
X6877204Y1245676D02*
X6902204D01*
X6889704Y1233176D02*
Y1258176D01*
X6880148Y1498023D02*
X6905147D01*
X6892648Y1485523D02*
Y1510523D01*
X7701998Y4115503D02*
X7726997D01*
X7714497Y4103003D02*
Y4128002D01*
X7317395Y3794343D02*
X7342394D01*
X7329894Y3781844D02*
Y3806843D01*
X7391683Y3811452D02*
X7416683D01*
X7404183Y3798952D02*
Y3823952D01*
X7143897Y3059839D02*
X7168897D01*
X7156397Y3047340D02*
Y3072339D01*
X5898038Y1681306D02*
X5923038D01*
X5910538Y1668806D02*
Y1693806D01*
X7287500Y3560000D02*
X7312500D01*
X7300000Y3547500D02*
Y3572500D01*
X5587500Y3690000D02*
X5612500D01*
X5600000Y3677500D02*
Y3702500D01*
X5607500Y3770000D02*
X5632500D01*
X5620000Y3757500D02*
Y3782500D01*
X6467500Y2380000D02*
X6492500D01*
X6480000Y2367500D02*
Y2392500D01*
X3007500Y740000D02*
X3032500D01*
X3020000Y727500D02*
Y752500D01*
X5538853Y3613196D02*
X5563853D01*
X5551353Y3600697D02*
Y3625696D01*
X8187500Y350000D02*
X8212500D01*
X8200000Y337500D02*
Y362500D01*
X7994627Y1835937D02*
X8019627D01*
X8007127Y1823437D02*
Y1848437D01*
X7057500Y4155000D02*
X7082500D01*
X7070000Y4142500D02*
Y4167500D01*
X7057500Y3965000D02*
X7082500D01*
X7070000Y3952500D02*
Y3977500D01*
X3667500Y320000D02*
X3692500D01*
X3680000Y307500D02*
Y332500D01*
X4177500Y320000D02*
X4202500D01*
X4190000Y307500D02*
Y332500D01*
X6717500Y320000D02*
X6742500D01*
X6730000Y307500D02*
Y332500D01*
X6207500Y320000D02*
X6232500D01*
X6220000Y307500D02*
Y332500D01*
X4937500Y320000D02*
X4962500D01*
X4950000Y307500D02*
Y332500D01*
X4807500Y900000D02*
X4832500D01*
X4820000Y887500D02*
Y912500D01*
X5207500Y700000D02*
X5232500D01*
X5220000Y687500D02*
Y712500D01*
X5338158Y849341D02*
X5363158D01*
X5350658Y836842D02*
Y861841D01*
X5437500Y860000D02*
X5462500D01*
X5450000Y847500D02*
Y872500D01*
X5527500Y860000D02*
X5552500D01*
X5540000Y847500D02*
Y872500D01*
X5617500Y860000D02*
X5642500D01*
X5630000Y847500D02*
Y872500D01*
X5727500Y860000D02*
X5752500D01*
X5740000Y847500D02*
Y872500D01*
X5820849Y856652D02*
X5845848D01*
X5833349Y844152D02*
Y869152D01*
X5017500Y875000D02*
X5042500D01*
X5030000Y862500D02*
Y887500D01*
X2647500Y1830000D02*
X2672500D01*
X2660000Y1817500D02*
Y1842500D01*
X2417500Y1760000D02*
X2442500D01*
X2430000Y1747500D02*
Y1772500D01*
X5887500Y1000000D02*
X5912500D01*
X5900000Y987500D02*
Y1012500D01*
X6155000Y860000D02*
X6180000D01*
X6167500Y847500D02*
Y872500D01*
X6027500Y960000D02*
X6052500D01*
X6040000Y947500D02*
Y972500D01*
X6027500Y1050000D02*
X6052500D01*
X6040000Y1037500D02*
Y1062500D01*
X5687500Y1760000D02*
X5712500D01*
X5700000Y1747500D02*
Y1772500D01*
X2167500Y1460000D02*
X2192500D01*
X2180000Y1447500D02*
Y1472500D01*
X4298126Y2310000D02*
X4323125D01*
X4310625Y2297500D02*
Y2322500D01*
X5300000Y2500000D02*
X5325000D01*
X5312500Y2487500D02*
Y2512500D01*
X5097500Y2130000D02*
X5122500D01*
X5110000Y2117500D02*
Y2142500D01*
X5396814Y2996103D02*
X5421813D01*
X5409314Y2983603D02*
Y3008603D01*
X2577500Y4620000D02*
X2602500D01*
X2590000Y4607500D02*
Y4632500D01*
X3547500Y2770000D02*
X3572500D01*
X3560000Y2757500D02*
Y2782500D01*
X3436841Y3689341D02*
X3461841D01*
X3449341Y3676842D02*
Y3701841D01*
X3707500Y3156916D02*
X3732500D01*
X3720000Y3144416D02*
Y3169416D01*
X7907500Y4500000D02*
X7932500D01*
X7920000Y4487500D02*
Y4512500D01*
X7577500Y4230000D02*
X7602500D01*
X7590000Y4217500D02*
Y4242500D01*
X7256842Y4209342D02*
X7281841D01*
X7269342Y4196842D02*
Y4221841D01*
X7137500Y4280000D02*
X7162500D01*
X7150000Y4267500D02*
Y4292500D01*
X6723205Y619217D02*
X6748204D01*
X6735705Y606718D02*
Y631717D01*
X7587500Y3560000D02*
X7612500D01*
X7600000Y3547500D02*
Y3572500D01*
X7587500Y3640000D02*
X7612500D01*
X7600000Y3627500D02*
Y3652500D01*
X7856842Y3630658D02*
X7881841D01*
X7869341Y3618159D02*
Y3643158D01*
X6417500Y2780000D02*
X6442500D01*
X6430000Y2767500D02*
Y2792500D01*
X6777500Y2310000D02*
X6802500D01*
X6790000Y2297500D02*
Y2322500D01*
X6326734Y2108209D02*
X6351734D01*
X6339234Y2095709D02*
Y2120708D01*
X6132923Y2350275D02*
X6157923D01*
X6145423Y2337775D02*
Y2362775D01*
X6527500Y2310000D02*
X6552500D01*
X6540000Y2297500D02*
Y2322500D01*
X5597500Y2040000D02*
X5622500D01*
X5610000Y2027500D02*
Y2052500D01*
X4719210Y2143472D02*
X4744210D01*
X4731710Y2130972D02*
Y2155972D01*
X4007500Y1640000D02*
X4032500D01*
X4020000Y1627500D02*
Y1652500D01*
X2745048Y2453884D02*
X2770048D01*
X2757548Y2441384D02*
Y2466384D01*
X3057500Y2390000D02*
X3082500D01*
X3070000Y2377500D02*
Y2402500D01*
X2756842Y2040663D02*
X2781842D01*
X2769342Y2028163D02*
Y2053163D01*
X3117500Y1170000D02*
X3142500D01*
X3130000Y1157500D02*
Y1182500D01*
X3267500Y1850000D02*
X3292500D01*
X3280000Y1837500D02*
Y1862500D01*
X2417500Y1630000D02*
X2442500D01*
X2430000Y1617500D02*
Y1642500D01*
X1807500Y1280000D02*
X1832500D01*
X1820000Y1267500D02*
Y1292500D01*
X3647729Y857472D02*
X3672729D01*
X3660229Y844972D02*
Y869972D01*
X3777500Y1230000D02*
X3802500D01*
X3790000Y1217500D02*
Y1242500D01*
X3737934Y1306338D02*
X3762934D01*
X3750434Y1293838D02*
Y1318838D01*
X4066661Y1060608D02*
X4091661D01*
X4079161Y1048109D02*
Y1073108D01*
X4007458Y920049D02*
X4032458D01*
X4019958Y907549D02*
Y932549D01*
X4866448Y2084181D02*
X4891448D01*
X4878948Y2071681D02*
Y2096681D01*
X5077500Y1820000D02*
X5102500D01*
X5090000Y1807500D02*
Y1832500D01*
X4657500Y1580000D02*
X4682500D01*
X4670000Y1567500D02*
Y1592500D01*
X4627500Y930000D02*
X4652500D01*
X4640000Y917500D02*
Y942500D01*
X5814591Y1237500D02*
X5839591D01*
X5827091Y1225000D02*
Y1250000D01*
X6583136Y1447653D02*
X6608136D01*
X6595636Y1435154D02*
Y1460153D01*
X5897500Y1500000D02*
X5922500D01*
X5910000Y1487500D02*
Y1512500D01*
X6327500Y1300000D02*
X6352500D01*
X6340000Y1287500D02*
Y1312500D01*
X7876802Y1137694D02*
X7901801D01*
X7889301Y1125194D02*
Y1150194D01*
X6647500Y3510000D02*
X6672500D01*
X6660000Y3497500D02*
Y3522500D01*
X7917500Y4280000D02*
X7942500D01*
X7930000Y4267500D02*
Y4292500D01*
X7679350Y4408150D02*
X7704350D01*
X7691850Y4395650D02*
Y4420650D01*
X7537500Y4455265D02*
X7562500D01*
X7550000Y4442765D02*
Y4467764D01*
X7017500Y4590000D02*
X7042500D01*
X7030000Y4577500D02*
Y4602500D01*
X5127106Y4700923D02*
X5152106D01*
X5139606Y4688423D02*
Y4713423D01*
X7510000Y3510000D02*
X7535000D01*
X7522500Y3497500D02*
Y3522500D01*
X4437500Y4290000D02*
X4462500D01*
X4450000Y4277500D02*
Y4302500D01*
X6137500Y2055000D02*
X6162500D01*
X6150000Y2042500D02*
Y2067500D01*
X4165000Y3515000D02*
X4190000D01*
X4177500Y3502500D02*
Y3527500D01*
X7517500Y2850000D02*
X7542500D01*
X7530000Y2837500D02*
Y2862500D01*
X2437500Y870000D02*
X2462500D01*
X2450000Y857500D02*
Y882500D01*
X7547500Y3435000D02*
X7572500D01*
X7560000Y3422500D02*
Y3447500D01*
X6717500Y3920000D02*
X6742500D01*
X6730000Y3907500D02*
Y3932500D01*
X7517500Y3060000D02*
X7542500D01*
X7530000Y3047500D02*
Y3072500D01*
X7337500Y3303303D02*
X7362500D01*
X7350000Y3290803D02*
Y3315802D01*
X7627500Y3100000D02*
X7652500D01*
X7640000Y3087500D02*
Y3112500D01*
X7602765Y2845000D02*
X7627765D01*
X7615265Y2832500D02*
Y2857500D01*
X7687500Y2845000D02*
X7712500D01*
X7700000Y2832500D02*
Y2857500D01*
X7187500Y2770000D02*
X7212500D01*
X7200000Y2757500D02*
Y2782500D01*
X7119413Y2868087D02*
X7144413D01*
X7131913Y2855587D02*
Y2880587D01*
X7725896Y3847623D02*
X7750896D01*
X7738396Y3835124D02*
Y3860123D01*
X7817500Y3990000D02*
X7842500D01*
X7830000Y3977500D02*
Y4002500D01*
X8087500Y2680000D02*
X8112500D01*
X8100000Y2667500D02*
Y2692500D01*
X7935178Y3690000D02*
X7960178D01*
X7947678Y3677500D02*
Y3702500D01*
X8548631Y4379489D02*
X8573631D01*
X8561131Y4366989D02*
Y4391989D01*
X8487500Y4130000D02*
X8512500D01*
X8500000Y4117500D02*
Y4142500D01*
X6829707Y3442535D02*
X6854707D01*
X6842207Y3430035D02*
Y3455034D01*
X6757500Y3410000D02*
X6782500D01*
X6770000Y3397500D02*
Y3422500D01*
X6797500Y3290000D02*
X6822500D01*
X6810000Y3277500D02*
Y3302500D01*
X6807500Y3210000D02*
X6832500D01*
X6820000Y3197500D02*
Y3222500D01*
X6947500Y4220000D02*
X6972500D01*
X6960000Y4207500D02*
Y4232500D01*
X7417500Y3740000D02*
X7442500D01*
X7430000Y3727500D02*
Y3752500D01*
X7316538Y3639038D02*
X7341538D01*
X7329038Y3626538D02*
Y3651538D01*
X7307500Y3381432D02*
X7332500D01*
X7320000Y3368932D02*
Y3393932D01*
X7253538Y4597355D02*
X7278538D01*
X7266038Y4584855D02*
Y4609855D01*
X7447500Y4600000D02*
X7472500D01*
X7460000Y4587500D02*
Y4612500D01*
X7167500Y4600000D02*
X7192500D01*
X7180000Y4587500D02*
Y4612500D01*
X7357500Y4600000D02*
X7382500D01*
X7370000Y4587500D02*
Y4612500D01*
X7035000Y1090658D02*
X7060000D01*
X7047500Y1078159D02*
Y1103158D01*
X7947500Y980000D02*
X7972500D01*
X7960000Y967500D02*
Y992500D01*
X7326915Y3225690D02*
X7351915D01*
X7339415Y3213190D02*
Y3238190D01*
X7357500Y3995000D02*
X7382500D01*
X7370000Y3982501D02*
Y4007500D01*
X7653731Y3868048D02*
X7678731D01*
X7666231Y3855549D02*
Y3880548D01*
X7108159Y2499341D02*
X7133158D01*
X7120659Y2486842D02*
Y2511841D01*
X3397500Y880000D02*
X3422500D01*
X3410000Y867500D02*
Y892500D01*
X4637739Y1021962D02*
X4662738D01*
X4650239Y1009462D02*
Y1034462D01*
X6842500Y2763566D02*
X6867500D01*
X6855000Y2751066D02*
Y2776066D01*
X7207500Y3140000D02*
X7232500D01*
X7220000Y3127500D02*
Y3152500D01*
X7057500Y2330000D02*
X7082500D01*
X7070000Y2317500D02*
Y2342500D01*
X7698306Y2623570D02*
X7723306D01*
X7710806Y2611070D02*
Y2636070D01*
X7675444Y2695000D02*
X7700444D01*
X7687944Y2682500D02*
Y2707500D01*
X7698215Y2548570D02*
X7723215D01*
X7710715Y2536070D02*
Y2561070D01*
X7667500Y2470000D02*
X7692500D01*
X7680000Y2457500D02*
Y2482500D01*
X2417500Y3810000D02*
X2442500D01*
X2430000Y3797500D02*
Y3822500D01*
X2386209Y3902954D02*
X2411209D01*
X2398709Y3890454D02*
Y3915454D01*
X2487500Y2650000D02*
X2512500D01*
X2500000Y2637500D02*
Y2662500D01*
X2387500Y2700000D02*
X2412500D01*
X2400000Y2687500D02*
Y2712500D01*
X2437500Y4700000D02*
X2462500D01*
X2450000Y4687500D02*
Y4712500D01*
X2337500Y4700000D02*
X2362500D01*
X2350000Y4687500D02*
Y4712500D01*
X2237500Y4700000D02*
X2262500D01*
X2250000Y4687500D02*
Y4712500D01*
X2137500Y4700000D02*
X2162500D01*
X2150000Y4687500D02*
Y4712500D01*
X2037500Y4700000D02*
X2062500D01*
X2050000Y4687500D02*
Y4712500D01*
X1937500Y4700000D02*
X1962500D01*
X1950000Y4687500D02*
Y4712500D01*
X1837500Y4700000D02*
X1862500D01*
X1850000Y4687500D02*
Y4712500D01*
X1837500Y4600000D02*
X1862500D01*
X1850000Y4587500D02*
Y4612500D01*
X1837500Y4500000D02*
X1862500D01*
X1850000Y4487500D02*
Y4512500D01*
X1837500Y4400000D02*
X1862500D01*
X1850000Y4387500D02*
Y4412500D01*
X1837500Y4300000D02*
X1862500D01*
X1850000Y4287500D02*
Y4312500D01*
X1837500Y4200000D02*
X1862500D01*
X1850000Y4187500D02*
Y4212500D01*
X2177500Y3800000D02*
X2202500D01*
X2190000Y3787500D02*
Y3812500D01*
X2187500Y3700000D02*
X2212500D01*
X2200000Y3687500D02*
Y3712500D01*
X2187500Y3600000D02*
X2212500D01*
X2200000Y3587500D02*
Y3612500D01*
X3147357Y3625738D02*
X3172357D01*
X3159857Y3613239D02*
Y3638238D01*
X2383169Y2786701D02*
X2408169D01*
X2395669Y2774201D02*
Y2799201D01*
X3009164Y3349445D02*
X3034164D01*
X3021664Y3336945D02*
Y3361945D01*
X3155709Y3436485D02*
X3180709D01*
X3168209Y3423986D02*
Y3448985D01*
X2499623Y3912123D02*
X2524623D01*
X2512123Y3899624D02*
Y3924623D01*
X2497500Y4180000D02*
X2522500D01*
X2510000Y4167500D02*
Y4192500D01*
X2187500Y3500000D02*
X2212500D01*
X2200000Y3487500D02*
Y3512500D01*
X3167500Y4360000D02*
X3192500D01*
X3180000Y4347500D02*
Y4372500D01*
X2697500Y4180000D02*
X2722500D01*
X2710000Y4167500D02*
Y4192500D01*
X6733579Y3809461D02*
X6758578D01*
X6746078Y3796961D02*
Y3821960D01*
X6907093Y3531263D02*
X6932093D01*
X6919593Y3518763D02*
Y3543763D01*
X6783332Y3605790D02*
X6808332D01*
X6795832Y3593291D02*
Y3618290D01*
X6797500Y3740000D02*
X6822500D01*
X6810000Y3727500D02*
Y3752500D01*
X6723736Y3670000D02*
X6748736D01*
X6736236Y3657500D02*
Y3682500D01*
X2287500Y2750000D02*
X2312500D01*
X2300000Y2737500D02*
Y2762500D01*
X2387500Y4100000D02*
X2412500D01*
X2400000Y4087500D02*
Y4112500D01*
X2147500Y4090000D02*
X2172500D01*
X2160000Y4077500D02*
Y4102500D01*
X1837500Y4100000D02*
X1862500D01*
X1850000Y4087500D02*
Y4112500D01*
X2117500Y3990000D02*
X2142500D01*
X2130000Y3977500D02*
Y4002500D01*
X2167500Y3900000D02*
X2192500D01*
X2180000Y3887500D02*
Y3912500D01*
X2387500Y4000000D02*
X2412500D01*
X2400000Y3987500D02*
Y4012500D01*
X1937500Y4080000D02*
X1962500D01*
X1950000Y4067500D02*
Y4092500D01*
X2037500Y4050000D02*
X2062500D01*
X2050000Y4037500D02*
Y4062500D01*
X2187500Y3400000D02*
X2212500D01*
X2200000Y3387500D02*
Y3412500D01*
X2187500Y3300000D02*
X2212500D01*
X2200000Y3287500D02*
Y3312500D01*
X2187500Y3200000D02*
X2212500D01*
X2200000Y3187500D02*
Y3212500D01*
X2187500Y3100000D02*
X2212500D01*
X2200000Y3087500D02*
Y3112500D01*
X2187500Y3000000D02*
X2212500D01*
X2200000Y2987500D02*
Y3012500D01*
X2187500Y2900000D02*
X2212500D01*
X2200000Y2887500D02*
Y2912500D01*
X2187500Y2800000D02*
X2212500D01*
X2200000Y2787500D02*
Y2812500D01*
X6607500Y1550000D02*
X6632500D01*
X6620000Y1537500D02*
Y1562500D01*
X6605501Y1658159D02*
X6630500D01*
X6618000Y1645659D02*
Y1670659D01*
X6605000Y1757500D02*
X6630000D01*
X6617500Y1745000D02*
Y1770000D01*
X6607500Y1860000D02*
X6632500D01*
X6620000Y1847500D02*
Y1872500D01*
X6617500Y1950000D02*
X6642500D01*
X6630000Y1937500D02*
Y1962500D01*
X6627500Y790000D02*
X6652500D01*
X6640000Y777500D02*
Y802500D01*
X6307500Y2340000D02*
X6332500D01*
X6320000Y2327500D02*
Y2352500D01*
X6137500Y1950000D02*
X6162500D01*
X6150000Y1937500D02*
Y1962500D01*
X6097500Y790000D02*
X6122500D01*
X6110000Y777500D02*
Y802500D01*
X6232500Y1505000D02*
X6257500D01*
X6245000Y1492500D02*
Y1517500D01*
X6357500Y1530000D02*
X6382500D01*
X6370000Y1517500D02*
Y1542500D01*
X7047500Y1277400D02*
X7072500D01*
X7060000Y1264900D02*
Y1289899D01*
X7715021Y4555473D02*
X7740021D01*
X7727521Y4542973D02*
Y4567973D01*
X7207500Y3460000D02*
X7232500D01*
X7220000Y3447500D02*
Y3472500D01*
X6907500Y3120000D02*
X6932500D01*
X6920000Y3107500D02*
Y3132500D01*
X6527500Y3610000D02*
X6552500D01*
X6540000Y3597500D02*
Y3622500D01*
X7227500Y3880000D02*
X7252500D01*
X7240000Y3867500D02*
Y3892500D01*
X7377500Y4100000D02*
X7402500D01*
X7390000Y4087500D02*
Y4112500D01*
X7296841Y4119342D02*
X7321841D01*
X7309341Y4106842D02*
Y4131841D01*
X6817500Y4122071D02*
X6842500D01*
X6830000Y4109571D02*
Y4134571D01*
X6797500Y3990000D02*
X6822500D01*
X6810000Y3977500D02*
Y4002500D01*
X4787500Y3010000D02*
X4812500D01*
X4800000Y2997500D02*
Y3022500D01*
X5607500Y1310000D02*
X5632500D01*
X5620000Y1297500D02*
Y1322500D01*
X6527500Y2960000D02*
X6552500D01*
X6540000Y2947500D02*
Y2972500D01*
X5835000Y3281251D02*
X5860000D01*
X5847500Y3268751D02*
Y3293751D01*
X6407503Y2990002D02*
X6432502D01*
X6420002Y2977503D02*
Y3002502D01*
X6557500Y2840000D02*
X6582500D01*
X6570000Y2827500D02*
Y2852500D01*
X6307500Y3020000D02*
X6332500D01*
X6320000Y3007500D02*
Y3032500D01*
X6037500Y4240000D02*
X6062500D01*
X6050000Y4227500D02*
Y4252500D01*
X5295436Y3521386D02*
X5320436D01*
X5307936Y3508886D02*
Y3533886D01*
X5600000Y2320000D02*
X5625000D01*
X5612500Y2307500D02*
Y2332500D01*
X5515724Y1819925D02*
X5540723D01*
X5528224Y1807425D02*
Y1832425D01*
X5837500Y2680000D02*
X5862500D01*
X5850000Y2667500D02*
Y2692500D01*
X4407500Y2750000D02*
X4432500D01*
X4420000Y2737500D02*
Y2762500D01*
X5297500Y2320000D02*
X5322500D01*
X5310000Y2307500D02*
Y2332500D01*
X5277500Y3390000D02*
X5302500D01*
X5290000Y3377500D02*
Y3402500D01*
X4927500Y3410000D02*
X4952500D01*
X4940000Y3397500D02*
Y3422500D01*
X5157500Y3510000D02*
X5182500D01*
X5170000Y3497500D02*
Y3522500D01*
X6987500Y2690000D02*
X7012500D01*
X7000000Y2677500D02*
Y2702500D01*
X7057500Y2620000D02*
X7082500D01*
X7070000Y2607500D02*
Y2632500D01*
X6187500Y700000D02*
X6212500D01*
X6200000Y687500D02*
Y712500D01*
X6987395Y614807D02*
X7012395D01*
X6999895Y602307D02*
Y627307D01*
X4877500Y2220000D02*
X4902500D01*
X4890000Y2207500D02*
Y2232500D01*
X4271224Y1969697D02*
X4296224D01*
X4283724Y1957197D02*
Y1982197D01*
X3266807Y2050000D02*
X3291806D01*
X3279307Y2037500D02*
Y2062500D01*
X3307500Y2120000D02*
X3332500D01*
X3320000Y2107500D02*
Y2132500D01*
X3322500Y2200000D02*
X3347499D01*
X3334999Y2187500D02*
Y2212500D01*
X3394030Y2222547D02*
X3419029D01*
X3406530Y2210048D02*
Y2235047D01*
X5067500Y2480000D02*
X5092500D01*
X5080000Y2467500D02*
Y2492500D01*
X4218125Y2590000D02*
X4243125D01*
X4230625Y2577500D02*
Y2602500D01*
X4307500Y2770000D02*
X4332500D01*
X4320000Y2757500D02*
Y2782500D01*
X3586250Y2591250D02*
X3611250D01*
X3598750Y2578750D02*
Y2603750D01*
X3907500Y2230000D02*
X3932500D01*
X3920000Y2217500D02*
Y2242500D01*
X6247500Y2630000D02*
X6272500D01*
X6260000Y2617500D02*
Y2642500D01*
X3088853Y3020000D02*
X3113853D01*
X3101353Y3007500D02*
Y3032500D01*
X3307500Y2920000D02*
X3332500D01*
X3320000Y2907500D02*
Y2932500D01*
X3727500Y2960000D02*
X3752500D01*
X3740000Y2947500D02*
Y2972500D01*
X3887500Y1720000D02*
X3912500D01*
X3900000Y1707500D02*
Y1732500D01*
X4377500Y1920000D02*
X4402500D01*
X4390000Y1907500D02*
Y1932500D01*
X4007500Y2370459D02*
X4032500D01*
X4020000Y2357959D02*
Y2382959D01*
X2782108Y1442986D02*
X2807108D01*
X2794608Y1430486D02*
Y1455486D01*
X2227500Y1898943D02*
X2252500D01*
X2240000Y1886443D02*
Y1911442D01*
X3737500Y800000D02*
X3762500D01*
X3750000Y787500D02*
Y812500D01*
X4837500Y1560000D02*
X4862500D01*
X4850000Y1547500D02*
Y1572500D01*
X7047500Y1930000D02*
X7072500D01*
X7060000Y1917500D02*
Y1942500D01*
X7191038Y1872220D02*
X7216037D01*
X7203538Y1859720D02*
Y1884720D01*
X7637485Y2299995D02*
X7662485D01*
X7649985Y2287496D02*
Y2312495D01*
X6164631Y2982870D02*
X6189630D01*
X6177130Y2970370D02*
Y2995369D01*
X6085000Y2789395D02*
X6110000D01*
X6097500Y2776895D02*
Y2801895D01*
X2287500Y1070000D02*
X2312500D01*
X2300000Y1057500D02*
Y1082500D01*
X2994152Y4826652D02*
X3019152D01*
X3006652Y4814152D02*
Y4839152D01*
X4017500Y2460000D02*
X4042500D01*
X4030000Y2447500D02*
Y2472500D01*
X4547500Y2390000D02*
X4572500D01*
X4560000Y2377500D02*
Y2402500D01*
X4467500Y2450000D02*
X4492500D01*
X4480000Y2437500D02*
Y2462500D01*
X4615000Y2507500D02*
X4640000D01*
X4627500Y2495000D02*
Y2520000D01*
X6467500Y600000D02*
X6492500D01*
X6480000Y587500D02*
Y612500D01*
X3497500Y1325000D02*
X3522500D01*
X3510000Y1312500D02*
Y1337500D01*
X3497500Y1515000D02*
X3522500D01*
X3510000Y1502500D02*
Y1527500D01*
X7057500Y3585000D02*
X7082500D01*
X7070000Y3572500D02*
Y3597500D01*
X7057500Y3775000D02*
X7082500D01*
X7070000Y3762500D02*
Y3787500D01*
X7417500Y975000D02*
X7442500D01*
X7430000Y962500D02*
Y987500D01*
X7417500Y1165000D02*
X7442500D01*
X7430000Y1152500D02*
Y1177500D01*
X7417500Y1725000D02*
X7442500D01*
X7430000Y1712500D02*
Y1737500D01*
X7417500Y1915000D02*
X7442500D01*
X7430000Y1902500D02*
Y1927500D01*
X7417500Y1355000D02*
X7442500D01*
X7430000Y1342500D02*
Y1367500D01*
X7417500Y1545000D02*
X7442500D01*
X7430000Y1532500D02*
Y1557500D01*
X7417500Y2095000D02*
X7442500D01*
X7430000Y2082500D02*
Y2107500D01*
X7417500Y2285000D02*
X7442500D01*
X7430000Y2272500D02*
Y2297500D01*
X7057500Y3205000D02*
X7082500D01*
X7070000Y3192500D02*
Y3217500D01*
X7057500Y3395000D02*
X7082500D01*
X7070000Y3382500D02*
Y3407500D01*
X7417500Y2475000D02*
X7442500D01*
X7430000Y2462500D02*
Y2487500D01*
X7417500Y2665000D02*
X7442500D01*
X7430000Y2652500D02*
Y2677500D01*
X7892000Y755000D02*
X7917000D01*
X7904500Y742500D02*
Y767500D01*
X7892000Y475000D02*
X7917000D01*
X7904500Y462500D02*
Y487500D01*
X8212000Y475000D02*
X8237000D01*
X8224500Y462500D02*
Y487500D01*
X8212000Y755000D02*
X8237000D01*
X8224500Y742500D02*
Y767500D01*
X7892000Y4986000D02*
X7917000D01*
X7904500Y4973500D02*
Y4998500D01*
X7892000Y4706000D02*
X7917000D01*
X7904500Y4693500D02*
Y4718500D01*
X8212000Y4706000D02*
X8237000D01*
X8224500Y4693500D02*
Y4718500D01*
X8212000Y4986000D02*
X8237000D01*
X8224500Y4973500D02*
Y4998500D01*
X1255500Y5323500D02*
X1305500D01*
X1280500Y5298500D02*
Y5348500D01*
X1255500Y4963500D02*
X1305500D01*
X1280500Y4938500D02*
Y4988500D01*
X1615988Y4963500D02*
X1665988D01*
X1640988Y4938500D02*
Y4988500D01*
X1615484Y5323500D02*
X1665484D01*
X1640484Y5298500D02*
Y5348500D01*
X4277500Y2890000D02*
X4302500D01*
X4290000Y2877500D02*
Y2902500D01*
X4080000Y3090000D02*
X4105000D01*
X4092500Y3077500D02*
Y3102500D01*
X4077599Y2928585D02*
X4102598D01*
X4090098Y2916085D02*
Y2941085D01*
X4277500Y3030000D02*
X4302500D01*
X4290000Y3017500D02*
Y3042500D01*
X3850000Y2780000D02*
X3875000D01*
X3862500Y2767500D02*
Y2792500D01*
X1637500Y4670000D02*
X1662500D01*
X1650000Y4657500D02*
Y4682500D01*
X2687500Y4100000D02*
X2712500D01*
X2700000Y4087500D02*
Y4112500D01*
X3547500Y3600000D02*
X3572500D01*
X3560000Y3587500D02*
Y3612500D01*
X4397500Y3760000D02*
X4422500D01*
X4410000Y3747500D02*
Y3772500D01*
X2970000Y4370000D02*
X2995000D01*
X2982500Y4357500D02*
Y4382500D01*
X2937500Y3170000D02*
X2962500D01*
X2950000Y3157500D02*
Y3182500D01*
X7117500Y2220000D02*
X7142500D01*
X7130000Y2207500D02*
Y2232500D01*
X7707500Y1880000D02*
X7732500D01*
X7720000Y1867500D02*
Y1892500D01*
X7647485Y1129998D02*
X7672485D01*
X7659985Y1117498D02*
Y1142498D01*
X7157486Y2619995D02*
X7182486D01*
X7169986Y2607495D02*
Y2632495D01*
X7192653Y2243440D02*
X7217653D01*
X7205153Y2230940D02*
Y2255940D01*
X7677485Y1249997D02*
X7702484D01*
X7689985Y1237498D02*
Y1262497D01*
X7647500Y1570000D02*
X7672500D01*
X7660000Y1557500D02*
Y1582500D01*
X7197486Y1499997D02*
X7222485D01*
X7209986Y1487497D02*
Y1512497D01*
X3297500Y4610000D02*
X3322500D01*
X3310000Y4597500D02*
Y4622500D01*
X4217500Y4602500D02*
X4242500D01*
X4230000Y4590000D02*
Y4615000D01*
X6807500Y4600000D02*
X6832500D01*
X6820000Y4587500D02*
Y4612500D01*
X3547500Y4530000D02*
X3572500D01*
X3560000Y4517500D02*
Y4542500D01*
X6708195Y4598026D02*
X6733195D01*
X6720695Y4585527D02*
Y4610526D01*
X3857500Y4602500D02*
X3882500D01*
X3870000Y4590000D02*
Y4615000D01*
X5457500Y4610000D02*
X5482500D01*
X5470000Y4597500D02*
Y4622500D01*
X6937500Y4600000D02*
X6962500D01*
X6950000Y4587500D02*
Y4612500D01*
X5127500Y870000D02*
X5152500D01*
X5140000Y857500D02*
Y882500D01*
X7237500Y1660000D02*
X7262500D01*
X7250000Y1647500D02*
Y1672500D01*
X7177486Y2449995D02*
X7202485D01*
X7189986Y2437495D02*
Y2462495D01*
X7217486Y2039996D02*
X7242485D01*
X7229986Y2027496D02*
Y2052496D01*
X7647485Y2129996D02*
X7672485D01*
X7659985Y2117496D02*
Y2142496D01*
X7674827Y1726203D02*
X7699827D01*
X7687327Y1713703D02*
Y1738703D01*
X7287500Y910000D02*
X7312500D01*
X7300000Y897500D02*
Y922500D01*
X7647485Y1009998D02*
X7672485D01*
X7659985Y997498D02*
Y1022498D01*
X7857500Y1320000D02*
X7882500D01*
X7870000Y1307500D02*
Y1332500D01*
X7267500Y1307500D02*
X7292500D01*
X7280000Y1295000D02*
Y1320000D01*
X3317500Y3180000D02*
X3342500D01*
X3330000Y3167500D02*
Y3192500D01*
X4407500Y3340000D02*
X4432500D01*
X4420000Y3327500D02*
Y3352500D01*
X4407500Y3660000D02*
X4432500D01*
X4420000Y3647500D02*
Y3672500D01*
X3317500Y4097503D02*
X3342500D01*
X3330000Y4085003D02*
Y4110002D01*
X3267500Y4350000D02*
X3292500D01*
X3280000Y4337500D02*
Y4362500D01*
X3487500Y3380000D02*
X3512500D01*
X3500000Y3367500D02*
Y3392500D01*
X3717500Y3500000D02*
X3742500D01*
X3730000Y3487500D02*
Y3512500D01*
X2967500Y3840000D02*
X2992500D01*
X2980000Y3827500D02*
Y3852500D01*
X3367500Y4340000D02*
X3392500D01*
X3380000Y4327500D02*
Y4352500D01*
X2760000Y3740000D02*
X2785000D01*
X2772500Y3727500D02*
Y3752500D01*
X3647500Y4380000D02*
X3672500D01*
X3660000Y4367500D02*
Y4392500D01*
X4467500Y3460000D02*
X4492500D01*
X4480000Y3447500D02*
Y3472500D01*
X3517500Y3860000D02*
X3542500D01*
X3530000Y3847500D02*
Y3872500D01*
X3247500Y3290000D02*
X3272500D01*
X3260000Y3277500D02*
Y3302500D01*
X3067500Y3740000D02*
X3092500D01*
X3080000Y3727500D02*
Y3752500D01*
X1307500Y4670000D02*
X1332500D01*
X1320000Y4657500D02*
Y4682500D01*
X6107500Y2570000D02*
X6132500D01*
X6120000Y2557500D02*
Y2582500D01*
X4637500Y3420000D02*
X4662500D01*
X4650000Y3407500D02*
Y3432500D01*
X4925451Y3702049D02*
X4950451D01*
X4937951Y3689549D02*
Y3714549D01*
X7637485Y1449997D02*
X7662485D01*
X7649985Y1437497D02*
Y1462497D01*
X6098159Y4600659D02*
X6123158D01*
X6110659Y4588159D02*
Y4613158D01*
X6527512Y4604881D02*
X6552512D01*
X6540012Y4592381D02*
Y4617381D01*
X7932708Y5287588D02*
X7957708D01*
X7945208Y5275088D02*
Y5300087D01*
X2637500Y3970000D02*
X2662500D01*
X2650000Y3957500D02*
Y3982500D01*
X3108534Y4610965D02*
X3133534D01*
X3121034Y4598465D02*
Y4623464D01*
X3187500Y4610000D02*
X3212500D01*
X3200000Y4597500D02*
Y4622500D01*
X3987500Y4602500D02*
X4012500D01*
X4000000Y4590000D02*
Y4615000D01*
X4421792Y4747500D02*
X4446792D01*
X4434292Y4735000D02*
Y4760000D01*
X3007500Y890000D02*
X3032500D01*
X3020000Y877500D02*
Y902500D01*
X4798750Y4830000D02*
X4823750D01*
X4811250Y4817500D02*
Y4842500D01*
X2495728Y4323171D02*
X2520728D01*
X2508228Y4310671D02*
Y4335671D01*
X4577500Y4210000D02*
X4602500D01*
X4590000Y4197500D02*
Y4222500D01*
X2627500Y4530000D02*
X2652500D01*
X2640000Y4517500D02*
Y4542500D01*
X3064854Y2569391D02*
X3089854D01*
X3077354Y2556891D02*
Y2581890D01*
X1457500Y1200000D02*
X1482500D01*
X1470000Y1187500D02*
Y1212500D01*
X2050144Y1591929D02*
X2075144D01*
X2062644Y1579429D02*
Y1604429D01*
X5690849Y4613348D02*
X5715848D01*
X5703349Y4600849D02*
Y4625848D01*
X5577500Y4830000D02*
X5602500D01*
X5590000Y4817500D02*
Y4842500D01*
X4327500Y4830000D02*
X4352500D01*
X4340000Y4817500D02*
Y4842500D01*
X3857500Y4830000D02*
X3882500D01*
X3870000Y4817500D02*
Y4842500D01*
X3527500Y4830000D02*
X3552500D01*
X3540000Y4817500D02*
Y4842500D01*
X3297500Y4830000D02*
X3322500D01*
X3310000Y4817500D02*
Y4842500D01*
X3627500Y4510000D02*
X3652500D01*
X3640000Y4497500D02*
Y4522500D01*
X5147500Y4830000D02*
X5172500D01*
X5160000Y4817500D02*
Y4842500D01*
X4757500Y4200000D02*
X4782500D01*
X4770000Y4187500D02*
Y4212500D01*
X1427500Y1380000D02*
X1452500D01*
X1440000Y1367500D02*
Y1392500D01*
X5427500Y1002500D02*
X5452500D01*
X5440000Y990000D02*
Y1015000D01*
X4167500Y870000D02*
X4192500D01*
X4180000Y857500D02*
Y882500D01*
X5017500Y970000D02*
X5042500D01*
X5030000Y957500D02*
Y982500D01*
X5567500Y620000D02*
X5592500D01*
X5580000Y607500D02*
Y632500D01*
X2107140Y2050360D02*
X2132140D01*
X2119640Y2037860D02*
Y2062859D01*
X2117500Y1790000D02*
X2142500D01*
X2130000Y1777500D02*
Y1802500D01*
X2387500Y620000D02*
X2412500D01*
X2400000Y607500D02*
Y632500D01*
X1731881Y700018D02*
X1756881D01*
X1744381Y687518D02*
Y712518D01*
X1867500Y870000D02*
X1892500D01*
X1880000Y857500D02*
Y882500D01*
X2288073Y2211071D02*
X2313073D01*
X2300573Y2198571D02*
Y2223570D01*
X7497958Y792345D02*
X7522957D01*
X7510457Y779845D02*
Y804845D01*
X7787500Y5340000D02*
X7812500D01*
X7800000Y5327500D02*
Y5352500D01*
X7490000Y1252366D02*
X7515000D01*
X7502500Y1239866D02*
Y1264866D01*
X7047500Y1560000D02*
X7072500D01*
X7060000Y1547500D02*
Y1572500D01*
X7168817Y2108683D02*
X7193817D01*
X7181317Y2096184D02*
Y2121183D01*
X7187500Y1000000D02*
X7212500D01*
X7200000Y987500D02*
Y1012500D01*
X4237492Y3359993D02*
X4262491D01*
X4249991Y3347493D02*
Y3372493D01*
X4147500Y3930000D02*
X4172500D01*
X4160000Y3917500D02*
Y3942500D01*
X7707500Y1800000D02*
X7732500D01*
X7720000Y1787500D02*
Y1812500D01*
X7707485Y1069998D02*
X7732484D01*
X7719985Y1057498D02*
Y1082498D01*
X7617500Y930000D02*
X7642500D01*
X7630000Y917500D02*
Y942500D01*
X5057500Y3170000D02*
X5082500D01*
X5070000Y3157500D02*
Y3182500D01*
X5273749Y3033751D02*
X5298749D01*
X5286249Y3021252D02*
Y3046251D01*
X5267500Y2950000D02*
X5292500D01*
X5280000Y2937500D02*
Y2962500D01*
X4847500Y3460000D02*
X4872500D01*
X4860000Y3447500D02*
Y3472500D01*
X4427500Y3950000D02*
X4452500D01*
X4440000Y3937500D02*
Y3962500D01*
X4367500Y4140000D02*
X4392500D01*
X4380000Y4127500D02*
Y4152500D01*
X4817490Y3789992D02*
X4842490D01*
X4829990Y3777493D02*
Y3802492D01*
X4447500Y4040000D02*
X4472500D01*
X4460000Y4027500D02*
Y4052500D01*
X3587500Y3370000D02*
X3612500D01*
X3600000Y3357500D02*
Y3382500D01*
X2714810Y3290000D02*
X2739810D01*
X2727310Y3277500D02*
Y3302500D01*
X1257500Y1090000D02*
X1282500D01*
X1270000Y1077500D02*
Y1102500D01*
X1257500Y1760000D02*
X1282500D01*
X1270000Y1747500D02*
Y1772500D01*
X4440575Y4211807D02*
X4465575D01*
X4453075Y4199307D02*
Y4224307D01*
X4947500Y4210000D02*
X4972500D01*
X4960000Y4197500D02*
Y4222500D01*
X5297500Y3640000D02*
X5322500D01*
X5310000Y3627500D02*
Y3652500D01*
X5897500Y4160000D02*
X5922500D01*
X5910000Y4147500D02*
Y4172500D01*
X7837500Y150000D02*
X7862500D01*
X7850000Y137500D02*
Y162500D01*
X1837500Y1820000D02*
X1862500D01*
X1850000Y1807500D02*
Y1832500D01*
X2387500Y2440000D02*
X2412500D01*
X2400000Y2427500D02*
Y2452500D01*
X2617500Y2430000D02*
X2642500D01*
X2630000Y2417500D02*
Y2442500D01*
X4227500Y700000D02*
X4252500D01*
X4240000Y687500D02*
Y712500D01*
X4307500Y3130000D02*
X4332500D01*
X4320000Y3117500D02*
Y3142500D01*
X4827500Y3085003D02*
X4852500D01*
X4840000Y3072503D02*
Y3097503D01*
X4437500Y3830000D02*
X4462500D01*
X4450000Y3817500D02*
Y3842500D01*
X5047500Y2980003D02*
X5072500D01*
X5060000Y2967503D02*
Y2992503D01*
X5417500Y3120000D02*
X5442500D01*
X5430000Y3107500D02*
Y3132500D01*
X4748655Y3608969D02*
X4773655D01*
X4761155Y3596469D02*
Y3621469D01*
X4867500Y2770000D02*
X4892500D01*
X4880000Y2757500D02*
Y2782500D01*
X4923271Y3510813D02*
X4948271D01*
X4935771Y3498313D02*
Y3523313D01*
X4677500Y700000D02*
X4702500D01*
X4690000Y687500D02*
Y712500D01*
X3727500Y700000D02*
X3752500D01*
X3740000Y687500D02*
Y712500D01*
X4507500Y700000D02*
X4532500D01*
X4520000Y687500D02*
Y712500D01*
X4787500Y2680000D02*
X4812500D01*
X4800000Y2667500D02*
Y2692500D01*
X2877500Y3010000D02*
X2902500D01*
X2890000Y2997500D02*
Y3022500D01*
X5237500Y3820000D02*
X5262500D01*
X5250000Y3807500D02*
Y3832500D01*
X2527500Y2100000D02*
X2552500D01*
X2540000Y2087500D02*
Y2112500D01*
%TF.MD5,95dafabfd171aef797984b6f1e47aba2*%
M02*
