%TF.GenerationSoftware,Altium Limited,Altium Designer,21.2.2 (38)*%
G04 Layer_Color=16711935*
%FSLAX45Y45*%
%MOMM*%
%TF.SameCoordinates,D1C1B47B-FFDC-44FD-B647-F1046EBF8E97*%
%TF.FilePolarity,Negative*%
%TF.FileFunction,Soldermask,Bot*%
%TF.Part,Single*%
G01*
G75*
%TA.AperFunction,NonConductor*%
%ADD109R,5.70000X1.80000*%
%TA.AperFunction,ComponentPad*%
G04:AMPARAMS|DCode=110|XSize=1.83mm|YSize=2.23mm|CornerRadius=0mm|HoleSize=0mm|Usage=FLASHONLY|Rotation=0.000|XOffset=0mm|YOffset=0mm|HoleType=Round|Shape=Octagon|*
%AMOCTAGOND110*
4,1,8,-0.45750,1.11500,0.45750,1.11500,0.91500,0.65750,0.91500,-0.65750,0.45750,-1.11500,-0.45750,-1.11500,-0.91500,-0.65750,-0.91500,0.65750,-0.45750,1.11500,0.0*
%
%ADD110OCTAGOND110*%

G04:AMPARAMS|DCode=111|XSize=1.83mm|YSize=2.23mm|CornerRadius=0.49mm|HoleSize=0mm|Usage=FLASHONLY|Rotation=0.000|XOffset=0mm|YOffset=0mm|HoleType=Round|Shape=RoundedRectangle|*
%AMROUNDEDRECTD111*
21,1,1.83000,1.25001,0,0,0.0*
21,1,0.85000,2.23000,0,0,0.0*
1,1,0.98000,0.42500,-0.62500*
1,1,0.98000,-0.42500,-0.62500*
1,1,0.98000,-0.42500,0.62500*
1,1,0.98000,0.42500,0.62500*
%
%ADD111ROUNDEDRECTD111*%
G04:AMPARAMS|DCode=112|XSize=1.83mm|YSize=2.23mm|CornerRadius=0.49mm|HoleSize=0mm|Usage=FLASHONLY|Rotation=270.000|XOffset=0mm|YOffset=0mm|HoleType=Round|Shape=RoundedRectangle|*
%AMROUNDEDRECTD112*
21,1,1.83000,1.25001,0,0,270.0*
21,1,0.85000,2.23000,0,0,270.0*
1,1,0.98000,-0.62500,-0.42500*
1,1,0.98000,-0.62500,0.42500*
1,1,0.98000,0.62500,0.42500*
1,1,0.98000,0.62500,-0.42500*
%
%ADD112ROUNDEDRECTD112*%
G04:AMPARAMS|DCode=113|XSize=1.83mm|YSize=2.23mm|CornerRadius=0mm|HoleSize=0mm|Usage=FLASHONLY|Rotation=270.000|XOffset=0mm|YOffset=0mm|HoleType=Round|Shape=Octagon|*
%AMOCTAGOND113*
4,1,8,1.11500,0.45750,1.11500,-0.45750,0.65750,-0.91500,-0.65750,-0.91500,-1.11500,-0.45750,-1.11500,0.45750,-0.65750,0.91500,0.65750,0.91500,1.11500,0.45750,0.0*
%
%ADD113OCTAGOND113*%

G04:AMPARAMS|DCode=114|XSize=4.13mm|YSize=3.73mm|CornerRadius=0.605mm|HoleSize=0mm|Usage=FLASHONLY|Rotation=0.000|XOffset=0mm|YOffset=0mm|HoleType=Round|Shape=RoundedRectangle|*
%AMROUNDEDRECTD114*
21,1,4.13000,2.52000,0,0,0.0*
21,1,2.92000,3.73000,0,0,0.0*
1,1,1.21000,1.46000,-1.26000*
1,1,1.21000,-1.46000,-1.26000*
1,1,1.21000,-1.46000,1.26000*
1,1,1.21000,1.46000,1.26000*
%
%ADD114ROUNDEDRECTD114*%
G04:AMPARAMS|DCode=115|XSize=5.13mm|YSize=5.13mm|CornerRadius=1.065mm|HoleSize=0mm|Usage=FLASHONLY|Rotation=0.000|XOffset=0mm|YOffset=0mm|HoleType=Round|Shape=RoundedRectangle|*
%AMROUNDEDRECTD115*
21,1,5.13000,3.00000,0,0,0.0*
21,1,3.00000,5.13000,0,0,0.0*
1,1,2.13000,1.50000,-1.50000*
1,1,2.13000,-1.50000,-1.50000*
1,1,2.13000,-1.50000,1.50000*
1,1,2.13000,1.50000,1.50000*
%
%ADD115ROUNDEDRECTD115*%
G04:AMPARAMS|DCode=116|XSize=2.33mm|YSize=2.33mm|CornerRadius=0.615mm|HoleSize=0mm|Usage=FLASHONLY|Rotation=270.000|XOffset=0mm|YOffset=0mm|HoleType=Round|Shape=RoundedRectangle|*
%AMROUNDEDRECTD116*
21,1,2.33000,1.10000,0,0,270.0*
21,1,1.10000,2.33000,0,0,270.0*
1,1,1.23001,-0.55000,-0.55000*
1,1,1.23001,-0.55000,0.55000*
1,1,1.23001,0.55000,0.55000*
1,1,1.23001,0.55000,-0.55000*
%
%ADD116ROUNDEDRECTD116*%
G04:AMPARAMS|DCode=117|XSize=2.33mm|YSize=2.33mm|CornerRadius=0mm|HoleSize=0mm|Usage=FLASHONLY|Rotation=270.000|XOffset=0mm|YOffset=0mm|HoleType=Round|Shape=Octagon|*
%AMOCTAGOND117*
4,1,8,-0.58250,-1.16500,0.58250,-1.16500,1.16500,-0.58250,1.16500,0.58250,0.58250,1.16500,-0.58250,1.16500,-1.16500,0.58250,-1.16500,-0.58250,-0.58250,-1.16500,0.0*
%
%ADD117OCTAGOND117*%

G36*
X5859999Y3914996D02*
X4999999Y3914996D01*
X5000000Y4425853D01*
X5860000Y4425853D01*
X5859999Y3914996D01*
D02*
G37*
D109*
X1455000Y4140000D02*
D03*
D110*
X2032000Y170500D02*
D03*
Y4996500D02*
D03*
Y4238400D02*
D03*
D111*
X2286000Y170500D02*
D03*
X2540000D02*
D03*
X2794000D02*
D03*
X3048000D02*
D03*
X3302000D02*
D03*
X3556000D02*
D03*
X3810000D02*
D03*
X4064000D02*
D03*
X4318000D02*
D03*
X4572000D02*
D03*
X4826000D02*
D03*
X5080000D02*
D03*
X5334000D02*
D03*
X5588000D02*
D03*
X5842000D02*
D03*
X6096000D02*
D03*
X6350000D02*
D03*
X6604000D02*
D03*
X6858000D02*
D03*
X7112000D02*
D03*
X7366000D02*
D03*
X7620000D02*
D03*
X2032000Y464500D02*
D03*
X2286000D02*
D03*
X2540000D02*
D03*
X2794000D02*
D03*
X3048000D02*
D03*
X3302000D02*
D03*
X3556000D02*
D03*
X3810000D02*
D03*
X4064000D02*
D03*
X4318000D02*
D03*
X4572000D02*
D03*
X4826000D02*
D03*
X5080000D02*
D03*
X5334000D02*
D03*
X5588000D02*
D03*
X5842000D02*
D03*
X6096000D02*
D03*
X6350000D02*
D03*
X6604000D02*
D03*
X6858000D02*
D03*
X7112000D02*
D03*
X7366000D02*
D03*
X7620000D02*
D03*
X2286000Y4996500D02*
D03*
X2540000D02*
D03*
X2794000D02*
D03*
X3048000D02*
D03*
X3302000D02*
D03*
X3556000D02*
D03*
X3810000D02*
D03*
X4064000D02*
D03*
X4318000D02*
D03*
X4572000D02*
D03*
X4826000D02*
D03*
X5080000D02*
D03*
X5334000D02*
D03*
X5588000D02*
D03*
X5842000D02*
D03*
X6096000D02*
D03*
X6350000D02*
D03*
X6604000D02*
D03*
X6858000D02*
D03*
X7112000D02*
D03*
X7366000D02*
D03*
X7620000D02*
D03*
X2032000Y5290500D02*
D03*
X2286000D02*
D03*
X2540000D02*
D03*
X2794000D02*
D03*
X3048000D02*
D03*
X3302000D02*
D03*
X3556000D02*
D03*
X3810000D02*
D03*
X4064000D02*
D03*
X4318000D02*
D03*
X4572000D02*
D03*
X4826000D02*
D03*
X5080000D02*
D03*
X5334000D02*
D03*
X5588000D02*
D03*
X5842000D02*
D03*
X6096000D02*
D03*
X6350000D02*
D03*
X6604000D02*
D03*
X6858000D02*
D03*
X7112000D02*
D03*
X7366000D02*
D03*
X7620000D02*
D03*
X2286000Y4238400D02*
D03*
Y4532400D02*
D03*
X2032000D02*
D03*
D112*
X8402000Y952800D02*
D03*
Y1206800D02*
D03*
Y1460800D02*
D03*
Y1714800D02*
D03*
Y1968800D02*
D03*
Y2222800D02*
D03*
Y2476800D02*
D03*
X8108000Y952800D02*
D03*
Y1206800D02*
D03*
Y1460800D02*
D03*
Y1714800D02*
D03*
Y1968800D02*
D03*
Y2222800D02*
D03*
Y4254800D02*
D03*
Y4000800D02*
D03*
Y3746800D02*
D03*
Y3492800D02*
D03*
Y3238800D02*
D03*
Y2984800D02*
D03*
X8402000Y4508800D02*
D03*
Y4254800D02*
D03*
Y4000800D02*
D03*
Y3746800D02*
D03*
Y3492800D02*
D03*
Y3238800D02*
D03*
Y2984800D02*
D03*
D113*
X8108000Y2476800D02*
D03*
Y4508800D02*
D03*
D114*
X8064500Y615000D02*
D03*
Y4846000D02*
D03*
D115*
X1460500Y5143500D02*
D03*
D116*
X1480000Y345000D02*
D03*
D117*
Y695000D02*
D03*
%TF.MD5,6215bc277077e76d7d706e4002dc1fb9*%
M02*
