%TF.GenerationSoftware,Altium Limited,Altium Designer,21.2.2 (38)*%
G04 Layer_Color=32896*
%FSLAX45Y45*%
%MOMM*%
%TF.SameCoordinates,D1C1B47B-FFDC-44FD-B647-F1046EBF8E97*%
%TF.FilePolarity,Positive*%
%TF.FileFunction,Legend,Bot*%
%TF.Part,Single*%
G01*
G75*
%TA.AperFunction,NonConductor*%
%ADD96C,0.20000*%
%ADD97C,0.25000*%
%ADD98R,1.40000X0.15000*%
%ADD99R,0.60000X0.15000*%
%ADD100R,0.20000X0.15000*%
%ADD101R,0.40000X0.15000*%
%ADD102R,0.40000X0.15000*%
%ADD103R,0.60000X0.15000*%
%ADD104R,0.20000X0.15000*%
%ADD105R,0.80000X0.15000*%
%ADD106R,0.80000X0.15000*%
%ADD107R,1.20000X0.15000*%
%ADD108R,1.00000X0.15000*%
G36*
X1867000Y4896500D02*
X1837000Y4871500D01*
Y4921500D01*
X1867000Y4896500D01*
D02*
G37*
G36*
X8007276Y4673673D02*
X7982276Y4703673D01*
X8032276D01*
X8007276Y4673673D01*
D02*
G37*
G36*
X1867000Y4140900D02*
X1837000Y4115900D01*
Y4165900D01*
X1867000Y4140900D01*
D02*
G37*
G36*
X8010500Y2641800D02*
X7985500Y2671800D01*
X8035500D01*
X8010500Y2641800D01*
D02*
G37*
G36*
X1867000Y70500D02*
X1837000Y45500D01*
Y95500D01*
X1867000Y70500D01*
D02*
G37*
G36*
X2670000Y2395000D02*
X2370000D01*
Y2645000D01*
X2670000D01*
Y2395000D01*
D02*
G37*
G36*
Y1855000D02*
X2370000D01*
Y2105000D01*
X2670000D01*
Y1855000D01*
D02*
G37*
G36*
Y1045000D02*
X2370000D01*
Y1295000D01*
X2670000D01*
Y1045000D01*
D02*
G37*
G36*
Y1585000D02*
X2370000D01*
Y1835000D01*
X2670000D01*
Y1585000D01*
D02*
G37*
G36*
Y1315000D02*
X2370000D01*
Y1565000D01*
X2670000D01*
Y1315000D01*
D02*
G37*
G36*
Y2665000D02*
X2370000D01*
Y2915000D01*
X2670000D01*
Y2665000D01*
D02*
G37*
G36*
Y2125000D02*
X2370000D01*
Y2375000D01*
X2670000D01*
Y2125000D01*
D02*
G37*
%LPC*%
G36*
X2521333Y2625953D02*
X2520000D01*
X2516002Y2625805D01*
X2512152Y2625657D01*
X2508302Y2625212D01*
X2504600Y2624768D01*
X2497492Y2623287D01*
X2490680Y2621510D01*
X2484460Y2619289D01*
X2478685Y2616772D01*
X2473354Y2614254D01*
X2468468Y2611589D01*
X2464173Y2608775D01*
X2460323Y2606258D01*
X2457065Y2603741D01*
X2454400Y2601667D01*
X2452178Y2599742D01*
X2451290Y2599002D01*
X2450698Y2598262D01*
X2450105Y2597817D01*
X2449661Y2597373D01*
X2449513Y2597225D01*
X2449365Y2597077D01*
X2446848Y2594263D01*
X2444478Y2591450D01*
X2442405Y2588488D01*
X2440332Y2585378D01*
X2436630Y2579011D01*
X2433520Y2572495D01*
X2430855Y2565832D01*
X2428633Y2559168D01*
X2426856Y2552652D01*
X2425376Y2546285D01*
X2424339Y2540361D01*
X2423451Y2534882D01*
X2423154Y2532365D01*
X2422858Y2529996D01*
X2422562Y2527774D01*
X2422414Y2525701D01*
X2422266Y2523776D01*
X2422118Y2522147D01*
Y2520667D01*
X2421970Y2519482D01*
Y2517261D01*
X2422118Y2512226D01*
X2422414Y2507339D01*
X2423006Y2502601D01*
X2423747Y2497862D01*
X2424635Y2493419D01*
X2425672Y2489273D01*
X2426708Y2485275D01*
X2427893Y2481573D01*
X2428930Y2478167D01*
X2429966Y2475205D01*
X2431003Y2472540D01*
X2431891Y2470319D01*
X2432632Y2468394D01*
X2433224Y2467061D01*
X2433520Y2466320D01*
X2433668Y2466024D01*
X2436038Y2461582D01*
X2438555Y2457436D01*
X2441220Y2453585D01*
X2444034Y2449883D01*
X2446848Y2446477D01*
X2449661Y2443368D01*
X2452623Y2440554D01*
X2455288Y2437889D01*
X2457954Y2435667D01*
X2460323Y2433594D01*
X2462544Y2431965D01*
X2464469Y2430485D01*
X2465950Y2429448D01*
X2467135Y2428560D01*
X2467875Y2428115D01*
X2468171Y2427967D01*
X2472466Y2425450D01*
X2476908Y2423377D01*
X2481499Y2421452D01*
X2485941Y2419971D01*
X2490236Y2418638D01*
X2494530Y2417453D01*
X2498676Y2416565D01*
X2502674Y2415824D01*
X2506228Y2415232D01*
X2509634Y2414788D01*
X2512596Y2414492D01*
X2515113Y2414344D01*
X2517186Y2414196D01*
X2518667Y2414047D01*
X2520000D01*
X2524887Y2414196D01*
X2529773Y2414640D01*
X2534512Y2415232D01*
X2538955Y2415973D01*
X2543397Y2417009D01*
X2547395Y2418046D01*
X2551245Y2419230D01*
X2554947Y2420415D01*
X2558205Y2421452D01*
X2561019Y2422636D01*
X2563536Y2423673D01*
X2565757Y2424709D01*
X2567386Y2425450D01*
X2568719Y2426042D01*
X2569459Y2426486D01*
X2569756Y2426634D01*
X2573902Y2429152D01*
X2577900Y2431817D01*
X2581602Y2434779D01*
X2585156Y2437741D01*
X2588266Y2440850D01*
X2591227Y2443960D01*
X2593893Y2446922D01*
X2596262Y2449883D01*
X2598335Y2452697D01*
X2600260Y2455362D01*
X2601889Y2457732D01*
X2603074Y2459805D01*
X2604111Y2461434D01*
X2604851Y2462766D01*
X2605295Y2463507D01*
X2605443Y2463803D01*
X2607665Y2468542D01*
X2609590Y2473280D01*
X2611219Y2478019D01*
X2612699Y2482906D01*
X2613884Y2487644D01*
X2614921Y2492235D01*
X2615809Y2496677D01*
X2616401Y2500972D01*
X2616994Y2504822D01*
X2617438Y2508524D01*
X2617586Y2511634D01*
X2617882Y2514299D01*
Y2516520D01*
X2618030Y2517557D01*
Y2519630D01*
X2617882Y2525257D01*
X2617586Y2530736D01*
X2616994Y2536067D01*
X2616105Y2541102D01*
X2615217Y2545989D01*
X2614180Y2550431D01*
X2613144Y2554725D01*
X2612107Y2558576D01*
X2610922Y2562129D01*
X2609886Y2565239D01*
X2608849Y2568053D01*
X2607961Y2570274D01*
X2607220Y2572199D01*
X2606628Y2573532D01*
X2606184Y2574272D01*
X2606036Y2574568D01*
X2603666Y2579011D01*
X2601149Y2583157D01*
X2598335Y2587007D01*
X2595522Y2590709D01*
X2592708Y2594115D01*
X2589747Y2597225D01*
X2586933Y2600038D01*
X2584120Y2602556D01*
X2581454Y2604777D01*
X2579085Y2606850D01*
X2576864Y2608479D01*
X2574938Y2609812D01*
X2573458Y2610997D01*
X2572273Y2611737D01*
X2571533Y2612181D01*
X2571236Y2612329D01*
X2566942Y2614699D01*
X2562500Y2616772D01*
X2558057Y2618697D01*
X2553615Y2620178D01*
X2549320Y2621510D01*
X2545026Y2622695D01*
X2540880Y2623584D01*
X2537029Y2624324D01*
X2533476Y2624768D01*
X2530218Y2625212D01*
X2527256Y2625509D01*
X2524739Y2625805D01*
X2522814D01*
X2521333Y2625953D01*
D02*
G37*
%LPD*%
G36*
X2523850Y2602408D02*
X2527552Y2602112D01*
X2531106Y2601667D01*
X2534364Y2600927D01*
X2537622Y2600187D01*
X2540583Y2599298D01*
X2543397Y2598410D01*
X2546062Y2597373D01*
X2548432Y2596485D01*
X2550505Y2595448D01*
X2552282Y2594559D01*
X2553911Y2593819D01*
X2555095Y2593079D01*
X2555984Y2592634D01*
X2556576Y2592338D01*
X2556724Y2592190D01*
X2559686Y2590117D01*
X2562500Y2588044D01*
X2565017Y2585675D01*
X2567534Y2583305D01*
X2569756Y2580936D01*
X2571681Y2578567D01*
X2573606Y2576197D01*
X2575235Y2573976D01*
X2576715Y2571755D01*
X2577900Y2569830D01*
X2578937Y2567905D01*
X2579825Y2566424D01*
X2580566Y2565091D01*
X2581010Y2564203D01*
X2581306Y2563462D01*
X2581454Y2563314D01*
X2582935Y2559760D01*
X2584268Y2556058D01*
X2585452Y2552356D01*
X2586489Y2548654D01*
X2587229Y2544952D01*
X2587970Y2541398D01*
X2588562Y2537844D01*
X2589006Y2534586D01*
X2589302Y2531477D01*
X2589599Y2528663D01*
X2589747Y2526146D01*
X2589895Y2523924D01*
X2590043Y2522147D01*
Y2520815D01*
Y2520074D01*
Y2519778D01*
X2589895Y2512522D01*
X2589154Y2505858D01*
X2588266Y2499491D01*
X2586933Y2493568D01*
X2585452Y2488088D01*
X2583823Y2483054D01*
X2582046Y2478611D01*
X2580121Y2474465D01*
X2578344Y2470763D01*
X2576419Y2467653D01*
X2574790Y2464988D01*
X2573310Y2462766D01*
X2571977Y2460989D01*
X2571088Y2459805D01*
X2570496Y2459064D01*
X2570200Y2458768D01*
X2566350Y2455066D01*
X2562351Y2451660D01*
X2558205Y2448847D01*
X2553911Y2446329D01*
X2549765Y2444256D01*
X2545618Y2442479D01*
X2541472Y2441147D01*
X2537622Y2439962D01*
X2533920Y2439073D01*
X2530514Y2438481D01*
X2527552Y2437889D01*
X2524887Y2437593D01*
X2522814Y2437444D01*
X2521925D01*
X2521185Y2437296D01*
X2519852D01*
X2514373Y2437593D01*
X2509042Y2438185D01*
X2504007Y2439221D01*
X2499417Y2440554D01*
X2494974Y2442183D01*
X2490828Y2443960D01*
X2486978Y2445885D01*
X2483572Y2447958D01*
X2480462Y2449883D01*
X2477649Y2451808D01*
X2475427Y2453585D01*
X2473354Y2455214D01*
X2471873Y2456547D01*
X2470689Y2457584D01*
X2470096Y2458176D01*
X2469800Y2458472D01*
X2466246Y2462618D01*
X2463285Y2467061D01*
X2460619Y2471799D01*
X2458398Y2476538D01*
X2456473Y2481425D01*
X2454844Y2486312D01*
X2453511Y2491050D01*
X2452475Y2495641D01*
X2451586Y2499935D01*
X2450994Y2503933D01*
X2450550Y2507635D01*
X2450253Y2510745D01*
X2450105Y2512078D01*
Y2513262D01*
Y2514299D01*
X2449957Y2515188D01*
Y2515928D01*
Y2516372D01*
Y2516668D01*
Y2516816D01*
Y2521111D01*
X2450253Y2525109D01*
X2450401Y2529107D01*
X2450846Y2532957D01*
X2451290Y2536511D01*
X2451882Y2540065D01*
X2453215Y2546581D01*
X2454844Y2552504D01*
X2456473Y2557983D01*
X2458398Y2562870D01*
X2460323Y2567164D01*
X2462248Y2570866D01*
X2464173Y2573976D01*
X2465950Y2576790D01*
X2467431Y2578863D01*
X2468764Y2580640D01*
X2469800Y2581824D01*
X2470393Y2582417D01*
X2470689Y2582713D01*
X2474687Y2586267D01*
X2478833Y2589229D01*
X2482980Y2591894D01*
X2487126Y2594263D01*
X2491420Y2596040D01*
X2495418Y2597669D01*
X2499417Y2599002D01*
X2503267Y2600038D01*
X2506673Y2600927D01*
X2509930Y2601519D01*
X2512892Y2601964D01*
X2515409Y2602260D01*
X2517335Y2602408D01*
X2518815Y2602556D01*
X2520148D01*
X2523850Y2602408D01*
D02*
G37*
%LPC*%
G36*
X2521333Y2085953D02*
X2520000D01*
X2516002Y2085805D01*
X2512152Y2085657D01*
X2508302Y2085212D01*
X2504600Y2084768D01*
X2497492Y2083287D01*
X2490680Y2081510D01*
X2484460Y2079289D01*
X2478685Y2076772D01*
X2473354Y2074254D01*
X2468468Y2071589D01*
X2464173Y2068775D01*
X2460323Y2066258D01*
X2457065Y2063741D01*
X2454400Y2061667D01*
X2452178Y2059742D01*
X2451290Y2059002D01*
X2450698Y2058262D01*
X2450105Y2057817D01*
X2449661Y2057373D01*
X2449513Y2057225D01*
X2449365Y2057077D01*
X2446848Y2054263D01*
X2444478Y2051450D01*
X2442405Y2048488D01*
X2440332Y2045378D01*
X2436630Y2039011D01*
X2433520Y2032495D01*
X2430855Y2025832D01*
X2428633Y2019168D01*
X2426856Y2012652D01*
X2425376Y2006285D01*
X2424339Y2000362D01*
X2423451Y1994882D01*
X2423154Y1992365D01*
X2422858Y1989996D01*
X2422562Y1987775D01*
X2422414Y1985701D01*
X2422266Y1983776D01*
X2422118Y1982147D01*
Y1980667D01*
X2421970Y1979482D01*
Y1977261D01*
X2422118Y1972226D01*
X2422414Y1967339D01*
X2423006Y1962601D01*
X2423747Y1957862D01*
X2424635Y1953420D01*
X2425672Y1949273D01*
X2426708Y1945275D01*
X2427893Y1941573D01*
X2428930Y1938167D01*
X2429966Y1935205D01*
X2431003Y1932540D01*
X2431891Y1930319D01*
X2432632Y1928394D01*
X2433224Y1927061D01*
X2433520Y1926321D01*
X2433668Y1926024D01*
X2436038Y1921582D01*
X2438555Y1917436D01*
X2441220Y1913585D01*
X2444034Y1909883D01*
X2446848Y1906478D01*
X2449661Y1903368D01*
X2452623Y1900554D01*
X2455288Y1897889D01*
X2457954Y1895668D01*
X2460323Y1893594D01*
X2462544Y1891965D01*
X2464469Y1890485D01*
X2465950Y1889448D01*
X2467135Y1888560D01*
X2467875Y1888115D01*
X2468171Y1887967D01*
X2472466Y1885450D01*
X2476908Y1883377D01*
X2481499Y1881452D01*
X2485941Y1879971D01*
X2490236Y1878638D01*
X2494530Y1877453D01*
X2498676Y1876565D01*
X2502674Y1875825D01*
X2506228Y1875232D01*
X2509634Y1874788D01*
X2512596Y1874492D01*
X2515113Y1874344D01*
X2517186Y1874196D01*
X2518667Y1874048D01*
X2520000D01*
X2524887Y1874196D01*
X2529773Y1874640D01*
X2534512Y1875232D01*
X2538955Y1875973D01*
X2543397Y1877009D01*
X2547395Y1878046D01*
X2551245Y1879230D01*
X2554947Y1880415D01*
X2558205Y1881452D01*
X2561019Y1882636D01*
X2563536Y1883673D01*
X2565757Y1884709D01*
X2567386Y1885450D01*
X2568719Y1886042D01*
X2569459Y1886486D01*
X2569756Y1886635D01*
X2573902Y1889152D01*
X2577900Y1891817D01*
X2581602Y1894779D01*
X2585156Y1897741D01*
X2588266Y1900850D01*
X2591227Y1903960D01*
X2593893Y1906922D01*
X2596262Y1909883D01*
X2598335Y1912697D01*
X2600260Y1915362D01*
X2601889Y1917732D01*
X2603074Y1919805D01*
X2604111Y1921434D01*
X2604851Y1922767D01*
X2605295Y1923507D01*
X2605443Y1923803D01*
X2607665Y1928542D01*
X2609590Y1933280D01*
X2611219Y1938019D01*
X2612699Y1942906D01*
X2613884Y1947644D01*
X2614921Y1952235D01*
X2615809Y1956677D01*
X2616401Y1960972D01*
X2616994Y1964822D01*
X2617438Y1968524D01*
X2617586Y1971634D01*
X2617882Y1974299D01*
Y1976520D01*
X2618030Y1977557D01*
Y1979630D01*
X2617882Y1985257D01*
X2617586Y1990736D01*
X2616994Y1996067D01*
X2616105Y2001102D01*
X2615217Y2005989D01*
X2614180Y2010431D01*
X2613144Y2014725D01*
X2612107Y2018576D01*
X2610922Y2022130D01*
X2609886Y2025239D01*
X2608849Y2028053D01*
X2607961Y2030274D01*
X2607220Y2032199D01*
X2606628Y2033532D01*
X2606184Y2034272D01*
X2606036Y2034568D01*
X2603666Y2039011D01*
X2601149Y2043157D01*
X2598335Y2047007D01*
X2595522Y2050709D01*
X2592708Y2054115D01*
X2589747Y2057225D01*
X2586933Y2060039D01*
X2584120Y2062556D01*
X2581454Y2064777D01*
X2579085Y2066850D01*
X2576864Y2068479D01*
X2574938Y2069812D01*
X2573458Y2070997D01*
X2572273Y2071737D01*
X2571533Y2072181D01*
X2571236Y2072329D01*
X2566942Y2074699D01*
X2562500Y2076772D01*
X2558057Y2078697D01*
X2553615Y2080178D01*
X2549320Y2081510D01*
X2545026Y2082695D01*
X2540880Y2083584D01*
X2537029Y2084324D01*
X2533476Y2084768D01*
X2530218Y2085212D01*
X2527256Y2085509D01*
X2524739Y2085805D01*
X2522814D01*
X2521333Y2085953D01*
D02*
G37*
%LPD*%
G36*
X2523850Y2062408D02*
X2527552Y2062112D01*
X2531106Y2061667D01*
X2534364Y2060927D01*
X2537622Y2060187D01*
X2540583Y2059298D01*
X2543397Y2058410D01*
X2546062Y2057373D01*
X2548432Y2056485D01*
X2550505Y2055448D01*
X2552282Y2054560D01*
X2553911Y2053819D01*
X2555095Y2053079D01*
X2555984Y2052634D01*
X2556576Y2052338D01*
X2556724Y2052190D01*
X2559686Y2050117D01*
X2562500Y2048044D01*
X2565017Y2045675D01*
X2567534Y2043305D01*
X2569756Y2040936D01*
X2571681Y2038567D01*
X2573606Y2036197D01*
X2575235Y2033976D01*
X2576715Y2031755D01*
X2577900Y2029830D01*
X2578937Y2027905D01*
X2579825Y2026424D01*
X2580566Y2025091D01*
X2581010Y2024203D01*
X2581306Y2023462D01*
X2581454Y2023314D01*
X2582935Y2019760D01*
X2584268Y2016058D01*
X2585452Y2012356D01*
X2586489Y2008654D01*
X2587229Y2004952D01*
X2587970Y2001398D01*
X2588562Y1997844D01*
X2589006Y1994586D01*
X2589302Y1991477D01*
X2589599Y1988663D01*
X2589747Y1986146D01*
X2589895Y1983924D01*
X2590043Y1982147D01*
Y1980815D01*
Y1980074D01*
Y1979778D01*
X2589895Y1972522D01*
X2589154Y1965858D01*
X2588266Y1959491D01*
X2586933Y1953568D01*
X2585452Y1948089D01*
X2583823Y1943054D01*
X2582046Y1938611D01*
X2580121Y1934465D01*
X2578344Y1930763D01*
X2576419Y1927653D01*
X2574790Y1924988D01*
X2573310Y1922767D01*
X2571977Y1920990D01*
X2571088Y1919805D01*
X2570496Y1919064D01*
X2570200Y1918768D01*
X2566350Y1915066D01*
X2562351Y1911660D01*
X2558205Y1908847D01*
X2553911Y1906329D01*
X2549765Y1904256D01*
X2545618Y1902479D01*
X2541472Y1901147D01*
X2537622Y1899962D01*
X2533920Y1899073D01*
X2530514Y1898481D01*
X2527552Y1897889D01*
X2524887Y1897593D01*
X2522814Y1897445D01*
X2521925D01*
X2521185Y1897296D01*
X2519852D01*
X2514373Y1897593D01*
X2509042Y1898185D01*
X2504007Y1899221D01*
X2499417Y1900554D01*
X2494974Y1902183D01*
X2490828Y1903960D01*
X2486978Y1905885D01*
X2483572Y1907958D01*
X2480462Y1909883D01*
X2477649Y1911808D01*
X2475427Y1913585D01*
X2473354Y1915214D01*
X2471873Y1916547D01*
X2470689Y1917584D01*
X2470096Y1918176D01*
X2469800Y1918472D01*
X2466246Y1922618D01*
X2463285Y1927061D01*
X2460619Y1931800D01*
X2458398Y1936538D01*
X2456473Y1941425D01*
X2454844Y1946312D01*
X2453511Y1951050D01*
X2452475Y1955641D01*
X2451586Y1959935D01*
X2450994Y1963933D01*
X2450550Y1967635D01*
X2450253Y1970745D01*
X2450105Y1972078D01*
Y1973262D01*
Y1974299D01*
X2449957Y1975188D01*
Y1975928D01*
Y1976372D01*
Y1976668D01*
Y1976816D01*
Y1981111D01*
X2450253Y1985109D01*
X2450401Y1989107D01*
X2450846Y1992957D01*
X2451290Y1996511D01*
X2451882Y2000065D01*
X2453215Y2006581D01*
X2454844Y2012504D01*
X2456473Y2017983D01*
X2458398Y2022870D01*
X2460323Y2027164D01*
X2462248Y2030866D01*
X2464173Y2033976D01*
X2465950Y2036790D01*
X2467431Y2038863D01*
X2468764Y2040640D01*
X2469800Y2041824D01*
X2470393Y2042417D01*
X2470689Y2042713D01*
X2474687Y2046267D01*
X2478833Y2049229D01*
X2482980Y2051894D01*
X2487126Y2054263D01*
X2491420Y2056040D01*
X2495418Y2057669D01*
X2499417Y2059002D01*
X2503267Y2060039D01*
X2506673Y2060927D01*
X2509930Y2061519D01*
X2512892Y2061964D01*
X2515409Y2062260D01*
X2517335Y2062408D01*
X2518815Y2062556D01*
X2520148D01*
X2523850Y2062408D01*
D02*
G37*
%LPC*%
G36*
X2521333Y1275953D02*
X2520000D01*
X2516002Y1275805D01*
X2512152Y1275657D01*
X2508302Y1275212D01*
X2504600Y1274768D01*
X2497492Y1273287D01*
X2490680Y1271510D01*
X2484460Y1269289D01*
X2478685Y1266772D01*
X2473354Y1264254D01*
X2468468Y1261589D01*
X2464173Y1258775D01*
X2460323Y1256258D01*
X2457065Y1253740D01*
X2454400Y1251667D01*
X2452178Y1249742D01*
X2451290Y1249002D01*
X2450698Y1248261D01*
X2450105Y1247817D01*
X2449661Y1247373D01*
X2449513Y1247225D01*
X2449365Y1247077D01*
X2446848Y1244263D01*
X2444478Y1241450D01*
X2442405Y1238488D01*
X2440332Y1235378D01*
X2436630Y1229011D01*
X2433520Y1222495D01*
X2430855Y1215831D01*
X2428633Y1209168D01*
X2426856Y1202652D01*
X2425376Y1196285D01*
X2424339Y1190361D01*
X2423451Y1184882D01*
X2423154Y1182365D01*
X2422858Y1179996D01*
X2422562Y1177774D01*
X2422414Y1175701D01*
X2422266Y1173776D01*
X2422118Y1172147D01*
Y1170666D01*
X2421970Y1169482D01*
Y1167261D01*
X2422118Y1162226D01*
X2422414Y1157339D01*
X2423006Y1152600D01*
X2423747Y1147862D01*
X2424635Y1143419D01*
X2425672Y1139273D01*
X2426708Y1135275D01*
X2427893Y1131573D01*
X2428930Y1128167D01*
X2429966Y1125205D01*
X2431003Y1122540D01*
X2431891Y1120319D01*
X2432632Y1118393D01*
X2433224Y1117061D01*
X2433520Y1116320D01*
X2433668Y1116024D01*
X2436038Y1111582D01*
X2438555Y1107435D01*
X2441220Y1103585D01*
X2444034Y1099883D01*
X2446848Y1096477D01*
X2449661Y1093368D01*
X2452623Y1090554D01*
X2455288Y1087889D01*
X2457954Y1085667D01*
X2460323Y1083594D01*
X2462544Y1081965D01*
X2464469Y1080485D01*
X2465950Y1079448D01*
X2467135Y1078559D01*
X2467875Y1078115D01*
X2468171Y1077967D01*
X2472466Y1075450D01*
X2476908Y1073377D01*
X2481499Y1071452D01*
X2485941Y1069971D01*
X2490236Y1068638D01*
X2494530Y1067453D01*
X2498676Y1066565D01*
X2502674Y1065824D01*
X2506228Y1065232D01*
X2509634Y1064788D01*
X2512596Y1064492D01*
X2515113Y1064344D01*
X2517186Y1064195D01*
X2518667Y1064047D01*
X2520000D01*
X2524887Y1064195D01*
X2529773Y1064640D01*
X2534512Y1065232D01*
X2538955Y1065972D01*
X2543397Y1067009D01*
X2547395Y1068046D01*
X2551245Y1069230D01*
X2554947Y1070415D01*
X2558205Y1071452D01*
X2561019Y1072636D01*
X2563536Y1073673D01*
X2565757Y1074709D01*
X2567386Y1075450D01*
X2568719Y1076042D01*
X2569459Y1076486D01*
X2569756Y1076634D01*
X2573902Y1079152D01*
X2577900Y1081817D01*
X2581602Y1084779D01*
X2585156Y1087741D01*
X2588266Y1090850D01*
X2591227Y1093960D01*
X2593893Y1096922D01*
X2596262Y1099883D01*
X2598335Y1102697D01*
X2600260Y1105362D01*
X2601889Y1107732D01*
X2603074Y1109805D01*
X2604111Y1111434D01*
X2604851Y1112766D01*
X2605295Y1113507D01*
X2605443Y1113803D01*
X2607665Y1118542D01*
X2609590Y1123280D01*
X2611219Y1128019D01*
X2612699Y1132906D01*
X2613884Y1137644D01*
X2614921Y1142235D01*
X2615809Y1146677D01*
X2616401Y1150972D01*
X2616994Y1154822D01*
X2617438Y1158524D01*
X2617586Y1161633D01*
X2617882Y1164299D01*
Y1166520D01*
X2618030Y1167557D01*
Y1169630D01*
X2617882Y1175257D01*
X2617586Y1180736D01*
X2616994Y1186067D01*
X2616105Y1191102D01*
X2615217Y1195988D01*
X2614180Y1200431D01*
X2613144Y1204725D01*
X2612107Y1208575D01*
X2610922Y1212129D01*
X2609886Y1215239D01*
X2608849Y1218053D01*
X2607961Y1220274D01*
X2607220Y1222199D01*
X2606628Y1223532D01*
X2606184Y1224272D01*
X2606036Y1224568D01*
X2603666Y1229011D01*
X2601149Y1233157D01*
X2598335Y1237007D01*
X2595522Y1240709D01*
X2592708Y1244115D01*
X2589747Y1247225D01*
X2586933Y1250038D01*
X2584120Y1252556D01*
X2581454Y1254777D01*
X2579085Y1256850D01*
X2576864Y1258479D01*
X2574938Y1259812D01*
X2573458Y1260996D01*
X2572273Y1261737D01*
X2571533Y1262181D01*
X2571236Y1262329D01*
X2566942Y1264699D01*
X2562500Y1266772D01*
X2558057Y1268697D01*
X2553615Y1270178D01*
X2549320Y1271510D01*
X2545026Y1272695D01*
X2540880Y1273583D01*
X2537029Y1274324D01*
X2533476Y1274768D01*
X2530218Y1275212D01*
X2527256Y1275508D01*
X2524739Y1275805D01*
X2522814D01*
X2521333Y1275953D01*
D02*
G37*
%LPD*%
G36*
X2523850Y1252408D02*
X2527552Y1252112D01*
X2531106Y1251667D01*
X2534364Y1250927D01*
X2537622Y1250186D01*
X2540583Y1249298D01*
X2543397Y1248409D01*
X2546062Y1247373D01*
X2548432Y1246484D01*
X2550505Y1245448D01*
X2552282Y1244559D01*
X2553911Y1243819D01*
X2555095Y1243079D01*
X2555984Y1242634D01*
X2556576Y1242338D01*
X2556724Y1242190D01*
X2559686Y1240117D01*
X2562500Y1238044D01*
X2565017Y1235674D01*
X2567534Y1233305D01*
X2569756Y1230936D01*
X2571681Y1228567D01*
X2573606Y1226197D01*
X2575235Y1223976D01*
X2576715Y1221755D01*
X2577900Y1219830D01*
X2578937Y1217905D01*
X2579825Y1216424D01*
X2580566Y1215091D01*
X2581010Y1214203D01*
X2581306Y1213462D01*
X2581454Y1213314D01*
X2582935Y1209760D01*
X2584268Y1206058D01*
X2585452Y1202356D01*
X2586489Y1198654D01*
X2587229Y1194952D01*
X2587970Y1191398D01*
X2588562Y1187844D01*
X2589006Y1184586D01*
X2589302Y1181476D01*
X2589599Y1178663D01*
X2589747Y1176145D01*
X2589895Y1173924D01*
X2590043Y1172147D01*
Y1170815D01*
Y1170074D01*
Y1169778D01*
X2589895Y1162522D01*
X2589154Y1155858D01*
X2588266Y1149491D01*
X2586933Y1143567D01*
X2585452Y1138088D01*
X2583823Y1133054D01*
X2582046Y1128611D01*
X2580121Y1124465D01*
X2578344Y1120763D01*
X2576419Y1117653D01*
X2574790Y1114988D01*
X2573310Y1112766D01*
X2571977Y1110989D01*
X2571088Y1109805D01*
X2570496Y1109064D01*
X2570200Y1108768D01*
X2566350Y1105066D01*
X2562351Y1101660D01*
X2558205Y1098847D01*
X2553911Y1096329D01*
X2549765Y1094256D01*
X2545618Y1092479D01*
X2541472Y1091146D01*
X2537622Y1089962D01*
X2533920Y1089073D01*
X2530514Y1088481D01*
X2527552Y1087889D01*
X2524887Y1087592D01*
X2522814Y1087444D01*
X2521925D01*
X2521185Y1087296D01*
X2519852D01*
X2514373Y1087592D01*
X2509042Y1088185D01*
X2504007Y1089221D01*
X2499417Y1090554D01*
X2494974Y1092183D01*
X2490828Y1093960D01*
X2486978Y1095885D01*
X2483572Y1097958D01*
X2480462Y1099883D01*
X2477649Y1101808D01*
X2475427Y1103585D01*
X2473354Y1105214D01*
X2471873Y1106547D01*
X2470689Y1107584D01*
X2470096Y1108176D01*
X2469800Y1108472D01*
X2466246Y1112618D01*
X2463285Y1117061D01*
X2460619Y1121799D01*
X2458398Y1126538D01*
X2456473Y1131425D01*
X2454844Y1136311D01*
X2453511Y1141050D01*
X2452475Y1145641D01*
X2451586Y1149935D01*
X2450994Y1153933D01*
X2450550Y1157635D01*
X2450253Y1160745D01*
X2450105Y1162078D01*
Y1163262D01*
Y1164299D01*
X2449957Y1165187D01*
Y1165928D01*
Y1166372D01*
Y1166668D01*
Y1166816D01*
Y1171111D01*
X2450253Y1175109D01*
X2450401Y1179107D01*
X2450846Y1182957D01*
X2451290Y1186511D01*
X2451882Y1190065D01*
X2453215Y1196581D01*
X2454844Y1202504D01*
X2456473Y1207983D01*
X2458398Y1212870D01*
X2460323Y1217164D01*
X2462248Y1220866D01*
X2464173Y1223976D01*
X2465950Y1226790D01*
X2467431Y1228863D01*
X2468764Y1230640D01*
X2469800Y1231824D01*
X2470393Y1232417D01*
X2470689Y1232713D01*
X2474687Y1236267D01*
X2478833Y1239228D01*
X2482980Y1241894D01*
X2487126Y1244263D01*
X2491420Y1246040D01*
X2495418Y1247669D01*
X2499417Y1249002D01*
X2503267Y1250038D01*
X2506673Y1250927D01*
X2509930Y1251519D01*
X2512892Y1251963D01*
X2515409Y1252260D01*
X2517335Y1252408D01*
X2518815Y1252556D01*
X2520148D01*
X2523850Y1252408D01*
D02*
G37*
%LPC*%
G36*
X2521333Y1815953D02*
X2520000D01*
X2516002Y1815805D01*
X2512152Y1815657D01*
X2508302Y1815212D01*
X2504600Y1814768D01*
X2497492Y1813287D01*
X2490680Y1811510D01*
X2484460Y1809289D01*
X2478685Y1806772D01*
X2473354Y1804254D01*
X2468468Y1801589D01*
X2464173Y1798775D01*
X2460323Y1796258D01*
X2457065Y1793740D01*
X2454400Y1791667D01*
X2452178Y1789742D01*
X2451290Y1789002D01*
X2450698Y1788261D01*
X2450105Y1787817D01*
X2449661Y1787373D01*
X2449513Y1787225D01*
X2449365Y1787077D01*
X2446848Y1784263D01*
X2444478Y1781450D01*
X2442405Y1778488D01*
X2440332Y1775378D01*
X2436630Y1769011D01*
X2433520Y1762495D01*
X2430855Y1755831D01*
X2428633Y1749168D01*
X2426856Y1742652D01*
X2425376Y1736285D01*
X2424339Y1730361D01*
X2423451Y1724882D01*
X2423154Y1722365D01*
X2422858Y1719996D01*
X2422562Y1717774D01*
X2422414Y1715701D01*
X2422266Y1713776D01*
X2422118Y1712147D01*
Y1710666D01*
X2421970Y1709482D01*
Y1707260D01*
X2422118Y1702226D01*
X2422414Y1697339D01*
X2423006Y1692600D01*
X2423747Y1687862D01*
X2424635Y1683419D01*
X2425672Y1679273D01*
X2426708Y1675275D01*
X2427893Y1671573D01*
X2428930Y1668167D01*
X2429966Y1665205D01*
X2431003Y1662540D01*
X2431891Y1660318D01*
X2432632Y1658393D01*
X2433224Y1657061D01*
X2433520Y1656320D01*
X2433668Y1656024D01*
X2436038Y1651582D01*
X2438555Y1647435D01*
X2441220Y1643585D01*
X2444034Y1639883D01*
X2446848Y1636477D01*
X2449661Y1633368D01*
X2452623Y1630554D01*
X2455288Y1627889D01*
X2457954Y1625667D01*
X2460323Y1623594D01*
X2462544Y1621965D01*
X2464469Y1620484D01*
X2465950Y1619448D01*
X2467135Y1618559D01*
X2467875Y1618115D01*
X2468171Y1617967D01*
X2472466Y1615450D01*
X2476908Y1613377D01*
X2481499Y1611451D01*
X2485941Y1609971D01*
X2490236Y1608638D01*
X2494530Y1607453D01*
X2498676Y1606565D01*
X2502674Y1605824D01*
X2506228Y1605232D01*
X2509634Y1604788D01*
X2512596Y1604492D01*
X2515113Y1604344D01*
X2517186Y1604195D01*
X2518667Y1604047D01*
X2520000D01*
X2524887Y1604195D01*
X2529773Y1604640D01*
X2534512Y1605232D01*
X2538955Y1605972D01*
X2543397Y1607009D01*
X2547395Y1608046D01*
X2551245Y1609230D01*
X2554947Y1610415D01*
X2558205Y1611451D01*
X2561019Y1612636D01*
X2563536Y1613673D01*
X2565757Y1614709D01*
X2567386Y1615450D01*
X2568719Y1616042D01*
X2569459Y1616486D01*
X2569756Y1616634D01*
X2573902Y1619152D01*
X2577900Y1621817D01*
X2581602Y1624779D01*
X2585156Y1627740D01*
X2588266Y1630850D01*
X2591227Y1633960D01*
X2593893Y1636922D01*
X2596262Y1639883D01*
X2598335Y1642697D01*
X2600260Y1645362D01*
X2601889Y1647732D01*
X2603074Y1649805D01*
X2604111Y1651434D01*
X2604851Y1652766D01*
X2605295Y1653507D01*
X2605443Y1653803D01*
X2607665Y1658542D01*
X2609590Y1663280D01*
X2611219Y1668019D01*
X2612699Y1672905D01*
X2613884Y1677644D01*
X2614921Y1682235D01*
X2615809Y1686677D01*
X2616401Y1690971D01*
X2616994Y1694822D01*
X2617438Y1698524D01*
X2617586Y1701633D01*
X2617882Y1704299D01*
Y1706520D01*
X2618030Y1707557D01*
Y1709630D01*
X2617882Y1715257D01*
X2617586Y1720736D01*
X2616994Y1726067D01*
X2616105Y1731102D01*
X2615217Y1735988D01*
X2614180Y1740431D01*
X2613144Y1744725D01*
X2612107Y1748575D01*
X2610922Y1752129D01*
X2609886Y1755239D01*
X2608849Y1758053D01*
X2607961Y1760274D01*
X2607220Y1762199D01*
X2606628Y1763532D01*
X2606184Y1764272D01*
X2606036Y1764568D01*
X2603666Y1769011D01*
X2601149Y1773157D01*
X2598335Y1777007D01*
X2595522Y1780709D01*
X2592708Y1784115D01*
X2589747Y1787225D01*
X2586933Y1790038D01*
X2584120Y1792556D01*
X2581454Y1794777D01*
X2579085Y1796850D01*
X2576864Y1798479D01*
X2574938Y1799812D01*
X2573458Y1800996D01*
X2572273Y1801737D01*
X2571533Y1802181D01*
X2571236Y1802329D01*
X2566942Y1804698D01*
X2562500Y1806772D01*
X2558057Y1808697D01*
X2553615Y1810177D01*
X2549320Y1811510D01*
X2545026Y1812695D01*
X2540880Y1813583D01*
X2537029Y1814324D01*
X2533476Y1814768D01*
X2530218Y1815212D01*
X2527256Y1815508D01*
X2524739Y1815805D01*
X2522814D01*
X2521333Y1815953D01*
D02*
G37*
%LPD*%
G36*
X2523850Y1792408D02*
X2527552Y1792111D01*
X2531106Y1791667D01*
X2534364Y1790927D01*
X2537622Y1790186D01*
X2540583Y1789298D01*
X2543397Y1788409D01*
X2546062Y1787373D01*
X2548432Y1786484D01*
X2550505Y1785448D01*
X2552282Y1784559D01*
X2553911Y1783819D01*
X2555095Y1783078D01*
X2555984Y1782634D01*
X2556576Y1782338D01*
X2556724Y1782190D01*
X2559686Y1780117D01*
X2562500Y1778044D01*
X2565017Y1775674D01*
X2567534Y1773305D01*
X2569756Y1770936D01*
X2571681Y1768566D01*
X2573606Y1766197D01*
X2575235Y1763976D01*
X2576715Y1761755D01*
X2577900Y1759830D01*
X2578937Y1757905D01*
X2579825Y1756424D01*
X2580566Y1755091D01*
X2581010Y1754202D01*
X2581306Y1753462D01*
X2581454Y1753314D01*
X2582935Y1749760D01*
X2584268Y1746058D01*
X2585452Y1742356D01*
X2586489Y1738654D01*
X2587229Y1734952D01*
X2587970Y1731398D01*
X2588562Y1727844D01*
X2589006Y1724586D01*
X2589302Y1721476D01*
X2589599Y1718663D01*
X2589747Y1716145D01*
X2589895Y1713924D01*
X2590043Y1712147D01*
Y1710814D01*
Y1710074D01*
Y1709778D01*
X2589895Y1702522D01*
X2589154Y1695858D01*
X2588266Y1689491D01*
X2586933Y1683567D01*
X2585452Y1678088D01*
X2583823Y1673054D01*
X2582046Y1668611D01*
X2580121Y1664465D01*
X2578344Y1660763D01*
X2576419Y1657653D01*
X2574790Y1654988D01*
X2573310Y1652766D01*
X2571977Y1650989D01*
X2571088Y1649805D01*
X2570496Y1649064D01*
X2570200Y1648768D01*
X2566350Y1645066D01*
X2562351Y1641660D01*
X2558205Y1638847D01*
X2553911Y1636329D01*
X2549765Y1634256D01*
X2545618Y1632479D01*
X2541472Y1631146D01*
X2537622Y1629962D01*
X2533920Y1629073D01*
X2530514Y1628481D01*
X2527552Y1627889D01*
X2524887Y1627592D01*
X2522814Y1627444D01*
X2521925D01*
X2521185Y1627296D01*
X2519852D01*
X2514373Y1627592D01*
X2509042Y1628185D01*
X2504007Y1629221D01*
X2499417Y1630554D01*
X2494974Y1632183D01*
X2490828Y1633960D01*
X2486978Y1635885D01*
X2483572Y1637958D01*
X2480462Y1639883D01*
X2477649Y1641808D01*
X2475427Y1643585D01*
X2473354Y1645214D01*
X2471873Y1646547D01*
X2470689Y1647583D01*
X2470096Y1648176D01*
X2469800Y1648472D01*
X2466246Y1652618D01*
X2463285Y1657061D01*
X2460619Y1661799D01*
X2458398Y1666538D01*
X2456473Y1671425D01*
X2454844Y1676311D01*
X2453511Y1681050D01*
X2452475Y1685641D01*
X2451586Y1689935D01*
X2450994Y1693933D01*
X2450550Y1697635D01*
X2450253Y1700745D01*
X2450105Y1702078D01*
Y1703262D01*
Y1704299D01*
X2449957Y1705187D01*
Y1705928D01*
Y1706372D01*
Y1706668D01*
Y1706816D01*
Y1711111D01*
X2450253Y1715109D01*
X2450401Y1719107D01*
X2450846Y1722957D01*
X2451290Y1726511D01*
X2451882Y1730065D01*
X2453215Y1736581D01*
X2454844Y1742504D01*
X2456473Y1747983D01*
X2458398Y1752870D01*
X2460323Y1757164D01*
X2462248Y1760866D01*
X2464173Y1763976D01*
X2465950Y1766789D01*
X2467431Y1768863D01*
X2468764Y1770640D01*
X2469800Y1771824D01*
X2470393Y1772417D01*
X2470689Y1772713D01*
X2474687Y1776267D01*
X2478833Y1779228D01*
X2482980Y1781894D01*
X2487126Y1784263D01*
X2491420Y1786040D01*
X2495418Y1787669D01*
X2499417Y1789002D01*
X2503267Y1790038D01*
X2506673Y1790927D01*
X2509930Y1791519D01*
X2512892Y1791963D01*
X2515409Y1792260D01*
X2517335Y1792408D01*
X2518815Y1792556D01*
X2520148D01*
X2523850Y1792408D01*
D02*
G37*
%LPC*%
G36*
X2521333Y1545953D02*
X2520000D01*
X2516002Y1545805D01*
X2512152Y1545657D01*
X2508302Y1545212D01*
X2504600Y1544768D01*
X2497492Y1543287D01*
X2490680Y1541510D01*
X2484460Y1539289D01*
X2478685Y1536772D01*
X2473354Y1534254D01*
X2468468Y1531589D01*
X2464173Y1528775D01*
X2460323Y1526258D01*
X2457065Y1523740D01*
X2454400Y1521667D01*
X2452178Y1519742D01*
X2451290Y1519002D01*
X2450698Y1518261D01*
X2450105Y1517817D01*
X2449661Y1517373D01*
X2449513Y1517225D01*
X2449365Y1517077D01*
X2446848Y1514263D01*
X2444478Y1511450D01*
X2442405Y1508488D01*
X2440332Y1505378D01*
X2436630Y1499011D01*
X2433520Y1492495D01*
X2430855Y1485831D01*
X2428633Y1479168D01*
X2426856Y1472652D01*
X2425376Y1466285D01*
X2424339Y1460361D01*
X2423451Y1454882D01*
X2423154Y1452365D01*
X2422858Y1449996D01*
X2422562Y1447774D01*
X2422414Y1445701D01*
X2422266Y1443776D01*
X2422118Y1442147D01*
Y1440666D01*
X2421970Y1439482D01*
Y1437261D01*
X2422118Y1432226D01*
X2422414Y1427339D01*
X2423006Y1422600D01*
X2423747Y1417862D01*
X2424635Y1413419D01*
X2425672Y1409273D01*
X2426708Y1405275D01*
X2427893Y1401573D01*
X2428930Y1398167D01*
X2429966Y1395205D01*
X2431003Y1392540D01*
X2431891Y1390319D01*
X2432632Y1388393D01*
X2433224Y1387061D01*
X2433520Y1386320D01*
X2433668Y1386024D01*
X2436038Y1381582D01*
X2438555Y1377435D01*
X2441220Y1373585D01*
X2444034Y1369883D01*
X2446848Y1366477D01*
X2449661Y1363368D01*
X2452623Y1360554D01*
X2455288Y1357889D01*
X2457954Y1355667D01*
X2460323Y1353594D01*
X2462544Y1351965D01*
X2464469Y1350484D01*
X2465950Y1349448D01*
X2467135Y1348559D01*
X2467875Y1348115D01*
X2468171Y1347967D01*
X2472466Y1345450D01*
X2476908Y1343377D01*
X2481499Y1341451D01*
X2485941Y1339971D01*
X2490236Y1338638D01*
X2494530Y1337453D01*
X2498676Y1336565D01*
X2502674Y1335824D01*
X2506228Y1335232D01*
X2509634Y1334788D01*
X2512596Y1334492D01*
X2515113Y1334344D01*
X2517186Y1334195D01*
X2518667Y1334047D01*
X2520000D01*
X2524887Y1334195D01*
X2529773Y1334640D01*
X2534512Y1335232D01*
X2538955Y1335972D01*
X2543397Y1337009D01*
X2547395Y1338046D01*
X2551245Y1339230D01*
X2554947Y1340415D01*
X2558205Y1341451D01*
X2561019Y1342636D01*
X2563536Y1343673D01*
X2565757Y1344709D01*
X2567386Y1345450D01*
X2568719Y1346042D01*
X2569459Y1346486D01*
X2569756Y1346634D01*
X2573902Y1349152D01*
X2577900Y1351817D01*
X2581602Y1354779D01*
X2585156Y1357740D01*
X2588266Y1360850D01*
X2591227Y1363960D01*
X2593893Y1366922D01*
X2596262Y1369883D01*
X2598335Y1372697D01*
X2600260Y1375362D01*
X2601889Y1377732D01*
X2603074Y1379805D01*
X2604111Y1381434D01*
X2604851Y1382766D01*
X2605295Y1383507D01*
X2605443Y1383803D01*
X2607665Y1388542D01*
X2609590Y1393280D01*
X2611219Y1398019D01*
X2612699Y1402905D01*
X2613884Y1407644D01*
X2614921Y1412235D01*
X2615809Y1416677D01*
X2616401Y1420972D01*
X2616994Y1424822D01*
X2617438Y1428524D01*
X2617586Y1431633D01*
X2617882Y1434299D01*
Y1436520D01*
X2618030Y1437557D01*
Y1439630D01*
X2617882Y1445257D01*
X2617586Y1450736D01*
X2616994Y1456067D01*
X2616105Y1461102D01*
X2615217Y1465988D01*
X2614180Y1470431D01*
X2613144Y1474725D01*
X2612107Y1478575D01*
X2610922Y1482129D01*
X2609886Y1485239D01*
X2608849Y1488053D01*
X2607961Y1490274D01*
X2607220Y1492199D01*
X2606628Y1493532D01*
X2606184Y1494272D01*
X2606036Y1494568D01*
X2603666Y1499011D01*
X2601149Y1503157D01*
X2598335Y1507007D01*
X2595522Y1510709D01*
X2592708Y1514115D01*
X2589747Y1517225D01*
X2586933Y1520038D01*
X2584120Y1522556D01*
X2581454Y1524777D01*
X2579085Y1526850D01*
X2576864Y1528479D01*
X2574938Y1529812D01*
X2573458Y1530996D01*
X2572273Y1531737D01*
X2571533Y1532181D01*
X2571236Y1532329D01*
X2566942Y1534698D01*
X2562500Y1536772D01*
X2558057Y1538697D01*
X2553615Y1540178D01*
X2549320Y1541510D01*
X2545026Y1542695D01*
X2540880Y1543583D01*
X2537029Y1544324D01*
X2533476Y1544768D01*
X2530218Y1545212D01*
X2527256Y1545508D01*
X2524739Y1545805D01*
X2522814D01*
X2521333Y1545953D01*
D02*
G37*
%LPD*%
G36*
X2523850Y1522408D02*
X2527552Y1522112D01*
X2531106Y1521667D01*
X2534364Y1520927D01*
X2537622Y1520186D01*
X2540583Y1519298D01*
X2543397Y1518409D01*
X2546062Y1517373D01*
X2548432Y1516484D01*
X2550505Y1515448D01*
X2552282Y1514559D01*
X2553911Y1513819D01*
X2555095Y1513079D01*
X2555984Y1512634D01*
X2556576Y1512338D01*
X2556724Y1512190D01*
X2559686Y1510117D01*
X2562500Y1508044D01*
X2565017Y1505674D01*
X2567534Y1503305D01*
X2569756Y1500936D01*
X2571681Y1498566D01*
X2573606Y1496197D01*
X2575235Y1493976D01*
X2576715Y1491755D01*
X2577900Y1489830D01*
X2578937Y1487905D01*
X2579825Y1486424D01*
X2580566Y1485091D01*
X2581010Y1484203D01*
X2581306Y1483462D01*
X2581454Y1483314D01*
X2582935Y1479760D01*
X2584268Y1476058D01*
X2585452Y1472356D01*
X2586489Y1468654D01*
X2587229Y1464952D01*
X2587970Y1461398D01*
X2588562Y1457844D01*
X2589006Y1454586D01*
X2589302Y1451476D01*
X2589599Y1448663D01*
X2589747Y1446145D01*
X2589895Y1443924D01*
X2590043Y1442147D01*
Y1440814D01*
Y1440074D01*
Y1439778D01*
X2589895Y1432522D01*
X2589154Y1425858D01*
X2588266Y1419491D01*
X2586933Y1413567D01*
X2585452Y1408088D01*
X2583823Y1403054D01*
X2582046Y1398611D01*
X2580121Y1394465D01*
X2578344Y1390763D01*
X2576419Y1387653D01*
X2574790Y1384988D01*
X2573310Y1382766D01*
X2571977Y1380989D01*
X2571088Y1379805D01*
X2570496Y1379064D01*
X2570200Y1378768D01*
X2566350Y1375066D01*
X2562351Y1371660D01*
X2558205Y1368847D01*
X2553911Y1366329D01*
X2549765Y1364256D01*
X2545618Y1362479D01*
X2541472Y1361146D01*
X2537622Y1359962D01*
X2533920Y1359073D01*
X2530514Y1358481D01*
X2527552Y1357889D01*
X2524887Y1357592D01*
X2522814Y1357444D01*
X2521925D01*
X2521185Y1357296D01*
X2519852D01*
X2514373Y1357592D01*
X2509042Y1358185D01*
X2504007Y1359221D01*
X2499417Y1360554D01*
X2494974Y1362183D01*
X2490828Y1363960D01*
X2486978Y1365885D01*
X2483572Y1367958D01*
X2480462Y1369883D01*
X2477649Y1371808D01*
X2475427Y1373585D01*
X2473354Y1375214D01*
X2471873Y1376547D01*
X2470689Y1377583D01*
X2470096Y1378176D01*
X2469800Y1378472D01*
X2466246Y1382618D01*
X2463285Y1387061D01*
X2460619Y1391799D01*
X2458398Y1396538D01*
X2456473Y1401425D01*
X2454844Y1406311D01*
X2453511Y1411050D01*
X2452475Y1415641D01*
X2451586Y1419935D01*
X2450994Y1423933D01*
X2450550Y1427635D01*
X2450253Y1430745D01*
X2450105Y1432078D01*
Y1433262D01*
Y1434299D01*
X2449957Y1435187D01*
Y1435928D01*
Y1436372D01*
Y1436668D01*
Y1436816D01*
Y1441111D01*
X2450253Y1445109D01*
X2450401Y1449107D01*
X2450846Y1452957D01*
X2451290Y1456511D01*
X2451882Y1460065D01*
X2453215Y1466581D01*
X2454844Y1472504D01*
X2456473Y1477983D01*
X2458398Y1482870D01*
X2460323Y1487164D01*
X2462248Y1490866D01*
X2464173Y1493976D01*
X2465950Y1496789D01*
X2467431Y1498863D01*
X2468764Y1500640D01*
X2469800Y1501824D01*
X2470393Y1502417D01*
X2470689Y1502713D01*
X2474687Y1506267D01*
X2478833Y1509228D01*
X2482980Y1511894D01*
X2487126Y1514263D01*
X2491420Y1516040D01*
X2495418Y1517669D01*
X2499417Y1519002D01*
X2503267Y1520038D01*
X2506673Y1520927D01*
X2509930Y1521519D01*
X2512892Y1521963D01*
X2515409Y1522260D01*
X2517335Y1522408D01*
X2518815Y1522556D01*
X2520148D01*
X2523850Y1522408D01*
D02*
G37*
%LPC*%
G36*
X2521333Y2895953D02*
X2520000D01*
X2516002Y2895805D01*
X2512152Y2895657D01*
X2508302Y2895212D01*
X2504600Y2894768D01*
X2497492Y2893287D01*
X2490680Y2891510D01*
X2484460Y2889289D01*
X2478685Y2886772D01*
X2473354Y2884254D01*
X2468468Y2881589D01*
X2464173Y2878775D01*
X2460323Y2876258D01*
X2457065Y2873741D01*
X2454400Y2871667D01*
X2452178Y2869742D01*
X2451290Y2869002D01*
X2450698Y2868261D01*
X2450105Y2867817D01*
X2449661Y2867373D01*
X2449513Y2867225D01*
X2449365Y2867077D01*
X2446848Y2864263D01*
X2444478Y2861450D01*
X2442405Y2858488D01*
X2440332Y2855378D01*
X2436630Y2849011D01*
X2433520Y2842495D01*
X2430855Y2835832D01*
X2428633Y2829168D01*
X2426856Y2822652D01*
X2425376Y2816285D01*
X2424339Y2810361D01*
X2423451Y2804882D01*
X2423154Y2802365D01*
X2422858Y2799996D01*
X2422562Y2797774D01*
X2422414Y2795701D01*
X2422266Y2793776D01*
X2422118Y2792147D01*
Y2790667D01*
X2421970Y2789482D01*
Y2787261D01*
X2422118Y2782226D01*
X2422414Y2777339D01*
X2423006Y2772600D01*
X2423747Y2767862D01*
X2424635Y2763419D01*
X2425672Y2759273D01*
X2426708Y2755275D01*
X2427893Y2751573D01*
X2428930Y2748167D01*
X2429966Y2745205D01*
X2431003Y2742540D01*
X2431891Y2740319D01*
X2432632Y2738394D01*
X2433224Y2737061D01*
X2433520Y2736320D01*
X2433668Y2736024D01*
X2436038Y2731582D01*
X2438555Y2727435D01*
X2441220Y2723585D01*
X2444034Y2719883D01*
X2446848Y2716477D01*
X2449661Y2713368D01*
X2452623Y2710554D01*
X2455288Y2707889D01*
X2457954Y2705667D01*
X2460323Y2703594D01*
X2462544Y2701965D01*
X2464469Y2700485D01*
X2465950Y2699448D01*
X2467135Y2698560D01*
X2467875Y2698115D01*
X2468171Y2697967D01*
X2472466Y2695450D01*
X2476908Y2693377D01*
X2481499Y2691452D01*
X2485941Y2689971D01*
X2490236Y2688638D01*
X2494530Y2687453D01*
X2498676Y2686565D01*
X2502674Y2685824D01*
X2506228Y2685232D01*
X2509634Y2684788D01*
X2512596Y2684492D01*
X2515113Y2684344D01*
X2517186Y2684196D01*
X2518667Y2684047D01*
X2520000D01*
X2524887Y2684196D01*
X2529773Y2684640D01*
X2534512Y2685232D01*
X2538955Y2685973D01*
X2543397Y2687009D01*
X2547395Y2688046D01*
X2551245Y2689230D01*
X2554947Y2690415D01*
X2558205Y2691452D01*
X2561019Y2692636D01*
X2563536Y2693673D01*
X2565757Y2694709D01*
X2567386Y2695450D01*
X2568719Y2696042D01*
X2569459Y2696486D01*
X2569756Y2696634D01*
X2573902Y2699152D01*
X2577900Y2701817D01*
X2581602Y2704779D01*
X2585156Y2707741D01*
X2588266Y2710850D01*
X2591227Y2713960D01*
X2593893Y2716922D01*
X2596262Y2719883D01*
X2598335Y2722697D01*
X2600260Y2725362D01*
X2601889Y2727732D01*
X2603074Y2729805D01*
X2604111Y2731434D01*
X2604851Y2732766D01*
X2605295Y2733507D01*
X2605443Y2733803D01*
X2607665Y2738542D01*
X2609590Y2743280D01*
X2611219Y2748019D01*
X2612699Y2752906D01*
X2613884Y2757644D01*
X2614921Y2762235D01*
X2615809Y2766677D01*
X2616401Y2770972D01*
X2616994Y2774822D01*
X2617438Y2778524D01*
X2617586Y2781634D01*
X2617882Y2784299D01*
Y2786520D01*
X2618030Y2787557D01*
Y2789630D01*
X2617882Y2795257D01*
X2617586Y2800736D01*
X2616994Y2806067D01*
X2616105Y2811102D01*
X2615217Y2815989D01*
X2614180Y2820431D01*
X2613144Y2824725D01*
X2612107Y2828575D01*
X2610922Y2832129D01*
X2609886Y2835239D01*
X2608849Y2838053D01*
X2607961Y2840274D01*
X2607220Y2842199D01*
X2606628Y2843532D01*
X2606184Y2844272D01*
X2606036Y2844568D01*
X2603666Y2849011D01*
X2601149Y2853157D01*
X2598335Y2857007D01*
X2595522Y2860709D01*
X2592708Y2864115D01*
X2589747Y2867225D01*
X2586933Y2870038D01*
X2584120Y2872556D01*
X2581454Y2874777D01*
X2579085Y2876850D01*
X2576864Y2878479D01*
X2574938Y2879812D01*
X2573458Y2880997D01*
X2572273Y2881737D01*
X2571533Y2882181D01*
X2571236Y2882329D01*
X2566942Y2884699D01*
X2562500Y2886772D01*
X2558057Y2888697D01*
X2553615Y2890178D01*
X2549320Y2891510D01*
X2545026Y2892695D01*
X2540880Y2893583D01*
X2537029Y2894324D01*
X2533476Y2894768D01*
X2530218Y2895212D01*
X2527256Y2895509D01*
X2524739Y2895805D01*
X2522814D01*
X2521333Y2895953D01*
D02*
G37*
%LPD*%
G36*
X2523850Y2872408D02*
X2527552Y2872112D01*
X2531106Y2871667D01*
X2534364Y2870927D01*
X2537622Y2870187D01*
X2540583Y2869298D01*
X2543397Y2868410D01*
X2546062Y2867373D01*
X2548432Y2866484D01*
X2550505Y2865448D01*
X2552282Y2864559D01*
X2553911Y2863819D01*
X2555095Y2863079D01*
X2555984Y2862634D01*
X2556576Y2862338D01*
X2556724Y2862190D01*
X2559686Y2860117D01*
X2562500Y2858044D01*
X2565017Y2855675D01*
X2567534Y2853305D01*
X2569756Y2850936D01*
X2571681Y2848567D01*
X2573606Y2846197D01*
X2575235Y2843976D01*
X2576715Y2841755D01*
X2577900Y2839830D01*
X2578937Y2837905D01*
X2579825Y2836424D01*
X2580566Y2835091D01*
X2581010Y2834203D01*
X2581306Y2833462D01*
X2581454Y2833314D01*
X2582935Y2829760D01*
X2584268Y2826058D01*
X2585452Y2822356D01*
X2586489Y2818654D01*
X2587229Y2814952D01*
X2587970Y2811398D01*
X2588562Y2807844D01*
X2589006Y2804586D01*
X2589302Y2801476D01*
X2589599Y2798663D01*
X2589747Y2796146D01*
X2589895Y2793924D01*
X2590043Y2792147D01*
Y2790815D01*
Y2790074D01*
Y2789778D01*
X2589895Y2782522D01*
X2589154Y2775858D01*
X2588266Y2769491D01*
X2586933Y2763567D01*
X2585452Y2758088D01*
X2583823Y2753054D01*
X2582046Y2748611D01*
X2580121Y2744465D01*
X2578344Y2740763D01*
X2576419Y2737653D01*
X2574790Y2734988D01*
X2573310Y2732766D01*
X2571977Y2730989D01*
X2571088Y2729805D01*
X2570496Y2729064D01*
X2570200Y2728768D01*
X2566350Y2725066D01*
X2562351Y2721660D01*
X2558205Y2718847D01*
X2553911Y2716329D01*
X2549765Y2714256D01*
X2545618Y2712479D01*
X2541472Y2711146D01*
X2537622Y2709962D01*
X2533920Y2709073D01*
X2530514Y2708481D01*
X2527552Y2707889D01*
X2524887Y2707593D01*
X2522814Y2707444D01*
X2521925D01*
X2521185Y2707296D01*
X2519852D01*
X2514373Y2707593D01*
X2509042Y2708185D01*
X2504007Y2709221D01*
X2499417Y2710554D01*
X2494974Y2712183D01*
X2490828Y2713960D01*
X2486978Y2715885D01*
X2483572Y2717958D01*
X2480462Y2719883D01*
X2477649Y2721808D01*
X2475427Y2723585D01*
X2473354Y2725214D01*
X2471873Y2726547D01*
X2470689Y2727584D01*
X2470096Y2728176D01*
X2469800Y2728472D01*
X2466246Y2732618D01*
X2463285Y2737061D01*
X2460619Y2741799D01*
X2458398Y2746538D01*
X2456473Y2751425D01*
X2454844Y2756311D01*
X2453511Y2761050D01*
X2452475Y2765641D01*
X2451586Y2769935D01*
X2450994Y2773933D01*
X2450550Y2777635D01*
X2450253Y2780745D01*
X2450105Y2782078D01*
Y2783262D01*
Y2784299D01*
X2449957Y2785187D01*
Y2785928D01*
Y2786372D01*
Y2786668D01*
Y2786816D01*
Y2791111D01*
X2450253Y2795109D01*
X2450401Y2799107D01*
X2450846Y2802957D01*
X2451290Y2806511D01*
X2451882Y2810065D01*
X2453215Y2816581D01*
X2454844Y2822504D01*
X2456473Y2827983D01*
X2458398Y2832870D01*
X2460323Y2837164D01*
X2462248Y2840866D01*
X2464173Y2843976D01*
X2465950Y2846790D01*
X2467431Y2848863D01*
X2468764Y2850640D01*
X2469800Y2851824D01*
X2470393Y2852417D01*
X2470689Y2852713D01*
X2474687Y2856267D01*
X2478833Y2859228D01*
X2482980Y2861894D01*
X2487126Y2864263D01*
X2491420Y2866040D01*
X2495418Y2867669D01*
X2499417Y2869002D01*
X2503267Y2870038D01*
X2506673Y2870927D01*
X2509930Y2871519D01*
X2512892Y2871964D01*
X2515409Y2872260D01*
X2517335Y2872408D01*
X2518815Y2872556D01*
X2520148D01*
X2523850Y2872408D01*
D02*
G37*
%LPC*%
G36*
X2521333Y2355953D02*
X2520000D01*
X2516002Y2355805D01*
X2512152Y2355657D01*
X2508302Y2355212D01*
X2504600Y2354768D01*
X2497492Y2353287D01*
X2490680Y2351510D01*
X2484460Y2349289D01*
X2478685Y2346772D01*
X2473354Y2344254D01*
X2468468Y2341589D01*
X2464173Y2338775D01*
X2460323Y2336258D01*
X2457065Y2333741D01*
X2454400Y2331667D01*
X2452178Y2329742D01*
X2451290Y2329002D01*
X2450698Y2328262D01*
X2450105Y2327817D01*
X2449661Y2327373D01*
X2449513Y2327225D01*
X2449365Y2327077D01*
X2446848Y2324263D01*
X2444478Y2321450D01*
X2442405Y2318488D01*
X2440332Y2315378D01*
X2436630Y2309011D01*
X2433520Y2302495D01*
X2430855Y2295832D01*
X2428633Y2289168D01*
X2426856Y2282652D01*
X2425376Y2276285D01*
X2424339Y2270361D01*
X2423451Y2264882D01*
X2423154Y2262365D01*
X2422858Y2259996D01*
X2422562Y2257775D01*
X2422414Y2255701D01*
X2422266Y2253776D01*
X2422118Y2252147D01*
Y2250667D01*
X2421970Y2249482D01*
Y2247261D01*
X2422118Y2242226D01*
X2422414Y2237339D01*
X2423006Y2232601D01*
X2423747Y2227862D01*
X2424635Y2223419D01*
X2425672Y2219273D01*
X2426708Y2215275D01*
X2427893Y2211573D01*
X2428930Y2208167D01*
X2429966Y2205205D01*
X2431003Y2202540D01*
X2431891Y2200319D01*
X2432632Y2198394D01*
X2433224Y2197061D01*
X2433520Y2196320D01*
X2433668Y2196024D01*
X2436038Y2191582D01*
X2438555Y2187436D01*
X2441220Y2183585D01*
X2444034Y2179883D01*
X2446848Y2176477D01*
X2449661Y2173368D01*
X2452623Y2170554D01*
X2455288Y2167889D01*
X2457954Y2165667D01*
X2460323Y2163594D01*
X2462544Y2161965D01*
X2464469Y2160485D01*
X2465950Y2159448D01*
X2467135Y2158560D01*
X2467875Y2158115D01*
X2468171Y2157967D01*
X2472466Y2155450D01*
X2476908Y2153377D01*
X2481499Y2151452D01*
X2485941Y2149971D01*
X2490236Y2148638D01*
X2494530Y2147453D01*
X2498676Y2146565D01*
X2502674Y2145825D01*
X2506228Y2145232D01*
X2509634Y2144788D01*
X2512596Y2144492D01*
X2515113Y2144344D01*
X2517186Y2144196D01*
X2518667Y2144048D01*
X2520000D01*
X2524887Y2144196D01*
X2529773Y2144640D01*
X2534512Y2145232D01*
X2538955Y2145973D01*
X2543397Y2147009D01*
X2547395Y2148046D01*
X2551245Y2149230D01*
X2554947Y2150415D01*
X2558205Y2151452D01*
X2561019Y2152636D01*
X2563536Y2153673D01*
X2565757Y2154709D01*
X2567386Y2155450D01*
X2568719Y2156042D01*
X2569459Y2156486D01*
X2569756Y2156634D01*
X2573902Y2159152D01*
X2577900Y2161817D01*
X2581602Y2164779D01*
X2585156Y2167741D01*
X2588266Y2170850D01*
X2591227Y2173960D01*
X2593893Y2176922D01*
X2596262Y2179883D01*
X2598335Y2182697D01*
X2600260Y2185362D01*
X2601889Y2187732D01*
X2603074Y2189805D01*
X2604111Y2191434D01*
X2604851Y2192767D01*
X2605295Y2193507D01*
X2605443Y2193803D01*
X2607665Y2198542D01*
X2609590Y2203280D01*
X2611219Y2208019D01*
X2612699Y2212906D01*
X2613884Y2217644D01*
X2614921Y2222235D01*
X2615809Y2226677D01*
X2616401Y2230972D01*
X2616994Y2234822D01*
X2617438Y2238524D01*
X2617586Y2241634D01*
X2617882Y2244299D01*
Y2246520D01*
X2618030Y2247557D01*
Y2249630D01*
X2617882Y2255257D01*
X2617586Y2260736D01*
X2616994Y2266067D01*
X2616105Y2271102D01*
X2615217Y2275989D01*
X2614180Y2280431D01*
X2613144Y2284725D01*
X2612107Y2288576D01*
X2610922Y2292130D01*
X2609886Y2295239D01*
X2608849Y2298053D01*
X2607961Y2300274D01*
X2607220Y2302199D01*
X2606628Y2303532D01*
X2606184Y2304272D01*
X2606036Y2304568D01*
X2603666Y2309011D01*
X2601149Y2313157D01*
X2598335Y2317007D01*
X2595522Y2320709D01*
X2592708Y2324115D01*
X2589747Y2327225D01*
X2586933Y2330039D01*
X2584120Y2332556D01*
X2581454Y2334777D01*
X2579085Y2336850D01*
X2576864Y2338479D01*
X2574938Y2339812D01*
X2573458Y2340997D01*
X2572273Y2341737D01*
X2571533Y2342181D01*
X2571236Y2342329D01*
X2566942Y2344699D01*
X2562500Y2346772D01*
X2558057Y2348697D01*
X2553615Y2350178D01*
X2549320Y2351510D01*
X2545026Y2352695D01*
X2540880Y2353584D01*
X2537029Y2354324D01*
X2533476Y2354768D01*
X2530218Y2355212D01*
X2527256Y2355509D01*
X2524739Y2355805D01*
X2522814D01*
X2521333Y2355953D01*
D02*
G37*
%LPD*%
G36*
X2523850Y2332408D02*
X2527552Y2332112D01*
X2531106Y2331667D01*
X2534364Y2330927D01*
X2537622Y2330187D01*
X2540583Y2329298D01*
X2543397Y2328410D01*
X2546062Y2327373D01*
X2548432Y2326485D01*
X2550505Y2325448D01*
X2552282Y2324559D01*
X2553911Y2323819D01*
X2555095Y2323079D01*
X2555984Y2322634D01*
X2556576Y2322338D01*
X2556724Y2322190D01*
X2559686Y2320117D01*
X2562500Y2318044D01*
X2565017Y2315675D01*
X2567534Y2313305D01*
X2569756Y2310936D01*
X2571681Y2308567D01*
X2573606Y2306197D01*
X2575235Y2303976D01*
X2576715Y2301755D01*
X2577900Y2299830D01*
X2578937Y2297905D01*
X2579825Y2296424D01*
X2580566Y2295091D01*
X2581010Y2294203D01*
X2581306Y2293462D01*
X2581454Y2293314D01*
X2582935Y2289760D01*
X2584268Y2286058D01*
X2585452Y2282356D01*
X2586489Y2278654D01*
X2587229Y2274952D01*
X2587970Y2271398D01*
X2588562Y2267844D01*
X2589006Y2264586D01*
X2589302Y2261477D01*
X2589599Y2258663D01*
X2589747Y2256146D01*
X2589895Y2253924D01*
X2590043Y2252147D01*
Y2250815D01*
Y2250074D01*
Y2249778D01*
X2589895Y2242522D01*
X2589154Y2235858D01*
X2588266Y2229491D01*
X2586933Y2223568D01*
X2585452Y2218089D01*
X2583823Y2213054D01*
X2582046Y2208611D01*
X2580121Y2204465D01*
X2578344Y2200763D01*
X2576419Y2197653D01*
X2574790Y2194988D01*
X2573310Y2192767D01*
X2571977Y2190990D01*
X2571088Y2189805D01*
X2570496Y2189064D01*
X2570200Y2188768D01*
X2566350Y2185066D01*
X2562351Y2181660D01*
X2558205Y2178847D01*
X2553911Y2176329D01*
X2549765Y2174256D01*
X2545618Y2172479D01*
X2541472Y2171147D01*
X2537622Y2169962D01*
X2533920Y2169073D01*
X2530514Y2168481D01*
X2527552Y2167889D01*
X2524887Y2167593D01*
X2522814Y2167444D01*
X2521925D01*
X2521185Y2167296D01*
X2519852D01*
X2514373Y2167593D01*
X2509042Y2168185D01*
X2504007Y2169221D01*
X2499417Y2170554D01*
X2494974Y2172183D01*
X2490828Y2173960D01*
X2486978Y2175885D01*
X2483572Y2177958D01*
X2480462Y2179883D01*
X2477649Y2181808D01*
X2475427Y2183585D01*
X2473354Y2185214D01*
X2471873Y2186547D01*
X2470689Y2187584D01*
X2470096Y2188176D01*
X2469800Y2188472D01*
X2466246Y2192618D01*
X2463285Y2197061D01*
X2460619Y2201800D01*
X2458398Y2206538D01*
X2456473Y2211425D01*
X2454844Y2216312D01*
X2453511Y2221050D01*
X2452475Y2225641D01*
X2451586Y2229935D01*
X2450994Y2233933D01*
X2450550Y2237635D01*
X2450253Y2240745D01*
X2450105Y2242078D01*
Y2243262D01*
Y2244299D01*
X2449957Y2245188D01*
Y2245928D01*
Y2246372D01*
Y2246668D01*
Y2246816D01*
Y2251111D01*
X2450253Y2255109D01*
X2450401Y2259107D01*
X2450846Y2262957D01*
X2451290Y2266511D01*
X2451882Y2270065D01*
X2453215Y2276581D01*
X2454844Y2282504D01*
X2456473Y2287983D01*
X2458398Y2292870D01*
X2460323Y2297164D01*
X2462248Y2300866D01*
X2464173Y2303976D01*
X2465950Y2306790D01*
X2467431Y2308863D01*
X2468764Y2310640D01*
X2469800Y2311824D01*
X2470393Y2312417D01*
X2470689Y2312713D01*
X2474687Y2316267D01*
X2478833Y2319229D01*
X2482980Y2321894D01*
X2487126Y2324263D01*
X2491420Y2326040D01*
X2495418Y2327669D01*
X2499417Y2329002D01*
X2503267Y2330039D01*
X2506673Y2330927D01*
X2509930Y2331519D01*
X2512892Y2331964D01*
X2515409Y2332260D01*
X2517335Y2332408D01*
X2518815Y2332556D01*
X2520148D01*
X2523850Y2332408D01*
D02*
G37*
D96*
X1890000Y565500D02*
X1949997D01*
X1880000Y35500D02*
Y600500D01*
X1890000Y71500D02*
X1952000D01*
X3175000Y56500D02*
Y580500D01*
X3175748Y565500D02*
X3219997D01*
X3175146Y71500D02*
X3222000D01*
X7777000Y35500D02*
Y600500D01*
X7702003Y71500D02*
X7767000D01*
X7700000Y565500D02*
X7767000D01*
X6985000Y35500D02*
Y600500D01*
X6940003Y71500D02*
X6984252D01*
X6938000Y565500D02*
X6984854D01*
X6985000Y56500D02*
Y580500D01*
X6985748Y565500D02*
X7029997D01*
X6985146Y71500D02*
X7032000D01*
X5715000Y35500D02*
Y600500D01*
X5670003Y71500D02*
X5714252D01*
X5668000Y565500D02*
X5714854D01*
X5715000Y56500D02*
Y580500D01*
X5715748Y565500D02*
X5759997D01*
X5715146Y71500D02*
X5762000D01*
X4445000Y35500D02*
Y600500D01*
X4400003Y71500D02*
X4444252D01*
X4398000Y565500D02*
X4444854D01*
X4445000Y56500D02*
Y580500D01*
X4445748Y565500D02*
X4489997D01*
X4445146Y71500D02*
X4492000D01*
X3175000Y35500D02*
Y600500D01*
X3130003Y71500D02*
X3174252D01*
X3128000Y565500D02*
X3174854D01*
X1890000Y5391500D02*
X1949997D01*
X1880000Y4861500D02*
Y5426500D01*
X1890000Y4897500D02*
X1952000D01*
X3175000Y4882500D02*
Y5406500D01*
X3175748Y5391500D02*
X3219997D01*
X3175146Y4897500D02*
X3222000D01*
X7777000Y4861500D02*
Y5426500D01*
X7702003Y4897500D02*
X7767000D01*
X7700000Y5391500D02*
X7767000D01*
X6985000Y4861500D02*
Y5426500D01*
X6940003Y4897500D02*
X6984252D01*
X6938000Y5391500D02*
X6984854D01*
X6985000Y4882500D02*
Y5406500D01*
X6985748Y5391500D02*
X7029997D01*
X6985146Y4897500D02*
X7032000D01*
X5715000Y4861500D02*
Y5426500D01*
X5670003Y4897500D02*
X5714252D01*
X5668000Y5391500D02*
X5714854D01*
X5715000Y4882500D02*
Y5406500D01*
X5715748Y5391500D02*
X5759997D01*
X5715146Y4897500D02*
X5762000D01*
X4445000Y4861500D02*
Y5426500D01*
X4400003Y4897500D02*
X4444252D01*
X4398000Y5391500D02*
X4444854D01*
X4445000Y4882500D02*
Y5406500D01*
X4445748Y5391500D02*
X4489997D01*
X4445146Y4897500D02*
X4492000D01*
X3175000Y4861500D02*
Y5426500D01*
X3130003Y4897500D02*
X3174252D01*
X3128000Y5391500D02*
X3174854D01*
X7972000Y795800D02*
X8537000D01*
X8008000Y805800D02*
Y870797D01*
X8502000Y805800D02*
Y872800D01*
Y1333946D02*
Y1380800D01*
X8008000Y1334548D02*
Y1378797D01*
X7972000Y1333800D02*
X8537000D01*
X8008000Y1286800D02*
Y1333654D01*
X8502000Y1288803D02*
Y1333052D01*
X7993000Y1333800D02*
X8517000D01*
X8008000Y2556800D02*
Y2618800D01*
X7972000Y2628800D02*
X8537000D01*
X8502000Y2558803D02*
Y2618800D01*
X7972000Y2827800D02*
X8537000D01*
X8008000Y2837800D02*
Y2902797D01*
X8502000Y2837800D02*
Y2904800D01*
Y3365946D02*
Y3412800D01*
X8008000Y3366548D02*
Y3410797D01*
X7972000Y3365800D02*
X8537000D01*
X8008000Y3318800D02*
Y3365654D01*
X8502000Y3320803D02*
Y3365052D01*
X7993000Y3365800D02*
X8517000D01*
X8008000Y4588800D02*
Y4650800D01*
X7972000Y4660800D02*
X8537000D01*
X8502000Y4590803D02*
Y4650800D01*
X1890000Y4138400D02*
X1952000D01*
X1880000Y4102400D02*
Y4667400D01*
X1890000Y4632400D02*
X1949997D01*
X2443000Y4102400D02*
Y4667400D01*
X2368003Y4138400D02*
X2433000D01*
X2366000Y4632400D02*
X2433000D01*
X1623355Y189968D02*
X1690000D01*
Y139984D01*
X1656677Y156645D01*
X1640016D01*
X1623355Y139984D01*
Y106661D01*
X1640016Y90000D01*
X1673339D01*
X1690000Y106661D01*
X1590032Y189968D02*
Y123323D01*
X1556710Y90000D01*
X1523387Y123323D01*
Y189968D01*
X1423419D02*
X1490064D01*
Y90000D01*
X1423419D01*
X1490064Y139984D02*
X1456742D01*
X1390097Y156645D02*
X1323452Y90000D01*
X1356774Y123323D01*
X1323452Y156645D01*
X1390097Y90000D01*
X1273467Y173306D02*
Y156645D01*
X1290129D01*
X1256806D01*
X1273467D01*
Y106661D01*
X1256806Y90000D01*
X1543355Y923306D02*
X1560016Y939968D01*
X1593339D01*
X1610000Y923306D01*
Y856661D01*
X1593339Y840000D01*
X1560016D01*
X1543355Y856661D01*
Y889984D01*
X1576678D01*
X1510032Y840000D02*
Y939968D01*
X1443387Y840000D01*
Y939968D01*
X1410064D02*
Y840000D01*
X1360081D01*
X1343419Y856661D01*
Y923306D01*
X1360081Y939968D01*
X1410064D01*
X2950000Y4389968D02*
Y4323323D01*
X2916677Y4290000D01*
X2883355Y4323323D01*
Y4389968D01*
X2850032D02*
Y4290000D01*
Y4339984D01*
X2783387D01*
Y4389968D01*
Y4290000D01*
X2733403Y4356645D02*
X2700080D01*
X2683419Y4339984D01*
Y4290000D01*
X2733403D01*
X2750064Y4306661D01*
X2733403Y4323323D01*
X2683419D01*
X2650097Y4356645D02*
Y4290000D01*
Y4323323D01*
X2633435Y4339984D01*
X2616774Y4356645D01*
X2600113D01*
X2550129D02*
X2516806Y4290000D01*
X2483484Y4356645D01*
X3050000Y4559968D02*
Y4493322D01*
X3016677Y4460000D01*
X2983355Y4493322D01*
Y4559968D01*
X2883387Y4543306D02*
X2900048Y4559968D01*
X2933371D01*
X2950032Y4543306D01*
Y4526645D01*
X2933371Y4509984D01*
X2900048D01*
X2883387Y4493322D01*
Y4476661D01*
X2900048Y4460000D01*
X2933371D01*
X2950032Y4476661D01*
X2800081Y4460000D02*
X2833403D01*
X2850064Y4476661D01*
Y4509984D01*
X2833403Y4526645D01*
X2800081D01*
X2783419Y4509984D01*
Y4493322D01*
X2850064D01*
X2750097Y4460000D02*
Y4526645D01*
X2700113D01*
X2683452Y4509984D01*
Y4460000D01*
X2650129D02*
X2600145D01*
X2583484Y4476661D01*
X2600145Y4493322D01*
X2633467D01*
X2650129Y4509984D01*
X2633467Y4526645D01*
X2583484D01*
X2500177Y4460000D02*
X2533500D01*
X2550161Y4476661D01*
Y4509984D01*
X2533500Y4526645D01*
X2500177D01*
X2483516Y4509984D01*
Y4493322D01*
X2550161D01*
X1850000Y4383290D02*
Y4316645D01*
X1816678Y4283322D01*
X1783355Y4316645D01*
Y4383290D01*
X1683387Y4366629D02*
X1700048Y4383290D01*
X1733371D01*
X1750032Y4366629D01*
Y4299984D01*
X1733371Y4283322D01*
X1700048D01*
X1683387Y4299984D01*
X1633403Y4349967D02*
X1600081D01*
X1583419Y4333306D01*
Y4283322D01*
X1633403D01*
X1650065Y4299984D01*
X1633403Y4316645D01*
X1583419D01*
X1550097Y4250000D02*
Y4349967D01*
X1500113D01*
X1483452Y4333306D01*
Y4299984D01*
X1500113Y4283322D01*
X1550097D01*
X1783355Y4533306D02*
X1800016Y4549968D01*
X1833339D01*
X1850000Y4533306D01*
Y4466661D01*
X1833339Y4450000D01*
X1800016D01*
X1783355Y4466661D01*
Y4499984D01*
X1816678D01*
X1750032Y4450000D02*
Y4549968D01*
X1683387Y4450000D01*
Y4549968D01*
X1650065D02*
Y4450000D01*
X1600081D01*
X1583419Y4466661D01*
Y4533306D01*
X1600081Y4549968D01*
X1650065D01*
X3599968Y4706645D02*
Y4640000D01*
X3500000D01*
Y4706645D01*
X3549984Y4640000D02*
Y4673322D01*
X3500000Y4739967D02*
X3599968D01*
X3500000Y4806612D01*
X3599968D01*
X2839968Y696645D02*
Y630000D01*
X2789984D01*
X2806645Y663322D01*
Y679983D01*
X2789984Y696645D01*
X2756661D01*
X2740000Y679983D01*
Y646661D01*
X2756661Y630000D01*
X2839968Y729967D02*
X2773322D01*
X2740000Y763290D01*
X2773322Y796612D01*
X2839968D01*
X2579968Y696645D02*
Y630000D01*
X2529984D01*
X2546645Y663322D01*
Y679983D01*
X2529984Y696645D01*
X2496661D01*
X2480000Y679983D01*
Y646661D01*
X2496661Y630000D01*
X2579968Y729967D02*
X2513322D01*
X2480000Y763290D01*
X2513322Y796612D01*
X2579968D01*
Y896580D02*
Y829935D01*
X2480000D01*
Y896580D01*
X2529984Y829935D02*
Y863258D01*
X2323306Y630000D02*
X2339968Y646661D01*
Y679983D01*
X2323306Y696645D01*
X2306645D01*
X2289984Y679983D01*
Y663322D01*
Y679983D01*
X2273322Y696645D01*
X2256661D01*
X2240000Y679983D01*
Y646661D01*
X2256661Y630000D01*
X2339968Y729967D02*
X2273322D01*
X2240000Y763290D01*
X2273322Y796612D01*
X2339968D01*
X2323306Y829935D02*
X2339968Y846596D01*
Y879919D01*
X2323306Y896580D01*
X2306645D01*
X2289984Y879919D01*
Y863258D01*
Y879919D01*
X2273322Y896580D01*
X2256661D01*
X2240000Y879919D01*
Y846596D01*
X2256661Y829935D01*
X2063306Y696645D02*
X2079968Y679983D01*
Y646661D01*
X2063306Y630000D01*
X1996661D01*
X1980000Y646661D01*
Y679983D01*
X1996661Y696645D01*
X2029984D01*
Y663322D01*
X1980000Y729967D02*
X2079968D01*
X1980000Y796612D01*
X2079968D01*
Y829935D02*
X1980000D01*
Y879919D01*
X1996661Y896580D01*
X2063306D01*
X2079968Y879919D01*
Y829935D01*
D97*
X3674699Y3006612D02*
Y3109912D01*
X3700524Y3135737D01*
X3752174D01*
X3777999Y3109912D01*
Y3006612D01*
X3752174Y2980787D01*
X3700524D01*
X3726349Y3032437D02*
X3674699Y2980787D01*
X3700524D02*
X3674699Y3006612D01*
X3623049Y2980787D02*
Y3084087D01*
X3571399Y3135737D01*
X3519749Y3084087D01*
Y2980787D01*
Y3058262D01*
X3623049D01*
X3468099D02*
X3364799D01*
X3313149Y3135737D02*
X3209849D01*
X3261499D01*
Y2980787D01*
X3054899Y3135737D02*
X3158199D01*
Y2980787D01*
X3054899D01*
X3158199Y3058262D02*
X3106549D01*
X2899949Y3109912D02*
X2925774Y3135737D01*
X2977424D01*
X3003249Y3109912D01*
Y3084087D01*
X2977424Y3058262D01*
X2925774D01*
X2899949Y3032437D01*
Y3006612D01*
X2925774Y2980787D01*
X2977424D01*
X3003249Y3006612D01*
X2848299Y3135737D02*
X2745000D01*
X2796649D01*
Y2980787D01*
X3777999Y2734848D02*
Y2889798D01*
X3700524D01*
X3674699Y2863973D01*
Y2812323D01*
X3700524Y2786498D01*
X3777999D01*
X3623049Y2838147D02*
Y2760673D01*
X3597224Y2734848D01*
X3571399Y2760673D01*
X3545574Y2734848D01*
X3519749Y2760673D01*
Y2838147D01*
X3468099D02*
Y2734848D01*
Y2786498D01*
X3442274Y2812323D01*
X3416449Y2838147D01*
X3390624D01*
X3313149Y2734848D02*
Y2889798D01*
X3235674D01*
X3209849Y2863973D01*
Y2812323D01*
X3235674Y2786498D01*
X3313149D01*
X3261499D02*
X3209849Y2734848D01*
X3080724D02*
X3132374D01*
X3158199Y2760673D01*
Y2812323D01*
X3132374Y2838147D01*
X3080724D01*
X3054899Y2812323D01*
Y2786498D01*
X3158199D01*
X2951599Y2683198D02*
X2925774D01*
X2899949Y2709023D01*
Y2838147D01*
X2977424D01*
X3003249Y2812323D01*
Y2760673D01*
X2977424Y2734848D01*
X2899949D01*
X2848299D02*
X2770825D01*
X2745000Y2760673D01*
X2770825Y2786498D01*
X2822474D01*
X2848299Y2812323D01*
X2822474Y2838147D01*
X2745000D01*
X3519749Y2592209D02*
X3623049D01*
Y2437259D01*
X3519749D01*
X3623049Y2514734D02*
X3571399D01*
X3364799Y2592209D02*
X3468099D01*
Y2437259D01*
X3364799D01*
X3468099Y2514734D02*
X3416449D01*
X3313149Y2437259D02*
Y2592209D01*
X3235674D01*
X3209849Y2566384D01*
Y2514734D01*
X3235674Y2488909D01*
X3313149D01*
X3158199Y2540559D02*
Y2437259D01*
Y2488909D01*
X3132374Y2514734D01*
X3106549Y2540559D01*
X3080724D01*
X2977424Y2437259D02*
X2925774D01*
X2899949Y2463084D01*
Y2514734D01*
X2925774Y2540559D01*
X2977424D01*
X3003249Y2514734D01*
Y2463084D01*
X2977424Y2437259D01*
X2848299D02*
Y2540559D01*
X2822474D01*
X2796649Y2514734D01*
Y2437259D01*
Y2514734D01*
X2770825Y2540559D01*
X2745000Y2514734D01*
Y2437259D01*
X3907124Y2346270D02*
Y2191320D01*
X3855474Y2242970D01*
X3803824Y2191320D01*
Y2346270D01*
X3726349Y2294619D02*
X3674699D01*
X3648874Y2268795D01*
Y2191320D01*
X3726349D01*
X3752174Y2217145D01*
X3726349Y2242970D01*
X3648874D01*
X3571399Y2320445D02*
Y2294619D01*
X3597224D01*
X3545574D01*
X3571399D01*
Y2217145D01*
X3545574Y2191320D01*
X3364799Y2294619D02*
X3442274D01*
X3468099Y2268795D01*
Y2217145D01*
X3442274Y2191320D01*
X3364799D01*
X3313149Y2346270D02*
Y2191320D01*
Y2268795D01*
X3287324Y2294619D01*
X3235674D01*
X3209849Y2268795D01*
Y2191320D01*
X3158199Y2346270D02*
Y2191320D01*
X3080724D01*
X3054899Y2217145D01*
Y2320445D01*
X3080724Y2346270D01*
X3158199D01*
X2977424Y2191320D02*
X2925774D01*
X2899949Y2217145D01*
Y2268795D01*
X2925774Y2294619D01*
X2977424D01*
X3003249Y2268795D01*
Y2217145D01*
X2977424Y2191320D01*
X2796649Y2139670D02*
X2770825D01*
X2745000Y2165495D01*
Y2294619D01*
X2822474D01*
X2848299Y2268795D01*
Y2217145D01*
X2822474Y2191320D01*
X2745000D01*
X3313149Y2048681D02*
Y1893731D01*
X3209849D01*
X3054899Y2048681D02*
X3158199D01*
Y1893731D01*
X3054899D01*
X3158199Y1971206D02*
X3106549D01*
X3003249Y2048681D02*
Y1893731D01*
X2925774D01*
X2899949Y1919556D01*
Y2022856D01*
X2925774Y2048681D01*
X3003249D01*
X2848299Y1893731D02*
X2770825D01*
X2745000Y1919556D01*
X2770825Y1945381D01*
X2822474D01*
X2848299Y1971206D01*
X2822474Y1997031D01*
X2745000D01*
X3545574Y1802742D02*
X3493924D01*
X3519749D01*
Y1647792D01*
X3545574D01*
X3493924D01*
X3338974Y1802742D02*
X3390624D01*
X3416449Y1776917D01*
Y1673617D01*
X3390624Y1647792D01*
X3338974D01*
X3313149Y1673617D01*
Y1776917D01*
X3338974Y1802742D01*
X3158199Y1647792D02*
X3261499D01*
X3158199Y1751091D01*
Y1776917D01*
X3184024Y1802742D01*
X3235674D01*
X3261499Y1776917D01*
X3106549Y1802742D02*
X3003250D01*
X3054899D01*
Y1647792D01*
X2899949Y1596142D02*
X2874125D01*
X2848300Y1621967D01*
Y1751091D01*
X2925774D01*
X2951599Y1725267D01*
Y1673617D01*
X2925774Y1647792D01*
X2848300D01*
X2770825Y1776917D02*
Y1751091D01*
X2796649D01*
X2745000D01*
X2770825D01*
Y1673617D01*
X2745000Y1647792D01*
X3752174Y1505153D02*
X3855474D01*
Y1350203D01*
X3752174D01*
X3855474Y1427678D02*
X3803824D01*
X3700524Y1350203D02*
Y1453503D01*
X3674699D01*
X3648874Y1427678D01*
Y1350203D01*
Y1427678D01*
X3623049Y1453503D01*
X3597224Y1427678D01*
Y1350203D01*
X3545574Y1453503D02*
Y1376028D01*
X3519749Y1350203D01*
X3442274D01*
Y1453503D01*
X3390624Y1350203D02*
X3338974D01*
X3364799D01*
Y1505153D01*
X3390624D01*
X3235674Y1453503D02*
X3184024D01*
X3158199Y1427678D01*
Y1350203D01*
X3235674D01*
X3261499Y1376028D01*
X3235674Y1401853D01*
X3158199D01*
X3080724Y1479328D02*
Y1453503D01*
X3106549D01*
X3054899D01*
X3080724D01*
Y1376028D01*
X3054899Y1350203D01*
X2951599D02*
X2899949D01*
X2874125Y1376028D01*
Y1427678D01*
X2899949Y1453503D01*
X2951599D01*
X2977424Y1427678D01*
Y1376028D01*
X2951599Y1350203D01*
X2822474Y1453503D02*
Y1350203D01*
Y1401853D01*
X2796649Y1427678D01*
X2770825Y1453503D01*
X2745000D01*
X3907124Y1104264D02*
Y1259214D01*
X3829649D01*
X3803824Y1233389D01*
Y1181739D01*
X3829649Y1155914D01*
X3907124D01*
X3855474D02*
X3803824Y1104264D01*
X3674699D02*
X3726349D01*
X3752174Y1130089D01*
Y1181739D01*
X3726349Y1207563D01*
X3674699D01*
X3648874Y1181739D01*
Y1155914D01*
X3752174D01*
X3493924Y1207563D02*
X3571399D01*
X3597224Y1181739D01*
Y1130089D01*
X3571399Y1104264D01*
X3493924D01*
X3416449D02*
X3364799D01*
X3338974Y1130089D01*
Y1181739D01*
X3364799Y1207563D01*
X3416449D01*
X3442274Y1181739D01*
Y1130089D01*
X3416449Y1104264D01*
X3287324Y1207563D02*
Y1104264D01*
Y1155914D01*
X3261499Y1181739D01*
X3235674Y1207563D01*
X3209849D01*
X3029074Y1259214D02*
Y1104264D01*
X3106549D01*
X3132374Y1130089D01*
Y1181739D01*
X3106549Y1207563D01*
X3029074D01*
X2899949Y1104264D02*
X2951599D01*
X2977424Y1130089D01*
Y1181739D01*
X2951599Y1207563D01*
X2899949D01*
X2874125Y1181739D01*
Y1155914D01*
X2977424D01*
X2822474Y1207563D02*
Y1104264D01*
Y1155914D01*
X2796649Y1181739D01*
X2770825Y1207563D01*
X2745000D01*
D98*
X5980000Y4407500D02*
D03*
X6340000D02*
D03*
X5980000Y4287500D02*
D03*
X6340000D02*
D03*
X6060000Y4187500D02*
D03*
X6140000Y4127500D02*
D03*
X6340000Y4047500D02*
D03*
X6340000Y3927500D02*
D03*
D99*
X6100000Y4407500D02*
D03*
X5980000Y4367500D02*
D03*
X6340000D02*
D03*
X5980000Y4347500D02*
D03*
X6220001D02*
D03*
X6340000D02*
D03*
X5980000Y4327500D02*
D03*
X6340000D02*
D03*
X6220001Y4307500D02*
D03*
X6120000Y4207500D02*
D03*
X6240000Y4187500D02*
D03*
X6100000Y4147500D02*
D03*
X5980000Y4047500D02*
D03*
X6220001Y4027500D02*
D03*
X6340000Y4007500D02*
D03*
X6340000Y3987500D02*
D03*
Y3967500D02*
D03*
D100*
X6240000Y4407500D02*
D03*
X5920000Y4387500D02*
D03*
X6040000D02*
D03*
X6240000D02*
D03*
X6280000D02*
D03*
X6400000D02*
D03*
X5920000Y4367500D02*
D03*
X6040000D02*
D03*
X6120000D02*
D03*
X6160000D02*
D03*
X6280000D02*
D03*
X6400000D02*
D03*
X5920000Y4347500D02*
D03*
X6040000D02*
D03*
X6080000D02*
D03*
X6280000D02*
D03*
X6400000D02*
D03*
X5920000Y4327500D02*
D03*
X6040000D02*
D03*
X6280000D02*
D03*
X6400000D02*
D03*
X5920000Y4307500D02*
D03*
X6040000D02*
D03*
X6120000D02*
D03*
X6280000D02*
D03*
X6400000D02*
D03*
X6080000Y4287500D02*
D03*
X6120000D02*
D03*
X6160000D02*
D03*
X6200000D02*
D03*
X6240000D02*
D03*
X6080000Y4267500D02*
D03*
X6020000Y4247500D02*
D03*
X6160000D02*
D03*
X6200000D02*
D03*
X6240000Y4227500D02*
D03*
X6300000D02*
D03*
X5960000Y4207500D02*
D03*
X6000000D02*
D03*
X6040000D02*
D03*
X6340000D02*
D03*
X6400000D02*
D03*
X6160000Y4187500D02*
D03*
X6320000D02*
D03*
X6380000D02*
D03*
X6180000Y4167500D02*
D03*
X6280000D02*
D03*
X6320000D02*
D03*
X6400000D02*
D03*
X6160000Y4147500D02*
D03*
X6400000D02*
D03*
X6340000Y4127500D02*
D03*
X5920000Y4107500D02*
D03*
X5960000D02*
D03*
X6020000D02*
D03*
X6140000D02*
D03*
X6180000D02*
D03*
X6340000D02*
D03*
X5920000Y4087500D02*
D03*
X5960000D02*
D03*
X6000000Y4067500D02*
D03*
X6080000D02*
D03*
X6240000D02*
D03*
X6040000Y4047500D02*
D03*
X6080000D02*
D03*
X6000000Y4027500D02*
D03*
X6080000D02*
D03*
X6120000D02*
D03*
X6160000D02*
D03*
X6280000D02*
D03*
X6400000D02*
D03*
X6240000Y4007500D02*
D03*
X6280000D02*
D03*
X6400000D02*
D03*
X6160000Y3987500D02*
D03*
X6280000Y3987500D02*
D03*
X6400000Y3987500D02*
D03*
X6280000Y3967500D02*
D03*
X6400000D02*
D03*
X6000000Y3947500D02*
D03*
X6060000D02*
D03*
X6140000D02*
D03*
X6240000D02*
D03*
X6280000D02*
D03*
X6400000D02*
D03*
X6060000Y3927500D02*
D03*
D101*
X6170000Y4387500D02*
D03*
X6150000Y4327500D02*
D03*
X6190000Y4267500D02*
D03*
X6390000Y4247500D02*
D03*
Y4227500D02*
D03*
X6290000Y4207500D02*
D03*
X5950000Y4187500D02*
D03*
X6130000Y4167500D02*
D03*
X6010000Y4147500D02*
D03*
X6150000Y4087500D02*
D03*
X6290000D02*
D03*
X5950000Y4067500D02*
D03*
X6130000D02*
D03*
X5950000Y4027500D02*
D03*
X6130000Y4007500D02*
D03*
X6190000D02*
D03*
X5930000Y3987500D02*
D03*
X5950000Y3967500D02*
D03*
X6030000D02*
D03*
X5950000Y3947500D02*
D03*
X6190000D02*
D03*
X6150000Y3927500D02*
D03*
D102*
X6230000Y4367500D02*
D03*
X6210001Y4327500D02*
D03*
X5990000Y4227500D02*
D03*
X6210000Y4207500D02*
D03*
X5970000Y4167500D02*
D03*
X6210000Y4147500D02*
D03*
X5970000Y4127500D02*
D03*
X6230000Y3927500D02*
D03*
D103*
X6140000Y4347500D02*
D03*
X6300000Y4247500D02*
D03*
X6040000Y4167500D02*
D03*
X5940000Y4007500D02*
D03*
X6040000Y3987500D02*
D03*
D104*
X6100000Y4327500D02*
D03*
X6100000Y4107500D02*
D03*
X6220001Y4087500D02*
D03*
Y4047500D02*
D03*
X5980000Y3987500D02*
D03*
X6100000D02*
D03*
X6220000D02*
D03*
X6100000Y3947500D02*
D03*
D105*
X5950001Y4247500D02*
D03*
X6110000Y4227500D02*
D03*
X6330000Y4147500D02*
D03*
X6370000Y4087500D02*
D03*
D106*
X6270000Y4127500D02*
D03*
D107*
X6050000Y4087500D02*
D03*
X5970000Y3927500D02*
D03*
D108*
X6040000Y4007500D02*
D03*
X6160000Y3967500D02*
D03*
%TF.MD5,e2e9e7443fe8944cdf091c7e93c78bc9*%
M02*
