%TF.GenerationSoftware,Altium Limited,Altium Designer,21.2.2 (38)*%
G04 Layer_Color=65535*
%FSLAX45Y45*%
%MOMM*%
%TF.SameCoordinates,D1C1B47B-FFDC-44FD-B647-F1046EBF8E97*%
%TF.FilePolarity,Positive*%
%TF.FileFunction,Legend,Top*%
%TF.Part,Single*%
G01*
G75*
%TA.AperFunction,NonConductor*%
%ADD82C,0.15000*%
%ADD96C,0.20000*%
%ADD97C,0.25000*%
%ADD118C,0.10000*%
%ADD119C,0.30000*%
G36*
X3745000Y2260000D02*
X3720000Y2290000D01*
X3770000D01*
X3745000Y2260000D01*
D02*
G37*
G36*
X2700000Y2170000D02*
X2670000Y2195000D01*
X2700000Y2220000D01*
Y2170000D01*
D02*
G37*
G36*
X5005000Y2120000D02*
X4980000Y2150000D01*
X5030000D01*
X5005000Y2120000D01*
D02*
G37*
G36*
X2820000Y2090000D02*
X2800000Y2115000D01*
X2840000D01*
X2820000Y2090000D01*
D02*
G37*
G36*
X2950000Y2000000D02*
X2900000Y2040000D01*
X2950000Y2080000D01*
Y2000000D01*
D02*
G37*
G36*
X2520000Y1950000D02*
X2490000Y1975000D01*
X2520000Y2000000D01*
Y1950000D01*
D02*
G37*
G36*
X2090000Y1860000D02*
X2060000Y1885000D01*
X2090000Y1910000D01*
Y1860000D01*
D02*
G37*
G36*
X2310000Y1570000D02*
X2260000D01*
X2285000Y1600000D01*
X2310000Y1570000D01*
D02*
G37*
G36*
X3325000Y1565000D02*
X3300000Y1595000D01*
X3350000D01*
X3325000Y1565000D01*
D02*
G37*
G36*
X2310000Y1490000D02*
X2280000Y1515000D01*
X2310000Y1540000D01*
Y1490000D01*
D02*
G37*
G36*
X4990000Y1425000D02*
X4960000Y1400000D01*
Y1450000D01*
X4990000Y1425000D01*
D02*
G37*
G36*
X2145000Y1190000D02*
X2120000Y1220000D01*
X2170000D01*
X2145000Y1190000D01*
D02*
G37*
G36*
X1775000Y1175000D02*
X1745000Y1200000D01*
X1775000Y1225000D01*
Y1175000D01*
D02*
G37*
G36*
X2145000Y1050000D02*
X2120000Y1080000D01*
X2170000D01*
X2145000Y1050000D01*
D02*
G37*
G36*
X1730000Y890000D02*
X1705000Y920000D01*
X1755000D01*
X1730000Y890000D01*
D02*
G37*
G36*
X1825000Y805000D02*
X1795000Y830000D01*
X1825000Y855000D01*
Y805000D01*
D02*
G37*
G36*
X1867000Y70500D02*
X1837000Y45500D01*
Y95500D01*
X1867000Y70500D01*
D02*
G37*
G36*
Y4896500D02*
X1837000Y4871500D01*
Y4921500D01*
X1867000Y4896500D01*
D02*
G37*
G36*
X4870000Y4750000D02*
X4850000Y4775000D01*
X4890000D01*
X4870000Y4750000D01*
D02*
G37*
G36*
X4560000D02*
X4540000Y4775000D01*
X4580000D01*
X4560000Y4750000D01*
D02*
G37*
G36*
X1390000Y4720000D02*
X1370000Y4745000D01*
X1410000D01*
X1390000Y4720000D01*
D02*
G37*
G36*
X5000000Y4660000D02*
X4950000Y4700000D01*
X5000000Y4740000D01*
Y4660000D01*
D02*
G37*
G36*
X4690000D02*
X4640000Y4700000D01*
X4690000Y4740000D01*
Y4660000D01*
D02*
G37*
G36*
X1520000Y4630000D02*
X1470000Y4670000D01*
X1520000Y4710000D01*
Y4630000D01*
D02*
G37*
G36*
X3710000Y4350000D02*
X3685000Y4380000D01*
X3735000D01*
X3710000Y4350000D01*
D02*
G37*
G36*
X1867000Y4138400D02*
X1837000Y4113400D01*
Y4163400D01*
X1867000Y4138400D01*
D02*
G37*
G36*
X3250000Y3840000D02*
X3200000D01*
X3225000Y3870000D01*
X3250000Y3840000D01*
D02*
G37*
G36*
X3755000Y3675000D02*
X3730000Y3705000D01*
X3780000D01*
X3755000Y3675000D01*
D02*
G37*
G36*
X3260000Y3360000D02*
X3210000D01*
X3235000Y3390000D01*
X3260000Y3360000D01*
D02*
G37*
G36*
X2330000Y3350000D02*
X2300000Y3325000D01*
Y3375000D01*
X2330000Y3350000D01*
D02*
G37*
G36*
X3630000Y3320000D02*
X3605000Y3350000D01*
X3655000D01*
X3630000Y3320000D01*
D02*
G37*
G36*
X2860000Y2835000D02*
X2830000Y2810000D01*
Y2860000D01*
X2860000Y2835000D01*
D02*
G37*
G36*
X2939999Y2380000D02*
X2915000Y2410000D01*
X2964999D01*
X2939999Y2380000D01*
D02*
G37*
G36*
X2570000Y2335000D02*
X2540000Y2360000D01*
X2570000Y2385000D01*
Y2335000D01*
D02*
G37*
G36*
X7619551Y2984734D02*
X7589551Y2959734D01*
Y3009734D01*
X7619551Y2984734D01*
D02*
G37*
G36*
X7245000Y2715000D02*
X7220000Y2745000D01*
X7270000D01*
X7245000Y2715000D01*
D02*
G37*
G36*
X5765000Y2710000D02*
X5715000D01*
X5740000Y2740000D01*
X5765000Y2710000D01*
D02*
G37*
G36*
X8008000Y2641800D02*
X7983000Y2671800D01*
X8033000D01*
X8008000Y2641800D01*
D02*
G37*
G36*
X7245000Y2335000D02*
X7220000Y2365000D01*
X7270000D01*
X7245000Y2335000D01*
D02*
G37*
G36*
X6990000Y2300000D02*
X6940000D01*
X6965000Y2330000D01*
X6990000Y2300000D01*
D02*
G37*
G36*
X6247500Y2050000D02*
X6222500Y2080000D01*
X6272500D01*
X6247500Y2050000D01*
D02*
G37*
G36*
X7245000Y1965000D02*
X7220000Y1995000D01*
X7270000D01*
X7245000Y1965000D01*
D02*
G37*
G36*
Y1595000D02*
X7220000Y1625000D01*
X7270000D01*
X7245000Y1595000D01*
D02*
G37*
G36*
X5150000Y1310000D02*
X5125000Y1340000D01*
X5175000D01*
X5150000Y1310000D01*
D02*
G37*
G36*
X6247500Y1240000D02*
X6222500Y1270000D01*
X6272500D01*
X6247500Y1240000D01*
D02*
G37*
G36*
X7245000Y1215000D02*
X7220000Y1245000D01*
X7270000D01*
X7245000Y1215000D01*
D02*
G37*
G36*
X5730000Y1200000D02*
X5700000Y1225000D01*
X5730000Y1250000D01*
Y1200000D01*
D02*
G37*
G36*
X7710000Y920000D02*
X7690000Y945000D01*
X7730000D01*
X7710000Y920000D01*
D02*
G37*
G36*
X7840000Y830000D02*
X7790000Y870000D01*
X7840000Y910000D01*
Y830000D01*
D02*
G37*
G36*
X7830000Y280000D02*
X7810000Y305000D01*
X7850000D01*
X7830000Y280000D01*
D02*
G37*
G36*
X7960000Y190000D02*
X7910000Y230000D01*
X7960000Y270000D01*
Y190000D01*
D02*
G37*
G36*
X7830000Y5280000D02*
X7810000Y5305000D01*
X7850000D01*
X7830000Y5280000D01*
D02*
G37*
G36*
X7960000Y5190000D02*
X7910000Y5230000D01*
X7960000Y5270000D01*
Y5190000D01*
D02*
G37*
G36*
X6400000Y4750000D02*
X6380000Y4775000D01*
X6420000D01*
X6400000Y4750000D01*
D02*
G37*
G36*
X6090000D02*
X6070000Y4775000D01*
X6110000D01*
X6090000Y4750000D01*
D02*
G37*
G36*
X8008000Y4673800D02*
X7983000Y4703800D01*
X8033000D01*
X8008000Y4673800D01*
D02*
G37*
G36*
X6530000Y4660000D02*
X6480000Y4700000D01*
X6530000Y4740000D01*
Y4660000D01*
D02*
G37*
G36*
X6220000D02*
X6170000Y4700000D01*
X6220000Y4740000D01*
Y4660000D01*
D02*
G37*
G36*
X7640000Y4610000D02*
X7620000Y4635000D01*
X7660000D01*
X7640000Y4610000D01*
D02*
G37*
G36*
X7770000Y4520000D02*
X7720000Y4560000D01*
X7770000Y4600000D01*
Y4520000D01*
D02*
G37*
G36*
X7361572Y4527071D02*
X7362429D01*
Y4526643D01*
Y4526214D01*
Y4525786D01*
X7362857D01*
Y4525357D01*
Y4524928D01*
Y4524500D01*
Y4524071D01*
Y4523643D01*
X7363286D01*
Y4523214D01*
Y4522786D01*
Y4522357D01*
Y4521928D01*
Y4521500D01*
Y4521071D01*
X7363714D01*
Y4520643D01*
Y4520214D01*
Y4519786D01*
Y4519357D01*
Y4518928D01*
X7364143D01*
Y4518500D01*
Y4518071D01*
Y4517643D01*
Y4517214D01*
Y4516786D01*
X7364572D01*
Y4516357D01*
Y4515928D01*
Y4515500D01*
Y4515071D01*
Y4514643D01*
Y4514214D01*
X7365000D01*
Y4513786D01*
Y4513357D01*
Y4512928D01*
Y4512500D01*
Y4512071D01*
X7365429D01*
Y4511643D01*
Y4511214D01*
Y4510786D01*
Y4510357D01*
Y4509928D01*
X7365857D01*
Y4509500D01*
Y4509071D01*
Y4508643D01*
Y4508214D01*
Y4507786D01*
Y4507357D01*
X7366286D01*
Y4506929D01*
Y4506500D01*
Y4506071D01*
Y4505643D01*
Y4505214D01*
X7366714D01*
Y4504786D01*
Y4504357D01*
Y4503929D01*
Y4503500D01*
Y4503071D01*
Y4502643D01*
X7367143D01*
Y4502214D01*
Y4501786D01*
Y4501357D01*
Y4500929D01*
Y4500500D01*
X7367571D01*
Y4500071D01*
Y4499643D01*
Y4499214D01*
Y4498786D01*
Y4498357D01*
X7368000D01*
Y4497929D01*
Y4497500D01*
Y4497071D01*
Y4496643D01*
Y4496214D01*
Y4495786D01*
X7368428D01*
Y4495357D01*
Y4494929D01*
Y4494500D01*
Y4494071D01*
Y4493643D01*
X7368857D01*
Y4493214D01*
Y4492786D01*
X7369286D01*
Y4492357D01*
X7370143D01*
Y4491929D01*
X7371000D01*
Y4491500D01*
X7372286D01*
Y4491071D01*
X7373143D01*
Y4490643D01*
X7374428D01*
Y4490214D01*
X7375286D01*
Y4489786D01*
X7376143D01*
Y4489357D01*
X7377428D01*
Y4488929D01*
X7378286D01*
Y4488500D01*
X7379571D01*
Y4488071D01*
X7380428D01*
Y4487643D01*
X7381714D01*
Y4487214D01*
X7382571D01*
Y4486786D01*
X7383857D01*
Y4486357D01*
X7384714D01*
Y4485929D01*
X7385571D01*
Y4485500D01*
X7386857D01*
Y4485071D01*
X7387714D01*
Y4484643D01*
X7389000D01*
Y4484214D01*
X7389857D01*
Y4483786D01*
X7391143D01*
Y4483357D01*
X7392000D01*
Y4482929D01*
X7393286D01*
Y4483357D01*
X7394143D01*
Y4483786D01*
X7394571D01*
Y4484214D01*
X7395428D01*
Y4484643D01*
X7395857D01*
Y4485071D01*
X7396286D01*
Y4485500D01*
X7397143D01*
Y4485929D01*
X7397571D01*
Y4486357D01*
X7398428D01*
Y4486786D01*
X7398857D01*
Y4487214D01*
X7399714D01*
Y4487643D01*
X7400143D01*
Y4488071D01*
X7401000D01*
Y4488500D01*
X7401428D01*
Y4488929D01*
X7402286D01*
Y4489357D01*
X7402714D01*
Y4489786D01*
X7403143D01*
Y4490214D01*
X7404000D01*
Y4490643D01*
X7404428D01*
Y4491071D01*
X7405286D01*
Y4491500D01*
X7405714D01*
Y4491929D01*
X7406571D01*
Y4492357D01*
X7407000D01*
Y4492786D01*
X7407857D01*
Y4493214D01*
X7408286D01*
Y4493643D01*
X7409143D01*
Y4494071D01*
X7409571D01*
Y4494500D01*
X7410000D01*
Y4494929D01*
X7410857D01*
Y4495357D01*
X7411286D01*
Y4495786D01*
X7412143D01*
Y4496214D01*
X7412571D01*
Y4496643D01*
X7413428D01*
Y4497071D01*
X7413857D01*
Y4497500D01*
X7414714D01*
Y4497929D01*
X7415143D01*
Y4498357D01*
X7416000D01*
Y4498786D01*
X7416428D01*
Y4499214D01*
X7417286D01*
Y4499643D01*
X7417714D01*
Y4500071D01*
X7418143D01*
Y4500500D01*
X7419000D01*
Y4500929D01*
X7419428D01*
Y4501357D01*
X7420286D01*
Y4501786D01*
X7420714D01*
Y4502214D01*
X7422857D01*
Y4501786D01*
X7423286D01*
Y4501357D01*
X7423714D01*
Y4500929D01*
X7424143D01*
Y4500500D01*
X7424571D01*
Y4500071D01*
X7425000D01*
Y4499643D01*
X7425429D01*
Y4499214D01*
X7425857D01*
Y4498786D01*
X7426286D01*
Y4498357D01*
X7426714D01*
Y4497929D01*
X7427143D01*
Y4497500D01*
X7427571D01*
Y4497071D01*
X7428000D01*
Y4496643D01*
X7428429D01*
Y4496214D01*
X7428857D01*
Y4495786D01*
X7429286D01*
Y4495357D01*
X7429714D01*
Y4494929D01*
X7430143D01*
Y4494500D01*
X7430571D01*
Y4494071D01*
X7431000D01*
Y4493643D01*
X7431429D01*
Y4493214D01*
X7431857D01*
Y4492786D01*
X7432286D01*
Y4492357D01*
X7432714D01*
Y4491929D01*
X7433143D01*
Y4491500D01*
X7433571D01*
Y4491071D01*
X7434000D01*
Y4490643D01*
X7434429D01*
Y4490214D01*
X7434857D01*
Y4489786D01*
X7435286D01*
Y4489357D01*
X7435714D01*
Y4488929D01*
X7436143D01*
Y4488500D01*
X7436571D01*
Y4488071D01*
X7437000D01*
Y4487643D01*
X7437429D01*
Y4487214D01*
X7437857D01*
Y4486786D01*
X7438286D01*
Y4486357D01*
X7438714D01*
Y4485929D01*
X7439143D01*
Y4485500D01*
X7439571D01*
Y4485071D01*
X7440000D01*
Y4484643D01*
X7440429D01*
Y4484214D01*
X7440857D01*
Y4483786D01*
X7441286D01*
Y4483357D01*
X7441714D01*
Y4482929D01*
X7442143D01*
Y4482500D01*
X7442571D01*
Y4482071D01*
X7443000D01*
Y4481643D01*
X7443429D01*
Y4481214D01*
X7443857D01*
Y4480786D01*
X7444286D01*
Y4480357D01*
X7444714D01*
Y4479929D01*
X7445143D01*
Y4479500D01*
X7445571D01*
Y4479071D01*
X7446000D01*
Y4478643D01*
X7446429D01*
Y4478214D01*
Y4477786D01*
Y4477357D01*
Y4476929D01*
Y4476500D01*
X7446000D01*
Y4476071D01*
X7445571D01*
Y4475643D01*
Y4475214D01*
X7445143D01*
Y4474786D01*
X7444714D01*
Y4474357D01*
Y4473929D01*
X7444286D01*
Y4473500D01*
X7443857D01*
Y4473071D01*
Y4472643D01*
X7443429D01*
Y4472214D01*
X7443000D01*
Y4471786D01*
X7442571D01*
Y4471357D01*
Y4470929D01*
X7442143D01*
Y4470500D01*
X7441714D01*
Y4470071D01*
Y4469643D01*
X7441286D01*
Y4469214D01*
X7440857D01*
Y4468786D01*
Y4468357D01*
X7440429D01*
Y4467929D01*
X7440000D01*
Y4467500D01*
Y4467071D01*
X7439571D01*
Y4466643D01*
X7439143D01*
Y4466214D01*
Y4465786D01*
X7438714D01*
Y4465357D01*
X7438286D01*
Y4464929D01*
X7437857D01*
Y4464500D01*
Y4464071D01*
X7437429D01*
Y4463643D01*
X7437000D01*
Y4463214D01*
Y4462786D01*
X7436571D01*
Y4462357D01*
X7436143D01*
Y4461929D01*
Y4461500D01*
X7435714D01*
Y4461071D01*
X7435286D01*
Y4460643D01*
Y4460214D01*
X7434857D01*
Y4459786D01*
X7434429D01*
Y4459357D01*
Y4458929D01*
X7434000D01*
Y4458500D01*
X7433571D01*
Y4458071D01*
X7433143D01*
Y4457643D01*
Y4457214D01*
X7432714D01*
Y4456786D01*
X7432286D01*
Y4456357D01*
Y4455929D01*
X7431857D01*
Y4455500D01*
X7431429D01*
Y4455071D01*
Y4454643D01*
X7431000D01*
Y4454214D01*
X7430571D01*
Y4453786D01*
Y4453357D01*
X7430143D01*
Y4452929D01*
X7429714D01*
Y4452500D01*
Y4452071D01*
X7429286D01*
Y4451643D01*
X7428857D01*
Y4451214D01*
Y4450786D01*
X7428429D01*
Y4450357D01*
X7428000D01*
Y4449929D01*
Y4449500D01*
X7427571D01*
Y4449071D01*
Y4448643D01*
Y4448214D01*
X7428000D01*
Y4447786D01*
Y4447357D01*
Y4446929D01*
X7428429D01*
Y4446500D01*
Y4446071D01*
X7428857D01*
Y4445643D01*
Y4445214D01*
X7429286D01*
Y4444786D01*
Y4444357D01*
Y4443929D01*
X7429714D01*
Y4443500D01*
Y4443071D01*
X7430143D01*
Y4442643D01*
Y4442214D01*
X7430571D01*
Y4441786D01*
Y4441357D01*
Y4440928D01*
X7431000D01*
Y4440500D01*
Y4440071D01*
X7431429D01*
Y4439643D01*
Y4439214D01*
X7431857D01*
Y4438786D01*
Y4438357D01*
Y4437928D01*
X7432286D01*
Y4437500D01*
Y4437071D01*
X7432714D01*
Y4436643D01*
Y4436214D01*
X7433143D01*
Y4435786D01*
Y4435357D01*
Y4434928D01*
X7433571D01*
Y4434500D01*
Y4434071D01*
X7434000D01*
Y4433643D01*
Y4433214D01*
X7434429D01*
Y4432786D01*
Y4432357D01*
Y4431928D01*
X7434857D01*
Y4431500D01*
Y4431071D01*
X7435286D01*
Y4430643D01*
Y4430214D01*
X7435714D01*
Y4429786D01*
Y4429357D01*
Y4428928D01*
X7436143D01*
Y4428500D01*
Y4428071D01*
X7436571D01*
Y4427643D01*
Y4427214D01*
X7437000D01*
Y4426786D01*
Y4426357D01*
Y4425928D01*
X7437429D01*
Y4425500D01*
Y4425071D01*
X7437857D01*
Y4424643D01*
X7438714D01*
Y4424214D01*
X7440000D01*
Y4423786D01*
X7442571D01*
Y4423357D01*
X7444714D01*
Y4422928D01*
X7446857D01*
Y4422500D01*
X7449429D01*
Y4422071D01*
X7451571D01*
Y4421643D01*
X7454143D01*
Y4421214D01*
X7456286D01*
Y4420786D01*
X7458429D01*
Y4420357D01*
X7461000D01*
Y4419928D01*
X7463143D01*
Y4419500D01*
X7465286D01*
Y4419071D01*
X7467857D01*
Y4418643D01*
X7470000D01*
Y4418214D01*
X7471286D01*
Y4417786D01*
Y4417357D01*
X7471714D01*
Y4416928D01*
Y4416500D01*
Y4416071D01*
Y4415643D01*
Y4415214D01*
Y4414786D01*
Y4414357D01*
Y4413928D01*
Y4413500D01*
Y4413071D01*
Y4412643D01*
Y4412214D01*
Y4411786D01*
Y4411357D01*
Y4410928D01*
Y4410500D01*
Y4410071D01*
Y4409643D01*
Y4409214D01*
Y4408786D01*
Y4408357D01*
Y4407928D01*
Y4407500D01*
Y4407071D01*
Y4406643D01*
Y4406214D01*
Y4405786D01*
Y4405357D01*
Y4404928D01*
Y4404500D01*
Y4404071D01*
Y4403643D01*
Y4403214D01*
Y4402786D01*
Y4402357D01*
Y4401928D01*
Y4401500D01*
Y4401071D01*
Y4400643D01*
Y4400214D01*
Y4399786D01*
Y4399357D01*
Y4398928D01*
Y4398500D01*
Y4398071D01*
Y4397643D01*
Y4397214D01*
Y4396786D01*
Y4396357D01*
Y4395928D01*
Y4395500D01*
Y4395071D01*
Y4394643D01*
Y4394214D01*
Y4393786D01*
Y4393357D01*
Y4392928D01*
Y4392500D01*
Y4392071D01*
Y4391643D01*
Y4391214D01*
Y4390786D01*
Y4390357D01*
Y4389928D01*
Y4389500D01*
Y4389071D01*
Y4388643D01*
Y4388214D01*
Y4387786D01*
Y4387357D01*
Y4386928D01*
Y4386500D01*
Y4386071D01*
Y4385643D01*
Y4385214D01*
Y4384786D01*
Y4384357D01*
Y4383928D01*
Y4383500D01*
X7471286D01*
Y4383071D01*
X7470857D01*
Y4382643D01*
X7469571D01*
Y4382214D01*
X7467429D01*
Y4381786D01*
X7464857D01*
Y4381357D01*
X7462714D01*
Y4380928D01*
X7460143D01*
Y4380500D01*
X7458000D01*
Y4380072D01*
X7455857D01*
Y4379643D01*
X7453286D01*
Y4379214D01*
X7451143D01*
Y4378786D01*
X7449000D01*
Y4378357D01*
X7446429D01*
Y4377929D01*
X7444286D01*
Y4377500D01*
X7441714D01*
Y4377071D01*
X7439571D01*
Y4376643D01*
X7439143D01*
Y4376214D01*
X7438714D01*
Y4375786D01*
X7438286D01*
Y4375357D01*
Y4374929D01*
X7437857D01*
Y4374500D01*
Y4374071D01*
X7437429D01*
Y4373643D01*
Y4373214D01*
Y4372786D01*
X7437000D01*
Y4372357D01*
Y4371929D01*
X7436571D01*
Y4371500D01*
Y4371071D01*
Y4370643D01*
X7436143D01*
Y4370214D01*
Y4369786D01*
X7435714D01*
Y4369357D01*
Y4368929D01*
Y4368500D01*
X7435286D01*
Y4368071D01*
Y4367643D01*
X7434857D01*
Y4367214D01*
Y4366786D01*
Y4366357D01*
X7434429D01*
Y4365929D01*
Y4365500D01*
X7434000D01*
Y4365071D01*
Y4364643D01*
Y4364214D01*
X7433571D01*
Y4363786D01*
Y4363357D01*
X7433143D01*
Y4362929D01*
Y4362500D01*
Y4362071D01*
X7432714D01*
Y4361643D01*
Y4361214D01*
X7432286D01*
Y4360786D01*
Y4360357D01*
Y4359929D01*
X7431857D01*
Y4359500D01*
Y4359071D01*
X7431429D01*
Y4358643D01*
Y4358214D01*
Y4357786D01*
X7431000D01*
Y4357357D01*
Y4356929D01*
X7430571D01*
Y4356500D01*
Y4356071D01*
Y4355643D01*
X7430143D01*
Y4355214D01*
Y4354786D01*
X7429714D01*
Y4354357D01*
Y4353929D01*
Y4353500D01*
X7429286D01*
Y4353071D01*
Y4352643D01*
X7428857D01*
Y4352214D01*
Y4351786D01*
Y4351357D01*
X7428429D01*
Y4350929D01*
Y4350500D01*
Y4350071D01*
X7428857D01*
Y4349643D01*
Y4349214D01*
X7429286D01*
Y4348786D01*
X7429714D01*
Y4348357D01*
Y4347929D01*
X7430143D01*
Y4347500D01*
X7430571D01*
Y4347071D01*
Y4346643D01*
X7431000D01*
Y4346214D01*
X7431429D01*
Y4345786D01*
X7431857D01*
Y4345357D01*
Y4344929D01*
X7432286D01*
Y4344500D01*
X7432714D01*
Y4344071D01*
Y4343643D01*
X7433143D01*
Y4343214D01*
X7433571D01*
Y4342786D01*
Y4342357D01*
X7434000D01*
Y4341929D01*
X7434429D01*
Y4341500D01*
Y4341071D01*
X7434857D01*
Y4340643D01*
X7435286D01*
Y4340214D01*
Y4339786D01*
X7435714D01*
Y4339357D01*
X7436143D01*
Y4338929D01*
X7436571D01*
Y4338500D01*
Y4338071D01*
X7437000D01*
Y4337643D01*
X7437429D01*
Y4337214D01*
Y4336786D01*
X7437857D01*
Y4336357D01*
X7438286D01*
Y4335929D01*
Y4335500D01*
X7438714D01*
Y4335071D01*
X7439143D01*
Y4334643D01*
Y4334214D01*
X7439571D01*
Y4333786D01*
X7440000D01*
Y4333357D01*
Y4332929D01*
X7440429D01*
Y4332500D01*
X7440857D01*
Y4332071D01*
Y4331643D01*
X7441286D01*
Y4331214D01*
X7441714D01*
Y4330786D01*
X7442143D01*
Y4330357D01*
Y4329929D01*
X7442571D01*
Y4329500D01*
X7443000D01*
Y4329071D01*
Y4328643D01*
X7443429D01*
Y4328214D01*
X7443857D01*
Y4327786D01*
Y4327357D01*
X7444286D01*
Y4326929D01*
X7444714D01*
Y4326500D01*
Y4326071D01*
X7445143D01*
Y4325643D01*
X7445571D01*
Y4325214D01*
Y4324786D01*
X7446000D01*
Y4324357D01*
X7446429D01*
Y4323929D01*
Y4323500D01*
Y4323071D01*
Y4322643D01*
Y4322214D01*
X7446000D01*
Y4321786D01*
X7445571D01*
Y4321357D01*
X7445143D01*
Y4320929D01*
X7444714D01*
Y4320500D01*
X7444286D01*
Y4320071D01*
X7443857D01*
Y4319643D01*
X7443429D01*
Y4319214D01*
X7443000D01*
Y4318786D01*
X7442571D01*
Y4318357D01*
X7442143D01*
Y4317929D01*
X7441714D01*
Y4317500D01*
X7441286D01*
Y4317071D01*
X7440857D01*
Y4316643D01*
X7440429D01*
Y4316214D01*
X7440000D01*
Y4315786D01*
X7439571D01*
Y4315357D01*
X7439143D01*
Y4314929D01*
X7438714D01*
Y4314500D01*
X7438286D01*
Y4314071D01*
X7437857D01*
Y4313643D01*
X7437429D01*
Y4313214D01*
X7437000D01*
Y4312786D01*
X7436571D01*
Y4312357D01*
X7436143D01*
Y4311929D01*
X7435714D01*
Y4311500D01*
X7435286D01*
Y4311071D01*
X7434857D01*
Y4310643D01*
X7434429D01*
Y4310214D01*
X7434000D01*
Y4309786D01*
X7433571D01*
Y4309357D01*
X7433143D01*
Y4308929D01*
X7432714D01*
Y4308500D01*
X7432286D01*
Y4308071D01*
X7431857D01*
Y4307643D01*
X7431429D01*
Y4307214D01*
X7431000D01*
Y4306786D01*
X7430571D01*
Y4306357D01*
X7430143D01*
Y4305929D01*
X7429714D01*
Y4305500D01*
X7429286D01*
Y4305071D01*
X7428857D01*
Y4304643D01*
X7428429D01*
Y4304214D01*
X7428000D01*
Y4303786D01*
X7427571D01*
Y4303357D01*
X7427143D01*
Y4302929D01*
X7426714D01*
Y4302500D01*
X7426286D01*
Y4302071D01*
X7425857D01*
Y4301643D01*
X7425429D01*
Y4301214D01*
X7425000D01*
Y4300786D01*
X7424571D01*
Y4300357D01*
X7424143D01*
Y4299929D01*
X7423714D01*
Y4299500D01*
X7423286D01*
Y4299071D01*
X7422429D01*
Y4298643D01*
X7421143D01*
Y4299071D01*
X7420286D01*
Y4299500D01*
X7419857D01*
Y4299929D01*
X7419000D01*
Y4300357D01*
X7418571D01*
Y4300786D01*
X7417714D01*
Y4301214D01*
X7417286D01*
Y4301643D01*
X7416428D01*
Y4302071D01*
X7416000D01*
Y4302500D01*
X7415143D01*
Y4302929D01*
X7414714D01*
Y4303357D01*
X7414286D01*
Y4303786D01*
X7413428D01*
Y4304214D01*
X7413000D01*
Y4304643D01*
X7412143D01*
Y4305071D01*
X7411714D01*
Y4305500D01*
X7410857D01*
Y4305929D01*
X7410428D01*
Y4306357D01*
X7409571D01*
Y4306786D01*
X7409143D01*
Y4307214D01*
X7408286D01*
Y4307643D01*
X7407857D01*
Y4308071D01*
X7407428D01*
Y4308500D01*
X7406571D01*
Y4308929D01*
X7406143D01*
Y4309357D01*
X7405286D01*
Y4309786D01*
X7404857D01*
Y4310214D01*
X7404000D01*
Y4310643D01*
X7403571D01*
Y4311071D01*
X7402714D01*
Y4311500D01*
X7402286D01*
Y4311929D01*
X7401428D01*
Y4312357D01*
X7401000D01*
Y4312786D01*
X7400571D01*
Y4313214D01*
X7399714D01*
Y4313643D01*
X7399286D01*
Y4314071D01*
X7398428D01*
Y4314500D01*
X7398000D01*
Y4314929D01*
X7397143D01*
Y4315357D01*
X7396714D01*
Y4315786D01*
X7395857D01*
Y4316214D01*
X7393714D01*
Y4315786D01*
X7392857D01*
Y4315357D01*
X7392428D01*
Y4314929D01*
X7391571D01*
Y4314500D01*
X7390714D01*
Y4314071D01*
X7389857D01*
Y4313643D01*
X7389000D01*
Y4313214D01*
X7388143D01*
Y4312786D01*
X7387286D01*
Y4312357D01*
X7386428D01*
Y4311929D01*
X7386000D01*
Y4311500D01*
X7385143D01*
Y4311071D01*
X7384286D01*
Y4310643D01*
X7383428D01*
Y4310214D01*
X7381286D01*
Y4310643D01*
X7380857D01*
Y4311071D01*
Y4311500D01*
X7380428D01*
Y4311929D01*
Y4312357D01*
Y4312786D01*
X7380000D01*
Y4313214D01*
Y4313643D01*
X7379571D01*
Y4314071D01*
Y4314500D01*
X7379143D01*
Y4314929D01*
Y4315357D01*
Y4315786D01*
X7378714D01*
Y4316214D01*
Y4316643D01*
X7378286D01*
Y4317071D01*
Y4317500D01*
Y4317929D01*
X7377857D01*
Y4318357D01*
Y4318786D01*
X7377428D01*
Y4319214D01*
Y4319643D01*
Y4320071D01*
X7377000D01*
Y4320500D01*
Y4320929D01*
X7376571D01*
Y4321357D01*
Y4321786D01*
X7376143D01*
Y4322214D01*
Y4322643D01*
Y4323071D01*
X7375714D01*
Y4323500D01*
Y4323929D01*
X7375286D01*
Y4324357D01*
Y4324786D01*
Y4325214D01*
X7374857D01*
Y4325643D01*
Y4326071D01*
X7374428D01*
Y4326500D01*
Y4326929D01*
X7374000D01*
Y4327357D01*
Y4327786D01*
Y4328214D01*
X7373571D01*
Y4328643D01*
Y4329071D01*
X7373143D01*
Y4329500D01*
Y4329929D01*
Y4330357D01*
X7372714D01*
Y4330786D01*
Y4331214D01*
X7372286D01*
Y4331643D01*
Y4332071D01*
Y4332500D01*
X7371857D01*
Y4332929D01*
Y4333357D01*
X7371428D01*
Y4333786D01*
Y4334214D01*
X7371000D01*
Y4334643D01*
Y4335071D01*
Y4335500D01*
X7370571D01*
Y4335929D01*
Y4336357D01*
X7370143D01*
Y4336786D01*
Y4337214D01*
Y4337643D01*
X7369714D01*
Y4338071D01*
Y4338500D01*
X7369286D01*
Y4338929D01*
Y4339357D01*
X7368857D01*
Y4339786D01*
Y4340214D01*
Y4340643D01*
X7368428D01*
Y4341071D01*
Y4341500D01*
X7368000D01*
Y4341929D01*
Y4342357D01*
Y4342786D01*
X7367571D01*
Y4343214D01*
Y4343643D01*
X7367143D01*
Y4344071D01*
Y4344500D01*
Y4344929D01*
X7366714D01*
Y4345357D01*
Y4345786D01*
X7366286D01*
Y4346214D01*
Y4346643D01*
X7365857D01*
Y4347071D01*
Y4347500D01*
Y4347929D01*
X7365429D01*
Y4348357D01*
Y4348786D01*
X7365000D01*
Y4349214D01*
Y4349643D01*
Y4350071D01*
X7364572D01*
Y4350500D01*
Y4350929D01*
X7364143D01*
Y4351357D01*
Y4351786D01*
X7363714D01*
Y4352214D01*
Y4352643D01*
Y4353071D01*
X7363286D01*
Y4353500D01*
Y4353929D01*
X7362857D01*
Y4354357D01*
Y4354786D01*
Y4355214D01*
X7362429D01*
Y4355643D01*
Y4356071D01*
X7362000D01*
Y4356500D01*
Y4356929D01*
Y4357357D01*
X7361572D01*
Y4357786D01*
Y4358214D01*
X7361143D01*
Y4358643D01*
Y4359071D01*
X7360714D01*
Y4359500D01*
Y4359929D01*
Y4360357D01*
X7360286D01*
Y4360786D01*
Y4361214D01*
X7359857D01*
Y4361643D01*
Y4362071D01*
Y4362500D01*
X7359429D01*
Y4362929D01*
Y4363357D01*
X7359000D01*
Y4363786D01*
Y4364214D01*
X7358572D01*
Y4364643D01*
Y4365071D01*
Y4365500D01*
X7358143D01*
Y4365929D01*
Y4366357D01*
X7358572D01*
Y4366786D01*
Y4367214D01*
X7359000D01*
Y4367643D01*
X7359429D01*
Y4368071D01*
X7360286D01*
Y4368500D01*
X7360714D01*
Y4368929D01*
X7361572D01*
Y4369357D01*
X7362000D01*
Y4369786D01*
X7362857D01*
Y4370214D01*
X7363286D01*
Y4370643D01*
X7363714D01*
Y4371071D01*
X7364572D01*
Y4371500D01*
X7365000D01*
Y4371929D01*
X7365857D01*
Y4372357D01*
X7366286D01*
Y4372786D01*
X7366714D01*
Y4373214D01*
X7367143D01*
Y4373643D01*
X7368000D01*
Y4374071D01*
X7368428D01*
Y4374500D01*
X7368857D01*
Y4374929D01*
X7369286D01*
Y4375357D01*
X7369714D01*
Y4375786D01*
X7370143D01*
Y4376214D01*
X7370571D01*
Y4376643D01*
X7371000D01*
Y4377071D01*
X7371428D01*
Y4377500D01*
Y4377929D01*
X7371857D01*
Y4378357D01*
X7372286D01*
Y4378786D01*
X7372714D01*
Y4379214D01*
X7373143D01*
Y4379643D01*
Y4380072D01*
X7373571D01*
Y4380500D01*
X7374000D01*
Y4380928D01*
Y4381357D01*
X7374428D01*
Y4381786D01*
X7374857D01*
Y4382214D01*
Y4382643D01*
X7375286D01*
Y4383071D01*
Y4383500D01*
X7375714D01*
Y4383928D01*
Y4384357D01*
X7376143D01*
Y4384786D01*
Y4385214D01*
X7376571D01*
Y4385643D01*
Y4386071D01*
X7377000D01*
Y4386500D01*
Y4386928D01*
X7377428D01*
Y4387357D01*
Y4387786D01*
X7377857D01*
Y4388214D01*
Y4388643D01*
Y4389071D01*
X7378286D01*
Y4389500D01*
Y4389928D01*
Y4390357D01*
X7378714D01*
Y4390786D01*
Y4391214D01*
Y4391643D01*
Y4392071D01*
X7379143D01*
Y4392500D01*
Y4392928D01*
Y4393357D01*
Y4393786D01*
Y4394214D01*
X7379571D01*
Y4394643D01*
Y4395071D01*
Y4395500D01*
Y4395928D01*
Y4396357D01*
Y4396786D01*
Y4397214D01*
X7380000D01*
Y4397643D01*
Y4398071D01*
Y4398500D01*
Y4398928D01*
Y4399357D01*
Y4399786D01*
Y4400214D01*
Y4400643D01*
Y4401071D01*
Y4401500D01*
Y4401928D01*
Y4402357D01*
Y4402786D01*
Y4403214D01*
X7379571D01*
Y4403643D01*
Y4404071D01*
Y4404500D01*
Y4404928D01*
Y4405357D01*
Y4405786D01*
Y4406214D01*
X7379143D01*
Y4406643D01*
Y4407071D01*
Y4407500D01*
Y4407928D01*
Y4408357D01*
X7378714D01*
Y4408786D01*
Y4409214D01*
Y4409643D01*
Y4410071D01*
X7378286D01*
Y4410500D01*
Y4410928D01*
Y4411357D01*
X7377857D01*
Y4411786D01*
Y4412214D01*
Y4412643D01*
X7377428D01*
Y4413071D01*
Y4413500D01*
X7377000D01*
Y4413928D01*
Y4414357D01*
Y4414786D01*
X7376571D01*
Y4415214D01*
Y4415643D01*
X7376143D01*
Y4416071D01*
Y4416500D01*
X7375714D01*
Y4416928D01*
Y4417357D01*
X7375286D01*
Y4417786D01*
X7374857D01*
Y4418214D01*
Y4418643D01*
X7374428D01*
Y4419071D01*
Y4419500D01*
X7374000D01*
Y4419928D01*
X7373571D01*
Y4420357D01*
Y4420786D01*
X7373143D01*
Y4421214D01*
X7372714D01*
Y4421643D01*
X7372286D01*
Y4422071D01*
Y4422500D01*
X7371857D01*
Y4422928D01*
X7371428D01*
Y4423357D01*
X7371000D01*
Y4423786D01*
X7370571D01*
Y4424214D01*
X7370143D01*
Y4424643D01*
X7369714D01*
Y4425071D01*
X7369286D01*
Y4425500D01*
X7368857D01*
Y4425928D01*
X7368428D01*
Y4426357D01*
X7368000D01*
Y4426786D01*
X7367571D01*
Y4427214D01*
X7367143D01*
Y4427643D01*
X7366714D01*
Y4428071D01*
X7365857D01*
Y4428500D01*
X7365429D01*
Y4428928D01*
X7364572D01*
Y4429357D01*
X7364143D01*
Y4429786D01*
X7363286D01*
Y4430214D01*
X7362857D01*
Y4430643D01*
X7362000D01*
Y4431071D01*
X7361143D01*
Y4431500D01*
X7360286D01*
Y4431928D01*
X7359429D01*
Y4432357D01*
X7358572D01*
Y4432786D01*
X7357714D01*
Y4433214D01*
X7356429D01*
Y4433643D01*
X7355143D01*
Y4434071D01*
X7353857D01*
Y4434500D01*
X7352143D01*
Y4434928D01*
X7349571D01*
Y4435357D01*
X7339714D01*
Y4434928D01*
X7337143D01*
Y4434500D01*
X7335429D01*
Y4434071D01*
X7334143D01*
Y4433643D01*
X7332857D01*
Y4433214D01*
X7331571D01*
Y4432786D01*
X7330714D01*
Y4432357D01*
X7329857D01*
Y4431928D01*
X7329000D01*
Y4431500D01*
X7328143D01*
Y4431071D01*
X7327286D01*
Y4430643D01*
X7326429D01*
Y4430214D01*
X7326000D01*
Y4429786D01*
X7325143D01*
Y4429357D01*
X7324714D01*
Y4428928D01*
X7323857D01*
Y4428500D01*
X7323429D01*
Y4428071D01*
X7323000D01*
Y4427643D01*
X7322571D01*
Y4427214D01*
X7321714D01*
Y4426786D01*
X7321286D01*
Y4426357D01*
X7320857D01*
Y4425928D01*
X7320429D01*
Y4425500D01*
X7320000D01*
Y4425071D01*
X7319571D01*
Y4424643D01*
X7319143D01*
Y4424214D01*
X7318714D01*
Y4423786D01*
X7318286D01*
Y4423357D01*
X7317857D01*
Y4422928D01*
X7317429D01*
Y4422500D01*
Y4422071D01*
X7317000D01*
Y4421643D01*
X7316571D01*
Y4421214D01*
X7316143D01*
Y4420786D01*
Y4420357D01*
X7315714D01*
Y4419928D01*
X7315286D01*
Y4419500D01*
Y4419071D01*
X7314857D01*
Y4418643D01*
X7314429D01*
Y4418214D01*
Y4417786D01*
X7314000D01*
Y4417357D01*
Y4416928D01*
X7313571D01*
Y4416500D01*
Y4416071D01*
X7313143D01*
Y4415643D01*
Y4415214D01*
X7312714D01*
Y4414786D01*
Y4414357D01*
X7312286D01*
Y4413928D01*
Y4413500D01*
X7311857D01*
Y4413071D01*
Y4412643D01*
Y4412214D01*
X7311429D01*
Y4411786D01*
Y4411357D01*
Y4410928D01*
X7311000D01*
Y4410500D01*
Y4410071D01*
Y4409643D01*
X7310571D01*
Y4409214D01*
Y4408786D01*
Y4408357D01*
Y4407928D01*
X7310143D01*
Y4407500D01*
Y4407071D01*
Y4406643D01*
Y4406214D01*
Y4405786D01*
X7309714D01*
Y4405357D01*
Y4404928D01*
Y4404500D01*
Y4404071D01*
Y4403643D01*
Y4403214D01*
Y4402786D01*
Y4402357D01*
Y4401928D01*
Y4401500D01*
X7309286D01*
Y4401071D01*
Y4400643D01*
Y4400214D01*
Y4399786D01*
Y4399357D01*
Y4398928D01*
X7309714D01*
Y4398500D01*
Y4398071D01*
Y4397643D01*
Y4397214D01*
Y4396786D01*
Y4396357D01*
Y4395928D01*
Y4395500D01*
Y4395071D01*
Y4394643D01*
X7310143D01*
Y4394214D01*
Y4393786D01*
Y4393357D01*
Y4392928D01*
Y4392500D01*
X7310571D01*
Y4392071D01*
Y4391643D01*
Y4391214D01*
Y4390786D01*
X7311000D01*
Y4390357D01*
Y4389928D01*
Y4389500D01*
X7311429D01*
Y4389071D01*
Y4388643D01*
Y4388214D01*
X7311857D01*
Y4387786D01*
Y4387357D01*
X7312286D01*
Y4386928D01*
Y4386500D01*
Y4386071D01*
X7312714D01*
Y4385643D01*
Y4385214D01*
X7313143D01*
Y4384786D01*
Y4384357D01*
X7313571D01*
Y4383928D01*
Y4383500D01*
X7314000D01*
Y4383071D01*
Y4382643D01*
X7314429D01*
Y4382214D01*
X7314857D01*
Y4381786D01*
Y4381357D01*
X7315286D01*
Y4380928D01*
X7315714D01*
Y4380500D01*
Y4380072D01*
X7316143D01*
Y4379643D01*
X7316571D01*
Y4379214D01*
Y4378786D01*
X7317000D01*
Y4378357D01*
X7317429D01*
Y4377929D01*
X7317857D01*
Y4377500D01*
X7318286D01*
Y4377071D01*
X7318714D01*
Y4376643D01*
Y4376214D01*
X7319143D01*
Y4375786D01*
X7319571D01*
Y4375357D01*
X7320000D01*
Y4374929D01*
X7320429D01*
Y4374500D01*
X7321286D01*
Y4374071D01*
X7321714D01*
Y4373643D01*
X7322143D01*
Y4373214D01*
X7322571D01*
Y4372786D01*
X7323000D01*
Y4372357D01*
X7323857D01*
Y4371929D01*
X7324286D01*
Y4371500D01*
X7324714D01*
Y4371071D01*
X7325571D01*
Y4370643D01*
X7326000D01*
Y4370214D01*
X7326429D01*
Y4369786D01*
X7327286D01*
Y4369357D01*
X7327714D01*
Y4368929D01*
X7328571D01*
Y4368500D01*
X7329429D01*
Y4368071D01*
X7329857D01*
Y4367643D01*
X7330714D01*
Y4367214D01*
Y4366786D01*
X7331143D01*
Y4366357D01*
Y4365929D01*
Y4365500D01*
Y4365071D01*
X7330714D01*
Y4364643D01*
Y4364214D01*
X7330286D01*
Y4363786D01*
Y4363357D01*
Y4362929D01*
X7329857D01*
Y4362500D01*
Y4362071D01*
X7329429D01*
Y4361643D01*
Y4361214D01*
X7329000D01*
Y4360786D01*
Y4360357D01*
Y4359929D01*
X7328571D01*
Y4359500D01*
Y4359071D01*
X7328143D01*
Y4358643D01*
Y4358214D01*
Y4357786D01*
X7327714D01*
Y4357357D01*
Y4356929D01*
X7327286D01*
Y4356500D01*
Y4356071D01*
X7326857D01*
Y4355643D01*
Y4355214D01*
Y4354786D01*
X7326429D01*
Y4354357D01*
Y4353929D01*
X7326000D01*
Y4353500D01*
Y4353071D01*
Y4352643D01*
X7325571D01*
Y4352214D01*
Y4351786D01*
X7325143D01*
Y4351357D01*
Y4350929D01*
Y4350500D01*
X7324714D01*
Y4350071D01*
Y4349643D01*
X7324286D01*
Y4349214D01*
Y4348786D01*
X7323857D01*
Y4348357D01*
Y4347929D01*
Y4347500D01*
X7323429D01*
Y4347071D01*
Y4346643D01*
X7323000D01*
Y4346214D01*
Y4345786D01*
Y4345357D01*
X7322571D01*
Y4344929D01*
Y4344500D01*
X7322143D01*
Y4344071D01*
Y4343643D01*
X7321714D01*
Y4343214D01*
Y4342786D01*
Y4342357D01*
X7321286D01*
Y4341929D01*
Y4341500D01*
X7320857D01*
Y4341071D01*
Y4340643D01*
Y4340214D01*
X7320429D01*
Y4339786D01*
Y4339357D01*
X7320000D01*
Y4338929D01*
Y4338500D01*
Y4338071D01*
X7319571D01*
Y4337643D01*
Y4337214D01*
X7319143D01*
Y4336786D01*
Y4336357D01*
X7318714D01*
Y4335929D01*
Y4335500D01*
Y4335071D01*
X7318286D01*
Y4334643D01*
Y4334214D01*
X7317857D01*
Y4333786D01*
Y4333357D01*
Y4332929D01*
X7317429D01*
Y4332500D01*
Y4332071D01*
X7317000D01*
Y4331643D01*
Y4331214D01*
X7316571D01*
Y4330786D01*
Y4330357D01*
Y4329929D01*
X7316143D01*
Y4329500D01*
Y4329071D01*
X7315714D01*
Y4328643D01*
Y4328214D01*
Y4327786D01*
X7315286D01*
Y4327357D01*
Y4326929D01*
X7314857D01*
Y4326500D01*
Y4326071D01*
Y4325643D01*
X7314429D01*
Y4325214D01*
Y4324786D01*
X7314000D01*
Y4324357D01*
Y4323929D01*
X7313571D01*
Y4323500D01*
Y4323071D01*
Y4322643D01*
X7313143D01*
Y4322214D01*
Y4321786D01*
X7312714D01*
Y4321357D01*
Y4320929D01*
Y4320500D01*
X7312286D01*
Y4320071D01*
Y4319643D01*
X7311857D01*
Y4319214D01*
Y4318786D01*
X7311429D01*
Y4318357D01*
Y4317929D01*
Y4317500D01*
X7311000D01*
Y4317071D01*
Y4316643D01*
X7310571D01*
Y4316214D01*
Y4315786D01*
Y4315357D01*
X7310143D01*
Y4314929D01*
Y4314500D01*
X7309714D01*
Y4314071D01*
Y4313643D01*
Y4313214D01*
X7309286D01*
Y4312786D01*
Y4312357D01*
X7308857D01*
Y4311929D01*
Y4311500D01*
X7308429D01*
Y4311071D01*
Y4310643D01*
X7308000D01*
Y4310214D01*
X7305857D01*
Y4310643D01*
X7305000D01*
Y4311071D01*
X7304571D01*
Y4311500D01*
X7303714D01*
Y4311929D01*
X7302857D01*
Y4312357D01*
X7302000D01*
Y4312786D01*
X7301143D01*
Y4313214D01*
X7300286D01*
Y4313643D01*
X7299429D01*
Y4314071D01*
X7298571D01*
Y4314500D01*
X7298143D01*
Y4314929D01*
X7297286D01*
Y4315357D01*
X7296429D01*
Y4315786D01*
X7295571D01*
Y4316214D01*
X7293429D01*
Y4315786D01*
X7292571D01*
Y4315357D01*
X7292143D01*
Y4314929D01*
X7291714D01*
Y4314500D01*
X7290857D01*
Y4314071D01*
X7290429D01*
Y4313643D01*
X7289571D01*
Y4313214D01*
X7289143D01*
Y4312786D01*
X7288286D01*
Y4312357D01*
X7287857D01*
Y4311929D01*
X7287000D01*
Y4311500D01*
X7286571D01*
Y4311071D01*
X7285714D01*
Y4310643D01*
X7285286D01*
Y4310214D01*
X7284857D01*
Y4309786D01*
X7284000D01*
Y4309357D01*
X7283571D01*
Y4308929D01*
X7282714D01*
Y4308500D01*
X7282286D01*
Y4308071D01*
X7281429D01*
Y4307643D01*
X7281000D01*
Y4307214D01*
X7280143D01*
Y4306786D01*
X7279714D01*
Y4306357D01*
X7278857D01*
Y4305929D01*
X7278429D01*
Y4305500D01*
X7278000D01*
Y4305071D01*
X7277143D01*
Y4304643D01*
X7276714D01*
Y4304214D01*
X7275857D01*
Y4303786D01*
X7275429D01*
Y4303357D01*
X7274571D01*
Y4302929D01*
X7274143D01*
Y4302500D01*
X7273286D01*
Y4302071D01*
X7272857D01*
Y4301643D01*
X7272000D01*
Y4301214D01*
X7271571D01*
Y4300786D01*
X7270714D01*
Y4300357D01*
X7270286D01*
Y4299929D01*
X7269857D01*
Y4299500D01*
X7269000D01*
Y4299071D01*
X7268143D01*
Y4298643D01*
X7266857D01*
Y4299071D01*
X7266000D01*
Y4299500D01*
X7265571D01*
Y4299929D01*
X7265143D01*
Y4300357D01*
X7264714D01*
Y4300786D01*
X7264286D01*
Y4301214D01*
X7263857D01*
Y4301643D01*
X7263428D01*
Y4302071D01*
X7263000D01*
Y4302500D01*
X7262571D01*
Y4302929D01*
X7262143D01*
Y4303357D01*
X7261714D01*
Y4303786D01*
X7261286D01*
Y4304214D01*
X7260857D01*
Y4304643D01*
X7260428D01*
Y4305071D01*
X7260000D01*
Y4305500D01*
X7259571D01*
Y4305929D01*
X7259143D01*
Y4306357D01*
X7258714D01*
Y4306786D01*
X7258286D01*
Y4307214D01*
X7257857D01*
Y4307643D01*
X7257428D01*
Y4308071D01*
X7257000D01*
Y4308500D01*
X7256571D01*
Y4308929D01*
X7256143D01*
Y4309357D01*
X7255714D01*
Y4309786D01*
X7255286D01*
Y4310214D01*
X7254857D01*
Y4310643D01*
X7254428D01*
Y4311071D01*
X7254000D01*
Y4311500D01*
X7253571D01*
Y4311929D01*
X7253143D01*
Y4312357D01*
X7252714D01*
Y4312786D01*
X7252286D01*
Y4313214D01*
X7251857D01*
Y4313643D01*
X7251428D01*
Y4314071D01*
X7251000D01*
Y4314500D01*
X7250571D01*
Y4314929D01*
X7250143D01*
Y4315357D01*
X7249714D01*
Y4315786D01*
X7249286D01*
Y4316214D01*
X7248857D01*
Y4316643D01*
X7248428D01*
Y4317071D01*
X7248000D01*
Y4317500D01*
X7247571D01*
Y4317929D01*
X7247143D01*
Y4318357D01*
X7246714D01*
Y4318786D01*
X7246286D01*
Y4319214D01*
X7245857D01*
Y4319643D01*
X7245428D01*
Y4320071D01*
X7245000D01*
Y4320500D01*
X7244571D01*
Y4320929D01*
X7244143D01*
Y4321357D01*
X7243714D01*
Y4321786D01*
X7243286D01*
Y4322214D01*
Y4322643D01*
X7242857D01*
Y4323071D01*
Y4323500D01*
Y4323929D01*
X7243286D01*
Y4324357D01*
Y4324786D01*
X7243714D01*
Y4325214D01*
Y4325643D01*
X7244143D01*
Y4326071D01*
X7244571D01*
Y4326500D01*
X7245000D01*
Y4326929D01*
Y4327357D01*
X7245428D01*
Y4327786D01*
X7245857D01*
Y4328214D01*
Y4328643D01*
X7246286D01*
Y4329071D01*
X7246714D01*
Y4329500D01*
Y4329929D01*
X7247143D01*
Y4330357D01*
X7247571D01*
Y4330786D01*
Y4331214D01*
X7248000D01*
Y4331643D01*
X7248428D01*
Y4332071D01*
Y4332500D01*
X7248857D01*
Y4332929D01*
X7249286D01*
Y4333357D01*
X7249714D01*
Y4333786D01*
Y4334214D01*
X7250143D01*
Y4334643D01*
X7250571D01*
Y4335071D01*
Y4335500D01*
X7251000D01*
Y4335929D01*
X7251428D01*
Y4336357D01*
Y4336786D01*
X7251857D01*
Y4337214D01*
X7252286D01*
Y4337643D01*
Y4338071D01*
X7252714D01*
Y4338500D01*
X7253143D01*
Y4338929D01*
Y4339357D01*
X7253571D01*
Y4339786D01*
X7254000D01*
Y4340214D01*
Y4340643D01*
X7254428D01*
Y4341071D01*
X7254857D01*
Y4341500D01*
X7255286D01*
Y4341929D01*
Y4342357D01*
X7255714D01*
Y4342786D01*
X7256143D01*
Y4343214D01*
Y4343643D01*
X7256571D01*
Y4344071D01*
X7257000D01*
Y4344500D01*
Y4344929D01*
X7257428D01*
Y4345357D01*
X7257857D01*
Y4345786D01*
Y4346214D01*
X7258286D01*
Y4346643D01*
X7258714D01*
Y4347071D01*
Y4347500D01*
X7259143D01*
Y4347929D01*
X7259571D01*
Y4348357D01*
X7260000D01*
Y4348786D01*
Y4349214D01*
X7260428D01*
Y4349643D01*
X7260857D01*
Y4350071D01*
Y4350500D01*
Y4350929D01*
Y4351357D01*
Y4351786D01*
X7260428D01*
Y4352214D01*
Y4352643D01*
Y4353071D01*
X7260000D01*
Y4353500D01*
Y4353929D01*
X7259571D01*
Y4354357D01*
Y4354786D01*
Y4355214D01*
X7259143D01*
Y4355643D01*
Y4356071D01*
X7258714D01*
Y4356500D01*
Y4356929D01*
Y4357357D01*
X7258286D01*
Y4357786D01*
Y4358214D01*
X7257857D01*
Y4358643D01*
Y4359071D01*
Y4359500D01*
X7257428D01*
Y4359929D01*
Y4360357D01*
X7257000D01*
Y4360786D01*
Y4361214D01*
Y4361643D01*
X7256571D01*
Y4362071D01*
Y4362500D01*
X7256143D01*
Y4362929D01*
Y4363357D01*
Y4363786D01*
X7255714D01*
Y4364214D01*
Y4364643D01*
X7255286D01*
Y4365071D01*
Y4365500D01*
Y4365929D01*
X7254857D01*
Y4366357D01*
Y4366786D01*
X7254428D01*
Y4367214D01*
Y4367643D01*
Y4368071D01*
X7254000D01*
Y4368500D01*
Y4368929D01*
X7253571D01*
Y4369357D01*
Y4369786D01*
Y4370214D01*
X7253143D01*
Y4370643D01*
Y4371071D01*
X7252714D01*
Y4371500D01*
Y4371929D01*
Y4372357D01*
X7252286D01*
Y4372786D01*
Y4373214D01*
X7251857D01*
Y4373643D01*
Y4374071D01*
Y4374500D01*
X7251428D01*
Y4374929D01*
Y4375357D01*
X7251000D01*
Y4375786D01*
Y4376214D01*
X7250571D01*
Y4376643D01*
X7249714D01*
Y4377071D01*
X7247571D01*
Y4377500D01*
X7245000D01*
Y4377929D01*
X7242857D01*
Y4378357D01*
X7240714D01*
Y4378786D01*
X7238143D01*
Y4379214D01*
X7236000D01*
Y4379643D01*
X7233857D01*
Y4380072D01*
X7231286D01*
Y4380500D01*
X7229143D01*
Y4380928D01*
X7226572D01*
Y4381357D01*
X7224429D01*
Y4381786D01*
X7222286D01*
Y4382214D01*
X7219714D01*
Y4382643D01*
X7218429D01*
Y4383071D01*
X7218000D01*
Y4383500D01*
X7217572D01*
Y4383928D01*
Y4384357D01*
Y4384786D01*
Y4385214D01*
Y4385643D01*
Y4386071D01*
Y4386500D01*
Y4386928D01*
Y4387357D01*
Y4387786D01*
Y4388214D01*
Y4388643D01*
Y4389071D01*
Y4389500D01*
Y4389928D01*
Y4390357D01*
Y4390786D01*
Y4391214D01*
Y4391643D01*
Y4392071D01*
Y4392500D01*
Y4392928D01*
Y4393357D01*
Y4393786D01*
Y4394214D01*
Y4394643D01*
Y4395071D01*
Y4395500D01*
Y4395928D01*
Y4396357D01*
Y4396786D01*
Y4397214D01*
Y4397643D01*
Y4398071D01*
Y4398500D01*
Y4398928D01*
Y4399357D01*
Y4399786D01*
Y4400214D01*
Y4400643D01*
Y4401071D01*
Y4401500D01*
Y4401928D01*
Y4402357D01*
Y4402786D01*
Y4403214D01*
Y4403643D01*
Y4404071D01*
Y4404500D01*
Y4404928D01*
Y4405357D01*
Y4405786D01*
Y4406214D01*
Y4406643D01*
Y4407071D01*
Y4407500D01*
Y4407928D01*
Y4408357D01*
Y4408786D01*
Y4409214D01*
Y4409643D01*
Y4410071D01*
Y4410500D01*
Y4410928D01*
Y4411357D01*
Y4411786D01*
Y4412214D01*
Y4412643D01*
Y4413071D01*
Y4413500D01*
Y4413928D01*
Y4414357D01*
Y4414786D01*
Y4415214D01*
Y4415643D01*
Y4416071D01*
Y4416500D01*
Y4416928D01*
Y4417357D01*
X7218000D01*
Y4417786D01*
X7218429D01*
Y4418214D01*
X7219286D01*
Y4418643D01*
X7221429D01*
Y4419071D01*
X7224000D01*
Y4419500D01*
X7226143D01*
Y4419928D01*
X7228714D01*
Y4420357D01*
X7230857D01*
Y4420786D01*
X7233000D01*
Y4421214D01*
X7235572D01*
Y4421643D01*
X7237714D01*
Y4422071D01*
X7239857D01*
Y4422500D01*
X7242428D01*
Y4422928D01*
X7244571D01*
Y4423357D01*
X7247143D01*
Y4423786D01*
X7249286D01*
Y4424214D01*
X7251000D01*
Y4424643D01*
X7251428D01*
Y4425071D01*
X7251857D01*
Y4425500D01*
Y4425928D01*
X7252286D01*
Y4426357D01*
Y4426786D01*
X7252714D01*
Y4427214D01*
Y4427643D01*
X7253143D01*
Y4428071D01*
Y4428500D01*
Y4428928D01*
X7253571D01*
Y4429357D01*
Y4429786D01*
X7254000D01*
Y4430214D01*
Y4430643D01*
X7254428D01*
Y4431071D01*
Y4431500D01*
Y4431928D01*
X7254857D01*
Y4432357D01*
Y4432786D01*
X7255286D01*
Y4433214D01*
Y4433643D01*
X7255714D01*
Y4434071D01*
Y4434500D01*
Y4434928D01*
X7256143D01*
Y4435357D01*
Y4435786D01*
X7256571D01*
Y4436214D01*
Y4436643D01*
X7257000D01*
Y4437071D01*
Y4437500D01*
Y4437928D01*
X7257428D01*
Y4438357D01*
Y4438786D01*
X7257857D01*
Y4439214D01*
Y4439643D01*
X7258286D01*
Y4440071D01*
Y4440500D01*
Y4440928D01*
X7258714D01*
Y4441357D01*
Y4441786D01*
X7259143D01*
Y4442214D01*
Y4442643D01*
X7259571D01*
Y4443071D01*
Y4443500D01*
Y4443929D01*
X7260000D01*
Y4444357D01*
Y4444786D01*
X7260428D01*
Y4445214D01*
Y4445643D01*
X7260857D01*
Y4446071D01*
Y4446500D01*
Y4446929D01*
X7261286D01*
Y4447357D01*
Y4447786D01*
X7261714D01*
Y4448214D01*
Y4448643D01*
Y4449071D01*
Y4449500D01*
Y4449929D01*
X7261286D01*
Y4450357D01*
X7260857D01*
Y4450786D01*
Y4451214D01*
X7260428D01*
Y4451643D01*
X7260000D01*
Y4452071D01*
Y4452500D01*
X7259571D01*
Y4452929D01*
X7259143D01*
Y4453357D01*
Y4453786D01*
X7258714D01*
Y4454214D01*
X7258286D01*
Y4454643D01*
Y4455071D01*
X7257857D01*
Y4455500D01*
X7257428D01*
Y4455929D01*
Y4456357D01*
X7257000D01*
Y4456786D01*
X7256571D01*
Y4457214D01*
X7256143D01*
Y4457643D01*
Y4458071D01*
X7255714D01*
Y4458500D01*
X7255286D01*
Y4458929D01*
Y4459357D01*
X7254857D01*
Y4459786D01*
X7254428D01*
Y4460214D01*
Y4460643D01*
X7254000D01*
Y4461071D01*
X7253571D01*
Y4461500D01*
Y4461929D01*
X7253143D01*
Y4462357D01*
X7252714D01*
Y4462786D01*
Y4463214D01*
X7252286D01*
Y4463643D01*
X7251857D01*
Y4464071D01*
X7251428D01*
Y4464500D01*
Y4464929D01*
X7251000D01*
Y4465357D01*
X7250571D01*
Y4465786D01*
Y4466214D01*
X7250143D01*
Y4466643D01*
X7249714D01*
Y4467071D01*
Y4467500D01*
X7249286D01*
Y4467929D01*
X7248857D01*
Y4468357D01*
Y4468786D01*
X7248428D01*
Y4469214D01*
X7248000D01*
Y4469643D01*
Y4470071D01*
X7247571D01*
Y4470500D01*
X7247143D01*
Y4470929D01*
X7246714D01*
Y4471357D01*
Y4471786D01*
X7246286D01*
Y4472214D01*
X7245857D01*
Y4472643D01*
Y4473071D01*
X7245428D01*
Y4473500D01*
X7245000D01*
Y4473929D01*
Y4474357D01*
X7244571D01*
Y4474786D01*
X7244143D01*
Y4475214D01*
Y4475643D01*
X7243714D01*
Y4476071D01*
X7243286D01*
Y4476500D01*
Y4476929D01*
X7242857D01*
Y4477357D01*
Y4477786D01*
Y4478214D01*
X7243286D01*
Y4478643D01*
Y4479071D01*
X7243714D01*
Y4479500D01*
X7244143D01*
Y4479929D01*
X7244571D01*
Y4480357D01*
X7245000D01*
Y4480786D01*
X7245428D01*
Y4481214D01*
X7245857D01*
Y4481643D01*
X7246286D01*
Y4482071D01*
X7246714D01*
Y4482500D01*
X7247143D01*
Y4482929D01*
X7247571D01*
Y4483357D01*
X7248000D01*
Y4483786D01*
X7248428D01*
Y4484214D01*
X7248857D01*
Y4484643D01*
X7249286D01*
Y4485071D01*
X7249714D01*
Y4485500D01*
X7250143D01*
Y4485929D01*
X7250571D01*
Y4486357D01*
X7251000D01*
Y4486786D01*
X7251428D01*
Y4487214D01*
X7251857D01*
Y4487643D01*
X7252286D01*
Y4488071D01*
X7252714D01*
Y4488500D01*
X7253143D01*
Y4488929D01*
X7253571D01*
Y4489357D01*
X7254000D01*
Y4489786D01*
X7254428D01*
Y4490214D01*
X7254857D01*
Y4490643D01*
X7255286D01*
Y4491071D01*
X7255714D01*
Y4491500D01*
X7256143D01*
Y4491929D01*
X7256571D01*
Y4492357D01*
X7257000D01*
Y4492786D01*
X7257428D01*
Y4493214D01*
X7257857D01*
Y4493643D01*
X7258286D01*
Y4494071D01*
X7258714D01*
Y4494500D01*
X7259143D01*
Y4494929D01*
X7259571D01*
Y4495357D01*
X7260000D01*
Y4495786D01*
X7260428D01*
Y4496214D01*
X7260857D01*
Y4496643D01*
X7261286D01*
Y4497071D01*
X7261714D01*
Y4497500D01*
X7262143D01*
Y4497929D01*
X7262571D01*
Y4498357D01*
X7263000D01*
Y4498786D01*
X7263428D01*
Y4499214D01*
X7263857D01*
Y4499643D01*
X7264286D01*
Y4500071D01*
X7264714D01*
Y4500500D01*
X7265143D01*
Y4500929D01*
X7265571D01*
Y4501357D01*
X7266000D01*
Y4501786D01*
X7266428D01*
Y4502214D01*
X7268571D01*
Y4501786D01*
X7269000D01*
Y4501357D01*
X7269857D01*
Y4500929D01*
X7270286D01*
Y4500500D01*
X7271143D01*
Y4500071D01*
X7271571D01*
Y4499643D01*
X7272429D01*
Y4499214D01*
X7272857D01*
Y4498786D01*
X7273714D01*
Y4498357D01*
X7274143D01*
Y4497929D01*
X7275000D01*
Y4497500D01*
X7275429D01*
Y4497071D01*
X7275857D01*
Y4496643D01*
X7276714D01*
Y4496214D01*
X7277143D01*
Y4495786D01*
X7278000D01*
Y4495357D01*
X7278429D01*
Y4494929D01*
X7279286D01*
Y4494500D01*
X7279714D01*
Y4494071D01*
X7280571D01*
Y4493643D01*
X7281000D01*
Y4493214D01*
X7281857D01*
Y4492786D01*
X7282286D01*
Y4492357D01*
X7283143D01*
Y4491929D01*
X7283571D01*
Y4491500D01*
X7284000D01*
Y4491071D01*
X7284857D01*
Y4490643D01*
X7285286D01*
Y4490214D01*
X7286143D01*
Y4489786D01*
X7286571D01*
Y4489357D01*
X7287429D01*
Y4488929D01*
X7287857D01*
Y4488500D01*
X7288714D01*
Y4488071D01*
X7289143D01*
Y4487643D01*
X7290000D01*
Y4487214D01*
X7290429D01*
Y4486786D01*
X7290857D01*
Y4486357D01*
X7291714D01*
Y4485929D01*
X7292143D01*
Y4485500D01*
X7293000D01*
Y4485071D01*
X7293429D01*
Y4484643D01*
X7294286D01*
Y4484214D01*
X7294714D01*
Y4483786D01*
X7295571D01*
Y4483357D01*
X7296429D01*
Y4482929D01*
X7297286D01*
Y4483357D01*
X7298571D01*
Y4483786D01*
X7299429D01*
Y4484214D01*
X7300286D01*
Y4484643D01*
X7301571D01*
Y4485071D01*
X7302429D01*
Y4485500D01*
X7303714D01*
Y4485929D01*
X7304571D01*
Y4486357D01*
X7305857D01*
Y4486786D01*
X7306714D01*
Y4487214D01*
X7308000D01*
Y4487643D01*
X7308857D01*
Y4488071D01*
X7309714D01*
Y4488500D01*
X7311000D01*
Y4488929D01*
X7311857D01*
Y4489357D01*
X7313143D01*
Y4489786D01*
X7314000D01*
Y4490214D01*
X7315286D01*
Y4490643D01*
X7316143D01*
Y4491071D01*
X7317429D01*
Y4491500D01*
X7318286D01*
Y4491929D01*
X7319143D01*
Y4492357D01*
X7320000D01*
Y4492786D01*
X7320429D01*
Y4493214D01*
Y4493643D01*
X7320857D01*
Y4494071D01*
Y4494500D01*
Y4494929D01*
Y4495357D01*
X7321286D01*
Y4495786D01*
Y4496214D01*
Y4496643D01*
Y4497071D01*
Y4497500D01*
X7321714D01*
Y4497929D01*
Y4498357D01*
Y4498786D01*
Y4499214D01*
Y4499643D01*
Y4500071D01*
X7322143D01*
Y4500500D01*
Y4500929D01*
Y4501357D01*
Y4501786D01*
Y4502214D01*
X7322571D01*
Y4502643D01*
Y4503071D01*
Y4503500D01*
Y4503929D01*
Y4504357D01*
Y4504786D01*
X7323000D01*
Y4505214D01*
Y4505643D01*
Y4506071D01*
Y4506500D01*
Y4506929D01*
X7323429D01*
Y4507357D01*
Y4507786D01*
Y4508214D01*
Y4508643D01*
Y4509071D01*
X7323857D01*
Y4509500D01*
Y4509928D01*
Y4510357D01*
Y4510786D01*
Y4511214D01*
Y4511643D01*
X7324286D01*
Y4512071D01*
Y4512500D01*
Y4512928D01*
Y4513357D01*
Y4513786D01*
X7324714D01*
Y4514214D01*
Y4514643D01*
Y4515071D01*
Y4515500D01*
Y4515928D01*
X7325143D01*
Y4516357D01*
Y4516786D01*
Y4517214D01*
Y4517643D01*
Y4518071D01*
Y4518500D01*
X7325571D01*
Y4518928D01*
Y4519357D01*
Y4519786D01*
Y4520214D01*
Y4520643D01*
X7326000D01*
Y4521071D01*
Y4521500D01*
Y4521928D01*
Y4522357D01*
Y4522786D01*
Y4523214D01*
X7326429D01*
Y4523643D01*
Y4524071D01*
Y4524500D01*
Y4524928D01*
Y4525357D01*
X7326857D01*
Y4525786D01*
Y4526214D01*
Y4526643D01*
X7327286D01*
Y4527071D01*
X7327714D01*
Y4527500D01*
X7361572D01*
Y4527071D01*
D02*
G37*
G36*
X7875000Y4205000D02*
X7845000Y4230000D01*
X7875000Y4255000D01*
Y4205000D01*
D02*
G37*
G36*
X6885000D02*
X6860000Y4235000D01*
X6910000D01*
X6885000Y4205000D01*
D02*
G37*
G36*
X5165000Y4140000D02*
X5135000Y4165000D01*
X5165000Y4190000D01*
Y4140000D01*
D02*
G37*
G36*
X5840000Y3880000D02*
X5790000D01*
X5815000Y3910000D01*
X5840000Y3880000D01*
D02*
G37*
G36*
X6885000Y3825000D02*
X6860000Y3855000D01*
X6910000D01*
X6885000Y3825000D01*
D02*
G37*
G36*
X6460000Y3720000D02*
X6430000Y3745000D01*
X6460000Y3770000D01*
Y3720000D01*
D02*
G37*
G36*
X6885000Y3445000D02*
X6860000Y3475000D01*
X6910000D01*
X6885000Y3445000D01*
D02*
G37*
D82*
X2530000Y3990000D02*
G03*
X2490000Y3990000I-20000J0D01*
G01*
X2450000D02*
G03*
X2490000Y3990000I20000J0D01*
G01*
X2530000D02*
G03*
X2570000Y3990000I20000J0D01*
G01*
X5480000Y2710000D02*
G03*
X5480000Y2670000I0J-20000D01*
G01*
Y2630000D02*
G03*
X5480000Y2670000I0J20000D01*
G01*
Y2710000D02*
G03*
X5480000Y2750000I0J20000D01*
G01*
X3890000Y3740000D02*
G03*
X3890000Y3780000I0J20000D01*
G01*
Y3820000D02*
G03*
X3890000Y3780000I0J-20000D01*
G01*
Y3740000D02*
G03*
X3890000Y3700000I0J-20000D01*
G01*
X3560000Y2730000D02*
G03*
X3560000Y2690000I0J-20000D01*
G01*
Y2650000D02*
G03*
X3560000Y2690000I0J20000D01*
G01*
Y2730000D02*
G03*
X3560000Y2770000I0J20000D01*
G01*
X5550000Y3350000D02*
G03*
X5550000Y3310000I0J-20000D01*
G01*
Y3270000D02*
G03*
X5550000Y3310000I0J20000D01*
G01*
Y3350000D02*
G03*
X5550000Y3390000I0J20000D01*
G01*
X5830000Y4260000D02*
G03*
X5830000Y4300000I0J20000D01*
G01*
Y4340000D02*
G03*
X5830000Y4300000I0J-20000D01*
G01*
Y4260000D02*
G03*
X5830000Y4220000I0J-20000D01*
G01*
X5820000Y3690000D02*
G03*
X5820000Y3730000I0J20000D01*
G01*
Y3770000D02*
G03*
X5820000Y3730000I0J-20000D01*
G01*
Y3690000D02*
G03*
X5820000Y3650000I0J-20000D01*
G01*
X5460000Y4260000D02*
G03*
X5460000Y4300000I0J20000D01*
G01*
Y4340000D02*
G03*
X5460000Y4300000I0J-20000D01*
G01*
Y4260000D02*
G03*
X5460000Y4220000I0J-20000D01*
G01*
X4294612Y1753091D02*
G03*
X4342449Y1735718I29342J6247D01*
G01*
X4343582Y1737027D02*
G03*
X4343628Y1691690I-19627J-22688D01*
G01*
X4343244Y1691197D02*
G03*
X4344492Y1644873I-18425J-23675D01*
G01*
X4343446Y1646077D02*
G03*
X4295668Y1629405I-18578J-23555D01*
G01*
X4299612Y1393091D02*
G03*
X4347449Y1375718I29342J6247D01*
G01*
X4348582Y1377027D02*
G03*
X4348628Y1331690I-19627J-22688D01*
G01*
X4348244Y1331197D02*
G03*
X4349492Y1284872I-18425J-23675D01*
G01*
X4348446Y1286077D02*
G03*
X4300668Y1269405I-18578J-23555D01*
G01*
X2683770Y766448D02*
G03*
X2695040Y813879I-11379J27758D01*
G01*
X2740653Y813697D02*
G03*
X2757324Y765919I23555J-18578D01*
G01*
X2695533Y813495D02*
G03*
X2741857Y814743I23675J-18425D01*
G01*
X5706908Y2014612D02*
G03*
X5724282Y2062449I-6247J29342D01*
G01*
X5722973Y2063582D02*
G03*
X5768310Y2063628I22688J-19627D01*
G01*
X5768803Y2063244D02*
G03*
X5815127Y2064492I23675J-18425D01*
G01*
X5813923Y2063446D02*
G03*
X5830594Y2015668I23555J-18578D01*
G01*
X3554612Y1133091D02*
G03*
X3602449Y1115718I29342J6247D01*
G01*
X3603582Y1117027D02*
G03*
X3603628Y1071690I-19627J-22688D01*
G01*
X3603243Y1071197D02*
G03*
X3604492Y1024872I-18425J-23675D01*
G01*
X3603446Y1026077D02*
G03*
X3555668Y1009405I-18578J-23555D01*
G01*
X2536908Y1134612D02*
G03*
X2554282Y1182449I-6247J29342D01*
G01*
X2552973Y1183582D02*
G03*
X2598310Y1183628I22688J-19627D01*
G01*
X2598803Y1183244D02*
G03*
X2645127Y1184492I23675J-18425D01*
G01*
X2643923Y1183446D02*
G03*
X2660594Y1135668I23555J-18578D01*
G01*
X3033091Y1185388D02*
G03*
X3015718Y1137551I6247J-29342D01*
G01*
X3017027Y1136418D02*
G03*
X2971690Y1136372I-22688J19627D01*
G01*
X2971197Y1136756D02*
G03*
X2924872Y1135508I-23675J18425D01*
G01*
X2926077Y1136554D02*
G03*
X2909405Y1184332I-23555J18578D01*
G01*
X5325388Y1456908D02*
G03*
X5277551Y1474282I-29342J-6247D01*
G01*
X5276418Y1472973D02*
G03*
X5276372Y1518310I19627J22688D01*
G01*
X5276757Y1518803D02*
G03*
X5275508Y1565127I18425J23675D01*
G01*
X5276554Y1563923D02*
G03*
X5324332Y1580595I18578J23555D01*
G01*
X2906909Y1554613D02*
G03*
X2924282Y1602449I-6247J29342D01*
G01*
X2922973Y1603582D02*
G03*
X2968310Y1603628I22688J-19627D01*
G01*
X2968803Y1603244D02*
G03*
X3015128Y1604492I23675J-18425D01*
G01*
X3013923Y1603446D02*
G03*
X3030595Y1555668I23555J-18578D01*
G01*
X1843770Y1046448D02*
G03*
X1855040Y1093879I-11379J27758D01*
G01*
X1900653Y1093697D02*
G03*
X1917324Y1045919I23555J-18578D01*
G01*
X1855533Y1093495D02*
G03*
X1901857Y1094743I23675J-18425D01*
G01*
X1953770Y766448D02*
G03*
X1965040Y813879I-11379J27758D01*
G01*
X2010653Y813697D02*
G03*
X2027324Y765919I23555J-18578D01*
G01*
X1965533Y813495D02*
G03*
X2011857Y814743I23675J-18425D01*
G01*
X2556230Y813552D02*
G03*
X2544960Y766121I11379J-27758D01*
G01*
X2499347Y766303D02*
G03*
X2482676Y814080I-23555J18578D01*
G01*
X2544467Y766505D02*
G03*
X2498143Y765257I-23675J18425D01*
G01*
X2253770Y766448D02*
G03*
X2265040Y813879I-11379J27758D01*
G01*
X2310653Y813697D02*
G03*
X2327324Y765919I23555J-18578D01*
G01*
X2265533Y813495D02*
G03*
X2311857Y814743I23675J-18425D01*
G01*
X4753770Y1696448D02*
G03*
X4765040Y1743879I-11379J27758D01*
G01*
X4810653Y1743697D02*
G03*
X4827324Y1695920I23555J-18578D01*
G01*
X4765533Y1743495D02*
G03*
X4811857Y1744743I23675J-18425D01*
G01*
X3050000Y3669436D02*
X3170000D01*
X3050000Y3390345D02*
Y3669436D01*
X3170000Y3424530D02*
Y3669436D01*
X3135814Y3390345D02*
X3170000Y3424530D01*
X3050000Y3390345D02*
X3135814D01*
X3540000Y3560000D02*
X3580000D01*
X3540000Y3500000D02*
X3580000D01*
X5650000Y3790000D02*
X5690000D01*
X5650000Y3850000D02*
X5690000D01*
X4090000Y1985606D02*
Y2275516D01*
X3830000Y1985606D02*
X4090000D01*
X3900515Y2275516D02*
X4090000D01*
X3830000Y2205000D02*
X3900515Y2275516D01*
X3830000Y1985606D02*
Y2205000D01*
X6780000Y2330345D02*
X6865815D01*
X6900000Y2364530D01*
Y2609436D01*
X6780000Y2330345D02*
Y2609436D01*
X6900000D01*
X6902500Y3892500D02*
Y3910000D01*
X7237500Y4210000D02*
Y4227500D01*
Y3892500D02*
Y3910000D01*
X6925000Y4227500D02*
X6964000D01*
X7176000D02*
X7237500D01*
X6902500Y3892500D02*
X6964000D01*
X7176000D02*
X7237500D01*
X7818884Y3034735D02*
Y3124734D01*
X7619333D02*
X7818884D01*
X7619333Y3054953D02*
Y3124734D01*
Y3054953D02*
X7639551Y3034735D01*
X7818884D01*
X7792105Y3792000D02*
X7847627D01*
X7792381Y3768000D02*
X7847489D01*
X7792381D02*
X7820000D01*
X7792308Y3767927D02*
X7792381Y3768000D01*
X6728000Y2222105D02*
Y2277627D01*
X6752000Y2222381D02*
Y2277489D01*
Y2222381D02*
Y2250000D01*
Y2222381D02*
X6752073Y2222308D01*
X7645000Y4175000D02*
X7835000D01*
X7645000Y3985000D02*
X7835000D01*
Y4175000D01*
X7645000Y3985000D02*
Y4175000D01*
X6752000Y2122381D02*
X6752073Y2122308D01*
X6752000Y2122381D02*
Y2150000D01*
Y2122381D02*
Y2177489D01*
X6728000Y2122105D02*
Y2177627D01*
X6952000Y2222381D02*
X6952073Y2222308D01*
X6952000Y2222381D02*
Y2250000D01*
Y2222381D02*
Y2277489D01*
X6928000Y2222105D02*
Y2277627D01*
X6920000Y2120000D02*
X6960000D01*
X6920000Y2180000D02*
X6960000D01*
X2451393Y4031766D02*
X2569420D01*
X2552692Y4048306D02*
X2569233Y4031766D01*
X2525252Y4048875D02*
X2541793Y4032335D01*
X2492834Y4048306D02*
X2509374Y4031766D01*
X2460228Y4049810D02*
X2476769Y4033269D01*
X3140000Y3925000D02*
Y4144394D01*
X3069484Y3854484D02*
X3140000Y3925000D01*
X2880000Y3854484D02*
X3069484D01*
X2880000Y4144394D02*
X3140000D01*
X2880000Y3854484D02*
Y4144394D01*
X2980000Y2730000D02*
X3020000D01*
X2980000Y2670000D02*
X3020000D01*
X7187619Y1252000D02*
X7187692Y1252073D01*
X7160000Y1252000D02*
X7187619D01*
X7132511D02*
X7187619D01*
X7132373Y1228000D02*
X7187895D01*
X7177619Y1992000D02*
X7177692Y1992073D01*
X7150000Y1992000D02*
X7177619D01*
X7122511D02*
X7177619D01*
X7122373Y1968000D02*
X7177895D01*
X7147619Y2362000D02*
X7147692Y2362073D01*
X7120000Y2362000D02*
X7147619D01*
X7092511D02*
X7147619D01*
X7092373Y2338000D02*
X7147895D01*
X2655000Y1635000D02*
Y1705000D01*
X2625000Y1635000D02*
Y1705000D01*
X2610000Y1670000D02*
X2625000D01*
X2655000D02*
X2670000D01*
X5220000Y1243137D02*
X5286949Y1310086D01*
X5220000Y1030410D02*
Y1243137D01*
X5340000Y1030410D02*
Y1310086D01*
X5220000Y1030410D02*
X5340000D01*
X5286949Y1310086D02*
X5340000D01*
X5090000Y1845606D02*
Y2065000D01*
X5160516Y2135516D01*
X5350000D01*
X5090000Y1845606D02*
X5350000D01*
Y2135516D01*
X3790000Y3844315D02*
X4185000D01*
Y4335311D01*
X3850311D02*
X4185000D01*
X3790000Y4275000D02*
X3850311Y4335311D01*
X3790000Y3844315D02*
Y4275000D01*
X3004999Y2385000D02*
X3214999D01*
X3005000Y2175000D02*
X3214999D01*
X3795000Y3697500D02*
X3836000D01*
X3772500Y3362500D02*
Y3380000D01*
X4107500Y3680000D02*
Y3697500D01*
Y3362500D02*
Y3380000D01*
X4044000Y3697500D02*
X4107500D01*
X3772500Y3362500D02*
X3836000D01*
X4044000D02*
X4107500D01*
X2473137Y2290000D02*
X2540086Y2223050D01*
X2260410Y2290000D02*
X2473137D01*
X2260410Y2170000D02*
X2540086D01*
X2260410D02*
Y2290000D01*
X2540086Y2170000D02*
Y2223050D01*
X3710000Y2814315D02*
X4105000D01*
Y3305311D01*
X3770311D02*
X4105000D01*
X3710000Y3245000D02*
X3770311Y3305311D01*
X3710000Y2814315D02*
Y3245000D01*
X2915000Y2920000D02*
X3134394D01*
X2844484Y2990515D02*
X2915000Y2920000D01*
X2844484Y2990515D02*
Y3180000D01*
X3134394Y2920000D02*
Y3180000D01*
X2844484D02*
X3134394D01*
X6155606Y3660000D02*
X6375000D01*
X6445516Y3589485D01*
Y3400000D02*
Y3589485D01*
X6155606Y3400000D02*
Y3660000D01*
Y3400000D02*
X6445516D01*
X3616000Y1252500D02*
X3677500D01*
X3342500D02*
X3404000D01*
X3616000Y1587500D02*
X3677500D01*
X3365000D02*
X3404000D01*
X3677500Y1252500D02*
Y1270000D01*
Y1570000D02*
Y1587500D01*
X3342500Y1252500D02*
Y1270000D01*
X7176000Y3512500D02*
X7237500D01*
X6902500D02*
X6964000D01*
X7176000Y3847500D02*
X7237500D01*
X6925000D02*
X6964000D01*
X7237500Y3512500D02*
Y3530000D01*
Y3830000D02*
Y3847500D01*
X6902500Y3512500D02*
Y3530000D01*
X7536000Y902500D02*
X7597500D01*
X7262500D02*
X7324000D01*
X7536000Y1237500D02*
X7597500D01*
X7285000D02*
X7324000D01*
X7597500Y902500D02*
Y920000D01*
Y1220000D02*
Y1237500D01*
X7262500Y902500D02*
Y920000D01*
X7536000Y1652500D02*
X7597500D01*
X7262500D02*
X7324000D01*
X7536000Y1987500D02*
X7597500D01*
X7285000D02*
X7324000D01*
X7597500Y1652500D02*
Y1670000D01*
Y1970000D02*
Y1987500D01*
X7262500Y1652500D02*
Y1670000D01*
X7536000Y1282500D02*
X7597500D01*
X7262500D02*
X7324000D01*
X7536000Y1617500D02*
X7597500D01*
X7285000D02*
X7324000D01*
X7597500Y1282500D02*
Y1300000D01*
Y1600000D02*
Y1617500D01*
X7262500Y1282500D02*
Y1300000D01*
X6255000Y775000D02*
X6327500D01*
X6255000D02*
Y797500D01*
X6472500Y775000D02*
X6545000D01*
Y797500D01*
Y1242500D02*
Y1265000D01*
X6472500D02*
X6545000D01*
X6293491Y1265002D02*
X6327500Y1265000D01*
X7536000Y2022500D02*
X7597500D01*
X7262500D02*
X7324000D01*
X7536000Y2357500D02*
X7597500D01*
X7285000D02*
X7324000D01*
X7597500Y2022500D02*
Y2040000D01*
Y2340000D02*
Y2357500D01*
X7262500Y2022500D02*
Y2040000D01*
X7176000Y3132500D02*
X7237500D01*
X6902500D02*
X6964000D01*
X7176000Y3467500D02*
X7237500D01*
X6925000D02*
X6964000D01*
X7237500Y3132500D02*
Y3150000D01*
Y3450000D02*
Y3467500D01*
X6902500Y3132500D02*
Y3150000D01*
X7536000Y2402500D02*
X7597500D01*
X7262500D02*
X7324000D01*
X7536000Y2737500D02*
X7597500D01*
X7285000D02*
X7324000D01*
X7597500Y2402500D02*
Y2420000D01*
Y2720000D02*
Y2737500D01*
X7262500Y2402500D02*
Y2420000D01*
X6255000Y1585000D02*
X6327500D01*
X6255000D02*
Y1607500D01*
X6472500Y1585000D02*
X6545000D01*
Y1607500D01*
Y2052500D02*
Y2075000D01*
X6472500D02*
X6545000D01*
X6293490Y2075002D02*
X6327500Y2075000D01*
X5265000Y3245685D02*
X5660000D01*
X5265000Y2754689D02*
Y3245685D01*
Y2754689D02*
X5599689D01*
X5660000Y2815000D01*
Y3245685D01*
X5730000Y3965000D02*
Y4184394D01*
X5659484Y3894484D02*
X5730000Y3965000D01*
X5470000Y3894484D02*
X5659484D01*
X5470000Y4184394D02*
X5730000D01*
X5470000Y3894484D02*
Y4184394D01*
X5157500Y4084000D02*
Y4125000D01*
X4822500Y4147500D02*
X4840000D01*
X5140000Y3812500D02*
X5157500D01*
X4822500D02*
X4840000D01*
X5157500D02*
Y3876000D01*
X4822500Y4084000D02*
Y4147500D01*
Y3812500D02*
Y3876000D01*
X5438234Y2631393D02*
Y2749420D01*
X5421694Y2732692D02*
X5438234Y2749233D01*
X5421125Y2705252D02*
X5437666Y2721793D01*
X5421694Y2672834D02*
X5438234Y2689374D01*
X5420190Y2640228D02*
X5436731Y2656769D01*
X3931766Y3700580D02*
Y3818607D01*
Y3700767D02*
X3948306Y3717308D01*
X3932335Y3728207D02*
X3948875Y3744748D01*
X3931766Y3760626D02*
X3948306Y3777166D01*
X3933269Y3793231D02*
X3949810Y3809772D01*
X3518235Y2651393D02*
Y2769420D01*
X3501694Y2752692D02*
X3518235Y2769233D01*
X3501125Y2725252D02*
X3517666Y2741793D01*
X3501694Y2692834D02*
X3518235Y2709374D01*
X3500190Y2660228D02*
X3516731Y2676769D01*
X5508235Y3271393D02*
Y3389420D01*
X5491694Y3372692D02*
X5508235Y3389233D01*
X5491125Y3345252D02*
X5507666Y3361793D01*
X5491694Y3312834D02*
X5508235Y3329374D01*
X5490190Y3280228D02*
X5506731Y3296769D01*
X5871765Y4220580D02*
Y4338607D01*
Y4220767D02*
X5888306Y4237308D01*
X5872334Y4248207D02*
X5888875Y4264748D01*
X5871765Y4280626D02*
X5888306Y4297166D01*
X5873269Y4313231D02*
X5889810Y4329772D01*
X5861766Y3650580D02*
Y3768607D01*
Y3650767D02*
X5878306Y3667308D01*
X5862334Y3678207D02*
X5878875Y3694748D01*
X5861766Y3710626D02*
X5878306Y3727166D01*
X5863269Y3743231D02*
X5879810Y3759772D01*
X5501765Y4220580D02*
Y4338607D01*
Y4220767D02*
X5518306Y4237308D01*
X5502334Y4248207D02*
X5518875Y4264748D01*
X5501765Y4280626D02*
X5518306Y4297166D01*
X5503269Y4313231D02*
X5519810Y4329772D01*
X3200000Y3770000D02*
X3240000D01*
X3200000Y3830000D02*
X3240000D01*
X3780000Y2730000D02*
X3820000D01*
X3780000Y2670000D02*
X3820000D01*
X6000000Y3480000D02*
X6040000D01*
X6000000Y3420000D02*
X6040000D01*
X6470000Y1380000D02*
Y1420000D01*
X6410000Y1380000D02*
Y1420000D01*
X6270000Y1380000D02*
Y1420000D01*
X6210000Y1380000D02*
Y1420000D01*
X6470000Y2190000D02*
Y2230000D01*
X6410000Y2190000D02*
Y2230000D01*
X6270000Y2190000D02*
Y2230000D01*
X6210000Y2190000D02*
Y2230000D01*
X3140000Y2020000D02*
X3180000D01*
X3140000Y2080000D02*
X3180000D01*
X7460000Y720000D02*
Y760000D01*
X7400000Y720000D02*
Y760000D01*
X7350000Y720000D02*
Y760000D01*
X7290000Y720000D02*
Y760000D01*
X5550000Y730000D02*
Y770000D01*
X5490000Y730000D02*
Y770000D01*
X5440000Y730000D02*
Y770000D01*
X5380000Y730000D02*
Y770000D01*
X5330000Y730000D02*
Y770000D01*
X5270000Y730000D02*
Y770000D01*
X5050000Y730000D02*
Y770000D01*
X4990000Y730000D02*
Y770000D01*
X5330000Y4710000D02*
Y4750000D01*
X5390000Y4710000D02*
Y4750000D01*
X4910000Y730000D02*
Y770000D01*
X4850000Y730000D02*
Y770000D01*
X4100000Y730000D02*
Y770000D01*
X4040000Y730000D02*
Y770000D01*
X3900000Y730000D02*
Y770000D01*
X3960000Y730000D02*
Y770000D01*
X3970000Y4700000D02*
Y4740000D01*
X4030000Y4700000D02*
Y4740000D01*
X4160000Y4700000D02*
Y4740000D01*
X4100000Y4700000D02*
Y4740000D01*
X3610000Y4700000D02*
Y4740000D01*
X3670000Y4700000D02*
Y4740000D01*
X3800000Y4700000D02*
Y4740000D01*
X3740000Y4700000D02*
Y4740000D01*
X7410000Y4700000D02*
Y4740000D01*
X7470000Y4700000D02*
Y4740000D01*
X7580000Y4700000D02*
Y4740000D01*
X7520000Y4700000D02*
Y4740000D01*
X7170000Y4700000D02*
Y4740000D01*
X7230000Y4700000D02*
Y4740000D01*
X7340000Y4700000D02*
Y4740000D01*
X7280000Y4700000D02*
Y4740000D01*
X6930000Y4700000D02*
Y4740000D01*
X6990000Y4700000D02*
Y4740000D01*
X7100000Y4700000D02*
Y4740000D01*
X7040000Y4700000D02*
Y4740000D01*
X6690000Y4700000D02*
Y4740000D01*
X6750000Y4700000D02*
Y4740000D01*
X6860000Y4700000D02*
Y4740000D01*
X6800000Y4700000D02*
Y4740000D01*
X5500000Y4710000D02*
Y4750000D01*
X5440000Y4710000D02*
Y4750000D01*
X5670000Y4710000D02*
Y4750000D01*
X5730000Y4710000D02*
Y4750000D01*
X6820000Y1520000D02*
X6860000D01*
X6820000Y1580000D02*
X6860000D01*
X5280000Y4710000D02*
Y4750000D01*
X5220000Y4710000D02*
Y4750000D01*
X5710000Y730000D02*
Y770000D01*
X5770000Y730000D02*
Y770000D01*
X5660000Y730000D02*
Y770000D01*
X5600000Y730000D02*
Y770000D01*
X4000000Y1510000D02*
Y1550000D01*
X3940000Y1510000D02*
Y1550000D01*
X5070000Y4250000D02*
X5110000D01*
X5070000Y4310000D02*
X5110000D01*
X5220000Y4180000D02*
Y4220000D01*
X5280000Y4180000D02*
Y4220000D01*
X3790000Y1610000D02*
X3830000D01*
X3790000Y1550000D02*
X3830000D01*
X3790000Y1450000D02*
X3830000D01*
X3790000Y1510000D02*
X3830000D01*
X3920000Y1260000D02*
Y1300000D01*
X3980000Y1260000D02*
Y1300000D01*
X7670000Y4370000D02*
Y4410000D01*
X7610000Y4370000D02*
Y4410000D01*
X7850000Y4370000D02*
Y4410000D01*
X7790000Y4370000D02*
Y4410000D01*
X6820000Y1160000D02*
X6860000D01*
X6820000Y1220000D02*
X6860000D01*
X6820000Y760000D02*
X6859999D01*
X6820000Y820000D02*
X6859999D01*
X6820000Y860000D02*
X6860000D01*
X6820000Y920000D02*
X6860000D01*
X6820000Y960000D02*
X6860000D01*
X6820000Y1020000D02*
X6860000D01*
X6820000Y1060000D02*
X6860000D01*
X6820000Y1120000D02*
X6860000D01*
X6820000Y1620000D02*
X6860000D01*
X6820000Y1680000D02*
X6860000D01*
X6820000Y1720000D02*
X6860000D01*
X6820000Y1780000D02*
X6860000D01*
X6820000Y1820000D02*
X6860000D01*
X6820000Y1880000D02*
X6860000D01*
X6820000Y1920000D02*
X6860000D01*
X6820000Y1980000D02*
X6860000D01*
X5620000Y4710000D02*
Y4750000D01*
X5560000Y4710000D02*
Y4750000D01*
X4150000Y730000D02*
Y770000D01*
X4210000Y730000D02*
Y770000D01*
X3790000Y730000D02*
Y770000D01*
X3850000Y730000D02*
Y770000D01*
X5100000Y730000D02*
Y770000D01*
X5160000Y730000D02*
Y770000D01*
X4740000Y730000D02*
Y770000D01*
X4800000Y730000D02*
Y770000D01*
X3900000Y4700000D02*
Y4740000D01*
X3840000Y4700000D02*
Y4740000D01*
X3570000Y4700000D02*
Y4740000D01*
X3510000Y4700000D02*
Y4740000D01*
X4260000Y4700000D02*
Y4740000D01*
X4200000Y4700000D02*
Y4740000D01*
X1890000Y730000D02*
Y770000D01*
X1830000Y730000D02*
Y770000D01*
X2100000Y1910000D02*
Y1950000D01*
X2160000Y1910000D02*
Y1950000D01*
X1850000Y1580000D02*
X1890000D01*
X1850000Y1520000D02*
X1890000D01*
X1850000Y1420000D02*
X1890000D01*
X1850000Y1480000D02*
X1890000D01*
X3380000Y4700000D02*
Y4740000D01*
X3440000Y4700000D02*
Y4740000D01*
X6040000Y3590000D02*
Y3630000D01*
X6100000Y3590000D02*
Y3630000D01*
X5240000Y2200000D02*
X5280000D01*
X5240000Y2260000D02*
X5280000D01*
X2220000Y2110000D02*
Y2150000D01*
X2160000Y2110000D02*
Y2150000D01*
X5060000Y1260000D02*
Y1300000D01*
X5000000Y1260000D02*
Y1300000D01*
X2160000Y2310000D02*
Y2350000D01*
X2220000Y2310000D02*
Y2350000D01*
X5060000Y1060000D02*
Y1100000D01*
X5000000Y1060000D02*
Y1100000D01*
X2600000Y1880000D02*
Y1920000D01*
X2540000Y1880000D02*
Y1920000D01*
X5880000Y730000D02*
Y770000D01*
X5820000Y730000D02*
Y770000D01*
X3590000Y3690000D02*
X3630000D01*
X3590000Y3630000D02*
X3630000D01*
X3010000Y4340000D02*
X3050000D01*
X3010000Y4280000D02*
X3050000D01*
X4370000Y3910000D02*
Y3950000D01*
X4430000Y3910000D02*
Y3950000D01*
X2910000Y4240000D02*
Y4280000D01*
X2850000Y4240000D02*
Y4280000D01*
X3430000Y3840000D02*
Y3880000D01*
X3490000Y3840000D02*
Y3880000D01*
X5960000Y4710000D02*
Y4750000D01*
X5900000Y4710000D02*
Y4750000D01*
X3210000Y4700000D02*
Y4740000D01*
X3150000Y4700000D02*
Y4740000D01*
X5850000Y4710000D02*
Y4750000D01*
X5790000Y4710000D02*
Y4750000D01*
X3110000Y4700000D02*
Y4740000D01*
X3050000Y4700000D02*
Y4740000D01*
X2790000Y2370000D02*
X2830000D01*
X2790000Y2430000D02*
X2830000D01*
X3400000Y2250000D02*
X3440000D01*
X3400000Y2310000D02*
X3440000D01*
X4350000Y730000D02*
Y770000D01*
X4290000Y730000D02*
Y770000D01*
X4460000Y730000D02*
Y770000D01*
X4400000Y730000D02*
Y770000D01*
X3340000Y4700000D02*
Y4740000D01*
X3280000Y4700000D02*
Y4740000D01*
X2790000Y2270000D02*
X2830000D01*
X2790000Y2330000D02*
X2830000D01*
X2790000Y2230000D02*
X2830000D01*
X2790000Y2170000D02*
X2830000D01*
X3590000Y3460000D02*
X3630000D01*
X3590000Y3400000D02*
X3630000D01*
X4250000Y3360000D02*
X4290000D01*
X4250000Y3420000D02*
X4290000D01*
X4350000Y2930000D02*
X4390000D01*
X4350000Y2990000D02*
X4390000D01*
X4970000Y3070000D02*
X5010000D01*
X4970000Y3130000D02*
X5010000D01*
X4820000Y3640000D02*
Y3680000D01*
X4880000Y3640000D02*
Y3680000D01*
X3980000Y2730000D02*
X4020000D01*
X3980000Y2670000D02*
X4020000D01*
X3150000Y4240000D02*
Y4280000D01*
X3210000Y4240000D02*
Y4280000D01*
X2810000Y3570000D02*
X2850000D01*
X2810000Y3510000D02*
X2850000D01*
X4350000Y2730000D02*
X4390000D01*
X4350000Y2670000D02*
X4390000D01*
X7530000Y3310000D02*
Y3350000D01*
X7590000Y3310000D02*
Y3350000D01*
X6170000Y1380000D02*
Y1420000D01*
X6110000Y1380000D02*
Y1420000D01*
X7630000Y3310000D02*
Y3350000D01*
X7690000Y3310000D02*
Y3350000D01*
X6170000Y2190000D02*
Y2230000D01*
X6110000Y2190000D02*
Y2230000D01*
X4870000Y3160000D02*
Y3200000D01*
X4810000Y3160000D02*
Y3200000D01*
X6150000Y4270000D02*
X6190000D01*
X6150000Y4210000D02*
X6190000D01*
X4860000Y4310000D02*
X4900000D01*
X4860000Y4250000D02*
X4900000D01*
X5480000Y3750000D02*
Y3790000D01*
X5540000Y3750000D02*
Y3790000D01*
X1080000Y975000D02*
Y1875000D01*
X1580000Y1700000D02*
Y1875000D01*
X1080000Y975000D02*
X1160000D01*
X1120000D02*
Y1874821D01*
X1080000Y1875000D02*
X1159648D01*
X1380000D02*
X1580000D01*
Y975000D02*
Y1155000D01*
X1380000Y975000D02*
X1580000D01*
X2645000Y2825000D02*
Y3015000D01*
Y3425000D02*
Y3615000D01*
Y4020000D02*
Y4210000D01*
X2905000Y4470000D02*
X3095000D01*
X3505000D02*
X3695000D01*
X4100000D02*
X4290000D01*
X4550000Y4020000D02*
Y4210000D01*
Y3420000D02*
Y3610000D01*
Y2825000D02*
Y3015000D01*
X4100000Y2565000D02*
X4290000D01*
X3500000D02*
X3690000D01*
X2905000D02*
X3095000D01*
X4675000Y2825000D02*
Y3015000D01*
Y3425000D02*
Y3615000D01*
Y4020000D02*
Y4210000D01*
X4935000Y4470000D02*
X5125000D01*
X5535000D02*
X5725000D01*
X6130000D02*
X6320000D01*
X6580000Y4020000D02*
Y4210000D01*
Y3420000D02*
Y3610000D01*
Y2825000D02*
Y3015000D01*
X6130000Y2565000D02*
X6320000D01*
X5530000D02*
X5720000D01*
X4935000D02*
X5125000D01*
X4250000Y1840000D02*
X4390000D01*
X4250000Y1540000D02*
X4390000D01*
X4255000Y1480000D02*
X4395000D01*
X4255000Y1180000D02*
X4395000D01*
X5620000Y1970000D02*
Y2110000D01*
X5920000Y1970000D02*
Y2110000D01*
X3510000Y1220000D02*
X3650000D01*
X3510000Y920000D02*
X3650000D01*
X2450000Y1090000D02*
Y1230000D01*
X2750000Y1090000D02*
Y1230000D01*
X3120000Y1090000D02*
Y1230000D01*
X2820000Y1090000D02*
Y1230000D01*
X5230000Y1370000D02*
X5370000D01*
X5230000Y1670000D02*
X5370000D01*
X2820000Y1510000D02*
Y1650000D01*
X3120000Y1510000D02*
Y1650000D01*
X1115000Y175000D02*
Y865000D01*
X1090000D02*
X1770000D01*
X1090000Y175000D02*
Y865000D01*
Y175000D02*
X1770000D01*
Y865000D01*
X2900000Y2005000D02*
Y2075000D01*
X6480000Y4665000D02*
Y4735000D01*
X4950000Y4665000D02*
Y4735000D01*
X6170000Y4665000D02*
Y4735000D01*
X4640000Y4665000D02*
Y4735000D01*
X1470000Y4635000D02*
Y4705000D01*
X2400000Y3450000D02*
Y3500106D01*
X2340106Y3560000D02*
X2400000Y3500106D01*
Y3540106D01*
X2340106Y3560000D02*
X2459894D01*
X2400122Y3500228D02*
X2459894Y3560000D01*
X2345000Y3500106D02*
X2460000D01*
X2400000Y3540106D02*
Y3610000D01*
X7790000Y835000D02*
Y905000D01*
X7720000Y4525000D02*
Y4595000D01*
X7910000Y195000D02*
Y265000D01*
Y5195000D02*
Y5265000D01*
X2602373Y2318000D02*
X2657895D01*
X2602511Y2342000D02*
X2657619D01*
X2630000D02*
X2657619D01*
X2657692Y2342073D01*
X5505000Y3529927D02*
X5545000Y3530000D01*
X5575000Y3529927D02*
X5615000D01*
X5575000Y3480000D02*
Y3580000D01*
X5545000Y3480000D02*
Y3580000D01*
X4892373Y1498000D02*
X4947895D01*
X4892511Y1522000D02*
X4947619D01*
X4920000D02*
X4947619D01*
X4947692Y1522073D01*
X4730000Y2095000D02*
X4730073Y2055000D01*
Y2125000D02*
Y2165000D01*
X4680000Y2125000D02*
X4780000D01*
X4680000Y2095000D02*
X4780000D01*
X4600000Y1675000D02*
Y1690000D01*
Y1630000D02*
Y1645000D01*
X4565000D02*
X4635000D01*
X4565000Y1675000D02*
X4635000D01*
X3200000Y2785000D02*
Y2800000D01*
Y2740000D02*
Y2755000D01*
X3165000D02*
X3235000D01*
X3165000Y2785000D02*
X3235000D01*
X6430000Y2815000D02*
Y2830000D01*
Y2770000D02*
Y2785000D01*
X6395000D02*
X6465000D01*
X6395000Y2815000D02*
X6465000D01*
X6170000D02*
Y2830000D01*
Y2770000D02*
Y2785000D01*
X6135000D02*
X6205000D01*
X6135000Y2815000D02*
X6205000D01*
X3792000Y2352373D02*
Y2407895D01*
X3768000Y2352511D02*
Y2407619D01*
Y2380000D02*
Y2407619D01*
X3767927Y2407692D02*
X3768000Y2407619D01*
X4869927Y1245000D02*
X4870000Y1205000D01*
X4869927Y1135000D02*
Y1175000D01*
X4820000D02*
X4920000D01*
X4820000Y1205000D02*
X4920000D01*
X2752105Y2872000D02*
X2807627D01*
X2752381Y2848000D02*
X2807489D01*
X2752381D02*
X2780000D01*
X2752308Y2847927D02*
X2752381Y2848000D01*
X6272000Y3832373D02*
Y3887895D01*
X6248000Y3832511D02*
Y3887619D01*
Y3860000D02*
Y3887619D01*
X6247927Y3887692D02*
X6248000Y3887619D01*
X6300000Y2770000D02*
Y2785000D01*
Y2815000D02*
Y2830000D01*
X6265000Y2815000D02*
X6335000D01*
X6265000Y2785000D02*
X6335000D01*
X5028000Y2202105D02*
Y2257627D01*
X5052000Y2202381D02*
Y2257489D01*
Y2202381D02*
Y2230000D01*
Y2202381D02*
X5052073Y2202308D01*
X5580000Y1470000D02*
Y1485000D01*
Y1515000D02*
Y1530000D01*
X5545000Y1515000D02*
X5615000D01*
X5545000Y1485000D02*
X5615000D01*
X5512105Y1132000D02*
X5567627D01*
X5512381Y1108000D02*
X5567489D01*
X5512381D02*
X5540000D01*
X5512308Y1107927D02*
X5512381Y1108000D01*
X5465000Y1750000D02*
X5480000D01*
X5420000D02*
X5435000D01*
Y1715000D02*
Y1785000D01*
X5465000Y1715000D02*
Y1785000D01*
X4980000Y1750000D02*
X4995000D01*
X5025000D02*
X5040000D01*
X5025000Y1715000D02*
Y1785000D01*
X4995000Y1715000D02*
Y1785000D01*
X5522373Y1978000D02*
X5577895D01*
X5522511Y2002000D02*
X5577619D01*
X5550000D02*
X5577619D01*
X5577692Y2002073D01*
X4852373Y1968000D02*
X4907895D01*
X4852511Y1992000D02*
X4907619D01*
X4880000D02*
X4907619D01*
X4907692Y1992073D01*
X2752105Y3062000D02*
X2807627D01*
X2752381Y3038000D02*
X2807489D01*
X2752381D02*
X2780000D01*
X2752308Y3037927D02*
X2752381Y3038000D01*
X2752373Y3228000D02*
X2807895D01*
X2752511Y3252000D02*
X2807619D01*
X2780000D02*
X2807619D01*
X2807692Y3252073D01*
X3342000Y4262373D02*
Y4317895D01*
X3318000Y4262511D02*
Y4317619D01*
Y4290000D02*
Y4317619D01*
X3317927Y4317692D02*
X3318000Y4317619D01*
X3542000Y4262373D02*
Y4317895D01*
X3518000Y4262511D02*
Y4317619D01*
Y4290000D02*
Y4317619D01*
X3517927Y4317692D02*
X3518000Y4317619D01*
X4312105Y4732000D02*
X4367627D01*
X4312381Y4708000D02*
X4367489D01*
X4312381D02*
X4340000D01*
X4312308Y4707927D02*
X4312381Y4708000D01*
X4372105Y4272000D02*
X4427627D01*
X4372381Y4248000D02*
X4427489D01*
X4372381D02*
X4400000D01*
X4372308Y4247927D02*
X4372381Y4248000D01*
X3018000Y3762105D02*
Y3817627D01*
X3042000Y3762381D02*
Y3817489D01*
Y3762381D02*
Y3790000D01*
Y3762381D02*
X3042073Y3762308D01*
X2842000Y3762373D02*
Y3817895D01*
X2818000Y3762511D02*
Y3817619D01*
Y3790000D02*
Y3817619D01*
X2817927Y3817692D02*
X2818000Y3817619D01*
X3505000Y4170000D02*
X3520000D01*
X3460000D02*
X3475000D01*
Y4135000D02*
Y4205000D01*
X3505000Y4135000D02*
Y4205000D01*
Y4040000D02*
X3520000D01*
X3460000D02*
X3475000D01*
Y4005000D02*
Y4075000D01*
X3505000Y4005000D02*
Y4075000D01*
X3552104Y3892000D02*
X3607627D01*
X3552381Y3868000D02*
X3607489D01*
X3552381D02*
X3580000D01*
X3552308Y3867927D02*
X3552381Y3868000D01*
X2752373Y4248000D02*
X2807895D01*
X2752511Y4272000D02*
X2807619D01*
X2780000D02*
X2807619D01*
X2807692Y4272073D01*
X3018000Y4182105D02*
Y4237627D01*
X3042000Y4182381D02*
Y4237489D01*
Y4182381D02*
Y4210000D01*
Y4182381D02*
X3042073Y4182308D01*
X3332373Y3848000D02*
X3387895D01*
X3332511Y3872000D02*
X3387619D01*
X3360000D02*
X3387619D01*
X3387692Y3872073D01*
X6382000Y3062373D02*
Y3117895D01*
X6358000Y3062511D02*
Y3117619D01*
Y3090000D02*
Y3117619D01*
X6357927Y3117692D02*
X6358000Y3117619D01*
X6382000Y3162373D02*
Y3217895D01*
X6358000Y3162511D02*
Y3217619D01*
Y3190000D02*
Y3217619D01*
X6357927Y3217692D02*
X6358000Y3217619D01*
X3408000Y2382105D02*
Y2437627D01*
X3432000Y2382381D02*
Y2437489D01*
Y2382381D02*
Y2410000D01*
Y2382381D02*
X3432073Y2382308D01*
X2020000Y1040000D02*
Y1055000D01*
Y1085000D02*
Y1100000D01*
X1985000Y1085000D02*
X2055000D01*
X1985000Y1055000D02*
X2055000D01*
X7862373Y1018000D02*
X7917895D01*
X7862511Y1042000D02*
X7917619D01*
X7890000D02*
X7917619D01*
X7917692Y1042073D01*
X3322105Y3492000D02*
X3377627D01*
X3322381Y3468000D02*
X3377489D01*
X3322381D02*
X3350000D01*
X3322308Y3467927D02*
X3322381Y3468000D01*
X2842000Y3402373D02*
Y3457895D01*
X2818000Y3402511D02*
Y3457619D01*
Y3430000D02*
Y3457619D01*
X2817927Y3457692D02*
X2818000Y3457619D01*
X4402373Y3498000D02*
X4457895D01*
X4402511Y3522000D02*
X4457619D01*
X4430000D02*
X4457619D01*
X4457692Y3522073D01*
X4278000Y3532105D02*
Y3587627D01*
X4302000Y3532381D02*
Y3587489D01*
Y3532381D02*
Y3560000D01*
Y3532381D02*
X4302073Y3532308D01*
X4278000Y3732105D02*
Y3787627D01*
X4302000Y3732381D02*
Y3787489D01*
Y3732381D02*
Y3760000D01*
Y3732381D02*
X4302073Y3732308D01*
X4278000Y3632105D02*
Y3687627D01*
X4302000Y3632381D02*
Y3687489D01*
Y3632381D02*
Y3660000D01*
Y3632381D02*
X4302073Y3632308D01*
X3388000Y3602105D02*
Y3657627D01*
X3412000Y3602381D02*
Y3657489D01*
Y3602381D02*
Y3630000D01*
Y3602381D02*
X3412073Y3602308D01*
X3632373Y738000D02*
X3687895D01*
X3632511Y762000D02*
X3687619D01*
X3660000D02*
X3687619D01*
X3687692Y762073D01*
X4582373Y738000D02*
X4637895D01*
X4582511Y762000D02*
X4637619D01*
X4610000D02*
X4637619D01*
X4637692Y762073D01*
X8252000Y2652373D02*
Y2707895D01*
X8228000Y2652511D02*
Y2707619D01*
Y2680000D02*
Y2707619D01*
X8227927Y2707692D02*
X8228000Y2707619D01*
X7892373Y4378000D02*
X7947895D01*
X7892511Y4402000D02*
X7947619D01*
X7920000D02*
X7947619D01*
X7947692Y4402073D01*
X3462000Y3302373D02*
Y3357895D01*
X3438000Y3302511D02*
Y3357619D01*
Y3330000D02*
Y3357619D01*
X3437927Y3357692D02*
X3438000Y3357619D01*
X3462000Y3202373D02*
Y3257895D01*
X3438000Y3202511D02*
Y3257619D01*
Y3230000D02*
Y3257619D01*
X3437927Y3257692D02*
X3438000Y3257619D01*
X4358000Y3162105D02*
Y3217627D01*
X4382000Y3162381D02*
Y3217489D01*
Y3162381D02*
Y3190000D01*
Y3162381D02*
X4382073Y3162308D01*
X4358000Y3262105D02*
Y3317627D01*
X4382000Y3262381D02*
Y3317489D01*
Y3262381D02*
Y3290000D01*
Y3262381D02*
X4382073Y3262308D01*
X3172105Y3052000D02*
X3227627D01*
X3172381Y3028000D02*
X3227489D01*
X3172381D02*
X3200000D01*
X3172308Y3027927D02*
X3172381Y3028000D01*
X3172373Y3228000D02*
X3227895D01*
X3172511Y3252000D02*
X3227619D01*
X3200000D02*
X3227619D01*
X3227692Y3252073D01*
X3425000Y3090000D02*
X3440000D01*
X3380000D02*
X3395000D01*
Y3055000D02*
Y3125000D01*
X3425000Y3055000D02*
Y3125000D01*
X3425000Y2840000D02*
X3440000D01*
X3380000D02*
X3395000D01*
Y2805000D02*
Y2875000D01*
X3425000Y2805000D02*
Y2875000D01*
X3462000Y2932373D02*
Y2987895D01*
X3438000Y2932511D02*
Y2987619D01*
Y2960000D02*
Y2987619D01*
X3437927Y2987692D02*
X3438000Y2987619D01*
X2818000Y3612105D02*
Y3667627D01*
X2842000Y3612381D02*
Y3667489D01*
Y3612381D02*
Y3640000D01*
Y3612381D02*
X2842073Y3612308D01*
X6168000Y3062105D02*
Y3117627D01*
X6192000Y3062381D02*
Y3117489D01*
Y3062381D02*
Y3090000D01*
Y3062381D02*
X6192073Y3062308D01*
X6168000Y3162105D02*
Y3217627D01*
X6192000Y3162381D02*
Y3217489D01*
Y3162381D02*
Y3190000D01*
Y3162381D02*
X6192073Y3162308D01*
X5100000Y3390000D02*
X5115000D01*
X5145000D02*
X5160000D01*
X5145000Y3355000D02*
Y3425000D01*
X5115000Y3355000D02*
Y3425000D01*
X2510000Y4510000D02*
Y4525000D01*
Y4555000D02*
Y4570000D01*
X2475000Y4555000D02*
X2545000D01*
X2475000Y4525000D02*
X2545000D01*
X5750000Y1485000D02*
X5750073Y1445000D01*
Y1515000D02*
Y1555000D01*
X5700000Y1515000D02*
X5800000D01*
X5700000Y1485000D02*
X5800000D01*
X2575000Y1490000D02*
X2615000Y1490073D01*
X2505000D02*
X2545000D01*
Y1440000D02*
Y1540000D01*
X2575000Y1440000D02*
Y1540000D01*
X5595000Y2360000D02*
X5635000Y2360073D01*
X5525000D02*
X5565000D01*
Y2310000D02*
Y2410000D01*
X5595000Y2310000D02*
Y2410000D01*
X4490000Y2095000D02*
X4490073Y2055000D01*
Y2125000D02*
Y2165000D01*
X4440000Y2125000D02*
X4540000D01*
X4440000Y2095000D02*
X4540000D01*
X3600000Y2385000D02*
Y2400000D01*
Y2340000D02*
Y2355000D01*
X3565000D02*
X3635000D01*
X3565000Y2385000D02*
X3635000D01*
X6852000Y2022373D02*
Y2077895D01*
X6828000Y2022511D02*
Y2077619D01*
Y2050000D02*
Y2077619D01*
X6827927Y2077692D02*
X6828000Y2077619D01*
X1882000Y1322373D02*
Y1377895D01*
X1858000Y1322511D02*
Y1377619D01*
Y1350000D02*
Y1377619D01*
X1857927Y1377692D02*
X1858000Y1377619D01*
X8228000Y2752105D02*
Y2807627D01*
X8252000Y2752381D02*
Y2807489D01*
Y2752381D02*
Y2780000D01*
Y2752381D02*
X8252073Y2752308D01*
X4405000Y1100000D02*
X4420000D01*
X4360000D02*
X4375000D01*
Y1065000D02*
Y1135000D01*
X4405000Y1065000D02*
Y1135000D01*
X4640000Y1255000D02*
X4640073Y1215000D01*
Y1285000D02*
Y1325000D01*
X4590000Y1285000D02*
X4690000D01*
X4590000Y1255000D02*
X4690000D01*
X3975000Y1069927D02*
X4015000Y1070000D01*
X4045000Y1069927D02*
X4085000D01*
X4045000Y1020000D02*
Y1120000D01*
X4015000Y1020000D02*
Y1120000D01*
X3825000Y1739927D02*
X3865000Y1740000D01*
X3895000Y1739927D02*
X3935000D01*
X3895000Y1690000D02*
Y1790000D01*
X3865000Y1690000D02*
Y1790000D01*
X3898000Y892105D02*
Y947627D01*
X3922000Y892381D02*
Y947489D01*
Y892381D02*
Y920000D01*
Y892381D02*
X3922073Y892308D01*
X3572000Y1632373D02*
Y1687895D01*
X3548000Y1632511D02*
Y1687619D01*
Y1660000D02*
Y1687619D01*
X3547927Y1687692D02*
X3548000Y1687619D01*
X3315000Y1790000D02*
X3330000D01*
X3270000D02*
X3285000D01*
Y1755000D02*
Y1825000D01*
X3315000Y1755000D02*
Y1825000D01*
X3562000Y1762373D02*
Y1817895D01*
X3538000Y1762511D02*
Y1817619D01*
Y1790000D02*
Y1817619D01*
X3537927Y1817692D02*
X3538000Y1817619D01*
X3220000Y1550000D02*
Y1565000D01*
Y1595000D02*
Y1610000D01*
X3185000Y1595000D02*
X3255000D01*
X3185000Y1565000D02*
X3255000D01*
X3812373Y1258000D02*
X3867895D01*
X3812511Y1282000D02*
X3867619D01*
X3840000D02*
X3867619D01*
X3867692Y1282073D01*
X3192105Y1362000D02*
X3247627D01*
X3192381Y1338000D02*
X3247489D01*
X3192381D02*
X3220000D01*
X3192308Y1337927D02*
X3192381Y1338000D01*
X4032373Y1268000D02*
X4087895D01*
X4032511Y1292000D02*
X4087619D01*
X4060000D02*
X4087619D01*
X4087692Y1292073D01*
X3258000Y1062105D02*
Y1117627D01*
X3282000Y1062381D02*
Y1117489D01*
Y1062381D02*
Y1090000D01*
Y1062381D02*
X3282073Y1062308D01*
X3282000Y1162373D02*
Y1217895D01*
X3258000Y1162511D02*
Y1217619D01*
Y1190000D02*
Y1217619D01*
X3257927Y1217692D02*
X3258000Y1217619D01*
X5458000Y2182105D02*
Y2237627D01*
X5482000Y2182381D02*
Y2237489D01*
Y2182381D02*
Y2210000D01*
Y2182381D02*
X5482073Y2182308D01*
X4358000Y2792105D02*
Y2847627D01*
X4382000Y2792381D02*
Y2847489D01*
Y2792381D02*
Y2820000D01*
Y2792381D02*
X4382073Y2792308D01*
X4912373Y3268000D02*
X4967895D01*
X4912511Y3292000D02*
X4967619D01*
X4940000D02*
X4967619D01*
X4967692Y3292073D01*
X7028000Y4252105D02*
Y4307627D01*
X7052000Y4252381D02*
Y4307489D01*
Y4252381D02*
Y4280000D01*
Y4252381D02*
X7052073Y4252308D01*
X6782000Y3482373D02*
Y3537895D01*
X6758000Y3482511D02*
Y3537619D01*
Y3510000D02*
Y3537619D01*
X6757927Y3537692D02*
X6758000Y3537619D01*
X7092373Y2728000D02*
X7147895D01*
X7092511Y2752000D02*
X7147619D01*
X7120000D02*
X7147619D01*
X7147692Y2752073D01*
X7122373Y1598000D02*
X7177895D01*
X7122511Y1622000D02*
X7177619D01*
X7150000D02*
X7177619D01*
X7177692Y1622073D01*
X6782373Y3848000D02*
X6837895D01*
X6782511Y3872000D02*
X6837619D01*
X6810000D02*
X6837619D01*
X6837692Y3872073D01*
X6852000Y662373D02*
Y717895D01*
X6828000Y662511D02*
Y717619D01*
Y690000D02*
Y717619D01*
X6827927Y717692D02*
X6828000Y717619D01*
X7752373Y3318000D02*
X7807895D01*
X7752511Y3342000D02*
X7807619D01*
X7780000D02*
X7807619D01*
X7807692Y3342073D01*
X6312105Y2222000D02*
X6367627D01*
X6312381Y2198000D02*
X6367489D01*
X6312381D02*
X6340000D01*
X6312308Y2197927D02*
X6312381Y2198000D01*
X6312105Y1412000D02*
X6367627D01*
X6312381Y1388000D02*
X6367489D01*
X6312381D02*
X6340000D01*
X6312308Y1387927D02*
X6312381Y1388000D01*
X6512373D02*
X6567895D01*
X6512511Y1412000D02*
X6567619D01*
X6540000D02*
X6567619D01*
X6567692Y1412073D01*
X6512373Y2198000D02*
X6567895D01*
X6512511Y2222000D02*
X6567619D01*
X6540000D02*
X6567619D01*
X6567692Y2222073D01*
X3600000Y2060000D02*
Y2075000D01*
Y2105000D02*
Y2120000D01*
X3565000Y2105000D02*
X3635000D01*
X3565000Y2075000D02*
X3635000D01*
X2140000Y805000D02*
Y820000D01*
Y760000D02*
Y775000D01*
X2105000D02*
X2175000D01*
X2105000Y805000D02*
X2175000D01*
X2870000D02*
Y820000D01*
Y760000D02*
Y775000D01*
X2835000D02*
X2905000D01*
X2835000Y805000D02*
X2905000D01*
X2960000Y4695000D02*
Y4710000D01*
Y4650000D02*
Y4665000D01*
X2925000D02*
X2995000D01*
X2925000Y4695000D02*
X2995000D01*
X4320000Y2130000D02*
Y2145000D01*
Y2175000D02*
Y2190000D01*
X4285000Y2175000D02*
X4355000D01*
X4285000Y2145000D02*
X4355000D01*
X5928000Y2702105D02*
Y2757627D01*
X5952000Y2702381D02*
Y2757489D01*
Y2702381D02*
Y2730000D01*
Y2702381D02*
X5952073Y2702308D01*
X5928000Y2802105D02*
Y2857627D01*
X5952000Y2802381D02*
Y2857489D01*
Y2802381D02*
Y2830000D01*
Y2802381D02*
X5952073Y2802308D01*
X4922373Y2818000D02*
X4977895D01*
X4922511Y2842000D02*
X4977619D01*
X4950000D02*
X4977619D01*
X4977692Y2842073D01*
X5022373Y2818000D02*
X5077895D01*
X5022511Y2842000D02*
X5077619D01*
X5050000D02*
X5077619D01*
X5077692Y2842073D01*
X5950000Y2950000D02*
X5965000D01*
X5995000D02*
X6010000D01*
X5995000Y2915000D02*
Y2985000D01*
X5965000Y2915000D02*
Y2985000D01*
X5920000Y3220000D02*
Y3235000D01*
Y3265000D02*
Y3280000D01*
X5885000Y3265000D02*
X5955000D01*
X5885000Y3235000D02*
X5955000D01*
X5928000Y3042105D02*
Y3097627D01*
X5952000Y3042381D02*
Y3097489D01*
Y3042381D02*
Y3070000D01*
Y3042381D02*
X5952073Y3042308D01*
X5922105Y4002000D02*
X5977627D01*
X5922381Y3978000D02*
X5977489D01*
X5922381D02*
X5950000D01*
X5922308Y3977927D02*
X5922381Y3978000D01*
X5282105Y3782000D02*
X5337627D01*
X5282381Y3758000D02*
X5337489D01*
X5282381D02*
X5310000D01*
X5282308Y3757927D02*
X5282381Y3758000D01*
X5382105Y3782000D02*
X5437627D01*
X5382381Y3758000D02*
X5437489D01*
X5382381D02*
X5410000D01*
X5382308Y3757927D02*
X5382381Y3758000D01*
X5192105Y3672000D02*
X5247627D01*
X5192381Y3648000D02*
X5247489D01*
X5192381D02*
X5220000D01*
X5192308Y3647927D02*
X5192381Y3648000D01*
X5102373D02*
X5157895D01*
X5102511Y3672000D02*
X5157619D01*
X5130000D02*
X5157619D01*
X5157692Y3672073D01*
X5002105Y3672000D02*
X5057627D01*
X5002381Y3648000D02*
X5057489D01*
X5002381D02*
X5030000D01*
X5002308Y3647927D02*
X5002381Y3648000D01*
X5038000Y3482105D02*
Y3537627D01*
X5062000Y3482381D02*
Y3537489D01*
Y3482381D02*
Y3510000D01*
Y3482381D02*
X5062073Y3482308D01*
X5222105Y4022000D02*
X5277627D01*
X5222381Y3998000D02*
X5277489D01*
X5222381D02*
X5250000D01*
X5222308Y3997927D02*
X5222381Y3998000D01*
X3200032Y3749987D02*
Y3683342D01*
X3213361Y3670013D01*
X3240019D01*
X3253348Y3683342D01*
Y3749987D01*
X3280006Y3670013D02*
X3306664D01*
X3293336D01*
Y3749987D01*
X3280006Y3736658D01*
X3346652D02*
X3359981Y3749987D01*
X3386639D01*
X3399968Y3736658D01*
Y3683342D01*
X3386639Y3670013D01*
X3359981D01*
X3346652Y3683342D01*
Y3736658D01*
X6135000Y2504974D02*
Y2425000D01*
X6188316D01*
X6214974Y2491645D02*
X6228303Y2504974D01*
X6254961D01*
X6268290Y2491645D01*
Y2478316D01*
X6254961Y2464987D01*
X6241632D01*
X6254961D01*
X6268290Y2451658D01*
Y2438329D01*
X6254961Y2425000D01*
X6228303D01*
X6214974Y2438329D01*
X6294948Y2504974D02*
Y2451658D01*
X6321606Y2425000D01*
X6348264Y2451658D01*
Y2504974D01*
X4578316Y1884974D02*
X4551658Y1871645D01*
X4525000Y1844987D01*
Y1818329D01*
X4538329Y1805000D01*
X4564987D01*
X4578316Y1818329D01*
Y1831658D01*
X4564987Y1844987D01*
X4525000D01*
X4604974Y1884974D02*
Y1831658D01*
X4631632Y1805000D01*
X4658290Y1831658D01*
Y1884974D01*
X5945000Y1864974D02*
Y1785000D01*
X5998316D01*
X6078290Y1864974D02*
X6024974D01*
Y1824987D01*
X6051632Y1838316D01*
X6064961D01*
X6078290Y1824987D01*
Y1798329D01*
X6064961Y1785000D01*
X6038303D01*
X6024974Y1798329D01*
X6104948Y1864974D02*
Y1811658D01*
X6131606Y1785000D01*
X6158264Y1811658D01*
Y1864974D01*
X5245000Y1240000D02*
X5291651D01*
X5314977Y1216674D01*
X5291651Y1193348D01*
X5245000D01*
X5279988D01*
Y1240000D01*
X5314977Y1170022D02*
X5245000D01*
Y1135034D01*
X5256663Y1123371D01*
X5268326D01*
X5279988Y1135034D01*
Y1170022D01*
Y1135034D01*
X5291651Y1123371D01*
X5303314D01*
X5314977Y1135034D01*
Y1170022D01*
X5303314Y1053393D02*
X5314977Y1065056D01*
Y1088382D01*
X5303314Y1100045D01*
X5256663D01*
X5245000Y1088382D01*
Y1065056D01*
X5256663Y1053393D01*
X2470001Y2265000D02*
Y2218348D01*
X2446675Y2195022D01*
X2423349Y2218348D01*
Y2265000D01*
Y2230011D01*
X2470001D01*
X2400023Y2195022D02*
Y2265000D01*
X2365034D01*
X2353371Y2253337D01*
Y2241674D01*
X2365034Y2230011D01*
X2400023D01*
X2365034D01*
X2353371Y2218348D01*
Y2206685D01*
X2365034Y2195022D01*
X2400023D01*
X2283394Y2206685D02*
X2295057Y2195022D01*
X2318383D01*
X2330046Y2206685D01*
Y2253337D01*
X2318383Y2265000D01*
X2295057D01*
X2283394Y2253337D01*
X4105000Y1865000D02*
X4131658D01*
X4118329D01*
Y1944974D01*
X4105000Y1931645D01*
X4171645D02*
X4184974Y1944974D01*
X4211632D01*
X4224961Y1931645D01*
Y1878329D01*
X4211632Y1865000D01*
X4184974D01*
X4171645Y1878329D01*
Y1931645D01*
X4251619Y1944974D02*
Y1891658D01*
X4278277Y1865000D01*
X4304935Y1891658D01*
Y1944974D01*
X5825000Y2375000D02*
Y2428316D01*
X5851658Y2454974D01*
X5878316Y2428316D01*
Y2375000D01*
Y2414987D01*
X5825000D01*
X5958290Y2454974D02*
X5904974D01*
Y2414987D01*
X5931632Y2428316D01*
X5944961D01*
X5958290Y2414987D01*
Y2388329D01*
X5944961Y2375000D01*
X5918303D01*
X5904974Y2388329D01*
X5984948Y2454974D02*
Y2401658D01*
X6011606Y2375000D01*
X6038264Y2401658D01*
Y2454974D01*
X4295000Y974987D02*
X4348316D01*
X4428290Y1014974D02*
X4401632Y1001645D01*
X4374974Y974987D01*
Y948329D01*
X4388303Y935000D01*
X4414961D01*
X4428290Y948329D01*
Y961658D01*
X4414961Y974987D01*
X4374974D01*
X4454948Y1014974D02*
Y961658D01*
X4481606Y935000D01*
X4508264Y961658D01*
Y1014974D01*
X1198316Y721645D02*
X1184987Y734974D01*
X1158329D01*
X1145000Y721645D01*
Y668329D01*
X1158329Y655000D01*
X1184987D01*
X1198316Y668329D01*
Y694987D01*
X1171658D01*
X1224974Y655000D02*
Y734974D01*
X1278290Y655000D01*
Y734974D01*
X1304948D02*
Y655000D01*
X1344935D01*
X1358264Y668329D01*
Y721645D01*
X1344935Y734974D01*
X1304948D01*
X1198316Y384974D02*
X1145000D01*
Y344987D01*
X1171658Y358316D01*
X1184987D01*
X1198316Y344987D01*
Y318329D01*
X1184987Y305000D01*
X1158329D01*
X1145000Y318329D01*
X1224974Y384974D02*
Y331658D01*
X1251632Y305000D01*
X1278290Y331658D01*
Y384974D01*
X1705000Y755000D02*
X1731658D01*
X1718329D01*
Y834974D01*
X1705000Y821645D01*
X6925000Y1275000D02*
Y1301658D01*
Y1288329D01*
X6845026D01*
X6858355Y1275000D01*
Y1341645D02*
X6845026Y1354974D01*
Y1381632D01*
X6858355Y1394961D01*
X6911671D01*
X6925000Y1381632D01*
Y1354974D01*
X6911671Y1341645D01*
X6858355D01*
X6925000Y1421619D02*
X6845026D01*
X6898342D02*
X6871684Y1461606D01*
X6898342Y1421619D02*
X6925000Y1461606D01*
X1348316Y134974D02*
X1295000D01*
Y94987D01*
X1321658Y108316D01*
X1334987D01*
X1348316Y94987D01*
Y68329D01*
X1334987Y55000D01*
X1308329D01*
X1295000Y68329D01*
X1374974Y134974D02*
Y81658D01*
X1401632Y55000D01*
X1428290Y81658D01*
Y134974D01*
X1534922Y55000D02*
Y134974D01*
X1561580Y108316D01*
X1588238Y134974D01*
Y55000D01*
X1628226Y108316D02*
X1654884D01*
X1668213Y94987D01*
Y55000D01*
X1628226D01*
X1614896Y68329D01*
X1628226Y81658D01*
X1668213D01*
X1694871Y108316D02*
X1748187Y55000D01*
X1721529Y81658D01*
X1748187Y108316D01*
X1694871Y55000D01*
X2353368Y3839987D02*
X2406684D01*
X2380026D01*
Y3760013D01*
X2433342D02*
Y3839987D01*
X2473329D01*
X2486658Y3826658D01*
Y3800000D01*
X2473329Y3786671D01*
X2433342D01*
X2513316Y3826658D02*
X2526645Y3839987D01*
X2553303D01*
X2566632Y3826658D01*
Y3813329D01*
X2553303Y3800000D01*
X2566632Y3786671D01*
Y3773342D01*
X2553303Y3760013D01*
X2526645D01*
X2513316Y3773342D01*
Y3786671D01*
X2526645Y3800000D01*
X2513316Y3813329D01*
Y3826658D01*
X2526645Y3800000D02*
X2553303D01*
X2943355Y4119987D02*
Y4053342D01*
X2956684Y4040013D01*
X2983342D01*
X2996671Y4053342D01*
Y4119987D01*
X3076645D02*
X3023329D01*
Y4080000D01*
X3049987Y4093329D01*
X3063316D01*
X3076645Y4080000D01*
Y4053342D01*
X3063316Y4040013D01*
X3036658D01*
X3023329Y4053342D01*
X6510032Y2499987D02*
Y2433342D01*
X6523361Y2420013D01*
X6550019D01*
X6563348Y2433342D01*
Y2499987D01*
X6590006Y2420013D02*
X6616664D01*
X6603336D01*
Y2499987D01*
X6590006Y2486658D01*
X6709968Y2499987D02*
X6683310Y2486658D01*
X6656652Y2460000D01*
Y2433342D01*
X6669981Y2420013D01*
X6696639D01*
X6709968Y2433342D01*
Y2446671D01*
X6696639Y2460000D01*
X6656652D01*
X7283368Y3949987D02*
Y3883342D01*
X7296697Y3870013D01*
X7323355D01*
X7336684Y3883342D01*
Y3949987D01*
X7416658Y3870013D02*
X7363342D01*
X7416658Y3923329D01*
Y3936658D01*
X7403329Y3949987D01*
X7376671D01*
X7363342Y3936658D01*
X7496632Y3949987D02*
X7443316D01*
Y3910000D01*
X7469974Y3923329D01*
X7483303D01*
X7496632Y3910000D01*
Y3883342D01*
X7483303Y3870013D01*
X7456645D01*
X7443316Y3883342D01*
X3706697Y1959987D02*
Y1893342D01*
X3720026Y1880013D01*
X3746684D01*
X3760013Y1893342D01*
Y1959987D01*
X3839987Y1880013D02*
X3786671D01*
X3839987Y1933329D01*
Y1946658D01*
X3826658Y1959987D01*
X3800000D01*
X3786671Y1946658D01*
X3866645Y1880013D02*
X3893303D01*
X3879974D01*
Y1959987D01*
X3866645Y1946658D01*
X2203355Y4010013D02*
Y4089987D01*
X2243342D01*
X2256671Y4076658D01*
Y4050000D01*
X2243342Y4036671D01*
X2203355D01*
X2336645Y4089987D02*
X2309987Y4076658D01*
X2283329Y4050000D01*
Y4023342D01*
X2296658Y4010013D01*
X2323316D01*
X2336645Y4023342D01*
Y4036671D01*
X2323316Y4050000D01*
X2283329D01*
X4063368Y2749987D02*
X4116684D01*
X4090026D01*
Y2670013D01*
X4143342D02*
Y2749987D01*
X4183329D01*
X4196658Y2736658D01*
Y2710000D01*
X4183329Y2696671D01*
X4143342D01*
X4223316Y2749987D02*
X4276632D01*
Y2736658D01*
X4223316Y2683342D01*
Y2670013D01*
X3523368Y3789987D02*
X3576684D01*
X3550026D01*
Y3710013D01*
X3603342D02*
Y3789987D01*
X3643329D01*
X3656658Y3776658D01*
Y3750000D01*
X3643329Y3736671D01*
X3603342D01*
X3736632Y3789987D02*
X3709974Y3776658D01*
X3683316Y3750000D01*
Y3723342D01*
X3696645Y3710013D01*
X3723303D01*
X3736632Y3723342D01*
Y3736671D01*
X3723303Y3750000D01*
X3683316D01*
X2753355Y2749987D02*
Y2683342D01*
X2766684Y2670013D01*
X2793342D01*
X2806671Y2683342D01*
Y2749987D01*
X2833329D02*
X2886645D01*
Y2736658D01*
X2833329Y2683342D01*
Y2670013D01*
X4333355Y3099987D02*
Y3033342D01*
X4346684Y3020013D01*
X4373342D01*
X4386671Y3033342D01*
Y3099987D01*
X4413329Y3033342D02*
X4426658Y3020013D01*
X4453316D01*
X4466645Y3033342D01*
Y3086658D01*
X4453316Y3099987D01*
X4426658D01*
X4413329Y3086658D01*
Y3073329D01*
X4426658Y3060000D01*
X4466645D01*
X4063355Y3799987D02*
Y3733342D01*
X4076684Y3720013D01*
X4103342D01*
X4116671Y3733342D01*
Y3799987D01*
X4143329Y3786658D02*
X4156658Y3799987D01*
X4183316D01*
X4196645Y3786658D01*
Y3773329D01*
X4183316Y3760000D01*
X4196645Y3746671D01*
Y3733342D01*
X4183316Y3720013D01*
X4156658D01*
X4143329Y3733342D01*
Y3746671D01*
X4156658Y3760000D01*
X4143329Y3773329D01*
Y3786658D01*
X4156658Y3760000D02*
X4183316D01*
X4123355Y4439987D02*
Y4373342D01*
X4136684Y4360013D01*
X4163342D01*
X4176671Y4373342D01*
Y4439987D01*
X4256645D02*
X4229987Y4426658D01*
X4203329Y4400000D01*
Y4373342D01*
X4216658Y4360013D01*
X4243316D01*
X4256645Y4373342D01*
Y4386671D01*
X4243316Y4400000D01*
X4203329D01*
X5053368Y2719987D02*
X5106684D01*
X5080026D01*
Y2640013D01*
X5133342D02*
Y2719987D01*
X5173329D01*
X5186658Y2706658D01*
Y2680000D01*
X5173329Y2666671D01*
X5133342D01*
X5266632Y2719987D02*
X5213316D01*
Y2680000D01*
X5239974Y2693329D01*
X5253303D01*
X5266632Y2680000D01*
Y2653342D01*
X5253303Y2640013D01*
X5226645D01*
X5213316Y2653342D01*
X8363361Y2660013D02*
Y2739987D01*
X8403349D01*
X8416678Y2726658D01*
Y2700000D01*
X8403349Y2686671D01*
X8363361D01*
X8443336Y2660013D02*
X8469994D01*
X8456665D01*
Y2739987D01*
X8443336Y2726658D01*
X8509981Y2660013D02*
X8536639D01*
X8523310D01*
Y2739987D01*
X8509981Y2726658D01*
X7930032Y2720013D02*
Y2799987D01*
X7970019D01*
X7983348Y2786658D01*
Y2760000D01*
X7970019Y2746671D01*
X7930032D01*
X8010006Y2720013D02*
X8036664D01*
X8023335D01*
Y2799987D01*
X8010006Y2786658D01*
X8076652D02*
X8089981Y2799987D01*
X8116639D01*
X8129968Y2786658D01*
Y2733342D01*
X8116639Y2720013D01*
X8089981D01*
X8076652Y2733342D01*
Y2786658D01*
X1673355Y1050013D02*
Y1129987D01*
X1713342D01*
X1726671Y1116658D01*
Y1090000D01*
X1713342Y1076671D01*
X1673355D01*
X1753329Y1063342D02*
X1766658Y1050013D01*
X1793316D01*
X1806645Y1063342D01*
Y1116658D01*
X1793316Y1129987D01*
X1766658D01*
X1753329Y1116658D01*
Y1103329D01*
X1766658Y1090000D01*
X1806645D01*
X1750000Y1019987D02*
X1723342D01*
X1736671D01*
Y953342D01*
X1723342Y940013D01*
X1710013D01*
X1696684Y953342D01*
X1776658Y940013D02*
X1803316D01*
X1789987D01*
Y1019987D01*
X1776658Y1006658D01*
X2170032Y2529987D02*
Y2463342D01*
X2183361Y2450013D01*
X2210019D01*
X2223348Y2463342D01*
Y2529987D01*
X2250006Y2450013D02*
X2276664D01*
X2263336D01*
Y2529987D01*
X2250006Y2516658D01*
X2316652D02*
X2329981Y2529987D01*
X2356639D01*
X2369968Y2516658D01*
Y2503329D01*
X2356639Y2490000D01*
X2369968Y2476671D01*
Y2463342D01*
X2356639Y2450013D01*
X2329981D01*
X2316652Y2463342D01*
Y2476671D01*
X2329981Y2490000D01*
X2316652Y2503329D01*
Y2516658D01*
X2329981Y2490000D02*
X2356639D01*
X5133368Y989987D02*
Y923342D01*
X5146697Y910013D01*
X5173355D01*
X5186684Y923342D01*
Y989987D01*
X5266658Y910013D02*
X5213342D01*
X5266658Y963329D01*
Y976658D01*
X5253329Y989987D01*
X5226671D01*
X5213342Y976658D01*
X5293316D02*
X5306645Y989987D01*
X5333303D01*
X5346632Y976658D01*
Y923342D01*
X5333303Y910013D01*
X5306645D01*
X5293316Y923342D01*
Y976658D01*
X5040032Y2379987D02*
Y2313342D01*
X5053361Y2300013D01*
X5080019D01*
X5093348Y2313342D01*
Y2379987D01*
X5120006Y2300013D02*
X5146664D01*
X5133335D01*
Y2379987D01*
X5120006Y2366658D01*
X5186652Y2313342D02*
X5199981Y2300013D01*
X5226639D01*
X5239968Y2313342D01*
Y2366658D01*
X5226639Y2379987D01*
X5199981D01*
X5186652Y2366658D01*
Y2353329D01*
X5199981Y2340000D01*
X5239968D01*
X3010032Y2499987D02*
Y2433342D01*
X3023361Y2420013D01*
X3050019D01*
X3063348Y2433342D01*
Y2499987D01*
X3090006Y2420013D02*
X3116664D01*
X3103335D01*
Y2499987D01*
X3090006Y2486658D01*
X3156652Y2499987D02*
X3209968D01*
Y2486658D01*
X3156652Y2433342D01*
Y2420013D01*
X2953355Y610013D02*
Y689987D01*
X2993342D01*
X3006671Y676658D01*
Y650000D01*
X2993342Y636671D01*
X2953355D01*
X3033329Y676658D02*
X3046658Y689987D01*
X3073316D01*
X3086645Y676658D01*
Y663329D01*
X3073316Y650000D01*
X3086645Y636671D01*
Y623342D01*
X3073316Y610013D01*
X3046658D01*
X3033329Y623342D01*
Y636671D01*
X3046658Y650000D01*
X3033329Y663329D01*
Y676658D01*
X3046658Y650000D02*
X3073316D01*
X1963355Y4770013D02*
Y4849987D01*
X2003342D01*
X2016671Y4836658D01*
Y4810000D01*
X2003342Y4796671D01*
X1963355D01*
X2043329Y4849987D02*
X2096645D01*
Y4836658D01*
X2043329Y4783342D01*
Y4770013D01*
X6243355Y3509987D02*
Y3443342D01*
X6256684Y3430013D01*
X6283342D01*
X6296671Y3443342D01*
Y3509987D01*
X6323329Y3496658D02*
X6336658Y3509987D01*
X6363316D01*
X6376645Y3496658D01*
Y3483329D01*
X6363316Y3470000D01*
X6349987D01*
X6363316D01*
X6376645Y3456671D01*
Y3443342D01*
X6363316Y3430013D01*
X6336658D01*
X6323329Y3443342D01*
X3723368Y1439987D02*
Y1373342D01*
X3736697Y1360013D01*
X3763355D01*
X3776684Y1373342D01*
Y1439987D01*
X3856658Y1360013D02*
X3803342D01*
X3856658Y1413329D01*
Y1426658D01*
X3843329Y1439987D01*
X3816671D01*
X3803342Y1426658D01*
X3936632Y1360013D02*
X3883316D01*
X3936632Y1413329D01*
Y1426658D01*
X3923303Y1439987D01*
X3896645D01*
X3883316Y1426658D01*
X7570032Y3809987D02*
Y3743342D01*
X7583361Y3730013D01*
X7610019D01*
X7623348Y3743342D01*
Y3809987D01*
X7650006Y3730013D02*
X7676664D01*
X7663335D01*
Y3809987D01*
X7650006Y3796658D01*
X7756639Y3730013D02*
Y3809987D01*
X7716652Y3770000D01*
X7769968D01*
X7280032Y3529987D02*
Y3463342D01*
X7293361Y3450013D01*
X7320019D01*
X7333348Y3463342D01*
Y3529987D01*
X7360006Y3450013D02*
X7386664D01*
X7373336D01*
Y3529987D01*
X7360006Y3516658D01*
X7426652D02*
X7439981Y3529987D01*
X7466639D01*
X7479968Y3516658D01*
Y3503329D01*
X7466639Y3490000D01*
X7453310D01*
X7466639D01*
X7479968Y3476671D01*
Y3463342D01*
X7466639Y3450013D01*
X7439981D01*
X7426652Y3463342D01*
X7733368Y1259987D02*
Y1193342D01*
X7746697Y1180013D01*
X7773355D01*
X7786684Y1193342D01*
Y1259987D01*
X7866658Y1180013D02*
X7813342D01*
X7866658Y1233329D01*
Y1246658D01*
X7853329Y1259987D01*
X7826671D01*
X7813342Y1246658D01*
X7893316Y1259987D02*
X7946632D01*
Y1246658D01*
X7893316Y1193342D01*
Y1180013D01*
X7743368Y1989987D02*
Y1923342D01*
X7756697Y1910013D01*
X7783355D01*
X7796684Y1923342D01*
Y1989987D01*
X7876658Y1910013D02*
X7823342D01*
X7876658Y1963329D01*
Y1976658D01*
X7863329Y1989987D01*
X7836671D01*
X7823342Y1976658D01*
X7903316Y1923342D02*
X7916645Y1910013D01*
X7943303D01*
X7956632Y1923342D01*
Y1976658D01*
X7943303Y1989987D01*
X7916645D01*
X7903316Y1976658D01*
Y1963329D01*
X7916645Y1950000D01*
X7956632D01*
X7703368Y1609987D02*
Y1543342D01*
X7716697Y1530013D01*
X7743355D01*
X7756684Y1543342D01*
Y1609987D01*
X7836658Y1530013D02*
X7783342D01*
X7836658Y1583329D01*
Y1596658D01*
X7823329Y1609987D01*
X7796671D01*
X7783342Y1596658D01*
X7903303Y1530013D02*
Y1609987D01*
X7863316Y1570000D01*
X7916632D01*
X7660032Y3529987D02*
Y3463342D01*
X7673361Y3450013D01*
X7700019D01*
X7713348Y3463342D01*
Y3529987D01*
X7740006Y3450013D02*
X7766664D01*
X7753336D01*
Y3529987D01*
X7740006Y3516658D01*
X7859968Y3529987D02*
X7806652D01*
Y3490000D01*
X7833310Y3503329D01*
X7846639D01*
X7859968Y3490000D01*
Y3463342D01*
X7846639Y3450013D01*
X7819981D01*
X7806652Y3463342D01*
X6010032Y1249987D02*
Y1183342D01*
X6023361Y1170013D01*
X6050019D01*
X6063348Y1183342D01*
Y1249987D01*
X6090006Y1170013D02*
X6116664D01*
X6103336D01*
Y1249987D01*
X6090006Y1236658D01*
X6209968Y1170013D02*
X6156652D01*
X6209968Y1223329D01*
Y1236658D01*
X6196639Y1249987D01*
X6169981D01*
X6156652Y1236658D01*
X7753368Y2349987D02*
Y2283342D01*
X7766697Y2270013D01*
X7793355D01*
X7806684Y2283342D01*
Y2349987D01*
X7886658Y2270013D02*
X7833342D01*
X7886658Y2323329D01*
Y2336658D01*
X7873329Y2349987D01*
X7846671D01*
X7833342Y2336658D01*
X7913316D02*
X7926645Y2349987D01*
X7953303D01*
X7966632Y2336658D01*
Y2323329D01*
X7953303Y2310000D01*
X7966632Y2296671D01*
Y2283342D01*
X7953303Y2270013D01*
X7926645D01*
X7913316Y2283342D01*
Y2296671D01*
X7926645Y2310000D01*
X7913316Y2323329D01*
Y2336658D01*
X7926645Y2310000D02*
X7953303D01*
X7283368Y3179987D02*
Y3113342D01*
X7296697Y3100013D01*
X7323355D01*
X7336684Y3113342D01*
Y3179987D01*
X7416658Y3100013D02*
X7363342D01*
X7416658Y3153329D01*
Y3166658D01*
X7403329Y3179987D01*
X7376671D01*
X7363342Y3166658D01*
X7443316D02*
X7456645Y3179987D01*
X7483303D01*
X7496632Y3166658D01*
Y3153329D01*
X7483303Y3140000D01*
X7469974D01*
X7483303D01*
X7496632Y3126671D01*
Y3113342D01*
X7483303Y3100013D01*
X7456645D01*
X7443316Y3113342D01*
X7753368Y2469987D02*
Y2403342D01*
X7766697Y2390013D01*
X7793355D01*
X7806684Y2403342D01*
Y2469987D01*
X7886658Y2390013D02*
X7833342D01*
X7886658Y2443329D01*
Y2456658D01*
X7873329Y2469987D01*
X7846671D01*
X7833342Y2456658D01*
X7966632Y2469987D02*
X7939974Y2456658D01*
X7913316Y2430000D01*
Y2403342D01*
X7926645Y2390013D01*
X7953303D01*
X7966632Y2403342D01*
Y2416671D01*
X7953303Y2430000D01*
X7913316D01*
X6053361Y1689987D02*
Y1623342D01*
X6066690Y1610013D01*
X6093348D01*
X6106677Y1623342D01*
Y1689987D01*
X6133335Y1610013D02*
X6159994D01*
X6146665D01*
Y1689987D01*
X6133335Y1676658D01*
X6199981Y1610013D02*
X6226639D01*
X6213310D01*
Y1689987D01*
X6199981Y1676658D01*
X5293355Y3219987D02*
Y3153342D01*
X5306684Y3140013D01*
X5333342D01*
X5346671Y3153342D01*
Y3219987D01*
X5413316Y3140013D02*
Y3219987D01*
X5373329Y3180000D01*
X5426645D01*
X5516684Y4149987D02*
Y4083342D01*
X5530013Y4070013D01*
X5556671D01*
X5570000Y4083342D01*
Y4149987D01*
X5596658Y4070013D02*
X5623316D01*
X5609987D01*
Y4149987D01*
X5596658Y4136658D01*
X4683355Y4099987D02*
Y4033342D01*
X4696684Y4020013D01*
X4723342D01*
X4736671Y4033342D01*
Y4099987D01*
X4816645Y4020013D02*
X4763329D01*
X4816645Y4073329D01*
Y4086658D01*
X4803316Y4099987D01*
X4776658D01*
X4763329Y4086658D01*
X5663368Y3429987D02*
X5716684D01*
X5690026D01*
Y3350013D01*
X5743342D02*
Y3429987D01*
X5783329D01*
X5796658Y3416658D01*
Y3390000D01*
X5783329Y3376671D01*
X5743342D01*
X5863303Y3350013D02*
Y3429987D01*
X5823316Y3390000D01*
X5876632D01*
X5983368Y4389987D02*
X6036684D01*
X6010026D01*
Y4310013D01*
X6063342D02*
Y4389987D01*
X6103329D01*
X6116658Y4376658D01*
Y4350000D01*
X6103329Y4336671D01*
X6063342D01*
X6143316Y4376658D02*
X6156645Y4389987D01*
X6183303D01*
X6196632Y4376658D01*
Y4363329D01*
X6183303Y4350000D01*
X6169974D01*
X6183303D01*
X6196632Y4336671D01*
Y4323342D01*
X6183303Y4310013D01*
X6156645D01*
X6143316Y4323342D01*
X5796697Y3609987D02*
X5850013D01*
X5823355D01*
Y3530013D01*
X5876671D02*
Y3609987D01*
X5916658D01*
X5929987Y3596658D01*
Y3570000D01*
X5916658Y3556671D01*
X5876671D01*
X5956645Y3530013D02*
X5983303D01*
X5969974D01*
Y3609987D01*
X5956645Y3596658D01*
X5523368Y4429987D02*
X5576684D01*
X5550026D01*
Y4350013D01*
X5603342D02*
Y4429987D01*
X5643329D01*
X5656658Y4416658D01*
Y4390000D01*
X5643329Y4376671D01*
X5603342D01*
X5736632Y4350013D02*
X5683316D01*
X5736632Y4403329D01*
Y4416658D01*
X5723303Y4429987D01*
X5696645D01*
X5683316Y4416658D01*
D96*
X5669961Y3800000D02*
Y3840000D01*
X6220000Y2345000D02*
X6250000Y2315000D01*
X6250000D02*
X6280000Y2345000D01*
X6250000Y2315000D02*
Y2385000D01*
X4720000Y1880000D02*
X4750000Y1850000D01*
X4690000D02*
X4720000Y1880000D01*
Y1810000D02*
Y1880000D01*
X4360000Y2000000D02*
X4390000Y1970000D01*
X4360000Y1940000D02*
X4390000Y1970000D01*
X4320000Y1970000D02*
X4390000D01*
X4554382Y1000100D02*
X4584381Y1030100D01*
X4584382D02*
X4614382Y1000100D01*
X4584381Y960100D02*
Y1030100D01*
X5820000Y1810000D02*
X5850000Y1840000D01*
X5850000D02*
X5880000Y1810000D01*
X5850000Y1770000D02*
Y1840000D01*
X5820000Y2320000D02*
X5850000Y2290000D01*
X5820000Y2320000D02*
X5850000Y2350000D01*
X5820000Y2320000D02*
X5890000D01*
X6180000Y4080000D02*
X6320000D01*
X6180000Y3940000D02*
X6320000D01*
X1990000Y1340000D02*
X2070000D01*
X1990000D02*
Y1440000D01*
X2210000Y1340000D02*
X2290000D01*
Y1440000D01*
X2200000Y1800000D02*
X2280000D01*
X2200000D02*
Y1900000D01*
X2420000Y1800000D02*
X2500000D01*
Y1900000D01*
X1770000Y1710000D02*
X1850000D01*
X1770000D02*
Y1810000D01*
X1990000Y1710000D02*
X2070000D01*
Y1810000D01*
X2330000Y2950000D02*
Y3090000D01*
X2470000Y2950000D02*
Y3090000D01*
X6169961Y4220000D02*
Y4260000D01*
X1890000Y70500D02*
X1949997D01*
X1880000Y35500D02*
Y600500D01*
X1890000Y564500D02*
X1952000D01*
X3175000Y55500D02*
Y579500D01*
X3175748Y70500D02*
X3219997D01*
X3175146Y564500D02*
X3222000D01*
X7777000Y35500D02*
Y600500D01*
X7702003Y564500D02*
X7767000D01*
X7700000Y70500D02*
X7767000D01*
X6985000Y35500D02*
Y600500D01*
X6940003Y564500D02*
X6984252D01*
X6938000Y70500D02*
X6984854D01*
X6985000Y55500D02*
Y579500D01*
X6985748Y70500D02*
X7029997D01*
X6985146Y564500D02*
X7032000D01*
X5715000Y35500D02*
Y600500D01*
X5670003Y564500D02*
X5714252D01*
X5668000Y70500D02*
X5714854D01*
X5715000Y55500D02*
Y579500D01*
X5715748Y70500D02*
X5759997D01*
X5715146Y564500D02*
X5762000D01*
X4445000Y35500D02*
Y600500D01*
X4400003Y564500D02*
X4444252D01*
X4398000Y70500D02*
X4444854D01*
X4445000Y55500D02*
Y579500D01*
X4445748Y70500D02*
X4489997D01*
X4445146Y564500D02*
X4492000D01*
X3175000Y35500D02*
Y600500D01*
X3130003Y564500D02*
X3174252D01*
X3128000Y70500D02*
X3174854D01*
X1890000Y4896500D02*
X1949997D01*
X1880000Y4861500D02*
Y5426500D01*
X1890000Y5390500D02*
X1952000D01*
X3175000Y4881500D02*
Y5405500D01*
X3175748Y4896500D02*
X3219997D01*
X3175146Y5390500D02*
X3222000D01*
X7777000Y4861500D02*
Y5426500D01*
X7702003Y5390500D02*
X7767000D01*
X7700000Y4896500D02*
X7767000D01*
X6985000Y4861500D02*
Y5426500D01*
X6940003Y5390500D02*
X6984252D01*
X6938000Y4896500D02*
X6984854D01*
X6985000Y4881500D02*
Y5405500D01*
X6985748Y4896500D02*
X7029997D01*
X6985146Y5390500D02*
X7032000D01*
X5715000Y4861500D02*
Y5426500D01*
X5670003Y5390500D02*
X5714252D01*
X5668000Y4896500D02*
X5714854D01*
X5715000Y4881500D02*
Y5405500D01*
X5715748Y4896500D02*
X5759997D01*
X5715146Y5390500D02*
X5762000D01*
X4445000Y4861500D02*
Y5426500D01*
X4400003Y5390500D02*
X4444252D01*
X4398000Y4896500D02*
X4444854D01*
X4445000Y4881500D02*
Y5405500D01*
X4445748Y4896500D02*
X4489997D01*
X4445146Y5390500D02*
X4492000D01*
X3175000Y4861500D02*
Y5426500D01*
X3130003Y5390500D02*
X3174252D01*
X3128000Y4896500D02*
X3174854D01*
X7973000Y795800D02*
X8538000D01*
X8502000Y805800D02*
Y870797D01*
X8008000Y805800D02*
Y872800D01*
Y1333946D02*
Y1380800D01*
X8502000Y1334548D02*
Y1378797D01*
X7973000Y1333800D02*
X8538000D01*
X8502000Y1286800D02*
Y1333654D01*
X8008000Y1288803D02*
Y1333052D01*
X7993000Y1333800D02*
X8517000D01*
X8502000Y2556800D02*
Y2618800D01*
X7973000Y2628800D02*
X8538000D01*
X8008000Y2558803D02*
Y2618800D01*
X7973000Y2827800D02*
X8538000D01*
X8502000Y2837800D02*
Y2902797D01*
X8008000Y2837800D02*
Y2904800D01*
Y3365946D02*
Y3412800D01*
X8502000Y3366548D02*
Y3410797D01*
X7973000Y3365800D02*
X8538000D01*
X8502000Y3318800D02*
Y3365654D01*
X8008000Y3320803D02*
Y3365052D01*
X7993000Y3365800D02*
X8517000D01*
X8502000Y4588800D02*
Y4650800D01*
X7973000Y4660800D02*
X8538000D01*
X8008000Y4590803D02*
Y4650800D01*
X1890000Y4632400D02*
X1952000D01*
X1880000Y4103400D02*
Y4668400D01*
X1890000Y4138400D02*
X1949997D01*
X2443000Y4103400D02*
Y4668400D01*
X2368003Y4632400D02*
X2433000D01*
X2366000Y4138400D02*
X2433000D01*
X7840000Y340000D02*
X7870000Y310000D01*
X7870000D02*
X7900000Y340000D01*
X7870000Y310000D02*
Y380000D01*
X7870000Y5150000D02*
X7900000Y5120000D01*
X7840000D02*
X7870000Y5150000D01*
Y5080000D02*
Y5150000D01*
X7610000Y4680000D02*
X7640000Y4650000D01*
X7640000D02*
X7670000Y4680000D01*
X7640000Y4650000D02*
Y4720000D01*
X7810000Y720000D02*
Y790000D01*
X7780000Y760000D02*
X7810000Y790000D01*
X7810000D02*
X7840000Y760000D01*
X8016645Y5143306D02*
X7999984Y5159968D01*
X7966661D01*
X7950000Y5143306D01*
Y5126645D01*
X7966661Y5109984D01*
X7999984D01*
X8016645Y5093323D01*
Y5076661D01*
X7999984Y5060000D01*
X7966661D01*
X7950000Y5076661D01*
X8116613Y5159968D02*
X8049968D01*
Y5060000D01*
X8116613D01*
X8049968Y5109984D02*
X8083290D01*
X8149935Y5159968D02*
Y5060000D01*
X8216580D01*
X6160000Y4540000D02*
Y4639968D01*
X6209984D01*
X6226645Y4623306D01*
Y4589984D01*
X6209984Y4573323D01*
X6160000D01*
X6259968Y4540000D02*
Y4639968D01*
X6309952D01*
X6326613Y4623306D01*
Y4589984D01*
X6309952Y4573323D01*
X6259968D01*
X6293290D02*
X6326613Y4540000D01*
X6359936Y4639968D02*
Y4556661D01*
X6376597Y4540000D01*
X6409920D01*
X6426581Y4556661D01*
Y4639968D01*
X6459904Y4540000D02*
X6493226D01*
X6476565D01*
Y4639968D01*
X6459904Y4623306D01*
X6160000Y4853306D02*
X6176662Y4869968D01*
X6209984D01*
X6226645Y4853306D01*
Y4786661D01*
X6209984Y4770000D01*
X6176662D01*
X6160000Y4786661D01*
Y4853306D01*
X6480000Y4770000D02*
X6513323D01*
X6496661D01*
Y4869968D01*
X6480000Y4853306D01*
X4950000Y4770000D02*
X4983323D01*
X4966661D01*
Y4869968D01*
X4950000Y4853306D01*
X4630000D02*
X4646661Y4869968D01*
X4679984D01*
X4696645Y4853306D01*
Y4786661D01*
X4679984Y4770000D01*
X4646661D01*
X4630000Y4786661D01*
Y4853306D01*
X1826645Y5230000D02*
X1760000D01*
X1826645Y5296645D01*
Y5313306D01*
X1809984Y5329968D01*
X1776661D01*
X1760000Y5313306D01*
X1826645Y4470000D02*
X1760000D01*
X1826645Y4536645D01*
Y4553306D01*
X1809984Y4569968D01*
X1776661D01*
X1760000Y4553306D01*
X1780000Y4950000D02*
X1813323D01*
X1796661D01*
Y5049968D01*
X1780000Y5033306D01*
Y4180000D02*
X1813323D01*
X1796661D01*
Y4279968D01*
X1780000Y4263306D01*
X1856645Y420000D02*
X1790000D01*
X1856645Y486645D01*
Y503306D01*
X1839984Y519968D01*
X1806661D01*
X1790000Y503306D01*
X1810000Y130000D02*
X1843322D01*
X1826661D01*
Y229968D01*
X1810000Y213306D01*
X7890000Y2500000D02*
X7923322D01*
X7906661D01*
Y2599968D01*
X7890000Y2583306D01*
X7910000Y4520000D02*
X7943322D01*
X7926661D01*
Y4619968D01*
X7910000Y4603306D01*
X7590000Y789968D02*
X7623323D01*
X7606661D01*
Y690000D01*
X7590000D01*
X7623323D01*
X7723290Y789968D02*
X7689968D01*
X7673306Y773306D01*
Y706661D01*
X7689968Y690000D01*
X7723290D01*
X7739952Y706661D01*
Y773306D01*
X7723290Y789968D01*
X8006645Y383306D02*
X7989984Y399968D01*
X7956661D01*
X7940000Y383306D01*
Y366645D01*
X7956661Y349984D01*
X7989984D01*
X8006645Y333322D01*
Y316661D01*
X7989984Y300000D01*
X7956661D01*
X7940000Y316661D01*
X8106613Y399968D02*
X8039968D01*
Y300000D01*
X8106613D01*
X8039968Y349984D02*
X8073290D01*
X8139935Y399968D02*
Y300000D01*
X8206580D01*
X7710000Y4729974D02*
X7736658D01*
X7723329D01*
Y4650000D01*
X7710000D01*
X7736658D01*
X7816633Y4729974D02*
X7789975D01*
X7776645Y4716645D01*
Y4663329D01*
X7789975Y4650000D01*
X7816633D01*
X7829961Y4663329D01*
Y4716645D01*
X7816633Y4729974D01*
X4150000Y2479968D02*
Y2380000D01*
Y2429984D01*
X4216645D01*
Y2479968D01*
Y2380000D01*
X4249968D02*
Y2479968D01*
X4299952D01*
X4316613Y2463306D01*
Y2429984D01*
X4299952Y2413323D01*
X4249968D01*
X4283290D02*
X4316613Y2380000D01*
X4349936Y2479968D02*
Y2413323D01*
X4383258Y2380000D01*
X4416581Y2413323D01*
Y2479968D01*
X4776645D02*
X4710000D01*
Y2380000D01*
X4776645D01*
X4710000Y2429984D02*
X4743322D01*
X4809968Y2380000D02*
Y2479968D01*
X4843290Y2446645D01*
X4876613Y2479968D01*
Y2380000D01*
X4909936Y2479968D02*
Y2396661D01*
X4926597Y2380000D01*
X4959919D01*
X4976581Y2396661D01*
Y2479968D01*
X1180000Y4869968D02*
Y4770000D01*
Y4819984D01*
X1246645D01*
Y4869968D01*
Y4770000D01*
X1296629Y4836645D02*
X1329952D01*
X1346613Y4819984D01*
Y4770000D01*
X1296629D01*
X1279968Y4786661D01*
X1296629Y4803322D01*
X1346613D01*
X1379936Y4836645D02*
Y4770000D01*
Y4803322D01*
X1396597Y4819984D01*
X1413258Y4836645D01*
X1429919D01*
X1479903D02*
X1513226Y4770000D01*
X1546548Y4836645D01*
X1629855Y4770000D02*
X1596532D01*
X1579871Y4786661D01*
Y4819984D01*
X1596532Y4836645D01*
X1629855D01*
X1646516Y4819984D01*
Y4803322D01*
X1579871D01*
X1679839Y4770000D02*
X1729823D01*
X1746484Y4786661D01*
X1729823Y4803322D01*
X1696500D01*
X1679839Y4819984D01*
X1696500Y4836645D01*
X1746484D01*
X1796468Y4853306D02*
Y4836645D01*
X1779807D01*
X1813129D01*
X1796468D01*
Y4786661D01*
X1813129Y4770000D01*
X4630000Y4540000D02*
Y4639968D01*
X4679984D01*
X4696645Y4623306D01*
Y4589984D01*
X4679984Y4573323D01*
X4630000D01*
X4729968Y4540000D02*
Y4639968D01*
X4779952D01*
X4796613Y4623306D01*
Y4589984D01*
X4779952Y4573323D01*
X4729968D01*
X4763290D02*
X4796613Y4540000D01*
X4829935Y4639968D02*
Y4556661D01*
X4846597Y4540000D01*
X4879919D01*
X4896581Y4556661D01*
Y4639968D01*
X4929903Y4623306D02*
X4946565Y4639968D01*
X4979887D01*
X4996548Y4623306D01*
Y4556661D01*
X4979887Y4540000D01*
X4946565D01*
X4929903Y4556661D01*
Y4623306D01*
X8540000Y2579968D02*
Y2480000D01*
X8589984D01*
X8606645Y2496661D01*
Y2513322D01*
X8589984Y2529984D01*
X8540000D01*
X8589984D01*
X8606645Y2546645D01*
Y2563306D01*
X8589984Y2579968D01*
X8540000D01*
Y2890000D02*
Y2956645D01*
X8573322Y2989968D01*
X8606645Y2956645D01*
Y2890000D01*
Y2939984D01*
X8540000D01*
D97*
X1500000Y4560000D02*
X1600000D01*
X1470000Y4440000D02*
Y4540000D01*
X1630000Y4440000D02*
Y4540000D01*
X1500000Y4420000D02*
X1600000D01*
X1470000Y4290000D02*
Y4390000D01*
X1630000Y4290000D02*
Y4390000D01*
X1500000Y4260000D02*
X1600000D01*
X1240000D02*
X1340000D01*
X1370000Y4290000D02*
Y4390000D01*
X1210000Y4290000D02*
Y4390000D01*
X1240000Y4420000D02*
X1340000D01*
X1370000Y4440000D02*
Y4540000D01*
X1210000Y4440000D02*
Y4540000D01*
X1240000Y4560000D02*
X1340000D01*
D118*
X7820000Y3764711D02*
Y3770000D01*
Y3790000D02*
Y3795094D01*
X6750000Y2250000D02*
X6755289D01*
X6724906D02*
X6730000D01*
X6724906Y2150000D02*
X6730000D01*
X6750000D02*
X6755289D01*
X6924906Y2250000D02*
X6930000D01*
X6950000D02*
X6955289D01*
X2569233Y4031766D02*
X2569420D01*
X7160000Y1224906D02*
Y1230000D01*
Y1250000D02*
Y1255289D01*
X7150000Y1964906D02*
Y1970000D01*
Y1990000D02*
Y1995289D01*
X7120000Y2334906D02*
Y2340000D01*
Y2360000D02*
Y2365289D01*
X5438234Y2749233D02*
Y2749420D01*
X3931766Y3700580D02*
Y3700767D01*
X3518235Y2769233D02*
Y2769420D01*
X5508235Y3389233D02*
Y3389420D01*
X5871765Y4220580D02*
Y4220767D01*
X5861766Y3650580D02*
Y3650767D01*
X5501765Y4220580D02*
Y4220767D01*
X2250000Y1010000D02*
X2259423D01*
X2199772Y1009878D02*
X2199894Y1010000D01*
X2210000D01*
Y970000D02*
Y1050000D01*
Y1010000D02*
X2250000Y1050000D01*
X2210000Y1010000D02*
X2250000Y970000D01*
Y1050000D01*
X2210000Y1010000D02*
X2250000D01*
Y1150000D02*
X2259423D01*
X2199772Y1149878D02*
X2199894Y1150000D01*
X2210000D01*
Y1110000D02*
Y1190000D01*
Y1150000D02*
X2250000Y1190000D01*
X2210000Y1150000D02*
X2250000Y1110000D01*
Y1190000D01*
X2210000Y1150000D02*
X2250000D01*
X2170577Y1640000D02*
X2180000D01*
X2230106D02*
X2230228Y1640122D01*
X2220000Y1640000D02*
X2230106D01*
X2220000Y1600000D02*
Y1680000D01*
X2180000Y1600000D02*
X2220000Y1640000D01*
X2180000Y1680000D02*
X2220000Y1640000D01*
X2180000Y1600000D02*
Y1680000D01*
Y1640000D02*
X2220000D01*
X5660000Y1110577D02*
Y1120000D01*
X5659878Y1170228D02*
X5660000Y1170106D01*
Y1160000D02*
Y1170106D01*
X5620000Y1160000D02*
X5700000D01*
X5660000D02*
X5700000Y1120000D01*
X5620000D02*
X5660000Y1160000D01*
X5620000Y1120000D02*
X5700000D01*
X5660000D02*
Y1160000D01*
X5030000Y1530000D02*
Y1539423D01*
Y1479894D02*
X5030122Y1479772D01*
X5030000Y1479894D02*
Y1490000D01*
X4990000D02*
X5070000D01*
X4990000Y1530000D02*
X5030000Y1490000D01*
X5070000Y1530000D01*
X4990000D02*
X5070000D01*
X5030000Y1490000D02*
Y1530000D01*
X2630000Y2080577D02*
Y2090000D01*
X2629878Y2140228D02*
X2630000Y2140106D01*
Y2130000D02*
Y2140106D01*
X2590000Y2130000D02*
X2670000D01*
X2630000D02*
X2670000Y2090000D01*
X2590000D02*
X2630000Y2130000D01*
X2590000Y2090000D02*
X2670000D01*
X2630000D02*
Y2130000D01*
Y2340000D02*
Y2345289D01*
Y2314906D02*
Y2320000D01*
X4920000Y1520000D02*
Y1525289D01*
Y1494906D02*
Y1500000D01*
X3764711Y2380000D02*
X3770000D01*
X3790000D02*
X3795094D01*
X2780000Y2844711D02*
Y2850000D01*
Y2870000D02*
Y2875094D01*
X6244711Y3860000D02*
X6250000D01*
X6270000D02*
X6275094D01*
X5050000Y2230000D02*
X5055289D01*
X5024906D02*
X5030000D01*
X5540000Y1104711D02*
Y1110000D01*
Y1130000D02*
Y1135094D01*
X5550000Y2000000D02*
Y2005289D01*
Y1974906D02*
Y1980000D01*
X4880000Y1990000D02*
Y1995289D01*
Y1964906D02*
Y1970000D01*
X2780000Y3034711D02*
Y3040000D01*
Y3060000D02*
Y3065094D01*
X2780000Y3250000D02*
Y3255289D01*
Y3224906D02*
Y3230000D01*
X3314711Y4290000D02*
X3320000D01*
X3340000D02*
X3345094D01*
X3514711D02*
X3520000D01*
X3540000D02*
X3545093D01*
X4340000Y4704711D02*
Y4710000D01*
Y4730000D02*
Y4735094D01*
X4400000Y4244711D02*
Y4250000D01*
Y4270000D02*
Y4275094D01*
X3040000Y3790000D02*
X3045289D01*
X3014906D02*
X3020000D01*
X2814711D02*
X2820000D01*
X2840000D02*
X2845094D01*
X3580000Y3864711D02*
Y3870000D01*
Y3890000D02*
Y3895094D01*
X2780000Y4270000D02*
Y4275289D01*
Y4244906D02*
Y4250000D01*
X3040000Y4210000D02*
X3045289D01*
X3014906D02*
X3020000D01*
X3360000Y3870000D02*
Y3875289D01*
Y3844906D02*
Y3850000D01*
X6354711Y3090000D02*
X6360000D01*
X6380000D02*
X6385094D01*
X6354711Y3190000D02*
X6360000D01*
X6380000D02*
X6385094D01*
X3430000Y2410000D02*
X3435289D01*
X3404906D02*
X3410000D01*
X7890000Y1040000D02*
Y1045289D01*
Y1014906D02*
Y1020000D01*
X3350000Y3464711D02*
Y3470000D01*
Y3490000D02*
Y3495094D01*
X2814711Y3430000D02*
X2820000D01*
X2840000D02*
X2845094D01*
X4430000Y3520000D02*
Y3525289D01*
Y3494906D02*
Y3500000D01*
X4300000Y3560000D02*
X4305289D01*
X4274906D02*
X4280000D01*
X4300000Y3760000D02*
X4305289D01*
X4274906D02*
X4280000D01*
X4300000Y3660000D02*
X4305289D01*
X4274906D02*
X4280000D01*
X3410000Y3630000D02*
X3415289D01*
X3384906D02*
X3390000D01*
X3660000Y760000D02*
Y765289D01*
Y734906D02*
Y740000D01*
X4610000Y760000D02*
Y765289D01*
Y734906D02*
Y740000D01*
X8224711Y2680000D02*
X8230000D01*
X8250000D02*
X8255094D01*
X7920000Y4400000D02*
Y4405289D01*
Y4374906D02*
Y4380000D01*
X3434711Y3330000D02*
X3440000D01*
X3460000D02*
X3465094D01*
X3434711Y3230000D02*
X3440000D01*
X3460000D02*
X3465094D01*
X4380000Y3190000D02*
X4385289D01*
X4354906D02*
X4360000D01*
X4380000Y3290000D02*
X4385289D01*
X4354906D02*
X4360000D01*
X3200000Y3024711D02*
Y3030000D01*
Y3050000D02*
Y3055094D01*
Y3250000D02*
Y3255289D01*
Y3224906D02*
Y3230000D01*
X3434711Y2960000D02*
X3440000D01*
X3460000D02*
X3465094D01*
X2840000Y3640000D02*
X2845289D01*
X2814906D02*
X2820000D01*
X6190000Y3090000D02*
X6195289D01*
X6164906D02*
X6170000D01*
X6190000Y3190000D02*
X6195289D01*
X6164906D02*
X6170000D01*
X6824711Y2050000D02*
X6830000D01*
X6850000D02*
X6855094D01*
X1854711Y1350000D02*
X1860000D01*
X1880000D02*
X1885094D01*
X8250000Y2780000D02*
X8255289D01*
X8224906D02*
X8230000D01*
X3920000Y920000D02*
X3925289D01*
X3894906D02*
X3900000D01*
X3544711Y1660000D02*
X3550000D01*
X3570000D02*
X3575094D01*
X3534711Y1790000D02*
X3540000D01*
X3560000D02*
X3565094D01*
X3840000Y1280000D02*
Y1285289D01*
Y1254906D02*
Y1260000D01*
X3220000Y1334711D02*
Y1340000D01*
Y1360000D02*
Y1365094D01*
X4060000Y1290000D02*
Y1295289D01*
Y1264906D02*
Y1270000D01*
X3280000Y1090000D02*
X3285289D01*
X3254906D02*
X3260000D01*
X3254711Y1190000D02*
X3260000D01*
X3280000D02*
X3285094D01*
X5480000Y2210000D02*
X5485289D01*
X5454906D02*
X5460000D01*
X4380000Y2820000D02*
X4385289D01*
X4354906D02*
X4360000D01*
X4940000Y3290000D02*
Y3295289D01*
Y3264906D02*
Y3270000D01*
X7050000Y4280000D02*
X7055289D01*
X7024906D02*
X7030000D01*
X6754711Y3510000D02*
X6760000D01*
X6780000D02*
X6785094D01*
X7120000Y2750000D02*
Y2755289D01*
Y2724906D02*
Y2730000D01*
X7150000Y1620000D02*
Y1625289D01*
Y1594906D02*
Y1600000D01*
X6810000Y3870000D02*
Y3875289D01*
Y3844906D02*
Y3850000D01*
X6824711Y690000D02*
X6830000D01*
X6850000D02*
X6855094D01*
X7780000Y3340000D02*
Y3345289D01*
Y3314906D02*
Y3320000D01*
X6340000Y2194711D02*
Y2200000D01*
Y2220000D02*
Y2225094D01*
Y1384711D02*
Y1390000D01*
Y1410000D02*
Y1415094D01*
X6540000Y1410000D02*
Y1415289D01*
Y1384906D02*
Y1390000D01*
X6540000Y2220000D02*
Y2225289D01*
Y2194906D02*
Y2200000D01*
X5950000Y2730000D02*
X5955289D01*
X5924906D02*
X5930000D01*
X5950000Y2830000D02*
X5955289D01*
X5924906D02*
X5930000D01*
X4950000Y2840000D02*
Y2845289D01*
Y2814906D02*
Y2820000D01*
X5050000Y2840000D02*
Y2845289D01*
Y2814906D02*
Y2820000D01*
X5950000Y3070000D02*
X5955289D01*
X5924906D02*
X5930000D01*
X5950000Y3974711D02*
Y3980000D01*
Y4000000D02*
Y4005094D01*
X5310000Y3754711D02*
Y3760000D01*
Y3780000D02*
Y3785094D01*
X5410000Y3754711D02*
Y3760000D01*
Y3780000D02*
Y3785094D01*
X5220000Y3644711D02*
Y3650000D01*
Y3670000D02*
Y3675093D01*
X5130000Y3670000D02*
Y3675289D01*
Y3644906D02*
Y3650000D01*
X5030000Y3644711D02*
Y3650000D01*
Y3670000D02*
Y3675094D01*
X5060000Y3510000D02*
X5065289D01*
X5034906D02*
X5040000D01*
X5250000Y3994711D02*
Y4000000D01*
Y4020000D02*
Y4025094D01*
D119*
X8330000Y4730000D02*
Y4829967D01*
X8379984Y4879951D01*
X8429967Y4829967D01*
Y4730000D01*
Y4804976D01*
X8330000D01*
Y729951D02*
Y580000D01*
X8404976D01*
X8429967Y604992D01*
Y629984D01*
X8404976Y654976D01*
X8330000D01*
X8404976D01*
X8429967Y679967D01*
Y704959D01*
X8404976Y729951D01*
X8330000D01*
%TF.MD5,90a49758ab4f02a0ab9c0431ab5098cc*%
M02*
