%TF.GenerationSoftware,Altium Limited,Altium Designer,21.2.2 (38)*%
G04 Layer_Color=255*
%FSLAX45Y45*%
%MOMM*%
%TF.SameCoordinates,D1C1B47B-FFDC-44FD-B647-F1046EBF8E97*%
%TF.FilePolarity,Positive*%
%TF.FileFunction,Pads,Top*%
%TF.Part,Single*%
G01*
G75*
%TA.AperFunction,SMDPad,CuDef*%
%ADD11R,0.80000X0.60000*%
G04:AMPARAMS|DCode=12|XSize=0.6mm|YSize=0.8mm|CornerRadius=0.15mm|HoleSize=0mm|Usage=FLASHONLY|Rotation=270.000|XOffset=0mm|YOffset=0mm|HoleType=Round|Shape=RoundedRectangle|*
%AMROUNDEDRECTD12*
21,1,0.60000,0.50000,0,0,270.0*
21,1,0.30000,0.80000,0,0,270.0*
1,1,0.30000,-0.25000,-0.15000*
1,1,0.30000,-0.25000,0.15000*
1,1,0.30000,0.25000,0.15000*
1,1,0.30000,0.25000,-0.15000*
%
%ADD12ROUNDEDRECTD12*%
G04:AMPARAMS|DCode=13|XSize=0.5mm|YSize=0.5mm|CornerRadius=0.125mm|HoleSize=0mm|Usage=FLASHONLY|Rotation=270.000|XOffset=0mm|YOffset=0mm|HoleType=Round|Shape=RoundedRectangle|*
%AMROUNDEDRECTD13*
21,1,0.50000,0.25000,0,0,270.0*
21,1,0.25000,0.50000,0,0,270.0*
1,1,0.25000,-0.12500,-0.12500*
1,1,0.25000,-0.12500,0.12500*
1,1,0.25000,0.12500,0.12500*
1,1,0.25000,0.12500,-0.12500*
%
%ADD13ROUNDEDRECTD13*%
%ADD14R,1.15000X0.35000*%
G04:AMPARAMS|DCode=15|XSize=0.35mm|YSize=1.15mm|CornerRadius=0.0875mm|HoleSize=0mm|Usage=FLASHONLY|Rotation=90.000|XOffset=0mm|YOffset=0mm|HoleType=Round|Shape=RoundedRectangle|*
%AMROUNDEDRECTD15*
21,1,0.35000,0.97500,0,0,90.0*
21,1,0.17500,1.15000,0,0,90.0*
1,1,0.17500,0.48750,0.08750*
1,1,0.17500,0.48750,-0.08750*
1,1,0.17500,-0.48750,-0.08750*
1,1,0.17500,-0.48750,0.08750*
%
%ADD15ROUNDEDRECTD15*%
%ADD16R,0.70000X0.25000*%
G04:AMPARAMS|DCode=17|XSize=0.25mm|YSize=0.7mm|CornerRadius=0.0625mm|HoleSize=0mm|Usage=FLASHONLY|Rotation=90.000|XOffset=0mm|YOffset=0mm|HoleType=Round|Shape=RoundedRectangle|*
%AMROUNDEDRECTD17*
21,1,0.25000,0.57500,0,0,90.0*
21,1,0.12500,0.70000,0,0,90.0*
1,1,0.12500,0.28750,0.06250*
1,1,0.12500,0.28750,-0.06250*
1,1,0.12500,-0.28750,-0.06250*
1,1,0.12500,-0.28750,0.06250*
%
%ADD17ROUNDEDRECTD17*%
G04:AMPARAMS|DCode=18|XSize=2.5mm|YSize=1.7mm|CornerRadius=0.17mm|HoleSize=0mm|Usage=FLASHONLY|Rotation=90.000|XOffset=0mm|YOffset=0mm|HoleType=Round|Shape=RoundedRectangle|*
%AMROUNDEDRECTD18*
21,1,2.50000,1.36000,0,0,90.0*
21,1,2.16000,1.70000,0,0,90.0*
1,1,0.34000,0.68000,1.08000*
1,1,0.34000,0.68000,-1.08000*
1,1,0.34000,-0.68000,-1.08000*
1,1,0.34000,-0.68000,1.08000*
%
%ADD18ROUNDEDRECTD18*%
G04:AMPARAMS|DCode=19|XSize=0.35mm|YSize=0.7mm|CornerRadius=0.0875mm|HoleSize=0mm|Usage=FLASHONLY|Rotation=180.000|XOffset=0mm|YOffset=0mm|HoleType=Round|Shape=RoundedRectangle|*
%AMROUNDEDRECTD19*
21,1,0.35000,0.52501,0,0,180.0*
21,1,0.17500,0.70000,0,0,180.0*
1,1,0.17500,-0.08750,0.26250*
1,1,0.17500,0.08750,0.26250*
1,1,0.17500,0.08750,-0.26250*
1,1,0.17500,-0.08750,-0.26250*
%
%ADD19ROUNDEDRECTD19*%
%ADD20R,0.35000X0.70000*%
G04:AMPARAMS|DCode=21|XSize=0.5mm|YSize=0.5mm|CornerRadius=0.125mm|HoleSize=0mm|Usage=FLASHONLY|Rotation=180.000|XOffset=0mm|YOffset=0mm|HoleType=Round|Shape=RoundedRectangle|*
%AMROUNDEDRECTD21*
21,1,0.50000,0.25000,0,0,180.0*
21,1,0.25000,0.50000,0,0,180.0*
1,1,0.25000,-0.12500,0.12500*
1,1,0.25000,0.12500,0.12500*
1,1,0.25000,0.12500,-0.12500*
1,1,0.25000,-0.12500,-0.12500*
%
%ADD21ROUNDEDRECTD21*%
%ADD22R,0.27000X0.65000*%
G04:AMPARAMS|DCode=23|XSize=0.27mm|YSize=0.65mm|CornerRadius=0.0675mm|HoleSize=0mm|Usage=FLASHONLY|Rotation=0.000|XOffset=0mm|YOffset=0mm|HoleType=Round|Shape=RoundedRectangle|*
%AMROUNDEDRECTD23*
21,1,0.27000,0.51501,0,0,0.0*
21,1,0.13500,0.65000,0,0,0.0*
1,1,0.13500,0.06750,-0.25750*
1,1,0.13500,-0.06750,-0.25750*
1,1,0.13500,-0.06750,0.25750*
1,1,0.13500,0.06750,0.25750*
%
%ADD23ROUNDEDRECTD23*%
G04:AMPARAMS|DCode=24|XSize=0.8mm|YSize=1mm|CornerRadius=0.2mm|HoleSize=0mm|Usage=FLASHONLY|Rotation=90.000|XOffset=0mm|YOffset=0mm|HoleType=Round|Shape=RoundedRectangle|*
%AMROUNDEDRECTD24*
21,1,0.80000,0.60000,0,0,90.0*
21,1,0.40000,1.00000,0,0,90.0*
1,1,0.40000,0.30000,0.20000*
1,1,0.40000,0.30000,-0.20000*
1,1,0.40000,-0.30000,-0.20000*
1,1,0.40000,-0.30000,0.20000*
%
%ADD24ROUNDEDRECTD24*%
%ADD25C,1.00000*%
%ADD26O,0.30000X1.70000*%
%ADD27R,0.70000X0.24000*%
G04:AMPARAMS|DCode=28|XSize=0.8mm|YSize=0.8mm|CornerRadius=0.2mm|HoleSize=0mm|Usage=FLASHONLY|Rotation=90.000|XOffset=0mm|YOffset=0mm|HoleType=Round|Shape=RoundedRectangle|*
%AMROUNDEDRECTD28*
21,1,0.80000,0.40000,0,0,90.0*
21,1,0.40000,0.80000,0,0,90.0*
1,1,0.40000,0.20000,0.20000*
1,1,0.40000,0.20000,-0.20000*
1,1,0.40000,-0.20000,-0.20000*
1,1,0.40000,-0.20000,0.20000*
%
%ADD28ROUNDEDRECTD28*%
G04:AMPARAMS|DCode=29|XSize=0.55mm|YSize=0.9mm|CornerRadius=0.1375mm|HoleSize=0mm|Usage=FLASHONLY|Rotation=90.000|XOffset=0mm|YOffset=0mm|HoleType=Round|Shape=RoundedRectangle|*
%AMROUNDEDRECTD29*
21,1,0.55000,0.62500,0,0,90.0*
21,1,0.27500,0.90000,0,0,90.0*
1,1,0.27500,0.31250,0.13750*
1,1,0.27500,0.31250,-0.13750*
1,1,0.27500,-0.31250,-0.13750*
1,1,0.27500,-0.31250,0.13750*
%
%ADD29ROUNDEDRECTD29*%
%ADD30R,0.90000X0.55000*%
G04:AMPARAMS|DCode=31|XSize=0.35mm|YSize=1.2mm|CornerRadius=0.0875mm|HoleSize=0mm|Usage=FLASHONLY|Rotation=90.000|XOffset=0mm|YOffset=0mm|HoleType=Round|Shape=RoundedRectangle|*
%AMROUNDEDRECTD31*
21,1,0.35000,1.02500,0,0,90.0*
21,1,0.17500,1.20000,0,0,90.0*
1,1,0.17500,0.51250,0.08750*
1,1,0.17500,0.51250,-0.08750*
1,1,0.17500,-0.51250,-0.08750*
1,1,0.17500,-0.51250,0.08750*
%
%ADD31ROUNDEDRECTD31*%
%ADD32R,1.20000X0.35000*%
G04:AMPARAMS|DCode=33|XSize=1.4mm|YSize=1.3mm|CornerRadius=0.325mm|HoleSize=0mm|Usage=FLASHONLY|Rotation=90.000|XOffset=0mm|YOffset=0mm|HoleType=Round|Shape=RoundedRectangle|*
%AMROUNDEDRECTD33*
21,1,1.40000,0.65000,0,0,90.0*
21,1,0.75000,1.30000,0,0,90.0*
1,1,0.65000,0.32500,0.37500*
1,1,0.65000,0.32500,-0.37500*
1,1,0.65000,-0.32500,-0.37500*
1,1,0.65000,-0.32500,0.37500*
%
%ADD33ROUNDEDRECTD33*%
%ADD34R,0.85000X0.25000*%
G04:AMPARAMS|DCode=35|XSize=0.25mm|YSize=0.85mm|CornerRadius=0.0625mm|HoleSize=0mm|Usage=FLASHONLY|Rotation=90.000|XOffset=0mm|YOffset=0mm|HoleType=Round|Shape=RoundedRectangle|*
%AMROUNDEDRECTD35*
21,1,0.25000,0.72500,0,0,90.0*
21,1,0.12500,0.85000,0,0,90.0*
1,1,0.12500,0.36250,0.06250*
1,1,0.12500,0.36250,-0.06250*
1,1,0.12500,-0.36250,-0.06250*
1,1,0.12500,-0.36250,0.06250*
%
%ADD35ROUNDEDRECTD35*%
G04:AMPARAMS|DCode=36|XSize=2.55mm|YSize=1.1mm|CornerRadius=0.275mm|HoleSize=0mm|Usage=FLASHONLY|Rotation=90.000|XOffset=0mm|YOffset=0mm|HoleType=Round|Shape=RoundedRectangle|*
%AMROUNDEDRECTD36*
21,1,2.55000,0.55000,0,0,90.0*
21,1,2.00000,1.10000,0,0,90.0*
1,1,0.55000,0.27500,1.00000*
1,1,0.55000,0.27500,-1.00000*
1,1,0.55000,-0.27500,-1.00000*
1,1,0.55000,-0.27500,1.00000*
%
%ADD36ROUNDEDRECTD36*%
G04:AMPARAMS|DCode=37|XSize=0.55mm|YSize=0.9mm|CornerRadius=0.1375mm|HoleSize=0mm|Usage=FLASHONLY|Rotation=0.000|XOffset=0mm|YOffset=0mm|HoleType=Round|Shape=RoundedRectangle|*
%AMROUNDEDRECTD37*
21,1,0.55000,0.62500,0,0,0.0*
21,1,0.27500,0.90000,0,0,0.0*
1,1,0.27500,0.13750,-0.31250*
1,1,0.27500,-0.13750,-0.31250*
1,1,0.27500,-0.13750,0.31250*
1,1,0.27500,0.13750,0.31250*
%
%ADD37ROUNDEDRECTD37*%
%ADD38R,0.55000X0.90000*%
G04:AMPARAMS|DCode=39|XSize=0.35mm|YSize=1.15mm|CornerRadius=0.0875mm|HoleSize=0mm|Usage=FLASHONLY|Rotation=180.000|XOffset=0mm|YOffset=0mm|HoleType=Round|Shape=RoundedRectangle|*
%AMROUNDEDRECTD39*
21,1,0.35000,0.97500,0,0,180.0*
21,1,0.17500,1.15000,0,0,180.0*
1,1,0.17500,-0.08750,0.48750*
1,1,0.17500,0.08750,0.48750*
1,1,0.17500,0.08750,-0.48750*
1,1,0.17500,-0.08750,-0.48750*
%
%ADD39ROUNDEDRECTD39*%
%ADD40R,0.35000X1.15000*%
G04:AMPARAMS|DCode=41|XSize=1mm|YSize=3mm|CornerRadius=0.25mm|HoleSize=0mm|Usage=FLASHONLY|Rotation=0.000|XOffset=0mm|YOffset=0mm|HoleType=Round|Shape=RoundedRectangle|*
%AMROUNDEDRECTD41*
21,1,1.00000,2.50000,0,0,0.0*
21,1,0.50000,3.00000,0,0,0.0*
1,1,0.50000,0.25000,-1.25000*
1,1,0.50000,-0.25000,-1.25000*
1,1,0.50000,-0.25000,1.25000*
1,1,0.50000,0.25000,1.25000*
%
%ADD41ROUNDEDRECTD41*%
G04:AMPARAMS|DCode=42|XSize=0.25mm|YSize=0.7mm|CornerRadius=0.0625mm|HoleSize=0mm|Usage=FLASHONLY|Rotation=0.000|XOffset=0mm|YOffset=0mm|HoleType=Round|Shape=RoundedRectangle|*
%AMROUNDEDRECTD42*
21,1,0.25000,0.57500,0,0,0.0*
21,1,0.12500,0.70000,0,0,0.0*
1,1,0.12500,0.06250,-0.28750*
1,1,0.12500,-0.06250,-0.28750*
1,1,0.12500,-0.06250,0.28750*
1,1,0.12500,0.06250,0.28750*
%
%ADD42ROUNDEDRECTD42*%
%ADD43R,0.25000X0.85000*%
G04:AMPARAMS|DCode=44|XSize=0.25mm|YSize=0.85mm|CornerRadius=0.0625mm|HoleSize=0mm|Usage=FLASHONLY|Rotation=0.000|XOffset=0mm|YOffset=0mm|HoleType=Round|Shape=RoundedRectangle|*
%AMROUNDEDRECTD44*
21,1,0.25000,0.72500,0,0,0.0*
21,1,0.12500,0.85000,0,0,0.0*
1,1,0.12500,0.06250,-0.36250*
1,1,0.12500,-0.06250,-0.36250*
1,1,0.12500,-0.06250,0.36250*
1,1,0.12500,0.06250,0.36250*
%
%ADD44ROUNDEDRECTD44*%
G04:AMPARAMS|DCode=45|XSize=2.55mm|YSize=1.1mm|CornerRadius=0.275mm|HoleSize=0mm|Usage=FLASHONLY|Rotation=0.000|XOffset=0mm|YOffset=0mm|HoleType=Round|Shape=RoundedRectangle|*
%AMROUNDEDRECTD45*
21,1,2.55000,0.55000,0,0,0.0*
21,1,2.00000,1.10000,0,0,0.0*
1,1,0.55000,1.00000,-0.27500*
1,1,0.55000,-1.00000,-0.27500*
1,1,0.55000,-1.00000,0.27500*
1,1,0.55000,1.00000,0.27500*
%
%ADD45ROUNDEDRECTD45*%
G04:AMPARAMS|DCode=46|XSize=0.8mm|YSize=1mm|CornerRadius=0.2mm|HoleSize=0mm|Usage=FLASHONLY|Rotation=180.000|XOffset=0mm|YOffset=0mm|HoleType=Round|Shape=RoundedRectangle|*
%AMROUNDEDRECTD46*
21,1,0.80000,0.60000,0,0,180.0*
21,1,0.40000,1.00000,0,0,180.0*
1,1,0.40000,-0.20000,0.30000*
1,1,0.40000,0.20000,0.30000*
1,1,0.40000,0.20000,-0.30000*
1,1,0.40000,-0.20000,-0.30000*
%
%ADD46ROUNDEDRECTD46*%
G04:AMPARAMS|DCode=47|XSize=0.6mm|YSize=0.7mm|CornerRadius=0.15mm|HoleSize=0mm|Usage=FLASHONLY|Rotation=0.000|XOffset=0mm|YOffset=0mm|HoleType=Round|Shape=RoundedRectangle|*
%AMROUNDEDRECTD47*
21,1,0.60000,0.40000,0,0,0.0*
21,1,0.30000,0.70000,0,0,0.0*
1,1,0.30000,0.15000,-0.20000*
1,1,0.30000,-0.15000,-0.20000*
1,1,0.30000,-0.15000,0.20000*
1,1,0.30000,0.15000,0.20000*
%
%ADD47ROUNDEDRECTD47*%
%ADD48R,0.24000X0.70000*%
%ADD49O,1.70000X0.30000*%
%ADD50R,2.20000X0.70000*%
G04:AMPARAMS|DCode=51|XSize=2.2mm|YSize=0.7mm|CornerRadius=0.175mm|HoleSize=0mm|Usage=FLASHONLY|Rotation=180.000|XOffset=0mm|YOffset=0mm|HoleType=Round|Shape=RoundedRectangle|*
%AMROUNDEDRECTD51*
21,1,2.20000,0.35000,0,0,180.0*
21,1,1.85000,0.70000,0,0,180.0*
1,1,0.35000,-0.92500,0.17500*
1,1,0.35000,0.92500,0.17500*
1,1,0.35000,0.92500,-0.17500*
1,1,0.35000,-0.92500,-0.17500*
%
%ADD51ROUNDEDRECTD51*%
G04:AMPARAMS|DCode=52|XSize=2mm|YSize=1.1mm|CornerRadius=0.275mm|HoleSize=0mm|Usage=FLASHONLY|Rotation=180.000|XOffset=0mm|YOffset=0mm|HoleType=Round|Shape=RoundedRectangle|*
%AMROUNDEDRECTD52*
21,1,2.00000,0.55000,0,0,180.0*
21,1,1.45000,1.10000,0,0,180.0*
1,1,0.55000,-0.72500,0.27500*
1,1,0.55000,0.72500,0.27500*
1,1,0.55000,0.72500,-0.27500*
1,1,0.55000,-0.72500,-0.27500*
%
%ADD52ROUNDEDRECTD52*%
G04:AMPARAMS|DCode=53|XSize=3mm|YSize=1mm|CornerRadius=0.25mm|HoleSize=0mm|Usage=FLASHONLY|Rotation=90.000|XOffset=0mm|YOffset=0mm|HoleType=Round|Shape=RoundedRectangle|*
%AMROUNDEDRECTD53*
21,1,3.00000,0.50000,0,0,90.0*
21,1,2.50000,1.00000,0,0,90.0*
1,1,0.50000,0.25000,1.25000*
1,1,0.50000,0.25000,-1.25000*
1,1,0.50000,-0.25000,-1.25000*
1,1,0.50000,-0.25000,1.25000*
%
%ADD53ROUNDEDRECTD53*%
G04:AMPARAMS|DCode=54|XSize=3.8mm|YSize=1mm|CornerRadius=0.25mm|HoleSize=0mm|Usage=FLASHONLY|Rotation=90.000|XOffset=0mm|YOffset=0mm|HoleType=Round|Shape=RoundedRectangle|*
%AMROUNDEDRECTD54*
21,1,3.80000,0.50000,0,0,90.0*
21,1,3.30000,1.00000,0,0,90.0*
1,1,0.50000,0.25000,1.65000*
1,1,0.50000,0.25000,-1.65000*
1,1,0.50000,-0.25000,-1.65000*
1,1,0.50000,-0.25000,1.65000*
%
%ADD54ROUNDEDRECTD54*%
G04:AMPARAMS|DCode=55|XSize=1.6mm|YSize=1mm|CornerRadius=0.25mm|HoleSize=0mm|Usage=FLASHONLY|Rotation=180.000|XOffset=0mm|YOffset=0mm|HoleType=Round|Shape=RoundedRectangle|*
%AMROUNDEDRECTD55*
21,1,1.60000,0.50000,0,0,180.0*
21,1,1.10000,1.00000,0,0,180.0*
1,1,0.50000,-0.55000,0.25000*
1,1,0.50000,0.55000,0.25000*
1,1,0.50000,0.55000,-0.25000*
1,1,0.50000,-0.55000,-0.25000*
%
%ADD55ROUNDEDRECTD55*%
G04:AMPARAMS|DCode=56|XSize=3mm|YSize=1mm|CornerRadius=0.25mm|HoleSize=0mm|Usage=FLASHONLY|Rotation=0.000|XOffset=0mm|YOffset=0mm|HoleType=Round|Shape=RoundedRectangle|*
%AMROUNDEDRECTD56*
21,1,3.00000,0.50000,0,0,0.0*
21,1,2.50000,1.00000,0,0,0.0*
1,1,0.50000,1.25000,-0.25000*
1,1,0.50000,-1.25000,-0.25000*
1,1,0.50000,-1.25000,0.25000*
1,1,0.50000,1.25000,0.25000*
%
%ADD56ROUNDEDRECTD56*%
G04:AMPARAMS|DCode=57|XSize=3.8mm|YSize=1mm|CornerRadius=0.25mm|HoleSize=0mm|Usage=FLASHONLY|Rotation=0.000|XOffset=0mm|YOffset=0mm|HoleType=Round|Shape=RoundedRectangle|*
%AMROUNDEDRECTD57*
21,1,3.80000,0.50000,0,0,0.0*
21,1,3.30000,1.00000,0,0,0.0*
1,1,0.50000,1.65000,-0.25000*
1,1,0.50000,-1.65000,-0.25000*
1,1,0.50000,-1.65000,0.25000*
1,1,0.50000,1.65000,0.25000*
%
%ADD57ROUNDEDRECTD57*%
G04:AMPARAMS|DCode=58|XSize=1.6mm|YSize=1mm|CornerRadius=0.25mm|HoleSize=0mm|Usage=FLASHONLY|Rotation=90.000|XOffset=0mm|YOffset=0mm|HoleType=Round|Shape=RoundedRectangle|*
%AMROUNDEDRECTD58*
21,1,1.60000,0.50000,0,0,90.0*
21,1,1.10000,1.00000,0,0,90.0*
1,1,0.50000,0.25000,0.55000*
1,1,0.50000,0.25000,-0.55000*
1,1,0.50000,-0.25000,-0.55000*
1,1,0.50000,-0.25000,0.55000*
%
%ADD58ROUNDEDRECTD58*%
G04:AMPARAMS|DCode=59|XSize=2.8mm|YSize=1.3mm|CornerRadius=0.325mm|HoleSize=0mm|Usage=FLASHONLY|Rotation=90.000|XOffset=0mm|YOffset=0mm|HoleType=Round|Shape=RoundedRectangle|*
%AMROUNDEDRECTD59*
21,1,2.80000,0.65000,0,0,90.0*
21,1,2.15000,1.30000,0,0,90.0*
1,1,0.65000,0.32500,1.07500*
1,1,0.65000,0.32500,-1.07500*
1,1,0.65000,-0.32500,-1.07500*
1,1,0.65000,-0.32500,1.07500*
%
%ADD59ROUNDEDRECTD59*%
G04:AMPARAMS|DCode=60|XSize=0.9mm|YSize=0.8mm|CornerRadius=0.2mm|HoleSize=0mm|Usage=FLASHONLY|Rotation=180.000|XOffset=0mm|YOffset=0mm|HoleType=Round|Shape=RoundedRectangle|*
%AMROUNDEDRECTD60*
21,1,0.90000,0.40000,0,0,180.0*
21,1,0.50000,0.80000,0,0,180.0*
1,1,0.40000,-0.25000,0.20000*
1,1,0.40000,0.25000,0.20000*
1,1,0.40000,0.25000,-0.20000*
1,1,0.40000,-0.25000,-0.20000*
%
%ADD60ROUNDEDRECTD60*%
G04:AMPARAMS|DCode=61|XSize=2.8mm|YSize=1.3mm|CornerRadius=0.325mm|HoleSize=0mm|Usage=FLASHONLY|Rotation=180.000|XOffset=0mm|YOffset=0mm|HoleType=Round|Shape=RoundedRectangle|*
%AMROUNDEDRECTD61*
21,1,2.80000,0.65000,0,0,180.0*
21,1,2.15000,1.30000,0,0,180.0*
1,1,0.65000,-1.07500,0.32500*
1,1,0.65000,1.07500,0.32500*
1,1,0.65000,1.07500,-0.32500*
1,1,0.65000,-1.07500,-0.32500*
%
%ADD61ROUNDEDRECTD61*%
%ADD62R,0.70000X0.50000*%
G04:AMPARAMS|DCode=63|XSize=0.5mm|YSize=0.7mm|CornerRadius=0.125mm|HoleSize=0mm|Usage=FLASHONLY|Rotation=90.000|XOffset=0mm|YOffset=0mm|HoleType=Round|Shape=RoundedRectangle|*
%AMROUNDEDRECTD63*
21,1,0.50000,0.45000,0,0,90.0*
21,1,0.25000,0.70000,0,0,90.0*
1,1,0.25000,0.22500,0.12500*
1,1,0.25000,0.22500,-0.12500*
1,1,0.25000,-0.22500,-0.12500*
1,1,0.25000,-0.22500,0.12500*
%
%ADD63ROUNDEDRECTD63*%
%ADD64R,0.80000X0.80000*%
%ADD65R,0.50000X0.70000*%
G04:AMPARAMS|DCode=66|XSize=0.5mm|YSize=0.7mm|CornerRadius=0.125mm|HoleSize=0mm|Usage=FLASHONLY|Rotation=0.000|XOffset=0mm|YOffset=0mm|HoleType=Round|Shape=RoundedRectangle|*
%AMROUNDEDRECTD66*
21,1,0.50000,0.45000,0,0,0.0*
21,1,0.25000,0.70000,0,0,0.0*
1,1,0.25000,0.12500,-0.22500*
1,1,0.25000,-0.12500,-0.22500*
1,1,0.25000,-0.12500,0.22500*
1,1,0.25000,0.12500,0.22500*
%
%ADD66ROUNDEDRECTD66*%
G04:AMPARAMS|DCode=67|XSize=1.1mm|YSize=1.1mm|CornerRadius=0.275mm|HoleSize=0mm|Usage=FLASHONLY|Rotation=180.000|XOffset=0mm|YOffset=0mm|HoleType=Round|Shape=RoundedRectangle|*
%AMROUNDEDRECTD67*
21,1,1.10000,0.55000,0,0,180.0*
21,1,0.55000,1.10000,0,0,180.0*
1,1,0.55000,-0.27500,0.27500*
1,1,0.55000,0.27500,0.27500*
1,1,0.55000,0.27500,-0.27500*
1,1,0.55000,-0.27500,-0.27500*
%
%ADD67ROUNDEDRECTD67*%
%ADD68R,1.10000X1.10000*%
G04:AMPARAMS|DCode=69|XSize=1.65mm|YSize=1.25mm|CornerRadius=0.3125mm|HoleSize=0mm|Usage=FLASHONLY|Rotation=270.000|XOffset=0mm|YOffset=0mm|HoleType=Round|Shape=RoundedRectangle|*
%AMROUNDEDRECTD69*
21,1,1.65000,0.62500,0,0,270.0*
21,1,1.02500,1.25000,0,0,270.0*
1,1,0.62500,-0.31250,-0.51250*
1,1,0.62500,-0.31250,0.51250*
1,1,0.62500,0.31250,0.51250*
1,1,0.62500,0.31250,-0.51250*
%
%ADD69ROUNDEDRECTD69*%
G04:AMPARAMS|DCode=70|XSize=1.65mm|YSize=1.25mm|CornerRadius=0.3125mm|HoleSize=0mm|Usage=FLASHONLY|Rotation=0.000|XOffset=0mm|YOffset=0mm|HoleType=Round|Shape=RoundedRectangle|*
%AMROUNDEDRECTD70*
21,1,1.65000,0.62500,0,0,0.0*
21,1,1.02500,1.25000,0,0,0.0*
1,1,0.62500,0.51250,-0.31250*
1,1,0.62500,-0.51250,-0.31250*
1,1,0.62500,-0.51250,0.31250*
1,1,0.62500,0.51250,0.31250*
%
%ADD70ROUNDEDRECTD70*%
G04:AMPARAMS|DCode=71|XSize=0.8mm|YSize=0.8mm|CornerRadius=0.2mm|HoleSize=0mm|Usage=FLASHONLY|Rotation=180.000|XOffset=0mm|YOffset=0mm|HoleType=Round|Shape=RoundedRectangle|*
%AMROUNDEDRECTD71*
21,1,0.80000,0.40000,0,0,180.0*
21,1,0.40000,0.80000,0,0,180.0*
1,1,0.40000,-0.20000,0.20000*
1,1,0.40000,0.20000,0.20000*
1,1,0.40000,0.20000,-0.20000*
1,1,0.40000,-0.20000,-0.20000*
%
%ADD71ROUNDEDRECTD71*%
%TA.AperFunction,ComponentPad*%
G04:AMPARAMS|DCode=83|XSize=1.7mm|YSize=2.1mm|CornerRadius=0mm|HoleSize=0mm|Usage=FLASHONLY|Rotation=0.000|XOffset=0mm|YOffset=0mm|HoleType=Round|Shape=Octagon|*
%AMOCTAGOND83*
4,1,8,-0.42500,1.05000,0.42500,1.05000,0.85000,0.62500,0.85000,-0.62500,0.42500,-1.05000,-0.42500,-1.05000,-0.85000,-0.62500,-0.85000,0.62500,-0.42500,1.05000,0.0*
%
%ADD83OCTAGOND83*%

G04:AMPARAMS|DCode=84|XSize=1.7mm|YSize=2.1mm|CornerRadius=0.425mm|HoleSize=0mm|Usage=FLASHONLY|Rotation=0.000|XOffset=0mm|YOffset=0mm|HoleType=Round|Shape=RoundedRectangle|*
%AMROUNDEDRECTD84*
21,1,1.70000,1.25001,0,0,0.0*
21,1,0.85000,2.10000,0,0,0.0*
1,1,0.85000,0.42500,-0.62500*
1,1,0.85000,-0.42500,-0.62500*
1,1,0.85000,-0.42500,0.62500*
1,1,0.85000,0.42500,0.62500*
%
%ADD84ROUNDEDRECTD84*%
G04:AMPARAMS|DCode=85|XSize=1.7mm|YSize=2.1mm|CornerRadius=0.425mm|HoleSize=0mm|Usage=FLASHONLY|Rotation=270.000|XOffset=0mm|YOffset=0mm|HoleType=Round|Shape=RoundedRectangle|*
%AMROUNDEDRECTD85*
21,1,1.70000,1.25001,0,0,270.0*
21,1,0.85000,2.10000,0,0,270.0*
1,1,0.85000,-0.62500,-0.42500*
1,1,0.85000,-0.62500,0.42500*
1,1,0.85000,0.62500,0.42500*
1,1,0.85000,0.62500,-0.42500*
%
%ADD85ROUNDEDRECTD85*%
G04:AMPARAMS|DCode=86|XSize=1.7mm|YSize=2.1mm|CornerRadius=0mm|HoleSize=0mm|Usage=FLASHONLY|Rotation=270.000|XOffset=0mm|YOffset=0mm|HoleType=Round|Shape=Octagon|*
%AMOCTAGOND86*
4,1,8,1.05000,0.42500,1.05000,-0.42500,0.62500,-0.85000,-0.62500,-0.85000,-1.05000,-0.42500,-1.05000,0.42500,-0.62500,0.85000,0.62500,0.85000,1.05000,0.42500,0.0*
%
%ADD86OCTAGOND86*%

G04:AMPARAMS|DCode=87|XSize=4mm|YSize=3.6mm|CornerRadius=0.54mm|HoleSize=0mm|Usage=FLASHONLY|Rotation=0.000|XOffset=0mm|YOffset=0mm|HoleType=Round|Shape=RoundedRectangle|*
%AMROUNDEDRECTD87*
21,1,4.00000,2.52000,0,0,0.0*
21,1,2.92000,3.60000,0,0,0.0*
1,1,1.08000,1.46000,-1.26000*
1,1,1.08000,-1.46000,-1.26000*
1,1,1.08000,-1.46000,1.26000*
1,1,1.08000,1.46000,1.26000*
%
%ADD87ROUNDEDRECTD87*%
G04:AMPARAMS|DCode=88|XSize=5mm|YSize=5mm|CornerRadius=1mm|HoleSize=0mm|Usage=FLASHONLY|Rotation=0.000|XOffset=0mm|YOffset=0mm|HoleType=Round|Shape=RoundedRectangle|*
%AMROUNDEDRECTD88*
21,1,5.00000,3.00000,0,0,0.0*
21,1,3.00000,5.00000,0,0,0.0*
1,1,2.00000,1.50000,-1.50000*
1,1,2.00000,-1.50000,-1.50000*
1,1,2.00000,-1.50000,1.50000*
1,1,2.00000,1.50000,1.50000*
%
%ADD88ROUNDEDRECTD88*%
G04:AMPARAMS|DCode=89|XSize=2.2mm|YSize=2.2mm|CornerRadius=0.55mm|HoleSize=0mm|Usage=FLASHONLY|Rotation=270.000|XOffset=0mm|YOffset=0mm|HoleType=Round|Shape=RoundedRectangle|*
%AMROUNDEDRECTD89*
21,1,2.20000,1.10000,0,0,270.0*
21,1,1.10000,2.20000,0,0,270.0*
1,1,1.10000,-0.55000,-0.55000*
1,1,1.10000,-0.55000,0.55000*
1,1,1.10000,0.55000,0.55000*
1,1,1.10000,0.55000,-0.55000*
%
%ADD89ROUNDEDRECTD89*%
G04:AMPARAMS|DCode=90|XSize=2.2mm|YSize=2.2mm|CornerRadius=0mm|HoleSize=0mm|Usage=FLASHONLY|Rotation=270.000|XOffset=0mm|YOffset=0mm|HoleType=Round|Shape=Octagon|*
%AMOCTAGOND90*
4,1,8,-0.55000,-1.10000,0.55000,-1.10000,1.10000,-0.55000,1.10000,0.55000,0.55000,1.10000,-0.55000,1.10000,-1.10000,0.55000,-1.10000,-0.55000,-0.55000,-1.10000,0.0*
%
%ADD90OCTAGOND90*%

D11*
X3237500Y3435000D02*
D03*
X6967500Y2375000D02*
D03*
D12*
X3237500Y3530000D02*
D03*
Y3625000D02*
D03*
X2982500D02*
D03*
Y3435000D02*
D03*
X6712500Y2375000D02*
D03*
Y2565000D02*
D03*
X6967500D02*
D03*
Y2470000D02*
D03*
D13*
X3610000Y3530000D02*
D03*
X3510000D02*
D03*
X5820000Y3820000D02*
D03*
X5720000D02*
D03*
X5620000D02*
D03*
X6790000Y2250000D02*
D03*
X6690000D02*
D03*
Y2150000D02*
D03*
X6790000D02*
D03*
X6890000Y2250000D02*
D03*
X6990000D02*
D03*
X6890000Y2150000D02*
D03*
X6990000D02*
D03*
X3050000Y2700000D02*
D03*
X2950000D02*
D03*
X3170000Y3800000D02*
D03*
X3270000D02*
D03*
X3850000Y2700000D02*
D03*
X3750000D02*
D03*
X6070000Y3450000D02*
D03*
X5970000D02*
D03*
X3110000Y2050000D02*
D03*
X3210000D02*
D03*
X6790000Y1550000D02*
D03*
X6890000D02*
D03*
X5040000Y4280000D02*
D03*
X5140000D02*
D03*
X3860000Y1580000D02*
D03*
X3760000D02*
D03*
X3760000Y1480000D02*
D03*
X3860000D02*
D03*
X6790000Y1190000D02*
D03*
X6890000D02*
D03*
X6790000Y790000D02*
D03*
X6890000D02*
D03*
X6790000Y890000D02*
D03*
X6890000D02*
D03*
X6790000Y990000D02*
D03*
X6890000D02*
D03*
X6790000Y1090000D02*
D03*
X6890000D02*
D03*
X6790000Y1650000D02*
D03*
X6890000D02*
D03*
X6790000Y1750000D02*
D03*
X6890000D02*
D03*
X6790000Y1850000D02*
D03*
X6890000D02*
D03*
X6790000Y1950000D02*
D03*
X6890000D02*
D03*
X1920000Y1550000D02*
D03*
X1820000D02*
D03*
X1820000Y1450000D02*
D03*
X1920000D02*
D03*
X5210000Y2230000D02*
D03*
X5310000D02*
D03*
X3660000Y3660000D02*
D03*
X3560000D02*
D03*
X3080000Y4310000D02*
D03*
X2980000D02*
D03*
X2760000Y2400000D02*
D03*
X2860000D02*
D03*
X3370000Y2280000D02*
D03*
X3470000D02*
D03*
X2760000Y2300000D02*
D03*
X2860000D02*
D03*
X2860000Y2200000D02*
D03*
X2760000D02*
D03*
X3660000Y3430000D02*
D03*
X3560000D02*
D03*
X4220000Y3390000D02*
D03*
X4320000D02*
D03*
Y2960000D02*
D03*
X4420000D02*
D03*
X4940000Y3100000D02*
D03*
X5040000D02*
D03*
X4050000Y2700000D02*
D03*
X3950000D02*
D03*
X2880000Y3540000D02*
D03*
X2780000D02*
D03*
X4420000Y2700000D02*
D03*
X4320000D02*
D03*
X6120000Y4240000D02*
D03*
X6220000D02*
D03*
X6320001D02*
D03*
X4930000Y4280000D02*
D03*
X4830000D02*
D03*
X3730000Y2380000D02*
D03*
X3830000D02*
D03*
X6210000Y3860000D02*
D03*
X6310000D02*
D03*
X5090000Y2230000D02*
D03*
X4990000D02*
D03*
X3280000Y4290000D02*
D03*
X3380000D02*
D03*
X3480000D02*
D03*
X3580000D02*
D03*
X3080000Y3790000D02*
D03*
X2980000D02*
D03*
X2780000D02*
D03*
X2880000D02*
D03*
X3080000Y4210000D02*
D03*
X2980000D02*
D03*
X6320000Y3090000D02*
D03*
X6420000D02*
D03*
X6320000Y3190000D02*
D03*
X6420000D02*
D03*
X3470000Y2410000D02*
D03*
X3370000D02*
D03*
X2780000Y3430000D02*
D03*
X2880000D02*
D03*
X4340000Y3560000D02*
D03*
X4240000D02*
D03*
X4340000Y3760000D02*
D03*
X4240000D02*
D03*
X4340000Y3660000D02*
D03*
X4240000D02*
D03*
X3450000Y3630000D02*
D03*
X3350000D02*
D03*
X8190000Y2680000D02*
D03*
X8290000D02*
D03*
X3400000Y3330000D02*
D03*
X3500000D02*
D03*
X3400000Y3230000D02*
D03*
X3500000D02*
D03*
X4420000Y3190000D02*
D03*
X4320000D02*
D03*
X4420000Y3290000D02*
D03*
X4320000D02*
D03*
X3400000Y2960000D02*
D03*
X3500000D02*
D03*
X2880000Y3640000D02*
D03*
X2780000D02*
D03*
X6230000Y3090000D02*
D03*
X6130000D02*
D03*
X6230000Y3190000D02*
D03*
X6130000D02*
D03*
X6790000Y2050000D02*
D03*
X6890000D02*
D03*
X1820000Y1350000D02*
D03*
X1920000D02*
D03*
X8290000Y2780000D02*
D03*
X8190000D02*
D03*
X3960000Y920000D02*
D03*
X3860000D02*
D03*
X3510000Y1660000D02*
D03*
X3610000D02*
D03*
X3500000Y1790000D02*
D03*
X3600000D02*
D03*
X3320000Y1090000D02*
D03*
X3220000D02*
D03*
Y1190000D02*
D03*
X3320000D02*
D03*
X5520000Y2210000D02*
D03*
X5420000D02*
D03*
X4420000Y2820000D02*
D03*
X4320000D02*
D03*
X7090000Y4280000D02*
D03*
X6990000D02*
D03*
X6720000Y3510000D02*
D03*
X6820000D02*
D03*
X6790000Y690000D02*
D03*
X6890000D02*
D03*
X5990000Y2730000D02*
D03*
X5890000D02*
D03*
X5990000Y2830000D02*
D03*
X5890000D02*
D03*
X5990000Y3070000D02*
D03*
X5890000D02*
D03*
X5100000Y3510000D02*
D03*
X5000000D02*
D03*
D14*
X3747500Y2227500D02*
D03*
X3222500Y3902500D02*
D03*
X5007500Y2087500D02*
D03*
X5812500Y3942500D02*
D03*
D15*
X3747500Y2162500D02*
D03*
Y2097500D02*
D03*
Y2032500D02*
D03*
X4172500Y2227500D02*
D03*
Y2162500D02*
D03*
Y2097500D02*
D03*
Y2032500D02*
D03*
X2797500Y4097500D02*
D03*
Y4032500D02*
D03*
Y3967500D02*
D03*
Y3902500D02*
D03*
X3222500Y4097500D02*
D03*
Y4032500D02*
D03*
Y3967500D02*
D03*
X5432500Y1892500D02*
D03*
Y1957500D02*
D03*
Y2022500D02*
D03*
Y2087500D02*
D03*
X5007500Y1892500D02*
D03*
Y1957500D02*
D03*
Y2022500D02*
D03*
X5387500Y4137500D02*
D03*
Y4072500D02*
D03*
Y4007500D02*
D03*
Y3942500D02*
D03*
X5812500Y4137500D02*
D03*
Y4072500D02*
D03*
Y4007500D02*
D03*
D16*
X6915000Y4160000D02*
D03*
X2964999Y2355000D02*
D03*
X3355000Y1520000D02*
D03*
X6915000Y3780000D02*
D03*
X7275000Y1170000D02*
D03*
Y1920000D02*
D03*
Y1550000D02*
D03*
X6275000Y1195000D02*
D03*
X7275000Y2290000D02*
D03*
X6915000Y3400000D02*
D03*
X7275000Y2670000D02*
D03*
X6274999Y2005001D02*
D03*
D17*
X6915000Y4110000D02*
D03*
Y4060000D02*
D03*
Y4010000D02*
D03*
Y3960000D02*
D03*
X7225000Y4160000D02*
D03*
Y4110000D02*
D03*
Y4060000D02*
D03*
Y4010000D02*
D03*
Y3960000D02*
D03*
X3254999Y2205000D02*
D03*
Y2255000D02*
D03*
Y2305000D02*
D03*
Y2355000D02*
D03*
X2964999Y2205000D02*
D03*
Y2255000D02*
D03*
Y2305000D02*
D03*
X3665000Y1320000D02*
D03*
Y1370000D02*
D03*
Y1420000D02*
D03*
Y1470000D02*
D03*
Y1520000D02*
D03*
X3355000Y1320000D02*
D03*
Y1370000D02*
D03*
Y1420000D02*
D03*
Y1470000D02*
D03*
X7225000Y3580000D02*
D03*
Y3630000D02*
D03*
Y3680000D02*
D03*
Y3730000D02*
D03*
Y3780000D02*
D03*
X6915000Y3580000D02*
D03*
Y3630000D02*
D03*
Y3680000D02*
D03*
Y3730000D02*
D03*
X7585000Y970000D02*
D03*
Y1020000D02*
D03*
Y1070000D02*
D03*
Y1120000D02*
D03*
Y1170000D02*
D03*
X7275000Y970000D02*
D03*
Y1020000D02*
D03*
Y1070000D02*
D03*
Y1120000D02*
D03*
X7585000Y1720000D02*
D03*
Y1770000D02*
D03*
Y1820000D02*
D03*
Y1870000D02*
D03*
Y1920000D02*
D03*
X7275000Y1720000D02*
D03*
Y1770000D02*
D03*
Y1820000D02*
D03*
Y1870000D02*
D03*
X7585000Y1350000D02*
D03*
Y1400000D02*
D03*
Y1450000D02*
D03*
Y1500000D02*
D03*
Y1550000D02*
D03*
X7275000Y1350000D02*
D03*
Y1400000D02*
D03*
Y1450000D02*
D03*
Y1500000D02*
D03*
X6525000Y1195000D02*
D03*
Y1145000D02*
D03*
Y1095000D02*
D03*
Y1045000D02*
D03*
Y995000D02*
D03*
Y945000D02*
D03*
Y895000D02*
D03*
Y845000D02*
D03*
X6275000Y845000D02*
D03*
Y895000D02*
D03*
Y945000D02*
D03*
Y995000D02*
D03*
Y1045000D02*
D03*
Y1095000D02*
D03*
Y1145000D02*
D03*
X7585000Y2090000D02*
D03*
Y2140000D02*
D03*
Y2190000D02*
D03*
Y2240000D02*
D03*
Y2290000D02*
D03*
X7275000Y2090000D02*
D03*
Y2140000D02*
D03*
Y2190000D02*
D03*
Y2240000D02*
D03*
X7225000Y3200000D02*
D03*
Y3250000D02*
D03*
Y3300000D02*
D03*
Y3350000D02*
D03*
Y3400000D02*
D03*
X6915000Y3200000D02*
D03*
Y3250000D02*
D03*
Y3300000D02*
D03*
Y3350000D02*
D03*
X7585000Y2470000D02*
D03*
Y2520000D02*
D03*
Y2570000D02*
D03*
Y2620000D02*
D03*
Y2670000D02*
D03*
X7275000Y2470000D02*
D03*
Y2520000D02*
D03*
Y2570000D02*
D03*
Y2620000D02*
D03*
X6525000Y2005000D02*
D03*
Y1955000D02*
D03*
Y1905000D02*
D03*
Y1855000D02*
D03*
Y1805000D02*
D03*
Y1755000D02*
D03*
Y1705000D02*
D03*
Y1655000D02*
D03*
X6274999Y1655000D02*
D03*
Y1705000D02*
D03*
Y1755001D02*
D03*
Y1805000D02*
D03*
Y1855001D02*
D03*
Y1905001D02*
D03*
Y1955000D02*
D03*
D18*
X7070000Y4060000D02*
D03*
X3510000Y1420000D02*
D03*
X7070000Y3680000D02*
D03*
X7430000Y1070000D02*
D03*
Y1820000D02*
D03*
Y1450000D02*
D03*
Y2190000D02*
D03*
X7070000Y3300000D02*
D03*
X7430000Y2570000D02*
D03*
D19*
X7654551Y3179735D02*
D03*
X7719551D02*
D03*
X7784551D02*
D03*
Y2979734D02*
D03*
X7719551D02*
D03*
D20*
X7654551D02*
D03*
D21*
X7820000Y3730000D02*
D03*
Y3830000D02*
D03*
X7160000Y1190000D02*
D03*
Y1290000D02*
D03*
X7150000Y1930000D02*
D03*
Y2030000D02*
D03*
X7120000Y2300000D02*
D03*
Y2400000D02*
D03*
X6440000Y1350000D02*
D03*
Y1450000D02*
D03*
X6240000Y1350000D02*
D03*
Y1450000D02*
D03*
X6440000Y2160000D02*
D03*
Y2260000D02*
D03*
X6240000Y2160000D02*
D03*
Y2260000D02*
D03*
X7430000Y690000D02*
D03*
Y790000D02*
D03*
X7320000Y690000D02*
D03*
Y790000D02*
D03*
X5520000Y700000D02*
D03*
Y800000D02*
D03*
X5410000Y700000D02*
D03*
Y800000D02*
D03*
X5300000Y700000D02*
D03*
Y800000D02*
D03*
X5020000Y700000D02*
D03*
Y800000D02*
D03*
X5360000Y4780000D02*
D03*
Y4680000D02*
D03*
X4880000Y700000D02*
D03*
Y800000D02*
D03*
X4070000Y700000D02*
D03*
Y800000D02*
D03*
X3930000Y800000D02*
D03*
Y700000D02*
D03*
X4000000Y4770000D02*
D03*
Y4670000D02*
D03*
X4130000Y4670000D02*
D03*
Y4770000D02*
D03*
X3640000Y4770000D02*
D03*
Y4670000D02*
D03*
X3770000Y4670000D02*
D03*
Y4770000D02*
D03*
X7440000Y4770000D02*
D03*
Y4670000D02*
D03*
X7550000Y4670000D02*
D03*
Y4770000D02*
D03*
X7200000Y4770000D02*
D03*
Y4670000D02*
D03*
X7310000Y4670000D02*
D03*
Y4770000D02*
D03*
X6960000Y4770000D02*
D03*
Y4670000D02*
D03*
X7070000Y4670000D02*
D03*
Y4770000D02*
D03*
X6720000Y4770000D02*
D03*
Y4670000D02*
D03*
X6830000Y4670000D02*
D03*
Y4770000D02*
D03*
X5470000Y4680000D02*
D03*
Y4780000D02*
D03*
X5700000Y4780000D02*
D03*
Y4680000D02*
D03*
X5250000Y4680000D02*
D03*
Y4780000D02*
D03*
X5740000Y800000D02*
D03*
Y700000D02*
D03*
X5630000Y700000D02*
D03*
Y800000D02*
D03*
X3970000Y1480000D02*
D03*
Y1580000D02*
D03*
X5250000Y4250000D02*
D03*
Y4150000D02*
D03*
X3950000Y1330000D02*
D03*
Y1230000D02*
D03*
X7640000Y4340000D02*
D03*
Y4440000D02*
D03*
X7820000Y4340000D02*
D03*
Y4440000D02*
D03*
X5590000Y4680000D02*
D03*
Y4780000D02*
D03*
X4180000Y800000D02*
D03*
Y700000D02*
D03*
X3820000Y800000D02*
D03*
Y700000D02*
D03*
X5130000Y800000D02*
D03*
Y700000D02*
D03*
X4770000Y800000D02*
D03*
Y700000D02*
D03*
X3870000Y4670000D02*
D03*
Y4770000D02*
D03*
X3540000Y4670000D02*
D03*
Y4770000D02*
D03*
X4230000Y4670000D02*
D03*
Y4770000D02*
D03*
X1860000Y700000D02*
D03*
Y800000D02*
D03*
X2130000Y1980000D02*
D03*
Y1880000D02*
D03*
X3410000Y4770000D02*
D03*
Y4670000D02*
D03*
X6070000Y3660000D02*
D03*
Y3560000D02*
D03*
X2190000Y2080000D02*
D03*
Y2180000D02*
D03*
X5030000Y1230000D02*
D03*
Y1330000D02*
D03*
X2190000Y2380000D02*
D03*
Y2280000D02*
D03*
X5030000Y1030000D02*
D03*
Y1130000D02*
D03*
X2570000Y1850000D02*
D03*
Y1950000D02*
D03*
X5850000Y700000D02*
D03*
Y800000D02*
D03*
X4400000Y3980000D02*
D03*
Y3880000D02*
D03*
X2880000Y4210000D02*
D03*
Y4310000D02*
D03*
X3460000Y3910000D02*
D03*
Y3810000D02*
D03*
X5930000Y4680000D02*
D03*
Y4780000D02*
D03*
X3180000Y4670000D02*
D03*
Y4770000D02*
D03*
X5820000Y4680000D02*
D03*
Y4780000D02*
D03*
X3080000Y4670000D02*
D03*
Y4770000D02*
D03*
X4320000Y700000D02*
D03*
Y800000D02*
D03*
X4430000Y700000D02*
D03*
Y800000D02*
D03*
X3310000Y4670000D02*
D03*
Y4770000D02*
D03*
X4850000Y3710000D02*
D03*
Y3610000D02*
D03*
X3180000Y4310000D02*
D03*
Y4210000D02*
D03*
X7560000Y3380000D02*
D03*
Y3280000D02*
D03*
X6140000Y1350000D02*
D03*
Y1450000D02*
D03*
X7660000Y3380000D02*
D03*
Y3280000D02*
D03*
X6140000Y2160000D02*
D03*
Y2260000D02*
D03*
X4840000Y3130000D02*
D03*
Y3230000D02*
D03*
X5510000Y3820000D02*
D03*
Y3720000D02*
D03*
X2630000Y2380000D02*
D03*
Y2280000D02*
D03*
X4920000Y1560000D02*
D03*
Y1460000D02*
D03*
X2780000Y2810000D02*
D03*
Y2910000D02*
D03*
X5540000Y1070000D02*
D03*
Y1170000D02*
D03*
X5550000Y2040000D02*
D03*
Y1940000D02*
D03*
X4880000Y2030000D02*
D03*
Y1930000D02*
D03*
X2780000Y3000000D02*
D03*
Y3100000D02*
D03*
X2780000Y3290000D02*
D03*
Y3190000D02*
D03*
X4340000Y4670000D02*
D03*
Y4770000D02*
D03*
X4400000Y4210000D02*
D03*
Y4310000D02*
D03*
X3580000Y3830000D02*
D03*
Y3930000D02*
D03*
X2780000Y4310000D02*
D03*
Y4210000D02*
D03*
X3360000Y3910000D02*
D03*
Y3810000D02*
D03*
X7890000Y1080000D02*
D03*
Y980000D02*
D03*
X3350000Y3430000D02*
D03*
Y3530000D02*
D03*
X4430000Y3560000D02*
D03*
Y3460000D02*
D03*
X3660000Y800000D02*
D03*
Y700000D02*
D03*
X4610000Y800000D02*
D03*
Y700000D02*
D03*
X7920000Y4440000D02*
D03*
Y4340000D02*
D03*
X3200000Y2990000D02*
D03*
Y3090000D02*
D03*
Y3290000D02*
D03*
Y3190000D02*
D03*
X3840000Y1320000D02*
D03*
Y1220000D02*
D03*
X3220000Y1300000D02*
D03*
Y1400000D02*
D03*
X4060000Y1330000D02*
D03*
Y1230000D02*
D03*
X4940000Y3330000D02*
D03*
Y3230000D02*
D03*
X7120000Y2790000D02*
D03*
Y2690000D02*
D03*
X7150000Y1660000D02*
D03*
Y1560000D02*
D03*
X6810000Y3910000D02*
D03*
Y3810000D02*
D03*
X7780000Y3380000D02*
D03*
Y3280000D02*
D03*
X6340000Y2160000D02*
D03*
Y2260000D02*
D03*
Y1350000D02*
D03*
Y1450000D02*
D03*
X6540000D02*
D03*
Y1350000D02*
D03*
X6540000Y2260000D02*
D03*
Y2160000D02*
D03*
X4950000Y2880000D02*
D03*
Y2780000D02*
D03*
X5050000Y2880000D02*
D03*
Y2780000D02*
D03*
X5950000Y3940000D02*
D03*
Y4040000D02*
D03*
X5310000Y3720000D02*
D03*
Y3820000D02*
D03*
X5410000Y3720000D02*
D03*
Y3820000D02*
D03*
X5220000Y3610000D02*
D03*
Y3710000D02*
D03*
X5130000D02*
D03*
Y3610000D02*
D03*
X5030000Y3610000D02*
D03*
Y3710000D02*
D03*
X5250000Y3960000D02*
D03*
Y4060000D02*
D03*
D22*
X7815000Y4230000D02*
D03*
D23*
X7765000D02*
D03*
X7715000D02*
D03*
X7665000D02*
D03*
X7815000Y3930000D02*
D03*
X7765000D02*
D03*
X7715000D02*
D03*
X7665000D02*
D03*
D24*
X2510000Y4110000D02*
D03*
D25*
Y3910000D02*
D03*
X5560000Y2690000D02*
D03*
X3810000Y3760000D02*
D03*
X3640000Y2710000D02*
D03*
X5630000Y3330000D02*
D03*
X5750000Y4280000D02*
D03*
X5740000Y3710000D02*
D03*
X5380000Y4280000D02*
D03*
D26*
X6065000Y4010000D02*
D03*
X6435000D02*
D03*
D27*
X6130000D02*
D03*
X6370000D02*
D03*
D28*
X2720000Y1670000D02*
D03*
X2560000D02*
D03*
X3000000Y2040000D02*
D03*
X6580000Y4700000D02*
D03*
X5050000D02*
D03*
X6270000D02*
D03*
X4740000D02*
D03*
X1570000Y4670000D02*
D03*
X7890000Y870000D02*
D03*
X7820000Y4560000D02*
D03*
X8010000Y230000D02*
D03*
Y5230000D02*
D03*
X5370000Y1750000D02*
D03*
X5530000D02*
D03*
X5090000D02*
D03*
X4930000D02*
D03*
X3410000Y4170000D02*
D03*
X3570000D02*
D03*
X3410000Y4040000D02*
D03*
X3570000D02*
D03*
X3330000Y3090000D02*
D03*
X3490000D02*
D03*
X3330000Y2840000D02*
D03*
X3490000D02*
D03*
X5210000Y3390000D02*
D03*
X5050000D02*
D03*
X4310000Y1100000D02*
D03*
X4470000D02*
D03*
X3220000Y1790000D02*
D03*
X3380000D02*
D03*
X6060000Y2950000D02*
D03*
X5900000D02*
D03*
D29*
X5410000Y1265000D02*
D03*
Y1170000D02*
D03*
Y1075000D02*
D03*
X5150000D02*
D03*
Y1170000D02*
D03*
D30*
Y1265000D02*
D03*
D31*
X4275000Y3862500D02*
D03*
Y3927500D02*
D03*
Y3992500D02*
D03*
Y4057500D02*
D03*
Y4122500D02*
D03*
Y4187500D02*
D03*
Y4252500D02*
D03*
Y4317500D02*
D03*
X3705000Y3862500D02*
D03*
Y3927500D02*
D03*
Y3992500D02*
D03*
Y4057500D02*
D03*
Y4122500D02*
D03*
Y4187500D02*
D03*
Y4252500D02*
D03*
X4195000Y2832500D02*
D03*
Y2897500D02*
D03*
Y2962500D02*
D03*
Y3027500D02*
D03*
Y3092500D02*
D03*
Y3157500D02*
D03*
Y3222500D02*
D03*
Y3287500D02*
D03*
X3625000Y2832500D02*
D03*
Y2897500D02*
D03*
Y2962500D02*
D03*
Y3027500D02*
D03*
Y3092500D02*
D03*
Y3157500D02*
D03*
Y3222500D02*
D03*
X5175000Y3227500D02*
D03*
Y3162500D02*
D03*
Y3097500D02*
D03*
Y3032500D02*
D03*
Y2967500D02*
D03*
Y2902500D02*
D03*
Y2837500D02*
D03*
Y2772500D02*
D03*
X5745000Y3227500D02*
D03*
Y3162500D02*
D03*
Y3097500D02*
D03*
Y3032500D02*
D03*
Y2967500D02*
D03*
Y2902500D02*
D03*
Y2837500D02*
D03*
D32*
X3705000Y4317500D02*
D03*
X3625000Y3287500D02*
D03*
X5745000Y2772500D02*
D03*
D33*
X3109999Y2280000D02*
D03*
D34*
X3795000Y3630000D02*
D03*
D35*
Y3580000D02*
D03*
Y3530000D02*
D03*
Y3480000D02*
D03*
Y3430000D02*
D03*
X4085000Y3630000D02*
D03*
Y3580000D02*
D03*
Y3530000D02*
D03*
Y3480000D02*
D03*
Y3430000D02*
D03*
D36*
X3940000Y3530000D02*
D03*
D37*
X2495000Y2100000D02*
D03*
X2400000D02*
D03*
X2305000D02*
D03*
Y2360000D02*
D03*
X2400000D02*
D03*
D38*
X2495000D02*
D03*
D39*
X3087500Y3262500D02*
D03*
X3022500D02*
D03*
X2957500D02*
D03*
X2892500D02*
D03*
X3087500Y2837500D02*
D03*
X3022500D02*
D03*
X2957500D02*
D03*
X6202500Y3317500D02*
D03*
X6267500D02*
D03*
X6332500D02*
D03*
X6397500D02*
D03*
X6202500Y3742500D02*
D03*
X6267500D02*
D03*
X6332500D02*
D03*
D40*
X2892500Y2837500D02*
D03*
X6397500Y3742500D02*
D03*
D41*
X6400000Y1020000D02*
D03*
X6400000Y1830000D02*
D03*
D42*
X6375000Y1245000D02*
D03*
X6425000D02*
D03*
X6425000Y794999D02*
D03*
X6375000D02*
D03*
X6374999Y2055000D02*
D03*
X6424999D02*
D03*
X6425000Y1605000D02*
D03*
X6375000D02*
D03*
D43*
X5090000Y4125000D02*
D03*
D44*
X5040000D02*
D03*
X4990000D02*
D03*
X4940000D02*
D03*
X4890000D02*
D03*
X5090000Y3835000D02*
D03*
X5040000D02*
D03*
X4990000D02*
D03*
X4940000D02*
D03*
X4890000D02*
D03*
D45*
X4990000Y3980000D02*
D03*
D46*
X5360000Y2690000D02*
D03*
X4010000Y3760000D02*
D03*
X3440000Y2710000D02*
D03*
X5430000Y3330000D02*
D03*
X5950000Y4280000D02*
D03*
X5940000Y3710000D02*
D03*
X5580000Y4280000D02*
D03*
D47*
X2140000Y1300000D02*
D03*
X2045000Y1520000D02*
D03*
X2235000D02*
D03*
X2350000Y1760000D02*
D03*
X2255000Y1980000D02*
D03*
X2445000D02*
D03*
X1920000Y1670000D02*
D03*
X1825000Y1890000D02*
D03*
X2015000D02*
D03*
D48*
X2400000Y2900000D02*
D03*
Y3140000D02*
D03*
D49*
Y2835000D02*
D03*
Y3205000D02*
D03*
D50*
X1620000Y1200000D02*
D03*
D51*
Y1350000D02*
D03*
Y1500000D02*
D03*
Y1650000D02*
D03*
D52*
X1270000Y1845000D02*
D03*
Y1005000D02*
D03*
D53*
X2645000Y4370000D02*
D03*
X4550000Y2665000D02*
D03*
X4675000Y4370000D02*
D03*
X6580000Y2665000D02*
D03*
D54*
X2645000Y3815000D02*
D03*
Y3220000D02*
D03*
X4550000D02*
D03*
Y3815000D02*
D03*
X4675000D02*
D03*
Y3220000D02*
D03*
X6580000D02*
D03*
Y3815000D02*
D03*
D55*
X2815000Y4470000D02*
D03*
X4380000Y2565000D02*
D03*
X4845000Y4470000D02*
D03*
X6410000Y2565000D02*
D03*
D56*
X4450000Y4470000D02*
D03*
X2745000Y2565000D02*
D03*
X6480000Y4470000D02*
D03*
X4775000Y2565000D02*
D03*
D57*
X3895000Y4470000D02*
D03*
X3300000D02*
D03*
Y2565000D02*
D03*
X3895000D02*
D03*
X5925000Y4470000D02*
D03*
X5330000D02*
D03*
Y2565000D02*
D03*
X5925000D02*
D03*
D58*
X4550000Y4300000D02*
D03*
X2645000Y2735000D02*
D03*
X6580000Y4300000D02*
D03*
X4675000Y2735000D02*
D03*
D59*
X4435000Y1690000D02*
D03*
X4205000D02*
D03*
X4440000Y1330000D02*
D03*
X4210000D02*
D03*
X3695000Y1070000D02*
D03*
X3465000D02*
D03*
X5185000Y1520000D02*
D03*
X5415000D02*
D03*
D60*
X2720000Y710000D02*
D03*
Y870000D02*
D03*
X1880000Y990000D02*
D03*
Y1150000D02*
D03*
X1990000Y710000D02*
D03*
Y870000D02*
D03*
X2520000D02*
D03*
Y710000D02*
D03*
X2290000D02*
D03*
Y870000D02*
D03*
X4790000Y1640000D02*
D03*
Y1800000D02*
D03*
D61*
X5770000Y2155000D02*
D03*
Y1925000D02*
D03*
X2600000Y1275000D02*
D03*
Y1045000D02*
D03*
X2970000D02*
D03*
Y1275000D02*
D03*
X2970000Y1695000D02*
D03*
Y1465000D02*
D03*
D62*
X2155000Y1010000D02*
D03*
Y1150000D02*
D03*
X2275000Y1640000D02*
D03*
D63*
X2305000Y1010000D02*
D03*
Y1150000D02*
D03*
X2125000Y1640000D02*
D03*
D64*
X2840000Y2040000D02*
D03*
X6420000Y4700000D02*
D03*
X4890000D02*
D03*
X6110000D02*
D03*
X4580000D02*
D03*
X1410000Y4670000D02*
D03*
X7730000Y870000D02*
D03*
X7660000Y4560000D02*
D03*
X7850000Y230000D02*
D03*
Y5230000D02*
D03*
D65*
X5660000Y1215000D02*
D03*
X5030000Y1435000D02*
D03*
X2630000Y2185000D02*
D03*
D66*
X5660000Y1065000D02*
D03*
X5030000Y1585000D02*
D03*
X2630000Y2035000D02*
D03*
D67*
X2400000Y3680000D02*
D03*
D68*
Y3380000D02*
D03*
D69*
X5700000Y3530000D02*
D03*
X5420000D02*
D03*
X2420000Y1490000D02*
D03*
X2700000D02*
D03*
X5440000Y2360000D02*
D03*
X5720000D02*
D03*
X4170000Y1070000D02*
D03*
X3890000D02*
D03*
X4020000Y1740000D02*
D03*
X3740000D02*
D03*
D70*
X4730000Y2250000D02*
D03*
Y1970000D02*
D03*
X4870000Y1050000D02*
D03*
Y1330000D02*
D03*
X5750000Y1640000D02*
D03*
Y1360000D02*
D03*
X4490000Y2250000D02*
D03*
Y1970000D02*
D03*
X4640000Y1410000D02*
D03*
Y1130000D02*
D03*
D71*
X4600000Y1580000D02*
D03*
Y1740000D02*
D03*
X3200000Y2690000D02*
D03*
Y2850000D02*
D03*
X6430000Y2720000D02*
D03*
Y2880000D02*
D03*
X6170000Y2720000D02*
D03*
Y2880000D02*
D03*
X6300000D02*
D03*
Y2720000D02*
D03*
X5580000Y1580000D02*
D03*
Y1420000D02*
D03*
X2020000Y1150000D02*
D03*
Y990000D02*
D03*
X2510000Y4620000D02*
D03*
Y4460000D02*
D03*
X3600000Y2290000D02*
D03*
Y2450000D02*
D03*
X3220000Y1660000D02*
D03*
Y1500000D02*
D03*
X3600000Y2170000D02*
D03*
Y2010000D02*
D03*
X2140000Y710000D02*
D03*
Y870000D02*
D03*
X2870000Y710000D02*
D03*
Y870000D02*
D03*
X2960000Y4600000D02*
D03*
Y4760000D02*
D03*
X4320000Y2240000D02*
D03*
Y2080000D02*
D03*
X5920000Y3330000D02*
D03*
Y3170000D02*
D03*
D83*
X2032000Y170500D02*
D03*
Y4996500D02*
D03*
Y4238400D02*
D03*
D84*
X2286000Y170500D02*
D03*
X2540000D02*
D03*
X2794000D02*
D03*
X3048000D02*
D03*
X3302000D02*
D03*
X3556000D02*
D03*
X3810000D02*
D03*
X4064000D02*
D03*
X4318000D02*
D03*
X4572000D02*
D03*
X4826000D02*
D03*
X5080000D02*
D03*
X5334000D02*
D03*
X5588000D02*
D03*
X5842000D02*
D03*
X6096000D02*
D03*
X6350000D02*
D03*
X6604000D02*
D03*
X6858000D02*
D03*
X7112000D02*
D03*
X7366000D02*
D03*
X7620000D02*
D03*
X2032000Y464500D02*
D03*
X2286000D02*
D03*
X2540000D02*
D03*
X2794000D02*
D03*
X3048000D02*
D03*
X3302000D02*
D03*
X3556000D02*
D03*
X3810000D02*
D03*
X4064000D02*
D03*
X4318000D02*
D03*
X4572000D02*
D03*
X4826000D02*
D03*
X5080000D02*
D03*
X5334000D02*
D03*
X5588000D02*
D03*
X5842000D02*
D03*
X6096000D02*
D03*
X6350000D02*
D03*
X6604000D02*
D03*
X6858000D02*
D03*
X7112000D02*
D03*
X7366000D02*
D03*
X7620000D02*
D03*
X2286000Y4996500D02*
D03*
X2540000D02*
D03*
X2794000D02*
D03*
X3048000D02*
D03*
X3302000D02*
D03*
X3556000D02*
D03*
X3810000D02*
D03*
X4064000D02*
D03*
X4318000D02*
D03*
X4572000D02*
D03*
X4826000D02*
D03*
X5080000D02*
D03*
X5334000D02*
D03*
X5588000D02*
D03*
X5842000D02*
D03*
X6096000D02*
D03*
X6350000D02*
D03*
X6604000D02*
D03*
X6858000D02*
D03*
X7112000D02*
D03*
X7366000D02*
D03*
X7620000D02*
D03*
X2032000Y5290500D02*
D03*
X2286000D02*
D03*
X2540000D02*
D03*
X2794000D02*
D03*
X3048000D02*
D03*
X3302000D02*
D03*
X3556000D02*
D03*
X3810000D02*
D03*
X4064000D02*
D03*
X4318000D02*
D03*
X4572000D02*
D03*
X4826000D02*
D03*
X5080000D02*
D03*
X5334000D02*
D03*
X5588000D02*
D03*
X5842000D02*
D03*
X6096000D02*
D03*
X6350000D02*
D03*
X6604000D02*
D03*
X6858000D02*
D03*
X7112000D02*
D03*
X7366000D02*
D03*
X7620000D02*
D03*
X2286000Y4238400D02*
D03*
Y4532400D02*
D03*
X2032000D02*
D03*
D85*
X8402000Y952800D02*
D03*
Y1206800D02*
D03*
Y1460800D02*
D03*
Y1714800D02*
D03*
Y1968800D02*
D03*
Y2222800D02*
D03*
Y2476800D02*
D03*
X8108000Y952800D02*
D03*
Y1206800D02*
D03*
Y1460800D02*
D03*
Y1714800D02*
D03*
Y1968800D02*
D03*
Y2222800D02*
D03*
Y4254800D02*
D03*
Y4000800D02*
D03*
Y3746800D02*
D03*
Y3492800D02*
D03*
Y3238800D02*
D03*
Y2984800D02*
D03*
X8402000Y4508800D02*
D03*
Y4254800D02*
D03*
Y4000800D02*
D03*
Y3746800D02*
D03*
Y3492800D02*
D03*
Y3238800D02*
D03*
Y2984800D02*
D03*
D86*
X8108000Y2476800D02*
D03*
Y4508800D02*
D03*
D87*
X8064500Y615000D02*
D03*
Y4846000D02*
D03*
D88*
X1460500Y5143500D02*
D03*
D89*
X1480000Y345000D02*
D03*
D90*
Y695000D02*
D03*
%TF.MD5,723f5c8ce920fccd53833a158a7359e6*%
M02*
