%TF.GenerationSoftware,Altium Limited,Altium Designer,21.9.2 (33)*%
G04 Layer_Physical_Order=2*
G04 Layer_Color=36540*
%FSLAX45Y45*%
%MOMM*%
%TF.SameCoordinates,7777544D-92F5-45BF-99EE-D781317D7DBF*%
%TF.FilePolarity,Positive*%
%TF.FileFunction,Copper,L2,Inr,Signal*%
%TF.Part,Single*%
G01*
G75*
%TA.AperFunction,ComponentPad*%
G04:AMPARAMS|DCode=93|XSize=2.2mm|YSize=2.2mm|CornerRadius=0.55mm|HoleSize=0mm|Usage=FLASHONLY|Rotation=270.000|XOffset=0mm|YOffset=0mm|HoleType=Round|Shape=RoundedRectangle|*
%AMROUNDEDRECTD93*
21,1,2.20000,1.10000,0,0,270.0*
21,1,1.10000,2.20000,0,0,270.0*
1,1,1.10000,-0.55000,-0.55000*
1,1,1.10000,-0.55000,0.55000*
1,1,1.10000,0.55000,0.55000*
1,1,1.10000,0.55000,-0.55000*
%
%ADD93ROUNDEDRECTD93*%
G04:AMPARAMS|DCode=94|XSize=2.2mm|YSize=2.2mm|CornerRadius=0mm|HoleSize=0mm|Usage=FLASHONLY|Rotation=270.000|XOffset=0mm|YOffset=0mm|HoleType=Round|Shape=Octagon|*
%AMOCTAGOND94*
4,1,8,-0.55000,-1.10000,0.55000,-1.10000,1.10000,-0.55000,1.10000,0.55000,0.55000,1.10000,-0.55000,1.10000,-1.10000,0.55000,-1.10000,-0.55000,-0.55000,-1.10000,0.0*
%
%ADD94OCTAGOND94*%

%TA.AperFunction,ViaPad*%
%ADD95C,0.60000*%
%ADD96C,1.10000*%
%TA.AperFunction,ComponentPad*%
G04:AMPARAMS|DCode=97|XSize=1.5mm|YSize=1.9mm|CornerRadius=0.375mm|HoleSize=0mm|Usage=FLASHONLY|Rotation=270.000|XOffset=0mm|YOffset=0mm|HoleType=Round|Shape=RoundedRectangle|*
%AMROUNDEDRECTD97*
21,1,1.50000,1.15000,0,0,270.0*
21,1,0.75000,1.90000,0,0,270.0*
1,1,0.75000,-0.57500,-0.37500*
1,1,0.75000,-0.57500,0.37500*
1,1,0.75000,0.57500,0.37500*
1,1,0.75000,0.57500,-0.37500*
%
%ADD97ROUNDEDRECTD97*%
G04:AMPARAMS|DCode=98|XSize=1.5mm|YSize=1.9mm|CornerRadius=0.375mm|HoleSize=0mm|Usage=FLASHONLY|Rotation=0.000|XOffset=0mm|YOffset=0mm|HoleType=Round|Shape=RoundedRectangle|*
%AMROUNDEDRECTD98*
21,1,1.50000,1.15000,0,0,0.0*
21,1,0.75000,1.90000,0,0,0.0*
1,1,0.75000,0.37500,-0.57500*
1,1,0.75000,-0.37500,-0.57500*
1,1,0.75000,-0.37500,0.57500*
1,1,0.75000,0.37500,0.57500*
%
%ADD98ROUNDEDRECTD98*%
G04:AMPARAMS|DCode=99|XSize=3.6mm|YSize=3.6mm|CornerRadius=0.54mm|HoleSize=0mm|Usage=FLASHONLY|Rotation=0.000|XOffset=0mm|YOffset=0mm|HoleType=Round|Shape=RoundedRectangle|*
%AMROUNDEDRECTD99*
21,1,3.60000,2.52000,0,0,0.0*
21,1,2.52000,3.60000,0,0,0.0*
1,1,1.08000,1.26000,-1.26000*
1,1,1.08000,-1.26000,-1.26000*
1,1,1.08000,-1.26000,1.26000*
1,1,1.08000,1.26000,1.26000*
%
%ADD99ROUNDEDRECTD99*%
G36*
X8434462Y5410484D02*
X8485651Y5389281D01*
X8529609Y5355551D01*
X8563338Y5311594D01*
X8584542Y5260404D01*
X8589867Y5219955D01*
X8591113Y5205471D01*
X8591116Y5205460D01*
X8591116Y5190471D01*
X8591247Y270194D01*
X8591247Y269996D01*
Y255256D01*
X8589999Y240773D01*
X8584683Y200394D01*
X8563507Y149271D01*
X8529821Y105371D01*
X8485921Y71685D01*
X8434798Y50509D01*
X8381926Y43549D01*
X8379938Y43944D01*
X7711646D01*
X7707096Y58944D01*
X7709769Y60731D01*
X7725793Y84712D01*
X7731420Y113000D01*
Y157800D01*
X7508580D01*
Y113000D01*
X7514207Y84712D01*
X7530231Y60731D01*
X7532904Y58944D01*
X7528354Y43944D01*
X7457646D01*
X7453096Y58944D01*
X7455769Y60731D01*
X7471793Y84712D01*
X7477420Y113000D01*
Y157800D01*
X7254580D01*
Y113000D01*
X7260207Y84712D01*
X7276231Y60731D01*
X7278904Y58944D01*
X7274354Y43944D01*
X7194646D01*
X7190096Y58944D01*
X7198164Y64336D01*
X7213083Y86663D01*
X7218322Y113000D01*
Y228000D01*
X7213083Y254337D01*
X7198164Y276664D01*
X7175837Y291583D01*
X7149500Y296822D01*
X7074500D01*
X7048163Y291583D01*
X7025836Y276664D01*
X7010917Y254337D01*
X7005678Y228000D01*
Y113000D01*
X7010917Y86663D01*
X7025836Y64336D01*
X7033904Y58944D01*
X7029354Y43944D01*
X6940646D01*
X6936096Y58944D01*
X6944164Y64336D01*
X6959083Y86663D01*
X6964322Y113000D01*
Y228000D01*
X6959083Y254337D01*
X6944164Y276664D01*
X6921837Y291583D01*
X6895500Y296822D01*
X6820500D01*
X6794163Y291583D01*
X6771836Y276664D01*
X6756917Y254337D01*
X6751678Y228000D01*
Y113000D01*
X6756917Y86663D01*
X6771836Y64336D01*
X6779904Y58944D01*
X6775354Y43944D01*
X6686646D01*
X6682096Y58944D01*
X6690164Y64336D01*
X6705083Y86663D01*
X6710322Y113000D01*
Y228000D01*
X6705083Y254337D01*
X6690164Y276664D01*
X6667837Y291583D01*
X6641500Y296822D01*
X6566500D01*
X6540163Y291583D01*
X6517836Y276664D01*
X6502917Y254337D01*
X6497678Y228000D01*
Y113000D01*
X6502917Y86663D01*
X6517836Y64336D01*
X6525904Y58944D01*
X6521354Y43944D01*
X6432646D01*
X6428096Y58944D01*
X6436164Y64336D01*
X6451083Y86663D01*
X6456322Y113000D01*
Y228000D01*
X6451083Y254337D01*
X6436164Y276664D01*
X6413837Y291583D01*
X6387500Y296822D01*
X6312500D01*
X6286163Y291583D01*
X6263836Y276664D01*
X6248917Y254337D01*
X6243678Y228000D01*
Y113000D01*
X6248917Y86663D01*
X6263836Y64336D01*
X6271904Y58944D01*
X6267354Y43944D01*
X6178646D01*
X6174096Y58944D01*
X6182164Y64336D01*
X6197083Y86663D01*
X6202322Y113000D01*
Y228000D01*
X6197083Y254337D01*
X6182164Y276664D01*
X6159837Y291583D01*
X6133500Y296822D01*
X6058500D01*
X6032163Y291583D01*
X6009836Y276664D01*
X5994917Y254337D01*
X5989678Y228000D01*
Y113000D01*
X5994917Y86663D01*
X6009836Y64336D01*
X6017904Y58944D01*
X6013354Y43944D01*
X5924646D01*
X5920096Y58944D01*
X5928164Y64336D01*
X5943083Y86663D01*
X5948322Y113000D01*
Y228000D01*
X5943083Y254337D01*
X5928164Y276664D01*
X5905837Y291583D01*
X5879500Y296822D01*
X5804500D01*
X5778163Y291583D01*
X5755836Y276664D01*
X5740917Y254337D01*
X5735678Y228000D01*
Y113000D01*
X5740917Y86663D01*
X5755836Y64336D01*
X5763904Y58944D01*
X5759354Y43944D01*
X5670646D01*
X5666096Y58944D01*
X5674164Y64336D01*
X5689083Y86663D01*
X5694322Y113000D01*
Y228000D01*
X5689083Y254337D01*
X5674164Y276664D01*
X5651837Y291583D01*
X5625500Y296822D01*
X5550500D01*
X5524163Y291583D01*
X5501836Y276664D01*
X5486917Y254337D01*
X5481678Y228000D01*
Y113000D01*
X5486917Y86663D01*
X5501836Y64336D01*
X5509904Y58944D01*
X5505354Y43944D01*
X5416646D01*
X5412096Y58944D01*
X5420164Y64336D01*
X5435083Y86663D01*
X5440322Y113000D01*
Y228000D01*
X5435083Y254337D01*
X5420164Y276664D01*
X5397837Y291583D01*
X5371500Y296822D01*
X5296500D01*
X5270163Y291583D01*
X5247836Y276664D01*
X5232917Y254337D01*
X5227678Y228000D01*
Y113000D01*
X5232917Y86663D01*
X5247836Y64336D01*
X5255904Y58944D01*
X5251354Y43944D01*
X5162646D01*
X5158096Y58944D01*
X5166164Y64336D01*
X5181083Y86663D01*
X5186322Y113000D01*
Y228000D01*
X5181083Y254337D01*
X5166164Y276664D01*
X5143837Y291583D01*
X5117500Y296822D01*
X5042500D01*
X5016163Y291583D01*
X4993836Y276664D01*
X4978917Y254337D01*
X4973678Y228000D01*
Y113000D01*
X4978917Y86663D01*
X4993836Y64336D01*
X5001904Y58944D01*
X4997354Y43944D01*
X4908646D01*
X4904096Y58944D01*
X4912164Y64336D01*
X4927083Y86663D01*
X4932322Y113000D01*
Y228000D01*
X4927083Y254337D01*
X4912164Y276664D01*
X4889837Y291583D01*
X4863500Y296822D01*
X4788500D01*
X4762163Y291583D01*
X4739836Y276664D01*
X4724917Y254337D01*
X4719678Y228000D01*
Y113000D01*
X4724917Y86663D01*
X4739836Y64336D01*
X4747904Y58944D01*
X4743354Y43944D01*
X4654646D01*
X4650096Y58944D01*
X4658164Y64336D01*
X4673083Y86663D01*
X4678322Y113000D01*
Y228000D01*
X4673083Y254337D01*
X4658164Y276664D01*
X4635837Y291583D01*
X4609500Y296822D01*
X4534500D01*
X4508163Y291583D01*
X4485836Y276664D01*
X4470917Y254337D01*
X4465678Y228000D01*
Y113000D01*
X4470917Y86663D01*
X4485836Y64336D01*
X4493904Y58944D01*
X4489354Y43944D01*
X4400646D01*
X4396096Y58944D01*
X4404164Y64336D01*
X4419083Y86663D01*
X4424322Y113000D01*
Y228000D01*
X4419083Y254337D01*
X4404164Y276664D01*
X4381837Y291583D01*
X4355500Y296822D01*
X4280500D01*
X4254163Y291583D01*
X4231836Y276664D01*
X4216917Y254337D01*
X4211678Y228000D01*
Y113000D01*
X4216917Y86663D01*
X4231836Y64336D01*
X4239904Y58944D01*
X4235354Y43944D01*
X4146646D01*
X4142096Y58944D01*
X4150164Y64336D01*
X4165083Y86663D01*
X4170322Y113000D01*
Y228000D01*
X4165083Y254337D01*
X4150164Y276664D01*
X4127837Y291583D01*
X4101500Y296822D01*
X4026500D01*
X4000163Y291583D01*
X3977836Y276664D01*
X3962917Y254337D01*
X3957678Y228000D01*
Y113000D01*
X3962917Y86663D01*
X3977836Y64336D01*
X3985904Y58944D01*
X3981354Y43944D01*
X3892646D01*
X3888096Y58944D01*
X3896164Y64336D01*
X3911083Y86663D01*
X3916322Y113000D01*
Y228000D01*
X3911083Y254337D01*
X3896164Y276664D01*
X3873837Y291583D01*
X3847500Y296822D01*
X3772500D01*
X3746163Y291583D01*
X3723836Y276664D01*
X3708917Y254337D01*
X3703678Y228000D01*
Y113000D01*
X3708917Y86663D01*
X3723836Y64336D01*
X3731904Y58944D01*
X3727354Y43944D01*
X3638646D01*
X3634096Y58944D01*
X3642164Y64336D01*
X3657083Y86663D01*
X3662322Y113000D01*
Y228000D01*
X3657083Y254337D01*
X3642164Y276664D01*
X3619837Y291583D01*
X3593500Y296822D01*
X3518500D01*
X3492163Y291583D01*
X3469836Y276664D01*
X3454917Y254337D01*
X3449678Y228000D01*
Y113000D01*
X3454917Y86663D01*
X3469836Y64336D01*
X3477904Y58944D01*
X3473354Y43944D01*
X3384646D01*
X3380096Y58944D01*
X3388164Y64336D01*
X3403083Y86663D01*
X3408322Y113000D01*
Y228000D01*
X3403083Y254337D01*
X3388164Y276664D01*
X3365837Y291583D01*
X3339500Y296822D01*
X3264500D01*
X3238163Y291583D01*
X3215836Y276664D01*
X3200917Y254337D01*
X3195678Y228000D01*
Y113000D01*
X3200917Y86663D01*
X3215836Y64336D01*
X3223904Y58944D01*
X3219354Y43944D01*
X3130646D01*
X3126096Y58944D01*
X3134164Y64336D01*
X3149083Y86663D01*
X3154322Y113000D01*
Y228000D01*
X3149083Y254337D01*
X3134164Y276664D01*
X3111837Y291583D01*
X3085500Y296822D01*
X3010500D01*
X2984163Y291583D01*
X2961836Y276664D01*
X2946917Y254337D01*
X2941678Y228000D01*
Y113000D01*
X2946917Y86663D01*
X2961836Y64336D01*
X2969904Y58944D01*
X2965354Y43944D01*
X2876646D01*
X2872096Y58944D01*
X2880164Y64336D01*
X2895083Y86663D01*
X2900322Y113000D01*
Y228000D01*
X2895083Y254337D01*
X2880164Y276664D01*
X2857837Y291583D01*
X2831500Y296822D01*
X2756500D01*
X2730163Y291583D01*
X2707836Y276664D01*
X2692917Y254337D01*
X2687678Y228000D01*
Y113000D01*
X2692917Y86663D01*
X2707836Y64336D01*
X2715904Y58944D01*
X2711354Y43944D01*
X2622646D01*
X2618096Y58944D01*
X2626164Y64336D01*
X2641083Y86663D01*
X2646322Y113000D01*
Y228000D01*
X2641083Y254337D01*
X2626164Y276664D01*
X2603837Y291583D01*
X2577500Y296822D01*
X2502500D01*
X2476163Y291583D01*
X2453836Y276664D01*
X2438917Y254337D01*
X2433678Y228000D01*
Y113000D01*
X2438917Y86663D01*
X2453836Y64336D01*
X2461904Y58944D01*
X2457354Y43944D01*
X2368646D01*
X2364096Y58944D01*
X2372164Y64336D01*
X2387083Y86663D01*
X2392322Y113000D01*
Y228000D01*
X2387083Y254337D01*
X2372164Y276664D01*
X2349837Y291583D01*
X2323500Y296822D01*
X2248500D01*
X2222163Y291583D01*
X2199836Y276664D01*
X2184917Y254337D01*
X2179678Y228000D01*
Y113000D01*
X2184917Y86663D01*
X2199836Y64336D01*
X2207904Y58944D01*
X2203354Y43944D01*
X2123646D01*
X2119096Y58944D01*
X2121769Y60731D01*
X2137793Y84712D01*
X2143420Y113000D01*
Y157800D01*
X1920580D01*
Y113000D01*
X1926207Y84712D01*
X1942231Y60731D01*
X1944904Y58944D01*
X1940354Y43944D01*
X1371600D01*
X1369643Y43555D01*
X1317066Y50477D01*
X1266249Y71526D01*
X1222611Y105011D01*
X1189126Y148649D01*
X1168077Y199466D01*
X1161155Y252043D01*
X1161544Y254000D01*
Y1924556D01*
X1841500D01*
Y1923962D01*
X1899742Y1929699D01*
X1955745Y1946687D01*
X2007359Y1974275D01*
X2052598Y2011402D01*
X2089725Y2056641D01*
X2117313Y2108255D01*
X2134301Y2164258D01*
X2140038Y2222500D01*
X2139444D01*
Y3746500D01*
X2140038D01*
X2134301Y3804742D01*
X2117313Y3860745D01*
X2089725Y3912359D01*
X2052598Y3957598D01*
X2007359Y3994725D01*
X1955745Y4022313D01*
X1899742Y4039301D01*
X1841500Y4045038D01*
Y4044444D01*
X1161544D01*
Y5207000D01*
X1161155Y5208958D01*
X1168077Y5261534D01*
X1189126Y5312351D01*
X1222610Y5355989D01*
X1266248Y5389474D01*
X1317066Y5410523D01*
X1357121Y5415796D01*
X1371600Y5417055D01*
Y5417056D01*
X1940354D01*
X1944904Y5402056D01*
X1942231Y5400269D01*
X1926207Y5376288D01*
X1920580Y5348000D01*
Y5303200D01*
X2143420D01*
Y5348000D01*
X2137793Y5376288D01*
X2121769Y5400269D01*
X2119096Y5402056D01*
X2123646Y5417056D01*
X2203354D01*
X2207904Y5402056D01*
X2199836Y5396664D01*
X2184917Y5374337D01*
X2179678Y5348000D01*
Y5233000D01*
X2184917Y5206663D01*
X2199836Y5184336D01*
X2222163Y5169417D01*
X2248500Y5164178D01*
X2323500D01*
X2349837Y5169417D01*
X2372164Y5184336D01*
X2387083Y5206663D01*
X2392322Y5233000D01*
Y5348000D01*
X2387083Y5374337D01*
X2372164Y5396664D01*
X2364096Y5402056D01*
X2368646Y5417056D01*
X2457354D01*
X2461904Y5402056D01*
X2453836Y5396664D01*
X2438917Y5374337D01*
X2433678Y5348000D01*
Y5233000D01*
X2438917Y5206663D01*
X2453836Y5184336D01*
X2476163Y5169417D01*
X2502500Y5164178D01*
X2577500D01*
X2603837Y5169417D01*
X2626164Y5184336D01*
X2641083Y5206663D01*
X2646322Y5233000D01*
Y5348000D01*
X2641083Y5374337D01*
X2626164Y5396664D01*
X2618096Y5402056D01*
X2622646Y5417056D01*
X2711354D01*
X2715904Y5402056D01*
X2707836Y5396664D01*
X2692917Y5374337D01*
X2687678Y5348000D01*
Y5233000D01*
X2692917Y5206663D01*
X2707836Y5184336D01*
X2730163Y5169417D01*
X2756500Y5164178D01*
X2831500D01*
X2857837Y5169417D01*
X2880164Y5184336D01*
X2895083Y5206663D01*
X2900322Y5233000D01*
Y5348000D01*
X2895083Y5374337D01*
X2880164Y5396664D01*
X2872096Y5402056D01*
X2876646Y5417056D01*
X2965354D01*
X2969904Y5402056D01*
X2961836Y5396664D01*
X2946917Y5374337D01*
X2941678Y5348000D01*
Y5233000D01*
X2946917Y5206663D01*
X2961836Y5184336D01*
X2984163Y5169417D01*
X3010500Y5164178D01*
X3085500D01*
X3111837Y5169417D01*
X3134164Y5184336D01*
X3149083Y5206663D01*
X3154322Y5233000D01*
Y5348000D01*
X3149083Y5374337D01*
X3134164Y5396664D01*
X3126096Y5402056D01*
X3130646Y5417056D01*
X3219354D01*
X3223904Y5402056D01*
X3215836Y5396664D01*
X3200917Y5374337D01*
X3195678Y5348000D01*
Y5233000D01*
X3200917Y5206663D01*
X3215836Y5184336D01*
X3238163Y5169417D01*
X3264500Y5164178D01*
X3339500D01*
X3365837Y5169417D01*
X3388164Y5184336D01*
X3403083Y5206663D01*
X3408322Y5233000D01*
Y5348000D01*
X3403083Y5374337D01*
X3388164Y5396664D01*
X3380096Y5402056D01*
X3384646Y5417056D01*
X3473354D01*
X3477904Y5402056D01*
X3469836Y5396664D01*
X3454917Y5374337D01*
X3449678Y5348000D01*
Y5233000D01*
X3454917Y5206663D01*
X3469836Y5184336D01*
X3492163Y5169417D01*
X3518500Y5164178D01*
X3593500D01*
X3619837Y5169417D01*
X3642164Y5184336D01*
X3657083Y5206663D01*
X3662322Y5233000D01*
Y5348000D01*
X3657083Y5374337D01*
X3642164Y5396664D01*
X3634096Y5402056D01*
X3638646Y5417056D01*
X3727354D01*
X3731904Y5402056D01*
X3723836Y5396664D01*
X3708917Y5374337D01*
X3703678Y5348000D01*
Y5233000D01*
X3708917Y5206663D01*
X3723836Y5184336D01*
X3746163Y5169417D01*
X3772500Y5164178D01*
X3847500D01*
X3873837Y5169417D01*
X3896164Y5184336D01*
X3911083Y5206663D01*
X3916322Y5233000D01*
Y5348000D01*
X3911083Y5374337D01*
X3896164Y5396664D01*
X3888096Y5402056D01*
X3892646Y5417056D01*
X3981354D01*
X3985904Y5402056D01*
X3977836Y5396664D01*
X3962917Y5374337D01*
X3957678Y5348000D01*
Y5233000D01*
X3962917Y5206663D01*
X3977836Y5184336D01*
X4000163Y5169417D01*
X4026500Y5164178D01*
X4101500D01*
X4127837Y5169417D01*
X4150164Y5184336D01*
X4165083Y5206663D01*
X4170322Y5233000D01*
Y5348000D01*
X4165083Y5374337D01*
X4150164Y5396664D01*
X4142096Y5402056D01*
X4146646Y5417056D01*
X4235354D01*
X4239904Y5402056D01*
X4231836Y5396664D01*
X4216917Y5374337D01*
X4211678Y5348000D01*
Y5233000D01*
X4216917Y5206663D01*
X4231836Y5184336D01*
X4254163Y5169417D01*
X4280500Y5164178D01*
X4355500D01*
X4381837Y5169417D01*
X4404164Y5184336D01*
X4419083Y5206663D01*
X4424322Y5233000D01*
Y5348000D01*
X4419083Y5374337D01*
X4404164Y5396664D01*
X4396096Y5402056D01*
X4400646Y5417056D01*
X4489354D01*
X4493904Y5402056D01*
X4485836Y5396664D01*
X4470917Y5374337D01*
X4465678Y5348000D01*
Y5233000D01*
X4470917Y5206663D01*
X4485836Y5184336D01*
X4508163Y5169417D01*
X4534500Y5164178D01*
X4609500D01*
X4635837Y5169417D01*
X4658164Y5184336D01*
X4673083Y5206663D01*
X4678322Y5233000D01*
Y5348000D01*
X4673083Y5374337D01*
X4658164Y5396664D01*
X4650096Y5402056D01*
X4654646Y5417056D01*
X4743354D01*
X4747904Y5402056D01*
X4739836Y5396664D01*
X4724917Y5374337D01*
X4719678Y5348000D01*
Y5233000D01*
X4724917Y5206663D01*
X4739836Y5184336D01*
X4762163Y5169417D01*
X4788500Y5164178D01*
X4863500D01*
X4884170Y5168289D01*
X4895310Y5156815D01*
X4895486Y5156411D01*
X4892487Y5149171D01*
Y5132350D01*
X4881053Y5120773D01*
X4878629Y5119813D01*
X4863500Y5122822D01*
X4788500D01*
X4762163Y5117583D01*
X4739836Y5102664D01*
X4724917Y5080337D01*
X4719678Y5054000D01*
Y4939000D01*
X4724917Y4912663D01*
X4739836Y4890336D01*
X4762163Y4875417D01*
X4788500Y4870178D01*
X4863500D01*
X4889837Y4875417D01*
X4912164Y4890336D01*
X4927083Y4912663D01*
X4932322Y4939000D01*
Y5054000D01*
X4930066Y5065344D01*
X4935793Y5071839D01*
X4942994Y5077236D01*
X4963006D01*
X4965257Y5076414D01*
X4976027Y5065807D01*
X4973678Y5054000D01*
Y4939000D01*
X4978917Y4912663D01*
X4993836Y4890336D01*
X5016163Y4875417D01*
X5042500Y4870178D01*
X5117500D01*
X5143837Y4875417D01*
X5166164Y4890336D01*
X5181083Y4912663D01*
X5186322Y4939000D01*
Y5054000D01*
X5181083Y5080337D01*
X5166164Y5102664D01*
X5143837Y5117583D01*
X5117500Y5122822D01*
X5042500D01*
X5026345Y5119609D01*
X5023632Y5120723D01*
X5012487Y5131794D01*
Y5149171D01*
X5009396Y5156633D01*
X5010690Y5159077D01*
X5020712Y5168512D01*
X5042500Y5164178D01*
X5117500D01*
X5143837Y5169417D01*
X5166164Y5184336D01*
X5181083Y5206663D01*
X5186322Y5233000D01*
Y5348000D01*
X5181083Y5374337D01*
X5166164Y5396664D01*
X5158096Y5402056D01*
X5162646Y5417056D01*
X5251354D01*
X5255904Y5402056D01*
X5247836Y5396664D01*
X5232917Y5374337D01*
X5227678Y5348000D01*
Y5233000D01*
X5232917Y5206663D01*
X5247836Y5184336D01*
X5270163Y5169417D01*
X5296500Y5164178D01*
X5371500D01*
X5397837Y5169417D01*
X5420164Y5184336D01*
X5435083Y5206663D01*
X5440322Y5233000D01*
Y5348000D01*
X5435083Y5374337D01*
X5420164Y5396664D01*
X5412096Y5402056D01*
X5416646Y5417056D01*
X5505354D01*
X5509904Y5402056D01*
X5501836Y5396664D01*
X5486917Y5374337D01*
X5481678Y5348000D01*
Y5233000D01*
X5486917Y5206663D01*
X5501836Y5184336D01*
X5524163Y5169417D01*
X5550500Y5164178D01*
X5625500D01*
X5640734Y5167208D01*
X5651524Y5154060D01*
X5650469Y5151513D01*
Y5133149D01*
X5640363Y5122203D01*
X5637193Y5120496D01*
X5625500Y5122822D01*
X5550500D01*
X5524163Y5117583D01*
X5501836Y5102664D01*
X5486917Y5080337D01*
X5481678Y5054000D01*
Y4939000D01*
X5486917Y4912663D01*
X5501836Y4890336D01*
X5524163Y4875417D01*
X5550500Y4870178D01*
X5625500D01*
X5651837Y4875417D01*
X5674164Y4890336D01*
X5689083Y4912663D01*
X5694322Y4939000D01*
Y5054000D01*
X5691919Y5066083D01*
X5693377Y5069058D01*
X5704528Y5079578D01*
X5722403D01*
X5725747Y5080963D01*
X5738895Y5070174D01*
X5735678Y5054000D01*
Y4939000D01*
X5740917Y4912663D01*
X5755836Y4890336D01*
X5778163Y4875417D01*
X5804500Y4870178D01*
X5879500D01*
X5905837Y4875417D01*
X5928164Y4890336D01*
X5943083Y4912663D01*
X5948322Y4939000D01*
Y5054000D01*
X5943083Y5080337D01*
X5928164Y5102664D01*
X5905837Y5117583D01*
X5879500Y5122822D01*
X5804500D01*
X5782930Y5118532D01*
X5776461Y5123262D01*
X5772091Y5127526D01*
X5770469Y5130183D01*
Y5151513D01*
X5767602Y5158433D01*
X5774879Y5166001D01*
X5779390Y5169173D01*
X5804500Y5164178D01*
X5879500D01*
X5905837Y5169417D01*
X5928164Y5184336D01*
X5943083Y5206663D01*
X5948322Y5233000D01*
Y5348000D01*
X5943083Y5374337D01*
X5928164Y5396664D01*
X5920096Y5402056D01*
X5924646Y5417056D01*
X6013354D01*
X6017904Y5402056D01*
X6009836Y5396664D01*
X5994917Y5374337D01*
X5989678Y5348000D01*
Y5233000D01*
X5994917Y5206663D01*
X6009836Y5184336D01*
X6032163Y5169417D01*
X6058500Y5164178D01*
X6133500D01*
X6159837Y5169417D01*
X6182164Y5184336D01*
X6197083Y5206663D01*
X6202322Y5233000D01*
Y5348000D01*
X6197083Y5374337D01*
X6182164Y5396664D01*
X6174096Y5402056D01*
X6178646Y5417056D01*
X6267354D01*
X6271904Y5402056D01*
X6263836Y5396664D01*
X6248917Y5374337D01*
X6243678Y5348000D01*
Y5233000D01*
X6248917Y5206663D01*
X6263836Y5184336D01*
X6286163Y5169417D01*
X6312500Y5164178D01*
X6387500D01*
X6413837Y5169417D01*
X6436164Y5184336D01*
X6451083Y5206663D01*
X6456322Y5233000D01*
Y5348000D01*
X6451083Y5374337D01*
X6436164Y5396664D01*
X6428096Y5402056D01*
X6432646Y5417056D01*
X6521354D01*
X6525904Y5402056D01*
X6517836Y5396664D01*
X6502917Y5374337D01*
X6497678Y5348000D01*
Y5233000D01*
X6502917Y5206663D01*
X6517836Y5184336D01*
X6540163Y5169417D01*
X6566500Y5164178D01*
X6641500D01*
X6667837Y5169417D01*
X6690164Y5184336D01*
X6705083Y5206663D01*
X6710322Y5233000D01*
Y5348000D01*
X6705083Y5374337D01*
X6690164Y5396664D01*
X6682096Y5402056D01*
X6686646Y5417056D01*
X6775354D01*
X6779904Y5402056D01*
X6771836Y5396664D01*
X6756917Y5374337D01*
X6751678Y5348000D01*
Y5233000D01*
X6756917Y5206663D01*
X6771836Y5184336D01*
X6794163Y5169417D01*
X6820500Y5164178D01*
X6895500D01*
X6921837Y5169417D01*
X6944164Y5184336D01*
X6959083Y5206663D01*
X6964322Y5233000D01*
Y5348000D01*
X6959083Y5374337D01*
X6944164Y5396664D01*
X6936096Y5402056D01*
X6940646Y5417056D01*
X7029354D01*
X7033904Y5402056D01*
X7025836Y5396664D01*
X7010917Y5374337D01*
X7005678Y5348000D01*
Y5233000D01*
X7010917Y5206663D01*
X7025836Y5184336D01*
X7048163Y5169417D01*
X7074500Y5164178D01*
X7149500D01*
X7175837Y5169417D01*
X7198164Y5184336D01*
X7213083Y5206663D01*
X7218322Y5233000D01*
Y5348000D01*
X7213083Y5374337D01*
X7198164Y5396664D01*
X7190096Y5402056D01*
X7194646Y5417056D01*
X7283354D01*
X7287904Y5402056D01*
X7279836Y5396664D01*
X7264917Y5374337D01*
X7259678Y5348000D01*
Y5233000D01*
X7264917Y5206663D01*
X7279836Y5184336D01*
X7302163Y5169417D01*
X7328500Y5164178D01*
X7403500D01*
X7429837Y5169417D01*
X7452164Y5184336D01*
X7467083Y5206663D01*
X7472322Y5233000D01*
Y5348000D01*
X7467083Y5374337D01*
X7452164Y5396664D01*
X7444096Y5402056D01*
X7448646Y5417056D01*
X7537354D01*
X7541904Y5402056D01*
X7533836Y5396664D01*
X7518917Y5374337D01*
X7513678Y5348000D01*
Y5233000D01*
X7518917Y5206663D01*
X7533836Y5184336D01*
X7556163Y5169417D01*
X7582500Y5164178D01*
X7657500D01*
X7683837Y5169417D01*
X7706164Y5184336D01*
X7721083Y5206663D01*
X7726322Y5233000D01*
Y5348000D01*
X7721083Y5374337D01*
X7706164Y5396664D01*
X7698096Y5402056D01*
X7702646Y5417056D01*
X8379531D01*
X8381527Y5417453D01*
X8434462Y5410484D01*
D02*
G37*
%LPC*%
G36*
X2143420Y5277800D02*
X2044700D01*
Y5159080D01*
X2069500D01*
X2097788Y5164707D01*
X2121769Y5180731D01*
X2137793Y5204712D01*
X2143420Y5233000D01*
Y5277800D01*
D02*
G37*
G36*
X2019300D02*
X1920580D01*
Y5233000D01*
X1926207Y5204712D01*
X1942231Y5180731D01*
X1966212Y5164707D01*
X1994500Y5159080D01*
X2019300D01*
Y5277800D01*
D02*
G37*
G36*
X8165500Y5254920D02*
X8120700D01*
Y5156200D01*
X8239420D01*
Y5181000D01*
X8233793Y5209288D01*
X8217769Y5233269D01*
X8193788Y5249293D01*
X8165500Y5254920D01*
D02*
G37*
G36*
X1586500Y5360244D02*
X1473200D01*
Y5156200D01*
X1677244D01*
Y5269500D01*
X1670336Y5304226D01*
X1650665Y5333665D01*
X1621226Y5353336D01*
X1586500Y5360244D01*
D02*
G37*
G36*
X1447800D02*
X1334500D01*
X1299774Y5353336D01*
X1270335Y5333665D01*
X1250664Y5304226D01*
X1243756Y5269500D01*
Y5156200D01*
X1447800D01*
Y5360244D01*
D02*
G37*
G36*
X8095300Y5254920D02*
X8050500D01*
X8022212Y5249293D01*
X7998231Y5233269D01*
X7982207Y5209288D01*
X7976580Y5181000D01*
Y5156200D01*
X8095300D01*
Y5254920D01*
D02*
G37*
G36*
X8459500Y5249822D02*
X8344500D01*
X8318163Y5244583D01*
X8295836Y5229664D01*
X8280917Y5207337D01*
X8275678Y5181000D01*
Y5106000D01*
X8280917Y5079663D01*
X8295836Y5057336D01*
X8318163Y5042417D01*
X8344500Y5037178D01*
X8459500D01*
X8485837Y5042417D01*
X8508164Y5057336D01*
X8523083Y5079663D01*
X8528322Y5106000D01*
Y5181000D01*
X8523083Y5207337D01*
X8508164Y5229664D01*
X8485837Y5244583D01*
X8459500Y5249822D01*
D02*
G37*
G36*
X8239420Y5130800D02*
X8120700D01*
Y5032080D01*
X8165500D01*
X8193788Y5037707D01*
X8217769Y5053731D01*
X8233793Y5077712D01*
X8239420Y5106000D01*
Y5130800D01*
D02*
G37*
G36*
X8095300D02*
X7976580D01*
Y5106000D01*
X7982207Y5077712D01*
X7998231Y5053731D01*
X8022212Y5037707D01*
X8050500Y5032080D01*
X8095300D01*
Y5130800D01*
D02*
G37*
G36*
X2069500Y5127920D02*
X2044700D01*
Y5009200D01*
X2143420D01*
Y5054000D01*
X2137793Y5082288D01*
X2121769Y5106269D01*
X2097788Y5122293D01*
X2069500Y5127920D01*
D02*
G37*
G36*
X2019300D02*
X1994500D01*
X1966212Y5122293D01*
X1942231Y5106269D01*
X1926207Y5082288D01*
X1920580Y5054000D01*
Y5009200D01*
X2019300D01*
Y5127920D01*
D02*
G37*
G36*
X1677244Y5130800D02*
X1473200D01*
Y4926756D01*
X1586500D01*
X1621226Y4933664D01*
X1650665Y4953335D01*
X1670336Y4982774D01*
X1677244Y5017500D01*
Y5130800D01*
D02*
G37*
G36*
X1447800D02*
X1243756D01*
Y5017500D01*
X1250664Y4982774D01*
X1270335Y4953335D01*
X1299774Y4933664D01*
X1334500Y4926756D01*
X1447800D01*
Y5130800D01*
D02*
G37*
G36*
X8165500Y4995822D02*
X8050500D01*
X8024163Y4990583D01*
X8001836Y4975664D01*
X7986917Y4953337D01*
X7981678Y4927000D01*
Y4922938D01*
X7966678Y4919955D01*
X7960865Y4933987D01*
X7943987Y4950866D01*
X7921935Y4960000D01*
X7898065D01*
X7876013Y4950866D01*
X7859134Y4933987D01*
X7850000Y4911935D01*
Y4888065D01*
X7859134Y4866013D01*
X7876013Y4849135D01*
X7898065Y4840000D01*
X7921935D01*
X7943987Y4849135D01*
X7960865Y4866013D01*
X7966678Y4880046D01*
X7981678Y4877062D01*
Y4852000D01*
X7986917Y4825663D01*
X8001836Y4803336D01*
X8024163Y4788417D01*
X8050500Y4783178D01*
X8165500D01*
X8191837Y4788417D01*
X8214164Y4803336D01*
X8229083Y4825663D01*
X8234322Y4852000D01*
Y4927000D01*
X8229083Y4953337D01*
X8214164Y4975664D01*
X8191837Y4990583D01*
X8165500Y4995822D01*
D02*
G37*
G36*
X4609500Y5122822D02*
X4534500D01*
X4508163Y5117583D01*
X4485836Y5102664D01*
X4470917Y5080337D01*
X4465678Y5054000D01*
Y4939000D01*
X4470917Y4912663D01*
X4471053Y4912459D01*
X4463506Y4902147D01*
X4461338Y4900000D01*
X4438065D01*
X4425064Y4894615D01*
X4415120Y4906732D01*
X4419083Y4912663D01*
X4424322Y4939000D01*
Y5054000D01*
X4419083Y5080337D01*
X4404164Y5102664D01*
X4381837Y5117583D01*
X4355500Y5122822D01*
X4280500D01*
X4254163Y5117583D01*
X4231836Y5102664D01*
X4216917Y5080337D01*
X4211678Y5054000D01*
Y4939000D01*
X4216917Y4912663D01*
X4231836Y4890336D01*
X4254163Y4875417D01*
X4280500Y4870178D01*
X4355500D01*
X4381837Y4875417D01*
X4384124Y4876945D01*
X4396240Y4867000D01*
X4390000Y4851935D01*
Y4828065D01*
X4399134Y4806013D01*
X4416013Y4789134D01*
X4438065Y4780000D01*
X4461935D01*
X4483987Y4789134D01*
X4500866Y4806013D01*
X4510000Y4828065D01*
Y4851935D01*
X4506469Y4860460D01*
X4517259Y4873607D01*
X4534500Y4870178D01*
X4609500D01*
X4635837Y4875417D01*
X4658164Y4890336D01*
X4673083Y4912663D01*
X4678322Y4939000D01*
Y5054000D01*
X4673083Y5080337D01*
X4658164Y5102664D01*
X4635837Y5117583D01*
X4609500Y5122822D01*
D02*
G37*
G36*
X7657500D02*
X7582500D01*
X7556163Y5117583D01*
X7533836Y5102664D01*
X7518917Y5080337D01*
X7513678Y5054000D01*
Y4939000D01*
X7518917Y4912663D01*
X7533836Y4890336D01*
X7556163Y4875417D01*
X7582500Y4870178D01*
X7657500D01*
X7683837Y4875417D01*
X7706164Y4890336D01*
X7721083Y4912663D01*
X7726322Y4939000D01*
Y5054000D01*
X7721083Y5080337D01*
X7706164Y5102664D01*
X7683837Y5117583D01*
X7657500Y5122822D01*
D02*
G37*
G36*
X7403500D02*
X7328500D01*
X7302163Y5117583D01*
X7279836Y5102664D01*
X7264917Y5080337D01*
X7259678Y5054000D01*
Y4939000D01*
X7264917Y4912663D01*
X7279836Y4890336D01*
X7302163Y4875417D01*
X7328500Y4870178D01*
X7403500D01*
X7429837Y4875417D01*
X7452164Y4890336D01*
X7467083Y4912663D01*
X7472322Y4939000D01*
Y5054000D01*
X7467083Y5080337D01*
X7452164Y5102664D01*
X7429837Y5117583D01*
X7403500Y5122822D01*
D02*
G37*
G36*
X7149500D02*
X7074500D01*
X7048163Y5117583D01*
X7025836Y5102664D01*
X7010917Y5080337D01*
X7005678Y5054000D01*
Y4939000D01*
X7010917Y4912663D01*
X7025836Y4890336D01*
X7048163Y4875417D01*
X7074500Y4870178D01*
X7149500D01*
X7175837Y4875417D01*
X7198164Y4890336D01*
X7213083Y4912663D01*
X7218322Y4939000D01*
Y5054000D01*
X7213083Y5080337D01*
X7198164Y5102664D01*
X7175837Y5117583D01*
X7149500Y5122822D01*
D02*
G37*
G36*
X6895500D02*
X6820500D01*
X6794163Y5117583D01*
X6771836Y5102664D01*
X6756917Y5080337D01*
X6751678Y5054000D01*
Y4939000D01*
X6756917Y4912663D01*
X6771836Y4890336D01*
X6794163Y4875417D01*
X6820500Y4870178D01*
X6895500D01*
X6921837Y4875417D01*
X6944164Y4890336D01*
X6959083Y4912663D01*
X6964322Y4939000D01*
Y5054000D01*
X6959083Y5080337D01*
X6944164Y5102664D01*
X6921837Y5117583D01*
X6895500Y5122822D01*
D02*
G37*
G36*
X6641500D02*
X6566500D01*
X6540163Y5117583D01*
X6517836Y5102664D01*
X6502917Y5080337D01*
X6497678Y5054000D01*
Y4939000D01*
X6502917Y4912663D01*
X6517836Y4890336D01*
X6540163Y4875417D01*
X6566500Y4870178D01*
X6641500D01*
X6667837Y4875417D01*
X6690164Y4890336D01*
X6705083Y4912663D01*
X6710322Y4939000D01*
Y5054000D01*
X6705083Y5080337D01*
X6690164Y5102664D01*
X6667837Y5117583D01*
X6641500Y5122822D01*
D02*
G37*
G36*
X6387500D02*
X6312500D01*
X6286163Y5117583D01*
X6263836Y5102664D01*
X6248917Y5080337D01*
X6243678Y5054000D01*
Y4939000D01*
X6248917Y4912663D01*
X6263836Y4890336D01*
X6286163Y4875417D01*
X6312500Y4870178D01*
X6387500D01*
X6413837Y4875417D01*
X6436164Y4890336D01*
X6451083Y4912663D01*
X6456322Y4939000D01*
Y5054000D01*
X6451083Y5080337D01*
X6436164Y5102664D01*
X6413837Y5117583D01*
X6387500Y5122822D01*
D02*
G37*
G36*
X6133500D02*
X6058500D01*
X6032163Y5117583D01*
X6009836Y5102664D01*
X5994917Y5080337D01*
X5989678Y5054000D01*
Y4939000D01*
X5994917Y4912663D01*
X6009836Y4890336D01*
X6032163Y4875417D01*
X6058500Y4870178D01*
X6133500D01*
X6159837Y4875417D01*
X6182164Y4890336D01*
X6197083Y4912663D01*
X6202322Y4939000D01*
Y5054000D01*
X6197083Y5080337D01*
X6182164Y5102664D01*
X6159837Y5117583D01*
X6133500Y5122822D01*
D02*
G37*
G36*
X5371500D02*
X5296500D01*
X5270163Y5117583D01*
X5247836Y5102664D01*
X5232917Y5080337D01*
X5227678Y5054000D01*
Y4939000D01*
X5232917Y4912663D01*
X5247836Y4890336D01*
X5270163Y4875417D01*
X5296500Y4870178D01*
X5371500D01*
X5397837Y4875417D01*
X5420164Y4890336D01*
X5435083Y4912663D01*
X5440322Y4939000D01*
Y5054000D01*
X5435083Y5080337D01*
X5420164Y5102664D01*
X5397837Y5117583D01*
X5371500Y5122822D01*
D02*
G37*
G36*
X4101500D02*
X4026500D01*
X4000163Y5117583D01*
X3977836Y5102664D01*
X3962917Y5080337D01*
X3957678Y5054000D01*
Y4939000D01*
X3962917Y4912663D01*
X3977836Y4890336D01*
X4000163Y4875417D01*
X4026500Y4870178D01*
X4101500D01*
X4127837Y4875417D01*
X4150164Y4890336D01*
X4165083Y4912663D01*
X4170322Y4939000D01*
Y5054000D01*
X4165083Y5080337D01*
X4150164Y5102664D01*
X4127837Y5117583D01*
X4101500Y5122822D01*
D02*
G37*
G36*
X3847500D02*
X3772500D01*
X3746163Y5117583D01*
X3723836Y5102664D01*
X3708917Y5080337D01*
X3703678Y5054000D01*
Y4939000D01*
X3708917Y4912663D01*
X3723836Y4890336D01*
X3746163Y4875417D01*
X3772500Y4870178D01*
X3847500D01*
X3873837Y4875417D01*
X3896164Y4890336D01*
X3911083Y4912663D01*
X3916322Y4939000D01*
Y5054000D01*
X3911083Y5080337D01*
X3896164Y5102664D01*
X3873837Y5117583D01*
X3847500Y5122822D01*
D02*
G37*
G36*
X3593500D02*
X3518500D01*
X3492163Y5117583D01*
X3469836Y5102664D01*
X3454917Y5080337D01*
X3449678Y5054000D01*
Y4939000D01*
X3454917Y4912663D01*
X3469836Y4890336D01*
X3492163Y4875417D01*
X3518500Y4870178D01*
X3593500D01*
X3619837Y4875417D01*
X3642164Y4890336D01*
X3657083Y4912663D01*
X3662322Y4939000D01*
Y5054000D01*
X3657083Y5080337D01*
X3642164Y5102664D01*
X3619837Y5117583D01*
X3593500Y5122822D01*
D02*
G37*
G36*
X3339500D02*
X3264500D01*
X3238163Y5117583D01*
X3215836Y5102664D01*
X3200917Y5080337D01*
X3195678Y5054000D01*
Y4939000D01*
X3200917Y4912663D01*
X3215836Y4890336D01*
X3238163Y4875417D01*
X3264500Y4870178D01*
X3339500D01*
X3365837Y4875417D01*
X3388164Y4890336D01*
X3403083Y4912663D01*
X3408322Y4939000D01*
Y5054000D01*
X3403083Y5080337D01*
X3388164Y5102664D01*
X3365837Y5117583D01*
X3339500Y5122822D01*
D02*
G37*
G36*
X3085500D02*
X3010500D01*
X2984163Y5117583D01*
X2961836Y5102664D01*
X2946917Y5080337D01*
X2941678Y5054000D01*
Y4939000D01*
X2946917Y4912663D01*
X2961836Y4890336D01*
X2984163Y4875417D01*
X3010500Y4870178D01*
X3085500D01*
X3111837Y4875417D01*
X3134164Y4890336D01*
X3149083Y4912663D01*
X3154322Y4939000D01*
Y5054000D01*
X3149083Y5080337D01*
X3134164Y5102664D01*
X3111837Y5117583D01*
X3085500Y5122822D01*
D02*
G37*
G36*
X2831500D02*
X2756500D01*
X2730163Y5117583D01*
X2707836Y5102664D01*
X2692917Y5080337D01*
X2687678Y5054000D01*
Y4939000D01*
X2692917Y4912663D01*
X2707836Y4890336D01*
X2730163Y4875417D01*
X2756500Y4870178D01*
X2831500D01*
X2857837Y4875417D01*
X2880164Y4890336D01*
X2895083Y4912663D01*
X2900322Y4939000D01*
Y5054000D01*
X2895083Y5080337D01*
X2880164Y5102664D01*
X2857837Y5117583D01*
X2831500Y5122822D01*
D02*
G37*
G36*
X2577500D02*
X2502500D01*
X2476163Y5117583D01*
X2453836Y5102664D01*
X2438917Y5080337D01*
X2433678Y5054000D01*
Y4939000D01*
X2438917Y4912663D01*
X2453836Y4890336D01*
X2476163Y4875417D01*
X2502500Y4870178D01*
X2577500D01*
X2603837Y4875417D01*
X2626164Y4890336D01*
X2641083Y4912663D01*
X2646322Y4939000D01*
Y5054000D01*
X2641083Y5080337D01*
X2626164Y5102664D01*
X2603837Y5117583D01*
X2577500Y5122822D01*
D02*
G37*
G36*
X2323500D02*
X2248500D01*
X2222163Y5117583D01*
X2199836Y5102664D01*
X2184917Y5080337D01*
X2179678Y5054000D01*
Y4939000D01*
X2184917Y4912663D01*
X2199836Y4890336D01*
X2222163Y4875417D01*
X2248500Y4870178D01*
X2323500D01*
X2349837Y4875417D01*
X2372164Y4890336D01*
X2387083Y4912663D01*
X2392322Y4939000D01*
Y5054000D01*
X2387083Y5080337D01*
X2372164Y5102664D01*
X2349837Y5117583D01*
X2323500Y5122822D01*
D02*
G37*
G36*
X2143420Y4983800D02*
X2044700D01*
Y4865080D01*
X2069500D01*
X2097788Y4870707D01*
X2121769Y4886731D01*
X2137793Y4910712D01*
X2143420Y4939000D01*
Y4983800D01*
D02*
G37*
G36*
X2019300D02*
X1920580D01*
Y4939000D01*
X1926207Y4910712D01*
X1942231Y4886731D01*
X1966212Y4870707D01*
X1994500Y4865080D01*
X2019300D01*
Y4983800D01*
D02*
G37*
G36*
X8459500Y4995822D02*
X8344500D01*
X8318163Y4990583D01*
X8295836Y4975664D01*
X8280917Y4953337D01*
X8275678Y4927000D01*
Y4852000D01*
X8280917Y4825663D01*
X8295836Y4803336D01*
X8318163Y4788417D01*
X8344500Y4783178D01*
X8459500D01*
X8485837Y4788417D01*
X8508164Y4803336D01*
X8523083Y4825663D01*
X8528322Y4852000D01*
Y4927000D01*
X8523083Y4953337D01*
X8508164Y4975664D01*
X8485837Y4990583D01*
X8459500Y4995822D01*
D02*
G37*
G36*
X7189421Y4774545D02*
X7165552D01*
X7143499Y4765411D01*
X7126621Y4748533D01*
X7117486Y4726480D01*
Y4702611D01*
X7126621Y4680558D01*
X7143499Y4663680D01*
X7165552Y4654545D01*
X7189421D01*
X7211474Y4663680D01*
X7228352Y4680558D01*
X7237486Y4702611D01*
Y4726480D01*
X7228352Y4748533D01*
X7211474Y4765411D01*
X7189421Y4774545D01*
D02*
G37*
G36*
X5661936Y4669998D02*
X5638067D01*
X5616014Y4660864D01*
X5605208Y4650058D01*
X5595409Y4645659D01*
X5585610Y4650058D01*
X5574804Y4660864D01*
X5552752Y4669998D01*
X5528882D01*
X5506830Y4660864D01*
X5495009Y4649043D01*
X5485409Y4645610D01*
X5475810Y4649043D01*
X5463989Y4660864D01*
X5441937Y4669998D01*
X5418067D01*
X5396015Y4660864D01*
X5379136Y4643986D01*
X5370002Y4621933D01*
Y4598064D01*
X5379136Y4576011D01*
X5396015Y4559133D01*
X5418067Y4549999D01*
X5441937D01*
X5463989Y4559133D01*
X5475810Y4570954D01*
X5485409Y4574387D01*
X5495009Y4570954D01*
X5506830Y4559133D01*
X5528882Y4549999D01*
X5552752D01*
X5574804Y4559133D01*
X5585610Y4569939D01*
X5595409Y4574338D01*
X5605208Y4569939D01*
X5616014Y4559133D01*
X5638067Y4549999D01*
X5661936D01*
X5683989Y4559133D01*
X5700867Y4576011D01*
X5710001Y4598064D01*
Y4621933D01*
X5700867Y4643986D01*
X5683989Y4660864D01*
X5661936Y4669998D01*
D02*
G37*
G36*
X7331935Y4740000D02*
X7308065D01*
X7286013Y4730866D01*
X7269135Y4713987D01*
X7260000Y4691935D01*
Y4668065D01*
X7269135Y4646013D01*
X7286013Y4629135D01*
X7308065Y4620000D01*
X7331935D01*
X7353987Y4629135D01*
X7370866Y4646013D01*
X7380000Y4668065D01*
Y4691935D01*
X7370866Y4713987D01*
X7353987Y4730866D01*
X7331935Y4740000D01*
D02*
G37*
G36*
X7501935Y4840000D02*
X7478065D01*
X7456013Y4830866D01*
X7439134Y4813987D01*
X7430000Y4791935D01*
Y4768065D01*
X7439134Y4746013D01*
X7456013Y4729135D01*
X7467876Y4724220D01*
X7468501Y4719629D01*
X7468012Y4709277D01*
X7447755Y4700886D01*
X7430877Y4684008D01*
X7421743Y4661955D01*
Y4638086D01*
X7430877Y4616033D01*
X7447755Y4599155D01*
X7469808Y4590021D01*
X7493677D01*
X7515730Y4599155D01*
X7532608Y4616033D01*
X7541743Y4638086D01*
Y4650000D01*
X7541935D01*
X7563987Y4659134D01*
X7580865Y4676013D01*
X7590000Y4698065D01*
Y4721935D01*
X7580865Y4743987D01*
X7563987Y4760866D01*
X7549503Y4766865D01*
X7550000Y4768065D01*
Y4791935D01*
X7540866Y4813987D01*
X7523987Y4830866D01*
X7501935Y4840000D01*
D02*
G37*
G36*
X4091935Y4780000D02*
X4068065D01*
X4046013Y4770865D01*
X4029134Y4753987D01*
X4020000Y4731935D01*
Y4708065D01*
X4026103Y4693332D01*
X4013422Y4680652D01*
X4004287Y4658599D01*
Y4634730D01*
X4013422Y4612677D01*
X4030300Y4595799D01*
X4052353Y4586664D01*
X4076222D01*
X4098275Y4595799D01*
X4115153Y4612677D01*
X4124287Y4634730D01*
Y4658599D01*
X4118185Y4673332D01*
X4130866Y4686013D01*
X4140000Y4708065D01*
Y4731935D01*
X4130866Y4753987D01*
X4113987Y4770865D01*
X4091935Y4780000D01*
D02*
G37*
G36*
X7011935Y4677500D02*
X6988065D01*
X6966013Y4668366D01*
X6949134Y4651487D01*
X6940000Y4629435D01*
Y4605565D01*
X6949134Y4583513D01*
X6966013Y4566635D01*
X6988065Y4557500D01*
X7011935D01*
X7033987Y4566635D01*
X7050866Y4583513D01*
X7060000Y4605565D01*
Y4629435D01*
X7050866Y4651487D01*
X7033987Y4668366D01*
X7011935Y4677500D01*
D02*
G37*
G36*
X6361935Y4670000D02*
X6338065D01*
X6316013Y4660865D01*
X6299134Y4643987D01*
X6290000Y4621935D01*
Y4598065D01*
X6299134Y4576013D01*
X6316013Y4559134D01*
X6338065Y4550000D01*
X6361935D01*
X6383987Y4559134D01*
X6400866Y4576013D01*
X6410000Y4598065D01*
Y4621935D01*
X6400866Y4643987D01*
X6383987Y4660865D01*
X6361935Y4670000D01*
D02*
G37*
G36*
X3793781Y4668103D02*
X3769912D01*
X3747859Y4658969D01*
X3730981Y4642091D01*
X3721847Y4620038D01*
Y4596169D01*
X3730981Y4574116D01*
X3747859Y4557238D01*
X3769912Y4548104D01*
X3793781D01*
X3815834Y4557238D01*
X3832712Y4574116D01*
X3838900Y4589055D01*
X3855136D01*
X3861369Y4574005D01*
X3878248Y4557126D01*
X3900300Y4547992D01*
X3924170D01*
X3946222Y4557126D01*
X3963101Y4574005D01*
X3972235Y4596057D01*
Y4619926D01*
X3963101Y4641979D01*
X3946222Y4658857D01*
X3924170Y4667992D01*
X3900300D01*
X3878248Y4658857D01*
X3861369Y4641979D01*
X3855182Y4627041D01*
X3838946D01*
X3832712Y4642091D01*
X3815834Y4658969D01*
X3793781Y4668103D01*
D02*
G37*
G36*
X2069500Y4663820D02*
X2044700D01*
Y4545100D01*
X2143420D01*
Y4589900D01*
X2137793Y4618188D01*
X2121769Y4642169D01*
X2097788Y4658193D01*
X2069500Y4663820D01*
D02*
G37*
G36*
X2019300D02*
X1994500D01*
X1966212Y4658193D01*
X1942231Y4642169D01*
X1926207Y4618188D01*
X1920580Y4589900D01*
Y4545100D01*
X2019300D01*
Y4663820D01*
D02*
G37*
G36*
X8459500Y4741822D02*
X8344500D01*
X8318163Y4736583D01*
X8295836Y4721664D01*
X8280917Y4699337D01*
X8275678Y4673000D01*
Y4598000D01*
X8280917Y4571663D01*
X8295836Y4549336D01*
X8318163Y4534417D01*
X8344500Y4529178D01*
X8459500D01*
X8485837Y4534417D01*
X8508164Y4549336D01*
X8523083Y4571663D01*
X8528322Y4598000D01*
Y4673000D01*
X8523083Y4699337D01*
X8508164Y4721664D01*
X8485837Y4736583D01*
X8459500Y4741822D01*
D02*
G37*
G36*
X8165500D02*
X8050500D01*
X8024163Y4736583D01*
X8001836Y4721664D01*
X7986917Y4699337D01*
X7981678Y4673000D01*
Y4598000D01*
X7986917Y4571663D01*
X8001836Y4549336D01*
X8024163Y4534417D01*
X8050500Y4529178D01*
X8165500D01*
X8191837Y4534417D01*
X8214164Y4549336D01*
X8229083Y4571663D01*
X8234322Y4598000D01*
Y4673000D01*
X8229083Y4699337D01*
X8214164Y4721664D01*
X8191837Y4736583D01*
X8165500Y4741822D01*
D02*
G37*
G36*
X5881936Y4649998D02*
X5858066D01*
X5836014Y4640864D01*
X5819135Y4623986D01*
X5810001Y4601933D01*
Y4578064D01*
X5819135Y4556011D01*
X5836014Y4539133D01*
X5858066Y4529999D01*
X5881936D01*
X5897258Y4536345D01*
X5915244Y4532120D01*
X5932122Y4515242D01*
X5954175Y4506107D01*
X5978044D01*
X6000097Y4515242D01*
X6016975Y4532120D01*
X6026109Y4554173D01*
Y4578042D01*
X6016975Y4600094D01*
X6000097Y4616973D01*
X5978044Y4626107D01*
X5954175D01*
X5938852Y4619760D01*
X5920866Y4623986D01*
X5903988Y4640864D01*
X5881936Y4649998D01*
D02*
G37*
G36*
X6811167Y4607500D02*
X6787298D01*
X6765246Y4598365D01*
X6748367Y4581487D01*
X6739233Y4559435D01*
Y4535565D01*
X6748367Y4513513D01*
X6765246Y4496634D01*
X6787298Y4487500D01*
X6811167D01*
X6833220Y4496634D01*
X6850098Y4513513D01*
X6859233Y4535565D01*
Y4559435D01*
X6850098Y4581487D01*
X6833220Y4598365D01*
X6811167Y4607500D01*
D02*
G37*
G36*
X7784390Y4601138D02*
X7760520D01*
X7738468Y4592003D01*
X7721589Y4575125D01*
X7712455Y4553072D01*
Y4529203D01*
X7721589Y4507150D01*
X7738468Y4490272D01*
X7760520Y4481138D01*
X7784390D01*
X7806442Y4490272D01*
X7823320Y4507150D01*
X7832455Y4529203D01*
Y4553072D01*
X7823320Y4575125D01*
X7806442Y4592003D01*
X7784390Y4601138D01*
D02*
G37*
G36*
X3651932Y4569998D02*
X3628063D01*
X3606011Y4560864D01*
X3589132Y4543986D01*
X3579998Y4521933D01*
Y4498064D01*
X3589132Y4476011D01*
X3606011Y4459133D01*
X3628063Y4449999D01*
X3651932D01*
X3673985Y4459133D01*
X3690863Y4476011D01*
X3699998Y4498064D01*
Y4521933D01*
X3690863Y4543986D01*
X3673985Y4560864D01*
X3651932Y4569998D01*
D02*
G37*
G36*
X6131933Y4640001D02*
X6108063D01*
X6086011Y4630867D01*
X6069132Y4613988D01*
X6059998Y4591936D01*
Y4568066D01*
X6069132Y4546014D01*
X6075145Y4540001D01*
X6069132Y4533988D01*
X6059998Y4511936D01*
Y4488066D01*
X6069132Y4466014D01*
X6086011Y4449136D01*
X6108063Y4440001D01*
X6131933D01*
X6153985Y4449136D01*
X6170863Y4466014D01*
X6179998Y4488066D01*
Y4511936D01*
X6170863Y4533988D01*
X6164851Y4540001D01*
X6170863Y4546014D01*
X6179998Y4568066D01*
Y4591936D01*
X6170863Y4613988D01*
X6153985Y4630867D01*
X6131933Y4640001D01*
D02*
G37*
G36*
X2143420Y4519700D02*
X2044700D01*
Y4400980D01*
X2069500D01*
X2097788Y4406607D01*
X2121769Y4422630D01*
X2137793Y4446612D01*
X2143420Y4474900D01*
Y4519700D01*
D02*
G37*
G36*
X2019300D02*
X1920580D01*
Y4474900D01*
X1926207Y4446612D01*
X1942231Y4422630D01*
X1966212Y4406607D01*
X1994500Y4400980D01*
X2019300D01*
Y4519700D01*
D02*
G37*
G36*
X2323500Y4668918D02*
X2248500D01*
X2218261Y4662903D01*
X2192626Y4645774D01*
X2175497Y4620139D01*
X2169482Y4589900D01*
Y4474900D01*
X2175497Y4444661D01*
X2192626Y4419026D01*
X2218261Y4401897D01*
X2248500Y4395882D01*
X2323500D01*
X2353739Y4401897D01*
X2379374Y4419026D01*
X2396503Y4444661D01*
X2402518Y4474900D01*
Y4589900D01*
X2396503Y4620139D01*
X2379374Y4645774D01*
X2353739Y4662903D01*
X2323500Y4668918D01*
D02*
G37*
G36*
X7196070Y4490000D02*
X7172201D01*
X7150148Y4480866D01*
X7133270Y4463987D01*
X7124136Y4441935D01*
Y4418065D01*
X7133270Y4396013D01*
X7150148Y4379134D01*
X7172201Y4370000D01*
X7196070D01*
X7218123Y4379134D01*
X7235001Y4396013D01*
X7244135Y4418065D01*
Y4441935D01*
X7235001Y4463987D01*
X7218123Y4480866D01*
X7196070Y4490000D01*
D02*
G37*
G36*
X4165345Y4454019D02*
X4141476D01*
X4119423Y4444884D01*
X4102545Y4428006D01*
X4093410Y4405954D01*
Y4382084D01*
X4102545Y4360032D01*
X4119423Y4343153D01*
X4141476Y4334019D01*
X4165345D01*
X4187398Y4343153D01*
X4204276Y4360032D01*
X4213410Y4382084D01*
Y4405954D01*
X4204276Y4428006D01*
X4187398Y4444884D01*
X4165345Y4454019D01*
D02*
G37*
G36*
X7049092Y4527089D02*
X7025222D01*
X7003170Y4517955D01*
X6986292Y4501076D01*
X6977157Y4479024D01*
Y4455154D01*
X6986292Y4433102D01*
X6992270Y4427123D01*
X6989134Y4423987D01*
X6980000Y4401935D01*
Y4378065D01*
X6989134Y4356013D01*
X7006013Y4339135D01*
X7028065Y4330000D01*
X7051935D01*
X7073987Y4339135D01*
X7090865Y4356013D01*
X7100000Y4378065D01*
Y4401935D01*
X7090865Y4423987D01*
X7084887Y4429966D01*
X7088023Y4433102D01*
X7097157Y4455154D01*
Y4479024D01*
X7088023Y4501076D01*
X7071144Y4517955D01*
X7049092Y4527089D01*
D02*
G37*
G36*
X2994433Y4429999D02*
X2970564D01*
X2948511Y4420864D01*
X2931633Y4403986D01*
X2922499Y4381934D01*
Y4358064D01*
X2931633Y4336012D01*
X2948511Y4319133D01*
X2970564Y4309999D01*
X2994433D01*
X3016486Y4319133D01*
X3033364Y4336012D01*
X3042498Y4358064D01*
Y4381934D01*
X3033364Y4403986D01*
X3016486Y4420864D01*
X2994433Y4429999D01*
D02*
G37*
G36*
X8459500Y4487822D02*
X8344500D01*
X8318163Y4482583D01*
X8295836Y4467664D01*
X8280917Y4445337D01*
X8275678Y4419000D01*
Y4344000D01*
X8279865Y4322951D01*
X8276917Y4318137D01*
X8270738Y4311475D01*
X8268311Y4310000D01*
X8248065D01*
X8239684Y4306528D01*
X8231389Y4315241D01*
X8229237Y4318437D01*
X8234322Y4344000D01*
Y4419000D01*
X8229083Y4445337D01*
X8214164Y4467664D01*
X8191837Y4482583D01*
X8165500Y4487822D01*
X8050500D01*
X8024163Y4482583D01*
X8001836Y4467664D01*
X7986917Y4445337D01*
X7981678Y4419000D01*
Y4344000D01*
X7986917Y4317663D01*
X8001836Y4295336D01*
X8024163Y4280417D01*
X8050500Y4275178D01*
X8165500D01*
X8191382Y4280326D01*
X8193433Y4278988D01*
X8203377Y4270087D01*
X8200000Y4261935D01*
Y4241089D01*
X8197839Y4237778D01*
X8193260Y4233503D01*
X8187319Y4229482D01*
X8165500Y4233822D01*
X8050500D01*
X8024163Y4228583D01*
X8001836Y4213664D01*
X7986917Y4191337D01*
X7981678Y4165000D01*
Y4090000D01*
X7986917Y4063663D01*
X8001836Y4041336D01*
X8024163Y4026417D01*
X8050500Y4021178D01*
X8165500D01*
X8191837Y4026417D01*
X8214164Y4041336D01*
X8229083Y4063663D01*
X8234322Y4090000D01*
Y4165000D01*
X8231188Y4180755D01*
X8244336Y4191545D01*
X8248065Y4190000D01*
X8265357D01*
X8276709Y4179013D01*
X8277914Y4176241D01*
X8275678Y4165000D01*
Y4090000D01*
X8280917Y4063663D01*
X8295836Y4041336D01*
X8318163Y4026417D01*
X8344500Y4021178D01*
X8459500D01*
X8485837Y4026417D01*
X8508164Y4041336D01*
X8523083Y4063663D01*
X8528322Y4090000D01*
Y4165000D01*
X8523083Y4191337D01*
X8508164Y4213664D01*
X8485837Y4228583D01*
X8459500Y4233822D01*
X8344500D01*
X8333578Y4231650D01*
X8330670Y4233024D01*
X8320000Y4244243D01*
Y4261935D01*
X8318726Y4265011D01*
X8329516Y4278158D01*
X8344500Y4275178D01*
X8459500D01*
X8485837Y4280417D01*
X8508164Y4295336D01*
X8523083Y4317663D01*
X8528322Y4344000D01*
Y4419000D01*
X8523083Y4445337D01*
X8508164Y4467664D01*
X8485837Y4482583D01*
X8459500Y4487822D01*
D02*
G37*
G36*
X3193922Y4430001D02*
X3166075D01*
X3140347Y4419344D01*
X3120656Y4399653D01*
X3109999Y4373925D01*
Y4346078D01*
X3120656Y4320350D01*
X3140347Y4300658D01*
X3166075Y4290002D01*
X3193922D01*
X3219650Y4300658D01*
X3239342Y4320350D01*
X3249999Y4346078D01*
Y4373925D01*
X3239342Y4399653D01*
X3219650Y4419344D01*
X3193922Y4430001D01*
D02*
G37*
G36*
X3391933Y4400001D02*
X3368064D01*
X3346011Y4390867D01*
X3329133Y4373989D01*
X3319998Y4351936D01*
Y4328067D01*
X3329133Y4306014D01*
X3346011Y4289136D01*
X3368064Y4280002D01*
X3391933D01*
X3413986Y4289136D01*
X3430864Y4306014D01*
X3439998Y4328067D01*
Y4351936D01*
X3430864Y4373989D01*
X3413986Y4390867D01*
X3391933Y4400001D01*
D02*
G37*
G36*
X2520164Y4383171D02*
X2496295D01*
X2474242Y4374037D01*
X2457364Y4357159D01*
X2448230Y4335106D01*
Y4311237D01*
X2457364Y4289184D01*
X2474242Y4272306D01*
X2496295Y4263172D01*
X2520164D01*
X2542217Y4272306D01*
X2559095Y4289184D01*
X2568230Y4311237D01*
Y4335106D01*
X2559095Y4357159D01*
X2542217Y4374037D01*
X2520164Y4383171D01*
D02*
G37*
G36*
X7181935Y4350000D02*
X7158065D01*
X7136013Y4340866D01*
X7119134Y4323987D01*
X7110000Y4301935D01*
Y4278065D01*
X7119134Y4256013D01*
X7136013Y4239135D01*
X7158065Y4230000D01*
X7181935D01*
X7203987Y4239135D01*
X7220865Y4256013D01*
X7230000Y4278065D01*
Y4301935D01*
X7220865Y4323987D01*
X7203987Y4340866D01*
X7181935Y4350000D01*
D02*
G37*
G36*
X4461933Y4349999D02*
X4438064D01*
X4416011Y4340865D01*
X4399133Y4323986D01*
X4389999Y4301934D01*
Y4278064D01*
X4399133Y4256012D01*
X4416011Y4239134D01*
X4438064Y4229999D01*
X4461933D01*
X4483986Y4239134D01*
X4500864Y4256012D01*
X4509999Y4278064D01*
Y4301934D01*
X4500864Y4323986D01*
X4483986Y4340865D01*
X4461933Y4349999D01*
D02*
G37*
G36*
X7703253Y4319599D02*
X7679384D01*
X7657331Y4310464D01*
X7640453Y4293586D01*
X7631319Y4271533D01*
Y4247664D01*
X7640453Y4225612D01*
X7657331Y4208733D01*
X7679384Y4199599D01*
X7703253D01*
X7725306Y4208733D01*
X7742184Y4225612D01*
X7751319Y4247664D01*
Y4271533D01*
X7742184Y4293586D01*
X7725306Y4310464D01*
X7703253Y4319599D01*
D02*
G37*
G36*
X7401935Y4310000D02*
X7378065D01*
X7356013Y4300865D01*
X7339134Y4283987D01*
X7330000Y4261935D01*
Y4238065D01*
X7339134Y4216013D01*
X7356013Y4199134D01*
X7378065Y4190000D01*
X7401935D01*
X7423987Y4199134D01*
X7440865Y4216013D01*
X7450000Y4238065D01*
Y4261935D01*
X7440865Y4283987D01*
X7423987Y4300865D01*
X7401935Y4310000D01*
D02*
G37*
G36*
X5931935Y4300000D02*
X5908065D01*
X5886013Y4290865D01*
X5869135Y4273987D01*
X5860000Y4251935D01*
Y4228065D01*
X5869135Y4206013D01*
X5886013Y4189134D01*
X5908065Y4180000D01*
X5931935D01*
X5953987Y4189134D01*
X5970866Y4206013D01*
X5980000Y4228065D01*
Y4251935D01*
X5970866Y4273987D01*
X5953987Y4290865D01*
X5931935Y4300000D01*
D02*
G37*
G36*
X4721933Y4260002D02*
X4698064D01*
X4676011Y4250867D01*
X4659133Y4233989D01*
X4649998Y4211936D01*
Y4188067D01*
X4659133Y4166015D01*
X4676011Y4149136D01*
X4698064Y4140002D01*
X4721933D01*
X4743985Y4149136D01*
X4760864Y4166015D01*
X4769998Y4188067D01*
Y4211936D01*
X4760864Y4233989D01*
X4743985Y4250867D01*
X4721933Y4260002D01*
D02*
G37*
G36*
X2069500Y4364722D02*
X1994500D01*
X1968163Y4359483D01*
X1945836Y4344564D01*
X1930917Y4322237D01*
X1925678Y4295900D01*
Y4180900D01*
X1930917Y4154563D01*
X1945836Y4132236D01*
X1968163Y4117317D01*
X1994500Y4112078D01*
X2069500D01*
X2095837Y4117317D01*
X2118164Y4132236D01*
X2133083Y4154563D01*
X2138322Y4180900D01*
Y4295900D01*
X2133083Y4322237D01*
X2118164Y4344564D01*
X2095837Y4359483D01*
X2069500Y4364722D01*
D02*
G37*
G36*
X2323500Y4374918D02*
X2248500D01*
X2218261Y4368903D01*
X2192626Y4351774D01*
X2175497Y4326139D01*
X2169482Y4295900D01*
Y4180900D01*
X2175497Y4150661D01*
X2192626Y4125026D01*
X2218261Y4107897D01*
X2248500Y4101882D01*
X2323500D01*
X2353739Y4107897D01*
X2379374Y4125026D01*
X2396503Y4150661D01*
X2402518Y4180900D01*
Y4295900D01*
X2396503Y4326139D01*
X2379374Y4351774D01*
X2353739Y4368903D01*
X2323500Y4374918D01*
D02*
G37*
G36*
X6631935Y4770000D02*
X6608065D01*
X6586013Y4760866D01*
X6569134Y4743987D01*
X6560000Y4721935D01*
Y4698065D01*
X6569134Y4676013D01*
X6580379Y4664768D01*
X6584337Y4655000D01*
X6580379Y4645232D01*
X6569134Y4633987D01*
X6560000Y4611935D01*
Y4588065D01*
X6569134Y4566013D01*
X6580147Y4555000D01*
X6573934Y4540000D01*
X6568065D01*
X6546013Y4530865D01*
X6529135Y4513987D01*
X6520000Y4491935D01*
Y4468065D01*
X6526962Y4451259D01*
X6526013Y4450866D01*
X6509135Y4433987D01*
X6500000Y4411935D01*
Y4388065D01*
X6509135Y4366013D01*
X6525542Y4349605D01*
X6520607Y4337689D01*
Y4313819D01*
X6529741Y4291767D01*
X6546619Y4274888D01*
X6568672Y4265754D01*
X6569688D01*
X6575901Y4250754D01*
X6569134Y4243987D01*
X6560000Y4221935D01*
Y4198065D01*
X6569134Y4176013D01*
X6575147Y4170000D01*
X6569134Y4163987D01*
X6560000Y4141935D01*
Y4118065D01*
X6569134Y4096013D01*
X6586013Y4079135D01*
X6608065Y4070000D01*
X6631935D01*
X6653987Y4079135D01*
X6670865Y4096013D01*
X6680000Y4118065D01*
Y4141935D01*
X6670865Y4163987D01*
X6664853Y4170000D01*
X6670865Y4176013D01*
X6680000Y4198065D01*
Y4211571D01*
X6687750D01*
X6709803Y4220706D01*
X6726681Y4237584D01*
X6735815Y4259637D01*
Y4283506D01*
X6726681Y4305559D01*
X6709803Y4322437D01*
X6687750Y4331571D01*
X6663881D01*
X6655607Y4328144D01*
X6640606Y4337689D01*
X6631472Y4359741D01*
X6615064Y4376149D01*
X6620000Y4388065D01*
Y4411935D01*
X6613039Y4428741D01*
X6613987Y4429134D01*
X6630866Y4446013D01*
X6640000Y4468065D01*
Y4468229D01*
X6653705D01*
X6675758Y4477364D01*
X6692636Y4494242D01*
X6701770Y4516294D01*
Y4540164D01*
X6692636Y4562216D01*
X6676130Y4578723D01*
X6680000Y4588065D01*
Y4597500D01*
X6691935D01*
X6713987Y4606634D01*
X6730866Y4623513D01*
X6740000Y4645565D01*
Y4669435D01*
X6730866Y4691487D01*
X6713987Y4708365D01*
X6691935Y4717500D01*
X6680000D01*
Y4721935D01*
X6670865Y4743987D01*
X6653987Y4760866D01*
X6631935Y4770000D01*
D02*
G37*
G36*
X4211936Y4180002D02*
X4188067D01*
X4166015Y4170867D01*
X4149136Y4153989D01*
X4140002Y4131937D01*
Y4108067D01*
X4149136Y4086015D01*
X4166015Y4069136D01*
X4188067Y4060002D01*
X4211936D01*
X4233989Y4069136D01*
X4250867Y4086015D01*
X4260002Y4108067D01*
Y4131937D01*
X4250867Y4153989D01*
X4233989Y4170867D01*
X4211936Y4180002D01*
D02*
G37*
G36*
X2711934Y4160002D02*
X2688065D01*
X2666012Y4150867D01*
X2649134Y4133989D01*
X2640000Y4111937D01*
Y4088067D01*
X2649134Y4066015D01*
X2666012Y4049136D01*
X2688065Y4040002D01*
X2711934D01*
X2733987Y4049136D01*
X2750865Y4066015D01*
X2760000Y4088067D01*
Y4111937D01*
X2750865Y4133989D01*
X2733987Y4150867D01*
X2711934Y4160002D01*
D02*
G37*
G36*
X6761935Y4050000D02*
X6738065D01*
X6716013Y4040865D01*
X6699134Y4023987D01*
X6693742Y4010967D01*
X6671935Y4020000D01*
X6648065D01*
X6626013Y4010865D01*
X6609134Y3993987D01*
X6600000Y3971935D01*
Y3948065D01*
X6609134Y3926013D01*
X6626013Y3909134D01*
X6648065Y3900000D01*
X6671935D01*
X6693987Y3909134D01*
X6710865Y3926013D01*
X6716258Y3939033D01*
X6738065Y3930000D01*
X6761935D01*
X6783987Y3939134D01*
X6800865Y3956013D01*
X6810000Y3978065D01*
Y4001935D01*
X6800865Y4023987D01*
X6783987Y4040865D01*
X6761935Y4050000D01*
D02*
G37*
G36*
X6991935Y4100000D02*
X6968065D01*
X6946013Y4090866D01*
X6929134Y4073987D01*
X6920000Y4051935D01*
Y4028065D01*
X6929134Y4006013D01*
X6946013Y3989135D01*
X6968065Y3980000D01*
X6991935D01*
X7013987Y3989135D01*
X7030866Y4006013D01*
X7040000Y4028065D01*
Y4051935D01*
X7030866Y4073987D01*
X7013987Y4090866D01*
X6991935Y4100000D01*
D02*
G37*
G36*
X7376432Y4074497D02*
X7352563D01*
X7330510Y4065363D01*
X7313632Y4048485D01*
X7304497Y4026432D01*
Y4002563D01*
X7313632Y3980510D01*
X7330510Y3963632D01*
X7352563Y3954498D01*
X7376432D01*
X7398485Y3963632D01*
X7415363Y3980510D01*
X7424497Y4002563D01*
Y4026432D01*
X7415363Y4048485D01*
X7398485Y4065363D01*
X7376432Y4074497D01*
D02*
G37*
G36*
X7148610Y3969711D02*
X7124741D01*
X7102688Y3960577D01*
X7085810Y3943698D01*
X7076675Y3921646D01*
Y3905170D01*
X7061675Y3902187D01*
X7060911Y3904033D01*
X7044033Y3920911D01*
X7021980Y3930045D01*
X6998111D01*
X6976058Y3920911D01*
X6959180Y3904033D01*
X6950046Y3881980D01*
Y3858111D01*
X6959180Y3836058D01*
X6962003Y3833235D01*
X6957312Y3820920D01*
X6942297Y3817556D01*
X6938987Y3820866D01*
X6916935Y3830000D01*
X6893065D01*
X6871013Y3820866D01*
X6867500Y3817353D01*
X6863987Y3820866D01*
X6841935Y3830000D01*
X6818670D01*
Y3846521D01*
X6809536Y3868573D01*
X6792657Y3885452D01*
X6770605Y3894586D01*
X6746735D01*
X6724683Y3885452D01*
X6707804Y3868573D01*
X6698670Y3846521D01*
Y3822651D01*
X6707804Y3800599D01*
X6724683Y3783721D01*
X6746735Y3774586D01*
X6770000D01*
Y3758065D01*
X6779135Y3736013D01*
X6796013Y3719135D01*
X6818065Y3710000D01*
X6841935D01*
X6863987Y3719135D01*
X6867500Y3722647D01*
X6871013Y3719135D01*
X6893065Y3710000D01*
X6916935D01*
X6938987Y3719135D01*
X6955346Y3735494D01*
X6970298Y3737382D01*
X6976013Y3731667D01*
X6998066Y3722533D01*
X7021935D01*
X7043987Y3731667D01*
X7057197Y3744877D01*
X7066884Y3746366D01*
X7074984Y3743433D01*
X7075023Y3743298D01*
X7067907Y3726118D01*
Y3702248D01*
X7077041Y3680196D01*
X7093920Y3663318D01*
X7115972Y3654183D01*
X7139842D01*
X7161894Y3663318D01*
X7178773Y3680196D01*
X7187907Y3702248D01*
Y3726118D01*
X7178773Y3748170D01*
X7173774Y3753169D01*
X7180865Y3760261D01*
X7190000Y3782314D01*
Y3806183D01*
X7180865Y3828236D01*
X7167713Y3841388D01*
X7168856Y3858097D01*
X7170663Y3858846D01*
X7187541Y3875724D01*
X7196675Y3897777D01*
Y3921646D01*
X7187541Y3943698D01*
X7170663Y3960577D01*
X7148610Y3969711D01*
D02*
G37*
G36*
X4171937Y3990000D02*
X4148067D01*
X4126015Y3980865D01*
X4109136Y3963987D01*
X4100002Y3941934D01*
Y3918065D01*
X4109136Y3896013D01*
X4126015Y3879134D01*
X4148067Y3870000D01*
X4171937D01*
X4193989Y3879134D01*
X4210867Y3896013D01*
X4220002Y3918065D01*
Y3941934D01*
X4210867Y3963987D01*
X4193989Y3980865D01*
X4171937Y3990000D01*
D02*
G37*
G36*
X2516182Y3974247D02*
X2492312D01*
X2470260Y3965112D01*
X2453381Y3948234D01*
X2444247Y3926181D01*
Y3902312D01*
X2453381Y3880259D01*
X2470260Y3863381D01*
X2492312Y3854247D01*
X2516182D01*
X2538234Y3863381D01*
X2555112Y3880259D01*
X2564247Y3902312D01*
Y3926181D01*
X2555112Y3948234D01*
X2538234Y3965112D01*
X2516182Y3974247D01*
D02*
G37*
G36*
X2991934Y3900002D02*
X2968064D01*
X2946012Y3890868D01*
X2929134Y3873990D01*
X2919999Y3851937D01*
Y3828068D01*
X2929134Y3806015D01*
X2946012Y3789137D01*
X2968064Y3780003D01*
X2991934D01*
X3013986Y3789137D01*
X3030865Y3806015D01*
X3039999Y3828068D01*
Y3851937D01*
X3030865Y3873990D01*
X3013986Y3890868D01*
X2991934Y3900002D01*
D02*
G37*
G36*
X8459500Y3979822D02*
X8344500D01*
X8318163Y3974583D01*
X8295836Y3959664D01*
X8280917Y3937337D01*
X8275678Y3911000D01*
Y3836000D01*
X8280917Y3809663D01*
X8295836Y3787336D01*
X8318163Y3772417D01*
X8344500Y3767178D01*
X8459500D01*
X8485837Y3772417D01*
X8508164Y3787336D01*
X8523083Y3809663D01*
X8528322Y3836000D01*
Y3911000D01*
X8523083Y3937337D01*
X8508164Y3959664D01*
X8485837Y3974583D01*
X8459500Y3979822D01*
D02*
G37*
G36*
X8165500D02*
X8050500D01*
X8024163Y3974583D01*
X8001836Y3959664D01*
X7986917Y3937337D01*
X7981678Y3911000D01*
Y3836000D01*
X7986917Y3809663D01*
X8001836Y3787336D01*
X8024163Y3772417D01*
X8050500Y3767178D01*
X8165500D01*
X8191837Y3772417D01*
X8214164Y3787336D01*
X8229083Y3809663D01*
X8234322Y3836000D01*
Y3911000D01*
X8229083Y3937337D01*
X8214164Y3959664D01*
X8191837Y3974583D01*
X8165500Y3979822D01*
D02*
G37*
G36*
X5141937Y3880002D02*
X5118068D01*
X5096015Y3870868D01*
X5079137Y3853990D01*
X5070003Y3831937D01*
Y3808068D01*
X5079137Y3786015D01*
X5096015Y3769137D01*
X5118068Y3760003D01*
X5141937D01*
X5163990Y3769137D01*
X5180868Y3786015D01*
X5190002Y3808068D01*
Y3831937D01*
X5180868Y3853990D01*
X5163990Y3870868D01*
X5141937Y3880002D01*
D02*
G37*
G36*
X4721923Y3849995D02*
X4698053D01*
X4676001Y3840860D01*
X4659123Y3823982D01*
X4649988Y3801930D01*
Y3778060D01*
X4659123Y3756008D01*
X4676001Y3739129D01*
X4698053Y3729995D01*
X4721923D01*
X4743975Y3739129D01*
X4760854Y3756008D01*
X4769988Y3778060D01*
Y3801930D01*
X4760854Y3823982D01*
X4743975Y3840860D01*
X4721923Y3849995D01*
D02*
G37*
G36*
X7301935Y3820000D02*
X7278065D01*
X7256013Y3810866D01*
X7239134Y3793987D01*
X7230000Y3771935D01*
Y3748065D01*
X7239134Y3726013D01*
X7256013Y3709135D01*
X7278065Y3700000D01*
X7301935D01*
X7323987Y3709135D01*
X7340865Y3726013D01*
X7350000Y3748065D01*
Y3771935D01*
X7340865Y3793987D01*
X7323987Y3810866D01*
X7301935Y3820000D01*
D02*
G37*
G36*
X4471936Y4120002D02*
X4448067D01*
X4426014Y4110868D01*
X4409136Y4093989D01*
X4400001Y4071937D01*
Y4048067D01*
X4404759Y4036581D01*
X4406014Y4020865D01*
X4389136Y4003987D01*
X4380001Y3981934D01*
Y3958065D01*
X4389136Y3936012D01*
X4406014Y3919134D01*
X4425074Y3911239D01*
X4427058Y3900337D01*
X4426566Y3895621D01*
X4416672Y3891523D01*
X4399794Y3874645D01*
X4390659Y3852592D01*
Y3828723D01*
X4395552Y3816911D01*
X4395977Y3802050D01*
X4390198Y3795052D01*
X4379133Y3783987D01*
X4369999Y3761935D01*
Y3738065D01*
X4379133Y3716013D01*
X4396012Y3699135D01*
X4418064Y3690000D01*
X4441933D01*
X4463986Y3699135D01*
X4480864Y3716013D01*
X4489999Y3738065D01*
Y3761935D01*
X4485106Y3773747D01*
X4484680Y3788608D01*
X4490460Y3795606D01*
X4501525Y3806671D01*
X4510659Y3828723D01*
Y3852592D01*
X4501525Y3874645D01*
X4484646Y3891523D01*
X4465586Y3899418D01*
X4463602Y3910320D01*
X4464095Y3915036D01*
X4473989Y3919134D01*
X4490867Y3936012D01*
X4500001Y3958065D01*
Y3981934D01*
X4495243Y3993421D01*
X4493989Y4009137D01*
X4510867Y4026015D01*
X4520001Y4048067D01*
Y4071937D01*
X4510867Y4093989D01*
X4493988Y4110868D01*
X4471936Y4120002D01*
D02*
G37*
G36*
X4828120Y3763818D02*
X4804251D01*
X4782198Y3754683D01*
X4765320Y3737805D01*
X4756186Y3715753D01*
Y3691883D01*
X4765320Y3669831D01*
X4782198Y3652952D01*
X4804251Y3643818D01*
X4828120D01*
X4850173Y3652952D01*
X4867051Y3669831D01*
X4876185Y3691883D01*
Y3715753D01*
X4867051Y3737805D01*
X4850173Y3754683D01*
X4828120Y3763818D01*
D02*
G37*
G36*
X5511934Y3830000D02*
X5488064D01*
X5466012Y3820866D01*
X5449134Y3803987D01*
X5439999Y3781935D01*
Y3758065D01*
X5449134Y3736013D01*
X5466012Y3719135D01*
X5480497Y3713135D01*
X5479999Y3711932D01*
Y3688063D01*
X5489134Y3666010D01*
X5506012Y3649132D01*
X5528064Y3639998D01*
X5551934D01*
X5573986Y3649132D01*
X5590865Y3666010D01*
X5599999Y3688063D01*
Y3711932D01*
X5590865Y3733985D01*
X5573986Y3750863D01*
X5559501Y3756863D01*
X5559999Y3758065D01*
Y3781935D01*
X5550865Y3803987D01*
X5533986Y3820866D01*
X5511934Y3830000D01*
D02*
G37*
G36*
X3171791Y3685738D02*
X3147922D01*
X3125869Y3676604D01*
X3108991Y3659725D01*
X3099857Y3637673D01*
Y3613804D01*
X3108991Y3591751D01*
X3125869Y3574873D01*
X3147922Y3565738D01*
X3171791D01*
X3193844Y3574873D01*
X3210722Y3591751D01*
X3219856Y3613804D01*
Y3637673D01*
X3210722Y3659725D01*
X3193844Y3676604D01*
X3171791Y3685738D01*
D02*
G37*
G36*
X3571933Y3659998D02*
X3548063D01*
X3526011Y3650863D01*
X3509132Y3633985D01*
X3499998Y3611933D01*
Y3588063D01*
X3509132Y3566011D01*
X3526011Y3549132D01*
X3548063Y3539998D01*
X3571933D01*
X3593985Y3549132D01*
X3610863Y3566011D01*
X3619998Y3588063D01*
Y3611933D01*
X3610863Y3633985D01*
X3593985Y3650863D01*
X3571933Y3659998D01*
D02*
G37*
G36*
X4652103Y3638276D02*
X4628234D01*
X4606181Y3629141D01*
X4589303Y3612263D01*
X4580169Y3590210D01*
Y3566341D01*
X4589303Y3544289D01*
X4606181Y3527410D01*
X4628234Y3518276D01*
X4652103D01*
X4674156Y3527410D01*
X4691034Y3544289D01*
X4700168Y3566341D01*
Y3590210D01*
X4691034Y3612263D01*
X4674156Y3629141D01*
X4652103Y3638276D01*
D02*
G37*
G36*
X8459500Y3725822D02*
X8344500D01*
X8318163Y3720583D01*
X8295836Y3705664D01*
X8280917Y3683337D01*
X8275678Y3657000D01*
Y3582000D01*
X8280917Y3555663D01*
X8295836Y3533336D01*
X8318163Y3518417D01*
X8344500Y3513178D01*
X8459500D01*
X8485837Y3518417D01*
X8508164Y3533336D01*
X8523083Y3555663D01*
X8528322Y3582000D01*
Y3657000D01*
X8523083Y3683337D01*
X8508164Y3705664D01*
X8485837Y3720583D01*
X8459500Y3725822D01*
D02*
G37*
G36*
X8165500D02*
X8050500D01*
X8024163Y3720583D01*
X8001836Y3705664D01*
X7986917Y3683337D01*
X7981678Y3657000D01*
Y3582000D01*
X7986917Y3555663D01*
X8001836Y3533336D01*
X8024163Y3518417D01*
X8050500Y3513178D01*
X8165500D01*
X8191837Y3518417D01*
X8214164Y3533336D01*
X8229083Y3555663D01*
X8234322Y3582000D01*
Y3657000D01*
X8229083Y3683337D01*
X8214164Y3705664D01*
X8191837Y3720583D01*
X8165500Y3725822D01*
D02*
G37*
G36*
X6741935Y3630000D02*
X6718065D01*
X6696013Y3620866D01*
X6679134Y3603987D01*
X6670000Y3581935D01*
Y3558065D01*
X6679134Y3536013D01*
X6696013Y3519134D01*
X6718065Y3510000D01*
X6741935D01*
X6763987Y3519134D01*
X6780866Y3536013D01*
X6790000Y3558065D01*
Y3581935D01*
X6780866Y3603987D01*
X6763987Y3620866D01*
X6741935Y3630000D01*
D02*
G37*
G36*
X5231934Y3590000D02*
X5208065D01*
X5186012Y3580866D01*
X5169134Y3563988D01*
X5160000Y3541935D01*
Y3518066D01*
X5169134Y3496013D01*
X5186012Y3479135D01*
X5208065Y3470001D01*
X5231934D01*
X5253987Y3479135D01*
X5270865Y3496013D01*
X5280000Y3518066D01*
Y3541935D01*
X5270865Y3563988D01*
X5253987Y3580866D01*
X5231934Y3590000D01*
D02*
G37*
G36*
X4781933Y3559998D02*
X4758063D01*
X4736011Y3550864D01*
X4719133Y3533985D01*
X4709998Y3511933D01*
Y3488063D01*
X4719133Y3466011D01*
X4736011Y3449133D01*
X4758063Y3439998D01*
X4781933D01*
X4803985Y3449133D01*
X4820864Y3466011D01*
X4829998Y3488063D01*
Y3511933D01*
X4820864Y3533985D01*
X4803985Y3550864D01*
X4781933Y3559998D01*
D02*
G37*
G36*
X2703997Y3564999D02*
X2676150D01*
X2650422Y3554342D01*
X2630730Y3534651D01*
X2620073Y3508923D01*
Y3481076D01*
X2630730Y3455348D01*
X2650422Y3435656D01*
X2676150Y3424999D01*
X2703997D01*
X2729725Y3435656D01*
X2749416Y3455348D01*
X2760073Y3481076D01*
Y3508923D01*
X2749416Y3534651D01*
X2729725Y3554342D01*
X2703997Y3564999D01*
D02*
G37*
G36*
X7571935Y3450000D02*
X7548065D01*
X7526013Y3440866D01*
X7509135Y3423987D01*
X7503118Y3409462D01*
X7486882D01*
X7480866Y3423987D01*
X7463987Y3440866D01*
X7441935Y3450000D01*
X7418065D01*
X7396013Y3440866D01*
X7379135Y3423987D01*
X7370000Y3401935D01*
Y3378065D01*
X7379135Y3356013D01*
X7396013Y3339135D01*
X7418065Y3330000D01*
X7441935D01*
X7463987Y3339135D01*
X7480866Y3356013D01*
X7486882Y3370538D01*
X7503118D01*
X7509135Y3356013D01*
X7526013Y3339135D01*
X7548065Y3330000D01*
X7571935D01*
X7593987Y3339135D01*
X7610866Y3356013D01*
X7620000Y3378065D01*
Y3401935D01*
X7610866Y3423987D01*
X7593987Y3440866D01*
X7571935Y3450000D01*
D02*
G37*
G36*
X4927795Y3529142D02*
X4903925D01*
X4881873Y3520008D01*
X4864995Y3503129D01*
X4855860Y3481077D01*
Y3457207D01*
X4864995Y3435155D01*
X4881873Y3418277D01*
X4903925Y3409142D01*
X4927795D01*
X4949847Y3418277D01*
X4966726Y3435155D01*
X4975860Y3457207D01*
Y3481077D01*
X4966726Y3503129D01*
X4949847Y3520008D01*
X4927795Y3529142D01*
D02*
G37*
G36*
X6471935Y3520000D02*
X6448065D01*
X6426013Y3510865D01*
X6409135Y3493987D01*
X6400000Y3471935D01*
Y3448065D01*
X6409135Y3426013D01*
X6426013Y3409134D01*
X6448065Y3400000D01*
X6471935D01*
X6493987Y3409134D01*
X6510866Y3426013D01*
X6520000Y3448065D01*
Y3471935D01*
X6510866Y3493987D01*
X6493987Y3510865D01*
X6471935Y3520000D01*
D02*
G37*
G36*
X4491936Y3519998D02*
X4468067D01*
X4446014Y3510864D01*
X4429136Y3493985D01*
X4420001Y3471933D01*
Y3448063D01*
X4429136Y3426011D01*
X4446014Y3409133D01*
X4468067Y3399998D01*
X4491936D01*
X4513988Y3409133D01*
X4530867Y3426011D01*
X4540001Y3448063D01*
Y3471933D01*
X4530867Y3493985D01*
X4513988Y3510864D01*
X4491936Y3519998D01*
D02*
G37*
G36*
X6843948Y3517082D02*
X6820079D01*
X6798027Y3507948D01*
X6781148Y3491069D01*
X6772014Y3469017D01*
Y3445148D01*
X6781148Y3423095D01*
X6798027Y3406217D01*
X6820079Y3397082D01*
X6843948D01*
X6866001Y3406217D01*
X6882879Y3423095D01*
X6892014Y3445148D01*
Y3469017D01*
X6882879Y3491069D01*
X6866001Y3507948D01*
X6843948Y3517082D01*
D02*
G37*
G36*
X7032319Y3512498D02*
X7008449D01*
X6986397Y3503364D01*
X6969518Y3486486D01*
X6960384Y3464433D01*
Y3440564D01*
X6969518Y3418511D01*
X6986397Y3401633D01*
X7008449Y3392499D01*
X7032319D01*
X7054371Y3401633D01*
X7071250Y3418511D01*
X7080384Y3440564D01*
Y3464433D01*
X7071250Y3486486D01*
X7054371Y3503364D01*
X7032319Y3512498D01*
D02*
G37*
G36*
X3186424Y3504999D02*
X3158577D01*
X3132849Y3494343D01*
X3113158Y3474651D01*
X3102501Y3448923D01*
Y3421076D01*
X3113158Y3395348D01*
X3132849Y3375656D01*
X3158577Y3365000D01*
X3186424D01*
X3212152Y3375656D01*
X3231844Y3395348D01*
X3242500Y3421076D01*
Y3448923D01*
X3231844Y3474651D01*
X3212152Y3494343D01*
X3186424Y3504999D01*
D02*
G37*
G36*
X3481935Y3459998D02*
X3458066D01*
X3436013Y3450864D01*
X3419135Y3433986D01*
X3410001Y3411933D01*
Y3388064D01*
X3419135Y3366011D01*
X3436013Y3349133D01*
X3458066Y3339998D01*
X3481935D01*
X3503988Y3349133D01*
X3520866Y3366011D01*
X3524998Y3375986D01*
X3539998Y3373002D01*
Y3358066D01*
X3549132Y3336014D01*
X3566011Y3319135D01*
X3588063Y3310001D01*
X3611933D01*
X3633985Y3319135D01*
X3650863Y3336014D01*
X3659998Y3358066D01*
Y3381936D01*
X3650863Y3403988D01*
X3633985Y3420866D01*
X3611933Y3430001D01*
X3588063D01*
X3566011Y3420866D01*
X3549132Y3403988D01*
X3545001Y3394013D01*
X3530001Y3396997D01*
Y3411933D01*
X3520866Y3433986D01*
X3503988Y3450864D01*
X3481935Y3459998D01*
D02*
G37*
G36*
X4189752Y3572327D02*
X4165883D01*
X4143830Y3563193D01*
X4126952Y3546314D01*
X4117818Y3524262D01*
Y3500393D01*
X4126952Y3478340D01*
X4143830Y3461462D01*
X4165883Y3452327D01*
X4189752D01*
X4190502Y3451826D01*
Y3449450D01*
X4199637Y3427398D01*
X4216035Y3411000D01*
X4216007Y3410859D01*
X4199129Y3393981D01*
X4189994Y3371928D01*
Y3348059D01*
X4199129Y3326006D01*
X4216007Y3309128D01*
X4238059Y3299993D01*
X4261929D01*
X4283981Y3309128D01*
X4300860Y3326006D01*
X4309994Y3348059D01*
Y3371928D01*
X4300860Y3393981D01*
X4294977Y3399863D01*
X4294988Y3421019D01*
X4301368Y3427398D01*
X4310502Y3449450D01*
Y3473320D01*
X4301368Y3495372D01*
X4284489Y3512251D01*
X4262437Y3521385D01*
X4238568D01*
X4237817Y3521886D01*
Y3524262D01*
X4228683Y3546314D01*
X4211805Y3563193D01*
X4189752Y3572327D01*
D02*
G37*
G36*
X8459500Y3471822D02*
X8344500D01*
X8318163Y3466583D01*
X8295836Y3451664D01*
X8280917Y3429337D01*
X8275678Y3403000D01*
Y3328000D01*
X8280917Y3301663D01*
X8295836Y3279336D01*
X8318163Y3264417D01*
X8344500Y3259178D01*
X8459500D01*
X8485837Y3264417D01*
X8508164Y3279336D01*
X8523083Y3301663D01*
X8528322Y3328000D01*
Y3403000D01*
X8523083Y3429337D01*
X8508164Y3451664D01*
X8485837Y3466583D01*
X8459500Y3471822D01*
D02*
G37*
G36*
X8165500D02*
X8050500D01*
X8024163Y3466583D01*
X8001836Y3451664D01*
X7986917Y3429337D01*
X7981678Y3403000D01*
Y3328000D01*
X7986917Y3301663D01*
X8001836Y3279336D01*
X8024163Y3264417D01*
X8050500Y3259178D01*
X8165500D01*
X8191837Y3264417D01*
X8214164Y3279336D01*
X8229083Y3301663D01*
X8234322Y3328000D01*
Y3403000D01*
X8229083Y3429337D01*
X8214164Y3451664D01*
X8191837Y3466583D01*
X8165500Y3471822D01*
D02*
G37*
G36*
X7491935Y3270000D02*
X7468065D01*
X7446013Y3260865D01*
X7435640Y3250493D01*
X7416125Y3248794D01*
X7413575Y3251345D01*
X7391522Y3260479D01*
X7367653D01*
X7345600Y3251345D01*
X7328722Y3234466D01*
X7319588Y3212414D01*
Y3188545D01*
X7328722Y3166492D01*
X7345600Y3149614D01*
X7359433Y3143884D01*
X7360477Y3141820D01*
X7361811Y3126663D01*
X7349139Y3113991D01*
X7342089Y3096971D01*
X7329563Y3091684D01*
X7325004Y3091573D01*
X7305120Y3099809D01*
X7281250D01*
X7259198Y3090675D01*
X7242319Y3073796D01*
X7233185Y3051744D01*
Y3027875D01*
X7242319Y3005822D01*
X7259198Y2988944D01*
X7281250Y2979809D01*
X7305120D01*
X7327172Y2988944D01*
X7344050Y3005822D01*
X7350713Y3021907D01*
X7364958Y3027707D01*
X7365144Y3027629D01*
X7377578Y3017245D01*
Y3001331D01*
X7386713Y2979279D01*
X7403591Y2962400D01*
X7425644Y2953266D01*
X7449513D01*
X7471565Y2962400D01*
X7488444Y2979279D01*
X7497578Y3001331D01*
Y3025201D01*
X7488444Y3047253D01*
X7471565Y3064132D01*
X7460004Y3068920D01*
Y3089105D01*
X7471720Y3093957D01*
X7488598Y3110836D01*
X7497733Y3132888D01*
Y3152402D01*
X7513987Y3159134D01*
X7530866Y3176013D01*
X7540000Y3198065D01*
Y3221935D01*
X7530866Y3243987D01*
X7513987Y3260865D01*
X7491935Y3270000D01*
D02*
G37*
G36*
X6681935Y3440000D02*
X6658065D01*
X6636013Y3430866D01*
X6619135Y3413987D01*
X6610000Y3391935D01*
Y3368065D01*
X6619135Y3346013D01*
X6636013Y3329135D01*
X6658065Y3320000D01*
X6663934D01*
X6670147Y3305000D01*
X6659135Y3293987D01*
X6650000Y3271935D01*
Y3248065D01*
X6659135Y3226013D01*
X6676013Y3209135D01*
X6698065Y3200000D01*
X6721935D01*
X6743987Y3209135D01*
X6760866Y3226013D01*
X6770000Y3248065D01*
Y3271935D01*
X6760866Y3293987D01*
X6743987Y3310866D01*
X6721935Y3320000D01*
X6716066D01*
X6709853Y3335000D01*
X6720866Y3346013D01*
X6730000Y3368065D01*
Y3391935D01*
X6720866Y3413987D01*
X6703987Y3430866D01*
X6681935Y3440000D01*
D02*
G37*
G36*
X4891935Y3299998D02*
X4868066D01*
X4846013Y3290864D01*
X4829135Y3273986D01*
X4820001Y3251933D01*
Y3228064D01*
X4829135Y3206011D01*
X4846013Y3189133D01*
X4868066Y3179999D01*
X4891935D01*
X4913988Y3189133D01*
X4930866Y3206011D01*
X4940000Y3228064D01*
Y3251933D01*
X4930866Y3273986D01*
X4913988Y3290864D01*
X4891935Y3299998D01*
D02*
G37*
G36*
X7051878Y3298075D02*
X7028009D01*
X7005956Y3288940D01*
X6989078Y3272062D01*
X6979944Y3250010D01*
Y3226140D01*
X6989078Y3204088D01*
X7005956Y3187209D01*
X7028009Y3178075D01*
X7051878D01*
X7073931Y3187209D01*
X7090809Y3204088D01*
X7099943Y3226140D01*
Y3250010D01*
X7090809Y3272062D01*
X7073931Y3288940D01*
X7051878Y3298075D01*
D02*
G37*
G36*
X8459500Y3222920D02*
X8414700D01*
Y3124200D01*
X8533420D01*
Y3149000D01*
X8527793Y3177288D01*
X8511769Y3201269D01*
X8487788Y3217293D01*
X8459500Y3222920D01*
D02*
G37*
G36*
X8389300D02*
X8344500D01*
X8316212Y3217293D01*
X8292231Y3201269D01*
X8276207Y3177288D01*
X8270580Y3149000D01*
Y3124200D01*
X8389300D01*
Y3222920D01*
D02*
G37*
G36*
X2961936Y3230001D02*
X2938067D01*
X2916014Y3220867D01*
X2899136Y3203989D01*
X2890002Y3181936D01*
Y3158067D01*
X2899136Y3136014D01*
X2916014Y3119136D01*
X2938067Y3110001D01*
X2961936D01*
X2983989Y3119136D01*
X3000867Y3136014D01*
X3010002Y3158067D01*
Y3181936D01*
X3000867Y3203989D01*
X2983989Y3220867D01*
X2961936Y3230001D01*
D02*
G37*
G36*
X5009080Y3225409D02*
X4985211D01*
X4963158Y3216274D01*
X4946280Y3199396D01*
X4937145Y3177344D01*
Y3153474D01*
X4946280Y3131422D01*
X4963158Y3114543D01*
X4985211Y3105409D01*
X5009080D01*
X5031132Y3114543D01*
X5048011Y3131422D01*
X5057145Y3153474D01*
Y3177344D01*
X5048011Y3199396D01*
X5031132Y3216274D01*
X5009080Y3225409D01*
D02*
G37*
G36*
X5361935Y3220000D02*
X5338065D01*
X5316013Y3210866D01*
X5299134Y3193987D01*
X5290000Y3171935D01*
Y3148065D01*
X5299134Y3126013D01*
X5316013Y3109134D01*
X5338065Y3100000D01*
X5361935D01*
X5383987Y3109134D01*
X5400865Y3126013D01*
X5410000Y3148065D01*
Y3171935D01*
X5400865Y3193987D01*
X5383987Y3210866D01*
X5361935Y3220000D01*
D02*
G37*
G36*
X6770412Y3192500D02*
X6746543D01*
X6724490Y3183365D01*
X6707612Y3166487D01*
X6698477Y3144435D01*
Y3120565D01*
X6707612Y3098513D01*
X6724490Y3081634D01*
X6746543Y3072500D01*
X6770412D01*
X6792464Y3081634D01*
X6809343Y3098513D01*
X6818477Y3120565D01*
Y3144435D01*
X6809343Y3166487D01*
X6792464Y3183365D01*
X6770412Y3192500D01*
D02*
G37*
G36*
X7171699Y3153321D02*
X7147830D01*
X7125777Y3144186D01*
X7108899Y3127308D01*
X7099765Y3105255D01*
Y3081386D01*
X7108899Y3059333D01*
X7125777Y3042455D01*
X7147830Y3033321D01*
X7171699D01*
X7193752Y3042455D01*
X7210630Y3059333D01*
X7219765Y3081386D01*
Y3105255D01*
X7210630Y3127308D01*
X7193752Y3144186D01*
X7171699Y3153321D01*
D02*
G37*
G36*
X4104433Y3150001D02*
X4080564D01*
X4058512Y3140867D01*
X4041633Y3123989D01*
X4032499Y3101936D01*
Y3078067D01*
X4041633Y3056014D01*
X4058512Y3039136D01*
X4080564Y3030002D01*
X4104433D01*
X4126486Y3039136D01*
X4143364Y3056014D01*
X4152499Y3078067D01*
Y3101936D01*
X4143364Y3123989D01*
X4126486Y3140867D01*
X4104433Y3150001D01*
D02*
G37*
G36*
X4731935Y3145003D02*
X4708066D01*
X4686013Y3135868D01*
X4669135Y3118990D01*
X4660001Y3096937D01*
Y3073068D01*
X4669135Y3051015D01*
X4686013Y3034137D01*
X4708066Y3025003D01*
X4731935D01*
X4753988Y3034137D01*
X4770866Y3051015D01*
X4780001Y3073068D01*
Y3096937D01*
X4770866Y3118990D01*
X4753988Y3135868D01*
X4731935Y3145003D01*
D02*
G37*
G36*
X8165500Y3217822D02*
X8050500D01*
X8024163Y3212583D01*
X8001836Y3197664D01*
X7986917Y3175337D01*
X7981678Y3149000D01*
Y3074000D01*
X7986917Y3047663D01*
X8001836Y3025336D01*
X8024163Y3010417D01*
X8050500Y3005178D01*
X8165500D01*
X8191837Y3010417D01*
X8214164Y3025336D01*
X8229083Y3047663D01*
X8234322Y3074000D01*
Y3149000D01*
X8229083Y3175337D01*
X8214164Y3197664D01*
X8191837Y3212583D01*
X8165500Y3217822D01*
D02*
G37*
G36*
X8533420Y3098800D02*
X8414700D01*
Y3000080D01*
X8459500D01*
X8487788Y3005707D01*
X8511769Y3021731D01*
X8527793Y3045712D01*
X8533420Y3074000D01*
Y3098800D01*
D02*
G37*
G36*
X8389300D02*
X8270580D01*
Y3074000D01*
X8276207Y3045712D01*
X8292231Y3021731D01*
X8316212Y3005707D01*
X8344500Y3000080D01*
X8389300D01*
Y3098800D01*
D02*
G37*
G36*
X4331936Y3190001D02*
X4308067D01*
X4286014Y3180867D01*
X4269136Y3163989D01*
X4260002Y3141936D01*
Y3118067D01*
X4264759Y3106581D01*
X4266014Y3090864D01*
X4249136Y3073986D01*
X4240002Y3051934D01*
Y3028064D01*
X4249136Y3006012D01*
X4266014Y2989133D01*
X4288067Y2979999D01*
X4311936D01*
X4333989Y2989133D01*
X4350867Y3006012D01*
X4360001Y3028064D01*
Y3051934D01*
X4355244Y3063420D01*
X4353989Y3079136D01*
X4370867Y3096014D01*
X4380001Y3118067D01*
Y3141936D01*
X4370867Y3163989D01*
X4353989Y3180867D01*
X4331936Y3190001D01*
D02*
G37*
G36*
X3113290Y3079999D02*
X3089421D01*
X3067368Y3070865D01*
X3050490Y3053986D01*
X3041355Y3031934D01*
Y3008064D01*
X3050490Y2986012D01*
X3067368Y2969134D01*
X3089421Y2959999D01*
X3113290D01*
X3135342Y2969134D01*
X3152221Y2986012D01*
X3161355Y3008064D01*
Y3031934D01*
X3152221Y3053986D01*
X3135342Y3070865D01*
X3113290Y3079999D01*
D02*
G37*
G36*
X2901937Y3070001D02*
X2878067D01*
X2856015Y3060867D01*
X2839136Y3043989D01*
X2830002Y3021936D01*
Y2998067D01*
X2839136Y2976014D01*
X2856015Y2959136D01*
X2878067Y2950002D01*
X2901937D01*
X2923989Y2959136D01*
X2940867Y2976014D01*
X2950002Y2998067D01*
Y3021936D01*
X2940867Y3043989D01*
X2923989Y3060867D01*
X2901937Y3070001D01*
D02*
G37*
G36*
X6311937Y3050002D02*
X6288068D01*
X6266015Y3040867D01*
X6249137Y3023989D01*
X6240003Y3001936D01*
Y2978067D01*
X6249137Y2956014D01*
X6266015Y2939136D01*
X6288068Y2930002D01*
X6311937D01*
X6333990Y2939136D01*
X6350868Y2956014D01*
X6360003Y2978067D01*
Y3001936D01*
X6350868Y3023989D01*
X6333990Y3040867D01*
X6311937Y3050002D01*
D02*
G37*
G36*
X6069068Y3042869D02*
X6045198D01*
X6023146Y3033735D01*
X6006267Y3016857D01*
X5997133Y2994804D01*
Y2970935D01*
X6006267Y2948882D01*
X6023146Y2932004D01*
X6045198Y2922869D01*
X6069068D01*
X6091120Y2932004D01*
X6107998Y2948882D01*
X6117133Y2970935D01*
Y2994804D01*
X6107998Y3016857D01*
X6091120Y3033735D01*
X6069068Y3042869D01*
D02*
G37*
G36*
X6769452Y3039933D02*
X6745582D01*
X6723530Y3030799D01*
X6706652Y3013921D01*
X6697517Y2991868D01*
Y2967999D01*
X6706652Y2945946D01*
X6723530Y2929068D01*
X6745582Y2919934D01*
X6769452D01*
X6791504Y2929068D01*
X6808383Y2945946D01*
X6817517Y2967999D01*
Y2991868D01*
X6808383Y3013921D01*
X6791504Y3030799D01*
X6769452Y3039933D01*
D02*
G37*
G36*
X7588669Y3033305D02*
X7564799D01*
X7542747Y3024170D01*
X7525869Y3007292D01*
X7516734Y2985239D01*
Y2961370D01*
X7525869Y2939317D01*
X7542747Y2922439D01*
X7564799Y2913305D01*
X7588669D01*
X7610721Y2922439D01*
X7627600Y2939317D01*
X7636734Y2961370D01*
Y2985239D01*
X7627600Y3007292D01*
X7610721Y3024170D01*
X7588669Y3033305D01*
D02*
G37*
G36*
X3751932Y3019999D02*
X3728063D01*
X3706010Y3010865D01*
X3689132Y2993986D01*
X3679998Y2971934D01*
Y2948064D01*
X3689132Y2926012D01*
X3706010Y2909134D01*
X3728063Y2899999D01*
X3751932D01*
X3773985Y2909134D01*
X3790863Y2926012D01*
X3799997Y2948064D01*
Y2971934D01*
X3790863Y2993986D01*
X3773985Y3010865D01*
X3751932Y3019999D01*
D02*
G37*
G36*
X4102036Y2988584D02*
X4078166D01*
X4056114Y2979450D01*
X4039236Y2962572D01*
X4030101Y2940519D01*
Y2916650D01*
X4039236Y2894597D01*
X4056114Y2877719D01*
X4078166Y2868585D01*
X4102036D01*
X4124088Y2877719D01*
X4140967Y2894597D01*
X4150101Y2916650D01*
Y2940519D01*
X4140967Y2962572D01*
X4124088Y2979450D01*
X4102036Y2988584D01*
D02*
G37*
G36*
X8199935Y2974999D02*
X8176065D01*
X8154013Y2965865D01*
X8137134Y2948986D01*
X8128000Y2926934D01*
Y2903065D01*
X8137134Y2881012D01*
X8154013Y2864134D01*
X8176065Y2854999D01*
X8199935D01*
X8221987Y2864134D01*
X8238865Y2881012D01*
X8248000Y2903065D01*
Y2926934D01*
X8238865Y2948986D01*
X8221987Y2965865D01*
X8199935Y2974999D01*
D02*
G37*
G36*
X5178183Y3093750D02*
X5154314D01*
X5132261Y3084616D01*
X5115383Y3067738D01*
X5106248Y3045685D01*
Y3021816D01*
X5115383Y2999763D01*
X5132261Y2982885D01*
X5147808Y2976445D01*
Y2956817D01*
X5148186Y2955906D01*
X5136015Y2950865D01*
X5119137Y2933987D01*
X5110002Y2911934D01*
Y2888065D01*
X5119137Y2866012D01*
X5136015Y2849134D01*
X5158068Y2839999D01*
X5181937D01*
X5203990Y2849134D01*
X5220868Y2866012D01*
X5230002Y2888065D01*
Y2911934D01*
X5229625Y2912845D01*
X5241795Y2917886D01*
X5258674Y2934765D01*
X5267808Y2956817D01*
Y2980687D01*
X5258674Y3002739D01*
X5241795Y3019618D01*
X5226248Y3026057D01*
Y3045685D01*
X5217114Y3067738D01*
X5200235Y3084616D01*
X5178183Y3093750D01*
D02*
G37*
G36*
X4265530Y2955651D02*
X4241661D01*
X4219609Y2946516D01*
X4202730Y2929638D01*
X4193596Y2907585D01*
Y2883716D01*
X4202730Y2861664D01*
X4219609Y2844785D01*
X4241661Y2835651D01*
X4265530D01*
X4287583Y2844785D01*
X4304461Y2861664D01*
X4313596Y2883716D01*
Y2907585D01*
X4304461Y2929638D01*
X4287583Y2946516D01*
X4265530Y2955651D01*
D02*
G37*
G36*
X8461075Y2950804D02*
X8437205D01*
X8415153Y2941669D01*
X8398274Y2924791D01*
X8389140Y2902738D01*
Y2878869D01*
X8398274Y2856816D01*
X8415153Y2839938D01*
X8437205Y2830804D01*
X8461075D01*
X8483127Y2839938D01*
X8500005Y2856816D01*
X8509140Y2878869D01*
Y2902738D01*
X8500005Y2924791D01*
X8483127Y2941669D01*
X8461075Y2950804D01*
D02*
G37*
G36*
X6938879Y3006987D02*
X6915010D01*
X6892957Y2997853D01*
X6876079Y2980974D01*
X6866944Y2958922D01*
Y2935052D01*
X6867050Y2934797D01*
X6858480Y2931247D01*
X6841601Y2914369D01*
X6832467Y2892317D01*
Y2868447D01*
X6841601Y2846395D01*
X6858480Y2829516D01*
X6880532Y2820382D01*
X6904401D01*
X6926454Y2829516D01*
X6943332Y2846395D01*
X6952467Y2868447D01*
Y2892317D01*
X6952361Y2892572D01*
X6960931Y2896121D01*
X6977810Y2913000D01*
X6986944Y2935052D01*
Y2958922D01*
X6977810Y2980974D01*
X6960931Y2997853D01*
X6938879Y3006987D01*
D02*
G37*
G36*
X7447151Y2891292D02*
X7423282D01*
X7401229Y2882157D01*
X7384351Y2865279D01*
X7375217Y2843226D01*
Y2828820D01*
X7356013Y2820866D01*
X7339134Y2803988D01*
X7328496Y2812947D01*
X7321760Y2819683D01*
X7299707Y2828818D01*
X7275838D01*
X7253785Y2819683D01*
X7236907Y2802805D01*
X7227773Y2780753D01*
Y2756883D01*
X7236907Y2734831D01*
X7253785Y2717952D01*
X7275838Y2708818D01*
X7299707D01*
X7321760Y2717952D01*
X7338638Y2734830D01*
X7349277Y2725871D01*
X7356013Y2719135D01*
X7375217Y2711180D01*
Y2697078D01*
X7384351Y2675026D01*
X7401229Y2658148D01*
X7423282Y2649013D01*
X7447151D01*
X7469204Y2658148D01*
X7486082Y2675026D01*
X7495216Y2697078D01*
Y2720948D01*
X7486082Y2743000D01*
X7469204Y2759879D01*
X7463999Y2762034D01*
Y2778271D01*
X7469204Y2780426D01*
X7486082Y2797305D01*
X7495216Y2819357D01*
Y2843226D01*
X7486082Y2865279D01*
X7469204Y2882157D01*
X7447151Y2891292D01*
D02*
G37*
G36*
X2403922Y2849999D02*
X2376074D01*
X2350346Y2839343D01*
X2330655Y2819651D01*
X2319998Y2793923D01*
Y2766076D01*
X2330655Y2740348D01*
X2350346Y2720656D01*
X2376074Y2710000D01*
X2403922D01*
X2429649Y2720656D01*
X2449341Y2740348D01*
X2459998Y2766076D01*
Y2793923D01*
X2449341Y2819651D01*
X2429649Y2839343D01*
X2403922Y2849999D01*
D02*
G37*
G36*
X4331936Y2830002D02*
X4308067D01*
X4286014Y2820868D01*
X4269136Y2803989D01*
X4260002Y2781937D01*
Y2758067D01*
X4269136Y2736015D01*
X4286014Y2719137D01*
X4308067Y2710002D01*
X4331936D01*
X4349456Y2717259D01*
X4364137Y2721013D01*
X4381015Y2704135D01*
X4403068Y2695001D01*
X4426937D01*
X4448990Y2704135D01*
X4465868Y2721014D01*
X4475002Y2743066D01*
Y2766936D01*
X4465868Y2788988D01*
X4448990Y2805866D01*
X4426937Y2815001D01*
X4403068D01*
X4385548Y2807744D01*
X4370867Y2803990D01*
X4353989Y2820868D01*
X4331936Y2830002D01*
D02*
G37*
G36*
X6751935Y2900694D02*
X6728065D01*
X6706013Y2891559D01*
X6689134Y2874681D01*
X6680000Y2852629D01*
Y2828759D01*
X6689134Y2806707D01*
X6696137Y2799704D01*
X6696440Y2778794D01*
X6691858Y2774211D01*
X6682723Y2752159D01*
Y2728289D01*
X6691858Y2706237D01*
X6708736Y2689359D01*
X6730788Y2680224D01*
X6754658D01*
X6776710Y2689359D01*
X6793589Y2706237D01*
X6802723Y2728289D01*
Y2752159D01*
X6793589Y2774211D01*
X6786586Y2781214D01*
X6786283Y2802124D01*
X6790866Y2806707D01*
X6800000Y2828759D01*
Y2852629D01*
X6790866Y2874681D01*
X6773987Y2891559D01*
X6751935Y2900694D01*
D02*
G37*
G36*
X5744435Y2740000D02*
X5720565D01*
X5698513Y2730865D01*
X5681635Y2713987D01*
X5672500Y2691934D01*
Y2668065D01*
X5681635Y2646012D01*
X5698513Y2629134D01*
X5720565Y2620000D01*
X5744435D01*
X5766487Y2629134D01*
X5783366Y2646012D01*
X5792500Y2668065D01*
Y2691934D01*
X5783366Y2713987D01*
X5766487Y2730865D01*
X5744435Y2740000D01*
D02*
G37*
G36*
X4771935Y2830002D02*
X4748066D01*
X4726013Y2820868D01*
X4709135Y2803989D01*
X4700001Y2781937D01*
Y2758067D01*
X4702587Y2751824D01*
X4691935Y2740000D01*
X4668066D01*
X4646014Y2730865D01*
X4629135Y2713987D01*
X4620001Y2691934D01*
Y2668065D01*
X4629135Y2646012D01*
X4646014Y2629134D01*
X4668066Y2620000D01*
X4691935D01*
X4713988Y2629134D01*
X4730866Y2646012D01*
X4740001Y2668065D01*
Y2691934D01*
X4737414Y2698178D01*
X4748066Y2710002D01*
X4771935D01*
X4793988Y2719137D01*
X4810866Y2736015D01*
X4820001Y2758067D01*
Y2781937D01*
X4810866Y2803989D01*
X4793988Y2820868D01*
X4771935Y2830002D01*
D02*
G37*
G36*
X7586820Y2733333D02*
X7562950D01*
X7540898Y2724199D01*
X7524019Y2707320D01*
X7514885Y2685268D01*
Y2661398D01*
X7524019Y2639346D01*
X7540898Y2622467D01*
X7562950Y2613333D01*
X7586820D01*
X7608872Y2622467D01*
X7625751Y2639346D01*
X7634885Y2661398D01*
Y2685268D01*
X7625751Y2707320D01*
X7608872Y2724199D01*
X7586820Y2733333D01*
D02*
G37*
G36*
X8312975Y2717970D02*
X8289106D01*
X8267053Y2708836D01*
X8250175Y2691957D01*
X8241041Y2669905D01*
Y2646035D01*
X8250175Y2623983D01*
X8267053Y2607105D01*
X8289106Y2597970D01*
X8312975D01*
X8335028Y2607105D01*
X8351906Y2623983D01*
X8361040Y2646035D01*
Y2669905D01*
X8351906Y2691957D01*
X8335028Y2708836D01*
X8312975Y2717970D01*
D02*
G37*
G36*
X6141935Y2690002D02*
X6118066D01*
X6096013Y2680868D01*
X6079135Y2663990D01*
X6070001Y2641937D01*
Y2618068D01*
X6079135Y2596015D01*
X6096013Y2579137D01*
X6118066Y2570002D01*
X6141935D01*
X6163988Y2579137D01*
X6180866Y2596015D01*
X6190000Y2618068D01*
Y2641937D01*
X6180866Y2663990D01*
X6163988Y2680868D01*
X6141935Y2690002D01*
D02*
G37*
G36*
X3610683Y2651252D02*
X3586814D01*
X3564761Y2642118D01*
X3547883Y2625239D01*
X3538748Y2603187D01*
Y2579317D01*
X3547883Y2557265D01*
X3564761Y2540387D01*
X3586814Y2531252D01*
X3610683D01*
X3632735Y2540387D01*
X3649614Y2557265D01*
X3658748Y2579317D01*
Y2603187D01*
X3649614Y2625239D01*
X3632735Y2642118D01*
X3610683Y2651252D01*
D02*
G37*
G36*
X7447151Y2600000D02*
X7423282D01*
X7401229Y2590866D01*
X7384351Y2573987D01*
X7375217Y2551935D01*
Y2534269D01*
X7370402Y2530561D01*
X7366695Y2530728D01*
X7353359Y2536172D01*
X7346268Y2553291D01*
X7329389Y2570169D01*
X7307337Y2579304D01*
X7283468D01*
X7261415Y2570169D01*
X7244537Y2553291D01*
X7235402Y2531239D01*
Y2507369D01*
X7244537Y2485317D01*
X7261415Y2468438D01*
X7283468Y2459304D01*
X7307337D01*
X7325004Y2466622D01*
X7340004Y2459455D01*
Y2455328D01*
X7349139Y2433276D01*
X7366017Y2416398D01*
X7378317Y2411303D01*
Y2388057D01*
X7387452Y2366004D01*
X7404330Y2349126D01*
X7426382Y2339992D01*
X7450252D01*
X7472304Y2349126D01*
X7489183Y2366004D01*
X7498317Y2388057D01*
Y2411926D01*
X7489183Y2433979D01*
X7472304Y2450857D01*
X7460004Y2455952D01*
Y2479198D01*
X7457838Y2484427D01*
X7469204Y2489134D01*
X7486082Y2506013D01*
X7495216Y2528065D01*
Y2551935D01*
X7486082Y2573987D01*
X7469204Y2590866D01*
X7447151Y2600000D01*
D02*
G37*
G36*
X4242559Y2650002D02*
X4218689D01*
X4196637Y2640868D01*
X4179758Y2623990D01*
X4170624Y2601937D01*
Y2578068D01*
X4179758Y2556015D01*
X4196637Y2539137D01*
X4218689Y2530003D01*
X4242559D01*
X4264611Y2539137D01*
X4281490Y2556015D01*
X4290624Y2578068D01*
Y2601937D01*
X4281490Y2623990D01*
X4264611Y2640868D01*
X4242559Y2650002D01*
D02*
G37*
G36*
X6916935Y2740000D02*
X6893065D01*
X6871013Y2730866D01*
X6854134Y2713987D01*
X6845000Y2691935D01*
Y2668065D01*
X6854134Y2646013D01*
X6871013Y2629134D01*
X6878198Y2626158D01*
Y2609922D01*
X6871817Y2607279D01*
X6854939Y2590401D01*
X6845804Y2568348D01*
Y2544479D01*
X6854939Y2522427D01*
X6871817Y2505548D01*
X6893870Y2496414D01*
X6917739D01*
X6939792Y2505548D01*
X6956670Y2522427D01*
X6965804Y2544479D01*
Y2568348D01*
X6956670Y2590401D01*
X6939792Y2607279D01*
X6932606Y2610255D01*
Y2626491D01*
X6938987Y2629134D01*
X6955865Y2646013D01*
X6965000Y2668065D01*
Y2691935D01*
X6955865Y2713987D01*
X6938987Y2730866D01*
X6916935Y2740000D01*
D02*
G37*
G36*
X8202439Y2608612D02*
X8178570D01*
X8156517Y2599478D01*
X8139639Y2582599D01*
X8130504Y2560547D01*
Y2536677D01*
X8139639Y2514625D01*
X8156517Y2497747D01*
X8178570Y2488612D01*
X8202439D01*
X8224492Y2497747D01*
X8241370Y2514625D01*
X8250504Y2536677D01*
Y2560547D01*
X8241370Y2582599D01*
X8224492Y2599478D01*
X8202439Y2608612D01*
D02*
G37*
G36*
X6708339Y2593105D02*
X6684470D01*
X6662417Y2583970D01*
X6645539Y2567092D01*
X6636405Y2545040D01*
Y2532822D01*
X6631870Y2529793D01*
X6608001D01*
X6585949Y2520658D01*
X6569070Y2503780D01*
X6559936Y2481727D01*
Y2457858D01*
X6569070Y2435806D01*
X6565363Y2428183D01*
X6560143Y2426672D01*
X6548534Y2426319D01*
X6533987Y2440866D01*
X6511935Y2450000D01*
X6488065D01*
X6466013Y2440866D01*
X6449134Y2423987D01*
X6440000Y2401935D01*
Y2378065D01*
X6449134Y2356013D01*
X6466013Y2339135D01*
X6488065Y2330000D01*
X6511935D01*
X6533987Y2339135D01*
X6550865Y2356013D01*
X6551882Y2358467D01*
X6568118D01*
X6569134Y2356013D01*
X6586013Y2339135D01*
X6608065Y2330000D01*
X6631935D01*
X6653987Y2339135D01*
X6670865Y2356013D01*
X6680000Y2378065D01*
Y2401935D01*
X6670865Y2423987D01*
X6664924Y2429928D01*
X6670801Y2435805D01*
X6679936Y2457858D01*
Y2470075D01*
X6684470Y2473105D01*
X6708339D01*
X6730392Y2482239D01*
X6747270Y2499118D01*
X6756405Y2521170D01*
Y2545040D01*
X6747270Y2567092D01*
X6730392Y2583970D01*
X6708339Y2593105D01*
D02*
G37*
G36*
X5091935Y2530000D02*
X5068065D01*
X5046013Y2520865D01*
X5029134Y2503987D01*
X5020000Y2481935D01*
Y2458065D01*
X5029134Y2436013D01*
X5046013Y2419134D01*
X5068065Y2410000D01*
X5091935D01*
X5113987Y2419134D01*
X5130866Y2436013D01*
X5140000Y2458065D01*
Y2481935D01*
X5130866Y2503987D01*
X5113987Y2520865D01*
X5091935Y2530000D01*
D02*
G37*
G36*
X4031935Y2520000D02*
X4008065D01*
X3986013Y2510865D01*
X3969135Y2493987D01*
X3960000Y2471935D01*
Y2448065D01*
X3969135Y2426013D01*
X3986013Y2409134D01*
X4008065Y2400000D01*
X4031935D01*
X4053987Y2409134D01*
X4070866Y2426013D01*
X4080000Y2448065D01*
Y2471935D01*
X4070866Y2493987D01*
X4053987Y2510865D01*
X4031935Y2520000D01*
D02*
G37*
G36*
X3891935D02*
X3868065D01*
X3846013Y2510865D01*
X3829135Y2493987D01*
X3820000Y2471935D01*
Y2448065D01*
X3829135Y2426013D01*
X3846013Y2409134D01*
X3868065Y2400000D01*
X3891935D01*
X3913987Y2409134D01*
X3930866Y2426013D01*
X3940000Y2448065D01*
Y2471935D01*
X3930866Y2493987D01*
X3913987Y2510865D01*
X3891935Y2520000D01*
D02*
G37*
G36*
X8061190Y2549427D02*
X8037320D01*
X8015268Y2540293D01*
X7998390Y2523415D01*
X7989255Y2501362D01*
Y2477493D01*
X7998390Y2455440D01*
X7999695Y2454135D01*
X7998230Y2439269D01*
X7982207Y2415288D01*
X7976580Y2387000D01*
Y2362200D01*
X8108000D01*
X8239420D01*
Y2387000D01*
X8233793Y2415288D01*
X8217769Y2439269D01*
X8193788Y2455293D01*
X8165500Y2460920D01*
X8115890D01*
X8107557Y2473392D01*
X8109255Y2477493D01*
Y2501362D01*
X8100121Y2523415D01*
X8083242Y2540293D01*
X8061190Y2549427D01*
D02*
G37*
G36*
X3314788Y2473635D02*
X3290919D01*
X3268866Y2464501D01*
X3251988Y2447622D01*
X3242854Y2425570D01*
Y2401700D01*
X3251988Y2379648D01*
X3268866Y2362769D01*
X3290919Y2353635D01*
X3314788D01*
X3336841Y2362769D01*
X3353719Y2379648D01*
X3362853Y2401700D01*
Y2425570D01*
X3353719Y2447622D01*
X3336841Y2464501D01*
X3314788Y2473635D01*
D02*
G37*
G36*
X4491936Y2509998D02*
X4468067D01*
X4446014Y2500863D01*
X4429136Y2483985D01*
X4420001Y2461932D01*
Y2438063D01*
X4429136Y2416010D01*
X4446014Y2399132D01*
X4468067Y2389998D01*
X4491936D01*
X4493348Y2389054D01*
X4500341Y2377243D01*
X4509136Y2356011D01*
X4526014Y2339132D01*
X4548066Y2329998D01*
X4571936D01*
X4593988Y2339132D01*
X4610867Y2356011D01*
X4620001Y2378063D01*
Y2401932D01*
X4610867Y2423985D01*
X4593988Y2440863D01*
X4571936Y2449998D01*
X4548067D01*
X4546654Y2450942D01*
X4539661Y2462752D01*
X4530867Y2483985D01*
X4513988Y2500863D01*
X4491936Y2509998D01*
D02*
G37*
G36*
X7585896Y2423192D02*
X7562026D01*
X7539974Y2414057D01*
X7523095Y2397179D01*
X7513961Y2375127D01*
Y2351257D01*
X7523095Y2329205D01*
X7539974Y2312326D01*
X7562026Y2303192D01*
X7585896D01*
X7607948Y2312326D01*
X7624827Y2329205D01*
X7633961Y2351257D01*
Y2375127D01*
X7624827Y2397179D01*
X7607948Y2414057D01*
X7585896Y2423192D01*
D02*
G37*
G36*
X6711935Y2290000D02*
X6688065D01*
X6666013Y2280866D01*
X6660000Y2274853D01*
X6653987Y2280866D01*
X6631935Y2290000D01*
X6608065D01*
X6586013Y2280866D01*
X6569134Y2263987D01*
X6560000Y2241935D01*
Y2218065D01*
X6569134Y2196013D01*
X6575147Y2190000D01*
X6569134Y2183987D01*
X6560000Y2161935D01*
Y2138065D01*
X6569134Y2116013D01*
X6586013Y2099134D01*
X6608065Y2090000D01*
X6631935D01*
X6653987Y2099134D01*
X6670865Y2116013D01*
X6680000Y2138065D01*
Y2157105D01*
X6684962Y2165038D01*
X6692895Y2170000D01*
X6711935D01*
X6733987Y2179135D01*
X6750866Y2196013D01*
X6760000Y2218065D01*
Y2241935D01*
X6750866Y2263987D01*
X6733987Y2280866D01*
X6711935Y2290000D01*
D02*
G37*
G36*
X5656935Y2380000D02*
X5633065D01*
X5611013Y2370866D01*
X5594134Y2353988D01*
X5585000Y2331935D01*
Y2308066D01*
X5594134Y2286013D01*
X5611013Y2269135D01*
X5633065Y2260001D01*
X5656935D01*
X5678987Y2269135D01*
X5695865Y2286013D01*
X5705000Y2308066D01*
Y2331935D01*
X5695865Y2353988D01*
X5678987Y2370866D01*
X5656935Y2380000D01*
D02*
G37*
G36*
X3418466Y2282546D02*
X3394596D01*
X3372544Y2273411D01*
X3355666Y2256533D01*
X3355613Y2256406D01*
X3346934Y2260001D01*
X3323065D01*
X3301012Y2250866D01*
X3284134Y2233988D01*
X3275000Y2211935D01*
Y2190959D01*
X3263222Y2186081D01*
X3246344Y2169203D01*
X3237210Y2147150D01*
Y2123281D01*
X3246344Y2101228D01*
X3250898Y2096674D01*
X3247972Y2081962D01*
X3245320Y2080864D01*
X3228442Y2063986D01*
X3219308Y2041933D01*
Y2018064D01*
X3228442Y1996011D01*
X3245320Y1979133D01*
X3267373Y1969999D01*
X3291242D01*
X3313295Y1979133D01*
X3330173Y1996011D01*
X3339308Y2018064D01*
Y2041933D01*
X3330173Y2063986D01*
X3325619Y2068540D01*
X3328545Y2083252D01*
X3331197Y2084350D01*
X3348075Y2101228D01*
X3357209Y2123281D01*
Y2144257D01*
X3368987Y2149135D01*
X3385865Y2166013D01*
X3385918Y2166141D01*
X3394596Y2162546D01*
X3418466D01*
X3440518Y2171680D01*
X3457397Y2188558D01*
X3466531Y2210611D01*
Y2234480D01*
X3457397Y2256533D01*
X3440518Y2273411D01*
X3418466Y2282546D01*
D02*
G37*
G36*
X8459500Y2455822D02*
X8344500D01*
X8318163Y2450583D01*
X8295836Y2435664D01*
X8280917Y2413337D01*
X8275678Y2387000D01*
Y2312000D01*
X8280917Y2285663D01*
X8295836Y2263336D01*
X8318163Y2248417D01*
X8344500Y2243178D01*
X8459500D01*
X8485837Y2248417D01*
X8508164Y2263336D01*
X8523083Y2285663D01*
X8528322Y2312000D01*
Y2387000D01*
X8523083Y2413337D01*
X8508164Y2435664D01*
X8485837Y2450583D01*
X8459500Y2455822D01*
D02*
G37*
G36*
X8239420Y2336800D02*
X8120700D01*
Y2238080D01*
X8165500D01*
X8193788Y2243707D01*
X8217769Y2259731D01*
X8233793Y2283712D01*
X8239420Y2312000D01*
Y2336800D01*
D02*
G37*
G36*
X8095300D02*
X7976580D01*
Y2312000D01*
X7982207Y2283712D01*
X7998231Y2259731D01*
X8022212Y2243707D01*
X8050500Y2238080D01*
X8095300D01*
Y2336800D01*
D02*
G37*
G36*
X2481932Y2340000D02*
X2458063D01*
X2436010Y2330866D01*
X2419132Y2313988D01*
X2409998Y2291935D01*
Y2268066D01*
X2419132Y2246013D01*
X2436010Y2229135D01*
X2458063Y2220001D01*
X2481932D01*
X2503985Y2229135D01*
X2520863Y2246013D01*
X2529997Y2268066D01*
Y2291935D01*
X2520863Y2313988D01*
X2503985Y2330866D01*
X2481932Y2340000D01*
D02*
G37*
G36*
X5859812Y2337877D02*
X5835942D01*
X5813890Y2328743D01*
X5797012Y2311864D01*
X5787877Y2289812D01*
Y2265942D01*
X5797012Y2243890D01*
X5813890Y2227012D01*
X5835942Y2217877D01*
X5859812D01*
X5881864Y2227012D01*
X5898743Y2243890D01*
X5907877Y2265942D01*
Y2289812D01*
X5898743Y2311864D01*
X5881864Y2328743D01*
X5859812Y2337877D01*
D02*
G37*
G36*
X7448446Y2280975D02*
X7424577D01*
X7402524Y2271841D01*
X7385646Y2254962D01*
X7376512Y2232910D01*
Y2219820D01*
X7356012Y2211329D01*
X7343730Y2199047D01*
X7332748Y2210028D01*
X7310695Y2219163D01*
X7286826D01*
X7264773Y2210028D01*
X7247895Y2193150D01*
X7238761Y2171098D01*
Y2147228D01*
X7247895Y2125176D01*
X7264773Y2108297D01*
X7286826Y2099163D01*
X7310695D01*
X7332748Y2108297D01*
X7345030Y2120580D01*
X7356012Y2109598D01*
X7378064Y2100464D01*
X7378846D01*
Y2089041D01*
X7387980Y2066988D01*
X7404858Y2050110D01*
X7426911Y2040975D01*
X7450780D01*
X7472833Y2050110D01*
X7489711Y2066988D01*
X7498846Y2089041D01*
Y2112910D01*
X7489711Y2134962D01*
X7472833Y2151841D01*
X7469212Y2153341D01*
Y2169577D01*
X7470499Y2170109D01*
X7487377Y2186988D01*
X7496511Y2209040D01*
Y2232910D01*
X7487377Y2254962D01*
X7470499Y2271841D01*
X7448446Y2280975D01*
D02*
G37*
G36*
X4021934Y2289998D02*
X3998065D01*
X3976012Y2280864D01*
X3959134Y2263985D01*
X3950000Y2241933D01*
Y2218063D01*
X3959134Y2196011D01*
X3976012Y2179133D01*
X3998065Y2169998D01*
X4021934D01*
X4043987Y2179133D01*
X4060865Y2196011D01*
X4069999Y2218063D01*
Y2241933D01*
X4060865Y2263985D01*
X4043987Y2280864D01*
X4021934Y2289998D01*
D02*
G37*
G36*
X6916935Y2283004D02*
X6893065D01*
X6871013Y2273869D01*
X6854134Y2256991D01*
X6845000Y2234938D01*
Y2211069D01*
X6854134Y2189016D01*
X6871013Y2172138D01*
X6893065Y2163004D01*
X6916935D01*
X6938987Y2172138D01*
X6955865Y2189016D01*
X6965000Y2211069D01*
Y2234938D01*
X6955865Y2256991D01*
X6938987Y2273869D01*
X6916935Y2283004D01*
D02*
G37*
G36*
X4901933Y2280001D02*
X4878063D01*
X4856011Y2270866D01*
X4839132Y2253988D01*
X4829998Y2231935D01*
Y2208066D01*
X4839132Y2186013D01*
X4856011Y2169135D01*
X4878063Y2160001D01*
X4901933D01*
X4923985Y2169135D01*
X4940863Y2186013D01*
X4949998Y2208066D01*
Y2231935D01*
X4940863Y2253988D01*
X4923985Y2270866D01*
X4901933Y2280001D01*
D02*
G37*
G36*
X2312509Y2271070D02*
X2288640D01*
X2266587Y2261936D01*
X2249709Y2245057D01*
X2240575Y2223005D01*
Y2199135D01*
X2249709Y2177083D01*
X2266587Y2160204D01*
X2288640Y2151070D01*
X2312509D01*
X2334562Y2160204D01*
X2351440Y2177083D01*
X2360574Y2199135D01*
Y2223005D01*
X2351440Y2245057D01*
X2334562Y2261936D01*
X2312509Y2271070D01*
D02*
G37*
G36*
X2761937Y2200001D02*
X2738067D01*
X2716015Y2190866D01*
X2699137Y2173988D01*
X2690002Y2151935D01*
Y2128066D01*
X2699137Y2106014D01*
X2716015Y2089135D01*
X2738067Y2080001D01*
X2761937D01*
X2783989Y2089135D01*
X2800868Y2106014D01*
X2810002Y2128066D01*
Y2151935D01*
X2800868Y2173988D01*
X2783989Y2190866D01*
X2761937Y2200001D01*
D02*
G37*
G36*
X2551935Y2160001D02*
X2528065D01*
X2506013Y2150866D01*
X2489134Y2133988D01*
X2480000Y2111936D01*
Y2088066D01*
X2489134Y2066014D01*
X2506013Y2049135D01*
X2528065Y2040001D01*
X2551935D01*
X2573987Y2049135D01*
X2590866Y2066014D01*
X2600000Y2088066D01*
Y2111936D01*
X2590866Y2133988D01*
X2573987Y2150866D01*
X2551935Y2160001D01*
D02*
G37*
G36*
X5971733Y2119267D02*
X5947863D01*
X5925811Y2110132D01*
X5908933Y2093254D01*
X5899798Y2071201D01*
Y2047332D01*
X5908933Y2025279D01*
X5925811Y2008401D01*
X5947863Y1999267D01*
X5971733D01*
X5993785Y2008401D01*
X6010664Y2025279D01*
X6019798Y2047332D01*
Y2071201D01*
X6010664Y2093254D01*
X5993785Y2110132D01*
X5971733Y2119267D01*
D02*
G37*
G36*
X7579435Y2110000D02*
X7555565D01*
X7533513Y2100865D01*
X7516634Y2083987D01*
X7507500Y2061935D01*
Y2038065D01*
X7516634Y2016013D01*
X7533513Y1999134D01*
X7555565Y1990000D01*
X7579435D01*
X7601487Y1999134D01*
X7618366Y2016013D01*
X7627500Y2038065D01*
Y2061935D01*
X7618366Y2083987D01*
X7601487Y2100865D01*
X7579435Y2110000D01*
D02*
G37*
G36*
X8459500Y2201822D02*
X8344500D01*
X8318163Y2196583D01*
X8295836Y2181664D01*
X8280917Y2159337D01*
X8275678Y2133000D01*
Y2058000D01*
X8280917Y2031663D01*
X8295836Y2009336D01*
X8318163Y1994417D01*
X8344500Y1989178D01*
X8459500D01*
X8485837Y1994417D01*
X8508164Y2009336D01*
X8523083Y2031663D01*
X8528322Y2058000D01*
Y2133000D01*
X8523083Y2159337D01*
X8508164Y2181664D01*
X8485837Y2196583D01*
X8459500Y2201822D01*
D02*
G37*
G36*
X8165500D02*
X8050500D01*
X8024163Y2196583D01*
X8001836Y2181664D01*
X7986917Y2159337D01*
X7981678Y2133000D01*
Y2058000D01*
X7986917Y2031663D01*
X8001836Y2009336D01*
X8024163Y1994417D01*
X8050500Y1989178D01*
X8165500D01*
X8191837Y1994417D01*
X8214164Y2009336D01*
X8229083Y2031663D01*
X8234322Y2058000D01*
Y2133000D01*
X8229083Y2159337D01*
X8214164Y2181664D01*
X8191837Y2196583D01*
X8165500Y2201822D01*
D02*
G37*
G36*
X7391935Y2030000D02*
X7368065D01*
X7346013Y2020866D01*
X7329134Y2003987D01*
X7320000Y1981935D01*
Y1958065D01*
X7329134Y1936013D01*
X7346013Y1919135D01*
X7368065Y1910000D01*
X7391935D01*
X7413987Y1919135D01*
X7430866Y1936013D01*
X7440000Y1958065D01*
Y1981935D01*
X7430866Y2003987D01*
X7413987Y2020866D01*
X7391935Y2030000D01*
D02*
G37*
G36*
X4271935D02*
X4248065D01*
X4226013Y2020866D01*
X4209135Y2003987D01*
X4200000Y1981935D01*
Y1958065D01*
X4209135Y1936013D01*
X4226013Y1919135D01*
X4248065Y1910000D01*
X4271935D01*
X4293987Y1919135D01*
X4310866Y1936013D01*
X4320000Y1958065D01*
Y1981935D01*
X4310866Y2003987D01*
X4293987Y2020866D01*
X4271935Y2030000D01*
D02*
G37*
G36*
X4401934Y1980001D02*
X4378064D01*
X4356012Y1970867D01*
X4339133Y1953988D01*
X4329999Y1931936D01*
Y1908067D01*
X4339133Y1886014D01*
X4356012Y1869136D01*
X4378064Y1860001D01*
X4401934D01*
X4423986Y1869136D01*
X4440864Y1886014D01*
X4449999Y1908067D01*
Y1931936D01*
X4440864Y1953988D01*
X4423986Y1970867D01*
X4401934Y1980001D01*
D02*
G37*
G36*
X6941633Y1959612D02*
X6917764D01*
X6895711Y1950478D01*
X6878833Y1933599D01*
X6869698Y1911547D01*
Y1887677D01*
X6878833Y1865625D01*
X6895711Y1848747D01*
X6917764Y1839612D01*
X6941633D01*
X6963686Y1848747D01*
X6980564Y1865625D01*
X6989698Y1887677D01*
Y1911547D01*
X6980564Y1933599D01*
X6963686Y1950478D01*
X6941633Y1959612D01*
D02*
G37*
G36*
X6711935Y1950000D02*
X6688065D01*
X6666013Y1940866D01*
X6649135Y1923987D01*
X6640000Y1901935D01*
Y1878065D01*
X6649135Y1856013D01*
X6666013Y1839134D01*
X6688065Y1830000D01*
X6711935D01*
X6733987Y1839134D01*
X6750866Y1856013D01*
X6760000Y1878065D01*
Y1901935D01*
X6750866Y1923987D01*
X6733987Y1940866D01*
X6711935Y1950000D01*
D02*
G37*
G36*
X5291935Y1900000D02*
X5268065D01*
X5246013Y1890865D01*
X5229135Y1873987D01*
X5220000Y1851935D01*
Y1828065D01*
X5229135Y1806013D01*
X5246013Y1789134D01*
X5268065Y1780000D01*
X5291935D01*
X5313987Y1789134D01*
X5330866Y1806013D01*
X5340000Y1828065D01*
Y1851935D01*
X5330866Y1873987D01*
X5313987Y1890865D01*
X5291935Y1900000D01*
D02*
G37*
G36*
X5591935Y1880000D02*
X5568065D01*
X5546013Y1870865D01*
X5529134Y1853987D01*
X5520000Y1831935D01*
Y1808065D01*
X5529134Y1786013D01*
X5546013Y1769134D01*
X5568065Y1760000D01*
X5591935D01*
X5613987Y1769134D01*
X5630866Y1786013D01*
X5640000Y1808065D01*
Y1831935D01*
X5630866Y1853987D01*
X5613987Y1870865D01*
X5591935Y1880000D01*
D02*
G37*
G36*
X7336934Y1879514D02*
X7313065D01*
X7291012Y1870380D01*
X7274134Y1853501D01*
X7264999Y1831449D01*
Y1807579D01*
X7274134Y1785527D01*
X7291012Y1768648D01*
X7313065Y1759514D01*
X7336934D01*
X7358987Y1768648D01*
X7375865Y1785527D01*
X7384999Y1807579D01*
Y1831449D01*
X7375865Y1853501D01*
X7358987Y1870380D01*
X7336934Y1879514D01*
D02*
G37*
G36*
X2136934Y1869039D02*
X2113065D01*
X2091012Y1859904D01*
X2074134Y1843026D01*
X2065000Y1820973D01*
Y1797104D01*
X2074134Y1775052D01*
X2091012Y1758173D01*
X2113065Y1749039D01*
X2136934D01*
X2158987Y1758173D01*
X2175865Y1775052D01*
X2184999Y1797104D01*
Y1820973D01*
X2175865Y1843026D01*
X2158987Y1859904D01*
X2136934Y1869039D01*
D02*
G37*
G36*
X6266935Y1861795D02*
X6243065D01*
X6221013Y1852661D01*
X6204134Y1835782D01*
X6195000Y1813730D01*
Y1789861D01*
X6204134Y1767808D01*
X6221013Y1750930D01*
X6243065Y1741795D01*
X6266935D01*
X6288987Y1750930D01*
X6305865Y1767808D01*
X6315000Y1789861D01*
Y1813730D01*
X6305865Y1835782D01*
X6288987Y1852661D01*
X6266935Y1861795D01*
D02*
G37*
G36*
X8459500Y1947822D02*
X8344500D01*
X8318163Y1942583D01*
X8295836Y1927664D01*
X8280917Y1905337D01*
X8275678Y1879000D01*
Y1804000D01*
X8280917Y1777663D01*
X8295836Y1755336D01*
X8318163Y1740417D01*
X8344500Y1735178D01*
X8459500D01*
X8485837Y1740417D01*
X8508164Y1755336D01*
X8523083Y1777663D01*
X8528322Y1804000D01*
Y1879000D01*
X8523083Y1905337D01*
X8508164Y1927664D01*
X8485837Y1942583D01*
X8459500Y1947822D01*
D02*
G37*
G36*
X8165500D02*
X8050500D01*
X8024163Y1942583D01*
X8001836Y1927664D01*
X7986917Y1905337D01*
X7981678Y1879000D01*
Y1804000D01*
X7986917Y1777663D01*
X8001836Y1755336D01*
X8024163Y1740417D01*
X8050500Y1735178D01*
X8165500D01*
X8191837Y1740417D01*
X8214164Y1755336D01*
X8229083Y1777663D01*
X8234322Y1804000D01*
Y1879000D01*
X8229083Y1905337D01*
X8214164Y1927664D01*
X8191837Y1942583D01*
X8165500Y1947822D01*
D02*
G37*
G36*
X2441937Y1820001D02*
X2418068D01*
X2396016Y1810867D01*
X2379137Y1793989D01*
X2370003Y1771936D01*
Y1748067D01*
X2379137Y1726014D01*
X2396016Y1709136D01*
X2418068Y1700002D01*
X2441937D01*
X2463990Y1709136D01*
X2480868Y1726014D01*
X2490003Y1748067D01*
Y1771936D01*
X2480868Y1793989D01*
X2463990Y1810867D01*
X2441937Y1820001D01*
D02*
G37*
G36*
X7061935Y1760000D02*
X7038065D01*
X7016013Y1750865D01*
X6999135Y1733987D01*
X6990000Y1711935D01*
Y1688065D01*
X6999135Y1666013D01*
X7016013Y1649134D01*
X7038065Y1640000D01*
X7061935D01*
X7083987Y1649134D01*
X7100866Y1666013D01*
X7110000Y1688065D01*
Y1711935D01*
X7100866Y1733987D01*
X7083987Y1750865D01*
X7061935Y1760000D01*
D02*
G37*
G36*
X7831997Y1724308D02*
X7808127D01*
X7786075Y1715174D01*
X7769196Y1698295D01*
X7760062Y1676243D01*
Y1652373D01*
X7769196Y1630321D01*
X7786075Y1613443D01*
X7808127Y1604308D01*
X7831997D01*
X7854049Y1613443D01*
X7870927Y1630321D01*
X7880062Y1652373D01*
Y1676243D01*
X7870927Y1698295D01*
X7854049Y1715174D01*
X7831997Y1724308D01*
D02*
G37*
G36*
X6591935Y1720000D02*
X6568065D01*
X6546013Y1710866D01*
X6529135Y1693987D01*
X6520000Y1671935D01*
Y1648065D01*
X6529135Y1626013D01*
X6546013Y1609134D01*
X6568065Y1600000D01*
X6591935D01*
X6613987Y1609134D01*
X6630866Y1626013D01*
X6631542Y1627645D01*
X6647778D01*
X6650851Y1620224D01*
X6667730Y1603346D01*
X6689782Y1594212D01*
X6713652D01*
X6735704Y1603346D01*
X6752582Y1620224D01*
X6761717Y1642277D01*
Y1666146D01*
X6752582Y1688199D01*
X6735704Y1705077D01*
X6713652Y1714211D01*
X6689782D01*
X6667730Y1705077D01*
X6650851Y1688199D01*
X6650175Y1686567D01*
X6633939D01*
X6630866Y1693987D01*
X6613987Y1710866D01*
X6591935Y1720000D01*
D02*
G37*
G36*
X1401934Y1700002D02*
X1378065D01*
X1356013Y1690867D01*
X1339134Y1673989D01*
X1330000Y1651936D01*
Y1628067D01*
X1339134Y1606015D01*
X1356013Y1589136D01*
X1378065Y1580002D01*
X1401934D01*
X1423987Y1589136D01*
X1440865Y1606015D01*
X1450000Y1628067D01*
Y1651936D01*
X1440865Y1673989D01*
X1423987Y1690867D01*
X1401934Y1700002D01*
D02*
G37*
G36*
X6933092Y1696737D02*
X6909222D01*
X6887170Y1687603D01*
X6870291Y1670725D01*
X6861157Y1648672D01*
Y1624803D01*
X6870291Y1602750D01*
X6887170Y1585872D01*
X6909222Y1576738D01*
X6933092D01*
X6955144Y1585872D01*
X6972022Y1602750D01*
X6981157Y1624803D01*
Y1648672D01*
X6972022Y1670725D01*
X6955144Y1687603D01*
X6933092Y1696737D01*
D02*
G37*
G36*
X1981933Y1660002D02*
X1958064D01*
X1936011Y1650867D01*
X1919133Y1633989D01*
X1909999Y1611937D01*
Y1588067D01*
X1919133Y1566015D01*
X1936011Y1549136D01*
X1958064Y1540002D01*
X1981933D01*
X2003986Y1549136D01*
X2020864Y1566015D01*
X2029998Y1588067D01*
Y1611937D01*
X2020864Y1633989D01*
X2003986Y1650867D01*
X1981933Y1660002D01*
D02*
G37*
G36*
X4051937Y1609999D02*
X4028067D01*
X4006015Y1600865D01*
X3989137Y1583987D01*
X3980002Y1561934D01*
Y1538065D01*
X3989137Y1516012D01*
X4006015Y1499134D01*
X4028067Y1490000D01*
X4051937D01*
X4073989Y1499134D01*
X4090868Y1516012D01*
X4100002Y1538065D01*
Y1561934D01*
X4090868Y1583987D01*
X4073989Y1600865D01*
X4051937Y1609999D01*
D02*
G37*
G36*
X8459500Y1693822D02*
X8344500D01*
X8318163Y1688583D01*
X8295836Y1673664D01*
X8280917Y1651337D01*
X8275678Y1625000D01*
Y1550000D01*
X8280917Y1523663D01*
X8295836Y1501336D01*
X8318163Y1486417D01*
X8344500Y1481178D01*
X8459500D01*
X8485837Y1486417D01*
X8508164Y1501336D01*
X8523083Y1523663D01*
X8528322Y1550000D01*
Y1625000D01*
X8523083Y1651337D01*
X8508164Y1673664D01*
X8485837Y1688583D01*
X8459500Y1693822D01*
D02*
G37*
G36*
X8165500D02*
X8050500D01*
X8024163Y1688583D01*
X8001836Y1673664D01*
X7986917Y1651337D01*
X7981678Y1625000D01*
Y1550000D01*
X7986917Y1523663D01*
X8001836Y1501336D01*
X8024163Y1486417D01*
X8050500Y1481178D01*
X8165500D01*
X8191837Y1486417D01*
X8214164Y1501336D01*
X8229083Y1523663D01*
X8234322Y1550000D01*
Y1625000D01*
X8229083Y1651337D01*
X8214164Y1673664D01*
X8191837Y1688583D01*
X8165500Y1693822D01*
D02*
G37*
G36*
X7281935Y1702496D02*
X7258065D01*
X7236013Y1693362D01*
X7219134Y1676484D01*
X7210000Y1654431D01*
Y1641508D01*
X7195803D01*
X7173750Y1632373D01*
X7156872Y1615495D01*
X7147738Y1593442D01*
Y1569573D01*
X7155281Y1551362D01*
X7152555Y1541406D01*
X7148093Y1535086D01*
X7129122Y1527227D01*
X7112243Y1510349D01*
X7103109Y1488296D01*
Y1464427D01*
X7112243Y1442375D01*
X7121962Y1432656D01*
X7113751Y1412832D01*
Y1388963D01*
X7122885Y1366910D01*
X7139764Y1350032D01*
X7161816Y1340898D01*
X7174832D01*
X7181045Y1325898D01*
X7169135Y1313987D01*
X7160000Y1291935D01*
Y1268065D01*
X7169135Y1246013D01*
X7186013Y1229134D01*
X7208065Y1220000D01*
X7216379D01*
Y1208063D01*
X7225513Y1186010D01*
X7242391Y1169132D01*
X7264444Y1159998D01*
X7288313D01*
X7310366Y1169132D01*
X7327244Y1186010D01*
X7336379Y1208063D01*
Y1231932D01*
X7327244Y1253985D01*
X7310366Y1270863D01*
X7307253Y1272152D01*
Y1288388D01*
X7309054Y1289134D01*
X7325932Y1306013D01*
X7335066Y1328065D01*
Y1351935D01*
X7325932Y1373987D01*
X7309054Y1390865D01*
X7287001Y1400000D01*
X7263132D01*
X7248751Y1394043D01*
X7233751Y1403136D01*
Y1412832D01*
X7224616Y1434885D01*
X7214898Y1444604D01*
X7220928Y1459163D01*
X7223341Y1461124D01*
X7234820Y1465971D01*
X7238109Y1466405D01*
X7254683Y1459539D01*
X7278553D01*
X7300605Y1468674D01*
X7317483Y1485552D01*
X7326618Y1507605D01*
Y1531474D01*
X7317483Y1553526D01*
X7300605Y1570405D01*
X7296272Y1572200D01*
Y1588435D01*
X7303987Y1591631D01*
X7320865Y1608509D01*
X7330000Y1630562D01*
Y1654431D01*
X7320865Y1676484D01*
X7303987Y1693362D01*
X7281935Y1702496D01*
D02*
G37*
G36*
X6714419Y1542858D02*
X6690550D01*
X6668497Y1533723D01*
X6651619Y1516845D01*
X6642485Y1494793D01*
Y1470923D01*
X6651619Y1448871D01*
X6668497Y1431992D01*
X6690550Y1422858D01*
X6714419D01*
X6736472Y1431992D01*
X6753350Y1448871D01*
X6762485Y1470923D01*
Y1494793D01*
X6753350Y1516845D01*
X6736472Y1533723D01*
X6714419Y1542858D01*
D02*
G37*
G36*
X7421935Y1527039D02*
X7398065D01*
X7376013Y1517905D01*
X7359134Y1501026D01*
X7350000Y1478974D01*
Y1455105D01*
X7359134Y1433052D01*
X7376013Y1416174D01*
X7398065Y1407039D01*
X7421935D01*
X7443987Y1416174D01*
X7460865Y1433052D01*
X7470000Y1455105D01*
Y1478974D01*
X7460865Y1501026D01*
X7443987Y1517905D01*
X7421935Y1527039D01*
D02*
G37*
G36*
X2187998Y1518011D02*
X2164129D01*
X2142076Y1508876D01*
X2125198Y1491998D01*
X2116064Y1469945D01*
Y1446076D01*
X2125198Y1424024D01*
X2142076Y1407145D01*
X2164129Y1398011D01*
X2187998D01*
X2210051Y1407145D01*
X2226929Y1424024D01*
X2236064Y1446076D01*
Y1469945D01*
X2226929Y1491998D01*
X2210051Y1508876D01*
X2187998Y1518011D01*
D02*
G37*
G36*
X8165500Y1439822D02*
X8050500D01*
X8024163Y1434583D01*
X8001836Y1419664D01*
X7986917Y1397337D01*
X7981678Y1371000D01*
Y1354097D01*
X7966678Y1348175D01*
X7953987Y1360865D01*
X7931935Y1370000D01*
X7908065D01*
X7886013Y1360865D01*
X7869134Y1343987D01*
X7860000Y1321935D01*
Y1298065D01*
X7869134Y1276013D01*
X7886013Y1259134D01*
X7908065Y1250000D01*
X7931935D01*
X7953987Y1259134D01*
X7970444Y1275591D01*
X7973492Y1275606D01*
X7986123Y1273652D01*
X7986917Y1269663D01*
X8001836Y1247336D01*
X8024163Y1232417D01*
X8050500Y1227178D01*
X8165500D01*
X8191837Y1232417D01*
X8214164Y1247336D01*
X8229083Y1269663D01*
X8234322Y1296000D01*
Y1371000D01*
X8229083Y1397337D01*
X8214164Y1419664D01*
X8191837Y1434583D01*
X8165500Y1439822D01*
D02*
G37*
G36*
X2811934Y1540002D02*
X2788065D01*
X2766012Y1530868D01*
X2749134Y1513989D01*
X2740000Y1491937D01*
Y1468067D01*
X2746537Y1452284D01*
X2721854Y1442059D01*
X2697943Y1418148D01*
X2685002Y1386907D01*
Y1353092D01*
X2697943Y1321851D01*
X2721854Y1297941D01*
X2753095Y1285000D01*
X2786910D01*
X2818151Y1297941D01*
X2842061Y1321851D01*
X2855002Y1353092D01*
Y1386907D01*
X2842061Y1418148D01*
X2843137Y1438286D01*
X2850865Y1446015D01*
X2859999Y1468067D01*
Y1491937D01*
X2850865Y1513989D01*
X2833987Y1530868D01*
X2811934Y1540002D01*
D02*
G37*
G36*
X1501934Y1470000D02*
X1478065D01*
X1456012Y1460865D01*
X1439134Y1443987D01*
X1430000Y1421934D01*
Y1400002D01*
X1408068D01*
X1386015Y1390868D01*
X1369137Y1373990D01*
X1360002Y1351937D01*
Y1328068D01*
X1369137Y1306015D01*
X1386015Y1289137D01*
X1408068Y1280003D01*
X1431937D01*
X1453989Y1289137D01*
X1470868Y1306015D01*
X1480002Y1328068D01*
Y1350000D01*
X1501934D01*
X1523987Y1359134D01*
X1540865Y1376012D01*
X1549999Y1398065D01*
Y1421934D01*
X1540865Y1443987D01*
X1523987Y1460865D01*
X1501934Y1470000D01*
D02*
G37*
G36*
X6911935Y1400000D02*
X6888065D01*
X6866013Y1390866D01*
X6849134Y1373987D01*
X6840000Y1351935D01*
Y1328065D01*
X6849134Y1306013D01*
X6866013Y1289135D01*
X6888065Y1280000D01*
X6911935D01*
X6933987Y1289135D01*
X6950865Y1306013D01*
X6960000Y1328065D01*
Y1351935D01*
X6950865Y1373987D01*
X6933987Y1390866D01*
X6911935Y1400000D01*
D02*
G37*
G36*
X6201935Y1390000D02*
X6178065D01*
X6156013Y1380865D01*
X6139135Y1363987D01*
X6130000Y1341935D01*
Y1318065D01*
X6139135Y1296013D01*
X6156013Y1279134D01*
X6178065Y1270000D01*
X6201935D01*
X6223987Y1279134D01*
X6240866Y1296013D01*
X6250000Y1318065D01*
Y1341935D01*
X6240866Y1363987D01*
X6223987Y1380865D01*
X6201935Y1390000D01*
D02*
G37*
G36*
X5631934Y1370000D02*
X5608064D01*
X5586012Y1360865D01*
X5569133Y1343987D01*
X5559999Y1321935D01*
Y1298065D01*
X5569133Y1276013D01*
X5586012Y1259134D01*
X5608064Y1250000D01*
X5631934D01*
X5653986Y1259134D01*
X5670864Y1276013D01*
X5679999Y1298065D01*
Y1321935D01*
X5670864Y1343987D01*
X5653986Y1360865D01*
X5631934Y1370000D01*
D02*
G37*
G36*
X3762367Y1366337D02*
X3738497D01*
X3716445Y1357203D01*
X3699566Y1340324D01*
X3690432Y1318272D01*
Y1294403D01*
X3699566Y1272350D01*
X3716445Y1255472D01*
X3738497Y1246337D01*
X3762367D01*
X3784419Y1255472D01*
X3801297Y1272350D01*
X3810432Y1294403D01*
Y1318272D01*
X3801297Y1340324D01*
X3784419Y1357203D01*
X3762367Y1366337D01*
D02*
G37*
G36*
X8459500Y1439822D02*
X8344500D01*
X8318163Y1434583D01*
X8295836Y1419664D01*
X8280917Y1397337D01*
X8275678Y1371000D01*
Y1296000D01*
X8280917Y1269663D01*
X8295836Y1247336D01*
X8318163Y1232417D01*
X8344500Y1227178D01*
X8459500D01*
X8485837Y1232417D01*
X8508164Y1247336D01*
X8523083Y1269663D01*
X8528322Y1296000D01*
Y1371000D01*
X8523083Y1397337D01*
X8508164Y1419664D01*
X8485837Y1434583D01*
X8459500Y1439822D01*
D02*
G37*
G36*
X6431935Y1250000D02*
X6408065D01*
X6386013Y1240865D01*
X6369135Y1223987D01*
X6360000Y1201935D01*
Y1178065D01*
X6369135Y1156013D01*
X6386013Y1139134D01*
X6408065Y1130000D01*
X6431935D01*
X6453987Y1139134D01*
X6470866Y1156013D01*
X6480000Y1178065D01*
Y1201935D01*
X6470866Y1223987D01*
X6453987Y1240865D01*
X6431935Y1250000D01*
D02*
G37*
G36*
X8165500Y1185822D02*
X8050500D01*
X8024163Y1180583D01*
X8001836Y1165664D01*
X7986917Y1143337D01*
X7982636Y1121815D01*
X7982583Y1121780D01*
X7968694Y1117736D01*
X7967022Y1117831D01*
X7953987Y1130866D01*
X7931935Y1140000D01*
X7908065D01*
X7886013Y1130866D01*
X7869134Y1113987D01*
X7860000Y1091935D01*
Y1068065D01*
X7869134Y1046013D01*
X7886013Y1029135D01*
X7908065Y1020000D01*
X7931935D01*
X7953987Y1029135D01*
X7966729Y1041877D01*
X7970566Y1041908D01*
X7982497Y1037881D01*
X7986917Y1015663D01*
X8001836Y993336D01*
X8024163Y978417D01*
X8050500Y973178D01*
X8165500D01*
X8191837Y978417D01*
X8214164Y993336D01*
X8229083Y1015663D01*
X8234322Y1042000D01*
Y1117000D01*
X8229083Y1143337D01*
X8214164Y1165664D01*
X8191837Y1180583D01*
X8165500Y1185822D01*
D02*
G37*
G36*
X7427073Y1233188D02*
X7403204D01*
X7381151Y1224053D01*
X7364273Y1207175D01*
X7355138Y1185122D01*
Y1161253D01*
X7364273Y1139200D01*
X7381151Y1122322D01*
X7403204Y1113188D01*
X7427073D01*
X7449126Y1122322D01*
X7466004Y1139200D01*
X7475138Y1161253D01*
Y1185122D01*
X7466004Y1207175D01*
X7449126Y1224053D01*
X7427073Y1233188D01*
D02*
G37*
G36*
X2256299Y1170305D02*
X2232430D01*
X2210377Y1161171D01*
X2193499Y1144292D01*
X2184364Y1122240D01*
Y1098370D01*
X2188007Y1089577D01*
X2176526Y1078096D01*
X2171935Y1079998D01*
X2148066D01*
X2126014Y1070863D01*
X2109135Y1053985D01*
X2100001Y1031933D01*
Y1008063D01*
X2109135Y986011D01*
X2126014Y969132D01*
X2148066Y959998D01*
X2171935D01*
X2193988Y969132D01*
X2210866Y986011D01*
X2220001Y1008063D01*
Y1031933D01*
X2216358Y1040726D01*
X2227839Y1052207D01*
X2232430Y1050305D01*
X2256299D01*
X2278352Y1059440D01*
X2295230Y1076318D01*
X2304364Y1098370D01*
Y1122240D01*
X2295230Y1144292D01*
X2278352Y1161171D01*
X2256299Y1170305D01*
D02*
G37*
G36*
X6925766Y1186814D02*
X6901897D01*
X6879844Y1177680D01*
X6862966Y1160802D01*
X6853832Y1138749D01*
Y1114880D01*
X6862966Y1092827D01*
X6879844Y1075949D01*
X6901897Y1066814D01*
X6925766D01*
X6947819Y1075949D01*
X6964697Y1092827D01*
X6973831Y1114880D01*
Y1138749D01*
X6964697Y1160802D01*
X6947819Y1177680D01*
X6925766Y1186814D01*
D02*
G37*
G36*
X6591935Y1180000D02*
X6568065D01*
X6546013Y1170866D01*
X6529135Y1153987D01*
X6520000Y1131935D01*
Y1108065D01*
X6529135Y1086013D01*
X6546013Y1069135D01*
X6568065Y1060000D01*
X6591935D01*
X6613987Y1069135D01*
X6630866Y1086013D01*
X6640000Y1108065D01*
Y1131935D01*
X6630866Y1153987D01*
X6613987Y1170866D01*
X6591935Y1180000D01*
D02*
G37*
G36*
X7171935Y1170000D02*
X7148065D01*
X7126013Y1160866D01*
X7109134Y1143987D01*
X7100000Y1121935D01*
Y1098065D01*
X7109134Y1076013D01*
X7126013Y1059135D01*
X7148065Y1050000D01*
X7171935D01*
X7193987Y1059135D01*
X7210865Y1076013D01*
X7220000Y1098065D01*
Y1121935D01*
X7210865Y1143987D01*
X7193987Y1160866D01*
X7171935Y1170000D01*
D02*
G37*
G36*
X6141935Y1260000D02*
X6118065D01*
X6096013Y1250865D01*
X6079134Y1233987D01*
X6070000Y1211935D01*
Y1188065D01*
X6079134Y1166013D01*
X6096013Y1149134D01*
X6118065Y1140000D01*
X6141935D01*
X6163987Y1149134D01*
X6178495Y1163642D01*
X6189857Y1163513D01*
X6195425Y1161965D01*
X6197011Y1158136D01*
X6210147Y1145000D01*
X6209134Y1143987D01*
X6200000Y1121935D01*
Y1098065D01*
X6209134Y1076013D01*
X6226013Y1059135D01*
X6248065Y1050000D01*
X6271935D01*
X6293987Y1059135D01*
X6310865Y1076013D01*
X6320000Y1098065D01*
Y1121935D01*
X6310865Y1143987D01*
X6297730Y1157123D01*
X6298742Y1158136D01*
X6307877Y1180188D01*
Y1204058D01*
X6298742Y1226110D01*
X6281864Y1242988D01*
X6259811Y1252123D01*
X6235942D01*
X6213890Y1242988D01*
X6199382Y1228481D01*
X6188020Y1228610D01*
X6182452Y1230158D01*
X6180865Y1233987D01*
X6163987Y1250865D01*
X6141935Y1260000D01*
D02*
G37*
G36*
X5360626Y1142629D02*
X5336757D01*
X5314704Y1133495D01*
X5297826Y1116617D01*
X5288691Y1094564D01*
Y1070695D01*
X5297826Y1048642D01*
X5314704Y1031764D01*
X5336757Y1022629D01*
X5360626D01*
X5382679Y1031764D01*
X5399557Y1048642D01*
X5408691Y1070695D01*
Y1094564D01*
X5399557Y1116617D01*
X5382679Y1133495D01*
X5360626Y1142629D01*
D02*
G37*
G36*
X8459500Y1185822D02*
X8344500D01*
X8318163Y1180583D01*
X8295836Y1165664D01*
X8280917Y1143337D01*
X8275678Y1117000D01*
Y1042000D01*
X8280917Y1015663D01*
X8295836Y993336D01*
X8318163Y978417D01*
X8344500Y973178D01*
X8459500D01*
X8485837Y978417D01*
X8508164Y993336D01*
X8523083Y1015663D01*
X8528322Y1042000D01*
Y1117000D01*
X8523083Y1143337D01*
X8508164Y1165664D01*
X8485837Y1180583D01*
X8459500Y1185822D01*
D02*
G37*
G36*
X4662172Y1081964D02*
X4638302D01*
X4616250Y1072829D01*
X4599372Y1055951D01*
X4590237Y1033899D01*
Y1010029D01*
X4599372Y987977D01*
X4616250Y971098D01*
X4638302Y961964D01*
X4662172D01*
X4684224Y971098D01*
X4701103Y987977D01*
X4710237Y1010029D01*
Y1033899D01*
X4701103Y1055951D01*
X4684224Y1072829D01*
X4662172Y1081964D01*
D02*
G37*
G36*
X4522593Y1060658D02*
X4498724D01*
X4476671Y1051524D01*
X4459793Y1034646D01*
X4450659Y1012593D01*
Y988724D01*
X4459793Y966671D01*
X4476671Y949793D01*
X4498724Y940659D01*
X4522593D01*
X4544646Y949793D01*
X4561524Y966671D01*
X4570658Y988724D01*
Y1012593D01*
X4561524Y1034646D01*
X4544646Y1051524D01*
X4522593Y1060658D01*
D02*
G37*
G36*
X6401934Y1040001D02*
X6378065D01*
X6356012Y1030866D01*
X6339134Y1013988D01*
X6330000Y991936D01*
Y968066D01*
X6339134Y946014D01*
X6356012Y929135D01*
X6378065Y920001D01*
X6401934D01*
X6423987Y929135D01*
X6440865Y946014D01*
X6449999Y968066D01*
Y991936D01*
X6440865Y1013988D01*
X6423987Y1030866D01*
X6401934Y1040001D01*
D02*
G37*
G36*
X5781936Y919998D02*
X5758066D01*
X5736014Y910864D01*
X5724301Y899151D01*
X5715664Y895191D01*
X5704941Y898913D01*
X5693986Y909868D01*
X5671934Y919002D01*
X5648064D01*
X5626012Y909868D01*
X5615498Y899355D01*
X5603989Y910864D01*
X5581936Y919998D01*
X5558067D01*
X5536014Y910864D01*
X5519136Y893986D01*
X5513119Y879457D01*
X5496882D01*
X5490865Y893986D01*
X5473987Y910864D01*
X5451934Y919998D01*
X5428065D01*
X5406012Y910864D01*
X5394769Y899621D01*
X5385001Y895661D01*
X5375232Y899621D01*
X5363989Y910864D01*
X5341937Y919998D01*
X5318067D01*
X5296015Y910864D01*
X5284302Y899151D01*
X5275665Y895191D01*
X5264942Y898913D01*
X5253987Y909868D01*
X5231934Y919002D01*
X5208065D01*
X5186012Y909868D01*
X5169134Y892990D01*
X5160000Y870937D01*
Y847068D01*
X5169134Y825015D01*
X5186012Y808137D01*
X5208065Y799003D01*
X5231934D01*
X5253987Y808137D01*
X5265699Y819850D01*
X5274337Y823810D01*
X5285060Y820088D01*
X5296015Y809133D01*
X5318067Y799998D01*
X5341937D01*
X5363989Y809133D01*
X5375232Y820376D01*
X5385001Y824335D01*
X5394769Y820376D01*
X5406012Y809133D01*
X5428065Y799998D01*
X5451934D01*
X5473987Y809133D01*
X5490865Y826011D01*
X5496882Y840539D01*
X5513119D01*
X5519136Y826011D01*
X5536014Y809133D01*
X5558067Y799998D01*
X5581936D01*
X5603989Y809133D01*
X5614502Y819646D01*
X5626012Y808137D01*
X5648064Y799003D01*
X5671934D01*
X5693986Y808137D01*
X5705699Y819850D01*
X5714336Y823810D01*
X5725059Y820088D01*
X5736014Y809133D01*
X5758066Y799998D01*
X5781936D01*
X5803988Y809133D01*
X5820867Y826011D01*
X5830001Y848064D01*
Y871933D01*
X5820867Y893986D01*
X5803988Y910864D01*
X5781936Y919998D01*
D02*
G37*
G36*
X5011935Y910001D02*
X4988065D01*
X4966013Y900866D01*
X4960000Y894854D01*
X4953988Y900866D01*
X4931935Y910001D01*
X4908066D01*
X4886013Y900866D01*
X4869135Y883988D01*
X4860000Y861936D01*
Y838066D01*
X4869135Y816014D01*
X4886013Y799135D01*
X4908066Y790001D01*
X4931935D01*
X4953988Y799135D01*
X4960000Y805148D01*
X4966013Y799135D01*
X4988065Y790001D01*
X5011935D01*
X5033987Y799135D01*
X5050866Y816014D01*
X5060000Y838066D01*
Y861936D01*
X5050866Y883988D01*
X5033987Y900866D01*
X5011935Y910001D01*
D02*
G37*
G36*
X4101935Y1012500D02*
X4078065D01*
X4056013Y1003366D01*
X4039134Y986488D01*
X4030000Y964435D01*
Y940566D01*
X4039134Y918513D01*
X4056013Y901635D01*
X4078065Y892501D01*
X4101935D01*
X4123987Y901635D01*
X4140865Y918513D01*
X4150000Y940566D01*
Y964435D01*
X4140865Y986488D01*
X4123987Y1003366D01*
X4101935Y1012500D01*
D02*
G37*
G36*
X6531935Y970000D02*
X6508065D01*
X6486013Y960865D01*
X6469134Y943987D01*
X6460000Y921935D01*
Y898065D01*
X6469134Y876013D01*
X6486013Y859134D01*
X6508065Y850000D01*
X6531935D01*
X6553987Y859134D01*
X6570865Y876013D01*
X6580000Y898065D01*
Y921935D01*
X6570865Y943987D01*
X6553987Y960865D01*
X6531935Y970000D01*
D02*
G37*
G36*
X4729243Y959556D02*
X4705374D01*
X4683321Y950422D01*
X4666443Y933543D01*
X4657308Y911491D01*
Y887622D01*
X4666443Y865569D01*
X4683321Y848691D01*
X4705374Y839556D01*
X4729243D01*
X4751296Y848691D01*
X4768174Y865569D01*
X4777308Y887622D01*
Y911491D01*
X4768174Y933543D01*
X4751296Y950422D01*
X4729243Y959556D01*
D02*
G37*
G36*
X2721937Y1010001D02*
X2698068D01*
X2676015Y1000866D01*
X2659137Y983988D01*
X2650002Y961935D01*
Y938066D01*
X2659137Y916013D01*
X2676015Y899135D01*
X2698068Y890001D01*
X2721937D01*
X2740229Y897577D01*
X2751276Y889044D01*
X2752327Y887589D01*
X2749906Y881742D01*
Y857873D01*
X2759040Y835821D01*
X2775918Y818942D01*
X2797971Y809808D01*
X2821840D01*
X2843893Y818942D01*
X2860771Y835821D01*
X2869905Y857873D01*
Y881742D01*
X2860771Y903795D01*
X2843893Y920673D01*
X2821840Y929808D01*
X2797971D01*
X2779679Y922231D01*
X2768632Y930764D01*
X2767580Y932220D01*
X2770002Y938066D01*
Y961935D01*
X2760868Y983988D01*
X2743989Y1000866D01*
X2721937Y1010001D01*
D02*
G37*
G36*
X7301935Y1077500D02*
X7278065D01*
X7256013Y1068365D01*
X7239134Y1051487D01*
X7230000Y1029435D01*
Y1005565D01*
X7239134Y983513D01*
X7256013Y966634D01*
X7278065Y957500D01*
X7301935D01*
X7323987Y966634D01*
X7328930Y971578D01*
X7346624Y968058D01*
X7349936Y960064D01*
X7366814Y943185D01*
X7379391Y937976D01*
Y921197D01*
X7366519Y915866D01*
X7349641Y898987D01*
X7340507Y876935D01*
Y853065D01*
X7349641Y831013D01*
X7366519Y814135D01*
X7388572Y805000D01*
X7412441D01*
X7434494Y814135D01*
X7451372Y831013D01*
X7460506Y853065D01*
Y873192D01*
X7473378Y878523D01*
X7490256Y895402D01*
X7499391Y917454D01*
Y941323D01*
X7490256Y963376D01*
X7473378Y980254D01*
X7460801Y985464D01*
Y1005986D01*
X7451667Y1028038D01*
X7434789Y1044916D01*
X7412736Y1054051D01*
X7388867D01*
X7366814Y1044916D01*
X7361871Y1039973D01*
X7344177Y1043492D01*
X7340865Y1051487D01*
X7323987Y1068365D01*
X7301935Y1077500D01*
D02*
G37*
G36*
X6881513Y990440D02*
X6857643D01*
X6835591Y981306D01*
X6818712Y964428D01*
X6809578Y942375D01*
Y918506D01*
X6818712Y896453D01*
X6835591Y879575D01*
X6857643Y870441D01*
X6881513D01*
X6897408Y877025D01*
X6898417Y876765D01*
X6911266Y867677D01*
Y849589D01*
X6920400Y827536D01*
X6937278Y810658D01*
X6959331Y801523D01*
X6983200D01*
X7005253Y810658D01*
X7022131Y827536D01*
X7031266Y849589D01*
Y873458D01*
X7022131Y895511D01*
X7005253Y912389D01*
X6983200Y921523D01*
X6959331D01*
X6943436Y914939D01*
X6942426Y915199D01*
X6929578Y924287D01*
Y942375D01*
X6920443Y964428D01*
X6903565Y981306D01*
X6881513Y990440D01*
D02*
G37*
G36*
X3551933Y919998D02*
X3528063D01*
X3506011Y910864D01*
X3489132Y893986D01*
X3479998Y871933D01*
Y848064D01*
X3489132Y826011D01*
X3506011Y809133D01*
X3528063Y799998D01*
X3551933D01*
X3573985Y809133D01*
X3590864Y826011D01*
X3599998Y848064D01*
Y871933D01*
X3590864Y893986D01*
X3573985Y910864D01*
X3551933Y919998D01*
D02*
G37*
G36*
X2609019Y870001D02*
X2585149D01*
X2563097Y860866D01*
X2546218Y843988D01*
X2537084Y821936D01*
Y798066D01*
X2546218Y776014D01*
X2563097Y759135D01*
X2585149Y750001D01*
X2609019D01*
X2631071Y759135D01*
X2647949Y776014D01*
X2657084Y798066D01*
Y821936D01*
X2647949Y843988D01*
X2631071Y860866D01*
X2609019Y870001D01*
D02*
G37*
G36*
X7591895Y861570D02*
X7568025D01*
X7545973Y852435D01*
X7529094Y835557D01*
X7519960Y813504D01*
Y789635D01*
X7529094Y767582D01*
X7545973Y750704D01*
X7568025Y741570D01*
X7591895D01*
X7613947Y750704D01*
X7630825Y767582D01*
X7639960Y789635D01*
Y813504D01*
X7630825Y835557D01*
X7613947Y852435D01*
X7591895Y861570D01*
D02*
G37*
G36*
X6221935Y852500D02*
X6198065D01*
X6176013Y843365D01*
X6159134Y826487D01*
X6150000Y804435D01*
Y780565D01*
X6159134Y758513D01*
X6176013Y741634D01*
X6198065Y732500D01*
X6221935D01*
X6243987Y741634D01*
X6260866Y758513D01*
X6270000Y780565D01*
Y804435D01*
X6260866Y826487D01*
X6243987Y843365D01*
X6221935Y852500D01*
D02*
G37*
G36*
X3871937Y850001D02*
X3848068D01*
X3826015Y840866D01*
X3809137Y823988D01*
X3800003Y801936D01*
Y778066D01*
X3809137Y756014D01*
X3826015Y739135D01*
X3848068Y730001D01*
X3871937D01*
X3893990Y739135D01*
X3910868Y756014D01*
X3920002Y778066D01*
Y801936D01*
X3910868Y823988D01*
X3893990Y840866D01*
X3871937Y850001D01*
D02*
G37*
G36*
X6068880Y849165D02*
X6045011D01*
X6022958Y840031D01*
X6006080Y823153D01*
X5996946Y801100D01*
Y777231D01*
X6006080Y755178D01*
X6022958Y738300D01*
X6045011Y729165D01*
X6068880D01*
X6090933Y738300D01*
X6107811Y755178D01*
X6116945Y777231D01*
Y801100D01*
X6107811Y823153D01*
X6090933Y840031D01*
X6068880Y849165D01*
D02*
G37*
G36*
X3421935Y839998D02*
X3398066D01*
X3376014Y830864D01*
X3359135Y813986D01*
X3350001Y791933D01*
Y768064D01*
X3359135Y746011D01*
X3376014Y729133D01*
X3398066Y719999D01*
X3421935D01*
X3443988Y729133D01*
X3460866Y746011D01*
X3470001Y768064D01*
Y791933D01*
X3460866Y813986D01*
X3443988Y830864D01*
X3421935Y839998D01*
D02*
G37*
G36*
X8459500Y931822D02*
X8344500D01*
X8318163Y926583D01*
X8295836Y911664D01*
X8280917Y889337D01*
X8275678Y863000D01*
Y788000D01*
X8280917Y761663D01*
X8295836Y739336D01*
X8318163Y724417D01*
X8344500Y719178D01*
X8459500D01*
X8485837Y724417D01*
X8508164Y739336D01*
X8523083Y761663D01*
X8528322Y788000D01*
Y863000D01*
X8523083Y889337D01*
X8508164Y911664D01*
X8485837Y926583D01*
X8459500Y931822D01*
D02*
G37*
G36*
X7951935Y960000D02*
X7928065D01*
X7906013Y950866D01*
X7889135Y933987D01*
X7880000Y911935D01*
Y888065D01*
X7889135Y866013D01*
X7906013Y849134D01*
X7928065Y840000D01*
X7951935D01*
X7966678Y846107D01*
X7981678Y837226D01*
Y788000D01*
X7986917Y761663D01*
X8001836Y739336D01*
X8024163Y724417D01*
X8050500Y719178D01*
X8165500D01*
X8191837Y724417D01*
X8214164Y739336D01*
X8229083Y761663D01*
X8234322Y788000D01*
Y863000D01*
X8229083Y889337D01*
X8214164Y911664D01*
X8191837Y926583D01*
X8165500Y931822D01*
X8050500D01*
X8024163Y926583D01*
X8013202Y919259D01*
X7994633Y924892D01*
X7990866Y933987D01*
X7973987Y950866D01*
X7951935Y960000D01*
D02*
G37*
G36*
X4151935Y830000D02*
X4128065D01*
X4106013Y820866D01*
X4089135Y803987D01*
X4080000Y781935D01*
Y758065D01*
X4089135Y736013D01*
X4106013Y719134D01*
X4128065Y710000D01*
X4151935D01*
X4173987Y719134D01*
X4190866Y736013D01*
X4200000Y758065D01*
Y781935D01*
X4190866Y803987D01*
X4173987Y820866D01*
X4151935Y830000D01*
D02*
G37*
G36*
X2461932Y799998D02*
X2438063D01*
X2416010Y790864D01*
X2399132Y773986D01*
X2389998Y751933D01*
Y728064D01*
X2399132Y706011D01*
X2416010Y689133D01*
X2438063Y679999D01*
X2461932D01*
X2483985Y689133D01*
X2500863Y706011D01*
X2509998Y728064D01*
Y751933D01*
X2500863Y773986D01*
X2483985Y790864D01*
X2461932Y799998D01*
D02*
G37*
G36*
X6371935Y680000D02*
X6348065D01*
X6326013Y670866D01*
X6319998Y664851D01*
X6313985Y670864D01*
X6291932Y679999D01*
X6268063D01*
X6246010Y670864D01*
X6229999Y654853D01*
X6213987Y670866D01*
X6191935Y680000D01*
X6168065D01*
X6146013Y670866D01*
X6129135Y653987D01*
X6120000Y631935D01*
Y608066D01*
X6111885Y595920D01*
X6108700D01*
Y477200D01*
X6207420D01*
Y522000D01*
X6201793Y550288D01*
X6201142Y551263D01*
X6205496Y565617D01*
X6213987Y569134D01*
X6229998Y585145D01*
X6246010Y569133D01*
X6248248Y568206D01*
X6252602Y553852D01*
X6248917Y548337D01*
X6243678Y522000D01*
Y407000D01*
X6248917Y380663D01*
X6263836Y358336D01*
X6286163Y343417D01*
X6312500Y338178D01*
X6387500D01*
X6413837Y343417D01*
X6436164Y358336D01*
X6451083Y380663D01*
X6456322Y407000D01*
Y522000D01*
X6451083Y548337D01*
X6436164Y570664D01*
X6413837Y585583D01*
X6412063Y588903D01*
X6420000Y608065D01*
Y631935D01*
X6410866Y653987D01*
X6393987Y670866D01*
X6371935Y680000D01*
D02*
G37*
G36*
X7361935Y780000D02*
X7338065D01*
X7316013Y770866D01*
X7299134Y753987D01*
X7290000Y731935D01*
Y708065D01*
X7299134Y686013D01*
X7316013Y669135D01*
X7338065Y660000D01*
X7361935D01*
X7383987Y669135D01*
X7400866Y686013D01*
X7410000Y708065D01*
Y731935D01*
X7400866Y753987D01*
X7383987Y770866D01*
X7361935Y780000D01*
D02*
G37*
G36*
X6633601Y829049D02*
X6609732D01*
X6587679Y819914D01*
X6570801Y803036D01*
X6561667Y780983D01*
Y757114D01*
X6570801Y735062D01*
X6587679Y718183D01*
X6609732Y709049D01*
X6633601D01*
X6655654Y718183D01*
X6671180Y733710D01*
X6680175Y730727D01*
X6685039Y727970D01*
Y705245D01*
X6694173Y683193D01*
X6711051Y666315D01*
X6733104Y657180D01*
X6756973D01*
X6779026Y666315D01*
X6795904Y683193D01*
X6805038Y705245D01*
Y729115D01*
X6795904Y751167D01*
X6779026Y768046D01*
X6756973Y777180D01*
X6733104D01*
X6711051Y768046D01*
X6695525Y752519D01*
X6686530Y755502D01*
X6681666Y758259D01*
Y780983D01*
X6672532Y803036D01*
X6655654Y819914D01*
X6633601Y829049D01*
D02*
G37*
G36*
X7030235Y747703D02*
X7006366D01*
X6984313Y738568D01*
X6967435Y721690D01*
X6958301Y699638D01*
Y675768D01*
X6967435Y653716D01*
X6984313Y636837D01*
X7006366Y627703D01*
X7030235D01*
X7052288Y636837D01*
X7069166Y653716D01*
X7078300Y675768D01*
Y699638D01*
X7069166Y721690D01*
X7052288Y738568D01*
X7030235Y747703D01*
D02*
G37*
G36*
X6531935Y722500D02*
X6508065D01*
X6486013Y713366D01*
X6469134Y696487D01*
X6460000Y674435D01*
Y650565D01*
X6469134Y628513D01*
X6486013Y611635D01*
X6508065Y602500D01*
X6531935D01*
X6553987Y611635D01*
X6570865Y628513D01*
X6580000Y650565D01*
Y674435D01*
X6570865Y696487D01*
X6553987Y713366D01*
X6531935Y722500D01*
D02*
G37*
G36*
X1550000Y835000D02*
X1410000D01*
X1340000Y765000D01*
Y625000D01*
X1410000Y555000D01*
X1550000D01*
X1620000Y625000D01*
Y765000D01*
X1550000Y835000D01*
D02*
G37*
G36*
X7657500Y595920D02*
X7632700D01*
Y477200D01*
X7731420D01*
Y522000D01*
X7725793Y550288D01*
X7709769Y574269D01*
X7685788Y590293D01*
X7657500Y595920D01*
D02*
G37*
G36*
X7607300D02*
X7582500D01*
X7554212Y590293D01*
X7530231Y574269D01*
X7514207Y550288D01*
X7508580Y522000D01*
Y477200D01*
X7607300D01*
Y595920D01*
D02*
G37*
G36*
X7403500D02*
X7378700D01*
Y477200D01*
X7477420D01*
Y522000D01*
X7471793Y550288D01*
X7455769Y574269D01*
X7431788Y590293D01*
X7403500Y595920D01*
D02*
G37*
G36*
X7353300D02*
X7328500D01*
X7300212Y590293D01*
X7276231Y574269D01*
X7260207Y550288D01*
X7254580Y522000D01*
Y477200D01*
X7353300D01*
Y595920D01*
D02*
G37*
G36*
X6083300D02*
X6058500D01*
X6030212Y590293D01*
X6006231Y574269D01*
X5990207Y550288D01*
X5984580Y522000D01*
Y477200D01*
X6083300D01*
Y595920D01*
D02*
G37*
G36*
X2069500D02*
X2044700D01*
Y477200D01*
X2143420D01*
Y522000D01*
X2137793Y550288D01*
X2121769Y574269D01*
X2097788Y590293D01*
X2069500Y595920D01*
D02*
G37*
G36*
X2019300D02*
X1994500D01*
X1966212Y590293D01*
X1942231Y574269D01*
X1926207Y550288D01*
X1920580Y522000D01*
Y477200D01*
X2019300D01*
Y595920D01*
D02*
G37*
G36*
X8459500Y677822D02*
X8344500D01*
X8318163Y672583D01*
X8295836Y657664D01*
X8280917Y635337D01*
X8275678Y609000D01*
Y534000D01*
X8280917Y507663D01*
X8295836Y485336D01*
X8318163Y470417D01*
X8344500Y465178D01*
X8459500D01*
X8485837Y470417D01*
X8508164Y485336D01*
X8523083Y507663D01*
X8528322Y534000D01*
Y609000D01*
X8523083Y635337D01*
X8508164Y657664D01*
X8485837Y672583D01*
X8459500Y677822D01*
D02*
G37*
G36*
X8165500D02*
X8050500D01*
X8024163Y672583D01*
X8001836Y657664D01*
X7986917Y635337D01*
X7981678Y609000D01*
Y534000D01*
X7986917Y507663D01*
X8001836Y485336D01*
X8024163Y470417D01*
X8050500Y465178D01*
X8165500D01*
X8191837Y470417D01*
X8214164Y485336D01*
X8229083Y507663D01*
X8234322Y534000D01*
Y609000D01*
X8229083Y635337D01*
X8214164Y657664D01*
X8191837Y672583D01*
X8165500Y677822D01*
D02*
G37*
G36*
X1535000Y491763D02*
X1492700D01*
Y357700D01*
X1626763D01*
Y400000D01*
X1619778Y435116D01*
X1599887Y464887D01*
X1570116Y484778D01*
X1535000Y491763D01*
D02*
G37*
G36*
X1467300D02*
X1425000D01*
X1389884Y484778D01*
X1360114Y464887D01*
X1340222Y435116D01*
X1333237Y400000D01*
Y357700D01*
X1467300D01*
Y491763D01*
D02*
G37*
G36*
X7149500Y590822D02*
X7074500D01*
X7048163Y585583D01*
X7025836Y570664D01*
X7010917Y548337D01*
X7005678Y522000D01*
Y407000D01*
X7010917Y380663D01*
X7025836Y358336D01*
X7048163Y343417D01*
X7074500Y338178D01*
X7149500D01*
X7175837Y343417D01*
X7198164Y358336D01*
X7213083Y380663D01*
X7218322Y407000D01*
Y522000D01*
X7213083Y548337D01*
X7198164Y570664D01*
X7175837Y585583D01*
X7149500Y590822D01*
D02*
G37*
G36*
X6895500D02*
X6820500D01*
X6794163Y585583D01*
X6771836Y570664D01*
X6756917Y548337D01*
X6751678Y522000D01*
Y407000D01*
X6756917Y380663D01*
X6771836Y358336D01*
X6794163Y343417D01*
X6820500Y338178D01*
X6895500D01*
X6921837Y343417D01*
X6944164Y358336D01*
X6959083Y380663D01*
X6964322Y407000D01*
Y522000D01*
X6959083Y548337D01*
X6944164Y570664D01*
X6921837Y585583D01*
X6895500Y590822D01*
D02*
G37*
G36*
X6641500D02*
X6566500D01*
X6540163Y585583D01*
X6517836Y570664D01*
X6502917Y548337D01*
X6497678Y522000D01*
Y407000D01*
X6502917Y380663D01*
X6517836Y358336D01*
X6540163Y343417D01*
X6566500Y338178D01*
X6641500D01*
X6667837Y343417D01*
X6690164Y358336D01*
X6705083Y380663D01*
X6710322Y407000D01*
Y522000D01*
X6705083Y548337D01*
X6690164Y570664D01*
X6667837Y585583D01*
X6641500Y590822D01*
D02*
G37*
G36*
X5879500D02*
X5804500D01*
X5778163Y585583D01*
X5755836Y570664D01*
X5740917Y548337D01*
X5735678Y522000D01*
Y407000D01*
X5740917Y380663D01*
X5755836Y358336D01*
X5778163Y343417D01*
X5804500Y338178D01*
X5879500D01*
X5905837Y343417D01*
X5928164Y358336D01*
X5943083Y380663D01*
X5948322Y407000D01*
Y522000D01*
X5943083Y548337D01*
X5928164Y570664D01*
X5905837Y585583D01*
X5879500Y590822D01*
D02*
G37*
G36*
X5625500D02*
X5550500D01*
X5524163Y585583D01*
X5501836Y570664D01*
X5486917Y548337D01*
X5481678Y522000D01*
Y407000D01*
X5486917Y380663D01*
X5501836Y358336D01*
X5524163Y343417D01*
X5550500Y338178D01*
X5625500D01*
X5651837Y343417D01*
X5674164Y358336D01*
X5689083Y380663D01*
X5694322Y407000D01*
Y522000D01*
X5689083Y548337D01*
X5674164Y570664D01*
X5651837Y585583D01*
X5625500Y590822D01*
D02*
G37*
G36*
X5371500D02*
X5296500D01*
X5270163Y585583D01*
X5247836Y570664D01*
X5232917Y548337D01*
X5227678Y522000D01*
Y407000D01*
X5232917Y380663D01*
X5247836Y358336D01*
X5270163Y343417D01*
X5296500Y338178D01*
X5371500D01*
X5397837Y343417D01*
X5420164Y358336D01*
X5435083Y380663D01*
X5440322Y407000D01*
Y522000D01*
X5435083Y548337D01*
X5420164Y570664D01*
X5397837Y585583D01*
X5371500Y590822D01*
D02*
G37*
G36*
X5117500D02*
X5042500D01*
X5016163Y585583D01*
X4993836Y570664D01*
X4978917Y548337D01*
X4973678Y522000D01*
Y407000D01*
X4978917Y380663D01*
X4993836Y358336D01*
X5016163Y343417D01*
X5042500Y338178D01*
X5117500D01*
X5143837Y343417D01*
X5166164Y358336D01*
X5181083Y380663D01*
X5186322Y407000D01*
Y522000D01*
X5181083Y548337D01*
X5166164Y570664D01*
X5143837Y585583D01*
X5117500Y590822D01*
D02*
G37*
G36*
X4863500D02*
X4788500D01*
X4762163Y585583D01*
X4739836Y570664D01*
X4724917Y548337D01*
X4719678Y522000D01*
Y407000D01*
X4724917Y380663D01*
X4739836Y358336D01*
X4762163Y343417D01*
X4788500Y338178D01*
X4863500D01*
X4889837Y343417D01*
X4912164Y358336D01*
X4927083Y380663D01*
X4932322Y407000D01*
Y522000D01*
X4927083Y548337D01*
X4912164Y570664D01*
X4889837Y585583D01*
X4863500Y590822D01*
D02*
G37*
G36*
X4531935Y710000D02*
X4508065D01*
X4486013Y700866D01*
X4469135Y683987D01*
X4460000Y661935D01*
Y638065D01*
X4469135Y616013D01*
X4486013Y599134D01*
X4495539Y595189D01*
X4497206Y578262D01*
X4485836Y570664D01*
X4470917Y548337D01*
X4465678Y522000D01*
Y407000D01*
X4470917Y380663D01*
X4485836Y358336D01*
X4508163Y343417D01*
X4534500Y338178D01*
X4609500D01*
X4635837Y343417D01*
X4658164Y358336D01*
X4673083Y380663D01*
X4678322Y407000D01*
Y522000D01*
X4673083Y548337D01*
X4658164Y570664D01*
X4635837Y585583D01*
X4609500Y590822D01*
X4566888D01*
X4560675Y605822D01*
X4570866Y616013D01*
X4580000Y638065D01*
Y661935D01*
X4570866Y683987D01*
X4553987Y700866D01*
X4531935Y710000D01*
D02*
G37*
G36*
X4355500Y590822D02*
X4280500D01*
X4254163Y585583D01*
X4231836Y570664D01*
X4216917Y548337D01*
X4211678Y522000D01*
Y407000D01*
X4216917Y380663D01*
X4231836Y358336D01*
X4254163Y343417D01*
X4280500Y338178D01*
X4355500D01*
X4381837Y343417D01*
X4404164Y358336D01*
X4419083Y380663D01*
X4424322Y407000D01*
Y522000D01*
X4419083Y548337D01*
X4404164Y570664D01*
X4381837Y585583D01*
X4355500Y590822D01*
D02*
G37*
G36*
X4101500D02*
X4026500D01*
X4000163Y585583D01*
X3977836Y570664D01*
X3962917Y548337D01*
X3957678Y522000D01*
Y407000D01*
X3962917Y380663D01*
X3977836Y358336D01*
X4000163Y343417D01*
X4026500Y338178D01*
X4101500D01*
X4127837Y343417D01*
X4150164Y358336D01*
X4165083Y380663D01*
X4170322Y407000D01*
Y522000D01*
X4165083Y548337D01*
X4150164Y570664D01*
X4127837Y585583D01*
X4101500Y590822D01*
D02*
G37*
G36*
X3847500D02*
X3772500D01*
X3746163Y585583D01*
X3723836Y570664D01*
X3708917Y548337D01*
X3703678Y522000D01*
Y407000D01*
X3708917Y380663D01*
X3723836Y358336D01*
X3746163Y343417D01*
X3772500Y338178D01*
X3847500D01*
X3873837Y343417D01*
X3896164Y358336D01*
X3911083Y380663D01*
X3916322Y407000D01*
Y522000D01*
X3911083Y548337D01*
X3896164Y570664D01*
X3873837Y585583D01*
X3847500Y590822D01*
D02*
G37*
G36*
X3593500D02*
X3518500D01*
X3492163Y585583D01*
X3469836Y570664D01*
X3454917Y548337D01*
X3449678Y522000D01*
Y407000D01*
X3454917Y380663D01*
X3469836Y358336D01*
X3492163Y343417D01*
X3518500Y338178D01*
X3593500D01*
X3619837Y343417D01*
X3642164Y358336D01*
X3657083Y380663D01*
X3662322Y407000D01*
Y522000D01*
X3657083Y548337D01*
X3642164Y570664D01*
X3619837Y585583D01*
X3593500Y590822D01*
D02*
G37*
G36*
X3339500D02*
X3264500D01*
X3238163Y585583D01*
X3215836Y570664D01*
X3200917Y548337D01*
X3195678Y522000D01*
Y407000D01*
X3200917Y380663D01*
X3215836Y358336D01*
X3238163Y343417D01*
X3264500Y338178D01*
X3339500D01*
X3365837Y343417D01*
X3388164Y358336D01*
X3403083Y380663D01*
X3408322Y407000D01*
Y522000D01*
X3403083Y548337D01*
X3388164Y570664D01*
X3365837Y585583D01*
X3339500Y590822D01*
D02*
G37*
G36*
X3085500D02*
X3010500D01*
X2984163Y585583D01*
X2961836Y570664D01*
X2946917Y548337D01*
X2941678Y522000D01*
Y407000D01*
X2946917Y380663D01*
X2961836Y358336D01*
X2984163Y343417D01*
X3010500Y338178D01*
X3085500D01*
X3111837Y343417D01*
X3134164Y358336D01*
X3149083Y380663D01*
X3154322Y407000D01*
Y522000D01*
X3149083Y548337D01*
X3134164Y570664D01*
X3111837Y585583D01*
X3085500Y590822D01*
D02*
G37*
G36*
X2831500D02*
X2756500D01*
X2730163Y585583D01*
X2707836Y570664D01*
X2692917Y548337D01*
X2687678Y522000D01*
Y407000D01*
X2692917Y380663D01*
X2707836Y358336D01*
X2730163Y343417D01*
X2756500Y338178D01*
X2831500D01*
X2857837Y343417D01*
X2880164Y358336D01*
X2895083Y380663D01*
X2900322Y407000D01*
Y522000D01*
X2895083Y548337D01*
X2880164Y570664D01*
X2857837Y585583D01*
X2831500Y590822D01*
D02*
G37*
G36*
X2577500D02*
X2502500D01*
X2476163Y585583D01*
X2453836Y570664D01*
X2438917Y548337D01*
X2433678Y522000D01*
Y407000D01*
X2438917Y380663D01*
X2453836Y358336D01*
X2476163Y343417D01*
X2502500Y338178D01*
X2577500D01*
X2603837Y343417D01*
X2626164Y358336D01*
X2641083Y380663D01*
X2646322Y407000D01*
Y522000D01*
X2641083Y548337D01*
X2626164Y570664D01*
X2603837Y585583D01*
X2577500Y590822D01*
D02*
G37*
G36*
X2323500D02*
X2248500D01*
X2222163Y585583D01*
X2199836Y570664D01*
X2184917Y548337D01*
X2179678Y522000D01*
Y407000D01*
X2184917Y380663D01*
X2199836Y358336D01*
X2222163Y343417D01*
X2248500Y338178D01*
X2323500D01*
X2349837Y343417D01*
X2372164Y358336D01*
X2387083Y380663D01*
X2392322Y407000D01*
Y522000D01*
X2387083Y548337D01*
X2372164Y570664D01*
X2349837Y585583D01*
X2323500Y590822D01*
D02*
G37*
G36*
X7731420Y451800D02*
X7632700D01*
Y333080D01*
X7657500D01*
X7685788Y338707D01*
X7709769Y354731D01*
X7725793Y378712D01*
X7731420Y407000D01*
Y451800D01*
D02*
G37*
G36*
X7607300D02*
X7508580D01*
Y407000D01*
X7514207Y378712D01*
X7530231Y354731D01*
X7554212Y338707D01*
X7582500Y333080D01*
X7607300D01*
Y451800D01*
D02*
G37*
G36*
X7477420D02*
X7378700D01*
Y333080D01*
X7403500D01*
X7431788Y338707D01*
X7455769Y354731D01*
X7471793Y378712D01*
X7477420Y407000D01*
Y451800D01*
D02*
G37*
G36*
X7353300D02*
X7254580D01*
Y407000D01*
X7260207Y378712D01*
X7276231Y354731D01*
X7300212Y338707D01*
X7328500Y333080D01*
X7353300D01*
Y451800D01*
D02*
G37*
G36*
X6207420D02*
X6108700D01*
Y333080D01*
X6133500D01*
X6161788Y338707D01*
X6185769Y354731D01*
X6201793Y378712D01*
X6207420Y407000D01*
Y451800D01*
D02*
G37*
G36*
X6083300D02*
X5984580D01*
Y407000D01*
X5990207Y378712D01*
X6006231Y354731D01*
X6030212Y338707D01*
X6058500Y333080D01*
X6083300D01*
Y451800D01*
D02*
G37*
G36*
X2143420D02*
X2044700D01*
Y333080D01*
X2069500D01*
X2097788Y338707D01*
X2121769Y354731D01*
X2137793Y378712D01*
X2143420Y407000D01*
Y451800D01*
D02*
G37*
G36*
X2019300D02*
X1920580D01*
Y407000D01*
X1926207Y378712D01*
X1942231Y354731D01*
X1966212Y338707D01*
X1994500Y333080D01*
X2019300D01*
Y451800D01*
D02*
G37*
G36*
X8459500Y428920D02*
X8414700D01*
Y330200D01*
X8533420D01*
Y355000D01*
X8527793Y383288D01*
X8511769Y407269D01*
X8487788Y423293D01*
X8459500Y428920D01*
D02*
G37*
G36*
X8389300D02*
X8344500D01*
X8316212Y423293D01*
X8292231Y407269D01*
X8276207Y383288D01*
X8270580Y355000D01*
Y330200D01*
X8389300D01*
Y428920D01*
D02*
G37*
G36*
X8165500Y423822D02*
X8050500D01*
X8024163Y418583D01*
X8001836Y403664D01*
X7986917Y381337D01*
X7981678Y355000D01*
Y280000D01*
X7986917Y253663D01*
X8001836Y231336D01*
X8024163Y216417D01*
X8050500Y211178D01*
X8165500D01*
X8191837Y216417D01*
X8214164Y231336D01*
X8229083Y253663D01*
X8234322Y280000D01*
Y355000D01*
X8229083Y381337D01*
X8214164Y403664D01*
X8191837Y418583D01*
X8165500Y423822D01*
D02*
G37*
G36*
X8533420Y304800D02*
X8414700D01*
Y206080D01*
X8459500D01*
X8487788Y211707D01*
X8511769Y227731D01*
X8527793Y251712D01*
X8533420Y280000D01*
Y304800D01*
D02*
G37*
G36*
X8389300D02*
X8270580D01*
Y280000D01*
X8276207Y251712D01*
X8292231Y227731D01*
X8316212Y211707D01*
X8344500Y206080D01*
X8389300D01*
Y304800D01*
D02*
G37*
G36*
X1626763Y332300D02*
X1492700D01*
Y198237D01*
X1535000D01*
X1570116Y205222D01*
X1599887Y225114D01*
X1619778Y254884D01*
X1626763Y290000D01*
Y332300D01*
D02*
G37*
G36*
X1467300D02*
X1333237D01*
Y290000D01*
X1340222Y254884D01*
X1360114Y225114D01*
X1389884Y205222D01*
X1425000Y198237D01*
X1467300D01*
Y332300D01*
D02*
G37*
G36*
X7657500Y301920D02*
X7632700D01*
Y183200D01*
X7731420D01*
Y228000D01*
X7725793Y256288D01*
X7709769Y280269D01*
X7685788Y296293D01*
X7657500Y301920D01*
D02*
G37*
G36*
X7607300D02*
X7582500D01*
X7554212Y296293D01*
X7530231Y280269D01*
X7514207Y256288D01*
X7508580Y228000D01*
Y183200D01*
X7607300D01*
Y301920D01*
D02*
G37*
G36*
X7403500D02*
X7378700D01*
Y183200D01*
X7477420D01*
Y228000D01*
X7471793Y256288D01*
X7455769Y280269D01*
X7431788Y296293D01*
X7403500Y301920D01*
D02*
G37*
G36*
X7353300D02*
X7328500D01*
X7300212Y296293D01*
X7276231Y280269D01*
X7260207Y256288D01*
X7254580Y228000D01*
Y183200D01*
X7353300D01*
Y301920D01*
D02*
G37*
G36*
X2069500D02*
X2044700D01*
Y183200D01*
X2143420D01*
Y228000D01*
X2137793Y256288D01*
X2121769Y280269D01*
X2097788Y296293D01*
X2069500Y301920D01*
D02*
G37*
G36*
X2019300D02*
X1994500D01*
X1966212Y296293D01*
X1942231Y280269D01*
X1926207Y256288D01*
X1920580Y228000D01*
Y183200D01*
X2019300D01*
Y301920D01*
D02*
G37*
%LPD*%
D93*
X1480000Y345000D02*
D03*
D94*
Y695000D02*
D03*
D95*
X7920000Y1310000D02*
D03*
X6619936Y2469793D02*
D03*
X7163109Y1476362D02*
D03*
X7207737Y1581508D02*
D03*
X7173751Y1400898D02*
D03*
X6620000Y4210000D02*
D03*
X7390000Y2770000D02*
D03*
X6758477Y3132500D02*
D03*
X4177817Y3512327D02*
D03*
X6260000Y1110000D02*
D03*
X5780000Y4720764D02*
D03*
X3940000Y4200000D02*
D03*
Y3890000D02*
D03*
X3950000Y3270000D02*
D03*
X3952139Y2870563D02*
D03*
X5465089Y3146265D02*
D03*
X5990000Y3320000D02*
D03*
X6240000Y3580000D02*
D03*
X7160000Y2910000D02*
D03*
X3890000Y2120000D02*
D03*
X5626454Y1732447D02*
D03*
X3640000Y1900000D02*
D03*
X4064315Y1439665D02*
D03*
X1860000Y690000D02*
D03*
X3303372Y984531D02*
D03*
X3750000Y850000D02*
D03*
X4240000Y880000D02*
D03*
X6043958Y1405486D02*
D03*
X6520000Y2130000D02*
D03*
X6049229Y1911878D02*
D03*
X6120000Y1680000D02*
D03*
X5980000Y730000D02*
D03*
X6310000Y1030000D02*
D03*
X6490000Y1130000D02*
D03*
X7750000Y820000D02*
D03*
X7500000Y1810000D02*
D03*
X6170000Y2490000D02*
D03*
X5980000Y2200000D02*
D03*
X6380000Y3030000D02*
D03*
X7374515Y3795271D02*
D03*
X8490000Y2580000D02*
D03*
X7090000Y3510000D02*
D03*
X7500000Y3440000D02*
D03*
X6945854Y4187091D02*
D03*
X7700000Y4830000D02*
D03*
X6278713Y4576547D02*
D03*
X4880000Y4830000D02*
D03*
X1200000Y4080000D02*
D03*
X2860000Y4820000D02*
D03*
X5360000Y4550000D02*
D03*
X4730000Y4820000D02*
D03*
X3480000Y4570000D02*
D03*
X4140000Y770000D02*
D03*
X4090000Y952501D02*
D03*
X7820062Y1664308D02*
D03*
X5820000Y4180000D02*
D03*
X5920000Y4240000D02*
D03*
X4827498Y4212502D02*
D03*
X7940000Y900000D02*
D03*
X7690000Y1730000D02*
D03*
X7039944Y3238075D02*
D03*
X3880000Y2460000D02*
D03*
X4020000D02*
D03*
X6420000Y1190000D02*
D03*
X4510658Y1000658D02*
D03*
X4260000Y1970000D02*
D03*
X7480000Y3210000D02*
D03*
X7437733Y3144823D02*
D03*
X7400004Y3080004D02*
D03*
X7910000Y4900000D02*
D03*
X7170000Y4290000D02*
D03*
X1620500Y5283500D02*
D03*
Y5003500D02*
D03*
X1300500D02*
D03*
Y5283500D02*
D03*
X6830000Y1140000D02*
D03*
X6743800Y967390D02*
D03*
X6913831Y1126814D02*
D03*
X7912500Y3760182D02*
D03*
X8260000Y4250000D02*
D03*
X7691319Y4259599D02*
D03*
X7772455Y4541138D02*
D03*
X7720000Y4730000D02*
D03*
X6520000Y800000D02*
D03*
X6869578Y930441D02*
D03*
X6757517Y2979934D02*
D03*
X6830000Y2940000D02*
D03*
X6926944Y2946987D02*
D03*
X6892467Y2880382D02*
D03*
X6816210Y1722534D02*
D03*
X6701717Y1654212D02*
D03*
X6921157Y1636737D02*
D03*
X6521684Y1431004D02*
D03*
X6247877Y1192123D02*
D03*
X6190000Y1330000D02*
D03*
X7276717Y3254924D02*
D03*
X7020384Y3452499D02*
D03*
X8301041Y2657970D02*
D03*
X8190504Y2548612D02*
D03*
X7290000Y3760000D02*
D03*
X7290503Y3890503D02*
D03*
X7136675Y3909711D02*
D03*
X7364497Y4014497D02*
D03*
X7127907Y3714183D02*
D03*
X7184135Y4430000D02*
D03*
X7435217Y2540000D02*
D03*
X7400004Y2467263D02*
D03*
X7438317Y2399991D02*
D03*
X7830000Y5080000D02*
D03*
X6460000Y3600000D02*
D03*
X6775000Y2670000D02*
D03*
X6696405Y2533105D02*
D03*
X6799233Y4547500D02*
D03*
X7000000Y4617500D02*
D03*
X7030708Y4757037D02*
D03*
X6680000Y4657500D02*
D03*
X7481743Y4650021D02*
D03*
X7340000Y4180000D02*
D03*
X7890667Y3972969D02*
D03*
X7684966Y3077937D02*
D03*
X7576734Y2973305D02*
D03*
X4620000Y3370000D02*
D03*
X7437578Y3013266D02*
D03*
X7379587Y3200479D02*
D03*
X7360000Y4780000D02*
D03*
X7177486Y4714545D02*
D03*
X7410000Y1467039D02*
D03*
X7266618Y1519539D02*
D03*
X7270000Y1642497D02*
D03*
X7040000Y4390000D02*
D03*
X7640000Y1160000D02*
D03*
X6929698Y1899612D02*
D03*
X7050000Y1700000D02*
D03*
X7160000Y2050000D02*
D03*
X7161734Y2360373D02*
D03*
X7435217Y2831292D02*
D03*
Y2709013D02*
D03*
X7664392Y2770005D02*
D03*
X7350000Y720000D02*
D03*
X7415138Y1173188D02*
D03*
X7030504Y1381385D02*
D03*
X6520000Y910000D02*
D03*
X6640120Y676869D02*
D03*
X6745039Y717180D02*
D03*
X7150000Y670000D02*
D03*
Y880000D02*
D03*
X2380000Y1120000D02*
D03*
X4153410Y4394019D02*
D03*
X4064287Y4646664D02*
D03*
X4080000Y4720000D02*
D03*
X7130000Y3794248D02*
D03*
X7010000Y3782532D02*
D03*
X6730000Y3570000D02*
D03*
X6660000Y3960000D02*
D03*
X6750000Y3990000D02*
D03*
X7560000Y3390000D02*
D03*
X6670000Y3380000D02*
D03*
X4450000Y4840000D02*
D03*
X7389999Y2160464D02*
D03*
X7438846Y2100975D02*
D03*
X7436511Y2220975D02*
D03*
X7680000Y932498D02*
D03*
X8060000Y2920000D02*
D03*
X8188000Y2914999D02*
D03*
X7290000Y1017500D02*
D03*
X6580000Y1120000D02*
D03*
X6520000Y662500D02*
D03*
X6360000Y620000D02*
D03*
X6056945Y789165D02*
D03*
X6210000Y792500D02*
D03*
X6180000Y620000D02*
D03*
X6279998Y619999D02*
D03*
X5959798Y2059267D02*
D03*
X5550000Y2090000D02*
D03*
X5580000Y1820000D02*
D03*
X5645000Y2320000D02*
D03*
X5090003Y1820001D02*
D03*
X5280000Y1840000D02*
D03*
X6255000Y1801795D02*
D03*
X5847877Y2277877D02*
D03*
X7430000Y3390000D02*
D03*
X8049255Y2489428D02*
D03*
X5080000Y2470000D02*
D03*
X4640001Y3013684D02*
D03*
X7920000Y1080000D02*
D03*
X7567500Y2050000D02*
D03*
X7680719Y2161393D02*
D03*
X7510000Y1577499D02*
D03*
X7530000Y4710000D02*
D03*
X7010045Y3870045D02*
D03*
X7009427Y3950000D02*
D03*
X6905000Y3770000D02*
D03*
X6830000D02*
D03*
X8449140Y2890804D02*
D03*
X7510000Y1282500D02*
D03*
X6905000Y2680000D02*
D03*
X6832014Y3457082D02*
D03*
X6460000Y3460000D02*
D03*
X6460002Y2839999D02*
D03*
X6140000Y2990000D02*
D03*
X6500000Y2390000D02*
D03*
X7380000Y1970000D02*
D03*
X5730557Y1165349D02*
D03*
X7160000Y1110000D02*
D03*
X6710000Y3260000D02*
D03*
X7390000Y4250000D02*
D03*
X6740000Y2840694D02*
D03*
X6700000Y2230000D02*
D03*
X6580000Y1660000D02*
D03*
X6702485Y1482858D02*
D03*
X7320000Y4680000D02*
D03*
X7490000Y4780000D02*
D03*
X6621666Y769049D02*
D03*
X7293185Y3039809D02*
D03*
X7287773Y2768818D02*
D03*
X7295402Y2519304D02*
D03*
X7298761Y2159163D02*
D03*
X6389999Y980001D02*
D03*
X7324999Y1819514D02*
D03*
X6700000Y1890000D02*
D03*
X6580000D02*
D03*
X6905804Y2556414D02*
D03*
X6905000Y2223004D02*
D03*
X6900000Y1340000D02*
D03*
X6971266Y861523D02*
D03*
X7275066Y1340000D02*
D03*
X7220000Y1280000D02*
D03*
X7276379Y1219998D02*
D03*
X7400801Y994051D02*
D03*
X6130000Y1200000D02*
D03*
X6758670Y3834586D02*
D03*
X6980000Y4040000D02*
D03*
X6620000Y4130000D02*
D03*
X6805525Y4232500D02*
D03*
X6641771Y4528229D02*
D03*
X6675815Y4271571D02*
D03*
X6620000Y4710000D02*
D03*
Y4600000D02*
D03*
X6580000Y4480000D02*
D03*
X6560000Y4400000D02*
D03*
X6580607Y4325754D02*
D03*
X6620000Y2390000D02*
D03*
Y2150000D02*
D03*
Y2230000D02*
D03*
X7037157Y4467089D02*
D03*
X7439391Y929389D02*
D03*
X7400506Y865000D02*
D03*
X7159765Y3093321D02*
D03*
X7018300Y687703D02*
D03*
X4520000Y650000D02*
D03*
X4920000Y850001D02*
D03*
X5000000D02*
D03*
X6350000Y4610000D02*
D03*
X5732500Y2680000D02*
D03*
X7574885Y2673333D02*
D03*
X7573961Y2363192D02*
D03*
X7579960Y801570D02*
D03*
X7670000Y2470000D02*
D03*
X6742723Y2740224D02*
D03*
X6000000Y2570002D02*
D03*
X5170002Y2899999D02*
D03*
X5282432Y2976251D02*
D03*
X5207808Y2968752D02*
D03*
X5166248Y3033751D02*
D03*
X5350000Y3160000D02*
D03*
X3639998Y4509999D02*
D03*
X5430002Y4609998D02*
D03*
X3860002Y790001D02*
D03*
X6119998Y4580001D02*
D03*
Y4500001D02*
D03*
X5966109Y4566107D02*
D03*
X5870001Y4589998D02*
D03*
X5348691Y1082629D02*
D03*
X4040002Y1549999D02*
D03*
X4010000Y2229998D02*
D03*
X1420002Y1340002D02*
D03*
X2160001Y1019998D02*
D03*
X2809905Y869808D02*
D03*
X1390000Y1640002D02*
D03*
X2710002Y950001D02*
D03*
X5220000Y3530001D02*
D03*
X5130002Y3820003D02*
D03*
X2950002Y3170001D02*
D03*
X3739998Y2959999D02*
D03*
X5499999Y3770000D02*
D03*
X1969999Y1600002D02*
D03*
X2750002Y2140001D02*
D03*
X3302853Y2413635D02*
D03*
X2449998Y739999D02*
D03*
X3172501Y3434999D02*
D03*
X2690073Y3494999D02*
D03*
X2389998Y2780000D02*
D03*
X2504247Y3914247D02*
D03*
X3159857Y3625738D02*
D03*
X3559998Y3599998D02*
D03*
X2700000Y4100002D02*
D03*
X4429999Y3750000D02*
D03*
X4320002Y2770002D02*
D03*
X3539998Y859998D02*
D03*
X2982498Y4369999D02*
D03*
X3179999Y4360001D02*
D03*
X2469998Y2280001D02*
D03*
X2176064Y1458011D02*
D03*
X3410001Y779998D02*
D03*
X4717308Y899556D02*
D03*
X4880000Y3239999D02*
D03*
X4952487Y5137236D02*
D03*
X5710469Y5139578D02*
D03*
X5650001Y4609998D02*
D03*
X3912235Y4607992D02*
D03*
X3781847Y4608104D02*
D03*
X5540817Y4609998D02*
D03*
X4249994Y3359993D02*
D03*
X4480001Y2449998D02*
D03*
X5439999Y859998D02*
D03*
X4769998Y3499998D02*
D03*
X5330002Y859998D02*
D03*
X4090101Y2928584D02*
D03*
X5220000Y859003D02*
D03*
X4560001Y2389998D02*
D03*
X4440001Y3970000D02*
D03*
X1490000Y1410000D02*
D03*
X2125000Y1809039D02*
D03*
X4680001Y2680000D02*
D03*
X6057133Y2982869D02*
D03*
X3101355Y3019999D02*
D03*
X4650237Y1021964D02*
D03*
X2300575Y2211070D02*
D03*
X2244364Y1110305D02*
D03*
X2890002Y3010002D02*
D03*
X4389999Y1920001D02*
D03*
X3598748Y2591252D02*
D03*
X4230624Y2590002D02*
D03*
X6300003Y2990002D02*
D03*
X5619999Y1310000D02*
D03*
X3750432Y1306337D02*
D03*
X2799999Y1480002D02*
D03*
X3406531Y2222546D02*
D03*
X3297210Y2135215D02*
D03*
X3335000Y2200001D02*
D03*
X5539999Y3699998D02*
D03*
X4300002Y3039999D02*
D03*
X4460001Y4060002D02*
D03*
X4250502Y3461385D02*
D03*
X4709988Y3789995D02*
D03*
X5770001Y859998D02*
D03*
X4160002Y3930000D02*
D03*
X4253596Y2895651D02*
D03*
X4816185Y3703818D02*
D03*
X4997145Y3165409D02*
D03*
X5659999Y859003D02*
D03*
X4092499Y3090001D02*
D03*
X4200002Y4120002D02*
D03*
X5570002Y859998D02*
D03*
X1400002Y919998D02*
D03*
X1760002Y1199998D02*
D03*
X1420002Y1840001D02*
D03*
X1820001Y1280003D02*
D03*
X1849999Y1820001D02*
D03*
X2440000Y619999D02*
D03*
X2670002D02*
D03*
X3039999Y899998D02*
D03*
X2429998Y1629999D02*
D03*
X2119640Y2050359D02*
D03*
X2200001Y2799999D02*
D03*
Y2899999D02*
D03*
X2295022Y2747533D02*
D03*
X2400000Y2440000D02*
D03*
Y2560000D02*
D03*
Y2680000D02*
D03*
X2769342Y2040661D02*
D03*
X3070001Y2389998D02*
D03*
X2635001Y2429998D02*
D03*
X2750002Y2460000D02*
D03*
X3130001Y1170000D02*
D03*
X3438703Y1660022D02*
D03*
X3279999Y1849999D02*
D03*
X3550001Y2229998D02*
D03*
X3679998Y319999D02*
D03*
X4019956Y920049D02*
D03*
X4080002Y1070000D02*
D03*
X4189999Y319999D02*
D03*
X3790000Y1230000D02*
D03*
X4060002Y1629999D02*
D03*
X3077352Y2569393D02*
D03*
X3319998Y2919999D02*
D03*
X3559998Y2770002D02*
D03*
X4310624Y2309998D02*
D03*
X2200001Y3199999D02*
D03*
Y2999999D02*
D03*
Y3099999D02*
D03*
Y3299998D02*
D03*
Y3399998D02*
D03*
X2727310Y3290001D02*
D03*
X2180001Y3900002D02*
D03*
X2200001Y3699998D02*
D03*
X2189998Y3800003D02*
D03*
X2049998Y4050000D02*
D03*
X1949999Y4080002D02*
D03*
X2129998Y3990000D02*
D03*
X2160001Y4089999D02*
D03*
X2200001Y3599998D02*
D03*
Y3499998D02*
D03*
X2530000Y3680000D02*
D03*
X2398710Y3902954D02*
D03*
X2400000Y4000002D02*
D03*
X2650002Y3970000D02*
D03*
X3259999Y3290001D02*
D03*
X2764998Y3739998D02*
D03*
X3021665Y3349447D02*
D03*
X3079999Y3739998D02*
D03*
X1849999Y4600001D02*
D03*
Y4400001D02*
D03*
Y4500001D02*
D03*
Y4700001D02*
D03*
Y4300002D02*
D03*
Y4100002D02*
D03*
Y4200002D02*
D03*
X1949999Y4700001D02*
D03*
X2049998D02*
D03*
X2405305Y4087301D02*
D03*
X2502124Y4182125D02*
D03*
X2710002Y4180002D02*
D03*
X2640000Y4529999D02*
D03*
X2590002Y4620001D02*
D03*
X2249998Y4700001D02*
D03*
X2149998D02*
D03*
X2349998D02*
D03*
X3279999Y4349999D02*
D03*
X3330001Y3179999D02*
D03*
X3449340Y3689340D02*
D03*
X3719998Y3156915D02*
D03*
X3730000Y3499998D02*
D03*
X3542447Y3860002D02*
D03*
X3330001Y4097503D02*
D03*
X3659998Y4380001D02*
D03*
X4820001Y899998D02*
D03*
X4949998Y319999D02*
D03*
X5030003Y970001D02*
D03*
X4849998Y1560002D02*
D03*
X4669998Y1580002D02*
D03*
X4731710Y2143470D02*
D03*
X4878949Y2084182D02*
D03*
X4627499Y2507498D02*
D03*
X5110002Y2129998D02*
D03*
X5192502Y2500000D02*
D03*
X5979998Y2790002D02*
D03*
X6300003Y2780000D02*
D03*
X4420001Y3339998D02*
D03*
X4820001Y3390001D02*
D03*
X5050003Y3510001D02*
D03*
X5170002Y3390001D02*
D03*
X5710001Y3290001D02*
D03*
X4420001Y3660003D02*
D03*
X4589998Y4209999D02*
D03*
X4453077Y4211808D02*
D03*
X5414112Y3623213D02*
D03*
X5180000Y3639998D02*
D03*
X2430003Y1760002D02*
D03*
X2540000Y2100001D02*
D03*
X2508230Y4323171D02*
D03*
X3379998Y4340001D02*
D03*
X2979999Y3840002D02*
D03*
X6130000Y2630002D02*
D03*
X3470001Y3399998D02*
D03*
X4480001Y3459998D02*
D03*
X4915860Y3469142D02*
D03*
X2597084Y810001D02*
D03*
X4760001Y2770002D02*
D03*
X4720001Y3085003D02*
D03*
X4320002Y3130001D02*
D03*
X3599998Y3370001D02*
D03*
X3279308Y2029998D02*
D03*
X4889998Y2220001D02*
D03*
X4640169Y3578276D02*
D03*
X4450659Y3840658D02*
D03*
X4415003Y2755001D02*
D03*
X4709998Y4200002D02*
D03*
X4449999Y4289999D02*
D03*
D96*
X2770002Y1370000D02*
D03*
X2349998D02*
D03*
D97*
X8108000Y2349500D02*
D03*
Y2095500D02*
D03*
Y1841500D02*
D03*
Y1587500D02*
D03*
Y1333500D02*
D03*
Y1079500D02*
D03*
Y825500D02*
D03*
X8402000Y2349500D02*
D03*
Y2095500D02*
D03*
Y1841500D02*
D03*
Y1587500D02*
D03*
Y1333500D02*
D03*
Y1079500D02*
D03*
Y825500D02*
D03*
X8108000Y571500D02*
D03*
Y317500D02*
D03*
X8402000Y571500D02*
D03*
Y317500D02*
D03*
X8108000Y5143500D02*
D03*
Y4889500D02*
D03*
Y4635500D02*
D03*
Y4381500D02*
D03*
Y4127500D02*
D03*
Y3873500D02*
D03*
Y3619500D02*
D03*
X8402000Y5143500D02*
D03*
Y4889500D02*
D03*
Y4635500D02*
D03*
Y4381500D02*
D03*
Y4127500D02*
D03*
Y3873500D02*
D03*
Y3619500D02*
D03*
X8108000Y3365500D02*
D03*
Y3111500D02*
D03*
X8402000Y3365500D02*
D03*
Y3111500D02*
D03*
D98*
X7620000Y464500D02*
D03*
X7366000D02*
D03*
X7112000D02*
D03*
X6858000D02*
D03*
X6604000D02*
D03*
X6350000D02*
D03*
X6096000D02*
D03*
X5842000D02*
D03*
X5588000D02*
D03*
X5334000D02*
D03*
X5080000D02*
D03*
X4826000D02*
D03*
X4572000D02*
D03*
X4318000D02*
D03*
X4064000D02*
D03*
X3810000D02*
D03*
X3556000D02*
D03*
X3302000D02*
D03*
X3048000D02*
D03*
X2794000D02*
D03*
X2540000D02*
D03*
X2286000D02*
D03*
X2032000D02*
D03*
X7620000Y170500D02*
D03*
X7366000D02*
D03*
X7112000D02*
D03*
X6858000D02*
D03*
X6604000D02*
D03*
X6350000D02*
D03*
X6096000D02*
D03*
X5842000D02*
D03*
X5588000D02*
D03*
X5334000D02*
D03*
X5080000D02*
D03*
X4826000D02*
D03*
X4572000D02*
D03*
X4318000D02*
D03*
X4064000D02*
D03*
X3810000D02*
D03*
X3556000D02*
D03*
X3302000D02*
D03*
X3048000D02*
D03*
X2794000D02*
D03*
X2540000D02*
D03*
X2286000D02*
D03*
X2032000D02*
D03*
X7620000Y5290500D02*
D03*
X7366000D02*
D03*
X7112000D02*
D03*
X6858000D02*
D03*
X6604000D02*
D03*
X6350000D02*
D03*
X6096000D02*
D03*
X5842000D02*
D03*
X5588000D02*
D03*
X5334000D02*
D03*
X5080000D02*
D03*
X4826000D02*
D03*
X4572000D02*
D03*
X4318000D02*
D03*
X4064000D02*
D03*
X3810000D02*
D03*
X3556000D02*
D03*
X3302000D02*
D03*
X3048000D02*
D03*
X2794000D02*
D03*
X2540000D02*
D03*
X2286000D02*
D03*
X2032000D02*
D03*
X7620000Y4996500D02*
D03*
X7366000D02*
D03*
X7112000D02*
D03*
X6858000D02*
D03*
X6604000D02*
D03*
X6350000D02*
D03*
X6096000D02*
D03*
X5842000D02*
D03*
X5588000D02*
D03*
X5334000D02*
D03*
X5080000D02*
D03*
X4826000D02*
D03*
X4572000D02*
D03*
X4318000D02*
D03*
X4064000D02*
D03*
X3810000D02*
D03*
X3556000D02*
D03*
X3302000D02*
D03*
X3048000D02*
D03*
X2794000D02*
D03*
X2540000D02*
D03*
X2286000D02*
D03*
X2032000D02*
D03*
Y4532400D02*
D03*
X2286000D02*
D03*
X2032000Y4238400D02*
D03*
X2286000D02*
D03*
D99*
X1460500Y5143500D02*
D03*
%TF.MD5,86392b04fa4cbfc5d83f451a4357e982*%
M02*
