%TF.GenerationSoftware,Altium Limited,Altium Designer,22.10.1 (41)*%
G04 Layer_Physical_Order=4*
G04 Layer_Color=6736896*
%FSLAX45Y45*%
%MOMM*%
%TF.SameCoordinates,A8474BD1-FA4A-4BD0-88DA-22D9B4FA892B*%
%TF.FilePolarity,Positive*%
%TF.FileFunction,Copper,L4,Inr,Signal*%
%TF.Part,Single*%
G01*
G75*
%TA.AperFunction,Conductor*%
%ADD76C,0.50000*%
%ADD77C,0.25000*%
%ADD78C,0.30000*%
%ADD79C,0.40000*%
%ADD80C,0.15000*%
%ADD82C,0.20000*%
%TA.AperFunction,ComponentPad*%
G04:AMPARAMS|DCode=99|XSize=1.8mm|YSize=1.45mm|CornerRadius=0.3625mm|HoleSize=0mm|Usage=FLASHONLY|Rotation=180.000|XOffset=0mm|YOffset=0mm|HoleType=Round|Shape=RoundedRectangle|*
%AMROUNDEDRECTD99*
21,1,1.80000,0.72500,0,0,180.0*
21,1,1.07500,1.45000,0,0,180.0*
1,1,0.72500,-0.53750,0.36250*
1,1,0.72500,0.53750,0.36250*
1,1,0.72500,0.53750,-0.36250*
1,1,0.72500,-0.53750,-0.36250*
%
%ADD99ROUNDEDRECTD99*%
G04:AMPARAMS|DCode=101|XSize=2.2mm|YSize=2.2mm|CornerRadius=0mm|HoleSize=0mm|Usage=FLASHONLY|Rotation=270.000|XOffset=0mm|YOffset=0mm|HoleType=Round|Shape=Octagon|*
%AMOCTAGOND101*
4,1,8,-0.55000,-1.10000,0.55000,-1.10000,1.10000,-0.55000,1.10000,0.55000,0.55000,1.10000,-0.55000,1.10000,-1.10000,0.55000,-1.10000,-0.55000,-0.55000,-1.10000,0.0*
%
%ADD101OCTAGOND101*%

G04:AMPARAMS|DCode=102|XSize=2.2mm|YSize=2.2mm|CornerRadius=0.55mm|HoleSize=0mm|Usage=FLASHONLY|Rotation=270.000|XOffset=0mm|YOffset=0mm|HoleType=Round|Shape=RoundedRectangle|*
%AMROUNDEDRECTD102*
21,1,2.20000,1.10000,0,0,270.0*
21,1,1.10000,2.20000,0,0,270.0*
1,1,1.10000,-0.55000,-0.55000*
1,1,1.10000,-0.55000,0.55000*
1,1,1.10000,0.55000,0.55000*
1,1,1.10000,0.55000,-0.55000*
%
%ADD102ROUNDEDRECTD102*%
%TA.AperFunction,ViaPad*%
%ADD103C,0.60000*%
%TA.AperFunction,ComponentPad*%
G04:AMPARAMS|DCode=104|XSize=1.5mm|YSize=1.9mm|CornerRadius=0.375mm|HoleSize=0mm|Usage=FLASHONLY|Rotation=270.000|XOffset=0mm|YOffset=0mm|HoleType=Round|Shape=RoundedRectangle|*
%AMROUNDEDRECTD104*
21,1,1.50000,1.15000,0,0,270.0*
21,1,0.75000,1.90000,0,0,270.0*
1,1,0.75000,-0.57500,-0.37500*
1,1,0.75000,-0.57500,0.37500*
1,1,0.75000,0.57500,0.37500*
1,1,0.75000,0.57500,-0.37500*
%
%ADD104ROUNDEDRECTD104*%
G04:AMPARAMS|DCode=105|XSize=1.5mm|YSize=1.9mm|CornerRadius=0.375mm|HoleSize=0mm|Usage=FLASHONLY|Rotation=0.000|XOffset=0mm|YOffset=0mm|HoleType=Round|Shape=RoundedRectangle|*
%AMROUNDEDRECTD105*
21,1,1.50000,1.15000,0,0,0.0*
21,1,0.75000,1.90000,0,0,0.0*
1,1,0.75000,0.37500,-0.57500*
1,1,0.75000,-0.37500,-0.57500*
1,1,0.75000,-0.37500,0.57500*
1,1,0.75000,0.37500,0.57500*
%
%ADD105ROUNDEDRECTD105*%
G04:AMPARAMS|DCode=106|XSize=3.6mm|YSize=3.6mm|CornerRadius=0.54mm|HoleSize=0mm|Usage=FLASHONLY|Rotation=0.000|XOffset=0mm|YOffset=0mm|HoleType=Round|Shape=RoundedRectangle|*
%AMROUNDEDRECTD106*
21,1,3.60000,2.52000,0,0,0.0*
21,1,2.52000,3.60000,0,0,0.0*
1,1,1.08000,1.26000,-1.26000*
1,1,1.08000,-1.26000,-1.26000*
1,1,1.08000,-1.26000,1.26000*
1,1,1.08000,1.26000,1.26000*
%
%ADD106ROUNDEDRECTD106*%
G36*
X8434462Y5410484D02*
X8485651Y5389281D01*
X8529609Y5355551D01*
X8563338Y5311594D01*
X8584542Y5260404D01*
X8589867Y5219955D01*
X8591113Y5205471D01*
X8591116Y5205460D01*
X8591116Y5190471D01*
X8591120Y5057416D01*
X8576120Y5054432D01*
X8575688Y5055475D01*
X8558809Y5072354D01*
X8536757Y5081488D01*
X8535268D01*
X8525753Y5093083D01*
X8528322Y5106000D01*
Y5181000D01*
X8523083Y5207337D01*
X8508164Y5229664D01*
X8485837Y5244583D01*
X8459500Y5249822D01*
X8344500D01*
X8318163Y5244583D01*
X8295836Y5229664D01*
X8280917Y5207337D01*
X8275678Y5181000D01*
Y5106000D01*
X8280917Y5079663D01*
X8295836Y5057336D01*
X8318163Y5042417D01*
X8344500Y5037178D01*
X8450964D01*
X8460462Y5034604D01*
X8464822Y5022943D01*
Y5010057D01*
X8464671Y5007715D01*
X8454274Y4995822D01*
X8344500D01*
X8318163Y4990583D01*
X8295836Y4975664D01*
X8280917Y4953337D01*
X8275678Y4927000D01*
Y4872734D01*
X8274500D01*
X8259868Y4869824D01*
X8249322Y4862777D01*
X8242421Y4864633D01*
X8234322Y4869607D01*
Y4927000D01*
X8229083Y4953337D01*
X8214164Y4975664D01*
X8191837Y4990583D01*
X8165500Y4995822D01*
X8050500D01*
X8024163Y4990583D01*
X8001836Y4975664D01*
X7986917Y4953337D01*
X7981678Y4927000D01*
Y4922938D01*
X7966678Y4919955D01*
X7960865Y4933987D01*
X7943987Y4950866D01*
X7921935Y4960000D01*
X7898065D01*
X7876013Y4950866D01*
X7859134Y4933987D01*
X7850000Y4911935D01*
Y4888065D01*
X7859134Y4866013D01*
X7876013Y4849135D01*
X7898065Y4840000D01*
X7921935D01*
X7943987Y4849135D01*
X7960865Y4866013D01*
X7966678Y4880046D01*
X7981678Y4877062D01*
Y4852000D01*
X7984125Y4839697D01*
X7831464Y4687036D01*
X7823176Y4674632D01*
X7820266Y4660000D01*
Y4601500D01*
X7820789Y4598870D01*
X7806965Y4591481D01*
X7806442Y4592003D01*
X7784390Y4601138D01*
X7760520D01*
X7738468Y4592003D01*
X7721589Y4575125D01*
X7712455Y4553072D01*
Y4529203D01*
X7721589Y4507150D01*
X7738468Y4490272D01*
X7760520Y4481138D01*
X7784390D01*
X7806442Y4490272D01*
X7807908Y4491738D01*
X7821766Y4485998D01*
Y4355837D01*
X7756639Y4290711D01*
X7742184Y4293586D01*
X7725306Y4310464D01*
X7703253Y4319599D01*
X7679384D01*
X7673514Y4323521D01*
Y4774720D01*
X7670604Y4789352D01*
X7662316Y4801756D01*
X7607752Y4856320D01*
X7613492Y4870178D01*
X7657500D01*
X7683837Y4875417D01*
X7706164Y4890336D01*
X7721083Y4912663D01*
X7726322Y4939000D01*
Y5054000D01*
X7721083Y5080337D01*
X7706164Y5102664D01*
X7683837Y5117583D01*
X7657500Y5122822D01*
X7582500D01*
X7556163Y5117583D01*
X7533836Y5102664D01*
X7531189Y5098704D01*
X7516262Y5097234D01*
X7456460Y5157036D01*
X7447384Y5163100D01*
X7445359Y5175228D01*
X7446017Y5180228D01*
X7452164Y5184336D01*
X7467083Y5206663D01*
X7472322Y5233000D01*
Y5348000D01*
X7467083Y5374337D01*
X7452164Y5396664D01*
X7444096Y5402056D01*
X7448646Y5417056D01*
X7537354D01*
X7541904Y5402056D01*
X7533836Y5396664D01*
X7518917Y5374337D01*
X7513678Y5348000D01*
Y5233000D01*
X7518917Y5206663D01*
X7533836Y5184336D01*
X7556163Y5169417D01*
X7582500Y5164178D01*
X7657500D01*
X7683837Y5169417D01*
X7706164Y5184336D01*
X7721083Y5206663D01*
X7726322Y5233000D01*
Y5348000D01*
X7721083Y5374337D01*
X7706164Y5396664D01*
X7698096Y5402056D01*
X7702646Y5417056D01*
X8379531D01*
X8381527Y5417453D01*
X8434462Y5410484D01*
D02*
G37*
G36*
X6779904Y5402056D02*
X6771836Y5396664D01*
X6756917Y5374337D01*
X6751678Y5348000D01*
Y5233000D01*
X6756917Y5206663D01*
X6771836Y5184336D01*
X6773484Y5183234D01*
X6768933Y5168234D01*
X6717500D01*
X6702868Y5165324D01*
X6690464Y5157036D01*
X6653803Y5120375D01*
X6641500Y5122822D01*
X6566500D01*
X6540163Y5117583D01*
X6517836Y5102664D01*
X6502917Y5080337D01*
X6497678Y5054000D01*
Y4939000D01*
X6502917Y4912663D01*
X6517836Y4890336D01*
X6540163Y4875417D01*
X6566500Y4870178D01*
X6641500D01*
X6667837Y4875417D01*
X6690164Y4890336D01*
X6705083Y4912663D01*
X6710322Y4939000D01*
Y5054000D01*
X6707875Y5066303D01*
X6733337Y5091766D01*
X6747886D01*
X6756206Y5076765D01*
X6751678Y5054000D01*
Y4939000D01*
X6756917Y4912663D01*
X6771836Y4890336D01*
X6794163Y4875417D01*
X6820500Y4870178D01*
X6895500D01*
X6921837Y4875417D01*
X6944164Y4890336D01*
X6959083Y4912663D01*
X6964322Y4939000D01*
Y5054000D01*
X6959794Y5076765D01*
X6968114Y5091766D01*
X7001886D01*
X7010206Y5076765D01*
X7005678Y5054000D01*
Y4939000D01*
X7010917Y4912663D01*
X7025836Y4890336D01*
X7048163Y4875417D01*
X7074500Y4870178D01*
X7149500D01*
X7175837Y4875417D01*
X7198164Y4890336D01*
X7213083Y4912663D01*
X7218322Y4939000D01*
Y5054000D01*
X7213794Y5076765D01*
X7222114Y5091766D01*
X7255886D01*
X7264206Y5076765D01*
X7259678Y5054000D01*
Y4939000D01*
X7264917Y4912663D01*
X7279836Y4890336D01*
X7302163Y4875417D01*
X7328500Y4870178D01*
X7403500D01*
X7429837Y4875417D01*
X7451616Y4889969D01*
X7451627Y4889974D01*
X7452690Y4890285D01*
X7469122Y4888715D01*
X7472964Y4882964D01*
X7550929Y4805000D01*
X7544715Y4790000D01*
X7528065D01*
X7506013Y4780865D01*
X7489134Y4763987D01*
X7482252Y4747371D01*
X7467839Y4742805D01*
X7465432Y4742978D01*
X7458387Y4750022D01*
X7436335Y4759156D01*
X7412465D01*
X7390413Y4750022D01*
X7382622Y4742231D01*
X7373987Y4750866D01*
X7351935Y4760000D01*
X7328065D01*
X7306013Y4750866D01*
X7289135Y4733987D01*
X7281586Y4732486D01*
X7263155Y4750917D01*
X7250751Y4759205D01*
X7236119Y4762115D01*
X7211252D01*
X7199635Y4769820D01*
X7196208Y4772365D01*
X7193724Y4774849D01*
X7171672Y4783983D01*
X7147803D01*
X7125750Y4774849D01*
X7108872Y4757971D01*
X7099737Y4735918D01*
Y4712049D01*
X7108872Y4689996D01*
X7125750Y4673118D01*
X7147803Y4663984D01*
X7171672D01*
X7193724Y4673118D01*
X7196194Y4675587D01*
X7199711Y4678173D01*
X7206271Y4682711D01*
X7211041Y4685646D01*
X7220282D01*
X7401766Y4504163D01*
Y4250000D01*
X7404676Y4235368D01*
X7412964Y4222964D01*
X7474308Y4161620D01*
Y4045497D01*
X7459308Y4039284D01*
X7452746Y4045847D01*
X7430693Y4054981D01*
X7406824D01*
X7384771Y4045847D01*
X7367893Y4028968D01*
X7363970Y4019498D01*
X7290549Y3946077D01*
X7140267D01*
X7130846Y3959100D01*
X7134003Y3970000D01*
X7141935D01*
X7163987Y3979135D01*
X7180865Y3996013D01*
X7190000Y4018065D01*
Y4020000D01*
X7201935D01*
X7223987Y4029134D01*
X7240866Y4046013D01*
X7250000Y4068065D01*
Y4091935D01*
X7240866Y4113987D01*
X7223987Y4130866D01*
X7201935Y4140000D01*
X7178065D01*
X7156013Y4130866D01*
X7139135Y4113987D01*
X7130000Y4091935D01*
Y4090000D01*
X7118065D01*
X7096013Y4080866D01*
X7079134Y4063987D01*
X7070000Y4041935D01*
Y4029168D01*
X7056232D01*
X7034454Y4020147D01*
X6871948D01*
X6806048Y4086048D01*
X6789509Y4097099D01*
X6770000Y4100980D01*
X6765464D01*
X6759724Y4114838D01*
X6768258Y4123372D01*
X6778204Y4138257D01*
X6781697Y4155815D01*
Y4334311D01*
X7003089Y4555703D01*
X7003400Y4555895D01*
X7004009Y4556216D01*
X7004683Y4556516D01*
X7005456Y4556801D01*
X7006339Y4557065D01*
X7007362Y4557303D01*
X7008513Y4557500D01*
X7011935D01*
X7033987Y4566635D01*
X7050866Y4583513D01*
X7060000Y4605565D01*
Y4629435D01*
X7050866Y4651487D01*
X7033987Y4668366D01*
X7011935Y4677500D01*
X6988065D01*
X6966013Y4668366D01*
X6949134Y4651487D01*
X6940000Y4629435D01*
Y4626013D01*
X6939803Y4624862D01*
X6939565Y4623841D01*
X6939301Y4622955D01*
X6939016Y4622183D01*
X6938716Y4621510D01*
X6938395Y4620900D01*
X6938203Y4620589D01*
X6919999Y4602385D01*
X6904999Y4608599D01*
Y4616935D01*
X6895865Y4638987D01*
X6878986Y4655866D01*
X6856934Y4665000D01*
X6833064D01*
X6811012Y4655866D01*
X6794133Y4638987D01*
X6784999Y4616935D01*
Y4593065D01*
X6794133Y4571013D01*
X6811012Y4554135D01*
X6833064Y4545000D01*
X6841401D01*
X6847614Y4530000D01*
X6703372Y4385759D01*
X6695005Y4373236D01*
X6684603Y4374067D01*
X6680005Y4375731D01*
Y4476771D01*
X6687711Y4488450D01*
X6690160Y4491766D01*
X6692636Y4494242D01*
X6701770Y4516294D01*
Y4540164D01*
X6692636Y4562216D01*
X6676130Y4578723D01*
X6680000Y4588065D01*
Y4597500D01*
X6691935D01*
X6713987Y4606634D01*
X6730866Y4623513D01*
X6740000Y4645565D01*
Y4669435D01*
X6730866Y4691487D01*
X6713987Y4708365D01*
X6691935Y4717500D01*
X6668065D01*
X6646013Y4708365D01*
X6636975Y4719622D01*
X6640866Y4723513D01*
X6650000Y4745565D01*
Y4769435D01*
X6640866Y4791487D01*
X6623987Y4808366D01*
X6601935Y4817500D01*
X6578065D01*
X6556013Y4808366D01*
X6539134Y4791487D01*
X6530000Y4769435D01*
Y4745565D01*
X6539134Y4723513D01*
X6556013Y4706634D01*
X6562510Y4703943D01*
X6564177Y4687017D01*
X6560464Y4684536D01*
X6305464Y4429536D01*
X6297176Y4417132D01*
X6294266Y4402500D01*
Y4190186D01*
X6286771Y4186719D01*
X6279266Y4185587D01*
X6263987Y4200866D01*
X6241935Y4210000D01*
X6218065D01*
X6196013Y4200866D01*
X6179134Y4183987D01*
X6170000Y4161935D01*
Y4138065D01*
X6179134Y4116013D01*
X6196013Y4099135D01*
X6218065Y4090000D01*
X6241935D01*
X6263987Y4099135D01*
X6279266Y4114413D01*
X6286771Y4113281D01*
X6294266Y4109814D01*
Y3471558D01*
X6291934Y3470000D01*
X6268065D01*
X6246013Y3460866D01*
X6233188Y3448041D01*
X6218401Y3449056D01*
X6215822Y3450274D01*
X6214179Y3454012D01*
X6220000Y3468065D01*
Y3491935D01*
X6210866Y3513987D01*
X6193987Y3530865D01*
X6171935Y3540000D01*
X6148065D01*
X6126013Y3530865D01*
X6109135Y3513987D01*
X6100000Y3491935D01*
Y3468065D01*
X6109021Y3446288D01*
Y3251116D01*
X6066672Y3208767D01*
X6052084Y3215393D01*
Y3233633D01*
X6042950Y3255686D01*
X6026072Y3272564D01*
X6004019Y3281698D01*
X5980150D01*
X5958097Y3272564D01*
X5941219Y3255686D01*
X5932085Y3233633D01*
Y3209764D01*
X5941219Y3187711D01*
X5958097Y3170833D01*
X5980150Y3161699D01*
X5998390D01*
X6005016Y3147111D01*
X5761077Y2903173D01*
X5746077Y2909386D01*
Y3212242D01*
X6042642Y3508807D01*
X6052112Y3512730D01*
X6068991Y3529608D01*
X6078125Y3551660D01*
Y3555082D01*
X6078322Y3556233D01*
X6078560Y3557255D01*
X6078581Y3557325D01*
X6100523Y3581107D01*
X6105256Y3585840D01*
X6115202Y3600725D01*
X6118694Y3618283D01*
Y4450530D01*
X6130469Y4458397D01*
X6154338D01*
X6176391Y4467532D01*
X6193269Y4484410D01*
X6202403Y4506463D01*
Y4530332D01*
X6193269Y4552385D01*
X6185253Y4560400D01*
X6200865Y4576013D01*
X6210000Y4598065D01*
Y4621935D01*
X6200865Y4643987D01*
X6183987Y4660865D01*
X6161935Y4670000D01*
X6138065D01*
X6123858Y4664115D01*
X6122448Y4664517D01*
X6110000Y4674451D01*
Y4691935D01*
X6100866Y4713987D01*
X6083987Y4730866D01*
X6061935Y4740000D01*
X6038065D01*
X6016013Y4730866D01*
X5999135Y4713987D01*
X5990000Y4691935D01*
Y4668065D01*
X5999135Y4646013D01*
X6016013Y4629135D01*
X6028764Y4623853D01*
X6032058Y4606253D01*
X6021947Y4596142D01*
X6012813Y4574090D01*
Y4550220D01*
X6021947Y4528168D01*
X6024368Y4525747D01*
X6025039Y4524799D01*
X6025598Y4523902D01*
X6026036Y4523091D01*
X6026379Y4522347D01*
X6026643Y4521657D01*
X6026848Y4520996D01*
X6026931Y4520643D01*
Y3637288D01*
X6025424Y3635780D01*
X6014340Y3624997D01*
X6014116Y3624879D01*
X6013442Y3624579D01*
X6012669Y3624294D01*
X6011787Y3624030D01*
X6010763Y3623792D01*
X6009612Y3623595D01*
X6006190D01*
X5984138Y3614461D01*
X5967260Y3597582D01*
X5963337Y3588112D01*
X5650347Y3275123D01*
X5638191Y3256930D01*
X5633923Y3235470D01*
Y2913228D01*
X5592909Y2872215D01*
X5579051Y2877955D01*
Y4558540D01*
X5586190Y4569359D01*
X5588169Y4570376D01*
X5601050Y4571805D01*
X5605208Y4569939D01*
X5616014Y4559133D01*
X5638067Y4549999D01*
X5661936D01*
X5683989Y4559133D01*
X5700867Y4576011D01*
X5710001Y4598064D01*
Y4621933D01*
X5700867Y4643986D01*
X5683989Y4660864D01*
X5661936Y4669998D01*
X5638067D01*
X5616014Y4660864D01*
X5605208Y4650058D01*
X5595409Y4645659D01*
X5585610Y4650058D01*
X5574804Y4660864D01*
X5552752Y4669998D01*
X5528882D01*
X5506830Y4660864D01*
X5495009Y4649043D01*
X5485409Y4645610D01*
X5475810Y4649043D01*
X5463989Y4660864D01*
X5441937Y4669998D01*
X5418067D01*
X5396015Y4660864D01*
X5379136Y4643986D01*
X5370002Y4621933D01*
Y4598064D01*
X5379136Y4576011D01*
X5396015Y4559133D01*
X5418067Y4549999D01*
X5421568D01*
X5426011Y4549330D01*
X5433866Y4547916D01*
X5439293Y4546636D01*
X5461766Y4524163D01*
Y3833886D01*
X5446766Y3828087D01*
X5433987Y3840866D01*
X5411935Y3850000D01*
X5388065D01*
X5366013Y3840866D01*
X5349135Y3823987D01*
X5340000Y3801935D01*
Y3778065D01*
X5349135Y3756013D01*
X5366013Y3739135D01*
X5388065Y3730000D01*
X5411935D01*
X5433987Y3739135D01*
X5446766Y3751913D01*
X5461766Y3746114D01*
Y3663487D01*
X5459434Y3661929D01*
X5435565D01*
X5413513Y3652795D01*
X5396634Y3635917D01*
X5387500Y3613864D01*
Y3589995D01*
X5396634Y3567942D01*
X5413513Y3551064D01*
X5435565Y3541930D01*
X5459434D01*
X5461766Y3540372D01*
Y2865837D01*
X5202964Y2607036D01*
X5194676Y2594632D01*
X5191766Y2580000D01*
Y2020000D01*
X5194676Y2005368D01*
X5202964Y1992964D01*
X5342964Y1852964D01*
X5355368Y1844676D01*
X5370000Y1841766D01*
X5500000D01*
Y1838065D01*
X5509135Y1816013D01*
X5526013Y1799135D01*
X5548065Y1790000D01*
X5571935D01*
X5593987Y1799135D01*
X5600000Y1805147D01*
X5616013Y1789134D01*
X5638065Y1780000D01*
X5661935D01*
X5683987Y1789134D01*
X5700865Y1806013D01*
X5710000Y1828065D01*
Y1851935D01*
X5700865Y1873987D01*
X5683987Y1890865D01*
X5670325Y1896525D01*
X5667807Y1897910D01*
X5664303Y1899019D01*
X5661935Y1900000D01*
X5661204D01*
X5659617Y1900502D01*
X5653742Y1902640D01*
X5649660Y1904411D01*
X5612036Y1942036D01*
X5599632Y1950324D01*
X5585000Y1953234D01*
X5400837D01*
X5298234Y2055837D01*
Y2183431D01*
X5308066Y2190000D01*
X5331935D01*
X5353987Y2199135D01*
X5370866Y2216013D01*
X5380000Y2238065D01*
Y2259481D01*
X5386718Y2264311D01*
X5393858Y2266836D01*
X5646393Y2014302D01*
X5664586Y2002146D01*
X5686046Y1997877D01*
X5827549D01*
X5835566Y1982877D01*
X5834151Y1980759D01*
X5830270Y1961250D01*
Y1949866D01*
X5783952Y1903548D01*
X5772901Y1887009D01*
X5769020Y1867500D01*
Y1734735D01*
X5761934Y1730000D01*
X5738065D01*
X5716013Y1720865D01*
X5699134Y1703987D01*
X5690000Y1681935D01*
Y1658065D01*
X5699134Y1636013D01*
X5716013Y1619134D01*
X5738065Y1610000D01*
X5761934D01*
X5769020Y1605265D01*
Y1394735D01*
X5761934Y1390000D01*
X5738065D01*
X5716013Y1380865D01*
X5699134Y1363987D01*
X5690000Y1341935D01*
Y1318065D01*
X5699134Y1296013D01*
X5716013Y1279134D01*
X5738065Y1270000D01*
X5761934D01*
X5769020Y1265265D01*
Y1242750D01*
X5765855Y1226834D01*
Y920960D01*
X5756935Y914999D01*
X5733065D01*
X5711013Y905865D01*
X5707032Y901884D01*
X5703993Y904922D01*
X5681941Y914056D01*
X5658071D01*
X5636019Y904922D01*
X5628297Y897200D01*
X5623689Y901808D01*
X5601636Y910942D01*
X5577767D01*
X5555715Y901808D01*
X5550570Y896664D01*
X5543507Y903727D01*
X5521455Y912861D01*
X5497585D01*
X5475533Y903727D01*
X5458655Y886848D01*
X5457286Y883543D01*
X5441050D01*
X5440865Y883987D01*
X5423987Y900866D01*
X5401935Y910000D01*
X5378065D01*
X5356013Y900866D01*
X5350488Y895341D01*
X5349583Y894851D01*
X5346200Y894250D01*
X5333332Y903670D01*
Y1044910D01*
X5330034Y1061492D01*
X5320641Y1075551D01*
X5173332Y1222859D01*
Y1910000D01*
X5170034Y1926583D01*
X5160640Y1940641D01*
X4918943Y2182338D01*
Y3324389D01*
X4915645Y3340972D01*
X4906251Y3355030D01*
X4838089Y3423192D01*
X4841016Y3437904D01*
X4843987Y3439135D01*
X4860866Y3456013D01*
X4870000Y3478065D01*
Y3501935D01*
X4860866Y3523987D01*
X4843987Y3540866D01*
X4821935Y3550000D01*
X4798065D01*
X4778332Y3541827D01*
X4763332Y3547784D01*
Y3605009D01*
X4763581Y3605657D01*
X4764083Y3606753D01*
X4764638Y3607803D01*
X4767188Y3611861D01*
X4768414Y3613561D01*
X4770865Y3616013D01*
X4777208Y3631326D01*
X4800629D01*
X4822682Y3640461D01*
X4839560Y3657339D01*
X4848695Y3679391D01*
Y3703261D01*
X4839560Y3725313D01*
X4822682Y3742192D01*
X4800629Y3751326D01*
X4782986D01*
X4776771Y3766331D01*
X4759893Y3783210D01*
X4737840Y3792344D01*
X4713971D01*
X4691918Y3783210D01*
X4675040Y3766331D01*
X4665906Y3744279D01*
Y3720409D01*
X4675040Y3698357D01*
X4679272Y3694125D01*
X4669134Y3683987D01*
X4660000Y3661935D01*
Y3652357D01*
X4650188Y3640186D01*
X4626319D01*
X4604266Y3631051D01*
X4587388Y3614173D01*
X4578253Y3592121D01*
Y3568251D01*
X4587388Y3546199D01*
X4604266Y3529320D01*
X4626319Y3520186D01*
X4650188D01*
X4661667Y3524941D01*
X4676668Y3514918D01*
Y3480000D01*
X4679966Y3463418D01*
X4689359Y3449360D01*
X4774861Y3363858D01*
X4770599Y3346907D01*
X4756013Y3340866D01*
X4739135Y3323987D01*
X4730000Y3301935D01*
Y3278065D01*
X4739135Y3256013D01*
X4756013Y3239134D01*
X4776668Y3230579D01*
Y2143830D01*
X4779966Y2127248D01*
X4789359Y2113190D01*
X4868613Y2033936D01*
X4866013Y2020865D01*
X4849135Y2003987D01*
X4840000Y1981935D01*
Y1958065D01*
X4849135Y1936013D01*
X4866013Y1919135D01*
X4888065Y1910000D01*
X4911935D01*
X4921667Y1914031D01*
X4936668Y1904009D01*
Y1147949D01*
X4721672Y932953D01*
X4703978Y936473D01*
X4700866Y943987D01*
X4683987Y960865D01*
X4661935Y970000D01*
X4638065D01*
X4616013Y960865D01*
X4599135Y943987D01*
X4590000Y921935D01*
Y898065D01*
X4599135Y876013D01*
X4616013Y859134D01*
X4638065Y850000D01*
X4640000D01*
Y838065D01*
X4649134Y816013D01*
X4666013Y799135D01*
X4688065Y790000D01*
X4711935D01*
X4733987Y799135D01*
X4750866Y816013D01*
X4760000Y838065D01*
Y841530D01*
X4760336Y843606D01*
X4761402Y848274D01*
X4761751Y849407D01*
X4762171Y850537D01*
X4762455Y851174D01*
X5010640Y1099359D01*
X5020034Y1113417D01*
X5023332Y1130000D01*
Y1712216D01*
X5038332Y1718174D01*
X5058065Y1710000D01*
X5081934D01*
X5086668Y1706838D01*
Y1204910D01*
X5089966Y1188327D01*
X5099359Y1174269D01*
X5187133Y1086496D01*
X5186012Y1080865D01*
X5169134Y1063987D01*
X5160000Y1041935D01*
Y1018065D01*
X5169134Y996013D01*
X5186013Y979134D01*
X5208065Y970000D01*
X5231935D01*
X5234196Y970937D01*
X5246668Y962603D01*
Y894991D01*
X5246419Y894343D01*
X5245917Y893247D01*
X5245362Y892198D01*
X5243249Y888835D01*
X5241284Y887848D01*
X5234712Y886708D01*
X5228157Y886965D01*
X5224539Y887947D01*
X5213326Y899160D01*
X5191273Y908294D01*
X5167404D01*
X5145351Y899160D01*
X5128473Y882282D01*
X5119339Y860229D01*
Y836360D01*
X5128473Y814307D01*
X5145351Y797429D01*
X5167404Y788295D01*
X5191273D01*
X5213326Y797429D01*
X5225723Y809826D01*
X5233499Y813413D01*
X5244800Y810348D01*
X5256013Y799135D01*
X5278065Y790000D01*
X5301935D01*
X5323987Y799135D01*
X5340000Y815147D01*
X5356013Y799135D01*
X5378065Y790000D01*
X5401935D01*
X5423987Y799135D01*
X5440865Y816013D01*
X5442234Y819318D01*
X5458470D01*
X5458655Y818874D01*
X5475533Y801996D01*
X5497585Y792861D01*
X5521455D01*
X5543507Y801996D01*
X5548652Y807140D01*
X5555715Y800077D01*
X5577767Y790943D01*
X5601636D01*
X5623689Y800077D01*
X5631411Y807799D01*
X5636019Y803191D01*
X5658071Y794057D01*
X5681941D01*
X5703993Y803191D01*
X5707975Y807172D01*
X5711013Y804134D01*
X5733065Y795000D01*
X5756935D01*
X5762241Y791454D01*
X5763318Y775414D01*
X5688884Y700980D01*
X4745190D01*
X4744646Y701524D01*
X4722593Y710658D01*
X4698724D01*
X4676671Y701524D01*
X4659793Y684646D01*
X4648818Y682463D01*
X4633331Y697950D01*
Y720002D01*
X4630032Y736584D01*
X4620639Y750642D01*
X3514999Y1856282D01*
Y2205976D01*
X3515248Y2206624D01*
X3515750Y2207720D01*
X3516304Y2208770D01*
X3518854Y2212828D01*
X3520081Y2214529D01*
X3522532Y2216980D01*
X3531666Y2239033D01*
Y2262902D01*
X3522532Y2284955D01*
X3505654Y2301833D01*
X3483601Y2310967D01*
X3459732D01*
X3437679Y2301833D01*
X3420801Y2284955D01*
X3411667Y2262902D01*
Y2239033D01*
X3403527Y2226852D01*
X3396630D01*
X3374578Y2217717D01*
X3357699Y2200839D01*
X3349068Y2180000D01*
X3338065D01*
X3316013Y2170866D01*
X3299134Y2153987D01*
X3290000Y2131935D01*
Y2108065D01*
X3291276Y2104984D01*
X3281248Y2089998D01*
X3267373D01*
X3245320Y2080864D01*
X3228442Y2063986D01*
X3219308Y2041933D01*
Y2018064D01*
X3228442Y1996011D01*
X3245320Y1979133D01*
X3267373Y1969999D01*
X3291242D01*
X3294196Y1971222D01*
X3306668Y1962888D01*
Y1830000D01*
X3309966Y1813418D01*
X3319359Y1799360D01*
X3738523Y1380195D01*
X3733315Y1364191D01*
X3716445Y1357203D01*
X3699566Y1340324D01*
X3690432Y1318272D01*
Y1294403D01*
X3699566Y1272350D01*
X3716445Y1255472D01*
X3738497Y1246337D01*
X3762367D01*
X3784419Y1255472D01*
X3801297Y1272350D01*
X3808285Y1289220D01*
X3824290Y1294429D01*
X4326667Y792051D01*
Y590822D01*
X4280500D01*
X4254163Y585583D01*
X4231836Y570664D01*
X4216917Y548337D01*
X4211678Y522000D01*
Y407000D01*
X4216917Y380663D01*
X4231836Y358336D01*
X4254163Y343417D01*
X4280500Y338178D01*
X4355500D01*
X4373771Y341812D01*
X4388612Y332324D01*
X4389533Y330818D01*
X4390334Y324115D01*
X4370808Y304589D01*
X4365859Y299931D01*
X4361996Y296713D01*
X4360742Y295779D01*
X4355500Y296822D01*
X4280500D01*
X4254163Y291583D01*
X4231836Y276664D01*
X4216917Y254337D01*
X4211678Y228000D01*
Y113000D01*
X4216917Y86663D01*
X4231836Y64336D01*
X4239904Y58944D01*
X4235354Y43944D01*
X4146646D01*
X4142096Y58944D01*
X4150164Y64336D01*
X4165083Y86663D01*
X4170322Y113000D01*
Y228000D01*
X4165083Y254337D01*
X4150164Y276664D01*
X4127837Y291583D01*
X4101500Y296822D01*
X4026500D01*
X4000163Y291583D01*
X3977836Y276664D01*
X3962917Y254337D01*
X3957678Y228000D01*
Y113000D01*
X3962917Y86663D01*
X3977836Y64336D01*
X3985904Y58944D01*
X3981354Y43944D01*
X3892646D01*
X3888096Y58944D01*
X3896164Y64336D01*
X3911083Y86663D01*
X3916322Y113000D01*
Y228000D01*
X3911083Y254337D01*
X3896164Y276664D01*
X3873837Y291583D01*
X3847500Y296822D01*
X3772500D01*
X3746163Y291583D01*
X3723836Y276664D01*
X3708917Y254337D01*
X3703678Y228000D01*
Y113000D01*
X3708917Y86663D01*
X3723836Y64336D01*
X3731904Y58944D01*
X3727354Y43944D01*
X3638646D01*
X3634096Y58944D01*
X3642164Y64336D01*
X3657083Y86663D01*
X3662322Y113000D01*
Y228000D01*
X3657083Y254337D01*
X3642164Y276664D01*
X3619837Y291583D01*
X3593500Y296822D01*
X3518500D01*
X3492163Y291583D01*
X3469836Y276664D01*
X3454917Y254337D01*
X3449678Y228000D01*
Y113000D01*
X3454917Y86663D01*
X3469836Y64336D01*
X3477904Y58944D01*
X3473354Y43944D01*
X3384646D01*
X3380096Y58944D01*
X3388164Y64336D01*
X3403083Y86663D01*
X3408322Y113000D01*
Y228000D01*
X3403083Y254337D01*
X3388164Y276664D01*
X3365837Y291583D01*
X3339500Y296822D01*
X3264500D01*
X3238163Y291583D01*
X3215836Y276664D01*
X3200917Y254337D01*
X3195678Y228000D01*
Y113000D01*
X3200917Y86663D01*
X3215836Y64336D01*
X3223904Y58944D01*
X3219354Y43944D01*
X3130646D01*
X3126096Y58944D01*
X3134164Y64336D01*
X3149083Y86663D01*
X3154322Y113000D01*
Y228000D01*
X3149083Y254337D01*
X3134164Y276664D01*
X3111837Y291583D01*
X3085500Y296822D01*
X3010500D01*
X2984163Y291583D01*
X2961836Y276664D01*
X2946917Y254337D01*
X2941678Y228000D01*
Y113000D01*
X2946917Y86663D01*
X2961836Y64336D01*
X2969904Y58944D01*
X2965354Y43944D01*
X2876646D01*
X2872096Y58944D01*
X2880164Y64336D01*
X2895083Y86663D01*
X2900322Y113000D01*
Y228000D01*
X2895083Y254337D01*
X2880164Y276664D01*
X2857837Y291583D01*
X2831500Y296822D01*
X2756500D01*
X2730163Y291583D01*
X2707836Y276664D01*
X2692917Y254337D01*
X2687678Y228000D01*
Y113000D01*
X2692917Y86663D01*
X2707836Y64336D01*
X2715904Y58944D01*
X2711354Y43944D01*
X2622646D01*
X2618096Y58944D01*
X2626164Y64336D01*
X2641083Y86663D01*
X2646322Y113000D01*
Y228000D01*
X2641083Y254337D01*
X2626164Y276664D01*
X2603837Y291583D01*
X2577500Y296822D01*
X2502500D01*
X2476163Y291583D01*
X2453836Y276664D01*
X2438917Y254337D01*
X2433678Y228000D01*
Y113000D01*
X2438917Y86663D01*
X2453836Y64336D01*
X2461904Y58944D01*
X2457354Y43944D01*
X2368646D01*
X2364096Y58944D01*
X2372164Y64336D01*
X2387083Y86663D01*
X2392322Y113000D01*
Y228000D01*
X2387083Y254337D01*
X2372164Y276664D01*
X2349837Y291583D01*
X2323500Y296822D01*
X2248500D01*
X2222163Y291583D01*
X2199836Y276664D01*
X2184917Y254337D01*
X2179678Y228000D01*
Y113000D01*
X2184917Y86663D01*
X2199836Y64336D01*
X2207904Y58944D01*
X2203354Y43944D01*
X2123646D01*
X2119096Y58944D01*
X2121769Y60731D01*
X2137793Y84712D01*
X2143420Y113000D01*
Y160500D01*
X1920580D01*
Y113000D01*
X1926207Y84712D01*
X1942231Y60731D01*
X1944904Y58944D01*
X1940354Y43944D01*
X1371600D01*
X1369643Y43555D01*
X1317066Y50477D01*
X1266249Y71526D01*
X1222611Y105011D01*
X1189126Y148649D01*
X1168077Y199466D01*
X1161155Y252043D01*
X1161544Y254000D01*
Y906011D01*
X1175454Y914991D01*
X1176544Y914852D01*
X1190487Y893986D01*
X1212401Y879344D01*
X1238250Y874202D01*
X1345750D01*
X1371599Y879344D01*
X1393513Y893986D01*
X1408156Y915900D01*
X1413298Y941750D01*
Y1014250D01*
X1408156Y1040099D01*
X1393513Y1062013D01*
X1371599Y1076656D01*
X1345750Y1081798D01*
X1238250D01*
X1212401Y1076656D01*
X1190487Y1062013D01*
X1176544Y1041148D01*
X1175454Y1041009D01*
X1161544Y1049989D01*
Y1770011D01*
X1175454Y1778991D01*
X1176544Y1778852D01*
X1190487Y1757986D01*
X1212401Y1743344D01*
X1238250Y1738202D01*
X1345750D01*
X1371599Y1743344D01*
X1393513Y1757986D01*
X1408156Y1779900D01*
X1413298Y1805750D01*
Y1878250D01*
X1408156Y1904099D01*
X1403327Y1911327D01*
X1410397Y1924556D01*
X1553602D01*
X1560673Y1911327D01*
X1555844Y1904099D01*
X1550702Y1878250D01*
Y1805750D01*
X1555844Y1779900D01*
X1570487Y1757986D01*
X1592401Y1743344D01*
X1618250Y1738202D01*
X1725750D01*
X1751599Y1743344D01*
X1773513Y1757986D01*
X1788156Y1779900D01*
X1793298Y1805750D01*
Y1878250D01*
X1788156Y1904099D01*
X1783327Y1911327D01*
X1790397Y1924556D01*
X1841500D01*
Y1923962D01*
X1899742Y1929699D01*
X1955745Y1946687D01*
X2007359Y1974275D01*
X2052598Y2011402D01*
X2089725Y2056641D01*
X2117313Y2108255D01*
X2134301Y2164258D01*
X2140038Y2222500D01*
X2139444D01*
Y3746500D01*
X2140038D01*
X2134301Y3804742D01*
X2117313Y3860745D01*
X2089725Y3912359D01*
X2052598Y3957598D01*
X2007359Y3994725D01*
X1955745Y4022313D01*
X1899742Y4039301D01*
X1841500Y4045038D01*
Y4044444D01*
X1161544D01*
Y5207000D01*
X1161155Y5208958D01*
X1168077Y5261534D01*
X1189126Y5312351D01*
X1222610Y5355989D01*
X1266248Y5389474D01*
X1317066Y5410523D01*
X1357121Y5415796D01*
X1371600Y5417055D01*
Y5417056D01*
X1940354D01*
X1944904Y5402056D01*
X1942231Y5400269D01*
X1926207Y5376288D01*
X1920580Y5348000D01*
Y5300500D01*
X2143420D01*
Y5348000D01*
X2137793Y5376288D01*
X2121769Y5400269D01*
X2119096Y5402056D01*
X2123646Y5417056D01*
X2203354D01*
X2207904Y5402056D01*
X2199836Y5396664D01*
X2184917Y5374337D01*
X2179678Y5348000D01*
Y5233000D01*
X2184917Y5206663D01*
X2199836Y5184336D01*
X2222163Y5169417D01*
X2248500Y5164178D01*
X2323500D01*
X2349837Y5169417D01*
X2372164Y5184336D01*
X2387083Y5206663D01*
X2392322Y5233000D01*
Y5348000D01*
X2387083Y5374337D01*
X2372164Y5396664D01*
X2364096Y5402056D01*
X2368646Y5417056D01*
X2457354D01*
X2461904Y5402056D01*
X2453836Y5396664D01*
X2438917Y5374337D01*
X2433678Y5348000D01*
Y5233000D01*
X2438917Y5206663D01*
X2453836Y5184336D01*
X2476163Y5169417D01*
X2502500Y5164178D01*
X2577500D01*
X2603837Y5169417D01*
X2626164Y5184336D01*
X2641083Y5206663D01*
X2646322Y5233000D01*
Y5348000D01*
X2641083Y5374337D01*
X2626164Y5396664D01*
X2618096Y5402056D01*
X2622646Y5417056D01*
X2711354D01*
X2715904Y5402056D01*
X2707836Y5396664D01*
X2692917Y5374337D01*
X2687678Y5348000D01*
Y5233000D01*
X2692917Y5206663D01*
X2707836Y5184336D01*
X2730163Y5169417D01*
X2756500Y5164178D01*
X2831500D01*
X2857837Y5169417D01*
X2880164Y5184336D01*
X2895083Y5206663D01*
X2900322Y5233000D01*
Y5348000D01*
X2895083Y5374337D01*
X2880164Y5396664D01*
X2872096Y5402056D01*
X2876646Y5417056D01*
X2965354D01*
X2969904Y5402056D01*
X2961836Y5396664D01*
X2946917Y5374337D01*
X2941678Y5348000D01*
Y5233000D01*
X2946917Y5206663D01*
X2961836Y5184336D01*
X2984163Y5169417D01*
X3010500Y5164178D01*
X3085500D01*
X3111837Y5169417D01*
X3134164Y5184336D01*
X3149083Y5206663D01*
X3154322Y5233000D01*
Y5348000D01*
X3149083Y5374337D01*
X3134164Y5396664D01*
X3126096Y5402056D01*
X3130646Y5417056D01*
X3219354D01*
X3223904Y5402056D01*
X3215836Y5396664D01*
X3200917Y5374337D01*
X3195678Y5348000D01*
Y5233000D01*
X3200917Y5206663D01*
X3215836Y5184336D01*
X3238163Y5169417D01*
X3264500Y5164178D01*
X3339500D01*
X3365837Y5169417D01*
X3388164Y5184336D01*
X3403083Y5206663D01*
X3408322Y5233000D01*
Y5348000D01*
X3403083Y5374337D01*
X3388164Y5396664D01*
X3380096Y5402056D01*
X3384646Y5417056D01*
X3473354D01*
X3477904Y5402056D01*
X3469836Y5396664D01*
X3454917Y5374337D01*
X3449678Y5348000D01*
Y5233000D01*
X3454917Y5206663D01*
X3469836Y5184336D01*
X3492163Y5169417D01*
X3518500Y5164178D01*
X3593500D01*
X3619837Y5169417D01*
X3642164Y5184336D01*
X3657083Y5206663D01*
X3662322Y5233000D01*
Y5348000D01*
X3657083Y5374337D01*
X3642164Y5396664D01*
X3634096Y5402056D01*
X3638646Y5417056D01*
X3727354D01*
X3731904Y5402056D01*
X3723836Y5396664D01*
X3708917Y5374337D01*
X3703678Y5348000D01*
Y5233000D01*
X3708917Y5206663D01*
X3723836Y5184336D01*
X3746163Y5169417D01*
X3772500Y5164178D01*
X3847500D01*
X3873837Y5169417D01*
X3896164Y5184336D01*
X3911083Y5206663D01*
X3916322Y5233000D01*
Y5348000D01*
X3911083Y5374337D01*
X3896164Y5396664D01*
X3888096Y5402056D01*
X3892646Y5417056D01*
X3981354D01*
X3985904Y5402056D01*
X3977836Y5396664D01*
X3962917Y5374337D01*
X3957678Y5348000D01*
Y5233000D01*
X3962917Y5206663D01*
X3977836Y5184336D01*
X4000163Y5169417D01*
X4026500Y5164178D01*
X4101500D01*
X4127837Y5169417D01*
X4150164Y5184336D01*
X4165083Y5206663D01*
X4170322Y5233000D01*
Y5348000D01*
X4165083Y5374337D01*
X4150164Y5396664D01*
X4142096Y5402056D01*
X4146646Y5417056D01*
X4235354D01*
X4239904Y5402056D01*
X4231836Y5396664D01*
X4216917Y5374337D01*
X4211678Y5348000D01*
Y5233000D01*
X4216917Y5206663D01*
X4231836Y5184336D01*
X4254163Y5169417D01*
X4280500Y5164178D01*
X4355500D01*
X4381837Y5169417D01*
X4404164Y5184336D01*
X4419083Y5206663D01*
X4424322Y5233000D01*
Y5348000D01*
X4419083Y5374337D01*
X4404164Y5396664D01*
X4396096Y5402056D01*
X4400646Y5417056D01*
X4489354D01*
X4493904Y5402056D01*
X4485836Y5396664D01*
X4470917Y5374337D01*
X4465678Y5348000D01*
Y5233000D01*
X4470917Y5206663D01*
X4485836Y5184336D01*
X4508163Y5169417D01*
X4534500Y5164178D01*
X4609500D01*
X4635837Y5169417D01*
X4658164Y5184336D01*
X4673083Y5206663D01*
X4678322Y5233000D01*
Y5348000D01*
X4673083Y5374337D01*
X4658164Y5396664D01*
X4650096Y5402056D01*
X4654646Y5417056D01*
X4743354D01*
X4747904Y5402056D01*
X4739836Y5396664D01*
X4724917Y5374337D01*
X4719678Y5348000D01*
Y5233000D01*
X4724917Y5206663D01*
X4739836Y5184336D01*
X4762163Y5169417D01*
X4788500Y5164178D01*
X4863500D01*
X4884170Y5168289D01*
X4895310Y5156815D01*
X4895486Y5156411D01*
X4892487Y5149171D01*
Y5132350D01*
X4881053Y5120773D01*
X4878629Y5119813D01*
X4863500Y5122822D01*
X4788500D01*
X4762163Y5117583D01*
X4739836Y5102664D01*
X4724917Y5080337D01*
X4719678Y5054000D01*
Y4939000D01*
X4724917Y4912663D01*
X4739836Y4890336D01*
X4762163Y4875417D01*
X4788500Y4870178D01*
X4863500D01*
X4889837Y4875417D01*
X4912164Y4890336D01*
X4927083Y4912663D01*
X4932322Y4939000D01*
Y5054000D01*
X4930066Y5065344D01*
X4935793Y5071839D01*
X4942994Y5077236D01*
X4963006D01*
X4965257Y5076414D01*
X4976027Y5065807D01*
X4973678Y5054000D01*
Y4939000D01*
X4978917Y4912663D01*
X4993836Y4890336D01*
X5016163Y4875417D01*
X5042500Y4870178D01*
X5117500D01*
X5143837Y4875417D01*
X5166164Y4890336D01*
X5181083Y4912663D01*
X5186322Y4939000D01*
Y5054000D01*
X5181083Y5080337D01*
X5166164Y5102664D01*
X5143837Y5117583D01*
X5117500Y5122822D01*
X5042500D01*
X5026345Y5119609D01*
X5023632Y5120723D01*
X5012487Y5131794D01*
Y5149171D01*
X5009396Y5156633D01*
X5010690Y5159077D01*
X5020712Y5168512D01*
X5042500Y5164178D01*
X5117500D01*
X5143837Y5169417D01*
X5166164Y5184336D01*
X5181083Y5206663D01*
X5186322Y5233000D01*
Y5348000D01*
X5181083Y5374337D01*
X5166164Y5396664D01*
X5158096Y5402056D01*
X5162646Y5417056D01*
X5251354D01*
X5255904Y5402056D01*
X5247836Y5396664D01*
X5232917Y5374337D01*
X5227678Y5348000D01*
Y5233000D01*
X5232917Y5206663D01*
X5247836Y5184336D01*
X5270163Y5169417D01*
X5296500Y5164178D01*
X5371500D01*
X5397837Y5169417D01*
X5420164Y5184336D01*
X5435083Y5206663D01*
X5440322Y5233000D01*
Y5348000D01*
X5435083Y5374337D01*
X5420164Y5396664D01*
X5412096Y5402056D01*
X5416646Y5417056D01*
X5505354D01*
X5509904Y5402056D01*
X5501836Y5396664D01*
X5486917Y5374337D01*
X5481678Y5348000D01*
Y5233000D01*
X5486917Y5206663D01*
X5501836Y5184336D01*
X5524163Y5169417D01*
X5550500Y5164178D01*
X5625500D01*
X5640734Y5167208D01*
X5651524Y5154060D01*
X5650469Y5151513D01*
Y5133149D01*
X5640363Y5122203D01*
X5637193Y5120496D01*
X5625500Y5122822D01*
X5550500D01*
X5524163Y5117583D01*
X5501836Y5102664D01*
X5486917Y5080337D01*
X5481678Y5054000D01*
Y4939000D01*
X5486917Y4912663D01*
X5501836Y4890336D01*
X5524163Y4875417D01*
X5550500Y4870178D01*
X5625500D01*
X5651837Y4875417D01*
X5674164Y4890336D01*
X5689083Y4912663D01*
X5694322Y4939000D01*
Y5054000D01*
X5691919Y5066083D01*
X5693377Y5069058D01*
X5704528Y5079578D01*
X5722403D01*
X5725747Y5080963D01*
X5738895Y5070174D01*
X5735678Y5054000D01*
Y4939000D01*
X5740917Y4912663D01*
X5755836Y4890336D01*
X5778163Y4875417D01*
X5804500Y4870178D01*
X5879500D01*
X5905837Y4875417D01*
X5928164Y4890336D01*
X5943083Y4912663D01*
X5948322Y4939000D01*
Y5054000D01*
X5943083Y5080337D01*
X5928164Y5102664D01*
X5905837Y5117583D01*
X5879500Y5122822D01*
X5804500D01*
X5782930Y5118532D01*
X5776461Y5123262D01*
X5772091Y5127526D01*
X5770469Y5130183D01*
Y5151513D01*
X5767602Y5158433D01*
X5774879Y5166001D01*
X5779390Y5169173D01*
X5804500Y5164178D01*
X5879500D01*
X5905837Y5169417D01*
X5928164Y5184336D01*
X5943083Y5206663D01*
X5948322Y5233000D01*
Y5348000D01*
X5943083Y5374337D01*
X5928164Y5396664D01*
X5920096Y5402056D01*
X5924646Y5417056D01*
X6013354D01*
X6017904Y5402056D01*
X6009836Y5396664D01*
X5994917Y5374337D01*
X5989678Y5348000D01*
Y5233000D01*
X5994917Y5206663D01*
X6009836Y5184336D01*
X6032163Y5169417D01*
X6058500Y5164178D01*
X6133500D01*
X6159837Y5169417D01*
X6182164Y5184336D01*
X6197083Y5206663D01*
X6202322Y5233000D01*
Y5348000D01*
X6197083Y5374337D01*
X6182164Y5396664D01*
X6174096Y5402056D01*
X6178646Y5417056D01*
X6267354D01*
X6271904Y5402056D01*
X6263836Y5396664D01*
X6248917Y5374337D01*
X6243678Y5348000D01*
Y5233000D01*
X6248917Y5206663D01*
X6263836Y5184336D01*
X6286163Y5169417D01*
X6312500Y5164178D01*
X6387500D01*
X6413837Y5169417D01*
X6436164Y5184336D01*
X6451083Y5206663D01*
X6456322Y5233000D01*
Y5348000D01*
X6451083Y5374337D01*
X6436164Y5396664D01*
X6428096Y5402056D01*
X6432646Y5417056D01*
X6521354D01*
X6525904Y5402056D01*
X6517836Y5396664D01*
X6502917Y5374337D01*
X6497678Y5348000D01*
Y5233000D01*
X6502917Y5206663D01*
X6517836Y5184336D01*
X6540163Y5169417D01*
X6566500Y5164178D01*
X6641500D01*
X6667837Y5169417D01*
X6690164Y5184336D01*
X6705083Y5206663D01*
X6710322Y5233000D01*
Y5348000D01*
X6705083Y5374337D01*
X6690164Y5396664D01*
X6682096Y5402056D01*
X6686646Y5417056D01*
X6775354D01*
X6779904Y5402056D01*
D02*
G37*
G36*
X6688543Y5090436D02*
X6685201Y5086990D01*
X6679902Y5080856D01*
X6677945Y5078168D01*
X6676450Y5075733D01*
X6675416Y5073551D01*
X6674845Y5071622D01*
X6674734Y5069945D01*
X6675086Y5068522D01*
X6675900Y5067351D01*
X6654851Y5088400D01*
X6656022Y5087586D01*
X6657445Y5087234D01*
X6659122Y5087345D01*
X6661051Y5087916D01*
X6663233Y5088950D01*
X6665668Y5090445D01*
X6668356Y5092402D01*
X6671296Y5094821D01*
X6677936Y5101043D01*
X6688543Y5090436D01*
D02*
G37*
G36*
X8325859Y4819792D02*
X8324747Y4821161D01*
X8323182Y4822387D01*
X8321162Y4823468D01*
X8318687Y4824405D01*
X8315759Y4825198D01*
X8312376Y4825847D01*
X8308538Y4826351D01*
X8299500Y4826928D01*
X8294300Y4827000D01*
X8285883Y4842000D01*
X8290844Y4842075D01*
X8298908Y4842679D01*
X8302011Y4843206D01*
X8304494Y4843885D01*
X8306358Y4844714D01*
X8307601Y4845695D01*
X8308225Y4846825D01*
X8308230Y4848107D01*
X8307615Y4849540D01*
X8325859Y4819792D01*
D02*
G37*
G36*
X8037149Y4817600D02*
X8035978Y4818414D01*
X8034555Y4818766D01*
X8032879Y4818655D01*
X8030949Y4818084D01*
X8028767Y4817050D01*
X8026332Y4815555D01*
X8023644Y4813598D01*
X8020704Y4811179D01*
X8014064Y4804957D01*
X8003457Y4815564D01*
X8006799Y4819010D01*
X8012098Y4825144D01*
X8014055Y4827832D01*
X8015550Y4830267D01*
X8016584Y4832449D01*
X8017155Y4834378D01*
X8017266Y4836055D01*
X8016914Y4837478D01*
X8016101Y4838649D01*
X8037149Y4817600D01*
D02*
G37*
G36*
X8591122Y4985565D02*
X8591247Y270194D01*
X8591247Y269996D01*
Y255256D01*
X8589999Y240773D01*
X8584683Y200394D01*
X8563507Y149271D01*
X8529821Y105371D01*
X8485921Y71685D01*
X8434798Y50509D01*
X8381926Y43549D01*
X8379938Y43944D01*
X7711646D01*
X7707096Y58944D01*
X7709769Y60731D01*
X7725793Y84712D01*
X7731420Y113000D01*
Y160500D01*
X7508580D01*
Y113000D01*
X7514207Y84712D01*
X7530231Y60731D01*
X7532904Y58944D01*
X7528354Y43944D01*
X7457646D01*
X7453096Y58944D01*
X7455769Y60731D01*
X7471793Y84712D01*
X7477420Y113000D01*
Y160500D01*
X7254580D01*
Y113000D01*
X7260207Y84712D01*
X7276231Y60731D01*
X7278904Y58944D01*
X7274354Y43944D01*
X7194646D01*
X7190096Y58944D01*
X7198164Y64336D01*
X7213083Y86663D01*
X7218322Y113000D01*
Y228000D01*
X7213083Y254337D01*
X7198164Y276664D01*
X7175837Y291583D01*
X7149500Y296822D01*
X7074500D01*
X7048163Y291583D01*
X7025836Y276664D01*
X7010917Y254337D01*
X7005678Y228000D01*
Y113000D01*
X7010917Y86663D01*
X7025836Y64336D01*
X7033904Y58944D01*
X7029354Y43944D01*
X6940646D01*
X6936096Y58944D01*
X6944164Y64336D01*
X6959083Y86663D01*
X6964322Y113000D01*
Y228000D01*
X6959083Y254337D01*
X6944164Y276664D01*
X6921837Y291583D01*
X6895500Y296822D01*
X6820500D01*
X6794163Y291583D01*
X6771836Y276664D01*
X6756917Y254337D01*
X6751678Y228000D01*
Y113000D01*
X6756917Y86663D01*
X6771836Y64336D01*
X6779904Y58944D01*
X6775354Y43944D01*
X6686646D01*
X6682096Y58944D01*
X6690164Y64336D01*
X6705083Y86663D01*
X6710322Y113000D01*
Y228000D01*
X6705083Y254337D01*
X6690164Y276664D01*
X6667837Y291583D01*
X6641500Y296822D01*
X6566500D01*
X6540163Y291583D01*
X6517836Y276664D01*
X6502917Y254337D01*
X6497678Y228000D01*
Y113000D01*
X6502917Y86663D01*
X6517836Y64336D01*
X6525904Y58944D01*
X6521354Y43944D01*
X6432646D01*
X6428096Y58944D01*
X6436164Y64336D01*
X6451083Y86663D01*
X6456322Y113000D01*
Y228000D01*
X6451083Y254337D01*
X6436164Y276664D01*
X6413837Y291583D01*
X6387500Y296822D01*
X6312500D01*
X6286163Y291583D01*
X6263836Y276664D01*
X6248917Y254337D01*
X6243678Y228000D01*
Y113000D01*
X6248917Y86663D01*
X6263836Y64336D01*
X6271904Y58944D01*
X6267354Y43944D01*
X6178646D01*
X6174096Y58944D01*
X6182164Y64336D01*
X6197083Y86663D01*
X6202322Y113000D01*
Y228000D01*
X6197083Y254337D01*
X6182164Y276664D01*
X6159837Y291583D01*
X6133500Y296822D01*
X6058500D01*
X6032163Y291583D01*
X6023690Y294154D01*
X6018499Y306686D01*
X6001620Y323565D01*
X5979568Y332699D01*
X5966062D01*
X5958305Y351427D01*
X5941427Y368305D01*
X5939366Y375099D01*
X5943083Y380663D01*
X5948322Y407000D01*
Y522000D01*
X5943083Y548337D01*
X5928164Y570664D01*
X5905837Y585583D01*
X5879500Y590822D01*
X5804500D01*
X5778163Y585583D01*
X5755836Y570664D01*
X5740917Y548337D01*
X5735678Y522000D01*
Y407000D01*
X5740917Y380663D01*
X5755836Y358336D01*
X5778163Y343417D01*
X5804500Y338178D01*
X5841557D01*
X5847440Y329374D01*
Y305505D01*
X5841638Y296822D01*
X5804500D01*
X5778163Y291583D01*
X5755836Y276664D01*
X5740917Y254337D01*
X5735678Y228000D01*
Y113000D01*
X5740917Y86663D01*
X5755836Y64336D01*
X5763904Y58944D01*
X5759354Y43944D01*
X5670646D01*
X5666096Y58944D01*
X5674164Y64336D01*
X5689083Y86663D01*
X5694322Y113000D01*
Y228000D01*
X5689083Y254337D01*
X5674164Y276664D01*
X5651837Y291583D01*
X5625500Y296822D01*
X5550500D01*
X5524163Y291583D01*
X5501836Y276664D01*
X5486917Y254337D01*
X5481678Y228000D01*
Y113000D01*
X5486917Y86663D01*
X5501836Y64336D01*
X5509904Y58944D01*
X5505354Y43944D01*
X5416646D01*
X5412096Y58944D01*
X5420164Y64336D01*
X5435083Y86663D01*
X5440322Y113000D01*
Y228000D01*
X5435083Y254337D01*
X5420164Y276664D01*
X5397837Y291583D01*
X5371500Y296822D01*
X5296500D01*
X5270163Y291583D01*
X5247836Y276664D01*
X5232917Y254337D01*
X5227678Y228000D01*
Y113000D01*
X5232917Y86663D01*
X5247836Y64336D01*
X5255904Y58944D01*
X5251354Y43944D01*
X5162646D01*
X5158096Y58944D01*
X5166164Y64336D01*
X5181083Y86663D01*
X5186322Y113000D01*
Y228000D01*
X5181083Y254337D01*
X5166164Y276664D01*
X5143837Y291583D01*
X5117500Y296822D01*
X5042500D01*
X5016163Y291583D01*
X4993836Y276664D01*
X4978917Y254337D01*
X4973678Y228000D01*
Y113000D01*
X4978917Y86663D01*
X4993836Y64336D01*
X5001904Y58944D01*
X4997354Y43944D01*
X4908646D01*
X4904096Y58944D01*
X4912164Y64336D01*
X4927083Y86663D01*
X4932322Y113000D01*
Y228000D01*
X4927083Y254337D01*
X4912164Y276664D01*
X4889837Y291583D01*
X4863500Y296822D01*
X4788500D01*
X4783258Y295779D01*
X4782281Y296506D01*
X4774403Y303378D01*
X4750741Y327040D01*
X4751476Y332517D01*
X4753830Y334918D01*
X4767919Y342272D01*
X4788500Y338178D01*
X4863500D01*
X4889837Y343417D01*
X4912164Y358336D01*
X4927083Y380663D01*
X4932322Y407000D01*
Y522000D01*
X4927083Y548337D01*
X4912164Y570664D01*
X4892176Y584020D01*
X4892956Y594252D01*
X4894671Y599020D01*
X5011329D01*
X5013044Y594252D01*
X5013824Y584020D01*
X4993836Y570664D01*
X4978917Y548337D01*
X4973678Y522000D01*
Y407000D01*
X4978917Y380663D01*
X4993836Y358336D01*
X5016163Y343417D01*
X5042500Y338178D01*
X5117500D01*
X5143837Y343417D01*
X5166164Y358336D01*
X5181083Y380663D01*
X5186322Y407000D01*
Y522000D01*
X5181083Y548337D01*
X5166164Y570664D01*
X5146176Y584020D01*
X5146956Y594252D01*
X5148671Y599020D01*
X5265329D01*
X5267044Y594252D01*
X5267824Y584020D01*
X5247836Y570664D01*
X5232917Y548337D01*
X5227678Y522000D01*
Y407000D01*
X5232917Y380663D01*
X5247836Y358336D01*
X5270163Y343417D01*
X5296500Y338178D01*
X5371500D01*
X5397837Y343417D01*
X5420164Y358336D01*
X5435083Y380663D01*
X5440322Y407000D01*
Y522000D01*
X5435083Y548337D01*
X5420164Y570664D01*
X5400176Y584020D01*
X5400956Y594252D01*
X5402671Y599020D01*
X5519329D01*
X5521044Y594252D01*
X5521824Y584020D01*
X5501836Y570664D01*
X5486917Y548337D01*
X5481678Y522000D01*
Y407000D01*
X5486917Y380663D01*
X5501836Y358336D01*
X5524163Y343417D01*
X5550500Y338178D01*
X5625500D01*
X5651837Y343417D01*
X5674164Y358336D01*
X5689083Y380663D01*
X5694322Y407000D01*
Y522000D01*
X5689083Y548337D01*
X5674164Y570664D01*
X5654176Y584020D01*
X5654956Y594252D01*
X5656671Y599020D01*
X5710000D01*
X5729509Y602901D01*
X5746048Y613952D01*
X5852882Y720786D01*
X5863933Y737325D01*
X5867814Y756834D01*
Y792364D01*
X5878065Y799214D01*
X5901935D01*
X5923987Y808348D01*
X5940865Y825226D01*
X5948608Y843918D01*
X5958065Y840000D01*
X5981935D01*
X6003987Y849134D01*
X6020866Y866013D01*
X6030000Y888065D01*
Y911935D01*
X6020866Y933987D01*
X6003987Y950866D01*
X5981935Y960000D01*
X5958065D01*
X5936013Y950866D01*
X5919134Y933987D01*
X5911392Y915296D01*
X5901935Y919213D01*
X5878065D01*
X5867814Y926063D01*
Y1155179D01*
X5882770Y1163174D01*
X5882858Y1163168D01*
X5889770Y1158549D01*
X5909279Y1154669D01*
X5940191D01*
X5946404Y1139669D01*
X5944112Y1137377D01*
X5934978Y1115324D01*
Y1091455D01*
X5944112Y1069402D01*
X5960991Y1052524D01*
X5983043Y1043390D01*
X6006913D01*
X6028965Y1052524D01*
X6045843Y1069402D01*
X6054978Y1091455D01*
Y1115324D01*
X6045843Y1137377D01*
X6038357Y1144863D01*
X6029076Y1154375D01*
X6038357Y1164461D01*
X6045557Y1171661D01*
X6054691Y1193713D01*
Y1217583D01*
X6045557Y1239635D01*
X6028678Y1256514D01*
X6006626Y1265648D01*
X5982756D01*
X5960979Y1256628D01*
X5929787D01*
X5915082Y1266453D01*
X5895573Y1270334D01*
X5870980D01*
Y1330000D01*
Y1660000D01*
X5869985Y1665000D01*
X5870980Y1670000D01*
Y1784983D01*
X5885980Y1795006D01*
X5898065Y1790000D01*
X5921935D01*
X5943987Y1799135D01*
X5960866Y1816013D01*
X5970000Y1838065D01*
Y1861935D01*
X5960866Y1883987D01*
X5957153Y1887700D01*
Y1903826D01*
X5953272Y1923335D01*
X5942221Y1939874D01*
X5937096Y1945000D01*
X5970680Y1978584D01*
X5971935D01*
X5993987Y1987718D01*
X6010866Y2004597D01*
X6020000Y2026649D01*
Y2050519D01*
X6010866Y2072571D01*
X5993987Y2089449D01*
X5971935Y2098584D01*
X5948065D01*
X5930318Y2091233D01*
X5915445Y2087942D01*
X5898567Y2104820D01*
X5876515Y2113954D01*
X5852645D01*
X5843176Y2110032D01*
X5709274D01*
X5486077Y2333228D01*
Y2428595D01*
X5490000Y2438065D01*
Y2461935D01*
X5486077Y2471405D01*
Y2606772D01*
X5571883Y2692577D01*
X5585741Y2686837D01*
Y2368712D01*
X5576720Y2346935D01*
Y2323065D01*
X5585855Y2301013D01*
X5602733Y2284134D01*
X5624786Y2275000D01*
X5648655D01*
X5670707Y2284134D01*
X5687586Y2301013D01*
X5696720Y2323065D01*
Y2346935D01*
X5687700Y2368712D01*
Y2685604D01*
X6196048Y3193952D01*
X6207099Y3210491D01*
X6210980Y3230000D01*
Y3380645D01*
X6225980Y3383629D01*
X6229134Y3376013D01*
X6235912Y3369235D01*
X6237412Y3366922D01*
X6242305Y3361893D01*
X6243413Y3360582D01*
X6244216Y3359517D01*
Y2897985D01*
X6229216Y2895002D01*
X6223135Y2909683D01*
X6206257Y2926562D01*
X6184204Y2935696D01*
X6160335D01*
X6138282Y2926562D01*
X6121404Y2909683D01*
X6112270Y2887631D01*
Y2863761D01*
X6121404Y2841709D01*
X6138282Y2824831D01*
X6155556Y2817676D01*
X6151916Y2808886D01*
Y2785017D01*
X6161050Y2762965D01*
X6177928Y2746086D01*
X6199981Y2736952D01*
X6223850D01*
X6231744Y2740222D01*
X6244216Y2731888D01*
Y2182783D01*
X6244216Y2182782D01*
X6247321Y2167174D01*
X6256161Y2153943D01*
X6273533Y2136571D01*
X6267320Y2121571D01*
X6256670D01*
X6234618Y2112437D01*
X6217740Y2095559D01*
X6208605Y2073506D01*
Y2049637D01*
X6217740Y2027584D01*
X6234618Y2010706D01*
X6256670Y2001572D01*
X6280540D01*
X6284216Y1999115D01*
Y1821619D01*
X6269216Y1818636D01*
X6264256Y1830612D01*
X6247377Y1847490D01*
X6225325Y1856624D01*
X6201455D01*
X6179403Y1847490D01*
X6162525Y1830612D01*
X6153390Y1808559D01*
Y1784690D01*
X6162525Y1762637D01*
X6179403Y1745759D01*
X6201455Y1736625D01*
X6225325D01*
X6247377Y1745759D01*
X6264256Y1762637D01*
X6269216Y1774613D01*
X6284216Y1771630D01*
Y1415230D01*
X6277321Y1404910D01*
X6274216Y1389303D01*
X6274217Y1389302D01*
Y1299293D01*
X6259217Y1296309D01*
X6252410Y1312742D01*
X6235532Y1329620D01*
X6213479Y1338754D01*
X6189610D01*
X6167557Y1329620D01*
X6150679Y1312742D01*
X6141545Y1290689D01*
Y1266820D01*
X6150679Y1244767D01*
X6167557Y1227889D01*
X6189610Y1218754D01*
X6213479D01*
X6235532Y1227889D01*
X6252410Y1244767D01*
X6259217Y1261199D01*
X6274217Y1258216D01*
Y685001D01*
X6274216Y685000D01*
X6277321Y669393D01*
X6286162Y656162D01*
X6297029Y645294D01*
X6297158Y644946D01*
X6297505Y643822D01*
X6299527Y634599D01*
X6300000Y631552D01*
Y628065D01*
X6309134Y606013D01*
X6309623Y605524D01*
X6304669Y589265D01*
X6286163Y585583D01*
X6263836Y570664D01*
X6248917Y548337D01*
X6243678Y522000D01*
Y407000D01*
X6248917Y380663D01*
X6263836Y358336D01*
X6286163Y343417D01*
X6312500Y338178D01*
X6387500D01*
X6413837Y343417D01*
X6436164Y358336D01*
X6451083Y380663D01*
X6456322Y407000D01*
Y522000D01*
X6451083Y548337D01*
X6436164Y570664D01*
X6432805Y572909D01*
X6437355Y587909D01*
X6447320D01*
X6469372Y597044D01*
X6486251Y613922D01*
X6495385Y635974D01*
Y659844D01*
X6486251Y681896D01*
X6469372Y698775D01*
X6447320Y707909D01*
X6423450D01*
X6401398Y698775D01*
X6393635Y691012D01*
X6371935Y700000D01*
X6368503D01*
X6361765Y701142D01*
X6356450Y702411D01*
X6355784Y702617D01*
Y898475D01*
X6358066Y900000D01*
X6381935D01*
X6403987Y909135D01*
X6420865Y926013D01*
X6430000Y948065D01*
Y971935D01*
X6420865Y993987D01*
X6403987Y1010866D01*
X6381935Y1020000D01*
X6358066D01*
X6355784Y1021525D01*
Y1373376D01*
X6362679Y1383695D01*
X6365783Y1399303D01*
Y1967293D01*
X6379641Y1973033D01*
X6475534Y1877141D01*
X6474851Y1856610D01*
X6466931Y1848690D01*
X6457797Y1826638D01*
Y1802769D01*
X6466931Y1780716D01*
X6483809Y1763838D01*
X6505862Y1754703D01*
X6529731D01*
X6551784Y1763838D01*
X6559704Y1771757D01*
X6580234Y1772440D01*
X6621766Y1730909D01*
Y1391458D01*
X6614059Y1379779D01*
X6611611Y1376464D01*
X6609134Y1373987D01*
X6600000Y1351935D01*
Y1328065D01*
X6609134Y1306013D01*
X6626013Y1289135D01*
X6648065Y1280000D01*
X6671935D01*
X6693987Y1289135D01*
X6710865Y1306013D01*
X6720000Y1328065D01*
Y1351935D01*
X6710865Y1373987D01*
X6708388Y1376465D01*
X6705722Y1380076D01*
X6701167Y1386629D01*
X6698234Y1391374D01*
Y1693431D01*
X6708066Y1700000D01*
X6731935D01*
X6753987Y1709135D01*
X6766037Y1721184D01*
X6779871Y1721659D01*
X6791766Y1710058D01*
Y1570000D01*
X6794676Y1555368D01*
X6802964Y1542964D01*
X6830928Y1515000D01*
X6824715Y1500000D01*
X6808065D01*
X6786012Y1490866D01*
X6769134Y1473987D01*
X6760000Y1451935D01*
Y1428065D01*
X6769134Y1406013D01*
X6786012Y1389135D01*
X6808065Y1380000D01*
X6820000D01*
Y1368066D01*
X6829134Y1346013D01*
X6820919Y1333015D01*
X6747790Y1259886D01*
X6726013Y1250865D01*
X6709134Y1233987D01*
X6700000Y1211935D01*
Y1188065D01*
X6709134Y1166013D01*
X6726013Y1149134D01*
X6748065Y1140000D01*
X6771935D01*
X6793987Y1149134D01*
X6810865Y1166013D01*
X6819886Y1187790D01*
X6881116Y1249020D01*
X7030000D01*
X7049509Y1252901D01*
X7066048Y1263952D01*
X7178733Y1376638D01*
X7193733Y1370424D01*
Y1358065D01*
X7202868Y1336013D01*
X7219746Y1319135D01*
X7241799Y1310000D01*
X7265668D01*
X7287721Y1319135D01*
X7304599Y1336013D01*
X7313733Y1358065D01*
Y1381935D01*
X7304599Y1403987D01*
X7287721Y1420866D01*
X7265668Y1430000D01*
X7253309D01*
X7247096Y1445000D01*
X7341116Y1539021D01*
X7418311D01*
X7437820Y1542901D01*
X7454359Y1553952D01*
X7497322Y1596916D01*
X7519100Y1605936D01*
X7535978Y1622814D01*
X7544998Y1644591D01*
X7565599Y1665193D01*
X7584664Y1664765D01*
X7594906Y1654523D01*
X7616958Y1645388D01*
X7640828D01*
X7662880Y1654523D01*
X7679759Y1671401D01*
X7688893Y1693454D01*
Y1717323D01*
X7681737Y1734600D01*
X7692455Y1745319D01*
X7696520Y1755132D01*
X7704606Y1760535D01*
X7973276Y2029204D01*
X7990935Y2025650D01*
X8001836Y2009336D01*
X8024163Y1994417D01*
X8050500Y1989178D01*
X8165500D01*
X8191837Y1994417D01*
X8206845Y2004445D01*
X8222804Y1999390D01*
X8223037Y1998770D01*
X8224073Y1988926D01*
X8209134Y1973987D01*
X8201050Y1954468D01*
X8198442Y1951105D01*
X8185000Y1943943D01*
X8165500Y1947822D01*
X8050500D01*
X8024163Y1942583D01*
X8001836Y1927664D01*
X7986917Y1905337D01*
X7981678Y1879000D01*
Y1804000D01*
X7986917Y1777663D01*
X8001836Y1755336D01*
X8024163Y1740417D01*
X8050500Y1735178D01*
X8165500D01*
X8191837Y1740417D01*
X8214164Y1755336D01*
X8229083Y1777663D01*
X8234322Y1804000D01*
Y1869457D01*
X8248007Y1879955D01*
X8248651Y1880000D01*
X8261349D01*
X8272138Y1879247D01*
X8275678Y1866142D01*
Y1804000D01*
X8280917Y1777663D01*
X8295836Y1755336D01*
X8318163Y1740417D01*
X8344500Y1735178D01*
X8459500D01*
X8485837Y1740417D01*
X8508164Y1755336D01*
X8523083Y1777663D01*
X8528322Y1804000D01*
Y1879000D01*
X8523083Y1905337D01*
X8508164Y1927664D01*
X8485837Y1942583D01*
X8459500Y1947822D01*
X8344500D01*
X8328813Y1944702D01*
X8320000Y1951935D01*
X8312780Y1969366D01*
X8313332Y1972145D01*
Y1980977D01*
X8328333Y1992394D01*
X8344500Y1989178D01*
X8459500D01*
X8485837Y1994417D01*
X8508164Y2009336D01*
X8523083Y2031663D01*
X8528322Y2058000D01*
Y2133000D01*
X8523083Y2159337D01*
X8508164Y2181664D01*
X8485837Y2196583D01*
X8459500Y2201822D01*
X8344500D01*
X8328333Y2198606D01*
X8313332Y2210023D01*
Y2234977D01*
X8328333Y2246394D01*
X8344500Y2243178D01*
X8459500D01*
X8485837Y2248417D01*
X8508164Y2263336D01*
X8523083Y2285663D01*
X8528322Y2312000D01*
Y2387000D01*
X8523083Y2413337D01*
X8508164Y2435664D01*
X8485837Y2450583D01*
X8459500Y2455822D01*
X8344500D01*
X8328333Y2452606D01*
X8313332Y2464023D01*
Y2469116D01*
X8310034Y2485699D01*
X8300640Y2499757D01*
X8253752Y2546645D01*
X8253706Y2546758D01*
X8253403Y2547667D01*
X8253176Y2548529D01*
X8252415Y2552867D01*
X8252155Y2555421D01*
X8251820Y2556511D01*
Y2561863D01*
X8242686Y2583915D01*
X8225808Y2600794D01*
X8203755Y2609928D01*
X8179886D01*
X8157833Y2600794D01*
X8140955Y2583915D01*
X8131820Y2561863D01*
Y2537993D01*
X8140955Y2515941D01*
X8157833Y2499063D01*
X8179886Y2489928D01*
X8182872D01*
X8187215Y2488749D01*
X8188274Y2488376D01*
X8189398Y2487907D01*
X8190242Y2487495D01*
X8190472Y2487363D01*
X8215677Y2462158D01*
X8215176Y2459043D01*
X8198837Y2451920D01*
X8193788Y2455293D01*
X8165500Y2460920D01*
X8118000D01*
Y2349500D01*
X8098000D01*
Y2460920D01*
X8086986D01*
X8080773Y2475920D01*
X8090207Y2485354D01*
X8099341Y2507407D01*
Y2531276D01*
X8090207Y2553329D01*
X8073329Y2570207D01*
X8051276Y2579342D01*
X8027407D01*
X8020169Y2576344D01*
X8007697Y2584677D01*
Y3005509D01*
X8020926Y3012579D01*
X8024163Y3010417D01*
X8050500Y3005178D01*
X8165500D01*
X8191837Y3010417D01*
X8214164Y3025336D01*
X8229083Y3047663D01*
X8234322Y3074000D01*
Y3149000D01*
X8229083Y3175337D01*
X8214164Y3197664D01*
X8191837Y3212583D01*
X8165500Y3217822D01*
X8050500D01*
X8024163Y3212583D01*
X8020926Y3210421D01*
X8007697Y3217491D01*
Y3259509D01*
X8020926Y3266579D01*
X8024163Y3264417D01*
X8050500Y3259178D01*
X8165500D01*
X8191837Y3264417D01*
X8214164Y3279336D01*
X8229083Y3301663D01*
X8234322Y3328000D01*
Y3403000D01*
X8229083Y3429337D01*
X8214164Y3451664D01*
X8191837Y3466583D01*
X8165500Y3471822D01*
X8050500D01*
X8024163Y3466583D01*
X8020926Y3464421D01*
X8007697Y3471491D01*
Y3513509D01*
X8020926Y3520579D01*
X8024163Y3518417D01*
X8050500Y3513178D01*
X8165500D01*
X8191837Y3518417D01*
X8214164Y3533336D01*
X8229083Y3555663D01*
X8234322Y3582000D01*
Y3657000D01*
X8229083Y3683337D01*
X8214164Y3705664D01*
X8191837Y3720583D01*
X8165500Y3725822D01*
X8050500D01*
X8024163Y3720583D01*
X8020926Y3718421D01*
X8007697Y3725491D01*
Y3767509D01*
X8020926Y3774579D01*
X8024163Y3772417D01*
X8050500Y3767178D01*
X8165500D01*
X8191837Y3772417D01*
X8214164Y3787336D01*
X8229083Y3809663D01*
X8234322Y3836000D01*
Y3911000D01*
X8229083Y3937337D01*
X8214164Y3959664D01*
X8191837Y3974583D01*
X8165500Y3979822D01*
X8050500D01*
X8024163Y3974583D01*
X8020926Y3972421D01*
X8007697Y3979491D01*
Y4021509D01*
X8020926Y4028579D01*
X8024163Y4026417D01*
X8050500Y4021178D01*
X8165500D01*
X8191837Y4026417D01*
X8214164Y4041336D01*
X8229083Y4063663D01*
X8234322Y4090000D01*
Y4159457D01*
X8246398Y4169820D01*
X8248622Y4170000D01*
X8261378D01*
X8273036Y4165924D01*
X8275678Y4156142D01*
Y4090000D01*
X8280917Y4063663D01*
X8295836Y4041336D01*
X8318163Y4026417D01*
X8344500Y4021178D01*
X8459500D01*
X8485837Y4026417D01*
X8508164Y4041336D01*
X8523083Y4063663D01*
X8528322Y4090000D01*
Y4165000D01*
X8523083Y4191337D01*
X8508164Y4213664D01*
X8485837Y4228583D01*
X8459500Y4233822D01*
X8344500D01*
X8331595Y4231255D01*
X8320000Y4240771D01*
Y4241935D01*
X8310866Y4263987D01*
X8301025Y4273827D01*
X8310587Y4285479D01*
X8318163Y4280417D01*
X8344500Y4275178D01*
X8459500D01*
X8485837Y4280417D01*
X8508164Y4295336D01*
X8523083Y4317663D01*
X8528322Y4344000D01*
Y4419000D01*
X8523083Y4445337D01*
X8508164Y4467664D01*
X8485837Y4482583D01*
X8459500Y4487822D01*
X8344500D01*
X8318163Y4482583D01*
X8295836Y4467664D01*
X8280917Y4445337D01*
X8275678Y4419000D01*
Y4381955D01*
X8274500D01*
X8259868Y4379045D01*
X8249322Y4371998D01*
X8235481Y4375720D01*
X8234322Y4376201D01*
Y4419000D01*
X8229083Y4445337D01*
X8221447Y4456766D01*
X8229465Y4471766D01*
X8256500D01*
X8271132Y4474676D01*
X8283536Y4482964D01*
X8332197Y4531625D01*
X8344500Y4529178D01*
X8459500D01*
X8485837Y4534417D01*
X8508164Y4549336D01*
X8523083Y4571663D01*
X8528322Y4598000D01*
Y4673000D01*
X8523083Y4699337D01*
X8508164Y4721664D01*
X8485837Y4736583D01*
X8459500Y4741822D01*
X8344500D01*
X8318163Y4736583D01*
X8295836Y4721664D01*
X8280917Y4699337D01*
X8275678Y4673000D01*
Y4598000D01*
X8278125Y4585697D01*
X8244970Y4552542D01*
X8234144Y4553712D01*
X8226916Y4568420D01*
X8229083Y4571663D01*
X8234322Y4598000D01*
Y4673000D01*
X8229083Y4699337D01*
X8214450Y4721237D01*
X8217036Y4722964D01*
X8290337Y4796266D01*
X8299697D01*
X8305565Y4795891D01*
X8307313Y4795661D01*
X8307888Y4795040D01*
X8309056Y4794502D01*
X8310593Y4793475D01*
X8311289Y4792897D01*
X8311604Y4792799D01*
X8318163Y4788417D01*
X8344500Y4783178D01*
X8459500D01*
X8485837Y4788417D01*
X8508164Y4803336D01*
X8523083Y4825663D01*
X8528322Y4852000D01*
Y4927000D01*
X8524446Y4946488D01*
X8534304Y4961488D01*
X8536757D01*
X8558809Y4970623D01*
X8575688Y4987501D01*
X8576122Y4988549D01*
X8591122Y4985565D01*
D02*
G37*
G36*
X7182051Y4744779D02*
X7196016Y4735516D01*
X7198767Y4734027D01*
X7201222Y4732869D01*
X7203381Y4732042D01*
X7205244Y4731546D01*
X7206811Y4731381D01*
X7206758Y4716381D01*
X7205191Y4716217D01*
X7203327Y4715724D01*
X7201166Y4714903D01*
X7198706Y4713753D01*
X7195950Y4712275D01*
X7189543Y4708333D01*
X7181946Y4703077D01*
X7177701Y4699956D01*
X7177819Y4747922D01*
X7182051Y4744779D01*
D02*
G37*
G36*
X7569159Y4722154D02*
X7569013Y4719783D01*
X7569074Y4717501D01*
X7569342Y4715308D01*
X7569817Y4713204D01*
X7570500Y4711189D01*
X7571390Y4709262D01*
X7572487Y4707425D01*
X7573792Y4705676D01*
X7575303Y4704016D01*
X7564697Y4693410D01*
X7562984Y4694980D01*
X7561183Y4696352D01*
X7559293Y4697527D01*
X7557315Y4698503D01*
X7555248Y4699283D01*
X7553093Y4699864D01*
X7550849Y4700249D01*
X7548517Y4700435D01*
X7546096Y4700424D01*
X7543587Y4700215D01*
X7569512Y4724614D01*
X7569159Y4722154D01*
D02*
G37*
G36*
X6661985Y4633511D02*
X6657743Y4636644D01*
X6643749Y4645878D01*
X6640994Y4647362D01*
X6638538Y4648516D01*
X6636378Y4649340D01*
X6634517Y4649835D01*
X6632953Y4650000D01*
Y4665000D01*
X6634517Y4665165D01*
X6636378Y4665659D01*
X6638538Y4666484D01*
X6640994Y4667638D01*
X6643749Y4669122D01*
X6650151Y4673079D01*
X6657743Y4678356D01*
X6661985Y4681489D01*
Y4633511D01*
D02*
G37*
G36*
X7004224Y4587799D02*
X7001309Y4587299D01*
X6998493Y4586644D01*
X6995775Y4585833D01*
X6993156Y4584866D01*
X6990635Y4583744D01*
X6988213Y4582466D01*
X6985888Y4581031D01*
X6983663Y4579441D01*
X6981536Y4577696D01*
X6979508Y4575795D01*
X6958294Y4597008D01*
X6960196Y4599036D01*
X6961941Y4601163D01*
X6963531Y4603389D01*
X6964965Y4605713D01*
X6966244Y4608135D01*
X6967366Y4610656D01*
X6968333Y4613275D01*
X6969144Y4615993D01*
X6969799Y4618809D01*
X6970299Y4621724D01*
X7004224Y4587799D01*
D02*
G37*
G36*
X6609741Y4571808D02*
X6605856Y4573116D01*
X6602216Y4574120D01*
X6598820Y4574823D01*
X6595668Y4575224D01*
X6592760Y4575322D01*
X6590097Y4575119D01*
X6587678Y4574613D01*
X6585504Y4573805D01*
X6583574Y4572694D01*
X6581889Y4571282D01*
X6573260Y4583867D01*
X6575433Y4586134D01*
X6579642Y4591098D01*
X6581680Y4593795D01*
X6587523Y4602750D01*
X6589381Y4606022D01*
X6592962Y4612997D01*
X6609741Y4571808D01*
D02*
G37*
G36*
X5460488Y4609008D02*
X5463854Y4592583D01*
X5464752Y4589586D01*
X5465673Y4587032D01*
X5466617Y4584923D01*
X5467583Y4583257D01*
X5468573Y4582034D01*
X5457966Y4571428D01*
X5456743Y4572417D01*
X5455077Y4573384D01*
X5452968Y4574327D01*
X5450414Y4575248D01*
X5447417Y4576147D01*
X5440092Y4577875D01*
X5430993Y4579513D01*
X5425778Y4580297D01*
X5459703Y4614223D01*
X5460488Y4609008D01*
D02*
G37*
G36*
X8331149Y4563600D02*
X8329978Y4564414D01*
X8328555Y4564766D01*
X8326878Y4564655D01*
X8324949Y4564084D01*
X8322767Y4563050D01*
X8320332Y4561555D01*
X8317644Y4559598D01*
X8314704Y4557179D01*
X8308064Y4550957D01*
X8297457Y4561564D01*
X8300799Y4565010D01*
X8306098Y4571144D01*
X8308055Y4573832D01*
X8309550Y4576267D01*
X8310584Y4578449D01*
X8311155Y4580378D01*
X8311266Y4582055D01*
X8310914Y4583478D01*
X8310100Y4584649D01*
X8331149Y4563600D01*
D02*
G37*
G36*
X5561673Y4587741D02*
X5552439Y4573747D01*
X5550955Y4570993D01*
X5549801Y4568536D01*
X5548976Y4566377D01*
X5548482Y4564515D01*
X5548317Y4562951D01*
X5533317D01*
X5533152Y4564515D01*
X5532657Y4566377D01*
X5531833Y4568536D01*
X5530679Y4570993D01*
X5529195Y4573747D01*
X5525238Y4580149D01*
X5519961Y4587741D01*
X5516828Y4591983D01*
X5564806D01*
X5561673Y4587741D01*
D02*
G37*
G36*
X8051697Y4560789D02*
X8050160Y4561209D01*
X8048400Y4561200D01*
X8046416Y4560762D01*
X8044209Y4559894D01*
X8041779Y4558597D01*
X8039125Y4556870D01*
X8036248Y4554714D01*
X8029823Y4549113D01*
X8026275Y4545669D01*
X8011963Y4552570D01*
X8015298Y4556010D01*
X8020454Y4562010D01*
X8022275Y4564569D01*
X8023591Y4566835D01*
X8024402Y4568807D01*
X8024709Y4570485D01*
X8024512Y4571870D01*
X8023809Y4572961D01*
X8022602Y4573759D01*
X8051697Y4560789D01*
D02*
G37*
G36*
X6095094Y4541726D02*
X6093566Y4539271D01*
X6092217Y4536776D01*
X6091049Y4534240D01*
X6090060Y4531664D01*
X6089251Y4529047D01*
X6088622Y4526390D01*
X6088172Y4523692D01*
X6087903Y4520953D01*
X6087813Y4518174D01*
X6057813D01*
X6057723Y4520953D01*
X6057453Y4523692D01*
X6057004Y4526390D01*
X6056375Y4529047D01*
X6055566Y4531664D01*
X6054577Y4534240D01*
X6053409Y4536776D01*
X6052060Y4539271D01*
X6050532Y4541726D01*
X6048824Y4544140D01*
X6096802D01*
X6095094Y4541726D01*
D02*
G37*
G36*
X6662627Y4505972D02*
X6653393Y4491978D01*
X6651909Y4489223D01*
X6650755Y4486767D01*
X6649930Y4484607D01*
X6649436Y4482746D01*
X6649270Y4481182D01*
X6634271D01*
X6634106Y4482746D01*
X6633611Y4484607D01*
X6632787Y4486767D01*
X6631632Y4489223D01*
X6630148Y4491978D01*
X6626191Y4498380D01*
X6620915Y4505972D01*
X6617782Y4510214D01*
X6665759D01*
X6662627Y4505972D01*
D02*
G37*
G36*
X6643892Y4363990D02*
X6642629Y4362462D01*
X6641556Y4360593D01*
X6640673Y4358384D01*
X6639979Y4355834D01*
X6639476Y4352944D01*
X6639162Y4349714D01*
X6639039Y4346143D01*
X6639362Y4337980D01*
X6639808Y4333388D01*
X6601117Y4358655D01*
X6605643Y4360098D01*
X6622952Y4366860D01*
X6625350Y4368122D01*
X6627393Y4369353D01*
X6629082Y4370555D01*
X6630415Y4371726D01*
X6643892Y4363990D01*
D02*
G37*
G36*
X8310851Y4328838D02*
X8310439Y4330241D01*
X8309555Y4331496D01*
X8308200Y4332603D01*
X8306373Y4333563D01*
X8304075Y4334375D01*
X8301305Y4335040D01*
X8298063Y4335556D01*
X8294350Y4335926D01*
X8285508Y4336221D01*
X8284484Y4351221D01*
X8288978Y4351296D01*
X8296490Y4351896D01*
X8299508Y4352421D01*
X8302034Y4353096D01*
X8304069Y4353921D01*
X8305612Y4354896D01*
X8306663Y4356021D01*
X8307222Y4357296D01*
X8307289Y4358721D01*
X8310851Y4328838D01*
D02*
G37*
G36*
X8053139Y4306789D02*
X8051565Y4307172D01*
X8049771Y4307130D01*
X8047759Y4306663D01*
X8045528Y4305771D01*
X8043079Y4304455D01*
X8040411Y4302714D01*
X8037523Y4300548D01*
X8031093Y4294941D01*
X8027549Y4291501D01*
X8012779Y4297943D01*
X8016114Y4301385D01*
X8021259Y4307373D01*
X8023067Y4309920D01*
X8024366Y4312169D01*
X8025157Y4314120D01*
X8025438Y4315773D01*
X8025211Y4317128D01*
X8024474Y4318184D01*
X8023228Y4318943D01*
X8053139Y4306789D01*
D02*
G37*
G36*
X6614224Y4300299D02*
X6609009Y4299514D01*
X6592584Y4296148D01*
X6589588Y4295250D01*
X6587034Y4294329D01*
X6584924Y4293385D01*
X6583258Y4292418D01*
X6582036Y4291429D01*
X6571429Y4302036D01*
X6572418Y4303258D01*
X6573385Y4304924D01*
X6574329Y4307034D01*
X6575250Y4309588D01*
X6576148Y4312584D01*
X6577877Y4319909D01*
X6579514Y4329009D01*
X6580299Y4334224D01*
X6614224Y4300299D01*
D02*
G37*
G36*
X7589072Y4291048D02*
X7588510Y4283041D01*
X7588543Y4279527D01*
X7588786Y4276338D01*
X7589238Y4273476D01*
X7589899Y4270940D01*
X7590771Y4268730D01*
X7591851Y4266846D01*
X7593142Y4265288D01*
X7579231Y4257985D01*
X7577878Y4259187D01*
X7576186Y4260423D01*
X7574157Y4261693D01*
X7571788Y4262998D01*
X7566037Y4265711D01*
X7558932Y4268563D01*
X7550474Y4271553D01*
X7589667Y4295540D01*
X7589072Y4291048D01*
D02*
G37*
G36*
X7050151Y3945179D02*
X7048972Y3945937D01*
X7047558Y3946615D01*
X7045909Y3947213D01*
X7044027Y3947732D01*
X7041909Y3948171D01*
X7039557Y3948530D01*
X7034150Y3949008D01*
X7027806Y3949168D01*
Y3989168D01*
X7031095Y3989208D01*
X7039557Y3989806D01*
X7041909Y3990165D01*
X7044027Y3990604D01*
X7045909Y3991122D01*
X7047558Y3991720D01*
X7048972Y3992399D01*
X7050151Y3993157D01*
Y3945179D01*
D02*
G37*
G36*
X6600307Y3903566D02*
X6600322Y3900165D01*
X6601282Y3884958D01*
X6601541Y3884016D01*
X6601830Y3883381D01*
X6554972Y3888252D01*
X6555986Y3889463D01*
X6556893Y3890902D01*
X6557693Y3892568D01*
X6558386Y3894462D01*
X6558973Y3896584D01*
X6559453Y3898933D01*
X6559827Y3901509D01*
X6560254Y3907345D01*
X6560307Y3910605D01*
X6600307Y3903566D01*
D02*
G37*
G36*
X6599711Y3848143D02*
X6599033Y3846729D01*
X6598435Y3845081D01*
X6597916Y3843198D01*
X6597477Y3841081D01*
X6597118Y3838729D01*
X6596640Y3833322D01*
X6596480Y3826977D01*
X6556480D01*
X6556440Y3830267D01*
X6555842Y3838729D01*
X6555483Y3841081D01*
X6555044Y3843198D01*
X6554526Y3845081D01*
X6553927Y3846729D01*
X6553249Y3848143D01*
X6552491Y3849323D01*
X6600469D01*
X6599711Y3848143D01*
D02*
G37*
G36*
X7442028Y3806011D02*
X7438392Y3808669D01*
X7428564Y3814964D01*
X7425647Y3816503D01*
X7422910Y3817762D01*
X7420352Y3818741D01*
X7417975Y3819440D01*
X7415777Y3819860D01*
X7413759Y3820000D01*
Y3840000D01*
X7415777Y3840140D01*
X7417975Y3840560D01*
X7420352Y3841259D01*
X7422910Y3842238D01*
X7425647Y3843497D01*
X7428564Y3845036D01*
X7434936Y3848953D01*
X7442028Y3853989D01*
Y3806011D01*
D02*
G37*
G36*
X7194103Y3774216D02*
X7186013Y3770865D01*
X7169135Y3753987D01*
X7165206Y3744503D01*
X7151935Y3750000D01*
X7128065D01*
X7106013Y3740866D01*
X7089134Y3723987D01*
X7080000Y3701935D01*
Y3678065D01*
X7089134Y3656013D01*
X7106013Y3639134D01*
X7127246Y3630340D01*
X7139055Y3623348D01*
X7140000Y3621934D01*
Y3598065D01*
X7141966Y3593318D01*
X7129250Y3584822D01*
X7037036Y3677036D01*
X7024632Y3685324D01*
X7010000Y3688234D01*
X6941458D01*
X6929779Y3695941D01*
X6926463Y3698389D01*
X6923987Y3700866D01*
X6913659Y3705144D01*
X6903692Y3720280D01*
Y3744149D01*
X6894558Y3766201D01*
X6886542Y3774216D01*
X6892756Y3789216D01*
X7191119D01*
X7194103Y3774216D01*
D02*
G37*
G36*
X6765602Y3767046D02*
X6764244Y3765483D01*
X6762976Y3763605D01*
X6761799Y3761410D01*
X6760714Y3758899D01*
X6759720Y3756072D01*
X6758818Y3752930D01*
X6757287Y3745696D01*
X6756658Y3741605D01*
X6756121Y3737199D01*
X6721428Y3770013D01*
X6725785Y3770787D01*
X6736982Y3773498D01*
X6740089Y3774532D01*
X6742884Y3775629D01*
X6745367Y3776792D01*
X6747537Y3778020D01*
X6749395Y3779312D01*
X6750941Y3780669D01*
X6765602Y3767046D01*
D02*
G37*
G36*
X7441985Y3726011D02*
X7438350Y3728669D01*
X7428521Y3734964D01*
X7425604Y3736503D01*
X7422867Y3737762D01*
X7420310Y3738741D01*
X7417932Y3739441D01*
X7415734Y3739860D01*
X7413716Y3740000D01*
Y3760000D01*
X7415734Y3760140D01*
X7417932Y3760560D01*
X7420310Y3761259D01*
X7422867Y3762238D01*
X7425604Y3763497D01*
X7428521Y3765036D01*
X7434894Y3768953D01*
X7441985Y3773989D01*
Y3726011D01*
D02*
G37*
G36*
X7170091Y3692193D02*
X7170687Y3690062D01*
X7171474Y3687919D01*
X7172453Y3685765D01*
X7173624Y3683600D01*
X7174988Y3681424D01*
X7176543Y3679236D01*
X7178291Y3677036D01*
X7182362Y3672604D01*
X7168753Y3657929D01*
X7167139Y3659405D01*
X7165487Y3660645D01*
X7163797Y3661648D01*
X7162069Y3662415D01*
X7160302Y3662945D01*
X7158497Y3663239D01*
X7156654Y3663296D01*
X7154773Y3663117D01*
X7152854Y3662701D01*
X7150896Y3662049D01*
X7169688Y3694313D01*
X7170091Y3692193D01*
D02*
G37*
G36*
X6912257Y3670856D02*
X6926251Y3661622D01*
X6929006Y3660138D01*
X6931462Y3658984D01*
X6933622Y3658160D01*
X6935483Y3657665D01*
X6937047Y3657500D01*
Y3642500D01*
X6935483Y3642335D01*
X6933622Y3641841D01*
X6931462Y3641016D01*
X6929006Y3639862D01*
X6926251Y3638378D01*
X6919850Y3634421D01*
X6912257Y3629144D01*
X6908015Y3626011D01*
Y3673989D01*
X6912257Y3670856D01*
D02*
G37*
G36*
X4741806Y3628959D02*
X4738129Y3623107D01*
X4736636Y3620281D01*
X4735372Y3617522D01*
X4734338Y3614829D01*
X4733534Y3612204D01*
X4732960Y3609645D01*
X4732615Y3607154D01*
X4732500Y3604728D01*
X4707500D01*
X4707385Y3607154D01*
X4707040Y3609645D01*
X4706466Y3612204D01*
X4705662Y3614829D01*
X4704628Y3617522D01*
X4703364Y3620281D01*
X4701870Y3623107D01*
X4698194Y3628959D01*
X4696011Y3631985D01*
X4743989D01*
X4741806Y3628959D01*
D02*
G37*
G36*
X6820033Y3677070D02*
X6830000Y3661935D01*
Y3638065D01*
X6839134Y3616013D01*
X6856013Y3599135D01*
X6878065Y3590000D01*
X6901935D01*
X6923987Y3599135D01*
X6926464Y3601612D01*
X6930076Y3604278D01*
X6936629Y3608833D01*
X6941373Y3611766D01*
X6994163D01*
X7252964Y3352964D01*
X7265368Y3344676D01*
X7280000Y3341766D01*
X7396115D01*
X7401913Y3326766D01*
X7389135Y3313987D01*
X7380000Y3291935D01*
Y3268065D01*
X7389135Y3246013D01*
X7391913Y3243234D01*
X7385700Y3228234D01*
X7200000D01*
X7185368Y3225324D01*
X7172964Y3217036D01*
X6954163Y2998234D01*
X6770000D01*
X6755368Y2995324D01*
X6742964Y2987036D01*
X6642964Y2887036D01*
X6634676Y2874632D01*
X6631766Y2860000D01*
Y2440682D01*
X6634676Y2426050D01*
X6642964Y2413646D01*
X6766960Y2289651D01*
X6769769Y2275943D01*
X6770382Y2271866D01*
Y2268365D01*
X6779517Y2246313D01*
X6796395Y2229434D01*
X6818447Y2220300D01*
X6842317D01*
X6864369Y2229434D01*
X6881248Y2246313D01*
X6890382Y2268365D01*
Y2279093D01*
X6911613Y2287887D01*
X6928491Y2304765D01*
X6937625Y2326818D01*
Y2350687D01*
X6928491Y2372739D01*
X6911613Y2389618D01*
X6889560Y2398752D01*
X6865691D01*
X6843638Y2389618D01*
X6841161Y2387141D01*
X6837550Y2384474D01*
X6832858Y2381213D01*
X6800062Y2414009D01*
X6802989Y2428721D01*
X6803987Y2429134D01*
X6820865Y2446013D01*
X6830000Y2468065D01*
Y2491935D01*
X6820865Y2513987D01*
X6803987Y2530865D01*
X6781934Y2540000D01*
X6758065D01*
X6748234Y2546568D01*
Y2736116D01*
X6762136Y2746083D01*
X6770382Y2743489D01*
Y2738365D01*
X6779516Y2716313D01*
X6796395Y2699435D01*
X6818447Y2690300D01*
X6842317D01*
X6864369Y2699435D01*
X6881247Y2716313D01*
X6890382Y2738365D01*
Y2749093D01*
X6911612Y2757887D01*
X6928491Y2774765D01*
X6937625Y2796818D01*
Y2800319D01*
X6938293Y2804762D01*
X6939554Y2811766D01*
X7070522D01*
X7076262Y2797908D01*
X7042963Y2764609D01*
X7034675Y2752205D01*
X7031765Y2737573D01*
Y2711458D01*
X7024058Y2699778D01*
X7021610Y2696463D01*
X7019135Y2693987D01*
X7010000Y2671935D01*
Y2648065D01*
X7019135Y2626013D01*
X7021766Y2623382D01*
Y2221518D01*
X7024676Y2206886D01*
X7030000Y2198918D01*
Y2196795D01*
X7029899Y2196365D01*
X7030000Y2195738D01*
Y2178065D01*
X7039135Y2156013D01*
X7056013Y2139134D01*
X7069033Y2133741D01*
X7060000Y2111935D01*
Y2088065D01*
X7069134Y2066013D01*
X7086013Y2049135D01*
X7108065Y2040000D01*
X7131935D01*
X7153987Y2049135D01*
X7170866Y2066013D01*
X7180000Y2088065D01*
Y2111935D01*
X7170866Y2133987D01*
X7153987Y2150866D01*
X7140967Y2156259D01*
X7150000Y2178065D01*
Y2201935D01*
X7140866Y2223987D01*
X7123987Y2240865D01*
X7101935Y2250000D01*
X7098234D01*
Y2507019D01*
X7106229Y2512361D01*
X7130098D01*
X7152150Y2521495D01*
X7169029Y2538373D01*
X7178163Y2560426D01*
Y2584295D01*
X7169029Y2606348D01*
X7152150Y2623226D01*
X7138320Y2628955D01*
X7129235Y2646219D01*
X7130000Y2648065D01*
Y2671935D01*
X7120866Y2693987D01*
X7118390Y2696463D01*
X7115721Y2700077D01*
X7111165Y2706632D01*
X7108233Y2711374D01*
Y2721736D01*
X7187360Y2800862D01*
X7199916Y2798364D01*
X7203296Y2795584D01*
X7219746Y2779134D01*
X7241798Y2770000D01*
X7265668D01*
X7287720Y2779134D01*
X7304599Y2796013D01*
X7313733Y2818065D01*
Y2841935D01*
X7304599Y2863987D01*
X7287720Y2880865D01*
X7285797Y2881662D01*
X7282871Y2896373D01*
X7306480Y2919982D01*
X7319197Y2911486D01*
X7318777Y2910473D01*
Y2886604D01*
X7327912Y2864552D01*
X7344790Y2847673D01*
X7366843Y2838539D01*
X7390712D01*
X7412764Y2847673D01*
X7429643Y2864552D01*
X7438777Y2886604D01*
Y2910473D01*
X7429643Y2932526D01*
X7412764Y2949404D01*
X7390712Y2958539D01*
X7366843D01*
X7365830Y2958119D01*
X7357334Y2970836D01*
X7418264Y3031766D01*
X7580072D01*
X7585812Y3017908D01*
X7513952Y2946048D01*
X7502901Y2929509D01*
X7499020Y2910000D01*
Y2580000D01*
Y2040000D01*
Y1742805D01*
X7472902Y1716687D01*
X7451125Y1707667D01*
X7434247Y1690789D01*
X7425226Y1669011D01*
X7397195Y1640980D01*
X7320000D01*
X7300491Y1637099D01*
X7283952Y1626048D01*
X7008884Y1350980D01*
X6946422D01*
X6938088Y1363451D01*
X6939999Y1368066D01*
Y1391935D01*
X6930865Y1413988D01*
X6928388Y1416465D01*
X6925721Y1420076D01*
X6921167Y1426629D01*
X6918234Y1431374D01*
Y1520001D01*
X6915323Y1534632D01*
X6907035Y1547036D01*
X6868234Y1585837D01*
Y1730000D01*
X6865324Y1744632D01*
X6857036Y1757036D01*
X6816134Y1797938D01*
X6820425Y1814860D01*
X6827010Y1816815D01*
X6833326Y1813444D01*
X6835026Y1811744D01*
X6857079Y1802610D01*
X6880948D01*
X6903001Y1811744D01*
X6919879Y1828622D01*
X6929014Y1850675D01*
Y1874544D01*
X6919879Y1896597D01*
X6910664Y1905812D01*
X6920866Y1916013D01*
X6930000Y1938065D01*
Y1961935D01*
X6920866Y1983987D01*
X6903987Y2000865D01*
X6881935Y2010000D01*
X6858065D01*
X6836013Y2000865D01*
X6819134Y1983987D01*
X6810000Y1961935D01*
Y1938065D01*
X6819134Y1916013D01*
X6819626Y1912183D01*
X6816705Y1897229D01*
X6816513Y1897073D01*
X6816392Y1896987D01*
X6691109D01*
X6485734Y2102362D01*
Y3062013D01*
X6482824Y3076644D01*
X6474535Y3089048D01*
X6460734Y3102850D01*
Y3210414D01*
X6474592Y3216154D01*
X6630864Y3059883D01*
X6639884Y3038106D01*
X6656762Y3021227D01*
X6678815Y3012093D01*
X6702684D01*
X6724737Y3021227D01*
X6741615Y3038106D01*
X6750750Y3060158D01*
Y3084028D01*
X6741615Y3106080D01*
X6724737Y3122958D01*
X6702960Y3131979D01*
X6624293Y3210646D01*
X6627117Y3224841D01*
X6643995Y3241719D01*
X6653129Y3263772D01*
Y3287641D01*
X6643995Y3309694D01*
X6627117Y3326572D01*
X6605064Y3335707D01*
X6581195D01*
X6559142Y3326572D01*
X6542264Y3309694D01*
X6528068Y3306870D01*
X6515980Y3318959D01*
Y3533925D01*
X6530980Y3536909D01*
X6533623Y3530528D01*
X6550501Y3513649D01*
X6572554Y3504515D01*
X6596423D01*
X6618475Y3513649D01*
X6635354Y3530528D01*
X6644488Y3552580D01*
Y3576450D01*
X6635354Y3598502D01*
X6627460Y3606396D01*
Y3623637D01*
X6641318Y3629377D01*
X6647143Y3623551D01*
X6665336Y3611395D01*
X6686796Y3607127D01*
X6717201D01*
X6726671Y3603204D01*
X6750540D01*
X6772593Y3612338D01*
X6789471Y3629217D01*
X6798605Y3651269D01*
Y3671235D01*
X6804091Y3676233D01*
X6807720Y3678471D01*
X6812463Y3680206D01*
X6820033Y3677070D01*
D02*
G37*
G36*
X6596480Y3610014D02*
X6596543Y3606761D01*
X6597050Y3600975D01*
X6597493Y3598441D01*
X6598063Y3596147D01*
X6598760Y3594092D01*
X6599583Y3592277D01*
X6600533Y3590701D01*
X6601609Y3589365D01*
X6602813Y3588268D01*
X6557814Y3578244D01*
X6556480Y3611426D01*
X6596480Y3610014D01*
D02*
G37*
G36*
X7412067Y3709061D02*
X7413107Y3708513D01*
X7421059Y3703420D01*
X7423545Y3701602D01*
X7426013Y3699135D01*
X7448065Y3690000D01*
X7471935D01*
X7488901Y3697028D01*
X7600906Y3585023D01*
Y3453546D01*
X7585906Y3444213D01*
X7571935Y3450000D01*
X7548065D01*
X7526013Y3440866D01*
X7509135Y3423987D01*
X7502291Y3407466D01*
X7487720Y3402896D01*
X7485471Y3403072D01*
X7481508Y3407036D01*
X7469103Y3415324D01*
X7454472Y3418234D01*
X7295837D01*
X7174822Y3539250D01*
X7183319Y3551966D01*
X7188065Y3550000D01*
X7211935D01*
X7233987Y3559134D01*
X7250866Y3576013D01*
X7252438Y3579809D01*
X7270060Y3583156D01*
X7280095Y3573121D01*
X7302148Y3563987D01*
X7326017D01*
X7348070Y3573121D01*
X7364948Y3589999D01*
X7374082Y3612052D01*
Y3635921D01*
X7364948Y3657974D01*
X7348070Y3674852D01*
X7347150Y3679474D01*
X7376893Y3709217D01*
X7411729D01*
X7412067Y3709061D01*
D02*
G37*
G36*
X6083419Y3607676D02*
X6052539Y3574207D01*
X6051881Y3572960D01*
X6050759Y3570439D01*
X6049792Y3567820D01*
X6048981Y3565102D01*
X6048326Y3562286D01*
X6047826Y3559371D01*
X6043158Y3564039D01*
X6043122Y3564000D01*
X6018530Y3588592D01*
X6018585Y3588613D01*
X6013901Y3593296D01*
X6016816Y3593796D01*
X6019632Y3594451D01*
X6022350Y3595262D01*
X6024969Y3596229D01*
X6027490Y3597351D01*
X6029913Y3598630D01*
X6032237Y3600064D01*
X6033513Y3600976D01*
X6062206Y3628889D01*
X6083419Y3607676D01*
D02*
G37*
G36*
X6183231Y3460805D02*
X6182553Y3459391D01*
X6181955Y3457743D01*
X6181436Y3455860D01*
X6180997Y3453743D01*
X6180638Y3451391D01*
X6180160Y3445984D01*
X6180000Y3439639D01*
X6140000D01*
X6139960Y3442929D01*
X6139362Y3451391D01*
X6139003Y3453743D01*
X6138564Y3455860D01*
X6138046Y3457743D01*
X6137447Y3459391D01*
X6136769Y3460805D01*
X6136011Y3461985D01*
X6183989D01*
X6183231Y3460805D01*
D02*
G37*
G36*
X6303698Y3391074D02*
X6298866Y3381409D01*
X6297684Y3378479D01*
X6295966Y3373057D01*
X6295429Y3370565D01*
X6295107Y3368219D01*
X6295000Y3366019D01*
X6275000Y3362420D01*
X6274843Y3364649D01*
X6274373Y3366956D01*
X6273590Y3369343D01*
X6272494Y3371808D01*
X6271084Y3374352D01*
X6269361Y3376975D01*
X6267324Y3379676D01*
X6264975Y3382456D01*
X6259336Y3388252D01*
X6305738Y3394588D01*
X6303698Y3391074D01*
D02*
G37*
G36*
X7478992Y3366319D02*
X7480658Y3365353D01*
X7482768Y3364409D01*
X7485322Y3363488D01*
X7488319Y3362590D01*
X7495643Y3360861D01*
X7504743Y3359224D01*
X7509958Y3358439D01*
X7476033Y3324514D01*
X7475248Y3329729D01*
X7471882Y3346153D01*
X7470984Y3349150D01*
X7470063Y3351704D01*
X7469119Y3353813D01*
X7468152Y3355479D01*
X7467163Y3356702D01*
X7477770Y3367308D01*
X7478992Y3366319D01*
D02*
G37*
G36*
X4819448Y3283469D02*
X4819543Y3281825D01*
X4819875Y3280125D01*
X4820444Y3278371D01*
X4821250Y3276562D01*
X4822294Y3274698D01*
X4823574Y3272779D01*
X4825092Y3270806D01*
X4826847Y3268777D01*
X4828839Y3266694D01*
X4811161Y3249017D01*
X4808892Y3251204D01*
X4804583Y3254858D01*
X4802544Y3256323D01*
X4800582Y3257548D01*
X4798698Y3258532D01*
X4796890Y3259276D01*
X4795159Y3259779D01*
X4793505Y3260041D01*
X4791928Y3260062D01*
X4819590Y3285059D01*
X4819448Y3283469D01*
D02*
G37*
G36*
X6678707Y3112476D02*
X6685113Y3106916D01*
X6687030Y3105507D01*
X6688838Y3104320D01*
X6690536Y3103355D01*
X6692125Y3102613D01*
X6693604Y3102092D01*
X6694974Y3101794D01*
X6661048Y3067869D01*
X6660750Y3069239D01*
X6660230Y3070718D01*
X6659487Y3072307D01*
X6658523Y3074005D01*
X6657336Y3075812D01*
X6655926Y3077729D01*
X6652442Y3081891D01*
X6648068Y3086490D01*
X6676352Y3114774D01*
X6678707Y3112476D01*
D02*
G37*
G36*
X7664224Y2990299D02*
X7662854Y2990001D01*
X7661375Y2989480D01*
X7659786Y2988738D01*
X7658088Y2987773D01*
X7656281Y2986586D01*
X7654364Y2985177D01*
X7650202Y2981692D01*
X7645603Y2977319D01*
X7617319Y3005603D01*
X7619616Y3007957D01*
X7625177Y3014364D01*
X7626586Y3016281D01*
X7627773Y3018088D01*
X7628738Y3019786D01*
X7629480Y3021375D01*
X7630000Y3022854D01*
X7630299Y3024224D01*
X7664224Y2990299D01*
D02*
G37*
G36*
X7664813Y2931243D02*
X7667543Y2929657D01*
X7670159Y2928463D01*
X7672660Y2927663D01*
X7675046Y2927257D01*
X7677318Y2927243D01*
X7679476Y2927623D01*
X7681518Y2928396D01*
X7683446Y2929562D01*
X7685260Y2931122D01*
X7691999Y2916648D01*
X7668159Y2891480D01*
X7661968Y2933223D01*
X7664813Y2931243D01*
D02*
G37*
G36*
X6916196Y2836716D02*
X6915207Y2835494D01*
X6914240Y2833828D01*
X6913296Y2831718D01*
X6912375Y2829165D01*
X6911477Y2826168D01*
X6909748Y2818843D01*
X6908111Y2809743D01*
X6907326Y2804528D01*
X6873401Y2838454D01*
X6878616Y2839238D01*
X6895041Y2842604D01*
X6898038Y2843503D01*
X6900591Y2844424D01*
X6902701Y2845367D01*
X6904367Y2846334D01*
X6905589Y2847323D01*
X6916196Y2836716D01*
D02*
G37*
G36*
X7680160Y2757269D02*
X7679171Y2756047D01*
X7678204Y2754381D01*
X7677261Y2752271D01*
X7676340Y2749718D01*
X7675441Y2746721D01*
X7673713Y2739396D01*
X7672075Y2730296D01*
X7671291Y2725081D01*
X7637365Y2759006D01*
X7642580Y2759791D01*
X7659005Y2763157D01*
X7662002Y2764055D01*
X7664555Y2764976D01*
X7666665Y2765920D01*
X7668331Y2766887D01*
X7669554Y2767876D01*
X7680160Y2757269D01*
D02*
G37*
G36*
X7077664Y2705484D02*
X7078159Y2703622D01*
X7078983Y2701463D01*
X7080137Y2699006D01*
X7081621Y2696252D01*
X7085579Y2689850D01*
X7090856Y2682258D01*
X7093989Y2678015D01*
X7046011Y2678014D01*
X7049144Y2682257D01*
X7058377Y2696251D01*
X7059861Y2699006D01*
X7061015Y2701462D01*
X7061840Y2703621D01*
X7062334Y2705483D01*
X7062499Y2707047D01*
X7077499Y2707048D01*
X7077664Y2705484D01*
D02*
G37*
G36*
X7645264Y2559995D02*
X7644084Y2560753D01*
X7642670Y2561431D01*
X7641022Y2562029D01*
X7639139Y2562548D01*
X7637022Y2562987D01*
X7634670Y2563346D01*
X7629263Y2563824D01*
X7622918Y2563984D01*
Y2603984D01*
X7626208Y2604024D01*
X7634670Y2604622D01*
X7637022Y2604981D01*
X7639139Y2605420D01*
X7641022Y2605938D01*
X7642670Y2606537D01*
X7644084Y2607215D01*
X7645264Y2607973D01*
Y2559995D01*
D02*
G37*
G36*
X8222097Y2548671D02*
X8223271Y2541976D01*
X8224073Y2538931D01*
X8225020Y2536087D01*
X8226110Y2533445D01*
X8227343Y2531003D01*
X8228720Y2528764D01*
X8230241Y2526725D01*
X8231906Y2524889D01*
X8213018Y2508421D01*
X8211178Y2510115D01*
X8209156Y2511700D01*
X8206953Y2513174D01*
X8204568Y2514539D01*
X8202001Y2515793D01*
X8199254Y2516937D01*
X8196324Y2517971D01*
X8189921Y2519709D01*
X8186448Y2520413D01*
X8221725Y2552320D01*
X8222097Y2548671D01*
D02*
G37*
G36*
X7666226Y2460079D02*
X7680220Y2450846D01*
X7682974Y2449362D01*
X7685431Y2448207D01*
X7687590Y2447383D01*
X7689452Y2446888D01*
X7691016Y2446724D01*
Y2431723D01*
X7689452Y2431559D01*
X7687590Y2431064D01*
X7685431Y2430239D01*
X7682974Y2429085D01*
X7680220Y2427601D01*
X7673818Y2423644D01*
X7666226Y2418368D01*
X7661983Y2415235D01*
Y2463212D01*
X7666226Y2460079D01*
D02*
G37*
G36*
X5656760Y2372071D02*
X5657359Y2363609D01*
X5657717Y2361257D01*
X5658156Y2359140D01*
X5658675Y2357257D01*
X5659273Y2355608D01*
X5659951Y2354194D01*
X5660709Y2353015D01*
X5612731D01*
X5613489Y2354194D01*
X5614168Y2355608D01*
X5614766Y2357257D01*
X5615284Y2359140D01*
X5615723Y2361257D01*
X5616082Y2363609D01*
X5616561Y2369016D01*
X5616720Y2375361D01*
X5656720D01*
X5656760Y2372071D01*
D02*
G37*
G36*
X6859610Y2314763D02*
X6855368Y2317896D01*
X6841374Y2327130D01*
X6838620Y2328614D01*
X6836163Y2329768D01*
X6834004Y2330593D01*
X6832142Y2331087D01*
X6830578Y2331252D01*
Y2346252D01*
X6832142Y2346417D01*
X6834004Y2346912D01*
X6836163Y2347736D01*
X6838620Y2348890D01*
X6841374Y2350375D01*
X6847776Y2354332D01*
X6855368Y2359608D01*
X6859610Y2362741D01*
Y2314763D01*
D02*
G37*
G36*
X6803640Y2317882D02*
X6805306Y2316915D01*
X6807416Y2315971D01*
X6809970Y2315050D01*
X6812967Y2314152D01*
X6820291Y2312423D01*
X6829391Y2310786D01*
X6834606Y2310001D01*
X6800681Y2276076D01*
X6799896Y2281291D01*
X6796530Y2297715D01*
X6795632Y2300712D01*
X6794711Y2303266D01*
X6793767Y2305376D01*
X6792800Y2307042D01*
X6791811Y2308264D01*
X6802418Y2318871D01*
X6803640Y2317882D01*
D02*
G37*
G36*
X7680160Y2287269D02*
X7679171Y2286047D01*
X7678205Y2284381D01*
X7677261Y2282271D01*
X7676340Y2279718D01*
X7675442Y2276721D01*
X7673713Y2269396D01*
X7672076Y2260296D01*
X7671291Y2255081D01*
X7637365Y2289006D01*
X7642581Y2289791D01*
X7659005Y2293157D01*
X7662002Y2294055D01*
X7664556Y2294976D01*
X7666665Y2295920D01*
X7668331Y2296887D01*
X7669554Y2297876D01*
X7680160Y2287269D01*
D02*
G37*
G36*
X3493472Y2229926D02*
X3489796Y2224074D01*
X3488302Y2221248D01*
X3487038Y2218489D01*
X3486004Y2215797D01*
X3485200Y2213171D01*
X3484626Y2210613D01*
X3484281Y2208121D01*
X3484166Y2205696D01*
X3459167D01*
X3459052Y2208121D01*
X3458707Y2210613D01*
X3458133Y2213171D01*
X3457328Y2215797D01*
X3456294Y2218489D01*
X3455030Y2221248D01*
X3453537Y2224074D01*
X3449861Y2229926D01*
X3447678Y2232952D01*
X3495655D01*
X3493472Y2229926D01*
D02*
G37*
G36*
X7067027Y2225243D02*
X7068846Y2223861D01*
X7070761Y2222674D01*
X7072772Y2221683D01*
X7074879Y2220886D01*
X7077082Y2220285D01*
X7079381Y2219880D01*
X7081776Y2219669D01*
X7084267Y2219654D01*
X7086853Y2219835D01*
X7060467Y2195271D01*
X7060823Y2197798D01*
X7060971Y2200229D01*
X7060913Y2202564D01*
X7060647Y2204802D01*
X7060173Y2206945D01*
X7059493Y2208991D01*
X7058605Y2210941D01*
X7057509Y2212795D01*
X7056207Y2214553D01*
X7054697Y2216214D01*
X7065303Y2226821D01*
X7067027Y2225243D01*
D02*
G37*
G36*
X3371806Y2098959D02*
X3368129Y2093107D01*
X3366636Y2090281D01*
X3365372Y2087522D01*
X3364338Y2084829D01*
X3363534Y2082204D01*
X3362959Y2079645D01*
X3362615Y2077154D01*
X3362500Y2074728D01*
X3337500D01*
X3337385Y2077154D01*
X3337040Y2079645D01*
X3336466Y2082204D01*
X3335662Y2084829D01*
X3334628Y2087522D01*
X3333364Y2090281D01*
X3331870Y2093107D01*
X3328194Y2098959D01*
X3326011Y2101985D01*
X3373989D01*
X3371806Y2098959D01*
D02*
G37*
G36*
X7608190Y2023511D02*
X7607011Y2024269D01*
X7605597Y2024947D01*
X7603948Y2025546D01*
X7602066Y2026064D01*
X7599948Y2026503D01*
X7597596Y2026862D01*
X7592189Y2027341D01*
X7585845Y2027500D01*
Y2067500D01*
X7589134Y2067540D01*
X7597596Y2068138D01*
X7599948Y2068497D01*
X7602066Y2068936D01*
X7603948Y2069455D01*
X7605597Y2070053D01*
X7607011Y2070731D01*
X7608190Y2071489D01*
Y2023511D01*
D02*
G37*
G36*
X5963249Y2008761D02*
X5961806Y2008496D01*
X5960262Y2008007D01*
X5958618Y2007294D01*
X5956873Y2006355D01*
X5955028Y2005192D01*
X5953081Y2003804D01*
X5948887Y2000354D01*
X5946638Y1998292D01*
X5944289Y1996005D01*
X5917274Y2025558D01*
X5919599Y2027931D01*
X5926649Y2036121D01*
X5927848Y2037842D01*
X5928823Y2039434D01*
X5929572Y2040895D01*
X5930095Y2042226D01*
X5930394Y2043427D01*
X5963249Y2008761D01*
D02*
G37*
G36*
X7666226Y1980080D02*
X7680220Y1970846D01*
X7682974Y1969362D01*
X7685431Y1968208D01*
X7687590Y1967384D01*
X7689452Y1966889D01*
X7691016Y1966724D01*
Y1951724D01*
X7689452Y1951559D01*
X7687590Y1951065D01*
X7685431Y1950240D01*
X7682974Y1949086D01*
X7680220Y1947602D01*
X7673818Y1943645D01*
X7666226Y1938368D01*
X7661983Y1935235D01*
Y1983213D01*
X7666226Y1980080D01*
D02*
G37*
G36*
X5926227Y1890008D02*
X5926653Y1884171D01*
X5927027Y1881595D01*
X5927507Y1879246D01*
X5928094Y1877124D01*
X5928787Y1875230D01*
X5929588Y1873564D01*
X5930494Y1872126D01*
X5931508Y1870914D01*
X5884650Y1866043D01*
X5884939Y1866678D01*
X5885198Y1867621D01*
X5885427Y1868871D01*
X5885625Y1870428D01*
X5886036Y1876945D01*
X5886173Y1886229D01*
X5926173Y1893267D01*
X5926227Y1890008D01*
D02*
G37*
G36*
X5535447Y1883793D02*
X5537205Y1882491D01*
X5539059Y1881396D01*
X5541009Y1880508D01*
X5543055Y1879827D01*
X5545198Y1879353D01*
X5547436Y1879087D01*
X5549771Y1879029D01*
X5552202Y1879177D01*
X5554729Y1879533D01*
X5530165Y1853147D01*
X5530346Y1855733D01*
X5530331Y1858224D01*
X5530120Y1860619D01*
X5529715Y1862918D01*
X5529114Y1865121D01*
X5528317Y1867228D01*
X5527326Y1869239D01*
X5526139Y1871154D01*
X5524757Y1872974D01*
X5523179Y1874697D01*
X5533786Y1885303D01*
X5535447Y1883793D01*
D02*
G37*
G36*
X5630357Y1880416D02*
X5632044Y1879231D01*
X5634093Y1878018D01*
X5636505Y1876777D01*
X5642413Y1874212D01*
X5649770Y1871535D01*
X5658576Y1868748D01*
X5620138Y1842877D01*
X5620512Y1847515D01*
X5620717Y1855750D01*
X5620550Y1859347D01*
X5620202Y1862597D01*
X5619674Y1865499D01*
X5618965Y1868054D01*
X5618077Y1870262D01*
X5617007Y1872122D01*
X5615758Y1873636D01*
X5629032Y1881574D01*
X5630357Y1880416D01*
D02*
G37*
G36*
X6852987Y1837249D02*
X6848701Y1839910D01*
X6831644Y1849012D01*
X6829107Y1849993D01*
X6826862Y1850693D01*
X6824908Y1851113D01*
X6823246Y1851253D01*
X6821236Y1866253D01*
X6823039Y1866431D01*
X6825039Y1866967D01*
X6827234Y1867859D01*
X6829624Y1869108D01*
X6832211Y1870714D01*
X6834993Y1872676D01*
X6841144Y1877673D01*
X6848078Y1884096D01*
X6852987Y1837249D01*
D02*
G37*
G36*
X7666578Y1796064D02*
X7667034Y1795856D01*
X7667681Y1795672D01*
X7668520Y1795512D01*
X7669550Y1795377D01*
X7672184Y1795181D01*
X7677571Y1795071D01*
Y1780071D01*
X7676445Y1780050D01*
X7674544Y1779883D01*
X7673768Y1779738D01*
X7673109Y1779550D01*
X7672566Y1779321D01*
X7672140Y1779051D01*
X7671830Y1778739D01*
X7671637Y1778385D01*
X7671561Y1777989D01*
X7666314Y1796297D01*
X7666578Y1796064D01*
D02*
G37*
G36*
X6695447Y1793793D02*
X6697205Y1792491D01*
X6699059Y1791395D01*
X6701009Y1790507D01*
X6703055Y1789827D01*
X6705198Y1789353D01*
X6707436Y1789087D01*
X6709771Y1789029D01*
X6712202Y1789177D01*
X6714729Y1789533D01*
X6690165Y1763147D01*
X6690346Y1765733D01*
X6690331Y1768224D01*
X6690120Y1770619D01*
X6689715Y1772918D01*
X6689114Y1775121D01*
X6688317Y1777228D01*
X6687326Y1779239D01*
X6686139Y1781154D01*
X6684757Y1782974D01*
X6683179Y1784697D01*
X6693786Y1795303D01*
X6695447Y1793793D01*
D02*
G37*
G36*
X7527794Y1671199D02*
X7525496Y1668844D01*
X7519935Y1662438D01*
X7518526Y1660521D01*
X7517339Y1658713D01*
X7516374Y1657015D01*
X7515632Y1655426D01*
X7515111Y1653947D01*
X7514813Y1652577D01*
X7480888Y1686502D01*
X7482258Y1686801D01*
X7483737Y1687321D01*
X7485326Y1688063D01*
X7487024Y1689028D01*
X7488832Y1690215D01*
X7490749Y1691624D01*
X7494910Y1695109D01*
X7499510Y1699483D01*
X7527794Y1671199D01*
D02*
G37*
G36*
X5769194Y1693231D02*
X5770608Y1692553D01*
X5772257Y1691954D01*
X5774140Y1691436D01*
X5776257Y1690997D01*
X5778609Y1690638D01*
X5784016Y1690159D01*
X5790361Y1690000D01*
Y1650000D01*
X5787071Y1649960D01*
X5778609Y1649362D01*
X5776257Y1649003D01*
X5774140Y1648564D01*
X5772257Y1648045D01*
X5770608Y1647447D01*
X5769194Y1646769D01*
X5768015Y1646011D01*
Y1693989D01*
X5769194Y1693231D01*
D02*
G37*
G36*
X7489336Y1627100D02*
X7487966Y1626802D01*
X7486487Y1626282D01*
X7484898Y1625539D01*
X7483200Y1624575D01*
X7481393Y1623388D01*
X7479476Y1621978D01*
X7475314Y1618494D01*
X7470715Y1614120D01*
X7442431Y1642404D01*
X7444729Y1644758D01*
X7450289Y1651165D01*
X7451699Y1653082D01*
X7452886Y1654890D01*
X7453850Y1656587D01*
X7454593Y1658176D01*
X7455113Y1659656D01*
X7455411Y1661025D01*
X7489336Y1627100D01*
D02*
G37*
G36*
X6887664Y1425484D02*
X6888159Y1423622D01*
X6888983Y1421463D01*
X6890138Y1419006D01*
X6891622Y1416251D01*
X6895579Y1409850D01*
X6900855Y1402258D01*
X6903988Y1398015D01*
X6856011D01*
X6859144Y1402258D01*
X6868377Y1416251D01*
X6869861Y1419006D01*
X6871015Y1421463D01*
X6871840Y1423622D01*
X6872334Y1425484D01*
X6872499Y1427048D01*
X6887500D01*
X6887664Y1425484D01*
D02*
G37*
G36*
X6667665Y1385483D02*
X6668159Y1383622D01*
X6668984Y1381463D01*
X6670138Y1379006D01*
X6671622Y1376251D01*
X6675579Y1369850D01*
X6680856Y1362258D01*
X6683989Y1358015D01*
X6636011D01*
X6639144Y1362258D01*
X6648378Y1376251D01*
X6649862Y1379006D01*
X6651016Y1381463D01*
X6651840Y1383622D01*
X6652335Y1385483D01*
X6652500Y1387048D01*
X6667500D01*
X6667665Y1385483D01*
D02*
G37*
G36*
X5769194Y1353231D02*
X5770608Y1352553D01*
X5772257Y1351954D01*
X5774140Y1351436D01*
X5776257Y1350997D01*
X5778609Y1350638D01*
X5784016Y1350159D01*
X5790361Y1350000D01*
Y1310000D01*
X5787071Y1309960D01*
X5778609Y1309362D01*
X5776257Y1309003D01*
X5774140Y1308564D01*
X5772257Y1308045D01*
X5770608Y1307447D01*
X5769194Y1306769D01*
X5768015Y1306011D01*
Y1353989D01*
X5769194Y1353231D01*
D02*
G37*
G36*
X6802681Y1214397D02*
X6800383Y1212043D01*
X6794823Y1205636D01*
X6793414Y1203719D01*
X6792227Y1201912D01*
X6791262Y1200214D01*
X6790520Y1198625D01*
X6789999Y1197146D01*
X6789701Y1195776D01*
X6755776Y1229701D01*
X6757146Y1229999D01*
X6758625Y1230520D01*
X6760214Y1231262D01*
X6761912Y1232227D01*
X6763719Y1233414D01*
X6765636Y1234823D01*
X6769798Y1238308D01*
X6774397Y1242681D01*
X6802681Y1214397D01*
D02*
G37*
G36*
X5976676Y1181659D02*
X5975497Y1182417D01*
X5974083Y1183095D01*
X5972434Y1183694D01*
X5970551Y1184212D01*
X5968434Y1184651D01*
X5966082Y1185010D01*
X5960675Y1185489D01*
X5954330Y1185648D01*
Y1225648D01*
X5957620Y1225688D01*
X5966082Y1226286D01*
X5968434Y1226645D01*
X5970551Y1227084D01*
X5972434Y1227603D01*
X5974083Y1228201D01*
X5975497Y1228879D01*
X5976676Y1229637D01*
Y1181659D01*
D02*
G37*
G36*
X5876834Y1199354D02*
X5869234Y1198954D01*
X5862434Y1197754D01*
X5856434Y1195754D01*
X5851234Y1192954D01*
X5846834Y1189354D01*
X5843234Y1184954D01*
X5840434Y1179754D01*
X5838434Y1173754D01*
X5837234Y1166954D01*
X5836834Y1159354D01*
X5796834Y1219354D01*
X5816834D01*
X5876834Y1199354D01*
D02*
G37*
G36*
X5302615Y892847D02*
X5302960Y890355D01*
X5303534Y887796D01*
X5304338Y885171D01*
X5305372Y882478D01*
X5306636Y879719D01*
X5308130Y876893D01*
X5311806Y871041D01*
X5313989Y868015D01*
X5266011D01*
X5268194Y871041D01*
X5271871Y876893D01*
X5273364Y879719D01*
X5274628Y882478D01*
X5275662Y885171D01*
X5276466Y887796D01*
X5277040Y890355D01*
X5277385Y892847D01*
X5277500Y895272D01*
X5302500D01*
X5302615Y892847D01*
D02*
G37*
G36*
X4740851Y873173D02*
X4739217Y871377D01*
X4737699Y869372D01*
X4736296Y867156D01*
X4735008Y864731D01*
X4733836Y862096D01*
X4732778Y859252D01*
X4731836Y856197D01*
X4730298Y849459D01*
X4729701Y845776D01*
X4695776Y879701D01*
X4699459Y880298D01*
X4706197Y881836D01*
X4709251Y882778D01*
X4712096Y883836D01*
X4714731Y885008D01*
X4717156Y886296D01*
X4719372Y887699D01*
X4721377Y889217D01*
X4723173Y890851D01*
X4740851Y873173D01*
D02*
G37*
G36*
X6335869Y678471D02*
X6337720Y677214D01*
X6339896Y676027D01*
X6342397Y674911D01*
X6345222Y673866D01*
X6348373Y672891D01*
X6355649Y671155D01*
X6364224Y669701D01*
X6330299Y635776D01*
X6329607Y640226D01*
X6327109Y651627D01*
X6326134Y654778D01*
X6325089Y657603D01*
X6323973Y660104D01*
X6322786Y662280D01*
X6321529Y664131D01*
X6320201Y665657D01*
X6334343Y679799D01*
X6335869Y678471D01*
D02*
G37*
G36*
X4730381Y673448D02*
X4731813Y672725D01*
X4733476Y672086D01*
X4735370Y671533D01*
X4737495Y671064D01*
X4739852Y670681D01*
X4745259Y670170D01*
X4748309Y670043D01*
X4751591Y670000D01*
X4750412Y630000D01*
X4747101Y629964D01*
X4738639Y629428D01*
X4736310Y629106D01*
X4732387Y628248D01*
X4730793Y627712D01*
X4729445Y627104D01*
X4728343Y626425D01*
X4729181Y674257D01*
X4730381Y673448D01*
D02*
G37*
G36*
X4382500Y585413D02*
X4382592Y579223D01*
X4383978Y561748D01*
X4384809Y556287D01*
X4387027Y545910D01*
X4388412Y540995D01*
X4391738Y531710D01*
X4345000Y559821D01*
X4347375Y558837D01*
X4349500Y558892D01*
X4351375Y559987D01*
X4353000Y562121D01*
X4354375Y565295D01*
X4355500Y569507D01*
X4356375Y574760D01*
X4357000Y581051D01*
X4357500Y596753D01*
X4382500Y585413D01*
D02*
G37*
G36*
X4415662Y270484D02*
X4409687Y264335D01*
X4400173Y253428D01*
X4396635Y248671D01*
X4393909Y244377D01*
X4391995Y240548D01*
X4390893Y237182D01*
X4390604Y234281D01*
X4391127Y231843D01*
X4392462Y229870D01*
X4357370Y264962D01*
X4359343Y263627D01*
X4361781Y263104D01*
X4364682Y263393D01*
X4368048Y264495D01*
X4371877Y266409D01*
X4376171Y269135D01*
X4380928Y272673D01*
X4386149Y277024D01*
X4397984Y288162D01*
X4415662Y270484D01*
D02*
G37*
G36*
X4752165Y282187D02*
X4763072Y272673D01*
X4767829Y269135D01*
X4772123Y266409D01*
X4775952Y264495D01*
X4779318Y263393D01*
X4782219Y263104D01*
X4784657Y263627D01*
X4786630Y264962D01*
X4751538Y229870D01*
X4752873Y231843D01*
X4753396Y234281D01*
X4753107Y237182D01*
X4752005Y240548D01*
X4750091Y244377D01*
X4747365Y248671D01*
X4743827Y253428D01*
X4739476Y258649D01*
X4728338Y270484D01*
X4746016Y288162D01*
X4752165Y282187D01*
D02*
G37*
%LPC*%
G36*
X8165500Y5254920D02*
X8118000D01*
Y5153500D01*
X8239420D01*
Y5181000D01*
X8233793Y5209288D01*
X8217769Y5233269D01*
X8193788Y5249293D01*
X8165500Y5254920D01*
D02*
G37*
G36*
X8098000D02*
X8050500D01*
X8022212Y5249293D01*
X7998231Y5233269D01*
X7982207Y5209288D01*
X7976580Y5181000D01*
Y5153500D01*
X8098000D01*
Y5254920D01*
D02*
G37*
G36*
X8239420Y5133500D02*
X8118000D01*
Y5032080D01*
X8165500D01*
X8193788Y5037707D01*
X8217769Y5053731D01*
X8233793Y5077712D01*
X8239420Y5106000D01*
Y5133500D01*
D02*
G37*
G36*
X8098000D02*
X7976580D01*
Y5106000D01*
X7982207Y5077712D01*
X7998231Y5053731D01*
X8022212Y5037707D01*
X8050500Y5032080D01*
X8098000D01*
Y5133500D01*
D02*
G37*
G36*
X2143420Y5280500D02*
X2042000D01*
Y5159080D01*
X2069500D01*
X2097788Y5164707D01*
X2121769Y5180731D01*
X2137793Y5204712D01*
X2143420Y5233000D01*
Y5280500D01*
D02*
G37*
G36*
X2022000D02*
X1920580D01*
Y5233000D01*
X1926207Y5204712D01*
X1942231Y5180731D01*
X1966212Y5164707D01*
X1994500Y5159080D01*
X2022000D01*
Y5280500D01*
D02*
G37*
G36*
X1586500Y5360244D02*
X1470500D01*
Y5153500D01*
X1677244D01*
Y5269500D01*
X1670336Y5304226D01*
X1650665Y5333665D01*
X1621226Y5353336D01*
X1586500Y5360244D01*
D02*
G37*
G36*
X1450500D02*
X1334500D01*
X1299774Y5353336D01*
X1270335Y5333665D01*
X1250664Y5304226D01*
X1243756Y5269500D01*
Y5153500D01*
X1450500D01*
Y5360244D01*
D02*
G37*
G36*
X2069500Y5127920D02*
X2042000D01*
Y5006500D01*
X2143420D01*
Y5054000D01*
X2137793Y5082288D01*
X2121769Y5106269D01*
X2097788Y5122293D01*
X2069500Y5127920D01*
D02*
G37*
G36*
X2022000D02*
X1994500D01*
X1966212Y5122293D01*
X1942231Y5106269D01*
X1926207Y5082288D01*
X1920580Y5054000D01*
Y5006500D01*
X2022000D01*
Y5127920D01*
D02*
G37*
G36*
X1677244Y5133500D02*
X1470500D01*
Y4926756D01*
X1586500D01*
X1621226Y4933664D01*
X1650665Y4953335D01*
X1670336Y4982774D01*
X1677244Y5017500D01*
Y5133500D01*
D02*
G37*
G36*
X1450500D02*
X1243756D01*
Y5017500D01*
X1250664Y4982774D01*
X1270335Y4953335D01*
X1299774Y4933664D01*
X1334500Y4926756D01*
X1450500D01*
Y5133500D01*
D02*
G37*
G36*
X4609500Y5122822D02*
X4534500D01*
X4508163Y5117583D01*
X4485836Y5102664D01*
X4470917Y5080337D01*
X4465678Y5054000D01*
Y4939000D01*
X4470917Y4912663D01*
X4471053Y4912459D01*
X4463506Y4902147D01*
X4461338Y4900000D01*
X4438065D01*
X4425064Y4894615D01*
X4415120Y4906732D01*
X4419083Y4912663D01*
X4424322Y4939000D01*
Y5054000D01*
X4419083Y5080337D01*
X4404164Y5102664D01*
X4381837Y5117583D01*
X4355500Y5122822D01*
X4280500D01*
X4254163Y5117583D01*
X4231836Y5102664D01*
X4216917Y5080337D01*
X4211678Y5054000D01*
Y4939000D01*
X4216917Y4912663D01*
X4231836Y4890336D01*
X4254163Y4875417D01*
X4280500Y4870178D01*
X4355500D01*
X4381837Y4875417D01*
X4384124Y4876945D01*
X4396240Y4867000D01*
X4390000Y4851935D01*
Y4828065D01*
X4399134Y4806013D01*
X4416013Y4789134D01*
X4438065Y4780000D01*
X4461935D01*
X4483987Y4789134D01*
X4500866Y4806013D01*
X4510000Y4828065D01*
Y4851935D01*
X4506469Y4860460D01*
X4517259Y4873607D01*
X4534500Y4870178D01*
X4609500D01*
X4635837Y4875417D01*
X4658164Y4890336D01*
X4673083Y4912663D01*
X4678322Y4939000D01*
Y5054000D01*
X4673083Y5080337D01*
X4658164Y5102664D01*
X4635837Y5117583D01*
X4609500Y5122822D01*
D02*
G37*
G36*
X6387500D02*
X6312500D01*
X6286163Y5117583D01*
X6263836Y5102664D01*
X6248917Y5080337D01*
X6243678Y5054000D01*
Y4939000D01*
X6248917Y4912663D01*
X6263836Y4890336D01*
X6286163Y4875417D01*
X6312500Y4870178D01*
X6387500D01*
X6413837Y4875417D01*
X6436164Y4890336D01*
X6451083Y4912663D01*
X6456322Y4939000D01*
Y5054000D01*
X6451083Y5080337D01*
X6436164Y5102664D01*
X6413837Y5117583D01*
X6387500Y5122822D01*
D02*
G37*
G36*
X6133500D02*
X6058500D01*
X6032163Y5117583D01*
X6009836Y5102664D01*
X5994917Y5080337D01*
X5989678Y5054000D01*
Y4939000D01*
X5994917Y4912663D01*
X6009836Y4890336D01*
X6032163Y4875417D01*
X6058500Y4870178D01*
X6133500D01*
X6159837Y4875417D01*
X6182164Y4890336D01*
X6197083Y4912663D01*
X6202322Y4939000D01*
Y5054000D01*
X6197083Y5080337D01*
X6182164Y5102664D01*
X6159837Y5117583D01*
X6133500Y5122822D01*
D02*
G37*
G36*
X5371500D02*
X5296500D01*
X5270163Y5117583D01*
X5247836Y5102664D01*
X5232917Y5080337D01*
X5227678Y5054000D01*
Y4939000D01*
X5232917Y4912663D01*
X5247836Y4890336D01*
X5270163Y4875417D01*
X5296500Y4870178D01*
X5371500D01*
X5397837Y4875417D01*
X5420164Y4890336D01*
X5435083Y4912663D01*
X5440322Y4939000D01*
Y5054000D01*
X5435083Y5080337D01*
X5420164Y5102664D01*
X5397837Y5117583D01*
X5371500Y5122822D01*
D02*
G37*
G36*
X4101500D02*
X4026500D01*
X4000163Y5117583D01*
X3977836Y5102664D01*
X3962917Y5080337D01*
X3957678Y5054000D01*
Y4939000D01*
X3962917Y4912663D01*
X3977836Y4890336D01*
X4000163Y4875417D01*
X4026500Y4870178D01*
X4101500D01*
X4127837Y4875417D01*
X4150164Y4890336D01*
X4165083Y4912663D01*
X4170322Y4939000D01*
Y5054000D01*
X4165083Y5080337D01*
X4150164Y5102664D01*
X4127837Y5117583D01*
X4101500Y5122822D01*
D02*
G37*
G36*
X3847500D02*
X3772500D01*
X3746163Y5117583D01*
X3723836Y5102664D01*
X3708917Y5080337D01*
X3703678Y5054000D01*
Y4939000D01*
X3708917Y4912663D01*
X3723836Y4890336D01*
X3746163Y4875417D01*
X3772500Y4870178D01*
X3847500D01*
X3873837Y4875417D01*
X3896164Y4890336D01*
X3911083Y4912663D01*
X3916322Y4939000D01*
Y5054000D01*
X3911083Y5080337D01*
X3896164Y5102664D01*
X3873837Y5117583D01*
X3847500Y5122822D01*
D02*
G37*
G36*
X3593500D02*
X3518500D01*
X3492163Y5117583D01*
X3469836Y5102664D01*
X3454917Y5080337D01*
X3449678Y5054000D01*
Y4939000D01*
X3454917Y4912663D01*
X3469836Y4890336D01*
X3492163Y4875417D01*
X3518500Y4870178D01*
X3593500D01*
X3619837Y4875417D01*
X3642164Y4890336D01*
X3657083Y4912663D01*
X3662322Y4939000D01*
Y5054000D01*
X3657083Y5080337D01*
X3642164Y5102664D01*
X3619837Y5117583D01*
X3593500Y5122822D01*
D02*
G37*
G36*
X3339500D02*
X3264500D01*
X3238163Y5117583D01*
X3215836Y5102664D01*
X3200917Y5080337D01*
X3195678Y5054000D01*
Y4939000D01*
X3200917Y4912663D01*
X3215836Y4890336D01*
X3238163Y4875417D01*
X3264500Y4870178D01*
X3339500D01*
X3365837Y4875417D01*
X3388164Y4890336D01*
X3403083Y4912663D01*
X3408322Y4939000D01*
Y5054000D01*
X3403083Y5080337D01*
X3388164Y5102664D01*
X3365837Y5117583D01*
X3339500Y5122822D01*
D02*
G37*
G36*
X3085500D02*
X3010500D01*
X2984163Y5117583D01*
X2961836Y5102664D01*
X2946917Y5080337D01*
X2941678Y5054000D01*
Y4939000D01*
X2946917Y4912663D01*
X2961836Y4890336D01*
X2984163Y4875417D01*
X3010500Y4870178D01*
X3085500D01*
X3111837Y4875417D01*
X3134164Y4890336D01*
X3149083Y4912663D01*
X3154322Y4939000D01*
Y5054000D01*
X3149083Y5080337D01*
X3134164Y5102664D01*
X3111837Y5117583D01*
X3085500Y5122822D01*
D02*
G37*
G36*
X2831500D02*
X2756500D01*
X2730163Y5117583D01*
X2707836Y5102664D01*
X2692917Y5080337D01*
X2687678Y5054000D01*
Y4939000D01*
X2692917Y4912663D01*
X2707836Y4890336D01*
X2730163Y4875417D01*
X2756500Y4870178D01*
X2831500D01*
X2857837Y4875417D01*
X2880164Y4890336D01*
X2895083Y4912663D01*
X2900322Y4939000D01*
Y5054000D01*
X2895083Y5080337D01*
X2880164Y5102664D01*
X2857837Y5117583D01*
X2831500Y5122822D01*
D02*
G37*
G36*
X2577500D02*
X2502500D01*
X2476163Y5117583D01*
X2453836Y5102664D01*
X2438917Y5080337D01*
X2433678Y5054000D01*
Y4939000D01*
X2438917Y4912663D01*
X2453836Y4890336D01*
X2476163Y4875417D01*
X2502500Y4870178D01*
X2577500D01*
X2603837Y4875417D01*
X2626164Y4890336D01*
X2641083Y4912663D01*
X2646322Y4939000D01*
Y5054000D01*
X2641083Y5080337D01*
X2626164Y5102664D01*
X2603837Y5117583D01*
X2577500Y5122822D01*
D02*
G37*
G36*
X2323500D02*
X2248500D01*
X2222163Y5117583D01*
X2199836Y5102664D01*
X2184917Y5080337D01*
X2179678Y5054000D01*
Y4939000D01*
X2184917Y4912663D01*
X2199836Y4890336D01*
X2222163Y4875417D01*
X2248500Y4870178D01*
X2323500D01*
X2349837Y4875417D01*
X2372164Y4890336D01*
X2387083Y4912663D01*
X2392322Y4939000D01*
Y5054000D01*
X2387083Y5080337D01*
X2372164Y5102664D01*
X2349837Y5117583D01*
X2323500Y5122822D01*
D02*
G37*
G36*
X2143420Y4986500D02*
X2042000D01*
Y4865080D01*
X2069500D01*
X2097788Y4870707D01*
X2121769Y4886731D01*
X2137793Y4910712D01*
X2143420Y4939000D01*
Y4986500D01*
D02*
G37*
G36*
X2022000D02*
X1920580D01*
Y4939000D01*
X1926207Y4910712D01*
X1942231Y4886731D01*
X1966212Y4870707D01*
X1994500Y4865080D01*
X2022000D01*
Y4986500D01*
D02*
G37*
G36*
X3881935Y4672500D02*
X3858065D01*
X3836013Y4663365D01*
X3823652Y4651004D01*
X3801935Y4660000D01*
X3778065D01*
X3756013Y4650865D01*
X3739135Y4633987D01*
X3730000Y4611935D01*
Y4588065D01*
X3739135Y4566013D01*
X3756013Y4549134D01*
X3778065Y4540000D01*
X3801935D01*
X3823987Y4549134D01*
X3836348Y4561495D01*
X3858065Y4552500D01*
X3881935D01*
X3903987Y4561634D01*
X3920865Y4578513D01*
X3930000Y4600565D01*
Y4624434D01*
X3920865Y4646487D01*
X3903987Y4663365D01*
X3881935Y4672500D01*
D02*
G37*
G36*
X4071935Y4790000D02*
X4048065D01*
X4026013Y4780865D01*
X4009134Y4763987D01*
X4000000Y4741935D01*
Y4718065D01*
X4009134Y4696013D01*
X4010147Y4695000D01*
X3999134Y4683987D01*
X3990000Y4661935D01*
Y4638065D01*
X3999134Y4616013D01*
X4016013Y4599135D01*
X4038065Y4590000D01*
X4061935D01*
X4083987Y4599135D01*
X4100866Y4616013D01*
X4110000Y4638065D01*
Y4661935D01*
X4100866Y4683987D01*
X4099853Y4685000D01*
X4110866Y4696013D01*
X4120000Y4718065D01*
Y4741935D01*
X4110866Y4763987D01*
X4093987Y4780865D01*
X4071935Y4790000D01*
D02*
G37*
G36*
X5881935Y4670000D02*
X5858065D01*
X5836013Y4660865D01*
X5819134Y4643987D01*
X5810000Y4621935D01*
Y4598065D01*
X5819134Y4576013D01*
X5836013Y4559134D01*
X5858065Y4550000D01*
X5881935D01*
X5903987Y4559134D01*
X5920865Y4576013D01*
X5930000Y4598065D01*
Y4621935D01*
X5920865Y4643987D01*
X5903987Y4660865D01*
X5881935Y4670000D01*
D02*
G37*
G36*
X6339878Y4668868D02*
X6316008D01*
X6293956Y4659734D01*
X6277078Y4642856D01*
X6267943Y4620803D01*
Y4596934D01*
X6277078Y4574881D01*
X6293956Y4558003D01*
X6316008Y4548869D01*
X6339878D01*
X6361930Y4558003D01*
X6378809Y4574881D01*
X6387943Y4596934D01*
Y4620803D01*
X6378809Y4642856D01*
X6361930Y4659734D01*
X6339878Y4668868D01*
D02*
G37*
G36*
X2069500Y4623820D02*
X2022000D01*
Y4522400D01*
X2143420D01*
Y4549900D01*
X2137793Y4578188D01*
X2121769Y4602169D01*
X2097788Y4618193D01*
X2069500Y4623820D01*
D02*
G37*
G36*
X2002000D02*
X1954500D01*
X1926212Y4618193D01*
X1902231Y4602169D01*
X1886207Y4578188D01*
X1880580Y4549900D01*
Y4522400D01*
X2002000D01*
Y4623820D01*
D02*
G37*
G36*
X3651932Y4569998D02*
X3628063D01*
X3606011Y4560864D01*
X3589132Y4543986D01*
X3579998Y4521933D01*
Y4498064D01*
X3589132Y4476011D01*
X3606011Y4459133D01*
X3628063Y4449999D01*
X3651932D01*
X3673985Y4459133D01*
X3690863Y4476011D01*
X3699998Y4498064D01*
Y4521933D01*
X3690863Y4543986D01*
X3673985Y4560864D01*
X3651932Y4569998D01*
D02*
G37*
G36*
X2143420Y4502400D02*
X2022000D01*
Y4400980D01*
X2069500D01*
X2097788Y4406607D01*
X2121769Y4422630D01*
X2137793Y4446612D01*
X2143420Y4474900D01*
Y4502400D01*
D02*
G37*
G36*
X2002000D02*
X1880580D01*
Y4474900D01*
X1886207Y4446612D01*
X1902231Y4422630D01*
X1926212Y4406607D01*
X1954500Y4400980D01*
X2002000D01*
Y4502400D01*
D02*
G37*
G36*
X2363500Y4628918D02*
X2248500D01*
X2218261Y4622903D01*
X2192626Y4605774D01*
X2175497Y4580139D01*
X2169482Y4549900D01*
Y4474900D01*
X2175497Y4444661D01*
X2192626Y4419026D01*
X2218261Y4401897D01*
X2248500Y4395882D01*
X2363500D01*
X2393739Y4401897D01*
X2419374Y4419026D01*
X2436503Y4444661D01*
X2442518Y4474900D01*
Y4549900D01*
X2436503Y4580139D01*
X2419374Y4605774D01*
X2393739Y4622903D01*
X2363500Y4628918D01*
D02*
G37*
G36*
X7196070Y4490000D02*
X7172201D01*
X7150148Y4480866D01*
X7133270Y4463987D01*
X7124136Y4441935D01*
Y4418065D01*
X7133270Y4396013D01*
X7150148Y4379134D01*
X7172201Y4370000D01*
X7196070D01*
X7218123Y4379134D01*
X7235001Y4396013D01*
X7244135Y4418065D01*
Y4441935D01*
X7235001Y4463987D01*
X7218123Y4480866D01*
X7196070Y4490000D01*
D02*
G37*
G36*
X2989435Y4467500D02*
X2965565D01*
X2943513Y4458366D01*
X2926634Y4441487D01*
X2917500Y4419435D01*
Y4395566D01*
X2926634Y4373513D01*
X2943513Y4356635D01*
X2965565Y4347500D01*
X2989435D01*
X3011487Y4356635D01*
X3028366Y4373513D01*
X3037500Y4395566D01*
Y4419435D01*
X3028366Y4441487D01*
X3011487Y4458366D01*
X2989435Y4467500D01*
D02*
G37*
G36*
X2520164Y4382875D02*
X2496295D01*
X2474242Y4373741D01*
X2457364Y4356862D01*
X2448429Y4335290D01*
X2445936Y4334233D01*
X2433230Y4331038D01*
X2419374Y4351774D01*
X2393739Y4368903D01*
X2363500Y4374918D01*
X2248500D01*
X2218261Y4368903D01*
X2192626Y4351774D01*
X2175497Y4326139D01*
X2169482Y4295900D01*
Y4220900D01*
X2175497Y4190661D01*
X2192626Y4165026D01*
X2218261Y4147897D01*
X2248500Y4141882D01*
X2363500D01*
X2393739Y4147897D01*
X2419374Y4165025D01*
X2424267Y4165508D01*
X2433811Y4155963D01*
X2455864Y4146829D01*
X2479733D01*
X2501786Y4155963D01*
X2518664Y4172841D01*
X2527798Y4194894D01*
Y4218763D01*
X2518664Y4240816D01*
X2511605Y4247875D01*
X2517818Y4262875D01*
X2520164D01*
X2542217Y4272009D01*
X2559095Y4288888D01*
X2568230Y4310940D01*
Y4334810D01*
X2559095Y4356862D01*
X2542217Y4373741D01*
X2520164Y4382875D01*
D02*
G37*
G36*
X7061070Y4526648D02*
X7037201D01*
X7015148Y4517513D01*
X6998270Y4500635D01*
X6989136Y4478583D01*
Y4454713D01*
X6998270Y4432661D01*
X6998752Y4432179D01*
X6990260Y4423688D01*
X6981126Y4401635D01*
Y4377766D01*
X6990260Y4355713D01*
X7007138Y4338835D01*
X7029191Y4329701D01*
X7053060D01*
X7075113Y4338835D01*
X7091991Y4355713D01*
X7101125Y4377766D01*
Y4401635D01*
X7091991Y4423688D01*
X7091510Y4424169D01*
X7100001Y4432661D01*
X7109135Y4454713D01*
Y4478583D01*
X7100001Y4500635D01*
X7083123Y4517513D01*
X7061070Y4526648D01*
D02*
G37*
G36*
X3391935Y4430000D02*
X3368065D01*
X3346013Y4420865D01*
X3329135Y4403987D01*
X3320000Y4381935D01*
Y4358065D01*
X3329135Y4336013D01*
X3346013Y4319134D01*
X3368065Y4310000D01*
X3391935D01*
X3413987Y4319134D01*
X3430866Y4336013D01*
X3440000Y4358065D01*
Y4381935D01*
X3430866Y4403987D01*
X3413987Y4420865D01*
X3391935Y4430000D01*
D02*
G37*
G36*
X4451935Y4420000D02*
X4428065D01*
X4406013Y4410865D01*
X4389134Y4393987D01*
X4380000Y4371935D01*
Y4348065D01*
X4389134Y4326013D01*
X4406013Y4309134D01*
X4428065Y4300000D01*
X4451935D01*
X4473987Y4309134D01*
X4490866Y4326013D01*
X4500000Y4348065D01*
Y4371935D01*
X4490866Y4393987D01*
X4473987Y4410865D01*
X4451935Y4420000D01*
D02*
G37*
G36*
X4667347Y4410000D02*
X4643477D01*
X4621425Y4400865D01*
X4604547Y4383987D01*
X4595412Y4361935D01*
Y4338065D01*
X4604547Y4316013D01*
X4621425Y4299134D01*
X4643477Y4290000D01*
X4667347D01*
X4689399Y4299134D01*
X4706278Y4316013D01*
X4715412Y4338065D01*
Y4361935D01*
X4706278Y4383987D01*
X4689399Y4400865D01*
X4667347Y4410000D01*
D02*
G37*
G36*
X4101935Y4390000D02*
X4078065D01*
X4056013Y4380866D01*
X4039134Y4363987D01*
X4030000Y4341935D01*
Y4318065D01*
X4039134Y4296013D01*
X4056013Y4279134D01*
X4078065Y4270000D01*
X4101935D01*
X4123987Y4279134D01*
X4140865Y4296013D01*
X4150000Y4318065D01*
Y4341935D01*
X4140865Y4363987D01*
X4123987Y4380866D01*
X4101935Y4390000D01*
D02*
G37*
G36*
X4891935Y4290000D02*
X4868065D01*
X4846013Y4280865D01*
X4829134Y4263987D01*
X4820000Y4241935D01*
Y4218065D01*
X4829134Y4196013D01*
X4846013Y4179134D01*
X4868065Y4170000D01*
X4891935D01*
X4913987Y4179134D01*
X4930865Y4196013D01*
X4940000Y4218065D01*
Y4241935D01*
X4930865Y4263987D01*
X4913987Y4280865D01*
X4891935Y4290000D01*
D02*
G37*
G36*
X2069500Y4364722D02*
X1954500D01*
X1928163Y4359483D01*
X1905836Y4344564D01*
X1890917Y4322237D01*
X1885678Y4295900D01*
Y4220900D01*
X1890917Y4194563D01*
X1905836Y4172235D01*
X1928163Y4157317D01*
X1954500Y4152078D01*
X2069500D01*
X2095837Y4157317D01*
X2118164Y4172235D01*
X2133083Y4194563D01*
X2138322Y4220900D01*
Y4295900D01*
X2133083Y4322237D01*
X2118164Y4344564D01*
X2095837Y4359483D01*
X2069500Y4364722D01*
D02*
G37*
G36*
X2791935Y4230000D02*
X2768065D01*
X2746013Y4220866D01*
X2729134Y4203987D01*
X2720000Y4181935D01*
Y4158065D01*
X2729134Y4136013D01*
X2746013Y4119135D01*
X2768065Y4110000D01*
X2791935D01*
X2813987Y4119135D01*
X2830866Y4136013D01*
X2840000Y4158065D01*
Y4181935D01*
X2830866Y4203987D01*
X2813987Y4220866D01*
X2791935Y4230000D01*
D02*
G37*
G36*
X4201935Y4190000D02*
X4178065D01*
X4156013Y4180866D01*
X4139134Y4163987D01*
X4130000Y4141935D01*
Y4118065D01*
X4139134Y4096013D01*
X4156013Y4079135D01*
X4178065Y4070000D01*
X4201935D01*
X4223987Y4079135D01*
X4240866Y4096013D01*
X4250000Y4118065D01*
Y4141935D01*
X4240866Y4163987D01*
X4223987Y4180866D01*
X4201935Y4190000D01*
D02*
G37*
G36*
X3113924Y4120000D02*
X3086076D01*
X3060348Y4109343D01*
X3040657Y4089652D01*
X3030000Y4063924D01*
Y4036076D01*
X3040657Y4010348D01*
X3060348Y3990657D01*
X3086076Y3980000D01*
X3113924D01*
X3139652Y3990657D01*
X3159343Y4010348D01*
X3170000Y4036076D01*
Y4063924D01*
X3159343Y4089652D01*
X3139652Y4109343D01*
X3113924Y4120000D01*
D02*
G37*
G36*
X5684435Y3995000D02*
X5660565D01*
X5638513Y3985866D01*
X5621634Y3968987D01*
X5612500Y3946935D01*
Y3923065D01*
X5621634Y3901013D01*
X5638513Y3884134D01*
X5660565Y3875000D01*
X5684435D01*
X5706487Y3884134D01*
X5723365Y3901013D01*
X5732500Y3923065D01*
Y3946935D01*
X5723365Y3968987D01*
X5706487Y3985866D01*
X5684435Y3995000D01*
D02*
G37*
G36*
X4171937Y3990000D02*
X4148067D01*
X4126015Y3980865D01*
X4109136Y3963987D01*
X4100002Y3941934D01*
Y3918065D01*
X4109136Y3896013D01*
X4126015Y3879134D01*
X4148067Y3870000D01*
X4171937D01*
X4193989Y3879134D01*
X4210867Y3896013D01*
X4220002Y3918065D01*
Y3941934D01*
X4210867Y3963987D01*
X4193989Y3980865D01*
X4171937Y3990000D01*
D02*
G37*
G36*
X5307972Y3970717D02*
X5284103D01*
X5262050Y3961583D01*
X5245172Y3944705D01*
X5236038Y3922652D01*
Y3898783D01*
X5245172Y3876730D01*
X5262050Y3859852D01*
X5284103Y3850717D01*
X5307972D01*
X5330025Y3859852D01*
X5346903Y3876730D01*
X5356038Y3898783D01*
Y3922652D01*
X5346903Y3944705D01*
X5330025Y3961583D01*
X5307972Y3970717D01*
D02*
G37*
G36*
X2991935Y3920000D02*
X2968065D01*
X2946013Y3910865D01*
X2929134Y3893987D01*
X2920000Y3871935D01*
Y3848065D01*
X2929134Y3826013D01*
X2946013Y3809134D01*
X2968065Y3800000D01*
X2991935D01*
X3013987Y3809134D01*
X3030865Y3826013D01*
X3040000Y3848065D01*
Y3871935D01*
X3030865Y3893987D01*
X3013987Y3910865D01*
X2991935Y3920000D01*
D02*
G37*
G36*
X4471936Y4120002D02*
X4448067D01*
X4426014Y4110868D01*
X4409136Y4093989D01*
X4400001Y4071937D01*
Y4048067D01*
X4404759Y4036581D01*
X4406014Y4020865D01*
X4389136Y4003987D01*
X4380001Y3981934D01*
Y3958065D01*
X4389136Y3936012D01*
X4406014Y3919134D01*
X4425074Y3911239D01*
X4427058Y3900337D01*
X4426566Y3895621D01*
X4416672Y3891523D01*
X4399794Y3874645D01*
X4390659Y3852592D01*
Y3828723D01*
X4395552Y3816911D01*
X4395977Y3802050D01*
X4390198Y3795052D01*
X4379133Y3783987D01*
X4369999Y3761935D01*
Y3738065D01*
X4379133Y3716013D01*
X4396012Y3699135D01*
X4418064Y3690000D01*
X4441933D01*
X4463986Y3699135D01*
X4480864Y3716013D01*
X4489999Y3738065D01*
Y3761935D01*
X4485106Y3773747D01*
X4484680Y3788608D01*
X4490460Y3795606D01*
X4501525Y3806671D01*
X4510659Y3828723D01*
Y3852592D01*
X4501525Y3874645D01*
X4484646Y3891523D01*
X4465586Y3899418D01*
X4463602Y3910320D01*
X4464095Y3915036D01*
X4473989Y3919134D01*
X4490867Y3936012D01*
X4500001Y3958065D01*
Y3981934D01*
X4495243Y3993421D01*
X4493989Y4009137D01*
X4510867Y4026015D01*
X4520001Y4048067D01*
Y4071937D01*
X4510867Y4093989D01*
X4493988Y4110868D01*
X4471936Y4120002D01*
D02*
G37*
G36*
X5241192Y3681307D02*
X5217322D01*
X5195270Y3672172D01*
X5178391Y3655294D01*
X5169257Y3633241D01*
Y3609372D01*
X5178391Y3587319D01*
X5195270Y3570441D01*
X5217322Y3561307D01*
X5241192D01*
X5263244Y3570441D01*
X5280123Y3587319D01*
X5289257Y3609372D01*
Y3633241D01*
X5280123Y3655294D01*
X5263244Y3672172D01*
X5241192Y3681307D01*
D02*
G37*
G36*
X3581935Y3670000D02*
X3558065D01*
X3536013Y3660865D01*
X3519134Y3643987D01*
X3510000Y3621935D01*
Y3598065D01*
X3519134Y3576013D01*
X3536013Y3559134D01*
X3558065Y3550000D01*
X3581935D01*
X3603987Y3559134D01*
X3620866Y3576013D01*
X3630000Y3598065D01*
Y3621935D01*
X3620866Y3643987D01*
X3603987Y3660865D01*
X3581935Y3670000D01*
D02*
G37*
G36*
X2751935Y3750000D02*
X2728065D01*
X2706013Y3740866D01*
X2689135Y3723987D01*
X2680000Y3701935D01*
Y3678065D01*
X2689135Y3656013D01*
X2706013Y3639134D01*
X2709215Y3637808D01*
X2716125Y3618710D01*
X2710000Y3603924D01*
Y3576076D01*
X2720657Y3550348D01*
X2740348Y3530657D01*
X2766076Y3520000D01*
X2793924D01*
X2819652Y3530657D01*
X2839343Y3550348D01*
X2850000Y3576076D01*
Y3603924D01*
X2839343Y3629652D01*
X2819652Y3649343D01*
X2793924Y3660000D01*
X2793055Y3661300D01*
X2800000Y3678065D01*
Y3701935D01*
X2790866Y3723987D01*
X2773987Y3740866D01*
X2751935Y3750000D01*
D02*
G37*
G36*
X3213924Y3560000D02*
X3186076D01*
X3160348Y3549343D01*
X3140657Y3529652D01*
X3130000Y3503924D01*
Y3476076D01*
X3140657Y3450348D01*
X3160348Y3430657D01*
X3186076Y3420000D01*
X3213924D01*
X3239652Y3430657D01*
X3259343Y3450348D01*
X3270000Y3476076D01*
Y3503924D01*
X3259343Y3529652D01*
X3239652Y3549343D01*
X3213924Y3560000D01*
D02*
G37*
G36*
X4189752Y3572327D02*
X4165883D01*
X4143830Y3563193D01*
X4126952Y3546314D01*
X4117818Y3524262D01*
Y3500393D01*
X4126952Y3478340D01*
X4143830Y3461462D01*
X4165883Y3452327D01*
X4183484D01*
X4189716Y3437283D01*
X4201073Y3425926D01*
X4199134Y3423987D01*
X4190000Y3401935D01*
Y3378065D01*
X4199134Y3356013D01*
X4216013Y3339135D01*
X4224924Y3335443D01*
X4228444Y3317749D01*
X4156772Y3246077D01*
X3893228D01*
X3829653Y3309653D01*
X3811460Y3321809D01*
X3790000Y3326077D01*
X3644392D01*
X3636058Y3338549D01*
X3640000Y3348065D01*
Y3371935D01*
X3630865Y3393987D01*
X3613987Y3410865D01*
X3591935Y3420000D01*
X3568065D01*
X3546013Y3410865D01*
X3529134Y3393987D01*
X3520000Y3371935D01*
Y3348065D01*
X3522585Y3341824D01*
X3511935Y3330000D01*
X3488065D01*
X3466013Y3320866D01*
X3449135Y3303987D01*
X3440000Y3281935D01*
Y3258065D01*
X3449135Y3236013D01*
X3466013Y3219135D01*
X3488065Y3210000D01*
X3511935D01*
X3521405Y3213923D01*
X3766772D01*
X3830348Y3150347D01*
X3848540Y3138191D01*
X3870000Y3133923D01*
X4031969D01*
X4039535Y3118922D01*
X4032499Y3101936D01*
Y3078067D01*
X4041633Y3056014D01*
X4058512Y3039136D01*
X4071789Y3033636D01*
Y3017400D01*
X4056013Y3010865D01*
X4039134Y2993987D01*
X4030000Y2971935D01*
Y2948065D01*
X4039134Y2926013D01*
X4056013Y2909134D01*
X4078065Y2900000D01*
X4101935D01*
X4123987Y2909134D01*
X4140865Y2926013D01*
X4150000Y2948065D01*
Y2971935D01*
X4140865Y2993987D01*
X4123987Y3010865D01*
X4110710Y3016365D01*
Y3032601D01*
X4126486Y3039136D01*
X4143364Y3056014D01*
X4152499Y3078067D01*
Y3101936D01*
X4145463Y3118922D01*
X4153029Y3133923D01*
X4180000D01*
X4201460Y3138191D01*
X4219653Y3150347D01*
X4424517Y3355212D01*
X4433987Y3359135D01*
X4450866Y3376013D01*
X4460000Y3398065D01*
Y3421935D01*
X4450866Y3443987D01*
X4433987Y3460866D01*
X4411935Y3470000D01*
X4388065D01*
X4366013Y3460866D01*
X4349135Y3443987D01*
X4345212Y3434517D01*
X4322251Y3411556D01*
X4304557Y3415075D01*
X4300865Y3423987D01*
X4289508Y3435344D01*
X4291447Y3437283D01*
X4300581Y3459336D01*
Y3483205D01*
X4291447Y3505258D01*
X4274569Y3522136D01*
X4252516Y3531270D01*
X4234914D01*
X4228683Y3546314D01*
X4211805Y3563193D01*
X4189752Y3572327D01*
D02*
G37*
G36*
X3043252Y3210000D02*
X3019382D01*
X2997330Y3200866D01*
X2990658Y3194194D01*
X2983987Y3200866D01*
X2961935Y3210000D01*
X2938065D01*
X2916013Y3200866D01*
X2899134Y3183987D01*
X2890000Y3161935D01*
Y3152895D01*
X2881935Y3140000D01*
X2858065D01*
X2836013Y3130865D01*
X2819135Y3113987D01*
X2810000Y3091935D01*
Y3068065D01*
X2819135Y3046013D01*
X2836013Y3029134D01*
X2858065Y3020000D01*
X2881935D01*
X2903987Y3029134D01*
X2920866Y3046013D01*
X2930000Y3068065D01*
Y3077105D01*
X2938065Y3090000D01*
X2961935D01*
X2983987Y3099135D01*
X2990658Y3105806D01*
X2997330Y3099135D01*
X3019382Y3090000D01*
X3043252D01*
X3065304Y3099135D01*
X3082183Y3116013D01*
X3091317Y3138065D01*
Y3161935D01*
X3082183Y3183987D01*
X3065304Y3200866D01*
X3043252Y3210000D01*
D02*
G37*
G36*
X4697049Y3124220D02*
X4673179D01*
X4651127Y3115085D01*
X4634249Y3098207D01*
X4625114Y3076154D01*
Y3052285D01*
X4634249Y3030232D01*
X4651127Y3013354D01*
X4673179Y3004220D01*
X4697049D01*
X4719101Y3013354D01*
X4735980Y3030232D01*
X4745114Y3052285D01*
Y3076154D01*
X4735980Y3098207D01*
X4719101Y3115085D01*
X4697049Y3124220D01*
D02*
G37*
G36*
X4331936Y3190001D02*
X4308067D01*
X4286014Y3180867D01*
X4269136Y3163989D01*
X4260002Y3141936D01*
Y3118067D01*
X4264759Y3106581D01*
X4266014Y3090864D01*
X4249136Y3073986D01*
X4240002Y3051934D01*
Y3028064D01*
X4249136Y3006012D01*
X4266014Y2989133D01*
X4288067Y2979999D01*
X4311936D01*
X4333989Y2989133D01*
X4350867Y3006012D01*
X4360001Y3028064D01*
Y3051934D01*
X4355244Y3063420D01*
X4353989Y3079136D01*
X4370867Y3096014D01*
X4380001Y3118067D01*
Y3141936D01*
X4370867Y3163989D01*
X4353989Y3180867D01*
X4331936Y3190001D01*
D02*
G37*
G36*
X3133290Y3079999D02*
X3109421D01*
X3087368Y3070865D01*
X3070490Y3053986D01*
X3061355Y3031934D01*
Y3008064D01*
X3070490Y2986012D01*
X3087368Y2969134D01*
X3109421Y2959999D01*
X3133290D01*
X3155342Y2969134D01*
X3172221Y2986012D01*
X3181355Y3008064D01*
Y3031934D01*
X3172221Y3053986D01*
X3155342Y3070865D01*
X3133290Y3079999D01*
D02*
G37*
G36*
X5041935Y3180000D02*
X5018065D01*
X4996013Y3170866D01*
X4979135Y3153987D01*
X4970000Y3131935D01*
Y3108065D01*
X4979135Y3086013D01*
X4996013Y3069135D01*
X5013717Y3061801D01*
Y3039216D01*
X5017005Y3031277D01*
X5016013Y3030865D01*
X4999135Y3013987D01*
X4990000Y2991935D01*
Y2968065D01*
X4999135Y2946013D01*
X5016013Y2929134D01*
X5038065Y2920000D01*
X5061935D01*
X5083987Y2929134D01*
X5100866Y2946013D01*
X5110000Y2968065D01*
Y2991935D01*
X5106711Y2999874D01*
X5107704Y3000285D01*
X5124582Y3017164D01*
X5133717Y3039216D01*
Y3063086D01*
X5124582Y3085138D01*
X5107704Y3102016D01*
X5090000Y3109350D01*
Y3131935D01*
X5080866Y3153987D01*
X5063987Y3170866D01*
X5041935Y3180000D01*
D02*
G37*
G36*
X3751932Y3019999D02*
X3728063D01*
X3706010Y3010865D01*
X3689132Y2993986D01*
X3679998Y2971934D01*
Y2948064D01*
X3689132Y2926012D01*
X3706010Y2909134D01*
X3728063Y2899999D01*
X3751932D01*
X3773985Y2909134D01*
X3790863Y2926012D01*
X3799997Y2948064D01*
Y2971934D01*
X3790863Y2993986D01*
X3773985Y3010865D01*
X3751932Y3019999D01*
D02*
G37*
G36*
X5128194Y2901998D02*
X5104325D01*
X5082272Y2892864D01*
X5077131Y2887722D01*
X5073987Y2890865D01*
X5051935Y2900000D01*
X5028065D01*
X5006013Y2890865D01*
X4989135Y2873987D01*
X4980000Y2851935D01*
Y2828065D01*
X4989135Y2806013D01*
X5006013Y2789134D01*
X5028065Y2780000D01*
X5051935D01*
X5073987Y2789134D01*
X5079129Y2794276D01*
X5082272Y2791133D01*
X5104325Y2781998D01*
X5128194D01*
X5150247Y2791133D01*
X5167125Y2808011D01*
X5176259Y2830064D01*
Y2853933D01*
X5167125Y2875986D01*
X5150247Y2892864D01*
X5128194Y2901998D01*
D02*
G37*
G36*
X2403922Y3019999D02*
X2376074D01*
X2350346Y3009342D01*
X2330655Y2989651D01*
X2319998Y2963923D01*
Y2936076D01*
X2330655Y2910348D01*
X2350346Y2890656D01*
X2376074Y2880000D01*
X2403922D01*
X2429649Y2890656D01*
X2449341Y2910348D01*
X2459998Y2936076D01*
Y2963923D01*
X2449341Y2989651D01*
X2429649Y3009342D01*
X2403922Y3019999D01*
D02*
G37*
G36*
X4263681Y2957500D02*
X4239812D01*
X4217759Y2948365D01*
X4200881Y2931487D01*
X4191747Y2909435D01*
Y2885565D01*
X4200881Y2863513D01*
X4217759Y2846634D01*
X4239812Y2837500D01*
X4263681D01*
X4285734Y2846634D01*
X4302612Y2863513D01*
X4311747Y2885565D01*
Y2909435D01*
X4302612Y2931487D01*
X4285734Y2948365D01*
X4263681Y2957500D01*
D02*
G37*
G36*
X2541935Y2860000D02*
X2518065D01*
X2496013Y2850866D01*
X2479134Y2833987D01*
X2470000Y2811935D01*
Y2788065D01*
X2479134Y2766013D01*
X2496013Y2749134D01*
X2518065Y2740000D01*
X2541935D01*
X2563987Y2749134D01*
X2580866Y2766013D01*
X2590000Y2788065D01*
Y2811935D01*
X2580866Y2833987D01*
X2563987Y2850866D01*
X2541935Y2860000D01*
D02*
G37*
G36*
X4431935Y2820000D02*
X4408065D01*
X4386013Y2810866D01*
X4369135Y2793987D01*
X4360000Y2771935D01*
Y2748065D01*
X4369135Y2726013D01*
X4386013Y2709135D01*
X4408065Y2700000D01*
X4431935D01*
X4453987Y2709135D01*
X4470866Y2726013D01*
X4480000Y2748065D01*
Y2771935D01*
X4470866Y2793987D01*
X4453987Y2810866D01*
X4431935Y2820000D01*
D02*
G37*
G36*
X4261935Y2800000D02*
X4238065D01*
X4216013Y2790866D01*
X4199134Y2773987D01*
X4190000Y2751935D01*
Y2728065D01*
X4199134Y2706013D01*
X4216013Y2689135D01*
X4238065Y2680000D01*
X4261935D01*
X4283987Y2689135D01*
X4300865Y2706013D01*
X4310000Y2728065D01*
Y2751935D01*
X4300865Y2773987D01*
X4283987Y2790866D01*
X4261935Y2800000D01*
D02*
G37*
G36*
X2421935Y2730000D02*
X2398065D01*
X2376013Y2720866D01*
X2359134Y2703987D01*
X2350000Y2681935D01*
Y2658065D01*
X2359134Y2636013D01*
X2376013Y2619134D01*
X2398065Y2610000D01*
X2421935D01*
X2443987Y2619134D01*
X2460866Y2636013D01*
X2470000Y2658065D01*
Y2681935D01*
X2460866Y2703987D01*
X2443987Y2720866D01*
X2421935Y2730000D01*
D02*
G37*
G36*
X4671935Y2720000D02*
X4648065D01*
X4626013Y2710866D01*
X4609135Y2693987D01*
X4600000Y2671935D01*
Y2648065D01*
X4609135Y2626013D01*
X4626013Y2609134D01*
X4648065Y2600000D01*
X4671935D01*
X4693987Y2609134D01*
X4710866Y2626013D01*
X4720000Y2648065D01*
Y2671935D01*
X4710866Y2693987D01*
X4693987Y2710866D01*
X4671935Y2720000D01*
D02*
G37*
G36*
X4241935Y2590000D02*
X4218065D01*
X4196013Y2580866D01*
X4179134Y2563987D01*
X4170000Y2541935D01*
Y2518065D01*
X4179134Y2496013D01*
X4196013Y2479134D01*
X4218065Y2470000D01*
X4241935D01*
X4263987Y2479134D01*
X4280865Y2496013D01*
X4290000Y2518065D01*
Y2541935D01*
X4280865Y2563987D01*
X4263987Y2580866D01*
X4241935Y2590000D01*
D02*
G37*
G36*
X3621935D02*
X3598065D01*
X3576013Y2580866D01*
X3559134Y2563987D01*
X3550000Y2541935D01*
Y2518065D01*
X3559134Y2496013D01*
X3576013Y2479134D01*
X3598065Y2470000D01*
X3621935D01*
X3643987Y2479134D01*
X3660865Y2496013D01*
X3670000Y2518065D01*
Y2541935D01*
X3660865Y2563987D01*
X3643987Y2580866D01*
X3621935Y2590000D01*
D02*
G37*
G36*
X4031935Y2510000D02*
X4008065D01*
X3986013Y2500865D01*
X3969135Y2483987D01*
X3963118Y2469462D01*
X3946882D01*
X3940866Y2483987D01*
X3923987Y2500865D01*
X3901935Y2510000D01*
X3878065D01*
X3856013Y2500865D01*
X3839135Y2483987D01*
X3830000Y2461935D01*
Y2438065D01*
X3839135Y2416013D01*
X3856013Y2399134D01*
X3878065Y2390000D01*
X3901935D01*
X3923987Y2399134D01*
X3940866Y2416013D01*
X3946882Y2430538D01*
X3963118D01*
X3969135Y2416013D01*
X3986013Y2399134D01*
X4008065Y2390000D01*
X4031935D01*
X4053987Y2399134D01*
X4070866Y2416013D01*
X4080000Y2438065D01*
Y2461935D01*
X4070866Y2483987D01*
X4053987Y2500865D01*
X4031935Y2510000D01*
D02*
G37*
G36*
X5021935D02*
X4998065D01*
X4976013Y2500865D01*
X4959134Y2483987D01*
X4950000Y2461935D01*
Y2438065D01*
X4959134Y2416013D01*
X4976013Y2399134D01*
X4998065Y2390000D01*
X5021935D01*
X5043987Y2399134D01*
X5060865Y2416013D01*
X5070000Y2438065D01*
Y2461935D01*
X5060865Y2483987D01*
X5043987Y2500865D01*
X5021935Y2510000D01*
D02*
G37*
G36*
X3321935Y2480000D02*
X3298065D01*
X3276013Y2470866D01*
X3259134Y2453987D01*
X3250000Y2431935D01*
Y2408065D01*
X3259134Y2386013D01*
X3276013Y2369134D01*
X3298065Y2360000D01*
X3321935D01*
X3343987Y2369134D01*
X3360866Y2386013D01*
X3370000Y2408065D01*
Y2431935D01*
X3360866Y2453987D01*
X3343987Y2470866D01*
X3321935Y2480000D01*
D02*
G37*
G36*
X4491936Y2509998D02*
X4468067D01*
X4446014Y2500863D01*
X4429136Y2483985D01*
X4420001Y2461932D01*
Y2438063D01*
X4429136Y2416010D01*
X4446014Y2399132D01*
X4468067Y2389998D01*
X4491936D01*
X4493348Y2389054D01*
X4500341Y2377243D01*
X4509136Y2356011D01*
X4526014Y2339132D01*
X4548066Y2329998D01*
X4571936D01*
X4593988Y2339132D01*
X4610867Y2356011D01*
X4620001Y2378063D01*
Y2401932D01*
X4610867Y2423985D01*
X4593988Y2440863D01*
X4571936Y2449998D01*
X4548067D01*
X4546654Y2450942D01*
X4539661Y2462752D01*
X4530867Y2483985D01*
X4513988Y2500863D01*
X4491936Y2509998D01*
D02*
G37*
G36*
X2551935Y2330000D02*
X2528065D01*
X2506013Y2320866D01*
X2489134Y2303987D01*
X2480000Y2281935D01*
Y2258065D01*
X2489134Y2236013D01*
X2506013Y2219134D01*
X2528065Y2210000D01*
X2551935D01*
X2573987Y2219134D01*
X2590866Y2236013D01*
X2600000Y2258065D01*
Y2281935D01*
X2590866Y2303987D01*
X2573987Y2320866D01*
X2551935Y2330000D01*
D02*
G37*
G36*
X4021935Y2290000D02*
X3998065D01*
X3976013Y2280866D01*
X3959135Y2263987D01*
X3950000Y2241935D01*
Y2218065D01*
X3959135Y2196013D01*
X3976013Y2179135D01*
X3998065Y2170000D01*
X4021935D01*
X4043987Y2179135D01*
X4060866Y2196013D01*
X4070000Y2218065D01*
Y2241935D01*
X4060866Y2263987D01*
X4043987Y2280866D01*
X4021935Y2290000D01*
D02*
G37*
G36*
X2312509Y2271070D02*
X2288640D01*
X2266587Y2261936D01*
X2249709Y2245057D01*
X2240575Y2223005D01*
Y2199135D01*
X2249709Y2177083D01*
X2266587Y2160204D01*
X2288640Y2151070D01*
X2312509D01*
X2334562Y2160204D01*
X2351440Y2177083D01*
X2360574Y2199135D01*
Y2223005D01*
X2351440Y2245057D01*
X2334562Y2261936D01*
X2312509Y2271070D01*
D02*
G37*
G36*
X2761937Y2200001D02*
X2738067D01*
X2716015Y2190866D01*
X2699137Y2173988D01*
X2690002Y2151935D01*
Y2128066D01*
X2699137Y2106014D01*
X2716015Y2089135D01*
X2738067Y2080001D01*
X2761937D01*
X2783989Y2089135D01*
X2800868Y2106014D01*
X2810002Y2128066D01*
Y2151935D01*
X2800868Y2173988D01*
X2783989Y2190866D01*
X2761937Y2200001D01*
D02*
G37*
G36*
X2571935Y2160000D02*
X2548065D01*
X2526013Y2150866D01*
X2509134Y2133987D01*
X2500000Y2111935D01*
Y2088065D01*
X2509134Y2066013D01*
X2526013Y2049135D01*
X2548065Y2040000D01*
X2571935D01*
X2593987Y2049135D01*
X2610865Y2066013D01*
X2620000Y2088065D01*
Y2111935D01*
X2610865Y2133987D01*
X2593987Y2150866D01*
X2571935Y2160000D01*
D02*
G37*
G36*
X4271935Y2030000D02*
X4248065D01*
X4226013Y2020866D01*
X4209135Y2003987D01*
X4200000Y1981935D01*
Y1958065D01*
X4209135Y1936013D01*
X4226013Y1919135D01*
X4248065Y1910000D01*
X4271935D01*
X4293987Y1919135D01*
X4310866Y1936013D01*
X4320000Y1958065D01*
Y1981935D01*
X4310866Y2003987D01*
X4293987Y2020866D01*
X4271935Y2030000D01*
D02*
G37*
G36*
X2131935Y1990000D02*
X2108065D01*
X2086013Y1980865D01*
X2069135Y1963987D01*
X2060000Y1941935D01*
Y1918065D01*
X2069135Y1896013D01*
X2086013Y1879134D01*
X2108065Y1870000D01*
X2131935D01*
X2153987Y1879134D01*
X2170866Y1896013D01*
X2180000Y1918065D01*
Y1941935D01*
X2170866Y1963987D01*
X2153987Y1980865D01*
X2131935Y1990000D01*
D02*
G37*
G36*
X2631935Y1800000D02*
X2608065D01*
X2586013Y1790866D01*
X2569135Y1773987D01*
X2560000Y1751935D01*
Y1728065D01*
X2569135Y1706013D01*
X2586013Y1689135D01*
X2608065Y1680000D01*
X2631935D01*
X2653987Y1689135D01*
X2670866Y1706013D01*
X2680000Y1728065D01*
Y1751935D01*
X2670866Y1773987D01*
X2653987Y1790866D01*
X2631935Y1800000D01*
D02*
G37*
G36*
X2731935Y1660000D02*
X2708065D01*
X2686013Y1650866D01*
X2669134Y1633987D01*
X2660000Y1611935D01*
Y1588065D01*
X2669134Y1566013D01*
X2686013Y1549135D01*
X2708065Y1540000D01*
X2731935D01*
X2753987Y1549135D01*
X2770865Y1566013D01*
X2780000Y1588065D01*
Y1611935D01*
X2770865Y1633987D01*
X2753987Y1650866D01*
X2731935Y1660000D01*
D02*
G37*
G36*
X4061935Y1590000D02*
X4038065D01*
X4016013Y1580866D01*
X3999134Y1563987D01*
X3990000Y1541935D01*
Y1518065D01*
X3999134Y1496013D01*
X4016013Y1479134D01*
X4038065Y1470000D01*
X4061935D01*
X4083987Y1479134D01*
X4100866Y1496013D01*
X4110000Y1518065D01*
Y1541935D01*
X4100866Y1563987D01*
X4083987Y1580866D01*
X4061935Y1590000D01*
D02*
G37*
G36*
X1991935Y1583733D02*
X1968065D01*
X1946013Y1574599D01*
X1929135Y1557721D01*
X1920000Y1535668D01*
Y1511799D01*
X1929135Y1489746D01*
X1946013Y1472868D01*
X1968065Y1463734D01*
X1991935D01*
X2013987Y1472868D01*
X2030866Y1489746D01*
X2040000Y1511799D01*
Y1535668D01*
X2030866Y1557721D01*
X2013987Y1574599D01*
X1991935Y1583733D01*
D02*
G37*
G36*
X5671935Y1560000D02*
X5648065D01*
X5626013Y1550866D01*
X5609135Y1533987D01*
X5600000Y1511935D01*
Y1488065D01*
X5609135Y1466013D01*
X5626013Y1449135D01*
X5648065Y1440000D01*
X5671935D01*
X5693987Y1449135D01*
X5710866Y1466013D01*
X5720000Y1488065D01*
Y1511935D01*
X5710866Y1533987D01*
X5693987Y1550866D01*
X5671935Y1560000D01*
D02*
G37*
G36*
X4431347Y1519076D02*
X4407477D01*
X4385425Y1509942D01*
X4368547Y1493064D01*
X4359412Y1471011D01*
Y1447142D01*
X4368547Y1425089D01*
X4385425Y1408211D01*
X4407477Y1399077D01*
X4431347D01*
X4453399Y1408211D01*
X4470278Y1425089D01*
X4479412Y1447142D01*
Y1471011D01*
X4470278Y1493064D01*
X4453399Y1509942D01*
X4431347Y1519076D01*
D02*
G37*
G36*
X2811935Y1440000D02*
X2788065D01*
X2766013Y1430866D01*
X2749134Y1413987D01*
X2740000Y1391935D01*
Y1368065D01*
X2749134Y1346013D01*
X2766013Y1329135D01*
X2788065Y1320000D01*
X2811935D01*
X2833987Y1329135D01*
X2850866Y1346013D01*
X2860000Y1368065D01*
Y1391935D01*
X2850866Y1413987D01*
X2833987Y1430866D01*
X2811935Y1440000D01*
D02*
G37*
G36*
X5570430Y1439464D02*
X5546561D01*
X5524508Y1430330D01*
X5507630Y1413452D01*
X5498495Y1391399D01*
Y1367530D01*
X5507630Y1345477D01*
X5524508Y1328599D01*
X5546561Y1319465D01*
X5570430D01*
X5592483Y1328599D01*
X5609361Y1345477D01*
X5618495Y1367530D01*
Y1391399D01*
X5609361Y1413452D01*
X5592483Y1430330D01*
X5570430Y1439464D01*
D02*
G37*
G36*
X2251935Y1430000D02*
X2228065D01*
X2206013Y1420865D01*
X2189135Y1403987D01*
X2180000Y1381934D01*
Y1358065D01*
X2189135Y1336013D01*
X2206013Y1319134D01*
X2228065Y1310000D01*
X2251935D01*
X2273987Y1319134D01*
X2290866Y1336013D01*
X2300000Y1358065D01*
Y1381934D01*
X2290866Y1403987D01*
X2273987Y1420865D01*
X2251935Y1430000D01*
D02*
G37*
G36*
X4441935Y1360000D02*
X4418065D01*
X4396013Y1350865D01*
X4379134Y1333987D01*
X4370000Y1311935D01*
Y1288065D01*
X4379134Y1266013D01*
X4396013Y1249134D01*
X4418065Y1240000D01*
X4441935D01*
X4463987Y1249134D01*
X4480866Y1266013D01*
X4490000Y1288065D01*
Y1311935D01*
X4480866Y1333987D01*
X4463987Y1350865D01*
X4441935Y1360000D01*
D02*
G37*
G36*
X4681935Y1220000D02*
X4658065D01*
X4636013Y1210865D01*
X4619135Y1193987D01*
X4610000Y1171935D01*
Y1148065D01*
X4619135Y1126013D01*
X4636013Y1109134D01*
X4658065Y1100000D01*
X4681935D01*
X4703987Y1109134D01*
X4720866Y1126013D01*
X4730000Y1148065D01*
Y1171935D01*
X4720866Y1193987D01*
X4703987Y1210865D01*
X4681935Y1220000D01*
D02*
G37*
G36*
X1925726Y1310948D02*
X1901856D01*
X1879804Y1301813D01*
X1862926Y1284935D01*
X1853791Y1262882D01*
Y1239013D01*
X1862926Y1216960D01*
X1876512Y1203375D01*
X1876013Y1200865D01*
X1859134Y1183987D01*
X1850000Y1161935D01*
Y1138065D01*
X1859134Y1116013D01*
X1876013Y1099134D01*
X1898065Y1090000D01*
X1921935D01*
X1943987Y1099134D01*
X1960866Y1116013D01*
X1970000Y1138065D01*
Y1161935D01*
X1960866Y1183987D01*
X1947280Y1197573D01*
X1947779Y1200082D01*
X1964657Y1216960D01*
X1973791Y1239013D01*
Y1262882D01*
X1964657Y1284935D01*
X1947778Y1301813D01*
X1925726Y1310948D01*
D02*
G37*
G36*
X1725750Y1081798D02*
X1618250D01*
X1592401Y1076656D01*
X1570487Y1062013D01*
X1555844Y1040099D01*
X1550702Y1014250D01*
Y941750D01*
X1555844Y915900D01*
X1570487Y893986D01*
X1592401Y879344D01*
X1618250Y874202D01*
X1725750D01*
X1751599Y879344D01*
X1773513Y893986D01*
X1788156Y915900D01*
X1793298Y941750D01*
Y1014250D01*
X1788156Y1040099D01*
X1773513Y1062013D01*
X1751599Y1076656D01*
X1725750Y1081798D01*
D02*
G37*
G36*
X2411935Y930000D02*
X2388065D01*
X2366013Y920866D01*
X2349134Y903987D01*
X2340000Y881935D01*
Y858065D01*
X2349134Y836013D01*
X2366013Y819135D01*
X2388065Y810000D01*
X2411935D01*
X2433987Y819135D01*
X2450866Y836013D01*
X2460000Y858065D01*
Y881935D01*
X2450866Y903987D01*
X2433987Y920866D01*
X2411935Y930000D01*
D02*
G37*
G36*
X2161935D02*
X2138065D01*
X2116013Y920866D01*
X2099134Y903987D01*
X2090000Y881935D01*
Y858065D01*
X2099134Y836013D01*
X2116013Y819135D01*
X2138065Y810000D01*
X2161935D01*
X2183987Y819135D01*
X2200866Y836013D01*
X2210000Y858065D01*
Y881935D01*
X2200866Y903987D01*
X2183987Y920866D01*
X2161935Y930000D01*
D02*
G37*
G36*
X5041935Y910000D02*
X5018065D01*
X4996013Y900866D01*
X4979135Y883987D01*
X4970000Y861935D01*
Y838065D01*
X4979135Y816013D01*
X4996013Y799135D01*
X5018065Y790000D01*
X5041935D01*
X5063987Y799135D01*
X5080866Y816013D01*
X5090000Y838065D01*
Y861935D01*
X5080866Y883987D01*
X5063987Y900866D01*
X5041935Y910000D01*
D02*
G37*
G36*
X4881935D02*
X4858065D01*
X4836013Y900866D01*
X4819134Y883987D01*
X4810000Y861935D01*
Y838065D01*
X4819134Y816013D01*
X4836013Y799135D01*
X4858065Y790000D01*
X4881935D01*
X4903987Y799135D01*
X4920865Y816013D01*
X4930000Y838065D01*
Y861935D01*
X4920865Y883987D01*
X4903987Y900866D01*
X4881935Y910000D01*
D02*
G37*
G36*
X3551935Y850000D02*
X3528065D01*
X3506013Y840865D01*
X3489135Y823987D01*
X3480000Y801935D01*
Y778065D01*
X3489135Y756013D01*
X3506013Y739134D01*
X3528065Y730000D01*
X3551935D01*
X3573987Y739134D01*
X3590866Y756013D01*
X3600000Y778065D01*
Y801935D01*
X3590866Y823987D01*
X3573987Y840865D01*
X3551935Y850000D01*
D02*
G37*
G36*
X4141935Y840000D02*
X4118065D01*
X4096013Y830865D01*
X4079135Y813987D01*
X4070000Y791935D01*
Y768065D01*
X4079135Y746013D01*
X4096013Y729134D01*
X4118065Y720000D01*
X4141935D01*
X4163987Y729134D01*
X4180866Y746013D01*
X4190000Y768065D01*
Y791935D01*
X4180866Y813987D01*
X4163987Y830865D01*
X4141935Y840000D01*
D02*
G37*
G36*
X3871935D02*
X3848065D01*
X3826013Y830865D01*
X3809134Y813987D01*
X3800000Y791935D01*
Y768065D01*
X3809134Y746013D01*
X3826013Y729134D01*
X3848065Y720000D01*
X3871935D01*
X3893987Y729134D01*
X3910865Y746013D01*
X3920000Y768065D01*
Y791935D01*
X3910865Y813987D01*
X3893987Y830865D01*
X3871935Y840000D01*
D02*
G37*
G36*
X3301935Y780000D02*
X3278065D01*
X3256013Y770866D01*
X3239134Y753987D01*
X3230000Y731935D01*
Y708065D01*
X3239134Y686013D01*
X3256013Y669135D01*
X3278065Y660000D01*
X3301935D01*
X3323987Y669135D01*
X3340866Y686013D01*
X3350000Y708065D01*
Y731935D01*
X3340866Y753987D01*
X3323987Y770866D01*
X3301935Y780000D01*
D02*
G37*
G36*
X4061935Y980000D02*
X4038065D01*
X4016013Y970865D01*
X3999134Y953987D01*
X3990000Y931935D01*
Y928470D01*
X3989664Y926394D01*
X3988598Y921726D01*
X3988249Y920593D01*
X3987829Y919463D01*
X3987545Y918826D01*
X3959359Y890640D01*
X3949966Y876582D01*
X3946667Y860000D01*
Y717949D01*
X3826426Y597707D01*
X3821826Y590822D01*
X3772500D01*
X3759793Y588294D01*
X3752404Y602119D01*
X3763041Y612756D01*
X3772176Y634808D01*
Y658678D01*
X3763041Y680730D01*
X3746163Y697608D01*
X3724110Y706743D01*
X3700241D01*
X3678188Y697608D01*
X3661310Y680730D01*
X3652176Y658678D01*
Y634808D01*
X3661310Y612756D01*
X3678188Y595877D01*
X3700241Y586743D01*
X3720900D01*
X3726656Y575171D01*
X3727159Y572885D01*
X3723836Y570664D01*
X3708917Y548337D01*
X3703678Y522000D01*
Y407000D01*
X3708917Y380663D01*
X3723836Y358336D01*
X3746163Y343417D01*
X3772500Y338178D01*
X3847500D01*
X3873837Y343417D01*
X3896164Y358336D01*
X3911083Y380663D01*
X3916322Y407000D01*
Y522000D01*
X3911083Y548337D01*
X3906491Y555210D01*
X4020640Y669359D01*
X4030034Y683417D01*
X4033332Y700000D01*
Y842051D01*
X4048826Y857545D01*
X4049461Y857828D01*
X4050594Y858249D01*
X4051726Y858598D01*
X4056394Y859664D01*
X4058470Y860000D01*
X4061935D01*
X4083987Y869134D01*
X4100866Y886013D01*
X4110000Y908065D01*
Y931935D01*
X4100866Y953987D01*
X4083987Y970865D01*
X4061935Y980000D01*
D02*
G37*
G36*
X1550000Y835000D02*
X1410000D01*
X1340000Y765000D01*
Y625000D01*
X1410000Y555000D01*
X1550000D01*
X1620000Y625000D01*
Y765000D01*
X1550000Y835000D01*
D02*
G37*
G36*
X2069500Y595920D02*
X2042000D01*
Y474500D01*
X2143420D01*
Y522000D01*
X2137793Y550288D01*
X2121769Y574269D01*
X2097788Y590293D01*
X2069500Y595920D01*
D02*
G37*
G36*
X2022000D02*
X1994500D01*
X1966212Y590293D01*
X1942231Y574269D01*
X1926207Y550288D01*
X1920580Y522000D01*
Y474500D01*
X2022000D01*
Y595920D01*
D02*
G37*
G36*
X1535000Y491763D02*
X1490000D01*
Y355000D01*
X1626763D01*
Y400000D01*
X1619778Y435116D01*
X1599887Y464887D01*
X1570116Y484778D01*
X1535000Y491763D01*
D02*
G37*
G36*
X1470000D02*
X1425000D01*
X1389884Y484778D01*
X1360114Y464887D01*
X1340222Y435116D01*
X1333237Y400000D01*
Y355000D01*
X1470000D01*
Y491763D01*
D02*
G37*
G36*
X4151935Y702500D02*
X4128065D01*
X4106013Y693366D01*
X4089135Y676487D01*
X4080000Y654435D01*
Y630565D01*
X4089135Y608513D01*
X4091825Y605822D01*
X4085612Y590822D01*
X4026500D01*
X4000163Y585583D01*
X3977836Y570664D01*
X3962917Y548337D01*
X3957678Y522000D01*
Y407000D01*
X3962917Y380663D01*
X3977836Y358336D01*
X4000163Y343417D01*
X4026500Y338178D01*
X4101500D01*
X4127837Y343417D01*
X4150164Y358336D01*
X4165083Y380663D01*
X4170322Y407000D01*
Y522000D01*
X4165083Y548337D01*
X4152204Y567612D01*
X4152140Y571155D01*
X4154136Y579188D01*
X4156574Y584422D01*
X4173987Y591635D01*
X4190866Y608513D01*
X4200000Y630565D01*
Y654435D01*
X4190866Y676487D01*
X4173987Y693366D01*
X4151935Y702500D01*
D02*
G37*
G36*
X3593500Y590822D02*
X3518500D01*
X3492163Y585583D01*
X3469836Y570664D01*
X3454917Y548337D01*
X3449678Y522000D01*
Y407000D01*
X3454917Y380663D01*
X3469836Y358336D01*
X3492163Y343417D01*
X3518500Y338178D01*
X3593500D01*
X3619837Y343417D01*
X3642164Y358336D01*
X3657083Y380663D01*
X3662322Y407000D01*
Y522000D01*
X3657083Y548337D01*
X3642164Y570664D01*
X3619837Y585583D01*
X3593500Y590822D01*
D02*
G37*
G36*
X3339500D02*
X3264500D01*
X3238163Y585583D01*
X3215836Y570664D01*
X3200917Y548337D01*
X3195678Y522000D01*
Y407000D01*
X3200917Y380663D01*
X3215836Y358336D01*
X3238163Y343417D01*
X3264500Y338178D01*
X3339500D01*
X3365837Y343417D01*
X3388164Y358336D01*
X3403083Y380663D01*
X3408322Y407000D01*
Y522000D01*
X3403083Y548337D01*
X3388164Y570664D01*
X3365837Y585583D01*
X3339500Y590822D01*
D02*
G37*
G36*
X3085500D02*
X3010500D01*
X2984163Y585583D01*
X2961836Y570664D01*
X2946917Y548337D01*
X2941678Y522000D01*
Y407000D01*
X2946917Y380663D01*
X2961836Y358336D01*
X2984163Y343417D01*
X3010500Y338178D01*
X3085500D01*
X3111837Y343417D01*
X3134164Y358336D01*
X3149083Y380663D01*
X3154322Y407000D01*
Y522000D01*
X3149083Y548337D01*
X3134164Y570664D01*
X3111837Y585583D01*
X3085500Y590822D01*
D02*
G37*
G36*
X2831500D02*
X2756500D01*
X2730163Y585583D01*
X2707836Y570664D01*
X2692917Y548337D01*
X2687678Y522000D01*
Y407000D01*
X2692917Y380663D01*
X2707836Y358336D01*
X2730163Y343417D01*
X2756500Y338178D01*
X2831500D01*
X2857837Y343417D01*
X2880164Y358336D01*
X2895083Y380663D01*
X2900322Y407000D01*
Y522000D01*
X2895083Y548337D01*
X2880164Y570664D01*
X2857837Y585583D01*
X2831500Y590822D01*
D02*
G37*
G36*
X2577500D02*
X2502500D01*
X2476163Y585583D01*
X2453836Y570664D01*
X2438917Y548337D01*
X2433678Y522000D01*
Y407000D01*
X2438917Y380663D01*
X2453836Y358336D01*
X2476163Y343417D01*
X2502500Y338178D01*
X2577500D01*
X2603837Y343417D01*
X2626164Y358336D01*
X2641083Y380663D01*
X2646322Y407000D01*
Y522000D01*
X2641083Y548337D01*
X2626164Y570664D01*
X2603837Y585583D01*
X2577500Y590822D01*
D02*
G37*
G36*
X2323500D02*
X2248500D01*
X2222163Y585583D01*
X2199836Y570664D01*
X2184917Y548337D01*
X2179678Y522000D01*
Y407000D01*
X2184917Y380663D01*
X2199836Y358336D01*
X2222163Y343417D01*
X2248500Y338178D01*
X2323500D01*
X2349837Y343417D01*
X2372164Y358336D01*
X2387083Y380663D01*
X2392322Y407000D01*
Y522000D01*
X2387083Y548337D01*
X2372164Y570664D01*
X2349837Y585583D01*
X2323500Y590822D01*
D02*
G37*
G36*
X2143420Y454500D02*
X2042000D01*
Y333080D01*
X2069500D01*
X2097788Y338707D01*
X2121769Y354731D01*
X2137793Y378712D01*
X2143420Y407000D01*
Y454500D01*
D02*
G37*
G36*
X2022000D02*
X1920580D01*
Y407000D01*
X1926207Y378712D01*
X1942231Y354731D01*
X1966212Y338707D01*
X1994500Y333080D01*
X2022000D01*
Y454500D01*
D02*
G37*
G36*
X1626763Y335000D02*
X1490000D01*
Y198237D01*
X1535000D01*
X1570116Y205222D01*
X1599887Y225114D01*
X1619778Y254884D01*
X1626763Y290000D01*
Y335000D01*
D02*
G37*
G36*
X1470000D02*
X1333237D01*
Y290000D01*
X1340222Y254884D01*
X1360114Y225114D01*
X1389884Y205222D01*
X1425000Y198237D01*
X1470000D01*
Y335000D01*
D02*
G37*
G36*
X2069500Y301920D02*
X2042000D01*
Y180500D01*
X2143420D01*
Y228000D01*
X2137793Y256288D01*
X2121769Y280269D01*
X2097788Y296293D01*
X2069500Y301920D01*
D02*
G37*
G36*
X2022000D02*
X1994500D01*
X1966212Y296293D01*
X1942231Y280269D01*
X1926207Y256288D01*
X1920580Y228000D01*
Y180500D01*
X2022000D01*
Y301920D01*
D02*
G37*
%LPD*%
G36*
X4054224Y890299D02*
X4050541Y889702D01*
X4043803Y888164D01*
X4040749Y887222D01*
X4037904Y886164D01*
X4035269Y884992D01*
X4032844Y883704D01*
X4030628Y882301D01*
X4028623Y880783D01*
X4026827Y879149D01*
X4009149Y896827D01*
X4010783Y898623D01*
X4012301Y900628D01*
X4013704Y902844D01*
X4014992Y905269D01*
X4016164Y907904D01*
X4017222Y910748D01*
X4018164Y913803D01*
X4019702Y920541D01*
X4020299Y924224D01*
X4054224Y890299D01*
D02*
G37*
%LPC*%
G36*
X8459500Y3979822D02*
X8344500D01*
X8318163Y3974583D01*
X8295836Y3959664D01*
X8280917Y3937337D01*
X8275678Y3911000D01*
Y3836000D01*
X8280917Y3809663D01*
X8295836Y3787336D01*
X8318163Y3772417D01*
X8344500Y3767178D01*
X8459500D01*
X8485837Y3772417D01*
X8508164Y3787336D01*
X8523083Y3809663D01*
X8528322Y3836000D01*
Y3911000D01*
X8523083Y3937337D01*
X8508164Y3959664D01*
X8485837Y3974583D01*
X8459500Y3979822D01*
D02*
G37*
G36*
Y3725822D02*
X8344500D01*
X8318163Y3720583D01*
X8295836Y3705664D01*
X8280917Y3683337D01*
X8275678Y3657000D01*
Y3582000D01*
X8280917Y3555663D01*
X8295836Y3533336D01*
X8318163Y3518417D01*
X8344500Y3513178D01*
X8459500D01*
X8485837Y3518417D01*
X8508164Y3533336D01*
X8523083Y3555663D01*
X8528322Y3582000D01*
Y3657000D01*
X8523083Y3683337D01*
X8508164Y3705664D01*
X8485837Y3720583D01*
X8459500Y3725822D01*
D02*
G37*
G36*
Y3471822D02*
X8344500D01*
X8318163Y3466583D01*
X8295836Y3451664D01*
X8280917Y3429337D01*
X8275678Y3403000D01*
Y3328000D01*
X8280917Y3301663D01*
X8295836Y3279336D01*
X8318163Y3264417D01*
X8344500Y3259178D01*
X8459500D01*
X8485837Y3264417D01*
X8508164Y3279336D01*
X8523083Y3301663D01*
X8528322Y3328000D01*
Y3403000D01*
X8523083Y3429337D01*
X8508164Y3451664D01*
X8485837Y3466583D01*
X8459500Y3471822D01*
D02*
G37*
G36*
Y3222920D02*
X8412000D01*
Y3121500D01*
X8533420D01*
Y3149000D01*
X8527793Y3177288D01*
X8511769Y3201269D01*
X8487788Y3217293D01*
X8459500Y3222920D01*
D02*
G37*
G36*
X8392000D02*
X8344500D01*
X8316212Y3217293D01*
X8292231Y3201269D01*
X8276207Y3177288D01*
X8270580Y3149000D01*
Y3121500D01*
X8392000D01*
Y3222920D01*
D02*
G37*
G36*
X8533420Y3101500D02*
X8412000D01*
Y3000080D01*
X8459500D01*
X8487788Y3005707D01*
X8511769Y3021731D01*
X8527793Y3045712D01*
X8533420Y3074000D01*
Y3101500D01*
D02*
G37*
G36*
X8392000D02*
X8270580D01*
Y3074000D01*
X8276207Y3045712D01*
X8292231Y3021731D01*
X8316212Y3005707D01*
X8344500Y3000080D01*
X8392000D01*
Y3101500D01*
D02*
G37*
G36*
X8199935Y2974999D02*
X8176065D01*
X8154013Y2965865D01*
X8137134Y2948986D01*
X8128000Y2926934D01*
Y2903065D01*
X8137134Y2881012D01*
X8154013Y2864134D01*
X8176065Y2854999D01*
X8199935D01*
X8221987Y2864134D01*
X8238865Y2881012D01*
X8248000Y2903065D01*
Y2926934D01*
X8238865Y2948986D01*
X8221987Y2965865D01*
X8199935Y2974999D01*
D02*
G37*
G36*
X8461935Y2960000D02*
X8438065D01*
X8416013Y2950866D01*
X8399135Y2933987D01*
X8390000Y2911935D01*
Y2888065D01*
X8399135Y2866013D01*
X8416013Y2849135D01*
X8438065Y2840000D01*
X8461935D01*
X8483987Y2849135D01*
X8500866Y2866013D01*
X8510000Y2888065D01*
Y2911935D01*
X8500866Y2933987D01*
X8483987Y2950866D01*
X8461935Y2960000D01*
D02*
G37*
G36*
X6019607Y2788597D02*
X5995737D01*
X5973685Y2779463D01*
X5956806Y2762584D01*
X5947672Y2740532D01*
Y2716662D01*
X5956806Y2694610D01*
X5973685Y2677731D01*
X5995737Y2668597D01*
X6019607D01*
X6041659Y2677731D01*
X6058538Y2694610D01*
X6067672Y2716662D01*
Y2740532D01*
X6058538Y2762584D01*
X6041659Y2779463D01*
X6019607Y2788597D01*
D02*
G37*
G36*
X8312975Y2717970D02*
X8289106D01*
X8267053Y2708836D01*
X8250175Y2691957D01*
X8241041Y2669905D01*
Y2646035D01*
X8250175Y2623983D01*
X8267053Y2607105D01*
X8289106Y2597970D01*
X8312975D01*
X8335028Y2607105D01*
X8351906Y2623983D01*
X8361040Y2646035D01*
Y2669905D01*
X8351906Y2691957D01*
X8335028Y2708836D01*
X8312975Y2717970D01*
D02*
G37*
G36*
X8479564Y2603086D02*
X8455694D01*
X8433642Y2593951D01*
X8416763Y2577073D01*
X8407629Y2555021D01*
Y2531151D01*
X8416763Y2509099D01*
X8433642Y2492220D01*
X8455694Y2483086D01*
X8479564D01*
X8501616Y2492220D01*
X8518495Y2509099D01*
X8527629Y2531151D01*
Y2555021D01*
X8518495Y2577073D01*
X8501616Y2593951D01*
X8479564Y2603086D01*
D02*
G37*
G36*
X6220049Y1623867D02*
X6196179D01*
X6174127Y1614733D01*
X6157248Y1597855D01*
X6148114Y1575802D01*
Y1551933D01*
X6157248Y1529880D01*
X6174127Y1513002D01*
X6196179Y1503868D01*
X6220049D01*
X6242101Y1513002D01*
X6258979Y1529880D01*
X6268114Y1551933D01*
Y1575802D01*
X6258979Y1597855D01*
X6242101Y1614733D01*
X6220049Y1623867D01*
D02*
G37*
G36*
X8459500Y1693822D02*
X8344500D01*
X8318163Y1688583D01*
X8295836Y1673664D01*
X8280917Y1651337D01*
X8275678Y1625000D01*
Y1550000D01*
X8280917Y1523663D01*
X8295836Y1501336D01*
X8318163Y1486417D01*
X8344500Y1481178D01*
X8459500D01*
X8485837Y1486417D01*
X8508164Y1501336D01*
X8523083Y1523663D01*
X8528322Y1550000D01*
Y1625000D01*
X8523083Y1651337D01*
X8508164Y1673664D01*
X8485837Y1688583D01*
X8459500Y1693822D01*
D02*
G37*
G36*
X8165500D02*
X8050500D01*
X8024163Y1688583D01*
X8001836Y1673664D01*
X7986917Y1651337D01*
X7981678Y1625000D01*
Y1550000D01*
X7986917Y1523663D01*
X8001836Y1501336D01*
X8024163Y1486417D01*
X8050500Y1481178D01*
X8165500D01*
X8191837Y1486417D01*
X8214164Y1501336D01*
X8229083Y1523663D01*
X8234322Y1550000D01*
Y1625000D01*
X8229083Y1651337D01*
X8214164Y1673664D01*
X8191837Y1688583D01*
X8165500Y1693822D01*
D02*
G37*
G36*
X7392004Y1501414D02*
X7368134D01*
X7346082Y1492280D01*
X7329204Y1475402D01*
X7320069Y1453349D01*
Y1429480D01*
X7329204Y1407427D01*
X7346082Y1390549D01*
X7368134Y1381415D01*
X7392004D01*
X7414056Y1390549D01*
X7430935Y1407427D01*
X7440069Y1429480D01*
Y1453349D01*
X7430935Y1475402D01*
X7414056Y1492280D01*
X7392004Y1501414D01*
D02*
G37*
G36*
X6002582Y1491763D02*
X5978712D01*
X5956660Y1482629D01*
X5939781Y1465750D01*
X5930647Y1443698D01*
Y1419829D01*
X5939781Y1397776D01*
X5956660Y1380898D01*
X5978712Y1371763D01*
X6002582D01*
X6024634Y1380898D01*
X6041512Y1397776D01*
X6050647Y1419829D01*
Y1443698D01*
X6041512Y1465750D01*
X6024634Y1482629D01*
X6002582Y1491763D01*
D02*
G37*
G36*
X8459500Y1439822D02*
X8344500D01*
X8318163Y1434583D01*
X8295836Y1419664D01*
X8280917Y1397337D01*
X8275678Y1371000D01*
Y1296000D01*
X8280917Y1269663D01*
X8295836Y1247336D01*
X8318163Y1232417D01*
X8344500Y1227178D01*
X8459500D01*
X8485837Y1232417D01*
X8508164Y1247336D01*
X8523083Y1269663D01*
X8528322Y1296000D01*
Y1371000D01*
X8523083Y1397337D01*
X8508164Y1419664D01*
X8485837Y1434583D01*
X8459500Y1439822D01*
D02*
G37*
G36*
X8165500D02*
X8050500D01*
X8024163Y1434583D01*
X8001836Y1419664D01*
X7986917Y1397337D01*
X7981678Y1371000D01*
Y1296000D01*
X7986917Y1269663D01*
X8001836Y1247336D01*
X8024163Y1232417D01*
X8050500Y1227178D01*
X8165500D01*
X8191837Y1232417D01*
X8214164Y1247336D01*
X8229083Y1269663D01*
X8234322Y1296000D01*
Y1371000D01*
X8229083Y1397337D01*
X8214164Y1419664D01*
X8191837Y1434583D01*
X8165500Y1439822D01*
D02*
G37*
G36*
X7402344Y1322426D02*
X7378474D01*
X7356422Y1313292D01*
X7339544Y1296413D01*
X7330409Y1274361D01*
Y1250492D01*
X7339544Y1228439D01*
X7356422Y1211561D01*
X7378474Y1202426D01*
X7402344D01*
X7424396Y1211561D01*
X7441275Y1228439D01*
X7450409Y1250492D01*
Y1274361D01*
X7441275Y1296413D01*
X7424396Y1313292D01*
X7402344Y1322426D01*
D02*
G37*
G36*
X8459500Y1185822D02*
X8344500D01*
X8318163Y1180583D01*
X8295836Y1165664D01*
X8280917Y1143337D01*
X8275678Y1117000D01*
Y1042000D01*
X8280917Y1015663D01*
X8295836Y993336D01*
X8318163Y978417D01*
X8344500Y973178D01*
X8459500D01*
X8485837Y978417D01*
X8508164Y993336D01*
X8523083Y1015663D01*
X8528322Y1042000D01*
Y1117000D01*
X8523083Y1143337D01*
X8508164Y1165664D01*
X8485837Y1180583D01*
X8459500Y1185822D01*
D02*
G37*
G36*
X8165500D02*
X8050500D01*
X8024163Y1180583D01*
X8001836Y1165664D01*
X7986917Y1143337D01*
X7981678Y1117000D01*
Y1042000D01*
X7986917Y1015663D01*
X8001836Y993336D01*
X8024163Y978417D01*
X8050500Y973178D01*
X8165500D01*
X8191837Y978417D01*
X8214164Y993336D01*
X8229083Y1015663D01*
X8234322Y1042000D01*
Y1117000D01*
X8229083Y1143337D01*
X8214164Y1165664D01*
X8191837Y1180583D01*
X8165500Y1185822D01*
D02*
G37*
G36*
X6121038Y1066143D02*
X6097168D01*
X6075116Y1057009D01*
X6058237Y1040131D01*
X6049103Y1018078D01*
Y994209D01*
X6058237Y972156D01*
X6075116Y955278D01*
X6097168Y946144D01*
X6121038D01*
X6143090Y955278D01*
X6159968Y972156D01*
X6169103Y994209D01*
Y1018078D01*
X6159968Y1040131D01*
X6143090Y1057009D01*
X6121038Y1066143D01*
D02*
G37*
G36*
X6612119Y1050000D02*
X6588249D01*
X6566197Y1040866D01*
X6549319Y1023987D01*
X6540184Y1001935D01*
Y978065D01*
X6549319Y956013D01*
X6566197Y939135D01*
X6588249Y930000D01*
X6612119D01*
X6634171Y939135D01*
X6651050Y956013D01*
X6660184Y978065D01*
Y1001935D01*
X6651050Y1023987D01*
X6634171Y1040866D01*
X6612119Y1050000D01*
D02*
G37*
G36*
X7101935Y980000D02*
X7078065D01*
X7056013Y970865D01*
X7039135Y953987D01*
X7030000Y931935D01*
Y908065D01*
X7039135Y886013D01*
X7056013Y869134D01*
X7078065Y860000D01*
X7101935D01*
X7123987Y869134D01*
X7140866Y886013D01*
X7150000Y908065D01*
Y931935D01*
X7140866Y953987D01*
X7123987Y970865D01*
X7101935Y980000D01*
D02*
G37*
G36*
X7570376Y940894D02*
X7546507D01*
X7524454Y931760D01*
X7507576Y914882D01*
X7498441Y892829D01*
Y868960D01*
X7507576Y846907D01*
X7524454Y830029D01*
X7546507Y820895D01*
X7570376D01*
X7592429Y830029D01*
X7609307Y846907D01*
X7618441Y868960D01*
Y892829D01*
X7609307Y914882D01*
X7592429Y931760D01*
X7570376Y940894D01*
D02*
G37*
G36*
X6631935Y880000D02*
X6608065D01*
X6586013Y870865D01*
X6569134Y853987D01*
X6560000Y831935D01*
Y808065D01*
X6569134Y786013D01*
X6586013Y769134D01*
X6608065Y760000D01*
X6631935D01*
X6653987Y769134D01*
X6670865Y786013D01*
X6680000Y808065D01*
Y831935D01*
X6670865Y853987D01*
X6653987Y870865D01*
X6631935Y880000D01*
D02*
G37*
G36*
X8459500Y931822D02*
X8344500D01*
X8318163Y926583D01*
X8295836Y911664D01*
X8280917Y889337D01*
X8275678Y863000D01*
Y788000D01*
X8280917Y761663D01*
X8295836Y739336D01*
X8318163Y724417D01*
X8344500Y719178D01*
X8459500D01*
X8485837Y724417D01*
X8508164Y739336D01*
X8523083Y761663D01*
X8528322Y788000D01*
Y863000D01*
X8523083Y889337D01*
X8508164Y911664D01*
X8485837Y926583D01*
X8459500Y931822D01*
D02*
G37*
G36*
X8165500D02*
X8050500D01*
X8024163Y926583D01*
X8001836Y911664D01*
X7986917Y889337D01*
X7981678Y863000D01*
Y788000D01*
X7986917Y761663D01*
X8001836Y739336D01*
X8024163Y724417D01*
X8050500Y719178D01*
X8165500D01*
X8191837Y724417D01*
X8214164Y739336D01*
X8229083Y761663D01*
X8234322Y788000D01*
Y863000D01*
X8229083Y889337D01*
X8214164Y911664D01*
X8191837Y926583D01*
X8165500Y931822D01*
D02*
G37*
G36*
X6898902Y1043032D02*
X6875032D01*
X6852980Y1033898D01*
X6836102Y1017020D01*
X6826967Y994967D01*
Y971098D01*
X6836102Y949045D01*
X6852980Y932167D01*
X6875032Y923033D01*
X6880000D01*
Y918065D01*
X6889135Y896013D01*
X6890842Y894305D01*
X6884629Y879305D01*
X6879655D01*
X6857602Y870170D01*
X6840724Y853292D01*
X6831590Y831240D01*
Y807370D01*
X6840724Y785318D01*
X6857602Y768439D01*
X6879655Y759305D01*
X6880000D01*
Y748065D01*
X6889135Y726013D01*
X6906013Y709134D01*
X6928065Y700000D01*
X6951935D01*
X6973987Y709134D01*
X6990866Y726013D01*
X7000000Y748065D01*
Y771935D01*
X6990866Y793987D01*
X6973987Y810866D01*
X6951935Y820000D01*
X6951590D01*
Y831240D01*
X6942455Y853292D01*
X6940747Y855000D01*
X6946961Y870000D01*
X6951935D01*
X6973987Y879134D01*
X6990866Y896013D01*
X7000000Y918065D01*
Y941935D01*
X6990866Y963987D01*
X6973987Y980865D01*
X6951935Y990000D01*
X6946967D01*
Y994967D01*
X6937833Y1017020D01*
X6920954Y1033898D01*
X6898902Y1043032D01*
D02*
G37*
G36*
X7132344Y812426D02*
X7108474D01*
X7086422Y803292D01*
X7069544Y786413D01*
X7060409Y764361D01*
Y740492D01*
X7069544Y718439D01*
X7086422Y701561D01*
X7108474Y692426D01*
X7132344D01*
X7154396Y701561D01*
X7171275Y718439D01*
X7180409Y740492D01*
Y764361D01*
X7171275Y786413D01*
X7154396Y803292D01*
X7132344Y812426D01*
D02*
G37*
G36*
X6201935Y782500D02*
X6178065D01*
X6156013Y773365D01*
X6139135Y756487D01*
X6130000Y734435D01*
Y710565D01*
X6139135Y688513D01*
X6156013Y671634D01*
X6178065Y662500D01*
X6201935D01*
X6223987Y671634D01*
X6240866Y688513D01*
X6250000Y710565D01*
Y734435D01*
X6240866Y756487D01*
X6223987Y773365D01*
X6201935Y782500D01*
D02*
G37*
G36*
X7592344Y772426D02*
X7568475D01*
X7546422Y763291D01*
X7529544Y746413D01*
X7520409Y724361D01*
Y700491D01*
X7529544Y678439D01*
X7546422Y661560D01*
X7568475Y652426D01*
X7592344D01*
X7614397Y661560D01*
X7631275Y678439D01*
X7640409Y700491D01*
Y724361D01*
X7631275Y746413D01*
X7614397Y763291D01*
X7592344Y772426D01*
D02*
G37*
G36*
X7381791Y990190D02*
X7357922D01*
X7335870Y981055D01*
X7318991Y964177D01*
X7309857Y942125D01*
Y918255D01*
X7318991Y896203D01*
X7335870Y879324D01*
X7355000Y871400D01*
Y858363D01*
X7364135Y836311D01*
X7366140Y834305D01*
X7359927Y819305D01*
X7359655D01*
X7337603Y810171D01*
X7320724Y793293D01*
X7311590Y771240D01*
Y747371D01*
X7320724Y725318D01*
X7337603Y708440D01*
X7357877Y700042D01*
Y680188D01*
X7367011Y658136D01*
X7383889Y641257D01*
X7405942Y632123D01*
X7429811D01*
X7451864Y641257D01*
X7468742Y658136D01*
X7477877Y680188D01*
Y704058D01*
X7468742Y726110D01*
X7451864Y742988D01*
X7431590Y751386D01*
Y771240D01*
X7422455Y793293D01*
X7420450Y795298D01*
X7426663Y810298D01*
X7426935D01*
X7448987Y819432D01*
X7465866Y836311D01*
X7475000Y858363D01*
Y882233D01*
X7465866Y904285D01*
X7448987Y921164D01*
X7429857Y929088D01*
Y942125D01*
X7420722Y964177D01*
X7403844Y981055D01*
X7381791Y990190D01*
D02*
G37*
G36*
X7655903Y1509224D02*
X7632034D01*
X7609981Y1500089D01*
X7593103Y1483211D01*
X7583969Y1461158D01*
Y1437289D01*
X7593103Y1415236D01*
X7609981Y1398358D01*
X7615181Y1396204D01*
X7613536Y1392233D01*
Y1368363D01*
X7622670Y1346311D01*
X7625818Y1343163D01*
X7621741Y1326027D01*
X7607603Y1320171D01*
X7590724Y1303293D01*
X7581590Y1281240D01*
Y1257371D01*
X7588746Y1240094D01*
X7578028Y1229375D01*
X7568893Y1207322D01*
Y1183453D01*
X7578028Y1161401D01*
X7594906Y1144522D01*
X7616958Y1135388D01*
X7640828D01*
X7662880Y1144522D01*
X7665358Y1146999D01*
X7668969Y1149666D01*
X7675522Y1154220D01*
X7679345Y1156584D01*
X7851766Y984163D01*
Y956569D01*
X7841935Y950000D01*
X7818065D01*
X7796013Y940866D01*
X7779135Y923987D01*
X7770000Y901935D01*
Y878065D01*
X7779135Y856013D01*
X7796013Y839134D01*
X7818065Y830000D01*
X7830000D01*
Y818363D01*
X7839134Y796310D01*
X7841140Y794305D01*
X7834927Y779305D01*
X7819655D01*
X7797603Y770170D01*
X7780724Y753292D01*
X7771590Y731240D01*
Y707370D01*
X7780724Y685318D01*
X7797603Y668439D01*
X7819655Y659305D01*
X7830000D01*
Y658065D01*
X7839134Y636013D01*
X7856013Y619134D01*
X7878065Y610000D01*
X7901935D01*
X7923987Y619134D01*
X7940865Y636013D01*
X7950000Y658065D01*
Y681935D01*
X7940865Y703987D01*
X7923987Y720865D01*
X7901935Y730000D01*
X7891590D01*
Y731240D01*
X7882455Y753292D01*
X7880450Y755298D01*
X7886663Y770298D01*
X7901935D01*
X7923987Y779432D01*
X7940865Y796310D01*
X7950000Y818363D01*
Y842232D01*
X7940865Y864285D01*
X7938388Y866762D01*
X7935722Y870373D01*
X7931167Y876926D01*
X7928234Y881671D01*
Y1000000D01*
X7925324Y1014632D01*
X7917036Y1027036D01*
X7721648Y1222424D01*
X7709244Y1230712D01*
X7706971Y1231164D01*
X7697823Y1248277D01*
X7701590Y1257371D01*
Y1281240D01*
X7692455Y1303293D01*
X7689308Y1306440D01*
X7693385Y1323576D01*
X7707523Y1329432D01*
X7724401Y1346311D01*
X7733536Y1368363D01*
Y1392233D01*
X7724401Y1414285D01*
X7707523Y1431164D01*
X7702323Y1433317D01*
X7703968Y1437289D01*
Y1461158D01*
X7694834Y1483211D01*
X7677956Y1500089D01*
X7655903Y1509224D01*
D02*
G37*
G36*
X7657500Y595920D02*
X7630000D01*
Y474500D01*
X7731420D01*
Y522000D01*
X7725793Y550288D01*
X7709769Y574269D01*
X7685788Y590293D01*
X7657500Y595920D01*
D02*
G37*
G36*
X7610000D02*
X7582500D01*
X7554212Y590293D01*
X7530231Y574269D01*
X7514207Y550288D01*
X7508580Y522000D01*
Y474500D01*
X7610000D01*
Y595920D01*
D02*
G37*
G36*
X7403500D02*
X7376000D01*
Y474500D01*
X7477420D01*
Y522000D01*
X7471793Y550288D01*
X7455769Y574269D01*
X7431788Y590293D01*
X7403500Y595920D01*
D02*
G37*
G36*
X7356000D02*
X7328500D01*
X7300212Y590293D01*
X7276231Y574269D01*
X7260207Y550288D01*
X7254580Y522000D01*
Y474500D01*
X7356000D01*
Y595920D01*
D02*
G37*
G36*
X6133500D02*
X6106000D01*
Y474500D01*
X6207420D01*
Y522000D01*
X6201793Y550288D01*
X6185769Y574269D01*
X6161788Y590293D01*
X6133500Y595920D01*
D02*
G37*
G36*
X6086000D02*
X6058500D01*
X6030212Y590293D01*
X6006231Y574269D01*
X5990207Y550288D01*
X5984580Y522000D01*
Y474500D01*
X6086000D01*
Y595920D01*
D02*
G37*
G36*
X8459500Y677822D02*
X8344500D01*
X8318163Y672583D01*
X8295836Y657664D01*
X8280917Y635337D01*
X8275678Y609000D01*
Y534000D01*
X8280917Y507663D01*
X8295836Y485336D01*
X8318163Y470417D01*
X8344500Y465178D01*
X8459500D01*
X8485837Y470417D01*
X8508164Y485336D01*
X8523083Y507663D01*
X8528322Y534000D01*
Y609000D01*
X8523083Y635337D01*
X8508164Y657664D01*
X8485837Y672583D01*
X8459500Y677822D01*
D02*
G37*
G36*
X8165500D02*
X8050500D01*
X8024163Y672583D01*
X8001836Y657664D01*
X7986917Y635337D01*
X7981678Y609000D01*
Y534000D01*
X7986917Y507663D01*
X8001836Y485336D01*
X8024163Y470417D01*
X8050500Y465178D01*
X8165500D01*
X8191837Y470417D01*
X8214164Y485336D01*
X8229083Y507663D01*
X8234322Y534000D01*
Y609000D01*
X8229083Y635337D01*
X8214164Y657664D01*
X8191837Y672583D01*
X8165500Y677822D01*
D02*
G37*
G36*
X7149500Y590822D02*
X7074500D01*
X7048163Y585583D01*
X7025836Y570664D01*
X7010917Y548337D01*
X7005678Y522000D01*
Y407000D01*
X7010917Y380663D01*
X7025836Y358336D01*
X7048163Y343417D01*
X7074500Y338178D01*
X7149500D01*
X7175837Y343417D01*
X7198164Y358336D01*
X7213083Y380663D01*
X7218322Y407000D01*
Y522000D01*
X7213083Y548337D01*
X7198164Y570664D01*
X7175837Y585583D01*
X7149500Y590822D01*
D02*
G37*
G36*
X6895500D02*
X6820500D01*
X6794163Y585583D01*
X6771836Y570664D01*
X6756917Y548337D01*
X6751678Y522000D01*
Y407000D01*
X6756917Y380663D01*
X6771836Y358336D01*
X6794163Y343417D01*
X6820500Y338178D01*
X6895500D01*
X6921837Y343417D01*
X6944164Y358336D01*
X6959083Y380663D01*
X6964322Y407000D01*
Y522000D01*
X6959083Y548337D01*
X6944164Y570664D01*
X6921837Y585583D01*
X6895500Y590822D01*
D02*
G37*
G36*
X6641500D02*
X6566500D01*
X6540163Y585583D01*
X6517836Y570664D01*
X6502917Y548337D01*
X6497678Y522000D01*
Y407000D01*
X6502917Y380663D01*
X6517836Y358336D01*
X6540163Y343417D01*
X6566500Y338178D01*
X6641500D01*
X6667837Y343417D01*
X6690164Y358336D01*
X6705083Y380663D01*
X6710322Y407000D01*
Y522000D01*
X6705083Y548337D01*
X6690164Y570664D01*
X6667837Y585583D01*
X6641500Y590822D01*
D02*
G37*
G36*
X7731420Y454500D02*
X7630000D01*
Y333080D01*
X7657500D01*
X7685788Y338707D01*
X7709769Y354731D01*
X7725793Y378712D01*
X7731420Y407000D01*
Y454500D01*
D02*
G37*
G36*
X7610000D02*
X7508580D01*
Y407000D01*
X7514207Y378712D01*
X7530231Y354731D01*
X7554212Y338707D01*
X7582500Y333080D01*
X7610000D01*
Y454500D01*
D02*
G37*
G36*
X7477420D02*
X7376000D01*
Y333080D01*
X7403500D01*
X7431788Y338707D01*
X7455769Y354731D01*
X7471793Y378712D01*
X7477420Y407000D01*
Y454500D01*
D02*
G37*
G36*
X7356000D02*
X7254580D01*
Y407000D01*
X7260207Y378712D01*
X7276231Y354731D01*
X7300212Y338707D01*
X7328500Y333080D01*
X7356000D01*
Y454500D01*
D02*
G37*
G36*
X6207420D02*
X6106000D01*
Y333080D01*
X6133500D01*
X6161788Y338707D01*
X6185769Y354731D01*
X6201793Y378712D01*
X6207420Y407000D01*
Y454500D01*
D02*
G37*
G36*
X6086000D02*
X5984580D01*
Y407000D01*
X5990207Y378712D01*
X6006231Y354731D01*
X6030212Y338707D01*
X6058500Y333080D01*
X6086000D01*
Y454500D01*
D02*
G37*
G36*
X8459500Y428920D02*
X8412000D01*
Y327500D01*
X8533420D01*
Y355000D01*
X8527793Y383288D01*
X8511769Y407269D01*
X8487788Y423293D01*
X8459500Y428920D01*
D02*
G37*
G36*
X8392000D02*
X8344500D01*
X8316212Y423293D01*
X8292231Y407269D01*
X8276207Y383288D01*
X8270580Y355000D01*
Y327500D01*
X8392000D01*
Y428920D01*
D02*
G37*
G36*
X8165500Y423822D02*
X8050500D01*
X8024163Y418583D01*
X8001836Y403664D01*
X7986917Y381337D01*
X7981678Y355000D01*
Y280000D01*
X7986917Y253663D01*
X8001836Y231336D01*
X8024163Y216417D01*
X8050500Y211178D01*
X8165500D01*
X8191837Y216417D01*
X8214164Y231336D01*
X8229083Y253663D01*
X8234322Y280000D01*
Y355000D01*
X8229083Y381337D01*
X8214164Y403664D01*
X8191837Y418583D01*
X8165500Y423822D01*
D02*
G37*
G36*
X8533420Y307500D02*
X8412000D01*
Y206080D01*
X8459500D01*
X8487788Y211707D01*
X8511769Y227731D01*
X8527793Y251712D01*
X8533420Y280000D01*
Y307500D01*
D02*
G37*
G36*
X8392000D02*
X8270580D01*
Y280000D01*
X8276207Y251712D01*
X8292231Y227731D01*
X8316212Y211707D01*
X8344500Y206080D01*
X8392000D01*
Y307500D01*
D02*
G37*
G36*
X7657500Y301920D02*
X7630000D01*
Y180500D01*
X7731420D01*
Y228000D01*
X7725793Y256288D01*
X7709769Y280269D01*
X7685788Y296293D01*
X7657500Y301920D01*
D02*
G37*
G36*
X7610000D02*
X7582500D01*
X7554212Y296293D01*
X7530231Y280269D01*
X7514207Y256288D01*
X7508580Y228000D01*
Y180500D01*
X7610000D01*
Y301920D01*
D02*
G37*
G36*
X7403500D02*
X7376000D01*
Y180500D01*
X7477420D01*
Y228000D01*
X7471793Y256288D01*
X7455769Y280269D01*
X7431788Y296293D01*
X7403500Y301920D01*
D02*
G37*
G36*
X7356000D02*
X7328500D01*
X7300212Y296293D01*
X7276231Y280269D01*
X7260207Y256288D01*
X7254580Y228000D01*
Y180500D01*
X7356000D01*
Y301920D01*
D02*
G37*
%LPD*%
G36*
X7651151Y1216244D02*
X7665144Y1207010D01*
X7667899Y1205526D01*
X7670355Y1204372D01*
X7672515Y1203547D01*
X7674376Y1203053D01*
X7675940Y1202888D01*
Y1187888D01*
X7674376Y1187723D01*
X7672515Y1187228D01*
X7670355Y1186404D01*
X7667899Y1185250D01*
X7665144Y1183765D01*
X7658743Y1179808D01*
X7651151Y1174532D01*
X7646908Y1171399D01*
Y1219377D01*
X7651151Y1216244D01*
D02*
G37*
G36*
X7897665Y875781D02*
X7898159Y873919D01*
X7898984Y871760D01*
X7900138Y869303D01*
X7901622Y866549D01*
X7905579Y860147D01*
X7910856Y852555D01*
X7913989Y848313D01*
X7866011D01*
X7869144Y852555D01*
X7878378Y866549D01*
X7879862Y869303D01*
X7881016Y871760D01*
X7881840Y873919D01*
X7882335Y875781D01*
X7882500Y877345D01*
X7897500D01*
X7897665Y875781D01*
D02*
G37*
%LPC*%
G36*
X6831935Y3400000D02*
X6808065D01*
X6786013Y3390865D01*
X6769135Y3373987D01*
X6760000Y3351935D01*
Y3328065D01*
X6769135Y3306013D01*
X6786013Y3289134D01*
X6808065Y3280000D01*
X6830000D01*
Y3268065D01*
X6839134Y3246013D01*
X6827878Y3236974D01*
X6823987Y3240866D01*
X6801935Y3250000D01*
X6778065D01*
X6756013Y3240866D01*
X6739134Y3223987D01*
X6730000Y3201935D01*
Y3178065D01*
X6739134Y3156013D01*
X6756013Y3139134D01*
X6778065Y3130000D01*
X6801935D01*
X6823987Y3139134D01*
X6840865Y3156013D01*
X6850000Y3178065D01*
Y3201935D01*
X6840865Y3223987D01*
X6852122Y3233026D01*
X6856013Y3229135D01*
X6878065Y3220000D01*
X6901935D01*
X6923987Y3229135D01*
X6940865Y3246013D01*
X6950000Y3268065D01*
Y3291935D01*
X6940865Y3313987D01*
X6923987Y3330866D01*
X6901935Y3340000D01*
X6880000D01*
Y3351935D01*
X6870866Y3373987D01*
X6853987Y3390865D01*
X6831935Y3400000D01*
D02*
G37*
G36*
X7402344Y2782426D02*
X7378474D01*
X7356422Y2773292D01*
X7339543Y2756413D01*
X7330409Y2734361D01*
Y2710491D01*
X7339543Y2688439D01*
X7356422Y2671561D01*
X7378474Y2662426D01*
X7402344D01*
X7424396Y2671561D01*
X7441274Y2688439D01*
X7450409Y2710491D01*
Y2734361D01*
X7441274Y2756413D01*
X7424396Y2773292D01*
X7402344Y2782426D01*
D02*
G37*
G36*
X7380376Y2480895D02*
X7356506D01*
X7334454Y2471760D01*
X7317576Y2454882D01*
X7308441Y2432830D01*
Y2411358D01*
X7301902Y2406621D01*
X7294583Y2404003D01*
X7287721Y2410865D01*
X7265668Y2420000D01*
X7241799D01*
X7219746Y2410865D01*
X7202868Y2393987D01*
X7193733Y2371935D01*
Y2348065D01*
X7202868Y2326013D01*
X7219746Y2309134D01*
X7241799Y2300000D01*
X7265668D01*
X7287721Y2309134D01*
X7304599Y2326013D01*
X7313733Y2348065D01*
Y2369537D01*
X7320272Y2374274D01*
X7327591Y2376892D01*
X7334454Y2370029D01*
X7356506Y2360895D01*
X7380376D01*
X7402428Y2370029D01*
X7419307Y2386908D01*
X7428441Y2408960D01*
Y2432830D01*
X7419307Y2454882D01*
X7402428Y2471760D01*
X7380376Y2480895D01*
D02*
G37*
G36*
X7402344Y2312426D02*
X7378474D01*
X7356422Y2303292D01*
X7339544Y2286413D01*
X7330409Y2264361D01*
Y2240491D01*
X7339544Y2218439D01*
X7356422Y2201560D01*
X7378474Y2192426D01*
X7402344D01*
X7424396Y2201560D01*
X7441275Y2218439D01*
X7450409Y2240491D01*
Y2264361D01*
X7441275Y2286413D01*
X7424396Y2303292D01*
X7402344Y2312426D01*
D02*
G37*
G36*
X6651935Y2160000D02*
X6628065D01*
X6606013Y2150866D01*
X6589134Y2133987D01*
X6580000Y2111935D01*
Y2088065D01*
X6589134Y2066013D01*
X6606013Y2049135D01*
X6628065Y2040000D01*
X6651935D01*
X6673987Y2049135D01*
X6690865Y2066013D01*
X6700000Y2088065D01*
Y2111935D01*
X6690865Y2133987D01*
X6673987Y2150866D01*
X6651935Y2160000D01*
D02*
G37*
G36*
X7389107Y2011459D02*
X7365237D01*
X7343185Y2002325D01*
X7326306Y1985447D01*
X7317172Y1963394D01*
Y1939525D01*
X7326306Y1917472D01*
X7343185Y1900594D01*
X7365237Y1891460D01*
X7389107D01*
X7411159Y1900594D01*
X7428037Y1917472D01*
X7437172Y1939525D01*
Y1963394D01*
X7428037Y1985447D01*
X7411159Y2002325D01*
X7389107Y2011459D01*
D02*
G37*
G36*
X7265668Y1940000D02*
X7241799D01*
X7219746Y1930866D01*
X7202868Y1913988D01*
X7193733Y1891935D01*
Y1868066D01*
X7202868Y1846013D01*
X7219746Y1829135D01*
X7241799Y1820001D01*
X7265668D01*
X7287721Y1829135D01*
X7304599Y1846013D01*
X7313733Y1868066D01*
Y1891935D01*
X7304599Y1913988D01*
X7287721Y1930866D01*
X7265668Y1940000D01*
D02*
G37*
G36*
X7402344Y1832427D02*
X7378474D01*
X7356422Y1823292D01*
X7339544Y1806414D01*
X7330409Y1784361D01*
Y1760492D01*
X7339544Y1738439D01*
X7356422Y1721561D01*
X7378474Y1712427D01*
X7402344D01*
X7424396Y1721561D01*
X7441275Y1738439D01*
X7450409Y1760492D01*
Y1784361D01*
X7441275Y1806414D01*
X7424396Y1823292D01*
X7402344Y1832427D01*
D02*
G37*
G36*
X7130097Y1642361D02*
X7106228D01*
X7084176Y1633227D01*
X7067297Y1616348D01*
X7058163Y1594296D01*
Y1570426D01*
X7067297Y1548374D01*
X7084176Y1531496D01*
X7106228Y1522361D01*
X7130097D01*
X7152150Y1531496D01*
X7169028Y1548374D01*
X7178163Y1570426D01*
Y1594296D01*
X7169028Y1616348D01*
X7152150Y1633227D01*
X7130097Y1642361D01*
D02*
G37*
%LPD*%
D76*
X5686046Y2053954D02*
X5864580D01*
X5430000Y2310000D02*
X5686046Y2053954D01*
X5690000Y2890000D02*
Y3235470D01*
X6018125Y3563595D01*
X5430000Y2630000D02*
X5690000Y2890000D01*
X5430000Y2450000D02*
Y2630000D01*
Y2310000D02*
Y2450000D01*
X6650000Y3700000D02*
Y3907236D01*
X6721382Y3978618D01*
X6720000Y3980000D02*
X6810000Y3890000D01*
X6720000Y3979941D02*
Y3980000D01*
X6810000Y3890000D02*
X7313777D01*
X3790000Y3270000D02*
X3870000Y3190000D01*
X3500000Y3270000D02*
X3790000D01*
X3870000Y3190000D02*
X4180000D01*
X4400000Y3410000D01*
X7313777Y3890000D02*
X7418758Y3994981D01*
X6650000Y3700000D02*
X6686796Y3663204D01*
X6738605D01*
D77*
X5130000Y1204910D02*
X5290000Y1044910D01*
Y850000D02*
Y1044910D01*
X4980000Y1130000D02*
Y1983830D01*
X4700000Y850000D02*
X4980000Y1130000D01*
X3857067Y567067D02*
X3990000Y700000D01*
X3810000Y444500D02*
X3857067Y491567D01*
X3990000Y700000D02*
Y860000D01*
X3857067Y491567D02*
Y567067D01*
X3990000Y860000D02*
X4050000Y920000D01*
X4875611Y2164389D02*
X5130000Y1910000D01*
X4875611Y2164389D02*
Y3324389D01*
X5130000Y1204910D02*
Y1910000D01*
X4820000Y2143830D02*
X4980000Y1983830D01*
X4820000Y2143830D02*
Y3257855D01*
X4790000Y3287855D02*
Y3290000D01*
Y3287855D02*
X4820000Y3257855D01*
X4720000Y3480000D02*
X4875611Y3324389D01*
X4720000Y3480000D02*
Y3650000D01*
X8270000Y1972145D02*
Y2469116D01*
X8191820Y2547296D02*
X8270000Y2469116D01*
X8191820Y2547296D02*
Y2549928D01*
X8266697Y1946697D02*
Y1968841D01*
X8260000Y1940000D02*
X8266697Y1946697D01*
Y1968841D02*
X8270000Y1972145D01*
X3471666Y1838334D02*
X4589998Y720002D01*
X3471666Y1838334D02*
Y2250967D01*
X3408565Y1844867D02*
Y2166852D01*
Y1844867D02*
X4440001Y813430D01*
Y312501D02*
Y813430D01*
X3350000Y1830000D02*
Y2120000D01*
Y1830000D02*
X4370000Y810000D01*
Y496500D02*
Y810000D01*
X4318000Y444500D02*
X4370000Y496500D01*
X4318000Y190500D02*
X4440001Y312501D01*
X4589998Y680001D02*
Y720002D01*
Y680001D02*
X4700001Y569999D01*
Y316499D02*
Y569999D01*
Y316499D02*
X4826000Y190500D01*
X5810000Y1670000D02*
X5820000Y1660000D01*
X6770000Y2480000D02*
Y2482145D01*
Y2807855D02*
Y2810000D01*
D78*
X6018125Y3563595D02*
X6072813Y3618283D01*
Y4562155D01*
X6735815Y4155815D02*
Y4353315D01*
X6460000Y3880000D02*
X6735815Y4155815D01*
Y4353315D02*
X7000000Y4617500D01*
D79*
X5906173Y1853827D02*
Y1903826D01*
Y1853827D02*
X5910000Y1850000D01*
X4710658Y650000D02*
X5710000D01*
X5816834Y1219354D02*
Y1226834D01*
Y756834D02*
Y1219354D01*
X5909279Y1205648D02*
X5994691D01*
X5895573Y1219354D02*
X5909279Y1205648D01*
X5816834Y1219354D02*
X5895573D01*
X5816834Y1226834D02*
X5820000Y1230000D01*
X5710000Y650000D02*
X5816834Y756834D01*
X5881250Y1928750D02*
X5906173Y1903826D01*
X5958584Y2038584D02*
X5960000D01*
X5881250Y1961250D02*
X5958584Y2038584D01*
X5881250Y1928750D02*
Y1961250D01*
X7030000Y1300000D02*
X7320000Y1590000D01*
X7418311D01*
X6860000Y1300000D02*
X7030000D01*
X6770000Y4050000D02*
X6850832Y3969168D01*
X6700710Y4050000D02*
X6770000D01*
X6580307Y3929597D02*
X6700710Y4050000D01*
X6576480Y3577935D02*
X6584488Y3569927D01*
X6576480Y3577935D02*
Y3867338D01*
X6584488Y3564515D02*
Y3569927D01*
X6580307Y3871165D02*
Y3929597D01*
X6576480Y3867338D02*
X6580307Y3871165D01*
X6850832Y3969168D02*
X7068166D01*
X7418311Y1590000D02*
X7485112Y1656801D01*
X6760000Y1200000D02*
X6860000Y1300000D01*
X7550000Y2040000D02*
Y2580000D01*
Y1721689D02*
Y2040000D01*
X7557500Y2047500D02*
X7626205D01*
X7550000Y2040000D02*
X7557500Y2047500D01*
X7550000Y2580000D02*
Y2910000D01*
Y2580000D02*
X7553984Y2583984D01*
X7663279D01*
X7485112Y1656801D02*
X7550000Y1721689D01*
Y2910000D02*
X7660000Y3020000D01*
X6465000Y3297843D02*
X6690750Y3072093D01*
X6465000Y3297843D02*
Y3880000D01*
X5750000Y1670000D02*
X5810000D01*
X6160000Y3230000D02*
Y3480000D01*
X5636720Y2706720D02*
X6160000Y3230000D01*
X5820000Y1230000D02*
Y1330000D01*
X5636720Y2335000D02*
Y2706720D01*
X5820000Y1670000D02*
Y1867500D01*
Y1330000D02*
Y1660000D01*
Y1867500D02*
X5881250Y1928750D01*
X5750000Y1330000D02*
X5820000D01*
D80*
X6675272Y1858753D02*
X6865157D01*
X6869014Y1862609D01*
X5558482Y1850000D02*
X5560000D01*
X5370000Y1880000D02*
X5528482D01*
X5558482Y1850000D01*
X5650000Y1840000D02*
Y1850000D01*
X5585000Y1915000D02*
X5650000Y1850000D01*
X5385000Y1915000D02*
X5585000D01*
X6417500Y2074099D02*
X6671599Y1820000D01*
X6392500Y4112500D02*
X6610000Y4330000D01*
X6447500Y2086525D02*
X6675272Y1858753D01*
X6387500Y2061673D02*
Y3037160D01*
X6422500Y4062500D02*
X6554127Y4194127D01*
X6417500Y2074099D02*
Y3049586D01*
X6387500Y2061673D02*
X6659172Y1790000D01*
X6447500Y2086525D02*
Y3062013D01*
X6362500Y4362500D02*
X6591390Y4591390D01*
X6332500Y3049734D02*
X6357500Y3024734D01*
X6362500Y3062160D02*
X6387500Y3037160D01*
X6357500Y2049246D02*
X6660000Y1746746D01*
X6357500Y2049246D02*
Y3024734D01*
X6392500Y3074586D02*
X6417500Y3049586D01*
X6422500Y3087012D02*
X6447500Y3062013D01*
X6332500Y4402500D02*
X6587500Y4657500D01*
X6332500Y3049734D02*
Y4402500D01*
X6362500Y3062160D02*
Y4362500D01*
X6392500Y3074586D02*
Y4112500D01*
X6422500Y3087012D02*
Y4062500D01*
X7060000Y2221518D02*
X7090000Y2191518D01*
Y2190000D02*
Y2191518D01*
X7060000Y2221518D02*
Y2628713D01*
X7061390Y2630103D01*
Y2651390D01*
X7070000Y2660000D01*
X7069999Y2660001D02*
Y2737573D01*
Y2660001D02*
X7070000Y2660000D01*
X7069999Y2737573D02*
X7402426Y3070000D01*
X5540817Y2840817D02*
Y4609998D01*
X5260000Y2560000D02*
X5540817Y2840817D01*
X5260000Y2040000D02*
Y2560000D01*
X5230000Y2580000D02*
X5500000Y2850000D01*
Y4540000D01*
X5230000Y2020000D02*
Y2580000D01*
Y2020000D02*
X5370000Y1880000D01*
X5260000Y2040000D02*
X5385000Y1915000D01*
X6660000Y1340000D02*
Y1746746D01*
X6830000Y1570000D02*
X6879999Y1520001D01*
X6830000Y1570000D02*
Y1730000D01*
X6740000Y1820000D02*
X6830000Y1730000D01*
X7900000Y2517715D02*
Y3960000D01*
X7641590Y2259305D02*
X7900000Y2517715D01*
X7870000Y2600000D02*
Y3940000D01*
X7709223Y2439223D02*
X7870000Y2600000D01*
X7643968Y2439223D02*
X7709223D01*
X7840000Y2927716D02*
Y3920000D01*
X7641589Y2729305D02*
X7840000Y2927716D01*
X7159737Y4723983D02*
X7159840Y4723881D01*
X7236119D01*
X7440000Y4520000D01*
X7540000Y4728713D02*
Y4730000D01*
X7570000Y4590000D02*
Y4698713D01*
X7540000Y4728713D02*
X7570000Y4698713D01*
X7500000Y4520000D02*
X7570000Y4590000D01*
X7500000Y4274853D02*
Y4520000D01*
X6710000Y2450000D02*
X6821248Y2338752D01*
X6877625D01*
X6554450Y4194127D02*
X6570323Y4210000D01*
X6554127Y4194127D02*
X6554450D01*
X6570323Y4210000D02*
X6582500D01*
X7348802Y4671198D02*
Y4691198D01*
X7340000Y4700000D02*
X7348802Y4691198D01*
Y4671198D02*
X7470000Y4550000D01*
X7649855Y1787571D02*
X7677571D01*
X7969463Y2079463D02*
Y4189463D01*
X7641590Y1779306D02*
X7649855Y1787571D01*
X7677571D02*
X7969463Y2079463D01*
X7933250Y2103250D02*
Y4207808D01*
X7643968Y1959224D02*
X7789224D01*
X7933250Y2103250D01*
X7500000Y4910000D02*
Y5059424D01*
X7429424Y5130000D02*
X7500000Y5059424D01*
Y4910000D02*
X7635280Y4774720D01*
Y3784720D02*
Y4774720D01*
X7010000Y3650000D02*
X7280000Y3380000D01*
X7454472D02*
X7505734Y3328738D01*
X7280000Y3380000D02*
X7454472D01*
X6890000Y3650000D02*
X7010000D01*
X7572543Y3752310D02*
X7710000Y3614852D01*
X7512543Y3727457D02*
X7639140Y3600860D01*
X7542543Y3739884D02*
X7680000Y3602426D01*
X7635280Y3784720D02*
X7770000Y3650000D01*
X7542543Y3739884D02*
Y4189884D01*
X7602543Y3767458D02*
Y4245281D01*
Y3767458D02*
X7740000Y3630000D01*
X7512543Y3727457D02*
Y4177457D01*
X7572543Y3752310D02*
Y4202310D01*
X7643968Y2909224D02*
X7673968D01*
X7810000Y3045255D01*
X7580000Y3160000D02*
X7680000Y3260000D01*
X7240000Y3130000D02*
X7597574D01*
X7610000Y3100000D02*
X7740000Y3230000D01*
X7220000Y3160000D02*
X7580000D01*
X7630000Y3070000D02*
X7770000Y3210000D01*
X6990000Y2880000D02*
X7240000Y3130000D01*
X7140000Y2850000D02*
X7390000Y3100000D01*
X7597574Y3130000D02*
X7710000Y3242426D01*
X6970000Y2960000D02*
X7200000Y3190000D01*
X7560000D02*
X7639140Y3269141D01*
X7402426Y3070000D02*
X7630000D01*
X7200000Y3190000D02*
X7560000D01*
X6980000Y2920000D02*
X7220000Y3160000D01*
X7390000Y3100000D02*
X7610000D01*
X7639140Y3269141D02*
Y3600860D01*
X7710000Y3242426D02*
Y3614852D01*
X7680000Y3260000D02*
Y3602426D01*
X7440000Y4250000D02*
Y4520000D01*
X7500000Y4274853D02*
X7572543Y4202310D01*
X7440000Y4250000D02*
X7512543Y4177457D01*
X7470000Y4262426D02*
X7542543Y4189884D01*
X7470000Y4262426D02*
Y4550000D01*
X7560000Y4287823D02*
X7602543Y4245281D01*
X5430002Y4609998D02*
X5500000Y4540000D01*
X6670000Y2440682D02*
X6830382Y2280300D01*
X6688482Y1790000D02*
X6718482Y1760000D01*
X6671599Y1820000D02*
X6740000D01*
X6718482Y1760000D02*
X6720000D01*
X6659172Y1790000D02*
X6688482D01*
X6879999Y1380000D02*
Y1520001D01*
X7740000Y3230000D02*
Y3630000D01*
X7770000Y3210000D02*
Y3650000D01*
X6670000Y2440682D02*
Y2860000D01*
X6770000Y2960000D02*
X6970000D01*
X6670000Y2860000D02*
X6770000Y2960000D01*
X6790000Y2920000D02*
X6980000D01*
X6710000Y2840000D02*
X6790000Y2920000D01*
X6710000Y2450000D02*
Y2840000D01*
X6918873Y2850000D02*
X7140000D01*
X6877625Y2808752D02*
X6918873Y2850000D01*
X6825125Y2755557D02*
Y2850000D01*
X6855125Y2880000D02*
X6990000D01*
X6825125Y2850000D02*
X6855125Y2880000D01*
X6610000Y4340704D02*
X6641771Y4372475D01*
X6610000Y4330000D02*
Y4340704D01*
X6641771Y4372475D02*
Y4528229D01*
X6587500Y4657500D02*
X6680000D01*
X6611390Y4591390D02*
X6620000Y4600000D01*
X6591390Y4591390D02*
X6611390D01*
X7560000Y4287823D02*
Y4300000D01*
X7720000Y3990000D02*
X7810000Y3900000D01*
X7750000Y4010000D02*
X7840000Y3920000D01*
X7780000Y4150000D02*
X7940000Y4310000D01*
X7750000Y4010000D02*
Y4177574D01*
X7780000Y4030000D02*
X7870000Y3940000D01*
X7750000Y4177574D02*
X7900000Y4327574D01*
X7720000Y3990000D02*
Y4200000D01*
X7860000Y4340000D01*
X7780000Y4030000D02*
Y4150000D01*
X6825125Y2755557D02*
X6830382Y2750300D01*
X7628893Y1195388D02*
X7694612D01*
X7890000Y830298D02*
Y1000000D01*
X7694612Y1195388D02*
X7890000Y1000000D01*
X6604000Y5016500D02*
X6717500Y5130000D01*
X7429424D01*
X7860000Y4340000D02*
Y4600000D01*
X7858500Y4601500D02*
X7860000Y4600000D01*
X7858500Y4601500D02*
Y4660000D01*
X7900000Y4640000D02*
X7910000Y4650000D01*
X7900000Y4327574D02*
Y4640000D01*
X7970000Y4450000D02*
X8030000Y4510000D01*
X7940000Y4470000D02*
X8105500Y4635500D01*
X8128000D01*
X7940000Y4310000D02*
Y4470000D01*
X8030000Y4510000D02*
X8256500D01*
X7970000Y4290000D02*
Y4450000D01*
X7810000Y4130000D02*
X7970000Y4290000D01*
X7810000Y4050000D02*
Y4130000D01*
Y4050000D02*
X7900000Y3960000D01*
X7810000Y3045255D02*
Y3900000D01*
X7910000Y4650000D02*
X7910000D01*
X8010000Y4750000D01*
X8190000D01*
X8327000Y4834500D02*
X8382000Y4889500D01*
X8274500Y4834500D02*
X8327000D01*
X8190000Y4750000D02*
X8274500Y4834500D01*
X8088000Y4889500D02*
X8128000D01*
X7858500Y4660000D02*
X8088000Y4889500D01*
X7933250Y4207808D02*
X8106942Y4381500D01*
X8128000D01*
X8030000Y4250000D02*
X8180779D01*
X7969463Y4189463D02*
X8030000Y4250000D01*
X8256500Y4510000D02*
X8382000Y4635500D01*
X8274500Y4343721D02*
X8344221D01*
X8382000Y4381500D01*
X8180779Y4250000D02*
X8274500Y4343721D01*
D82*
X6285000Y2182782D02*
X6325000Y2142782D01*
X6285000Y2182782D02*
Y3405000D01*
X6280000Y3410000D02*
X6285000Y3405000D01*
X6325000Y1399303D02*
Y2142782D01*
X6315000Y685000D02*
Y1389303D01*
X6325000Y1399303D01*
X6315000Y685000D02*
X6360000Y640000D01*
X6814414Y3830000D02*
X7460043D01*
X6724824Y3740410D02*
X6814414Y3830000D01*
X6724824Y3740410D02*
X6726293D01*
X7360000Y3750000D02*
X7460000D01*
X7275000Y3665000D02*
X7360000Y3750000D01*
X7150824Y3690000D02*
X7175824Y3665000D01*
X7275000D01*
X7140000Y3690000D02*
X7150824D01*
D99*
X1672000Y978000D02*
D03*
X1292000D02*
D03*
X1672000Y1842000D02*
D03*
X1292000D02*
D03*
D101*
X1480000Y695000D02*
D03*
D102*
Y345000D02*
D03*
D103*
X3470000Y870000D02*
D03*
X3750432Y1306337D02*
D03*
X6211915Y2796952D02*
D03*
X6172270Y2875696D02*
D03*
X6007672Y2728597D02*
D03*
X6869014Y1862609D02*
D03*
X6517797Y1814703D02*
D03*
X6199866Y1000972D02*
D03*
X6109103Y1006144D02*
D03*
X6080000Y2120000D02*
D03*
X6438295Y1525486D02*
D03*
X5910000Y1850000D02*
D03*
X5560000D02*
D03*
X5650000Y1840000D02*
D03*
X6030000Y730000D02*
D03*
X6190000Y722500D02*
D03*
X5990647Y1431763D02*
D03*
X5998767Y1352460D02*
D03*
X6268605Y2061571D02*
D03*
X6213390Y1796625D02*
D03*
X5994691Y1205648D02*
D03*
X5995000Y1655430D02*
D03*
X5970000Y900000D02*
D03*
X6010017Y1029913D02*
D03*
X5994978Y1103390D02*
D03*
X6201545Y1278754D02*
D03*
X6370000Y960000D02*
D03*
X5967633Y272699D02*
D03*
X5907440Y317440D02*
D03*
X6435385Y647909D02*
D03*
X6360000Y640000D02*
D03*
X5890000Y859213D02*
D03*
X6208114Y1563868D02*
D03*
X5998174Y1875000D02*
D03*
X5745000Y855000D02*
D03*
X5670006Y854056D02*
D03*
X5491177Y1038661D02*
D03*
X5589702Y850942D02*
D03*
X5509520Y852861D02*
D03*
X5390000Y850000D02*
D03*
X5220000Y1030000D02*
D03*
X5179338Y848294D02*
D03*
X5864580Y2053954D02*
D03*
X5960000Y2038584D02*
D03*
X7120000Y2100000D02*
D03*
X7090000Y2190000D02*
D03*
X6960000D02*
D03*
Y2660000D02*
D03*
X7070000D02*
D03*
X6920000Y3060000D02*
D03*
X3870000Y4612500D02*
D03*
X4440000Y4360000D02*
D03*
X1300500Y5283500D02*
D03*
Y5003500D02*
D03*
X1620500D02*
D03*
Y5283500D02*
D03*
X4682747Y1503402D02*
D03*
X7378777Y2898539D02*
D03*
X7380069Y1441414D02*
D03*
X7377172Y1951459D02*
D03*
X7424390Y1885414D02*
D03*
X6072813Y4562155D02*
D03*
X6142404Y4518397D02*
D03*
X6050000Y4680000D02*
D03*
X6590000Y4757500D02*
D03*
X6230000Y4150000D02*
D03*
X6660000Y1200000D02*
D03*
Y1340000D02*
D03*
X6018125Y3563595D02*
D03*
X5229257Y3621307D02*
D03*
X5703323Y1959998D02*
D03*
X6721382Y3978618D02*
D03*
X6620000Y4130000D02*
D03*
X6576480Y3867338D02*
D03*
X6584488Y3564515D02*
D03*
X6900000Y1180000D02*
D03*
X7643968Y1449224D02*
D03*
X7626205Y2047500D02*
D03*
X7628893Y2185388D02*
D03*
X7663279Y2583984D02*
D03*
X7673536Y2370298D02*
D03*
X7643968Y2439223D02*
D03*
X7660000Y3020000D02*
D03*
X7485112Y1656801D02*
D03*
X7390409Y1772427D02*
D03*
X7425123Y1705944D02*
D03*
X6760000Y1200000D02*
D03*
X4240581Y3471270D02*
D03*
X4177817Y3512327D02*
D03*
X4250000Y3390000D02*
D03*
X6593129Y3275707D02*
D03*
X4060000Y4730000D02*
D03*
X4050000Y4650000D02*
D03*
X3790000Y4600000D02*
D03*
X4650000Y910000D02*
D03*
X4700000Y850000D02*
D03*
X4882230Y950913D02*
D03*
X4725905Y3732344D02*
D03*
X4788695Y3691326D02*
D03*
X3580000Y3360000D02*
D03*
X3640000Y4400000D02*
D03*
X8450000Y2900000D02*
D03*
X4900000Y1970000D02*
D03*
X2980000Y3860000D02*
D03*
X2640000Y4532833D02*
D03*
X6265622Y4553521D02*
D03*
X4400000Y3410000D02*
D03*
X4470147Y3335306D02*
D03*
X7159737Y4723983D02*
D03*
X7015527Y4754889D02*
D03*
X7049136Y4466648D02*
D03*
X7041126Y4389700D02*
D03*
X7540000Y4730000D02*
D03*
X7702500Y4830000D02*
D03*
X3540000Y1880000D02*
D03*
X5470000Y1620000D02*
D03*
X7672830Y1890000D02*
D03*
X7735777Y3790405D02*
D03*
X5320000Y2250000D02*
D03*
X5010000Y2450000D02*
D03*
X3470000Y3739832D02*
D03*
X2467798Y4206829D02*
D03*
X6877625Y2338752D02*
D03*
X6210000Y2690000D02*
D03*
X3658860Y3817500D02*
D03*
X5040000Y2840000D02*
D03*
X4420000Y2760000D02*
D03*
X4638253Y3580186D02*
D03*
X6690750Y3072093D02*
D03*
X2508230Y4322875D02*
D03*
X6799117Y4199151D02*
D03*
X5750000Y1670000D02*
D03*
X5747673Y1541987D02*
D03*
X5780000Y2486550D02*
D03*
X4500000Y2320000D02*
D03*
X4915575Y1699320D02*
D03*
X1885752Y1064249D02*
D03*
X1910000Y1150000D02*
D03*
X5930000Y3790000D02*
D03*
X5700000Y3720000D02*
D03*
X5017432Y3989517D02*
D03*
X7747500Y1508948D02*
D03*
X7628893Y1705388D02*
D03*
X1847887Y1685174D02*
D03*
X3509606Y1573840D02*
D03*
X4649005Y1010000D02*
D03*
X7424400Y4699156D02*
D03*
X7328319Y4846500D02*
D03*
X7340000Y4700000D02*
D03*
X5822616Y3070065D02*
D03*
X6454505Y1671541D02*
D03*
X2440000Y1610000D02*
D03*
X2180000Y2310000D02*
D03*
X7418679Y2365207D02*
D03*
X7368441Y2420895D02*
D03*
X6327943Y4608869D02*
D03*
X7060000Y3420000D02*
D03*
X7030000Y3510000D02*
D03*
X6890000Y3650000D02*
D03*
X7505734Y3328738D02*
D03*
X6726293Y3740410D02*
D03*
X7450000Y3910000D02*
D03*
X7460043Y3830000D02*
D03*
X7460000Y3750000D02*
D03*
X7314082Y3623987D02*
D03*
X7068166Y3969168D02*
D03*
X7220000Y3720000D02*
D03*
X7200000Y3610000D02*
D03*
X7418758Y3994981D02*
D03*
X7870000Y4080000D02*
D03*
X8524822Y5021488D02*
D03*
X7140000Y3690000D02*
D03*
X8467629Y2543086D02*
D03*
X7560000Y3390000D02*
D03*
X8060000Y2920000D02*
D03*
X8301041Y2657970D02*
D03*
X7500000Y3440000D02*
D03*
X7643968Y2909224D02*
D03*
X7673536Y2840298D02*
D03*
X8191820Y2549928D02*
D03*
X8039342Y2519342D02*
D03*
X8542436Y2581621D02*
D03*
X6890000Y3280000D02*
D03*
X7440000D02*
D03*
X6843692Y3732214D02*
D03*
X7130000Y4030000D02*
D03*
X7190000Y4080000D02*
D03*
X7068432Y3750256D02*
D03*
X6280000Y3410000D02*
D03*
X6160000Y3480000D02*
D03*
X6738605Y3663204D02*
D03*
X6820000Y3340000D02*
D03*
X5672500Y3935000D02*
D03*
X6790000Y3190000D02*
D03*
X7691319Y4259599D02*
D03*
X7425122Y2655943D02*
D03*
X7628893Y2655388D02*
D03*
X8210573Y2225834D02*
D03*
X8260000Y1940000D02*
D03*
X5750000Y1230000D02*
D03*
X5636720Y2335000D02*
D03*
X5430000Y2450000D02*
D03*
X5447500Y3601930D02*
D03*
Y3206821D02*
D03*
X4010002Y1070000D02*
D03*
X6830382Y2280300D02*
D03*
X6640000Y2100000D02*
D03*
X6899999Y2029926D02*
D03*
X6870000Y1950000D02*
D03*
X6600184Y990000D02*
D03*
X6582500Y4400000D02*
D03*
Y4210000D02*
D03*
Y4480000D02*
D03*
X5870000Y4610000D02*
D03*
X6150000D02*
D03*
X6720000Y1760000D02*
D03*
X5750000Y1330000D02*
D03*
X5660000Y1500000D02*
D03*
X6889999Y2520500D02*
D03*
X7250000Y3060000D02*
D03*
X6610000Y4330000D02*
D03*
X7560000Y4300000D02*
D03*
X6770000Y2810000D02*
D03*
X7340000Y4180000D02*
D03*
X7641590Y2259305D02*
D03*
X6920000Y1590000D02*
D03*
X7090000Y920000D02*
D03*
X6620000Y820000D02*
D03*
X8260000Y4230000D02*
D03*
X6000000Y2570002D02*
D03*
X4870000Y850000D02*
D03*
X6844999Y4605000D02*
D03*
X5030000Y850000D02*
D03*
X5558495Y1379465D02*
D03*
X6960000Y4200000D02*
D03*
X7415000Y870298D02*
D03*
X7424390Y1375413D02*
D03*
X6886967Y983033D02*
D03*
X6940000Y930000D02*
D03*
Y760000D02*
D03*
X7417877Y692123D02*
D03*
X7371590Y759305D02*
D03*
X7890000Y670000D02*
D03*
X7831590Y719305D02*
D03*
X7830000Y890000D02*
D03*
X7890000Y830298D02*
D03*
X7369857Y930190D02*
D03*
X2870000Y3080000D02*
D03*
X2530000Y2800000D02*
D03*
X3031317Y3150000D02*
D03*
X3500000Y3270000D02*
D03*
X4670000Y1160000D02*
D03*
X2950000Y3150000D02*
D03*
X3330658Y2930659D02*
D03*
X4250000Y2740000D02*
D03*
X4660000Y2660000D02*
D03*
X5390000Y2840000D02*
D03*
X5992085Y3221698D02*
D03*
X2308692Y2793662D02*
D03*
X2410000Y2670000D02*
D03*
X2400000Y2430000D02*
D03*
X3540000Y790000D02*
D03*
X6674390Y925413D02*
D03*
X6891590Y819305D02*
D03*
X7155123Y685944D02*
D03*
X7615123Y645943D02*
D03*
X6879999Y1380000D02*
D03*
X6820000Y1440000D02*
D03*
X6770000Y2480000D02*
D03*
X7118163Y1582361D02*
D03*
X7118163Y2572361D02*
D03*
X7120409Y752426D02*
D03*
X7154390Y865413D02*
D03*
X6675123Y745943D02*
D03*
X7580409Y712426D02*
D03*
X7558441Y880895D02*
D03*
X7614390Y825413D02*
D03*
X7641589Y2729305D02*
D03*
X7390409Y2722426D02*
D03*
X7424390Y2835413D02*
D03*
X7253733Y2830000D02*
D03*
X6830382Y2750300D02*
D03*
X6877625Y2808752D02*
D03*
X7390409Y2252426D02*
D03*
X7425123Y2185943D02*
D03*
X7253733Y2360000D02*
D03*
X7641590Y1779306D02*
D03*
X7643968Y1959224D02*
D03*
X7628893Y1195388D02*
D03*
X7641590Y1269305D02*
D03*
X7673536Y1380298D02*
D03*
X6900000Y1680000D02*
D03*
X7253733Y1880001D02*
D03*
Y1370000D02*
D03*
X7390409Y1262426D02*
D03*
X7425123Y1195944D02*
D03*
X5116260Y2841998D02*
D03*
X5165000Y2450000D02*
D03*
X4710658Y650658D02*
D03*
X3712176Y646743D02*
D03*
X4140000Y642500D02*
D03*
X4130000Y780000D02*
D03*
X3860000D02*
D03*
X4050000Y920000D02*
D03*
X2560000Y2100000D02*
D03*
X3100000Y4050000D02*
D03*
X5073717Y3051151D02*
D03*
X5050000Y2980000D02*
D03*
X5030000Y3120000D02*
D03*
X4790000Y3290000D02*
D03*
X3610000Y2530000D02*
D03*
X3890000Y2450000D02*
D03*
X4020000D02*
D03*
X4230000Y2530000D02*
D03*
X4310000Y2309998D02*
D03*
X4610000Y3020000D02*
D03*
X4430000Y1300000D02*
D03*
X4251747Y2897500D02*
D03*
X5400000Y3790000D02*
D03*
X5296038Y3910717D02*
D03*
X4880000Y4230000D02*
D03*
X5650001Y4609998D02*
D03*
X4655412Y4350000D02*
D03*
X4720000Y3650000D02*
D03*
X4810000Y3490000D02*
D03*
X4685114Y3064220D02*
D03*
X4410000Y3670000D02*
D03*
X8533671Y2778866D02*
D03*
X3270000Y1660000D02*
D03*
X5290000Y850000D02*
D03*
X4190000Y4130000D02*
D03*
X5360000Y2130000D02*
D03*
X5070000Y1770000D02*
D03*
X3200000Y3490000D02*
D03*
X2700000Y3370000D02*
D03*
X3077352Y2569393D02*
D03*
X3330000Y3180000D02*
D03*
X7481743Y4650021D02*
D03*
X4010000Y2230000D02*
D03*
X3570000Y2220000D02*
D03*
X3710000Y2830000D02*
D03*
X4090000Y2960000D02*
D03*
X2190000Y2770000D02*
D03*
X4419412Y1459077D02*
D03*
X2720000Y1600000D02*
D03*
X3408565Y2166852D02*
D03*
X3350000Y2120000D02*
D03*
X4050000Y1530000D02*
D03*
X3290000Y720000D02*
D03*
X4520000Y650000D02*
D03*
X2150000Y870000D02*
D03*
X1860000Y690000D02*
D03*
X2400000Y870000D02*
D03*
X2380000Y610000D02*
D03*
X2120000Y1930000D02*
D03*
X1980000Y1523734D02*
D03*
X2080000Y1520000D02*
D03*
X1913791Y1250948D02*
D03*
X4220000Y1650000D02*
D03*
X3471666Y2250967D02*
D03*
X3700000Y1960000D02*
D03*
X3960000Y2880000D02*
D03*
X3739998Y2959999D02*
D03*
X2977500Y4407500D02*
D03*
X2710659Y3800659D02*
D03*
X2740000Y3690000D02*
D03*
X3090000Y3740000D02*
D03*
X2780000Y3590000D02*
D03*
X3570000Y3610000D02*
D03*
X4090000Y4330000D02*
D03*
X2780000Y4170000D02*
D03*
X3380000Y4370000D02*
D03*
X3720000Y3510000D02*
D03*
X3310000Y4120000D02*
D03*
X2769342Y2040661D02*
D03*
X2240000Y1370000D02*
D03*
X2410000Y2850000D02*
D03*
X2800000Y1380000D02*
D03*
X2620000Y1740000D02*
D03*
X2630000Y2440000D02*
D03*
X3110000Y730000D02*
D03*
X2540000Y2270000D02*
D03*
X3050000Y2180000D02*
D03*
X3310000Y2420000D02*
D03*
X3940000Y3890000D02*
D03*
Y4200000D02*
D03*
X5760000Y4750000D02*
D03*
X3950000Y3270000D02*
D03*
X3890000Y2120000D02*
D03*
X4060000Y1450000D02*
D03*
X4880000Y4830000D02*
D03*
X1200000Y4080000D02*
D03*
X2860000Y4820000D02*
D03*
X5360000Y4550000D02*
D03*
X4730000Y4820000D02*
D03*
X3480000Y4570000D02*
D03*
X4260000Y1970000D02*
D03*
X7910000Y4900000D02*
D03*
X7772455Y4541138D02*
D03*
X7720000Y4730000D02*
D03*
X7184135Y4430000D02*
D03*
X7830000Y5080000D02*
D03*
X7000000Y4617500D02*
D03*
X6680000Y4657500D02*
D03*
X4620000Y3370000D02*
D03*
X4450000Y4840000D02*
D03*
X8188000Y2914999D02*
D03*
X6641771Y4528229D02*
D03*
X6675815Y4271571D02*
D03*
X6620000Y4600000D02*
D03*
X3639998Y4509999D02*
D03*
X5430002Y4609998D02*
D03*
X2750002Y2140001D02*
D03*
X2389998Y2949999D02*
D03*
X4429999Y3750000D02*
D03*
X4952487Y5137236D02*
D03*
X5710469Y5139578D02*
D03*
X5540817Y4609998D02*
D03*
X4480001Y2449998D02*
D03*
X4560001Y2389998D02*
D03*
X4440001Y3970000D02*
D03*
X3121355Y3019999D02*
D03*
X2300575Y2211070D02*
D03*
X4300002Y3039999D02*
D03*
X4460001Y4060002D02*
D03*
X4160002Y3930000D02*
D03*
X4092499Y3090001D02*
D03*
X2320000Y2870000D02*
D03*
X2260000Y2930000D02*
D03*
X2480000Y2900000D02*
D03*
X2750002Y2460000D02*
D03*
X3679998Y319999D02*
D03*
X4189999D02*
D03*
X2200001Y3199999D02*
D03*
Y2999999D02*
D03*
Y3099999D02*
D03*
Y3299998D02*
D03*
Y3399998D02*
D03*
X2180001Y3900002D02*
D03*
X2200001Y3699998D02*
D03*
X2189998Y3800003D02*
D03*
X2049998Y4050000D02*
D03*
X1949999Y4080002D02*
D03*
X2129998Y3990000D02*
D03*
X2190000Y4060000D02*
D03*
X2200001Y3599998D02*
D03*
Y3499998D02*
D03*
X2530000Y3680000D02*
D03*
X2400000Y4000002D02*
D03*
X2650002Y3970000D02*
D03*
X1950000Y4670000D02*
D03*
X1849999Y4400001D02*
D03*
Y4500001D02*
D03*
X1850000Y4610000D02*
D03*
X1849999Y4300002D02*
D03*
Y4100002D02*
D03*
X1850000Y4200000D02*
D03*
X2050001Y4670000D02*
D03*
X2405305Y4087301D02*
D03*
X2590002Y4620001D02*
D03*
X2250000Y4670000D02*
D03*
X2150001D02*
D03*
X2350000D02*
D03*
X3279999Y4369999D02*
D03*
X3719998Y3156915D02*
D03*
X4949998Y319999D02*
D03*
X4453077Y4211808D02*
D03*
X4320002Y3130001D02*
D03*
X3279308Y2029998D02*
D03*
X4450659Y3840658D02*
D03*
D104*
X8108000Y2349500D02*
D03*
Y2095500D02*
D03*
Y1841500D02*
D03*
Y1587500D02*
D03*
Y1333500D02*
D03*
Y1079500D02*
D03*
Y825500D02*
D03*
X8402000Y2349500D02*
D03*
Y2095500D02*
D03*
Y1841500D02*
D03*
Y1587500D02*
D03*
Y1333500D02*
D03*
Y1079500D02*
D03*
Y825500D02*
D03*
X8108000Y571500D02*
D03*
Y317500D02*
D03*
X8402000Y571500D02*
D03*
Y317500D02*
D03*
X8108000Y5143500D02*
D03*
Y4889500D02*
D03*
Y4635500D02*
D03*
Y4381500D02*
D03*
Y4127500D02*
D03*
Y3873500D02*
D03*
Y3619500D02*
D03*
X8402000Y5143500D02*
D03*
Y4889500D02*
D03*
Y4635500D02*
D03*
Y4381500D02*
D03*
Y4127500D02*
D03*
Y3873500D02*
D03*
Y3619500D02*
D03*
X8108000Y3365500D02*
D03*
Y3111500D02*
D03*
X8402000Y3365500D02*
D03*
Y3111500D02*
D03*
X2306000Y4512400D02*
D03*
Y4258400D02*
D03*
X2012000Y4512400D02*
D03*
Y4258400D02*
D03*
D105*
X2032000Y170500D02*
D03*
X2286000D02*
D03*
X2540000D02*
D03*
X2794000D02*
D03*
X3048000D02*
D03*
X3302000D02*
D03*
X3556000D02*
D03*
X3810000D02*
D03*
X4064000D02*
D03*
X4318000D02*
D03*
X4572000D02*
D03*
X4826000D02*
D03*
X5080000D02*
D03*
X5334000D02*
D03*
X5588000D02*
D03*
X5842000D02*
D03*
X6096000D02*
D03*
X6350000D02*
D03*
X6604000D02*
D03*
X6858000D02*
D03*
X7112000D02*
D03*
X7366000D02*
D03*
X7620000D02*
D03*
X2032000Y464500D02*
D03*
X2286000D02*
D03*
X2540000D02*
D03*
X2794000D02*
D03*
X3048000D02*
D03*
X3302000D02*
D03*
X3556000D02*
D03*
X3810000D02*
D03*
X4064000D02*
D03*
X4318000D02*
D03*
X4572000D02*
D03*
X4826000D02*
D03*
X5080000D02*
D03*
X5334000D02*
D03*
X5588000D02*
D03*
X5842000D02*
D03*
X6096000D02*
D03*
X6350000D02*
D03*
X6604000D02*
D03*
X6858000D02*
D03*
X7112000D02*
D03*
X7366000D02*
D03*
X7620000D02*
D03*
X2032000Y4996500D02*
D03*
X2286000D02*
D03*
X2540000D02*
D03*
X2794000D02*
D03*
X3048000D02*
D03*
X3302000D02*
D03*
X3556000D02*
D03*
X3810000D02*
D03*
X4064000D02*
D03*
X4318000D02*
D03*
X4572000D02*
D03*
X4826000D02*
D03*
X5080000D02*
D03*
X5334000D02*
D03*
X5588000D02*
D03*
X5842000D02*
D03*
X6096000D02*
D03*
X6350000D02*
D03*
X6604000D02*
D03*
X6858000D02*
D03*
X7112000D02*
D03*
X7366000D02*
D03*
X7620000D02*
D03*
X2032000Y5290500D02*
D03*
X2286000D02*
D03*
X2540000D02*
D03*
X2794000D02*
D03*
X3048000D02*
D03*
X3302000D02*
D03*
X3556000D02*
D03*
X3810000D02*
D03*
X4064000D02*
D03*
X4318000D02*
D03*
X4572000D02*
D03*
X4826000D02*
D03*
X5080000D02*
D03*
X5334000D02*
D03*
X5588000D02*
D03*
X5842000D02*
D03*
X6096000D02*
D03*
X6350000D02*
D03*
X6604000D02*
D03*
X6858000D02*
D03*
X7112000D02*
D03*
X7366000D02*
D03*
X7620000D02*
D03*
D106*
X1460500Y5143500D02*
D03*
%TF.MD5,16aef1f42188c28b552db726e599ac88*%
M02*
