%TF.GenerationSoftware,Altium Limited,Altium Designer,21.1.0 (24)*%
G04 Layer_Color=16711935*
%FSLAX45Y45*%
%MOMM*%
%TF.SameCoordinates,A42B3F18-A760-40AD-9EC3-E9591E309F50*%
%TF.FilePolarity,Negative*%
%TF.FileFunction,Soldermask,Bot*%
%TF.Part,Single*%
G01*
G75*
%TA.AperFunction,SMDPad,CuDef*%
G04:AMPARAMS|DCode=66|XSize=1.55mm|YSize=2.35mm|CornerRadius=0.425mm|HoleSize=0mm|Usage=FLASHONLY|Rotation=0.000|XOffset=0mm|YOffset=0mm|HoleType=Round|Shape=RoundedRectangle|*
%AMROUNDEDRECTD66*
21,1,1.55000,1.50000,0,0,0.0*
21,1,0.70000,2.35000,0,0,0.0*
1,1,0.85000,0.35000,-0.75000*
1,1,0.85000,-0.35000,-0.75000*
1,1,0.85000,-0.35000,0.75000*
1,1,0.85000,0.35000,0.75000*
%
%ADD66ROUNDEDRECTD66*%
G04:AMPARAMS|DCode=67|XSize=1.55mm|YSize=2.35mm|CornerRadius=0mm|HoleSize=0mm|Usage=FLASHONLY|Rotation=0.000|XOffset=0mm|YOffset=0mm|HoleType=Round|Shape=Octagon|*
%AMOCTAGOND67*
4,1,8,-0.38750,1.17500,0.38750,1.17500,0.77500,0.78750,0.77500,-0.78750,0.38750,-1.17500,-0.38750,-1.17500,-0.77500,-0.78750,-0.77500,0.78750,-0.38750,1.17500,0.0*
%
%ADD67OCTAGOND67*%

%TA.AperFunction,ComponentPad*%
G04:AMPARAMS|DCode=68|XSize=1.85mm|YSize=2.25mm|CornerRadius=0mm|HoleSize=0mm|Usage=FLASHONLY|Rotation=270.000|XOffset=0mm|YOffset=0mm|HoleType=Round|Shape=Octagon|*
%AMOCTAGOND68*
4,1,8,1.12500,0.46250,1.12500,-0.46250,0.66250,-0.92500,-0.66250,-0.92500,-1.12500,-0.46250,-1.12500,0.46250,-0.66250,0.92500,0.66250,0.92500,1.12500,0.46250,0.0*
%
%ADD68OCTAGOND68*%

G04:AMPARAMS|DCode=69|XSize=1.85mm|YSize=2.25mm|CornerRadius=0.5mm|HoleSize=0mm|Usage=FLASHONLY|Rotation=270.000|XOffset=0mm|YOffset=0mm|HoleType=Round|Shape=RoundedRectangle|*
%AMROUNDEDRECTD69*
21,1,1.85000,1.25001,0,0,270.0*
21,1,0.85000,2.25000,0,0,270.0*
1,1,1.00000,-0.62500,-0.42500*
1,1,1.00000,-0.62500,0.42500*
1,1,1.00000,0.62500,0.42500*
1,1,1.00000,0.62500,-0.42500*
%
%ADD69ROUNDEDRECTD69*%
G04:AMPARAMS|DCode=70|XSize=1.25mm|YSize=1.35mm|CornerRadius=0.35mm|HoleSize=0mm|Usage=FLASHONLY|Rotation=180.000|XOffset=0mm|YOffset=0mm|HoleType=Round|Shape=RoundedRectangle|*
%AMROUNDEDRECTD70*
21,1,1.25000,0.65000,0,0,180.0*
21,1,0.55000,1.35000,0,0,180.0*
1,1,0.70000,-0.27500,0.32500*
1,1,0.70000,0.27500,0.32500*
1,1,0.70000,0.27500,-0.32500*
1,1,0.70000,-0.27500,-0.32500*
%
%ADD70ROUNDEDRECTD70*%
G04:AMPARAMS|DCode=71|XSize=2.05mm|YSize=2.05mm|CornerRadius=0.55mm|HoleSize=0mm|Usage=FLASHONLY|Rotation=180.000|XOffset=0mm|YOffset=0mm|HoleType=Round|Shape=RoundedRectangle|*
%AMROUNDEDRECTD71*
21,1,2.05000,0.95000,0,0,180.0*
21,1,0.95000,2.05000,0,0,180.0*
1,1,1.10000,-0.47500,0.47500*
1,1,1.10000,0.47500,0.47500*
1,1,1.10000,0.47500,-0.47500*
1,1,1.10000,-0.47500,-0.47500*
%
%ADD71ROUNDEDRECTD71*%
G36*
X2956752Y1955814D02*
X2956752Y1195285D01*
X2429999Y1195286D01*
X2430000Y1955814D01*
X2956752Y1955814D01*
D02*
G37*
D66*
X1588000Y170000D02*
D03*
X2604000D02*
D03*
X1842000D02*
D03*
X2096000D02*
D03*
X1080000D02*
D03*
X2350000D02*
D03*
X1334000D02*
D03*
D67*
X826000D02*
D03*
D68*
X180000Y1760000D02*
D03*
D69*
Y1506000D02*
D03*
Y1252000D02*
D03*
Y998000D02*
D03*
Y744000D02*
D03*
Y490000D02*
D03*
Y236000D02*
D03*
X474000Y1760000D02*
D03*
Y1506000D02*
D03*
Y1252000D02*
D03*
Y998000D02*
D03*
Y744000D02*
D03*
Y490000D02*
D03*
Y236000D02*
D03*
D70*
X1637500Y1560000D02*
D03*
X2097500D02*
D03*
D71*
X1450000Y1860000D02*
D03*
X2285000D02*
D03*
%TF.MD5,57b7d365aacf067ed32faa1340573ef3*%
M02*
