%TF.GenerationSoftware,Altium Limited,Altium Designer,21.1.0 (24)*%
G04 Layer_Color=255*
%FSLAX45Y45*%
%MOMM*%
%TF.SameCoordinates,A42B3F18-A760-40AD-9EC3-E9591E309F50*%
%TF.FilePolarity,Positive*%
%TF.FileFunction,Pads,Bot*%
%TF.Part,Single*%
G01*
G75*
%TA.AperFunction,SMDPad,CuDef*%
G04:AMPARAMS|DCode=10|XSize=1.4mm|YSize=2.2mm|CornerRadius=0.35mm|HoleSize=0mm|Usage=FLASHONLY|Rotation=0.000|XOffset=0mm|YOffset=0mm|HoleType=Round|Shape=RoundedRectangle|*
%AMROUNDEDRECTD10*
21,1,1.40000,1.50000,0,0,0.0*
21,1,0.70000,2.20000,0,0,0.0*
1,1,0.70000,0.35000,-0.75000*
1,1,0.70000,-0.35000,-0.75000*
1,1,0.70000,-0.35000,0.75000*
1,1,0.70000,0.35000,0.75000*
%
%ADD10ROUNDEDRECTD10*%
%TA.AperFunction,ComponentPad*%
G04:AMPARAMS|DCode=25|XSize=1.7mm|YSize=2.1mm|CornerRadius=0mm|HoleSize=0mm|Usage=FLASHONLY|Rotation=270.000|XOffset=0mm|YOffset=0mm|HoleType=Round|Shape=Octagon|*
%AMOCTAGOND25*
4,1,8,1.05000,0.42500,1.05000,-0.42500,0.62500,-0.85000,-0.62500,-0.85000,-1.05000,-0.42500,-1.05000,0.42500,-0.62500,0.85000,0.62500,0.85000,1.05000,0.42500,0.0*
%
%ADD25OCTAGOND25*%

G04:AMPARAMS|DCode=26|XSize=1.7mm|YSize=2.1mm|CornerRadius=0.425mm|HoleSize=0mm|Usage=FLASHONLY|Rotation=270.000|XOffset=0mm|YOffset=0mm|HoleType=Round|Shape=RoundedRectangle|*
%AMROUNDEDRECTD26*
21,1,1.70000,1.25001,0,0,270.0*
21,1,0.85000,2.10000,0,0,270.0*
1,1,0.85000,-0.62500,-0.42500*
1,1,0.85000,-0.62500,0.42500*
1,1,0.85000,0.62500,0.42500*
1,1,0.85000,0.62500,-0.42500*
%
%ADD26ROUNDEDRECTD26*%
G04:AMPARAMS|DCode=27|XSize=1.1mm|YSize=1.2mm|CornerRadius=0.275mm|HoleSize=0mm|Usage=FLASHONLY|Rotation=180.000|XOffset=0mm|YOffset=0mm|HoleType=Round|Shape=RoundedRectangle|*
%AMROUNDEDRECTD27*
21,1,1.10000,0.65000,0,0,180.0*
21,1,0.55000,1.20000,0,0,180.0*
1,1,0.55000,-0.27500,0.32500*
1,1,0.55000,0.27500,0.32500*
1,1,0.55000,0.27500,-0.32500*
1,1,0.55000,-0.27500,-0.32500*
%
%ADD27ROUNDEDRECTD27*%
G04:AMPARAMS|DCode=28|XSize=1.9mm|YSize=1.9mm|CornerRadius=0.475mm|HoleSize=0mm|Usage=FLASHONLY|Rotation=180.000|XOffset=0mm|YOffset=0mm|HoleType=Round|Shape=RoundedRectangle|*
%AMROUNDEDRECTD28*
21,1,1.90000,0.95000,0,0,180.0*
21,1,0.95000,1.90000,0,0,180.0*
1,1,0.95000,-0.47500,0.47500*
1,1,0.95000,0.47500,0.47500*
1,1,0.95000,0.47500,-0.47500*
1,1,0.95000,-0.47500,-0.47500*
%
%ADD28ROUNDEDRECTD28*%
%TA.AperFunction,SMDPad,CuDef*%
G04:AMPARAMS|DCode=31|XSize=1.4mm|YSize=2.2mm|CornerRadius=0mm|HoleSize=0mm|Usage=FLASHONLY|Rotation=0.000|XOffset=0mm|YOffset=0mm|HoleType=Round|Shape=Octagon|*
%AMOCTAGOND31*
4,1,8,-0.35000,1.10000,0.35000,1.10000,0.70000,0.75000,0.70000,-0.75000,0.35000,-1.10000,-0.35000,-1.10000,-0.70000,-0.75000,-0.70000,0.75000,-0.35000,1.10000,0.0*
%
%ADD31OCTAGOND31*%

D10*
X1588000Y170000D02*
D03*
X2604000D02*
D03*
X1842000D02*
D03*
X2096000D02*
D03*
X1080000D02*
D03*
X2350000D02*
D03*
X1334000D02*
D03*
D25*
X180000Y1760000D02*
D03*
D26*
Y1506000D02*
D03*
Y1252000D02*
D03*
Y998000D02*
D03*
Y744000D02*
D03*
Y490000D02*
D03*
Y236000D02*
D03*
X474000Y1760000D02*
D03*
Y1506000D02*
D03*
Y1252000D02*
D03*
Y998000D02*
D03*
Y744000D02*
D03*
Y490000D02*
D03*
Y236000D02*
D03*
D27*
X1637500Y1560000D02*
D03*
X2097500D02*
D03*
D28*
X1450000Y1860000D02*
D03*
X2285000D02*
D03*
D31*
X826000Y170000D02*
D03*
%TF.MD5,8e9b0ec34f2e2e10cbd959fe96b4d695*%
M02*
