%TF.GenerationSoftware,Altium Limited,Altium Designer,21.1.0 (24)*%
G04 Layer_Physical_Order=1*
G04 Layer_Color=255*
%FSLAX45Y45*%
%MOMM*%
%TF.SameCoordinates,A42B3F18-A760-40AD-9EC3-E9591E309F50*%
%TF.FilePolarity,Positive*%
%TF.FileFunction,Copper,L1,Top,Signal*%
%TF.Part,Single*%
G01*
G75*
%TA.AperFunction,SMDPad,CuDef*%
G04:AMPARAMS|DCode=10|XSize=1.4mm|YSize=2.2mm|CornerRadius=0.35mm|HoleSize=0mm|Usage=FLASHONLY|Rotation=0.000|XOffset=0mm|YOffset=0mm|HoleType=Round|Shape=RoundedRectangle|*
%AMROUNDEDRECTD10*
21,1,1.40000,1.50000,0,0,0.0*
21,1,0.70000,2.20000,0,0,0.0*
1,1,0.70000,0.35000,-0.75000*
1,1,0.70000,-0.35000,-0.75000*
1,1,0.70000,-0.35000,0.75000*
1,1,0.70000,0.35000,0.75000*
%
%ADD10ROUNDEDRECTD10*%
%ADD11R,1.10000X1.10000*%
G04:AMPARAMS|DCode=12|XSize=1.1mm|YSize=1.1mm|CornerRadius=0.275mm|HoleSize=0mm|Usage=FLASHONLY|Rotation=270.000|XOffset=0mm|YOffset=0mm|HoleType=Round|Shape=RoundedRectangle|*
%AMROUNDEDRECTD12*
21,1,1.10000,0.55000,0,0,270.0*
21,1,0.55000,1.10000,0,0,270.0*
1,1,0.55000,-0.27500,-0.27500*
1,1,0.55000,-0.27500,0.27500*
1,1,0.55000,0.27500,0.27500*
1,1,0.55000,0.27500,-0.27500*
%
%ADD12ROUNDEDRECTD12*%
G04:AMPARAMS|DCode=13|XSize=0.8mm|YSize=0.8mm|CornerRadius=0.2mm|HoleSize=0mm|Usage=FLASHONLY|Rotation=270.000|XOffset=0mm|YOffset=0mm|HoleType=Round|Shape=RoundedRectangle|*
%AMROUNDEDRECTD13*
21,1,0.80000,0.40000,0,0,270.0*
21,1,0.40000,0.80000,0,0,270.0*
1,1,0.40000,-0.20000,-0.20000*
1,1,0.40000,-0.20000,0.20000*
1,1,0.40000,0.20000,0.20000*
1,1,0.40000,0.20000,-0.20000*
%
%ADD13ROUNDEDRECTD13*%
%ADD14R,0.80000X0.80000*%
%TA.AperFunction,BGAPad,CuDef*%
%ADD15C,0.60000*%
%TA.AperFunction,SMDPad,CuDef*%
G04:AMPARAMS|DCode=16|XSize=0.6mm|YSize=0.7mm|CornerRadius=0.15mm|HoleSize=0mm|Usage=FLASHONLY|Rotation=270.000|XOffset=0mm|YOffset=0mm|HoleType=Round|Shape=RoundedRectangle|*
%AMROUNDEDRECTD16*
21,1,0.60000,0.40000,0,0,270.0*
21,1,0.30000,0.70000,0,0,270.0*
1,1,0.30000,-0.20000,-0.15000*
1,1,0.30000,-0.20000,0.15000*
1,1,0.30000,0.20000,0.15000*
1,1,0.30000,0.20000,-0.15000*
%
%ADD16ROUNDEDRECTD16*%
G04:AMPARAMS|DCode=17|XSize=0.5mm|YSize=0.5mm|CornerRadius=0.125mm|HoleSize=0mm|Usage=FLASHONLY|Rotation=270.000|XOffset=0mm|YOffset=0mm|HoleType=Round|Shape=RoundedRectangle|*
%AMROUNDEDRECTD17*
21,1,0.50000,0.25000,0,0,270.0*
21,1,0.25000,0.50000,0,0,270.0*
1,1,0.25000,-0.12500,-0.12500*
1,1,0.25000,-0.12500,0.12500*
1,1,0.25000,0.12500,0.12500*
1,1,0.25000,0.12500,-0.12500*
%
%ADD17ROUNDEDRECTD17*%
%ADD18R,0.38000X1.40000*%
G04:AMPARAMS|DCode=19|XSize=0.38mm|YSize=1.4mm|CornerRadius=0.095mm|HoleSize=0mm|Usage=FLASHONLY|Rotation=180.000|XOffset=0mm|YOffset=0mm|HoleType=Round|Shape=RoundedRectangle|*
%AMROUNDEDRECTD19*
21,1,0.38000,1.21000,0,0,180.0*
21,1,0.19000,1.40000,0,0,180.0*
1,1,0.19000,-0.09500,0.60500*
1,1,0.19000,0.09500,0.60500*
1,1,0.19000,0.09500,-0.60500*
1,1,0.19000,-0.09500,-0.60500*
%
%ADD19ROUNDEDRECTD19*%
G04:AMPARAMS|DCode=20|XSize=2.9mm|YSize=1.9mm|CornerRadius=0.475mm|HoleSize=0mm|Usage=FLASHONLY|Rotation=180.000|XOffset=0mm|YOffset=0mm|HoleType=Round|Shape=RoundedRectangle|*
%AMROUNDEDRECTD20*
21,1,2.90000,0.95000,0,0,180.0*
21,1,1.95000,1.90000,0,0,180.0*
1,1,0.95000,-0.97500,0.47500*
1,1,0.95000,0.97500,0.47500*
1,1,0.95000,0.97500,-0.47500*
1,1,0.95000,-0.97500,-0.47500*
%
%ADD20ROUNDEDRECTD20*%
G04:AMPARAMS|DCode=21|XSize=0.5mm|YSize=0.5mm|CornerRadius=0.125mm|HoleSize=0mm|Usage=FLASHONLY|Rotation=180.000|XOffset=0mm|YOffset=0mm|HoleType=Round|Shape=RoundedRectangle|*
%AMROUNDEDRECTD21*
21,1,0.50000,0.25000,0,0,180.0*
21,1,0.25000,0.50000,0,0,180.0*
1,1,0.25000,-0.12500,0.12500*
1,1,0.25000,0.12500,0.12500*
1,1,0.25000,0.12500,-0.12500*
1,1,0.25000,-0.12500,-0.12500*
%
%ADD21ROUNDEDRECTD21*%
%TA.AperFunction,Conductor*%
%ADD22C,0.40000*%
%ADD23C,0.25000*%
%TA.AperFunction,NonConductor*%
%ADD24C,0.15000*%
%TA.AperFunction,ComponentPad*%
G04:AMPARAMS|DCode=25|XSize=1.7mm|YSize=2.1mm|CornerRadius=0mm|HoleSize=0mm|Usage=FLASHONLY|Rotation=270.000|XOffset=0mm|YOffset=0mm|HoleType=Round|Shape=Octagon|*
%AMOCTAGOND25*
4,1,8,1.05000,0.42500,1.05000,-0.42500,0.62500,-0.85000,-0.62500,-0.85000,-1.05000,-0.42500,-1.05000,0.42500,-0.62500,0.85000,0.62500,0.85000,1.05000,0.42500,0.0*
%
%ADD25OCTAGOND25*%

G04:AMPARAMS|DCode=26|XSize=1.7mm|YSize=2.1mm|CornerRadius=0.425mm|HoleSize=0mm|Usage=FLASHONLY|Rotation=270.000|XOffset=0mm|YOffset=0mm|HoleType=Round|Shape=RoundedRectangle|*
%AMROUNDEDRECTD26*
21,1,1.70000,1.25001,0,0,270.0*
21,1,0.85000,2.10000,0,0,270.0*
1,1,0.85000,-0.62500,-0.42500*
1,1,0.85000,-0.62500,0.42500*
1,1,0.85000,0.62500,0.42500*
1,1,0.85000,0.62500,-0.42500*
%
%ADD26ROUNDEDRECTD26*%
G04:AMPARAMS|DCode=27|XSize=1.1mm|YSize=1.2mm|CornerRadius=0.275mm|HoleSize=0mm|Usage=FLASHONLY|Rotation=180.000|XOffset=0mm|YOffset=0mm|HoleType=Round|Shape=RoundedRectangle|*
%AMROUNDEDRECTD27*
21,1,1.10000,0.65000,0,0,180.0*
21,1,0.55000,1.20000,0,0,180.0*
1,1,0.55000,-0.27500,0.32500*
1,1,0.55000,0.27500,0.32500*
1,1,0.55000,0.27500,-0.32500*
1,1,0.55000,-0.27500,-0.32500*
%
%ADD27ROUNDEDRECTD27*%
G04:AMPARAMS|DCode=28|XSize=1.9mm|YSize=1.9mm|CornerRadius=0.475mm|HoleSize=0mm|Usage=FLASHONLY|Rotation=180.000|XOffset=0mm|YOffset=0mm|HoleType=Round|Shape=RoundedRectangle|*
%AMROUNDEDRECTD28*
21,1,1.90000,0.95000,0,0,180.0*
21,1,0.95000,1.90000,0,0,180.0*
1,1,0.95000,-0.47500,0.47500*
1,1,0.95000,0.47500,0.47500*
1,1,0.95000,0.47500,-0.47500*
1,1,0.95000,-0.47500,-0.47500*
%
%ADD28ROUNDEDRECTD28*%
%TA.AperFunction,ViaPad*%
%ADD29C,0.60000*%
G36*
X620099Y1941056D02*
X619854Y1940784D01*
X340001D01*
X340000Y1940784D01*
X324393Y1937679D01*
X311162Y1928838D01*
X311161Y1928838D01*
X264670Y1882347D01*
X262677Y1881569D01*
X256162Y1875319D01*
X250597Y1870477D01*
X245764Y1866764D01*
X243051Y1865000D01*
X230633D01*
X228127Y1866038D01*
X226724Y1865457D01*
X225257Y1865847D01*
X223797Y1865000D01*
X107500D01*
X58944Y1816444D01*
X43944Y1822022D01*
Y1956056D01*
X613409D01*
X620099Y1941056D01*
D02*
G37*
G36*
X781911Y1926105D02*
X783215Y1922725D01*
X785387Y1919743D01*
X788429Y1917158D01*
X792340Y1914971D01*
X797120Y1913181D01*
X802769Y1911789D01*
X808107Y1910975D01*
X808576Y1911000D01*
Y1910904D01*
X809287Y1910795D01*
X816674Y1910199D01*
X824930Y1910000D01*
Y1870000D01*
X816674Y1869801D01*
X809287Y1869205D01*
X808576Y1869096D01*
Y1869000D01*
X808432Y1869074D01*
X802769Y1868211D01*
X797120Y1866819D01*
X792340Y1865029D01*
X788429Y1862842D01*
X785387Y1860257D01*
X783215Y1857275D01*
X781911Y1853895D01*
X781476Y1850117D01*
Y1929883D01*
X781911Y1926105D01*
D02*
G37*
G36*
X675702Y1860040D02*
X675641Y1863832D01*
X674692Y1867226D01*
X672852Y1870220D01*
X670123Y1872814D01*
X666505Y1875010D01*
X661997Y1876807D01*
X656600Y1878204D01*
X650313Y1879202D01*
X643136Y1879800D01*
X635070Y1880000D01*
X635400Y1920000D01*
X642130Y1920169D01*
X648425Y1920676D01*
X654284Y1921521D01*
X659708Y1922703D01*
X664696Y1924224D01*
X669249Y1926083D01*
X673366Y1928279D01*
X677047Y1930813D01*
X680294Y1933685D01*
X683104Y1936896D01*
X675702Y1860040D01*
D02*
G37*
G36*
X305948Y1837664D02*
X299334Y1830770D01*
X289078Y1818276D01*
X285436Y1812675D01*
X282785Y1807506D01*
X281125Y1802768D01*
X280455Y1798461D01*
X280776Y1794585D01*
X282088Y1791140D01*
X284391Y1788127D01*
X228127Y1844390D01*
X231140Y1842088D01*
X234585Y1840776D01*
X238461Y1840455D01*
X242768Y1841124D01*
X247506Y1842785D01*
X252675Y1845436D01*
X258276Y1849078D01*
X264307Y1853710D01*
X270770Y1859334D01*
X277664Y1865948D01*
X305948Y1837664D01*
D02*
G37*
G36*
X1025915Y1835305D02*
X1023400Y1837031D01*
X1020318Y1837746D01*
X1016672Y1837448D01*
X1012459Y1836138D01*
X1007681Y1833815D01*
X1002337Y1830481D01*
X996428Y1826134D01*
X989952Y1820775D01*
X975305Y1807021D01*
X947021Y1835305D01*
X954404Y1842911D01*
X966134Y1856428D01*
X970481Y1862337D01*
X973815Y1867681D01*
X976137Y1872459D01*
X977448Y1876672D01*
X977746Y1880318D01*
X977031Y1883400D01*
X975305Y1885915D01*
X1025915Y1835305D01*
D02*
G37*
G36*
X634535Y1858359D02*
X641968Y1858175D01*
X647711Y1857696D01*
X652181Y1856986D01*
X655251Y1856191D01*
X655331Y1856160D01*
X657756Y1843967D01*
X668255Y1828255D01*
X683967Y1817756D01*
X702500Y1814070D01*
X753931D01*
X759130Y1805213D01*
X760199Y1799403D01*
X748902Y1788865D01*
X742729Y1783871D01*
X738351Y1780784D01*
X728077D01*
X727744Y1781007D01*
X726620Y1780784D01*
X725560D01*
X724157Y1781415D01*
X722495Y1780784D01*
X710000D01*
X694393Y1777679D01*
X681161Y1768838D01*
X672321Y1755607D01*
X669366Y1740754D01*
X668848Y1739912D01*
X669216Y1738367D01*
Y1738034D01*
X668576Y1736488D01*
X669216Y1734941D01*
Y1722518D01*
X668363Y1721038D01*
X664929Y1716127D01*
X653530Y1702687D01*
X646065Y1694960D01*
X645273Y1692949D01*
X601162Y1648838D01*
X592321Y1635607D01*
X589216Y1620000D01*
X589216Y1619999D01*
Y1606485D01*
X574217Y1598467D01*
X560887Y1607374D01*
X536500Y1612224D01*
X411500D01*
X387114Y1607374D01*
X366440Y1593560D01*
X352626Y1572886D01*
X347776Y1548500D01*
Y1463500D01*
X352626Y1439114D01*
X366440Y1418440D01*
X387114Y1404626D01*
X411500Y1399776D01*
X536500D01*
X560887Y1404626D01*
X574217Y1413533D01*
X589216Y1405515D01*
Y1352485D01*
X574217Y1344467D01*
X560887Y1353374D01*
X536500Y1358224D01*
X411500D01*
X387114Y1353374D01*
X366440Y1339560D01*
X352626Y1318886D01*
X347776Y1294500D01*
Y1209500D01*
X352626Y1185114D01*
X366440Y1164440D01*
X387114Y1150626D01*
X411500Y1145776D01*
X536500D01*
X560887Y1150626D01*
X574217Y1159533D01*
X589216Y1151515D01*
Y1098485D01*
X574217Y1090467D01*
X560887Y1099374D01*
X536500Y1104224D01*
X411500D01*
X387114Y1099374D01*
X366440Y1085560D01*
X352626Y1064886D01*
X347776Y1040500D01*
Y955500D01*
X352626Y931114D01*
X366440Y910440D01*
X387114Y896626D01*
X411500Y891776D01*
X536500D01*
X560887Y896626D01*
X574217Y905533D01*
X589216Y897515D01*
Y844485D01*
X574217Y836467D01*
X560887Y845374D01*
X536500Y850224D01*
X411500D01*
X387114Y845374D01*
X366440Y831560D01*
X352626Y810886D01*
X347776Y786500D01*
Y701500D01*
X352626Y677114D01*
X366440Y656440D01*
X387114Y642626D01*
X411500Y637776D01*
X536500D01*
X560887Y642626D01*
X574217Y651533D01*
X589216Y643515D01*
Y590485D01*
X574217Y582467D01*
X560887Y591374D01*
X536500Y596224D01*
X411500D01*
X387114Y591374D01*
X366440Y577560D01*
X352626Y556886D01*
X347776Y532500D01*
Y447500D01*
X352626Y423114D01*
X366440Y402440D01*
X387114Y388626D01*
X411500Y383776D01*
X536500D01*
X560887Y388626D01*
X574217Y397533D01*
X589216Y389515D01*
Y339470D01*
X587208Y336468D01*
X583623Y333600D01*
X574217Y330274D01*
X573989Y330410D01*
X570277Y333034D01*
X569178Y333283D01*
X568486Y334172D01*
X565030Y334605D01*
X560887Y337374D01*
X536500Y342224D01*
X411500D01*
X387114Y337374D01*
X366440Y323560D01*
X352626Y302886D01*
X347776Y278500D01*
Y193500D01*
X352626Y169114D01*
X366440Y148440D01*
X387114Y134626D01*
X411500Y129776D01*
X536500D01*
X560887Y134626D01*
X581560Y148440D01*
X595374Y169114D01*
X600225Y193500D01*
Y235891D01*
X600466Y235952D01*
X605268Y236680D01*
X611515Y237172D01*
X619560Y237358D01*
X620719Y237870D01*
X621944Y237545D01*
X623100Y238216D01*
X638999D01*
X639000Y238216D01*
X654607Y241321D01*
X667838Y250162D01*
X716893Y299217D01*
X746145D01*
X750546Y286897D01*
X751056Y284217D01*
X739192Y266460D01*
X734923Y245000D01*
Y95000D01*
X739192Y73540D01*
X748944Y58944D01*
X743469Y43944D01*
X200000D01*
X199453Y43836D01*
X159563Y49087D01*
X121882Y64695D01*
X89524Y89524D01*
X64695Y121882D01*
X60572Y131835D01*
X72689Y141779D01*
X91007Y129540D01*
X117500Y124270D01*
X167300D01*
Y236000D01*
Y347730D01*
X117500D01*
X91007Y342460D01*
X68547Y327453D01*
X58944Y313082D01*
X43944Y317632D01*
Y420143D01*
X57655Y422917D01*
X58944Y422638D01*
X72440Y402440D01*
X93114Y388626D01*
X117500Y383776D01*
X242500D01*
X266887Y388626D01*
X287560Y402440D01*
X301374Y423114D01*
X306225Y447500D01*
Y532500D01*
X301374Y556886D01*
X287560Y577560D01*
X266887Y591374D01*
X242500Y596224D01*
X117500D01*
X93114Y591374D01*
X72440Y577560D01*
X58944Y557362D01*
X57655Y557083D01*
X43944Y559857D01*
Y674143D01*
X57655Y676917D01*
X58944Y676638D01*
X72440Y656440D01*
X93114Y642626D01*
X117500Y637776D01*
X242500D01*
X266887Y642626D01*
X287560Y656440D01*
X301374Y677114D01*
X306225Y701500D01*
Y786500D01*
X301374Y810886D01*
X287560Y831560D01*
X266887Y845374D01*
X242500Y850224D01*
X117500D01*
X93114Y845374D01*
X72440Y831560D01*
X58944Y811362D01*
X57655Y811083D01*
X43944Y813857D01*
Y928143D01*
X57655Y930917D01*
X58944Y930638D01*
X72440Y910440D01*
X93114Y896626D01*
X117500Y891776D01*
X242500D01*
X266887Y896626D01*
X287560Y910440D01*
X301374Y931114D01*
X306225Y955500D01*
Y1040500D01*
X301374Y1064886D01*
X287560Y1085560D01*
X266887Y1099374D01*
X242500Y1104224D01*
X117500D01*
X93114Y1099374D01*
X72440Y1085560D01*
X58944Y1065362D01*
X57655Y1065083D01*
X43944Y1067857D01*
Y1182143D01*
X57655Y1184917D01*
X58944Y1184638D01*
X72440Y1164440D01*
X93114Y1150626D01*
X117500Y1145776D01*
X242500D01*
X266887Y1150626D01*
X287560Y1164440D01*
X301374Y1185114D01*
X306225Y1209500D01*
Y1294500D01*
X301374Y1318886D01*
X287560Y1339560D01*
X266887Y1353374D01*
X242500Y1358224D01*
X117500D01*
X93114Y1353374D01*
X72440Y1339560D01*
X58944Y1319362D01*
X57655Y1319083D01*
X43944Y1321857D01*
Y1436143D01*
X57655Y1438917D01*
X58944Y1438638D01*
X72440Y1418440D01*
X93114Y1404626D01*
X117500Y1399776D01*
X242500D01*
X266887Y1404626D01*
X287560Y1418440D01*
X301374Y1439114D01*
X306225Y1463500D01*
Y1548500D01*
X301374Y1572886D01*
X287560Y1593560D01*
X266887Y1607374D01*
X242500Y1612224D01*
X117500D01*
X93114Y1607374D01*
X72440Y1593560D01*
X58944Y1573362D01*
X57655Y1573083D01*
X43944Y1575857D01*
Y1697978D01*
X58944Y1703556D01*
X107500Y1655000D01*
X252500D01*
X305000Y1707500D01*
Y1783797D01*
X305847Y1785257D01*
X305458Y1786724D01*
X306039Y1788127D01*
X305000Y1790634D01*
Y1803051D01*
X306572Y1805469D01*
X315534Y1816386D01*
X321569Y1822676D01*
X322347Y1824670D01*
X335196Y1837520D01*
X347540Y1828993D01*
X342270Y1802500D01*
Y1772700D01*
X605730D01*
Y1802500D01*
X600461Y1828993D01*
X590289Y1844217D01*
X598306Y1859216D01*
X632601D01*
X634535Y1858359D01*
D02*
G37*
G36*
X810631Y1762347D02*
X803885Y1755322D01*
X792086Y1741286D01*
X787032Y1734275D01*
X782542Y1727270D01*
X778616Y1720269D01*
X775254Y1713273D01*
X772456Y1706283D01*
X770222Y1699297D01*
X768552Y1692315D01*
X723513Y1759776D01*
X726092Y1757039D01*
X729348Y1755539D01*
X733281Y1755276D01*
X737893Y1756249D01*
X743181Y1758460D01*
X749147Y1761908D01*
X755790Y1766592D01*
X763110Y1772514D01*
X779783Y1788067D01*
X810631Y1762347D01*
D02*
G37*
G36*
X2956056Y1194971D02*
X2919133D01*
X2913464Y1205577D01*
X2912501Y1209971D01*
X2913959Y1217300D01*
X2860000D01*
Y1230000D01*
X2847300D01*
Y1283959D01*
X2838384Y1282186D01*
X2820059Y1269941D01*
X2814020Y1260904D01*
X2795980D01*
X2789941Y1269941D01*
X2771616Y1282186D01*
X2762700Y1283959D01*
Y1230000D01*
X2750000D01*
Y1217300D01*
X2730972D01*
Y1206807D01*
X2729838Y1207414D01*
X2727993Y1207957D01*
X2725437Y1208435D01*
X2722170Y1208851D01*
X2713504Y1209489D01*
X2697462Y1209806D01*
X2696536Y1205577D01*
X2690867Y1194971D01*
X2610000D01*
X2593183Y1191626D01*
X2585678Y1186611D01*
X2574864Y1197426D01*
X2582186Y1208384D01*
X2582472Y1209824D01*
X2552037Y1207958D01*
X2551565Y1205437D01*
X2551149Y1202170D01*
X2550511Y1193504D01*
X2550115Y1173471D01*
X2552043Y1142007D01*
X2552586Y1140162D01*
X2553193Y1139028D01*
X2506807D01*
X2507414Y1140162D01*
X2507957Y1142007D01*
X2508435Y1144563D01*
X2508851Y1147830D01*
X2509489Y1156496D01*
X2509885Y1176529D01*
X2507957Y1207993D01*
X2507414Y1209838D01*
X2506807Y1210972D01*
X2549028D01*
Y1217300D01*
X2530000D01*
Y1230000D01*
X2517300D01*
Y1283959D01*
X2508384Y1282186D01*
X2490059Y1269941D01*
X2480123Y1255070D01*
X2467119Y1254142D01*
X2463419Y1255016D01*
X2462522Y1256359D01*
X2461520Y1260708D01*
X2459721Y1263233D01*
X2458486Y1265218D01*
X2457422Y1267202D01*
X2456520Y1269191D01*
X2455759Y1271216D01*
X2455140Y1273277D01*
X2454655Y1275404D01*
X2454301Y1277615D01*
X2454085Y1279920D01*
X2453991Y1283002D01*
X2452989Y1285224D01*
Y1291465D01*
X2450467Y1304145D01*
X2443284Y1314896D01*
X2387026Y1371153D01*
X2390254Y1380721D01*
X2393591Y1385141D01*
X2397500Y1384363D01*
X2422500D01*
X2435181Y1386886D01*
X2445931Y1394069D01*
X2453114Y1404819D01*
X2455637Y1417500D01*
Y1442500D01*
X2453114Y1455181D01*
X2445931Y1465931D01*
X2443254Y1467720D01*
X2442679Y1470607D01*
X2433839Y1483838D01*
X2433838Y1483839D01*
X2378839Y1538838D01*
X2365607Y1547679D01*
X2350000Y1550784D01*
X2349999Y1550784D01*
X2292493D01*
X2290423Y1551648D01*
X2287221Y1551657D01*
X2277734Y1551879D01*
X2277268Y1551914D01*
X2269509Y1557099D01*
X2250000Y1560980D01*
X2230491Y1557099D01*
X2213952Y1546048D01*
X2202901Y1529509D01*
X2199020Y1510000D01*
X2202901Y1490491D01*
X2213952Y1473952D01*
X2230491Y1462901D01*
X2234107Y1462182D01*
X2239044Y1445906D01*
X2176569Y1383431D01*
X2170516Y1374373D01*
X2169425Y1373977D01*
X2162261Y1373164D01*
X2154296Y1373705D01*
X2146048Y1386048D01*
X2129509Y1397099D01*
X2113030Y1400377D01*
X2107294Y1404808D01*
X2100523Y1414389D01*
X2101102Y1417300D01*
X2050000D01*
Y1436729D01*
X2026012Y1412741D01*
X2025141Y1416076D01*
X2023813Y1419607D01*
X2022030Y1423334D01*
X2019791Y1427259D01*
X2017096Y1431380D01*
X2010338Y1440211D01*
X2006275Y1444922D01*
X1996782Y1454934D01*
X2025066Y1483218D01*
X2030170Y1478244D01*
X2044303Y1466055D01*
X2048620Y1462904D01*
X2056665Y1457970D01*
X2060393Y1456187D01*
X2063924Y1454859D01*
X2067259Y1453988D01*
X2055971Y1442700D01*
X2101102D01*
X2098201Y1457288D01*
X2093669Y1464070D01*
X2100932Y1479070D01*
X2125000D01*
X2143533Y1482756D01*
X2159245Y1493255D01*
X2169744Y1508967D01*
X2173431Y1527500D01*
Y1592500D01*
X2169744Y1611034D01*
X2159245Y1626746D01*
X2143533Y1637244D01*
X2125000Y1640931D01*
X2070000D01*
X2057584Y1638461D01*
X2042584Y1647976D01*
Y1660500D01*
X2039875Y1674117D01*
X2032161Y1685661D01*
X2020617Y1693375D01*
X2010200Y1695447D01*
Y1688038D01*
X2019902Y1687552D01*
X2019636Y1687137D01*
X2019398Y1686388D01*
X2019187Y1685305D01*
X2019005Y1683888D01*
X2018724Y1680055D01*
X2018500Y1668383D01*
X2010200Y1668942D01*
Y1600000D01*
X1984800D01*
Y1670653D01*
X1978500Y1671078D01*
X1977955Y1689652D01*
X1984800Y1689310D01*
Y1695447D01*
X1974383Y1693375D01*
X1962839Y1685661D01*
X1961173Y1683168D01*
X1953510Y1688288D01*
X1942000Y1690578D01*
X1923000D01*
X1911490Y1688288D01*
X1901732Y1681768D01*
X1898268D01*
X1888510Y1688288D01*
X1877000Y1690578D01*
X1858000D01*
X1846490Y1688288D01*
X1836732Y1681768D01*
X1833268D01*
X1823510Y1688288D01*
X1812000Y1690578D01*
X1793000D01*
X1791393Y1690258D01*
X1776500Y1690000D01*
X1776500Y1690000D01*
X1776499Y1690000D01*
X1698500D01*
Y1643154D01*
X1685271Y1636083D01*
X1683533Y1637244D01*
X1665000Y1640931D01*
X1610000D01*
X1591466Y1637244D01*
X1575755Y1626746D01*
X1565256Y1611034D01*
X1561569Y1592500D01*
Y1527500D01*
X1565256Y1508967D01*
X1574183Y1495607D01*
X1574079Y1494716D01*
X1572700Y1491075D01*
Y1455319D01*
X1573924Y1454859D01*
X1577259Y1453988D01*
X1572700Y1449429D01*
Y1435971D01*
X1583988Y1447258D01*
X1584859Y1443924D01*
X1586187Y1440393D01*
X1587970Y1436665D01*
X1590209Y1432741D01*
X1592905Y1428620D01*
X1599663Y1419788D01*
X1603725Y1415077D01*
X1613219Y1405066D01*
X1584934Y1376782D01*
X1579830Y1381756D01*
X1565697Y1393944D01*
X1561380Y1397096D01*
X1553335Y1402030D01*
X1549607Y1403813D01*
X1546076Y1405141D01*
X1542742Y1406012D01*
X1566729Y1430000D01*
X1553271D01*
X1536012Y1412741D01*
X1535141Y1416076D01*
X1533813Y1419607D01*
X1532030Y1423334D01*
X1529791Y1427259D01*
X1527096Y1431380D01*
X1520338Y1440211D01*
X1516275Y1444922D01*
X1510542Y1450968D01*
X1508858Y1442500D01*
Y1438418D01*
X1495000Y1432678D01*
X1463839Y1463838D01*
X1450608Y1472679D01*
X1435001Y1475784D01*
X1435000Y1475783D01*
X1221005D01*
X1219521Y1476561D01*
X1218613Y1476277D01*
X1217737Y1476647D01*
X1214623Y1476670D01*
X1212260Y1476751D01*
X1206048Y1486048D01*
X1189509Y1497099D01*
X1170000Y1500979D01*
X1150491Y1497099D01*
X1133952Y1486048D01*
X1122901Y1469509D01*
X1119020Y1450000D01*
X1122901Y1430491D01*
X1123909Y1428982D01*
X1123370Y1416344D01*
X1124214Y1414030D01*
Y1315004D01*
X1124214Y1315002D01*
X1127319Y1299395D01*
X1136159Y1286164D01*
X1222640Y1199684D01*
X1213078Y1188032D01*
X1199509Y1197099D01*
X1180000Y1200980D01*
X1160491Y1197099D01*
X1146830Y1187971D01*
X1143842Y1186860D01*
X1142846Y1185935D01*
X1142572Y1185724D01*
X1142230Y1185509D01*
X1141773Y1185276D01*
X1141162Y1185029D01*
X1140350Y1184777D01*
X1139313Y1184539D01*
X1138038Y1184342D01*
X1136503Y1184206D01*
X1134123Y1184140D01*
X1131881Y1183137D01*
X1108725D01*
X989387Y1302474D01*
X978637Y1309658D01*
X975635Y1310255D01*
X972969Y1323656D01*
X965234Y1335234D01*
X953656Y1342969D01*
X940000Y1345686D01*
X900000D01*
X886344Y1342969D01*
X876954Y1336695D01*
X875627Y1336019D01*
X874422Y1335689D01*
X873488Y1334965D01*
X873305Y1334866D01*
X872022Y1334365D01*
X869693Y1333709D01*
X866400Y1333047D01*
X862462Y1332501D01*
X851285Y1331743D01*
X844697Y1331646D01*
X843801Y1331259D01*
X842868Y1331541D01*
X841455Y1330783D01*
X800001D01*
X800000Y1330784D01*
X784393Y1327679D01*
X771162Y1318838D01*
X771161Y1318838D01*
X694927Y1242604D01*
X686086Y1229372D01*
X685571Y1226783D01*
X670784Y1229329D01*
Y1331750D01*
X680000Y1339314D01*
X720000D01*
X733656Y1342031D01*
X745233Y1349766D01*
X752969Y1361344D01*
X755686Y1375000D01*
Y1405000D01*
X755027Y1408310D01*
X755429Y1409105D01*
X754009Y1413427D01*
X752969Y1418656D01*
X752927Y1418720D01*
X752516Y1421685D01*
X751401Y1423587D01*
X750747Y1425023D01*
X750110Y1426816D01*
X748458Y1433650D01*
X747937Y1436954D01*
X746726Y1453150D01*
X746646Y1459270D01*
X745784Y1461278D01*
Y1567289D01*
X755931Y1574069D01*
X761941Y1583064D01*
X770306Y1584046D01*
X778874Y1581844D01*
X784069Y1574069D01*
X794819Y1566886D01*
X807500Y1564363D01*
X832500D01*
X845181Y1566886D01*
X855931Y1574069D01*
X863114Y1584819D01*
X863670Y1587614D01*
X869248Y1595961D01*
X872352Y1611569D01*
X872352Y1611570D01*
Y1634675D01*
X873324Y1635648D01*
X875329Y1636436D01*
X882782Y1643620D01*
X889321Y1649408D01*
X895146Y1654041D01*
X900163Y1657515D01*
X904197Y1659825D01*
X904602Y1660000D01*
X917464D01*
X920661Y1659296D01*
X921764Y1660000D01*
X950000D01*
Y1769216D01*
X965607Y1772321D01*
X978838Y1781162D01*
X988184Y1790507D01*
X990124Y1791240D01*
X1004276Y1804530D01*
X1009754Y1809063D01*
X1014498Y1812552D01*
X1018172Y1814845D01*
X1018491Y1815000D01*
X1022672D01*
X1025915Y1813657D01*
X1027837Y1814453D01*
X1029873Y1814022D01*
X1031377Y1815000D01*
X1105000D01*
Y1956056D01*
X1337853D01*
X1344924Y1942827D01*
X1338917Y1933837D01*
X1333678Y1907500D01*
Y1812500D01*
X1338917Y1786163D01*
X1353835Y1763836D01*
X1376163Y1748917D01*
X1402500Y1743678D01*
X1497500D01*
X1523837Y1748917D01*
X1546164Y1763836D01*
X1561083Y1786163D01*
X1566322Y1812500D01*
Y1907500D01*
X1561083Y1933837D01*
X1555076Y1942827D01*
X1562147Y1956056D01*
X1705353D01*
X1712424Y1942827D01*
X1706416Y1933837D01*
X1701178Y1907500D01*
Y1812500D01*
X1706416Y1786163D01*
X1721335Y1763836D01*
X1743663Y1748917D01*
X1770000Y1743678D01*
X1965000D01*
X1991337Y1748917D01*
X2013665Y1763836D01*
X2028583Y1786163D01*
X2033822Y1812500D01*
Y1907500D01*
X2028583Y1933837D01*
X2022576Y1942827D01*
X2029647Y1956056D01*
X2172853D01*
X2179924Y1942827D01*
X2173917Y1933837D01*
X2168678Y1907500D01*
Y1812500D01*
X2173917Y1786163D01*
X2188836Y1763836D01*
X2211163Y1748917D01*
X2237500Y1743678D01*
X2332500D01*
X2358837Y1748917D01*
X2381164Y1763836D01*
X2396083Y1786163D01*
X2401322Y1812500D01*
Y1907500D01*
X2396083Y1933837D01*
X2390076Y1942827D01*
X2397147Y1956056D01*
X2956056D01*
Y1194971D01*
D02*
G37*
G36*
X916873Y1680610D02*
X913342Y1682394D01*
X909338Y1683147D01*
X904862Y1682868D01*
X899914Y1681557D01*
X894493Y1679214D01*
X888600Y1675839D01*
X882235Y1671433D01*
X875397Y1665994D01*
X868087Y1659523D01*
X860305Y1652021D01*
X822021Y1670305D01*
X830418Y1678982D01*
X843521Y1694324D01*
X848226Y1700987D01*
X851701Y1706980D01*
X853944Y1712301D01*
X854957Y1716951D01*
X854738Y1720930D01*
X853289Y1724237D01*
X850610Y1726873D01*
X916873Y1680610D01*
D02*
G37*
G36*
X746487Y1680224D02*
X743403Y1682456D01*
X739748Y1683557D01*
X735521Y1683527D01*
X730721Y1682365D01*
X725350Y1680072D01*
X719408Y1676647D01*
X712893Y1672091D01*
X705807Y1666404D01*
X689919Y1651635D01*
X661635Y1679919D01*
X669585Y1688149D01*
X682091Y1702893D01*
X686647Y1709408D01*
X690071Y1715351D01*
X692364Y1720721D01*
X693526Y1725521D01*
X693557Y1729748D01*
X692456Y1733404D01*
X690224Y1736488D01*
X746487Y1680224D01*
D02*
G37*
G36*
X1949586Y1534086D02*
X1948623Y1531993D01*
X1947774Y1529637D01*
X1947038Y1527015D01*
X1946415Y1524128D01*
X1945510Y1517560D01*
X1945226Y1513879D01*
X1945000Y1505722D01*
X1920000D01*
X1919944Y1509933D01*
X1919094Y1520977D01*
X1918585Y1524128D01*
X1917226Y1529637D01*
X1916377Y1531993D01*
X1915414Y1534086D01*
X1914339Y1535913D01*
X1950662D01*
X1949586Y1534086D01*
D02*
G37*
G36*
X1884586D02*
X1883623Y1531993D01*
X1882774Y1529637D01*
X1882038Y1527015D01*
X1881415Y1524128D01*
X1880510Y1517560D01*
X1880226Y1513879D01*
X1880000Y1505722D01*
X1855000D01*
X1854943Y1509933D01*
X1854094Y1520977D01*
X1853585Y1524128D01*
X1852226Y1529637D01*
X1851377Y1531993D01*
X1850414Y1534086D01*
X1849338Y1535913D01*
X1885661D01*
X1884586Y1534086D01*
D02*
G37*
G36*
X1819586D02*
X1818623Y1531993D01*
X1817774Y1529637D01*
X1817038Y1527015D01*
X1816415Y1524128D01*
X1815510Y1517560D01*
X1815226Y1513879D01*
X1815000Y1505722D01*
X1790000D01*
X1789944Y1509933D01*
X1789094Y1520977D01*
X1788585Y1524128D01*
X1787226Y1529637D01*
X1786377Y1531993D01*
X1785414Y1534086D01*
X1784339Y1535913D01*
X1820662D01*
X1819586Y1534086D01*
D02*
G37*
G36*
X1755018Y1530055D02*
X1753965Y1529305D01*
X1753036Y1528055D01*
X1752230Y1526305D01*
X1751549Y1524055D01*
X1750991Y1521305D01*
X1750558Y1518055D01*
X1750062Y1510055D01*
X1750000Y1505305D01*
X1725000D01*
X1724938Y1510055D01*
X1724009Y1521305D01*
X1723451Y1524055D01*
X1722770Y1526305D01*
X1721964Y1528055D01*
X1721035Y1529305D01*
X1719982Y1530055D01*
X1718805Y1530305D01*
X1756195D01*
X1755018Y1530055D01*
D02*
G37*
G36*
X2271790Y1530810D02*
X2272495Y1530640D01*
X2273540Y1530490D01*
X2276648Y1530250D01*
X2286939Y1530010D01*
X2290361Y1530000D01*
Y1490000D01*
X2271424Y1489000D01*
Y1531000D01*
X2271790Y1530810D01*
D02*
G37*
G36*
X1945125Y1474600D02*
X1945500Y1469888D01*
X1946125Y1465800D01*
X1947000Y1462334D01*
X1948125Y1459492D01*
X1949500Y1457273D01*
X1951125Y1455678D01*
X1953000Y1454705D01*
X1955125Y1454356D01*
X1957500Y1454629D01*
X1926012Y1447258D01*
X1924870Y1445955D01*
X1923848Y1445642D01*
X1922946Y1446321D01*
X1922165Y1447991D01*
X1921503Y1450652D01*
X1920962Y1454304D01*
X1920541Y1458948D01*
X1920000Y1478826D01*
X1945000Y1479934D01*
X1945125Y1474600D01*
D02*
G37*
G36*
X1750000Y1430000D02*
X1725000Y1392500D01*
X1724750Y1397250D01*
X1724000Y1401500D01*
X1722750Y1405250D01*
X1721000Y1408500D01*
X1718750Y1411250D01*
X1716000Y1413500D01*
X1712750Y1415250D01*
X1709000Y1416500D01*
X1704750Y1417250D01*
X1704125Y1417283D01*
X1697794Y1416709D01*
X1694423Y1416093D01*
X1691390Y1415302D01*
X1688695Y1414335D01*
X1686337Y1413192D01*
X1684318Y1411873D01*
X1682636Y1410378D01*
X1681292Y1408708D01*
Y1451292D01*
X1682636Y1449622D01*
X1684318Y1448127D01*
X1686337Y1446808D01*
X1688695Y1445665D01*
X1691390Y1444698D01*
X1694423Y1443907D01*
X1697794Y1443291D01*
X1701503Y1442852D01*
X1703817Y1442701D01*
X1704750Y1442750D01*
X1709000Y1443500D01*
X1712750Y1444750D01*
X1716000Y1446500D01*
X1718750Y1448750D01*
X1721000Y1451500D01*
X1722750Y1454750D01*
X1724000Y1458500D01*
X1724750Y1462750D01*
X1725000Y1467500D01*
X1750000Y1430000D01*
D02*
G37*
G36*
X1199354Y1457004D02*
X1199999Y1456584D01*
X1200989Y1456212D01*
X1202324Y1455891D01*
X1204004Y1455618D01*
X1208399Y1455223D01*
X1214175Y1455025D01*
X1217580Y1455000D01*
X1213981Y1415000D01*
X1185602Y1420320D01*
X1185532Y1419792D01*
X1185190Y1415265D01*
X1184998Y1406018D01*
X1144998Y1415420D01*
X1145722Y1432377D01*
X1181952Y1426250D01*
X1199054Y1457474D01*
X1199354Y1457004D01*
D02*
G37*
G36*
X2285875Y1414993D02*
X2285717Y1415470D01*
X2285240Y1415896D01*
X2284447Y1416272D01*
X2283335Y1416598D01*
X2281907Y1416873D01*
X2280160Y1417099D01*
X2275715Y1417400D01*
X2270000Y1417500D01*
Y1442500D01*
X2273016Y1442525D01*
X2281907Y1443127D01*
X2283335Y1443402D01*
X2284447Y1443728D01*
X2285240Y1444104D01*
X2285717Y1444530D01*
X2285875Y1445007D01*
Y1414993D01*
D02*
G37*
G36*
X725000Y1458988D02*
X725088Y1452202D01*
X726415Y1434457D01*
X727211Y1429414D01*
X729333Y1420635D01*
X730659Y1416899D01*
X732162Y1413598D01*
X733842Y1410734D01*
X669405Y1415595D01*
X672368Y1417914D01*
X675019Y1420705D01*
X677359Y1423966D01*
X679386Y1427698D01*
X681102Y1431902D01*
X682505Y1436576D01*
X683597Y1441721D01*
X684376Y1447337D01*
X684844Y1453425D01*
X685000Y1459983D01*
X725000Y1458988D01*
D02*
G37*
G36*
X2086342Y1368446D02*
X2080672Y1343688D01*
X2080544Y1343784D01*
X2080205Y1343871D01*
X2079654Y1343948D01*
X2077917Y1344070D01*
X2069872Y1344197D01*
Y1369197D01*
X2086342Y1368446D01*
D02*
G37*
G36*
X1397650Y1377625D02*
X1398100Y1375500D01*
X1398850Y1373625D01*
X1399900Y1372000D01*
X1401250Y1370625D01*
X1402900Y1369500D01*
X1404850Y1368625D01*
X1407100Y1368000D01*
X1409650Y1367625D01*
X1412500Y1367500D01*
Y1352500D01*
X1409650Y1352350D01*
X1407100Y1351900D01*
X1404850Y1351150D01*
X1402900Y1350100D01*
X1401250Y1348750D01*
X1399900Y1347100D01*
X1398850Y1345150D01*
X1398100Y1342900D01*
X1397650Y1340350D01*
X1397500Y1337500D01*
X1382500D01*
X1382375Y1340350D01*
X1382000Y1342900D01*
X1381375Y1345150D01*
X1380500Y1347100D01*
X1379375Y1348750D01*
X1378000Y1350100D01*
X1376375Y1351150D01*
X1374500Y1351900D01*
X1372375Y1352350D01*
X1370000Y1352500D01*
Y1367500D01*
X1372375Y1367625D01*
X1374500Y1368000D01*
X1376375Y1368625D01*
X1378000Y1369500D01*
X1379375Y1370625D01*
X1380500Y1372000D01*
X1381375Y1373625D01*
X1382000Y1375500D01*
X1382375Y1377625D01*
X1382500Y1380000D01*
X1397500D01*
X1397650Y1377625D01*
D02*
G37*
G36*
X2323162Y1369385D02*
X2325044Y1367940D01*
X2327070Y1366665D01*
X2329239Y1365560D01*
X2331552Y1364625D01*
X2334009Y1363860D01*
X2336609Y1363265D01*
X2339353Y1362840D01*
X2342240Y1362585D01*
X2345272Y1362500D01*
Y1337500D01*
X2342240Y1337415D01*
X2339353Y1337160D01*
X2336609Y1336735D01*
X2334009Y1336140D01*
X2331552Y1335375D01*
X2329239Y1334440D01*
X2327070Y1333335D01*
X2325044Y1332060D01*
X2323162Y1330615D01*
X2321424Y1329000D01*
Y1371000D01*
X2323162Y1369385D01*
D02*
G37*
G36*
X1259414Y1363091D02*
X1259441Y1360778D01*
X1259726Y1358476D01*
X1260268Y1356186D01*
X1261068Y1353906D01*
X1262126Y1351638D01*
X1263442Y1349381D01*
X1265016Y1347134D01*
X1266847Y1344900D01*
X1268937Y1342676D01*
X1248438Y1327819D01*
X1246253Y1329905D01*
X1241843Y1333516D01*
X1239619Y1335041D01*
X1237382Y1336379D01*
X1235133Y1337530D01*
X1232871Y1338494D01*
X1230596Y1339271D01*
X1228309Y1339861D01*
X1226009Y1340264D01*
X1259645Y1365415D01*
X1259414Y1363091D01*
D02*
G37*
G36*
X1330330Y1347652D02*
X1329663Y1346261D01*
X1329354Y1344756D01*
X1329402Y1343134D01*
X1329808Y1341398D01*
X1330570Y1339546D01*
X1331690Y1337580D01*
X1333166Y1335498D01*
X1335000Y1333301D01*
X1337191Y1330989D01*
X1314388Y1318438D01*
X1292510Y1345625D01*
X1331353Y1348928D01*
X1330330Y1347652D01*
D02*
G37*
G36*
X930044Y1295798D02*
X930239Y1294939D01*
X930518Y1294074D01*
X930879Y1293204D01*
X931324Y1292330D01*
X931852Y1291450D01*
X932463Y1290566D01*
X933157Y1289676D01*
X933935Y1288782D01*
X934795Y1287882D01*
X917118Y1270205D01*
X916218Y1271065D01*
X914434Y1272537D01*
X913549Y1273148D01*
X912669Y1273676D01*
X911795Y1274120D01*
X910925Y1274482D01*
X910061Y1274761D01*
X909201Y1274956D01*
X908347Y1275068D01*
X929932Y1296653D01*
X930044Y1295798D01*
D02*
G37*
G36*
X894266Y1266157D02*
X892779Y1266887D01*
X890616Y1267541D01*
X887778Y1268117D01*
X884265Y1268617D01*
X875213Y1269385D01*
X856572Y1269962D01*
X849008Y1270000D01*
X845017Y1310000D01*
X852177Y1310106D01*
X864682Y1310953D01*
X870028Y1311695D01*
X874769Y1312649D01*
X878905Y1313814D01*
X882437Y1315191D01*
X885364Y1316780D01*
X887687Y1318582D01*
X889405Y1320595D01*
X894266Y1266157D01*
D02*
G37*
G36*
X2355392Y1259162D02*
X2352818Y1256418D01*
X2350470Y1253562D01*
X2348347Y1250593D01*
X2346450Y1247511D01*
X2344779Y1244316D01*
X2344563Y1243822D01*
X2348223Y1240403D01*
X2345858Y1240240D01*
X2343510Y1239862D01*
X2342867Y1239700D01*
X2342115Y1237588D01*
X2341121Y1234055D01*
X2340354Y1230409D01*
X2339812Y1226650D01*
X2331626Y1234463D01*
X2329815Y1233121D01*
X2327598Y1231252D01*
X2325399Y1229169D01*
X2307057Y1246182D01*
X2309141Y1248391D01*
X2310995Y1250617D01*
X2312508Y1252709D01*
X2305264Y1259624D01*
X2308846Y1260311D01*
X2312338Y1261214D01*
X2315741Y1262331D01*
X2316971Y1262826D01*
X2317278Y1264351D01*
X2317519Y1266702D01*
X2317529Y1269072D01*
X2321871Y1265016D01*
X2322278Y1265212D01*
X2325412Y1266974D01*
X2328456Y1268952D01*
X2331410Y1271145D01*
X2334275Y1273553D01*
X2337051Y1276176D01*
X2355392Y1259162D01*
D02*
G37*
G36*
X2025387Y1256294D02*
X2022483Y1253277D01*
X2017585Y1247483D01*
X2015591Y1244706D01*
X2013900Y1242008D01*
X2012583Y1239523D01*
X2016664Y1235161D01*
X2014294Y1235149D01*
X2011942Y1234907D01*
X2010735Y1234662D01*
X2010649Y1234391D01*
X2010172Y1232012D01*
X2009999Y1229711D01*
X2006528Y1233421D01*
X2004995Y1232799D01*
X2002715Y1231636D01*
X2000453Y1230242D01*
X1998209Y1228619D01*
X1995983Y1226765D01*
X1993775Y1224681D01*
X1976746Y1243008D01*
X1978829Y1245207D01*
X1980699Y1247424D01*
X1982355Y1249661D01*
X1983798Y1251915D01*
X1985028Y1254189D01*
X1985695Y1255694D01*
X1981714Y1259951D01*
X1984013Y1259975D01*
X1986379Y1260304D01*
X1987289Y1260542D01*
X1987435Y1261120D01*
X1987811Y1263468D01*
X1987973Y1265834D01*
X1991556Y1262003D01*
X1993877Y1263132D01*
X1996510Y1264687D01*
X1999210Y1266549D01*
X2001976Y1268717D01*
X2004810Y1271191D01*
X2007710Y1273971D01*
X2025387Y1256294D01*
D02*
G37*
G36*
X2102575Y1275956D02*
X2103175Y1268722D01*
X2103700Y1265531D01*
X2104375Y1262625D01*
X2105200Y1260003D01*
X2106175Y1257666D01*
X2107300Y1255613D01*
X2108575Y1253844D01*
X2110000Y1252360D01*
X2070000D01*
X2071425Y1253844D01*
X2072700Y1255613D01*
X2073825Y1257666D01*
X2074800Y1260003D01*
X2075625Y1262625D01*
X2076300Y1265531D01*
X2076825Y1268722D01*
X2077200Y1272197D01*
X2077500Y1280000D01*
X2102500D01*
X2102575Y1275956D01*
D02*
G37*
G36*
X2840971Y1206807D02*
X2839838Y1207414D01*
X2837993Y1207957D01*
X2835437Y1208435D01*
X2832170Y1208851D01*
X2823504Y1209489D01*
X2803471Y1209885D01*
X2772007Y1207957D01*
X2770162Y1207414D01*
X2769028Y1206807D01*
Y1253193D01*
X2770162Y1252586D01*
X2772007Y1252043D01*
X2774563Y1251565D01*
X2777830Y1251149D01*
X2786496Y1250511D01*
X2806529Y1250115D01*
X2837993Y1252043D01*
X2839838Y1252586D01*
X2840971Y1253193D01*
Y1206807D01*
D02*
G37*
G36*
X2212614Y1278501D02*
X2212957Y1274809D01*
X2213529Y1271195D01*
X2214330Y1267659D01*
X2215360Y1264201D01*
X2216618Y1260821D01*
X2218105Y1257519D01*
X2219821Y1254295D01*
X2221765Y1251150D01*
X2223938Y1248082D01*
X2176061D01*
X2178235Y1251150D01*
X2180179Y1254295D01*
X2181895Y1257519D01*
X2183382Y1260821D01*
X2184640Y1264201D01*
X2185670Y1267659D01*
X2186471Y1271195D01*
X2187042Y1274809D01*
X2187386Y1278501D01*
X2187500Y1282272D01*
X2212500D01*
X2212614Y1278501D01*
D02*
G37*
G36*
X2432468Y1278576D02*
X2432814Y1274890D01*
X2433391Y1271280D01*
X2434199Y1267746D01*
X2435237Y1264289D01*
X2436506Y1260908D01*
X2438006Y1257603D01*
X2439737Y1254374D01*
X2441698Y1251222D01*
X2443890Y1248146D01*
X2396013Y1248018D01*
X2398168Y1251077D01*
X2400096Y1254216D01*
X2401796Y1257435D01*
X2403271Y1260734D01*
X2404518Y1264112D01*
X2405538Y1267571D01*
X2406332Y1271109D01*
X2406899Y1274727D01*
X2407239Y1278426D01*
X2407353Y1282204D01*
X2432353Y1282339D01*
X2432468Y1278576D01*
D02*
G37*
G36*
X1735396Y1282934D02*
X1760026Y1261149D01*
X1761714Y1260228D01*
X1762945Y1259855D01*
X1730145Y1227055D01*
X1729772Y1228286D01*
X1728852Y1229974D01*
X1727383Y1232120D01*
X1725367Y1234724D01*
X1719690Y1241303D01*
X1701762Y1259954D01*
X1730047Y1288238D01*
X1735396Y1282934D01*
D02*
G37*
G36*
X1844624Y1273215D02*
X1847478Y1270847D01*
X1850437Y1268696D01*
X1853504Y1266762D01*
X1856677Y1265045D01*
X1859957Y1263544D01*
X1863343Y1262261D01*
X1866836Y1261195D01*
X1870435Y1260345D01*
X1874141Y1259713D01*
X1840287Y1225859D01*
X1839655Y1229565D01*
X1838806Y1233164D01*
X1837739Y1236657D01*
X1836456Y1240043D01*
X1834955Y1243323D01*
X1833238Y1246496D01*
X1831304Y1249563D01*
X1829153Y1252523D01*
X1826785Y1255376D01*
X1824200Y1258123D01*
X1841877Y1275801D01*
X1844624Y1273215D01*
D02*
G37*
G36*
X1616885Y1281517D02*
X1630596Y1269555D01*
X1634569Y1266632D01*
X1638242Y1264241D01*
X1641617Y1262383D01*
X1644693Y1261056D01*
X1647470Y1260262D01*
X1649948Y1260000D01*
X1620610Y1223980D01*
X1581958Y1259758D01*
X1611716Y1286569D01*
X1616885Y1281517D01*
D02*
G37*
G36*
X1521918Y1206062D02*
X1518850Y1208235D01*
X1515705Y1210179D01*
X1512481Y1211895D01*
X1509179Y1213382D01*
X1505799Y1214640D01*
X1502341Y1215670D01*
X1498805Y1216471D01*
X1495191Y1217043D01*
X1491499Y1217386D01*
X1487728Y1217500D01*
Y1242500D01*
X1491499Y1242614D01*
X1495191Y1242958D01*
X1498805Y1243529D01*
X1502341Y1244330D01*
X1505799Y1245360D01*
X1509179Y1246618D01*
X1512481Y1248105D01*
X1515705Y1249821D01*
X1518850Y1251765D01*
X1521918Y1253939D01*
Y1206062D01*
D02*
G37*
G36*
X2135756Y1148242D02*
X2133180Y1145503D01*
X2130820Y1142653D01*
X2128676Y1139694D01*
X2126748Y1136624D01*
X2125036Y1133444D01*
X2124406Y1132058D01*
X2127990Y1128502D01*
X2125619Y1128406D01*
X2123267Y1128090D01*
X2122716Y1127963D01*
X2122260Y1126753D01*
X2121196Y1123242D01*
X2120349Y1119621D01*
X2119717Y1115890D01*
X2112151Y1123424D01*
X2111786Y1123194D01*
X2109545Y1121552D01*
X2107324Y1119690D01*
X2105121Y1117607D01*
X2087368Y1135210D01*
X2089451Y1137414D01*
X2091312Y1139636D01*
X2092950Y1141878D01*
X2093207Y1142288D01*
X2085763Y1149700D01*
X2089464Y1150343D01*
X2093060Y1151202D01*
X2096549Y1152277D01*
X2097649Y1152697D01*
X2097798Y1153362D01*
X2098099Y1155715D01*
X2098177Y1158086D01*
X2101844Y1154447D01*
X2103210Y1155075D01*
X2106381Y1156797D01*
X2109445Y1158735D01*
X2112404Y1160889D01*
X2115257Y1163259D01*
X2118003Y1165845D01*
X2135756Y1148242D01*
D02*
G37*
G36*
X1158576Y1129000D02*
X1156837Y1130615D01*
X1154956Y1132060D01*
X1152930Y1133335D01*
X1150761Y1134440D01*
X1148448Y1135375D01*
X1145991Y1136140D01*
X1143391Y1136735D01*
X1140647Y1137160D01*
X1137759Y1137415D01*
X1134728Y1137500D01*
Y1162500D01*
X1137759Y1162585D01*
X1140647Y1162840D01*
X1143391Y1163265D01*
X1145991Y1163860D01*
X1148448Y1164625D01*
X1150761Y1165560D01*
X1152930Y1166665D01*
X1154956Y1167940D01*
X1156837Y1169385D01*
X1158576Y1171000D01*
Y1129000D01*
D02*
G37*
G36*
X1954132Y1163053D02*
X1956979Y1160705D01*
X1959940Y1158574D01*
X1963017Y1156661D01*
X1963419Y1156447D01*
X1967841Y1161007D01*
X1967963Y1158638D01*
X1968303Y1156287D01*
X1968861Y1153955D01*
X1968930Y1153748D01*
X1969515Y1153486D01*
X1972936Y1152225D01*
X1976473Y1151182D01*
X1980124Y1150356D01*
X1983890Y1149747D01*
X1975802Y1141521D01*
X1976784Y1140354D01*
X1978867Y1138152D01*
X1961491Y1120173D01*
X1959285Y1122256D01*
X1957954Y1123368D01*
X1950323Y1115607D01*
X1949668Y1119252D01*
X1948796Y1122798D01*
X1947708Y1126246D01*
X1946403Y1129596D01*
X1946299Y1129818D01*
X1945665Y1130018D01*
X1943331Y1130521D01*
X1940978Y1130799D01*
X1938607Y1130851D01*
X1943309Y1135702D01*
X1943143Y1136003D01*
X1941189Y1139059D01*
X1939017Y1142017D01*
X1936629Y1144877D01*
X1934024Y1147639D01*
X1951400Y1165619D01*
X1954132Y1163053D01*
D02*
G37*
G36*
X2396508Y1163455D02*
X2402489Y1158501D01*
X2405450Y1156439D01*
X2408391Y1154653D01*
X2409579Y1154039D01*
X2414211Y1158223D01*
X2414184Y1155856D01*
X2414391Y1153507D01*
X2414726Y1151740D01*
X2417096Y1150953D01*
X2419959Y1150273D01*
X2422801Y1149869D01*
X2417270Y1144874D01*
X2417567Y1144284D01*
X2418947Y1142021D01*
X2420563Y1139776D01*
X2422413Y1137548D01*
X2424498Y1135337D01*
X2405829Y1118650D01*
X2403632Y1120733D01*
X2401418Y1122607D01*
X2399184Y1124272D01*
X2396933Y1125728D01*
X2396397Y1126022D01*
X2390001Y1120246D01*
X2389876Y1123075D01*
X2389455Y1125916D01*
X2388738Y1128768D01*
X2388571Y1129241D01*
X2387745Y1129461D01*
X2385402Y1129871D01*
X2383041Y1130073D01*
X2386863Y1133524D01*
X2386416Y1134506D01*
X2384810Y1137392D01*
X2382909Y1140290D01*
X2380711Y1143199D01*
X2378218Y1146119D01*
X2375428Y1149052D01*
X2393487Y1166347D01*
X2396508Y1163455D01*
D02*
G37*
G36*
X1874034Y1105515D02*
X1871950Y1103308D01*
X1870093Y1101084D01*
X1868463Y1098841D01*
X1867060Y1096580D01*
X1866532Y1095559D01*
X1872229Y1090083D01*
X1869282Y1089725D01*
X1866328Y1089088D01*
X1863925Y1088345D01*
X1863714Y1087352D01*
X1863445Y1084999D01*
X1863403Y1082629D01*
X1859396Y1086480D01*
X1857434Y1085508D01*
X1854458Y1083758D01*
X1851476Y1081730D01*
X1848488Y1079424D01*
X1845495Y1076840D01*
X1842496Y1073977D01*
X1824578Y1091414D01*
X1827419Y1094397D01*
X1829973Y1097377D01*
X1832238Y1100351D01*
X1834215Y1103321D01*
X1835903Y1106286D01*
X1836804Y1108192D01*
X1833121Y1111732D01*
X1835490Y1111864D01*
X1837841Y1112213D01*
X1838459Y1112363D01*
X1839237Y1115153D01*
X1839772Y1118100D01*
X1840018Y1121041D01*
X1846054Y1115240D01*
X1847055Y1115775D01*
X1849312Y1117208D01*
X1851550Y1118857D01*
X1853769Y1120723D01*
X1855970Y1122807D01*
X1874034Y1105515D01*
D02*
G37*
G36*
X1765501Y1106985D02*
X1763417Y1104779D01*
X1761560Y1102554D01*
X1759930Y1100311D01*
X1758527Y1098050D01*
X1757350Y1095771D01*
X1756400Y1093473D01*
X1756232Y1092935D01*
X1759276Y1090009D01*
X1757131Y1089906D01*
X1755342Y1089579D01*
X1755181Y1088823D01*
X1754912Y1086470D01*
X1754869Y1084099D01*
X1750781Y1088029D01*
X1750148Y1087762D01*
X1747638Y1086435D01*
X1745037Y1084801D01*
X1742345Y1082862D01*
X1739562Y1080616D01*
X1733721Y1075206D01*
X1716044Y1092883D01*
X1718828Y1095779D01*
X1723474Y1101321D01*
X1725336Y1103967D01*
X1726892Y1106529D01*
X1728140Y1109009D01*
X1728364Y1109578D01*
X1724590Y1113205D01*
X1726959Y1113337D01*
X1729309Y1113685D01*
X1729725Y1113786D01*
X1730041Y1115946D01*
X1730061Y1118092D01*
X1733428Y1114855D01*
X1733954Y1115033D01*
X1736248Y1116032D01*
X1738524Y1117247D01*
X1740781Y1118680D01*
X1743019Y1120329D01*
X1745238Y1122196D01*
X1747439Y1124279D01*
X1765501Y1106985D01*
D02*
G37*
G36*
X1521918Y1096062D02*
X1518850Y1098235D01*
X1515705Y1100179D01*
X1512481Y1101895D01*
X1509179Y1103382D01*
X1505799Y1104640D01*
X1502341Y1105670D01*
X1498805Y1106471D01*
X1495191Y1107042D01*
X1491499Y1107386D01*
X1487728Y1107500D01*
Y1132500D01*
X1491499Y1132614D01*
X1495191Y1132958D01*
X1498805Y1133529D01*
X1502341Y1134330D01*
X1505799Y1135360D01*
X1509179Y1136618D01*
X1512481Y1138105D01*
X1515705Y1139821D01*
X1518850Y1141765D01*
X1521918Y1143939D01*
Y1096062D01*
D02*
G37*
G36*
X2325761Y1123743D02*
X2327988Y1121890D01*
X2330233Y1120270D01*
X2332495Y1118881D01*
X2334775Y1117725D01*
X2337073Y1116800D01*
X2337315Y1116728D01*
X2339998Y1119634D01*
X2340126Y1117558D01*
X2340458Y1115896D01*
X2341721Y1115647D01*
X2344072Y1115418D01*
X2346441Y1115422D01*
X2342270Y1110903D01*
X2342352Y1110718D01*
X2343707Y1108236D01*
X2345368Y1105651D01*
X2347336Y1102965D01*
X2352193Y1097289D01*
X2355081Y1094298D01*
X2337403Y1076621D01*
X2334556Y1079357D01*
X2329116Y1083906D01*
X2326525Y1085718D01*
X2324019Y1087223D01*
X2321598Y1088420D01*
X2321542Y1088441D01*
X2317957Y1084556D01*
X2317780Y1086920D01*
X2317391Y1089266D01*
X2317245Y1089830D01*
X2317012Y1089890D01*
X2314848Y1090163D01*
X2312769Y1090128D01*
X2316053Y1093687D01*
X2315977Y1093903D01*
X2314953Y1096193D01*
X2313717Y1098465D01*
X2312269Y1100719D01*
X2310610Y1102954D01*
X2308738Y1105171D01*
X2306655Y1107369D01*
X2323552Y1125827D01*
X2325761Y1123743D01*
D02*
G37*
G36*
X1654320Y1090313D02*
X1650657Y1089664D01*
X1647095Y1088799D01*
X1643633Y1087717D01*
X1640273Y1086418D01*
X1637012Y1084903D01*
X1636956Y1084872D01*
X1636644Y1084125D01*
X1635908Y1081809D01*
X1635396Y1079475D01*
X1635109Y1077122D01*
X1635047Y1074751D01*
X1629443Y1080233D01*
X1627834Y1079056D01*
X1624976Y1076674D01*
X1622219Y1074075D01*
X1604328Y1091539D01*
X1606899Y1094275D01*
X1609253Y1097124D01*
X1610463Y1098801D01*
X1605024Y1104121D01*
X1607394Y1104233D01*
X1609746Y1104564D01*
X1612079Y1105114D01*
X1614393Y1105883D01*
X1614876Y1106091D01*
X1615011Y1106345D01*
X1616496Y1109644D01*
X1617764Y1113055D01*
X1618814Y1116579D01*
X1619647Y1120215D01*
X1620263Y1123963D01*
X1654320Y1090313D01*
D02*
G37*
G36*
X1178576Y1049000D02*
X1176837Y1050615D01*
X1174956Y1052060D01*
X1172930Y1053335D01*
X1170761Y1054440D01*
X1168448Y1055375D01*
X1165991Y1056140D01*
X1163391Y1056735D01*
X1160647Y1057160D01*
X1157759Y1057415D01*
X1154728Y1057500D01*
Y1082500D01*
X1157759Y1082585D01*
X1160647Y1082840D01*
X1163391Y1083265D01*
X1165991Y1083860D01*
X1168448Y1084625D01*
X1170761Y1085560D01*
X1172930Y1086665D01*
X1174956Y1087940D01*
X1176837Y1089385D01*
X1178576Y1091000D01*
Y1049000D01*
D02*
G37*
G36*
X650400Y1112400D02*
X651600Y1105600D01*
X653600Y1099600D01*
X656400Y1094400D01*
X660000Y1090000D01*
X664400Y1086400D01*
X669600Y1083600D01*
X673992Y1082136D01*
X674729Y1082272D01*
X679586Y1083550D01*
X683905Y1085112D01*
X687686Y1086957D01*
X690929Y1089087D01*
X693634Y1091501D01*
X695800Y1094199D01*
Y1025801D01*
X693634Y1028499D01*
X690929Y1030912D01*
X687686Y1033042D01*
X683905Y1034888D01*
X679586Y1036450D01*
X674729Y1037728D01*
X673992Y1037864D01*
X669600Y1036400D01*
X664400Y1033600D01*
X660000Y1030000D01*
X656400Y1025600D01*
X653600Y1020400D01*
X651600Y1014400D01*
X650400Y1007600D01*
X650000Y1000000D01*
X610000Y1060000D01*
X650000Y1120000D01*
X650400Y1112400D01*
D02*
G37*
G36*
X848898Y1248352D02*
X856187Y1248316D01*
X873962Y1247766D01*
X881821Y1247099D01*
X884097Y1246775D01*
X885321Y1246526D01*
X886519Y1246164D01*
X889246Y1246436D01*
X889373Y1246428D01*
X892026Y1245900D01*
X896192Y1244595D01*
X896852Y1244940D01*
X900000Y1244314D01*
X940000D01*
X948006Y1245907D01*
X952231D01*
X1071569Y1126569D01*
X1082319Y1119386D01*
X1088600Y1118136D01*
X1087123Y1103136D01*
X1060000D01*
X1047319Y1100614D01*
X1036569Y1093431D01*
X966569Y1023431D01*
X965253Y1021461D01*
X951255Y1024444D01*
X950000Y1025633D01*
Y1120000D01*
X893940D01*
X890000Y1120784D01*
X886060Y1120000D01*
X869692D01*
X869416Y1120285D01*
X863048Y1135000D01*
X868201Y1142712D01*
X869579Y1149643D01*
X843806Y1148046D01*
X840964Y1147448D01*
X838782Y1146770D01*
X837258Y1146012D01*
Y1157300D01*
X820000D01*
Y1170000D01*
X807300D01*
Y1224985D01*
X805730Y1227192D01*
X803272Y1235595D01*
X816893Y1249216D01*
X846842D01*
X848898Y1248352D01*
D02*
G37*
G36*
X2174624Y1053215D02*
X2177477Y1050847D01*
X2180437Y1048696D01*
X2183504Y1046762D01*
X2185808Y1045515D01*
X2189994Y1049702D01*
X2190082Y1047331D01*
X2190391Y1044979D01*
X2190789Y1043229D01*
X2193343Y1042261D01*
X2196836Y1041195D01*
X2200435Y1040345D01*
X2204141Y1039713D01*
X2196388Y1031959D01*
X2196903Y1031255D01*
X2198765Y1029033D01*
X2200848Y1026830D01*
X2183173Y1009149D01*
X2180970Y1011232D01*
X2178748Y1013094D01*
X2178040Y1013612D01*
X2170287Y1005859D01*
X2169655Y1009565D01*
X2168805Y1013164D01*
X2167739Y1016657D01*
X2166772Y1019207D01*
X2165024Y1019604D01*
X2162671Y1019913D01*
X2160300Y1019999D01*
X2164487Y1024188D01*
X2163238Y1026496D01*
X2161304Y1029563D01*
X2159153Y1032523D01*
X2156785Y1035376D01*
X2154199Y1038123D01*
X2171877Y1055801D01*
X2174624Y1053215D01*
D02*
G37*
G36*
X1900306Y1011205D02*
X1901208Y1007738D01*
X1902326Y1004357D01*
X1903298Y1001959D01*
X1903498Y1001899D01*
X1905832Y1001435D01*
X1908183Y1001202D01*
X1910551Y1001200D01*
X1906059Y996353D01*
X1906981Y994724D01*
X1908965Y991684D01*
X1911166Y988729D01*
X1913583Y985859D01*
X1916217Y983074D01*
X1899279Y964656D01*
X1896569Y967195D01*
X1893732Y969514D01*
X1890768Y971616D01*
X1887677Y973498D01*
X1885787Y974476D01*
X1882004Y970394D01*
X1881832Y972759D01*
X1881447Y975105D01*
X1881055Y976630D01*
X1877646Y977836D01*
X1874049Y978845D01*
X1870326Y979636D01*
X1866476Y980208D01*
X1874694Y988775D01*
X1874679Y988795D01*
X1872809Y991012D01*
X1870725Y993210D01*
X1887662Y1011629D01*
X1889872Y1009544D01*
X1892098Y1007691D01*
X1892537Y1007374D01*
X1899621Y1014757D01*
X1900306Y1011205D01*
D02*
G37*
G36*
X1680323Y1010952D02*
X1681211Y1007427D01*
X1682315Y1003997D01*
X1682812Y1002740D01*
X1684126Y1002465D01*
X1686478Y1002205D01*
X1688849Y1002173D01*
X1684888Y998014D01*
X1685169Y997422D01*
X1686919Y994276D01*
X1688884Y991226D01*
X1691065Y988270D01*
X1693461Y985408D01*
X1696073Y982641D01*
X1678870Y964489D01*
X1676150Y967040D01*
X1673308Y969375D01*
X1670346Y971492D01*
X1667264Y973393D01*
X1664060Y975076D01*
X1663345Y975392D01*
X1659885Y971758D01*
X1659743Y974126D01*
X1659385Y976476D01*
X1659235Y977087D01*
X1657291Y977792D01*
X1653725Y978824D01*
X1650039Y979639D01*
X1646232Y980238D01*
X1654090Y988311D01*
X1652709Y990181D01*
X1650842Y992400D01*
X1648759Y994600D01*
X1665961Y1012753D01*
X1668168Y1010669D01*
X1670393Y1008813D01*
X1672534Y1007260D01*
X1679650Y1014571D01*
X1680323Y1010952D01*
D02*
G37*
G36*
X1953787Y1052590D02*
X1956761Y1050069D01*
X1959758Y1047827D01*
X1962777Y1045866D01*
X1965818Y1044183D01*
X1967006Y1043639D01*
X1970468Y1047346D01*
X1970632Y1044980D01*
X1971009Y1042633D01*
X1971184Y1041944D01*
X1971968Y1041659D01*
X1975076Y1040816D01*
X1978206Y1040252D01*
X1981359Y1039969D01*
X1974895Y1033047D01*
X1976094Y1031174D01*
X1977751Y1028938D01*
X1979621Y1026721D01*
X1981704Y1024522D01*
X1964692Y1006178D01*
X1962484Y1008262D01*
X1960258Y1010116D01*
X1958013Y1011739D01*
X1956099Y1012918D01*
X1950194Y1006594D01*
X1949703Y1009760D01*
X1948958Y1012900D01*
X1947957Y1016012D01*
X1947915Y1016118D01*
X1946524Y1016399D01*
X1944173Y1016639D01*
X1941803Y1016649D01*
X1945799Y1020928D01*
X1945193Y1022157D01*
X1943428Y1025189D01*
X1941409Y1028194D01*
X1939135Y1031172D01*
X1936606Y1034123D01*
X1933823Y1037047D01*
X1950835Y1055391D01*
X1953787Y1052590D01*
D02*
G37*
G36*
X2089019Y1036701D02*
X2089049Y1034983D01*
X2089345Y1033198D01*
X2089905Y1031347D01*
X2090731Y1029429D01*
X2091822Y1027444D01*
X2093178Y1025393D01*
X2094800Y1023275D01*
X2096687Y1021090D01*
X2098839Y1018839D01*
X2079317Y1003005D01*
X2076979Y1005266D01*
X2072547Y1009082D01*
X2070454Y1010635D01*
X2068443Y1011953D01*
X2066514Y1013035D01*
X2064666Y1013881D01*
X2062901Y1014490D01*
X2061217Y1014864D01*
X2059615Y1015003D01*
X2089254Y1038353D01*
X2089019Y1036701D01*
D02*
G37*
G36*
X1520972Y986807D02*
X1519838Y987414D01*
X1517993Y987957D01*
X1515437Y988435D01*
X1512170Y988851D01*
X1503504Y989489D01*
X1477639Y990000D01*
Y1030000D01*
X1485172Y1030032D01*
X1517993Y1032043D01*
X1519838Y1032586D01*
X1520972Y1033193D01*
Y986807D01*
D02*
G37*
G36*
X1330040Y1064699D02*
X1331954Y1033806D01*
X1332276Y1032276D01*
X1333806Y1031954D01*
X1337306Y1031436D01*
X1346286Y1030638D01*
X1364699Y1030040D01*
X1372156Y1030000D01*
Y990000D01*
X1364699Y989960D01*
X1333806Y988046D01*
X1330964Y987448D01*
X1328782Y986770D01*
X1327258Y986012D01*
Y1027259D01*
X1286012D01*
X1286770Y1028782D01*
X1287448Y1030964D01*
X1288046Y1033806D01*
X1288564Y1037307D01*
X1289362Y1046286D01*
X1289960Y1064699D01*
X1290000Y1072156D01*
X1330000D01*
X1330040Y1064699D01*
D02*
G37*
G36*
X2326382Y1014578D02*
X2328613Y1012733D01*
X2330859Y1011128D01*
X2333122Y1009764D01*
X2335400Y1008641D01*
X2337695Y1007759D01*
X2338206Y1007617D01*
X2339998Y1009697D01*
X2340135Y1007877D01*
X2340320Y1007063D01*
X2342334Y1006716D01*
X2344677Y1006555D01*
X2347037Y1006635D01*
X2342528Y1001400D01*
X2343767Y999280D01*
X2345447Y996803D01*
X2347435Y994194D01*
X2352337Y988583D01*
X2355251Y985581D01*
X2337573Y967903D01*
X2334842Y970531D01*
X2329679Y974866D01*
X2327247Y976573D01*
X2324914Y977974D01*
X2323113Y978857D01*
X2319628Y974811D01*
X2319375Y977162D01*
X2318917Y979495D01*
X2318689Y980295D01*
X2318515Y980337D01*
X2316581Y980511D01*
X2314747Y980378D01*
X2317566Y983651D01*
X2317393Y984110D01*
X2316326Y986391D01*
X2315056Y988654D01*
X2313583Y990900D01*
X2311906Y993129D01*
X2310026Y995340D01*
X2307942Y997534D01*
X2324168Y1016663D01*
X2326382Y1014578D01*
D02*
G37*
G36*
X1790228Y1011714D02*
X1791149Y1010026D01*
X1792617Y1007880D01*
X1794633Y1005276D01*
X1800310Y998697D01*
X1802090Y996845D01*
X1809700Y989999D01*
X1809175Y989474D01*
X1818238Y980047D01*
X1789953Y951762D01*
X1784605Y957066D01*
X1780446Y960744D01*
X1780002Y960300D01*
X1779877Y960693D01*
X1779499Y961312D01*
X1778899Y962112D01*
X1759974Y978851D01*
X1758286Y979772D01*
X1757055Y980145D01*
X1789855Y1012945D01*
X1790228Y1011714D01*
D02*
G37*
G36*
X1269216Y1153107D02*
Y1074326D01*
X1268352Y1072271D01*
X1268314Y1065106D01*
X1267745Y1047597D01*
X1267057Y1039852D01*
X1266727Y1037623D01*
X1266473Y1036416D01*
X1266097Y1035204D01*
X1266334Y1032615D01*
X1266312Y1032298D01*
X1266183Y1031650D01*
X1264364Y1027259D01*
X1265003Y1025717D01*
X1264363Y1022500D01*
Y997500D01*
X1266886Y984819D01*
X1274069Y974069D01*
X1277792Y971581D01*
X1278025Y970946D01*
X1276916Y954328D01*
X1270176Y949825D01*
X1261799Y937288D01*
X1258897Y922700D01*
X1330527D01*
X1331292Y931293D01*
X1333087Y929147D01*
X1335452Y927227D01*
X1338389Y925533D01*
X1341897Y924065D01*
X1345976Y922823D01*
X1346538Y922700D01*
X1361102D01*
X1358201Y937288D01*
X1349824Y949825D01*
X1346406Y952109D01*
X1350531Y967393D01*
X1365427Y968316D01*
X1372272Y968352D01*
X1374326Y969217D01*
X1475246D01*
X1477212Y968356D01*
X1502491Y967857D01*
X1510008Y967303D01*
X1512077Y967040D01*
X1512933Y966880D01*
X1513727Y966646D01*
X1515067Y951806D01*
X1514930Y949877D01*
X1500059Y939941D01*
X1487814Y921616D01*
X1487528Y920176D01*
X1517993Y922043D01*
X1519838Y922586D01*
X1520972Y923193D01*
Y912700D01*
X1540000D01*
Y887300D01*
X1520972D01*
Y876807D01*
X1519838Y877414D01*
X1517993Y877957D01*
X1515437Y878435D01*
X1512170Y878851D01*
X1503504Y879489D01*
X1487532Y879805D01*
X1487814Y878384D01*
X1500059Y860059D01*
X1514930Y850123D01*
X1515858Y837119D01*
X1514984Y833419D01*
X1503952Y826048D01*
X1492901Y809509D01*
X1492248Y806225D01*
X1490223Y803741D01*
X1489630Y801764D01*
X1489117Y800413D01*
X1488422Y798898D01*
X1487662Y797476D01*
X1484891Y793199D01*
X1483601Y791495D01*
X1479389Y786615D01*
X1476936Y784076D01*
X1462171Y780325D01*
X1461782Y780495D01*
X1459480Y780543D01*
X1455316Y780906D01*
X1454031Y781116D01*
X1452680Y781413D01*
X1451511Y781742D01*
X1450520Y782089D01*
X1449681Y782446D01*
X1448986Y782802D01*
X1447711Y783574D01*
X1443913Y784156D01*
X1439509Y787099D01*
X1420000Y790980D01*
X1400491Y787099D01*
X1383952Y776048D01*
X1372901Y759509D01*
X1369020Y740000D01*
X1355748Y729836D01*
X1350000Y730979D01*
X1330491Y727099D01*
X1313952Y716048D01*
X1302901Y699509D01*
X1299021Y680000D01*
X1302901Y660491D01*
X1313952Y643952D01*
X1330491Y632901D01*
X1350000Y629020D01*
X1369509Y632901D01*
X1383170Y642029D01*
X1386158Y643140D01*
X1387154Y644065D01*
X1387428Y644276D01*
X1387770Y644491D01*
X1388227Y644724D01*
X1388838Y644971D01*
X1389650Y645223D01*
X1390687Y645460D01*
X1391962Y645658D01*
X1393497Y645794D01*
X1395877Y645860D01*
X1398119Y646863D01*
X1484848D01*
X1487072Y645862D01*
X1490169Y645768D01*
X1492495Y645552D01*
X1494717Y645200D01*
X1496856Y644716D01*
X1498929Y644099D01*
X1500947Y643348D01*
X1502941Y642450D01*
X1504918Y641397D01*
X1506891Y640178D01*
X1509404Y638398D01*
X1513742Y637410D01*
X1520491Y632901D01*
X1521768Y632647D01*
Y617353D01*
X1520491Y617099D01*
X1503952Y606048D01*
X1492901Y589509D01*
X1489020Y570000D01*
X1492901Y550491D01*
X1503952Y533952D01*
X1520491Y522901D01*
X1528451Y521317D01*
X1532217Y518948D01*
X1535251Y518430D01*
X1537511Y517896D01*
X1539654Y517242D01*
X1541695Y516469D01*
X1543658Y515571D01*
X1545558Y514543D01*
X1547409Y513375D01*
X1549233Y512050D01*
X1551031Y510557D01*
X1553286Y508435D01*
X1555568Y507570D01*
X1646569Y416569D01*
X1657319Y409386D01*
X1670000Y406863D01*
X1831148D01*
X1841380Y391863D01*
X1839020Y380000D01*
X1842901Y360491D01*
X1846942Y354443D01*
X1846545Y353407D01*
X1844841Y351703D01*
X1844076Y351080D01*
X1844060Y350922D01*
X1816569Y323431D01*
X1809386Y312681D01*
X1807858Y305000D01*
X1806061Y300891D01*
X1785540Y296809D01*
X1767347Y284653D01*
X1759502Y272911D01*
X1756852Y271560D01*
X1742645Y269214D01*
X1740656Y269650D01*
X1729509Y277099D01*
X1710000Y280980D01*
X1690491Y277099D01*
X1683554Y272464D01*
X1668842Y275390D01*
X1662653Y284653D01*
X1644460Y296809D01*
X1623000Y301077D01*
X1556478D01*
X1556401Y301123D01*
X1556223Y301077D01*
X1553990D01*
X1553361Y301338D01*
X1552485Y300975D01*
X1547823Y300048D01*
X1546943Y300635D01*
X1540239Y306200D01*
X1536274Y310013D01*
X1533932Y310930D01*
X1513137Y331725D01*
Y351880D01*
X1514139Y354121D01*
X1514206Y356499D01*
X1514342Y358037D01*
X1514540Y359314D01*
X1514776Y360349D01*
X1515030Y361163D01*
X1515277Y361773D01*
X1515510Y362230D01*
X1515723Y362570D01*
X1515936Y362847D01*
X1516860Y363842D01*
X1517971Y366830D01*
X1527099Y380491D01*
X1530980Y400000D01*
X1527099Y419509D01*
X1516048Y436048D01*
X1499509Y447099D01*
X1480000Y450980D01*
X1466391Y448273D01*
X1465903Y450730D01*
X1459825Y459826D01*
X1450728Y465904D01*
X1439998Y468038D01*
X1418040D01*
Y490000D01*
X1415906Y500730D01*
X1409828Y509826D01*
X1400732Y515904D01*
X1390002Y518038D01*
X1379272Y515904D01*
X1370175Y509826D01*
X1364097Y500730D01*
X1361963Y490000D01*
Y466440D01*
X1359270Y465904D01*
X1350174Y459826D01*
X1344096Y450730D01*
X1341961Y440000D01*
X1344096Y429270D01*
X1350174Y420174D01*
X1359270Y414096D01*
X1363297Y413295D01*
X1364097Y409270D01*
X1370175Y400174D01*
X1379272Y394096D01*
X1390002Y391961D01*
X1400732Y394096D01*
X1409828Y400174D01*
X1410667Y401430D01*
X1414617Y401375D01*
X1429021Y400000D01*
X1432901Y380491D01*
X1442029Y366830D01*
X1443140Y363842D01*
X1444065Y362846D01*
X1444276Y362572D01*
X1444491Y362230D01*
X1444724Y361773D01*
X1444971Y361162D01*
X1445223Y360350D01*
X1445461Y359313D01*
X1445658Y358038D01*
X1445794Y356499D01*
X1445861Y354121D01*
X1446864Y351881D01*
Y318000D01*
X1449386Y305319D01*
X1456569Y294569D01*
X1487070Y264068D01*
X1487987Y261727D01*
X1492005Y257549D01*
X1494983Y254154D01*
X1497181Y251335D01*
X1497953Y250177D01*
X1497025Y245515D01*
X1496662Y244639D01*
X1496923Y244011D01*
Y241777D01*
X1496877Y241599D01*
X1496923Y241522D01*
Y163504D01*
X1481923Y155486D01*
X1479509Y157099D01*
X1460000Y160980D01*
X1440491Y157099D01*
X1440077Y156823D01*
X1425077Y164840D01*
Y245000D01*
X1420809Y266460D01*
X1408653Y284653D01*
X1390460Y296809D01*
X1369000Y301077D01*
X1299000D01*
X1277540Y296809D01*
X1259347Y284653D01*
X1250502Y271415D01*
X1246267Y269842D01*
X1235188Y268141D01*
X1232312Y268544D01*
X1219509Y277099D01*
X1200000Y280980D01*
X1180491Y277099D01*
X1178519Y275782D01*
X1157981Y279672D01*
X1154653Y284653D01*
X1136460Y296809D01*
X1115000Y301077D01*
X1045000D01*
X1023540Y296809D01*
X1005347Y284653D01*
X993192Y266460D01*
X988923Y245000D01*
Y222167D01*
X973923Y214150D01*
X969509Y217099D01*
X950000Y220979D01*
X932078Y217415D01*
X927685Y218376D01*
X917077Y224046D01*
Y245000D01*
X912809Y266460D01*
X900653Y284653D01*
X882460Y296809D01*
X864589Y300363D01*
X860022Y310025D01*
X859360Y316077D01*
X877876Y334593D01*
X877876Y334593D01*
X886717Y347824D01*
X888983Y359219D01*
X890685Y363209D01*
X890812Y375613D01*
X891108Y381817D01*
X893114Y384819D01*
X895637Y397500D01*
Y400398D01*
X910636Y401876D01*
X912901Y390491D01*
X923952Y373952D01*
X940491Y362901D01*
X960000Y359020D01*
X979509Y362901D01*
X996048Y373952D01*
X1007099Y390491D01*
X1010980Y410000D01*
X1007099Y429509D01*
X996048Y446048D01*
X979509Y457099D01*
X960000Y460980D01*
X940491Y457099D01*
X923952Y446048D01*
X912901Y429509D01*
X910636Y418124D01*
X895637Y419601D01*
Y422500D01*
X893114Y435181D01*
X885931Y445931D01*
X876936Y451941D01*
X875990Y460000D01*
X876937Y468059D01*
X885931Y474069D01*
X893114Y484819D01*
X895637Y497500D01*
Y522500D01*
X894997Y525717D01*
X895636Y527259D01*
X893817Y531650D01*
X893655Y532464D01*
X893632Y532768D01*
X893847Y535360D01*
X893482Y536503D01*
X893450Y536648D01*
X892279Y554602D01*
X897839Y560163D01*
X899753Y560874D01*
X914951Y574997D01*
X920847Y579727D01*
X926017Y583346D01*
X927691Y584314D01*
X940000D01*
X941575Y584628D01*
X943092Y584094D01*
X944691Y584860D01*
X946435Y584538D01*
X948593Y586024D01*
X953656Y587031D01*
X965234Y594766D01*
X972969Y606344D01*
X975686Y620000D01*
Y627463D01*
X976159Y628294D01*
X975686Y630015D01*
Y630127D01*
X976310Y631815D01*
X975686Y633171D01*
Y636909D01*
X976837Y638546D01*
X983663Y646570D01*
X988225Y651290D01*
X988477Y651930D01*
X989091Y652241D01*
X989744Y654234D01*
X1013431Y677922D01*
X1020614Y688672D01*
X1023137Y701353D01*
Y986275D01*
X1073726Y1036863D01*
X1106456D01*
X1114474Y1021863D01*
X1112901Y1019509D01*
X1109020Y1000000D01*
X1112901Y980491D01*
X1123952Y963952D01*
X1140491Y952901D01*
X1160000Y949020D01*
X1179509Y952901D01*
X1196048Y963952D01*
X1207099Y980491D01*
X1210980Y1000000D01*
X1209849Y1005685D01*
X1219509Y1022901D01*
X1236048Y1033952D01*
X1247099Y1050491D01*
X1250979Y1070000D01*
X1247099Y1089509D01*
X1236048Y1106048D01*
X1231042Y1109393D01*
X1226643Y1129810D01*
X1227099Y1130491D01*
X1230980Y1150000D01*
X1227099Y1169509D01*
X1218032Y1183078D01*
X1229684Y1192640D01*
X1269216Y1153107D01*
D02*
G37*
G36*
X925261Y1019881D02*
X920400Y1018608D01*
X915113Y1016486D01*
X909399Y1013517D01*
X903259Y1009698D01*
X896693Y1005031D01*
X882280Y993152D01*
X874435Y985939D01*
X869724Y981349D01*
X868244Y979830D01*
X856056Y965697D01*
X852905Y961380D01*
X847970Y953335D01*
X846187Y949607D01*
X844859Y946076D01*
X843988Y942742D01*
X802742Y983988D01*
X806076Y984859D01*
X809607Y986187D01*
X813335Y987970D01*
X817259Y990209D01*
X821380Y992905D01*
X830212Y999662D01*
X833914Y1002855D01*
X850305Y1020305D01*
X929695D01*
X925261Y1019881D01*
D02*
G37*
G36*
X687382Y974846D02*
X689642Y969753D01*
X692203Y960638D01*
X695066Y947500D01*
X739831Y938098D01*
X736063Y938417D01*
X732692Y937709D01*
X729717Y935974D01*
X727139Y933212D01*
X724958Y929422D01*
X723173Y924605D01*
X721785Y918761D01*
X720793Y911890D01*
X720198Y903992D01*
X720000Y895066D01*
X680000Y897844D01*
X680151Y920914D01*
X683766Y972961D01*
X685424Y975915D01*
X687382Y974846D01*
D02*
G37*
G36*
X1960971Y880972D02*
X2003193D01*
X2002586Y879838D01*
X2002043Y877993D01*
X2001564Y875437D01*
X2001149Y872170D01*
X2000511Y863504D01*
X2000115Y843471D01*
X2002043Y812007D01*
X2002586Y810162D01*
X2003193Y809028D01*
X1956807D01*
X1957414Y810162D01*
X1957956Y812007D01*
X1958435Y814563D01*
X1958851Y817830D01*
X1959489Y826496D01*
X1959885Y846529D01*
X1957958Y877963D01*
X1955437Y878435D01*
X1952170Y878851D01*
X1943504Y879489D01*
X1923471Y879885D01*
X1894952Y878137D01*
X1896065Y845146D01*
X1895565Y845000D01*
X1896065Y844854D01*
X1894785Y806903D01*
X1848524Y810947D01*
X1849957Y812795D01*
X1851239Y815246D01*
X1852370Y818300D01*
X1853350Y821957D01*
X1854179Y826217D01*
X1854858Y831081D01*
X1855763Y842618D01*
X1855780Y843381D01*
X1854179Y863783D01*
X1853350Y868043D01*
X1852370Y871700D01*
X1851239Y874754D01*
X1849957Y877205D01*
X1848524Y879053D01*
X1889028Y882593D01*
Y923193D01*
X1890162Y922586D01*
X1892007Y922043D01*
X1894563Y921565D01*
X1897830Y921149D01*
X1906496Y920511D01*
X1926529Y920115D01*
X1957993Y922043D01*
X1959838Y922586D01*
X1960971Y923193D01*
Y880972D01*
D02*
G37*
G36*
X2510972D02*
X2553193D01*
X2552586Y879838D01*
X2552043Y877993D01*
X2551565Y875437D01*
X2551149Y872170D01*
X2550511Y863504D01*
X2550115Y843471D01*
X2552043Y812007D01*
X2552586Y810162D01*
X2553193Y809028D01*
X2506807D01*
X2507414Y810162D01*
X2507957Y812007D01*
X2508435Y814563D01*
X2508851Y817830D01*
X2509489Y826496D01*
X2509885Y846529D01*
X2507958Y877963D01*
X2505437Y878435D01*
X2502170Y878851D01*
X2493504Y879489D01*
X2473471Y879885D01*
X2442007Y877957D01*
X2440162Y877414D01*
X2439028Y876807D01*
Y923193D01*
X2440162Y922586D01*
X2442007Y922043D01*
X2444563Y921565D01*
X2447830Y921149D01*
X2456496Y920511D01*
X2476529Y920115D01*
X2507993Y922043D01*
X2509838Y922586D01*
X2510972Y923193D01*
Y880972D01*
D02*
G37*
G36*
X950000Y1000000D02*
X956863Y987843D01*
Y893131D01*
X941863Y880821D01*
X940000Y881191D01*
X932700D01*
Y825000D01*
Y768808D01*
X940000D01*
X941863Y769179D01*
X956863Y756869D01*
Y715079D01*
X941138Y699353D01*
X938893Y698518D01*
X929626Y689905D01*
X926390Y687308D01*
X924073Y685686D01*
X919128D01*
X917440Y686310D01*
X916084Y685686D01*
X915206D01*
X914067Y685913D01*
X913726Y685686D01*
X900000D01*
X886344Y682969D01*
X874766Y675234D01*
X872033Y671143D01*
X870043Y670190D01*
X868537Y665911D01*
X867031Y663656D01*
X866959Y663298D01*
X865086Y660695D01*
X864012Y656133D01*
X862824Y652296D01*
X861342Y648447D01*
X859544Y644554D01*
X857420Y640625D01*
X854956Y636653D01*
X852291Y632856D01*
X845187Y624267D01*
X841086Y619977D01*
X840315Y617992D01*
X821162Y598839D01*
X812321Y585607D01*
X810037Y574125D01*
X808352Y570123D01*
X808314Y563383D01*
X807850Y549846D01*
X801110Y546371D01*
X792574Y545710D01*
X789824Y549824D01*
X777288Y558201D01*
X770357Y559580D01*
X771954Y533806D01*
X772552Y530964D01*
X773230Y528782D01*
X773988Y527259D01*
X762700D01*
Y510000D01*
X750000D01*
Y497300D01*
X740160D01*
X747034Y488708D01*
X771292D01*
X771047Y488265D01*
X770827Y487283D01*
X770633Y485761D01*
X770323Y481099D01*
X770000Y460000D01*
X771292Y431292D01*
X747034D01*
X740160Y422700D01*
X750000D01*
Y397300D01*
X698898D01*
X699260Y395477D01*
X699934Y382121D01*
X688508Y378498D01*
X685783Y377956D01*
X683409Y378326D01*
X670784Y386626D01*
Y450000D01*
Y671750D01*
X680000Y679314D01*
X720000D01*
X733656Y682031D01*
X745233Y689766D01*
X752969Y701344D01*
X755686Y715000D01*
Y745000D01*
X752969Y758656D01*
X747720Y766512D01*
X745902Y770902D01*
X745218Y771185D01*
X744965Y771512D01*
X744866Y771695D01*
X744365Y772978D01*
X743709Y775307D01*
X743047Y778600D01*
X742500Y782538D01*
X741743Y793715D01*
X741645Y800303D01*
X740784Y802300D01*
Y891935D01*
X741596Y893566D01*
X741422Y894085D01*
X741643Y894585D01*
X741828Y902939D01*
X742325Y909528D01*
X743072Y914705D01*
X743511Y916554D01*
X745181Y916886D01*
X749068Y919483D01*
X751665Y919971D01*
X752456Y921128D01*
X753791Y921553D01*
X754649Y923212D01*
X755931Y924069D01*
X761941Y933064D01*
X770000Y934010D01*
X778059Y933064D01*
X784069Y924069D01*
X794819Y916886D01*
X807500Y914363D01*
X832500D01*
X845181Y916886D01*
X855931Y924069D01*
X857753Y926795D01*
X859295Y927434D01*
X861114Y931826D01*
X863114Y934819D01*
X863128Y934885D01*
X864932Y937267D01*
X865519Y939511D01*
X866120Y941110D01*
X867013Y942977D01*
X870903Y949320D01*
X873023Y952225D01*
X884206Y965192D01*
X885034Y966042D01*
X889321Y970219D01*
X896501Y976819D01*
X909864Y987834D01*
X915256Y991666D01*
X920123Y994693D01*
X924156Y996789D01*
X927201Y998011D01*
X929057Y998497D01*
X931757Y998755D01*
X934101Y1000000D01*
X950000Y1000000D01*
D02*
G37*
G36*
X1840123Y959307D02*
X1840501Y958688D01*
X1841134Y957843D01*
X1843162Y955476D01*
X1846631Y951841D01*
X1870026Y931149D01*
X1871714Y930228D01*
X1872945Y929855D01*
X1840145Y897055D01*
X1839772Y898286D01*
X1838852Y899974D01*
X1837383Y902120D01*
X1835367Y904724D01*
X1829690Y911303D01*
X1820776Y920577D01*
X1810300Y930002D01*
X1839998Y959700D01*
X1840123Y959307D01*
D02*
G37*
G36*
X1680155Y902855D02*
X1681144Y899697D01*
X1682353Y896575D01*
X1683781Y893489D01*
X1685428Y890439D01*
X1687293Y887425D01*
X1689378Y884448D01*
X1691438Y881817D01*
X1692771Y880699D01*
X1694962Y879123D01*
X1697157Y877721D01*
X1699356Y876490D01*
X1701557Y875432D01*
X1703763Y874547D01*
X1705972Y873835D01*
X1708184Y873294D01*
X1682168Y856501D01*
X1681583Y855739D01*
X1681339Y855966D01*
X1672897Y850516D01*
X1673272Y852784D01*
X1673374Y855047D01*
X1673200Y857307D01*
X1672752Y859563D01*
X1672030Y861815D01*
X1671303Y863454D01*
X1670039Y864169D01*
X1666741Y865716D01*
X1663278Y867038D01*
X1659650Y868135D01*
X1655857Y869009D01*
X1651899Y869658D01*
X1647777Y870082D01*
X1679384Y906050D01*
X1680155Y902855D01*
D02*
G37*
G36*
X2120345Y900436D02*
X2121195Y896836D01*
X2122261Y893343D01*
X2123544Y889957D01*
X2125045Y886677D01*
X2126762Y883504D01*
X2126937Y883226D01*
X2128031Y882652D01*
X2130327Y881678D01*
X2132643Y880925D01*
X2134976Y880394D01*
X2137329Y880086D01*
X2139700Y879998D01*
X2133754Y874052D01*
X2135800Y871877D01*
X2118123Y854199D01*
X2115948Y856246D01*
X2110002Y850300D01*
X2109914Y852671D01*
X2109606Y855024D01*
X2109075Y857357D01*
X2108322Y859673D01*
X2107348Y861969D01*
X2106774Y863063D01*
X2106496Y863238D01*
X2103323Y864955D01*
X2100043Y866455D01*
X2096657Y867739D01*
X2093164Y868805D01*
X2089565Y869655D01*
X2085858Y870287D01*
X2119713Y904141D01*
X2120345Y900436D01*
D02*
G37*
G36*
X1790210Y897175D02*
X1790701Y893743D01*
X1791466Y890383D01*
X1792505Y887095D01*
X1793819Y883879D01*
X1795406Y880735D01*
X1796625Y878722D01*
X1798832Y877573D01*
X1801129Y876609D01*
X1803445Y875869D01*
X1805779Y875354D01*
X1808132Y875063D01*
X1810503Y874995D01*
X1804493Y868880D01*
X1804496Y868877D01*
X1804471Y868857D01*
X1781065Y845039D01*
X1780958Y847409D01*
X1780632Y849761D01*
X1780086Y852094D01*
X1779320Y854409D01*
X1778335Y856704D01*
X1777130Y858981D01*
X1776001Y860771D01*
X1773162Y862727D01*
X1770117Y864574D01*
X1767022Y866205D01*
X1763876Y867622D01*
X1760678Y868823D01*
X1757431Y869809D01*
X1754132Y870579D01*
X1789992Y900679D01*
X1790210Y897175D01*
D02*
G37*
G36*
X720106Y792823D02*
X720953Y780318D01*
X721695Y774972D01*
X722649Y770231D01*
X723814Y766095D01*
X725191Y762563D01*
X726780Y759636D01*
X728581Y757313D01*
X730594Y755595D01*
X669405D01*
X671418Y757313D01*
X673219Y759636D01*
X674809Y762563D01*
X676186Y766095D01*
X677351Y770231D01*
X678305Y774972D01*
X679046Y780318D01*
X679894Y792823D01*
X680000Y799983D01*
X720000D01*
X720106Y792823D01*
D02*
G37*
G36*
X1539686Y760002D02*
X1535633Y759912D01*
X1531732Y759557D01*
X1527983Y758937D01*
X1524385Y758051D01*
X1520940Y756900D01*
X1517645Y755483D01*
X1514503Y753800D01*
X1511512Y751853D01*
X1508673Y749639D01*
X1505986Y747161D01*
X1492503Y769033D01*
X1495378Y772008D01*
X1500441Y777875D01*
X1502630Y780766D01*
X1506321Y786464D01*
X1507824Y789271D01*
X1509098Y792051D01*
X1510143Y794802D01*
X1510959Y797525D01*
X1539686Y760002D01*
D02*
G37*
G36*
X1438439Y763881D02*
X1440504Y762825D01*
X1442690Y761894D01*
X1444995Y761087D01*
X1447420Y760404D01*
X1449964Y759845D01*
X1452628Y759411D01*
X1458314Y758914D01*
X1461336Y758852D01*
X1467363Y733852D01*
X1464303Y733754D01*
X1461434Y733459D01*
X1458757Y732967D01*
X1456272Y732278D01*
X1453978Y731392D01*
X1451876Y730310D01*
X1449966Y729031D01*
X1448247Y727555D01*
X1446720Y725882D01*
X1445385Y724013D01*
X1436492Y765060D01*
X1438439Y763881D01*
D02*
G37*
G36*
X2552586Y769838D02*
X2552043Y767993D01*
X2551565Y765437D01*
X2551149Y762170D01*
X2550511Y753504D01*
X2550115Y733471D01*
X2552043Y702007D01*
X2552586Y700162D01*
X2553193Y699028D01*
X2506807D01*
X2507414Y700162D01*
X2507957Y702007D01*
X2508435Y704563D01*
X2508851Y707830D01*
X2509489Y716496D01*
X2509885Y736529D01*
X2507957Y767993D01*
X2507414Y769838D01*
X2506807Y770972D01*
X2553193D01*
X2552586Y769838D01*
D02*
G37*
G36*
X972660Y666336D02*
X967620Y661121D01*
X959700Y651812D01*
X956821Y647717D01*
X954663Y643995D01*
X953225Y640646D01*
X952507Y637670D01*
X952510Y635067D01*
X953234Y632837D01*
X954678Y630980D01*
X918275Y664678D01*
X920252Y663355D01*
X922576Y662725D01*
X925246Y662789D01*
X928262Y663547D01*
X931625Y664998D01*
X935333Y667143D01*
X939388Y669982D01*
X943789Y673515D01*
X953630Y682661D01*
X972660Y666336D01*
D02*
G37*
G36*
X1373163Y699385D02*
X1375044Y697940D01*
X1377070Y696665D01*
X1379239Y695560D01*
X1381552Y694625D01*
X1384009Y693860D01*
X1386609Y693265D01*
X1389353Y692840D01*
X1392241Y692585D01*
X1395272Y692500D01*
Y667500D01*
X1392241Y667415D01*
X1389353Y667160D01*
X1386609Y666735D01*
X1384009Y666140D01*
X1381552Y665375D01*
X1379239Y664440D01*
X1377070Y663335D01*
X1375044Y662060D01*
X1373163Y660615D01*
X1371424Y659000D01*
Y701000D01*
X1373163Y699385D01*
D02*
G37*
G36*
X1521918Y656061D02*
X1518850Y658235D01*
X1515705Y660179D01*
X1512481Y661895D01*
X1509179Y663382D01*
X1505799Y664640D01*
X1502341Y665670D01*
X1498805Y666471D01*
X1495191Y667042D01*
X1491499Y667386D01*
X1487728Y667500D01*
Y692500D01*
X1491499Y692614D01*
X1495191Y692957D01*
X1498805Y693529D01*
X1502341Y694330D01*
X1505799Y695360D01*
X1509179Y696618D01*
X1512481Y698105D01*
X1515705Y699821D01*
X1518850Y701765D01*
X1521918Y703938D01*
Y656061D01*
D02*
G37*
G36*
X941920Y605710D02*
X938701Y607797D01*
X934933Y608776D01*
X930616Y608648D01*
X925749Y607412D01*
X920334Y605068D01*
X914369Y601617D01*
X907855Y597057D01*
X900791Y591390D01*
X885017Y576733D01*
X856733Y605017D01*
X861372Y609869D01*
X869519Y619720D01*
X873027Y624718D01*
X876158Y629765D01*
X878912Y634861D01*
X881289Y640006D01*
X883289Y645200D01*
X884912Y650442D01*
X886157Y655734D01*
X941920Y605710D01*
D02*
G37*
G36*
X1914299Y596898D02*
X1911487Y593973D01*
X1906781Y588374D01*
X1904888Y585700D01*
X1903301Y583108D01*
X1902021Y580600D01*
X1901649Y579672D01*
X1905356Y576013D01*
X1902985Y575911D01*
X1900633Y575589D01*
X1900331Y575519D01*
X1900021Y573574D01*
X1899967Y571399D01*
X1896779Y574546D01*
X1895985Y574285D01*
X1893689Y573302D01*
X1891412Y572100D01*
X1889153Y570677D01*
X1886913Y569034D01*
X1884692Y567171D01*
X1882489Y565088D01*
X1864685Y582639D01*
X1866768Y584843D01*
X1868628Y587066D01*
X1870265Y589308D01*
X1871678Y591568D01*
X1872868Y593846D01*
X1873834Y596144D01*
X1874090Y596941D01*
X1871009Y599983D01*
X1873184Y600064D01*
X1875003Y600376D01*
X1875096Y600794D01*
X1875392Y603146D01*
X1875465Y605517D01*
X1879276Y601756D01*
X1880224Y602146D01*
X1882743Y603452D01*
X1885347Y605064D01*
X1888037Y606983D01*
X1890813Y609207D01*
X1896622Y614575D01*
X1914299Y596898D01*
D02*
G37*
G36*
X2840971Y546807D02*
X2839838Y547414D01*
X2837993Y547956D01*
X2835437Y548435D01*
X2832170Y548851D01*
X2823504Y549489D01*
X2803471Y549885D01*
X2772007Y547956D01*
X2770162Y547414D01*
X2769028Y546807D01*
Y593193D01*
X2770162Y592586D01*
X2772007Y592043D01*
X2774563Y591564D01*
X2777830Y591149D01*
X2786496Y590511D01*
X2806529Y590115D01*
X2837993Y592043D01*
X2839838Y592586D01*
X2840971Y593193D01*
Y546807D01*
D02*
G37*
G36*
X1736856Y613532D02*
X1742843Y608541D01*
X1745792Y606464D01*
X1748710Y604667D01*
X1749701Y604146D01*
X1754540Y608428D01*
X1754490Y606064D01*
X1754677Y603717D01*
X1755043Y601709D01*
X1757284Y600948D01*
X1760082Y600267D01*
X1762850Y599864D01*
X1757489Y595120D01*
X1757799Y594498D01*
X1759172Y592235D01*
X1760783Y589989D01*
X1762630Y587761D01*
X1764715Y585548D01*
X1745849Y569059D01*
X1743654Y571143D01*
X1741440Y573019D01*
X1739209Y574689D01*
X1736960Y576153D01*
X1736403Y576461D01*
X1730011Y570805D01*
X1729935Y573559D01*
X1729559Y576330D01*
X1728885Y579118D01*
X1728685Y579693D01*
X1727783Y579941D01*
X1725444Y580371D01*
X1723087Y580595D01*
X1726963Y584025D01*
X1726637Y584749D01*
X1725064Y587590D01*
X1723191Y590449D01*
X1721019Y593325D01*
X1718548Y596220D01*
X1715777Y599131D01*
X1733817Y616447D01*
X1736856Y613532D01*
D02*
G37*
G36*
X870040Y562953D02*
X871954Y533612D01*
X872552Y530878D01*
X873230Y528760D01*
X873988Y527259D01*
X826012D01*
X826770Y528760D01*
X827448Y530878D01*
X828046Y533612D01*
X828565Y536962D01*
X829362Y545510D01*
X829960Y562953D01*
X830000Y570000D01*
X870000D01*
X870040Y562953D01*
D02*
G37*
G36*
X1570345Y570435D02*
X1571195Y566836D01*
X1572261Y563343D01*
X1573544Y559956D01*
X1575045Y556677D01*
X1576762Y553504D01*
X1578696Y550437D01*
X1580847Y547477D01*
X1583215Y544624D01*
X1585800Y541877D01*
X1568123Y524199D01*
X1565376Y526784D01*
X1562522Y529153D01*
X1559562Y531304D01*
X1556496Y533238D01*
X1553323Y534955D01*
X1550043Y536455D01*
X1546657Y537739D01*
X1543164Y538805D01*
X1539564Y539654D01*
X1535858Y540287D01*
X1569713Y574141D01*
X1570345Y570435D01*
D02*
G37*
G36*
X2552586Y659838D02*
X2552043Y657993D01*
X2551565Y655437D01*
X2551149Y652170D01*
X2550511Y643504D01*
X2550115Y623471D01*
X2552042Y592037D01*
X2554563Y591564D01*
X2557830Y591149D01*
X2566496Y590511D01*
X2582468Y590195D01*
X2582186Y591616D01*
X2573624Y604430D01*
X2584438Y615244D01*
X2593183Y609401D01*
X2610000Y606056D01*
X2690016D01*
X2698001Y593726D01*
X2697703Y591056D01*
X2697528Y590176D01*
X2727993Y592043D01*
X2729838Y592586D01*
X2730972Y593193D01*
Y582700D01*
X2750000D01*
Y570000D01*
X2762700D01*
Y516041D01*
X2771616Y517814D01*
X2789941Y530059D01*
X2795980Y539096D01*
X2814020D01*
X2820059Y530059D01*
X2838384Y517814D01*
X2847300Y516041D01*
Y570000D01*
X2860000D01*
Y582700D01*
X2913959D01*
X2912297Y591056D01*
X2911999Y593726D01*
X2919984Y606056D01*
X2956056D01*
Y200000D01*
X2956165Y199453D01*
X2950913Y159563D01*
X2935305Y121882D01*
X2910476Y89524D01*
X2878118Y64695D01*
X2840437Y49087D01*
X2800547Y43836D01*
X2800000Y43944D01*
X2695569D01*
X2687551Y58944D01*
X2695896Y71433D01*
X2700583Y95000D01*
Y157300D01*
X2604000D01*
Y170000D01*
X2591300D01*
Y306583D01*
X2569000D01*
X2545433Y301896D01*
X2531645Y292683D01*
X2522050Y290589D01*
X2512578Y296275D01*
X2506048Y306048D01*
X2489509Y317099D01*
X2485253Y317946D01*
X2482433Y320121D01*
X2481001Y320508D01*
X2480238Y320773D01*
X2479366Y321144D01*
X2478658Y321499D01*
X2475844Y323236D01*
X2474979Y323869D01*
X2471728Y326623D01*
X2470040Y328247D01*
X2467699Y329163D01*
X2453431Y343431D01*
X2442681Y350614D01*
X2430000Y353137D01*
X2403544D01*
X2395526Y368137D01*
X2397099Y370491D01*
X2400980Y390000D01*
X2397099Y409509D01*
X2386048Y426048D01*
X2369509Y437099D01*
X2350000Y440980D01*
X2340891Y439168D01*
X2331871Y452667D01*
X2337099Y460491D01*
X2340980Y480000D01*
X2337099Y499509D01*
X2331432Y507990D01*
X2329832Y520399D01*
X2335473Y526886D01*
X2346048Y533952D01*
X2357099Y550491D01*
X2357353Y551768D01*
X2372647D01*
X2372901Y550491D01*
X2383952Y533952D01*
X2400491Y522901D01*
X2420000Y519020D01*
X2439509Y522901D01*
X2456048Y533952D01*
X2463419Y544984D01*
X2467119Y545858D01*
X2480123Y544930D01*
X2490059Y530059D01*
X2508384Y517814D01*
X2509824Y517528D01*
X2507957Y547993D01*
X2507414Y549838D01*
X2506807Y550971D01*
X2517300D01*
Y570000D01*
X2530000D01*
Y582700D01*
X2549028D01*
Y589028D01*
X2506807D01*
X2507414Y590162D01*
X2507957Y592007D01*
X2508435Y594563D01*
X2508851Y597830D01*
X2509489Y606496D01*
X2509885Y626529D01*
X2507957Y657993D01*
X2507414Y659838D01*
X2506807Y660971D01*
X2553193D01*
X2552586Y659838D01*
D02*
G37*
G36*
X1677895Y557965D02*
X1677439Y554605D01*
X1677370Y551307D01*
X1677687Y548072D01*
X1678390Y544900D01*
X1679479Y541791D01*
X1680954Y538744D01*
X1682816Y535760D01*
X1685064Y532838D01*
X1687698Y529980D01*
X1667547Y514775D01*
X1638083Y542469D01*
X1678737Y561388D01*
X1677895Y557965D01*
D02*
G37*
G36*
X1397652Y459650D02*
X1398102Y457100D01*
X1398851Y454850D01*
X1399901Y452900D01*
X1401251Y451250D01*
X1402901Y449900D01*
X1404851Y448850D01*
X1407102Y448100D01*
X1409651Y447650D01*
X1412502Y447500D01*
Y432500D01*
X1409651Y432375D01*
X1407102Y432000D01*
X1404851Y431375D01*
X1402901Y430500D01*
X1401251Y429375D01*
X1399901Y428000D01*
X1398851Y426375D01*
X1398102Y424500D01*
X1397652Y422375D01*
X1397501Y420000D01*
X1382502D01*
X1382376Y422375D01*
X1382002Y424500D01*
X1381376Y426375D01*
X1380501Y428000D01*
X1379376Y429375D01*
X1378001Y430500D01*
X1376376Y431375D01*
X1374500Y432000D01*
X1372375Y432375D01*
X1370000Y432500D01*
Y447500D01*
X1372375Y447650D01*
X1374500Y448100D01*
X1376376Y448850D01*
X1378001Y449900D01*
X1379376Y451250D01*
X1380501Y452900D01*
X1381376Y454850D01*
X1382002Y457100D01*
X1382376Y459650D01*
X1382502Y462500D01*
X1397501D01*
X1397652Y459650D01*
D02*
G37*
G36*
X870503Y388547D02*
X870225Y388297D01*
X869975Y387544D01*
X869756Y386289D01*
X869565Y384531D01*
X869170Y376243D01*
X869038Y363432D01*
X829038D01*
X828708Y388708D01*
X870503Y388547D01*
D02*
G37*
G36*
X1499385Y376837D02*
X1497940Y374956D01*
X1496665Y372930D01*
X1495560Y370761D01*
X1494625Y368448D01*
X1493860Y365991D01*
X1493265Y363391D01*
X1492840Y360647D01*
X1492585Y357760D01*
X1492500Y354728D01*
X1467500D01*
X1467415Y357760D01*
X1467160Y360647D01*
X1466735Y363391D01*
X1466140Y365991D01*
X1465375Y368448D01*
X1464440Y370761D01*
X1463335Y372930D01*
X1462060Y374956D01*
X1460615Y376837D01*
X1459000Y378576D01*
X1501000D01*
X1499385Y376837D01*
D02*
G37*
G36*
X1907743Y355810D02*
X1886111Y328433D01*
X1863134Y340812D01*
X1865331Y343127D01*
X1867169Y345322D01*
X1868650Y347398D01*
X1869772Y349354D01*
X1870538Y351190D01*
X1870946Y352907D01*
X1870996Y354503D01*
X1870688Y355980D01*
X1870023Y357338D01*
X1869000Y358576D01*
X1907743Y355810D01*
D02*
G37*
G36*
X2117956Y325967D02*
X2116159Y324468D01*
X2114552Y322797D01*
X2113133Y320953D01*
X2111904Y318938D01*
X2110864Y316750D01*
X2110013Y314391D01*
X2109351Y311858D01*
X2108878Y309154D01*
X2108595Y306278D01*
X2108525Y304034D01*
X2108625Y300187D01*
X2109000Y295885D01*
X2109625Y292089D01*
X2110500Y288800D01*
X2111625Y286016D01*
X2113000Y283739D01*
X2114625Y281967D01*
X2116500Y280702D01*
X2118625Y279943D01*
X2121000Y279690D01*
X2071000D01*
X2073375Y279943D01*
X2075500Y280702D01*
X2077375Y281967D01*
X2079000Y283739D01*
X2080375Y286016D01*
X2081500Y288800D01*
X2082375Y292089D01*
X2083000Y295885D01*
X2083375Y300187D01*
X2083500Y304995D01*
X2096625D01*
X2083500Y306945D01*
X2083428Y309966D01*
X2082855Y315636D01*
X2082353Y318285D01*
X2081708Y320809D01*
X2080919Y323209D01*
X2079987Y325485D01*
X2078912Y327636D01*
X2077693Y329664D01*
X2076331Y331567D01*
X2117956Y325967D01*
D02*
G37*
G36*
X1852575Y296141D02*
X1853175Y289642D01*
X1853701Y287001D01*
X1854376Y284767D01*
X1855202Y282939D01*
X1856177Y281518D01*
X1857303Y280502D01*
X1858579Y279893D01*
X1860005Y279690D01*
X1819995D01*
X1821421Y279893D01*
X1822696Y280502D01*
X1823822Y281518D01*
X1824798Y282939D01*
X1825623Y284767D01*
X1826299Y287001D01*
X1826824Y289642D01*
X1827200Y292688D01*
X1827425Y296141D01*
X1827500Y300000D01*
X1852500D01*
X1852575Y296141D01*
D02*
G37*
G36*
X2457214Y310547D02*
X2461571Y306856D01*
X2463748Y305262D01*
X2468097Y302578D01*
X2470269Y301488D01*
X2472441Y300565D01*
X2474610Y299811D01*
X2476779Y299224D01*
X2440917Y277362D01*
X2441345Y279603D01*
X2441491Y281844D01*
X2441358Y284084D01*
X2440944Y286324D01*
X2440249Y288563D01*
X2439274Y290802D01*
X2438019Y293040D01*
X2436483Y295278D01*
X2434667Y297515D01*
X2432570Y299752D01*
X2455033Y312644D01*
X2457214Y310547D01*
D02*
G37*
G36*
X1525802Y290049D02*
X1533987Y283254D01*
X1537638Y280820D01*
X1540994Y279027D01*
X1544057Y277875D01*
X1546824Y277366D01*
X1549297Y277499D01*
X1551476Y278274D01*
X1553361Y279690D01*
X1518310Y244639D01*
X1519727Y246524D01*
X1520501Y248703D01*
X1520634Y251176D01*
X1520125Y253944D01*
X1518974Y257006D01*
X1517181Y260362D01*
X1514746Y264013D01*
X1511669Y267959D01*
X1507951Y272198D01*
X1503590Y276732D01*
X1521268Y294410D01*
X1525802Y290049D01*
D02*
G37*
G36*
X562176Y312249D02*
X566837Y309469D01*
X571764Y307015D01*
X576956Y304889D01*
X582413Y303089D01*
X588136Y301617D01*
X594124Y300472D01*
X600378Y299654D01*
X606896Y299163D01*
X613680Y299000D01*
X619059Y259000D01*
X610413Y258800D01*
X602792Y258200D01*
X596196Y257200D01*
X590627Y255800D01*
X586084Y254000D01*
X582566Y251800D01*
X580075Y249200D01*
X578609Y246200D01*
X578169Y242800D01*
X578754Y239000D01*
X557780Y315357D01*
X562176Y312249D01*
D02*
G37*
G36*
X1148468Y252531D02*
X1149329Y250425D01*
X1150710Y248568D01*
X1152614Y246958D01*
X1155040Y245596D01*
X1157987Y244481D01*
X1161456Y243614D01*
X1163520Y243294D01*
X1165991Y243860D01*
X1168448Y244625D01*
X1170761Y245560D01*
X1172930Y246665D01*
X1174956Y247940D01*
X1176837Y249385D01*
X1178576Y251000D01*
Y209000D01*
X1176837Y210615D01*
X1174956Y212060D01*
X1172930Y213335D01*
X1170761Y214440D01*
X1168448Y215375D01*
X1165991Y216140D01*
X1163700Y216664D01*
X1161925Y216375D01*
X1158612Y215500D01*
X1155821Y214375D01*
X1153551Y213000D01*
X1151803Y211375D01*
X1150577Y209500D01*
X1149872Y207375D01*
X1149690Y205000D01*
X1148130Y254883D01*
X1148468Y252531D01*
D02*
G37*
G36*
X895943Y192625D02*
X896702Y190500D01*
X897967Y188625D01*
X899739Y187000D01*
X902016Y185625D01*
X904800Y184500D01*
X908089Y183625D01*
X911786Y183016D01*
X913391Y183265D01*
X915991Y183860D01*
X918448Y184625D01*
X920761Y185560D01*
X922930Y186665D01*
X924956Y187940D01*
X926837Y189385D01*
X928576Y191000D01*
Y149000D01*
X926837Y150615D01*
X924956Y152060D01*
X922930Y153335D01*
X920761Y154440D01*
X918448Y155375D01*
X915991Y156140D01*
X913391Y156735D01*
X911786Y156984D01*
X908089Y156375D01*
X904800Y155500D01*
X902016Y154375D01*
X899739Y153000D01*
X897967Y151375D01*
X896702Y149500D01*
X895943Y147375D01*
X895690Y145000D01*
Y195000D01*
X895943Y192625D01*
D02*
G37*
G36*
X2534310Y130000D02*
X2533907Y133800D01*
X2532698Y137200D01*
X2530683Y140200D01*
X2527862Y142800D01*
X2524234Y145000D01*
X2519801Y146800D01*
X2514561Y148200D01*
X2508515Y149200D01*
X2501664Y149800D01*
X2494006Y150000D01*
Y190000D01*
X2501664Y190200D01*
X2508515Y190800D01*
X2514561Y191800D01*
X2519801Y193200D01*
X2524234Y195000D01*
X2527862Y197200D01*
X2530683Y199800D01*
X2532698Y202800D01*
X2533907Y206200D01*
X2534310Y210000D01*
Y130000D01*
D02*
G37*
G36*
X1403872Y132625D02*
X1404577Y130500D01*
X1405803Y128625D01*
X1407551Y127000D01*
X1409821Y125625D01*
X1412612Y124500D01*
X1415925Y123625D01*
X1419760Y123000D01*
X1420994Y122894D01*
X1423391Y123265D01*
X1425991Y123860D01*
X1428448Y124625D01*
X1430761Y125560D01*
X1432930Y126665D01*
X1434956Y127940D01*
X1436837Y129385D01*
X1438576Y131000D01*
Y89000D01*
X1436837Y90615D01*
X1434956Y92060D01*
X1432930Y93335D01*
X1430761Y94440D01*
X1428448Y95375D01*
X1425991Y96140D01*
X1423391Y96735D01*
X1420886Y97123D01*
X1419447Y97005D01*
X1415456Y96386D01*
X1411987Y95519D01*
X1409040Y94404D01*
X1406614Y93042D01*
X1404711Y91432D01*
X1403329Y89575D01*
X1402469Y87469D01*
X1402130Y85117D01*
X1403690Y135000D01*
X1403872Y132625D01*
D02*
G37*
%LPC*%
G36*
X605730Y1747300D02*
X486700D01*
Y1648270D01*
X536500D01*
X562994Y1653540D01*
X585453Y1668547D01*
X600461Y1691007D01*
X605730Y1717500D01*
Y1747300D01*
D02*
G37*
G36*
X461300D02*
X342270D01*
Y1717500D01*
X347540Y1691007D01*
X362547Y1668547D01*
X385007Y1653540D01*
X411500Y1648270D01*
X461300D01*
Y1747300D01*
D02*
G37*
G36*
X242500Y347730D02*
X192700D01*
Y248700D01*
X311730D01*
Y278500D01*
X306461Y304993D01*
X291453Y327453D01*
X268994Y342460D01*
X242500Y347730D01*
D02*
G37*
G36*
X311730Y223300D02*
X192700D01*
Y124270D01*
X242500D01*
X268994Y129540D01*
X291453Y144547D01*
X306461Y167007D01*
X311730Y193500D01*
Y223300D01*
D02*
G37*
G36*
X940000Y1541191D02*
X932700D01*
Y1497700D01*
X981191D01*
Y1500000D01*
X978056Y1515763D01*
X969127Y1529126D01*
X955763Y1538056D01*
X940000Y1541191D01*
D02*
G37*
G36*
X907300D02*
X900000D01*
X884237Y1538056D01*
X870873Y1529126D01*
X861944Y1515763D01*
X860337Y1507684D01*
X873057Y1508635D01*
X873100Y1509142D01*
X873537Y1508830D01*
X873899Y1508698D01*
X879079Y1509086D01*
X883027Y1509783D01*
X886521Y1510608D01*
X889558Y1511559D01*
X892140Y1512637D01*
X894266Y1513842D01*
X892825Y1497700D01*
X907300D01*
Y1541191D01*
D02*
G37*
G36*
X1547300Y1481102D02*
X1538943Y1479440D01*
X1540170Y1478244D01*
X1547300Y1472095D01*
Y1481102D01*
D02*
G37*
G36*
X1524685Y1472837D02*
X1520176Y1469824D01*
X1517163Y1465315D01*
X1524685Y1472837D01*
D02*
G37*
G36*
X907300Y1472300D02*
X890557D01*
X889405Y1459405D01*
X888063Y1460943D01*
X886198Y1462319D01*
X883812Y1463534D01*
X880904Y1464586D01*
X877475Y1465476D01*
X873523Y1466205D01*
X869050Y1466772D01*
X859332Y1467370D01*
X861944Y1454237D01*
X870873Y1440873D01*
X884237Y1431944D01*
X900000Y1428808D01*
X907300D01*
Y1472300D01*
D02*
G37*
G36*
X981191D02*
X932700D01*
Y1428808D01*
X940000D01*
X955763Y1431944D01*
X969127Y1440873D01*
X978056Y1454237D01*
X981191Y1470000D01*
Y1472300D01*
D02*
G37*
G36*
X2879999Y1388039D02*
X2810000D01*
X2799270Y1385904D01*
X2790174Y1379826D01*
X2784096Y1370730D01*
X2781961Y1360000D01*
X2784096Y1349270D01*
X2790174Y1340174D01*
X2799270Y1334096D01*
X2810000Y1331962D01*
X2879999D01*
X2890729Y1334096D01*
X2899825Y1340174D01*
X2905903Y1349270D01*
X2908037Y1360000D01*
X2905903Y1370730D01*
X2899825Y1379826D01*
X2890729Y1385904D01*
X2879999Y1388039D01*
D02*
G37*
G36*
X2542700Y1283959D02*
Y1242700D01*
X2549028D01*
Y1253193D01*
X2550162Y1252586D01*
X2552007Y1252043D01*
X2554563Y1251565D01*
X2557830Y1251149D01*
X2566496Y1250511D01*
X2582468Y1250195D01*
X2582186Y1251616D01*
X2569941Y1269941D01*
X2551616Y1282186D01*
X2542700Y1283959D01*
D02*
G37*
G36*
X2872700D02*
Y1242700D01*
X2913959D01*
X2912185Y1251616D01*
X2899941Y1269941D01*
X2881616Y1282186D01*
X2872700Y1283959D01*
D02*
G37*
G36*
X2737300D02*
X2728384Y1282186D01*
X2710059Y1269941D01*
X2697815Y1251616D01*
X2697528Y1250176D01*
X2727993Y1252043D01*
X2729838Y1252586D01*
X2730972Y1253193D01*
Y1242700D01*
X2737300D01*
Y1283959D01*
D02*
G37*
G36*
X832700Y1221102D02*
Y1182700D01*
X837258D01*
Y1193988D01*
X838782Y1193230D01*
X840964Y1192552D01*
X843806Y1191954D01*
X847306Y1191436D01*
X856286Y1190638D01*
X869610Y1190205D01*
X868201Y1197288D01*
X859824Y1209824D01*
X847288Y1218201D01*
X832700Y1221102D01*
D02*
G37*
G36*
X1328264Y897300D02*
X1322700D01*
Y892742D01*
X1327858D01*
X1328264Y897300D01*
D02*
G37*
G36*
X1297300D02*
X1258897D01*
X1261799Y882712D01*
X1270176Y870176D01*
X1282712Y861799D01*
X1288890Y860571D01*
X1287159Y889441D01*
X1286618Y891440D01*
X1286012Y892742D01*
X1297300D01*
Y897300D01*
D02*
G37*
G36*
X1330941Y882141D02*
X1330923Y882033D01*
X1329965Y872946D01*
X1329390Y861371D01*
X1329375Y860225D01*
X1337288Y861799D01*
X1349824Y870176D01*
X1356742Y880530D01*
X1330941Y882141D01*
D02*
G37*
G36*
X907300Y881191D02*
X900000D01*
X884237Y878056D01*
X870873Y869127D01*
X861944Y855763D01*
X858809Y840000D01*
Y837700D01*
X877076D01*
X880065Y838609D01*
X883509Y840197D01*
X886124Y842073D01*
X887911Y844239D01*
X888869Y846693D01*
X888998Y849436D01*
X890158Y837700D01*
X907300D01*
Y881191D01*
D02*
G37*
G36*
Y812300D02*
X892670D01*
X894266Y796157D01*
X894231Y795941D01*
X893442Y795747D01*
X891899Y795576D01*
X886553Y795302D01*
X861785Y795036D01*
X861944Y794237D01*
X870873Y780873D01*
X884237Y771944D01*
X900000Y768808D01*
X907300D01*
Y812300D01*
D02*
G37*
G36*
X729795Y559610D02*
X722712Y558201D01*
X710176Y549824D01*
X701799Y537288D01*
X698898Y522700D01*
X737300D01*
Y527259D01*
X726012D01*
X726770Y528782D01*
X727448Y530964D01*
X728046Y533806D01*
X728564Y537307D01*
X729362Y546286D01*
X729795Y559610D01*
D02*
G37*
G36*
X727861Y497300D02*
X698898D01*
X701799Y482712D01*
X703249Y480542D01*
X707600Y481200D01*
X712850Y482700D01*
X717400Y484800D01*
X721250Y487500D01*
X724400Y490800D01*
X726850Y494700D01*
X727861Y497300D01*
D02*
G37*
G36*
X703249Y439458D02*
X701799Y437288D01*
X698898Y422700D01*
X727861D01*
X726850Y425300D01*
X724400Y429200D01*
X721250Y432500D01*
X717400Y435200D01*
X712850Y437300D01*
X707600Y438800D01*
X703249Y439458D01*
D02*
G37*
G36*
X2549028Y557300D02*
X2542700D01*
Y550971D01*
X2549028D01*
Y557300D01*
D02*
G37*
G36*
X2737300D02*
X2730972D01*
Y546807D01*
X2729838Y547414D01*
X2727993Y547956D01*
X2725437Y548435D01*
X2722170Y548851D01*
X2713504Y549489D01*
X2697532Y549805D01*
X2697815Y548384D01*
X2710059Y530059D01*
X2728384Y517814D01*
X2737300Y516041D01*
Y557300D01*
D02*
G37*
G36*
X2582472Y549824D02*
X2552037Y547958D01*
X2551565Y545437D01*
X2551149Y542170D01*
X2550511Y533504D01*
X2550195Y517532D01*
X2551616Y517814D01*
X2569941Y530059D01*
X2582186Y548384D01*
X2582472Y549824D01*
D02*
G37*
G36*
X2913959Y557300D02*
X2872700D01*
Y516041D01*
X2881616Y517814D01*
X2899941Y530059D01*
X2912185Y548384D01*
X2913959Y557300D01*
D02*
G37*
G36*
X2879999Y468038D02*
X2810000D01*
X2799270Y465904D01*
X2790174Y459826D01*
X2784096Y450730D01*
X2781961Y440000D01*
X2784096Y429270D01*
X2790174Y420174D01*
X2799270Y414096D01*
X2810000Y411961D01*
X2879999D01*
X2890729Y414096D01*
X2899825Y420174D01*
X2905903Y429270D01*
X2908037Y440000D01*
X2905903Y450730D01*
X2899825Y459826D01*
X2890729Y465904D01*
X2879999Y468038D01*
D02*
G37*
G36*
X2639000Y306583D02*
X2616700D01*
Y182700D01*
X2700583D01*
Y245000D01*
X2695896Y268567D01*
X2682546Y288546D01*
X2662567Y301896D01*
X2639000Y306583D01*
D02*
G37*
%LPD*%
D10*
X1588000Y170000D02*
D03*
X2604000D02*
D03*
X1842000D02*
D03*
X2096000D02*
D03*
X826000D02*
D03*
X1080000D02*
D03*
X2350000D02*
D03*
X1334000D02*
D03*
D11*
X1030000Y1890000D02*
D03*
D12*
X730000D02*
D03*
D13*
X730000Y1720000D02*
D03*
Y1060000D02*
D03*
D14*
X890000Y1720000D02*
D03*
Y1060000D02*
D03*
D15*
X1540000Y570000D02*
D03*
X1650000D02*
D03*
X1760000D02*
D03*
X1870000D02*
D03*
X1980000D02*
D03*
X2090000D02*
D03*
X2200000D02*
D03*
X2310000D02*
D03*
X2420000D02*
D03*
X2530000D02*
D03*
X2750000D02*
D03*
X2860000D02*
D03*
X1540000Y680000D02*
D03*
X1650000D02*
D03*
X1760000D02*
D03*
X1870000D02*
D03*
X1980000D02*
D03*
X2090000D02*
D03*
X2200000D02*
D03*
X2310000D02*
D03*
X2420000D02*
D03*
X2530000D02*
D03*
X1540000Y790000D02*
D03*
X1650000D02*
D03*
X1760000D02*
D03*
X1870000D02*
D03*
X1980000D02*
D03*
X2090000D02*
D03*
X2200000D02*
D03*
X2310000D02*
D03*
X2420000D02*
D03*
X2530000D02*
D03*
X1540000Y900000D02*
D03*
X1650000D02*
D03*
X1760000D02*
D03*
X1870000D02*
D03*
X1980000D02*
D03*
X2090000D02*
D03*
X2200000D02*
D03*
X2310000D02*
D03*
X2420000D02*
D03*
X2530000D02*
D03*
X1540000Y1010000D02*
D03*
X1650000D02*
D03*
X1760000D02*
D03*
X1870000D02*
D03*
X1980000D02*
D03*
X2090000D02*
D03*
X2200000D02*
D03*
X2310000D02*
D03*
X2420000D02*
D03*
X2530000D02*
D03*
X1540000Y1120000D02*
D03*
X1650000D02*
D03*
X1760000D02*
D03*
X1870000D02*
D03*
X1980000D02*
D03*
X2090000D02*
D03*
X2200000D02*
D03*
X2310000D02*
D03*
X2420000D02*
D03*
X2530000D02*
D03*
X1540000Y1230000D02*
D03*
X1650000D02*
D03*
X1760000D02*
D03*
X1870000D02*
D03*
X1980000D02*
D03*
X2090000D02*
D03*
X2200000D02*
D03*
X2310000D02*
D03*
X2420000D02*
D03*
X2530000D02*
D03*
X2750000D02*
D03*
X2860000D02*
D03*
D16*
X700000Y1390000D02*
D03*
X920000Y1485000D02*
D03*
Y1295000D02*
D03*
X700000Y730000D02*
D03*
X920000Y825000D02*
D03*
Y635000D02*
D03*
D17*
X720000Y1170000D02*
D03*
X820000D02*
D03*
X820000Y1610000D02*
D03*
X720000D02*
D03*
X2410000Y1430000D02*
D03*
X2310000D02*
D03*
X1950000D02*
D03*
X2050000D02*
D03*
X850000Y510000D02*
D03*
X750000D02*
D03*
X820000Y960000D02*
D03*
X720000D02*
D03*
X1660000Y1430000D02*
D03*
X1560000D02*
D03*
X850000Y410000D02*
D03*
X750000D02*
D03*
D18*
X1737500Y1600000D02*
D03*
D19*
X1802500D02*
D03*
X1867500D02*
D03*
X1932500D02*
D03*
X1997500D02*
D03*
D20*
X1867500Y1860000D02*
D03*
D21*
X1310000Y1010000D02*
D03*
Y910000D02*
D03*
D22*
X700000Y730000D02*
Y740000D01*
X700000Y940000D02*
X720000Y960000D01*
X700000Y740000D02*
X700000Y740000D01*
Y940000D01*
X750000Y1740000D02*
X760000D01*
X830000Y1810000D02*
X950000D01*
X760000Y1740000D02*
X830000Y1810000D01*
X730000Y1720000D02*
X750000Y1740000D01*
X831569Y1611569D02*
Y1651569D01*
X900000Y1720000D01*
X830000Y1610000D02*
X831569Y1611569D01*
X705000Y1585000D02*
X734640Y1614640D01*
X705000Y1390000D02*
Y1585000D01*
X710000Y1700000D02*
X720000D01*
X630000Y1060000D02*
Y1620000D01*
X710000Y1700000D01*
X1308397Y742403D02*
X1309199Y743205D01*
Y909199D02*
X1310000Y910000D01*
X1309199Y743205D02*
Y909199D01*
X820000Y1170000D02*
X904588D01*
X914588Y1160000D01*
X920000D01*
X816173Y676173D02*
Y768673D01*
X750000Y610000D02*
X816173Y676173D01*
X750000Y510000D02*
Y610000D01*
Y460000D02*
Y510000D01*
X905000Y625000D02*
X910000D01*
X850000Y510000D02*
Y570000D01*
X910000Y625000D02*
X920000Y635000D01*
X905000Y625000D02*
Y625000D01*
X850000Y570000D02*
X905000Y625000D01*
X849038Y363432D02*
Y409020D01*
X825606Y340000D02*
X849038Y363432D01*
X700000Y340000D02*
X825606D01*
X750000Y410000D02*
Y460000D01*
X695000D02*
X750000D01*
X816173Y768673D02*
X820000Y772500D01*
X890000Y1080000D02*
X900000Y1070000D01*
X890000Y1060000D02*
Y1070000D01*
Y1030000D02*
Y1060000D01*
X820000Y960000D02*
X890000Y1030000D01*
X720000Y1165000D02*
X723765Y1168765D01*
Y1213765D01*
X800000Y1290000D02*
X905000D01*
X723765Y1213765D02*
X800000Y1290000D01*
X920000Y815000D02*
X926967Y821967D01*
X820000Y784588D02*
Y790000D01*
X825412D01*
X850412Y815000D02*
X920000D01*
X825412Y790000D02*
X850412Y815000D01*
X950000Y1810000D02*
X1010000Y1870000D01*
X850000Y1490000D02*
X852500Y1487500D01*
X915000Y1475000D02*
Y1477499D01*
X905000Y1487500D02*
X915000Y1477499D01*
X852500Y1487500D02*
X905000D01*
X639000Y279000D02*
X700000Y340000D01*
X630000Y1060000D02*
X730000D01*
X630000Y450000D02*
Y1060000D01*
X905000Y1290000D02*
X910000Y1295000D01*
X630000Y280000D02*
Y450000D01*
X1010000Y1870000D02*
X1030000D01*
X1870000Y900000D02*
X1980000D01*
X1876065Y796064D02*
Y893935D01*
X1760000Y1010000D02*
X1810000Y960000D01*
X1870000Y900000D01*
X1876065Y893935D01*
X1870000Y790000D02*
X1876065Y796064D01*
X2250000Y1510000D02*
X2350000D01*
X2405000Y1435000D02*
X2410000Y1430000D01*
X2405000Y1435000D02*
Y1455000D01*
X2350000Y1510000D02*
X2405000Y1455000D01*
X1164998Y1315002D02*
Y1444998D01*
Y1315002D02*
X1310000Y1170000D01*
X1164998Y1444998D02*
X1170000Y1450000D01*
X1185000Y1435000D02*
X1435001D01*
X1170000Y1450000D02*
X1185000Y1435000D01*
X1435001D02*
X1630001Y1240000D01*
X2490000Y170000D02*
X2604000D01*
X1470000Y1520000D02*
X1560000Y1430000D01*
X1997500Y1600000D02*
X1998500Y1601000D01*
Y1708500D01*
X2000000Y1710000D01*
X2530000Y1230000D02*
X2750000D01*
X2530000Y570000D02*
X2750000D01*
X1997500Y1482500D02*
Y1600000D01*
Y1482500D02*
X2050000Y1430000D01*
X1560000D02*
X1760000Y1230000D01*
X1980000Y790000D02*
Y900000D01*
X2420000D02*
X2530000D01*
X1310000Y1010000D02*
Y1170000D01*
X1644588Y1230000D02*
X1650000D01*
X1634588Y1240000D02*
X1644588Y1230000D01*
X1630001Y1240000D02*
X1634588D01*
X730000Y1890000D02*
X830000D01*
X700000Y1900000D02*
X730000Y1870000D01*
X1320000Y900000D02*
X1540000D01*
X1310000Y910000D02*
X1320000Y900000D01*
X1310000Y1010000D02*
X1540000D01*
X340000Y1900000D02*
X700000D01*
X200000Y1760000D02*
X340000Y1900000D01*
X454000Y236000D02*
X497000Y279000D01*
X639000D01*
X2530000Y480000D02*
Y570000D01*
X2750000D02*
X2860000D01*
X2750000Y1230000D02*
X2860000D01*
X2530000Y790000D02*
Y900000D01*
Y680000D02*
Y790000D01*
Y570000D02*
Y680000D01*
Y1120000D02*
Y1230000D01*
D23*
X925956Y1279043D02*
X965956D01*
X900355Y1304645D02*
X925956Y1279043D01*
X990000Y1000000D02*
X1060000Y1070000D01*
X1200000D01*
X1095000Y1150000D02*
X1180000D01*
X965956Y1279043D02*
X1095000Y1150000D01*
X1350000Y680000D02*
X1540000D01*
X1531148Y790000D02*
X1540000D01*
X1426352Y746352D02*
X1487500D01*
X1531148Y790000D01*
X1420000Y740000D02*
X1426352Y746352D01*
X2103303Y1356697D02*
X2110000Y1350000D01*
X1920000Y1370000D02*
X2056569D01*
X2069872Y1356697D02*
X2103303D01*
X2056569Y1370000D02*
X2069872Y1356697D01*
X1802500Y1427500D02*
X1900000Y1330000D01*
X2090000Y1230000D02*
Y1280000D01*
X1980000Y1230000D02*
X1981416D01*
X1867500Y1422500D02*
X1920000Y1370000D01*
X1900000Y1330000D02*
X2040000D01*
X1981416Y1230000D02*
X2016549Y1265132D01*
X2017965D01*
X2040000Y1330000D02*
X2090000Y1280000D01*
X990000Y701353D02*
Y1000000D01*
X942500Y653853D02*
X990000Y701353D01*
X923647Y635000D02*
X942500Y653853D01*
Y653853D01*
X920000Y635000D02*
X923647D01*
X1688845Y972191D02*
X1689882D01*
X1651036Y1010000D02*
X1688845Y972191D01*
X2128175Y1158338D02*
Y1158501D01*
X2090000Y1120164D02*
X2128175Y1158338D01*
X2090000Y1120000D02*
Y1120164D01*
X1650000Y1010000D02*
X1651036D01*
X1605053Y1074122D02*
Y1074587D01*
X1650000Y1119534D01*
Y1120000D01*
X1724883Y1084045D02*
X1760000Y1119162D01*
X1724883Y1083207D02*
Y1084045D01*
X1760000Y1119162D02*
Y1120000D01*
X1833416Y1082575D02*
X1870000Y1119159D01*
Y1120000D01*
X1833416Y1081734D02*
Y1082575D01*
X1938500Y1160842D02*
X1979341Y1120000D01*
X1937841Y1160842D02*
X1938500D01*
X1979341Y1120000D02*
X1980000D01*
X1940477Y1046619D02*
X1941929D01*
X1978548Y1010000D02*
X1980000D01*
X1941929Y1046619D02*
X1978548Y1010000D01*
X1870000D02*
X1871613D01*
X1910378Y971235D01*
X1911993D01*
X2060000Y1040000D02*
Y1045000D01*
Y1040000D02*
X2090000Y1010000D01*
X2384267Y1157890D02*
Y1160048D01*
X2420000Y1120000D02*
Y1122157D01*
X2384267Y1157890D02*
X2420000Y1122157D01*
X2311701Y1120000D02*
X2346242Y1085459D01*
X2347943D01*
X2310000Y1120000D02*
X2311701D01*
X2159996Y1049998D02*
X2160002D01*
X2200000Y1010000D01*
X2346412Y976742D02*
X2349566D01*
X2313154Y1010000D02*
X2346412Y976742D01*
X2310000Y1010000D02*
X2313154D01*
X2310000Y1231447D02*
X2347500Y1268947D01*
X2310000Y1230000D02*
Y1231447D01*
X2347500Y1268947D02*
Y1270395D01*
X2110000Y490000D02*
X2280000Y320000D01*
X2430000D01*
X1710000Y490000D02*
X2110000D01*
X2350000Y170000D02*
Y197823D01*
X2286558Y261265D02*
X2350000Y197823D01*
X1670000Y440000D02*
X2100000D01*
X2278735Y261265D01*
X2286558D01*
X2096000Y170000D02*
Y346000D01*
X2100000Y350000D01*
X1760000Y570000D02*
Y572586D01*
X1724616Y607970D02*
Y610556D01*
Y607970D02*
X1760000Y572586D01*
X1870000Y570000D02*
Y570276D01*
X1905461Y605737D02*
Y606013D01*
X1870000Y570276D02*
X1905461Y605737D01*
X1389787Y110000D02*
X1460000D01*
X1080000Y170000D02*
Y174213D01*
X1135787Y230000D01*
X1200000D01*
X826000Y170000D02*
X950000D01*
X1811065Y845001D02*
Y855652D01*
X1815413Y860000D01*
X1795695D02*
X1815413D01*
X1760000Y895695D02*
X1795695Y860000D01*
X1701937Y843906D02*
X1702160D01*
X1655000Y900000D02*
X1699889Y855111D01*
Y845954D02*
Y855111D01*
Y845954D02*
X1701937Y843906D01*
X2430000Y320000D02*
X2470000Y280000D01*
Y270000D02*
Y280000D01*
X2419853Y1230147D02*
Y1291465D01*
X2361317Y1350000D02*
X2419853Y1291465D01*
X2300000Y1350000D02*
X2361317D01*
X1473935Y1120000D02*
X1540000D01*
X1229998Y1363937D02*
X1473935Y1120000D01*
X1229998Y1363937D02*
Y1369997D01*
X1310000Y1340503D02*
Y1370000D01*
X1890000Y380000D02*
X1900000D01*
X1890000Y350000D02*
Y380000D01*
X1840000Y300000D02*
X1890000Y350000D01*
X1540000Y570000D02*
X1670000Y440000D01*
X1480000Y318000D02*
Y400000D01*
Y318000D02*
X1588000Y210000D01*
X2419853Y1230147D02*
X2420000Y1230000D01*
X1760000Y895695D02*
Y900000D01*
X1650000Y570000D02*
X1656697Y563303D01*
Y543303D02*
Y563303D01*
Y543303D02*
X1710000Y490000D01*
X1540000Y570000D02*
Y570000D01*
X1650000Y900000D02*
X1655000D01*
X1310000Y1340503D02*
X1420503Y1230000D01*
X1540000D01*
X1760000Y900000D02*
Y901250D01*
X1588000Y170000D02*
Y210000D01*
X1840000Y172000D02*
Y300000D01*
Y172000D02*
X1842000Y170000D01*
X1334000Y165787D02*
Y170000D01*
Y165787D02*
X1389787Y110000D01*
X2270000Y1430000D02*
X2310000D01*
X2200000Y1230000D02*
Y1360000D01*
X2270000Y1430000D01*
X1932500Y1447500D02*
Y1600000D01*
Y1447500D02*
X1950000Y1430000D01*
X1737500D02*
Y1600000D01*
Y1362500D02*
Y1430000D01*
X1660000D02*
X1737500D01*
Y1362500D02*
X1870000Y1230000D01*
X1867500Y1422500D02*
Y1600000D01*
X1800000Y1590000D02*
X1802500Y1587500D01*
Y1427500D02*
Y1587500D01*
Y1592500D02*
Y1600000D01*
X1800000Y1590000D02*
X1802500Y1592500D01*
X2090000Y900000D02*
X2140000Y850000D01*
X2090000Y900000D02*
X2090000D01*
D24*
X1390000Y1310000D02*
Y1380000D01*
X1370000Y1360000D02*
X1439997D01*
X2810000D02*
X2879999D01*
X2810000Y440000D02*
X2879999D01*
X1390002Y420000D02*
Y490000D01*
X1370000Y440000D02*
X1439998D01*
D25*
X180000Y1760000D02*
D03*
D26*
Y1506000D02*
D03*
Y1252000D02*
D03*
Y998000D02*
D03*
Y744000D02*
D03*
Y490000D02*
D03*
Y236000D02*
D03*
X474000Y1760000D02*
D03*
Y1506000D02*
D03*
Y1252000D02*
D03*
Y998000D02*
D03*
Y744000D02*
D03*
Y490000D02*
D03*
Y236000D02*
D03*
D27*
X1637500Y1560000D02*
D03*
X2097500D02*
D03*
D28*
X1450000Y1860000D02*
D03*
X2285000D02*
D03*
D29*
X120000Y1910000D02*
D03*
X1160000Y1000000D02*
D03*
X1180000Y1150000D02*
D03*
X1200000Y1070000D02*
D03*
X1308397Y742403D02*
D03*
X1350000Y680000D02*
D03*
X1420000Y740000D02*
D03*
X920000Y1160000D02*
D03*
X960000Y410000D02*
D03*
X695000Y460000D02*
D03*
X2110000Y1350000D02*
D03*
X2017965Y1265132D02*
D03*
X820000Y772500D02*
D03*
X850000Y1490000D02*
D03*
X1689882Y972191D02*
D03*
X2128175Y1158501D02*
D03*
X1605053Y1074122D02*
D03*
X1724883Y1083207D02*
D03*
X1833416Y1081734D02*
D03*
X1937841Y1160842D02*
D03*
X1940477Y1046619D02*
D03*
X1911993Y971235D02*
D03*
X2060000Y1045000D02*
D03*
X2384267Y1160048D02*
D03*
X2347943Y1085459D02*
D03*
X2159996Y1049998D02*
D03*
X2349566Y976742D02*
D03*
X2347500Y1270395D02*
D03*
X2100000Y350000D02*
D03*
X1724616Y610556D02*
D03*
X1905461Y606013D02*
D03*
X1460000Y110000D02*
D03*
X1200000Y230000D02*
D03*
X950000Y170000D02*
D03*
X1811065Y845001D02*
D03*
X1810000Y960000D02*
D03*
X1702160Y843906D02*
D03*
X2290000Y480000D02*
D03*
X2350000Y390000D02*
D03*
X2300000Y1350000D02*
D03*
X2250000Y1510000D02*
D03*
X1229998Y1369997D02*
D03*
X1310000Y1370000D02*
D03*
X1170000Y1450000D02*
D03*
X2148934Y625000D02*
D03*
X1890000Y380000D02*
D03*
X1480000Y400000D02*
D03*
X2490000Y170000D02*
D03*
X1470000Y1520000D02*
D03*
X2000000Y1710000D02*
D03*
X2620000Y568944D02*
D03*
X830000Y1890000D02*
D03*
X1970000Y170000D02*
D03*
X1710000Y230000D02*
D03*
X2220000Y110000D02*
D03*
X2470000Y270000D02*
D03*
X2140000Y850000D02*
D03*
%TF.MD5,e5225ae5e1df57a432041d350898e1b6*%
M02*
