%TF.GenerationSoftware,Altium Limited,Altium Designer,21.1.0 (24)*%
G04 Layer_Color=8421504*
%FSLAX45Y45*%
%MOMM*%
%TF.SameCoordinates,A42B3F18-A760-40AD-9EC3-E9591E309F50*%
%TF.FilePolarity,Positive*%
%TF.FileFunction,Paste,Top*%
%TF.Part,Single*%
G01*
G75*
%TA.AperFunction,BGAPad,CuDef*%
%ADD15C,0.60000*%
%TA.AperFunction,SMDPad,CuDef*%
G04:AMPARAMS|DCode=16|XSize=0.6mm|YSize=0.7mm|CornerRadius=0.15mm|HoleSize=0mm|Usage=FLASHONLY|Rotation=270.000|XOffset=0mm|YOffset=0mm|HoleType=Round|Shape=RoundedRectangle|*
%AMROUNDEDRECTD16*
21,1,0.60000,0.40000,0,0,270.0*
21,1,0.30000,0.70000,0,0,270.0*
1,1,0.30000,-0.20000,-0.15000*
1,1,0.30000,-0.20000,0.15000*
1,1,0.30000,0.20000,0.15000*
1,1,0.30000,0.20000,-0.15000*
%
%ADD16ROUNDEDRECTD16*%
G04:AMPARAMS|DCode=17|XSize=0.5mm|YSize=0.5mm|CornerRadius=0.125mm|HoleSize=0mm|Usage=FLASHONLY|Rotation=270.000|XOffset=0mm|YOffset=0mm|HoleType=Round|Shape=RoundedRectangle|*
%AMROUNDEDRECTD17*
21,1,0.50000,0.25000,0,0,270.0*
21,1,0.25000,0.50000,0,0,270.0*
1,1,0.25000,-0.12500,-0.12500*
1,1,0.25000,-0.12500,0.12500*
1,1,0.25000,0.12500,0.12500*
1,1,0.25000,0.12500,-0.12500*
%
%ADD17ROUNDEDRECTD17*%
G04:AMPARAMS|DCode=21|XSize=0.5mm|YSize=0.5mm|CornerRadius=0.125mm|HoleSize=0mm|Usage=FLASHONLY|Rotation=180.000|XOffset=0mm|YOffset=0mm|HoleType=Round|Shape=RoundedRectangle|*
%AMROUNDEDRECTD21*
21,1,0.50000,0.25000,0,0,180.0*
21,1,0.25000,0.50000,0,0,180.0*
1,1,0.25000,-0.12500,0.12500*
1,1,0.25000,0.12500,0.12500*
1,1,0.25000,0.12500,-0.12500*
1,1,0.25000,-0.12500,-0.12500*
%
%ADD21ROUNDEDRECTD21*%
%TA.AperFunction,NonConductor*%
%ADD74R,0.40000X1.30000*%
%ADD75R,0.30000X1.10000*%
%ADD76R,0.40000X1.00000*%
%TA.AperFunction,SMDPad,CuDef*%
%ADD77R,0.90000X0.90000*%
G04:AMPARAMS|DCode=78|XSize=0.9mm|YSize=0.9mm|CornerRadius=0.175mm|HoleSize=0mm|Usage=FLASHONLY|Rotation=270.000|XOffset=0mm|YOffset=0mm|HoleType=Round|Shape=RoundedRectangle|*
%AMROUNDEDRECTD78*
21,1,0.90000,0.55000,0,0,270.0*
21,1,0.55000,0.90000,0,0,270.0*
1,1,0.35000,-0.27500,-0.27500*
1,1,0.35000,-0.27500,0.27500*
1,1,0.35000,0.27500,0.27500*
1,1,0.35000,0.27500,-0.27500*
%
%ADD78ROUNDEDRECTD78*%
G04:AMPARAMS|DCode=79|XSize=0.7mm|YSize=0.7mm|CornerRadius=0.15mm|HoleSize=0mm|Usage=FLASHONLY|Rotation=270.000|XOffset=0mm|YOffset=0mm|HoleType=Round|Shape=RoundedRectangle|*
%AMROUNDEDRECTD79*
21,1,0.70000,0.40000,0,0,270.0*
21,1,0.40000,0.70000,0,0,270.0*
1,1,0.30000,-0.20000,-0.20000*
1,1,0.30000,-0.20000,0.20000*
1,1,0.30000,0.20000,0.20000*
1,1,0.30000,0.20000,-0.20000*
%
%ADD79ROUNDEDRECTD79*%
%ADD80R,0.70000X0.70000*%
G04:AMPARAMS|DCode=81|XSize=2.5mm|YSize=1.5mm|CornerRadius=0.275mm|HoleSize=0mm|Usage=FLASHONLY|Rotation=180.000|XOffset=0mm|YOffset=0mm|HoleType=Round|Shape=RoundedRectangle|*
%AMROUNDEDRECTD81*
21,1,2.50000,0.95000,0,0,180.0*
21,1,1.95000,1.50000,0,0,180.0*
1,1,0.55000,-0.97500,0.47500*
1,1,0.55000,0.97500,0.47500*
1,1,0.55000,0.97500,-0.47500*
1,1,0.55000,-0.97500,-0.47500*
%
%ADD81ROUNDEDRECTD81*%
D15*
X1540000Y570000D02*
D03*
X1650000D02*
D03*
X1760000D02*
D03*
X1870000D02*
D03*
X1980000D02*
D03*
X2090000D02*
D03*
X2200000D02*
D03*
X2310000D02*
D03*
X2420000D02*
D03*
X2530000D02*
D03*
X2750000D02*
D03*
X2860000D02*
D03*
X1540000Y680000D02*
D03*
X1650000D02*
D03*
X1760000D02*
D03*
X1870000D02*
D03*
X1980000D02*
D03*
X2090000D02*
D03*
X2200000D02*
D03*
X2310000D02*
D03*
X2420000D02*
D03*
X2530000D02*
D03*
X1540000Y790000D02*
D03*
X1650000D02*
D03*
X1760000D02*
D03*
X1870000D02*
D03*
X1980000D02*
D03*
X2090000D02*
D03*
X2200000D02*
D03*
X2310000D02*
D03*
X2420000D02*
D03*
X2530000D02*
D03*
X1540000Y900000D02*
D03*
X1650000D02*
D03*
X1760000D02*
D03*
X1870000D02*
D03*
X1980000D02*
D03*
X2090000D02*
D03*
X2200000D02*
D03*
X2310000D02*
D03*
X2420000D02*
D03*
X2530000D02*
D03*
X1540000Y1010000D02*
D03*
X1650000D02*
D03*
X1760000D02*
D03*
X1870000D02*
D03*
X1980000D02*
D03*
X2090000D02*
D03*
X2200000D02*
D03*
X2310000D02*
D03*
X2420000D02*
D03*
X2530000D02*
D03*
X1540000Y1120000D02*
D03*
X1650000D02*
D03*
X1760000D02*
D03*
X1870000D02*
D03*
X1980000D02*
D03*
X2090000D02*
D03*
X2200000D02*
D03*
X2310000D02*
D03*
X2420000D02*
D03*
X2530000D02*
D03*
X1540000Y1230000D02*
D03*
X1650000D02*
D03*
X1760000D02*
D03*
X1870000D02*
D03*
X1980000D02*
D03*
X2090000D02*
D03*
X2200000D02*
D03*
X2310000D02*
D03*
X2420000D02*
D03*
X2530000D02*
D03*
X2750000D02*
D03*
X2860000D02*
D03*
D16*
X700000Y1390000D02*
D03*
X920000Y1485000D02*
D03*
Y1295000D02*
D03*
X700000Y730000D02*
D03*
X920000Y825000D02*
D03*
Y635000D02*
D03*
D17*
X720000Y1170000D02*
D03*
X820000D02*
D03*
X820000Y1610000D02*
D03*
X720000D02*
D03*
X2410000Y1430000D02*
D03*
X2310000D02*
D03*
X1950000D02*
D03*
X2050000D02*
D03*
X850000Y510000D02*
D03*
X750000D02*
D03*
X820000Y960000D02*
D03*
X720000D02*
D03*
X1660000Y1430000D02*
D03*
X1560000D02*
D03*
X850000Y410000D02*
D03*
X750000D02*
D03*
D21*
X1310000Y1010000D02*
D03*
Y910000D02*
D03*
D74*
X2362500Y1859997D02*
D03*
X1527504D02*
D03*
X2207500D02*
D03*
X1372500D02*
D03*
D75*
X1597500Y1560000D02*
D03*
X2137500D02*
D03*
X1672503D02*
D03*
X2062497D02*
D03*
D76*
X1997500Y1600000D02*
D03*
X1932497D02*
D03*
X1867496D02*
D03*
X1802500D02*
D03*
X1737500D02*
D03*
D77*
X1030000Y1890000D02*
D03*
D78*
X730000D02*
D03*
D79*
X730000Y1720000D02*
D03*
Y1060000D02*
D03*
D80*
X890000Y1720000D02*
D03*
Y1060000D02*
D03*
D81*
X1867500Y1860000D02*
D03*
%TF.MD5,5d98550ffd3d5a5b7178558673a83eb8*%
M02*
