%TF.GenerationSoftware,Altium Limited,Altium Designer,21.1.0 (24)*%
G04 Layer_Physical_Order=2*
G04 Layer_Color=36540*
%FSLAX45Y45*%
%MOMM*%
%TF.SameCoordinates,A42B3F18-A760-40AD-9EC3-E9591E309F50*%
%TF.FilePolarity,Positive*%
%TF.FileFunction,Copper,L2,Inr,Signal*%
%TF.Part,Single*%
G01*
G75*
%TA.AperFunction,ComponentPad*%
G04:AMPARAMS|DCode=27|XSize=1.1mm|YSize=1.2mm|CornerRadius=0.275mm|HoleSize=0mm|Usage=FLASHONLY|Rotation=180.000|XOffset=0mm|YOffset=0mm|HoleType=Round|Shape=RoundedRectangle|*
%AMROUNDEDRECTD27*
21,1,1.10000,0.65000,0,0,180.0*
21,1,0.55000,1.20000,0,0,180.0*
1,1,0.55000,-0.27500,0.32500*
1,1,0.55000,0.27500,0.32500*
1,1,0.55000,0.27500,-0.32500*
1,1,0.55000,-0.27500,-0.32500*
%
%ADD27ROUNDEDRECTD27*%
G04:AMPARAMS|DCode=28|XSize=1.9mm|YSize=1.9mm|CornerRadius=0.475mm|HoleSize=0mm|Usage=FLASHONLY|Rotation=180.000|XOffset=0mm|YOffset=0mm|HoleType=Round|Shape=RoundedRectangle|*
%AMROUNDEDRECTD28*
21,1,1.90000,0.95000,0,0,180.0*
21,1,0.95000,1.90000,0,0,180.0*
1,1,0.95000,-0.47500,0.47500*
1,1,0.95000,0.47500,0.47500*
1,1,0.95000,0.47500,-0.47500*
1,1,0.95000,-0.47500,-0.47500*
%
%ADD28ROUNDEDRECTD28*%
%TA.AperFunction,ViaPad*%
%ADD29C,0.60000*%
%TA.AperFunction,ComponentPad*%
G04:AMPARAMS|DCode=30|XSize=1.5mm|YSize=1.9mm|CornerRadius=0.375mm|HoleSize=0mm|Usage=FLASHONLY|Rotation=270.000|XOffset=0mm|YOffset=0mm|HoleType=Round|Shape=RoundedRectangle|*
%AMROUNDEDRECTD30*
21,1,1.50000,1.15000,0,0,270.0*
21,1,0.75000,1.90000,0,0,270.0*
1,1,0.75000,-0.57500,-0.37500*
1,1,0.75000,-0.57500,0.37500*
1,1,0.75000,0.57500,0.37500*
1,1,0.75000,0.57500,-0.37500*
%
%ADD30ROUNDEDRECTD30*%
G36*
X2956056Y1194971D02*
X2610000D01*
X2593183Y1191626D01*
X2578927Y1182100D01*
X2569401Y1167844D01*
X2566056Y1151027D01*
Y650000D01*
X2569401Y633183D01*
X2578927Y618927D01*
X2593183Y609401D01*
X2610000Y606056D01*
X2956056D01*
Y200000D01*
X2956165Y199453D01*
X2950913Y159563D01*
X2935305Y121882D01*
X2910476Y89524D01*
X2878118Y64695D01*
X2840437Y49087D01*
X2800547Y43836D01*
X2800000Y43944D01*
X200000D01*
X199453Y43836D01*
X159563Y49087D01*
X121882Y64695D01*
X89524Y89524D01*
X64695Y121882D01*
X49087Y159563D01*
X45697Y185316D01*
X60504Y187761D01*
X63250Y173958D01*
X77152Y153152D01*
X97958Y139250D01*
X122500Y134368D01*
X167300D01*
Y236000D01*
Y337632D01*
X122500D01*
X97958Y332750D01*
X77152Y318848D01*
X63250Y298042D01*
X58944Y276397D01*
X43944Y277875D01*
Y1956056D01*
X1337853D01*
X1344924Y1942827D01*
X1338917Y1933837D01*
X1333678Y1907500D01*
Y1812500D01*
X1338917Y1786163D01*
X1353835Y1763836D01*
X1376163Y1748917D01*
X1402500Y1743678D01*
X1497500D01*
X1523837Y1748917D01*
X1546164Y1763836D01*
X1561083Y1786163D01*
X1566322Y1812500D01*
Y1907500D01*
X1561083Y1933837D01*
X1555076Y1942827D01*
X1562147Y1956056D01*
X2172853D01*
X2179924Y1942827D01*
X2173917Y1933837D01*
X2168678Y1907500D01*
Y1812500D01*
X2173917Y1786163D01*
X2188836Y1763836D01*
X2211163Y1748917D01*
X2237500Y1743678D01*
X2332500D01*
X2358837Y1748917D01*
X2381164Y1763836D01*
X2396083Y1786163D01*
X2401322Y1812500D01*
Y1907500D01*
X2396083Y1933837D01*
X2390076Y1942827D01*
X2397147Y1956056D01*
X2956056D01*
Y1194971D01*
D02*
G37*
%LPC*%
G36*
X830000Y1940980D02*
X810491Y1937099D01*
X793952Y1926048D01*
X782901Y1909509D01*
X779021Y1890000D01*
X782901Y1870491D01*
X793952Y1853952D01*
X810491Y1842901D01*
X830000Y1839020D01*
X849509Y1842901D01*
X866048Y1853952D01*
X877099Y1870491D01*
X880980Y1890000D01*
X877099Y1909509D01*
X866048Y1926048D01*
X849509Y1937099D01*
X830000Y1940980D01*
D02*
G37*
G36*
X531500Y1861632D02*
X486700D01*
Y1772700D01*
X595632D01*
Y1797500D01*
X590750Y1822042D01*
X576848Y1842848D01*
X556042Y1856750D01*
X531500Y1861632D01*
D02*
G37*
G36*
X461300D02*
X416500D01*
X391958Y1856750D01*
X371152Y1842848D01*
X357250Y1822042D01*
X352368Y1797500D01*
Y1772700D01*
X461300D01*
Y1861632D01*
D02*
G37*
G36*
X237500Y1856126D02*
X122500D01*
X100065Y1851664D01*
X81045Y1838955D01*
X68337Y1819935D01*
X63874Y1797500D01*
Y1722500D01*
X68337Y1700065D01*
X81045Y1681045D01*
X100065Y1668337D01*
X122500Y1663874D01*
X237500D01*
X259935Y1668337D01*
X278955Y1681045D01*
X291664Y1700065D01*
X296126Y1722500D01*
Y1797500D01*
X291664Y1819935D01*
X278955Y1838955D01*
X259935Y1851664D01*
X237500Y1856126D01*
D02*
G37*
G36*
X595632Y1747300D02*
X486700D01*
Y1658368D01*
X531500D01*
X556042Y1663250D01*
X576848Y1677152D01*
X590750Y1697958D01*
X595632Y1722500D01*
Y1747300D01*
D02*
G37*
G36*
X461300D02*
X352368D01*
Y1722500D01*
X357250Y1697958D01*
X371152Y1677152D01*
X391958Y1663250D01*
X416500Y1658368D01*
X461300D01*
Y1747300D01*
D02*
G37*
G36*
X2125000Y1640931D02*
X2070000D01*
X2051467Y1637244D01*
X2035755Y1626746D01*
X2025256Y1611034D01*
X2021569Y1592500D01*
Y1527500D01*
X2025256Y1508967D01*
X2035755Y1493255D01*
X2051467Y1482756D01*
X2070000Y1479070D01*
X2125000D01*
X2143533Y1482756D01*
X2159245Y1493255D01*
X2169744Y1508967D01*
X2173431Y1527500D01*
Y1592500D01*
X2169744Y1611034D01*
X2159245Y1626746D01*
X2143533Y1637244D01*
X2125000Y1640931D01*
D02*
G37*
G36*
X1665000D02*
X1610000D01*
X1591466Y1637244D01*
X1575755Y1626746D01*
X1565256Y1611034D01*
X1561569Y1592500D01*
Y1527500D01*
X1565256Y1508967D01*
X1575755Y1493255D01*
X1591466Y1482756D01*
X1610000Y1479070D01*
X1665000D01*
X1683533Y1482756D01*
X1699245Y1493255D01*
X1709744Y1508967D01*
X1713430Y1527500D01*
Y1592500D01*
X1709744Y1611034D01*
X1699245Y1626746D01*
X1683533Y1637244D01*
X1665000Y1640931D01*
D02*
G37*
G36*
X2250000Y1560980D02*
X2230491Y1557099D01*
X2213952Y1546048D01*
X2202901Y1529509D01*
X2199020Y1510000D01*
X2202901Y1490491D01*
X2213952Y1473952D01*
X2230491Y1462901D01*
X2250000Y1459020D01*
X2269509Y1462901D01*
X2286048Y1473952D01*
X2297099Y1490491D01*
X2300980Y1510000D01*
X2297099Y1529509D01*
X2286048Y1546048D01*
X2269509Y1557099D01*
X2250000Y1560980D01*
D02*
G37*
G36*
X531500Y1602126D02*
X416500D01*
X394065Y1597664D01*
X375045Y1584955D01*
X362337Y1565935D01*
X357874Y1543500D01*
Y1468500D01*
X362337Y1446065D01*
X375045Y1427045D01*
X394065Y1414337D01*
X416500Y1409874D01*
X531500D01*
X553935Y1414337D01*
X572955Y1427045D01*
X585664Y1446065D01*
X590126Y1468500D01*
Y1543500D01*
X585664Y1565935D01*
X572955Y1584955D01*
X553935Y1597664D01*
X531500Y1602126D01*
D02*
G37*
G36*
X237500D02*
X122500D01*
X100065Y1597664D01*
X81045Y1584955D01*
X68337Y1565935D01*
X63874Y1543500D01*
Y1468500D01*
X68337Y1446065D01*
X81045Y1427045D01*
X100065Y1414337D01*
X122500Y1409874D01*
X237500D01*
X259935Y1414337D01*
X278955Y1427045D01*
X291664Y1446065D01*
X296126Y1468500D01*
Y1543500D01*
X291664Y1565935D01*
X278955Y1584955D01*
X259935Y1597664D01*
X237500Y1602126D01*
D02*
G37*
G36*
X1170000Y1500979D02*
X1150491Y1497099D01*
X1133952Y1486048D01*
X1122901Y1469509D01*
X1119020Y1450000D01*
X1122901Y1430491D01*
X1133952Y1413952D01*
X1150491Y1402901D01*
X1170000Y1399020D01*
X1171402Y1399299D01*
X1175744Y1395600D01*
X1182233Y1386160D01*
X1179018Y1369997D01*
X1182899Y1350488D01*
X1193950Y1333949D01*
X1210489Y1322898D01*
X1229998Y1319018D01*
X1249507Y1322898D01*
X1259041Y1329269D01*
X1273952Y1333952D01*
X1290491Y1322901D01*
X1310000Y1319020D01*
X1329509Y1322901D01*
X1346048Y1333952D01*
X1357099Y1350491D01*
X1360979Y1370000D01*
X1357099Y1389509D01*
X1346048Y1406048D01*
X1329509Y1417099D01*
X1310000Y1420980D01*
X1290491Y1417099D01*
X1280957Y1410728D01*
X1266045Y1406045D01*
X1249507Y1417096D01*
X1229998Y1420977D01*
X1228596Y1420698D01*
X1224253Y1424397D01*
X1217765Y1433838D01*
X1220980Y1450000D01*
X1217099Y1469509D01*
X1206048Y1486048D01*
X1189509Y1497099D01*
X1170000Y1500979D01*
D02*
G37*
G36*
X2110000Y1400980D02*
X2090491Y1397099D01*
X2073952Y1386048D01*
X2062901Y1369509D01*
X2059021Y1350000D01*
X2062901Y1330491D01*
X2073952Y1313952D01*
X2090491Y1302901D01*
X2110000Y1299021D01*
X2129509Y1302901D01*
X2146048Y1313952D01*
X2157099Y1330491D01*
X2160980Y1350000D01*
X2157099Y1369509D01*
X2146048Y1386048D01*
X2129509Y1397099D01*
X2110000Y1400980D01*
D02*
G37*
G36*
X2300000D02*
X2280491Y1397099D01*
X2263952Y1386048D01*
X2252901Y1369509D01*
X2249020Y1350000D01*
X2252901Y1330491D01*
X2263952Y1313952D01*
X2280491Y1302901D01*
X2289807Y1301048D01*
X2299659Y1290684D01*
X2299427Y1285005D01*
X2296520Y1270395D01*
X2300401Y1250886D01*
X2311452Y1234347D01*
X2327991Y1223296D01*
X2347500Y1219415D01*
X2367009Y1223296D01*
X2383548Y1234347D01*
X2394599Y1250886D01*
X2398480Y1270395D01*
X2394599Y1289904D01*
X2383548Y1306443D01*
X2367009Y1317494D01*
X2357693Y1319347D01*
X2347841Y1329711D01*
X2348073Y1335390D01*
X2350980Y1350000D01*
X2347099Y1369509D01*
X2336048Y1386048D01*
X2319509Y1397099D01*
X2300000Y1400980D01*
D02*
G37*
G36*
X2017965Y1316112D02*
X1998456Y1312231D01*
X1981917Y1301180D01*
X1970866Y1284641D01*
X1966985Y1265132D01*
X1970866Y1245623D01*
X1981917Y1229084D01*
X1998456Y1218033D01*
X2017965Y1214153D01*
X2037474Y1218033D01*
X2054013Y1229084D01*
X2065064Y1245623D01*
X2068944Y1265132D01*
X2065064Y1284641D01*
X2054013Y1301180D01*
X2037474Y1312231D01*
X2017965Y1316112D01*
D02*
G37*
G36*
X531500Y1348126D02*
X416500D01*
X394065Y1343664D01*
X375045Y1330955D01*
X362337Y1311935D01*
X357874Y1289500D01*
Y1214500D01*
X362337Y1192065D01*
X375045Y1173045D01*
X394065Y1160337D01*
X416500Y1155874D01*
X531500D01*
X553935Y1160337D01*
X572955Y1173045D01*
X585664Y1192065D01*
X590126Y1214500D01*
Y1289500D01*
X585664Y1311935D01*
X572955Y1330955D01*
X553935Y1343664D01*
X531500Y1348126D01*
D02*
G37*
G36*
X237500D02*
X122500D01*
X100065Y1343664D01*
X81045Y1330955D01*
X68337Y1311935D01*
X63874Y1289500D01*
Y1214500D01*
X68337Y1192065D01*
X81045Y1173045D01*
X100065Y1160337D01*
X122500Y1155874D01*
X237500D01*
X259935Y1160337D01*
X278955Y1173045D01*
X291664Y1192065D01*
X296126Y1214500D01*
Y1289500D01*
X291664Y1311935D01*
X278955Y1330955D01*
X259935Y1343664D01*
X237500Y1348126D01*
D02*
G37*
G36*
X2128175Y1209481D02*
X2108666Y1205600D01*
X2092127Y1194549D01*
X2081076Y1178010D01*
X2077195Y1158501D01*
X2081076Y1138992D01*
X2092127Y1122453D01*
X2108666Y1111402D01*
X2128175Y1107522D01*
X2129477Y1107781D01*
X2135330Y1093651D01*
X2123948Y1086046D01*
X2117348Y1076169D01*
X2099912Y1075265D01*
X2096048Y1081048D01*
X2079509Y1092099D01*
X2060000Y1095980D01*
X2040491Y1092099D01*
X2023952Y1081048D01*
X2012901Y1064509D01*
X2009020Y1045000D01*
X2012901Y1025491D01*
X2023952Y1008952D01*
X2040491Y997901D01*
X2060000Y994020D01*
X2079509Y997901D01*
X2096048Y1008952D01*
X2102647Y1018829D01*
X2120083Y1019733D01*
X2123948Y1013950D01*
X2140487Y1002899D01*
X2159996Y999018D01*
X2179505Y1002899D01*
X2196044Y1013950D01*
X2207095Y1030489D01*
X2210975Y1049998D01*
X2207095Y1069507D01*
X2196044Y1086046D01*
X2179505Y1097097D01*
X2159996Y1100977D01*
X2158693Y1100718D01*
X2152840Y1114848D01*
X2164222Y1122453D01*
X2175274Y1138992D01*
X2179154Y1158501D01*
X2175274Y1178010D01*
X2164222Y1194549D01*
X2147684Y1205600D01*
X2128175Y1209481D01*
D02*
G37*
G36*
X1937841Y1211821D02*
X1918332Y1207941D01*
X1901793Y1196890D01*
X1890742Y1180351D01*
X1886862Y1160842D01*
X1890742Y1141333D01*
X1901793Y1124794D01*
X1918332Y1113743D01*
X1931541Y1111115D01*
Y1095822D01*
X1920968Y1093718D01*
X1904429Y1082667D01*
X1897945Y1072964D01*
X1883816Y1078817D01*
X1884396Y1081734D01*
X1880515Y1101243D01*
X1869464Y1117782D01*
X1852925Y1128833D01*
X1833416Y1132713D01*
X1813907Y1128833D01*
X1797368Y1117782D01*
X1787281Y1102686D01*
X1780441Y1102129D01*
X1771469Y1103483D01*
X1760930Y1119255D01*
X1744391Y1130306D01*
X1724883Y1134186D01*
X1705374Y1130306D01*
X1688835Y1119255D01*
X1677784Y1102716D01*
X1673903Y1083207D01*
X1677784Y1063698D01*
X1688835Y1047159D01*
X1705374Y1036108D01*
X1724883Y1032227D01*
X1744391Y1036108D01*
X1760930Y1047159D01*
X1771017Y1062255D01*
X1777857Y1062811D01*
X1786830Y1061458D01*
X1797368Y1045686D01*
X1813907Y1034635D01*
X1833416Y1030754D01*
X1852925Y1034635D01*
X1869464Y1045686D01*
X1875947Y1055389D01*
X1890077Y1049536D01*
X1889497Y1046619D01*
X1893378Y1027111D01*
X1885977Y1013987D01*
X1875945Y1007283D01*
X1864894Y990744D01*
X1861013Y971235D01*
X1864894Y951726D01*
X1875945Y935187D01*
X1892484Y924136D01*
X1911993Y920255D01*
X1931502Y924136D01*
X1948041Y935187D01*
X1959092Y951726D01*
X1962972Y971235D01*
X1960373Y984304D01*
X1959986Y999520D01*
X1976525Y1010572D01*
X1987576Y1027110D01*
X1991456Y1046619D01*
X1987576Y1066128D01*
X1976525Y1082667D01*
X1959986Y1093718D01*
X1946777Y1096346D01*
Y1111640D01*
X1957350Y1113743D01*
X1973889Y1124794D01*
X1984940Y1141333D01*
X1988821Y1160842D01*
X1984940Y1180351D01*
X1973889Y1196890D01*
X1957350Y1207941D01*
X1937841Y1211821D01*
D02*
G37*
G36*
X1605053Y1125101D02*
X1585544Y1121221D01*
X1569005Y1110169D01*
X1557954Y1093631D01*
X1554074Y1074122D01*
X1557954Y1054613D01*
X1569005Y1038074D01*
X1585544Y1027023D01*
X1605053Y1023142D01*
X1624562Y1027023D01*
X1641101Y1038074D01*
X1652152Y1054613D01*
X1656033Y1074122D01*
X1652152Y1093631D01*
X1641101Y1110169D01*
X1624562Y1121221D01*
X1605053Y1125101D01*
D02*
G37*
G36*
X1180000Y1200980D02*
X1160491Y1197099D01*
X1143952Y1186048D01*
X1132901Y1169509D01*
X1129020Y1150000D01*
X1132901Y1130491D01*
X1143952Y1113952D01*
X1148958Y1110607D01*
X1153356Y1090190D01*
X1152901Y1089509D01*
X1149020Y1070000D01*
X1150151Y1064315D01*
X1140491Y1047099D01*
X1123952Y1036048D01*
X1112901Y1019509D01*
X1109020Y1000000D01*
X1112901Y980491D01*
X1123952Y963952D01*
X1140491Y952901D01*
X1160000Y949020D01*
X1179509Y952901D01*
X1196048Y963952D01*
X1207099Y980491D01*
X1210980Y1000000D01*
X1209849Y1005685D01*
X1219509Y1022901D01*
X1236048Y1033952D01*
X1247099Y1050491D01*
X1250979Y1070000D01*
X1247099Y1089509D01*
X1236048Y1106048D01*
X1231042Y1109393D01*
X1226643Y1129810D01*
X1227099Y1130491D01*
X1230980Y1150000D01*
X1227099Y1169509D01*
X1216048Y1186048D01*
X1199509Y1197099D01*
X1180000Y1200980D01*
D02*
G37*
G36*
X2384267Y1211027D02*
X2364758Y1207147D01*
X2348219Y1196096D01*
X2337168Y1179557D01*
X2333287Y1160048D01*
X2337168Y1140539D01*
X2334349Y1133735D01*
X2328435Y1132558D01*
X2311896Y1121507D01*
X2300845Y1104968D01*
X2296964Y1085459D01*
X2300845Y1065950D01*
X2311896Y1049411D01*
X2327914Y1038709D01*
X2329389Y1029244D01*
X2328792Y1022995D01*
X2313518Y1012790D01*
X2302467Y996251D01*
X2298586Y976742D01*
X2302467Y957233D01*
X2313518Y940694D01*
X2330057Y929643D01*
X2349566Y925762D01*
X2369075Y929643D01*
X2385614Y940694D01*
X2396665Y957233D01*
X2400546Y976742D01*
X2396665Y996251D01*
X2385614Y1012790D01*
X2369596Y1023493D01*
X2368121Y1032958D01*
X2368718Y1039206D01*
X2383991Y1049411D01*
X2395042Y1065950D01*
X2398923Y1085459D01*
X2395042Y1104968D01*
X2406524Y1114785D01*
X2420315Y1124000D01*
X2431366Y1140539D01*
X2435246Y1160048D01*
X2431366Y1179557D01*
X2420315Y1196096D01*
X2403776Y1207147D01*
X2384267Y1211027D01*
D02*
G37*
G36*
X1689882Y1023170D02*
X1670373Y1019290D01*
X1653834Y1008239D01*
X1642783Y991700D01*
X1638902Y972191D01*
X1642783Y952682D01*
X1653834Y936143D01*
X1670373Y925092D01*
X1689882Y921211D01*
X1709391Y925092D01*
X1725930Y936143D01*
X1736981Y952682D01*
X1740861Y972191D01*
X1736981Y991700D01*
X1725930Y1008239D01*
X1709391Y1019290D01*
X1689882Y1023170D01*
D02*
G37*
G36*
X531500Y1094126D02*
X416500D01*
X394065Y1089664D01*
X375045Y1076955D01*
X362337Y1057935D01*
X357874Y1035500D01*
Y960500D01*
X362337Y938065D01*
X375045Y919045D01*
X394065Y906337D01*
X416500Y901874D01*
X531500D01*
X553935Y906337D01*
X572955Y919045D01*
X585664Y938065D01*
X590126Y960500D01*
Y1035500D01*
X585664Y1057935D01*
X572955Y1076955D01*
X553935Y1089664D01*
X531500Y1094126D01*
D02*
G37*
G36*
X237500D02*
X122500D01*
X100065Y1089664D01*
X81045Y1076955D01*
X68337Y1057935D01*
X63874Y1035500D01*
Y960500D01*
X68337Y938065D01*
X81045Y919045D01*
X100065Y906337D01*
X122500Y901874D01*
X237500D01*
X259935Y906337D01*
X278955Y919045D01*
X291664Y938065D01*
X296126Y960500D01*
Y1035500D01*
X291664Y1057935D01*
X278955Y1076955D01*
X259935Y1089664D01*
X237500Y1094126D01*
D02*
G37*
G36*
X1811065Y895980D02*
X1791556Y892100D01*
X1775017Y881049D01*
X1764250Y864935D01*
X1759719Y864194D01*
X1753579Y863736D01*
X1748639Y864342D01*
X1738208Y879954D01*
X1721669Y891005D01*
X1702160Y894885D01*
X1682651Y891005D01*
X1666112Y879954D01*
X1655061Y863415D01*
X1651180Y843906D01*
X1655061Y824397D01*
X1666112Y807858D01*
X1682651Y796807D01*
X1702160Y792926D01*
X1721669Y796807D01*
X1738208Y807858D01*
X1748974Y823971D01*
X1753505Y824713D01*
X1759645Y825170D01*
X1764586Y824564D01*
X1775017Y808953D01*
X1791556Y797902D01*
X1811065Y794021D01*
X1830574Y797902D01*
X1847113Y808953D01*
X1858164Y825492D01*
X1862044Y845001D01*
X1858164Y864510D01*
X1847113Y881049D01*
X1830574Y892100D01*
X1811065Y895980D01*
D02*
G37*
G36*
X2140000Y900980D02*
X2120491Y897099D01*
X2103952Y886048D01*
X2092901Y869509D01*
X2089020Y850000D01*
X2092901Y830491D01*
X2103952Y813952D01*
X2120491Y802901D01*
X2140000Y799021D01*
X2159509Y802901D01*
X2176048Y813952D01*
X2187099Y830491D01*
X2190980Y850000D01*
X2187099Y869509D01*
X2176048Y886048D01*
X2159509Y897099D01*
X2140000Y900980D01*
D02*
G37*
G36*
X1420000Y790980D02*
X1400491Y787099D01*
X1383952Y776048D01*
X1372901Y759509D01*
X1369020Y740000D01*
X1355748Y729836D01*
X1350000Y730979D01*
X1330491Y727099D01*
X1313952Y716048D01*
X1302901Y699509D01*
X1299021Y680000D01*
X1302901Y660491D01*
X1313952Y643952D01*
X1330491Y632901D01*
X1350000Y629020D01*
X1369509Y632901D01*
X1386048Y643952D01*
X1397099Y660491D01*
X1400980Y680000D01*
X1414252Y690164D01*
X1420000Y689020D01*
X1439509Y692901D01*
X1456048Y703952D01*
X1467099Y720491D01*
X1470980Y740000D01*
X1467099Y759509D01*
X1456048Y776048D01*
X1439509Y787099D01*
X1420000Y790980D01*
D02*
G37*
G36*
X531500Y840126D02*
X416500D01*
X394065Y835664D01*
X375045Y822955D01*
X362337Y803935D01*
X357874Y781500D01*
Y706500D01*
X362337Y684065D01*
X375045Y665045D01*
X394065Y652337D01*
X416500Y647874D01*
X531500D01*
X553935Y652337D01*
X572955Y665045D01*
X585664Y684065D01*
X590126Y706500D01*
Y781500D01*
X585664Y803935D01*
X572955Y822955D01*
X553935Y835664D01*
X531500Y840126D01*
D02*
G37*
G36*
X237500D02*
X122500D01*
X100065Y835664D01*
X81045Y822955D01*
X68337Y803935D01*
X63874Y781500D01*
Y706500D01*
X68337Y684065D01*
X81045Y665045D01*
X100065Y652337D01*
X122500Y647874D01*
X237500D01*
X259935Y652337D01*
X278955Y665045D01*
X291664Y684065D01*
X296126Y706500D01*
Y781500D01*
X291664Y803935D01*
X278955Y822955D01*
X259935Y835664D01*
X237500Y840126D01*
D02*
G37*
G36*
X2148934Y675980D02*
X2129426Y672099D01*
X2112887Y661048D01*
X2101836Y644509D01*
X2097955Y625000D01*
X2101836Y605491D01*
X2112887Y588952D01*
X2129426Y577901D01*
X2148934Y574020D01*
X2168443Y577901D01*
X2184982Y588952D01*
X2196033Y605491D01*
X2199914Y625000D01*
X2196033Y644509D01*
X2184982Y661048D01*
X2168443Y672099D01*
X2148934Y675980D01*
D02*
G37*
G36*
X1724616Y661536D02*
X1705107Y657655D01*
X1688568Y646604D01*
X1677517Y630065D01*
X1673636Y610556D01*
X1677517Y591047D01*
X1688568Y574508D01*
X1705107Y563457D01*
X1724616Y559577D01*
X1744125Y563457D01*
X1760664Y574508D01*
X1771715Y591047D01*
X1775596Y610556D01*
X1771715Y630065D01*
X1760664Y646604D01*
X1744125Y657655D01*
X1724616Y661536D01*
D02*
G37*
G36*
X1905461Y656992D02*
X1885952Y653111D01*
X1869413Y642060D01*
X1858362Y625521D01*
X1854481Y606013D01*
X1858362Y586504D01*
X1869413Y569965D01*
X1885952Y558914D01*
X1905461Y555033D01*
X1924969Y558914D01*
X1941508Y569965D01*
X1952559Y586504D01*
X1956440Y606013D01*
X1952559Y625521D01*
X1941508Y642060D01*
X1924969Y653111D01*
X1905461Y656992D01*
D02*
G37*
G36*
X531500Y586126D02*
X416500D01*
X394065Y581664D01*
X375045Y568955D01*
X362337Y549935D01*
X357874Y527500D01*
Y452500D01*
X362337Y430065D01*
X375045Y411045D01*
X394065Y398337D01*
X416500Y393874D01*
X531500D01*
X553935Y398337D01*
X572955Y411045D01*
X585664Y430065D01*
X590126Y452500D01*
Y527500D01*
X585664Y549935D01*
X572955Y568955D01*
X553935Y581664D01*
X531500Y586126D01*
D02*
G37*
G36*
X237500D02*
X122500D01*
X100065Y581664D01*
X81045Y568955D01*
X68337Y549935D01*
X63874Y527500D01*
Y452500D01*
X68337Y430065D01*
X81045Y411045D01*
X100065Y398337D01*
X122500Y393874D01*
X237500D01*
X259935Y398337D01*
X278955Y411045D01*
X291664Y430065D01*
X296126Y452500D01*
Y527500D01*
X291664Y549935D01*
X278955Y568955D01*
X259935Y581664D01*
X237500Y586126D01*
D02*
G37*
G36*
X960000Y460980D02*
X940491Y457099D01*
X923952Y446048D01*
X912901Y429509D01*
X909021Y410000D01*
X912901Y390491D01*
X923952Y373952D01*
X940491Y362901D01*
X960000Y359020D01*
X979509Y362901D01*
X996048Y373952D01*
X1007099Y390491D01*
X1010980Y410000D01*
X1007099Y429509D01*
X996048Y446048D01*
X979509Y457099D01*
X960000Y460980D01*
D02*
G37*
G36*
X1480000Y450980D02*
X1460491Y447099D01*
X1443952Y436048D01*
X1432901Y419509D01*
X1429021Y400000D01*
X1432901Y380491D01*
X1443952Y363952D01*
X1460491Y352901D01*
X1480000Y349020D01*
X1499509Y352901D01*
X1516048Y363952D01*
X1527099Y380491D01*
X1530980Y400000D01*
X1527099Y419509D01*
X1516048Y436048D01*
X1499509Y447099D01*
X1480000Y450980D01*
D02*
G37*
G36*
X2290000Y530980D02*
X2270491Y527099D01*
X2253952Y516048D01*
X2242901Y499509D01*
X2239020Y480000D01*
X2242901Y460491D01*
X2253952Y443952D01*
X2270491Y432901D01*
X2290000Y429020D01*
X2299109Y430832D01*
X2308129Y417333D01*
X2302901Y409509D01*
X2299021Y390000D01*
X2302901Y370491D01*
X2313952Y353952D01*
X2330491Y342901D01*
X2350000Y339020D01*
X2369509Y342901D01*
X2386048Y353952D01*
X2397099Y370491D01*
X2400980Y390000D01*
X2397099Y409509D01*
X2386048Y426048D01*
X2369509Y437099D01*
X2350000Y440980D01*
X2340891Y439168D01*
X2331871Y452667D01*
X2337099Y460491D01*
X2340980Y480000D01*
X2337099Y499509D01*
X2326048Y516048D01*
X2309509Y527099D01*
X2290000Y530980D01*
D02*
G37*
G36*
X1890000Y430980D02*
X1870491Y427099D01*
X1853952Y416048D01*
X1842901Y399509D01*
X1839020Y380000D01*
X1842901Y360491D01*
X1853952Y343952D01*
X1870491Y332901D01*
X1890000Y329020D01*
X1909509Y332901D01*
X1926048Y343952D01*
X1937099Y360491D01*
X1940980Y380000D01*
X1937099Y399509D01*
X1926048Y416048D01*
X1909509Y427099D01*
X1890000Y430980D01*
D02*
G37*
G36*
X2100000Y400980D02*
X2080491Y397099D01*
X2063952Y386048D01*
X2052901Y369509D01*
X2049021Y350000D01*
X2052901Y330491D01*
X2063952Y313952D01*
X2080491Y302901D01*
X2100000Y299020D01*
X2119509Y302901D01*
X2136048Y313952D01*
X2147099Y330491D01*
X2150980Y350000D01*
X2147099Y369509D01*
X2136048Y386048D01*
X2119509Y397099D01*
X2100000Y400980D01*
D02*
G37*
G36*
X237500Y337632D02*
X192700D01*
Y248700D01*
X301632D01*
Y273500D01*
X296750Y298042D01*
X282848Y318848D01*
X262042Y332750D01*
X237500Y337632D01*
D02*
G37*
G36*
X2470000Y320980D02*
X2450491Y317099D01*
X2433952Y306048D01*
X2422901Y289509D01*
X2419020Y270000D01*
X2422901Y250491D01*
X2433952Y233952D01*
X2450491Y222901D01*
X2470000Y219020D01*
X2489509Y222901D01*
X2506048Y233952D01*
X2517099Y250491D01*
X2520979Y270000D01*
X2517099Y289509D01*
X2506048Y306048D01*
X2489509Y317099D01*
X2470000Y320980D01*
D02*
G37*
G36*
X1710000Y280980D02*
X1690491Y277099D01*
X1673952Y266048D01*
X1662901Y249509D01*
X1659020Y230000D01*
X1662901Y210491D01*
X1673952Y193952D01*
X1690491Y182901D01*
X1710000Y179020D01*
X1729509Y182901D01*
X1746048Y193952D01*
X1757099Y210491D01*
X1760979Y230000D01*
X1757099Y249509D01*
X1746048Y266048D01*
X1729509Y277099D01*
X1710000Y280980D01*
D02*
G37*
G36*
X1200000D02*
X1180491Y277099D01*
X1163952Y266048D01*
X1152901Y249509D01*
X1149020Y230000D01*
X1152901Y210491D01*
X1163952Y193952D01*
X1180491Y182901D01*
X1200000Y179020D01*
X1219509Y182901D01*
X1236048Y193952D01*
X1247099Y210491D01*
X1250979Y230000D01*
X1247099Y249509D01*
X1236048Y266048D01*
X1219509Y277099D01*
X1200000Y280980D01*
D02*
G37*
G36*
X531500Y332126D02*
X416500D01*
X394065Y327664D01*
X375045Y314955D01*
X362337Y295935D01*
X357874Y273500D01*
Y198500D01*
X362337Y176065D01*
X375045Y157045D01*
X394065Y144337D01*
X416500Y139874D01*
X531500D01*
X553935Y144337D01*
X572955Y157045D01*
X585664Y176065D01*
X590126Y198500D01*
Y273500D01*
X585664Y295935D01*
X572955Y314955D01*
X553935Y327664D01*
X531500Y332126D01*
D02*
G37*
G36*
X301632Y223300D02*
X192700D01*
Y134368D01*
X237500D01*
X262042Y139250D01*
X282848Y153152D01*
X296750Y173958D01*
X301632Y198500D01*
Y223300D01*
D02*
G37*
G36*
X1970000Y220979D02*
X1950491Y217099D01*
X1933952Y206048D01*
X1922901Y189509D01*
X1919021Y170000D01*
X1922901Y150491D01*
X1933952Y133952D01*
X1950491Y122901D01*
X1970000Y119020D01*
X1989509Y122901D01*
X2006048Y133952D01*
X2017099Y150491D01*
X2020980Y170000D01*
X2017099Y189509D01*
X2006048Y206048D01*
X1989509Y217099D01*
X1970000Y220979D01*
D02*
G37*
G36*
X950000D02*
X930491Y217099D01*
X913952Y206048D01*
X902901Y189509D01*
X899020Y170000D01*
X902901Y150491D01*
X913952Y133952D01*
X930491Y122901D01*
X950000Y119020D01*
X969509Y122901D01*
X986048Y133952D01*
X997099Y150491D01*
X1000979Y170000D01*
X997099Y189509D01*
X986048Y206048D01*
X969509Y217099D01*
X950000Y220979D01*
D02*
G37*
G36*
X2220000Y160980D02*
X2200491Y157099D01*
X2183952Y146048D01*
X2172901Y129509D01*
X2169020Y110000D01*
X2172901Y90491D01*
X2183952Y73952D01*
X2200491Y62901D01*
X2220000Y59020D01*
X2239509Y62901D01*
X2256048Y73952D01*
X2267099Y90491D01*
X2270979Y110000D01*
X2267099Y129509D01*
X2256048Y146048D01*
X2239509Y157099D01*
X2220000Y160980D01*
D02*
G37*
G36*
X1460000D02*
X1440491Y157099D01*
X1423952Y146048D01*
X1412901Y129509D01*
X1409020Y110000D01*
X1412901Y90491D01*
X1423952Y73952D01*
X1440491Y62901D01*
X1460000Y59020D01*
X1479509Y62901D01*
X1496048Y73952D01*
X1507099Y90491D01*
X1510979Y110000D01*
X1507099Y129509D01*
X1496048Y146048D01*
X1479509Y157099D01*
X1460000Y160980D01*
D02*
G37*
%LPD*%
D27*
X1637500Y1560000D02*
D03*
X2097500D02*
D03*
D28*
X1450000Y1860000D02*
D03*
X2285000D02*
D03*
D29*
X120000Y1910000D02*
D03*
X1160000Y1000000D02*
D03*
X1180000Y1150000D02*
D03*
X1200000Y1070000D02*
D03*
X1308397Y742403D02*
D03*
X1350000Y680000D02*
D03*
X1420000Y740000D02*
D03*
X920000Y1160000D02*
D03*
X960000Y410000D02*
D03*
X695000Y460000D02*
D03*
X2110000Y1350000D02*
D03*
X2017965Y1265132D02*
D03*
X820000Y772500D02*
D03*
X850000Y1490000D02*
D03*
X1689882Y972191D02*
D03*
X2128175Y1158501D02*
D03*
X1605053Y1074122D02*
D03*
X1724883Y1083207D02*
D03*
X1833416Y1081734D02*
D03*
X1937841Y1160842D02*
D03*
X1940477Y1046619D02*
D03*
X1911993Y971235D02*
D03*
X2060000Y1045000D02*
D03*
X2384267Y1160048D02*
D03*
X2347943Y1085459D02*
D03*
X2159996Y1049998D02*
D03*
X2349566Y976742D02*
D03*
X2347500Y1270395D02*
D03*
X2100000Y350000D02*
D03*
X1724616Y610556D02*
D03*
X1905461Y606013D02*
D03*
X1460000Y110000D02*
D03*
X1200000Y230000D02*
D03*
X950000Y170000D02*
D03*
X1811065Y845001D02*
D03*
X1810000Y960000D02*
D03*
X1702160Y843906D02*
D03*
X2290000Y480000D02*
D03*
X2350000Y390000D02*
D03*
X2300000Y1350000D02*
D03*
X2250000Y1510000D02*
D03*
X1229998Y1369997D02*
D03*
X1310000Y1370000D02*
D03*
X1170000Y1450000D02*
D03*
X2148934Y625000D02*
D03*
X1890000Y380000D02*
D03*
X1480000Y400000D02*
D03*
X2490000Y170000D02*
D03*
X1470000Y1520000D02*
D03*
X2000000Y1710000D02*
D03*
X2620000Y568944D02*
D03*
X830000Y1890000D02*
D03*
X1970000Y170000D02*
D03*
X1710000Y230000D02*
D03*
X2220000Y110000D02*
D03*
X2470000Y270000D02*
D03*
X2140000Y850000D02*
D03*
D30*
X180000Y1760000D02*
D03*
Y1506000D02*
D03*
Y1252000D02*
D03*
Y998000D02*
D03*
Y744000D02*
D03*
Y490000D02*
D03*
Y236000D02*
D03*
X474000Y1760000D02*
D03*
Y1506000D02*
D03*
Y1252000D02*
D03*
Y998000D02*
D03*
Y744000D02*
D03*
Y490000D02*
D03*
Y236000D02*
D03*
%TF.MD5,1168a6c9eba67d10fd8abc3d42928011*%
M02*
