%TF.GenerationSoftware,Altium Limited,Altium Designer,20.2.6 (244)*%
G04 Layer_Color=255*
%FSLAX45Y45*%
%MOMM*%
%TF.SameCoordinates,1A285BE7-DF3D-4214-9C7A-F78C9B27F18F*%
%TF.FilePolarity,Positive*%
%TF.FileFunction,Pads,Top*%
%TF.Part,Single*%
G01*
G75*
%TA.AperFunction,SMDPad,CuDef*%
G04:AMPARAMS|DCode=12|XSize=0.6mm|YSize=1mm|CornerRadius=0.15mm|HoleSize=0mm|Usage=FLASHONLY|Rotation=90.000|XOffset=0mm|YOffset=0mm|HoleType=Round|Shape=RoundedRectangle|*
%AMROUNDEDRECTD12*
21,1,0.60000,0.70000,0,0,90.0*
21,1,0.30000,1.00000,0,0,90.0*
1,1,0.30000,0.35000,0.15000*
1,1,0.30000,0.35000,-0.15000*
1,1,0.30000,-0.35000,-0.15000*
1,1,0.30000,-0.35000,0.15000*
%
%ADD12ROUNDEDRECTD12*%
%ADD13R,1.00000X0.60000*%
G04:AMPARAMS|DCode=14|XSize=0.38mm|YSize=1.15mm|CornerRadius=0.095mm|HoleSize=0mm|Usage=FLASHONLY|Rotation=90.000|XOffset=0mm|YOffset=0mm|HoleType=Round|Shape=RoundedRectangle|*
%AMROUNDEDRECTD14*
21,1,0.38000,0.96000,0,0,90.0*
21,1,0.19000,1.15000,0,0,90.0*
1,1,0.19000,0.48000,0.09500*
1,1,0.19000,0.48000,-0.09500*
1,1,0.19000,-0.48000,-0.09500*
1,1,0.19000,-0.48000,0.09500*
%
%ADD14ROUNDEDRECTD14*%
%ADD15R,1.15000X0.38000*%
G04:AMPARAMS|DCode=16|XSize=0.38mm|YSize=1.2mm|CornerRadius=0.095mm|HoleSize=0mm|Usage=FLASHONLY|Rotation=90.000|XOffset=0mm|YOffset=0mm|HoleType=Round|Shape=RoundedRectangle|*
%AMROUNDEDRECTD16*
21,1,0.38000,1.01000,0,0,90.0*
21,1,0.19000,1.20000,0,0,90.0*
1,1,0.19000,0.50500,0.09500*
1,1,0.19000,0.50500,-0.09500*
1,1,0.19000,-0.50500,-0.09500*
1,1,0.19000,-0.50500,0.09500*
%
%ADD16ROUNDEDRECTD16*%
%ADD17R,1.20000X0.38000*%
%ADD18R,0.65000X0.25000*%
G04:AMPARAMS|DCode=19|XSize=0.25mm|YSize=0.65mm|CornerRadius=0.0625mm|HoleSize=0mm|Usage=FLASHONLY|Rotation=90.000|XOffset=0mm|YOffset=0mm|HoleType=Round|Shape=RoundedRectangle|*
%AMROUNDEDRECTD19*
21,1,0.25000,0.52500,0,0,90.0*
21,1,0.12500,0.65000,0,0,90.0*
1,1,0.12500,0.26250,0.06250*
1,1,0.12500,0.26250,-0.06250*
1,1,0.12500,-0.26250,-0.06250*
1,1,0.12500,-0.26250,0.06250*
%
%ADD19ROUNDEDRECTD19*%
G04:AMPARAMS|DCode=20|XSize=1.4mm|YSize=1.3mm|CornerRadius=0.325mm|HoleSize=0mm|Usage=FLASHONLY|Rotation=90.000|XOffset=0mm|YOffset=0mm|HoleType=Round|Shape=RoundedRectangle|*
%AMROUNDEDRECTD20*
21,1,1.40000,0.65000,0,0,90.0*
21,1,0.75000,1.30000,0,0,90.0*
1,1,0.65000,0.32500,0.37500*
1,1,0.65000,0.32500,-0.37500*
1,1,0.65000,-0.32500,-0.37500*
1,1,0.65000,-0.32500,0.37500*
%
%ADD20ROUNDEDRECTD20*%
G04:AMPARAMS|DCode=21|XSize=2.55mm|YSize=1.1mm|CornerRadius=0.275mm|HoleSize=0mm|Usage=FLASHONLY|Rotation=90.000|XOffset=0mm|YOffset=0mm|HoleType=Round|Shape=RoundedRectangle|*
%AMROUNDEDRECTD21*
21,1,2.55000,0.55000,0,0,90.0*
21,1,2.00000,1.10000,0,0,90.0*
1,1,0.55000,0.27500,1.00000*
1,1,0.55000,0.27500,-1.00000*
1,1,0.55000,-0.27500,-1.00000*
1,1,0.55000,-0.27500,1.00000*
%
%ADD21ROUNDEDRECTD21*%
G04:AMPARAMS|DCode=22|XSize=0.25mm|YSize=0.8mm|CornerRadius=0.0625mm|HoleSize=0mm|Usage=FLASHONLY|Rotation=90.000|XOffset=0mm|YOffset=0mm|HoleType=Round|Shape=RoundedRectangle|*
%AMROUNDEDRECTD22*
21,1,0.25000,0.67500,0,0,90.0*
21,1,0.12500,0.80000,0,0,90.0*
1,1,0.12500,0.33750,0.06250*
1,1,0.12500,0.33750,-0.06250*
1,1,0.12500,-0.33750,-0.06250*
1,1,0.12500,-0.33750,0.06250*
%
%ADD22ROUNDEDRECTD22*%
%ADD23R,0.80000X0.25000*%
G04:AMPARAMS|DCode=24|XSize=0.6mm|YSize=1mm|CornerRadius=0.15mm|HoleSize=0mm|Usage=FLASHONLY|Rotation=0.000|XOffset=0mm|YOffset=0mm|HoleType=Round|Shape=RoundedRectangle|*
%AMROUNDEDRECTD24*
21,1,0.60000,0.70000,0,0,0.0*
21,1,0.30000,1.00000,0,0,0.0*
1,1,0.30000,0.15000,-0.35000*
1,1,0.30000,-0.15000,-0.35000*
1,1,0.30000,-0.15000,0.35000*
1,1,0.30000,0.15000,0.35000*
%
%ADD24ROUNDEDRECTD24*%
%ADD25R,0.60000X1.00000*%
G04:AMPARAMS|DCode=26|XSize=0.6mm|YSize=0.8mm|CornerRadius=0.15mm|HoleSize=0mm|Usage=FLASHONLY|Rotation=90.000|XOffset=0mm|YOffset=0mm|HoleType=Round|Shape=RoundedRectangle|*
%AMROUNDEDRECTD26*
21,1,0.60000,0.50000,0,0,90.0*
21,1,0.30000,0.80000,0,0,90.0*
1,1,0.30000,0.25000,0.15000*
1,1,0.30000,0.25000,-0.15000*
1,1,0.30000,-0.25000,-0.15000*
1,1,0.30000,-0.25000,0.15000*
%
%ADD26ROUNDEDRECTD26*%
%ADD27R,0.80000X0.60000*%
G04:AMPARAMS|DCode=28|XSize=0.38mm|YSize=1.15mm|CornerRadius=0.095mm|HoleSize=0mm|Usage=FLASHONLY|Rotation=180.000|XOffset=0mm|YOffset=0mm|HoleType=Round|Shape=RoundedRectangle|*
%AMROUNDEDRECTD28*
21,1,0.38000,0.96000,0,0,180.0*
21,1,0.19000,1.15000,0,0,180.0*
1,1,0.19000,-0.09500,0.48000*
1,1,0.19000,0.09500,0.48000*
1,1,0.19000,0.09500,-0.48000*
1,1,0.19000,-0.09500,-0.48000*
%
%ADD28ROUNDEDRECTD28*%
%ADD29R,0.38000X1.15000*%
G04:AMPARAMS|DCode=30|XSize=0.25mm|YSize=0.7mm|CornerRadius=0.0625mm|HoleSize=0mm|Usage=FLASHONLY|Rotation=90.000|XOffset=0mm|YOffset=0mm|HoleType=Round|Shape=RoundedRectangle|*
%AMROUNDEDRECTD30*
21,1,0.25000,0.57500,0,0,90.0*
21,1,0.12500,0.70000,0,0,90.0*
1,1,0.12500,0.28750,0.06250*
1,1,0.12500,0.28750,-0.06250*
1,1,0.12500,-0.28750,-0.06250*
1,1,0.12500,-0.28750,0.06250*
%
%ADD30ROUNDEDRECTD30*%
%ADD31R,0.70000X0.25000*%
G04:AMPARAMS|DCode=32|XSize=2.5mm|YSize=1.72mm|CornerRadius=0.172mm|HoleSize=0mm|Usage=FLASHONLY|Rotation=90.000|XOffset=0mm|YOffset=0mm|HoleType=Round|Shape=RoundedRectangle|*
%AMROUNDEDRECTD32*
21,1,2.50000,1.37600,0,0,90.0*
21,1,2.15600,1.72000,0,0,90.0*
1,1,0.34400,0.68800,1.07800*
1,1,0.34400,0.68800,-1.07800*
1,1,0.34400,-0.68800,-1.07800*
1,1,0.34400,-0.68800,1.07800*
%
%ADD32ROUNDEDRECTD32*%
%ADD33R,0.80000X0.37000*%
G04:AMPARAMS|DCode=34|XSize=0.37mm|YSize=0.8mm|CornerRadius=0.0925mm|HoleSize=0mm|Usage=FLASHONLY|Rotation=90.000|XOffset=0mm|YOffset=0mm|HoleType=Round|Shape=RoundedRectangle|*
%AMROUNDEDRECTD34*
21,1,0.37000,0.61500,0,0,90.0*
21,1,0.18500,0.80000,0,0,90.0*
1,1,0.18500,0.30750,0.09250*
1,1,0.18500,0.30750,-0.09250*
1,1,0.18500,-0.30750,-0.09250*
1,1,0.18500,-0.30750,0.09250*
%
%ADD34ROUNDEDRECTD34*%
G04:AMPARAMS|DCode=35|XSize=0.38mm|YSize=0.7mm|CornerRadius=0.095mm|HoleSize=0mm|Usage=FLASHONLY|Rotation=90.000|XOffset=0mm|YOffset=0mm|HoleType=Round|Shape=RoundedRectangle|*
%AMROUNDEDRECTD35*
21,1,0.38000,0.51000,0,0,90.0*
21,1,0.19000,0.70000,0,0,90.0*
1,1,0.19000,0.25500,0.09500*
1,1,0.19000,0.25500,-0.09500*
1,1,0.19000,-0.25500,-0.09500*
1,1,0.19000,-0.25500,0.09500*
%
%ADD35ROUNDEDRECTD35*%
%ADD36R,0.70000X0.38000*%
G04:AMPARAMS|DCode=37|XSize=0.25mm|YSize=0.8mm|CornerRadius=0.0625mm|HoleSize=0mm|Usage=FLASHONLY|Rotation=0.000|XOffset=0mm|YOffset=0mm|HoleType=Round|Shape=RoundedRectangle|*
%AMROUNDEDRECTD37*
21,1,0.25000,0.67500,0,0,0.0*
21,1,0.12500,0.80000,0,0,0.0*
1,1,0.12500,0.06250,-0.33750*
1,1,0.12500,-0.06250,-0.33750*
1,1,0.12500,-0.06250,0.33750*
1,1,0.12500,0.06250,0.33750*
%
%ADD37ROUNDEDRECTD37*%
G04:AMPARAMS|DCode=38|XSize=1mm|YSize=2.98mm|CornerRadius=0.25mm|HoleSize=0mm|Usage=FLASHONLY|Rotation=0.000|XOffset=0mm|YOffset=0mm|HoleType=Round|Shape=RoundedRectangle|*
%AMROUNDEDRECTD38*
21,1,1.00000,2.48000,0,0,0.0*
21,1,0.50000,2.98000,0,0,0.0*
1,1,0.50000,0.25000,-1.24000*
1,1,0.50000,-0.25000,-1.24000*
1,1,0.50000,-0.25000,1.24000*
1,1,0.50000,0.25000,1.24000*
%
%ADD38ROUNDEDRECTD38*%
G04:AMPARAMS|DCode=39|XSize=2.55mm|YSize=1.1mm|CornerRadius=0.275mm|HoleSize=0mm|Usage=FLASHONLY|Rotation=0.000|XOffset=0mm|YOffset=0mm|HoleType=Round|Shape=RoundedRectangle|*
%AMROUNDEDRECTD39*
21,1,2.55000,0.55000,0,0,0.0*
21,1,2.00000,1.10000,0,0,0.0*
1,1,0.55000,1.00000,-0.27500*
1,1,0.55000,-1.00000,-0.27500*
1,1,0.55000,-1.00000,0.27500*
1,1,0.55000,1.00000,0.27500*
%
%ADD39ROUNDEDRECTD39*%
%ADD40R,0.25000X0.80000*%
G04:AMPARAMS|DCode=41|XSize=0.8mm|YSize=1mm|CornerRadius=0.2mm|HoleSize=0mm|Usage=FLASHONLY|Rotation=180.000|XOffset=0mm|YOffset=0mm|HoleType=Round|Shape=RoundedRectangle|*
%AMROUNDEDRECTD41*
21,1,0.80000,0.60000,0,0,180.0*
21,1,0.40000,1.00000,0,0,180.0*
1,1,0.40000,-0.20000,0.30000*
1,1,0.40000,0.20000,0.30000*
1,1,0.40000,0.20000,-0.30000*
1,1,0.40000,-0.20000,-0.30000*
%
%ADD41ROUNDEDRECTD41*%
%ADD42C,1.00000*%
G04:AMPARAMS|DCode=43|XSize=0.8mm|YSize=1mm|CornerRadius=0.2mm|HoleSize=0mm|Usage=FLASHONLY|Rotation=90.000|XOffset=0mm|YOffset=0mm|HoleType=Round|Shape=RoundedRectangle|*
%AMROUNDEDRECTD43*
21,1,0.80000,0.60000,0,0,90.0*
21,1,0.40000,1.00000,0,0,90.0*
1,1,0.40000,0.30000,0.20000*
1,1,0.40000,0.30000,-0.20000*
1,1,0.40000,-0.30000,-0.20000*
1,1,0.40000,-0.30000,0.20000*
%
%ADD43ROUNDEDRECTD43*%
G04:AMPARAMS|DCode=44|XSize=0.5mm|YSize=0.6mm|CornerRadius=0.125mm|HoleSize=0mm|Usage=FLASHONLY|Rotation=270.000|XOffset=0mm|YOffset=0mm|HoleType=Round|Shape=RoundedRectangle|*
%AMROUNDEDRECTD44*
21,1,0.50000,0.35000,0,0,270.0*
21,1,0.25000,0.60000,0,0,270.0*
1,1,0.25000,-0.17500,-0.12500*
1,1,0.25000,-0.17500,0.12500*
1,1,0.25000,0.17500,0.12500*
1,1,0.25000,0.17500,-0.12500*
%
%ADD44ROUNDEDRECTD44*%
G04:AMPARAMS|DCode=45|XSize=0.5mm|YSize=0.6mm|CornerRadius=0.125mm|HoleSize=0mm|Usage=FLASHONLY|Rotation=0.000|XOffset=0mm|YOffset=0mm|HoleType=Round|Shape=RoundedRectangle|*
%AMROUNDEDRECTD45*
21,1,0.50000,0.35000,0,0,0.0*
21,1,0.25000,0.60000,0,0,0.0*
1,1,0.25000,0.12500,-0.17500*
1,1,0.25000,-0.12500,-0.17500*
1,1,0.25000,-0.12500,0.17500*
1,1,0.25000,0.12500,0.17500*
%
%ADD45ROUNDEDRECTD45*%
G04:AMPARAMS|DCode=46|XSize=0.5mm|YSize=0.5mm|CornerRadius=0.125mm|HoleSize=0mm|Usage=FLASHONLY|Rotation=180.000|XOffset=0mm|YOffset=0mm|HoleType=Round|Shape=RoundedRectangle|*
%AMROUNDEDRECTD46*
21,1,0.50000,0.25000,0,0,180.0*
21,1,0.25000,0.50000,0,0,180.0*
1,1,0.25000,-0.12500,0.12500*
1,1,0.25000,0.12500,0.12500*
1,1,0.25000,0.12500,-0.12500*
1,1,0.25000,-0.12500,-0.12500*
%
%ADD46ROUNDEDRECTD46*%
G04:AMPARAMS|DCode=47|XSize=0.5mm|YSize=0.5mm|CornerRadius=0.125mm|HoleSize=0mm|Usage=FLASHONLY|Rotation=90.000|XOffset=0mm|YOffset=0mm|HoleType=Round|Shape=RoundedRectangle|*
%AMROUNDEDRECTD47*
21,1,0.50000,0.25000,0,0,90.0*
21,1,0.25000,0.50000,0,0,90.0*
1,1,0.25000,0.12500,0.12500*
1,1,0.25000,0.12500,-0.12500*
1,1,0.25000,-0.12500,-0.12500*
1,1,0.25000,-0.12500,0.12500*
%
%ADD47ROUNDEDRECTD47*%
G04:AMPARAMS|DCode=48|XSize=0.9mm|YSize=0.8mm|CornerRadius=0.2mm|HoleSize=0mm|Usage=FLASHONLY|Rotation=270.000|XOffset=0mm|YOffset=0mm|HoleType=Round|Shape=RoundedRectangle|*
%AMROUNDEDRECTD48*
21,1,0.90000,0.40000,0,0,270.0*
21,1,0.50000,0.80000,0,0,270.0*
1,1,0.40000,-0.20000,-0.25000*
1,1,0.40000,-0.20000,0.25000*
1,1,0.40000,0.20000,0.25000*
1,1,0.40000,0.20000,-0.25000*
%
%ADD48ROUNDEDRECTD48*%
G04:AMPARAMS|DCode=49|XSize=0.9mm|YSize=0.8mm|CornerRadius=0.2mm|HoleSize=0mm|Usage=FLASHONLY|Rotation=0.000|XOffset=0mm|YOffset=0mm|HoleType=Round|Shape=RoundedRectangle|*
%AMROUNDEDRECTD49*
21,1,0.90000,0.40000,0,0,0.0*
21,1,0.50000,0.80000,0,0,0.0*
1,1,0.40000,0.25000,-0.20000*
1,1,0.40000,-0.25000,-0.20000*
1,1,0.40000,-0.25000,0.20000*
1,1,0.40000,0.25000,0.20000*
%
%ADD49ROUNDEDRECTD49*%
%ADD50O,1.70000X0.30000*%
%ADD51R,0.24000X0.70000*%
%ADD52O,0.30000X1.70000*%
%ADD53R,0.70000X0.24000*%
%ADD54R,2.20000X0.70000*%
G04:AMPARAMS|DCode=55|XSize=2.2mm|YSize=0.7mm|CornerRadius=0.175mm|HoleSize=0mm|Usage=FLASHONLY|Rotation=180.000|XOffset=0mm|YOffset=0mm|HoleType=Round|Shape=RoundedRectangle|*
%AMROUNDEDRECTD55*
21,1,2.20000,0.35000,0,0,180.0*
21,1,1.85000,0.70000,0,0,180.0*
1,1,0.35000,-0.92500,0.17500*
1,1,0.35000,0.92500,0.17500*
1,1,0.35000,0.92500,-0.17500*
1,1,0.35000,-0.92500,-0.17500*
%
%ADD55ROUNDEDRECTD55*%
G04:AMPARAMS|DCode=56|XSize=2mm|YSize=1.1mm|CornerRadius=0.275mm|HoleSize=0mm|Usage=FLASHONLY|Rotation=180.000|XOffset=0mm|YOffset=0mm|HoleType=Round|Shape=RoundedRectangle|*
%AMROUNDEDRECTD56*
21,1,2.00000,0.55000,0,0,180.0*
21,1,1.45000,1.10000,0,0,180.0*
1,1,0.55000,-0.72500,0.27500*
1,1,0.55000,0.72500,0.27500*
1,1,0.55000,0.72500,-0.27500*
1,1,0.55000,-0.72500,-0.27500*
%
%ADD56ROUNDEDRECTD56*%
G04:AMPARAMS|DCode=57|XSize=1.6mm|YSize=1mm|CornerRadius=0.25mm|HoleSize=0mm|Usage=FLASHONLY|Rotation=270.000|XOffset=0mm|YOffset=0mm|HoleType=Round|Shape=RoundedRectangle|*
%AMROUNDEDRECTD57*
21,1,1.60000,0.50000,0,0,270.0*
21,1,1.10000,1.00000,0,0,270.0*
1,1,0.50000,-0.25000,-0.55000*
1,1,0.50000,-0.25000,0.55000*
1,1,0.50000,0.25000,0.55000*
1,1,0.50000,0.25000,-0.55000*
%
%ADD57ROUNDEDRECTD57*%
G04:AMPARAMS|DCode=58|XSize=3.8mm|YSize=1mm|CornerRadius=0.25mm|HoleSize=0mm|Usage=FLASHONLY|Rotation=180.000|XOffset=0mm|YOffset=0mm|HoleType=Round|Shape=RoundedRectangle|*
%AMROUNDEDRECTD58*
21,1,3.80000,0.50000,0,0,180.0*
21,1,3.30000,1.00000,0,0,180.0*
1,1,0.50000,-1.65000,0.25000*
1,1,0.50000,1.65000,0.25000*
1,1,0.50000,1.65000,-0.25000*
1,1,0.50000,-1.65000,-0.25000*
%
%ADD58ROUNDEDRECTD58*%
G04:AMPARAMS|DCode=59|XSize=3mm|YSize=1mm|CornerRadius=0.25mm|HoleSize=0mm|Usage=FLASHONLY|Rotation=180.000|XOffset=0mm|YOffset=0mm|HoleType=Round|Shape=RoundedRectangle|*
%AMROUNDEDRECTD59*
21,1,3.00000,0.50000,0,0,180.0*
21,1,2.50000,1.00000,0,0,180.0*
1,1,0.50000,-1.25000,0.25000*
1,1,0.50000,1.25000,0.25000*
1,1,0.50000,1.25000,-0.25000*
1,1,0.50000,-1.25000,-0.25000*
%
%ADD59ROUNDEDRECTD59*%
G04:AMPARAMS|DCode=60|XSize=1.6mm|YSize=1mm|CornerRadius=0.25mm|HoleSize=0mm|Usage=FLASHONLY|Rotation=0.000|XOffset=0mm|YOffset=0mm|HoleType=Round|Shape=RoundedRectangle|*
%AMROUNDEDRECTD60*
21,1,1.60000,0.50000,0,0,0.0*
21,1,1.10000,1.00000,0,0,0.0*
1,1,0.50000,0.55000,-0.25000*
1,1,0.50000,-0.55000,-0.25000*
1,1,0.50000,-0.55000,0.25000*
1,1,0.50000,0.55000,0.25000*
%
%ADD60ROUNDEDRECTD60*%
G04:AMPARAMS|DCode=61|XSize=3.8mm|YSize=1mm|CornerRadius=0.25mm|HoleSize=0mm|Usage=FLASHONLY|Rotation=270.000|XOffset=0mm|YOffset=0mm|HoleType=Round|Shape=RoundedRectangle|*
%AMROUNDEDRECTD61*
21,1,3.80000,0.50000,0,0,270.0*
21,1,3.30000,1.00000,0,0,270.0*
1,1,0.50000,-0.25000,-1.65000*
1,1,0.50000,-0.25000,1.65000*
1,1,0.50000,0.25000,1.65000*
1,1,0.50000,0.25000,-1.65000*
%
%ADD61ROUNDEDRECTD61*%
G04:AMPARAMS|DCode=62|XSize=3mm|YSize=1mm|CornerRadius=0.25mm|HoleSize=0mm|Usage=FLASHONLY|Rotation=270.000|XOffset=0mm|YOffset=0mm|HoleType=Round|Shape=RoundedRectangle|*
%AMROUNDEDRECTD62*
21,1,3.00000,0.50000,0,0,270.0*
21,1,2.50000,1.00000,0,0,270.0*
1,1,0.50000,-0.25000,-1.25000*
1,1,0.50000,-0.25000,1.25000*
1,1,0.50000,0.25000,1.25000*
1,1,0.50000,0.25000,-1.25000*
%
%ADD62ROUNDEDRECTD62*%
G04:AMPARAMS|DCode=63|XSize=2.8mm|YSize=1.3mm|CornerRadius=0.325mm|HoleSize=0mm|Usage=FLASHONLY|Rotation=90.000|XOffset=0mm|YOffset=0mm|HoleType=Round|Shape=RoundedRectangle|*
%AMROUNDEDRECTD63*
21,1,2.80000,0.65000,0,0,90.0*
21,1,2.15000,1.30000,0,0,90.0*
1,1,0.65000,0.32500,1.07500*
1,1,0.65000,0.32500,-1.07500*
1,1,0.65000,-0.32500,-1.07500*
1,1,0.65000,-0.32500,1.07500*
%
%ADD63ROUNDEDRECTD63*%
G04:AMPARAMS|DCode=64|XSize=2.8mm|YSize=1.3mm|CornerRadius=0.325mm|HoleSize=0mm|Usage=FLASHONLY|Rotation=0.000|XOffset=0mm|YOffset=0mm|HoleType=Round|Shape=RoundedRectangle|*
%AMROUNDEDRECTD64*
21,1,2.80000,0.65000,0,0,0.0*
21,1,2.15000,1.30000,0,0,0.0*
1,1,0.65000,1.07500,-0.32500*
1,1,0.65000,-1.07500,-0.32500*
1,1,0.65000,-1.07500,0.32500*
1,1,0.65000,1.07500,0.32500*
%
%ADD64ROUNDEDRECTD64*%
G04:AMPARAMS|DCode=65|XSize=0.5mm|YSize=0.7mm|CornerRadius=0.125mm|HoleSize=0mm|Usage=FLASHONLY|Rotation=180.000|XOffset=0mm|YOffset=0mm|HoleType=Round|Shape=RoundedRectangle|*
%AMROUNDEDRECTD65*
21,1,0.50000,0.45000,0,0,180.0*
21,1,0.25000,0.70000,0,0,180.0*
1,1,0.25000,-0.12500,0.22500*
1,1,0.25000,0.12500,0.22500*
1,1,0.25000,0.12500,-0.22500*
1,1,0.25000,-0.12500,-0.22500*
%
%ADD65ROUNDEDRECTD65*%
%ADD66R,0.50000X0.70000*%
G04:AMPARAMS|DCode=67|XSize=0.5mm|YSize=0.7mm|CornerRadius=0.125mm|HoleSize=0mm|Usage=FLASHONLY|Rotation=90.000|XOffset=0mm|YOffset=0mm|HoleType=Round|Shape=RoundedRectangle|*
%AMROUNDEDRECTD67*
21,1,0.50000,0.45000,0,0,90.0*
21,1,0.25000,0.70000,0,0,90.0*
1,1,0.25000,0.22500,0.12500*
1,1,0.25000,0.22500,-0.12500*
1,1,0.25000,-0.22500,-0.12500*
1,1,0.25000,-0.22500,0.12500*
%
%ADD67ROUNDEDRECTD67*%
%ADD68R,0.70000X0.50000*%
G04:AMPARAMS|DCode=69|XSize=0.8mm|YSize=0.8mm|CornerRadius=0.2mm|HoleSize=0mm|Usage=FLASHONLY|Rotation=90.000|XOffset=0mm|YOffset=0mm|HoleType=Round|Shape=RoundedRectangle|*
%AMROUNDEDRECTD69*
21,1,0.80000,0.40000,0,0,90.0*
21,1,0.40000,0.80000,0,0,90.0*
1,1,0.40000,0.20000,0.20000*
1,1,0.40000,0.20000,-0.20000*
1,1,0.40000,-0.20000,-0.20000*
1,1,0.40000,-0.20000,0.20000*
%
%ADD69ROUNDEDRECTD69*%
%ADD70R,0.80000X0.80000*%
G04:AMPARAMS|DCode=71|XSize=1.1mm|YSize=1.1mm|CornerRadius=0.275mm|HoleSize=0mm|Usage=FLASHONLY|Rotation=0.000|XOffset=0mm|YOffset=0mm|HoleType=Round|Shape=RoundedRectangle|*
%AMROUNDEDRECTD71*
21,1,1.10000,0.55000,0,0,0.0*
21,1,0.55000,1.10000,0,0,0.0*
1,1,0.55000,0.27500,-0.27500*
1,1,0.55000,-0.27500,-0.27500*
1,1,0.55000,-0.27500,0.27500*
1,1,0.55000,0.27500,0.27500*
%
%ADD71ROUNDEDRECTD71*%
%ADD72R,1.10000X1.10000*%
G04:AMPARAMS|DCode=73|XSize=0.8mm|YSize=0.8mm|CornerRadius=0.2mm|HoleSize=0mm|Usage=FLASHONLY|Rotation=180.000|XOffset=0mm|YOffset=0mm|HoleType=Round|Shape=RoundedRectangle|*
%AMROUNDEDRECTD73*
21,1,0.80000,0.40000,0,0,180.0*
21,1,0.40000,0.80000,0,0,180.0*
1,1,0.40000,-0.20000,0.20000*
1,1,0.40000,0.20000,0.20000*
1,1,0.40000,0.20000,-0.20000*
1,1,0.40000,-0.20000,-0.20000*
%
%ADD73ROUNDEDRECTD73*%
%ADD74R,0.80000X0.80000*%
G04:AMPARAMS|DCode=75|XSize=1.65mm|YSize=1.25mm|CornerRadius=0.3125mm|HoleSize=0mm|Usage=FLASHONLY|Rotation=0.000|XOffset=0mm|YOffset=0mm|HoleType=Round|Shape=RoundedRectangle|*
%AMROUNDEDRECTD75*
21,1,1.65000,0.62500,0,0,0.0*
21,1,1.02500,1.25000,0,0,0.0*
1,1,0.62500,0.51250,-0.31250*
1,1,0.62500,-0.51250,-0.31250*
1,1,0.62500,-0.51250,0.31250*
1,1,0.62500,0.51250,0.31250*
%
%ADD75ROUNDEDRECTD75*%
G04:AMPARAMS|DCode=76|XSize=1.65mm|YSize=1.25mm|CornerRadius=0.3125mm|HoleSize=0mm|Usage=FLASHONLY|Rotation=270.000|XOffset=0mm|YOffset=0mm|HoleType=Round|Shape=RoundedRectangle|*
%AMROUNDEDRECTD76*
21,1,1.65000,0.62500,0,0,270.0*
21,1,1.02500,1.25000,0,0,270.0*
1,1,0.62500,-0.31250,-0.51250*
1,1,0.62500,-0.31250,0.51250*
1,1,0.62500,0.31250,0.51250*
1,1,0.62500,0.31250,-0.51250*
%
%ADD76ROUNDEDRECTD76*%
%TA.AperFunction,ComponentPad*%
G04:AMPARAMS|DCode=87|XSize=1.7mm|YSize=2.1mm|CornerRadius=0.425mm|HoleSize=0mm|Usage=FLASHONLY|Rotation=0.000|XOffset=0mm|YOffset=0mm|HoleType=Round|Shape=RoundedRectangle|*
%AMROUNDEDRECTD87*
21,1,1.70000,1.25001,0,0,0.0*
21,1,0.85000,2.10000,0,0,0.0*
1,1,0.85000,0.42500,-0.62500*
1,1,0.85000,-0.42500,-0.62500*
1,1,0.85000,-0.42500,0.62500*
1,1,0.85000,0.42500,0.62500*
%
%ADD87ROUNDEDRECTD87*%
G04:AMPARAMS|DCode=88|XSize=1.7mm|YSize=2.1mm|CornerRadius=0mm|HoleSize=0mm|Usage=FLASHONLY|Rotation=0.000|XOffset=0mm|YOffset=0mm|HoleType=Round|Shape=Octagon|*
%AMOCTAGOND88*
4,1,8,-0.42500,1.05000,0.42500,1.05000,0.85000,0.62500,0.85000,-0.62500,0.42500,-1.05000,-0.42500,-1.05000,-0.85000,-0.62500,-0.85000,0.62500,-0.42500,1.05000,0.0*
%
%ADD88OCTAGOND88*%

G04:AMPARAMS|DCode=89|XSize=1.7mm|YSize=2.1mm|CornerRadius=0.425mm|HoleSize=0mm|Usage=FLASHONLY|Rotation=270.000|XOffset=0mm|YOffset=0mm|HoleType=Round|Shape=RoundedRectangle|*
%AMROUNDEDRECTD89*
21,1,1.70000,1.25001,0,0,270.0*
21,1,0.85000,2.10000,0,0,270.0*
1,1,0.85000,-0.62500,-0.42500*
1,1,0.85000,-0.62500,0.42500*
1,1,0.85000,0.62500,0.42500*
1,1,0.85000,0.62500,-0.42500*
%
%ADD89ROUNDEDRECTD89*%
G04:AMPARAMS|DCode=90|XSize=1.7mm|YSize=2.1mm|CornerRadius=0mm|HoleSize=0mm|Usage=FLASHONLY|Rotation=270.000|XOffset=0mm|YOffset=0mm|HoleType=Round|Shape=Octagon|*
%AMOCTAGOND90*
4,1,8,1.05000,0.42500,1.05000,-0.42500,0.62500,-0.85000,-0.62500,-0.85000,-1.05000,-0.42500,-1.05000,0.42500,-0.62500,0.85000,0.62500,0.85000,1.05000,0.42500,0.0*
%
%ADD90OCTAGOND90*%

G04:AMPARAMS|DCode=91|XSize=4mm|YSize=3.6mm|CornerRadius=0.54mm|HoleSize=0mm|Usage=FLASHONLY|Rotation=0.000|XOffset=0mm|YOffset=0mm|HoleType=Round|Shape=RoundedRectangle|*
%AMROUNDEDRECTD91*
21,1,4.00000,2.52000,0,0,0.0*
21,1,2.92000,3.60000,0,0,0.0*
1,1,1.08000,1.46000,-1.26000*
1,1,1.08000,-1.46000,-1.26000*
1,1,1.08000,-1.46000,1.26000*
1,1,1.08000,1.46000,1.26000*
%
%ADD91ROUNDEDRECTD91*%
G04:AMPARAMS|DCode=92|XSize=5mm|YSize=5mm|CornerRadius=1mm|HoleSize=0mm|Usage=FLASHONLY|Rotation=0.000|XOffset=0mm|YOffset=0mm|HoleType=Round|Shape=RoundedRectangle|*
%AMROUNDEDRECTD92*
21,1,5.00000,3.00000,0,0,0.0*
21,1,3.00000,5.00000,0,0,0.0*
1,1,2.00000,1.50000,-1.50000*
1,1,2.00000,-1.50000,-1.50000*
1,1,2.00000,-1.50000,1.50000*
1,1,2.00000,1.50000,1.50000*
%
%ADD92ROUNDEDRECTD92*%
G04:AMPARAMS|DCode=93|XSize=2.2mm|YSize=2.2mm|CornerRadius=0mm|HoleSize=0mm|Usage=FLASHONLY|Rotation=270.000|XOffset=0mm|YOffset=0mm|HoleType=Round|Shape=Octagon|*
%AMOCTAGOND93*
4,1,8,-0.55000,-1.10000,0.55000,-1.10000,1.10000,-0.55000,1.10000,0.55000,0.55000,1.10000,-0.55000,1.10000,-1.10000,0.55000,-1.10000,-0.55000,-0.55000,-1.10000,0.0*
%
%ADD93OCTAGOND93*%

G04:AMPARAMS|DCode=94|XSize=2.2mm|YSize=2.2mm|CornerRadius=0.55mm|HoleSize=0mm|Usage=FLASHONLY|Rotation=270.000|XOffset=0mm|YOffset=0mm|HoleType=Round|Shape=RoundedRectangle|*
%AMROUNDEDRECTD94*
21,1,2.20000,1.10000,0,0,270.0*
21,1,1.10000,2.20000,0,0,270.0*
1,1,1.10000,-0.55000,-0.55000*
1,1,1.10000,-0.55000,0.55000*
1,1,1.10000,0.55000,0.55000*
1,1,1.10000,0.55000,-0.55000*
%
%ADD94ROUNDEDRECTD94*%
D12*
X5410000Y1265000D02*
D03*
Y1170000D02*
D03*
Y1075000D02*
D03*
X5150000D02*
D03*
Y1170000D02*
D03*
D13*
Y1265000D02*
D03*
D14*
X5322500Y1892500D02*
D03*
Y1957500D02*
D03*
Y2022500D02*
D03*
Y2087500D02*
D03*
X4897500Y1892500D02*
D03*
Y1957500D02*
D03*
Y2022500D02*
D03*
X2797500Y4097500D02*
D03*
Y4032500D02*
D03*
Y3967500D02*
D03*
Y3902500D02*
D03*
X3222500Y4097500D02*
D03*
Y4032500D02*
D03*
Y3967500D02*
D03*
X5387500Y4137500D02*
D03*
Y4072500D02*
D03*
Y4007500D02*
D03*
Y3942500D02*
D03*
X5812500Y4137500D02*
D03*
Y4072500D02*
D03*
Y4007500D02*
D03*
D15*
X4897500Y2087500D02*
D03*
X3222500Y3902500D02*
D03*
X5812500Y3942500D02*
D03*
D16*
X4275000Y3862500D02*
D03*
Y3927500D02*
D03*
Y3992500D02*
D03*
Y4057500D02*
D03*
Y4122500D02*
D03*
Y4187500D02*
D03*
Y4252500D02*
D03*
Y4317500D02*
D03*
X3705000Y3862500D02*
D03*
Y3927500D02*
D03*
Y3992500D02*
D03*
Y4057500D02*
D03*
Y4122500D02*
D03*
Y4187500D02*
D03*
Y4252500D02*
D03*
X4195000Y2832500D02*
D03*
Y2897500D02*
D03*
Y2962500D02*
D03*
Y3027500D02*
D03*
Y3092500D02*
D03*
Y3157500D02*
D03*
Y3222500D02*
D03*
Y3287500D02*
D03*
X3625000Y2832500D02*
D03*
Y2897500D02*
D03*
Y2962500D02*
D03*
Y3027500D02*
D03*
Y3092500D02*
D03*
Y3157500D02*
D03*
Y3222500D02*
D03*
X5175000Y3227500D02*
D03*
Y3162500D02*
D03*
Y3097500D02*
D03*
Y3032500D02*
D03*
Y2967500D02*
D03*
Y2902500D02*
D03*
Y2837500D02*
D03*
Y2772500D02*
D03*
X5745000Y3227500D02*
D03*
Y3162500D02*
D03*
Y3097500D02*
D03*
Y3032500D02*
D03*
Y2967500D02*
D03*
Y2902500D02*
D03*
Y2837500D02*
D03*
D17*
X3705000Y4317500D02*
D03*
X3625000Y3287500D02*
D03*
X5745000Y2772500D02*
D03*
D18*
X3124999Y2265000D02*
D03*
D19*
Y2215000D02*
D03*
Y2165000D02*
D03*
Y2115000D02*
D03*
X3414999Y2265000D02*
D03*
Y2215000D02*
D03*
Y2165000D02*
D03*
Y2115000D02*
D03*
D20*
X3269999Y2190000D02*
D03*
D21*
X3940000Y3530000D02*
D03*
D22*
X4085000Y3430000D02*
D03*
Y3480000D02*
D03*
Y3530000D02*
D03*
Y3580000D02*
D03*
Y3630000D02*
D03*
X3795000Y3430000D02*
D03*
Y3480000D02*
D03*
Y3530000D02*
D03*
Y3580000D02*
D03*
X6170000Y1165000D02*
D03*
Y1115000D02*
D03*
Y1065000D02*
D03*
Y1015000D02*
D03*
Y965000D02*
D03*
Y915000D02*
D03*
Y865000D02*
D03*
X6410000D02*
D03*
Y915000D02*
D03*
Y965000D02*
D03*
Y1015000D02*
D03*
Y1065000D02*
D03*
Y1115000D02*
D03*
Y1165000D02*
D03*
Y1215000D02*
D03*
X6160000Y2025000D02*
D03*
Y1975000D02*
D03*
Y1925000D02*
D03*
Y1875000D02*
D03*
Y1825000D02*
D03*
Y1775000D02*
D03*
Y1725000D02*
D03*
X6400000D02*
D03*
Y1775000D02*
D03*
Y1825000D02*
D03*
Y1875000D02*
D03*
Y1925000D02*
D03*
Y1975000D02*
D03*
Y2025000D02*
D03*
Y2075000D02*
D03*
D23*
X3795000Y3630000D02*
D03*
X6170000Y1215000D02*
D03*
X6160000Y2075000D02*
D03*
D24*
X2505000Y2070000D02*
D03*
X2410000D02*
D03*
X2315000D02*
D03*
Y2330000D02*
D03*
X2410000D02*
D03*
D25*
X2505000D02*
D03*
D26*
X3237500Y3625000D02*
D03*
Y3435000D02*
D03*
X2982500D02*
D03*
Y3530000D02*
D03*
D27*
Y3625000D02*
D03*
D28*
X3087500Y3262500D02*
D03*
X3022500D02*
D03*
X2957500D02*
D03*
X2892500D02*
D03*
X3087500Y2837500D02*
D03*
X3022500D02*
D03*
X2957500D02*
D03*
X6162500Y3317500D02*
D03*
X6227500D02*
D03*
X6292500D02*
D03*
X6357500D02*
D03*
X6162500Y3742500D02*
D03*
X6227500D02*
D03*
X6292500D02*
D03*
D29*
X2892500Y2837500D02*
D03*
X6357500Y3742500D02*
D03*
D30*
X3579999Y1390000D02*
D03*
Y1440000D02*
D03*
Y1490000D02*
D03*
Y1540000D02*
D03*
Y1590000D02*
D03*
X3280000Y1390000D02*
D03*
Y1440000D02*
D03*
Y1490000D02*
D03*
Y1540000D02*
D03*
X7580000Y2850000D02*
D03*
Y2900000D02*
D03*
Y2950000D02*
D03*
Y3000000D02*
D03*
Y3050000D02*
D03*
X7280000Y2850000D02*
D03*
Y2900000D02*
D03*
Y2950000D02*
D03*
Y3000000D02*
D03*
X7580000Y970000D02*
D03*
Y1020000D02*
D03*
Y1070000D02*
D03*
Y1120000D02*
D03*
Y1170000D02*
D03*
X7280000Y970000D02*
D03*
Y1020000D02*
D03*
Y1070000D02*
D03*
Y1120000D02*
D03*
X7580000Y1720000D02*
D03*
Y1770000D02*
D03*
Y1820000D02*
D03*
Y1870000D02*
D03*
Y1920000D02*
D03*
X7280000Y1720000D02*
D03*
Y1770000D02*
D03*
Y1820000D02*
D03*
Y1870000D02*
D03*
X7580000Y1350000D02*
D03*
Y1400000D02*
D03*
Y1450000D02*
D03*
Y1500000D02*
D03*
Y1550000D02*
D03*
X7280000Y1350000D02*
D03*
Y1400000D02*
D03*
Y1450000D02*
D03*
Y1500000D02*
D03*
X7580000Y2090000D02*
D03*
Y2140000D02*
D03*
Y2190000D02*
D03*
Y2240000D02*
D03*
Y2290000D02*
D03*
X7280000Y2090000D02*
D03*
Y2140000D02*
D03*
Y2190000D02*
D03*
Y2240000D02*
D03*
X7180000Y4370000D02*
D03*
Y4320000D02*
D03*
Y4270000D02*
D03*
Y4220000D02*
D03*
Y4170000D02*
D03*
X7480000Y4370000D02*
D03*
Y4320000D02*
D03*
Y4270000D02*
D03*
Y4220000D02*
D03*
X7580000Y2470000D02*
D03*
Y2520000D02*
D03*
Y2570000D02*
D03*
Y2620000D02*
D03*
Y2670000D02*
D03*
X7280000Y2470000D02*
D03*
Y2520000D02*
D03*
Y2570000D02*
D03*
Y2620000D02*
D03*
D31*
X3280000Y1590000D02*
D03*
X7280000Y3050000D02*
D03*
Y1170000D02*
D03*
Y1920000D02*
D03*
Y1550000D02*
D03*
Y2290000D02*
D03*
X7480000Y4170000D02*
D03*
X7280000Y2670000D02*
D03*
D32*
X3429999Y1490000D02*
D03*
X7430000Y2950000D02*
D03*
Y1070000D02*
D03*
Y1820000D02*
D03*
Y1450000D02*
D03*
Y2190000D02*
D03*
X7330000Y4270000D02*
D03*
X7430000Y2570000D02*
D03*
D33*
X7105000Y3837500D02*
D03*
D34*
Y3772500D02*
D03*
Y3707500D02*
D03*
Y3642500D02*
D03*
X7475000Y3837500D02*
D03*
Y3772500D02*
D03*
Y3707500D02*
D03*
Y3642500D02*
D03*
D35*
X7400000Y3455000D02*
D03*
Y3390000D02*
D03*
Y3325000D02*
D03*
X7200000D02*
D03*
Y3390000D02*
D03*
D36*
Y3455000D02*
D03*
D37*
X6265000Y820000D02*
D03*
X6315000D02*
D03*
Y1260000D02*
D03*
X6265000D02*
D03*
X6255000Y1680000D02*
D03*
X6305000D02*
D03*
Y2120000D02*
D03*
X6255000D02*
D03*
X4890000Y3835000D02*
D03*
X4940000D02*
D03*
X4990000D02*
D03*
X5040000D02*
D03*
X5090000D02*
D03*
X4890000Y4125000D02*
D03*
X4940000D02*
D03*
X4990000D02*
D03*
X5040000D02*
D03*
D38*
X6290000Y1040000D02*
D03*
X6280000Y1900000D02*
D03*
D39*
X4990000Y3980000D02*
D03*
D40*
X5090000Y4125000D02*
D03*
D41*
X3200000Y2420000D02*
D03*
X4010000Y3760000D02*
D03*
X3530000Y2700000D02*
D03*
X5430000Y3350000D02*
D03*
X6400000Y4280000D02*
D03*
X6050000D02*
D03*
X5430000Y3580000D02*
D03*
X5640000Y4280000D02*
D03*
D42*
X3400000Y2420000D02*
D03*
X3810000Y3760000D02*
D03*
X2490000Y3810000D02*
D03*
Y3610000D02*
D03*
X3730000Y2700000D02*
D03*
X5630000Y3350000D02*
D03*
X6200000Y4280000D02*
D03*
X5850000D02*
D03*
X5630000Y3580000D02*
D03*
X5440000Y4280000D02*
D03*
D43*
X2490000Y4010000D02*
D03*
Y3410000D02*
D03*
D44*
X2275000Y1560000D02*
D03*
X2465000Y1625000D02*
D03*
Y1495000D02*
D03*
X2575000Y1890000D02*
D03*
X2385000Y1825000D02*
D03*
Y1955000D02*
D03*
X2515000Y2590000D02*
D03*
X2325000Y2525000D02*
D03*
Y2655000D02*
D03*
D45*
X1890000Y1615000D02*
D03*
X1825000Y1805000D02*
D03*
X1955000D02*
D03*
D46*
X5020000Y790000D02*
D03*
Y690000D02*
D03*
X4950000Y4670000D02*
D03*
Y4770000D02*
D03*
X4880000Y790000D02*
D03*
Y690000D02*
D03*
X4070000Y800000D02*
D03*
Y700000D02*
D03*
X3930000Y700000D02*
D03*
Y800000D02*
D03*
X4000000Y4670000D02*
D03*
Y4770000D02*
D03*
X4130000Y4770000D02*
D03*
Y4670000D02*
D03*
X3640000Y4670000D02*
D03*
Y4770000D02*
D03*
X3770000Y4770000D02*
D03*
Y4670000D02*
D03*
X7510000Y4670000D02*
D03*
Y4770000D02*
D03*
X7620000Y4770000D02*
D03*
Y4670000D02*
D03*
X7250000Y4670000D02*
D03*
Y4770000D02*
D03*
X7360000Y4770000D02*
D03*
Y4670000D02*
D03*
X7000000Y4670000D02*
D03*
Y4770000D02*
D03*
X7110000Y4770000D02*
D03*
Y4670000D02*
D03*
X6740000Y4670000D02*
D03*
Y4770000D02*
D03*
X6850000Y4770000D02*
D03*
Y4670000D02*
D03*
X5590000Y4770000D02*
D03*
Y4670000D02*
D03*
X5330000Y4770000D02*
D03*
Y4670000D02*
D03*
X4850000Y4770000D02*
D03*
Y4670000D02*
D03*
X5570000Y690000D02*
D03*
Y790000D02*
D03*
X5460000Y790000D02*
D03*
Y690000D02*
D03*
X3920000Y1670000D02*
D03*
Y1570000D02*
D03*
X5250000Y4150000D02*
D03*
Y4250000D02*
D03*
X3949999Y1319999D02*
D03*
Y1419999D02*
D03*
X7000000Y3680001D02*
D03*
Y3580000D02*
D03*
X5230000Y4770000D02*
D03*
Y4670000D02*
D03*
X4180000Y700000D02*
D03*
Y800000D02*
D03*
X3820000Y700000D02*
D03*
Y800000D02*
D03*
X5130000Y690000D02*
D03*
Y790000D02*
D03*
X4770000Y690000D02*
D03*
Y790000D02*
D03*
X3870000Y4770000D02*
D03*
Y4670000D02*
D03*
X3540000Y4770000D02*
D03*
Y4670000D02*
D03*
X4230000Y4770000D02*
D03*
Y4670000D02*
D03*
X1930000Y1400000D02*
D03*
Y1500000D02*
D03*
X1820000Y1500000D02*
D03*
Y1400000D02*
D03*
X3410000Y4670000D02*
D03*
Y4770000D02*
D03*
X2210000Y2140000D02*
D03*
Y2040000D02*
D03*
X5030000Y1330000D02*
D03*
Y1230000D02*
D03*
X2210000Y2250000D02*
D03*
Y2350000D02*
D03*
X5030000Y1130000D02*
D03*
Y1030000D02*
D03*
X2300000Y1940000D02*
D03*
Y1840000D02*
D03*
X5710000Y790000D02*
D03*
Y690000D02*
D03*
X4400000Y3880000D02*
D03*
Y3980000D02*
D03*
X2870000Y4310000D02*
D03*
Y4210000D02*
D03*
X3450000Y3830000D02*
D03*
Y3930000D02*
D03*
X5720000Y4770000D02*
D03*
Y4670000D02*
D03*
X3180000Y4770000D02*
D03*
Y4670000D02*
D03*
X5460000Y4770000D02*
D03*
Y4670000D02*
D03*
X3080000Y4770000D02*
D03*
Y4670000D02*
D03*
X2769998Y2119998D02*
D03*
Y2219998D02*
D03*
Y2319998D02*
D03*
X3530000Y2089999D02*
D03*
Y2189999D02*
D03*
X4320000Y800000D02*
D03*
Y700000D02*
D03*
X4430000Y800000D02*
D03*
Y700000D02*
D03*
X3310000Y4770000D02*
D03*
Y4670000D02*
D03*
X2879999Y2120000D02*
D03*
Y2220000D02*
D03*
Y2320000D02*
D03*
X2990003Y2319998D02*
D03*
Y2219998D02*
D03*
Y2119998D02*
D03*
X4850000Y3610000D02*
D03*
Y3710000D02*
D03*
X6440000Y1370000D02*
D03*
Y1470000D02*
D03*
Y2240000D02*
D03*
Y2340000D02*
D03*
X4840000Y3130000D02*
D03*
Y3230000D02*
D03*
Y3330000D02*
D03*
X5500000Y3710000D02*
D03*
Y3810000D02*
D03*
X5590000Y3810000D02*
D03*
Y3710000D02*
D03*
X2610000Y2270000D02*
D03*
Y2170000D02*
D03*
X4910000Y1470000D02*
D03*
Y1570000D02*
D03*
X4780000Y2070000D02*
D03*
Y2170000D02*
D03*
X5440000Y1970001D02*
D03*
Y2070000D02*
D03*
X4780000Y1870000D02*
D03*
Y1970000D02*
D03*
X2780000Y3090000D02*
D03*
Y2990000D02*
D03*
Y3190000D02*
D03*
Y3290000D02*
D03*
X4400000Y4670000D02*
D03*
Y4770000D02*
D03*
Y4310000D02*
D03*
Y4210000D02*
D03*
X3580000Y3930000D02*
D03*
Y3830000D02*
D03*
X2770000Y4210000D02*
D03*
Y4310000D02*
D03*
X3350000Y3830000D02*
D03*
Y3930000D02*
D03*
X3530000Y2280000D02*
D03*
Y2380000D02*
D03*
X7890000Y1080000D02*
D03*
Y980000D02*
D03*
X4440000Y3470000D02*
D03*
Y3570000D02*
D03*
X7910000Y2590000D02*
D03*
Y2490000D02*
D03*
X7920000Y4440000D02*
D03*
Y4340000D02*
D03*
X3200000Y3090000D02*
D03*
Y2990000D02*
D03*
Y3190000D02*
D03*
Y3290000D02*
D03*
X6540000Y1470000D02*
D03*
Y1370000D02*
D03*
X6540000Y2340000D02*
D03*
Y2240000D02*
D03*
X7910000Y2870000D02*
D03*
Y2970000D02*
D03*
X3510000Y1840000D02*
D03*
Y1740000D02*
D03*
X3390000Y1840000D02*
D03*
Y1740000D02*
D03*
X3140000Y1470000D02*
D03*
Y1370000D02*
D03*
X4050000Y1320000D02*
D03*
Y1419999D02*
D03*
X4940000Y3230000D02*
D03*
Y3330000D02*
D03*
X7160000Y1570000D02*
D03*
Y1670000D02*
D03*
Y1180000D02*
D03*
Y1280000D02*
D03*
X7120000Y2300000D02*
D03*
Y2400000D02*
D03*
X7150000Y1930000D02*
D03*
Y2030000D02*
D03*
X7140000Y2690000D02*
D03*
Y2790000D02*
D03*
X7160000Y3070000D02*
D03*
Y3170000D02*
D03*
X6340000Y1370000D02*
D03*
Y1470000D02*
D03*
X6340000Y2240000D02*
D03*
Y2340000D02*
D03*
X4950000Y2780000D02*
D03*
Y2880000D02*
D03*
X5050000Y2780000D02*
D03*
Y2880000D02*
D03*
X5950000Y4040000D02*
D03*
Y3940000D02*
D03*
X5310000Y3810000D02*
D03*
Y3710000D02*
D03*
X5400000Y3810000D02*
D03*
Y3710000D02*
D03*
X5220000Y3710000D02*
D03*
Y3610000D02*
D03*
X5130000D02*
D03*
Y3710000D02*
D03*
X5040000D02*
D03*
Y3610000D02*
D03*
X5250000Y4060000D02*
D03*
Y3960000D02*
D03*
D47*
X6880000Y1670000D02*
D03*
X6780000D02*
D03*
X6640000D02*
D03*
X6540000D02*
D03*
X5140000Y4280000D02*
D03*
X5040000D02*
D03*
X3719999Y1670000D02*
D03*
X3819999D02*
D03*
X3820000Y1570000D02*
D03*
X3720000D02*
D03*
X7580000Y3720000D02*
D03*
X7680000D02*
D03*
X6890000Y1210000D02*
D03*
X6790000D02*
D03*
X6650000D02*
D03*
X6550000D02*
D03*
X6890000Y810000D02*
D03*
X6790000D02*
D03*
X6650000D02*
D03*
X6550000D02*
D03*
X6890000Y910000D02*
D03*
X6790000D02*
D03*
X6650000D02*
D03*
X6550000D02*
D03*
X6890000Y1010000D02*
D03*
X6790000D02*
D03*
X6650000D02*
D03*
X6550000D02*
D03*
X6890000Y1110000D02*
D03*
X6790000D02*
D03*
X6650000D02*
D03*
X6550000D02*
D03*
X6880000Y1770000D02*
D03*
X6780000D02*
D03*
X6640000D02*
D03*
X6540000D02*
D03*
X6880000Y1870000D02*
D03*
X6780000D02*
D03*
X6640000D02*
D03*
X6540000D02*
D03*
X6880000Y1970000D02*
D03*
X6780000D02*
D03*
X6640000D02*
D03*
X6540000D02*
D03*
X6880000Y2070000D02*
D03*
X6780000D02*
D03*
X6640000D02*
D03*
X6540000D02*
D03*
X2280000Y1380000D02*
D03*
X2380000D02*
D03*
X1940000Y1890000D02*
D03*
X1840000D02*
D03*
X5440000Y2310000D02*
D03*
X5340000D02*
D03*
X5240000D02*
D03*
X3560000Y3660000D02*
D03*
X3660000D02*
D03*
X2970000Y4310000D02*
D03*
X3070000D02*
D03*
X3560000Y3430000D02*
D03*
X3660000D02*
D03*
X4320000Y3390000D02*
D03*
X4220000D02*
D03*
X3560000Y3530000D02*
D03*
X3660000D02*
D03*
X4420000Y2960000D02*
D03*
X4320000D02*
D03*
X5040000Y3100000D02*
D03*
X4940000D02*
D03*
X3860000Y2690000D02*
D03*
X3960000D02*
D03*
X2780000Y3690000D02*
D03*
X2880000D02*
D03*
X2780000Y3590000D02*
D03*
X2880000D02*
D03*
X2780000Y3390000D02*
D03*
X2880000D02*
D03*
X4220000Y2690000D02*
D03*
X4320000D02*
D03*
X4420000D02*
D03*
X7510000Y3410000D02*
D03*
X7610000D02*
D03*
X7610000Y3510000D02*
D03*
X7510000D02*
D03*
X6240000Y4130000D02*
D03*
X6340000D02*
D03*
X4800000Y4260000D02*
D03*
X4900000D02*
D03*
X5520000Y1180000D02*
D03*
X5620000D02*
D03*
X3380000Y4290000D02*
D03*
X3280000D02*
D03*
X3580000D02*
D03*
X3480000D02*
D03*
X2980000Y3790000D02*
D03*
X3080000D02*
D03*
X2880000D02*
D03*
X2780000D02*
D03*
X2970000Y4210000D02*
D03*
X3070000D02*
D03*
X6420000Y3100000D02*
D03*
X6320000D02*
D03*
X6420000Y3190000D02*
D03*
X6320000D02*
D03*
X3340000Y3560000D02*
D03*
X3440000D02*
D03*
X3340000Y3660000D02*
D03*
X3440000D02*
D03*
X4240000Y3560000D02*
D03*
X4340000D02*
D03*
X4240000Y3760000D02*
D03*
X4340000D02*
D03*
X4240000Y3660000D02*
D03*
X4340000D02*
D03*
X3340000Y3430000D02*
D03*
X3440000D02*
D03*
X6140000Y1470000D02*
D03*
X6240000D02*
D03*
X6140000Y2340000D02*
D03*
X6239999D02*
D03*
X3500000Y3330000D02*
D03*
X3400000D02*
D03*
X3500000Y3230000D02*
D03*
X3400000D02*
D03*
X4320000Y3190000D02*
D03*
X4420000D02*
D03*
X4320000Y3290000D02*
D03*
X4420000D02*
D03*
X3500000Y2960000D02*
D03*
X3400000D02*
D03*
X2780000Y3490000D02*
D03*
X2880000D02*
D03*
X6130000Y3100000D02*
D03*
X6230000D02*
D03*
X6130000Y3190000D02*
D03*
X6230000D02*
D03*
X7580000Y3830000D02*
D03*
X7680000D02*
D03*
X3870000Y970000D02*
D03*
X3770000D02*
D03*
X3820000Y1360000D02*
D03*
X3720000D02*
D03*
X3140000Y1160000D02*
D03*
X3239999D02*
D03*
Y1260000D02*
D03*
X3140000D02*
D03*
X5340000Y2190000D02*
D03*
X5440000D02*
D03*
X4320000Y2820000D02*
D03*
X4420000D02*
D03*
X7590000Y4130000D02*
D03*
X7690000D02*
D03*
X6890000Y710000D02*
D03*
X6790000D02*
D03*
X7510000Y3310000D02*
D03*
X7610000D02*
D03*
X6140000Y2240000D02*
D03*
X6239999D02*
D03*
X6140000Y1370000D02*
D03*
X6240000D02*
D03*
X5890000Y2750000D02*
D03*
X5990000D02*
D03*
X5890000Y2840000D02*
D03*
X5990000D02*
D03*
X5890000Y3080000D02*
D03*
X5990000D02*
D03*
X5000000Y3510000D02*
D03*
X5100000D02*
D03*
D48*
X3080000Y2700000D02*
D03*
X2920000D02*
D03*
X3800000Y1810000D02*
D03*
X3639999D02*
D03*
X4140000Y990000D02*
D03*
X3980000D02*
D03*
D49*
X6020000Y3690000D02*
D03*
Y3530000D02*
D03*
X1940000Y1210000D02*
D03*
Y1050000D02*
D03*
Y920000D02*
D03*
Y760000D02*
D03*
X2880000Y870000D02*
D03*
Y710000D02*
D03*
X2580000D02*
D03*
Y870000D02*
D03*
X2280000D02*
D03*
Y710000D02*
D03*
D50*
X2420000Y3165000D02*
D03*
Y2795000D02*
D03*
D51*
Y3100000D02*
D03*
Y2860000D02*
D03*
D52*
X6065000Y3950000D02*
D03*
X6435000D02*
D03*
D53*
X6130000D02*
D03*
X6370000D02*
D03*
D54*
X1620000Y1200000D02*
D03*
D55*
Y1350000D02*
D03*
Y1500000D02*
D03*
Y1650000D02*
D03*
D56*
X1270000Y1845000D02*
D03*
Y1005000D02*
D03*
D57*
X2645000Y2735000D02*
D03*
X4550000Y4300000D02*
D03*
X4665000Y2737500D02*
D03*
X6570000Y4302500D02*
D03*
D58*
X3897500Y2565000D02*
D03*
X3297500D02*
D03*
X3297500Y4470000D02*
D03*
X3897500D02*
D03*
X5917500Y2567500D02*
D03*
X5317500D02*
D03*
X5317500Y4472500D02*
D03*
X5917500D02*
D03*
D59*
X2745000Y2565000D02*
D03*
X4450000Y4470000D02*
D03*
X4765000Y2567500D02*
D03*
X6470000Y4472500D02*
D03*
D60*
X4380000Y2565000D02*
D03*
X2815000Y4470000D02*
D03*
X6400000Y2567500D02*
D03*
X4835000Y4472500D02*
D03*
D61*
X4550000Y3817500D02*
D03*
Y3217500D02*
D03*
X2645000Y3217500D02*
D03*
Y3817500D02*
D03*
X6570000Y3820000D02*
D03*
Y3220000D02*
D03*
X4665000Y3220000D02*
D03*
Y3820000D02*
D03*
D62*
X4550000Y2665000D02*
D03*
X2645000Y4370000D02*
D03*
X6570000Y2667500D02*
D03*
X4665000Y4372500D02*
D03*
D63*
X3625000Y1140000D02*
D03*
X3395000D02*
D03*
X5185000Y1520000D02*
D03*
X5415000D02*
D03*
D64*
X2890000Y1105000D02*
D03*
Y1335000D02*
D03*
Y1765000D02*
D03*
Y1535000D02*
D03*
D65*
X2560000Y1645000D02*
D03*
X5020000Y1585000D02*
D03*
D66*
X2560000Y1495000D02*
D03*
X5020000Y1435000D02*
D03*
D67*
X5675000Y1070000D02*
D03*
X2535000Y1260000D02*
D03*
D68*
X5525000Y1070000D02*
D03*
X2385000Y1260000D02*
D03*
D69*
X6380000Y4680000D02*
D03*
X2960000D02*
D03*
X6060000D02*
D03*
X2660000D02*
D03*
X1570000D02*
D03*
X8010000Y250000D02*
D03*
Y5200000D02*
D03*
X3930000Y1810000D02*
D03*
X4090000D02*
D03*
X5470000Y1860000D02*
D03*
X5630000D02*
D03*
X3570000Y4170000D02*
D03*
X3410000D02*
D03*
X3570000Y4040000D02*
D03*
X3410000D02*
D03*
X2260000Y1260000D02*
D03*
X2100000D02*
D03*
X3490000Y3090000D02*
D03*
X3330000D02*
D03*
X3490000Y2850000D02*
D03*
X3330000D02*
D03*
X4270000Y990000D02*
D03*
X4430000D02*
D03*
X7460000Y680000D02*
D03*
X7620000D02*
D03*
X4680000Y4750000D02*
D03*
X4520000D02*
D03*
X5910000Y2960000D02*
D03*
X6070000D02*
D03*
D70*
X6220000Y4680000D02*
D03*
X2800000D02*
D03*
X5900000D02*
D03*
X2500000D02*
D03*
X1410000D02*
D03*
X7850000Y250000D02*
D03*
Y5200000D02*
D03*
D71*
X2310000Y3340000D02*
D03*
D72*
Y3640000D02*
D03*
D73*
X8350000Y740000D02*
D03*
X8360000Y4890000D02*
D03*
X5580000Y1420000D02*
D03*
Y1580000D02*
D03*
X4670000Y1880000D02*
D03*
Y2040000D02*
D03*
X3260000Y1750000D02*
D03*
Y1910000D02*
D03*
X3130000Y1580000D02*
D03*
Y1740000D02*
D03*
X2440000Y870000D02*
D03*
Y710000D02*
D03*
X2650000Y1360000D02*
D03*
Y1200000D02*
D03*
X2740000Y870000D02*
D03*
Y710000D02*
D03*
X2140000Y870000D02*
D03*
Y710000D02*
D03*
X5910000Y3180000D02*
D03*
Y3340000D02*
D03*
D74*
X8350000Y580000D02*
D03*
X8360000Y4730000D02*
D03*
D75*
X5600000Y2010001D02*
D03*
Y2290001D02*
D03*
X4860000Y1340000D02*
D03*
Y1060000D02*
D03*
X4310000Y1140000D02*
D03*
Y1420000D02*
D03*
D76*
X4059999Y1620000D02*
D03*
X4339999D02*
D03*
X3840000Y1160000D02*
D03*
X4120000D02*
D03*
X3730000Y1980000D02*
D03*
X4010000D02*
D03*
D87*
X7620000Y464500D02*
D03*
X7366000D02*
D03*
X7112000D02*
D03*
X6858000D02*
D03*
X6604000D02*
D03*
X6350000D02*
D03*
X6096000D02*
D03*
X5842000D02*
D03*
X5588000D02*
D03*
X5334000D02*
D03*
X5080000D02*
D03*
X4826000D02*
D03*
X4572000D02*
D03*
X4318000D02*
D03*
X4064000D02*
D03*
X3810000D02*
D03*
X3556000D02*
D03*
X3302000D02*
D03*
X3048000D02*
D03*
X2794000D02*
D03*
X2540000D02*
D03*
X2286000D02*
D03*
X2032000D02*
D03*
X7620000Y170500D02*
D03*
X7366000D02*
D03*
X7112000D02*
D03*
X6858000D02*
D03*
X6604000D02*
D03*
X6350000D02*
D03*
X6096000D02*
D03*
X5842000D02*
D03*
X5588000D02*
D03*
X5334000D02*
D03*
X5080000D02*
D03*
X4826000D02*
D03*
X4572000D02*
D03*
X4318000D02*
D03*
X4064000D02*
D03*
X3810000D02*
D03*
X3556000D02*
D03*
X3302000D02*
D03*
X3048000D02*
D03*
X2794000D02*
D03*
X2540000D02*
D03*
X2286000D02*
D03*
X7620000Y5290500D02*
D03*
X7366000D02*
D03*
X7112000D02*
D03*
X6858000D02*
D03*
X6604000D02*
D03*
X6350000D02*
D03*
X6096000D02*
D03*
X5842000D02*
D03*
X5588000D02*
D03*
X5334000D02*
D03*
X5080000D02*
D03*
X4826000D02*
D03*
X4572000D02*
D03*
X4318000D02*
D03*
X4064000D02*
D03*
X3810000D02*
D03*
X3556000D02*
D03*
X3302000D02*
D03*
X3048000D02*
D03*
X2794000D02*
D03*
X2540000D02*
D03*
X2286000D02*
D03*
X2032000D02*
D03*
X7620000Y4996500D02*
D03*
X7366000D02*
D03*
X7112000D02*
D03*
X6858000D02*
D03*
X6604000D02*
D03*
X6350000D02*
D03*
X6096000D02*
D03*
X5842000D02*
D03*
X5588000D02*
D03*
X5334000D02*
D03*
X5080000D02*
D03*
X4826000D02*
D03*
X4572000D02*
D03*
X4318000D02*
D03*
X4064000D02*
D03*
X3810000D02*
D03*
X3556000D02*
D03*
X3302000D02*
D03*
X3048000D02*
D03*
X2794000D02*
D03*
X2540000D02*
D03*
X2286000D02*
D03*
Y4238400D02*
D03*
Y4532400D02*
D03*
X2032000D02*
D03*
D88*
Y170500D02*
D03*
Y4996500D02*
D03*
Y4238400D02*
D03*
D89*
X8402000Y952800D02*
D03*
Y1206800D02*
D03*
Y1460800D02*
D03*
Y1714800D02*
D03*
Y1968800D02*
D03*
Y2222800D02*
D03*
Y2476800D02*
D03*
X8108000Y952800D02*
D03*
Y1206800D02*
D03*
Y1460800D02*
D03*
Y1714800D02*
D03*
Y1968800D02*
D03*
Y2222800D02*
D03*
X8402000Y2984800D02*
D03*
Y3238800D02*
D03*
Y3492800D02*
D03*
Y3746800D02*
D03*
Y4000800D02*
D03*
Y4254800D02*
D03*
Y4508800D02*
D03*
X8108000Y2984800D02*
D03*
Y3238800D02*
D03*
Y3492800D02*
D03*
Y3746800D02*
D03*
Y4000800D02*
D03*
Y4254800D02*
D03*
D90*
Y2476800D02*
D03*
Y4508800D02*
D03*
D91*
X8064500Y615000D02*
D03*
Y4846000D02*
D03*
D92*
X1460500Y5143500D02*
D03*
D93*
X1480000Y695000D02*
D03*
D94*
Y345000D02*
D03*
%TF.MD5,bf028b4764c2b78f0d620172b87a158b*%
M02*
