%TF.GenerationSoftware,Altium Limited,Altium Designer,20.2.6 (244)*%
G04 Layer_Color=8421504*
%FSLAX45Y45*%
%MOMM*%
%TF.SameCoordinates,1A285BE7-DF3D-4214-9C7A-F78C9B27F18F*%
%TF.FilePolarity,Positive*%
%TF.FileFunction,Paste,Top*%
%TF.Part,Single*%
G01*
G75*
%TA.AperFunction,SMDPad,CuDef*%
%ADD54R,2.20000X0.70000*%
G04:AMPARAMS|DCode=55|XSize=2.2mm|YSize=0.7mm|CornerRadius=0.175mm|HoleSize=0mm|Usage=FLASHONLY|Rotation=180.000|XOffset=0mm|YOffset=0mm|HoleType=Round|Shape=RoundedRectangle|*
%AMROUNDEDRECTD55*
21,1,2.20000,0.35000,0,0,180.0*
21,1,1.85000,0.70000,0,0,180.0*
1,1,0.35000,-0.92500,0.17500*
1,1,0.35000,0.92500,0.17500*
1,1,0.35000,0.92500,-0.17500*
1,1,0.35000,-0.92500,-0.17500*
%
%ADD55ROUNDEDRECTD55*%
G04:AMPARAMS|DCode=56|XSize=2mm|YSize=1.1mm|CornerRadius=0.275mm|HoleSize=0mm|Usage=FLASHONLY|Rotation=180.000|XOffset=0mm|YOffset=0mm|HoleType=Round|Shape=RoundedRectangle|*
%AMROUNDEDRECTD56*
21,1,2.00000,0.55000,0,0,180.0*
21,1,1.45000,1.10000,0,0,180.0*
1,1,0.55000,-0.72500,0.27500*
1,1,0.55000,0.72500,0.27500*
1,1,0.55000,0.72500,-0.27500*
1,1,0.55000,-0.72500,-0.27500*
%
%ADD56ROUNDEDRECTD56*%
G04:AMPARAMS|DCode=63|XSize=2.8mm|YSize=1.3mm|CornerRadius=0.325mm|HoleSize=0mm|Usage=FLASHONLY|Rotation=90.000|XOffset=0mm|YOffset=0mm|HoleType=Round|Shape=RoundedRectangle|*
%AMROUNDEDRECTD63*
21,1,2.80000,0.65000,0,0,90.0*
21,1,2.15000,1.30000,0,0,90.0*
1,1,0.65000,0.32500,1.07500*
1,1,0.65000,0.32500,-1.07500*
1,1,0.65000,-0.32500,-1.07500*
1,1,0.65000,-0.32500,1.07500*
%
%ADD63ROUNDEDRECTD63*%
G04:AMPARAMS|DCode=64|XSize=2.8mm|YSize=1.3mm|CornerRadius=0.325mm|HoleSize=0mm|Usage=FLASHONLY|Rotation=0.000|XOffset=0mm|YOffset=0mm|HoleType=Round|Shape=RoundedRectangle|*
%AMROUNDEDRECTD64*
21,1,2.80000,0.65000,0,0,0.0*
21,1,2.15000,1.30000,0,0,0.0*
1,1,0.65000,1.07500,-0.32500*
1,1,0.65000,-1.07500,-0.32500*
1,1,0.65000,-1.07500,0.32500*
1,1,0.65000,1.07500,0.32500*
%
%ADD64ROUNDEDRECTD64*%
%TA.AperFunction,NonConductor*%
%ADD100C,0.25000*%
%ADD170R,0.60000X0.60000*%
%ADD171R,0.60000X0.40000*%
%ADD172R,0.60000X0.40000*%
%ADD173R,0.45000X0.30000*%
%ADD174R,0.45000X0.30000*%
%ADD175R,0.55000X0.49999*%
%ADD176R,0.55000X0.49999*%
%ADD177R,0.40000X0.60000*%
%ADD178R,0.45000X0.35000*%
%ADD179R,0.45000X0.30000*%
%ADD180R,0.45000X0.30000*%
%ADD181R,0.40000X0.40000*%
%ADD182R,0.30000X0.45000*%
%ADD183R,0.30000X0.45000*%
%ADD184R,0.80000X0.50000*%
%ADD185R,0.50000X0.80000*%
%ADD186R,1.70000X0.55000*%
%ADD187R,0.55000X1.70000*%
%ADD188R,0.80000X0.49999*%
%ADD189R,0.49999X0.80000*%
%ADD190R,0.50000X0.40000*%
%ADD191R,0.50000X0.40000*%
%ADD192R,0.40000X0.50000*%
%ADD193R,0.40000X0.50000*%
%ADD194R,1.09999X0.65001*%
%ADD195R,1.59999X0.69999*%
%ADD196R,0.69999X1.60000*%
%ADD197R,0.69999X1.60000*%
%TA.AperFunction,SMDPad,CuDef*%
G04:AMPARAMS|DCode=198|XSize=1mm|YSize=0.9mm|CornerRadius=0.125mm|HoleSize=0mm|Usage=FLASHONLY|Rotation=90.000|XOffset=0mm|YOffset=0mm|HoleType=Round|Shape=RoundedRectangle|*
%AMROUNDEDRECTD198*
21,1,1.00000,0.65000,0,0,90.0*
21,1,0.75000,0.90000,0,0,90.0*
1,1,0.25000,0.32500,0.37500*
1,1,0.25000,0.32500,-0.37500*
1,1,0.25000,-0.32500,-0.37500*
1,1,0.25000,-0.32500,0.37500*
%
%ADD198ROUNDEDRECTD198*%
G04:AMPARAMS|DCode=199|XSize=2.15mm|YSize=0.7mm|CornerRadius=0.075mm|HoleSize=0mm|Usage=FLASHONLY|Rotation=90.000|XOffset=0mm|YOffset=0mm|HoleType=Round|Shape=RoundedRectangle|*
%AMROUNDEDRECTD199*
21,1,2.15000,0.55000,0,0,90.0*
21,1,2.00000,0.70000,0,0,90.0*
1,1,0.15000,0.27500,1.00000*
1,1,0.15000,0.27500,-1.00000*
1,1,0.15000,-0.27500,-1.00000*
1,1,0.15000,-0.27500,1.00000*
%
%ADD199ROUNDEDRECTD199*%
G04:AMPARAMS|DCode=200|XSize=1.9mm|YSize=1.12mm|CornerRadius=0mm|HoleSize=0mm|Usage=FLASHONLY|Rotation=90.000|XOffset=0mm|YOffset=0mm|HoleType=Round|Shape=RoundedRectangle|*
%AMROUNDEDRECTD200*
21,1,1.90000,1.12000,0,0,90.0*
21,1,1.90000,1.12000,0,0,90.0*
1,1,0.00000,0.56000,0.95000*
1,1,0.00000,0.56000,-0.95000*
1,1,0.00000,-0.56000,-0.95000*
1,1,0.00000,-0.56000,0.95000*
%
%ADD200ROUNDEDRECTD200*%
G04:AMPARAMS|DCode=201|XSize=0.4mm|YSize=2.38mm|CornerRadius=0mm|HoleSize=0mm|Usage=FLASHONLY|Rotation=0.000|XOffset=0mm|YOffset=0mm|HoleType=Round|Shape=RoundedRectangle|*
%AMROUNDEDRECTD201*
21,1,0.40000,2.38000,0,0,0.0*
21,1,0.40000,2.38000,0,0,0.0*
1,1,0.00000,0.20000,-1.19000*
1,1,0.00000,-0.20000,-1.19000*
1,1,0.00000,-0.20000,1.19000*
1,1,0.00000,0.20000,1.19000*
%
%ADD201ROUNDEDRECTD201*%
G04:AMPARAMS|DCode=202|XSize=2.15mm|YSize=0.7mm|CornerRadius=0.075mm|HoleSize=0mm|Usage=FLASHONLY|Rotation=0.000|XOffset=0mm|YOffset=0mm|HoleType=Round|Shape=RoundedRectangle|*
%AMROUNDEDRECTD202*
21,1,2.15000,0.55000,0,0,0.0*
21,1,2.00000,0.70000,0,0,0.0*
1,1,0.15000,1.00000,-0.27500*
1,1,0.15000,-1.00000,-0.27500*
1,1,0.15000,-1.00000,0.27500*
1,1,0.15000,1.00000,0.27500*
%
%ADD202ROUNDEDRECTD202*%
D54*
X1620000Y1200000D02*
D03*
D55*
Y1350000D02*
D03*
Y1500000D02*
D03*
Y1650000D02*
D03*
D56*
X1270000Y1845000D02*
D03*
Y1005000D02*
D03*
D63*
X3625000Y1140000D02*
D03*
X3395000D02*
D03*
X5185000Y1520000D02*
D03*
X5415000D02*
D03*
D64*
X2890000Y1105000D02*
D03*
Y1335000D02*
D03*
Y1765000D02*
D03*
Y1535000D02*
D03*
D100*
X3195401Y2457423D02*
G03*
X3172890Y2444426I6599J-37423D01*
G01*
Y2395640D02*
G03*
X3195401Y2382644I29110J24426D01*
G01*
X3225708Y2407011D02*
G03*
X3225708Y2433005I-35708J12997D01*
G01*
X3406599Y2382577D02*
G03*
X3429110Y2395574I-6599J37423D01*
G01*
Y2444426D02*
G03*
X3406599Y2457423I-29110J-24426D01*
G01*
X3364292Y2432997D02*
G03*
X3364292Y2407003I35708J-12997D01*
G01*
X4014599Y3722577D02*
G03*
X4037110Y3735574I-6599J37423D01*
G01*
Y3784359D02*
G03*
X4014599Y3797356I-29110J-24426D01*
G01*
X3984292Y3772988D02*
G03*
X3984292Y3746995I35708J-12997D01*
G01*
X3803401Y3797422D02*
G03*
X3780890Y3784426I6599J-37423D01*
G01*
Y3735574D02*
G03*
X3803401Y3722577I29110J24426D01*
G01*
X3845708Y3747003D02*
G03*
X3845708Y3772997I-35708J12997D01*
G01*
X2527423Y4014599D02*
G03*
X2514426Y4037110I-37423J-6599D01*
G01*
X2465640D02*
G03*
X2452644Y4014599I24426J-29110D01*
G01*
X2477012Y3984292D02*
G03*
X2503005Y3984292I12997J35708D01*
G01*
X2452578Y3803401D02*
G03*
X2465574Y3780890I37423J6599D01*
G01*
X2514426D02*
G03*
X2527423Y3803401I-24426J29110D01*
G01*
X2502997Y3845708D02*
G03*
X2477003Y3845708I-12997J-35708D01*
G01*
X2452578Y3405401D02*
G03*
X2465574Y3382890I37423J6599D01*
G01*
X2514360D02*
G03*
X2527356Y3405401I-24426J29110D01*
G01*
X2502989Y3435708D02*
G03*
X2476995Y3435708I-12997J-35708D01*
G01*
X2527423Y3616599D02*
G03*
X2514426Y3639110I-37423J-6599D01*
G01*
X2465574D02*
G03*
X2452578Y3616599I24426J-29110D01*
G01*
X2477003Y3574292D02*
G03*
X2502997Y3574292I12997J35708D01*
G01*
X3525401Y2737423D02*
G03*
X3502890Y2724426I6599J-37423D01*
G01*
Y2675640D02*
G03*
X3525401Y2662644I29110J24426D01*
G01*
X3555708Y2687011D02*
G03*
X3555708Y2713005I-35708J12997D01*
G01*
X3736599Y2662577D02*
G03*
X3759110Y2675574I-6599J37423D01*
G01*
Y2724426D02*
G03*
X3736599Y2737423I-29110J-24426D01*
G01*
X3694292Y2712997D02*
G03*
X3694292Y2687003I35708J-12997D01*
G01*
X5425401Y3387422D02*
G03*
X5402890Y3374426I6599J-37423D01*
G01*
Y3325640D02*
G03*
X5425401Y3312644I29110J24426D01*
G01*
X5455708Y3337011D02*
G03*
X5455708Y3363005I-35708J12997D01*
G01*
X5636599Y3312577D02*
G03*
X5659110Y3325574I-6599J37423D01*
G01*
Y3374426D02*
G03*
X5636599Y3387422I-29110J-24426D01*
G01*
X5594292Y3362997D02*
G03*
X5594292Y3337003I35708J-12997D01*
G01*
X6404599Y4242577D02*
G03*
X6427110Y4255574I-6599J37423D01*
G01*
Y4304360D02*
G03*
X6404599Y4317356I-29110J-24426D01*
G01*
X6374292Y4292989D02*
G03*
X6374292Y4266995I35708J-12997D01*
G01*
X6193401Y4317423D02*
G03*
X6170890Y4304426I6599J-37423D01*
G01*
Y4255574D02*
G03*
X6193401Y4242577I29110J24426D01*
G01*
X6235708Y4267003D02*
G03*
X6235708Y4292997I-35708J12997D01*
G01*
X6054599Y4242577D02*
G03*
X6077110Y4255574I-6599J37423D01*
G01*
Y4304360D02*
G03*
X6054599Y4317356I-29110J-24426D01*
G01*
X6024292Y4292989D02*
G03*
X6024292Y4266995I35708J-12997D01*
G01*
X5843401Y4317423D02*
G03*
X5820890Y4304426I6599J-37423D01*
G01*
Y4255574D02*
G03*
X5843401Y4242577I29110J24426D01*
G01*
X5885708Y4267003D02*
G03*
X5885708Y4292997I-35708J12997D01*
G01*
X5425401Y3617423D02*
G03*
X5402890Y3604426I6599J-37423D01*
G01*
Y3555640D02*
G03*
X5425401Y3542644I29110J24426D01*
G01*
X5455708Y3567011D02*
G03*
X5455708Y3593005I-35708J12997D01*
G01*
X5636599Y3542577D02*
G03*
X5659110Y3555574I-6599J37423D01*
G01*
Y3604426D02*
G03*
X5636599Y3617423I-29110J-24426D01*
G01*
X5594292Y3592997D02*
G03*
X5594292Y3567003I35708J-12997D01*
G01*
X5644599Y4242577D02*
G03*
X5667110Y4255574I-6599J37423D01*
G01*
Y4304360D02*
G03*
X5644599Y4317356I-29110J-24426D01*
G01*
X5614292Y4292989D02*
G03*
X5614292Y4266995I35708J-12997D01*
G01*
X5433401Y4317423D02*
G03*
X5410890Y4304426I6599J-37423D01*
G01*
Y4255574D02*
G03*
X5433401Y4242577I29110J24426D01*
G01*
X5475708Y4267003D02*
G03*
X5475708Y4292997I-35708J12997D01*
G01*
D170*
X5150000Y1170000D02*
D03*
X5150000Y1265000D02*
D03*
X5150000Y1075000D02*
D03*
X5410000D02*
D03*
Y1170000D02*
D03*
Y1265000D02*
D03*
X2410000Y2329999D02*
D03*
X2504998Y2329998D02*
D03*
X2315000Y2329999D02*
D03*
X2315002Y2070001D02*
D03*
X2410000Y2070000D02*
D03*
X2505000D02*
D03*
D171*
X4890023Y2087509D02*
D03*
X4890000Y2022500D02*
D03*
Y1957500D02*
D03*
Y1892500D02*
D03*
X5330000D02*
D03*
Y1957500D02*
D03*
Y2087500D02*
D03*
X3700000Y3862500D02*
D03*
Y3927500D02*
D03*
Y3992500D02*
D03*
Y4057500D02*
D03*
Y4122500D02*
D03*
Y4187500D02*
D03*
Y4252500D02*
D03*
Y4317500D02*
D03*
X4280000Y4317500D02*
D03*
Y4252500D02*
D03*
Y4187500D02*
D03*
Y4122500D02*
D03*
Y4057500D02*
D03*
Y3992500D02*
D03*
Y3927500D02*
D03*
Y3862500D02*
D03*
X3229976Y3902491D02*
D03*
X3230000Y3967503D02*
D03*
Y4032496D02*
D03*
Y4097500D02*
D03*
X2790004D02*
D03*
Y4032496D02*
D03*
X2790000Y3902500D02*
D03*
X3620000Y2832500D02*
D03*
Y2897500D02*
D03*
Y2962500D02*
D03*
Y3027500D02*
D03*
Y3092500D02*
D03*
Y3157500D02*
D03*
Y3222500D02*
D03*
Y3287500D02*
D03*
X4200000Y3287500D02*
D03*
Y3222500D02*
D03*
Y3157500D02*
D03*
Y3092500D02*
D03*
Y3027500D02*
D03*
Y2962500D02*
D03*
Y2897500D02*
D03*
Y2832500D02*
D03*
X5750000Y3227496D02*
D03*
Y3162500D02*
D03*
Y3097500D02*
D03*
Y3032496D02*
D03*
Y2967503D02*
D03*
Y2902500D02*
D03*
Y2837500D02*
D03*
Y2772503D02*
D03*
X5170000Y2772503D02*
D03*
Y2837500D02*
D03*
Y2902500D02*
D03*
Y2967503D02*
D03*
Y3032496D02*
D03*
Y3097500D02*
D03*
Y3162500D02*
D03*
Y3227496D02*
D03*
X5819977Y3942491D02*
D03*
X5820000Y4007503D02*
D03*
Y4072496D02*
D03*
Y4137499D02*
D03*
X5380003D02*
D03*
Y4072496D02*
D03*
X5380000Y3942500D02*
D03*
D172*
X5330000Y2022500D02*
D03*
X2790002Y3967503D02*
D03*
X5380002Y4007503D02*
D03*
D173*
X3127499Y2265000D02*
D03*
Y2215000D02*
D03*
Y2165000D02*
D03*
X3412499Y2115000D02*
D03*
Y2165000D02*
D03*
Y2215000D02*
D03*
X4082500Y3580000D02*
D03*
Y3530000D02*
D03*
Y3480000D02*
D03*
X3797500D02*
D03*
Y3530000D02*
D03*
Y3580000D02*
D03*
Y3630000D02*
D03*
X4082500Y3430000D02*
D03*
X3287500Y1590000D02*
D03*
Y1540000D02*
D03*
Y1490000D02*
D03*
Y1440000D02*
D03*
X3572499Y1390000D02*
D03*
Y1440000D02*
D03*
Y1490000D02*
D03*
Y1540000D02*
D03*
D174*
X3127499Y2115000D02*
D03*
X3412499Y2265000D02*
D03*
X4082500Y3630000D02*
D03*
X3797500Y3430000D02*
D03*
X3287500Y1390000D02*
D03*
X3572499Y1590000D02*
D03*
D175*
X3242500Y3625000D02*
D03*
Y3434999D02*
D03*
X2977500D02*
D03*
Y3625000D02*
D03*
D176*
X2977500Y3530000D02*
D03*
D177*
X2892491Y2830025D02*
D03*
X2957499Y2830001D02*
D03*
X3022497Y2829999D02*
D03*
X3087500Y2830002D02*
D03*
X3087502Y3270000D02*
D03*
X3022498Y3269995D02*
D03*
X2957501Y3270000D02*
D03*
X2892500Y3270002D02*
D03*
X6357508Y3749976D02*
D03*
X6292499Y3750000D02*
D03*
X6227501Y3749998D02*
D03*
X6162500Y3750000D02*
D03*
X6162502Y3310002D02*
D03*
X6227502D02*
D03*
X6292500Y3310000D02*
D03*
X6357500Y3309999D02*
D03*
D178*
X7102500Y3837500D02*
D03*
Y3772500D02*
D03*
Y3707500D02*
D03*
Y3642500D02*
D03*
X7477500D02*
D03*
Y3707500D02*
D03*
Y3772500D02*
D03*
Y3837500D02*
D03*
D179*
X7287500Y3050000D02*
D03*
Y3000000D02*
D03*
Y2950000D02*
D03*
Y2900000D02*
D03*
X7572500Y2850000D02*
D03*
Y2900000D02*
D03*
Y2950000D02*
D03*
Y3000000D02*
D03*
X7287500Y970000D02*
D03*
X7572500Y1170000D02*
D03*
X7287500Y1720000D02*
D03*
X7572500Y1920000D02*
D03*
X7287500Y1550000D02*
D03*
Y1500000D02*
D03*
Y1450000D02*
D03*
Y1400000D02*
D03*
X7572500Y1350000D02*
D03*
Y1400000D02*
D03*
Y1450000D02*
D03*
Y1500000D02*
D03*
X6402500Y1015000D02*
D03*
Y965000D02*
D03*
Y915000D02*
D03*
Y865000D02*
D03*
X6177500D02*
D03*
Y915000D02*
D03*
Y965000D02*
D03*
Y1015000D02*
D03*
X6402500Y1215000D02*
D03*
Y1165000D02*
D03*
Y1115000D02*
D03*
Y1065000D02*
D03*
X6177500D02*
D03*
Y1115000D02*
D03*
Y1165000D02*
D03*
Y1215000D02*
D03*
X7287500Y2290000D02*
D03*
Y2240000D02*
D03*
Y2190000D02*
D03*
Y2140000D02*
D03*
X7572500Y2090000D02*
D03*
Y2140000D02*
D03*
Y2190000D02*
D03*
Y2240000D02*
D03*
X7472498Y4170002D02*
D03*
Y4220001D02*
D03*
Y4270000D02*
D03*
Y4319998D02*
D03*
X7187502Y4369998D02*
D03*
Y4319998D02*
D03*
Y4270000D02*
D03*
Y4220001D02*
D03*
X7287500Y2470000D02*
D03*
X7572500Y2670000D02*
D03*
X6392500Y1875000D02*
D03*
Y1824999D02*
D03*
Y1774999D02*
D03*
Y1725000D02*
D03*
X6167500D02*
D03*
Y1775000D02*
D03*
Y1825000D02*
D03*
Y1875000D02*
D03*
X6392500Y2075000D02*
D03*
Y2025000D02*
D03*
Y1975000D02*
D03*
Y1925000D02*
D03*
X6167500D02*
D03*
Y1975000D02*
D03*
Y2025000D02*
D03*
Y2074999D02*
D03*
D180*
X7287500Y2850000D02*
D03*
X7572500Y3050000D02*
D03*
X7287500Y1170000D02*
D03*
Y1120000D02*
D03*
Y1070000D02*
D03*
Y1020000D02*
D03*
X7572500Y970000D02*
D03*
Y1020000D02*
D03*
Y1070000D02*
D03*
Y1120000D02*
D03*
X7287500Y1920000D02*
D03*
Y1870000D02*
D03*
Y1820000D02*
D03*
Y1770000D02*
D03*
X7572500Y1720000D02*
D03*
Y1770000D02*
D03*
Y1820000D02*
D03*
Y1870000D02*
D03*
X7287500Y1350000D02*
D03*
X7572500Y1550000D02*
D03*
X7287500Y2090000D02*
D03*
X7572500Y2290000D02*
D03*
X7472498Y4369998D02*
D03*
X7187502Y4170001D02*
D03*
X7287500Y2670000D02*
D03*
Y2620000D02*
D03*
Y2570000D02*
D03*
Y2520000D02*
D03*
X7572500Y2470000D02*
D03*
Y2520000D02*
D03*
Y2570000D02*
D03*
Y2620000D02*
D03*
D181*
X7200000Y3455000D02*
D03*
Y3390000D02*
D03*
Y3325000D02*
D03*
X7400000D02*
D03*
Y3390000D02*
D03*
Y3455000D02*
D03*
X2270004Y1560000D02*
D03*
X2469997Y1625000D02*
D03*
Y1495004D02*
D03*
X2580000Y1889999D02*
D03*
X2380000Y1824999D02*
D03*
Y1954999D02*
D03*
X1890000Y1609998D02*
D03*
X1824999Y1809997D02*
D03*
X1954995Y1809998D02*
D03*
X2520000Y2590000D02*
D03*
X2320000Y2525000D02*
D03*
Y2655000D02*
D03*
X5020000Y790000D02*
D03*
X5020000Y690000D02*
D03*
X4950000Y4670000D02*
D03*
X4950000Y4770000D02*
D03*
X4880000Y790000D02*
D03*
X4879999Y690000D02*
D03*
X4070000Y800000D02*
D03*
X4069999Y700000D02*
D03*
X3930000Y700002D02*
D03*
X3930000Y800002D02*
D03*
X4000000Y4670000D02*
D03*
X4000000Y4770000D02*
D03*
X4129998D02*
D03*
X4129997Y4670000D02*
D03*
X3640000D02*
D03*
X3640000Y4770000D02*
D03*
X3769998D02*
D03*
X3769998Y4670000D02*
D03*
X7510000D02*
D03*
X7510000Y4770000D02*
D03*
X7619998D02*
D03*
X7619997Y4670000D02*
D03*
X7250000D02*
D03*
X7250000Y4770000D02*
D03*
X7359998D02*
D03*
X7359997Y4670000D02*
D03*
X7000000D02*
D03*
X7000000Y4770000D02*
D03*
X7109998D02*
D03*
X7109997Y4670000D02*
D03*
X6740000D02*
D03*
X6740000Y4770000D02*
D03*
X6849998D02*
D03*
X6849997Y4670000D02*
D03*
X5589998Y4770000D02*
D03*
X5589997Y4670000D02*
D03*
X5329998Y4770000D02*
D03*
X5329997Y4670000D02*
D03*
X6880000Y1670000D02*
D03*
X6780000D02*
D03*
X6640000D02*
D03*
X6540000D02*
D03*
X4849998Y4770000D02*
D03*
X4849997Y4670000D02*
D03*
X5570000Y690000D02*
D03*
X5570000Y790000D02*
D03*
X5460002D02*
D03*
X5460002Y690000D02*
D03*
X3920000Y1670000D02*
D03*
X3920000Y1570000D02*
D03*
X5140000Y4280000D02*
D03*
X5040000D02*
D03*
X5250000Y4150000D02*
D03*
X5250000Y4250000D02*
D03*
X3720003Y1670000D02*
D03*
X3819996D02*
D03*
X3819999Y1569999D02*
D03*
X3719999D02*
D03*
X3950000Y1319999D02*
D03*
X3949999Y1419999D02*
D03*
X7000002Y3680000D02*
D03*
X7000002Y3580000D02*
D03*
X7580003Y3720000D02*
D03*
X7679996D02*
D03*
X6890000Y1210000D02*
D03*
X6790000D02*
D03*
X6649999D02*
D03*
X6549999D02*
D03*
X6889999Y810000D02*
D03*
X6789999D02*
D03*
X6649999D02*
D03*
X6549999D02*
D03*
X6890000Y910000D02*
D03*
X6790000D02*
D03*
X6649999D02*
D03*
X6549999D02*
D03*
X6890000Y1010000D02*
D03*
X6790000D02*
D03*
X6650000D02*
D03*
X6550000D02*
D03*
X6890000Y1110000D02*
D03*
X6790000D02*
D03*
X6650000D02*
D03*
X6550000D02*
D03*
X6880000Y1770000D02*
D03*
X6780000D02*
D03*
X6640000D02*
D03*
X6540000D02*
D03*
X6880000Y1870000D02*
D03*
X6780000D02*
D03*
X6640000D02*
D03*
X6540000D02*
D03*
X6880000Y1970000D02*
D03*
X6780000D02*
D03*
X6640000D02*
D03*
X6540000D02*
D03*
X6880000Y2070000D02*
D03*
X6780000D02*
D03*
X6640000D02*
D03*
X6540000D02*
D03*
X5230000Y4770000D02*
D03*
X5230000Y4670000D02*
D03*
X4180000Y700002D02*
D03*
X4180000Y800002D02*
D03*
X3820000Y700000D02*
D03*
X3819999Y800000D02*
D03*
X5130000Y690000D02*
D03*
X5129999Y790000D02*
D03*
X4770000Y690000D02*
D03*
X4770000Y790000D02*
D03*
X3869998Y4770000D02*
D03*
X3869997Y4670000D02*
D03*
X3539998Y4770000D02*
D03*
X3539997Y4670000D02*
D03*
X4230000Y4770000D02*
D03*
X4230000Y4670000D02*
D03*
X2280004Y1380000D02*
D03*
X2379997D02*
D03*
X1940000Y1890000D02*
D03*
X1839999D02*
D03*
X1930000Y1400002D02*
D03*
X1930000Y1500002D02*
D03*
X1820000Y1500000D02*
D03*
X1819999Y1400000D02*
D03*
X3410000Y4670000D02*
D03*
X3410000Y4770000D02*
D03*
X5439997Y2310000D02*
D03*
X5340004D02*
D03*
X2210000Y2140000D02*
D03*
X2210000Y2040000D02*
D03*
X5030000Y1330000D02*
D03*
X5030000Y1230000D02*
D03*
X2210000Y2249998D02*
D03*
X2210000Y2349997D02*
D03*
X5029998Y1130000D02*
D03*
X5029998Y1030000D02*
D03*
X2299998Y1940000D02*
D03*
X2299997Y1840000D02*
D03*
X5710002Y790000D02*
D03*
X5710002Y690000D02*
D03*
X3560003Y3660000D02*
D03*
X3659996D02*
D03*
X2970003Y4310000D02*
D03*
X3069996D02*
D03*
X4400000Y3880000D02*
D03*
X4400000Y3980000D02*
D03*
X2869998Y4310000D02*
D03*
X2869997Y4210000D02*
D03*
X3450000Y3830002D02*
D03*
X3450000Y3930002D02*
D03*
X5720000Y4770000D02*
D03*
X5720000Y4670000D02*
D03*
X3180000Y4770000D02*
D03*
X3180000Y4670000D02*
D03*
X5460000Y4770000D02*
D03*
X5460000Y4670000D02*
D03*
X3079998Y4770000D02*
D03*
X3079997Y4670000D02*
D03*
X2769998Y2119998D02*
D03*
X2769998Y2219998D02*
D03*
X3530000Y2089997D02*
D03*
X3529999Y2189997D02*
D03*
X4320000Y800000D02*
D03*
X4319999Y700000D02*
D03*
X4430002Y800000D02*
D03*
X4430002Y700000D02*
D03*
X3309998Y4770000D02*
D03*
X3309997Y4670000D02*
D03*
X2879997Y2119999D02*
D03*
X2879997Y2219999D02*
D03*
X2990002Y2319998D02*
D03*
X2990003Y2219998D02*
D03*
X3560003Y3430000D02*
D03*
X3659996D02*
D03*
X4320000Y3389999D02*
D03*
X4220000D02*
D03*
X3560003Y3530000D02*
D03*
X3659996D02*
D03*
X4420000Y2960000D02*
D03*
X4319999D02*
D03*
X5040000Y3100000D02*
D03*
X4940000D02*
D03*
X4850000Y3609998D02*
D03*
X4849999Y3709998D02*
D03*
X3860003Y2690000D02*
D03*
X3959996D02*
D03*
X2780003Y3690000D02*
D03*
X2879996D02*
D03*
X2780003Y3590000D02*
D03*
X2879996D02*
D03*
X2780003Y3390000D02*
D03*
X2879996D02*
D03*
X4220000Y2690000D02*
D03*
X4320000D02*
D03*
X7510003Y3410000D02*
D03*
X7609996D02*
D03*
X6440000Y1369998D02*
D03*
X6439999Y1469998D02*
D03*
X7610000Y3510000D02*
D03*
X7510000D02*
D03*
X6440000Y2240000D02*
D03*
X6439999Y2340000D02*
D03*
X4839997Y3130000D02*
D03*
X4839998Y3230000D02*
D03*
X6240003Y4130000D02*
D03*
X6339996D02*
D03*
X4800003Y4260000D02*
D03*
X4899996D02*
D03*
X5500000Y3710000D02*
D03*
X5500000Y3809999D02*
D03*
X5589998D02*
D03*
X5589997Y3710000D02*
D03*
X2610000Y2270000D02*
D03*
X2610000Y2170000D02*
D03*
X4910000Y1470002D02*
D03*
X4910000Y1570002D02*
D03*
X4780000Y2070000D02*
D03*
X4780000Y2170000D02*
D03*
X5520003Y1180000D02*
D03*
X5619996D02*
D03*
X5440000Y1970001D02*
D03*
X5440000Y2070000D02*
D03*
X4780000Y1870000D02*
D03*
X4780000Y1970000D02*
D03*
X2780002Y3090000D02*
D03*
X2780002Y2990000D02*
D03*
X2780000Y3190000D02*
D03*
X2780000Y3290000D02*
D03*
X3380000Y4290000D02*
D03*
X3280000D02*
D03*
X3580000D02*
D03*
X3480000D02*
D03*
X4400000Y4670000D02*
D03*
X4400000Y4770000D02*
D03*
X4400000Y4310000D02*
D03*
X4400000Y4210000D02*
D03*
X2980003Y3790000D02*
D03*
X3079996D02*
D03*
X2880000D02*
D03*
X2780000D02*
D03*
X3580002Y3930000D02*
D03*
X3580001Y3830000D02*
D03*
X2770000Y4210000D02*
D03*
X2770000Y4310000D02*
D03*
X2970003Y4210000D02*
D03*
X3069996D02*
D03*
X3350000Y3830000D02*
D03*
X3349999Y3930000D02*
D03*
X6420000Y3100000D02*
D03*
X6320000D02*
D03*
X6420000Y3190000D02*
D03*
X6320000D02*
D03*
X3530000Y2279997D02*
D03*
X3529999Y2379997D02*
D03*
X7890000Y1080000D02*
D03*
X7889999Y980000D02*
D03*
X3340003Y3560000D02*
D03*
X3439996D02*
D03*
X3340003Y3660000D02*
D03*
X3439996D02*
D03*
X4440000Y3470002D02*
D03*
X4440000Y3570002D02*
D03*
X4240003Y3560000D02*
D03*
X4339996D02*
D03*
X4240003Y3760000D02*
D03*
X4339996D02*
D03*
X4240003Y3660000D02*
D03*
X4339996D02*
D03*
X3340003Y3430000D02*
D03*
X3439996D02*
D03*
X6140003Y1470000D02*
D03*
X6239996D02*
D03*
X6140003Y2340000D02*
D03*
X6239996D02*
D03*
X7910000Y2590000D02*
D03*
X7909999Y2490000D02*
D03*
X7919998Y4440000D02*
D03*
X7919997Y4340000D02*
D03*
X3500000Y3330000D02*
D03*
X3400000D02*
D03*
X3500000Y3230000D02*
D03*
X3400000D02*
D03*
X4320003Y3190000D02*
D03*
X4419996D02*
D03*
X4320003Y3290000D02*
D03*
X4419996D02*
D03*
X3200002Y3090000D02*
D03*
X3200002Y2990000D02*
D03*
X3200000Y3190000D02*
D03*
X3200000Y3290000D02*
D03*
X3500000Y2960000D02*
D03*
X3400000D02*
D03*
X2780003Y3490000D02*
D03*
X2879996D02*
D03*
X6130003Y3100000D02*
D03*
X6229996D02*
D03*
X6130003Y3190000D02*
D03*
X6229996D02*
D03*
X7580003Y3830000D02*
D03*
X7679996D02*
D03*
X6540000Y1470000D02*
D03*
X6539999Y1370000D02*
D03*
X6540002Y2340000D02*
D03*
X6540002Y2240000D02*
D03*
X7910000Y2869998D02*
D03*
X7909999Y2969998D02*
D03*
X3870000Y970000D02*
D03*
X3770000D02*
D03*
X3510002Y1840000D02*
D03*
X3510002Y1740000D02*
D03*
X3390000Y1840000D02*
D03*
X3389999Y1740000D02*
D03*
X3820000Y1360000D02*
D03*
X3720000D02*
D03*
X3139998Y1470000D02*
D03*
X3139997Y1370000D02*
D03*
X4050000Y1319997D02*
D03*
X4049999Y1419997D02*
D03*
X3140003Y1160000D02*
D03*
X3239996D02*
D03*
X3240000Y1260000D02*
D03*
X3139999D02*
D03*
X5340004Y2190000D02*
D03*
X5439997D02*
D03*
X4320003Y2820000D02*
D03*
X4419996D02*
D03*
X4940000Y3230000D02*
D03*
X4940000Y3329999D02*
D03*
X7160000Y1569998D02*
D03*
X7159999Y1669998D02*
D03*
X7160000Y1179998D02*
D03*
X7159999Y1279997D02*
D03*
X7120000Y2299998D02*
D03*
X7119999Y2399998D02*
D03*
X7150000Y1930000D02*
D03*
X7149999Y2030000D02*
D03*
X7140000Y2690000D02*
D03*
X7139999Y2790000D02*
D03*
X7590003Y4130000D02*
D03*
X7689996D02*
D03*
X7160000Y3069998D02*
D03*
X7159999Y3169998D02*
D03*
X6890000Y710000D02*
D03*
X6790000D02*
D03*
X7510003Y3310000D02*
D03*
X7609996D02*
D03*
X6140003Y2240000D02*
D03*
X6239996D02*
D03*
X6140003Y1370000D02*
D03*
X6239996D02*
D03*
X6340000Y1369998D02*
D03*
X6340000Y1469998D02*
D03*
X6340000Y2240002D02*
D03*
X6340000Y2340002D02*
D03*
X5890003Y2750000D02*
D03*
X5989997D02*
D03*
X5890003Y2840000D02*
D03*
X5989997D02*
D03*
X4950000Y2780002D02*
D03*
X4950000Y2880002D02*
D03*
X5050000Y2780000D02*
D03*
X5050000Y2880000D02*
D03*
X5890003Y3080000D02*
D03*
X5989997D02*
D03*
X5950000Y4040000D02*
D03*
X5950000Y3940000D02*
D03*
X5309998Y3809999D02*
D03*
X5309998Y3710000D02*
D03*
X5399998Y3809999D02*
D03*
X5399997Y3710000D02*
D03*
X5220002D02*
D03*
X5220002Y3610000D02*
D03*
X5130000D02*
D03*
X5129999Y3710000D02*
D03*
X5040002D02*
D03*
X5040002Y3610000D02*
D03*
X5000003Y3510000D02*
D03*
X5099996D02*
D03*
X5250000Y4059999D02*
D03*
X5250000Y3960000D02*
D03*
D182*
X6315000Y827500D02*
D03*
X6265000D02*
D03*
Y1252500D02*
D03*
X6315000D02*
D03*
X6305000Y1687500D02*
D03*
X6255000D02*
D03*
Y2112500D02*
D03*
X6305000D02*
D03*
D183*
X5089999Y3837501D02*
D03*
X5039999D02*
D03*
X4990000Y3837502D02*
D03*
X4940001Y3837501D02*
D03*
X4890001Y4122498D02*
D03*
X4940001D02*
D03*
X4990000Y4122498D02*
D03*
X5039999Y4122499D02*
D03*
X5089999D02*
D03*
X4890001Y3837501D02*
D03*
D184*
X3079999Y2700000D02*
D03*
X2920003D02*
D03*
X6380000Y4680000D02*
D03*
X6220000D02*
D03*
X2960000D02*
D03*
X2800000D02*
D03*
X6060000D02*
D03*
X5900000D02*
D03*
X2660000D02*
D03*
X2500000D02*
D03*
X1570000D02*
D03*
X1410000D02*
D03*
X7850000Y250000D02*
D03*
X8010000D02*
D03*
X7850000Y5200000D02*
D03*
X8010000D02*
D03*
X4089999Y1810000D02*
D03*
X3930003D02*
D03*
X5630000Y1860000D02*
D03*
X5470003D02*
D03*
X3410000Y4170000D02*
D03*
X3570000D02*
D03*
X3410000Y4040000D02*
D03*
X3570000D02*
D03*
X2100000Y1260000D02*
D03*
X2260000D02*
D03*
X3330000Y3090000D02*
D03*
X3490000D02*
D03*
X3330000Y2850000D02*
D03*
X3490000D02*
D03*
X4430000Y990000D02*
D03*
X4270003D02*
D03*
X7619999Y680000D02*
D03*
X7460003D02*
D03*
X4520000Y4750000D02*
D03*
X4680000D02*
D03*
X6070000Y2960000D02*
D03*
X5910003D02*
D03*
D185*
X6019999Y3689998D02*
D03*
X6020000Y3530001D02*
D03*
X8350000Y739998D02*
D03*
Y580001D02*
D03*
X8359998Y4889998D02*
D03*
X8360000Y4729999D02*
D03*
X5580002Y1579998D02*
D03*
X5580000Y1419999D02*
D03*
X4669998Y2039998D02*
D03*
X4670000Y1880003D02*
D03*
X3259997Y1909998D02*
D03*
X3260000Y1750004D02*
D03*
X3130000Y1739998D02*
D03*
Y1580001D02*
D03*
X2440000Y709999D02*
D03*
X2439998Y869998D02*
D03*
X2650000Y1200001D02*
D03*
X2650000Y1359998D02*
D03*
X2740000Y709999D02*
D03*
X2739998Y869998D02*
D03*
X2140000Y710001D02*
D03*
X2140000Y869998D02*
D03*
X5910000Y3339998D02*
D03*
Y3180001D02*
D03*
D186*
X2419999Y3132499D02*
D03*
X2420000Y2827501D02*
D03*
D187*
X6097500Y3949999D02*
D03*
X6402500Y3950000D02*
D03*
D188*
X3799999Y1810000D02*
D03*
X3639999D02*
D03*
X4140000Y990000D02*
D03*
X3980000D02*
D03*
D189*
X1940000Y1209999D02*
D03*
X1939999Y1050001D02*
D03*
X1940000Y919999D02*
D03*
X1939999Y760001D02*
D03*
X2880000Y869999D02*
D03*
X2879999Y710001D02*
D03*
X2580000Y710000D02*
D03*
Y869998D02*
D03*
X2280000Y869999D02*
D03*
X2280000Y710001D02*
D03*
D190*
X2560000Y1495001D02*
D03*
X5020000Y1434999D02*
D03*
D191*
X2559999Y1644999D02*
D03*
X5019999Y1584999D02*
D03*
D192*
X5525000Y1070000D02*
D03*
X2385000Y1260000D02*
D03*
D193*
X5675000Y1070000D02*
D03*
X2535000Y1260000D02*
D03*
D194*
X2310000Y3637499D02*
D03*
Y3342501D02*
D03*
D195*
X5600000Y2010000D02*
D03*
X5600001Y2290000D02*
D03*
X4860000Y1340000D02*
D03*
X4859999Y1060000D02*
D03*
X4310000Y1139999D02*
D03*
X4310001Y1420000D02*
D03*
D196*
X4060001Y1620000D02*
D03*
X4339998Y1619999D02*
D03*
D197*
X3840001Y1160000D02*
D03*
X4119998Y1159999D02*
D03*
X3730001Y1980000D02*
D03*
X4009998Y1979999D02*
D03*
D198*
X3269999Y2190000D02*
D03*
D199*
X3940000Y3530000D02*
D03*
D200*
X3429999Y1490000D02*
D03*
X7430000Y2950000D02*
D03*
Y1070000D02*
D03*
Y1820000D02*
D03*
Y1450000D02*
D03*
Y2190000D02*
D03*
X7330000Y4270000D02*
D03*
X7430000Y2570000D02*
D03*
D201*
X6290000Y1040000D02*
D03*
X6280000Y1900000D02*
D03*
D202*
X4990000Y3980000D02*
D03*
%TF.MD5,8950ea924df813df1c688e144740901b*%
M02*
