%TF.GenerationSoftware,Altium Limited,Altium Designer,20.2.6 (244)*%
G04 Layer_Color=65535*
%FSLAX45Y45*%
%MOMM*%
%TF.SameCoordinates,1A285BE7-DF3D-4214-9C7A-F78C9B27F18F*%
%TF.FilePolarity,Positive*%
%TF.FileFunction,Legend,Top*%
%TF.Part,Single*%
G01*
G75*
%TA.AperFunction,NonConductor*%
%ADD11C,0.20000*%
%ADD77C,0.15000*%
%ADD100C,0.25000*%
%ADD169C,0.10000*%
D11*
X5162500Y1335000D02*
G03*
X5162500Y1335000I-12500J0D01*
G01*
X3109960Y2307555D02*
G03*
X3109960Y2307555I-5000J0D01*
G01*
X3777750Y3697583D02*
G03*
X3777750Y3697583I-5000J0D01*
G01*
X2587500Y2330000D02*
G03*
X2587500Y2330000I-12500J0D01*
G01*
X2997500Y3695000D02*
G03*
X2997500Y3695000I-12500J0D01*
G01*
X3267124Y1657624D02*
G03*
X3267124Y1657624I-5000J0D01*
G01*
X7267124Y3117624D02*
G03*
X7267124Y3117624I-5000J0D01*
G01*
Y1237624D02*
G03*
X7267124Y1237624I-5000J0D01*
G01*
Y1987624D02*
G03*
X7267124Y1987624I-5000J0D01*
G01*
Y1617624D02*
G03*
X7267124Y1617624I-5000J0D01*
G01*
X7205000Y3505000D02*
G03*
X7205000Y3505000I-5000J0D01*
G01*
X6157500Y1285000D02*
G03*
X6157500Y1285000I-12500J0D01*
G01*
X7267124Y2357624D02*
G03*
X7267124Y2357624I-5000J0D01*
G01*
X7502876Y4102376D02*
G03*
X7502876Y4102376I-5000J0D01*
G01*
X7267124Y2737624D02*
G03*
X7267124Y2737624I-5000J0D01*
G01*
X6147500Y2145000D02*
G03*
X6147500Y2145000I-12500J0D01*
G01*
X5162583Y4147250D02*
G03*
X5162583Y4147250I-5000J0D01*
G01*
X1868160Y89542D02*
G03*
X1868160Y89542I-15000J0D01*
G01*
Y4915542D02*
G03*
X1868160Y4915542I-15000J0D01*
G01*
X8023000Y2646800D02*
G03*
X8023000Y2646800I-15000J0D01*
G01*
Y4678800D02*
G03*
X8023000Y4678800I-15000J0D01*
G01*
X1635000Y1115000D02*
G03*
X1635000Y1115000I-5000J0D01*
G01*
X1877000Y4138400D02*
G03*
X1877000Y4138400I-15000J0D01*
G01*
X1175000Y910000D02*
G03*
X1175000Y910000I-15000J0D01*
G01*
X2400000Y3675000D02*
G03*
X2400000Y3675000I-5000J0D01*
G01*
X5390039Y2290001D02*
Y2330000D01*
X2749998Y2169959D02*
X2789998D01*
X2859999Y2169961D02*
X2899999D01*
X2970003Y2270037D02*
X3010003D01*
X4269961Y2670000D02*
Y2710000D01*
X4820000Y3179961D02*
X4860000D01*
X1500000Y4560000D02*
X1600000D01*
X1470000Y4440000D02*
Y4540000D01*
X1630000Y4440000D02*
Y4540000D01*
X1500000Y4420000D02*
X1600000D01*
X1470000Y4290000D02*
Y4390000D01*
X1630000Y4290000D02*
Y4390000D01*
X1500000Y4260000D02*
X1600000D01*
X1240000D02*
X1340000D01*
X1370000Y4290000D02*
Y4390000D01*
X1210000Y4290000D02*
Y4390000D01*
X1240000Y4420000D02*
X1340000D01*
X1370000Y4440000D02*
Y4540000D01*
X1210000Y4440000D02*
Y4540000D01*
X1240000Y4560000D02*
X1340000D01*
X4260000Y2380000D02*
Y2479968D01*
X4309984D01*
X4326645Y2463306D01*
Y2429984D01*
X4309984Y2413323D01*
X4260000D01*
X4293322D02*
X4326645Y2380000D01*
X4426613Y2479968D02*
X4359968D01*
Y2380000D01*
X4426613D01*
X4359968Y2429984D02*
X4393290D01*
X4526580Y2463306D02*
X4509919Y2479968D01*
X4476597D01*
X4459935Y2463306D01*
Y2396661D01*
X4476597Y2380000D01*
X4509919D01*
X4526580Y2396661D01*
X4746645Y2479968D02*
X4680000D01*
Y2380000D01*
X4746645D01*
X4680000Y2429984D02*
X4713323D01*
X4779968Y2380000D02*
Y2479968D01*
X4813290Y2446645D01*
X4846613Y2479968D01*
Y2380000D01*
X4879936Y2479968D02*
Y2396661D01*
X4896597Y2380000D01*
X4929920D01*
X4946581Y2396661D01*
Y2479968D01*
D77*
X3320000Y2440000D02*
G03*
X3320000Y2400000I0J-20000D01*
G01*
Y2360000D02*
G03*
X3320000Y2400000I0J20000D01*
G01*
Y2440000D02*
G03*
X3320000Y2480000I0J20000D01*
G01*
X3890000Y3740000D02*
G03*
X3890000Y3780000I0J20000D01*
G01*
Y3820000D02*
G03*
X3890000Y3780000I0J-20000D01*
G01*
Y3740000D02*
G03*
X3890000Y3700000I0J-20000D01*
G01*
X2510000Y3890000D02*
G03*
X2470000Y3890000I-20000J0D01*
G01*
X2430000D02*
G03*
X2470000Y3890000I20000J0D01*
G01*
X2510000D02*
G03*
X2550000Y3890000I20000J0D01*
G01*
X2470000Y3530000D02*
G03*
X2510000Y3530000I20000J0D01*
G01*
X2550000D02*
G03*
X2510000Y3530000I-20000J0D01*
G01*
X2470000D02*
G03*
X2430000Y3530000I-20000J0D01*
G01*
X3650000Y2720000D02*
G03*
X3650000Y2680000I0J-20000D01*
G01*
Y2640000D02*
G03*
X3650000Y2680000I0J20000D01*
G01*
Y2720000D02*
G03*
X3650000Y2760000I0J20000D01*
G01*
X5550000Y3370000D02*
G03*
X5550000Y3330000I0J-20000D01*
G01*
Y3290000D02*
G03*
X5550000Y3330000I0J20000D01*
G01*
Y3370000D02*
G03*
X5550000Y3410000I0J20000D01*
G01*
X6280000Y4260000D02*
G03*
X6280000Y4300000I0J20000D01*
G01*
Y4340000D02*
G03*
X6280000Y4300000I0J-20000D01*
G01*
Y4260000D02*
G03*
X6280000Y4220000I0J-20000D01*
G01*
X5930000Y4260000D02*
G03*
X5930000Y4300000I0J20000D01*
G01*
Y4340000D02*
G03*
X5930000Y4300000I0J-20000D01*
G01*
Y4260000D02*
G03*
X5930000Y4220000I0J-20000D01*
G01*
X5550000Y3600000D02*
G03*
X5550000Y3560000I0J-20000D01*
G01*
Y3520000D02*
G03*
X5550000Y3560000I0J20000D01*
G01*
Y3600000D02*
G03*
X5550000Y3640000I0J20000D01*
G01*
X5520000Y4260000D02*
G03*
X5520000Y4300000I0J20000D01*
G01*
Y4340000D02*
G03*
X5520000Y4300000I0J-20000D01*
G01*
Y4260000D02*
G03*
X5520000Y4220000I0J-20000D01*
G01*
X2473000Y1445000D02*
G03*
X2473000Y1445000I-8000J0D01*
G01*
X2393000Y2005000D02*
G03*
X2393000Y2005000I-8000J0D01*
G01*
X2013000Y1805000D02*
G03*
X2013000Y1805000I-8000J0D01*
G01*
X2333000Y2705000D02*
G03*
X2333000Y2705000I-8000J0D01*
G01*
X3548752Y1169342D02*
G03*
X3529037Y1124968I6247J-29342D01*
G01*
X3536093Y1125196D02*
G03*
X3484072Y1124909I-26093J14804D01*
G01*
X3491097Y1125154D02*
G03*
X3471884Y1169151I-26097J14797D01*
G01*
X2919342Y1181248D02*
G03*
X2874968Y1200963I-29342J-6247D01*
G01*
X2875196Y1193907D02*
G03*
X2874909Y1245928I14804J26093D01*
G01*
X2875154Y1238903D02*
G03*
X2919150Y1258116I14797J26097D01*
G01*
X5261248Y1490658D02*
G03*
X5280963Y1535032I-6247J29342D01*
G01*
X5273907Y1534804D02*
G03*
X5325928Y1535091I26093J-14804D01*
G01*
X5318903Y1534846D02*
G03*
X5338116Y1490849I26097J-14797D01*
G01*
X2860658Y1688753D02*
G03*
X2905032Y1669038I29342J6247D01*
G01*
X2904804Y1676093D02*
G03*
X2905091Y1624072I-14804J-26093D01*
G01*
X2904846Y1631097D02*
G03*
X2860849Y1611884I-14797J-26097D01*
G01*
X2515000Y1470000D02*
G03*
X2515000Y1470000I-5000J0D01*
G01*
X5505000Y1120000D02*
G03*
X5505000Y1120000I-5000J0D01*
G01*
X4975000Y1410000D02*
G03*
X4975000Y1410000I-5000J0D01*
G01*
X6198000Y4745000D02*
G03*
X6198000Y4745000I-8000J0D01*
G01*
X2778000D02*
G03*
X2778000Y4745000I-8000J0D01*
G01*
X5878000D02*
G03*
X5878000Y4745000I-8000J0D01*
G01*
X2478000D02*
G03*
X2478000Y4745000I-8000J0D01*
G01*
X1388000D02*
G03*
X1388000Y4745000I-8000J0D01*
G01*
X2365000Y1310000D02*
G03*
X2365000Y1310000I-5000J0D01*
G01*
X8293000Y550000D02*
G03*
X8293000Y550000I-8000J0D01*
G01*
X8303000Y4700000D02*
G03*
X8303000Y4700000I-8000J0D01*
G01*
X7828000Y315000D02*
G03*
X7828000Y315000I-8000J0D01*
G01*
Y5265000D02*
G03*
X7828000Y5265000I-8000J0D01*
G01*
X5330000Y1030410D02*
Y1310086D01*
X5230000Y1030410D02*
X5330000D01*
X5230000D02*
Y1275000D01*
X5265086Y1310086D01*
X5330000D01*
X4980000Y1845606D02*
Y2065000D01*
X5050516Y2135516D01*
X5240000D01*
X4980000Y1845606D02*
X5240000D01*
Y2135516D01*
X3790000Y3844315D02*
X4185000D01*
Y4335311D01*
X3850311D02*
X4185000D01*
X3790000Y4275000D02*
X3850311Y4335311D01*
X3790000Y3844315D02*
Y4275000D01*
X3140000Y3925000D02*
Y4144394D01*
X3069484Y3854484D02*
X3140000Y3925000D01*
X2880000Y3854484D02*
X3069484D01*
X2880000Y4144394D02*
X3140000D01*
X2880000Y3854484D02*
Y4144394D01*
X3165000Y2085000D02*
X3374999D01*
X3164999Y2295000D02*
X3374999D01*
X4044000Y3362500D02*
X4107500D01*
X3772500D02*
X3836000D01*
X4044000Y3697500D02*
X4107500D01*
X3772500D02*
X3836000D01*
X4107500Y3362500D02*
Y3380000D01*
Y3680000D02*
Y3697500D01*
X3772500Y3362500D02*
Y3380000D01*
X2270410Y2150000D02*
X2550086D01*
X2270410D02*
Y2250000D01*
X2515000D01*
X2550086Y2214914D01*
Y2150000D02*
Y2214914D01*
X3084185Y3669655D02*
X3170000D01*
X3050000Y3635470D02*
X3084185Y3669655D01*
X3050000Y3390564D02*
Y3635470D01*
X3170000Y3390564D02*
Y3669655D01*
X3050000Y3390564D02*
X3170000D01*
X3710000Y2814315D02*
X4105000D01*
Y3305311D01*
X3770311D02*
X4105000D01*
X3710000Y3245000D02*
X3770311Y3305311D01*
X3710000Y2814315D02*
Y3245000D01*
X2915000Y2920000D02*
X3134394D01*
X2844484Y2990515D02*
X2915000Y2920000D01*
X2844484Y2990515D02*
Y3180000D01*
X3134394Y2920000D02*
Y3180000D01*
X2844484D02*
X3134394D01*
X6115606Y3660000D02*
X6335000D01*
X6405516Y3589484D01*
Y3400000D02*
Y3589484D01*
X6115606Y3400000D02*
Y3660000D01*
Y3400000D02*
X6405516D01*
X3536000Y1322500D02*
X3597500D01*
X3262499D02*
X3323999D01*
X3536000Y1657500D02*
X3597500D01*
X3262499D02*
X3323999D01*
X3597500Y1322500D02*
Y1340000D01*
Y1640000D02*
Y1657500D01*
X3262499Y1322500D02*
Y1340000D01*
X7222188Y3879964D02*
X7410000D01*
X7170000Y3827776D02*
X7222188Y3879964D01*
X7170000Y3599727D02*
Y3827776D01*
X7410000Y3599727D02*
Y3879964D01*
X7170000Y3599727D02*
X7410000D01*
X7536000Y2782500D02*
X7597500D01*
X7262500D02*
X7324000D01*
X7536000Y3117500D02*
X7597500D01*
X7262500D02*
X7324000D01*
X7597500Y2782500D02*
Y2800000D01*
Y3100000D02*
Y3117500D01*
X7262500Y2782500D02*
Y2800000D01*
X7536000Y902500D02*
X7597500D01*
X7262500D02*
X7324000D01*
X7536000Y1237500D02*
X7597500D01*
X7262500D02*
X7324000D01*
X7597500Y902500D02*
Y920000D01*
Y1220000D02*
Y1237500D01*
X7262500Y902500D02*
Y920000D01*
X7536000Y1652500D02*
X7597500D01*
X7262500D02*
X7324000D01*
X7536000Y1987500D02*
X7597500D01*
X7262500D02*
X7324000D01*
X7597500Y1652500D02*
Y1670000D01*
Y1970000D02*
Y1987500D01*
X7262500Y1652500D02*
Y1670000D01*
X7536000Y1282500D02*
X7597500D01*
X7262500D02*
X7324000D01*
X7536000Y1617500D02*
X7597500D01*
X7262500D02*
X7324000D01*
X7597500Y1282500D02*
Y1300000D01*
Y1600000D02*
Y1617500D01*
X7262500Y1282500D02*
Y1300000D01*
X7255000Y3290668D02*
X7345000D01*
Y3490218D01*
X7275218D02*
X7345000D01*
X7255000Y3470000D02*
X7275218Y3490218D01*
X7255000Y3290668D02*
Y3470000D01*
X6145000Y1285000D02*
X6217500D01*
X6362500D02*
X6435000D01*
Y1262500D02*
Y1285000D01*
Y795000D02*
Y817500D01*
X6362500Y795000D02*
X6435000D01*
X6145000D02*
Y817500D01*
Y795000D02*
X6217500D01*
X7536000Y2022500D02*
X7597500D01*
X7262500D02*
X7324000D01*
X7536000Y2357500D02*
X7597500D01*
X7262500D02*
X7324000D01*
X7597500Y2022500D02*
Y2040000D01*
Y2340000D02*
Y2357500D01*
X7262500Y2022500D02*
Y2040000D01*
X7162500Y4437500D02*
X7224000D01*
X7436000D02*
X7497500D01*
X7162500Y4102500D02*
X7224000D01*
X7436000D02*
X7497500D01*
X7162500Y4420000D02*
Y4437500D01*
Y4102500D02*
Y4120000D01*
X7497500Y4420000D02*
Y4437500D01*
X7536000Y2402500D02*
X7597500D01*
X7262500D02*
X7324000D01*
X7536000Y2737500D02*
X7597500D01*
X7262500D02*
X7324000D01*
X7597500Y2402500D02*
Y2420000D01*
Y2720000D02*
Y2737500D01*
X7262500Y2402500D02*
Y2420000D01*
X6135000Y2145000D02*
X6207500D01*
X6352500D02*
X6425000D01*
Y2122500D02*
Y2145000D01*
Y1655000D02*
Y1677500D01*
X6352500Y1655000D02*
X6425000D01*
X6135000D02*
Y1677500D01*
Y1655000D02*
X6207500D01*
X5265000Y3245685D02*
X5660000D01*
X5265000Y2754689D02*
Y3245685D01*
Y2754689D02*
X5599689D01*
X5660000Y2815000D01*
Y3245685D01*
X5730000Y3965000D02*
Y4184394D01*
X5659484Y3894484D02*
X5730000Y3965000D01*
X5470000Y3894484D02*
X5659484D01*
X5470000Y4184394D02*
X5730000D01*
X5470000Y3894484D02*
Y4184394D01*
X4822500Y3812500D02*
Y3876000D01*
Y4084000D02*
Y4147500D01*
X5157500Y3812500D02*
Y3876000D01*
Y4084000D02*
Y4147500D01*
X4822500Y3812500D02*
X4840000D01*
X5140000D02*
X5157500D01*
X4822500Y4147500D02*
X4840000D01*
X3278234Y2361393D02*
Y2479420D01*
X3261694Y2462692D02*
X3278234Y2479233D01*
X3261125Y2435252D02*
X3277666Y2451793D01*
X3261694Y2402834D02*
X3278234Y2419374D01*
X3260190Y2370228D02*
X3276731Y2386769D01*
X3931766Y3700580D02*
Y3818607D01*
Y3700767D02*
X3948306Y3717308D01*
X3932335Y3728207D02*
X3948875Y3744748D01*
X3931766Y3760626D02*
X3948306Y3777166D01*
X3933269Y3793231D02*
X3949810Y3809772D01*
X2431393Y3931766D02*
X2549420D01*
X2532692Y3948306D02*
X2549233Y3931766D01*
X2505252Y3948875D02*
X2521793Y3932335D01*
X2472834Y3948306D02*
X2489374Y3931766D01*
X2440228Y3949810D02*
X2456769Y3933269D01*
X2430580Y3488235D02*
X2548607D01*
X2430767D02*
X2447308Y3471694D01*
X2458207Y3487666D02*
X2474748Y3471125D01*
X2490626Y3488235D02*
X2507166Y3471694D01*
X2523231Y3486731D02*
X2539772Y3470190D01*
X3608234Y2641393D02*
Y2759420D01*
X3591694Y2742692D02*
X3608234Y2759233D01*
X3591125Y2715252D02*
X3607665Y2731793D01*
X3591694Y2682834D02*
X3608234Y2699374D01*
X3590190Y2650228D02*
X3606731Y2666769D01*
X5508235Y3291393D02*
Y3409420D01*
X5491694Y3392692D02*
X5508235Y3409233D01*
X5491125Y3365252D02*
X5507666Y3381793D01*
X5491694Y3332834D02*
X5508235Y3349374D01*
X5490190Y3300228D02*
X5506731Y3316769D01*
X6321766Y4220580D02*
Y4338607D01*
Y4220767D02*
X6338306Y4237308D01*
X6322335Y4248207D02*
X6338875Y4264748D01*
X6321766Y4280626D02*
X6338306Y4297166D01*
X6323269Y4313231D02*
X6339810Y4329772D01*
X5971766Y4220580D02*
Y4338607D01*
Y4220767D02*
X5988306Y4237308D01*
X5972335Y4248207D02*
X5988875Y4264748D01*
X5971766Y4280626D02*
X5988306Y4297166D01*
X5973269Y4313231D02*
X5989810Y4329772D01*
X5508235Y3521393D02*
Y3639420D01*
X5491694Y3622692D02*
X5508235Y3639233D01*
X5491125Y3595252D02*
X5507666Y3611793D01*
X5491694Y3562834D02*
X5508235Y3579374D01*
X5490190Y3530228D02*
X5506731Y3546769D01*
X5561765Y4220580D02*
Y4338607D01*
Y4220767D02*
X5578306Y4237308D01*
X5562334Y4248207D02*
X5578875Y4264748D01*
X5561765Y4280626D02*
X5578306Y4297166D01*
X5563269Y4313231D02*
X5579810Y4329772D01*
X2305000Y1620000D02*
Y1670000D01*
X2395000D01*
X2305000Y1450000D02*
Y1500000D01*
Y1450000D02*
X2395000D01*
X2545000Y1780000D02*
Y1830000D01*
X2455000Y1780000D02*
X2545000D01*
Y1950000D02*
Y2000000D01*
X2455000D02*
X2545000D01*
X1780000Y1645000D02*
X1830000D01*
X1780000D02*
Y1735000D01*
X1950000Y1645000D02*
X2000000D01*
Y1735000D01*
X2485000Y2480000D02*
Y2530000D01*
X2395000Y2480000D02*
X2485000D01*
Y2650000D02*
Y2700000D01*
X2395000D02*
X2485000D01*
X4995000Y720000D02*
Y760000D01*
X5045000Y720000D02*
Y760000D01*
X4975000Y4700000D02*
Y4740000D01*
X4925000Y4700000D02*
Y4740000D01*
X4855000Y720000D02*
Y760000D01*
X4905000Y720000D02*
Y760000D01*
X4045000Y730000D02*
Y770000D01*
X4095000Y730000D02*
Y770000D01*
X3955000Y730000D02*
Y770000D01*
X3905000Y730000D02*
Y770000D01*
X4025000Y4700000D02*
Y4740000D01*
X3975000Y4700000D02*
Y4740000D01*
X4105000Y4700000D02*
Y4740000D01*
X4155000Y4700000D02*
Y4740000D01*
X3665000Y4700000D02*
Y4740000D01*
X3615000Y4700000D02*
Y4740000D01*
X3745000Y4700000D02*
Y4740000D01*
X3795000Y4700000D02*
Y4740000D01*
X7535000Y4700000D02*
Y4740000D01*
X7485000Y4700000D02*
Y4740000D01*
X7595000Y4700000D02*
Y4740000D01*
X7645000Y4700000D02*
Y4740000D01*
X7275000Y4700000D02*
Y4740000D01*
X7225000Y4700000D02*
Y4740000D01*
X7335000Y4700000D02*
Y4740000D01*
X7385000Y4700000D02*
Y4740000D01*
X7025000Y4700000D02*
Y4740000D01*
X6975000Y4700000D02*
Y4740000D01*
X7085000Y4700000D02*
Y4740000D01*
X7135000Y4700000D02*
Y4740000D01*
X6765000Y4700000D02*
Y4740000D01*
X6715000Y4700000D02*
Y4740000D01*
X6825000Y4700000D02*
Y4740000D01*
X6875000Y4700000D02*
Y4740000D01*
X5565000Y4700000D02*
Y4740000D01*
X5615000Y4700000D02*
Y4740000D01*
X5305000Y4700000D02*
Y4740000D01*
X5355000Y4700000D02*
Y4740000D01*
X6810000Y1695000D02*
X6850000D01*
X6810000Y1645000D02*
X6850000D01*
X6570000Y1695000D02*
X6610000D01*
X6570000Y1645000D02*
X6610000D01*
X4825000Y4700000D02*
Y4740000D01*
X4875000Y4700000D02*
Y4740000D01*
X5595000Y720000D02*
Y760000D01*
X5545000Y720000D02*
Y760000D01*
X5435000Y720000D02*
Y760000D01*
X5485000Y720000D02*
Y760000D01*
X3895000Y1600000D02*
Y1640000D01*
X3945000Y1600000D02*
Y1640000D01*
X5070000Y4305000D02*
X5110000D01*
X5070000Y4255000D02*
X5110000D01*
X5275000Y4180000D02*
Y4220000D01*
X5225000Y4180000D02*
Y4220000D01*
X3750000Y1645000D02*
X3790000D01*
X3750000Y1695000D02*
X3790000D01*
X3750000Y1595000D02*
X3790000D01*
X3750000Y1545000D02*
X3790000D01*
X3974999Y1350000D02*
Y1390000D01*
X3925000Y1350000D02*
Y1390000D01*
X2970000Y2675000D02*
X3030000D01*
X2970000Y2725000D02*
X3030000D01*
X6975000Y3610000D02*
Y3650000D01*
X7025000Y3610000D02*
Y3650000D01*
X7610000Y3695000D02*
X7650000D01*
X7610000Y3745000D02*
X7650000D01*
X6820000Y1235000D02*
X6860000D01*
X6820000Y1185000D02*
X6860000D01*
X6580000Y1235000D02*
X6619999D01*
X6580000Y1185000D02*
X6619999D01*
X6820000Y835000D02*
X6859999D01*
X6820000Y785000D02*
X6859999D01*
X6580000Y835000D02*
X6619999D01*
X6580000Y785000D02*
X6619999D01*
X6820000Y935000D02*
X6860000D01*
X6820000Y885000D02*
X6860000D01*
X6580000Y935000D02*
X6619999D01*
X6580000Y885000D02*
X6619999D01*
X6820000Y1035000D02*
X6860000D01*
X6820000Y985000D02*
X6860000D01*
X6580000Y1035000D02*
X6620000D01*
X6580000Y985000D02*
X6620000D01*
X6820000Y1135000D02*
X6860000D01*
X6820000Y1085000D02*
X6860000D01*
X6580000Y1135000D02*
X6620000D01*
X6580000Y1085000D02*
X6620000D01*
X6810000Y1795000D02*
X6850000D01*
X6810000Y1745000D02*
X6850000D01*
X6570000Y1795000D02*
X6610000D01*
X6570000Y1745000D02*
X6610000D01*
X6810000Y1895000D02*
X6850000D01*
X6810000Y1845000D02*
X6850000D01*
X6570000Y1895000D02*
X6610000D01*
X6570000Y1845000D02*
X6610000D01*
X6810000Y1995000D02*
X6850000D01*
X6810000Y1945000D02*
X6850000D01*
X6570000Y1995000D02*
X6610000D01*
X6570000Y1945000D02*
X6610000D01*
X6810000Y2095000D02*
X6850000D01*
X6810000Y2045000D02*
X6850000D01*
X6570000Y2095000D02*
X6610000D01*
X6570000Y2045000D02*
X6610000D01*
X5205000Y4700000D02*
Y4740000D01*
X5255000Y4700000D02*
Y4740000D01*
X4205000Y730000D02*
Y770000D01*
X4155000Y730000D02*
Y770000D01*
X3845000Y730000D02*
Y770000D01*
X3795000Y730000D02*
Y770000D01*
X5155000Y720000D02*
Y760000D01*
X5105000Y720000D02*
Y760000D01*
X4795000Y720000D02*
Y760000D01*
X4745000Y720000D02*
Y760000D01*
X3845000Y4700000D02*
Y4740000D01*
X3895000Y4700000D02*
Y4740000D01*
X3515000Y4700000D02*
Y4740000D01*
X3565000Y4700000D02*
Y4740000D01*
X4205000Y4700000D02*
Y4740000D01*
X4255000Y4700000D02*
Y4740000D01*
X2310000Y1355000D02*
X2350000D01*
X2310000Y1405000D02*
X2350000D01*
X1870000Y1915000D02*
X1910000D01*
X1870000Y1865000D02*
X1910000D01*
X1955000Y1430000D02*
Y1470000D01*
X1905000Y1430000D02*
Y1470000D01*
X1795000Y1430000D02*
Y1470000D01*
X1845000Y1430000D02*
Y1470000D01*
X3435000Y4700000D02*
Y4740000D01*
X3385000Y4700000D02*
Y4740000D01*
X6045000Y3580000D02*
Y3640000D01*
X5995000Y3580000D02*
Y3640000D01*
X5370000Y2335000D02*
X5410000D01*
X5370000Y2285001D02*
X5410000D01*
X2185000Y2070000D02*
Y2110000D01*
X2235000Y2070000D02*
Y2110000D01*
X5005000Y1260000D02*
Y1300000D01*
X5055000Y1260000D02*
Y1300000D01*
X2235000Y2280000D02*
Y2320000D01*
X2185000Y2280000D02*
Y2320000D01*
X5005000Y1060000D02*
Y1100000D01*
X5055000Y1060000D02*
Y1100000D01*
X2275000Y1870000D02*
Y1910000D01*
X2325000Y1870000D02*
Y1910000D01*
X5685000Y720000D02*
Y760000D01*
X5735000Y720000D02*
Y760000D01*
X3590000Y3635000D02*
X3630000D01*
X3590000Y3685000D02*
X3630000D01*
X3000000Y4285000D02*
X3040000D01*
X3000000Y4335000D02*
X3040000D01*
X4425000Y3910000D02*
Y3950000D01*
X4375000Y3910000D02*
Y3950000D01*
X2845000Y4240000D02*
Y4280000D01*
X2895000Y4240000D02*
Y4280000D01*
X3475000Y3860000D02*
Y3900000D01*
X3425000Y3860000D02*
Y3900000D01*
X5695000Y4700000D02*
Y4740000D01*
X5745000Y4700000D02*
Y4740000D01*
X3155000Y4700000D02*
Y4740000D01*
X3205000Y4700000D02*
Y4740000D01*
X5435000Y4700000D02*
Y4740000D01*
X5485000Y4700000D02*
Y4740000D01*
X3055000Y4700000D02*
Y4740000D01*
X3105000Y4700000D02*
Y4740000D01*
X2794998Y2149998D02*
Y2189998D01*
X2744998Y2149998D02*
Y2189998D01*
X3554999Y2120000D02*
Y2159999D01*
X3505000Y2120000D02*
Y2159999D01*
X4295000Y730000D02*
Y770000D01*
X4345000Y730000D02*
Y770000D01*
X4405000Y730000D02*
Y770000D01*
X4455000Y730000D02*
Y770000D01*
X3285000Y4700000D02*
Y4740000D01*
X3335000Y4700000D02*
Y4740000D01*
X2904999Y2150000D02*
Y2189999D01*
X2854999Y2150000D02*
Y2189999D01*
X2965003Y2249998D02*
Y2289998D01*
X3015003Y2249998D02*
Y2289998D01*
X3590000Y3405000D02*
X3630000D01*
X3590000Y3455000D02*
X3630000D01*
X4250000Y3415000D02*
X4290000D01*
X4250000Y3365000D02*
X4290000D01*
X3590000Y3505000D02*
X3630000D01*
X3590000Y3555000D02*
X3630000D01*
X4350000Y2985000D02*
X4390000D01*
X4350000Y2935000D02*
X4390000D01*
X4970000Y3125000D02*
X5010000D01*
X4970000Y3075000D02*
X5010000D01*
X4875000Y3640000D02*
Y3680000D01*
X4825000Y3640000D02*
Y3680000D01*
X3890000Y2665000D02*
X3930000D01*
X3890000Y2715000D02*
X3930000D01*
X2810000Y3665000D02*
X2850000D01*
X2810000Y3715000D02*
X2850000D01*
X2810000Y3565000D02*
X2850000D01*
X2810000Y3615000D02*
X2850000D01*
X2480000Y2930000D02*
Y3030000D01*
X2360000Y2930000D02*
Y3030000D01*
X2810000Y3365000D02*
X2850000D01*
X2810000Y3415000D02*
X2850000D01*
X4250000Y2665000D02*
X4290000D01*
X4250000Y2715000D02*
X4290000D01*
X7540000Y3385000D02*
X7580000D01*
X7540000Y3435000D02*
X7580000D01*
X6465000Y1400000D02*
Y1440000D01*
X6415000Y1400000D02*
Y1440000D01*
X7540000Y3535000D02*
X7580000D01*
X7540000Y3485000D02*
X7580000D01*
X6465000Y2270000D02*
Y2310000D01*
X6415000Y2270000D02*
Y2310000D01*
X4865000Y3160000D02*
Y3200000D01*
X4815000Y3160000D02*
Y3200000D01*
X6200000Y4010000D02*
X6300000D01*
X6200000Y3890000D02*
X6300000D01*
X6270000Y4105000D02*
X6310000D01*
X6270000Y4155000D02*
X6310000D01*
X4830000Y4235000D02*
X4870000D01*
X4830000Y4285000D02*
X4870000D01*
X5525000Y3740000D02*
Y3780000D01*
X5475000Y3740000D02*
Y3780000D01*
X5565000Y3740000D02*
Y3780000D01*
X5615000Y3740000D02*
Y3780000D01*
X3128000Y70500D02*
X3174854D01*
X3130003Y564500D02*
X3174252D01*
X3175000Y55500D02*
Y579500D01*
X4445146Y564500D02*
X4492000D01*
X4445748Y70500D02*
X4489997D01*
X4445000Y55500D02*
Y579500D01*
X4398000Y70500D02*
X4444854D01*
X4400003Y564500D02*
X4444252D01*
X4445000Y55500D02*
Y579500D01*
X5715146Y564500D02*
X5762000D01*
X5715748Y70500D02*
X5759997D01*
X5715000Y55500D02*
Y579500D01*
X5668000Y70500D02*
X5714854D01*
X5670003Y564500D02*
X5714252D01*
X5715000Y55500D02*
Y579500D01*
X6985146Y564500D02*
X7032000D01*
X6985748Y70500D02*
X7029997D01*
X6985000Y55500D02*
Y579500D01*
X6938000Y70500D02*
X6984854D01*
X6940003Y564500D02*
X6984252D01*
X6985000Y55500D02*
Y579500D01*
X7700000Y70500D02*
X7767000D01*
X7702003Y564500D02*
X7767000D01*
Y55500D02*
Y579500D01*
X3175146Y564500D02*
X3222000D01*
X3175748Y70500D02*
X3219997D01*
X3175000Y55500D02*
Y579500D01*
X1890000Y564500D02*
X1952000D01*
X1890000Y55500D02*
Y579500D01*
Y70500D02*
X1949997D01*
X3128000Y4896500D02*
X3174854D01*
X3130003Y5390500D02*
X3174252D01*
X3175000Y4881500D02*
Y5405500D01*
X4445146Y5390500D02*
X4492000D01*
X4445748Y4896500D02*
X4489997D01*
X4445000Y4881500D02*
Y5405500D01*
X4398000Y4896500D02*
X4444854D01*
X4400003Y5390500D02*
X4444252D01*
X4445000Y4881500D02*
Y5405500D01*
X5715146Y5390500D02*
X5762000D01*
X5715748Y4896500D02*
X5759997D01*
X5715000Y4881500D02*
Y5405500D01*
X5668000Y4896500D02*
X5714854D01*
X5670003Y5390500D02*
X5714252D01*
X5715000Y4881500D02*
Y5405500D01*
X6985146Y5390500D02*
X7032000D01*
X6985748Y4896500D02*
X7029997D01*
X6985000Y4881500D02*
Y5405500D01*
X6938000Y4896500D02*
X6984854D01*
X6940003Y5390500D02*
X6984252D01*
X6985000Y4881500D02*
Y5405500D01*
X7700000Y4896500D02*
X7767000D01*
X7702003Y5390500D02*
X7767000D01*
Y4881500D02*
Y5405500D01*
X3175146Y5390500D02*
X3222000D01*
X3175748Y4896500D02*
X3219997D01*
X3175000Y4881500D02*
Y5405500D01*
X1890000Y5390500D02*
X1952000D01*
X1890000Y4881500D02*
Y5405500D01*
Y4896500D02*
X1949997D01*
X8008000Y1333946D02*
Y1380800D01*
X8502000Y1334548D02*
Y1378797D01*
X7993000Y1333800D02*
X8517000D01*
X8502000Y1286800D02*
Y1333654D01*
X8008000Y1288803D02*
Y1333052D01*
X7993000Y1333800D02*
X8517000D01*
X8502000Y2556800D02*
Y2603654D01*
X8008000Y2558803D02*
Y2603052D01*
X7993000Y2603800D02*
X8517000D01*
X8008000Y825946D02*
Y872800D01*
X8502000Y826548D02*
Y870797D01*
X7993000Y825800D02*
X8517000D01*
X8008000Y3365946D02*
Y3412800D01*
X8502000Y3366548D02*
Y3410797D01*
X7993000Y3365800D02*
X8517000D01*
X8502000Y3318800D02*
Y3365654D01*
X8008000Y3320803D02*
Y3365052D01*
X7993000Y3365800D02*
X8517000D01*
X8502000Y4588800D02*
Y4635654D01*
X8008000Y4590803D02*
Y4635052D01*
X7993000Y4635800D02*
X8517000D01*
X8008000Y2857946D02*
Y2904800D01*
X8502000Y2858548D02*
Y2902797D01*
X7993000Y2857800D02*
X8517000D01*
X1080000Y975000D02*
Y1875000D01*
X1580000Y1700000D02*
Y1875000D01*
X1080000Y975000D02*
X1160000D01*
X1120000D02*
Y1874821D01*
X1080000Y1875000D02*
X1159648D01*
X1380000D02*
X1580000D01*
Y975000D02*
Y1155000D01*
X1380000Y975000D02*
X1580000D01*
X1905000Y4123400D02*
Y4647400D01*
X1905748Y4138400D02*
X1949997D01*
X1905146Y4632400D02*
X1952000D01*
X2413000Y4123400D02*
Y4647400D01*
X2368003Y4632400D02*
X2412252D01*
X2366000Y4138400D02*
X2412854D01*
X2905000Y2565000D02*
X3095000D01*
X3500000D02*
X3690000D01*
X4100000D02*
X4290000D01*
X4550000Y2825000D02*
Y3015000D01*
Y3420000D02*
Y3610000D01*
Y4020000D02*
Y4210000D01*
X4100000Y4470000D02*
X4290000D01*
X3505000D02*
X3695000D01*
X2905000D02*
X3095000D01*
X2645000Y4020000D02*
Y4210000D01*
Y3425000D02*
Y3615000D01*
Y2825000D02*
Y3015000D01*
X4925000Y2567500D02*
X5115000D01*
X5520000D02*
X5710000D01*
X6120000D02*
X6310000D01*
X6570000Y2827500D02*
Y3017500D01*
Y3422500D02*
Y3612500D01*
Y4022500D02*
Y4212500D01*
X6120000Y4472500D02*
X6310000D01*
X5525000D02*
X5715000D01*
X4925000D02*
X5115000D01*
X4665000Y4022500D02*
Y4212500D01*
Y3427500D02*
Y3617500D01*
Y2827500D02*
Y3017500D01*
X3440000Y1290000D02*
X3580000D01*
X3440000Y990000D02*
X3580000D01*
X3040000Y1150000D02*
Y1290000D01*
X2740000Y1150000D02*
Y1290000D01*
X5230000Y1370000D02*
X5370000D01*
X5230000Y1670000D02*
X5370000D01*
X2740000Y1580000D02*
Y1720000D01*
X3040000Y1580000D02*
Y1720000D01*
X1770000Y175000D02*
Y865000D01*
X1090000Y175000D02*
X1770000D01*
X1090000D02*
Y865000D01*
X1770000D01*
X1115000Y175000D02*
Y865000D01*
X2310000Y3519894D02*
Y3570000D01*
Y3519894D02*
X2369894Y3460000D01*
X2310000Y3479894D02*
Y3519894D01*
X2250106Y3460000D02*
X2369894D01*
X2250106D02*
X2309878Y3519772D01*
X2250000Y3519894D02*
X2365000D01*
X2310000Y3410000D02*
Y3479894D01*
X5550000Y2135001D02*
X5650000D01*
X5550000Y2165000D02*
X5650000D01*
X5600073D02*
Y2205000D01*
X5600000Y2135001D02*
X5600073Y2095001D01*
X4810000Y1215000D02*
X4910000D01*
X4810000Y1185000D02*
X4910000D01*
X4859927Y1145000D02*
Y1185000D01*
Y1255000D02*
X4860000Y1215000D01*
X3995000Y1775000D02*
Y1845000D01*
X4025000Y1775000D02*
Y1845000D01*
Y1810000D02*
X4040000D01*
X3980000D02*
X3995000D01*
X5545000Y1485000D02*
X5615000D01*
X5545000Y1515000D02*
X5615000D01*
X5580000D02*
Y1530000D01*
Y1470000D02*
Y1485000D01*
X5535000Y1825000D02*
Y1895000D01*
X5565000Y1825000D02*
Y1895000D01*
Y1860000D02*
X5580000D01*
X5520000D02*
X5535000D01*
X4635000Y1945000D02*
X4705000D01*
X4635000Y1975000D02*
X4705000D01*
X4670000D02*
Y1990000D01*
Y1930000D02*
Y1945000D01*
X3505000Y4135000D02*
Y4205000D01*
X3475000Y4135000D02*
Y4205000D01*
X3460000Y4170000D02*
X3475000D01*
X3505000D02*
X3520000D01*
X3505000Y4005000D02*
Y4075000D01*
X3475000Y4005000D02*
Y4075000D01*
X3460000Y4040000D02*
X3475000D01*
X3505000D02*
X3520000D01*
X2195000Y1225000D02*
Y1295000D01*
X2165000Y1225000D02*
Y1295000D01*
X2150000Y1260000D02*
X2165000D01*
X2195000D02*
X2210000D01*
X3425000Y3055000D02*
Y3125000D01*
X3395000Y3055000D02*
Y3125000D01*
X3380000Y3090000D02*
X3395000D01*
X3425000D02*
X3440000D01*
X3425000Y2815000D02*
Y2885000D01*
X3395000Y2815000D02*
Y2885000D01*
X3380000Y2850000D02*
X3395000D01*
X3425000D02*
X3440000D01*
X4185000Y1570000D02*
Y1670000D01*
X4214999Y1570000D02*
Y1670000D01*
Y1619927D02*
X4254999D01*
X4145000D02*
X4185000Y1620000D01*
X4335000Y955000D02*
Y1025000D01*
X4365000Y955000D02*
Y1025000D01*
Y990000D02*
X4380000D01*
X4320000D02*
X4335000D01*
X4260000Y1265000D02*
X4360000D01*
X4260000Y1295000D02*
X4360000D01*
X4310073D02*
Y1335000D01*
X4310000Y1265000D02*
X4310073Y1225000D01*
X3965000Y1110000D02*
Y1210000D01*
X3995000Y1110000D02*
Y1210000D01*
Y1159927D02*
X4035000D01*
X3925000D02*
X3965000Y1160000D01*
X3855000Y1930000D02*
Y2030000D01*
X3885000Y1930000D02*
Y2030000D01*
Y1979927D02*
X3925000D01*
X3815000D02*
X3855000Y1980000D01*
X3225000Y1815000D02*
X3295000D01*
X3225000Y1845000D02*
X3295000D01*
X3260000D02*
Y1860000D01*
Y1800000D02*
Y1815000D01*
X3095000Y1645000D02*
X3165000D01*
X3095000Y1675000D02*
X3165000D01*
X3130000D02*
Y1690000D01*
Y1630000D02*
Y1645000D01*
X2405000Y805000D02*
X2475000D01*
X2405000Y775000D02*
X2475000D01*
X2440000Y760000D02*
Y775000D01*
Y805000D02*
Y820000D01*
X7525000Y645000D02*
Y715000D01*
X7555000Y645000D02*
Y715000D01*
Y680000D02*
X7570000D01*
X7510000D02*
X7525000D01*
X2615000Y1295000D02*
X2685000D01*
X2615000Y1265000D02*
X2685000D01*
X2650000Y1250000D02*
Y1265000D01*
Y1295000D02*
Y1310000D01*
X2705000Y805000D02*
X2775000D01*
X2705000Y775000D02*
X2775000D01*
X2740000Y760000D02*
Y775000D01*
Y805000D02*
Y820000D01*
X4615000Y4715000D02*
Y4785000D01*
X4585000Y4715000D02*
Y4785000D01*
X4570000Y4750000D02*
X4585000D01*
X4615000D02*
X4630000D01*
X2105000Y805000D02*
X2175000D01*
X2105000Y775000D02*
X2175000D01*
X2140000Y760000D02*
Y775000D01*
Y805000D02*
Y820000D01*
X5975000Y2925000D02*
Y2995000D01*
X6005000Y2925000D02*
Y2995000D01*
Y2960000D02*
X6020000D01*
X5960000D02*
X5975000D01*
X5875000Y3245000D02*
X5945000D01*
X5875000Y3275000D02*
X5945000D01*
X5910000D02*
Y3290000D01*
Y3230000D02*
Y3245000D01*
X3797047Y3285992D02*
X3827046Y3255992D01*
X3767046D02*
X3797046Y3285992D01*
Y3215992D02*
Y3285992D01*
X8010000Y370000D02*
X8040000Y340000D01*
X8040000D02*
X8070000Y370000D01*
X8040000Y340000D02*
Y410000D01*
X8030000Y5150000D02*
X8060000Y5120000D01*
X8000000D02*
X8030000Y5150000D01*
Y5080000D02*
Y5150000D01*
X8290000Y4990000D02*
X8320000Y4960000D01*
X8320000D02*
X8350000Y4990000D01*
X8320000Y4960000D02*
Y5030000D01*
X8310000Y440000D02*
Y510000D01*
X8280000Y480000D02*
X8310000Y510000D01*
X8310000D02*
X8340000Y480000D01*
X1868316Y5231000D02*
X1815000D01*
X1868316Y5284316D01*
Y5297645D01*
X1854987Y5310974D01*
X1828329D01*
X1815000Y5297645D01*
X1868316Y4472901D02*
X1815000D01*
X1868316Y4526217D01*
Y4539546D01*
X1854987Y4552875D01*
X1828329D01*
X1815000Y4539546D01*
X1835000Y4975000D02*
X1861658D01*
X1848329D01*
Y5054974D01*
X1835000Y5041645D01*
Y4215000D02*
X1861658D01*
X1848329D01*
Y4294974D01*
X1835000Y4281645D01*
X1705000Y755000D02*
X1731658D01*
X1718329D01*
Y834974D01*
X1705000Y821645D01*
X1868316Y405000D02*
X1815000D01*
X1868316Y458316D01*
Y471645D01*
X1854987Y484974D01*
X1828329D01*
X1815000Y471645D01*
X1835000Y135000D02*
X1861658D01*
X1848329D01*
Y214974D01*
X1835000Y201645D01*
X8055000Y2635000D02*
X8081658D01*
X8068329D01*
Y2714974D01*
X8055000Y2701645D01*
X7925000Y4505000D02*
X7951658D01*
X7938329D01*
Y4584974D01*
X7925000Y4571645D01*
X2925000Y2385000D02*
Y2438316D01*
X2964987D01*
X2978316Y2424987D01*
Y2385000D01*
X3004974Y2464974D02*
Y2385000D01*
X3031632Y2411658D01*
X3058290Y2385000D01*
Y2464974D01*
X3084948Y2385000D02*
Y2464974D01*
X3124935D01*
X3138264Y2451645D01*
Y2424987D01*
X3124935Y2411658D01*
X3084948D01*
X4768316Y1514974D02*
X4741658Y1501645D01*
X4715000Y1474987D01*
Y1448329D01*
X4728329Y1435000D01*
X4754987D01*
X4768316Y1448329D01*
Y1461658D01*
X4754987Y1474987D01*
X4715000D01*
X4794974Y1514974D02*
Y1461658D01*
X4821632Y1435000D01*
X4848290Y1461658D01*
Y1514974D01*
X4155000Y1735000D02*
X4181658D01*
X4168329D01*
Y1814974D01*
X4155000Y1801645D01*
X4221645D02*
X4234974Y1814974D01*
X4261632D01*
X4274961Y1801645D01*
Y1748329D01*
X4261632Y1735000D01*
X4234974D01*
X4221645Y1748329D01*
Y1801645D01*
X4301619Y1814974D02*
Y1761658D01*
X4328277Y1735000D01*
X4354935Y1761658D01*
Y1814974D01*
X4405000Y1104987D02*
X4458316D01*
X4538290Y1144974D02*
X4511632Y1131645D01*
X4484974Y1104987D01*
Y1078329D01*
X4498303Y1065000D01*
X4524961D01*
X4538290Y1078329D01*
Y1091658D01*
X4524961Y1104987D01*
X4484974D01*
X4564948Y1144974D02*
Y1091658D01*
X4591606Y1065000D01*
X4618264Y1091658D01*
Y1144974D01*
X5705000Y2075000D02*
Y2128316D01*
X5731658Y2154974D01*
X5758316Y2128316D01*
Y2075000D01*
Y2114987D01*
X5705000D01*
X5838290Y2154974D02*
X5784974D01*
Y2114987D01*
X5811632Y2128316D01*
X5824961D01*
X5838290Y2114987D01*
Y2088329D01*
X5824961Y2075000D01*
X5798303D01*
X5784974Y2088329D01*
X5864948Y2154974D02*
Y2101658D01*
X5891606Y2075000D01*
X5918264Y2101658D01*
Y2154974D01*
X8145000Y414974D02*
X8171658D01*
X8158329D01*
Y335000D01*
X8145000D01*
X8171658D01*
X8251632Y414974D02*
X8224974D01*
X8211645Y401645D01*
Y348329D01*
X8224974Y335000D01*
X8251632D01*
X8264961Y348329D01*
Y401645D01*
X8251632Y414974D01*
X7838316Y401645D02*
X7824987Y414974D01*
X7798329D01*
X7785000Y401645D01*
Y388316D01*
X7798329Y374987D01*
X7824987D01*
X7838316Y361658D01*
Y348329D01*
X7824987Y335000D01*
X7798329D01*
X7785000Y348329D01*
X7918290Y414974D02*
X7864974D01*
Y335000D01*
X7918290D01*
X7864974Y374987D02*
X7891632D01*
X7944948Y414974D02*
Y335000D01*
X7998264D01*
X7848316Y5111645D02*
X7834987Y5124974D01*
X7808329D01*
X7795000Y5111645D01*
Y5098316D01*
X7808329Y5084987D01*
X7834987D01*
X7848316Y5071658D01*
Y5058329D01*
X7834987Y5045000D01*
X7808329D01*
X7795000Y5058329D01*
X7928290Y5124974D02*
X7874974D01*
Y5045000D01*
X7928290D01*
X7874974Y5084987D02*
X7901632D01*
X7954948Y5124974D02*
Y5045000D01*
X8008264D01*
X2627429Y4600615D02*
X2640758Y4613944D01*
X2667416D01*
X2680745Y4600615D01*
Y4547299D01*
X2667416Y4533970D01*
X2640758D01*
X2627429Y4547299D01*
Y4600615D01*
X2787377Y4533970D02*
X2814035D01*
X2800706D01*
Y4613944D01*
X2787377Y4600615D01*
X6035000Y4601645D02*
X6048329Y4614974D01*
X6074987D01*
X6088316Y4601645D01*
Y4548329D01*
X6074987Y4535000D01*
X6048329D01*
X6035000Y4548329D01*
Y4601645D01*
X6194948Y4535000D02*
X6221606D01*
X6208277D01*
Y4614974D01*
X6194948Y4601645D01*
X8135000Y5124974D02*
X8161658D01*
X8148329D01*
Y5045000D01*
X8135000D01*
X8161658D01*
X8241632Y5124974D02*
X8214974D01*
X8201645Y5111645D01*
Y5058329D01*
X8214974Y5045000D01*
X8241632D01*
X8254961Y5058329D01*
Y5111645D01*
X8241632Y5124974D01*
X6685000Y1285000D02*
Y1311658D01*
Y1298329D01*
X6605026D01*
X6618355Y1285000D01*
Y1351645D02*
X6605026Y1364974D01*
Y1391632D01*
X6618355Y1404961D01*
X6671671D01*
X6685000Y1391632D01*
Y1364974D01*
X6671671Y1351645D01*
X6618355D01*
X6685000Y1431619D02*
X6605026D01*
X6658342D02*
X6631684Y1471607D01*
X6658342Y1431619D02*
X6685000Y1471607D01*
X6885000Y1285000D02*
Y1311658D01*
Y1298329D01*
X6805026D01*
X6818355Y1285000D01*
Y1351645D02*
X6805026Y1364974D01*
Y1391632D01*
X6818355Y1404961D01*
X6871671D01*
X6885000Y1391632D01*
Y1364974D01*
X6871671Y1351645D01*
X6818355D01*
Y1431619D02*
X6805026Y1444948D01*
Y1471606D01*
X6818355Y1484935D01*
X6871671D01*
X6885000Y1471606D01*
Y1444948D01*
X6871671Y1431619D01*
X6818355D01*
X6885000Y1511593D02*
X6805026D01*
X6858342D02*
X6831684Y1551581D01*
X6858342Y1511593D02*
X6885000Y1551581D01*
X1245000Y4864974D02*
Y4785000D01*
Y4824987D01*
X1298316D01*
Y4864974D01*
Y4785000D01*
X1338303Y4838316D02*
X1364961D01*
X1378290Y4824987D01*
Y4785000D01*
X1338303D01*
X1324974Y4798329D01*
X1338303Y4811658D01*
X1378290D01*
X1404948Y4838316D02*
Y4785000D01*
Y4811658D01*
X1418277Y4824987D01*
X1431606Y4838316D01*
X1444935D01*
X1484922D02*
X1511580Y4785000D01*
X1538238Y4838316D01*
X1604884Y4785000D02*
X1578226D01*
X1564897Y4798329D01*
Y4824987D01*
X1578226Y4838316D01*
X1604884D01*
X1618213Y4824987D01*
Y4811658D01*
X1564897D01*
X1644871Y4785000D02*
X1684858D01*
X1698187Y4798329D01*
X1684858Y4811658D01*
X1658200D01*
X1644871Y4824987D01*
X1658200Y4838316D01*
X1698187D01*
X1738174Y4851645D02*
Y4838316D01*
X1724845D01*
X1751503D01*
X1738174D01*
Y4798329D01*
X1751503Y4785000D01*
X5935000Y4765000D02*
Y4844974D01*
X5974987D01*
X5988316Y4831645D01*
Y4804987D01*
X5974987Y4791658D01*
X5935000D01*
X6014974Y4765000D02*
Y4844974D01*
X6054961D01*
X6068290Y4831645D01*
Y4804987D01*
X6054961Y4791658D01*
X6014974D01*
X6041632D02*
X6068290Y4765000D01*
X6094948Y4844974D02*
Y4778329D01*
X6108277Y4765000D01*
X6134935D01*
X6148264Y4778329D01*
Y4844974D01*
X6254897Y4765000D02*
X6281555D01*
X6268226D01*
Y4844974D01*
X6254897Y4831645D01*
X2515000Y4765000D02*
Y4844974D01*
X2554987D01*
X2568316Y4831645D01*
Y4804987D01*
X2554987Y4791658D01*
X2515000D01*
X2594974Y4765000D02*
Y4844974D01*
X2634961D01*
X2648290Y4831645D01*
Y4804987D01*
X2634961Y4791658D01*
X2594974D01*
X2621632D02*
X2648290Y4765000D01*
X2674948Y4844974D02*
Y4778329D01*
X2688277Y4765000D01*
X2714935D01*
X2728264Y4778329D01*
Y4844974D01*
X2834897Y4831645D02*
X2848226Y4844974D01*
X2874884D01*
X2888213Y4831645D01*
Y4778329D01*
X2874884Y4765000D01*
X2848226D01*
X2834897Y4778329D01*
Y4831645D01*
X8435000Y4715000D02*
Y4768316D01*
X8461658Y4794974D01*
X8488316Y4768316D01*
Y4715000D01*
Y4754987D01*
X8435000D01*
Y734974D02*
Y655000D01*
X8474987D01*
X8488316Y668329D01*
Y681658D01*
X8474987Y694987D01*
X8435000D01*
X8474987D01*
X8488316Y708316D01*
Y721645D01*
X8474987Y734974D01*
X8435000D01*
X8545000Y2554974D02*
Y2475000D01*
X8584987D01*
X8598316Y2488329D01*
Y2501658D01*
X8584987Y2514987D01*
X8545000D01*
X8584987D01*
X8598316Y2528316D01*
Y2541645D01*
X8584987Y2554974D01*
X8545000D01*
Y2885000D02*
Y2938316D01*
X8571658Y2964974D01*
X8598316Y2938316D01*
Y2885000D01*
Y2924987D01*
X8545000D01*
X1348316Y134974D02*
X1295000D01*
Y94987D01*
X1321658Y108316D01*
X1334987D01*
X1348316Y94987D01*
Y68329D01*
X1334987Y55000D01*
X1308329D01*
X1295000Y68329D01*
X1374974Y134974D02*
Y81658D01*
X1401632Y55000D01*
X1428290Y81658D01*
Y134974D01*
X1534922Y55000D02*
Y134974D01*
X1561580Y108316D01*
X1588238Y134974D01*
Y55000D01*
X1628226Y108316D02*
X1654884D01*
X1668213Y94987D01*
Y55000D01*
X1628226D01*
X1614896Y68329D01*
X1628226Y81658D01*
X1668213D01*
X1694871Y108316D02*
X1748187Y55000D01*
X1721529Y81658D01*
X1748187Y108316D01*
X1694871Y55000D01*
X3523368Y3799987D02*
X3576684D01*
X3550026D01*
Y3720013D01*
X3603342D02*
Y3799987D01*
X3643329D01*
X3656658Y3786658D01*
Y3760000D01*
X3643329Y3746671D01*
X3603342D01*
X3683316Y3733342D02*
X3696645Y3720013D01*
X3723303D01*
X3736632Y3733342D01*
Y3786658D01*
X3723303Y3799987D01*
X3696645D01*
X3683316Y3786658D01*
Y3773329D01*
X3696645Y3760000D01*
X3736632D01*
X8353355Y2640013D02*
Y2719987D01*
X8393342D01*
X8406671Y2706658D01*
Y2680000D01*
X8393342Y2666671D01*
X8353355D01*
X8486645Y2719987D02*
X8433329D01*
Y2680000D01*
X8459987Y2693329D01*
X8473316D01*
X8486645Y2680000D01*
Y2653342D01*
X8473316Y2640013D01*
X8446658D01*
X8433329Y2653342D01*
X8353355Y2750013D02*
Y2829987D01*
X8393342D01*
X8406671Y2816658D01*
Y2790000D01*
X8393342Y2776671D01*
X8353355D01*
X8473316Y2750013D02*
Y2829987D01*
X8433329Y2790000D01*
X8486645D01*
X1623355Y1790013D02*
Y1869987D01*
X1663342D01*
X1676671Y1856658D01*
Y1830000D01*
X1663342Y1816671D01*
X1623355D01*
X1703329Y1856658D02*
X1716658Y1869987D01*
X1743316D01*
X1756645Y1856658D01*
Y1843329D01*
X1743316Y1830000D01*
X1729987D01*
X1743316D01*
X1756645Y1816671D01*
Y1803342D01*
X1743316Y1790013D01*
X1716658D01*
X1703329Y1803342D01*
X1983355Y4010013D02*
Y4089987D01*
X2023342D01*
X2036671Y4076658D01*
Y4050000D01*
X2023342Y4036671D01*
X1983355D01*
X2116645Y4010013D02*
X2063329D01*
X2116645Y4063329D01*
Y4076658D01*
X2103316Y4089987D01*
X2076658D01*
X2063329Y4076658D01*
X1710000Y989987D02*
X1683342D01*
X1696671D01*
Y923342D01*
X1683342Y910013D01*
X1670013D01*
X1656684Y923342D01*
X1736658Y910013D02*
X1763316D01*
X1749987D01*
Y989987D01*
X1736658Y976658D01*
X2023368Y1979987D02*
Y1913342D01*
X2036697Y1900013D01*
X2063355D01*
X2076684Y1913342D01*
Y1979987D01*
X2156658Y1900013D02*
X2103342D01*
X2156658Y1953329D01*
Y1966658D01*
X2143329Y1979987D01*
X2116671D01*
X2103342Y1966658D01*
X2183316D02*
X2196645Y1979987D01*
X2223303D01*
X2236632Y1966658D01*
Y1953329D01*
X2223303Y1940000D01*
X2236632Y1926671D01*
Y1913342D01*
X2223303Y1900013D01*
X2196645D01*
X2183316Y1913342D01*
Y1926671D01*
X2196645Y1940000D01*
X2183316Y1953329D01*
Y1966658D01*
X2196645Y1940000D02*
X2223303D01*
X5103368Y989987D02*
Y923342D01*
X5116697Y910013D01*
X5143355D01*
X5156684Y923342D01*
Y989987D01*
X5183342Y976658D02*
X5196671Y989987D01*
X5223329D01*
X5236658Y976658D01*
Y963329D01*
X5223329Y950000D01*
X5210000D01*
X5223329D01*
X5236658Y936671D01*
Y923342D01*
X5223329Y910013D01*
X5196671D01*
X5183342Y923342D01*
X5263316Y989987D02*
X5316632D01*
Y976658D01*
X5263316Y923342D01*
Y910013D01*
X4873368Y1799987D02*
Y1733342D01*
X4886697Y1720013D01*
X4913355D01*
X4926684Y1733342D01*
Y1799987D01*
X4953342Y1786658D02*
X4966671Y1799987D01*
X4993329D01*
X5006658Y1786658D01*
Y1773329D01*
X4993329Y1760000D01*
X4980000D01*
X4993329D01*
X5006658Y1746671D01*
Y1733342D01*
X4993329Y1720013D01*
X4966671D01*
X4953342Y1733342D01*
X5086632Y1799987D02*
X5059974Y1786658D01*
X5033316Y1760000D01*
Y1733342D01*
X5046645Y1720013D01*
X5073303D01*
X5086632Y1733342D01*
Y1746671D01*
X5073303Y1760000D01*
X5033316D01*
X3821563Y3945115D02*
Y3878470D01*
X3834893Y3865140D01*
X3861551D01*
X3874879Y3878470D01*
Y3945115D01*
X3901538Y3931786D02*
X3914867Y3945115D01*
X3941525D01*
X3954854Y3931786D01*
Y3918456D01*
X3941525Y3905128D01*
X3928196D01*
X3941525D01*
X3954854Y3891798D01*
Y3878470D01*
X3941525Y3865140D01*
X3914867D01*
X3901538Y3878470D01*
X4034828Y3945115D02*
X3981512D01*
Y3905128D01*
X4008170Y3918456D01*
X4021499D01*
X4034828Y3905128D01*
Y3878470D01*
X4021499Y3865140D01*
X3994841D01*
X3981512Y3878470D01*
X2903368Y4109987D02*
Y4043342D01*
X2916697Y4030013D01*
X2943355D01*
X2956684Y4043342D01*
Y4109987D01*
X2983342Y4096658D02*
X2996671Y4109987D01*
X3023329D01*
X3036658Y4096658D01*
Y4083329D01*
X3023329Y4070000D01*
X3010000D01*
X3023329D01*
X3036658Y4056671D01*
Y4043342D01*
X3023329Y4030013D01*
X2996671D01*
X2983342Y4043342D01*
X3103303Y4030013D02*
Y4109987D01*
X3063316Y4070000D01*
X3116632D01*
X2173368Y3959987D02*
X2226684D01*
X2200026D01*
Y3880013D01*
X2253342D02*
Y3959987D01*
X2293329D01*
X2306658Y3946658D01*
Y3920000D01*
X2293329Y3906671D01*
X2253342D01*
X2333316Y3946658D02*
X2346645Y3959987D01*
X2373303D01*
X2386632Y3946658D01*
Y3933329D01*
X2373303Y3920000D01*
X2386632Y3906671D01*
Y3893342D01*
X2373303Y3880013D01*
X2346645D01*
X2333316Y3893342D01*
Y3906671D01*
X2346645Y3920000D01*
X2333316Y3933329D01*
Y3946658D01*
X2346645Y3920000D02*
X2373303D01*
X2173368Y3839987D02*
X2226684D01*
X2200026D01*
Y3760013D01*
X2253342D02*
Y3839987D01*
X2293329D01*
X2306658Y3826658D01*
Y3800000D01*
X2293329Y3786671D01*
X2253342D01*
X2333316Y3839987D02*
X2386632D01*
Y3826658D01*
X2333316Y3773342D01*
Y3760013D01*
X3082637Y2053874D02*
Y1987229D01*
X3095966Y1973900D01*
X3122624D01*
X3135953Y1987229D01*
Y2053874D01*
X3162611Y2040545D02*
X3175941Y2053874D01*
X3202599D01*
X3215928Y2040545D01*
Y2027216D01*
X3202599Y2013887D01*
X3189269D01*
X3202599D01*
X3215928Y2000558D01*
Y1987229D01*
X3202599Y1973900D01*
X3175941D01*
X3162611Y1987229D01*
X3242586Y2040545D02*
X3255915Y2053874D01*
X3282573D01*
X3295902Y2040545D01*
Y2027216D01*
X3282573Y2013887D01*
X3269244D01*
X3282573D01*
X3295902Y2000558D01*
Y1987229D01*
X3282573Y1973900D01*
X3255915D01*
X3242586Y1987229D01*
X1973355Y590013D02*
Y669987D01*
X2013342D01*
X2026671Y656658D01*
Y630000D01*
X2013342Y616671D01*
X1973355D01*
X2053329Y603342D02*
X2066658Y590013D01*
X2093316D01*
X2106645Y603342D01*
Y656658D01*
X2093316Y669987D01*
X2066658D01*
X2053329Y656658D01*
Y643329D01*
X2066658Y630000D01*
X2106645D01*
X1923355Y4770013D02*
Y4849987D01*
X1963342D01*
X1976671Y4836658D01*
Y4810000D01*
X1963342Y4796671D01*
X1923355D01*
X2003329Y4836658D02*
X2016658Y4849987D01*
X2043316D01*
X2056645Y4836658D01*
Y4823329D01*
X2043316Y4810000D01*
X2056645Y4796671D01*
Y4783342D01*
X2043316Y4770013D01*
X2016658D01*
X2003329Y4783342D01*
Y4796671D01*
X2016658Y4810000D01*
X2003329Y4823329D01*
Y4836658D01*
X2016658Y4810000D02*
X2043316D01*
X3860990Y3283530D02*
Y3216885D01*
X3874320Y3203556D01*
X3900978D01*
X3914307Y3216885D01*
Y3283530D01*
X3940965Y3270201D02*
X3954294Y3283530D01*
X3980952D01*
X3994281Y3270201D01*
Y3256872D01*
X3980952Y3243543D01*
X3967623D01*
X3980952D01*
X3994281Y3230214D01*
Y3216885D01*
X3980952Y3203556D01*
X3954294D01*
X3940965Y3216885D01*
X4074255Y3203556D02*
X4020939D01*
X4074255Y3256872D01*
Y3270201D01*
X4060926Y3283530D01*
X4034268D01*
X4020939Y3270201D01*
X3123368Y3779987D02*
Y3713342D01*
X3136697Y3700013D01*
X3163355D01*
X3176684Y3713342D01*
Y3779987D01*
X3256658Y3700013D02*
X3203342D01*
X3256658Y3753329D01*
Y3766658D01*
X3243329Y3779987D01*
X3216671D01*
X3203342Y3766658D01*
X3283316Y3779987D02*
X3336632D01*
Y3766658D01*
X3283316Y3713342D01*
Y3700013D01*
X3773368Y2919987D02*
Y2853342D01*
X3786697Y2840013D01*
X3813355D01*
X3826684Y2853342D01*
Y2919987D01*
X3906658Y2840013D02*
X3853342D01*
X3906658Y2893329D01*
Y2906658D01*
X3893329Y2919987D01*
X3866671D01*
X3853342Y2906658D01*
X3986632Y2919987D02*
X3959974Y2906658D01*
X3933316Y2880000D01*
Y2853342D01*
X3946645Y2840013D01*
X3973303D01*
X3986632Y2853342D01*
Y2866671D01*
X3973303Y2880000D01*
X3933316D01*
X2873368Y3129987D02*
Y3063342D01*
X2886697Y3050013D01*
X2913355D01*
X2926684Y3063342D01*
Y3129987D01*
X3006658Y3050013D02*
X2953342D01*
X3006658Y3103329D01*
Y3116658D01*
X2993329Y3129987D01*
X2966671D01*
X2953342Y3116658D01*
X3086632Y3129987D02*
X3033316D01*
Y3090000D01*
X3059974Y3103329D01*
X3073303D01*
X3086632Y3090000D01*
Y3063342D01*
X3073303Y3050013D01*
X3046645D01*
X3033316Y3063342D01*
X6253368Y2959987D02*
Y2893342D01*
X6266697Y2880013D01*
X6293355D01*
X6306684Y2893342D01*
Y2959987D01*
X6386658Y2880013D02*
X6333342D01*
X6386658Y2933329D01*
Y2946658D01*
X6373329Y2959987D01*
X6346671D01*
X6333342Y2946658D01*
X6453303Y2880013D02*
Y2959987D01*
X6413316Y2920000D01*
X6466632D01*
X3080032Y1089987D02*
Y1023342D01*
X3093361Y1010013D01*
X3120019D01*
X3133348Y1023342D01*
Y1089987D01*
X3160006Y1010013D02*
X3186664D01*
X3173336D01*
Y1089987D01*
X3160006Y1076658D01*
X3279968Y1089987D02*
X3226652D01*
Y1050000D01*
X3253310Y1063329D01*
X3266639D01*
X3279968Y1050000D01*
Y1023342D01*
X3266639Y1010013D01*
X3239981D01*
X3226652Y1023342D01*
X7670032Y3669987D02*
Y3603342D01*
X7683361Y3590012D01*
X7710019D01*
X7723348Y3603342D01*
Y3669987D01*
X7750006Y3590012D02*
X7776664D01*
X7763336D01*
Y3669987D01*
X7750006Y3656658D01*
X7856639Y3590012D02*
Y3669987D01*
X7816652Y3630000D01*
X7869968D01*
X7670032Y3209987D02*
Y3143342D01*
X7683361Y3130013D01*
X7710019D01*
X7723348Y3143342D01*
Y3209987D01*
X7750006Y3130013D02*
X7776664D01*
X7763336D01*
Y3209987D01*
X7750006Y3196658D01*
X7816652D02*
X7829981Y3209987D01*
X7856639D01*
X7869968Y3196658D01*
Y3183329D01*
X7856639Y3170000D01*
X7843310D01*
X7856639D01*
X7869968Y3156671D01*
Y3143342D01*
X7856639Y3130013D01*
X7829981D01*
X7816652Y3143342D01*
X7680032Y1219987D02*
Y1153342D01*
X7693361Y1140013D01*
X7720019D01*
X7733348Y1153342D01*
Y1219987D01*
X7760006Y1140013D02*
X7786664D01*
X7773335D01*
Y1219987D01*
X7760006Y1206658D01*
X7879968Y1140013D02*
X7826652D01*
X7879968Y1193329D01*
Y1206658D01*
X7866639Y1219987D01*
X7839981D01*
X7826652Y1206658D01*
X7683361Y2009987D02*
Y1943342D01*
X7696690Y1930013D01*
X7723349D01*
X7736677Y1943342D01*
Y2009987D01*
X7763336Y1930013D02*
X7789994D01*
X7776665D01*
Y2009987D01*
X7763336Y1996658D01*
X7829981Y1930013D02*
X7856639D01*
X7843310D01*
Y2009987D01*
X7829981Y1996658D01*
X7680032Y1609987D02*
Y1543342D01*
X7693361Y1530013D01*
X7720019D01*
X7733348Y1543342D01*
Y1609987D01*
X7760006Y1530013D02*
X7786664D01*
X7773335D01*
Y1609987D01*
X7760006Y1596658D01*
X7826652D02*
X7839981Y1609987D01*
X7866639D01*
X7879968Y1596658D01*
Y1543342D01*
X7866639Y1530013D01*
X7839981D01*
X7826652Y1543342D01*
Y1596658D01*
X7673355Y3519987D02*
Y3453342D01*
X7686684Y3440013D01*
X7713342D01*
X7726671Y3453342D01*
Y3519987D01*
X7753329Y3453342D02*
X7766658Y3440013D01*
X7793316D01*
X7806645Y3453342D01*
Y3506658D01*
X7793316Y3519987D01*
X7766658D01*
X7753329Y3506658D01*
Y3493329D01*
X7766658Y3480000D01*
X7806645D01*
X5933355Y1479987D02*
Y1413342D01*
X5946684Y1400013D01*
X5973342D01*
X5986671Y1413342D01*
Y1479987D01*
X6013329Y1466658D02*
X6026658Y1479987D01*
X6053316D01*
X6066645Y1466658D01*
Y1453329D01*
X6053316Y1440000D01*
X6066645Y1426671D01*
Y1413342D01*
X6053316Y1400013D01*
X6026658D01*
X6013329Y1413342D01*
Y1426671D01*
X6026658Y1440000D01*
X6013329Y1453329D01*
Y1466658D01*
X6026658Y1440000D02*
X6053316D01*
X7683355Y2379987D02*
Y2313342D01*
X7696684Y2300013D01*
X7723342D01*
X7736671Y2313342D01*
Y2379987D01*
X7763329D02*
X7816645D01*
Y2366658D01*
X7763329Y2313342D01*
Y2300013D01*
X7593355Y4419987D02*
Y4353342D01*
X7606684Y4340013D01*
X7633342D01*
X7646671Y4353342D01*
Y4419987D01*
X7726645D02*
X7699987Y4406658D01*
X7673329Y4380000D01*
Y4353342D01*
X7686658Y4340013D01*
X7713316D01*
X7726645Y4353342D01*
Y4366671D01*
X7713316Y4380000D01*
X7673329D01*
X7673355Y2769987D02*
Y2703342D01*
X7686684Y2690013D01*
X7713342D01*
X7726671Y2703342D01*
Y2769987D01*
X7806645D02*
X7753329D01*
Y2730000D01*
X7779987Y2743329D01*
X7793316D01*
X7806645Y2730000D01*
Y2703342D01*
X7793316Y2690013D01*
X7766658D01*
X7753329Y2703342D01*
X5933355Y1609987D02*
Y1543342D01*
X5946684Y1530013D01*
X5973342D01*
X5986671Y1543342D01*
Y1609987D01*
X6053316Y1530013D02*
Y1609987D01*
X6013329Y1570000D01*
X6066645D01*
X5153355Y3369987D02*
Y3303342D01*
X5166684Y3290013D01*
X5193342D01*
X5206671Y3303342D01*
Y3369987D01*
X5233329Y3356658D02*
X5246658Y3369987D01*
X5273316D01*
X5286645Y3356658D01*
Y3343329D01*
X5273316Y3330000D01*
X5259987D01*
X5273316D01*
X5286645Y3316671D01*
Y3303342D01*
X5273316Y3290013D01*
X5246658D01*
X5233329Y3303342D01*
X5663355Y3839987D02*
Y3773342D01*
X5676684Y3760013D01*
X5703342D01*
X5716671Y3773342D01*
Y3839987D01*
X5796645Y3760013D02*
X5743329D01*
X5796645Y3813329D01*
Y3826658D01*
X5783316Y3839987D01*
X5756658D01*
X5743329Y3826658D01*
X4696684Y4119987D02*
Y4053342D01*
X4710013Y4040013D01*
X4736671D01*
X4750000Y4053342D01*
Y4119987D01*
X4776658Y4040013D02*
X4803316D01*
X4789987D01*
Y4119987D01*
X4776658Y4106658D01*
X3223368Y2739987D02*
X3276684D01*
X3250026D01*
Y2660013D01*
X3303342D02*
Y2739987D01*
X3343329D01*
X3356658Y2726658D01*
Y2700000D01*
X3343329Y2686671D01*
X3303342D01*
X3436632Y2739987D02*
X3409974Y2726658D01*
X3383316Y2700000D01*
Y2673342D01*
X3396645Y2660013D01*
X3423303D01*
X3436632Y2673342D01*
Y2686671D01*
X3423303Y2700000D01*
X3383316D01*
X5683368Y3479987D02*
X5736684D01*
X5710026D01*
Y3400013D01*
X5763342D02*
Y3479987D01*
X5803329D01*
X5816658Y3466658D01*
Y3440000D01*
X5803329Y3426671D01*
X5763342D01*
X5896632Y3479987D02*
X5843316D01*
Y3440000D01*
X5869974Y3453329D01*
X5883303D01*
X5896632Y3440000D01*
Y3413342D01*
X5883303Y3400013D01*
X5856645D01*
X5843316Y3413342D01*
X6113368Y4439987D02*
X6166684D01*
X6140026D01*
Y4360013D01*
X6193342D02*
Y4439987D01*
X6233329D01*
X6246658Y4426658D01*
Y4400000D01*
X6233329Y4386671D01*
X6193342D01*
X6313303Y4360013D02*
Y4439987D01*
X6273316Y4400000D01*
X6326632D01*
X5913368Y4189987D02*
X5966684D01*
X5940026D01*
Y4110013D01*
X5993342D02*
Y4189987D01*
X6033329D01*
X6046658Y4176658D01*
Y4150000D01*
X6033329Y4136671D01*
X5993342D01*
X6073316Y4176658D02*
X6086645Y4189987D01*
X6113303D01*
X6126632Y4176658D01*
Y4163329D01*
X6113303Y4150000D01*
X6099974D01*
X6113303D01*
X6126632Y4136671D01*
Y4123342D01*
X6113303Y4110013D01*
X6086645D01*
X6073316Y4123342D01*
X5683368Y3629987D02*
X5736684D01*
X5710026D01*
Y3550013D01*
X5763342D02*
Y3629987D01*
X5803329D01*
X5816658Y3616658D01*
Y3590000D01*
X5803329Y3576671D01*
X5763342D01*
X5896632Y3550013D02*
X5843316D01*
X5896632Y3603329D01*
Y3616658D01*
X5883303Y3629987D01*
X5856645D01*
X5843316Y3616658D01*
X5526697Y4439987D02*
X5580013D01*
X5553355D01*
Y4360013D01*
X5606671D02*
Y4439987D01*
X5646658D01*
X5659987Y4426658D01*
Y4400000D01*
X5646658Y4386671D01*
X5606671D01*
X5686645Y4360013D02*
X5713303D01*
X5699974D01*
Y4439987D01*
X5686645Y4426658D01*
D100*
X4912500Y2150000D02*
G03*
X4912500Y2150000I-12500J0D01*
G01*
X3722500Y4380000D02*
G03*
X3722500Y4380000I-12500J0D01*
G01*
X3232500Y3840000D02*
G03*
X3232500Y3840000I-12500J0D01*
G01*
X3642500Y3350000D02*
G03*
X3642500Y3350000I-12500J0D01*
G01*
X2842500Y2840000D02*
G03*
X2842500Y2840000I-12500J0D01*
G01*
X6432500Y3740000D02*
G03*
X6432500Y3740000I-12500J0D01*
G01*
X7117362Y3896854D02*
G03*
X7117500Y3895000I-12362J-1854D01*
G01*
X5752500Y2710000D02*
G03*
X5752500Y2710000I-12500J0D01*
G01*
X5822500Y3880000D02*
G03*
X5822500Y3880000I-12500J0D01*
G01*
D169*
X3702397Y1800135D02*
G03*
X3689589Y1829466I-17398J9865D01*
G01*
X3737395Y1800147D02*
G03*
X3702714Y1799955I-17395J9869D01*
G01*
X3750834Y1829561D02*
G03*
X3737691Y1799979I4165J-19562D01*
G01*
X4042398Y980135D02*
G03*
X4029589Y1009466I-17398J9865D01*
G01*
X4077395Y980147D02*
G03*
X4042715Y979956I-17395J9869D01*
G01*
X4090835Y1009562D02*
G03*
X4077692Y979979I4165J-19562D01*
G01*
X1949865Y1112398D02*
G03*
X1920534Y1099589I-9865J-17398D01*
G01*
X1949853Y1147395D02*
G03*
X1950044Y1112715I-9869J-17395D01*
G01*
X1920438Y1160835D02*
G03*
X1950021Y1147692I19562J4165D01*
G01*
X1949865Y822398D02*
G03*
X1920534Y809589I-9865J-17398D01*
G01*
X1949853Y857395D02*
G03*
X1950044Y822715I-9869J-17395D01*
G01*
X1920438Y870835D02*
G03*
X1950021Y857692I19562J4165D01*
G01*
X2889865Y772398D02*
G03*
X2860534Y759589I-9865J-17398D01*
G01*
X2889853Y807395D02*
G03*
X2890045Y772715I-9869J-17395D01*
G01*
X2860439Y820835D02*
G03*
X2890021Y807692I19562J4165D01*
G01*
X2570135Y807602D02*
G03*
X2599466Y820411I9865J17398D01*
G01*
X2570147Y772605D02*
G03*
X2569956Y807285I9869J17395D01*
G01*
X2599562Y759165D02*
G03*
X2569979Y772308I-19562J-4165D01*
G01*
X2289865Y772398D02*
G03*
X2260534Y759589I-9865J-17398D01*
G01*
X2289853Y807395D02*
G03*
X2290045Y772715I-9869J-17395D01*
G01*
X2260439Y820835D02*
G03*
X2290021Y807692I19562J4165D01*
G01*
X3278234Y2479233D02*
Y2479420D01*
X3931766Y3700580D02*
Y3700767D01*
X2549233Y3931766D02*
X2549420D01*
X2430580Y3488235D02*
X2430767D01*
X3608234Y2759233D02*
Y2759420D01*
X5508235Y3409233D02*
Y3409420D01*
X6321766Y4220580D02*
Y4220767D01*
X5971766Y4220580D02*
Y4220767D01*
X5508235Y3639233D02*
Y3639420D01*
X5561765Y4220580D02*
Y4220767D01*
X2560000Y1550000D02*
Y1590000D01*
X2520000D02*
X2600000D01*
X2560000Y1550000D02*
X2600000Y1590000D01*
X2520000D02*
X2560000Y1550000D01*
X2520000D02*
X2600000D01*
X2560000Y1539894D02*
Y1550000D01*
Y1539894D02*
X2560122Y1539772D01*
X2560000Y1590000D02*
Y1599424D01*
X5580000Y1070000D02*
X5620000D01*
Y1030000D02*
Y1110000D01*
X5580000Y1070000D02*
X5620000Y1030000D01*
X5580000Y1070000D02*
X5620000Y1110000D01*
X5580000Y1030000D02*
Y1110000D01*
X5569894Y1070000D02*
X5580000D01*
X5569772Y1069878D02*
X5569894Y1070000D01*
X5620000D02*
X5629423D01*
X5020000Y1490000D02*
Y1530000D01*
X4980000D02*
X5060000D01*
X5020000Y1490000D02*
X5060000Y1530000D01*
X4980000D02*
X5020000Y1490000D01*
X4980000D02*
X5060000D01*
X5020000Y1479894D02*
Y1490000D01*
Y1479894D02*
X5020122Y1479772D01*
X5020000Y1530000D02*
Y1539423D01*
X6280000Y4680000D02*
X6320000D01*
Y4640000D02*
Y4720000D01*
X6280000Y4680000D02*
X6320000Y4640000D01*
X6280000Y4680000D02*
X6320000Y4720000D01*
X6280000Y4640000D02*
Y4720000D01*
X6269894Y4680000D02*
X6280000D01*
X6269772Y4679878D02*
X6269894Y4680000D01*
X6320000D02*
X6329423D01*
X2860000D02*
X2900000D01*
Y4640000D02*
Y4720000D01*
X2860000Y4680000D02*
X2900000Y4640000D01*
X2860000Y4680000D02*
X2900000Y4720000D01*
X2860000Y4640000D02*
Y4720000D01*
X2849894Y4680000D02*
X2860000D01*
X2849772Y4679878D02*
X2849894Y4680000D01*
X2900000D02*
X2909423D01*
X5960000D02*
X6000000D01*
Y4640000D02*
Y4720000D01*
X5960000Y4680000D02*
X6000000Y4640000D01*
X5960000Y4680000D02*
X6000000Y4720000D01*
X5960000Y4640000D02*
Y4720000D01*
X5949894Y4680000D02*
X5960000D01*
X5949772Y4679878D02*
X5949894Y4680000D01*
X6000000D02*
X6009423D01*
X2560000D02*
X2600000D01*
Y4640000D02*
Y4720000D01*
X2560000Y4680000D02*
X2600000Y4640000D01*
X2560000Y4680000D02*
X2600000Y4720000D01*
X2560000Y4640000D02*
Y4720000D01*
X2549894Y4680000D02*
X2560000D01*
X2549772Y4679878D02*
X2549894Y4680000D01*
X2600000D02*
X2609423D01*
X1470000D02*
X1510000D01*
Y4640000D02*
Y4720000D01*
X1470000Y4680000D02*
X1510000Y4640000D01*
X1470000Y4680000D02*
X1510000Y4720000D01*
X1470000Y4640000D02*
Y4720000D01*
X1459894Y4680000D02*
X1470000D01*
X1459772Y4679878D02*
X1459894Y4680000D01*
X1510000D02*
X1519423D01*
X2440000Y1260000D02*
X2480000D01*
Y1220000D02*
Y1300000D01*
X2440000Y1260000D02*
X2480000Y1220000D01*
X2440000Y1260000D02*
X2480000Y1300000D01*
X2440000Y1220000D02*
Y1300000D01*
X2429894Y1260000D02*
X2440000D01*
X2429772Y1259878D02*
X2429894Y1260000D01*
X2480000D02*
X2489424D01*
X8350000Y640000D02*
Y680000D01*
X8310000D02*
X8390000D01*
X8350000Y640000D02*
X8390000Y680000D01*
X8310000D02*
X8350000Y640000D01*
X8310000D02*
X8390000D01*
X8350000Y629894D02*
Y640000D01*
Y629894D02*
X8350122Y629772D01*
X8350000Y680000D02*
Y689423D01*
X8360000Y4790000D02*
Y4830000D01*
X8320000D02*
X8400000D01*
X8360000Y4790000D02*
X8400000Y4830000D01*
X8320000D02*
X8360000Y4790000D01*
X8320000D02*
X8400000D01*
X8360000Y4779894D02*
Y4790000D01*
Y4779894D02*
X8360122Y4779772D01*
X8360000Y4830000D02*
Y4839423D01*
X7950000Y250000D02*
X7959423D01*
X7899772Y249878D02*
X7899894Y250000D01*
X7910000D01*
Y210000D02*
Y290000D01*
Y250000D02*
X7950000Y290000D01*
X7910000Y250000D02*
X7950000Y210000D01*
Y290000D01*
X7910000Y250000D02*
X7950000D01*
Y5200000D02*
X7959423D01*
X7899772Y5199878D02*
X7899894Y5200000D01*
X7910000D01*
Y5160000D02*
Y5240000D01*
Y5200000D02*
X7950000Y5240000D01*
X7910000Y5200000D02*
X7950000Y5160000D01*
Y5240000D01*
X7910000Y5200000D02*
X7950000D01*
X2610000Y2230000D02*
Y2235094D01*
Y2204711D02*
Y2210000D01*
X2582381D02*
X2637489D01*
X2582105Y2230000D02*
X2637627D01*
X4910000Y1504906D02*
Y1510000D01*
Y1530000D02*
Y1535289D01*
X4882511Y1530000D02*
X4937619D01*
X4882373Y1510000D02*
X4937895D01*
X4780000Y2104907D02*
Y2110000D01*
Y2130000D02*
Y2135289D01*
X4752511Y2130000D02*
X4807619D01*
X4752373Y2110000D02*
X4807895D01*
X5554906Y1180000D02*
X5560000D01*
X5580000D02*
X5585289D01*
X5580000Y1152381D02*
Y1207489D01*
X5560000Y1152105D02*
Y1207627D01*
X5440000Y2004907D02*
Y2010001D01*
Y2030001D02*
Y2035289D01*
X5412511Y2030001D02*
X5467619D01*
X5412373Y2010001D02*
X5467896D01*
X4780000Y1904907D02*
Y1910000D01*
Y1930000D02*
Y1935289D01*
X4752511Y1930000D02*
X4807619D01*
X4752373Y1910000D02*
X4807895D01*
X2780000Y3050000D02*
Y3055094D01*
Y3024711D02*
Y3030000D01*
X2752381D02*
X2807489D01*
X2752104Y3050000D02*
X2807627D01*
X2780000Y3224906D02*
Y3230000D01*
Y3250000D02*
Y3255289D01*
X2752511Y3250000D02*
X2807619D01*
X2752373Y3230000D02*
X2807895D01*
X3340000Y4290000D02*
X3345094D01*
X3314711D02*
X3320000D01*
Y4262511D02*
Y4317619D01*
X3340000Y4262373D02*
Y4317895D01*
X3540000Y4290000D02*
X3545093D01*
X3514711D02*
X3520000D01*
Y4262511D02*
Y4317619D01*
X3540000Y4262373D02*
Y4317895D01*
X4400000Y4704906D02*
Y4710000D01*
Y4730000D02*
Y4735289D01*
X4372511Y4730000D02*
X4427619D01*
X4372373Y4710000D02*
X4427895D01*
X4400000Y4270000D02*
Y4275094D01*
Y4244711D02*
Y4250000D01*
X4372381D02*
X4427489D01*
X4372105Y4270000D02*
X4427627D01*
X3014906Y3790000D02*
X3020000D01*
X3040000D02*
X3045289D01*
X3040000Y3762381D02*
Y3817489D01*
X3020000Y3762105D02*
Y3817627D01*
X2840000Y3790000D02*
X2845094D01*
X2814711D02*
X2820000D01*
Y3762511D02*
Y3817619D01*
X2840000Y3762373D02*
Y3817895D01*
X3580000Y3890000D02*
Y3895094D01*
Y3864711D02*
Y3870000D01*
X3552381D02*
X3607489D01*
X3552104Y3890000D02*
X3607627D01*
X2770000Y4244906D02*
Y4250000D01*
Y4270000D02*
Y4275289D01*
X2742511Y4270000D02*
X2797619D01*
X2742373Y4250000D02*
X2797895D01*
X3004906Y4210000D02*
X3010000D01*
X3030000D02*
X3035289D01*
X3030000Y4182381D02*
Y4237489D01*
X3010000Y4182105D02*
Y4237627D01*
X3350000Y3864906D02*
Y3870000D01*
Y3890000D02*
Y3895289D01*
X3322511Y3890000D02*
X3377619D01*
X3322373Y3870000D02*
X3377895D01*
X6380000Y3100000D02*
X6385094D01*
X6354711D02*
X6360000D01*
Y3072511D02*
Y3127619D01*
X6380000Y3072373D02*
Y3127895D01*
Y3190000D02*
X6385094D01*
X6354711D02*
X6360000D01*
Y3162511D02*
Y3217619D01*
X6380000Y3162373D02*
Y3217895D01*
X3530000Y2314906D02*
Y2320000D01*
Y2340000D02*
Y2345288D01*
X3502511Y2340000D02*
X3557618D01*
X3502372Y2320000D02*
X3557895D01*
X7890000Y1040000D02*
Y1045094D01*
Y1014711D02*
Y1020000D01*
X7862381D02*
X7917489D01*
X7862105Y1040000D02*
X7917627D01*
X3374906Y3560000D02*
X3380000D01*
X3400000D02*
X3405289D01*
X3400000Y3532381D02*
Y3587489D01*
X3380000Y3532105D02*
Y3587627D01*
X3374906Y3660000D02*
X3380000D01*
X3400000D02*
X3405289D01*
X3400000Y3632381D02*
Y3687489D01*
X3380000Y3632105D02*
Y3687627D01*
X4440000Y3504906D02*
Y3510000D01*
Y3530000D02*
Y3535289D01*
X4412511Y3530000D02*
X4467619D01*
X4412373Y3510000D02*
X4467895D01*
X4274906Y3560000D02*
X4280000D01*
X4300000D02*
X4305289D01*
X4300000Y3532381D02*
Y3587489D01*
X4280000Y3532105D02*
Y3587627D01*
X4274906Y3760000D02*
X4280000D01*
X4300000D02*
X4305289D01*
X4300000Y3732381D02*
Y3787489D01*
X4280000Y3732105D02*
Y3787627D01*
X4274906Y3660000D02*
X4280000D01*
X4300000D02*
X4305289D01*
X4300000Y3632381D02*
Y3687489D01*
X4280000Y3632105D02*
Y3687627D01*
X3374906Y3430000D02*
X3380000D01*
X3400000D02*
X3405289D01*
X3400000Y3402381D02*
Y3457489D01*
X3380000Y3402105D02*
Y3457627D01*
X6174906Y1470000D02*
X6180000D01*
X6200000D02*
X6205289D01*
X6200000Y1442381D02*
Y1497489D01*
X6180000Y1442105D02*
Y1497627D01*
X6174906Y2340000D02*
X6180000D01*
X6200000D02*
X6205288D01*
X6200000Y2312381D02*
Y2367489D01*
X6180000Y2312105D02*
Y2367627D01*
X7910000Y2550000D02*
Y2555094D01*
Y2524711D02*
Y2530000D01*
X7882381D02*
X7937489D01*
X7882105Y2550000D02*
X7937627D01*
X7920000Y4400000D02*
Y4405094D01*
Y4374711D02*
Y4380000D01*
X7892381D02*
X7947489D01*
X7892105Y4400000D02*
X7947627D01*
X3460000Y3330000D02*
X3465094D01*
X3434711D02*
X3440000D01*
Y3302511D02*
Y3357619D01*
X3460000Y3302373D02*
Y3357895D01*
Y3230000D02*
X3465094D01*
X3434711D02*
X3440000D01*
Y3202511D02*
Y3257619D01*
X3460000Y3202373D02*
Y3257895D01*
X4354906Y3190000D02*
X4360000D01*
X4380000D02*
X4385289D01*
X4380000Y3162381D02*
Y3217489D01*
X4360000Y3162105D02*
Y3217627D01*
X4354906Y3290000D02*
X4360000D01*
X4380000D02*
X4385289D01*
X4380000Y3262381D02*
Y3317489D01*
X4360000Y3262105D02*
Y3317627D01*
X3200000Y3050000D02*
Y3055094D01*
Y3024711D02*
Y3030000D01*
X3172381D02*
X3227489D01*
X3172105Y3050000D02*
X3227627D01*
X3200000Y3224906D02*
Y3230000D01*
Y3250000D02*
Y3255289D01*
X3172511Y3250000D02*
X3227619D01*
X3172373Y3230000D02*
X3227895D01*
X3460000Y2960000D02*
X3465094D01*
X3434711D02*
X3440000D01*
Y2932511D02*
Y2987619D01*
X3460000Y2932373D02*
Y2987895D01*
X2814906Y3490000D02*
X2820000D01*
X2840000D02*
X2845289D01*
X2840000Y3462381D02*
Y3517489D01*
X2820000Y3462105D02*
Y3517627D01*
X6164906Y3100000D02*
X6170000D01*
X6190000D02*
X6195289D01*
X6190000Y3072381D02*
Y3127489D01*
X6170000Y3072105D02*
Y3127627D01*
X6164906Y3190000D02*
X6170000D01*
X6190000D02*
X6195289D01*
X6190000Y3162381D02*
Y3217489D01*
X6170000Y3162105D02*
Y3217627D01*
X7614906Y3830000D02*
X7620000D01*
X7640000D02*
X7645289D01*
X7640000Y3802381D02*
Y3857489D01*
X7620000Y3802105D02*
Y3857627D01*
X6540000Y1430000D02*
Y1435094D01*
Y1404711D02*
Y1410000D01*
X6512381D02*
X6567489D01*
X6512104Y1430000D02*
X6567627D01*
X6540000Y2300000D02*
Y2305094D01*
Y2274711D02*
Y2280000D01*
X6512381D02*
X6567489D01*
X6512105Y2300000D02*
X6567627D01*
X7910000Y2904906D02*
Y2910000D01*
Y2930000D02*
Y2935289D01*
X7882511Y2930000D02*
X7937619D01*
X7882373Y2910000D02*
X7937895D01*
X3830000Y970000D02*
X3835094D01*
X3804711D02*
X3810000D01*
Y942511D02*
Y997619D01*
X3830000Y942373D02*
Y997895D01*
X3510000Y1800000D02*
Y1805094D01*
Y1774711D02*
Y1780000D01*
X3482381D02*
X3537489D01*
X3482105Y1800000D02*
X3537627D01*
X3390000D02*
Y1805094D01*
Y1774711D02*
Y1780000D01*
X3362381D02*
X3417489D01*
X3362105Y1800000D02*
X3417627D01*
X3780000Y1360000D02*
X3785094D01*
X3754711D02*
X3760000D01*
Y1332511D02*
Y1387619D01*
X3780000Y1332373D02*
Y1387895D01*
X3140000Y1430000D02*
Y1435094D01*
Y1404711D02*
Y1410000D01*
X3112381D02*
X3167489D01*
X3112105Y1430000D02*
X3167627D01*
X4050000Y1354906D02*
Y1360000D01*
Y1380000D02*
Y1385288D01*
X4022511Y1380000D02*
X4077618D01*
X4022372Y1360000D02*
X4077895D01*
X3174906Y1160000D02*
X3179999D01*
X3199999D02*
X3205288D01*
X3199999Y1132381D02*
Y1187489D01*
X3179999Y1132104D02*
Y1187627D01*
X3199999Y1260000D02*
X3205093D01*
X3174711D02*
X3179999D01*
Y1232511D02*
Y1287619D01*
X3199999Y1232373D02*
Y1287895D01*
X5374906Y2190000D02*
X5380000D01*
X5400000D02*
X5405289D01*
X5400000Y2162382D02*
Y2217489D01*
X5380000Y2162105D02*
Y2217628D01*
X4354906Y2820000D02*
X4360000D01*
X4380000D02*
X4385289D01*
X4380000Y2792381D02*
Y2847489D01*
X4360000Y2792105D02*
Y2847627D01*
X4940000Y3264906D02*
Y3270000D01*
Y3290000D02*
Y3295289D01*
X4912511Y3290000D02*
X4967619D01*
X4912373Y3270000D02*
X4967895D01*
X7160000Y1604906D02*
Y1610000D01*
Y1630000D02*
Y1635289D01*
X7132511Y1630000D02*
X7187619D01*
X7132373Y1610000D02*
X7187895D01*
X7160000Y1214906D02*
Y1220000D01*
Y1240000D02*
Y1245289D01*
X7132511Y1240000D02*
X7187619D01*
X7132373Y1220000D02*
X7187895D01*
X7120000Y2334906D02*
Y2340000D01*
Y2360000D02*
Y2365289D01*
X7092511Y2360000D02*
X7147619D01*
X7092373Y2340000D02*
X7147895D01*
X7150000Y1964906D02*
Y1970000D01*
Y1990000D02*
Y1995289D01*
X7122511Y1990000D02*
X7177619D01*
X7122373Y1970000D02*
X7177895D01*
X7140000Y2724906D02*
Y2730000D01*
Y2750000D02*
Y2755289D01*
X7112511Y2750000D02*
X7167619D01*
X7112373Y2730000D02*
X7167895D01*
X7624906Y4130000D02*
X7630000D01*
X7650000D02*
X7655289D01*
X7650000Y4102381D02*
Y4157489D01*
X7630000Y4102105D02*
Y4157627D01*
X7160000Y3104906D02*
Y3110000D01*
Y3130000D02*
Y3135289D01*
X7132511Y3130000D02*
X7187619D01*
X7132373Y3110000D02*
X7187895D01*
X6850000Y710000D02*
X6855094D01*
X6824711D02*
X6830000D01*
Y682511D02*
Y737619D01*
X6850000Y682373D02*
Y737895D01*
X7544906Y3310000D02*
X7550000D01*
X7570000D02*
X7575289D01*
X7570000Y3282381D02*
Y3337489D01*
X7550000Y3282105D02*
Y3337627D01*
X6174906Y2240000D02*
X6180000D01*
X6200000D02*
X6205288D01*
X6200000Y2212381D02*
Y2267489D01*
X6180000Y2212105D02*
Y2267627D01*
X6174906Y1370000D02*
X6180000D01*
X6200000D02*
X6205289D01*
X6200000Y1342381D02*
Y1397489D01*
X6180000Y1342105D02*
Y1397627D01*
X6340000Y1404906D02*
Y1410000D01*
Y1430000D02*
Y1435289D01*
X6312511Y1430000D02*
X6367619D01*
X6312373Y1410000D02*
X6367895D01*
X6340000Y2274906D02*
Y2280000D01*
Y2300000D02*
Y2305289D01*
X6312511Y2300000D02*
X6367619D01*
X6312373Y2280000D02*
X6367895D01*
X5924906Y2750000D02*
X5930000D01*
X5950000D02*
X5955289D01*
X5950000Y2722381D02*
Y2777489D01*
X5930000Y2722105D02*
Y2777627D01*
X5924906Y2840000D02*
X5930000D01*
X5950000D02*
X5955289D01*
X5950000Y2812381D02*
Y2867489D01*
X5930000Y2812105D02*
Y2867627D01*
X4950000Y2814906D02*
Y2820000D01*
Y2840000D02*
Y2845289D01*
X4922511Y2840000D02*
X4977619D01*
X4922373Y2820000D02*
X4977895D01*
X5050000Y2814906D02*
Y2820000D01*
Y2840000D02*
Y2845289D01*
X5022511Y2840000D02*
X5077619D01*
X5022373Y2820000D02*
X5077895D01*
X5924906Y3080000D02*
X5930000D01*
X5950000D02*
X5955289D01*
X5950000Y3052381D02*
Y3107489D01*
X5930000Y3052105D02*
Y3107627D01*
X5950000Y4000000D02*
Y4005094D01*
Y3974711D02*
Y3980000D01*
X5922381D02*
X5977489D01*
X5922105Y4000000D02*
X5977627D01*
X5310000Y3770000D02*
Y3775094D01*
Y3744711D02*
Y3750000D01*
X5282381D02*
X5337489D01*
X5282105Y3770000D02*
X5337627D01*
X5400000D02*
Y3775094D01*
Y3744711D02*
Y3750000D01*
X5372381D02*
X5427489D01*
X5372105Y3770000D02*
X5427627D01*
X5220000Y3670000D02*
Y3675093D01*
Y3644711D02*
Y3650000D01*
X5192381D02*
X5247489D01*
X5192105Y3670000D02*
X5247627D01*
X5130000Y3644906D02*
Y3650000D01*
Y3670000D02*
Y3675289D01*
X5102511Y3670000D02*
X5157619D01*
X5102373Y3650000D02*
X5157895D01*
X5040000Y3670000D02*
Y3675093D01*
Y3644711D02*
Y3650000D01*
X5012381D02*
X5067489D01*
X5012105Y3670000D02*
X5067627D01*
X5034906Y3510000D02*
X5040000D01*
X5060000D02*
X5065289D01*
X5060000Y3482381D02*
Y3537489D01*
X5040000Y3482105D02*
Y3537627D01*
X5250000Y4020000D02*
Y4025094D01*
Y3994711D02*
Y4000000D01*
X5222381D02*
X5277489D01*
X5222105Y4020000D02*
X5277627D01*
%TF.MD5,c6537fe57f945dfe362b9e762cc14375*%
M02*
