%TF.GenerationSoftware,Altium Limited,Altium Designer,20.2.6 (244)*%
G04 Layer_Color=0*
%FSLAX45Y45*%
%MOMM*%
%TF.SameCoordinates,1A285BE7-DF3D-4214-9C7A-F78C9B27F18F*%
%TF.FilePolarity,Positive*%
%TF.FileFunction,Plated,1,4,PTH,Drill*%
%TF.Part,Single*%
G01*
G75*
%TA.AperFunction,ComponentDrill*%
%ADD270C,1.10000*%
%ADD271C,1.10000*%
%ADD272C,3.20000*%
%ADD273C,1.20000*%
%TA.AperFunction,ViaDrill,NotFilled*%
%ADD274C,0.25000*%
%ADD275C,0.50000*%
D270*
X7620000Y444500D02*
D03*
X7366000D02*
D03*
X7112000D02*
D03*
X6858000D02*
D03*
X6604000D02*
D03*
X6350000D02*
D03*
X6096000D02*
D03*
X5842000D02*
D03*
X5588000D02*
D03*
X5334000D02*
D03*
X5080000D02*
D03*
X4826000D02*
D03*
X4572000D02*
D03*
X4318000D02*
D03*
X4064000D02*
D03*
X3810000D02*
D03*
X3556000D02*
D03*
X3302000D02*
D03*
X3048000D02*
D03*
X2794000D02*
D03*
X2540000D02*
D03*
X2286000D02*
D03*
X2032000D02*
D03*
X7620000Y190500D02*
D03*
X7366000D02*
D03*
X7112000D02*
D03*
X6858000D02*
D03*
X6604000D02*
D03*
X6350000D02*
D03*
X6096000D02*
D03*
X5842000D02*
D03*
X5588000D02*
D03*
X5334000D02*
D03*
X5080000D02*
D03*
X4826000D02*
D03*
X4572000D02*
D03*
X4318000D02*
D03*
X4064000D02*
D03*
X3810000D02*
D03*
X3556000D02*
D03*
X3302000D02*
D03*
X3048000D02*
D03*
X2794000D02*
D03*
X2540000D02*
D03*
X2286000D02*
D03*
X2032000D02*
D03*
X7620000Y5270500D02*
D03*
X7366000D02*
D03*
X7112000D02*
D03*
X6858000D02*
D03*
X6604000D02*
D03*
X6350000D02*
D03*
X6096000D02*
D03*
X5842000D02*
D03*
X5588000D02*
D03*
X5334000D02*
D03*
X5080000D02*
D03*
X4826000D02*
D03*
X4572000D02*
D03*
X4318000D02*
D03*
X4064000D02*
D03*
X3810000D02*
D03*
X3556000D02*
D03*
X3302000D02*
D03*
X3048000D02*
D03*
X2794000D02*
D03*
X2540000D02*
D03*
X2286000D02*
D03*
X2032000D02*
D03*
X7620000Y5016500D02*
D03*
X7366000D02*
D03*
X7112000D02*
D03*
X6858000D02*
D03*
X6604000D02*
D03*
X6350000D02*
D03*
X6096000D02*
D03*
X5842000D02*
D03*
X5588000D02*
D03*
X5334000D02*
D03*
X5080000D02*
D03*
X4826000D02*
D03*
X4572000D02*
D03*
X4318000D02*
D03*
X4064000D02*
D03*
X3810000D02*
D03*
X3556000D02*
D03*
X3302000D02*
D03*
X3048000D02*
D03*
X2794000D02*
D03*
X2540000D02*
D03*
X2286000D02*
D03*
X2032000D02*
D03*
X2286000Y4258400D02*
D03*
X2032000D02*
D03*
X2286000Y4512400D02*
D03*
X2032000D02*
D03*
D271*
X8382000Y952800D02*
D03*
Y1206800D02*
D03*
Y1460800D02*
D03*
Y1714800D02*
D03*
Y1968800D02*
D03*
Y2222800D02*
D03*
Y2476800D02*
D03*
X8128000Y952800D02*
D03*
Y1206800D02*
D03*
Y1460800D02*
D03*
Y1714800D02*
D03*
Y1968800D02*
D03*
Y2222800D02*
D03*
Y2476800D02*
D03*
X8382000Y2984800D02*
D03*
Y3238800D02*
D03*
Y3492800D02*
D03*
Y3746800D02*
D03*
Y4000800D02*
D03*
Y4254800D02*
D03*
Y4508800D02*
D03*
X8128000Y2984800D02*
D03*
Y3238800D02*
D03*
Y3492800D02*
D03*
Y3746800D02*
D03*
Y4000800D02*
D03*
Y4254800D02*
D03*
Y4508800D02*
D03*
D272*
X8064500Y615000D02*
D03*
Y4846000D02*
D03*
X1460500Y5143500D02*
D03*
D273*
X1480000Y695000D02*
D03*
Y345000D02*
D03*
D274*
X3429999Y1395000D02*
D03*
Y1585000D02*
D03*
X7430000Y2855000D02*
D03*
Y3045000D02*
D03*
Y975000D02*
D03*
Y1165000D02*
D03*
Y1725000D02*
D03*
Y1915000D02*
D03*
Y1355000D02*
D03*
Y1545000D02*
D03*
Y2095000D02*
D03*
Y2285000D02*
D03*
X7330000Y4365000D02*
D03*
Y4175000D02*
D03*
X7430000Y2475000D02*
D03*
Y2665000D02*
D03*
X8224500Y755000D02*
D03*
Y475000D02*
D03*
X7904500D02*
D03*
Y755000D02*
D03*
X8224500Y4986000D02*
D03*
Y4706000D02*
D03*
X7904500D02*
D03*
Y4986000D02*
D03*
X1290000Y4330000D02*
D03*
X1550000D02*
D03*
X8549997Y3599999D02*
D03*
X8399997Y2699999D02*
D03*
X8099998D02*
D03*
X8249997Y1799999D02*
D03*
X6449998Y3599999D02*
D03*
X6299998Y2699999D02*
D03*
X6449998Y600000D02*
D03*
X5999998Y1500000D02*
D03*
X5099998Y3299999D02*
D03*
X4799999Y900000D02*
D03*
X4649999Y1200000D02*
D03*
X4349999Y1799999D02*
D03*
X4199999Y300000D02*
D03*
X3749999Y2999999D02*
D03*
Y2399999D02*
D03*
X3599999Y900000D02*
D03*
X3299999Y2699999D02*
D03*
X2999999Y4499999D02*
D03*
X3149999Y3599999D02*
D03*
X2699999Y1500000D02*
D03*
X2549999Y4799999D02*
D03*
Y4199999D02*
D03*
X2399999Y3899999D02*
D03*
Y300000D02*
D03*
X2249999Y4799999D02*
D03*
X1799999Y5099998D02*
D03*
X1949999Y4799999D02*
D03*
X1799999Y4499999D02*
D03*
Y300000D02*
D03*
X1649999Y4799999D02*
D03*
Y1799999D02*
D03*
X1500000Y900000D02*
D03*
X1350000Y4799999D02*
D03*
X1200000Y1500000D02*
D03*
X1350000Y1200000D02*
D03*
X1200000Y300000D02*
D03*
X5530000Y4660000D02*
D03*
X5900000Y4572500D02*
D03*
X6710253Y1885314D02*
D03*
X7130000Y2220000D02*
D03*
X7800000Y5310000D02*
D03*
X8100000Y360000D02*
D03*
X7502500Y1252366D02*
D03*
X7689985Y1249997D02*
D03*
X7200284Y1361640D02*
D03*
X7280000Y1307500D02*
D03*
X7649985Y1449997D02*
D03*
X7870000Y1320000D02*
D03*
X7754146Y1387500D02*
D03*
X7360000Y4450000D02*
D03*
Y4610000D02*
D03*
X7000000Y4284038D02*
D03*
X7189986Y2449995D02*
D03*
X7120000Y2500000D02*
D03*
X7040000Y2300000D02*
D03*
Y2690000D02*
D03*
X6960000Y2650000D02*
D03*
X7169986Y2619995D02*
D03*
X7080000Y2790000D02*
D03*
X7090000Y4280000D02*
D03*
X7142717Y4143903D02*
D03*
X7129986Y4069992D02*
D03*
X3870000Y4600000D02*
D03*
X4140000Y4560000D02*
D03*
X4290000Y4600000D02*
D03*
X4310000Y4772500D02*
D03*
X5380000Y960000D02*
D03*
X5460000Y860000D02*
D03*
X5760000Y2010000D02*
D03*
X4169999Y3514047D02*
D03*
X4230000Y3460000D02*
D03*
X4410000Y3760000D02*
D03*
X4420000Y3660000D02*
D03*
X4500000Y3470000D02*
D03*
X7350000Y3249251D02*
D03*
X7426750D02*
D03*
X7566184D02*
D03*
X7590000Y3080000D02*
D03*
X7658087Y3011913D02*
D03*
X7141317Y3321317D02*
D03*
X7100000Y3010000D02*
D03*
X7640000Y2720000D02*
D03*
X7689985Y2659995D02*
D03*
Y2579995D02*
D03*
X7560000Y2730000D02*
D03*
X7670000Y2500000D02*
D03*
X7209986Y1874991D02*
D03*
X7182123Y1747877D02*
D03*
X7150000Y1430000D02*
D03*
X7060000Y1570000D02*
D03*
Y1930000D02*
D03*
X7181317Y2108683D02*
D03*
X7229986Y2039996D02*
D03*
X7109986Y999998D02*
D03*
X7200000Y1000000D02*
D03*
X7019342Y1090658D02*
D03*
X7210000Y1122500D02*
D03*
X7300000Y910000D02*
D03*
X7209986Y1499997D02*
D03*
X4249991Y3359993D02*
D03*
X4160000Y3930000D02*
D03*
X6810000Y3500000D02*
D03*
X7097500Y3596747D02*
D03*
X7558364Y4210000D02*
D03*
X7570000Y4340000D02*
D03*
X7000000Y4580000D02*
D03*
X7920000Y4280000D02*
D03*
X7721054Y2265000D02*
D03*
X7724103Y2190000D02*
D03*
X7649985Y2299995D02*
D03*
X7659985Y2129996D02*
D03*
X7720000Y1880000D02*
D03*
Y1800000D02*
D03*
X7651897Y1922499D02*
D03*
X7687327Y1726203D02*
D03*
X7660000Y1570000D02*
D03*
X7659985Y1129998D02*
D03*
Y1009998D02*
D03*
X7719985Y1069998D02*
D03*
X7630000Y930000D02*
D03*
X5650000Y3710000D02*
D03*
X6040000Y1640000D02*
D03*
Y1740000D02*
D03*
Y1830000D02*
D03*
Y1940000D02*
D03*
X6780000Y2240000D02*
D03*
X5070000Y3170000D02*
D03*
X5286249Y3033751D02*
D03*
X4290000Y2890000D02*
D03*
X5280000Y2950000D02*
D03*
X5149951Y2364951D02*
D03*
X4320000Y2330000D02*
D03*
Y2240000D02*
D03*
X6719987Y779998D02*
D03*
X6720000Y1020000D02*
D03*
X5970000Y810000D02*
D03*
X6039988Y999998D02*
D03*
X5139990Y869998D02*
D03*
X5060000Y882123D02*
D03*
X6040000Y1080000D02*
D03*
X6049988Y839998D02*
D03*
X7570000Y3890000D02*
D03*
X7640000Y3562500D02*
D03*
X7800000Y4640000D02*
D03*
X6690000Y4580000D02*
D03*
X6600000D02*
D03*
X5390000Y4660000D02*
D03*
X4990000Y4502500D02*
D03*
X4450000Y4860000D02*
D03*
X4860000Y3460000D02*
D03*
X4440000Y3950000D02*
D03*
X4380000Y4140000D02*
D03*
X4939990Y3709993D02*
D03*
X4829990Y3789992D02*
D03*
X4460000Y4040000D02*
D03*
X3730000Y3500000D02*
D03*
X3530000Y3830000D02*
D03*
X3650000Y4540000D02*
D03*
X2929994Y3369993D02*
D03*
X2410000Y3410000D02*
D03*
X3600000Y3370000D02*
D03*
X4321405Y2760000D02*
D03*
X3220000Y2820000D02*
D03*
X3970000Y2410000D02*
D03*
Y2320000D02*
D03*
X4090098Y2928585D02*
D03*
X4092500Y3090000D02*
D03*
X3870000Y2770000D02*
D03*
X3930000Y4772500D02*
D03*
X3779992Y1409997D02*
D03*
X3450000Y865000D02*
D03*
X3449993Y949998D02*
D03*
X3720000Y920000D02*
D03*
X3409993Y2059996D02*
D03*
X3480000Y2010000D02*
D03*
X3584073Y2185927D02*
D03*
X3421109Y2379792D02*
D03*
X3730000Y2890000D02*
D03*
X3131493Y1796668D02*
D03*
X2930000Y2350000D02*
D03*
X3532374Y2452374D02*
D03*
X2280001Y1459999D02*
D03*
X2050000Y1830000D02*
D03*
X2727310Y3290000D02*
D03*
X1460000Y1200000D02*
D03*
X4010000Y2100000D02*
D03*
X5838749Y3281251D02*
D03*
X6450000Y3320000D02*
D03*
X4450000Y4310000D02*
D03*
X1270000Y1090000D02*
D03*
Y1760000D02*
D03*
X2720000Y4210000D02*
D03*
X2490000Y4080000D02*
D03*
X3660000Y4380000D02*
D03*
X1750000Y1650000D02*
D03*
X1340000Y4680000D02*
D03*
X2740000Y4590000D02*
D03*
X2500000Y4610000D02*
D03*
X3280000Y4350000D02*
D03*
X3330000Y4097503D02*
D03*
X2780000Y3740000D02*
D03*
X3080000D02*
D03*
X3050000Y3530000D02*
D03*
X3021664Y3349445D02*
D03*
X3440000Y3710000D02*
D03*
X3260000Y3290000D02*
D03*
X3330000Y3180000D02*
D03*
X4420000Y2760000D02*
D03*
Y3340000D02*
D03*
X6100000Y2810000D02*
D03*
X6320000Y3020000D02*
D03*
X7090000Y3210000D02*
D03*
X7089986Y3389993D02*
D03*
X4700000Y960000D02*
D03*
X4453075Y4211807D02*
D03*
X4960000Y4210000D02*
D03*
X4800000Y3010000D02*
D03*
X5100000Y3450000D02*
D03*
X5010000Y3330000D02*
D03*
X5310000Y3640000D02*
D03*
X5910000Y4160000D02*
D03*
X6270000Y4560000D02*
D03*
X7780000Y4550000D02*
D03*
X6239999Y2409999D02*
D03*
X6590000Y2240000D02*
D03*
X7890000Y920000D02*
D03*
X8350000Y510000D02*
D03*
X7850000Y170000D02*
D03*
X7690000Y680000D02*
D03*
X6790000Y620000D02*
D03*
X6620000Y1370000D02*
D03*
X6240000Y1530000D02*
D03*
X4844366Y1570330D02*
D03*
X2990000Y2070000D02*
D03*
X1830000Y1740000D02*
D03*
X2138480Y941520D02*
D03*
X2120000Y2040000D02*
D03*
X2330000Y2470000D02*
D03*
X2410000Y2410000D02*
D03*
X2610000Y2120000D02*
D03*
X4240000Y700000D02*
D03*
X4687501Y2117501D02*
D03*
X5840000Y2360000D02*
D03*
X5710000Y1860000D02*
D03*
Y1580000D02*
D03*
X5030000Y970000D02*
D03*
X4339996Y1510000D02*
D03*
X2650000Y1120000D02*
D03*
X3090000Y1370000D02*
D03*
X2440000Y620000D02*
D03*
X2740000D02*
D03*
X7660000Y2930000D02*
D03*
X6145217Y2404784D02*
D03*
X6140000Y1520000D02*
D03*
X6850000Y1380000D02*
D03*
X6620000Y2340000D02*
D03*
X2660000Y3579997D02*
D03*
X7720000Y4270000D02*
D03*
X7210940Y2243440D02*
D03*
X7110000Y4580000D02*
D03*
X2570000Y1960000D02*
D03*
X2330000Y3720000D02*
D03*
X7630000Y4440000D02*
D03*
X8064602Y5210001D02*
D03*
X3610000Y2380000D02*
D03*
X1650000Y4680000D02*
D03*
X6050000Y920000D02*
D03*
X4500000Y1170000D02*
D03*
X3874886Y1725615D02*
D03*
X3540000Y4607500D02*
D03*
X2610000Y2330000D02*
D03*
X6042500Y2020000D02*
D03*
X5710000Y1420000D02*
D03*
X6710000Y1990000D02*
D03*
Y1800000D02*
D03*
Y1650000D02*
D03*
X5280000Y1310000D02*
D03*
X1460000Y1890000D02*
D03*
X7099986Y2929994D02*
D03*
X6890000Y3550000D02*
D03*
X4320000Y3130000D02*
D03*
X4940000Y3160000D02*
D03*
X4840000Y3085003D02*
D03*
X6960001Y3069999D02*
D03*
X6750000Y3650000D02*
D03*
X7667500Y3410000D02*
D03*
X8408519Y800296D02*
D03*
X7190000Y4600000D02*
D03*
X7300000Y3730000D02*
D03*
X4450000Y3830000D02*
D03*
X4240000Y2560000D02*
D03*
X6390000Y2460000D02*
D03*
X5060000Y2980003D02*
D03*
X2950000Y3170000D02*
D03*
X2700000Y4100000D02*
D03*
X3560000Y3600000D02*
D03*
X2487877Y3607877D02*
D03*
X2490000Y3810000D02*
D03*
X3170000Y3430000D02*
D03*
X2310573Y2181070D02*
D03*
X2972500Y4370000D02*
D03*
X3190000Y4590000D02*
D03*
X3305000Y4607500D02*
D03*
X3120000Y4030000D02*
D03*
X3088751Y2928751D02*
D03*
X6710000Y2840000D02*
D03*
X7140000Y2860000D02*
D03*
X7750000Y3740000D02*
D03*
X3380000Y4340000D02*
D03*
X3290000Y3560000D02*
D03*
X5210000Y2090000D02*
D03*
X5550000Y1720000D02*
D03*
X5820000Y2690000D02*
D03*
X5430000Y3120000D02*
D03*
X5154247Y4772635D02*
D03*
X7310000Y3540000D02*
D03*
X7190000Y3750000D02*
D03*
X7220000Y3670000D02*
D03*
X7150000Y1820000D02*
D03*
X6710000Y1370000D02*
D03*
Y2080000D02*
D03*
X7250000Y1660000D02*
D03*
X6720000Y940000D02*
D03*
X3820000Y870000D02*
D03*
X7080000Y1280000D02*
D03*
X6720000Y1110000D02*
D03*
X7931264Y3694134D02*
D03*
X7270000Y3610000D02*
D03*
X8000000Y2840000D02*
D03*
X7830000Y1080000D02*
D03*
X4770002Y4772500D02*
D03*
X3480000D02*
D03*
X6210000Y2990000D02*
D03*
X4180000Y870000D02*
D03*
X6410000Y2970000D02*
D03*
X7620000Y4610000D02*
D03*
X7510000D02*
D03*
X5710000Y860000D02*
D03*
X3500000Y3380000D02*
D03*
X4770000Y4180000D02*
D03*
X4761155Y3608969D02*
D03*
X4880000Y2770000D02*
D03*
X4935771Y3510813D02*
D03*
X4690000Y700000D02*
D03*
X3250000Y4770000D02*
D03*
X6090000Y700000D02*
D03*
X1819985Y1559674D02*
D03*
X3740000Y700000D02*
D03*
X4520000D02*
D03*
X5220000D02*
D03*
X7350000D02*
D03*
X3110000Y3100000D02*
D03*
X4220000Y2760000D02*
D03*
X4800000Y2680000D02*
D03*
X2890000Y3010000D02*
D03*
X4180000Y1720000D02*
D03*
X2980000Y3840000D02*
D03*
X4290000Y3030000D02*
D03*
X5250000Y3810000D02*
D03*
X5240000Y2230000D02*
D03*
X3740000Y1280000D02*
D03*
X2330000Y2600000D02*
D03*
X2535001Y1315001D02*
D03*
X2550000Y2070000D02*
D03*
X5570000Y860000D02*
D03*
X2420000Y2930000D02*
D03*
D275*
X1640484Y5323500D02*
D03*
X1640988Y4963500D02*
D03*
X1280500D02*
D03*
Y5323500D02*
D03*
%TF.MD5,af522e44c84f2b42fbd1a37ea4c0a13d*%
M02*
