%TF.GenerationSoftware,Altium Limited,Altium Designer,22.9.1 (49)*%
G04 Layer_Color=255*
%FSLAX45Y45*%
%MOMM*%
%TF.SameCoordinates,1DF69D78-5120-4B12-B4B9-43D88C5B1DD9*%
%TF.FilePolarity,Positive*%
%TF.FileFunction,Pads,Bot*%
%TF.Part,Single*%
G01*
G75*
%TA.AperFunction,ComponentPad*%
G04:AMPARAMS|DCode=95|XSize=1.7mm|YSize=2.1mm|CornerRadius=0mm|HoleSize=0mm|Usage=FLASHONLY|Rotation=270.000|XOffset=0mm|YOffset=0mm|HoleType=Round|Shape=Octagon|*
%AMOCTAGOND95*
4,1,8,1.05000,0.42500,1.05000,-0.42500,0.62500,-0.85000,-0.62500,-0.85000,-1.05000,-0.42500,-1.05000,0.42500,-0.62500,0.85000,0.62500,0.85000,1.05000,0.42500,0.0*
%
%ADD95OCTAGOND95*%

G04:AMPARAMS|DCode=96|XSize=1.7mm|YSize=2.1mm|CornerRadius=0.425mm|HoleSize=0mm|Usage=FLASHONLY|Rotation=270.000|XOffset=0mm|YOffset=0mm|HoleType=Round|Shape=RoundedRectangle|*
%AMROUNDEDRECTD96*
21,1,1.70000,1.25001,0,0,270.0*
21,1,0.85000,2.10000,0,0,270.0*
1,1,0.85000,-0.62500,-0.42500*
1,1,0.85000,-0.62500,0.42500*
1,1,0.85000,0.62500,0.42500*
1,1,0.85000,0.62500,-0.42500*
%
%ADD96ROUNDEDRECTD96*%
G04:AMPARAMS|DCode=97|XSize=1.7mm|YSize=2.1mm|CornerRadius=0mm|HoleSize=0mm|Usage=FLASHONLY|Rotation=0.000|XOffset=0mm|YOffset=0mm|HoleType=Round|Shape=Octagon|*
%AMOCTAGOND97*
4,1,8,-0.42500,1.05000,0.42500,1.05000,0.85000,0.62500,0.85000,-0.62500,0.42500,-1.05000,-0.42500,-1.05000,-0.85000,-0.62500,-0.85000,0.62500,-0.42500,1.05000,0.0*
%
%ADD97OCTAGOND97*%

G04:AMPARAMS|DCode=98|XSize=1.7mm|YSize=2.1mm|CornerRadius=0.425mm|HoleSize=0mm|Usage=FLASHONLY|Rotation=0.000|XOffset=0mm|YOffset=0mm|HoleType=Round|Shape=RoundedRectangle|*
%AMROUNDEDRECTD98*
21,1,1.70000,1.25001,0,0,0.0*
21,1,0.85000,2.10000,0,0,0.0*
1,1,0.85000,0.42500,-0.62500*
1,1,0.85000,-0.42500,-0.62500*
1,1,0.85000,-0.42500,0.62500*
1,1,0.85000,0.42500,0.62500*
%
%ADD98ROUNDEDRECTD98*%
G04:AMPARAMS|DCode=99|XSize=1.8mm|YSize=1.45mm|CornerRadius=0.3625mm|HoleSize=0mm|Usage=FLASHONLY|Rotation=180.000|XOffset=0mm|YOffset=0mm|HoleType=Round|Shape=RoundedRectangle|*
%AMROUNDEDRECTD99*
21,1,1.80000,0.72500,0,0,180.0*
21,1,1.07500,1.45000,0,0,180.0*
1,1,0.72500,-0.53750,0.36250*
1,1,0.72500,0.53750,0.36250*
1,1,0.72500,0.53750,-0.36250*
1,1,0.72500,-0.53750,-0.36250*
%
%ADD99ROUNDEDRECTD99*%
G04:AMPARAMS|DCode=100|XSize=4mm|YSize=3.6mm|CornerRadius=0.54mm|HoleSize=0mm|Usage=FLASHONLY|Rotation=0.000|XOffset=0mm|YOffset=0mm|HoleType=Round|Shape=RoundedRectangle|*
%AMROUNDEDRECTD100*
21,1,4.00000,2.52000,0,0,0.0*
21,1,2.92000,3.60000,0,0,0.0*
1,1,1.08000,1.46000,-1.26000*
1,1,1.08000,-1.46000,-1.26000*
1,1,1.08000,-1.46000,1.26000*
1,1,1.08000,1.46000,1.26000*
%
%ADD100ROUNDEDRECTD100*%
G04:AMPARAMS|DCode=101|XSize=2.2mm|YSize=2.2mm|CornerRadius=0mm|HoleSize=0mm|Usage=FLASHONLY|Rotation=270.000|XOffset=0mm|YOffset=0mm|HoleType=Round|Shape=Octagon|*
%AMOCTAGOND101*
4,1,8,-0.55000,-1.10000,0.55000,-1.10000,1.10000,-0.55000,1.10000,0.55000,0.55000,1.10000,-0.55000,1.10000,-1.10000,0.55000,-1.10000,-0.55000,-0.55000,-1.10000,0.0*
%
%ADD101OCTAGOND101*%

G04:AMPARAMS|DCode=102|XSize=2.2mm|YSize=2.2mm|CornerRadius=0.55mm|HoleSize=0mm|Usage=FLASHONLY|Rotation=270.000|XOffset=0mm|YOffset=0mm|HoleType=Round|Shape=RoundedRectangle|*
%AMROUNDEDRECTD102*
21,1,2.20000,1.10000,0,0,270.0*
21,1,1.10000,2.20000,0,0,270.0*
1,1,1.10000,-0.55000,-0.55000*
1,1,1.10000,-0.55000,0.55000*
1,1,1.10000,0.55000,0.55000*
1,1,1.10000,0.55000,-0.55000*
%
%ADD102ROUNDEDRECTD102*%
%TA.AperFunction,SMDPad,CuDef*%
G04:AMPARAMS|DCode=107|XSize=2.2mm|YSize=0.7mm|CornerRadius=0.175mm|HoleSize=0mm|Usage=FLASHONLY|Rotation=180.000|XOffset=0mm|YOffset=0mm|HoleType=Round|Shape=RoundedRectangle|*
%AMROUNDEDRECTD107*
21,1,2.20000,0.35000,0,0,180.0*
21,1,1.85000,0.70000,0,0,180.0*
1,1,0.35000,-0.92500,0.17500*
1,1,0.35000,0.92500,0.17500*
1,1,0.35000,0.92500,-0.17500*
1,1,0.35000,-0.92500,-0.17500*
%
%ADD107ROUNDEDRECTD107*%
G04:AMPARAMS|DCode=108|XSize=1.2mm|YSize=3mm|CornerRadius=0.3mm|HoleSize=0mm|Usage=FLASHONLY|Rotation=270.000|XOffset=0mm|YOffset=0mm|HoleType=Round|Shape=RoundedRectangle|*
%AMROUNDEDRECTD108*
21,1,1.20000,2.40000,0,0,270.0*
21,1,0.60000,3.00000,0,0,270.0*
1,1,0.60000,-1.20000,-0.30000*
1,1,0.60000,-1.20000,0.30000*
1,1,0.60000,1.20000,0.30000*
1,1,0.60000,1.20000,-0.30000*
%
%ADD108ROUNDEDRECTD108*%
G04:AMPARAMS|DCode=109|XSize=1.2mm|YSize=3.5mm|CornerRadius=0mm|HoleSize=0mm|Usage=FLASHONLY|Rotation=270.000|XOffset=0mm|YOffset=0mm|HoleType=Round|Shape=Octagon|*
%AMOCTAGOND109*
4,1,8,1.75000,0.30000,1.75000,-0.30000,1.45000,-0.60000,-1.45000,-0.60000,-1.75000,-0.30000,-1.75000,0.30000,-1.45000,0.60000,1.45000,0.60000,1.75000,0.30000,0.0*
%
%ADD109OCTAGOND109*%

G04:AMPARAMS|DCode=110|XSize=1.2mm|YSize=3mm|CornerRadius=0.3mm|HoleSize=0mm|Usage=FLASHONLY|Rotation=0.000|XOffset=0mm|YOffset=0mm|HoleType=Round|Shape=RoundedRectangle|*
%AMROUNDEDRECTD110*
21,1,1.20000,2.40000,0,0,0.0*
21,1,0.60000,3.00000,0,0,0.0*
1,1,0.60000,0.30000,-1.20000*
1,1,0.60000,-0.30000,-1.20000*
1,1,0.60000,-0.30000,1.20000*
1,1,0.60000,0.30000,1.20000*
%
%ADD110ROUNDEDRECTD110*%
G04:AMPARAMS|DCode=111|XSize=1.2mm|YSize=3.5mm|CornerRadius=0mm|HoleSize=0mm|Usage=FLASHONLY|Rotation=0.000|XOffset=0mm|YOffset=0mm|HoleType=Round|Shape=Octagon|*
%AMOCTAGOND111*
4,1,8,-0.30000,1.75000,0.30000,1.75000,0.60000,1.45000,0.60000,-1.45000,0.30000,-1.75000,-0.30000,-1.75000,-0.60000,-1.45000,-0.60000,1.45000,-0.30000,1.75000,0.0*
%
%ADD111OCTAGOND111*%

D95*
X8108000Y2349500D02*
D03*
Y5143500D02*
D03*
X2012000Y4512400D02*
D03*
D96*
X8108000Y2095500D02*
D03*
Y1841500D02*
D03*
Y1587500D02*
D03*
Y1333500D02*
D03*
Y1079500D02*
D03*
Y825500D02*
D03*
X8402000Y2349500D02*
D03*
Y2095500D02*
D03*
Y1841500D02*
D03*
Y1587500D02*
D03*
Y1333500D02*
D03*
Y1079500D02*
D03*
Y825500D02*
D03*
X8108000Y571500D02*
D03*
Y317500D02*
D03*
X8402000Y571500D02*
D03*
Y317500D02*
D03*
X8108000Y4889500D02*
D03*
Y4635500D02*
D03*
Y4381500D02*
D03*
Y4127500D02*
D03*
Y3873500D02*
D03*
Y3619500D02*
D03*
X8402000Y5143500D02*
D03*
Y4889500D02*
D03*
Y4635500D02*
D03*
Y4381500D02*
D03*
Y4127500D02*
D03*
Y3873500D02*
D03*
Y3619500D02*
D03*
X8108000Y3365500D02*
D03*
Y3111500D02*
D03*
X8402000Y3365500D02*
D03*
Y3111500D02*
D03*
X2306000Y4512400D02*
D03*
Y4258400D02*
D03*
X2012000D02*
D03*
D97*
X2032000Y170500D02*
D03*
Y4996500D02*
D03*
D98*
X2286000Y170500D02*
D03*
X2540000D02*
D03*
X2794000D02*
D03*
X3048000D02*
D03*
X3302000D02*
D03*
X3556000D02*
D03*
X3810000D02*
D03*
X4064000D02*
D03*
X4318000D02*
D03*
X4572000D02*
D03*
X4826000D02*
D03*
X5080000D02*
D03*
X5334000D02*
D03*
X5588000D02*
D03*
X5842000D02*
D03*
X6096000D02*
D03*
X6350000D02*
D03*
X6604000D02*
D03*
X6858000D02*
D03*
X7112000D02*
D03*
X7366000D02*
D03*
X7620000D02*
D03*
X2032000Y464500D02*
D03*
X2286000D02*
D03*
X2540000D02*
D03*
X2794000D02*
D03*
X3048000D02*
D03*
X3302000D02*
D03*
X3556000D02*
D03*
X3810000D02*
D03*
X4064000D02*
D03*
X4318000D02*
D03*
X4572000D02*
D03*
X4826000D02*
D03*
X5080000D02*
D03*
X5334000D02*
D03*
X5588000D02*
D03*
X5842000D02*
D03*
X6096000D02*
D03*
X6350000D02*
D03*
X6604000D02*
D03*
X6858000D02*
D03*
X7112000D02*
D03*
X7366000D02*
D03*
X7620000D02*
D03*
X2286000Y4996500D02*
D03*
X2540000D02*
D03*
X2794000D02*
D03*
X3048000D02*
D03*
X3302000D02*
D03*
X3556000D02*
D03*
X3810000D02*
D03*
X4064000D02*
D03*
X4318000D02*
D03*
X4572000D02*
D03*
X4826000D02*
D03*
X5080000D02*
D03*
X5334000D02*
D03*
X5588000D02*
D03*
X5842000D02*
D03*
X6096000D02*
D03*
X6350000D02*
D03*
X6604000D02*
D03*
X6858000D02*
D03*
X7112000D02*
D03*
X7366000D02*
D03*
X7620000D02*
D03*
X2032000Y5290500D02*
D03*
X2286000D02*
D03*
X2540000D02*
D03*
X2794000D02*
D03*
X3048000D02*
D03*
X3302000D02*
D03*
X3556000D02*
D03*
X3810000D02*
D03*
X4064000D02*
D03*
X4318000D02*
D03*
X4572000D02*
D03*
X4826000D02*
D03*
X5080000D02*
D03*
X5334000D02*
D03*
X5588000D02*
D03*
X5842000D02*
D03*
X6096000D02*
D03*
X6350000D02*
D03*
X6604000D02*
D03*
X6858000D02*
D03*
X7112000D02*
D03*
X7366000D02*
D03*
X7620000D02*
D03*
D99*
X1672000Y978000D02*
D03*
X1292000D02*
D03*
X1672000Y1842000D02*
D03*
X1292000D02*
D03*
D100*
X1460500Y5143500D02*
D03*
D101*
X1480000Y695000D02*
D03*
D102*
Y345000D02*
D03*
D107*
X1660000Y1630000D02*
D03*
Y1480000D02*
D03*
Y1330000D02*
D03*
Y1180000D02*
D03*
D108*
X3640000Y950000D02*
D03*
X5520000Y2090000D02*
D03*
X4790000Y1580000D02*
D03*
D109*
X3640000Y1300000D02*
D03*
X5520000Y2440000D02*
D03*
X4790000Y1230000D02*
D03*
D110*
X3170000Y3260000D02*
D03*
D111*
X2820000D02*
D03*
%TF.MD5,6f855e06556afd4c1551b9f27c05da41*%
M02*
