%TF.GenerationSoftware,Altium Limited,Altium Designer,21.9.2 (33)*%
G04 Layer_Color=32896*
%FSLAX45Y45*%
%MOMM*%
%TF.SameCoordinates,7777544D-92F5-45BF-99EE-D781317D7DBF*%
%TF.FilePolarity,Positive*%
%TF.FileFunction,Legend,Bot*%
%TF.Part,Single*%
G01*
G75*
%TA.AperFunction,NonConductor*%
%ADD102C,0.20000*%
%ADD103C,0.15000*%
%ADD104R,1.40000X0.15001*%
%ADD105R,0.60000X0.15001*%
%ADD106R,0.20000X0.15001*%
%ADD107R,0.40000X0.15001*%
%ADD108R,0.60000X0.14996*%
%ADD109R,0.20000X0.14996*%
%ADD110R,0.40000X0.14996*%
%ADD111R,1.40000X0.14996*%
%ADD112R,0.80000X0.14996*%
%ADD113R,1.20000X0.14996*%
%ADD114R,1.00000X0.14996*%
G36*
X8008000Y5313500D02*
X7975843Y5352089D01*
X8040158D01*
X8008000Y5313500D01*
D02*
G37*
G36*
X1860418Y4896449D02*
X1822000Y4864434D01*
Y4928464D01*
X1860418Y4896449D01*
D02*
G37*
G36*
X1861288Y4138203D02*
X1822699Y4106046D01*
Y4170361D01*
X1861288Y4138203D01*
D02*
G37*
G36*
X8008000Y2519500D02*
X7975843Y2558089D01*
X8040158D01*
X8008000Y2519500D01*
D02*
G37*
G36*
X1488589Y1646842D02*
X1450000Y1679000D01*
X1488589Y1711157D01*
Y1646842D01*
D02*
G37*
G36*
X1860418Y70449D02*
X1822000Y38434D01*
Y102464D01*
X1860418Y70449D01*
D02*
G37*
D102*
X1180000Y1024000D02*
Y1083997D01*
X1140000Y1014000D02*
X1480000D01*
X1440000Y1024000D02*
Y1086000D01*
Y1756003D02*
Y1816000D01*
X1140000Y1826000D02*
X1480000D01*
X1180000Y1754000D02*
Y1816000D01*
X8508000Y2431503D02*
Y2491500D01*
X7963000Y2501500D02*
X8548000D01*
X8003000Y2429500D02*
Y2491500D01*
X7963000Y1206500D02*
X8548000D01*
X8508000Y1161503D02*
Y1205752D01*
X8003000Y1159500D02*
Y1206354D01*
X7972000Y1206500D02*
X8537000D01*
X8003000Y1207248D02*
Y1251497D01*
X8508000Y1206646D02*
Y1253500D01*
Y170500D02*
Y237500D01*
X8003000Y170500D02*
Y235497D01*
X7963000Y160500D02*
X8548000D01*
X8508000Y5225503D02*
Y5285500D01*
X7963000Y5295500D02*
X8548000D01*
X8003000Y5223500D02*
Y5285500D01*
X7963000Y4000500D02*
X8548000D01*
X8508000Y3955503D02*
Y3999752D01*
X8003000Y3953500D02*
Y4000354D01*
X7972000Y4000500D02*
X8537000D01*
X8003000Y4001248D02*
Y4045497D01*
X8508000Y4000646D02*
Y4047500D01*
Y2964500D02*
Y3031500D01*
X8003000Y2964500D02*
Y3029497D01*
X7963000Y2954500D02*
X8548000D01*
X3128000Y570500D02*
X3174854D01*
X3130003Y65500D02*
X3174252D01*
X3175000Y25500D02*
Y610500D01*
X4445146Y65500D02*
X4492000D01*
X4445748Y570500D02*
X4489997D01*
X4445000Y56500D02*
Y580500D01*
X4398000Y570500D02*
X4444854D01*
X4400003Y65500D02*
X4444252D01*
X4445000Y25500D02*
Y610500D01*
X5715146Y65500D02*
X5762000D01*
X5715748Y570500D02*
X5759997D01*
X5715000Y56500D02*
Y580500D01*
X5668000Y570500D02*
X5714854D01*
X5670003Y65500D02*
X5714252D01*
X5715000Y25500D02*
Y610500D01*
X6985146Y65500D02*
X7032000D01*
X6985748Y570500D02*
X7029997D01*
X6985000Y56500D02*
Y580500D01*
X6938000Y570500D02*
X6984854D01*
X6940003Y65500D02*
X6984252D01*
X6985000Y25500D02*
Y610500D01*
X7700000Y570500D02*
X7767000D01*
X7702003Y65500D02*
X7767000D01*
X7777000Y25500D02*
Y610500D01*
X3175146Y65500D02*
X3222000D01*
X3175748Y570500D02*
X3219997D01*
X3175000Y56500D02*
Y580500D01*
X1890000Y65500D02*
X1952000D01*
X1880000Y25500D02*
Y610500D01*
X1890000Y570500D02*
X1949997D01*
X3128000Y5396500D02*
X3174854D01*
X3130003Y4891500D02*
X3174252D01*
X3175000Y4851500D02*
Y5436500D01*
X4445146Y4891500D02*
X4492000D01*
X4445748Y5396500D02*
X4489997D01*
X4445000Y4882500D02*
Y5406500D01*
X4398000Y5396500D02*
X4444854D01*
X4400003Y4891500D02*
X4444252D01*
X4445000Y4851500D02*
Y5436500D01*
X5715146Y4891500D02*
X5762000D01*
X5715748Y5396500D02*
X5759997D01*
X5715000Y4882500D02*
Y5406500D01*
X5668000Y5396500D02*
X5714854D01*
X5670003Y4891500D02*
X5714252D01*
X5715000Y4851500D02*
Y5436500D01*
X6985146Y4891500D02*
X7032000D01*
X6985748Y5396500D02*
X7029997D01*
X6985000Y4882500D02*
Y5406500D01*
X6938000Y5396500D02*
X6984854D01*
X6940003Y4891500D02*
X6984252D01*
X6985000Y4851500D02*
Y5436500D01*
X7700000Y5396500D02*
X7767000D01*
X7702003Y4891500D02*
X7767000D01*
X7777000Y4851500D02*
Y5436500D01*
X3175146Y4891500D02*
X3222000D01*
X3175748Y5396500D02*
X3219997D01*
X3175000Y4882500D02*
Y5406500D01*
X1890000Y4891500D02*
X1952000D01*
X1880000Y4851500D02*
Y5436500D01*
X1890000Y5396500D02*
X1949997D01*
X2366000Y4638400D02*
X2433000D01*
X2368003Y4133400D02*
X2433000D01*
X2443000Y4093400D02*
Y4678400D01*
X1890000Y4638400D02*
X1949997D01*
X1880000Y4093400D02*
Y4678400D01*
X1890000Y4133400D02*
X1952000D01*
X2189998Y1370000D02*
X2260001D01*
X2229998Y1400002D02*
X2260001Y1370000D01*
X2229998Y1340002D02*
X2260001Y1370000D01*
X2740000Y1230000D02*
Y1300002D01*
X2710002Y1270000D02*
X2740000Y1300002D01*
X2770002Y1270000D01*
X1619968Y1156645D02*
Y1090000D01*
X1520000D01*
Y1156645D01*
X1569984Y1090000D02*
Y1123322D01*
X1619968Y1189968D02*
X1520000Y1256613D01*
X1619968D02*
X1520000Y1189968D01*
X1619968Y1289935D02*
Y1356580D01*
Y1323258D01*
X1520000D01*
X1619968Y1589839D02*
X1520000D01*
Y1639823D01*
X1536661Y1656484D01*
X1553323D01*
X1569984Y1639823D01*
Y1589839D01*
Y1639823D01*
X1586645Y1656484D01*
X1603306D01*
X1619968Y1639823D01*
Y1589839D01*
Y1689807D02*
X1520000D01*
Y1739791D01*
X1536661Y1756452D01*
X1553323D01*
X1569984Y1739791D01*
Y1689807D01*
Y1739791D01*
X1586645Y1756452D01*
X1603306D01*
X1619968Y1739791D01*
Y1689807D01*
X2563307Y1096645D02*
X2579968Y1079984D01*
Y1046661D01*
X2563307Y1030000D01*
X2496662D01*
X2480000Y1046661D01*
Y1079984D01*
X2496662Y1096645D01*
X2480000Y1129968D02*
X2546645D01*
X2579968Y1163290D01*
X2546645Y1196613D01*
X2480000D01*
X2529984D01*
Y1129968D01*
X2480000Y1229935D02*
X2579968D01*
Y1279919D01*
X2563307Y1296580D01*
X2529984D01*
X2513323Y1279919D01*
Y1229935D01*
X2283307Y1096645D02*
X2299968Y1079984D01*
Y1046661D01*
X2283307Y1030000D01*
X2216662D01*
X2200000Y1046661D01*
Y1079984D01*
X2216662Y1096645D01*
X2249984D01*
Y1063322D01*
X2200000Y1129968D02*
X2299968D01*
X2200000Y1196613D01*
X2299968D01*
Y1229935D02*
X2200000D01*
Y1279919D01*
X2216662Y1296580D01*
X2283307D01*
X2299968Y1279919D01*
Y1229935D01*
X2789968Y1096645D02*
Y1030000D01*
X2739984D01*
X2756645Y1063322D01*
Y1079984D01*
X2739984Y1096645D01*
X2706662D01*
X2690000Y1079984D01*
Y1046661D01*
X2706662Y1030000D01*
X2789968Y1129968D02*
X2723323D01*
X2690000Y1163290D01*
X2723323Y1196613D01*
X2789968D01*
X1693322Y1130000D02*
X1793290D01*
Y1179984D01*
X1776629Y1196645D01*
X1743306D01*
X1726645Y1179984D01*
Y1130000D01*
X1759967Y1229968D02*
X1709984D01*
X1693322Y1246629D01*
X1709984Y1263290D01*
X1693322Y1279951D01*
X1709984Y1296613D01*
X1759967D01*
Y1329935D02*
X1693322D01*
X1726645D01*
X1743306Y1346597D01*
X1759967Y1363258D01*
Y1379919D01*
X1793290Y1529871D02*
X1693322D01*
Y1579855D01*
X1709984Y1596516D01*
X1726645D01*
X1743306D01*
X1759967Y1579855D01*
Y1529871D01*
Y1629839D02*
X1709984D01*
X1693322Y1646500D01*
Y1696484D01*
X1676661D01*
X1660000Y1679823D01*
Y1663161D01*
X1693322Y1696484D02*
X1759967D01*
X1339968Y636645D02*
Y570000D01*
X1289984D01*
X1306645Y603322D01*
Y619984D01*
X1289984Y636645D01*
X1256661D01*
X1240000Y619984D01*
Y586661D01*
X1256661Y570000D01*
X1339968Y669968D02*
X1273323D01*
X1240000Y703290D01*
X1273323Y736613D01*
X1339968D01*
Y836580D02*
Y769935D01*
X1240000D01*
Y836580D01*
X1289984Y769935D02*
Y803258D01*
X1323306Y276645D02*
X1339968Y259983D01*
Y226661D01*
X1323306Y210000D01*
X1256661D01*
X1240000Y226661D01*
Y259983D01*
X1256661Y276645D01*
X1289984D01*
Y243322D01*
X1240000Y309967D02*
X1339968D01*
X1240000Y376612D01*
X1339968D01*
Y409935D02*
X1240000D01*
Y459919D01*
X1256661Y476580D01*
X1323306D01*
X1339968Y459919D01*
Y409935D01*
X2950000Y4349968D02*
Y4283322D01*
X2916677Y4250000D01*
X2883355Y4283322D01*
Y4349968D01*
X2850032D02*
Y4250000D01*
Y4299984D01*
X2783387D01*
Y4349968D01*
Y4250000D01*
X2733403Y4316645D02*
X2700080D01*
X2683419Y4299984D01*
Y4250000D01*
X2733403D01*
X2750064Y4266661D01*
X2733403Y4283322D01*
X2683419D01*
X2650097Y4316645D02*
Y4250000D01*
Y4283322D01*
X2633435Y4299984D01*
X2616774Y4316645D01*
X2600113D01*
X2550129D02*
X2516806Y4250000D01*
X2483484Y4316645D01*
X3050000Y4539968D02*
Y4473323D01*
X3016677Y4440000D01*
X2983355Y4473323D01*
Y4539968D01*
X2883387Y4523306D02*
X2900048Y4539968D01*
X2933371D01*
X2950032Y4523306D01*
Y4506645D01*
X2933371Y4489984D01*
X2900048D01*
X2883387Y4473323D01*
Y4456661D01*
X2900048Y4440000D01*
X2933371D01*
X2950032Y4456661D01*
X2800081Y4440000D02*
X2833403D01*
X2850064Y4456661D01*
Y4489984D01*
X2833403Y4506645D01*
X2800081D01*
X2783419Y4489984D01*
Y4473323D01*
X2850064D01*
X2750097Y4440000D02*
Y4506645D01*
X2700113D01*
X2683452Y4489984D01*
Y4440000D01*
X2650129D02*
X2600145D01*
X2583484Y4456661D01*
X2600145Y4473323D01*
X2633467D01*
X2650129Y4489984D01*
X2633467Y4506645D01*
X2583484D01*
X2500177Y4440000D02*
X2533500D01*
X2550161Y4456661D01*
Y4489984D01*
X2533500Y4506645D01*
X2500177D01*
X2483516Y4489984D01*
Y4473323D01*
X2550161D01*
X1820000Y4349968D02*
Y4283322D01*
X1786677Y4250000D01*
X1753355Y4283322D01*
Y4349968D01*
X1653387Y4333306D02*
X1670048Y4349968D01*
X1703371D01*
X1720032Y4333306D01*
Y4316645D01*
X1703371Y4299984D01*
X1670048D01*
X1653387Y4283322D01*
Y4266661D01*
X1670048Y4250000D01*
X1703371D01*
X1720032Y4266661D01*
X1620064Y4250000D02*
X1586742D01*
X1603403D01*
Y4316645D01*
X1620064D01*
X1536758Y4250000D02*
Y4316645D01*
X1520097D01*
X1503435Y4299984D01*
Y4250000D01*
Y4299984D01*
X1486774Y4316645D01*
X1470113Y4299984D01*
Y4250000D01*
X1753355Y4523306D02*
X1770016Y4539968D01*
X1803339D01*
X1820000Y4523306D01*
Y4456661D01*
X1803339Y4440000D01*
X1770016D01*
X1753355Y4456661D01*
Y4489984D01*
X1786677D01*
X1720032Y4440000D02*
Y4539968D01*
X1653387Y4440000D01*
Y4539968D01*
X1620064D02*
Y4440000D01*
X1570080D01*
X1553419Y4456661D01*
Y4523306D01*
X1570080Y4539968D01*
X1620064D01*
X3599968Y4706645D02*
Y4640000D01*
X3500000D01*
Y4706645D01*
X3549984Y4640000D02*
Y4673322D01*
X3500000Y4739967D02*
X3599968D01*
X3500000Y4806612D01*
X3599968D01*
X2839968Y696645D02*
Y630000D01*
X2789984D01*
X2806645Y663322D01*
Y679983D01*
X2789984Y696645D01*
X2756661D01*
X2740000Y679983D01*
Y646661D01*
X2756661Y630000D01*
X2839968Y729967D02*
X2773322D01*
X2740000Y763290D01*
X2773322Y796612D01*
X2839968D01*
X2579968Y696645D02*
Y630000D01*
X2529984D01*
X2546645Y663322D01*
Y679983D01*
X2529984Y696645D01*
X2496661D01*
X2480000Y679983D01*
Y646661D01*
X2496661Y630000D01*
X2579968Y729967D02*
X2513322D01*
X2480000Y763290D01*
X2513322Y796612D01*
X2579968D01*
Y896580D02*
Y829935D01*
X2480000D01*
Y896580D01*
X2529984Y829935D02*
Y863258D01*
X2323306Y630000D02*
X2339968Y646661D01*
Y679983D01*
X2323306Y696645D01*
X2306645D01*
X2289984Y679983D01*
Y663322D01*
Y679983D01*
X2273322Y696645D01*
X2256661D01*
X2240000Y679983D01*
Y646661D01*
X2256661Y630000D01*
X2339968Y729967D02*
X2273322D01*
X2240000Y763290D01*
X2273322Y796612D01*
X2339968D01*
X2323306Y829935D02*
X2339968Y846596D01*
Y879919D01*
X2323306Y896580D01*
X2306645D01*
X2289984Y879919D01*
Y863258D01*
Y879919D01*
X2273322Y896580D01*
X2256661D01*
X2240000Y879919D01*
Y846596D01*
X2256661Y829935D01*
X2063306Y696645D02*
X2079968Y679983D01*
Y646661D01*
X2063306Y630000D01*
X1996661D01*
X1980000Y646661D01*
Y679983D01*
X1996661Y696645D01*
X2029984D01*
Y663322D01*
X1980000Y729967D02*
X2079968D01*
X1980000Y796612D01*
X2079968D01*
Y829935D02*
X1980000D01*
Y879919D01*
X1996661Y896580D01*
X2063306D01*
X2079968Y879919D01*
Y829935D01*
D103*
X1419968Y1860013D02*
Y1939987D01*
X1379980D01*
X1366652Y1926658D01*
Y1900000D01*
X1379980Y1886671D01*
X1419968D01*
X1339994Y1860013D02*
X1313335D01*
X1326664D01*
Y1939987D01*
X1339994Y1926658D01*
X1220032Y1860013D02*
X1273348D01*
X1220032Y1913329D01*
Y1926658D01*
X1233361Y1939987D01*
X1260019D01*
X1273348Y1926658D01*
D104*
X5980001Y4407502D02*
D03*
X6340000D02*
D03*
D105*
X6100000D02*
D03*
X5980001Y4367502D02*
D03*
X6340000D02*
D03*
X6140000Y4347502D02*
D03*
X6300000Y4247502D02*
D03*
D106*
X6240000Y4407502D02*
D03*
X5920001Y4387502D02*
D03*
X6040001D02*
D03*
X6240000D02*
D03*
X6280000D02*
D03*
X6400000D02*
D03*
X5920001Y4367502D02*
D03*
X6040001D02*
D03*
X6120000D02*
D03*
X6160000D02*
D03*
X6280000D02*
D03*
X6400000D02*
D03*
X5920001Y4347502D02*
D03*
X6040001D02*
D03*
X6080001D02*
D03*
X6280000D02*
D03*
X6400000D02*
D03*
X5920001Y4327502D02*
D03*
X6040001D02*
D03*
X6280000D02*
D03*
X6400000D02*
D03*
X5920001Y4307502D02*
D03*
X6040001D02*
D03*
X6120000D02*
D03*
X6280000D02*
D03*
X6400000D02*
D03*
X6080001Y4287502D02*
D03*
X6120000D02*
D03*
X6160000D02*
D03*
X6200000D02*
D03*
X6240000D02*
D03*
X6080001Y4267502D02*
D03*
X6020001Y4247502D02*
D03*
X6160000D02*
D03*
X6200000D02*
D03*
D107*
X6170000Y4387502D02*
D03*
X6230000Y4367502D02*
D03*
X6150000Y4327502D02*
D03*
X6190000Y4267502D02*
D03*
X6390000Y4247502D02*
D03*
Y4227502D02*
D03*
D108*
X5980001Y4347500D02*
D03*
X6220000D02*
D03*
X6340000D02*
D03*
X5980001Y4327500D02*
D03*
X6340000D02*
D03*
X6220000Y4307500D02*
D03*
X6120000Y4207500D02*
D03*
X6240000Y4187500D02*
D03*
X6040001Y4167500D02*
D03*
X6100000Y4147500D02*
D03*
X5980001Y4047500D02*
D03*
X6220000Y4027500D02*
D03*
X5940001Y4007500D02*
D03*
X6340000D02*
D03*
X6040001Y3987500D02*
D03*
X6340000D02*
D03*
Y3967500D02*
D03*
D109*
X6100000Y4327500D02*
D03*
X6240000Y4227500D02*
D03*
X6300000D02*
D03*
X5960001Y4207500D02*
D03*
X6000001D02*
D03*
X6040001D02*
D03*
X6340000D02*
D03*
X6400000D02*
D03*
X6160000Y4187500D02*
D03*
X6320000D02*
D03*
X6380000D02*
D03*
X6180000Y4167500D02*
D03*
X6280000D02*
D03*
X6320000D02*
D03*
X6400000D02*
D03*
X6160000Y4147500D02*
D03*
X6400000D02*
D03*
X6340000Y4127500D02*
D03*
X5920001Y4107500D02*
D03*
X5960001D02*
D03*
X6020001D02*
D03*
X6100000D02*
D03*
X6140000D02*
D03*
X6180000D02*
D03*
X6340000D02*
D03*
X5920001Y4087500D02*
D03*
X5960001D02*
D03*
X6220000D02*
D03*
X6000001Y4067500D02*
D03*
X6080001D02*
D03*
X6240000D02*
D03*
X6040001Y4047500D02*
D03*
X6080001D02*
D03*
X6220000D02*
D03*
X6000001Y4027500D02*
D03*
X6080001D02*
D03*
X6120000D02*
D03*
X6160000D02*
D03*
X6280000D02*
D03*
X6400000D02*
D03*
X6240000Y4007500D02*
D03*
X6280000D02*
D03*
X6400000D02*
D03*
X5980001Y3987500D02*
D03*
X6100000D02*
D03*
X6160000D02*
D03*
X6220000D02*
D03*
X6280000D02*
D03*
X6400000D02*
D03*
X6280000Y3967500D02*
D03*
X6400000D02*
D03*
X6000001Y3947500D02*
D03*
X6060001D02*
D03*
X6100000D02*
D03*
X6140000D02*
D03*
X6240000D02*
D03*
X6280000D02*
D03*
X6400000D02*
D03*
X6060001Y3927500D02*
D03*
D110*
X6210000Y4327500D02*
D03*
X5990001Y4227500D02*
D03*
X6210000Y4207500D02*
D03*
X6290000D02*
D03*
X5950001Y4187500D02*
D03*
X5970001Y4167500D02*
D03*
X6130000D02*
D03*
X6010001Y4147500D02*
D03*
X6210000D02*
D03*
X5970001Y4127500D02*
D03*
X6150000Y4087500D02*
D03*
X6290000D02*
D03*
X5950001Y4067500D02*
D03*
X6130000D02*
D03*
X5950001Y4027500D02*
D03*
X6130000Y4007500D02*
D03*
X6190000D02*
D03*
X5930001Y3987500D02*
D03*
X5950001Y3967500D02*
D03*
X6030001D02*
D03*
X5950001Y3947500D02*
D03*
X6190000D02*
D03*
X6150000Y3927500D02*
D03*
X6230000D02*
D03*
D111*
X5980001Y4287500D02*
D03*
X6340000D02*
D03*
X6060001Y4187500D02*
D03*
X6140000Y4127500D02*
D03*
X6340000Y4047500D02*
D03*
Y3927500D02*
D03*
D112*
X5950001Y4247500D02*
D03*
X6110000Y4227500D02*
D03*
X6330000Y4147500D02*
D03*
X6270000Y4127500D02*
D03*
X6370000Y4087500D02*
D03*
D113*
X6050001D02*
D03*
X5970001Y3927500D02*
D03*
D114*
X6040001Y4007500D02*
D03*
X6160000Y3967500D02*
D03*
%TF.MD5,55a254330d12ac7249dcf5831fc4ec59*%
M02*
