%TF.GenerationSoftware,Altium Limited,Altium Designer,21.9.2 (33)*%
G04 Layer_Color=65535*
%FSLAX45Y45*%
%MOMM*%
%TF.SameCoordinates,7777544D-92F5-45BF-99EE-D781317D7DBF*%
%TF.FilePolarity,Positive*%
%TF.FileFunction,Legend,Top*%
%TF.Part,Single*%
G01*
G75*
%TA.AperFunction,NonConductor*%
%ADD102C,0.20000*%
%ADD103C,0.15000*%
%ADD125C,0.10000*%
%ADD126C,0.30000*%
G36*
X1860589Y4896563D02*
X1822000Y4864406D01*
Y4928720D01*
X1860589Y4896563D01*
D02*
G37*
G36*
X4870000Y4751411D02*
X4837842Y4790000D01*
X4902157D01*
X4870000Y4751411D01*
D02*
G37*
G36*
X4520000D02*
X4487842Y4790000D01*
X4552157D01*
X4520000Y4751411D01*
D02*
G37*
G36*
X3010000D02*
X2977842Y4790000D01*
X3042157D01*
X3010000Y4751411D01*
D02*
G37*
G36*
X2660000D02*
X2627843Y4790000D01*
X2692157D01*
X2660000Y4751411D01*
D02*
G37*
G36*
X5000000Y4660000D02*
X4950000Y4700000D01*
X5000000Y4740000D01*
Y4660000D01*
D02*
G37*
G36*
X4650000D02*
X4600000Y4700000D01*
X4650000Y4740000D01*
Y4660000D01*
D02*
G37*
G36*
X3140000D02*
X3090000Y4700000D01*
X3140000Y4740000D01*
Y4660000D01*
D02*
G37*
G36*
X2790000D02*
X2740000Y4700000D01*
X2790000Y4740000D01*
Y4660000D01*
D02*
G37*
G36*
X3705000Y4346411D02*
X3672843Y4385000D01*
X3737157D01*
X3705000Y4346411D01*
D02*
G37*
G36*
X5045000Y4132842D02*
X5006411Y4165000D01*
X5045000Y4197157D01*
Y4132842D01*
D02*
G37*
G36*
X1860613Y4138203D02*
X1822024Y4106045D01*
Y4170360D01*
X1860613Y4138203D01*
D02*
G37*
G36*
X3252157Y3835000D02*
X3187842D01*
X3220000Y3873589D01*
X3252157Y3835000D01*
D02*
G37*
G36*
X3755000Y3666411D02*
X3722843Y3705000D01*
X3787158D01*
X3755000Y3666411D01*
D02*
G37*
G36*
X3267157Y3355000D02*
X3202842D01*
X3235000Y3393589D01*
X3267157Y3355000D01*
D02*
G37*
G36*
X2333589Y3350000D02*
X2295000Y3317843D01*
Y3382158D01*
X2333589Y3350000D01*
D02*
G37*
G36*
X3625000Y3316411D02*
X3592842Y3355000D01*
X3657157D01*
X3625000Y3316411D01*
D02*
G37*
G36*
X2863589Y2840000D02*
X2825000Y2807842D01*
Y2872157D01*
X2863589Y2840000D01*
D02*
G37*
G36*
X2940000Y2381411D02*
X2907842Y2420000D01*
X2972157D01*
X2940000Y2381411D01*
D02*
G37*
G36*
X2570000Y2322842D02*
X2531411Y2355000D01*
X2570000Y2387157D01*
Y2322842D01*
D02*
G37*
G36*
X3750000Y2256411D02*
X3717842Y2295000D01*
X3782157D01*
X3750000Y2256411D01*
D02*
G37*
G36*
X5010000Y2116412D02*
X4977843Y2155000D01*
X5042158D01*
X5010000Y2116412D01*
D02*
G37*
G36*
X2820000Y2091411D02*
X2787843Y2130000D01*
X2852157D01*
X2820000Y2091411D01*
D02*
G37*
G36*
X2950000Y2000000D02*
X2900000Y2040000D01*
X2950000Y2080000D01*
Y2000000D01*
D02*
G37*
G36*
X2603589Y2015000D02*
X2565000Y1982843D01*
Y2047157D01*
X2603589Y2015000D01*
D02*
G37*
G36*
X2525000Y1942843D02*
X2486411Y1975000D01*
X2525000Y2007158D01*
Y1942843D01*
D02*
G37*
G36*
X2095000Y1852843D02*
X2056411Y1885000D01*
X2095000Y1917157D01*
Y1852843D01*
D02*
G37*
G36*
X3325000Y1556411D02*
X3292843Y1595000D01*
X3357157D01*
X3325000Y1556411D01*
D02*
G37*
G36*
X2193589Y1485000D02*
X2155000Y1452842D01*
Y1517157D01*
X2193589Y1485000D01*
D02*
G37*
G36*
X2053588D02*
X2015000Y1452842D01*
Y1517157D01*
X2053588Y1485000D01*
D02*
G37*
G36*
X4993589Y1425000D02*
X4955000Y1392843D01*
Y1457157D01*
X4993589Y1425000D01*
D02*
G37*
G36*
X2245000Y1352843D02*
X2206411Y1385000D01*
X2245000Y1417157D01*
Y1352843D01*
D02*
G37*
G36*
X5155000Y1301411D02*
X5122842Y1340000D01*
X5187157D01*
X5155000Y1301411D01*
D02*
G37*
G36*
X1780000Y1167843D02*
X1741411Y1200000D01*
X1780000Y1232158D01*
Y1167843D01*
D02*
G37*
G36*
X2283922Y1075705D02*
X2251764Y1114294D01*
X2316079D01*
X2283922Y1075705D01*
D02*
G37*
G36*
X1731261Y888429D02*
X1699104Y927018D01*
X1763418D01*
X1731261Y888429D01*
D02*
G37*
G36*
X1832357Y799137D02*
X1793768Y831294D01*
X1832357Y863452D01*
Y799137D01*
D02*
G37*
G36*
X1860589Y70563D02*
X1822000Y38406D01*
Y102720D01*
X1860589Y70563D01*
D02*
G37*
G36*
X6808922Y2523205D02*
X6776764Y2561794D01*
X6841079D01*
X6808922Y2523205D01*
D02*
G37*
G36*
Y2180705D02*
X6776764Y2219294D01*
X6841079D01*
X6808922Y2180705D01*
D02*
G37*
G36*
X6457158Y2115000D02*
X6392843D01*
X6425000Y2153589D01*
X6457158Y2115000D01*
D02*
G37*
G36*
X6808921Y1880706D02*
X6776764Y1919294D01*
X6841079D01*
X6808921Y1880706D01*
D02*
G37*
G36*
X6808922Y1600705D02*
X6776764Y1639293D01*
X6841079D01*
X6808922Y1600705D01*
D02*
G37*
G36*
X6065151Y1649726D02*
X6066177D01*
Y1649214D01*
Y1648701D01*
Y1648188D01*
X6066690D01*
Y1647675D01*
Y1647162D01*
Y1646649D01*
Y1646136D01*
Y1645623D01*
X6067203D01*
Y1645110D01*
Y1644597D01*
Y1644084D01*
Y1643571D01*
Y1643058D01*
Y1642545D01*
X6067716D01*
Y1642032D01*
Y1641519D01*
Y1641006D01*
Y1640493D01*
Y1639980D01*
X6068229D01*
Y1639468D01*
Y1638954D01*
Y1638441D01*
Y1637929D01*
Y1637416D01*
X6068742D01*
Y1636902D01*
Y1636390D01*
Y1635877D01*
Y1635364D01*
Y1634851D01*
Y1634338D01*
X6069255D01*
Y1633825D01*
Y1633312D01*
Y1632799D01*
Y1632286D01*
Y1631773D01*
X6069768D01*
Y1631260D01*
Y1630747D01*
Y1630234D01*
Y1629721D01*
Y1629208D01*
X6070281D01*
Y1628695D01*
Y1628182D01*
Y1627669D01*
Y1627157D01*
Y1626644D01*
Y1626131D01*
X6070794D01*
Y1625618D01*
Y1625105D01*
Y1624592D01*
Y1624079D01*
Y1623566D01*
X6071307D01*
Y1623053D01*
Y1622540D01*
Y1622027D01*
Y1621514D01*
Y1621001D01*
Y1620488D01*
X6071820D01*
Y1619975D01*
Y1619462D01*
Y1618949D01*
Y1618436D01*
Y1617923D01*
X6072333D01*
Y1617410D01*
Y1616897D01*
Y1616385D01*
Y1615871D01*
Y1615358D01*
X6072846D01*
Y1614846D01*
Y1614333D01*
Y1613819D01*
Y1613307D01*
Y1612794D01*
Y1612281D01*
X6073358D01*
Y1611768D01*
Y1611255D01*
Y1610742D01*
Y1610229D01*
Y1609716D01*
X6073871D01*
Y1609203D01*
Y1608690D01*
X6074385D01*
Y1608177D01*
X6075410D01*
Y1607664D01*
X6076436D01*
Y1607151D01*
X6077975D01*
Y1606638D01*
X6079001D01*
Y1606125D01*
X6080540D01*
Y1605612D01*
X6081566D01*
Y1605099D01*
X6082592D01*
Y1604586D01*
X6084131D01*
Y1604074D01*
X6085157D01*
Y1603561D01*
X6086695D01*
Y1603048D01*
X6087721D01*
Y1602535D01*
X6089260D01*
Y1602022D01*
X6090286D01*
Y1601509D01*
X6091825D01*
Y1600996D01*
X6092851D01*
Y1600483D01*
X6093877D01*
Y1599970D01*
X6095416D01*
Y1599457D01*
X6096441D01*
Y1598944D01*
X6097980D01*
Y1598431D01*
X6099007D01*
Y1597918D01*
X6100545D01*
Y1597405D01*
X6101571D01*
Y1596892D01*
X6103110D01*
Y1597405D01*
X6104136D01*
Y1597918D01*
X6104649D01*
Y1598431D01*
X6105675D01*
Y1598944D01*
X6106188D01*
Y1599457D01*
X6106701D01*
Y1599970D01*
X6107726D01*
Y1600483D01*
X6108240D01*
Y1600996D01*
X6109265D01*
Y1601509D01*
X6109778D01*
Y1602022D01*
X6110804D01*
Y1602535D01*
X6111317D01*
Y1603048D01*
X6112343D01*
Y1603561D01*
X6112856D01*
Y1604074D01*
X6113882D01*
Y1604586D01*
X6114395D01*
Y1605099D01*
X6114908D01*
Y1605612D01*
X6115934D01*
Y1606125D01*
X6116447D01*
Y1606638D01*
X6117473D01*
Y1607151D01*
X6117986D01*
Y1607664D01*
X6119012D01*
Y1608177D01*
X6119525D01*
Y1608690D01*
X6120551D01*
Y1609203D01*
X6121063D01*
Y1609716D01*
X6122090D01*
Y1610229D01*
X6122602D01*
Y1610742D01*
X6123115D01*
Y1611255D01*
X6124141D01*
Y1611768D01*
X6124654D01*
Y1612281D01*
X6125680D01*
Y1612794D01*
X6126193D01*
Y1613307D01*
X6127219D01*
Y1613819D01*
X6127732D01*
Y1614333D01*
X6128758D01*
Y1614846D01*
X6129271D01*
Y1615358D01*
X6130297D01*
Y1615871D01*
X6130809D01*
Y1616385D01*
X6131836D01*
Y1616897D01*
X6132348D01*
Y1617410D01*
X6132862D01*
Y1617923D01*
X6133887D01*
Y1618436D01*
X6134400D01*
Y1618949D01*
X6135426D01*
Y1619462D01*
X6135939D01*
Y1619975D01*
X6138504D01*
Y1619462D01*
X6139017D01*
Y1618949D01*
X6139530D01*
Y1618436D01*
X6140043D01*
Y1617923D01*
X6140556D01*
Y1617410D01*
X6141069D01*
Y1616897D01*
X6141582D01*
Y1616385D01*
X6142095D01*
Y1615871D01*
X6142608D01*
Y1615358D01*
X6143121D01*
Y1614846D01*
X6143634D01*
Y1614333D01*
X6144146D01*
Y1613819D01*
X6144660D01*
Y1613307D01*
X6145173D01*
Y1612794D01*
X6145685D01*
Y1612281D01*
X6146198D01*
Y1611768D01*
X6146711D01*
Y1611255D01*
X6147224D01*
Y1610742D01*
X6147737D01*
Y1610229D01*
X6148250D01*
Y1609716D01*
X6148763D01*
Y1609203D01*
X6149276D01*
Y1608690D01*
X6149789D01*
Y1608177D01*
X6150302D01*
Y1607664D01*
X6150815D01*
Y1607151D01*
X6151328D01*
Y1606638D01*
X6151841D01*
Y1606125D01*
X6152354D01*
Y1605612D01*
X6152867D01*
Y1605099D01*
X6153380D01*
Y1604586D01*
X6153893D01*
Y1604074D01*
X6154406D01*
Y1603561D01*
X6154919D01*
Y1603048D01*
X6155431D01*
Y1602535D01*
X6155945D01*
Y1602022D01*
X6156458D01*
Y1601509D01*
X6156970D01*
Y1600996D01*
X6157483D01*
Y1600483D01*
X6157997D01*
Y1599970D01*
X6158509D01*
Y1599457D01*
X6159022D01*
Y1598944D01*
X6159535D01*
Y1598431D01*
X6160048D01*
Y1597918D01*
X6160561D01*
Y1597405D01*
X6161074D01*
Y1596892D01*
X6161587D01*
Y1596379D01*
X6162100D01*
Y1595866D01*
X6162613D01*
Y1595353D01*
X6163126D01*
Y1594840D01*
X6163639D01*
Y1594327D01*
X6164152D01*
Y1593814D01*
X6164665D01*
Y1593301D01*
X6165178D01*
Y1592788D01*
X6165691D01*
Y1592275D01*
X6166204D01*
Y1591763D01*
X6166717D01*
Y1591250D01*
Y1590736D01*
Y1590224D01*
Y1589711D01*
Y1589197D01*
X6166204D01*
Y1588685D01*
X6165691D01*
Y1588172D01*
Y1587659D01*
X6165178D01*
Y1587146D01*
X6164665D01*
Y1586633D01*
Y1586120D01*
X6164152D01*
Y1585607D01*
X6163639D01*
Y1585094D01*
Y1584581D01*
X6163126D01*
Y1584068D01*
X6162613D01*
Y1583555D01*
X6162100D01*
Y1583042D01*
Y1582529D01*
X6161587D01*
Y1582016D01*
X6161074D01*
Y1581503D01*
Y1580990D01*
X6160561D01*
Y1580478D01*
X6160048D01*
Y1579964D01*
Y1579452D01*
X6159535D01*
Y1578939D01*
X6159022D01*
Y1578426D01*
Y1577913D01*
X6158509D01*
Y1577400D01*
X6157997D01*
Y1576887D01*
Y1576374D01*
X6157483D01*
Y1575861D01*
X6156970D01*
Y1575348D01*
X6156458D01*
Y1574835D01*
Y1574322D01*
X6155945D01*
Y1573809D01*
X6155431D01*
Y1573296D01*
Y1572783D01*
X6154919D01*
Y1572270D01*
X6154406D01*
Y1571757D01*
Y1571244D01*
X6153893D01*
Y1570731D01*
X6153380D01*
Y1570218D01*
Y1569705D01*
X6152867D01*
Y1569192D01*
X6152354D01*
Y1568680D01*
Y1568167D01*
X6151841D01*
Y1567653D01*
X6151328D01*
Y1567141D01*
X6150815D01*
Y1566628D01*
Y1566114D01*
X6150302D01*
Y1565602D01*
X6149789D01*
Y1565089D01*
Y1564576D01*
X6149276D01*
Y1564063D01*
X6148763D01*
Y1563550D01*
Y1563037D01*
X6148250D01*
Y1562524D01*
X6147737D01*
Y1562011D01*
Y1561498D01*
X6147224D01*
Y1560985D01*
X6146711D01*
Y1560472D01*
Y1559959D01*
X6146198D01*
Y1559446D01*
X6145685D01*
Y1558933D01*
Y1558420D01*
X6145173D01*
Y1557907D01*
X6144660D01*
Y1557395D01*
Y1556881D01*
X6144146D01*
Y1556368D01*
Y1555856D01*
Y1555343D01*
X6144660D01*
Y1554830D01*
Y1554317D01*
Y1553804D01*
X6145173D01*
Y1553291D01*
Y1552778D01*
X6145685D01*
Y1552265D01*
Y1551752D01*
X6146198D01*
Y1551239D01*
Y1550726D01*
Y1550213D01*
X6146711D01*
Y1549700D01*
Y1549187D01*
X6147224D01*
Y1548674D01*
Y1548161D01*
X6147737D01*
Y1547648D01*
Y1547135D01*
Y1546622D01*
X6148250D01*
Y1546109D01*
Y1545596D01*
X6148763D01*
Y1545084D01*
Y1544570D01*
X6149276D01*
Y1544058D01*
Y1543545D01*
Y1543031D01*
X6149789D01*
Y1542519D01*
Y1542006D01*
X6150302D01*
Y1541493D01*
Y1540980D01*
X6150815D01*
Y1540467D01*
Y1539954D01*
Y1539441D01*
X6151328D01*
Y1538928D01*
Y1538415D01*
X6151841D01*
Y1537902D01*
Y1537389D01*
X6152354D01*
Y1536876D01*
Y1536363D01*
Y1535850D01*
X6152867D01*
Y1535337D01*
Y1534824D01*
X6153380D01*
Y1534312D01*
Y1533798D01*
X6153893D01*
Y1533285D01*
Y1532773D01*
Y1532259D01*
X6154406D01*
Y1531746D01*
Y1531234D01*
X6154919D01*
Y1530721D01*
Y1530208D01*
X6155431D01*
Y1529695D01*
Y1529182D01*
Y1528669D01*
X6155945D01*
Y1528156D01*
Y1527643D01*
X6156458D01*
Y1527130D01*
X6157483D01*
Y1526617D01*
X6159022D01*
Y1526104D01*
X6162100D01*
Y1525591D01*
X6164665D01*
Y1525078D01*
X6167230D01*
Y1524565D01*
X6170307D01*
Y1524052D01*
X6172872D01*
Y1523539D01*
X6175950D01*
Y1523026D01*
X6178515D01*
Y1522513D01*
X6181080D01*
Y1522001D01*
X6184157D01*
Y1521487D01*
X6186722D01*
Y1520975D01*
X6189287D01*
Y1520462D01*
X6192365D01*
Y1519948D01*
X6194929D01*
Y1519436D01*
X6196468D01*
Y1518923D01*
Y1518410D01*
X6196981D01*
Y1517897D01*
Y1517384D01*
Y1516871D01*
Y1516358D01*
Y1515845D01*
Y1515332D01*
Y1514819D01*
Y1514306D01*
Y1513793D01*
Y1513280D01*
Y1512767D01*
Y1512254D01*
Y1511741D01*
Y1511228D01*
Y1510715D01*
Y1510202D01*
Y1509690D01*
Y1509176D01*
Y1508663D01*
Y1508151D01*
Y1507638D01*
Y1507124D01*
Y1506612D01*
Y1506099D01*
Y1505586D01*
Y1505073D01*
Y1504560D01*
Y1504047D01*
Y1503534D01*
Y1503021D01*
Y1502508D01*
Y1501995D01*
Y1501482D01*
Y1500969D01*
Y1500456D01*
Y1499943D01*
Y1499430D01*
Y1498917D01*
Y1498404D01*
Y1497891D01*
Y1497379D01*
Y1496865D01*
Y1496353D01*
Y1495840D01*
Y1495327D01*
Y1494814D01*
Y1494301D01*
Y1493788D01*
Y1493275D01*
Y1492762D01*
Y1492249D01*
Y1491736D01*
Y1491223D01*
Y1490710D01*
Y1490197D01*
Y1489684D01*
Y1489171D01*
Y1488658D01*
Y1488145D01*
Y1487632D01*
Y1487119D01*
Y1486606D01*
Y1486093D01*
Y1485580D01*
Y1485068D01*
Y1484555D01*
Y1484041D01*
Y1483529D01*
Y1483016D01*
Y1482503D01*
Y1481990D01*
Y1481477D01*
Y1480964D01*
Y1480451D01*
Y1479938D01*
Y1479425D01*
Y1478912D01*
Y1478399D01*
Y1477886D01*
X6196468D01*
Y1477373D01*
X6195955D01*
Y1476860D01*
X6194416D01*
Y1476347D01*
X6191851D01*
Y1475834D01*
X6188774D01*
Y1475321D01*
X6186209D01*
Y1474808D01*
X6183131D01*
Y1474296D01*
X6180566D01*
Y1473783D01*
X6178002D01*
Y1473270D01*
X6174924D01*
Y1472757D01*
X6172359D01*
Y1472244D01*
X6169794D01*
Y1471731D01*
X6166717D01*
Y1471218D01*
X6164152D01*
Y1470705D01*
X6161074D01*
Y1470192D01*
X6158509D01*
Y1469679D01*
X6157997D01*
Y1469166D01*
X6157483D01*
Y1468653D01*
X6156970D01*
Y1468140D01*
Y1467627D01*
X6156458D01*
Y1467114D01*
Y1466601D01*
X6155945D01*
Y1466088D01*
Y1465575D01*
Y1465062D01*
X6155431D01*
Y1464549D01*
Y1464036D01*
X6154919D01*
Y1463523D01*
Y1463010D01*
Y1462497D01*
X6154406D01*
Y1461985D01*
Y1461472D01*
X6153893D01*
Y1460958D01*
Y1460446D01*
Y1459933D01*
X6153380D01*
Y1459419D01*
Y1458907D01*
X6152867D01*
Y1458394D01*
Y1457881D01*
Y1457368D01*
X6152354D01*
Y1456855D01*
Y1456342D01*
X6151841D01*
Y1455829D01*
Y1455316D01*
Y1454803D01*
X6151328D01*
Y1454290D01*
Y1453777D01*
X6150815D01*
Y1453264D01*
Y1452751D01*
Y1452238D01*
X6150302D01*
Y1451725D01*
Y1451212D01*
X6149789D01*
Y1450700D01*
Y1450186D01*
Y1449674D01*
X6149276D01*
Y1449161D01*
Y1448648D01*
X6148763D01*
Y1448135D01*
Y1447622D01*
Y1447109D01*
X6148250D01*
Y1446596D01*
Y1446083D01*
X6147737D01*
Y1445570D01*
Y1445057D01*
Y1444544D01*
X6147224D01*
Y1444031D01*
Y1443518D01*
X6146711D01*
Y1443005D01*
Y1442492D01*
Y1441979D01*
X6146198D01*
Y1441466D01*
Y1440953D01*
X6145685D01*
Y1440440D01*
Y1439927D01*
Y1439414D01*
X6145173D01*
Y1438901D01*
Y1438389D01*
Y1437875D01*
X6145685D01*
Y1437363D01*
Y1436850D01*
X6146198D01*
Y1436336D01*
X6146711D01*
Y1435824D01*
Y1435311D01*
X6147224D01*
Y1434798D01*
X6147737D01*
Y1434285D01*
Y1433772D01*
X6148250D01*
Y1433259D01*
X6148763D01*
Y1432746D01*
X6149276D01*
Y1432233D01*
Y1431720D01*
X6149789D01*
Y1431207D01*
X6150302D01*
Y1430694D01*
Y1430181D01*
X6150815D01*
Y1429668D01*
X6151328D01*
Y1429155D01*
Y1428642D01*
X6151841D01*
Y1428129D01*
X6152354D01*
Y1427617D01*
Y1427103D01*
X6152867D01*
Y1426590D01*
X6153380D01*
Y1426078D01*
Y1425565D01*
X6153893D01*
Y1425052D01*
X6154406D01*
Y1424539D01*
X6154919D01*
Y1424026D01*
Y1423513D01*
X6155431D01*
Y1423000D01*
X6155945D01*
Y1422487D01*
Y1421974D01*
X6156458D01*
Y1421461D01*
X6156970D01*
Y1420948D01*
Y1420435D01*
X6157483D01*
Y1419922D01*
X6157997D01*
Y1419409D01*
Y1418896D01*
X6158509D01*
Y1418383D01*
X6159022D01*
Y1417870D01*
Y1417357D01*
X6159535D01*
Y1416844D01*
X6160048D01*
Y1416331D01*
Y1415818D01*
X6160561D01*
Y1415306D01*
X6161074D01*
Y1414792D01*
X6161587D01*
Y1414280D01*
Y1413767D01*
X6162100D01*
Y1413253D01*
X6162613D01*
Y1412741D01*
Y1412228D01*
X6163126D01*
Y1411715D01*
X6163639D01*
Y1411202D01*
Y1410689D01*
X6164152D01*
Y1410176D01*
X6164665D01*
Y1409663D01*
Y1409150D01*
X6165178D01*
Y1408637D01*
X6165691D01*
Y1408124D01*
Y1407611D01*
X6166204D01*
Y1407098D01*
X6166717D01*
Y1406585D01*
Y1406072D01*
Y1405559D01*
Y1405046D01*
Y1404533D01*
X6166204D01*
Y1404020D01*
X6165691D01*
Y1403507D01*
X6165178D01*
Y1402995D01*
X6164665D01*
Y1402481D01*
X6164152D01*
Y1401968D01*
X6163639D01*
Y1401456D01*
X6163126D01*
Y1400943D01*
X6162613D01*
Y1400430D01*
X6162100D01*
Y1399917D01*
X6161587D01*
Y1399404D01*
X6161074D01*
Y1398891D01*
X6160561D01*
Y1398378D01*
X6160048D01*
Y1397865D01*
X6159535D01*
Y1397352D01*
X6159022D01*
Y1396839D01*
X6158509D01*
Y1396326D01*
X6157997D01*
Y1395813D01*
X6157483D01*
Y1395300D01*
X6156970D01*
Y1394787D01*
X6156458D01*
Y1394274D01*
X6155945D01*
Y1393761D01*
X6155431D01*
Y1393248D01*
X6154919D01*
Y1392735D01*
X6154406D01*
Y1392223D01*
X6153893D01*
Y1391709D01*
X6153380D01*
Y1391196D01*
X6152867D01*
Y1390684D01*
X6152354D01*
Y1390170D01*
X6151841D01*
Y1389658D01*
X6151328D01*
Y1389145D01*
X6150815D01*
Y1388632D01*
X6150302D01*
Y1388119D01*
X6149789D01*
Y1387606D01*
X6149276D01*
Y1387093D01*
X6148763D01*
Y1386580D01*
X6148250D01*
Y1386067D01*
X6147737D01*
Y1385554D01*
X6147224D01*
Y1385041D01*
X6146711D01*
Y1384528D01*
X6146198D01*
Y1384015D01*
X6145685D01*
Y1383502D01*
X6145173D01*
Y1382989D01*
X6144660D01*
Y1382476D01*
X6144146D01*
Y1381963D01*
X6143634D01*
Y1381450D01*
X6143121D01*
Y1380937D01*
X6142608D01*
Y1380424D01*
X6142095D01*
Y1379912D01*
X6141582D01*
Y1379398D01*
X6141069D01*
Y1378885D01*
X6140556D01*
Y1378373D01*
X6140043D01*
Y1377860D01*
X6139530D01*
Y1377346D01*
X6139017D01*
Y1376834D01*
X6137991D01*
Y1376321D01*
X6136452D01*
Y1376834D01*
X6135426D01*
Y1377346D01*
X6134913D01*
Y1377860D01*
X6133887D01*
Y1378373D01*
X6133375D01*
Y1378885D01*
X6132348D01*
Y1379398D01*
X6131836D01*
Y1379912D01*
X6130809D01*
Y1380424D01*
X6130297D01*
Y1380937D01*
X6129271D01*
Y1381450D01*
X6128758D01*
Y1381963D01*
X6128245D01*
Y1382476D01*
X6127219D01*
Y1382989D01*
X6126706D01*
Y1383502D01*
X6125680D01*
Y1384015D01*
X6125167D01*
Y1384528D01*
X6124141D01*
Y1385041D01*
X6123628D01*
Y1385554D01*
X6122602D01*
Y1386067D01*
X6122090D01*
Y1386580D01*
X6121063D01*
Y1387093D01*
X6120551D01*
Y1387606D01*
X6120038D01*
Y1388119D01*
X6119012D01*
Y1388632D01*
X6118499D01*
Y1389145D01*
X6117473D01*
Y1389658D01*
X6116960D01*
Y1390170D01*
X6115934D01*
Y1390684D01*
X6115421D01*
Y1391196D01*
X6114395D01*
Y1391709D01*
X6113882D01*
Y1392223D01*
X6112856D01*
Y1392735D01*
X6112343D01*
Y1393248D01*
X6111830D01*
Y1393761D01*
X6110804D01*
Y1394274D01*
X6110292D01*
Y1394787D01*
X6109265D01*
Y1395300D01*
X6108753D01*
Y1395813D01*
X6107726D01*
Y1396326D01*
X6107214D01*
Y1396839D01*
X6106188D01*
Y1397352D01*
X6103623D01*
Y1396839D01*
X6102597D01*
Y1396326D01*
X6102084D01*
Y1395813D01*
X6101058D01*
Y1395300D01*
X6100032D01*
Y1394787D01*
X6099007D01*
Y1394274D01*
X6097980D01*
Y1393761D01*
X6096955D01*
Y1393248D01*
X6095929D01*
Y1392735D01*
X6094903D01*
Y1392223D01*
X6094390D01*
Y1391709D01*
X6093364D01*
Y1391196D01*
X6092338D01*
Y1390684D01*
X6091312D01*
Y1390170D01*
X6088747D01*
Y1390684D01*
X6088234D01*
Y1391196D01*
Y1391709D01*
X6087721D01*
Y1392223D01*
Y1392735D01*
Y1393248D01*
X6087208D01*
Y1393761D01*
Y1394274D01*
X6086695D01*
Y1394787D01*
Y1395300D01*
X6086182D01*
Y1395813D01*
Y1396326D01*
Y1396839D01*
X6085670D01*
Y1397352D01*
Y1397865D01*
X6085157D01*
Y1398378D01*
Y1398891D01*
Y1399404D01*
X6084644D01*
Y1399917D01*
Y1400430D01*
X6084131D01*
Y1400943D01*
Y1401456D01*
Y1401968D01*
X6083618D01*
Y1402481D01*
Y1402995D01*
X6083105D01*
Y1403507D01*
Y1404020D01*
X6082592D01*
Y1404533D01*
Y1405046D01*
Y1405559D01*
X6082079D01*
Y1406072D01*
Y1406585D01*
X6081566D01*
Y1407098D01*
Y1407611D01*
Y1408124D01*
X6081053D01*
Y1408637D01*
Y1409150D01*
X6080540D01*
Y1409663D01*
Y1410176D01*
X6080027D01*
Y1410689D01*
Y1411202D01*
Y1411715D01*
X6079514D01*
Y1412228D01*
Y1412741D01*
X6079001D01*
Y1413253D01*
Y1413767D01*
Y1414280D01*
X6078488D01*
Y1414792D01*
Y1415306D01*
X6077975D01*
Y1415818D01*
Y1416331D01*
Y1416844D01*
X6077462D01*
Y1417357D01*
Y1417870D01*
X6076949D01*
Y1418383D01*
Y1418896D01*
X6076436D01*
Y1419409D01*
Y1419922D01*
Y1420435D01*
X6075924D01*
Y1420948D01*
Y1421461D01*
X6075410D01*
Y1421974D01*
Y1422487D01*
Y1423000D01*
X6074897D01*
Y1423513D01*
Y1424026D01*
X6074385D01*
Y1424539D01*
Y1425052D01*
X6073871D01*
Y1425565D01*
Y1426078D01*
Y1426590D01*
X6073358D01*
Y1427103D01*
Y1427617D01*
X6072846D01*
Y1428129D01*
Y1428642D01*
Y1429155D01*
X6072333D01*
Y1429668D01*
Y1430181D01*
X6071820D01*
Y1430694D01*
Y1431207D01*
Y1431720D01*
X6071307D01*
Y1432233D01*
Y1432746D01*
X6070794D01*
Y1433259D01*
Y1433772D01*
X6070281D01*
Y1434285D01*
Y1434798D01*
Y1435311D01*
X6069768D01*
Y1435824D01*
Y1436336D01*
X6069255D01*
Y1436850D01*
Y1437363D01*
Y1437875D01*
X6068742D01*
Y1438389D01*
Y1438901D01*
X6068229D01*
Y1439414D01*
Y1439927D01*
X6067716D01*
Y1440440D01*
Y1440953D01*
Y1441466D01*
X6067203D01*
Y1441979D01*
Y1442492D01*
X6066690D01*
Y1443005D01*
Y1443518D01*
Y1444031D01*
X6066177D01*
Y1444544D01*
Y1445057D01*
X6065664D01*
Y1445570D01*
Y1446083D01*
Y1446596D01*
X6065151D01*
Y1447109D01*
Y1447622D01*
X6064638D01*
Y1448135D01*
Y1448648D01*
X6064125D01*
Y1449161D01*
Y1449674D01*
Y1450186D01*
X6063612D01*
Y1450700D01*
Y1451212D01*
X6063099D01*
Y1451725D01*
Y1452238D01*
Y1452751D01*
X6062587D01*
Y1453264D01*
Y1453777D01*
X6062073D01*
Y1454290D01*
Y1454803D01*
X6061561D01*
Y1455316D01*
Y1455829D01*
Y1456342D01*
X6061048D01*
Y1456855D01*
Y1457368D01*
X6061561D01*
Y1457881D01*
Y1458394D01*
X6062073D01*
Y1458907D01*
X6062587D01*
Y1459419D01*
X6063612D01*
Y1459933D01*
X6064125D01*
Y1460446D01*
X6065151D01*
Y1460958D01*
X6065664D01*
Y1461472D01*
X6066690D01*
Y1461985D01*
X6067203D01*
Y1462497D01*
X6067716D01*
Y1463010D01*
X6068742D01*
Y1463523D01*
X6069255D01*
Y1464036D01*
X6070281D01*
Y1464549D01*
X6070794D01*
Y1465062D01*
X6071307D01*
Y1465575D01*
X6071820D01*
Y1466088D01*
X6072846D01*
Y1466601D01*
X6073358D01*
Y1467114D01*
X6073871D01*
Y1467627D01*
X6074385D01*
Y1468140D01*
X6074897D01*
Y1468653D01*
X6075410D01*
Y1469166D01*
X6075924D01*
Y1469679D01*
X6076436D01*
Y1470192D01*
X6076949D01*
Y1470705D01*
Y1471218D01*
X6077462D01*
Y1471731D01*
X6077975D01*
Y1472244D01*
X6078488D01*
Y1472757D01*
X6079001D01*
Y1473270D01*
Y1473783D01*
X6079514D01*
Y1474296D01*
X6080027D01*
Y1474808D01*
Y1475321D01*
X6080540D01*
Y1475834D01*
X6081053D01*
Y1476347D01*
Y1476860D01*
X6081566D01*
Y1477373D01*
Y1477886D01*
X6082079D01*
Y1478399D01*
Y1478912D01*
X6082592D01*
Y1479425D01*
Y1479938D01*
X6083105D01*
Y1480451D01*
Y1480964D01*
X6083618D01*
Y1481477D01*
Y1481990D01*
X6084131D01*
Y1482503D01*
Y1483016D01*
X6084644D01*
Y1483529D01*
Y1484041D01*
Y1484555D01*
X6085157D01*
Y1485068D01*
Y1485580D01*
Y1486093D01*
X6085670D01*
Y1486606D01*
Y1487119D01*
Y1487632D01*
Y1488145D01*
X6086182D01*
Y1488658D01*
Y1489171D01*
Y1489684D01*
Y1490197D01*
Y1490710D01*
X6086695D01*
Y1491223D01*
Y1491736D01*
Y1492249D01*
Y1492762D01*
Y1493275D01*
Y1493788D01*
Y1494301D01*
X6087208D01*
Y1494814D01*
Y1495327D01*
Y1495840D01*
Y1496353D01*
Y1496865D01*
Y1497379D01*
Y1497891D01*
Y1498404D01*
Y1498917D01*
Y1499430D01*
Y1499943D01*
Y1500456D01*
Y1500969D01*
Y1501482D01*
X6086695D01*
Y1501995D01*
Y1502508D01*
Y1503021D01*
Y1503534D01*
Y1504047D01*
Y1504560D01*
Y1505073D01*
X6086182D01*
Y1505586D01*
Y1506099D01*
Y1506612D01*
Y1507124D01*
Y1507638D01*
X6085670D01*
Y1508151D01*
Y1508663D01*
Y1509176D01*
Y1509690D01*
X6085157D01*
Y1510202D01*
Y1510715D01*
Y1511228D01*
X6084644D01*
Y1511741D01*
Y1512254D01*
Y1512767D01*
X6084131D01*
Y1513280D01*
Y1513793D01*
X6083618D01*
Y1514306D01*
Y1514819D01*
Y1515332D01*
X6083105D01*
Y1515845D01*
Y1516358D01*
X6082592D01*
Y1516871D01*
Y1517384D01*
X6082079D01*
Y1517897D01*
Y1518410D01*
X6081566D01*
Y1518923D01*
X6081053D01*
Y1519436D01*
Y1519948D01*
X6080540D01*
Y1520462D01*
Y1520975D01*
X6080027D01*
Y1521487D01*
X6079514D01*
Y1522001D01*
Y1522513D01*
X6079001D01*
Y1523026D01*
X6078488D01*
Y1523539D01*
X6077975D01*
Y1524052D01*
Y1524565D01*
X6077462D01*
Y1525078D01*
X6076949D01*
Y1525591D01*
X6076436D01*
Y1526104D01*
X6075924D01*
Y1526617D01*
X6075410D01*
Y1527130D01*
X6074897D01*
Y1527643D01*
X6074385D01*
Y1528156D01*
X6073871D01*
Y1528669D01*
X6073358D01*
Y1529182D01*
X6072846D01*
Y1529695D01*
X6072333D01*
Y1530208D01*
X6071820D01*
Y1530721D01*
X6071307D01*
Y1531234D01*
X6070281D01*
Y1531746D01*
X6069768D01*
Y1532259D01*
X6068742D01*
Y1532773D01*
X6068229D01*
Y1533285D01*
X6067203D01*
Y1533798D01*
X6066690D01*
Y1534312D01*
X6065664D01*
Y1534824D01*
X6064638D01*
Y1535337D01*
X6063612D01*
Y1535850D01*
X6062587D01*
Y1536363D01*
X6061561D01*
Y1536876D01*
X6060535D01*
Y1537389D01*
X6058996D01*
Y1537902D01*
X6057457D01*
Y1538415D01*
X6055918D01*
Y1538928D01*
X6053866D01*
Y1539441D01*
X6050788D01*
Y1539954D01*
X6038990D01*
Y1539441D01*
X6035913D01*
Y1538928D01*
X6033861D01*
Y1538415D01*
X6032322D01*
Y1537902D01*
X6030783D01*
Y1537389D01*
X6029244D01*
Y1536876D01*
X6028219D01*
Y1536363D01*
X6027192D01*
Y1535850D01*
X6026167D01*
Y1535337D01*
X6025141D01*
Y1534824D01*
X6024115D01*
Y1534312D01*
X6023089D01*
Y1533798D01*
X6022576D01*
Y1533285D01*
X6021550D01*
Y1532773D01*
X6021037D01*
Y1532259D01*
X6020011D01*
Y1531746D01*
X6019498D01*
Y1531234D01*
X6018985D01*
Y1530721D01*
X6018472D01*
Y1530208D01*
X6017446D01*
Y1529695D01*
X6016933D01*
Y1529182D01*
X6016420D01*
Y1528669D01*
X6015907D01*
Y1528156D01*
X6015395D01*
Y1527643D01*
X6014882D01*
Y1527130D01*
X6014368D01*
Y1526617D01*
X6013856D01*
Y1526104D01*
X6013343D01*
Y1525591D01*
X6012830D01*
Y1525078D01*
X6012317D01*
Y1524565D01*
Y1524052D01*
X6011804D01*
Y1523539D01*
X6011291D01*
Y1523026D01*
X6010778D01*
Y1522513D01*
Y1522001D01*
X6010265D01*
Y1521487D01*
X6009752D01*
Y1520975D01*
Y1520462D01*
X6009239D01*
Y1519948D01*
X6008726D01*
Y1519436D01*
Y1518923D01*
X6008213D01*
Y1518410D01*
Y1517897D01*
X6007700D01*
Y1517384D01*
Y1516871D01*
X6007187D01*
Y1516358D01*
Y1515845D01*
X6006674D01*
Y1515332D01*
Y1514819D01*
X6006161D01*
Y1514306D01*
Y1513793D01*
X6005648D01*
Y1513280D01*
Y1512767D01*
Y1512254D01*
X6005135D01*
Y1511741D01*
Y1511228D01*
Y1510715D01*
X6004622D01*
Y1510202D01*
Y1509690D01*
Y1509176D01*
X6004109D01*
Y1508663D01*
Y1508151D01*
Y1507638D01*
Y1507124D01*
X6003597D01*
Y1506612D01*
Y1506099D01*
Y1505586D01*
Y1505073D01*
Y1504560D01*
X6003083D01*
Y1504047D01*
Y1503534D01*
Y1503021D01*
Y1502508D01*
Y1501995D01*
Y1501482D01*
Y1500969D01*
Y1500456D01*
Y1499943D01*
Y1499430D01*
X6002570D01*
Y1498917D01*
Y1498404D01*
Y1497891D01*
Y1497379D01*
Y1496865D01*
Y1496353D01*
X6003083D01*
Y1495840D01*
Y1495327D01*
Y1494814D01*
Y1494301D01*
Y1493788D01*
Y1493275D01*
Y1492762D01*
Y1492249D01*
Y1491736D01*
Y1491223D01*
X6003597D01*
Y1490710D01*
Y1490197D01*
Y1489684D01*
Y1489171D01*
Y1488658D01*
X6004109D01*
Y1488145D01*
Y1487632D01*
Y1487119D01*
Y1486606D01*
X6004622D01*
Y1486093D01*
Y1485580D01*
Y1485068D01*
X6005135D01*
Y1484555D01*
Y1484041D01*
Y1483529D01*
X6005648D01*
Y1483016D01*
Y1482503D01*
X6006161D01*
Y1481990D01*
Y1481477D01*
Y1480964D01*
X6006674D01*
Y1480451D01*
Y1479938D01*
X6007187D01*
Y1479425D01*
Y1478912D01*
X6007700D01*
Y1478399D01*
Y1477886D01*
X6008213D01*
Y1477373D01*
Y1476860D01*
X6008726D01*
Y1476347D01*
X6009239D01*
Y1475834D01*
Y1475321D01*
X6009752D01*
Y1474808D01*
X6010265D01*
Y1474296D01*
Y1473783D01*
X6010778D01*
Y1473270D01*
X6011291D01*
Y1472757D01*
Y1472244D01*
X6011804D01*
Y1471731D01*
X6012317D01*
Y1471218D01*
X6012830D01*
Y1470705D01*
X6013343D01*
Y1470192D01*
X6013856D01*
Y1469679D01*
Y1469166D01*
X6014368D01*
Y1468653D01*
X6014882D01*
Y1468140D01*
X6015395D01*
Y1467627D01*
X6015907D01*
Y1467114D01*
X6016933D01*
Y1466601D01*
X6017446D01*
Y1466088D01*
X6017959D01*
Y1465575D01*
X6018472D01*
Y1465062D01*
X6018985D01*
Y1464549D01*
X6020011D01*
Y1464036D01*
X6020524D01*
Y1463523D01*
X6021037D01*
Y1463010D01*
X6022063D01*
Y1462497D01*
X6022576D01*
Y1461985D01*
X6023089D01*
Y1461472D01*
X6024115D01*
Y1460958D01*
X6024628D01*
Y1460446D01*
X6025653D01*
Y1459933D01*
X6026680D01*
Y1459419D01*
X6027192D01*
Y1458907D01*
X6028219D01*
Y1458394D01*
Y1457881D01*
X6028731D01*
Y1457368D01*
Y1456855D01*
Y1456342D01*
Y1455829D01*
X6028219D01*
Y1455316D01*
Y1454803D01*
X6027705D01*
Y1454290D01*
Y1453777D01*
Y1453264D01*
X6027192D01*
Y1452751D01*
Y1452238D01*
X6026680D01*
Y1451725D01*
Y1451212D01*
X6026167D01*
Y1450700D01*
Y1450186D01*
Y1449674D01*
X6025653D01*
Y1449161D01*
Y1448648D01*
X6025141D01*
Y1448135D01*
Y1447622D01*
Y1447109D01*
X6024628D01*
Y1446596D01*
Y1446083D01*
X6024115D01*
Y1445570D01*
Y1445057D01*
X6023602D01*
Y1444544D01*
Y1444031D01*
Y1443518D01*
X6023089D01*
Y1443005D01*
Y1442492D01*
X6022576D01*
Y1441979D01*
Y1441466D01*
Y1440953D01*
X6022063D01*
Y1440440D01*
Y1439927D01*
X6021550D01*
Y1439414D01*
Y1438901D01*
Y1438389D01*
X6021037D01*
Y1437875D01*
Y1437363D01*
X6020524D01*
Y1436850D01*
Y1436336D01*
X6020011D01*
Y1435824D01*
Y1435311D01*
Y1434798D01*
X6019498D01*
Y1434285D01*
Y1433772D01*
X6018985D01*
Y1433259D01*
Y1432746D01*
Y1432233D01*
X6018472D01*
Y1431720D01*
Y1431207D01*
X6017959D01*
Y1430694D01*
Y1430181D01*
X6017446D01*
Y1429668D01*
Y1429155D01*
Y1428642D01*
X6016933D01*
Y1428129D01*
Y1427617D01*
X6016420D01*
Y1427103D01*
Y1426590D01*
Y1426078D01*
X6015907D01*
Y1425565D01*
Y1425052D01*
X6015395D01*
Y1424539D01*
Y1424026D01*
Y1423513D01*
X6014882D01*
Y1423000D01*
Y1422487D01*
X6014368D01*
Y1421974D01*
Y1421461D01*
X6013856D01*
Y1420948D01*
Y1420435D01*
Y1419922D01*
X6013343D01*
Y1419409D01*
Y1418896D01*
X6012830D01*
Y1418383D01*
Y1417870D01*
Y1417357D01*
X6012317D01*
Y1416844D01*
Y1416331D01*
X6011804D01*
Y1415818D01*
Y1415306D01*
X6011291D01*
Y1414792D01*
Y1414280D01*
Y1413767D01*
X6010778D01*
Y1413253D01*
Y1412741D01*
X6010265D01*
Y1412228D01*
Y1411715D01*
Y1411202D01*
X6009752D01*
Y1410689D01*
Y1410176D01*
X6009239D01*
Y1409663D01*
Y1409150D01*
Y1408637D01*
X6008726D01*
Y1408124D01*
Y1407611D01*
X6008213D01*
Y1407098D01*
Y1406585D01*
X6007700D01*
Y1406072D01*
Y1405559D01*
Y1405046D01*
X6007187D01*
Y1404533D01*
Y1404020D01*
X6006674D01*
Y1403507D01*
Y1402995D01*
Y1402481D01*
X6006161D01*
Y1401968D01*
Y1401456D01*
X6005648D01*
Y1400943D01*
Y1400430D01*
X6005135D01*
Y1399917D01*
Y1399404D01*
Y1398891D01*
X6004622D01*
Y1398378D01*
Y1397865D01*
X6004109D01*
Y1397352D01*
Y1396839D01*
Y1396326D01*
X6003597D01*
Y1395813D01*
Y1395300D01*
X6003083D01*
Y1394787D01*
Y1394274D01*
Y1393761D01*
X6002570D01*
Y1393248D01*
Y1392735D01*
X6002058D01*
Y1392223D01*
Y1391709D01*
X6001545D01*
Y1391196D01*
Y1390684D01*
X6001031D01*
Y1390170D01*
X5998467D01*
Y1390684D01*
X5997441D01*
Y1391196D01*
X5996928D01*
Y1391709D01*
X5995902D01*
Y1392223D01*
X5994876D01*
Y1392735D01*
X5993850D01*
Y1393248D01*
X5992824D01*
Y1393761D01*
X5991798D01*
Y1394274D01*
X5990773D01*
Y1394787D01*
X5989747D01*
Y1395300D01*
X5989234D01*
Y1395813D01*
X5988208D01*
Y1396326D01*
X5987182D01*
Y1396839D01*
X5986156D01*
Y1397352D01*
X5983591D01*
Y1396839D01*
X5982565D01*
Y1396326D01*
X5982052D01*
Y1395813D01*
X5981539D01*
Y1395300D01*
X5980514D01*
Y1394787D01*
X5980000D01*
Y1394274D01*
X5978975D01*
Y1393761D01*
X5978462D01*
Y1393248D01*
X5977436D01*
Y1392735D01*
X5976923D01*
Y1392223D01*
X5975897D01*
Y1391709D01*
X5975384D01*
Y1391196D01*
X5974358D01*
Y1390684D01*
X5973845D01*
Y1390170D01*
X5973332D01*
Y1389658D01*
X5972306D01*
Y1389145D01*
X5971793D01*
Y1388632D01*
X5970767D01*
Y1388119D01*
X5970254D01*
Y1387606D01*
X5969229D01*
Y1387093D01*
X5968715D01*
Y1386580D01*
X5967690D01*
Y1386067D01*
X5967177D01*
Y1385554D01*
X5966151D01*
Y1385041D01*
X5965638D01*
Y1384528D01*
X5965125D01*
Y1384015D01*
X5964099D01*
Y1383502D01*
X5963586D01*
Y1382989D01*
X5962560D01*
Y1382476D01*
X5962047D01*
Y1381963D01*
X5961021D01*
Y1381450D01*
X5960508D01*
Y1380937D01*
X5959482D01*
Y1380424D01*
X5958969D01*
Y1379912D01*
X5957943D01*
Y1379398D01*
X5957430D01*
Y1378885D01*
X5956404D01*
Y1378373D01*
X5955892D01*
Y1377860D01*
X5955378D01*
Y1377346D01*
X5954353D01*
Y1376834D01*
X5953327D01*
Y1376321D01*
X5951788D01*
Y1376834D01*
X5950762D01*
Y1377346D01*
X5950249D01*
Y1377860D01*
X5949736D01*
Y1378373D01*
X5949223D01*
Y1378885D01*
X5948710D01*
Y1379398D01*
X5948197D01*
Y1379912D01*
X5947684D01*
Y1380424D01*
X5947171D01*
Y1380937D01*
X5946658D01*
Y1381450D01*
X5946145D01*
Y1381963D01*
X5945632D01*
Y1382476D01*
X5945119D01*
Y1382989D01*
X5944607D01*
Y1383502D01*
X5944093D01*
Y1384015D01*
X5943580D01*
Y1384528D01*
X5943068D01*
Y1385041D01*
X5942555D01*
Y1385554D01*
X5942042D01*
Y1386067D01*
X5941529D01*
Y1386580D01*
X5941016D01*
Y1387093D01*
X5940503D01*
Y1387606D01*
X5939990D01*
Y1388119D01*
X5939477D01*
Y1388632D01*
X5938964D01*
Y1389145D01*
X5938451D01*
Y1389658D01*
X5937938D01*
Y1390170D01*
X5937425D01*
Y1390684D01*
X5936912D01*
Y1391196D01*
X5936399D01*
Y1391709D01*
X5935886D01*
Y1392223D01*
X5935373D01*
Y1392735D01*
X5934860D01*
Y1393248D01*
X5934347D01*
Y1393761D01*
X5933834D01*
Y1394274D01*
X5933321D01*
Y1394787D01*
X5932808D01*
Y1395300D01*
X5932295D01*
Y1395813D01*
X5931783D01*
Y1396326D01*
X5931270D01*
Y1396839D01*
X5930757D01*
Y1397352D01*
X5930244D01*
Y1397865D01*
X5929731D01*
Y1398378D01*
X5929218D01*
Y1398891D01*
X5928705D01*
Y1399404D01*
X5928192D01*
Y1399917D01*
X5927679D01*
Y1400430D01*
X5927166D01*
Y1400943D01*
X5926653D01*
Y1401456D01*
X5926140D01*
Y1401968D01*
X5925627D01*
Y1402481D01*
X5925114D01*
Y1402995D01*
X5924601D01*
Y1403507D01*
X5924088D01*
Y1404020D01*
X5923575D01*
Y1404533D01*
Y1405046D01*
X5923062D01*
Y1405559D01*
Y1406072D01*
Y1406585D01*
X5923575D01*
Y1407098D01*
Y1407611D01*
X5924088D01*
Y1408124D01*
Y1408637D01*
X5924601D01*
Y1409150D01*
X5925114D01*
Y1409663D01*
X5925627D01*
Y1410176D01*
Y1410689D01*
X5926140D01*
Y1411202D01*
X5926653D01*
Y1411715D01*
Y1412228D01*
X5927166D01*
Y1412741D01*
X5927679D01*
Y1413253D01*
Y1413767D01*
X5928192D01*
Y1414280D01*
X5928705D01*
Y1414792D01*
Y1415306D01*
X5929218D01*
Y1415818D01*
X5929731D01*
Y1416331D01*
Y1416844D01*
X5930244D01*
Y1417357D01*
X5930757D01*
Y1417870D01*
X5931270D01*
Y1418383D01*
Y1418896D01*
X5931783D01*
Y1419409D01*
X5932295D01*
Y1419922D01*
Y1420435D01*
X5932808D01*
Y1420948D01*
X5933321D01*
Y1421461D01*
Y1421974D01*
X5933834D01*
Y1422487D01*
X5934347D01*
Y1423000D01*
Y1423513D01*
X5934860D01*
Y1424026D01*
X5935373D01*
Y1424539D01*
Y1425052D01*
X5935886D01*
Y1425565D01*
X5936399D01*
Y1426078D01*
Y1426590D01*
X5936912D01*
Y1427103D01*
X5937425D01*
Y1427617D01*
X5937938D01*
Y1428129D01*
Y1428642D01*
X5938451D01*
Y1429155D01*
X5938964D01*
Y1429668D01*
Y1430181D01*
X5939477D01*
Y1430694D01*
X5939990D01*
Y1431207D01*
Y1431720D01*
X5940503D01*
Y1432233D01*
X5941016D01*
Y1432746D01*
Y1433259D01*
X5941529D01*
Y1433772D01*
X5942042D01*
Y1434285D01*
Y1434798D01*
X5942555D01*
Y1435311D01*
X5943068D01*
Y1435824D01*
X5943580D01*
Y1436336D01*
Y1436850D01*
X5944093D01*
Y1437363D01*
X5944607D01*
Y1437875D01*
Y1438389D01*
Y1438901D01*
Y1439414D01*
Y1439927D01*
X5944093D01*
Y1440440D01*
Y1440953D01*
Y1441466D01*
X5943580D01*
Y1441979D01*
Y1442492D01*
X5943068D01*
Y1443005D01*
Y1443518D01*
Y1444031D01*
X5942555D01*
Y1444544D01*
Y1445057D01*
X5942042D01*
Y1445570D01*
Y1446083D01*
Y1446596D01*
X5941529D01*
Y1447109D01*
Y1447622D01*
X5941016D01*
Y1448135D01*
Y1448648D01*
Y1449161D01*
X5940503D01*
Y1449674D01*
Y1450186D01*
X5939990D01*
Y1450700D01*
Y1451212D01*
Y1451725D01*
X5939477D01*
Y1452238D01*
Y1452751D01*
X5938964D01*
Y1453264D01*
Y1453777D01*
Y1454290D01*
X5938451D01*
Y1454803D01*
Y1455316D01*
X5937938D01*
Y1455829D01*
Y1456342D01*
Y1456855D01*
X5937425D01*
Y1457368D01*
Y1457881D01*
X5936912D01*
Y1458394D01*
Y1458907D01*
Y1459419D01*
X5936399D01*
Y1459933D01*
Y1460446D01*
X5935886D01*
Y1460958D01*
Y1461472D01*
Y1461985D01*
X5935373D01*
Y1462497D01*
Y1463010D01*
X5934860D01*
Y1463523D01*
Y1464036D01*
Y1464549D01*
X5934347D01*
Y1465062D01*
Y1465575D01*
X5933834D01*
Y1466088D01*
Y1466601D01*
Y1467114D01*
X5933321D01*
Y1467627D01*
Y1468140D01*
X5932808D01*
Y1468653D01*
Y1469166D01*
X5932295D01*
Y1469679D01*
X5931270D01*
Y1470192D01*
X5928705D01*
Y1470705D01*
X5925627D01*
Y1471218D01*
X5923062D01*
Y1471731D01*
X5920497D01*
Y1472244D01*
X5917420D01*
Y1472757D01*
X5914855D01*
Y1473270D01*
X5912290D01*
Y1473783D01*
X5909212D01*
Y1474296D01*
X5906648D01*
Y1474808D01*
X5903570D01*
Y1475321D01*
X5901005D01*
Y1475834D01*
X5898440D01*
Y1476347D01*
X5895363D01*
Y1476860D01*
X5893824D01*
Y1477373D01*
X5893311D01*
Y1477886D01*
X5892798D01*
Y1478399D01*
Y1478912D01*
Y1479425D01*
Y1479938D01*
Y1480451D01*
Y1480964D01*
Y1481477D01*
Y1481990D01*
Y1482503D01*
Y1483016D01*
Y1483529D01*
Y1484041D01*
Y1484555D01*
Y1485068D01*
Y1485580D01*
Y1486093D01*
Y1486606D01*
Y1487119D01*
Y1487632D01*
Y1488145D01*
Y1488658D01*
Y1489171D01*
Y1489684D01*
Y1490197D01*
Y1490710D01*
Y1491223D01*
Y1491736D01*
Y1492249D01*
Y1492762D01*
Y1493275D01*
Y1493788D01*
Y1494301D01*
Y1494814D01*
Y1495327D01*
Y1495840D01*
Y1496353D01*
Y1496865D01*
Y1497379D01*
Y1497891D01*
Y1498404D01*
Y1498917D01*
Y1499430D01*
Y1499943D01*
Y1500456D01*
Y1500969D01*
Y1501482D01*
Y1501995D01*
Y1502508D01*
Y1503021D01*
Y1503534D01*
Y1504047D01*
Y1504560D01*
Y1505073D01*
Y1505586D01*
Y1506099D01*
Y1506612D01*
Y1507124D01*
Y1507638D01*
Y1508151D01*
Y1508663D01*
Y1509176D01*
Y1509690D01*
Y1510202D01*
Y1510715D01*
Y1511228D01*
Y1511741D01*
Y1512254D01*
Y1512767D01*
Y1513280D01*
Y1513793D01*
Y1514306D01*
Y1514819D01*
Y1515332D01*
Y1515845D01*
Y1516358D01*
Y1516871D01*
Y1517384D01*
Y1517897D01*
Y1518410D01*
X5893311D01*
Y1518923D01*
X5893824D01*
Y1519436D01*
X5894850D01*
Y1519948D01*
X5897414D01*
Y1520462D01*
X5900492D01*
Y1520975D01*
X5903057D01*
Y1521487D01*
X5906135D01*
Y1522001D01*
X5908700D01*
Y1522513D01*
X5911264D01*
Y1523026D01*
X5914342D01*
Y1523539D01*
X5916907D01*
Y1524052D01*
X5919472D01*
Y1524565D01*
X5922549D01*
Y1525078D01*
X5925114D01*
Y1525591D01*
X5928192D01*
Y1526104D01*
X5930757D01*
Y1526617D01*
X5932808D01*
Y1527130D01*
X5933321D01*
Y1527643D01*
X5933834D01*
Y1528156D01*
Y1528669D01*
X5934347D01*
Y1529182D01*
Y1529695D01*
X5934860D01*
Y1530208D01*
Y1530721D01*
X5935373D01*
Y1531234D01*
Y1531746D01*
Y1532259D01*
X5935886D01*
Y1532773D01*
Y1533285D01*
X5936399D01*
Y1533798D01*
Y1534312D01*
X5936912D01*
Y1534824D01*
Y1535337D01*
Y1535850D01*
X5937425D01*
Y1536363D01*
Y1536876D01*
X5937938D01*
Y1537389D01*
Y1537902D01*
X5938451D01*
Y1538415D01*
Y1538928D01*
Y1539441D01*
X5938964D01*
Y1539954D01*
Y1540467D01*
X5939477D01*
Y1540980D01*
Y1541493D01*
X5939990D01*
Y1542006D01*
Y1542519D01*
Y1543031D01*
X5940503D01*
Y1543545D01*
Y1544058D01*
X5941016D01*
Y1544570D01*
Y1545084D01*
X5941529D01*
Y1545596D01*
Y1546109D01*
Y1546622D01*
X5942042D01*
Y1547135D01*
Y1547648D01*
X5942555D01*
Y1548161D01*
Y1548674D01*
X5943068D01*
Y1549187D01*
Y1549700D01*
Y1550213D01*
X5943580D01*
Y1550726D01*
Y1551239D01*
X5944093D01*
Y1551752D01*
Y1552265D01*
X5944607D01*
Y1552778D01*
Y1553291D01*
Y1553804D01*
X5945119D01*
Y1554317D01*
Y1554830D01*
X5945632D01*
Y1555343D01*
Y1555856D01*
Y1556368D01*
Y1556881D01*
Y1557395D01*
X5945119D01*
Y1557907D01*
X5944607D01*
Y1558420D01*
Y1558933D01*
X5944093D01*
Y1559446D01*
X5943580D01*
Y1559959D01*
Y1560472D01*
X5943068D01*
Y1560985D01*
X5942555D01*
Y1561498D01*
Y1562011D01*
X5942042D01*
Y1562524D01*
X5941529D01*
Y1563037D01*
Y1563550D01*
X5941016D01*
Y1564063D01*
X5940503D01*
Y1564576D01*
Y1565089D01*
X5939990D01*
Y1565602D01*
X5939477D01*
Y1566114D01*
X5938964D01*
Y1566628D01*
Y1567141D01*
X5938451D01*
Y1567653D01*
X5937938D01*
Y1568167D01*
Y1568680D01*
X5937425D01*
Y1569192D01*
X5936912D01*
Y1569705D01*
Y1570218D01*
X5936399D01*
Y1570731D01*
X5935886D01*
Y1571244D01*
Y1571757D01*
X5935373D01*
Y1572270D01*
X5934860D01*
Y1572783D01*
Y1573296D01*
X5934347D01*
Y1573809D01*
X5933834D01*
Y1574322D01*
X5933321D01*
Y1574835D01*
Y1575348D01*
X5932808D01*
Y1575861D01*
X5932295D01*
Y1576374D01*
Y1576887D01*
X5931783D01*
Y1577400D01*
X5931270D01*
Y1577913D01*
Y1578426D01*
X5930757D01*
Y1578939D01*
X5930244D01*
Y1579452D01*
Y1579964D01*
X5929731D01*
Y1580478D01*
X5929218D01*
Y1580990D01*
Y1581503D01*
X5928705D01*
Y1582016D01*
X5928192D01*
Y1582529D01*
X5927679D01*
Y1583042D01*
Y1583555D01*
X5927166D01*
Y1584068D01*
X5926653D01*
Y1584581D01*
Y1585094D01*
X5926140D01*
Y1585607D01*
X5925627D01*
Y1586120D01*
Y1586633D01*
X5925114D01*
Y1587146D01*
X5924601D01*
Y1587659D01*
Y1588172D01*
X5924088D01*
Y1588685D01*
X5923575D01*
Y1589197D01*
Y1589711D01*
X5923062D01*
Y1590224D01*
Y1590736D01*
Y1591250D01*
X5923575D01*
Y1591763D01*
Y1592275D01*
X5924088D01*
Y1592788D01*
X5924601D01*
Y1593301D01*
X5925114D01*
Y1593814D01*
X5925627D01*
Y1594327D01*
X5926140D01*
Y1594840D01*
X5926653D01*
Y1595353D01*
X5927166D01*
Y1595866D01*
X5927679D01*
Y1596379D01*
X5928192D01*
Y1596892D01*
X5928705D01*
Y1597405D01*
X5929218D01*
Y1597918D01*
X5929731D01*
Y1598431D01*
X5930244D01*
Y1598944D01*
X5930757D01*
Y1599457D01*
X5931270D01*
Y1599970D01*
X5931783D01*
Y1600483D01*
X5932295D01*
Y1600996D01*
X5932808D01*
Y1601509D01*
X5933321D01*
Y1602022D01*
X5933834D01*
Y1602535D01*
X5934347D01*
Y1603048D01*
X5934860D01*
Y1603561D01*
X5935373D01*
Y1604074D01*
X5935886D01*
Y1604586D01*
X5936399D01*
Y1605099D01*
X5936912D01*
Y1605612D01*
X5937425D01*
Y1606125D01*
X5937938D01*
Y1606638D01*
X5938451D01*
Y1607151D01*
X5938964D01*
Y1607664D01*
X5939477D01*
Y1608177D01*
X5939990D01*
Y1608690D01*
X5940503D01*
Y1609203D01*
X5941016D01*
Y1609716D01*
X5941529D01*
Y1610229D01*
X5942042D01*
Y1610742D01*
X5942555D01*
Y1611255D01*
X5943068D01*
Y1611768D01*
X5943580D01*
Y1612281D01*
X5944093D01*
Y1612794D01*
X5944607D01*
Y1613307D01*
X5945119D01*
Y1613819D01*
X5945632D01*
Y1614333D01*
X5946145D01*
Y1614846D01*
X5946658D01*
Y1615358D01*
X5947171D01*
Y1615871D01*
X5947684D01*
Y1616385D01*
X5948197D01*
Y1616897D01*
X5948710D01*
Y1617410D01*
X5949223D01*
Y1617923D01*
X5949736D01*
Y1618436D01*
X5950249D01*
Y1618949D01*
X5950762D01*
Y1619462D01*
X5951275D01*
Y1619975D01*
X5953840D01*
Y1619462D01*
X5954353D01*
Y1618949D01*
X5955378D01*
Y1618436D01*
X5955892D01*
Y1617923D01*
X5956917D01*
Y1617410D01*
X5957430D01*
Y1616897D01*
X5958456D01*
Y1616385D01*
X5958969D01*
Y1615871D01*
X5959995D01*
Y1615358D01*
X5960508D01*
Y1614846D01*
X5961534D01*
Y1614333D01*
X5962047D01*
Y1613819D01*
X5962560D01*
Y1613307D01*
X5963586D01*
Y1612794D01*
X5964099D01*
Y1612281D01*
X5965125D01*
Y1611768D01*
X5965638D01*
Y1611255D01*
X5966663D01*
Y1610742D01*
X5967177D01*
Y1610229D01*
X5968202D01*
Y1609716D01*
X5968715D01*
Y1609203D01*
X5969741D01*
Y1608690D01*
X5970254D01*
Y1608177D01*
X5971280D01*
Y1607664D01*
X5971793D01*
Y1607151D01*
X5972306D01*
Y1606638D01*
X5973332D01*
Y1606125D01*
X5973845D01*
Y1605612D01*
X5974871D01*
Y1605099D01*
X5975384D01*
Y1604586D01*
X5976410D01*
Y1604074D01*
X5976923D01*
Y1603561D01*
X5977948D01*
Y1603048D01*
X5978462D01*
Y1602535D01*
X5979487D01*
Y1602022D01*
X5980000D01*
Y1601509D01*
X5980514D01*
Y1600996D01*
X5981539D01*
Y1600483D01*
X5982052D01*
Y1599970D01*
X5983078D01*
Y1599457D01*
X5983591D01*
Y1598944D01*
X5984617D01*
Y1598431D01*
X5985130D01*
Y1597918D01*
X5986156D01*
Y1597405D01*
X5987182D01*
Y1596892D01*
X5988208D01*
Y1597405D01*
X5989747D01*
Y1597918D01*
X5990773D01*
Y1598431D01*
X5991798D01*
Y1598944D01*
X5993337D01*
Y1599457D01*
X5994363D01*
Y1599970D01*
X5995902D01*
Y1600483D01*
X5996928D01*
Y1600996D01*
X5998467D01*
Y1601509D01*
X5999493D01*
Y1602022D01*
X6001031D01*
Y1602535D01*
X6002058D01*
Y1603048D01*
X6003083D01*
Y1603561D01*
X6004622D01*
Y1604074D01*
X6005648D01*
Y1604586D01*
X6007187D01*
Y1605099D01*
X6008213D01*
Y1605612D01*
X6009752D01*
Y1606125D01*
X6010778D01*
Y1606638D01*
X6012317D01*
Y1607151D01*
X6013343D01*
Y1607664D01*
X6014368D01*
Y1608177D01*
X6015395D01*
Y1608690D01*
X6015907D01*
Y1609203D01*
Y1609716D01*
X6016420D01*
Y1610229D01*
Y1610742D01*
Y1611255D01*
Y1611768D01*
X6016933D01*
Y1612281D01*
Y1612794D01*
Y1613307D01*
Y1613819D01*
Y1614333D01*
X6017446D01*
Y1614846D01*
Y1615358D01*
Y1615871D01*
Y1616385D01*
Y1616897D01*
Y1617410D01*
X6017959D01*
Y1617923D01*
Y1618436D01*
Y1618949D01*
Y1619462D01*
Y1619975D01*
X6018472D01*
Y1620488D01*
Y1621001D01*
Y1621514D01*
Y1622027D01*
Y1622540D01*
Y1623053D01*
X6018985D01*
Y1623566D01*
Y1624079D01*
Y1624592D01*
Y1625105D01*
Y1625618D01*
X6019498D01*
Y1626131D01*
Y1626644D01*
Y1627157D01*
Y1627669D01*
Y1628182D01*
X6020011D01*
Y1628695D01*
Y1629208D01*
Y1629721D01*
Y1630234D01*
Y1630747D01*
Y1631260D01*
X6020524D01*
Y1631773D01*
Y1632286D01*
Y1632799D01*
Y1633312D01*
Y1633825D01*
X6021037D01*
Y1634338D01*
Y1634851D01*
Y1635364D01*
Y1635877D01*
Y1636390D01*
X6021550D01*
Y1636902D01*
Y1637416D01*
Y1637929D01*
Y1638441D01*
Y1638954D01*
Y1639468D01*
X6022063D01*
Y1639980D01*
Y1640493D01*
Y1641006D01*
Y1641519D01*
Y1642032D01*
X6022576D01*
Y1642545D01*
Y1643058D01*
Y1643571D01*
Y1644084D01*
Y1644597D01*
Y1645110D01*
X6023089D01*
Y1645623D01*
Y1646136D01*
Y1646649D01*
Y1647162D01*
Y1647675D01*
X6023602D01*
Y1648188D01*
Y1648701D01*
Y1649214D01*
X6024115D01*
Y1649726D01*
X6024628D01*
Y1650240D01*
X6065151D01*
Y1649726D01*
D02*
G37*
G36*
X6808922Y1300705D02*
X6776764Y1339293D01*
X6841079D01*
X6808922Y1300705D01*
D02*
G37*
G36*
X5735000Y1192843D02*
X5696412Y1225000D01*
X5735000Y1257158D01*
Y1192843D01*
D02*
G37*
G36*
X6808921Y1090706D02*
X6776764Y1129294D01*
X6841079D01*
X6808921Y1090706D01*
D02*
G37*
G36*
Y780706D02*
X6776764Y819295D01*
X6841079D01*
X6808921Y780706D01*
D02*
G37*
G36*
X7625274Y850970D02*
X7657431Y812382D01*
X7593116D01*
X7625274Y850970D01*
D02*
G37*
G36*
X7465274Y1200971D02*
X7497431Y1162382D01*
X7433116D01*
X7465274Y1200971D01*
D02*
G37*
G36*
X7780000Y1150000D02*
X7830000Y1190000D01*
Y1110000D01*
X7780000Y1150000D01*
D02*
G37*
G36*
X7460275Y1500971D02*
X7492433Y1462382D01*
X7428118D01*
X7460275Y1500971D01*
D02*
G37*
G36*
X7700000Y1201411D02*
X7667842Y1240000D01*
X7732157D01*
X7700000Y1201411D01*
D02*
G37*
G36*
Y1651411D02*
X7667842Y1690000D01*
X7732157D01*
X7700000Y1651411D01*
D02*
G37*
G36*
X7780000Y1600000D02*
X7830000Y1640000D01*
Y1560000D01*
X7780000Y1600000D01*
D02*
G37*
G36*
X7620274Y2080971D02*
X7652431Y2042382D01*
X7588116D01*
X7620274Y2080971D01*
D02*
G37*
G36*
X7625274Y2390971D02*
X7657431Y2352382D01*
X7593117D01*
X7625274Y2390971D01*
D02*
G37*
G36*
X8009754Y2519424D02*
X7977596Y2558013D01*
X8041911D01*
X8009754Y2519424D01*
D02*
G37*
G36*
X6345000Y3707843D02*
X6306411Y3740000D01*
X6345000Y3772158D01*
Y3707843D01*
D02*
G37*
G36*
X6977431Y3542383D02*
X6913116D01*
X6945273Y3580972D01*
X6977431Y3542383D01*
D02*
G37*
G36*
X6808922Y3100705D02*
X6776764Y3139294D01*
X6841079D01*
X6808922Y3100705D01*
D02*
G37*
G36*
Y2838205D02*
X6776764Y2876794D01*
X6841079D01*
X6808922Y2838205D01*
D02*
G37*
G36*
X5657157Y2705000D02*
X5592843D01*
X5625000Y2743589D01*
X5657157Y2705000D01*
D02*
G37*
G36*
X5690000Y3913589D02*
X5722157Y3875000D01*
X5657843D01*
X5690000Y3913589D01*
D02*
G37*
G36*
X6798018Y4547415D02*
X6765861Y4586004D01*
X6830176D01*
X6798018Y4547415D01*
D02*
G37*
G36*
X6945273Y3820972D02*
X6977431Y3782383D01*
X6913116D01*
X6945273Y3820972D01*
D02*
G37*
G36*
X7230273D02*
X7262431Y3782383D01*
X7198116D01*
X7230273Y3820972D01*
D02*
G37*
G36*
X7293016Y4637416D02*
X7260859Y4676004D01*
X7325174D01*
X7293016Y4637416D01*
D02*
G37*
G36*
X7625274Y2690971D02*
X7657431Y2652382D01*
X7593116D01*
X7625274Y2690971D01*
D02*
G37*
G36*
X7625274Y3000971D02*
X7657431Y2962382D01*
X7593117D01*
X7625274Y3000971D01*
D02*
G37*
G36*
X7700000Y3411411D02*
X7667842Y3450000D01*
X7732157D01*
X7700000Y3411411D01*
D02*
G37*
G36*
X8455265Y2693140D02*
X8487423Y2654551D01*
X8423108D01*
X8455265Y2693140D01*
D02*
G37*
G36*
X7780000Y3360000D02*
X7830000Y3400000D01*
Y3320000D01*
X7780000Y3360000D01*
D02*
G37*
G36*
X7700000Y3911411D02*
X7667842Y3950000D01*
X7732157D01*
X7700000Y3911411D01*
D02*
G37*
G36*
X7780000Y3860000D02*
X7830000Y3900000D01*
Y3820000D01*
X7780000Y3860000D01*
D02*
G37*
G36*
X7861410Y4640000D02*
X7899999Y4672158D01*
Y4607843D01*
X7861410Y4640000D01*
D02*
G37*
G36*
X8009754Y5313424D02*
X7977596Y5352013D01*
X8041911D01*
X8009754Y5313424D01*
D02*
G37*
D102*
X2070000Y1710000D02*
Y1810000D01*
X1990000Y1710000D02*
X2070000D01*
X1770000D02*
Y1810000D01*
Y1710000D02*
X1850000D01*
X2500000Y1800000D02*
Y1900000D01*
X2420000Y1800000D02*
X2500000D01*
X2200000D02*
Y1900000D01*
Y1800000D02*
X2280000D01*
X2470000Y2950000D02*
Y3090000D01*
X2330000Y2950000D02*
Y3090000D01*
X6060000Y4080000D02*
X6200000D01*
X6060000Y3940000D02*
X6200000D01*
X6049961Y4220000D02*
Y4260000D01*
X5549961Y3800000D02*
Y3840000D01*
X8003000Y2431503D02*
Y2491500D01*
X7963000Y2501500D02*
X8548000D01*
X8508000Y2429500D02*
Y2491500D01*
X7963000Y1206500D02*
X8548000D01*
X8003000Y1161503D02*
Y1205752D01*
X8508000Y1159500D02*
Y1206354D01*
X7973000Y1206500D02*
X8538000D01*
X8508000Y1207248D02*
Y1251497D01*
X8003000Y1206646D02*
Y1253500D01*
Y170500D02*
Y237500D01*
X8508000Y170500D02*
Y235497D01*
X7963000Y160500D02*
X8548000D01*
X8003000Y5225503D02*
Y5285500D01*
X7963000Y5295500D02*
X8548000D01*
X8508000Y5223500D02*
Y5285500D01*
X7963000Y4000500D02*
X8548000D01*
X8003000Y3955503D02*
Y3999752D01*
X8508000Y3953500D02*
Y4000354D01*
X7973000Y4000500D02*
X8538000D01*
X8508000Y4001248D02*
Y4045497D01*
X8003000Y4000646D02*
Y4047500D01*
Y2964500D02*
Y3031500D01*
X8508000Y2964500D02*
Y3029497D01*
X7963000Y2954500D02*
X8548000D01*
X3128000Y65500D02*
X3174854D01*
X3130003Y570500D02*
X3174252D01*
X3175000Y25500D02*
Y610500D01*
X4445146Y570500D02*
X4492000D01*
X4445748Y65500D02*
X4489997D01*
X4445000Y55500D02*
Y579500D01*
X4398000Y65500D02*
X4444854D01*
X4400003Y570500D02*
X4444252D01*
X4445000Y25500D02*
Y610500D01*
X5715146Y570500D02*
X5762000D01*
X5715748Y65500D02*
X5759997D01*
X5715000Y55500D02*
Y579500D01*
X5668000Y65500D02*
X5714854D01*
X5670003Y570500D02*
X5714252D01*
X5715000Y25500D02*
Y610500D01*
X6985146Y570500D02*
X7032000D01*
X6985748Y65500D02*
X7029997D01*
X6985000Y55500D02*
Y579500D01*
X6938000Y65500D02*
X6984854D01*
X6940003Y570500D02*
X6984252D01*
X6985000Y25500D02*
Y610500D01*
X7700000Y65500D02*
X7767000D01*
X7702003Y570500D02*
X7767000D01*
X7777000Y25500D02*
Y610500D01*
X3175146Y570500D02*
X3222000D01*
X3175748Y65500D02*
X3219997D01*
X3175000Y55500D02*
Y579500D01*
X1890000Y570500D02*
X1952000D01*
X1880000Y25500D02*
Y610500D01*
X1890000Y65500D02*
X1949997D01*
X3128000Y4891500D02*
X3174854D01*
X3130003Y5396500D02*
X3174252D01*
X3175000Y4851500D02*
Y5436500D01*
X4445146Y5396500D02*
X4492000D01*
X4445748Y4891500D02*
X4489997D01*
X4445000Y4881500D02*
Y5405500D01*
X4398000Y4891500D02*
X4444854D01*
X4400003Y5396500D02*
X4444252D01*
X4445000Y4851500D02*
Y5436500D01*
X5715146Y5396500D02*
X5762000D01*
X5715748Y4891500D02*
X5759997D01*
X5715000Y4881500D02*
Y5405500D01*
X5668000Y4891500D02*
X5714854D01*
X5670003Y5396500D02*
X5714252D01*
X5715000Y4851500D02*
Y5436500D01*
X6985146Y5396500D02*
X7032000D01*
X6985748Y4891500D02*
X7029997D01*
X6985000Y4881500D02*
Y5405500D01*
X6938000Y4891500D02*
X6984854D01*
X6940003Y5396500D02*
X6984252D01*
X6985000Y4851500D02*
Y5436500D01*
X7700000Y4891500D02*
X7767000D01*
X7702003Y5396500D02*
X7767000D01*
X7777000Y4851500D02*
Y5436500D01*
X3175146Y5396500D02*
X3222000D01*
X3175748Y4891500D02*
X3219997D01*
X3175000Y4881500D02*
Y5405500D01*
X1890000Y5396500D02*
X1952000D01*
X1880000Y4851500D02*
Y5436500D01*
X1890000Y4891500D02*
X1949997D01*
X2366000Y4133400D02*
X2433000D01*
X2368003Y4638400D02*
X2433000D01*
X2443000Y4093400D02*
Y4678400D01*
X1890000Y4133400D02*
X1949997D01*
X1880000Y4093400D02*
Y4678400D01*
X1890000Y4638400D02*
X1952000D01*
X4720001Y1880001D02*
X4749998Y1849999D01*
X4689998D02*
X4720001Y1880001D01*
Y1809999D02*
Y1880001D01*
X4360001Y2000001D02*
X4389999Y1969999D01*
X4360001Y1940001D02*
X4389999Y1969999D01*
X4320002D02*
X4389999D01*
X4554383Y1000100D02*
X4584380Y1030102D01*
X4614382Y1000100D01*
X4584380Y960100D02*
Y1030102D01*
X5819999Y1809999D02*
X5850001Y1840001D01*
X5879998Y1809999D01*
X5850001Y1769999D02*
Y1840001D01*
X5820000Y2350000D02*
X5850003Y2319998D01*
X5820000Y2350000D02*
X5850003Y2379998D01*
X5820000Y2350000D02*
X5890002D01*
X3300000Y1970002D02*
X3330002Y1940000D01*
X3270003D02*
X3300000Y1970002D01*
Y1900000D02*
Y1970002D01*
X7676645Y1369968D02*
X7610000D01*
Y1270000D01*
X7676645D01*
X7610000Y1319984D02*
X7643323D01*
X7709968Y1270000D02*
Y1369968D01*
X7743290Y1336645D01*
X7776613Y1369968D01*
Y1270000D01*
X7809936Y1369968D02*
Y1286661D01*
X7826597Y1270000D01*
X7859920D01*
X7876581Y1286661D01*
Y1369968D01*
X4600000Y4853306D02*
X4616661Y4869968D01*
X4649984D01*
X4666645Y4853306D01*
Y4786661D01*
X4649984Y4770000D01*
X4616661D01*
X4600000Y4786661D01*
Y4853306D01*
X4950000Y4770000D02*
X4983322D01*
X4966661D01*
Y4869968D01*
X4950000Y4853306D01*
X4630000Y4540000D02*
Y4639968D01*
X4679984D01*
X4696645Y4623306D01*
Y4589984D01*
X4679984Y4573323D01*
X4630000D01*
X4729968Y4540000D02*
Y4639968D01*
X4779952D01*
X4796613Y4623306D01*
Y4589984D01*
X4779952Y4573323D01*
X4729968D01*
X4763290D02*
X4796613Y4540000D01*
X4829935Y4639968D02*
Y4556661D01*
X4846597Y4540000D01*
X4879919D01*
X4896581Y4556661D01*
Y4639968D01*
X4929903Y4540000D02*
X4963226D01*
X4946565D01*
Y4639968D01*
X4929903Y4623306D01*
X2770000Y4540000D02*
Y4639968D01*
X2819984D01*
X2836645Y4623306D01*
Y4589984D01*
X2819984Y4573323D01*
X2770000D01*
X2869968Y4540000D02*
Y4639968D01*
X2919952D01*
X2936613Y4623306D01*
Y4589984D01*
X2919952Y4573323D01*
X2869968D01*
X2903290D02*
X2936613Y4540000D01*
X2969936Y4639968D02*
Y4556661D01*
X2986597Y4540000D01*
X3019920D01*
X3036581Y4556661D01*
Y4639968D01*
X3069903Y4623306D02*
X3086565Y4639968D01*
X3119887D01*
X3136548Y4623306D01*
Y4556661D01*
X3119887Y4540000D01*
X3086565D01*
X3069903Y4556661D01*
Y4623306D01*
X2740000Y4853306D02*
X2756661Y4869968D01*
X2789984D01*
X2806645Y4853306D01*
Y4786661D01*
X2789984Y4770000D01*
X2756661D01*
X2740000Y4786661D01*
Y4853306D01*
X3090000Y4770000D02*
X3123323D01*
X3106662D01*
Y4869968D01*
X3090000Y4853306D01*
X7736645Y3579968D02*
X7670000D01*
Y3480000D01*
X7736645D01*
X7670000Y3529984D02*
X7703322D01*
X7769968Y3480000D02*
Y3579968D01*
X7803290Y3546645D01*
X7836613Y3579968D01*
Y3480000D01*
X7869935Y3579968D02*
Y3496661D01*
X7886597Y3480000D01*
X7919919D01*
X7936581Y3496661D01*
Y3579968D01*
X2790000Y1860000D02*
Y1959968D01*
X2839984D01*
X2856645Y1943306D01*
Y1909984D01*
X2839984Y1893322D01*
X2790000D01*
X2889968Y1959968D02*
Y1860000D01*
X2923290Y1893322D01*
X2956613Y1860000D01*
Y1959968D01*
X2989936Y1860000D02*
Y1959968D01*
X3039919D01*
X3056581Y1943306D01*
Y1909984D01*
X3039919Y1893322D01*
X2989936D01*
X3023258D02*
X3056581Y1860000D01*
X1826645Y5230000D02*
X1760000D01*
X1826645Y5296645D01*
Y5313306D01*
X1809984Y5329968D01*
X1776661D01*
X1760000Y5313306D01*
X1826645Y4470000D02*
X1760000D01*
X1826645Y4536645D01*
Y4553306D01*
X1809984Y4569968D01*
X1776661D01*
X1760000Y4553306D01*
X1780000Y4950000D02*
X1813323D01*
X1796661D01*
Y5049968D01*
X1780000Y5033306D01*
Y4180000D02*
X1813323D01*
X1796661D01*
Y4279968D01*
X1780000Y4263306D01*
X1856645Y420000D02*
X1790000D01*
X1856645Y486645D01*
Y503306D01*
X1839984Y519968D01*
X1806661D01*
X1790000Y503306D01*
X1810000Y130000D02*
X1843322D01*
X1826661D01*
Y229968D01*
X1810000Y213306D01*
X7920000Y2260000D02*
X7953322D01*
X7936661D01*
Y2359968D01*
X7920000Y2343306D01*
X7930000Y5150000D02*
X7963322D01*
X7946661D01*
Y5249968D01*
X7930000Y5233306D01*
X7610000Y1519968D02*
X7643323D01*
X7626661D01*
Y1420000D01*
X7610000D01*
X7643323D01*
X7743290Y1519968D02*
X7709968D01*
X7693306Y1503306D01*
Y1436661D01*
X7709968Y1420000D01*
X7743290D01*
X7759951Y1436661D01*
Y1503306D01*
X7743290Y1519968D01*
X7670000Y3769968D02*
X7703322D01*
X7686661D01*
Y3670000D01*
X7670000D01*
X7703322D01*
X7803290Y3769968D02*
X7769968D01*
X7753306Y3753306D01*
Y3686661D01*
X7769968Y3670000D01*
X7803290D01*
X7819951Y3686661D01*
Y3753306D01*
X7803290Y3769968D01*
X4150000Y2479968D02*
Y2380000D01*
Y2429984D01*
X4216645D01*
Y2479968D01*
Y2380000D01*
X4249968D02*
Y2479968D01*
X4299952D01*
X4316613Y2463306D01*
Y2429984D01*
X4299952Y2413323D01*
X4249968D01*
X4283290D02*
X4316613Y2380000D01*
X4349936Y2479968D02*
Y2413323D01*
X4383258Y2380000D01*
X4416581Y2413323D01*
Y2479968D01*
X4776645D02*
X4710000D01*
Y2380000D01*
X4776645D01*
X4710000Y2429984D02*
X4743322D01*
X4809968Y2380000D02*
Y2479968D01*
X4843290Y2446645D01*
X4876613Y2479968D01*
Y2380000D01*
X4909936Y2479968D02*
Y2396661D01*
X4926597Y2380000D01*
X4959919D01*
X4976581Y2396661D01*
Y2479968D01*
X1950000Y4839968D02*
Y4740000D01*
Y4789984D01*
X2016645D01*
Y4839968D01*
Y4740000D01*
X2066629Y4806645D02*
X2099952D01*
X2116613Y4789984D01*
Y4740000D01*
X2066629D01*
X2049968Y4756661D01*
X2066629Y4773322D01*
X2116613D01*
X2149936Y4806645D02*
Y4740000D01*
Y4773322D01*
X2166597Y4789984D01*
X2183258Y4806645D01*
X2199919D01*
X2249903D02*
X2283226Y4740000D01*
X2316548Y4806645D01*
X2399855Y4740000D02*
X2366532D01*
X2349871Y4756661D01*
Y4789984D01*
X2366532Y4806645D01*
X2399855D01*
X2416516Y4789984D01*
Y4773322D01*
X2349871D01*
X2449839Y4740000D02*
X2499823D01*
X2516484Y4756661D01*
X2499823Y4773322D01*
X2466500D01*
X2449839Y4789984D01*
X2466500Y4806645D01*
X2516484D01*
X2566468Y4823306D02*
Y4806645D01*
X2549807D01*
X2583129D01*
X2566468D01*
Y4756661D01*
X2583129Y4740000D01*
X7860000Y159961D02*
Y40000D01*
X7919981D01*
X7939974Y59994D01*
Y79987D01*
X7919981Y99980D01*
X7860000D01*
X7919981D01*
X7939974Y119974D01*
Y139968D01*
X7919981Y159961D01*
X7860000D01*
X7850000Y5300000D02*
Y5379974D01*
X7889987Y5419961D01*
X7929974Y5379974D01*
Y5300000D01*
Y5359981D01*
X7850000D01*
D103*
X2522123Y3992124D02*
G03*
X2562123Y3992124I20000J0D01*
G01*
X2442123D02*
G03*
X2482123Y3992124I20000J0D01*
G01*
X2522123D02*
G03*
X2482123Y3992124I-20000J0D01*
G01*
X3560000Y2730000D02*
G03*
X3560000Y2770000I0J20000D01*
G01*
Y2650000D02*
G03*
X3560000Y2690000I0J20000D01*
G01*
Y2730000D02*
G03*
X3560000Y2690000I0J-20000D01*
G01*
X3890000Y3740000D02*
G03*
X3890000Y3700000I0J-20000D01*
G01*
Y3820000D02*
G03*
X3890000Y3780000I0J-20000D01*
G01*
Y3740000D02*
G03*
X3890000Y3780000I0J20000D01*
G01*
X5360000Y2730000D02*
G03*
X5360000Y2770000I0J20000D01*
G01*
Y2650000D02*
G03*
X5360000Y2690000I0J20000D01*
G01*
Y2730000D02*
G03*
X5360000Y2690000I0J-20000D01*
G01*
X5430000Y3350000D02*
G03*
X5430000Y3390000I0J20000D01*
G01*
Y3270000D02*
G03*
X5430000Y3310000I0J20000D01*
G01*
Y3350000D02*
G03*
X5430000Y3310000I0J-20000D01*
G01*
X5710000Y4260000D02*
G03*
X5710000Y4220000I0J-20000D01*
G01*
Y4340000D02*
G03*
X5710000Y4300000I0J-20000D01*
G01*
Y4260000D02*
G03*
X5710000Y4300000I0J20000D01*
G01*
X5340000Y4260000D02*
G03*
X5340000Y4220000I0J-20000D01*
G01*
Y4340000D02*
G03*
X5340000Y4300000I0J-20000D01*
G01*
Y4260000D02*
G03*
X5340000Y4300000I0J20000D01*
G01*
X5700000Y3690000D02*
G03*
X5700000Y3650000I0J-20000D01*
G01*
Y3770000D02*
G03*
X5700000Y3730000I0J-20000D01*
G01*
Y3690000D02*
G03*
X5700000Y3730000I0J20000D01*
G01*
X4343446Y1646077D02*
G03*
X4295668Y1629405I-18578J-23555D01*
G01*
X4343244Y1691197D02*
G03*
X4344492Y1644873I-18425J-23675D01*
G01*
X4343582Y1737027D02*
G03*
X4343628Y1691690I-19627J-22688D01*
G01*
X4294612Y1753091D02*
G03*
X4342449Y1735718I29342J6247D01*
G01*
X3603446Y1026077D02*
G03*
X3555668Y1009405I-18578J-23555D01*
G01*
X3603243Y1071197D02*
G03*
X3604492Y1024872I-18425J-23675D01*
G01*
X3603582Y1117027D02*
G03*
X3603628Y1071690I-19627J-22688D01*
G01*
X3554612Y1133091D02*
G03*
X3602449Y1115718I29342J6247D01*
G01*
X4348446Y1286077D02*
G03*
X4300668Y1269405I-18578J-23555D01*
G01*
X4348244Y1331197D02*
G03*
X4349492Y1284872I-18425J-23675D01*
G01*
X4348582Y1377027D02*
G03*
X4348628Y1331690I-19627J-22688D01*
G01*
X4299612Y1393091D02*
G03*
X4347449Y1375718I29342J6247D01*
G01*
X2926077Y1136554D02*
G03*
X2909405Y1184332I-23555J18578D01*
G01*
X2971197Y1136756D02*
G03*
X2924872Y1135508I-23675J18425D01*
G01*
X3017027Y1136418D02*
G03*
X2971690Y1136372I-22688J19627D01*
G01*
X3033091Y1185388D02*
G03*
X3015718Y1137551I6247J-29342D01*
G01*
X3013923Y1603446D02*
G03*
X3030595Y1555668I23555J-18578D01*
G01*
X2968803Y1603244D02*
G03*
X3015128Y1604492I23675J-18425D01*
G01*
X2922973Y1603582D02*
G03*
X2968310Y1603628I22688J-19627D01*
G01*
X2906909Y1554613D02*
G03*
X2924282Y1602449I-6247J29342D01*
G01*
X5813923Y2063446D02*
G03*
X5830594Y2015668I23555J-18578D01*
G01*
X5768803Y2063244D02*
G03*
X5815127Y2064492I23675J-18425D01*
G01*
X5722973Y2063582D02*
G03*
X5768310Y2063628I22688J-19627D01*
G01*
X5706908Y2014612D02*
G03*
X5724282Y2062449I-6247J29342D01*
G01*
X4765533Y1743495D02*
G03*
X4811857Y1744743I23675J-18425D01*
G01*
X4810653Y1743697D02*
G03*
X4827324Y1695920I23555J-18578D01*
G01*
X4753770Y1696448D02*
G03*
X4765040Y1743879I-11379J27758D01*
G01*
X5276554Y1563923D02*
G03*
X5324332Y1580595I18578J23555D01*
G01*
X5276757Y1518803D02*
G03*
X5275508Y1565127I18425J23675D01*
G01*
X5276418Y1472973D02*
G03*
X5276372Y1518310I19627J22688D01*
G01*
X5325388Y1456908D02*
G03*
X5277551Y1474282I-29342J-6247D01*
G01*
X2865533Y813495D02*
G03*
X2911857Y814743I23675J-18425D01*
G01*
X2910653Y813697D02*
G03*
X2927324Y765919I23555J-18578D01*
G01*
X2853770Y766448D02*
G03*
X2865040Y813879I-11379J27758D01*
G01*
X2643923Y1183446D02*
G03*
X2660594Y1135668I23555J-18578D01*
G01*
X2598803Y1183244D02*
G03*
X2645127Y1184492I23675J-18425D01*
G01*
X2552973Y1183582D02*
G03*
X2598310Y1183628I22688J-19627D01*
G01*
X2536908Y1134612D02*
G03*
X2554282Y1182449I-6247J29342D01*
G01*
X2564467Y766505D02*
G03*
X2518143Y765257I-23675J18425D01*
G01*
X2519347Y766303D02*
G03*
X2502676Y814080I-23555J18578D01*
G01*
X2576230Y813552D02*
G03*
X2564960Y766121I11379J-27758D01*
G01*
X2335533Y813495D02*
G03*
X2381857Y814743I23675J-18425D01*
G01*
X2380653Y813697D02*
G03*
X2397324Y765919I23555J-18578D01*
G01*
X2323770Y766448D02*
G03*
X2335040Y813879I-11379J27758D01*
G01*
X2277500Y1100000D02*
X2382500D01*
X2277500Y980000D02*
X2382500D01*
X3817000Y2682373D02*
Y2737895D01*
X3793000Y2682511D02*
Y2737619D01*
Y2710000D02*
Y2737619D01*
X3792927Y2737692D02*
X3793000Y2737619D01*
X6807500Y798000D02*
X6912500D01*
X6807500Y642000D02*
X6912500D01*
X6807500Y1617999D02*
X6912500D01*
X6807500Y1461999D02*
X6912500D01*
X6807500Y1898000D02*
X6912500D01*
X6807500Y1742000D02*
X6912500D01*
X6807500Y1108000D02*
X6912500D01*
X6807500Y952000D02*
X6912500D01*
X6807500Y2197999D02*
X6912500D01*
X6807500Y2041999D02*
X6912500D01*
X6807500Y1317999D02*
X6912500D01*
X6807500Y1161999D02*
X6912500D01*
X6807500Y2540499D02*
X6912500D01*
X6807500Y2384499D02*
X6912500D01*
X3342500Y1252500D02*
Y1270000D01*
X3677500Y1570000D02*
Y1587500D01*
Y1252500D02*
Y1270000D01*
X3365000Y1587500D02*
X3404000D01*
X3616000D02*
X3677500D01*
X3342500Y1252500D02*
X3404000D01*
X3616000D02*
X3677500D01*
X3830000Y1985606D02*
Y2205000D01*
X3900515Y2275516D01*
X4090000D01*
X3830000Y1985606D02*
X4090000D01*
Y2275516D01*
X5286949Y1310086D02*
X5340000D01*
X5220000Y1030410D02*
X5340000D01*
Y1310086D01*
X5220000Y1030410D02*
Y1243137D01*
X5286949Y1310086D01*
X5090000Y1845606D02*
Y2065000D01*
X5160516Y2135516D01*
X5350000D01*
X5090000Y1845606D02*
X5350000D01*
Y2135516D01*
X2540086Y2170000D02*
Y2223050D01*
X2260410Y2170000D02*
Y2290000D01*
Y2170000D02*
X2540086D01*
X2260410Y2290000D02*
X2473137D01*
X2540086Y2223050D01*
X3005000Y2175000D02*
X3214999D01*
X3004999Y2385000D02*
X3214999D01*
X6240000Y2429436D02*
X6360000D01*
X6240000Y2150345D02*
Y2429436D01*
X6360000Y2184530D02*
Y2429436D01*
X6325815Y2150345D02*
X6360000Y2184530D01*
X6240000Y2150345D02*
X6325815D01*
X8305266Y2878883D02*
X8395265D01*
X8305266Y2679333D02*
Y2878883D01*
Y2679333D02*
X8375047D01*
X8395265Y2699551D01*
Y2878883D01*
X7669999Y4585000D02*
X7859999D01*
X7669999Y4395000D02*
X7859999D01*
Y4585000D01*
X7669999Y4395000D02*
Y4585000D01*
X6807500Y2855499D02*
X6912500D01*
X6807500Y2699499D02*
X6912500D01*
X6807500Y3117999D02*
X6912500D01*
X6807500Y2961999D02*
X6912500D01*
X3050000Y3669436D02*
X3170000D01*
X3050000Y3390345D02*
Y3669436D01*
X3170000Y3424530D02*
Y3669436D01*
X3135814Y3390345D02*
X3170000Y3424530D01*
X3050000Y3390345D02*
X3135814D01*
X3710000Y2814315D02*
Y3245000D01*
X3770311Y3305311D01*
X4105000D01*
Y2814315D02*
Y3305311D01*
X3710000Y2814315D02*
X4105000D01*
X4044000Y3362500D02*
X4107500D01*
X3772500D02*
X3836000D01*
X4044000Y3697500D02*
X4107500D01*
Y3362500D02*
Y3380000D01*
Y3680000D02*
Y3697500D01*
X3772500Y3362500D02*
Y3380000D01*
X3795000Y3697500D02*
X3836000D01*
X2915000Y2920000D02*
X3134394D01*
X2844484Y2990515D02*
X2915000Y2920000D01*
X2844484Y2990515D02*
Y3180000D01*
X3134394Y2920000D02*
Y3180000D01*
X2844484D02*
X3134394D01*
X3790000Y3844315D02*
Y4275000D01*
X3850311Y4335311D01*
X4185000D01*
Y3844315D02*
Y4335311D01*
X3790000Y3844315D02*
X4185000D01*
X3140000Y3925000D02*
Y4144394D01*
X3069484Y3854484D02*
X3140000Y3925000D01*
X2880000Y3854484D02*
X3069484D01*
X2880000Y4144394D02*
X3140000D01*
X2880000Y3854484D02*
Y4144394D01*
X5540000Y2815000D02*
Y3245685D01*
X5479689Y2754689D02*
X5540000Y2815000D01*
X5145000Y2754689D02*
X5479689D01*
X5145000D02*
Y3245685D01*
X5540000D01*
X6035606Y3660000D02*
X6255000D01*
X6325516Y3589485D01*
Y3400000D02*
Y3589485D01*
X6035606Y3400000D02*
Y3660000D01*
Y3400000D02*
X6325516D01*
X4702500Y3812500D02*
Y3876000D01*
Y4084000D02*
Y4147500D01*
X5037500Y3812500D02*
Y3876000D01*
X4702500Y3812500D02*
X4720000D01*
X5020000D02*
X5037500D01*
X4702500Y4147500D02*
X4720000D01*
X5037500Y4084000D02*
Y4125000D01*
X5610000Y3965000D02*
Y4184394D01*
X5539484Y3894484D02*
X5610000Y3965000D01*
X5350000Y3894484D02*
X5539484D01*
X5350000Y4184394D02*
X5610000D01*
X5350000Y3894484D02*
Y4184394D01*
X2452351Y4051933D02*
X2468892Y4035393D01*
X2484957Y4050430D02*
X2501497Y4033889D01*
X2517375Y4050999D02*
X2533916Y4034458D01*
X2544816Y4050430D02*
X2561356Y4033889D01*
X2443516D02*
X2561543D01*
X3500190Y2660228D02*
X3516731Y2676769D01*
X3501694Y2692834D02*
X3518235Y2709374D01*
X3501125Y2725252D02*
X3517666Y2741793D01*
X3501694Y2752692D02*
X3518235Y2769233D01*
Y2651393D02*
Y2769420D01*
X3933269Y3793231D02*
X3949810Y3809772D01*
X3931766Y3760626D02*
X3948306Y3777166D01*
X3932335Y3728207D02*
X3948875Y3744748D01*
X3931766Y3700767D02*
X3948306Y3717308D01*
X3931766Y3700580D02*
Y3818607D01*
X5300190Y2660228D02*
X5316731Y2676769D01*
X5301694Y2692834D02*
X5318234Y2709374D01*
X5301125Y2725252D02*
X5317666Y2741793D01*
X5301694Y2752692D02*
X5318234Y2769233D01*
Y2651393D02*
Y2769420D01*
X5370190Y3280228D02*
X5386731Y3296769D01*
X5371694Y3312834D02*
X5388235Y3329374D01*
X5371125Y3345252D02*
X5387666Y3361793D01*
X5371694Y3372692D02*
X5388235Y3389233D01*
Y3271393D02*
Y3389420D01*
X5753269Y4313231D02*
X5769810Y4329772D01*
X5751765Y4280626D02*
X5768306Y4297166D01*
X5752334Y4248207D02*
X5768875Y4264748D01*
X5751765Y4220767D02*
X5768306Y4237308D01*
X5751765Y4220580D02*
Y4338607D01*
X5383269Y4313231D02*
X5399810Y4329772D01*
X5381765Y4280626D02*
X5398306Y4297166D01*
X5382334Y4248207D02*
X5398875Y4264748D01*
X5381765Y4220767D02*
X5398306Y4237308D01*
X5381765Y4220580D02*
Y4338607D01*
X5743269Y3743231D02*
X5759810Y3759772D01*
X5741766Y3710626D02*
X5758306Y3727166D01*
X5742334Y3678207D02*
X5758875Y3694748D01*
X5741766Y3650767D02*
X5758306Y3667308D01*
X5741766Y3650580D02*
Y3768607D01*
X6440000Y4710000D02*
Y4750000D01*
X6500000Y4710000D02*
Y4750000D01*
X6380000Y4710000D02*
Y4750000D01*
X6320000Y4710000D02*
Y4750000D01*
X6220000Y4710000D02*
Y4750000D01*
X6280000Y4710000D02*
Y4750000D01*
X6180000Y4710000D02*
Y4750000D01*
X6120000Y4710000D02*
Y4750000D01*
X7030000Y1579999D02*
X7070000D01*
X7030000Y1639999D02*
X7070000D01*
X7030000Y970000D02*
X7070000D01*
X7030000Y1030000D02*
X7070000D01*
X7030000Y1280000D02*
X7070000D01*
X7030000Y1340000D02*
X7070000D01*
X7030000Y2079999D02*
X7070000D01*
X7030000Y2139999D02*
X7070000D01*
X7030000Y1740000D02*
X7070000D01*
X7030000Y1800000D02*
X7070000D01*
X7030000Y2540000D02*
X7070000D01*
X7030000Y2600000D02*
X7070000D01*
X7030000Y2689999D02*
X7070000D01*
X7030000Y2749999D02*
X7070000D01*
X7030000Y2790000D02*
X7070000D01*
X7030000Y2849999D02*
X7070000D01*
X7030000Y2959999D02*
X7070000D01*
X7030000Y3019999D02*
X7070000D01*
X7030000Y3059999D02*
X7070000D01*
X7030000Y3119999D02*
X7070000D01*
X8080000Y2590000D02*
X8120000D01*
X8080000Y2650000D02*
X8120000D01*
X8080000Y2690000D02*
X8120000D01*
X8080000Y2750000D02*
X8120000D01*
X3790000Y1610000D02*
X3830000D01*
X3790000Y1550000D02*
X3830000D01*
X3790000Y1450000D02*
X3830000D01*
X3790000Y1510000D02*
X3830000D01*
X4000000D02*
Y1550000D01*
X3940000Y1510000D02*
Y1550000D01*
X3920000Y1260000D02*
Y1300000D01*
X3980000Y1260000D02*
Y1300000D01*
X5850000Y1100000D02*
Y1140000D01*
X5790000Y1100000D02*
Y1140000D01*
X3140000Y2000000D02*
X3180000D01*
X3140000Y2060000D02*
X3180000D01*
X5060000Y1060000D02*
Y1100000D01*
X5000000Y1060000D02*
Y1100000D01*
X5060000Y1260000D02*
Y1300000D01*
X5000000Y1260000D02*
Y1300000D01*
X3590000Y4700000D02*
Y4740000D01*
X3530000Y4700000D02*
Y4740000D01*
X2100000Y1910000D02*
Y1950000D01*
X2160000Y1910000D02*
Y1950000D01*
X2220000Y2110000D02*
Y2150000D01*
X2160000Y2110000D02*
Y2150000D01*
X1850000Y1580000D02*
X1890000D01*
X1850000Y1520000D02*
X1890000D01*
X2160000Y2310000D02*
Y2350000D01*
X2220000Y2310000D02*
Y2350000D01*
X2600000Y1845000D02*
Y1885000D01*
X2540000Y1845000D02*
Y1885000D01*
X1850000Y1420000D02*
X1890000D01*
X1850000Y1480000D02*
X1890000D01*
X2790000Y2370000D02*
X2830000D01*
X2790000Y2430000D02*
X2830000D01*
X2790000Y2270000D02*
X2830000D01*
X2790000Y2330000D02*
X2830000D01*
X5220000Y4710000D02*
Y4750000D01*
X5160000Y4710000D02*
Y4750000D01*
X3360000Y4700000D02*
Y4740000D01*
X3300000Y4700000D02*
Y4740000D01*
X5330000Y4710000D02*
Y4750000D01*
X5270000Y4710000D02*
Y4750000D01*
X3460000Y4700000D02*
Y4740000D01*
X3400000Y4700000D02*
Y4740000D01*
X2790000Y2230000D02*
X2830000D01*
X2790000Y2170000D02*
X2830000D01*
X3400000Y2250000D02*
X3440000D01*
X3400000Y2310000D02*
X3440000D01*
X4350000Y711000D02*
Y751000D01*
X4290000Y711000D02*
Y751000D01*
X4460000Y711000D02*
Y751000D01*
X4400000Y711000D02*
Y751000D01*
X5940000Y4710000D02*
Y4750000D01*
X6000000Y4710000D02*
Y4750000D01*
X5840000Y4710000D02*
Y4750000D01*
X5900000Y4710000D02*
Y4750000D01*
X6310000Y710000D02*
Y750000D01*
X6250000Y710000D02*
Y750000D01*
X6310000Y1900000D02*
Y1940000D01*
X6370000Y1900000D02*
Y1940000D01*
X7030000Y1479999D02*
X7070000D01*
X7030000Y1539999D02*
X7070000D01*
X6150000Y710000D02*
Y750000D01*
X6090000Y710000D02*
Y750000D01*
X7030000Y1979999D02*
X7070000D01*
X7030000Y2039999D02*
X7070000D01*
X7030000Y1080000D02*
X7070000D01*
X7030000Y1140000D02*
X7070000D01*
X6780000Y4710000D02*
Y4750000D01*
X6720000Y4710000D02*
Y4750000D01*
X6880000Y4710000D02*
Y4750000D01*
X6820000Y4710000D02*
Y4750000D01*
X5800000Y710000D02*
Y750000D01*
X5740000Y710000D02*
Y750000D01*
X5690000Y710000D02*
Y750000D01*
X5630000Y710000D02*
Y750000D01*
X5520000Y710000D02*
Y750000D01*
X5580000Y710000D02*
Y750000D01*
X5470000Y710000D02*
Y750000D01*
X5410000Y710000D02*
Y750000D01*
X5510000Y4710000D02*
Y4750000D01*
X5570000Y4710000D02*
Y4750000D01*
X5360000Y710000D02*
Y750000D01*
X5300000Y710000D02*
Y750000D01*
X5250000Y710000D02*
Y750000D01*
X5190000Y710000D02*
Y750000D01*
X5460000Y4710000D02*
Y4750000D01*
X5400000Y4710000D02*
Y4750000D01*
X5030000Y710000D02*
Y750000D01*
X4970000Y710000D02*
Y750000D01*
X5620000Y4710000D02*
Y4750000D01*
X5680000Y4710000D02*
Y4750000D01*
X4920000Y710000D02*
Y750000D01*
X4860000Y710000D02*
Y750000D01*
X4100000Y711000D02*
Y751000D01*
X4040000Y711000D02*
Y751000D01*
X3900000Y711000D02*
Y751000D01*
X3960000Y711000D02*
Y751000D01*
X4210000Y4700000D02*
Y4740000D01*
X4270000Y4700000D02*
Y4740000D01*
X4170000Y4700000D02*
Y4740000D01*
X4110000Y4700000D02*
Y4740000D01*
X3980000Y4700000D02*
Y4740000D01*
X4040000Y4700000D02*
Y4740000D01*
X3940000Y4700000D02*
Y4740000D01*
X3880000Y4700000D02*
Y4740000D01*
X3750000Y4700000D02*
Y4740000D01*
X3810000Y4700000D02*
Y4740000D01*
X6410000Y1900000D02*
Y1940000D01*
X6470000Y1900000D02*
Y1940000D01*
X7640000Y4060000D02*
Y4100000D01*
X7700000Y4060000D02*
Y4100000D01*
X7740000Y4170000D02*
Y4210000D01*
X7800000Y4170000D02*
Y4210000D01*
X7030000Y2330000D02*
X7070000D01*
X7030000Y2390000D02*
X7070000D01*
X7250000Y740000D02*
X7290000D01*
X7250000Y800000D02*
X7290000D01*
X7030000Y749999D02*
X7070000D01*
X7030000Y809999D02*
X7070000D01*
X6620000Y769999D02*
X6660000D01*
X6620000Y709999D02*
X6660000D01*
X7030000Y1180000D02*
X7070000D01*
X7030000Y1240000D02*
X7070000D01*
X6620000Y1220000D02*
X6660000D01*
X6620000Y1160000D02*
X6660000D01*
X7250000Y950000D02*
X7290000D01*
X7250000Y1010000D02*
X7290000D01*
X6620000Y1070000D02*
X6660000D01*
X6620000Y1010000D02*
X6660000D01*
X6620000Y1320000D02*
X6660000D01*
X6620000Y1260000D02*
X6660000D01*
X6619996Y1609214D02*
X6659996D01*
X6619996Y1549214D02*
X6659996D01*
X7250000Y1739999D02*
X7290000D01*
X7250000Y1799999D02*
X7290000D01*
X6620000Y1769999D02*
X6660000D01*
X6620000Y1709999D02*
X6660000D01*
X7250000Y2079999D02*
X7290000D01*
X7250000Y2139999D02*
X7290000D01*
X7250000Y2179999D02*
X7290000D01*
X7250000Y2239999D02*
X7290000D01*
X7030000Y2179999D02*
X7070000D01*
X7030000Y2239999D02*
X7070000D01*
X7250000Y2439999D02*
X7290000D01*
X7250000Y2499999D02*
X7290000D01*
X7030000Y2430000D02*
X7070000D01*
X7030000Y2490000D02*
X7070000D01*
X7250000Y2539999D02*
X7290000D01*
X7250000Y2599999D02*
X7290000D01*
X7250000Y2689999D02*
X7290000D01*
X7250000Y2749999D02*
X7290000D01*
X6620000Y2769999D02*
X6660000D01*
X6620000Y2709999D02*
X6660000D01*
X7250000Y2789999D02*
X7290000D01*
X7250000Y2849999D02*
X7290000D01*
X6620000Y2869999D02*
X6660000D01*
X6620000Y2809999D02*
X6660000D01*
X7250000Y2959999D02*
X7290000D01*
X7250000Y3019999D02*
X7290000D01*
X6620000D02*
X6660000D01*
X6620000Y2959999D02*
X6660000D01*
X7250000Y3059999D02*
X7290000D01*
X7250000Y3119999D02*
X7290000D01*
X6620000D02*
X6660000D01*
X6620000Y3059999D02*
X6660000D01*
X2980000Y2730000D02*
X3020000D01*
X2980000Y2670000D02*
X3020000D01*
X3590000Y3460000D02*
X3630000D01*
X3590000Y3400000D02*
X3630000D01*
X3540000Y3560000D02*
X3580000D01*
X3540000Y3500000D02*
X3580000D01*
X4350000Y2930000D02*
X4390000D01*
X4350000Y2990000D02*
X4390000D01*
X3590000Y3690000D02*
X3630000D01*
X3590000Y3630000D02*
X3630000D01*
X4250000Y3360000D02*
X4290000D01*
X4250000Y3420000D02*
X4290000D01*
X3990000Y2740000D02*
X4030000D01*
X3990000Y2680000D02*
X4030000D01*
X2810000Y3660000D02*
X2850000D01*
X2810000Y3600000D02*
X2850000D01*
X3010000Y4340000D02*
X3050000D01*
X3010000Y4280000D02*
X3050000D01*
X3150000Y4240000D02*
Y4280000D01*
X3210000Y4240000D02*
Y4280000D01*
X4370000Y3920000D02*
Y3960000D01*
X4430000Y3920000D02*
Y3960000D01*
X3210000Y3770000D02*
X3250000D01*
X3210000Y3830000D02*
X3250000D01*
X2910000Y4240000D02*
Y4280000D01*
X2850000Y4240000D02*
Y4280000D01*
X3440000Y3840000D02*
Y3880000D01*
X3500000Y3840000D02*
Y3880000D01*
X4340000Y2730000D02*
X4380000D01*
X4340000Y2670000D02*
X4380000D01*
X5920000Y3610000D02*
Y3650000D01*
X5980000Y3610000D02*
Y3650000D01*
X4850000Y3070000D02*
X4890000D01*
X4850000Y3130000D02*
X4890000D01*
X5880000Y3470000D02*
X5920000D01*
X5880000Y3410000D02*
X5920000D01*
X6030000Y4270000D02*
X6070000D01*
X6030000Y4210000D02*
X6070000D01*
X4740000Y4320000D02*
X4780000D01*
X4740000Y4260000D02*
X4780000D01*
X4750000Y3160000D02*
Y3200000D01*
X4690000Y3160000D02*
Y3200000D01*
X4950000Y4260000D02*
X4990000D01*
X4950000Y4320000D02*
X4990000D01*
X4700000Y3620000D02*
Y3660000D01*
X4760000Y3620000D02*
Y3660000D01*
X5100000Y4200000D02*
Y4240000D01*
X5160000Y4200000D02*
Y4240000D01*
X5360000Y3750000D02*
Y3790000D01*
X5420000Y3750000D02*
Y3790000D01*
X5530000Y3850000D02*
X5570000D01*
X5530000Y3790000D02*
X5570000D01*
X1080000Y975000D02*
Y1875000D01*
X1580000Y1700000D02*
Y1875000D01*
X1080000Y975000D02*
X1160000D01*
X1120000D02*
Y1874821D01*
X1080000Y1875000D02*
X1159648D01*
X1380000D02*
X1580000D01*
Y975000D02*
Y1155000D01*
X1380000Y975000D02*
X1580000D01*
X4250000Y1540000D02*
X4390000D01*
X4250000Y1840000D02*
X4390000D01*
X3510000Y920000D02*
X3650000D01*
X3510000Y1220000D02*
X3650000D01*
X4255000Y1180000D02*
X4395000D01*
X4255000Y1480000D02*
X4395000D01*
X2820000Y1090000D02*
Y1230000D01*
X3120000Y1090000D02*
Y1230000D01*
X3120000Y1510000D02*
Y1650000D01*
X2820000Y1510000D02*
Y1650000D01*
X5920000Y1970000D02*
Y2110000D01*
X5620000Y1970000D02*
Y2110000D01*
X5230000Y1670000D02*
X5370000D01*
X5230000Y1370000D02*
X5370000D01*
X2750000Y1090000D02*
Y1230000D01*
X2450000Y1090000D02*
Y1230000D01*
X1115000Y175000D02*
Y865000D01*
X1090000D02*
X1770000D01*
X1090000Y175000D02*
Y865000D01*
Y175000D02*
X1770000D01*
Y865000D01*
X7780000Y1115000D02*
Y1185000D01*
Y3325000D02*
Y3395000D01*
X2900000Y2005000D02*
Y2075000D01*
X4950000Y4665000D02*
Y4735000D01*
X3090000Y4665000D02*
Y4735000D01*
X4600000Y4665000D02*
Y4735000D01*
X2740000Y4665000D02*
Y4735000D01*
X7780000Y1565000D02*
Y1635000D01*
Y3825000D02*
Y3895000D01*
X2400000Y3540106D02*
Y3610000D01*
X2345000Y3500106D02*
X2460000D01*
X2400122Y3500228D02*
X2459894Y3560000D01*
X2340106D02*
X2459894D01*
X2400000Y3500106D02*
Y3540106D01*
X2340106Y3560000D02*
X2400000Y3500106D01*
Y3450000D02*
Y3500106D01*
X6652000Y812373D02*
Y867895D01*
X6628000Y812511D02*
Y867619D01*
Y840000D02*
Y867619D01*
X6627927Y867692D02*
X6628000Y867619D01*
X7282000Y642373D02*
Y697895D01*
X7258000Y642511D02*
Y697619D01*
Y670000D02*
Y697619D01*
X7257927Y697692D02*
X7258000Y697619D01*
X7282000Y1842373D02*
Y1897895D01*
X7258000Y1842511D02*
Y1897619D01*
Y1870000D02*
Y1897619D01*
X7257927Y1897692D02*
X7258000Y1897619D01*
X6922105Y4742000D02*
X6977627D01*
X6922381Y4718000D02*
X6977489D01*
X6922381D02*
X6950000D01*
X6922308Y4717927D02*
X6922381Y4718000D01*
X6862000Y2242373D02*
Y2297895D01*
X6838000Y2242511D02*
Y2297619D01*
Y2270000D02*
Y2297619D01*
X6837927Y2297692D02*
X6838000Y2297619D01*
X7038000Y1842105D02*
Y1897627D01*
X7062000Y1842381D02*
Y1897489D01*
Y1842381D02*
Y1870000D01*
Y1842381D02*
X7062073Y1842308D01*
X3998000Y2322105D02*
Y2377627D01*
X4022000Y2322381D02*
Y2377489D01*
Y2322381D02*
Y2350000D01*
Y2322381D02*
X4022073Y2322308D01*
X2642373Y1853000D02*
X2697895D01*
X2642511Y1877000D02*
X2697619D01*
X2670000D02*
X2697619D01*
X2697692Y1877073D01*
X6867000Y832372D02*
Y887894D01*
X6843000Y832510D02*
Y887618D01*
Y859999D02*
Y887618D01*
X6842927Y887691D02*
X6843000Y887618D01*
X6852000Y1362373D02*
Y1417895D01*
X6828000Y1362511D02*
Y1417619D01*
Y1390000D02*
Y1417619D01*
X6827927Y1417692D02*
X6828000Y1417619D01*
X7368000Y4752105D02*
Y4807627D01*
X7392000Y4752381D02*
Y4807489D01*
Y4752381D02*
Y4780000D01*
Y4752381D02*
X7392073Y4752308D01*
X7042105Y3672000D02*
X7097627D01*
X7042381Y3648000D02*
X7097489D01*
X7042381D02*
X7070000D01*
X7042308Y3647927D02*
X7042381Y3648000D01*
X6622105Y3602000D02*
X6677627D01*
X6622381Y3578000D02*
X6677489D01*
X6622381D02*
X6650000D01*
X6622308Y3577927D02*
X6622381Y3578000D01*
X7282000Y3162373D02*
Y3217895D01*
X7258000Y3162511D02*
Y3217619D01*
Y3190000D02*
Y3217619D01*
X7257927Y3217692D02*
X7258000Y3217619D01*
X7282000Y852373D02*
Y907895D01*
X7258000Y852511D02*
Y907619D01*
Y880000D02*
Y907619D01*
X7257927Y907692D02*
X7258000Y907619D01*
X7282000Y1962373D02*
Y2017895D01*
X7258000Y1962511D02*
Y2017619D01*
Y1990000D02*
Y2017619D01*
X7257927Y2017692D02*
X7258000Y2017619D01*
X7282000Y2342373D02*
Y2397895D01*
X7258000Y2342511D02*
Y2397619D01*
Y2370000D02*
Y2397619D01*
X7257927Y2397692D02*
X7258000Y2397619D01*
X7062000Y1382373D02*
Y1437895D01*
X7038000Y1382511D02*
Y1437619D01*
Y1410000D02*
Y1437619D01*
X7037927Y1437692D02*
X7038000Y1437619D01*
X7902373Y3128000D02*
X7957895D01*
X7902511Y3152000D02*
X7957619D01*
X7930000D02*
X7957619D01*
X7957692Y3152073D01*
X8332000Y2552373D02*
Y2607895D01*
X8308000Y2552511D02*
Y2607619D01*
Y2580000D02*
Y2607619D01*
X8307927Y2607692D02*
X8308000Y2607619D01*
X7862373Y358000D02*
X7917895D01*
X7862511Y382000D02*
X7917619D01*
X7890000D02*
X7917619D01*
X7917692Y382073D01*
X7882373Y5008000D02*
X7937895D01*
X7882511Y5032000D02*
X7937619D01*
X7910000D02*
X7937619D01*
X7937692Y5032073D01*
X3315000Y1755000D02*
Y1825000D01*
X3285000Y1755000D02*
Y1825000D01*
X3270000Y1790000D02*
X3285000D01*
X3315000D02*
X3330000D01*
X4640000Y1255000D02*
X4640073Y1215000D01*
Y1285000D02*
Y1325000D01*
X4590000Y1285000D02*
X4690000D01*
X4590000Y1255000D02*
X4690000D01*
X4405000Y1065000D02*
Y1135000D01*
X4375000Y1065000D02*
Y1135000D01*
X4360000Y1100000D02*
X4375000D01*
X4405000D02*
X4420000D01*
X3975000Y1069927D02*
X4015000Y1070000D01*
X4045000Y1069927D02*
X4085000D01*
X4045000Y1020000D02*
Y1120000D01*
X4015000Y1020000D02*
Y1120000D01*
X3898000Y892105D02*
Y947627D01*
X3922000Y892381D02*
Y947489D01*
Y892381D02*
Y920000D01*
Y892381D02*
X3922073Y892308D01*
X4490000Y2095000D02*
X4490073Y2055000D01*
Y2125000D02*
Y2165000D01*
X4440000Y2125000D02*
X4540000D01*
X4440000Y2095000D02*
X4540000D01*
X4565000Y1675000D02*
X4635000D01*
X4565000Y1645000D02*
X4635000D01*
X4600000Y1630000D02*
Y1645000D01*
Y1675000D02*
Y1690000D01*
X3825000Y1739927D02*
X3865000Y1740000D01*
X3895000Y1739927D02*
X3935000D01*
X3895000Y1690000D02*
Y1790000D01*
X3865000Y1690000D02*
Y1790000D01*
X3572000Y1632373D02*
Y1687895D01*
X3548000Y1632511D02*
Y1687619D01*
Y1660000D02*
Y1687619D01*
X3547927Y1687692D02*
X3548000Y1687619D01*
X3562000Y1762373D02*
Y1817895D01*
X3538000Y1762511D02*
Y1817619D01*
Y1790000D02*
Y1817619D01*
X3537927Y1817692D02*
X3538000Y1817619D01*
X3185000Y1565000D02*
X3255000D01*
X3185000Y1595000D02*
X3255000D01*
X3220000D02*
Y1610000D01*
Y1550000D02*
Y1565000D01*
X3812373Y1258000D02*
X3867895D01*
X3812511Y1282000D02*
X3867619D01*
X3840000D02*
X3867619D01*
X3867692Y1282073D01*
X3192105Y1362000D02*
X3247627D01*
X3192381Y1338000D02*
X3247489D01*
X3192381D02*
X3220000D01*
X3192308Y1337927D02*
X3192381Y1338000D01*
X4032373Y1268000D02*
X4087895D01*
X4032511Y1292000D02*
X4087619D01*
X4060000D02*
X4087619D01*
X4087692Y1292073D01*
X2655000Y1635000D02*
Y1705000D01*
X2625000Y1635000D02*
Y1705000D01*
X2610000Y1670000D02*
X2625000D01*
X2655000D02*
X2670000D01*
X5750000Y1485000D02*
X5750073Y1445000D01*
Y1515000D02*
Y1555000D01*
X5700000Y1515000D02*
X5800000D01*
X5700000Y1485000D02*
X5800000D01*
X2575000Y1490000D02*
X2615000Y1490073D01*
X2505000D02*
X2545000D01*
Y1440000D02*
Y1540000D01*
X2575000Y1440000D02*
Y1540000D01*
X7038000Y3162104D02*
Y3217627D01*
X7062000Y3162381D02*
Y3217488D01*
Y3162381D02*
Y3189999D01*
Y3162381D02*
X7062074Y3162307D01*
X3258000Y1062105D02*
Y1117627D01*
X3282000Y1062381D02*
Y1117489D01*
Y1062381D02*
Y1090000D01*
Y1062381D02*
X3282073Y1062308D01*
X3282000Y1162373D02*
Y1217895D01*
X3258000Y1162511D02*
Y1217619D01*
Y1190000D02*
Y1217619D01*
X3257927Y1217692D02*
X3258000Y1217619D01*
X4285000Y2145000D02*
X4355000D01*
X4285000Y2175000D02*
X4355000D01*
X4320000D02*
Y2190000D01*
Y2130000D02*
Y2145000D01*
X3792000Y2352373D02*
Y2407895D01*
X3768000Y2352511D02*
Y2407619D01*
Y2380000D02*
Y2407619D01*
X3767927Y2407692D02*
X3768000Y2407619D01*
X4345000Y4705000D02*
X4415000D01*
X4345000Y4675000D02*
X4415000D01*
X4380000Y4660000D02*
Y4675000D01*
Y4705000D02*
Y4720000D01*
X3565000Y2075000D02*
X3635000D01*
X3565000Y2105000D02*
X3635000D01*
X3600000D02*
Y2120000D01*
Y2060000D02*
Y2075000D01*
X5028000Y2202105D02*
Y2257627D01*
X5052000Y2202381D02*
Y2257489D01*
Y2202381D02*
Y2230000D01*
Y2202381D02*
X5052073Y2202308D01*
X5545000Y1485000D02*
X5615000D01*
X5545000Y1515000D02*
X5615000D01*
X5580000D02*
Y1530000D01*
Y1470000D02*
Y1485000D01*
X5512105Y1132000D02*
X5567627D01*
X5512381Y1108000D02*
X5567489D01*
X5512381D02*
X5540000D01*
X5512308Y1107927D02*
X5512381Y1108000D01*
X4995000Y1715000D02*
Y1785000D01*
X5025000Y1715000D02*
Y1785000D01*
Y1750000D02*
X5040000D01*
X4980000D02*
X4995000D01*
X5595000Y2360000D02*
X5635000Y2360073D01*
X5525000D02*
X5565000D01*
Y2310000D02*
Y2410000D01*
X5595000Y2310000D02*
Y2410000D01*
X5385000Y3529927D02*
X5425000Y3530000D01*
X5455000Y3529927D02*
X5495000D01*
X5455000Y3480000D02*
Y3580000D01*
X5425000Y3480000D02*
Y3580000D01*
X5465000Y1715000D02*
Y1785000D01*
X5435000Y1715000D02*
Y1785000D01*
X5420000Y1750000D02*
X5435000D01*
X5465000D02*
X5480000D01*
X5522373Y1978000D02*
X5577895D01*
X5522511Y2002000D02*
X5577619D01*
X5550000D02*
X5577619D01*
X5577692Y2002073D01*
X4852373Y1968000D02*
X4907895D01*
X4852511Y1992000D02*
X4907619D01*
X4880000D02*
X4907619D01*
X4907692Y1992073D01*
X3632105Y4732000D02*
X3687627D01*
X3632381Y4708000D02*
X3687489D01*
X3632381D02*
X3660000D01*
X3632308Y4707927D02*
X3632381Y4708000D01*
X4730000Y2095000D02*
X4730073Y2055000D01*
Y2125000D02*
Y2165000D01*
X4680000Y2125000D02*
X4780000D01*
X4680000Y2095000D02*
X4780000D01*
X4869927Y1245000D02*
X4870000Y1205000D01*
X4869927Y1135000D02*
Y1175000D01*
X4820000D02*
X4920000D01*
X4820000Y1205000D02*
X4920000D01*
X4892373Y1498000D02*
X4947895D01*
X4892511Y1522000D02*
X4947619D01*
X4920000D02*
X4947619D01*
X4947692Y1522073D01*
X1882000Y1322373D02*
Y1377895D01*
X1858000Y1322511D02*
Y1377619D01*
Y1350000D02*
Y1377619D01*
X1857927Y1377692D02*
X1858000Y1377619D01*
X2602373Y2318000D02*
X2657895D01*
X2602511Y2342000D02*
X2657619D01*
X2630000D02*
X2657619D01*
X2657692Y2342073D01*
X3408000Y2382105D02*
Y2437627D01*
X3432000Y2382381D02*
Y2437489D01*
Y2382381D02*
Y2410000D01*
Y2382381D02*
X3432073Y2382308D01*
X2175000Y805000D02*
X2245000D01*
X2175000Y775000D02*
X2245000D01*
X2210000Y760000D02*
Y775000D01*
Y805000D02*
Y820000D01*
X2675000Y805000D02*
X2745000D01*
X2675000Y775000D02*
X2745000D01*
X2710000Y760000D02*
Y775000D01*
Y805000D02*
Y820000D01*
X6202000Y1942373D02*
Y1997895D01*
X6178000Y1942511D02*
Y1997619D01*
Y1970000D02*
Y1997619D01*
X6177927Y1997692D02*
X6178000Y1997619D01*
X6202000Y2042373D02*
Y2097895D01*
X6178000Y2042511D02*
Y2097619D01*
Y2070000D02*
Y2097619D01*
X6177927Y2097692D02*
X6178000Y2097619D01*
X6378000Y2042105D02*
Y2097627D01*
X6402000Y2042381D02*
Y2097489D01*
Y2042381D02*
Y2070000D01*
Y2042381D02*
X6402073Y2042308D01*
X8112000Y2812373D02*
Y2867895D01*
X8088000Y2812511D02*
Y2867619D01*
Y2840000D02*
Y2867619D01*
X8087927Y2867692D02*
X8088000Y2867619D01*
X7842105Y4202000D02*
X7897627D01*
X7842381Y4178000D02*
X7897489D01*
X7842381D02*
X7870000D01*
X7842308Y4177927D02*
X7842381Y4178000D01*
X6622105Y3862000D02*
X6677627D01*
X6622381Y3838000D02*
X6677489D01*
X6622381D02*
X6650000D01*
X6622308Y3837927D02*
X6622381Y3838000D01*
X6652000Y3162372D02*
Y3217895D01*
X6628000Y3162511D02*
Y3217618D01*
Y3189999D02*
Y3217618D01*
X6627927Y3217692D02*
X6628000Y3217618D01*
X6652000Y2612372D02*
Y2667895D01*
X6628000Y2612511D02*
Y2667618D01*
Y2640000D02*
Y2667618D01*
X6627927Y2667692D02*
X6628000Y2667618D01*
X6652000Y1812372D02*
Y1867895D01*
X6628000Y1812510D02*
Y1867618D01*
Y1839999D02*
Y1867618D01*
X6627927Y1867691D02*
X6628000Y1867618D01*
X6652000Y1402373D02*
Y1457895D01*
X6628000Y1402511D02*
Y1457619D01*
Y1430000D02*
Y1457619D01*
X6627927Y1457692D02*
X6628000Y1457619D01*
X6852000Y1652373D02*
Y1707895D01*
X6828000Y1652511D02*
Y1707619D01*
Y1680000D02*
Y1707619D01*
X6827927Y1707692D02*
X6828000Y1707619D01*
X6862000Y2572373D02*
Y2627895D01*
X6838000Y2572511D02*
Y2627619D01*
Y2600000D02*
Y2627619D01*
X6837927Y2627692D02*
X6838000Y2627619D01*
X6202000Y1842373D02*
Y1897895D01*
X6178000Y1842511D02*
Y1897619D01*
Y1870000D02*
Y1897619D01*
X6177927Y1897692D02*
X6178000Y1897619D01*
X5722373Y3478000D02*
X5777895D01*
X5722511Y3502000D02*
X5777619D01*
X5750000D02*
X5777619D01*
X5777692Y3502073D01*
X3018000Y3762105D02*
Y3817627D01*
X3042000Y3762381D02*
Y3817489D01*
Y3762381D02*
Y3790000D01*
Y3762381D02*
X3042073Y3762308D01*
X2842000Y3762373D02*
Y3817895D01*
X2818000Y3762511D02*
Y3817619D01*
Y3790000D02*
Y3817619D01*
X2817927Y3817692D02*
X2818000Y3817619D01*
X3462000Y3302373D02*
Y3357895D01*
X3438000Y3302511D02*
Y3357619D01*
Y3330000D02*
Y3357619D01*
X3437927Y3357692D02*
X3438000Y3357619D01*
X3462000Y3202373D02*
Y3257895D01*
X3438000Y3202511D02*
Y3257619D01*
Y3230000D02*
Y3257619D01*
X3437927Y3257692D02*
X3438000Y3257619D01*
X4358000Y3162105D02*
Y3217627D01*
X4382000Y3162381D02*
Y3217489D01*
Y3162381D02*
Y3190000D01*
Y3162381D02*
X4382073Y3162308D01*
X4358000Y3262105D02*
Y3317627D01*
X4382000Y3262381D02*
Y3317489D01*
Y3262381D02*
Y3290000D01*
Y3262381D02*
X4382073Y3262308D01*
X3342000Y4262373D02*
Y4317895D01*
X3318000Y4262511D02*
Y4317619D01*
Y4290000D02*
Y4317619D01*
X3317927Y4317692D02*
X3318000Y4317619D01*
X3542000Y4262373D02*
Y4317895D01*
X3518000Y4262511D02*
Y4317619D01*
Y4290000D02*
Y4317619D01*
X3517927Y4317692D02*
X3518000Y4317619D01*
X3378000Y2002105D02*
Y2057627D01*
X3402000Y2002381D02*
Y2057489D01*
Y2002381D02*
Y2030000D01*
Y2002381D02*
X3402073Y2002308D01*
X4372105Y4272000D02*
X4427627D01*
X4372381Y4248000D02*
X4427489D01*
X4372381D02*
X4400000D01*
X4372308Y4247927D02*
X4372381Y4248000D01*
X3165000Y2785000D02*
X3235000D01*
X3165000Y2755000D02*
X3235000D01*
X3200000Y2740000D02*
Y2755000D01*
Y2785000D02*
Y2800000D01*
X3172105Y3052000D02*
X3227627D01*
X3172381Y3028000D02*
X3227489D01*
X3172381D02*
X3200000D01*
X3172308Y3027927D02*
X3172381Y3028000D01*
X3172373Y3228000D02*
X3227895D01*
X3172511Y3252000D02*
X3227619D01*
X3200000D02*
X3227619D01*
X3227692Y3252073D01*
X6265000Y2815000D02*
X6335000D01*
X6265000Y2785000D02*
X6335000D01*
X6300000Y2770000D02*
Y2785000D01*
Y2815000D02*
Y2830000D01*
X2752105Y3062000D02*
X2807627D01*
X2752381Y3038000D02*
X2807489D01*
X2752381D02*
X2780000D01*
X2752308Y3037927D02*
X2752381Y3038000D01*
X2752373Y3238000D02*
X2807895D01*
X2752511Y3262000D02*
X2807619D01*
X2780000D02*
X2807619D01*
X2807692Y3262073D01*
X3322105Y3492000D02*
X3377627D01*
X3322381Y3468000D02*
X3377489D01*
X3322381D02*
X3350000D01*
X3322308Y3467927D02*
X3322381Y3468000D01*
X2842000Y3402373D02*
Y3457895D01*
X2818000Y3402511D02*
Y3457619D01*
Y3430000D02*
Y3457619D01*
X2817927Y3457692D02*
X2818000Y3457619D01*
X4278000Y3542105D02*
Y3597627D01*
X4302000Y3542381D02*
Y3597489D01*
Y3542381D02*
Y3570000D01*
Y3542381D02*
X4302073Y3542308D01*
X4402373Y3498000D02*
X4457895D01*
X4402511Y3522000D02*
X4457619D01*
X4430000D02*
X4457619D01*
X4457692Y3522073D01*
X3425000Y3055000D02*
Y3125000D01*
X3395000Y3055000D02*
Y3125000D01*
X3380000Y3090000D02*
X3395000D01*
X3425000D02*
X3440000D01*
X3425000Y2805000D02*
Y2875000D01*
X3395000Y2805000D02*
Y2875000D01*
X3380000Y2840000D02*
X3395000D01*
X3425000D02*
X3440000D01*
X3462000Y2932373D02*
Y2987895D01*
X3438000Y2932511D02*
Y2987619D01*
Y2960000D02*
Y2987619D01*
X3437927Y2987692D02*
X3438000Y2987619D01*
X4278000Y3742105D02*
Y3797627D01*
X4302000Y3742381D02*
Y3797489D01*
Y3742381D02*
Y3770000D01*
Y3742381D02*
X4302073Y3742308D01*
X4278000Y3642105D02*
Y3697627D01*
X4302000Y3642381D02*
Y3697489D01*
Y3642381D02*
Y3670000D01*
Y3642381D02*
X4302073Y3642308D01*
X3388000Y3602105D02*
Y3657627D01*
X3412000Y3602381D02*
Y3657489D01*
Y3602381D02*
Y3630000D01*
Y3602381D02*
X3412073Y3602308D01*
X2752105Y2852000D02*
X2807627D01*
X2752381Y2828000D02*
X2807489D01*
X2752381D02*
X2780000D01*
X2752308Y2827927D02*
X2752381Y2828000D01*
X2842000Y3502373D02*
Y3557895D01*
X2818000Y3502511D02*
Y3557619D01*
Y3530000D02*
Y3557619D01*
X2817927Y3557692D02*
X2818000Y3557619D01*
X3505000Y4135000D02*
Y4205000D01*
X3475000Y4135000D02*
Y4205000D01*
X3460000Y4170000D02*
X3475000D01*
X3505000D02*
X3520000D01*
X3505000Y4005000D02*
Y4075000D01*
X3475000Y4005000D02*
Y4075000D01*
X3460000Y4040000D02*
X3475000D01*
X3505000D02*
X3520000D01*
X3552104Y3892000D02*
X3607627D01*
X3552381Y3868000D02*
X3607489D01*
X3552381D02*
X3580000D01*
X3552308Y3867927D02*
X3552381Y3868000D01*
X2752373Y4248000D02*
X2807895D01*
X2752511Y4272000D02*
X2807619D01*
X2780000D02*
X2807619D01*
X2807692Y4272073D01*
X3018000Y4182105D02*
Y4237627D01*
X3042000Y4182381D02*
Y4237489D01*
Y4182381D02*
Y4210000D01*
Y4182381D02*
X3042073Y4182308D01*
X3342373Y3848000D02*
X3397895D01*
X3342511Y3872000D02*
X3397619D01*
X3370000D02*
X3397619D01*
X3397692Y3872073D01*
X4358000Y2802105D02*
Y2857627D01*
X4382000Y2802381D02*
Y2857489D01*
Y2802381D02*
Y2830000D01*
Y2802381D02*
X4382073Y2802308D01*
X6135000Y2785000D02*
X6205000D01*
X6135000Y2815000D02*
X6205000D01*
X6170000D02*
Y2830000D01*
Y2770000D02*
Y2785000D01*
X4995000Y3355000D02*
Y3425000D01*
X5025000Y3355000D02*
Y3425000D01*
Y3390000D02*
X5040000D01*
X4980000D02*
X4995000D01*
X2475000Y4525000D02*
X2545000D01*
X2475000Y4555000D02*
X2545000D01*
X2510000D02*
Y4570000D01*
Y4510000D02*
Y4525000D01*
X5808000Y2702105D02*
Y2757627D01*
X5832000Y2702381D02*
Y2757489D01*
Y2702381D02*
Y2730000D01*
Y2702381D02*
X5832073Y2702308D01*
X5808000Y2802105D02*
Y2857627D01*
X5832000Y2802381D02*
Y2857489D01*
Y2802381D02*
Y2830000D01*
Y2802381D02*
X5832073Y2802308D01*
X4802373Y2818000D02*
X4857895D01*
X4802511Y2842000D02*
X4857619D01*
X4830000D02*
X4857619D01*
X4857692Y2842073D01*
X4902373Y2818000D02*
X4957895D01*
X4902511Y2842000D02*
X4957619D01*
X4930000D02*
X4957619D01*
X4957692Y2842073D01*
X6005000Y2815000D02*
X6075000D01*
X6005000Y2785000D02*
X6075000D01*
X6040000Y2770000D02*
Y2785000D01*
Y2815000D02*
Y2830000D01*
X6038000Y3062105D02*
Y3117627D01*
X6062000Y3062381D02*
Y3117489D01*
Y3062381D02*
Y3090000D01*
Y3062381D02*
X6062073Y3062308D01*
X6038000Y3162105D02*
Y3217627D01*
X6062000Y3162381D02*
Y3217489D01*
Y3162381D02*
Y3190000D01*
Y3162381D02*
X6062073Y3162308D01*
X3565000Y2385000D02*
X3635000D01*
X3565000Y2355000D02*
X3635000D01*
X3600000Y2340000D02*
Y2355000D01*
Y2385000D02*
Y2400000D01*
X6262000Y3062373D02*
Y3117895D01*
X6238000Y3062511D02*
Y3117619D01*
Y3090000D02*
Y3117619D01*
X6237927Y3117692D02*
X6238000Y3117619D01*
X6262000Y3162373D02*
Y3217895D01*
X6238000Y3162511D02*
Y3217619D01*
Y3190000D02*
Y3217619D01*
X6237927Y3217692D02*
X6238000Y3217619D01*
X5162105Y3782000D02*
X5217627D01*
X5162381Y3758000D02*
X5217489D01*
X5162381D02*
X5190000D01*
X5162308Y3757927D02*
X5162381Y3758000D01*
X5262105Y3782000D02*
X5317627D01*
X5262381Y3758000D02*
X5317489D01*
X5262381D02*
X5290000D01*
X5262308Y3757927D02*
X5262381Y3758000D01*
X4882105Y3672000D02*
X4937627D01*
X4882381Y3648000D02*
X4937489D01*
X4882381D02*
X4910000D01*
X4882308Y3647927D02*
X4882381Y3648000D01*
X4918000Y3482105D02*
Y3537627D01*
X4942000Y3482381D02*
Y3537489D01*
Y3482381D02*
Y3510000D01*
Y3482381D02*
X4942073Y3482308D01*
X5845000Y2915000D02*
Y2985000D01*
X5875000Y2915000D02*
Y2985000D01*
Y2950000D02*
X5890000D01*
X5830000D02*
X5845000D01*
X5755000Y3235000D02*
X5825000D01*
X5755000Y3265000D02*
X5825000D01*
X5790000D02*
Y3280000D01*
Y3220000D02*
Y3235000D01*
X5808000Y3042105D02*
Y3097627D01*
X5832000Y3042381D02*
Y3097489D01*
Y3042381D02*
Y3070000D01*
Y3042381D02*
X5832073Y3042308D01*
X6152000Y3832373D02*
Y3887895D01*
X6128000Y3832511D02*
Y3887619D01*
Y3860000D02*
Y3887619D01*
X6127927Y3887692D02*
X6128000Y3887619D01*
X5072105Y3672000D02*
X5127627D01*
X5072381Y3648000D02*
X5127489D01*
X5072381D02*
X5100000D01*
X5072308Y3647927D02*
X5072381Y3648000D01*
X4982373D02*
X5037895D01*
X4982511Y3672000D02*
X5037619D01*
X5010000D02*
X5037619D01*
X5037692Y3672073D01*
X5802105Y4002000D02*
X5857627D01*
X5802381Y3978000D02*
X5857489D01*
X5802381D02*
X5830000D01*
X5802308Y3977927D02*
X5802381Y3978000D01*
X4792373Y3268000D02*
X4847895D01*
X4792511Y3292000D02*
X4847619D01*
X4820000D02*
X4847619D01*
X4847692Y3292073D01*
X5102105Y4012000D02*
X5157627D01*
X5102381Y3988000D02*
X5157489D01*
X5102381D02*
X5130000D01*
X5102308Y3987927D02*
X5102381Y3988000D01*
X5245000Y1240000D02*
X5291651D01*
X5314977Y1216674D01*
X5291651Y1193348D01*
X5245000D01*
X5279988D01*
Y1240000D01*
X5314977Y1170022D02*
X5245000D01*
Y1135034D01*
X5256663Y1123371D01*
X5268326D01*
X5279988Y1135034D01*
Y1170022D01*
Y1135034D01*
X5291651Y1123371D01*
X5303314D01*
X5314977Y1135034D01*
Y1170022D01*
X5303314Y1053393D02*
X5314977Y1065056D01*
Y1088382D01*
X5303314Y1100045D01*
X5256663D01*
X5245000Y1088382D01*
Y1065056D01*
X5256663Y1053393D01*
X2470001Y2265000D02*
Y2218348D01*
X2446675Y2195022D01*
X2423349Y2218348D01*
Y2265000D01*
Y2230011D01*
X2470001D01*
X2400023Y2195022D02*
Y2265000D01*
X2365034D01*
X2353371Y2253337D01*
Y2241674D01*
X2365034Y2230011D01*
X2400023D01*
X2365034D01*
X2353371Y2218348D01*
Y2206685D01*
X2365034Y2195022D01*
X2400023D01*
X2283394Y2206685D02*
X2295057Y2195022D01*
X2318383D01*
X2330046Y2206685D01*
Y2253337D01*
X2318383Y2265000D01*
X2295057D01*
X2283394Y2253337D01*
X3365000Y1954974D02*
Y1875000D01*
X3418316D01*
X3444974Y1941645D02*
X3458303Y1954974D01*
X3484961D01*
X3498290Y1941645D01*
Y1928316D01*
X3484961Y1914987D01*
X3471632D01*
X3484961D01*
X3498290Y1901658D01*
Y1888329D01*
X3484961Y1875000D01*
X3458303D01*
X3444974Y1888329D01*
X3524948Y1954974D02*
Y1901658D01*
X3551606Y1875000D01*
X3578264Y1901658D01*
Y1954974D01*
X1198316Y734974D02*
X1145000D01*
Y694987D01*
X1171658Y708316D01*
X1184987D01*
X1198316Y694987D01*
Y668329D01*
X1184987Y655000D01*
X1158329D01*
X1145000Y668329D01*
X1224974Y734974D02*
Y681658D01*
X1251632Y655000D01*
X1278290Y681658D01*
Y734974D01*
X4578316Y1894974D02*
X4551658Y1881645D01*
X4525000Y1854987D01*
Y1828329D01*
X4538329Y1815000D01*
X4564987D01*
X4578316Y1828329D01*
Y1841658D01*
X4564987Y1854987D01*
X4525000D01*
X4604974Y1894974D02*
Y1841658D01*
X4631632Y1815000D01*
X4658290Y1841658D01*
Y1894974D01*
X5875000Y1784974D02*
Y1705000D01*
X5928316D01*
X6008290Y1784974D02*
X5954974D01*
Y1744987D01*
X5981632Y1758316D01*
X5994961D01*
X6008290Y1744987D01*
Y1718329D01*
X5994961Y1705000D01*
X5968303D01*
X5954974Y1718329D01*
X6034948Y1784974D02*
Y1731658D01*
X6061606Y1705000D01*
X6088264Y1731658D01*
Y1784974D01*
X4085000Y1865000D02*
X4111658D01*
X4098329D01*
Y1944974D01*
X4085000Y1931645D01*
X4151645D02*
X4164974Y1944974D01*
X4191632D01*
X4204961Y1931645D01*
Y1878329D01*
X4191632Y1865000D01*
X4164974D01*
X4151645Y1878329D01*
Y1931645D01*
X4231619Y1944974D02*
Y1891658D01*
X4258277Y1865000D01*
X4284935Y1891658D01*
Y1944974D01*
X5825000Y2405000D02*
Y2458316D01*
X5851658Y2484974D01*
X5878316Y2458316D01*
Y2405000D01*
Y2444987D01*
X5825000D01*
X5958290Y2484974D02*
X5904974D01*
Y2444987D01*
X5931632Y2458316D01*
X5944961D01*
X5958290Y2444987D01*
Y2418329D01*
X5944961Y2405000D01*
X5918303D01*
X5904974Y2418329D01*
X5984948Y2484974D02*
Y2431658D01*
X6011606Y2405000D01*
X6038264Y2431658D01*
Y2484974D01*
X4345000Y914987D02*
X4398316D01*
X4478290Y954974D02*
X4451632Y941645D01*
X4424974Y914987D01*
Y888329D01*
X4438303Y875000D01*
X4464961D01*
X4478290Y888329D01*
Y901658D01*
X4464961Y914987D01*
X4424974D01*
X4504948Y954974D02*
Y901658D01*
X4531606Y875000D01*
X4558264Y901658D01*
Y954974D01*
X1198316Y371645D02*
X1184987Y384974D01*
X1158329D01*
X1145000Y371645D01*
Y318329D01*
X1158329Y305000D01*
X1184987D01*
X1198316Y318329D01*
Y344987D01*
X1171658D01*
X1224974Y305000D02*
Y384974D01*
X1278290Y305000D01*
Y384974D01*
X1304948D02*
Y305000D01*
X1344935D01*
X1358264Y318329D01*
Y371645D01*
X1344935Y384974D01*
X1304948D01*
X1705000Y755000D02*
X1731658D01*
X1718329D01*
Y834974D01*
X1705000Y821645D01*
X1348316Y134974D02*
X1295000D01*
Y94987D01*
X1321658Y108316D01*
X1334987D01*
X1348316Y94987D01*
Y68329D01*
X1334987Y55000D01*
X1308329D01*
X1295000Y68329D01*
X1374974Y134974D02*
Y81658D01*
X1401632Y55000D01*
X1428290Y81658D01*
Y134974D01*
X1534922Y55000D02*
Y134974D01*
X1561580Y108316D01*
X1588238Y134974D01*
Y55000D01*
X1628226Y108316D02*
X1654884D01*
X1668213Y94987D01*
Y55000D01*
X1628226D01*
X1614896Y68329D01*
X1628226Y81658D01*
X1668213D01*
X1694871Y108316D02*
X1748187Y55000D01*
X1721529Y81658D01*
X1748187Y108316D01*
X1694871Y55000D01*
X7436697Y769987D02*
Y703342D01*
X7450026Y690013D01*
X7476684D01*
X7490013Y703342D01*
Y769987D01*
X7556658Y690013D02*
Y769987D01*
X7516671Y730000D01*
X7569987D01*
X7596645Y690013D02*
X7623303D01*
X7609974D01*
Y769987D01*
X7596645Y756658D01*
X7493368Y2349987D02*
Y2283342D01*
X7506697Y2270013D01*
X7533355D01*
X7546684Y2283342D01*
Y2349987D01*
X7613329Y2270013D02*
Y2349987D01*
X7573342Y2310000D01*
X7626658D01*
X7653316Y2336658D02*
X7666645Y2349987D01*
X7693303D01*
X7706632Y2336658D01*
Y2283342D01*
X7693303Y2270013D01*
X7666645D01*
X7653316Y2283342D01*
Y2336658D01*
X7273368Y1139987D02*
Y1073342D01*
X7286697Y1060013D01*
X7313355D01*
X7326684Y1073342D01*
Y1139987D01*
X7353342Y1126658D02*
X7366671Y1139987D01*
X7393329D01*
X7406658Y1126658D01*
Y1113329D01*
X7393329Y1100000D01*
X7380000D01*
X7393329D01*
X7406658Y1086671D01*
Y1073342D01*
X7393329Y1060013D01*
X7366671D01*
X7353342Y1073342D01*
X7433316D02*
X7446645Y1060013D01*
X7473303D01*
X7486632Y1073342D01*
Y1126658D01*
X7473303Y1139987D01*
X7446645D01*
X7433316Y1126658D01*
Y1113329D01*
X7446645Y1100000D01*
X7486632D01*
X7503368Y2939987D02*
Y2873342D01*
X7516697Y2860013D01*
X7543355D01*
X7556684Y2873342D01*
Y2939987D01*
X7583342Y2926658D02*
X7596671Y2939987D01*
X7623329D01*
X7636658Y2926658D01*
Y2913329D01*
X7623329Y2900000D01*
X7610000D01*
X7623329D01*
X7636658Y2886671D01*
Y2873342D01*
X7623329Y2860013D01*
X7596671D01*
X7583342Y2873342D01*
X7663316Y2926658D02*
X7676645Y2939987D01*
X7703303D01*
X7716632Y2926658D01*
Y2913329D01*
X7703303Y2900000D01*
X7716632Y2886671D01*
Y2873342D01*
X7703303Y2860013D01*
X7676645D01*
X7663316Y2873342D01*
Y2886671D01*
X7676645Y2900000D01*
X7663316Y2913329D01*
Y2926658D01*
X7676645Y2900000D02*
X7703303D01*
X7383368Y1759987D02*
Y1693342D01*
X7396697Y1680013D01*
X7423355D01*
X7436684Y1693342D01*
Y1759987D01*
X7463342Y1746658D02*
X7476671Y1759987D01*
X7503329D01*
X7516658Y1746658D01*
Y1733329D01*
X7503329Y1720000D01*
X7490000D01*
X7503329D01*
X7516658Y1706671D01*
Y1693342D01*
X7503329Y1680013D01*
X7476671D01*
X7463342Y1693342D01*
X7543316Y1759987D02*
X7596632D01*
Y1746658D01*
X7543316Y1693342D01*
Y1680013D01*
X7523368Y3259987D02*
Y3193342D01*
X7536697Y3180013D01*
X7563355D01*
X7576684Y3193342D01*
Y3259987D01*
X7603342Y3246658D02*
X7616671Y3259987D01*
X7643329D01*
X7656658Y3246658D01*
Y3233329D01*
X7643329Y3220000D01*
X7630000D01*
X7643329D01*
X7656658Y3206671D01*
Y3193342D01*
X7643329Y3180013D01*
X7616671D01*
X7603342Y3193342D01*
X7736632Y3259987D02*
X7709974Y3246658D01*
X7683316Y3220000D01*
Y3193342D01*
X7696645Y3180013D01*
X7723303D01*
X7736632Y3193342D01*
Y3206671D01*
X7723303Y3220000D01*
X7683316D01*
X6703368Y4109987D02*
Y4043342D01*
X6716697Y4030013D01*
X6743355D01*
X6756684Y4043342D01*
Y4109987D01*
X6783342Y4096658D02*
X6796671Y4109987D01*
X6823329D01*
X6836658Y4096658D01*
Y4083329D01*
X6823329Y4070000D01*
X6810000D01*
X6823329D01*
X6836658Y4056671D01*
Y4043342D01*
X6823329Y4030013D01*
X6796671D01*
X6783342Y4043342D01*
X6916632Y4109987D02*
X6863316D01*
Y4070000D01*
X6889974Y4083329D01*
X6903303D01*
X6916632Y4070000D01*
Y4043342D01*
X6903303Y4030013D01*
X6876645D01*
X6863316Y4043342D01*
X7413368Y2019987D02*
Y1953342D01*
X7426697Y1940013D01*
X7453355D01*
X7466684Y1953342D01*
Y2019987D01*
X7493342Y2006658D02*
X7506671Y2019987D01*
X7533329D01*
X7546658Y2006658D01*
Y1993329D01*
X7533329Y1980000D01*
X7520000D01*
X7533329D01*
X7546658Y1966671D01*
Y1953342D01*
X7533329Y1940013D01*
X7506671D01*
X7493342Y1953342D01*
X7613303Y1940013D02*
Y2019987D01*
X7573316Y1980000D01*
X7626632D01*
X7053368Y4099987D02*
Y4033342D01*
X7066697Y4020013D01*
X7093355D01*
X7106684Y4033342D01*
Y4099987D01*
X7133342Y4086658D02*
X7146671Y4099987D01*
X7173329D01*
X7186658Y4086658D01*
Y4073329D01*
X7173329Y4060000D01*
X7160000D01*
X7173329D01*
X7186658Y4046671D01*
Y4033342D01*
X7173329Y4020013D01*
X7146671D01*
X7133342Y4033342D01*
X7213316Y4086658D02*
X7226645Y4099987D01*
X7253303D01*
X7266632Y4086658D01*
Y4073329D01*
X7253303Y4060000D01*
X7239974D01*
X7253303D01*
X7266632Y4046671D01*
Y4033342D01*
X7253303Y4020013D01*
X7226645D01*
X7213316Y4033342D01*
X1983368Y1139987D02*
Y1073342D01*
X1996697Y1060013D01*
X2023355D01*
X2036684Y1073342D01*
Y1139987D01*
X2063342Y1126658D02*
X2076671Y1139987D01*
X2103329D01*
X2116658Y1126658D01*
Y1113329D01*
X2103329Y1100000D01*
X2090000D01*
X2103329D01*
X2116658Y1086671D01*
Y1073342D01*
X2103329Y1060013D01*
X2076671D01*
X2063342Y1073342D01*
X2196632Y1060013D02*
X2143316D01*
X2196632Y1113329D01*
Y1126658D01*
X2183303Y1139987D01*
X2156645D01*
X2143316Y1126658D01*
X6396697Y4619987D02*
Y4553342D01*
X6410026Y4540013D01*
X6436684D01*
X6450013Y4553342D01*
Y4619987D01*
X6476671Y4606658D02*
X6490000Y4619987D01*
X6516658D01*
X6529987Y4606658D01*
Y4593329D01*
X6516658Y4580000D01*
X6503329D01*
X6516658D01*
X6529987Y4566671D01*
Y4553342D01*
X6516658Y4540013D01*
X6490000D01*
X6476671Y4553342D01*
X6556645Y4540013D02*
X6583303D01*
X6569974D01*
Y4619987D01*
X6556645Y4606658D01*
X7073368Y4239987D02*
Y4173342D01*
X7086697Y4160013D01*
X7113355D01*
X7126684Y4173342D01*
Y4239987D01*
X7153342Y4226658D02*
X7166671Y4239987D01*
X7193329D01*
X7206658Y4226658D01*
Y4213329D01*
X7193329Y4200000D01*
X7180000D01*
X7193329D01*
X7206658Y4186671D01*
Y4173342D01*
X7193329Y4160013D01*
X7166671D01*
X7153342Y4173342D01*
X7233316Y4226658D02*
X7246645Y4239987D01*
X7273303D01*
X7286632Y4226658D01*
Y4173342D01*
X7273303Y4160013D01*
X7246645D01*
X7233316Y4173342D01*
Y4226658D01*
X2345491Y3842111D02*
X2398807D01*
X2372149D01*
Y3762136D01*
X2425465D02*
Y3842111D01*
X2465452D01*
X2478781Y3828782D01*
Y3802124D01*
X2465452Y3788795D01*
X2425465D01*
X2505439Y3828782D02*
X2518768Y3842111D01*
X2545426D01*
X2558755Y3828782D01*
Y3815453D01*
X2545426Y3802124D01*
X2558755Y3788795D01*
Y3775466D01*
X2545426Y3762136D01*
X2518768D01*
X2505439Y3775466D01*
Y3788795D01*
X2518768Y3802124D01*
X2505439Y3815453D01*
Y3828782D01*
X2518768Y3802124D02*
X2545426D01*
X2943355Y4119987D02*
Y4053342D01*
X2956684Y4040013D01*
X2983342D01*
X2996671Y4053342D01*
Y4119987D01*
X3076645D02*
X3023329D01*
Y4080000D01*
X3049987Y4093329D01*
X3063316D01*
X3076645Y4080000D01*
Y4053342D01*
X3063316Y4040013D01*
X3036658D01*
X3023329Y4053342D01*
X3200032Y3749987D02*
Y3683342D01*
X3213361Y3670013D01*
X3240019D01*
X3253348Y3683342D01*
Y3749987D01*
X3280006Y3670013D02*
X3306664D01*
X3293336D01*
Y3749987D01*
X3280006Y3736658D01*
X3346652D02*
X3359981Y3749987D01*
X3386639D01*
X3399968Y3736658D01*
Y3683342D01*
X3386639Y3670013D01*
X3359981D01*
X3346652Y3683342D01*
Y3736658D01*
X5980032Y2329987D02*
Y2263342D01*
X5993361Y2250013D01*
X6020019D01*
X6033348Y2263342D01*
Y2329987D01*
X6060006Y2250013D02*
X6086664D01*
X6073336D01*
Y2329987D01*
X6060006Y2316658D01*
X6179968Y2329987D02*
X6153310Y2316658D01*
X6126652Y2290000D01*
Y2263342D01*
X6139981Y2250013D01*
X6166639D01*
X6179968Y2263342D01*
Y2276671D01*
X6166639Y2290000D01*
X6126652D01*
X6543368Y2019987D02*
Y1953342D01*
X6556697Y1940013D01*
X6583355D01*
X6596684Y1953342D01*
Y2019987D01*
X6676658Y1940013D02*
X6623342D01*
X6676658Y1993329D01*
Y2006658D01*
X6663329Y2019987D01*
X6636671D01*
X6623342Y2006658D01*
X6756632Y2019987D02*
X6703316D01*
Y1980000D01*
X6729974Y1993329D01*
X6743303D01*
X6756632Y1980000D01*
Y1953342D01*
X6743303Y1940013D01*
X6716645D01*
X6703316Y1953342D01*
X3706697Y1959987D02*
Y1893342D01*
X3720026Y1880013D01*
X3746684D01*
X3760013Y1893342D01*
Y1959987D01*
X3839987Y1880013D02*
X3786671D01*
X3839987Y1933329D01*
Y1946658D01*
X3826658Y1959987D01*
X3800000D01*
X3786671Y1946658D01*
X3866645Y1880013D02*
X3893303D01*
X3879974D01*
Y1959987D01*
X3866645Y1946658D01*
X1633355Y4690013D02*
Y4769987D01*
X1673342D01*
X1686671Y4756658D01*
Y4730000D01*
X1673342Y4716671D01*
X1633355D01*
X1766645Y4769987D02*
X1739987Y4756658D01*
X1713329Y4730000D01*
Y4703342D01*
X1726658Y4690013D01*
X1753316D01*
X1766645Y4703342D01*
Y4716671D01*
X1753316Y4730000D01*
X1713329D01*
X4063368Y2749987D02*
X4116684D01*
X4090026D01*
Y2670013D01*
X4143342D02*
Y2749987D01*
X4183329D01*
X4196658Y2736658D01*
Y2710000D01*
X4183329Y2696671D01*
X4143342D01*
X4223316Y2749987D02*
X4276632D01*
Y2736658D01*
X4223316Y2683342D01*
Y2670013D01*
X3523368Y3789987D02*
X3576684D01*
X3550026D01*
Y3710013D01*
X3603342D02*
Y3789987D01*
X3643329D01*
X3656658Y3776658D01*
Y3750000D01*
X3643329Y3736671D01*
X3603342D01*
X3736632Y3789987D02*
X3709974Y3776658D01*
X3683316Y3750000D01*
Y3723342D01*
X3696645Y3710013D01*
X3723303D01*
X3736632Y3723342D01*
Y3736671D01*
X3723303Y3750000D01*
X3683316D01*
X2753355Y2749987D02*
Y2683342D01*
X2766684Y2670013D01*
X2793342D01*
X2806671Y2683342D01*
Y2749987D01*
X2833329D02*
X2886645D01*
Y2736658D01*
X2833329Y2683342D01*
Y2670013D01*
X4333355Y3099987D02*
Y3033342D01*
X4346684Y3020013D01*
X4373342D01*
X4386671Y3033342D01*
Y3099987D01*
X4413329Y3033342D02*
X4426658Y3020013D01*
X4453316D01*
X4466645Y3033342D01*
Y3086658D01*
X4453316Y3099987D01*
X4426658D01*
X4413329Y3086658D01*
Y3073329D01*
X4426658Y3060000D01*
X4466645D01*
X4063355Y3799987D02*
Y3733342D01*
X4076684Y3720013D01*
X4103342D01*
X4116671Y3733342D01*
Y3799987D01*
X4143329Y3786658D02*
X4156658Y3799987D01*
X4183316D01*
X4196645Y3786658D01*
Y3773329D01*
X4183316Y3760000D01*
X4196645Y3746671D01*
Y3733342D01*
X4183316Y3720013D01*
X4156658D01*
X4143329Y3733342D01*
Y3746671D01*
X4156658Y3760000D01*
X4143329Y3773329D01*
Y3786658D01*
X4156658Y3760000D02*
X4183316D01*
X4123355Y4439987D02*
Y4373342D01*
X4136684Y4360013D01*
X4163342D01*
X4176671Y4373342D01*
Y4439987D01*
X4256645D02*
X4229987Y4426658D01*
X4203329Y4400000D01*
Y4373342D01*
X4216658Y4360013D01*
X4243316D01*
X4256645Y4373342D01*
Y4386671D01*
X4243316Y4400000D01*
X4203329D01*
X4943368Y2719987D02*
X4996684D01*
X4970026D01*
Y2640013D01*
X5023342D02*
Y2719987D01*
X5063329D01*
X5076658Y2706658D01*
Y2680000D01*
X5063329Y2666671D01*
X5023342D01*
X5156632Y2719987D02*
X5103316D01*
Y2680000D01*
X5129974Y2693329D01*
X5143303D01*
X5156632Y2680000D01*
Y2653342D01*
X5143303Y2640013D01*
X5116645D01*
X5103316Y2653342D01*
X8053361Y40013D02*
Y119987D01*
X8093349D01*
X8106677Y106658D01*
Y80000D01*
X8093349Y66671D01*
X8053361D01*
X8133336Y40013D02*
X8159994D01*
X8146665D01*
Y119987D01*
X8133336Y106658D01*
X8199981Y40013D02*
X8226639D01*
X8213310D01*
Y119987D01*
X8199981Y106658D01*
X8120032Y5340013D02*
Y5419987D01*
X8160019D01*
X8173348Y5406658D01*
Y5380000D01*
X8160019Y5366671D01*
X8120032D01*
X8200006Y5340013D02*
X8226665D01*
X8213336D01*
Y5419987D01*
X8200006Y5406658D01*
X8266652D02*
X8279981Y5419987D01*
X8306639D01*
X8319968Y5406658D01*
Y5353342D01*
X8306639Y5340013D01*
X8279981D01*
X8266652Y5353342D01*
Y5406658D01*
X1643355Y1050013D02*
Y1129987D01*
X1683342D01*
X1696671Y1116658D01*
Y1090000D01*
X1683342Y1076671D01*
X1643355D01*
X1776645Y1050013D02*
X1723329D01*
X1776645Y1103329D01*
Y1116658D01*
X1763316Y1129987D01*
X1736658D01*
X1723329Y1116658D01*
X1890000Y839987D02*
X1863342D01*
X1876671D01*
Y773342D01*
X1863342Y760013D01*
X1850013D01*
X1836684Y773342D01*
X1916658Y760013D02*
X1943316D01*
X1929987D01*
Y839987D01*
X1916658Y826658D01*
X2170032Y2529987D02*
Y2463342D01*
X2183361Y2450013D01*
X2210019D01*
X2223348Y2463342D01*
Y2529987D01*
X2250006Y2450013D02*
X2276664D01*
X2263336D01*
Y2529987D01*
X2250006Y2516658D01*
X2316652D02*
X2329981Y2529987D01*
X2356639D01*
X2369968Y2516658D01*
Y2503329D01*
X2356639Y2490000D01*
X2369968Y2476671D01*
Y2463342D01*
X2356639Y2450013D01*
X2329981D01*
X2316652Y2463342D01*
Y2476671D01*
X2329981Y2490000D01*
X2316652Y2503329D01*
Y2516658D01*
X2329981Y2490000D02*
X2356639D01*
X5133368Y989987D02*
Y923342D01*
X5146697Y910013D01*
X5173355D01*
X5186684Y923342D01*
Y989987D01*
X5266658Y910013D02*
X5213342D01*
X5266658Y963329D01*
Y976658D01*
X5253329Y989987D01*
X5226671D01*
X5213342Y976658D01*
X5293316D02*
X5306645Y989987D01*
X5333303D01*
X5346632Y976658D01*
Y923342D01*
X5333303Y910013D01*
X5306645D01*
X5293316Y923342D01*
Y976658D01*
X5040032Y2379987D02*
Y2313342D01*
X5053361Y2300013D01*
X5080019D01*
X5093348Y2313342D01*
Y2379987D01*
X5120006Y2300013D02*
X5146664D01*
X5133335D01*
Y2379987D01*
X5120006Y2366658D01*
X5186652Y2313342D02*
X5199981Y2300013D01*
X5226639D01*
X5239968Y2313342D01*
Y2366658D01*
X5226639Y2379987D01*
X5199981D01*
X5186652Y2366658D01*
Y2353329D01*
X5199981Y2340000D01*
X5239968D01*
X3010032Y2499987D02*
Y2433342D01*
X3023361Y2420013D01*
X3050019D01*
X3063348Y2433342D01*
Y2499987D01*
X3090006Y2420013D02*
X3116664D01*
X3103335D01*
Y2499987D01*
X3090006Y2486658D01*
X3156652Y2499987D02*
X3209968D01*
Y2486658D01*
X3156652Y2433342D01*
Y2420013D01*
X2953355Y610013D02*
Y689987D01*
X2993342D01*
X3006671Y676658D01*
Y650000D01*
X2993342Y636671D01*
X2953355D01*
X3033329Y623342D02*
X3046658Y610013D01*
X3073316D01*
X3086645Y623342D01*
Y676658D01*
X3073316Y689987D01*
X3046658D01*
X3033329Y676658D01*
Y663329D01*
X3046658Y650000D01*
X3086645D01*
X1633355Y4820013D02*
Y4899987D01*
X1673342D01*
X1686671Y4886658D01*
Y4860000D01*
X1673342Y4846671D01*
X1633355D01*
X1713329Y4886658D02*
X1726658Y4899987D01*
X1753316D01*
X1766645Y4886658D01*
Y4873329D01*
X1753316Y4860000D01*
X1766645Y4846671D01*
Y4833342D01*
X1753316Y4820013D01*
X1726658D01*
X1713329Y4833342D01*
Y4846671D01*
X1726658Y4860000D01*
X1713329Y4873329D01*
Y4886658D01*
X1726658Y4860000D02*
X1753316D01*
X6123355Y3509987D02*
Y3443342D01*
X6136684Y3430013D01*
X6163342D01*
X6176671Y3443342D01*
Y3509987D01*
X6203329Y3496658D02*
X6216658Y3509987D01*
X6243316D01*
X6256645Y3496658D01*
Y3483329D01*
X6243316Y3470000D01*
X6229987D01*
X6243316D01*
X6256645Y3456671D01*
Y3443342D01*
X6243316Y3430013D01*
X6216658D01*
X6203329Y3443342D01*
X3723368Y1439987D02*
Y1373342D01*
X3736697Y1360013D01*
X3763355D01*
X3776684Y1373342D01*
Y1439987D01*
X3856658Y1360013D02*
X3803342D01*
X3856658Y1413329D01*
Y1426658D01*
X3843329Y1439987D01*
X3816671D01*
X3803342Y1426658D01*
X3936632Y1360013D02*
X3883316D01*
X3936632Y1413329D01*
Y1426658D01*
X3923303Y1439987D01*
X3896645D01*
X3883316Y1426658D01*
X7770032Y4789987D02*
Y4723342D01*
X7783361Y4710013D01*
X7810019D01*
X7823348Y4723342D01*
Y4789987D01*
X7850006Y4710013D02*
X7876664D01*
X7863336D01*
Y4789987D01*
X7850006Y4776658D01*
X7956639Y4710013D02*
Y4789987D01*
X7916652Y4750000D01*
X7969968D01*
X6526685Y3767893D02*
Y3701248D01*
X6540014Y3687919D01*
X6566672D01*
X6580001Y3701248D01*
Y3767893D01*
X6606659Y3687919D02*
X6633317D01*
X6619988D01*
Y3767893D01*
X6606659Y3754564D01*
X6673304D02*
X6686634Y3767893D01*
X6713292D01*
X6726621Y3754564D01*
Y3741235D01*
X6713292Y3727906D01*
X6699962D01*
X6713292D01*
X6726621Y3714577D01*
Y3701248D01*
X6713292Y3687919D01*
X6686634D01*
X6673304Y3701248D01*
X6263368Y1749987D02*
Y1683342D01*
X6276697Y1670013D01*
X6303355D01*
X6316684Y1683342D01*
Y1749987D01*
X6396658Y1670013D02*
X6343342D01*
X6396658Y1723329D01*
Y1736658D01*
X6383329Y1749987D01*
X6356671D01*
X6343342Y1736658D01*
X6423316Y1749987D02*
X6476632D01*
Y1736658D01*
X6423316Y1683342D01*
Y1670013D01*
X6263368Y1309987D02*
Y1243342D01*
X6276697Y1230013D01*
X6303355D01*
X6316684Y1243342D01*
Y1309987D01*
X6396658Y1230013D02*
X6343342D01*
X6396658Y1283329D01*
Y1296658D01*
X6383329Y1309987D01*
X6356671D01*
X6343342Y1296658D01*
X6423316Y1243342D02*
X6436645Y1230013D01*
X6463303D01*
X6476632Y1243342D01*
Y1296658D01*
X6463303Y1309987D01*
X6436645D01*
X6423316Y1296658D01*
Y1283329D01*
X6436645Y1270000D01*
X6476632D01*
X6263368Y1529987D02*
Y1463342D01*
X6276697Y1450013D01*
X6303355D01*
X6316684Y1463342D01*
Y1529987D01*
X6396658Y1450013D02*
X6343342D01*
X6396658Y1503329D01*
Y1516658D01*
X6383329Y1529987D01*
X6356671D01*
X6343342Y1516658D01*
X6463303Y1450013D02*
Y1529987D01*
X6423316Y1490000D01*
X6476632D01*
X7790032Y2779987D02*
Y2713342D01*
X7803361Y2700013D01*
X7830019D01*
X7843348Y2713342D01*
Y2779987D01*
X7870006Y2700013D02*
X7896664D01*
X7883336D01*
Y2779987D01*
X7870006Y2766658D01*
X7989968Y2779987D02*
X7936652D01*
Y2740000D01*
X7963310Y2753329D01*
X7976639D01*
X7989968Y2740000D01*
Y2713342D01*
X7976639Y2700013D01*
X7949981D01*
X7936652Y2713342D01*
X6540032Y2349987D02*
Y2283342D01*
X6553361Y2270013D01*
X6580019D01*
X6593348Y2283342D01*
Y2349987D01*
X6620006Y2270013D02*
X6646664D01*
X6633335D01*
Y2349987D01*
X6620006Y2336658D01*
X6739968Y2270013D02*
X6686652D01*
X6739968Y2323329D01*
Y2336658D01*
X6726639Y2349987D01*
X6699981D01*
X6686652Y2336658D01*
X6263368Y1639987D02*
Y1573342D01*
X6276697Y1560013D01*
X6303355D01*
X6316684Y1573342D01*
Y1639987D01*
X6396658Y1560013D02*
X6343342D01*
X6396658Y1613329D01*
Y1626658D01*
X6383329Y1639987D01*
X6356671D01*
X6343342Y1626658D01*
X6423316D02*
X6436645Y1639987D01*
X6463303D01*
X6476632Y1626658D01*
Y1613329D01*
X6463303Y1600000D01*
X6476632Y1586671D01*
Y1573342D01*
X6463303Y1560013D01*
X6436645D01*
X6423316Y1573342D01*
Y1586671D01*
X6436645Y1600000D01*
X6423316Y1613329D01*
Y1626658D01*
X6436645Y1600000D02*
X6463303D01*
X6543368Y2119987D02*
Y2053342D01*
X6556697Y2040013D01*
X6583355D01*
X6596684Y2053342D01*
Y2119987D01*
X6676658Y2040013D02*
X6623342D01*
X6676658Y2093329D01*
Y2106658D01*
X6663329Y2119987D01*
X6636671D01*
X6623342Y2106658D01*
X6703316D02*
X6716645Y2119987D01*
X6743303D01*
X6756632Y2106658D01*
Y2093329D01*
X6743303Y2080000D01*
X6729974D01*
X6743303D01*
X6756632Y2066671D01*
Y2053342D01*
X6743303Y2040013D01*
X6716645D01*
X6703316Y2053342D01*
X6263368Y1419987D02*
Y1353342D01*
X6276697Y1340013D01*
X6303355D01*
X6316684Y1353342D01*
Y1419987D01*
X6396658Y1340013D02*
X6343342D01*
X6396658Y1393329D01*
Y1406658D01*
X6383329Y1419987D01*
X6356671D01*
X6343342Y1406658D01*
X6476632Y1419987D02*
X6449974Y1406658D01*
X6423316Y1380000D01*
Y1353342D01*
X6436645Y1340013D01*
X6463303D01*
X6476632Y1353342D01*
Y1366671D01*
X6463303Y1380000D01*
X6423316D01*
X6543361Y2579987D02*
Y2513342D01*
X6556690Y2500013D01*
X6583349D01*
X6596677Y2513342D01*
Y2579987D01*
X6623335Y2500013D02*
X6649994D01*
X6636665D01*
Y2579987D01*
X6623335Y2566658D01*
X6689981Y2500013D02*
X6716639D01*
X6703310D01*
Y2579987D01*
X6689981Y2566658D01*
X5173355Y3219987D02*
Y3153342D01*
X5186684Y3140013D01*
X5213342D01*
X5226671Y3153342D01*
Y3219987D01*
X5293316Y3140013D02*
Y3219987D01*
X5253329Y3180000D01*
X5306645D01*
X5396684Y4149987D02*
Y4083342D01*
X5410013Y4070013D01*
X5436671D01*
X5450000Y4083342D01*
Y4149987D01*
X5476658Y4070013D02*
X5503316D01*
X5489987D01*
Y4149987D01*
X5476658Y4136658D01*
X4563355Y4099987D02*
Y4033342D01*
X4576684Y4020013D01*
X4603342D01*
X4616671Y4033342D01*
Y4099987D01*
X4696645Y4020013D02*
X4643329D01*
X4696645Y4073329D01*
Y4086658D01*
X4683316Y4099987D01*
X4656658D01*
X4643329Y4086658D01*
X5533368Y3429987D02*
X5586684D01*
X5560026D01*
Y3350013D01*
X5613342D02*
Y3429987D01*
X5653329D01*
X5666658Y3416658D01*
Y3390000D01*
X5653329Y3376671D01*
X5613342D01*
X5733303Y3350013D02*
Y3429987D01*
X5693316Y3390000D01*
X5746632D01*
X5863368Y4389987D02*
X5916684D01*
X5890026D01*
Y4310013D01*
X5943342D02*
Y4389987D01*
X5983329D01*
X5996658Y4376658D01*
Y4350000D01*
X5983329Y4336671D01*
X5943342D01*
X6023316Y4376658D02*
X6036645Y4389987D01*
X6063303D01*
X6076632Y4376658D01*
Y4363329D01*
X6063303Y4350000D01*
X6049974D01*
X6063303D01*
X6076632Y4336671D01*
Y4323342D01*
X6063303Y4310013D01*
X6036645D01*
X6023316Y4323342D01*
X5786697Y3859987D02*
X5840013D01*
X5813355D01*
Y3780013D01*
X5866671D02*
Y3859987D01*
X5906658D01*
X5919987Y3846658D01*
Y3820000D01*
X5906658Y3806671D01*
X5866671D01*
X5946645Y3780013D02*
X5973303D01*
X5959974D01*
Y3859987D01*
X5946645Y3846658D01*
X5403368Y4429987D02*
X5456684D01*
X5430026D01*
Y4350013D01*
X5483342D02*
Y4429987D01*
X5523329D01*
X5536658Y4416658D01*
Y4390000D01*
X5523329Y4376671D01*
X5483342D01*
X5616632Y4350013D02*
X5563316D01*
X5616632Y4403329D01*
Y4416658D01*
X5603303Y4429987D01*
X5576645D01*
X5563316Y4416658D01*
D125*
X6740000Y4520000D02*
Y4545000D01*
X6810000D01*
X7000000Y4235000D02*
Y4260000D01*
X6947500Y4235000D02*
X7000000D01*
X6740000D02*
Y4260000D01*
Y4235000D02*
X6792500D01*
X7000000Y4520000D02*
Y4545000D01*
X6930000D02*
X7000000D01*
X3789711Y2710000D02*
X3795000D01*
X3815000D02*
X3820094D01*
X7424998Y4635001D02*
X7494998D01*
Y4610001D02*
Y4635001D01*
X7234998Y4325001D02*
X7287498D01*
X7234998D02*
Y4350001D01*
X7442498Y4325001D02*
X7494998D01*
Y4350001D01*
X7234998Y4635001D02*
X7304998D01*
X7234998Y4610001D02*
Y4635001D01*
X2561356Y4033889D02*
X2561543D01*
X3518235Y2769233D02*
Y2769420D01*
X3931766Y3700580D02*
Y3700767D01*
X5318234Y2769233D02*
Y2769420D01*
X5388235Y3389233D02*
Y3389420D01*
X5751765Y4220580D02*
Y4220767D01*
X5381765Y4220580D02*
Y4220767D01*
X5741766Y3650580D02*
Y3650767D01*
X2230000Y1590000D02*
Y1599423D01*
Y1539894D02*
X2230122Y1539772D01*
X2230000Y1539894D02*
Y1550000D01*
X2190000D02*
X2270000D01*
X2190000Y1590000D02*
X2230000Y1550000D01*
X2270000Y1590000D01*
X2190000D02*
X2270000D01*
X2230000Y1550000D02*
Y1590000D01*
X2640000Y2120000D02*
Y2129423D01*
Y2069894D02*
X2640122Y2069772D01*
X2640000Y2069894D02*
Y2080000D01*
X2600000D02*
X2680000D01*
X2600000Y2120000D02*
X2640000Y2080000D01*
X2680000Y2120000D01*
X2600000D02*
X2680000D01*
X2640000Y2080000D02*
Y2120000D01*
X5660000Y1110577D02*
Y1120000D01*
X5659878Y1170228D02*
X5660000Y1170106D01*
Y1160000D02*
Y1170106D01*
X5620000Y1160000D02*
X5700000D01*
X5660000D02*
X5700000Y1120000D01*
X5620000D02*
X5660000Y1160000D01*
X5620000Y1120000D02*
X5700000D01*
X5660000D02*
Y1160000D01*
X5030000Y1530000D02*
Y1539423D01*
Y1479894D02*
X5030122Y1479772D01*
X5030000Y1479894D02*
Y1490000D01*
X4990000D02*
X5070000D01*
X4990000Y1530000D02*
X5030000Y1490000D01*
X5070000Y1530000D01*
X4990000D02*
X5070000D01*
X5030000Y1490000D02*
Y1530000D01*
X2090000Y1590000D02*
Y1599423D01*
Y1539894D02*
X2090122Y1539772D01*
X2090000Y1539894D02*
Y1550000D01*
X2050000D02*
X2130000D01*
X2050000Y1590000D02*
X2090000Y1550000D01*
X2130000Y1590000D01*
X2050000D02*
X2130000D01*
X2090000Y1550000D02*
Y1590000D01*
X2170000Y1270577D02*
Y1280000D01*
X2169878Y1330228D02*
X2170000Y1330106D01*
Y1320000D02*
Y1330106D01*
X2130000Y1320000D02*
X2210000D01*
X2170000D02*
X2210000Y1280000D01*
X2130000D02*
X2170000Y1320000D01*
X2130000Y1280000D02*
X2210000D01*
X2170000D02*
Y1320000D01*
X6624711Y840000D02*
X6630000D01*
X6650000D02*
X6655094D01*
X7254711Y670000D02*
X7260000D01*
X7280000D02*
X7285094D01*
X7254711Y1870000D02*
X7260000D01*
X7280000D02*
X7285094D01*
X6950000Y4714711D02*
Y4720000D01*
Y4740000D02*
Y4745094D01*
X6834711Y2270000D02*
X6840000D01*
X6860000D02*
X6865094D01*
X7060000Y1870000D02*
X7065289D01*
X7034906D02*
X7040000D01*
X4020000Y2350000D02*
X4025289D01*
X3994906D02*
X4000000D01*
X2670000Y1875000D02*
Y1880289D01*
Y1849906D02*
Y1855000D01*
X6839711Y859999D02*
X6845000D01*
X6865000D02*
X6870094D01*
X6824711Y1390000D02*
X6830000D01*
X6850000D02*
X6855094D01*
X7390000Y4780000D02*
X7395289D01*
X7364906D02*
X7370000D01*
X7070000Y3644711D02*
Y3650000D01*
Y3670000D02*
Y3675094D01*
X6650000Y3574711D02*
Y3580000D01*
Y3600000D02*
Y3605094D01*
X7254711Y3190000D02*
X7260000D01*
X7280000D02*
X7285094D01*
X7254711Y880000D02*
X7260000D01*
X7280000D02*
X7285094D01*
X7254711Y1990000D02*
X7260000D01*
X7280000D02*
X7285094D01*
X7254711Y2370000D02*
X7260000D01*
X7280000D02*
X7285094D01*
X7034711Y1410000D02*
X7040000D01*
X7060000D02*
X7065094D01*
X7930000Y3150000D02*
Y3155289D01*
Y3124906D02*
Y3130000D01*
X8304711Y2580000D02*
X8310000D01*
X8330000D02*
X8335094D01*
X7890000Y380000D02*
Y385289D01*
Y354906D02*
Y360000D01*
X7910000Y5030000D02*
Y5035289D01*
Y5004906D02*
Y5010000D01*
X3920000Y920000D02*
X3925289D01*
X3894906D02*
X3900000D01*
X3544711Y1660000D02*
X3550000D01*
X3570000D02*
X3575094D01*
X3534711Y1790000D02*
X3540000D01*
X3560000D02*
X3565094D01*
X3840000Y1280000D02*
Y1285289D01*
Y1254906D02*
Y1260000D01*
X3220000Y1334711D02*
Y1340000D01*
Y1360000D02*
Y1365094D01*
X4060000Y1290000D02*
Y1295289D01*
Y1264906D02*
Y1270000D01*
X7060000Y3189999D02*
X7065289D01*
X7034907D02*
X7040000D01*
X3280000Y1090000D02*
X3285289D01*
X3254906D02*
X3260000D01*
X3254711Y1190000D02*
X3260000D01*
X3280000D02*
X3285094D01*
X3764711Y2380000D02*
X3770000D01*
X3790000D02*
X3795094D01*
X5050000Y2230000D02*
X5055289D01*
X5024906D02*
X5030000D01*
X5540000Y1104711D02*
Y1110000D01*
Y1130000D02*
Y1135094D01*
X5550000Y2000000D02*
Y2005289D01*
Y1974906D02*
Y1980000D01*
X4880000Y1990000D02*
Y1995289D01*
Y1964906D02*
Y1970000D01*
X3660000Y4704711D02*
Y4710000D01*
Y4730000D02*
Y4735094D01*
X4920000Y1520000D02*
Y1525289D01*
Y1494906D02*
Y1500000D01*
X1854711Y1350000D02*
X1860000D01*
X1880000D02*
X1885094D01*
X2630000Y2340000D02*
Y2345289D01*
Y2314906D02*
Y2320000D01*
X3430000Y2410000D02*
X3435289D01*
X3404906D02*
X3410000D01*
X6174711Y1970000D02*
X6180000D01*
X6200000D02*
X6205094D01*
X6174711Y2070000D02*
X6180000D01*
X6200000D02*
X6205094D01*
X6400000D02*
X6405289D01*
X6374906D02*
X6380000D01*
X8084711Y2840000D02*
X8090000D01*
X8110000D02*
X8115094D01*
X7870000Y4174711D02*
Y4180000D01*
Y4200000D02*
Y4205094D01*
X6650000Y3834711D02*
Y3840000D01*
Y3860000D02*
Y3865094D01*
X6624712Y3189999D02*
X6630000D01*
X6650000D02*
X6655094D01*
X6624712Y2640000D02*
X6630000D01*
X6650000D02*
X6655094D01*
X6624712Y1839999D02*
X6630000D01*
X6650000D02*
X6655094D01*
X6624711Y1430000D02*
X6630000D01*
X6650000D02*
X6655094D01*
X6824711Y1680000D02*
X6830000D01*
X6850000D02*
X6855094D01*
X6834711Y2600000D02*
X6840000D01*
X6860000D02*
X6865094D01*
X6174711Y1870000D02*
X6180000D01*
X6200000D02*
X6205094D01*
X5750000Y3500000D02*
Y3505289D01*
Y3474906D02*
Y3480000D01*
X3040000Y3790000D02*
X3045289D01*
X3014906D02*
X3020000D01*
X2814711D02*
X2820000D01*
X2840000D02*
X2845094D01*
X3434711Y3330000D02*
X3440000D01*
X3460000D02*
X3465094D01*
X3434711Y3230000D02*
X3440000D01*
X3460000D02*
X3465094D01*
X4380000Y3190000D02*
X4385289D01*
X4354906D02*
X4360000D01*
X4380000Y3290000D02*
X4385289D01*
X4354906D02*
X4360000D01*
X3314711Y4290000D02*
X3320000D01*
X3340000D02*
X3345094D01*
X3514711D02*
X3520000D01*
X3540000D02*
X3545093D01*
X3400000Y2030000D02*
X3405289D01*
X3374906D02*
X3380000D01*
X4400000Y4244711D02*
Y4250000D01*
Y4270000D02*
Y4275094D01*
X3200000Y3024711D02*
Y3030000D01*
Y3050000D02*
Y3055094D01*
Y3250000D02*
Y3255289D01*
Y3224906D02*
Y3230000D01*
X2780000Y3034711D02*
Y3040000D01*
Y3060000D02*
Y3065094D01*
Y3260000D02*
Y3265289D01*
Y3234906D02*
Y3240000D01*
X3350000Y3464711D02*
Y3470000D01*
Y3490000D02*
Y3495094D01*
X2814711Y3430000D02*
X2820000D01*
X2840000D02*
X2845094D01*
X4300000Y3570000D02*
X4305289D01*
X4274906D02*
X4280000D01*
X4430000Y3520000D02*
Y3525289D01*
Y3494906D02*
Y3500000D01*
X3434711Y2960000D02*
X3440000D01*
X3460000D02*
X3465094D01*
X4300000Y3770000D02*
X4305289D01*
X4274906D02*
X4280000D01*
X4300000Y3670000D02*
X4305289D01*
X4274906D02*
X4280000D01*
X3410000Y3630000D02*
X3415289D01*
X3384906D02*
X3390000D01*
X2780000Y2824711D02*
Y2830000D01*
Y2850000D02*
Y2855094D01*
X2814711Y3530000D02*
X2820000D01*
X2840000D02*
X2845094D01*
X3580000Y3864711D02*
Y3870000D01*
Y3890000D02*
Y3895094D01*
X2780000Y4270000D02*
Y4275289D01*
Y4244906D02*
Y4250000D01*
X3040000Y4210000D02*
X3045289D01*
X3014906D02*
X3020000D01*
X3370000Y3870000D02*
Y3875289D01*
Y3844906D02*
Y3850000D01*
X4380000Y2830000D02*
X4385289D01*
X4354906D02*
X4360000D01*
X5830000Y2730000D02*
X5835289D01*
X5804906D02*
X5810000D01*
X5830000Y2830000D02*
X5835289D01*
X5804906D02*
X5810000D01*
X4830000Y2840000D02*
Y2845289D01*
Y2814906D02*
Y2820000D01*
X4930000Y2840000D02*
Y2845289D01*
Y2814906D02*
Y2820000D01*
X6060000Y3090000D02*
X6065289D01*
X6034906D02*
X6040000D01*
X6060000Y3190000D02*
X6065289D01*
X6034906D02*
X6040000D01*
X6234711Y3090000D02*
X6240000D01*
X6260000D02*
X6265094D01*
X6234711Y3190000D02*
X6240000D01*
X6260000D02*
X6265094D01*
X5190000Y3754711D02*
Y3760000D01*
Y3780000D02*
Y3785094D01*
X5290000Y3754711D02*
Y3760000D01*
Y3780000D02*
Y3785094D01*
X4910000Y3644711D02*
Y3650000D01*
Y3670000D02*
Y3675094D01*
X4940000Y3510000D02*
X4945289D01*
X4914906D02*
X4920000D01*
X5830000Y3070000D02*
X5835289D01*
X5804906D02*
X5810000D01*
X6124711Y3860000D02*
X6130000D01*
X6150000D02*
X6155094D01*
X5100000Y3644711D02*
Y3650000D01*
Y3670000D02*
Y3675093D01*
X5010000Y3670000D02*
Y3675289D01*
Y3644906D02*
Y3650000D01*
X5830000Y3974711D02*
Y3980000D01*
Y4000000D02*
Y4005094D01*
X4820000Y3290000D02*
Y3295289D01*
Y3264906D02*
Y3270000D01*
X5130000Y3984711D02*
Y3990000D01*
Y4010000D02*
Y4015094D01*
D126*
X4090000Y4470000D02*
X4285000D01*
X2645000Y2830000D02*
Y3025000D01*
Y3415000D02*
Y3620000D01*
Y4010000D02*
Y4205000D01*
X2910000Y4470000D02*
X3105000D01*
X3495000D02*
X3700000D01*
X4550000Y4010000D02*
Y4205000D01*
Y3415000D02*
Y3620000D01*
Y2830000D02*
Y3025000D01*
X4090000Y2565000D02*
X4285000D01*
X3495000D02*
X3700000D01*
X2910000D02*
X3105000D01*
X4820000D02*
X5015000D01*
X5405000D02*
X5610000D01*
X6000000D02*
X6195000D01*
X6460000Y2830000D02*
Y3025000D01*
Y3415000D02*
Y3620000D01*
Y4010000D02*
Y4205000D01*
X5405000Y4470000D02*
X5610000D01*
X4820000D02*
X5015000D01*
X6000000D02*
X6195000D01*
X1520005Y4620000D02*
X1660004D01*
X1490002Y4430003D02*
Y4580000D01*
X1520005Y4390003D02*
X1660004D01*
X1520005Y4150003D02*
X1660004D01*
X1690002Y4430003D02*
Y4580000D01*
X1490002Y4195002D02*
Y4344999D01*
X1690002Y4195002D02*
Y4344999D01*
X1390002Y4195002D02*
Y4344999D01*
X1190003Y4195002D02*
Y4344999D01*
X1390002Y4430003D02*
Y4580000D01*
X1220000Y4150003D02*
X1360005D01*
X1220000Y4390003D02*
X1360005D01*
X1190003Y4430003D02*
Y4580000D01*
X1220000Y4620000D02*
X1360005D01*
X7790000Y2860000D02*
Y2993290D01*
X7856645Y3059935D01*
X7923290Y2993290D01*
Y2860000D01*
Y2959968D01*
X7790000D01*
X7800000Y2599936D02*
Y2400000D01*
X7899968D01*
X7933290Y2433323D01*
Y2466645D01*
X7899968Y2499968D01*
X7800000D01*
X7899968D01*
X7933290Y2533290D01*
Y2566613D01*
X7899968Y2599936D01*
X7800000D01*
%TF.MD5,0ee7408ddc34b2d4812d7ad1e4984c43*%
M02*
