%TF.GenerationSoftware,Altium Limited,Altium Designer,22.9.1 (49)*%
G04 Layer_Color=8388736*
%FSLAX45Y45*%
%MOMM*%
%TF.SameCoordinates,1DF69D78-5120-4B12-B4B9-43D88C5B1DD9*%
%TF.FilePolarity,Negative*%
%TF.FileFunction,Soldermask,Top*%
%TF.Part,Single*%
G01*
G75*
%TA.AperFunction,ComponentPad*%
G04:AMPARAMS|DCode=132|XSize=1.78mm|YSize=2.18mm|CornerRadius=0mm|HoleSize=0mm|Usage=FLASHONLY|Rotation=270.000|XOffset=0mm|YOffset=0mm|HoleType=Round|Shape=Octagon|*
%AMOCTAGOND132*
4,1,8,1.09000,0.44500,1.09000,-0.44500,0.64500,-0.89000,-0.64500,-0.89000,-1.09000,-0.44500,-1.09000,0.44500,-0.64500,0.89000,0.64500,0.89000,1.09000,0.44500,0.0*
%
%ADD132OCTAGOND132*%

G04:AMPARAMS|DCode=133|XSize=1.78mm|YSize=2.18mm|CornerRadius=0.465mm|HoleSize=0mm|Usage=FLASHONLY|Rotation=270.000|XOffset=0mm|YOffset=0mm|HoleType=Round|Shape=RoundedRectangle|*
%AMROUNDEDRECTD133*
21,1,1.78000,1.25001,0,0,270.0*
21,1,0.85000,2.18000,0,0,270.0*
1,1,0.93000,-0.62500,-0.42500*
1,1,0.93000,-0.62500,0.42500*
1,1,0.93000,0.62500,0.42500*
1,1,0.93000,0.62500,-0.42500*
%
%ADD133ROUNDEDRECTD133*%
G04:AMPARAMS|DCode=134|XSize=1.78mm|YSize=2.18mm|CornerRadius=0mm|HoleSize=0mm|Usage=FLASHONLY|Rotation=0.000|XOffset=0mm|YOffset=0mm|HoleType=Round|Shape=Octagon|*
%AMOCTAGOND134*
4,1,8,-0.44500,1.09000,0.44500,1.09000,0.89000,0.64500,0.89000,-0.64500,0.44500,-1.09000,-0.44500,-1.09000,-0.89000,-0.64500,-0.89000,0.64500,-0.44500,1.09000,0.0*
%
%ADD134OCTAGOND134*%

G04:AMPARAMS|DCode=135|XSize=1.78mm|YSize=2.18mm|CornerRadius=0.465mm|HoleSize=0mm|Usage=FLASHONLY|Rotation=0.000|XOffset=0mm|YOffset=0mm|HoleType=Round|Shape=RoundedRectangle|*
%AMROUNDEDRECTD135*
21,1,1.78000,1.25001,0,0,0.0*
21,1,0.85000,2.18000,0,0,0.0*
1,1,0.93000,0.42500,-0.62500*
1,1,0.93000,-0.42500,-0.62500*
1,1,0.93000,-0.42500,0.62500*
1,1,0.93000,0.42500,0.62500*
%
%ADD135ROUNDEDRECTD135*%
G04:AMPARAMS|DCode=136|XSize=1.88mm|YSize=1.53mm|CornerRadius=0.4025mm|HoleSize=0mm|Usage=FLASHONLY|Rotation=180.000|XOffset=0mm|YOffset=0mm|HoleType=Round|Shape=RoundedRectangle|*
%AMROUNDEDRECTD136*
21,1,1.88000,0.72500,0,0,180.0*
21,1,1.07500,1.53000,0,0,180.0*
1,1,0.80500,-0.53750,0.36250*
1,1,0.80500,0.53750,0.36250*
1,1,0.80500,0.53750,-0.36250*
1,1,0.80500,-0.53750,-0.36250*
%
%ADD136ROUNDEDRECTD136*%
G04:AMPARAMS|DCode=137|XSize=4.08mm|YSize=3.68mm|CornerRadius=0.58mm|HoleSize=0mm|Usage=FLASHONLY|Rotation=0.000|XOffset=0mm|YOffset=0mm|HoleType=Round|Shape=RoundedRectangle|*
%AMROUNDEDRECTD137*
21,1,4.08000,2.52000,0,0,0.0*
21,1,2.92000,3.68000,0,0,0.0*
1,1,1.16000,1.46000,-1.26000*
1,1,1.16000,-1.46000,-1.26000*
1,1,1.16000,-1.46000,1.26000*
1,1,1.16000,1.46000,1.26000*
%
%ADD137ROUNDEDRECTD137*%
G04:AMPARAMS|DCode=138|XSize=2.28mm|YSize=2.28mm|CornerRadius=0mm|HoleSize=0mm|Usage=FLASHONLY|Rotation=270.000|XOffset=0mm|YOffset=0mm|HoleType=Round|Shape=Octagon|*
%AMOCTAGOND138*
4,1,8,-0.57000,-1.14000,0.57000,-1.14000,1.14000,-0.57000,1.14000,0.57000,0.57000,1.14000,-0.57000,1.14000,-1.14000,0.57000,-1.14000,-0.57000,-0.57000,-1.14000,0.0*
%
%ADD138OCTAGOND138*%

G04:AMPARAMS|DCode=139|XSize=2.28mm|YSize=2.28mm|CornerRadius=0.59mm|HoleSize=0mm|Usage=FLASHONLY|Rotation=270.000|XOffset=0mm|YOffset=0mm|HoleType=Round|Shape=RoundedRectangle|*
%AMROUNDEDRECTD139*
21,1,2.28000,1.10000,0,0,270.0*
21,1,1.10000,2.28000,0,0,270.0*
1,1,1.18000,-0.55000,-0.55000*
1,1,1.18000,-0.55000,0.55000*
1,1,1.18000,0.55000,0.55000*
1,1,1.18000,0.55000,-0.55000*
%
%ADD139ROUNDEDRECTD139*%
%TA.AperFunction,SMDPad,CuDef*%
%ADD608R,0.66000X0.30000*%
G04:AMPARAMS|DCode=609|XSize=0.3mm|YSize=0.66mm|CornerRadius=0.095mm|HoleSize=0mm|Usage=FLASHONLY|Rotation=90.000|XOffset=0mm|YOffset=0mm|HoleType=Round|Shape=RoundedRectangle|*
%AMROUNDEDRECTD609*
21,1,0.30000,0.47000,0,0,90.0*
21,1,0.11000,0.66000,0,0,90.0*
1,1,0.19000,0.23500,0.05500*
1,1,0.19000,0.23500,-0.05500*
1,1,0.19000,-0.23500,-0.05500*
1,1,0.19000,-0.23500,0.05500*
%
%ADD609ROUNDEDRECTD609*%
G04:AMPARAMS|DCode=610|XSize=0.6mm|YSize=0.28mm|CornerRadius=0mm|HoleSize=0mm|Usage=FLASHONLY|Rotation=135.000|XOffset=0mm|YOffset=0mm|HoleType=Round|Shape=Round|*
%AMOVALD610*
21,1,0.32000,0.28000,0.00000,0.00000,135.0*
1,1,0.28000,0.11314,-0.11314*
1,1,0.28000,-0.11314,0.11314*
%
%ADD610OVALD610*%

%ADD611O,0.28000X0.51000*%
G04:AMPARAMS|DCode=612|XSize=0.6mm|YSize=0.28mm|CornerRadius=0mm|HoleSize=0mm|Usage=FLASHONLY|Rotation=45.000|XOffset=0mm|YOffset=0mm|HoleType=Round|Shape=Round|*
%AMOVALD612*
21,1,0.32000,0.28000,0.00000,0.00000,45.0*
1,1,0.28000,-0.11314,-0.11314*
1,1,0.28000,0.11314,0.11314*
%
%ADD612OVALD612*%

%ADD613O,0.51000X0.28000*%
G04:AMPARAMS|DCode=614|XSize=0.63mm|YSize=0.88mm|CornerRadius=0.1775mm|HoleSize=0mm|Usage=FLASHONLY|Rotation=0.000|XOffset=0mm|YOffset=0mm|HoleType=Round|Shape=RoundedRectangle|*
%AMROUNDEDRECTD614*
21,1,0.63000,0.52500,0,0,0.0*
21,1,0.27500,0.88000,0,0,0.0*
1,1,0.35500,0.13750,-0.26250*
1,1,0.35500,-0.13750,-0.26250*
1,1,0.35500,-0.13750,0.26250*
1,1,0.35500,0.13750,0.26250*
%
%ADD614ROUNDEDRECTD614*%
G04:AMPARAMS|DCode=615|XSize=0.29mm|YSize=0.73mm|CornerRadius=0.0875mm|HoleSize=0mm|Usage=FLASHONLY|Rotation=90.000|XOffset=0mm|YOffset=0mm|HoleType=Round|Shape=RoundedRectangle|*
%AMROUNDEDRECTD615*
21,1,0.29000,0.55500,0,0,90.0*
21,1,0.11500,0.73000,0,0,90.0*
1,1,0.17500,0.27750,0.05750*
1,1,0.17500,0.27750,-0.05750*
1,1,0.17500,-0.27750,-0.05750*
1,1,0.17500,-0.27750,0.05750*
%
%ADD615ROUNDEDRECTD615*%
G04:AMPARAMS|DCode=616|XSize=0.29mm|YSize=0.73mm|CornerRadius=0.0875mm|HoleSize=0mm|Usage=FLASHONLY|Rotation=0.000|XOffset=0mm|YOffset=0mm|HoleType=Round|Shape=RoundedRectangle|*
%AMROUNDEDRECTD616*
21,1,0.29000,0.55500,0,0,0.0*
21,1,0.11500,0.73000,0,0,0.0*
1,1,0.17500,0.05750,-0.27750*
1,1,0.17500,-0.05750,-0.27750*
1,1,0.17500,-0.05750,0.27750*
1,1,0.17500,0.05750,0.27750*
%
%ADD616ROUNDEDRECTD616*%
G04:AMPARAMS|DCode=617|XSize=1.06mm|YSize=1.56mm|CornerRadius=0.28mm|HoleSize=0mm|Usage=FLASHONLY|Rotation=0.000|XOffset=0mm|YOffset=0mm|HoleType=Round|Shape=RoundedRectangle|*
%AMROUNDEDRECTD617*
21,1,1.06000,1.00000,0,0,0.0*
21,1,0.50000,1.56000,0,0,0.0*
1,1,0.56000,0.25000,-0.50000*
1,1,0.56000,-0.25000,-0.50000*
1,1,0.56000,-0.25000,0.50000*
1,1,0.56000,0.25000,0.50000*
%
%ADD617ROUNDEDRECTD617*%
G04:AMPARAMS|DCode=618|XSize=0.29mm|YSize=0.76mm|CornerRadius=0.0875mm|HoleSize=0mm|Usage=FLASHONLY|Rotation=90.000|XOffset=0mm|YOffset=0mm|HoleType=Round|Shape=RoundedRectangle|*
%AMROUNDEDRECTD618*
21,1,0.29000,0.58500,0,0,90.0*
21,1,0.11500,0.76000,0,0,90.0*
1,1,0.17500,0.29250,0.05750*
1,1,0.17500,0.29250,-0.05750*
1,1,0.17500,-0.29250,-0.05750*
1,1,0.17500,-0.29250,0.05750*
%
%ADD618ROUNDEDRECTD618*%
G04:AMPARAMS|DCode=619|XSize=2.56mm|YSize=1.71mm|CornerRadius=0.195mm|HoleSize=0mm|Usage=FLASHONLY|Rotation=90.000|XOffset=0mm|YOffset=0mm|HoleType=Round|Shape=RoundedRectangle|*
%AMROUNDEDRECTD619*
21,1,2.56000,1.32000,0,0,90.0*
21,1,2.17000,1.71000,0,0,90.0*
1,1,0.39000,0.66000,1.08500*
1,1,0.39000,0.66000,-1.08500*
1,1,0.39000,-0.66000,-1.08500*
1,1,0.39000,-0.66000,1.08500*
%
%ADD619ROUNDEDRECTD619*%
%ADD620R,0.76000X0.29000*%
G04:AMPARAMS|DCode=621|XSize=0.41mm|YSize=1.21mm|CornerRadius=0.1175mm|HoleSize=0mm|Usage=FLASHONLY|Rotation=90.000|XOffset=0mm|YOffset=0mm|HoleType=Round|Shape=RoundedRectangle|*
%AMROUNDEDRECTD621*
21,1,0.41000,0.97500,0,0,90.0*
21,1,0.17500,1.21000,0,0,90.0*
1,1,0.23500,0.48750,0.08750*
1,1,0.23500,0.48750,-0.08750*
1,1,0.23500,-0.48750,-0.08750*
1,1,0.23500,-0.48750,0.08750*
%
%ADD621ROUNDEDRECTD621*%
%ADD622R,1.21000X0.41000*%
%ADD623R,0.98000X0.63000*%
G04:AMPARAMS|DCode=624|XSize=0.63mm|YSize=0.98mm|CornerRadius=0.1775mm|HoleSize=0mm|Usage=FLASHONLY|Rotation=90.000|XOffset=0mm|YOffset=0mm|HoleType=Round|Shape=RoundedRectangle|*
%AMROUNDEDRECTD624*
21,1,0.63000,0.62500,0,0,90.0*
21,1,0.27500,0.98000,0,0,90.0*
1,1,0.35500,0.31250,0.13750*
1,1,0.35500,0.31250,-0.13750*
1,1,0.35500,-0.31250,-0.13750*
1,1,0.35500,-0.31250,0.13750*
%
%ADD624ROUNDEDRECTD624*%
%ADD625R,0.63000X0.98000*%
G04:AMPARAMS|DCode=626|XSize=0.63mm|YSize=0.98mm|CornerRadius=0.1775mm|HoleSize=0mm|Usage=FLASHONLY|Rotation=0.000|XOffset=0mm|YOffset=0mm|HoleType=Round|Shape=RoundedRectangle|*
%AMROUNDEDRECTD626*
21,1,0.63000,0.62500,0,0,0.0*
21,1,0.27500,0.98000,0,0,0.0*
1,1,0.35500,0.13750,-0.31250*
1,1,0.35500,-0.13750,-0.31250*
1,1,0.35500,-0.13750,0.31250*
1,1,0.35500,0.13750,0.31250*
%
%ADD626ROUNDEDRECTD626*%
G04:AMPARAMS|DCode=627|XSize=1.46mm|YSize=1.36mm|CornerRadius=0.355mm|HoleSize=0mm|Usage=FLASHONLY|Rotation=90.000|XOffset=0mm|YOffset=0mm|HoleType=Round|Shape=RoundedRectangle|*
%AMROUNDEDRECTD627*
21,1,1.46000,0.65000,0,0,90.0*
21,1,0.75000,1.36000,0,0,90.0*
1,1,0.71000,0.32500,0.37500*
1,1,0.71000,0.32500,-0.37500*
1,1,0.71000,-0.32500,-0.37500*
1,1,0.71000,-0.32500,0.37500*
%
%ADD627ROUNDEDRECTD627*%
G04:AMPARAMS|DCode=628|XSize=0.41mm|YSize=0.78mm|CornerRadius=0.1225mm|HoleSize=0mm|Usage=FLASHONLY|Rotation=270.000|XOffset=0mm|YOffset=0mm|HoleType=Round|Shape=RoundedRectangle|*
%AMROUNDEDRECTD628*
21,1,0.41000,0.53500,0,0,270.0*
21,1,0.16500,0.78000,0,0,270.0*
1,1,0.24500,-0.26750,-0.08250*
1,1,0.24500,-0.26750,0.08250*
1,1,0.24500,0.26750,0.08250*
1,1,0.24500,0.26750,-0.08250*
%
%ADD628ROUNDEDRECTD628*%
%ADD629R,0.78000X0.41000*%
%ADD630R,0.30000X0.75000*%
G04:AMPARAMS|DCode=631|XSize=0.3mm|YSize=0.75mm|CornerRadius=0.0875mm|HoleSize=0mm|Usage=FLASHONLY|Rotation=0.000|XOffset=0mm|YOffset=0mm|HoleType=Round|Shape=RoundedRectangle|*
%AMROUNDEDRECTD631*
21,1,0.30000,0.57500,0,0,0.0*
21,1,0.12500,0.75000,0,0,0.0*
1,1,0.17500,0.06250,-0.28750*
1,1,0.17500,-0.06250,-0.28750*
1,1,0.17500,-0.06250,0.28750*
1,1,0.17500,0.06250,0.28750*
%
%ADD631ROUNDEDRECTD631*%
G04:AMPARAMS|DCode=632|XSize=0.63mm|YSize=0.88mm|CornerRadius=0.1775mm|HoleSize=0mm|Usage=FLASHONLY|Rotation=270.000|XOffset=0mm|YOffset=0mm|HoleType=Round|Shape=RoundedRectangle|*
%AMROUNDEDRECTD632*
21,1,0.63000,0.52500,0,0,270.0*
21,1,0.27500,0.88000,0,0,270.0*
1,1,0.35500,-0.26250,-0.13750*
1,1,0.35500,-0.26250,0.13750*
1,1,0.35500,0.26250,0.13750*
1,1,0.35500,0.26250,-0.13750*
%
%ADD632ROUNDEDRECTD632*%
G04:AMPARAMS|DCode=633|XSize=0.41mm|YSize=1.26mm|CornerRadius=0.1175mm|HoleSize=0mm|Usage=FLASHONLY|Rotation=90.000|XOffset=0mm|YOffset=0mm|HoleType=Round|Shape=RoundedRectangle|*
%AMROUNDEDRECTD633*
21,1,0.41000,1.02500,0,0,90.0*
21,1,0.17500,1.26000,0,0,90.0*
1,1,0.23500,0.51250,0.08750*
1,1,0.23500,0.51250,-0.08750*
1,1,0.23500,-0.51250,-0.08750*
1,1,0.23500,-0.51250,0.08750*
%
%ADD633ROUNDEDRECTD633*%
%ADD634R,1.26000X0.41000*%
%ADD635R,0.91000X0.29000*%
G04:AMPARAMS|DCode=636|XSize=0.29mm|YSize=0.91mm|CornerRadius=0.0875mm|HoleSize=0mm|Usage=FLASHONLY|Rotation=90.000|XOffset=0mm|YOffset=0mm|HoleType=Round|Shape=RoundedRectangle|*
%AMROUNDEDRECTD636*
21,1,0.29000,0.73500,0,0,90.0*
21,1,0.11500,0.91000,0,0,90.0*
1,1,0.17500,0.36750,0.05750*
1,1,0.17500,0.36750,-0.05750*
1,1,0.17500,-0.36750,-0.05750*
1,1,0.17500,-0.36750,0.05750*
%
%ADD636ROUNDEDRECTD636*%
G04:AMPARAMS|DCode=637|XSize=2.61mm|YSize=1.16mm|CornerRadius=0.305mm|HoleSize=0mm|Usage=FLASHONLY|Rotation=90.000|XOffset=0mm|YOffset=0mm|HoleType=Round|Shape=RoundedRectangle|*
%AMROUNDEDRECTD637*
21,1,2.61000,0.55000,0,0,90.0*
21,1,2.00000,1.16000,0,0,90.0*
1,1,0.61000,0.27500,1.00000*
1,1,0.61000,0.27500,-1.00000*
1,1,0.61000,-0.27500,-1.00000*
1,1,0.61000,-0.27500,1.00000*
%
%ADD637ROUNDEDRECTD637*%
G04:AMPARAMS|DCode=638|XSize=0.41mm|YSize=1.21mm|CornerRadius=0.1175mm|HoleSize=0mm|Usage=FLASHONLY|Rotation=180.000|XOffset=0mm|YOffset=0mm|HoleType=Round|Shape=RoundedRectangle|*
%AMROUNDEDRECTD638*
21,1,0.41000,0.97500,0,0,180.0*
21,1,0.17500,1.21000,0,0,180.0*
1,1,0.23500,-0.08750,0.48750*
1,1,0.23500,0.08750,0.48750*
1,1,0.23500,0.08750,-0.48750*
1,1,0.23500,-0.08750,-0.48750*
%
%ADD638ROUNDEDRECTD638*%
%ADD639R,0.41000X1.21000*%
%ADD640R,0.29000X0.91000*%
G04:AMPARAMS|DCode=641|XSize=0.29mm|YSize=0.91mm|CornerRadius=0.0875mm|HoleSize=0mm|Usage=FLASHONLY|Rotation=0.000|XOffset=0mm|YOffset=0mm|HoleType=Round|Shape=RoundedRectangle|*
%AMROUNDEDRECTD641*
21,1,0.29000,0.73500,0,0,0.0*
21,1,0.11500,0.91000,0,0,0.0*
1,1,0.17500,0.05750,-0.36750*
1,1,0.17500,-0.05750,-0.36750*
1,1,0.17500,-0.05750,0.36750*
1,1,0.17500,0.05750,0.36750*
%
%ADD641ROUNDEDRECTD641*%
G04:AMPARAMS|DCode=642|XSize=2.61mm|YSize=1.16mm|CornerRadius=0.305mm|HoleSize=0mm|Usage=FLASHONLY|Rotation=0.000|XOffset=0mm|YOffset=0mm|HoleType=Round|Shape=RoundedRectangle|*
%AMROUNDEDRECTD642*
21,1,2.61000,0.55000,0,0,0.0*
21,1,2.00000,1.16000,0,0,0.0*
1,1,0.61000,1.00000,-0.27500*
1,1,0.61000,-1.00000,-0.27500*
1,1,0.61000,-1.00000,0.27500*
1,1,0.61000,1.00000,0.27500*
%
%ADD642ROUNDEDRECTD642*%
%ADD643O,0.88000X0.68000*%
%ADD644O,0.68000X0.88000*%
G04:AMPARAMS|DCode=645|XSize=0.68mm|YSize=0.78mm|CornerRadius=0.19mm|HoleSize=0mm|Usage=FLASHONLY|Rotation=0.000|XOffset=0mm|YOffset=0mm|HoleType=Round|Shape=RoundedRectangle|*
%AMROUNDEDRECTD645*
21,1,0.68000,0.40000,0,0,0.0*
21,1,0.30000,0.78000,0,0,0.0*
1,1,0.38000,0.15000,-0.20000*
1,1,0.38000,-0.15000,-0.20000*
1,1,0.38000,-0.15000,0.20000*
1,1,0.38000,0.15000,0.20000*
%
%ADD645ROUNDEDRECTD645*%
G04:AMPARAMS|DCode=646|XSize=0.68mm|YSize=0.68mm|CornerRadius=0.19mm|HoleSize=0mm|Usage=FLASHONLY|Rotation=270.000|XOffset=0mm|YOffset=0mm|HoleType=Round|Shape=RoundedRectangle|*
%AMROUNDEDRECTD646*
21,1,0.68000,0.30000,0,0,270.0*
21,1,0.30000,0.68000,0,0,270.0*
1,1,0.38000,-0.15000,-0.15000*
1,1,0.38000,-0.15000,0.15000*
1,1,0.38000,0.15000,0.15000*
1,1,0.38000,0.15000,-0.15000*
%
%ADD646ROUNDEDRECTD646*%
G04:AMPARAMS|DCode=647|XSize=0.68mm|YSize=0.68mm|CornerRadius=0.19mm|HoleSize=0mm|Usage=FLASHONLY|Rotation=0.000|XOffset=0mm|YOffset=0mm|HoleType=Round|Shape=RoundedRectangle|*
%AMROUNDEDRECTD647*
21,1,0.68000,0.30000,0,0,0.0*
21,1,0.30000,0.68000,0,0,0.0*
1,1,0.38000,0.15000,-0.15000*
1,1,0.38000,-0.15000,-0.15000*
1,1,0.38000,-0.15000,0.15000*
1,1,0.38000,0.15000,0.15000*
%
%ADD647ROUNDEDRECTD647*%
%ADD648R,0.54000X1.00000*%
%ADD649O,1.78000X0.38000*%
%ADD650R,1.00000X0.54000*%
%ADD651O,0.38000X1.78000*%
G04:AMPARAMS|DCode=652|XSize=1.88mm|YSize=0.71mm|CornerRadius=0.1975mm|HoleSize=0mm|Usage=FLASHONLY|Rotation=180.000|XOffset=0mm|YOffset=0mm|HoleType=Round|Shape=RoundedRectangle|*
%AMROUNDEDRECTD652*
21,1,1.88000,0.31500,0,0,180.0*
21,1,1.48500,0.71000,0,0,180.0*
1,1,0.39500,-0.74250,0.15750*
1,1,0.39500,0.74250,0.15750*
1,1,0.39500,0.74250,-0.15750*
1,1,0.39500,-0.74250,-0.15750*
%
%ADD652ROUNDEDRECTD652*%
G04:AMPARAMS|DCode=653|XSize=1.88mm|YSize=0.8mm|CornerRadius=0.22mm|HoleSize=0mm|Usage=FLASHONLY|Rotation=180.000|XOffset=0mm|YOffset=0mm|HoleType=Round|Shape=RoundedRectangle|*
%AMROUNDEDRECTD653*
21,1,1.88000,0.36000,0,0,180.0*
21,1,1.44000,0.80000,0,0,180.0*
1,1,0.44000,-0.72000,0.18000*
1,1,0.44000,0.72000,0.18000*
1,1,0.44000,0.72000,-0.18000*
1,1,0.44000,-0.72000,-0.18000*
%
%ADD653ROUNDEDRECTD653*%
G04:AMPARAMS|DCode=654|XSize=1.88mm|YSize=0.88mm|CornerRadius=0.24mm|HoleSize=0mm|Usage=FLASHONLY|Rotation=180.000|XOffset=0mm|YOffset=0mm|HoleType=Round|Shape=RoundedRectangle|*
%AMROUNDEDRECTD654*
21,1,1.88000,0.40000,0,0,180.0*
21,1,1.40000,0.88000,0,0,180.0*
1,1,0.48000,-0.70000,0.20000*
1,1,0.48000,0.70000,0.20000*
1,1,0.48000,0.70000,-0.20000*
1,1,0.48000,-0.70000,-0.20000*
%
%ADD654ROUNDEDRECTD654*%
G04:AMPARAMS|DCode=655|XSize=3.08mm|YSize=1.08mm|CornerRadius=0.29mm|HoleSize=0mm|Usage=FLASHONLY|Rotation=90.000|XOffset=0mm|YOffset=0mm|HoleType=Round|Shape=RoundedRectangle|*
%AMROUNDEDRECTD655*
21,1,3.08000,0.50000,0,0,90.0*
21,1,2.50000,1.08000,0,0,90.0*
1,1,0.58000,0.25000,1.25000*
1,1,0.58000,0.25000,-1.25000*
1,1,0.58000,-0.25000,-1.25000*
1,1,0.58000,-0.25000,1.25000*
%
%ADD655ROUNDEDRECTD655*%
%TA.AperFunction,SMDPad,SMDef*%
G04:AMPARAMS|DCode=656|XSize=3.6mm|YSize=0.8mm|CornerRadius=0.15mm|HoleSize=0mm|Usage=FLASHONLY|Rotation=90.000|XOffset=0mm|YOffset=0mm|HoleType=Round|Shape=RoundedRectangle|*
%AMROUNDEDRECTD656*
21,1,3.60000,0.50000,0,0,90.0*
21,1,3.30000,0.80000,0,0,90.0*
1,1,0.30000,0.25000,1.65000*
1,1,0.30000,0.25000,-1.65000*
1,1,0.30000,-0.25000,-1.65000*
1,1,0.30000,-0.25000,1.65000*
%
%ADD656ROUNDEDRECTD656*%
%TA.AperFunction,SMDPad,CuDef*%
G04:AMPARAMS|DCode=657|XSize=1.68mm|YSize=1.08mm|CornerRadius=0.29mm|HoleSize=0mm|Usage=FLASHONLY|Rotation=180.000|XOffset=0mm|YOffset=0mm|HoleType=Round|Shape=RoundedRectangle|*
%AMROUNDEDRECTD657*
21,1,1.68000,0.50000,0,0,180.0*
21,1,1.10000,1.08000,0,0,180.0*
1,1,0.58000,-0.55000,0.25000*
1,1,0.58000,0.55000,0.25000*
1,1,0.58000,0.55000,-0.25000*
1,1,0.58000,-0.55000,-0.25000*
%
%ADD657ROUNDEDRECTD657*%
G04:AMPARAMS|DCode=658|XSize=3.08mm|YSize=1.08mm|CornerRadius=0.29mm|HoleSize=0mm|Usage=FLASHONLY|Rotation=0.000|XOffset=0mm|YOffset=0mm|HoleType=Round|Shape=RoundedRectangle|*
%AMROUNDEDRECTD658*
21,1,3.08000,0.50000,0,0,0.0*
21,1,2.50000,1.08000,0,0,0.0*
1,1,0.58000,1.25000,-0.25000*
1,1,0.58000,-1.25000,-0.25000*
1,1,0.58000,-1.25000,0.25000*
1,1,0.58000,1.25000,0.25000*
%
%ADD658ROUNDEDRECTD658*%
%TA.AperFunction,SMDPad,SMDef*%
G04:AMPARAMS|DCode=659|XSize=3.596mm|YSize=0.796mm|CornerRadius=0.148mm|HoleSize=0mm|Usage=FLASHONLY|Rotation=0.000|XOffset=0mm|YOffset=0mm|HoleType=Round|Shape=RoundedRectangle|*
%AMROUNDEDRECTD659*
21,1,3.59600,0.50000,0,0,0.0*
21,1,3.30000,0.79600,0,0,0.0*
1,1,0.29600,1.65000,-0.25000*
1,1,0.29600,-1.65000,-0.25000*
1,1,0.29600,-1.65000,0.25000*
1,1,0.29600,1.65000,0.25000*
%
%ADD659ROUNDEDRECTD659*%
G04:AMPARAMS|DCode=660|XSize=3.6mm|YSize=0.8mm|CornerRadius=0.15mm|HoleSize=0mm|Usage=FLASHONLY|Rotation=0.000|XOffset=0mm|YOffset=0mm|HoleType=Round|Shape=RoundedRectangle|*
%AMROUNDEDRECTD660*
21,1,3.60000,0.50000,0,0,0.0*
21,1,3.30000,0.80000,0,0,0.0*
1,1,0.30000,1.65000,-0.25000*
1,1,0.30000,-1.65000,-0.25000*
1,1,0.30000,-1.65000,0.25000*
1,1,0.30000,1.65000,0.25000*
%
%ADD660ROUNDEDRECTD660*%
%TA.AperFunction,SMDPad,CuDef*%
G04:AMPARAMS|DCode=661|XSize=1.68mm|YSize=1.08mm|CornerRadius=0.29mm|HoleSize=0mm|Usage=FLASHONLY|Rotation=90.000|XOffset=0mm|YOffset=0mm|HoleType=Round|Shape=RoundedRectangle|*
%AMROUNDEDRECTD661*
21,1,1.68000,0.50000,0,0,90.0*
21,1,1.10000,1.08000,0,0,90.0*
1,1,0.58000,0.25000,0.55000*
1,1,0.58000,0.25000,-0.55000*
1,1,0.58000,-0.25000,-0.55000*
1,1,0.58000,-0.25000,0.55000*
%
%ADD661ROUNDEDRECTD661*%
G04:AMPARAMS|DCode=662|XSize=2.88mm|YSize=1.38mm|CornerRadius=0.365mm|HoleSize=0mm|Usage=FLASHONLY|Rotation=90.000|XOffset=0mm|YOffset=0mm|HoleType=Round|Shape=RoundedRectangle|*
%AMROUNDEDRECTD662*
21,1,2.88000,0.65000,0,0,90.0*
21,1,2.15000,1.38000,0,0,90.0*
1,1,0.73000,0.32500,1.07500*
1,1,0.73000,0.32500,-1.07500*
1,1,0.73000,-0.32500,-1.07500*
1,1,0.73000,-0.32500,1.07500*
%
%ADD662ROUNDEDRECTD662*%
G04:AMPARAMS|DCode=663|XSize=2.88mm|YSize=1.38mm|CornerRadius=0.365mm|HoleSize=0mm|Usage=FLASHONLY|Rotation=0.000|XOffset=0mm|YOffset=0mm|HoleType=Round|Shape=RoundedRectangle|*
%AMROUNDEDRECTD663*
21,1,2.88000,0.65000,0,0,0.0*
21,1,2.15000,1.38000,0,0,0.0*
1,1,0.73000,1.07500,-0.32500*
1,1,0.73000,-1.07500,-0.32500*
1,1,0.73000,-1.07500,0.32500*
1,1,0.73000,1.07500,0.32500*
%
%ADD663ROUNDEDRECTD663*%
G04:AMPARAMS|DCode=664|XSize=0.98mm|YSize=0.88mm|CornerRadius=0.24mm|HoleSize=0mm|Usage=FLASHONLY|Rotation=0.000|XOffset=0mm|YOffset=0mm|HoleType=Round|Shape=RoundedRectangle|*
%AMROUNDEDRECTD664*
21,1,0.98000,0.40000,0,0,0.0*
21,1,0.50000,0.88000,0,0,0.0*
1,1,0.48000,0.25000,-0.20000*
1,1,0.48000,-0.25000,-0.20000*
1,1,0.48000,-0.25000,0.20000*
1,1,0.48000,0.25000,0.20000*
%
%ADD664ROUNDEDRECTD664*%
G04:AMPARAMS|DCode=665|XSize=0.88mm|YSize=0.88mm|CornerRadius=0.24mm|HoleSize=0mm|Usage=FLASHONLY|Rotation=90.000|XOffset=0mm|YOffset=0mm|HoleType=Round|Shape=RoundedRectangle|*
%AMROUNDEDRECTD665*
21,1,0.88000,0.40000,0,0,90.0*
21,1,0.40000,0.88000,0,0,90.0*
1,1,0.48000,0.20000,0.20000*
1,1,0.48000,0.20000,-0.20000*
1,1,0.48000,-0.20000,-0.20000*
1,1,0.48000,-0.20000,0.20000*
%
%ADD665ROUNDEDRECTD665*%
%ADD666R,0.88000X0.88000*%
G04:AMPARAMS|DCode=667|XSize=0.58mm|YSize=0.78mm|CornerRadius=0.165mm|HoleSize=0mm|Usage=FLASHONLY|Rotation=180.000|XOffset=0mm|YOffset=0mm|HoleType=Round|Shape=RoundedRectangle|*
%AMROUNDEDRECTD667*
21,1,0.58000,0.45000,0,0,180.0*
21,1,0.25000,0.78000,0,0,180.0*
1,1,0.33000,-0.12500,0.22500*
1,1,0.33000,0.12500,0.22500*
1,1,0.33000,0.12500,-0.22500*
1,1,0.33000,-0.12500,-0.22500*
%
%ADD667ROUNDEDRECTD667*%
%ADD668R,0.58000X0.78000*%
G04:AMPARAMS|DCode=669|XSize=1.18mm|YSize=1.18mm|CornerRadius=0.315mm|HoleSize=0mm|Usage=FLASHONLY|Rotation=180.000|XOffset=0mm|YOffset=0mm|HoleType=Round|Shape=RoundedRectangle|*
%AMROUNDEDRECTD669*
21,1,1.18000,0.55000,0,0,180.0*
21,1,0.55000,1.18000,0,0,180.0*
1,1,0.63000,-0.27500,0.27500*
1,1,0.63000,0.27500,0.27500*
1,1,0.63000,0.27500,-0.27500*
1,1,0.63000,-0.27500,-0.27500*
%
%ADD669ROUNDEDRECTD669*%
%ADD670R,1.18000X1.18000*%
G04:AMPARAMS|DCode=671|XSize=0.88mm|YSize=0.88mm|CornerRadius=0.24mm|HoleSize=0mm|Usage=FLASHONLY|Rotation=180.000|XOffset=0mm|YOffset=0mm|HoleType=Round|Shape=RoundedRectangle|*
%AMROUNDEDRECTD671*
21,1,0.88000,0.40000,0,0,180.0*
21,1,0.40000,0.88000,0,0,180.0*
1,1,0.48000,-0.20000,0.20000*
1,1,0.48000,0.20000,0.20000*
1,1,0.48000,0.20000,-0.20000*
1,1,0.48000,-0.20000,-0.20000*
%
%ADD671ROUNDEDRECTD671*%
G04:AMPARAMS|DCode=672|XSize=1.73mm|YSize=1.33mm|CornerRadius=0.3525mm|HoleSize=0mm|Usage=FLASHONLY|Rotation=0.000|XOffset=0mm|YOffset=0mm|HoleType=Round|Shape=RoundedRectangle|*
%AMROUNDEDRECTD672*
21,1,1.73000,0.62500,0,0,0.0*
21,1,1.02500,1.33000,0,0,0.0*
1,1,0.70500,0.51250,-0.31250*
1,1,0.70500,-0.51250,-0.31250*
1,1,0.70500,-0.51250,0.31250*
1,1,0.70500,0.51250,0.31250*
%
%ADD672ROUNDEDRECTD672*%
G04:AMPARAMS|DCode=673|XSize=1.73mm|YSize=1.33mm|CornerRadius=0.3525mm|HoleSize=0mm|Usage=FLASHONLY|Rotation=270.000|XOffset=0mm|YOffset=0mm|HoleType=Round|Shape=RoundedRectangle|*
%AMROUNDEDRECTD673*
21,1,1.73000,0.62500,0,0,270.0*
21,1,1.02500,1.33000,0,0,270.0*
1,1,0.70500,-0.31250,-0.51250*
1,1,0.70500,-0.31250,0.51250*
1,1,0.70500,0.31250,0.51250*
1,1,0.70500,0.31250,-0.51250*
%
%ADD673ROUNDEDRECTD673*%
G36*
X2485784Y3083942D02*
X2486538Y3083713D01*
X2487233Y3083342D01*
X2487842Y3082842D01*
X2488342Y3082233D01*
X2488713Y3081538D01*
X2488942Y3080784D01*
X2489019Y3080000D01*
Y3005000D01*
X2488942Y3004216D01*
X2488713Y3003462D01*
X2488342Y3002767D01*
X2487842Y3002158D01*
X2487233Y3001658D01*
X2486538Y3001287D01*
X2485784Y3001058D01*
X2485000Y3000981D01*
X2315000D01*
X2314216Y3001058D01*
X2313462Y3001287D01*
X2312767Y3001658D01*
X2312158Y3002158D01*
X2311658Y3002767D01*
X2311287Y3003462D01*
X2311058Y3004216D01*
X2310981Y3005000D01*
Y3080000D01*
X2311058Y3080784D01*
X2311287Y3081538D01*
X2311658Y3082233D01*
X2312158Y3082842D01*
X2312767Y3083342D01*
X2313462Y3083713D01*
X2314216Y3083942D01*
X2315000Y3084019D01*
X2372511D01*
X2373295Y3083942D01*
X2374049Y3083713D01*
X2374744Y3083342D01*
X2375353Y3082842D01*
X2375853Y3082233D01*
X2376224Y3081538D01*
X2376453Y3080784D01*
X2376530Y3080000D01*
Y3024006D01*
X2423527D01*
Y3080000D01*
X2423604Y3080784D01*
X2423833Y3081538D01*
X2424204Y3082233D01*
X2424704Y3082842D01*
X2425313Y3083342D01*
X2426008Y3083713D01*
X2426762Y3083942D01*
X2427546Y3084019D01*
X2485000D01*
X2485784Y3083942D01*
D02*
G37*
G36*
Y3378942D02*
X2486538Y3378713D01*
X2487233Y3378342D01*
X2487842Y3377842D01*
X2488342Y3377233D01*
X2488713Y3376538D01*
X2488942Y3375784D01*
X2489019Y3375000D01*
Y3300000D01*
X2488942Y3299216D01*
X2488713Y3298462D01*
X2488342Y3297767D01*
X2487842Y3297158D01*
X2487233Y3296658D01*
X2486538Y3296287D01*
X2485784Y3296058D01*
X2485000Y3295981D01*
X2427505Y3295981D01*
X2426721Y3296058D01*
X2425967Y3296287D01*
X2425272Y3296659D01*
X2424663Y3297159D01*
X2424163Y3297768D01*
X2423792Y3298462D01*
X2423563Y3299216D01*
X2423486Y3300001D01*
X2423485Y3355986D01*
X2376522Y3355986D01*
X2376522Y3300000D01*
X2376445Y3299216D01*
X2376216Y3298462D01*
X2375845Y3297767D01*
X2375345Y3297158D01*
X2374736Y3296658D01*
X2374041Y3296287D01*
X2373287Y3296058D01*
X2372503Y3295981D01*
X2315000Y3295981D01*
X2314216Y3296058D01*
X2313462Y3296287D01*
X2312767Y3296658D01*
X2312158Y3297158D01*
X2311658Y3297767D01*
X2311287Y3298462D01*
X2311058Y3299216D01*
X2310981Y3300000D01*
Y3375000D01*
X2311058Y3375784D01*
X2311287Y3376538D01*
X2311658Y3377233D01*
X2312158Y3377842D01*
X2312767Y3378342D01*
X2313462Y3378713D01*
X2314216Y3378942D01*
X2315000Y3379019D01*
X2485000D01*
X2485784Y3378942D01*
D02*
G37*
G36*
X6050784Y4068942D02*
X6051538Y4068713D01*
X6052233Y4068342D01*
X6052842Y4067842D01*
X6053342Y4067233D01*
X6053713Y4066538D01*
X6053942Y4065784D01*
X6054019Y4065000D01*
X6054019Y4007505D01*
X6053942Y4006721D01*
X6053713Y4005967D01*
X6053341Y4005272D01*
X6052842Y4004663D01*
X6052232Y4004163D01*
X6051538Y4003792D01*
X6050784Y4003563D01*
X6050000Y4003486D01*
X5994014Y4003485D01*
X5994014Y3956522D01*
X6050000Y3956522D01*
X6050784Y3956445D01*
X6051538Y3956216D01*
X6052233Y3955845D01*
X6052842Y3955345D01*
X6053342Y3954736D01*
X6053713Y3954041D01*
X6053942Y3953287D01*
X6054019Y3952503D01*
X6054019Y3895000D01*
X6053942Y3894216D01*
X6053713Y3893462D01*
X6053342Y3892767D01*
X6052842Y3892158D01*
X6052233Y3891658D01*
X6051538Y3891287D01*
X6050784Y3891058D01*
X6050000Y3890981D01*
X5975000D01*
X5974216Y3891058D01*
X5973462Y3891287D01*
X5972767Y3891658D01*
X5972158Y3892158D01*
X5971658Y3892767D01*
X5971287Y3893462D01*
X5971058Y3894216D01*
X5970981Y3895000D01*
Y4065000D01*
X5971058Y4065784D01*
X5971287Y4066538D01*
X5971658Y4067233D01*
X5972158Y4067842D01*
X5972767Y4068342D01*
X5973462Y4068713D01*
X5974216Y4068942D01*
X5975000Y4069019D01*
X6050000D01*
X6050784Y4068942D01*
D02*
G37*
G36*
X6345784D02*
X6346538Y4068713D01*
X6347233Y4068342D01*
X6347842Y4067842D01*
X6348342Y4067233D01*
X6348713Y4066538D01*
X6348942Y4065784D01*
X6349019Y4065000D01*
Y3895000D01*
X6348942Y3894216D01*
X6348713Y3893462D01*
X6348342Y3892767D01*
X6347842Y3892158D01*
X6347233Y3891658D01*
X6346538Y3891287D01*
X6345784Y3891058D01*
X6345000Y3890981D01*
X6270000D01*
X6269216Y3891058D01*
X6268462Y3891287D01*
X6267767Y3891658D01*
X6267158Y3892158D01*
X6266658Y3892767D01*
X6266287Y3893462D01*
X6266058Y3894216D01*
X6265981Y3895000D01*
Y3952511D01*
X6266058Y3953295D01*
X6266287Y3954049D01*
X6266658Y3954744D01*
X6267158Y3955353D01*
X6267767Y3955853D01*
X6268462Y3956224D01*
X6269216Y3956453D01*
X6270000Y3956530D01*
X6325994D01*
Y4003526D01*
X6270000D01*
X6269216Y4003604D01*
X6268462Y4003832D01*
X6267767Y4004204D01*
X6267158Y4004704D01*
X6266658Y4005313D01*
X6266287Y4006007D01*
X6266058Y4006762D01*
X6265981Y4007546D01*
Y4065000D01*
X6266058Y4065784D01*
X6266287Y4066538D01*
X6266658Y4067233D01*
X6267158Y4067842D01*
X6267767Y4068342D01*
X6268462Y4068713D01*
X6269216Y4068942D01*
X6270000Y4069019D01*
X6345000D01*
X6345784Y4068942D01*
D02*
G37*
D132*
X8108000Y2349500D02*
D03*
Y5143500D02*
D03*
X2012000Y4512400D02*
D03*
D133*
X8108000Y2095500D02*
D03*
Y1841500D02*
D03*
Y1587500D02*
D03*
Y1333500D02*
D03*
Y1079500D02*
D03*
Y825500D02*
D03*
X8402000Y2349500D02*
D03*
Y2095500D02*
D03*
Y1841500D02*
D03*
Y1587500D02*
D03*
Y1333500D02*
D03*
Y1079500D02*
D03*
Y825500D02*
D03*
X8108000Y571500D02*
D03*
Y317500D02*
D03*
X8402000Y571500D02*
D03*
Y317500D02*
D03*
X8108000Y4889500D02*
D03*
Y4635500D02*
D03*
Y4381500D02*
D03*
Y4127500D02*
D03*
Y3873500D02*
D03*
Y3619500D02*
D03*
X8402000Y5143500D02*
D03*
Y4889500D02*
D03*
Y4635500D02*
D03*
Y4381500D02*
D03*
Y4127500D02*
D03*
Y3873500D02*
D03*
Y3619500D02*
D03*
X8108000Y3365500D02*
D03*
Y3111500D02*
D03*
X8402000Y3365500D02*
D03*
Y3111500D02*
D03*
X2306000Y4512400D02*
D03*
Y4258400D02*
D03*
X2012000D02*
D03*
D134*
X2032000Y170500D02*
D03*
Y4996500D02*
D03*
D135*
X2286000Y170500D02*
D03*
X2540000D02*
D03*
X2794000D02*
D03*
X3048000D02*
D03*
X3302000D02*
D03*
X3556000D02*
D03*
X3810000D02*
D03*
X4064000D02*
D03*
X4318000D02*
D03*
X4572000D02*
D03*
X4826000D02*
D03*
X5080000D02*
D03*
X5334000D02*
D03*
X5588000D02*
D03*
X5842000D02*
D03*
X6096000D02*
D03*
X6350000D02*
D03*
X6604000D02*
D03*
X6858000D02*
D03*
X7112000D02*
D03*
X7366000D02*
D03*
X7620000D02*
D03*
X2032000Y464500D02*
D03*
X2286000D02*
D03*
X2540000D02*
D03*
X2794000D02*
D03*
X3048000D02*
D03*
X3302000D02*
D03*
X3556000D02*
D03*
X3810000D02*
D03*
X4064000D02*
D03*
X4318000D02*
D03*
X4572000D02*
D03*
X4826000D02*
D03*
X5080000D02*
D03*
X5334000D02*
D03*
X5588000D02*
D03*
X5842000D02*
D03*
X6096000D02*
D03*
X6350000D02*
D03*
X6604000D02*
D03*
X6858000D02*
D03*
X7112000D02*
D03*
X7366000D02*
D03*
X7620000D02*
D03*
X2286000Y4996500D02*
D03*
X2540000D02*
D03*
X2794000D02*
D03*
X3048000D02*
D03*
X3302000D02*
D03*
X3556000D02*
D03*
X3810000D02*
D03*
X4064000D02*
D03*
X4318000D02*
D03*
X4572000D02*
D03*
X4826000D02*
D03*
X5080000D02*
D03*
X5334000D02*
D03*
X5588000D02*
D03*
X5842000D02*
D03*
X6096000D02*
D03*
X6350000D02*
D03*
X6604000D02*
D03*
X6858000D02*
D03*
X7112000D02*
D03*
X7366000D02*
D03*
X7620000D02*
D03*
X2032000Y5290500D02*
D03*
X2286000D02*
D03*
X2540000D02*
D03*
X2794000D02*
D03*
X3048000D02*
D03*
X3302000D02*
D03*
X3556000D02*
D03*
X3810000D02*
D03*
X4064000D02*
D03*
X4318000D02*
D03*
X4572000D02*
D03*
X4826000D02*
D03*
X5080000D02*
D03*
X5334000D02*
D03*
X5588000D02*
D03*
X5842000D02*
D03*
X6096000D02*
D03*
X6350000D02*
D03*
X6604000D02*
D03*
X6858000D02*
D03*
X7112000D02*
D03*
X7366000D02*
D03*
X7620000D02*
D03*
D136*
X1672000Y978000D02*
D03*
X1292000D02*
D03*
X1672000Y1842000D02*
D03*
X1292000D02*
D03*
D137*
X1460500Y5143500D02*
D03*
D138*
X1480000Y695000D02*
D03*
D139*
Y345000D02*
D03*
D608*
X6067000Y935000D02*
D03*
X6987000Y1425000D02*
D03*
Y2405000D02*
D03*
X6067000Y1775000D02*
D03*
Y2015000D02*
D03*
Y1225000D02*
D03*
Y1535000D02*
D03*
X6987000Y1930000D02*
D03*
Y2869975D02*
D03*
X7677000Y925000D02*
D03*
X7487000Y1985000D02*
D03*
X7217000Y965000D02*
D03*
X7487000Y2465000D02*
D03*
X6737000Y1025000D02*
D03*
X7487000Y2935000D02*
D03*
X7487000Y1475000D02*
D03*
D609*
X6067000Y885000D02*
D03*
Y835000D02*
D03*
Y785000D02*
D03*
X6153000Y935000D02*
D03*
Y885000D02*
D03*
Y835000D02*
D03*
Y785000D02*
D03*
X6987000Y1375000D02*
D03*
Y1325000D02*
D03*
Y1275000D02*
D03*
X7073000Y1425000D02*
D03*
Y1375000D02*
D03*
Y1325000D02*
D03*
Y1275000D02*
D03*
X6987000Y2355000D02*
D03*
Y2305000D02*
D03*
Y2255000D02*
D03*
X7073000Y2405000D02*
D03*
Y2355000D02*
D03*
Y2305000D02*
D03*
Y2255000D02*
D03*
X6067000Y1725000D02*
D03*
Y1675000D02*
D03*
Y1625000D02*
D03*
X6153000Y1775000D02*
D03*
Y1725000D02*
D03*
Y1675000D02*
D03*
Y1625000D02*
D03*
X6067000Y1965000D02*
D03*
Y1915000D02*
D03*
Y1865000D02*
D03*
X6153000Y2015000D02*
D03*
Y1965000D02*
D03*
Y1915000D02*
D03*
Y1865000D02*
D03*
X6067000Y1175000D02*
D03*
Y1125000D02*
D03*
Y1075000D02*
D03*
X6153000Y1225000D02*
D03*
Y1175000D02*
D03*
Y1125000D02*
D03*
Y1075000D02*
D03*
X6067000Y1485000D02*
D03*
Y1435000D02*
D03*
Y1385000D02*
D03*
X6153000Y1535000D02*
D03*
Y1485000D02*
D03*
Y1435000D02*
D03*
Y1385000D02*
D03*
X6987000Y1880000D02*
D03*
Y1830000D02*
D03*
Y1780000D02*
D03*
X7073000Y1930000D02*
D03*
Y1880000D02*
D03*
Y1830000D02*
D03*
Y1780000D02*
D03*
X6987000Y2819975D02*
D03*
Y2769975D02*
D03*
Y2719975D02*
D03*
X7073000Y2869975D02*
D03*
Y2819975D02*
D03*
Y2769975D02*
D03*
Y2719975D02*
D03*
X7677000Y875000D02*
D03*
Y825000D02*
D03*
Y775000D02*
D03*
Y725000D02*
D03*
Y675000D02*
D03*
X7763000Y925000D02*
D03*
Y875000D02*
D03*
Y825000D02*
D03*
Y775000D02*
D03*
Y725000D02*
D03*
Y675000D02*
D03*
X7487000Y1935000D02*
D03*
Y1885000D02*
D03*
Y1835000D02*
D03*
Y1785000D02*
D03*
Y1735000D02*
D03*
X7573000Y1985000D02*
D03*
Y1935000D02*
D03*
Y1885000D02*
D03*
Y1835000D02*
D03*
Y1785000D02*
D03*
Y1735000D02*
D03*
X7217000Y915000D02*
D03*
Y865000D02*
D03*
Y815000D02*
D03*
Y765000D02*
D03*
Y715000D02*
D03*
X7303000Y965000D02*
D03*
Y915000D02*
D03*
Y865000D02*
D03*
Y815000D02*
D03*
Y765000D02*
D03*
Y715000D02*
D03*
X7487000Y2415000D02*
D03*
Y2365000D02*
D03*
Y2315000D02*
D03*
Y2265000D02*
D03*
Y2215000D02*
D03*
X7573000Y2465000D02*
D03*
Y2415000D02*
D03*
Y2365000D02*
D03*
Y2315000D02*
D03*
Y2265000D02*
D03*
Y2215000D02*
D03*
X6737000Y975000D02*
D03*
Y925000D02*
D03*
Y875000D02*
D03*
Y825000D02*
D03*
Y775000D02*
D03*
X6823000Y1025000D02*
D03*
Y975000D02*
D03*
Y925000D02*
D03*
Y875000D02*
D03*
Y825000D02*
D03*
Y775000D02*
D03*
X7487000Y2885000D02*
D03*
Y2835000D02*
D03*
Y2785000D02*
D03*
Y2735000D02*
D03*
Y2685000D02*
D03*
X7573000Y2935000D02*
D03*
Y2885000D02*
D03*
Y2835000D02*
D03*
Y2785000D02*
D03*
Y2735000D02*
D03*
Y2685000D02*
D03*
X7487000Y1425000D02*
D03*
Y1375000D02*
D03*
Y1325000D02*
D03*
Y1275000D02*
D03*
Y1225000D02*
D03*
X7573000Y1475000D02*
D03*
Y1425000D02*
D03*
Y1375000D02*
D03*
Y1325000D02*
D03*
Y1275000D02*
D03*
Y1225000D02*
D03*
D610*
X6784747Y3930254D02*
D03*
X6955253Y3809747D02*
D03*
X7184747Y3930253D02*
D03*
X7355253Y3809747D02*
D03*
X6784747Y3570253D02*
D03*
X6955253Y3449747D02*
D03*
D611*
X6845000Y3930001D02*
D03*
X6895000D02*
D03*
X6845000Y3810001D02*
D03*
X6895000D02*
D03*
X7245000Y3930000D02*
D03*
X7295000D02*
D03*
X7245000Y3810000D02*
D03*
X7295000D02*
D03*
X6845000Y3570000D02*
D03*
X6895000D02*
D03*
X6845000Y3450000D02*
D03*
X6895000D02*
D03*
D612*
X6955253Y3930254D02*
D03*
X6784747Y3809747D02*
D03*
X7355253Y3930253D02*
D03*
X7184747Y3809747D02*
D03*
X6955253Y3570253D02*
D03*
X6784747Y3449747D02*
D03*
D613*
X6785000Y3870000D02*
D03*
X6955000D02*
D03*
X7185000Y3870000D02*
D03*
X7355000D02*
D03*
X6785000Y3510000D02*
D03*
X6955000D02*
D03*
D614*
X5795000Y3787500D02*
D03*
X5700000D02*
D03*
X5605000D02*
D03*
Y3532500D02*
D03*
X5795000D02*
D03*
X5865000Y2407500D02*
D03*
X5770000D02*
D03*
X5675000D02*
D03*
Y2152500D02*
D03*
X5865000D02*
D03*
D615*
X6752000Y4490000D02*
D03*
Y4290000D02*
D03*
Y4440000D02*
D03*
Y4390000D02*
D03*
Y4340000D02*
D03*
X6988000Y4290000D02*
D03*
Y4340000D02*
D03*
Y4390000D02*
D03*
Y4440000D02*
D03*
Y4490000D02*
D03*
X7246998Y4580001D02*
D03*
Y4380001D02*
D03*
Y4530001D02*
D03*
Y4480001D02*
D03*
Y4430001D02*
D03*
X7482998Y4380001D02*
D03*
Y4430001D02*
D03*
Y4480001D02*
D03*
Y4530001D02*
D03*
Y4580001D02*
D03*
D616*
X6845000Y4247000D02*
D03*
X6895000D02*
D03*
Y4533000D02*
D03*
X6845000D02*
D03*
X7339998Y4337001D02*
D03*
X7389998D02*
D03*
Y4623001D02*
D03*
X7339998D02*
D03*
D617*
X6870000Y4390000D02*
D03*
X7364998Y4480001D02*
D03*
D618*
X3665000Y1320000D02*
D03*
Y1370000D02*
D03*
Y1420000D02*
D03*
Y1470000D02*
D03*
Y1520000D02*
D03*
X3355000Y1320000D02*
D03*
Y1370000D02*
D03*
Y1420000D02*
D03*
Y1470000D02*
D03*
X3254999Y2205000D02*
D03*
Y2255000D02*
D03*
Y2305000D02*
D03*
Y2355000D02*
D03*
X2964999Y2205000D02*
D03*
Y2255000D02*
D03*
Y2305000D02*
D03*
D619*
X3510000Y1420000D02*
D03*
D620*
X3355000Y1520000D02*
D03*
X2964999Y2355000D02*
D03*
D621*
X4172500Y2032500D02*
D03*
Y2097500D02*
D03*
Y2162500D02*
D03*
Y2227500D02*
D03*
X3747500Y2032500D02*
D03*
Y2097500D02*
D03*
Y2162500D02*
D03*
X5202500Y1912500D02*
D03*
Y1977500D02*
D03*
Y2042500D02*
D03*
Y2107500D02*
D03*
X4777500Y1912500D02*
D03*
Y1977500D02*
D03*
Y2042500D02*
D03*
X2797500Y4117500D02*
D03*
Y4052500D02*
D03*
Y3987500D02*
D03*
Y3922500D02*
D03*
X3222500Y4117500D02*
D03*
Y4052500D02*
D03*
Y3987500D02*
D03*
X5207500Y4327500D02*
D03*
Y4262500D02*
D03*
Y4197500D02*
D03*
Y4132500D02*
D03*
X5632500Y4327500D02*
D03*
Y4262500D02*
D03*
Y4197500D02*
D03*
D622*
X3747500Y2227500D02*
D03*
X4777500Y2107500D02*
D03*
X3222500Y3922500D02*
D03*
X5632500Y4132500D02*
D03*
D623*
X5050000Y1225000D02*
D03*
D624*
Y1130000D02*
D03*
Y1035000D02*
D03*
X5310000D02*
D03*
Y1130000D02*
D03*
Y1225000D02*
D03*
D625*
X2495000Y2360000D02*
D03*
D626*
X2400000D02*
D03*
X2305000D02*
D03*
Y2100000D02*
D03*
X2400000D02*
D03*
X2495000D02*
D03*
D627*
X3109999Y2280000D02*
D03*
D628*
X8250265Y2714551D02*
D03*
Y2779551D02*
D03*
Y2844551D02*
D03*
X8450266D02*
D03*
Y2779551D02*
D03*
D629*
Y2714551D02*
D03*
D630*
X7839999Y4640000D02*
D03*
D631*
X7789999D02*
D03*
X7739999D02*
D03*
X7689999D02*
D03*
X7839999Y4340000D02*
D03*
X7789999D02*
D03*
X7739999D02*
D03*
X7689999D02*
D03*
D632*
X3267500Y3485000D02*
D03*
Y3580000D02*
D03*
Y3675000D02*
D03*
X3012500D02*
D03*
Y3485000D02*
D03*
D633*
X4195000Y2832500D02*
D03*
Y2897500D02*
D03*
Y2962500D02*
D03*
Y3027500D02*
D03*
Y3092500D02*
D03*
Y3157500D02*
D03*
Y3222500D02*
D03*
Y3287500D02*
D03*
X3625000Y2832500D02*
D03*
Y2897500D02*
D03*
Y2962500D02*
D03*
Y3027500D02*
D03*
Y3092500D02*
D03*
Y3157500D02*
D03*
Y3222500D02*
D03*
X4275000Y3872500D02*
D03*
Y3937500D02*
D03*
Y4002500D02*
D03*
Y4067500D02*
D03*
Y4132500D02*
D03*
Y4197500D02*
D03*
Y4262500D02*
D03*
Y4327500D02*
D03*
X3705000Y3872500D02*
D03*
Y3937500D02*
D03*
Y4002500D02*
D03*
Y4067500D02*
D03*
Y4132500D02*
D03*
Y4197500D02*
D03*
Y4262500D02*
D03*
X4925000Y3167500D02*
D03*
Y3102500D02*
D03*
Y3037500D02*
D03*
Y2972500D02*
D03*
Y2907500D02*
D03*
Y2842500D02*
D03*
Y2777500D02*
D03*
Y2712500D02*
D03*
X5495000Y3167500D02*
D03*
Y3102500D02*
D03*
Y3037500D02*
D03*
Y2972500D02*
D03*
Y2907500D02*
D03*
Y2842500D02*
D03*
Y2777500D02*
D03*
D634*
X3625000Y3287500D02*
D03*
X3705000Y4327500D02*
D03*
X5495000Y2712500D02*
D03*
D635*
X3795000Y3630000D02*
D03*
D636*
Y3580000D02*
D03*
Y3530000D02*
D03*
Y3480000D02*
D03*
Y3430000D02*
D03*
X4085000Y3630000D02*
D03*
Y3580000D02*
D03*
Y3530000D02*
D03*
Y3480000D02*
D03*
Y3430000D02*
D03*
D637*
X3940000Y3530000D02*
D03*
D638*
X3087500Y3242500D02*
D03*
X3022500D02*
D03*
X2957500D02*
D03*
X2892500D02*
D03*
X3087500Y2817500D02*
D03*
X3022500D02*
D03*
X2957500D02*
D03*
X6102500Y3187500D02*
D03*
X6167500D02*
D03*
X6232500D02*
D03*
X6297500D02*
D03*
X6102500Y3612500D02*
D03*
X6167500D02*
D03*
X6232500D02*
D03*
D639*
X2892500Y2817500D02*
D03*
X6297500Y3612500D02*
D03*
D640*
X4950000Y4115000D02*
D03*
D641*
X4900000D02*
D03*
X4850000D02*
D03*
X4800000D02*
D03*
X4750000D02*
D03*
X4950000Y3825000D02*
D03*
X4900000D02*
D03*
X4850000D02*
D03*
X4800000D02*
D03*
X4750000D02*
D03*
D642*
X4850000Y3970000D02*
D03*
D643*
X3480000Y3430000D02*
D03*
X3890000Y2790000D02*
D03*
X5390000Y3690000D02*
D03*
D644*
X3810000Y3780000D02*
D03*
X5430000Y3320000D02*
D03*
X5070000Y4140000D02*
D03*
X5370000Y3910000D02*
D03*
D645*
X2020000Y1630000D02*
D03*
X1925000Y1850000D02*
D03*
X2115000D02*
D03*
X2360000Y1740000D02*
D03*
X2265000Y1960000D02*
D03*
X2455000D02*
D03*
D646*
X2310000Y2730000D02*
D03*
X2410000D02*
D03*
X2510000D02*
D03*
X5790000Y3280000D02*
D03*
X5890000D02*
D03*
X5990000D02*
D03*
X6200000Y4240000D02*
D03*
X6100000D02*
D03*
X6370000Y1650000D02*
D03*
X6270000D02*
D03*
X6370000Y1430000D02*
D03*
X6270000D02*
D03*
X6370000Y1900000D02*
D03*
X6270000D02*
D03*
X8150000Y2640000D02*
D03*
X8050000D02*
D03*
X8150000Y2740000D02*
D03*
X8050000D02*
D03*
X3780000Y1580000D02*
D03*
X3880000D02*
D03*
Y1480000D02*
D03*
X3780000D02*
D03*
X1930000Y1460000D02*
D03*
X2030000D02*
D03*
X3210000Y2030000D02*
D03*
X3110000D02*
D03*
X2090000Y1150000D02*
D03*
X1990000D02*
D03*
X2190000Y2490000D02*
D03*
X2290000D02*
D03*
X2090000Y1250000D02*
D03*
X1990000D02*
D03*
X2860000Y2400000D02*
D03*
X2760000D02*
D03*
X2860000Y2300000D02*
D03*
X2760000D02*
D03*
Y2200000D02*
D03*
X2860000D02*
D03*
X3380000Y2320000D02*
D03*
X3480000D02*
D03*
X6200000D02*
D03*
X6100000D02*
D03*
X5820000Y1670000D02*
D03*
X5920000D02*
D03*
X6970000Y1180000D02*
D03*
X7070000D02*
D03*
X5820000Y1330000D02*
D03*
X5920000D02*
D03*
X6200000Y2420000D02*
D03*
X6100000D02*
D03*
X6970000Y1680000D02*
D03*
X7070000D02*
D03*
X5920000Y1020000D02*
D03*
X5820000D02*
D03*
X6370000Y1330000D02*
D03*
X6270000D02*
D03*
X5820000Y1430000D02*
D03*
X5920000D02*
D03*
X5820000Y1770000D02*
D03*
X5920000D02*
D03*
X6270000Y2000000D02*
D03*
X6370000D02*
D03*
X6770000Y2210000D02*
D03*
X6870000D02*
D03*
X6770000Y2410000D02*
D03*
X6870000D02*
D03*
X6770000Y2690000D02*
D03*
X6869999D02*
D03*
X6770000Y2880000D02*
D03*
X6869999D02*
D03*
X2940000Y2700000D02*
D03*
X3040000D02*
D03*
X3580000Y3430000D02*
D03*
X3680000D02*
D03*
X3520000Y3530000D02*
D03*
X3620000D02*
D03*
X4420000Y2960000D02*
D03*
X4320000D02*
D03*
X1930000Y1360000D02*
D03*
X2030000D02*
D03*
X3570000Y3670000D02*
D03*
X3670000D02*
D03*
X6710000Y3190000D02*
D03*
X6610000D02*
D03*
X3990000Y2700000D02*
D03*
X4090000D02*
D03*
X2810000Y3690000D02*
D03*
X2910000D02*
D03*
X2980000Y4340000D02*
D03*
X3080000D02*
D03*
X6200000Y4340000D02*
D03*
X6100000D02*
D03*
X3280000Y3800000D02*
D03*
X3180000D02*
D03*
X4320000Y2700000D02*
D03*
X4420000D02*
D03*
X6240000Y3740000D02*
D03*
X6140000D02*
D03*
X4790000Y3000000D02*
D03*
X4690000D02*
D03*
X5520000Y3290000D02*
D03*
X5620000D02*
D03*
X4700000Y4230000D02*
D03*
X4800000D02*
D03*
X4790000Y3130000D02*
D03*
X4690000D02*
D03*
X5060000Y4240000D02*
D03*
X4960000D02*
D03*
X5370000Y4010000D02*
D03*
X5470000D02*
D03*
X5670000D02*
D03*
X5570000D02*
D03*
X2310000Y2610000D02*
D03*
X2410000D02*
D03*
X4010000Y3780000D02*
D03*
X3910000D02*
D03*
X3790000Y2700000D02*
D03*
X3890000D02*
D03*
X5820000Y1120000D02*
D03*
X5920000D02*
D03*
X5820000Y1230000D02*
D03*
X5920000D02*
D03*
X6270000Y1030000D02*
D03*
X6370000D02*
D03*
X6970000Y1520000D02*
D03*
X7069999D02*
D03*
X6200000Y2120000D02*
D03*
X6300000D02*
D03*
X4960000Y4340000D02*
D03*
X5060000D02*
D03*
X6970000Y2510000D02*
D03*
X7070000D02*
D03*
X6370000Y1530000D02*
D03*
X6270000D02*
D03*
X7330000Y4780000D02*
D03*
X7430000D02*
D03*
X7480000Y2570000D02*
D03*
X7580000D02*
D03*
X6660000Y1130000D02*
D03*
X6760000D02*
D03*
X7480000Y1580000D02*
D03*
X7580000D02*
D03*
X7460000Y3030000D02*
D03*
X7560000D02*
D03*
X7600000Y1050000D02*
D03*
X7700000D02*
D03*
X8270000Y2580000D02*
D03*
X8370000D02*
D03*
X3310000Y2720000D02*
D03*
X3410000D02*
D03*
X3560000Y1660000D02*
D03*
X3660000D02*
D03*
X5890000Y3430000D02*
D03*
X5790000D02*
D03*
X6970000Y2980000D02*
D03*
X7069999D02*
D03*
X2790000Y3370000D02*
D03*
X2890000D02*
D03*
X3730000Y2370000D02*
D03*
X3830000D02*
D03*
X4700000Y1430000D02*
D03*
X4800000D02*
D03*
X1990000Y1050000D02*
D03*
X2090000D02*
D03*
X3480000Y2420000D02*
D03*
X3380000D02*
D03*
X6200000Y2220000D02*
D03*
X6100000D02*
D03*
X8050000Y2840000D02*
D03*
X8150000D02*
D03*
X6770000Y2980000D02*
D03*
X6869999D02*
D03*
X6770000Y1520000D02*
D03*
X6870000D02*
D03*
X5820000Y1960000D02*
D03*
X5920000D02*
D03*
X5820000Y1540000D02*
D03*
X5920000D02*
D03*
X6370000Y1750000D02*
D03*
X6270000D02*
D03*
X6970000Y2030000D02*
D03*
X7069999D02*
D03*
X5240000Y3290000D02*
D03*
X5340000D02*
D03*
X3080000Y3800000D02*
D03*
X2980000D02*
D03*
X2780000D02*
D03*
X2880000D02*
D03*
X3390000Y3330000D02*
D03*
X3490000D02*
D03*
X3400000Y3210000D02*
D03*
X3500000D02*
D03*
X4420000Y3190000D02*
D03*
X4320000D02*
D03*
X4420000Y3290000D02*
D03*
X4320000D02*
D03*
X3280000Y4310000D02*
D03*
X3380000D02*
D03*
X3480000D02*
D03*
X3580000D02*
D03*
X4820000Y4330000D02*
D03*
X4720000D02*
D03*
X3090000Y3370000D02*
D03*
X2990000D02*
D03*
X4340000Y3570000D02*
D03*
X4240000D02*
D03*
X3400000Y2970000D02*
D03*
X3500000D02*
D03*
X4340000Y3770000D02*
D03*
X4240000D02*
D03*
X4340000Y3670000D02*
D03*
X4240000D02*
D03*
X3470000Y3680000D02*
D03*
X3370000D02*
D03*
X2840000Y3590000D02*
D03*
X2940000D02*
D03*
X3080000Y4240000D02*
D03*
X2980000D02*
D03*
X4420000Y2840000D02*
D03*
X4320000D02*
D03*
X4690000Y2870000D02*
D03*
X4790000D02*
D03*
X4690000Y2770000D02*
D03*
X4790000D02*
D03*
X6130000Y3060000D02*
D03*
X6230000D02*
D03*
X5090000Y3940000D02*
D03*
X5190000D02*
D03*
X5090000Y4040000D02*
D03*
X5190000D02*
D03*
X4980000Y3480000D02*
D03*
X4880000D02*
D03*
X5730000Y3050000D02*
D03*
X5630000D02*
D03*
X6140000Y3840000D02*
D03*
X6240000D02*
D03*
X5690000Y3430000D02*
D03*
X5590000D02*
D03*
X4690000Y3230000D02*
D03*
X4790000D02*
D03*
X5470000Y3910000D02*
D03*
X5570000D02*
D03*
D647*
X5870000Y4240000D02*
D03*
Y4340000D02*
D03*
X5970000D02*
D03*
Y4240000D02*
D03*
X6470000Y4680000D02*
D03*
Y4780000D02*
D03*
X6350000D02*
D03*
Y4680000D02*
D03*
X6250000D02*
D03*
Y4780000D02*
D03*
X6150000D02*
D03*
Y4680000D02*
D03*
X6270000Y1230000D02*
D03*
Y1130000D02*
D03*
X7190000Y1220000D02*
D03*
Y1320000D02*
D03*
Y2030000D02*
D03*
Y1930000D02*
D03*
X7190000Y2210000D02*
D03*
Y2310000D02*
D03*
Y2510000D02*
D03*
Y2410000D02*
D03*
X7190000Y2680000D02*
D03*
Y2780000D02*
D03*
Y2980000D02*
D03*
Y2880000D02*
D03*
X3980000Y1480000D02*
D03*
Y1580000D02*
D03*
X3940000Y1220000D02*
D03*
Y1320000D02*
D03*
X4930000Y1060000D02*
D03*
Y960000D02*
D03*
Y1260000D02*
D03*
Y1160000D02*
D03*
X3560000Y4770000D02*
D03*
Y4670000D02*
D03*
X2180000Y2130000D02*
D03*
Y2230000D02*
D03*
X2190000Y2600000D02*
D03*
Y2700000D02*
D03*
X2580000Y1920000D02*
D03*
Y1820000D02*
D03*
X5190000Y4780000D02*
D03*
Y4680000D02*
D03*
X3330000Y4770000D02*
D03*
Y4670000D02*
D03*
X5300000Y4780000D02*
D03*
Y4680000D02*
D03*
X3430000Y4770000D02*
D03*
Y4670000D02*
D03*
X4320000Y781000D02*
D03*
Y681000D02*
D03*
X4430000Y781000D02*
D03*
Y681000D02*
D03*
X5970000Y4680000D02*
D03*
Y4780000D02*
D03*
X5870000Y4680000D02*
D03*
Y4780000D02*
D03*
X5950000Y780000D02*
D03*
Y680000D02*
D03*
X5840000Y780000D02*
D03*
Y680000D02*
D03*
X6750000Y4780000D02*
D03*
Y4680000D02*
D03*
X6850000Y4780000D02*
D03*
Y4680000D02*
D03*
X5730000Y780000D02*
D03*
Y680000D02*
D03*
X5620000Y780000D02*
D03*
Y680000D02*
D03*
X5510000D02*
D03*
Y780000D02*
D03*
X5400000D02*
D03*
Y680000D02*
D03*
X5540000Y4680000D02*
D03*
Y4780000D02*
D03*
X5290000Y780000D02*
D03*
Y680000D02*
D03*
X5180000Y780000D02*
D03*
Y680000D02*
D03*
X5430000Y4780000D02*
D03*
Y4680000D02*
D03*
X5000000Y780000D02*
D03*
Y680000D02*
D03*
X5650000Y4680000D02*
D03*
Y4780000D02*
D03*
X4890000Y780000D02*
D03*
Y680000D02*
D03*
X4060000Y780000D02*
D03*
Y680000D02*
D03*
X3930000Y681000D02*
D03*
Y781000D02*
D03*
X4240000Y4670000D02*
D03*
Y4770000D02*
D03*
X4140000D02*
D03*
Y4670000D02*
D03*
X3980000D02*
D03*
Y4770000D02*
D03*
X3870000D02*
D03*
Y4670000D02*
D03*
X3770000D02*
D03*
Y4770000D02*
D03*
X7670000Y4030000D02*
D03*
Y4130000D02*
D03*
X7770000Y4140000D02*
D03*
Y4240000D02*
D03*
X6370000Y890000D02*
D03*
Y790000D02*
D03*
X6270000D02*
D03*
Y890000D02*
D03*
X6370000Y1130000D02*
D03*
Y1230000D02*
D03*
X4200000Y680000D02*
D03*
Y780000D02*
D03*
X3790000Y680000D02*
D03*
Y780000D02*
D03*
X4780000Y680000D02*
D03*
Y780000D02*
D03*
X7290000Y1320000D02*
D03*
Y1220000D02*
D03*
Y1420000D02*
D03*
Y1520000D02*
D03*
X7190000D02*
D03*
Y1420000D02*
D03*
X7290000Y1830000D02*
D03*
Y1730000D02*
D03*
X7190000D02*
D03*
Y1830000D02*
D03*
X7290000Y1930000D02*
D03*
Y2030000D02*
D03*
X7290000Y2310000D02*
D03*
Y2210000D02*
D03*
Y2410000D02*
D03*
Y2510000D02*
D03*
X7290000Y2780000D02*
D03*
Y2680000D02*
D03*
Y2880000D02*
D03*
Y2980000D02*
D03*
X4400000Y3890000D02*
D03*
Y3990000D02*
D03*
X2880000Y4340000D02*
D03*
Y4240000D02*
D03*
X3470000Y3840000D02*
D03*
Y3940000D02*
D03*
X5490000Y3530000D02*
D03*
Y3430000D02*
D03*
Y3690000D02*
D03*
Y3790000D02*
D03*
X4720000Y3480000D02*
D03*
Y3580000D02*
D03*
X5770000Y4340000D02*
D03*
Y4240000D02*
D03*
X6330000D02*
D03*
Y4340000D02*
D03*
X5770000Y4040000D02*
D03*
Y4140000D02*
D03*
X5930000Y3060000D02*
D03*
Y3160000D02*
D03*
X2780000Y4340000D02*
D03*
Y4240000D02*
D03*
X5390000Y3430000D02*
D03*
Y3530000D02*
D03*
X6950000Y4780000D02*
D03*
Y4680000D02*
D03*
X2680000Y1820000D02*
D03*
Y1920000D02*
D03*
X7070000Y3810000D02*
D03*
Y3910000D02*
D03*
X6650000Y3800000D02*
D03*
Y3900000D02*
D03*
X7930000Y3190000D02*
D03*
Y3090000D02*
D03*
X7890000Y420000D02*
D03*
Y320000D02*
D03*
X7910000Y5070000D02*
D03*
Y4970000D02*
D03*
X3840000Y1220000D02*
D03*
Y1320000D02*
D03*
X4040000D02*
D03*
Y1220000D02*
D03*
X4150000Y1450000D02*
D03*
Y1350000D02*
D03*
X4650000Y2200000D02*
D03*
Y2100000D02*
D03*
X5430000Y1030000D02*
D03*
Y1130000D02*
D03*
X5320000Y2060000D02*
D03*
Y1960000D02*
D03*
X4650000Y2000000D02*
D03*
Y1900000D02*
D03*
X3660000Y4670000D02*
D03*
Y4770000D02*
D03*
X2630000Y2380000D02*
D03*
Y2280000D02*
D03*
X6000000Y2120000D02*
D03*
Y2220000D02*
D03*
Y2420000D02*
D03*
Y2320000D02*
D03*
X7870000Y4140000D02*
D03*
Y4240000D02*
D03*
X6650000Y3640000D02*
D03*
Y3540000D02*
D03*
X6300000Y2420000D02*
D03*
Y2320000D02*
D03*
X4400000Y4210000D02*
D03*
Y4310000D02*
D03*
X3220000Y2980000D02*
D03*
Y3080000D02*
D03*
X2769702Y3090546D02*
D03*
Y3190546D02*
D03*
X3370000Y3470000D02*
D03*
Y3570000D02*
D03*
X4430000D02*
D03*
Y3470000D02*
D03*
X2770000Y2820000D02*
D03*
Y2920000D02*
D03*
X3580000Y3850000D02*
D03*
Y3950000D02*
D03*
X3180000Y4240000D02*
D03*
Y4340000D02*
D03*
X3370000Y3940000D02*
D03*
Y3840000D02*
D03*
X5740000Y2710000D02*
D03*
Y2810000D02*
D03*
X5630000Y2710000D02*
D03*
Y2810000D02*
D03*
X6030000Y2960000D02*
D03*
Y3060000D02*
D03*
X6330000Y2960000D02*
D03*
Y3060000D02*
D03*
X4870000Y3580000D02*
D03*
Y3680000D02*
D03*
X5070000Y3600000D02*
D03*
Y3700000D02*
D03*
X4970000Y3600000D02*
D03*
Y3700000D02*
D03*
D648*
X2400000Y3070000D02*
D03*
Y3310000D02*
D03*
D649*
Y3005000D02*
D03*
Y3375000D02*
D03*
D650*
X6280000Y3980000D02*
D03*
X6040000D02*
D03*
D651*
X6345000D02*
D03*
X5975000D02*
D03*
D652*
X1710000Y1460000D02*
D03*
Y1360000D02*
D03*
D653*
Y1258000D02*
D03*
Y1562000D02*
D03*
D654*
Y1135000D02*
D03*
Y1685000D02*
D03*
D655*
X2645000Y4370000D02*
D03*
X4550000Y2665000D02*
D03*
X6460000D02*
D03*
D656*
X2645000Y3815000D02*
D03*
Y3220000D02*
D03*
X4550000D02*
D03*
Y3815000D02*
D03*
X6460000Y3220000D02*
D03*
Y3815000D02*
D03*
D657*
X2815000Y4470000D02*
D03*
X4380000Y2565000D02*
D03*
X4725000Y4470000D02*
D03*
X6290000Y2565000D02*
D03*
X4725000D02*
D03*
D658*
X4450000Y4470000D02*
D03*
X2745000Y2565000D02*
D03*
X6360000Y4470000D02*
D03*
D659*
X3895000D02*
D03*
X5805000D02*
D03*
D660*
X3300000D02*
D03*
Y2565000D02*
D03*
X3895000D02*
D03*
X5210000Y4470000D02*
D03*
Y2565000D02*
D03*
X5805000D02*
D03*
D661*
X4550000Y4300000D02*
D03*
X2645000Y2735000D02*
D03*
X6460000Y4300000D02*
D03*
D662*
X3629998Y1070001D02*
D03*
X3399998D02*
D03*
X5085000Y1480000D02*
D03*
X5315000D02*
D03*
D663*
X2970000Y1045000D02*
D03*
Y1275000D02*
D03*
X2970000Y1695000D02*
D03*
Y1465000D02*
D03*
X2610000Y1275000D02*
D03*
Y1045000D02*
D03*
D664*
X2490000Y710000D02*
D03*
Y870000D02*
D03*
X2240000D02*
D03*
Y710000D02*
D03*
D665*
X7880000Y1600000D02*
D03*
Y3360000D02*
D03*
X3000000Y2040000D02*
D03*
X5050000Y4700000D02*
D03*
X3190000D02*
D03*
X4700000D02*
D03*
X2840000D02*
D03*
X7880000Y2100000D02*
D03*
Y3860000D02*
D03*
X3220000Y1720000D02*
D03*
X3380000D02*
D03*
X3960000Y910000D02*
D03*
X3800000D02*
D03*
X3500000Y1770000D02*
D03*
X3660000D02*
D03*
X5600000Y1260000D02*
D03*
X5440000D02*
D03*
X2740000Y3480000D02*
D03*
X2900000D02*
D03*
X3330000Y3090000D02*
D03*
X3490000D02*
D03*
X3330000Y2850000D02*
D03*
X3490000D02*
D03*
X3410000Y4190000D02*
D03*
X3570000D02*
D03*
X3410000Y4060000D02*
D03*
X3570000D02*
D03*
X5070000Y3300000D02*
D03*
X4910000D02*
D03*
X3680000Y2710000D02*
D03*
X3520000D02*
D03*
X5800000Y2930000D02*
D03*
X5640000D02*
D03*
X5800000Y3170000D02*
D03*
X5640000D02*
D03*
D666*
X7720000Y1600000D02*
D03*
Y3360000D02*
D03*
X2840000Y2040000D02*
D03*
X4890000Y4700000D02*
D03*
X3030000D02*
D03*
X4540000D02*
D03*
X2680000D02*
D03*
X7720000Y2100000D02*
D03*
Y3860000D02*
D03*
D667*
X2640000Y2175000D02*
D03*
X5540000Y995000D02*
D03*
X4930000Y1545000D02*
D03*
X2160000Y1515000D02*
D03*
D668*
X2640000Y2025000D02*
D03*
X5540000Y1145000D02*
D03*
X4930000Y1395000D02*
D03*
X2160000Y1365000D02*
D03*
D669*
X2400000Y3840000D02*
D03*
D670*
Y3540000D02*
D03*
D671*
X3220000Y1150000D02*
D03*
Y1310000D02*
D03*
X3230000Y3340000D02*
D03*
Y3180000D02*
D03*
X5930000Y3700000D02*
D03*
Y3540000D02*
D03*
X3220000Y1600000D02*
D03*
Y1440000D02*
D03*
X4310000Y2240000D02*
D03*
Y2080000D02*
D03*
X4380000Y4610000D02*
D03*
Y4770000D02*
D03*
X3610000Y2150000D02*
D03*
Y1990000D02*
D03*
X5480000Y1540000D02*
D03*
Y1380000D02*
D03*
X4810000Y1700000D02*
D03*
Y1540000D02*
D03*
X5430000Y2130000D02*
D03*
Y1970000D02*
D03*
X2070000Y710000D02*
D03*
Y870000D02*
D03*
X2360000Y1140000D02*
D03*
Y1300000D02*
D03*
X3200000Y2680000D02*
D03*
Y2840000D02*
D03*
X6260000Y2690000D02*
D03*
Y2850000D02*
D03*
X5920000Y2690000D02*
D03*
Y2850000D02*
D03*
X2510000Y4620000D02*
D03*
Y4460000D02*
D03*
X6120000Y2690000D02*
D03*
Y2850000D02*
D03*
X3610000Y2290000D02*
D03*
Y2450000D02*
D03*
D672*
X4310000Y1460000D02*
D03*
Y1740000D02*
D03*
X4530000Y1290000D02*
D03*
Y1010000D02*
D03*
X4310000Y1290000D02*
D03*
Y1010000D02*
D03*
X4530000Y1460000D02*
D03*
Y1740000D02*
D03*
X5230000Y3720000D02*
D03*
Y3440000D02*
D03*
X4500000Y1940000D02*
D03*
Y2220000D02*
D03*
X4770000Y1290000D02*
D03*
Y1010000D02*
D03*
D673*
X3820000Y1070000D02*
D03*
X4100000D02*
D03*
X3840000Y1740000D02*
D03*
X4120000D02*
D03*
X2720000Y1480000D02*
D03*
X2440000D02*
D03*
X2660000Y820000D02*
D03*
X2940000D02*
D03*
X5460000Y2340000D02*
D03*
X5180000D02*
D03*
%TF.MD5,59c6dc6c1c3f10236d17a643fadd726f*%
M02*
