%TF.GenerationSoftware,Altium Limited,Altium Designer,22.9.1 (49)*%
G04 Layer_Color=255*
%FSLAX45Y45*%
%MOMM*%
%TF.SameCoordinates,1DF69D78-5120-4B12-B4B9-43D88C5B1DD9*%
%TF.FilePolarity,Positive*%
%TF.FileFunction,Pads,Top*%
%TF.Part,Single*%
G01*
G75*
%TA.AperFunction,SMDPad,CuDef*%
%ADD10R,0.58000X0.22000*%
G04:AMPARAMS|DCode=11|XSize=0.22mm|YSize=0.58mm|CornerRadius=0.055mm|HoleSize=0mm|Usage=FLASHONLY|Rotation=90.000|XOffset=0mm|YOffset=0mm|HoleType=Round|Shape=RoundedRectangle|*
%AMROUNDEDRECTD11*
21,1,0.22000,0.47000,0,0,90.0*
21,1,0.11000,0.58000,0,0,90.0*
1,1,0.11000,0.23500,0.05500*
1,1,0.11000,0.23500,-0.05500*
1,1,0.11000,-0.23500,-0.05500*
1,1,0.11000,-0.23500,0.05500*
%
%ADD11ROUNDEDRECTD11*%
G04:AMPARAMS|DCode=12|XSize=0.54mm|YSize=0.22mm|CornerRadius=0mm|HoleSize=0mm|Usage=FLASHONLY|Rotation=135.000|XOffset=0mm|YOffset=0mm|HoleType=Round|Shape=Round|*
%AMOVALD12*
21,1,0.32000,0.22000,0.00000,0.00000,135.0*
1,1,0.22000,0.11314,-0.11314*
1,1,0.22000,-0.11314,0.11314*
%
%ADD12OVALD12*%

%ADD13O,0.22000X0.45000*%
G04:AMPARAMS|DCode=14|XSize=0.54mm|YSize=0.22mm|CornerRadius=0mm|HoleSize=0mm|Usage=FLASHONLY|Rotation=45.000|XOffset=0mm|YOffset=0mm|HoleType=Round|Shape=Round|*
%AMOVALD14*
21,1,0.32000,0.22000,0.00000,0.00000,45.0*
1,1,0.22000,-0.11314,-0.11314*
1,1,0.22000,0.11314,0.11314*
%
%ADD14OVALD14*%

%ADD15O,0.45000X0.22000*%
G04:AMPARAMS|DCode=16|XSize=0.55mm|YSize=0.8mm|CornerRadius=0.1375mm|HoleSize=0mm|Usage=FLASHONLY|Rotation=0.000|XOffset=0mm|YOffset=0mm|HoleType=Round|Shape=RoundedRectangle|*
%AMROUNDEDRECTD16*
21,1,0.55000,0.52500,0,0,0.0*
21,1,0.27500,0.80000,0,0,0.0*
1,1,0.27500,0.13750,-0.26250*
1,1,0.27500,-0.13750,-0.26250*
1,1,0.27500,-0.13750,0.26250*
1,1,0.27500,0.13750,0.26250*
%
%ADD16ROUNDEDRECTD16*%
G04:AMPARAMS|DCode=17|XSize=0.23mm|YSize=0.67mm|CornerRadius=0.0575mm|HoleSize=0mm|Usage=FLASHONLY|Rotation=90.000|XOffset=0mm|YOffset=0mm|HoleType=Round|Shape=RoundedRectangle|*
%AMROUNDEDRECTD17*
21,1,0.23000,0.55500,0,0,90.0*
21,1,0.11500,0.67000,0,0,90.0*
1,1,0.11500,0.27750,0.05750*
1,1,0.11500,0.27750,-0.05750*
1,1,0.11500,-0.27750,-0.05750*
1,1,0.11500,-0.27750,0.05750*
%
%ADD17ROUNDEDRECTD17*%
G04:AMPARAMS|DCode=18|XSize=0.23mm|YSize=0.67mm|CornerRadius=0.0575mm|HoleSize=0mm|Usage=FLASHONLY|Rotation=0.000|XOffset=0mm|YOffset=0mm|HoleType=Round|Shape=RoundedRectangle|*
%AMROUNDEDRECTD18*
21,1,0.23000,0.55500,0,0,0.0*
21,1,0.11500,0.67000,0,0,0.0*
1,1,0.11500,0.05750,-0.27750*
1,1,0.11500,-0.05750,-0.27750*
1,1,0.11500,-0.05750,0.27750*
1,1,0.11500,0.05750,0.27750*
%
%ADD18ROUNDEDRECTD18*%
G04:AMPARAMS|DCode=19|XSize=1mm|YSize=1.5mm|CornerRadius=0.25mm|HoleSize=0mm|Usage=FLASHONLY|Rotation=0.000|XOffset=0mm|YOffset=0mm|HoleType=Round|Shape=RoundedRectangle|*
%AMROUNDEDRECTD19*
21,1,1.00000,1.00000,0,0,0.0*
21,1,0.50000,1.50000,0,0,0.0*
1,1,0.50000,0.25000,-0.50000*
1,1,0.50000,-0.25000,-0.50000*
1,1,0.50000,-0.25000,0.50000*
1,1,0.50000,0.25000,0.50000*
%
%ADD19ROUNDEDRECTD19*%
G04:AMPARAMS|DCode=20|XSize=0.23mm|YSize=0.7mm|CornerRadius=0.0575mm|HoleSize=0mm|Usage=FLASHONLY|Rotation=90.000|XOffset=0mm|YOffset=0mm|HoleType=Round|Shape=RoundedRectangle|*
%AMROUNDEDRECTD20*
21,1,0.23000,0.58500,0,0,90.0*
21,1,0.11500,0.70000,0,0,90.0*
1,1,0.11500,0.29250,0.05750*
1,1,0.11500,0.29250,-0.05750*
1,1,0.11500,-0.29250,-0.05750*
1,1,0.11500,-0.29250,0.05750*
%
%ADD20ROUNDEDRECTD20*%
G04:AMPARAMS|DCode=21|XSize=2.5mm|YSize=1.65mm|CornerRadius=0.165mm|HoleSize=0mm|Usage=FLASHONLY|Rotation=90.000|XOffset=0mm|YOffset=0mm|HoleType=Round|Shape=RoundedRectangle|*
%AMROUNDEDRECTD21*
21,1,2.50000,1.32000,0,0,90.0*
21,1,2.17000,1.65000,0,0,90.0*
1,1,0.33000,0.66000,1.08500*
1,1,0.33000,0.66000,-1.08500*
1,1,0.33000,-0.66000,-1.08500*
1,1,0.33000,-0.66000,1.08500*
%
%ADD21ROUNDEDRECTD21*%
%ADD22R,0.70000X0.23000*%
G04:AMPARAMS|DCode=23|XSize=0.35mm|YSize=1.15mm|CornerRadius=0.0875mm|HoleSize=0mm|Usage=FLASHONLY|Rotation=90.000|XOffset=0mm|YOffset=0mm|HoleType=Round|Shape=RoundedRectangle|*
%AMROUNDEDRECTD23*
21,1,0.35000,0.97500,0,0,90.0*
21,1,0.17500,1.15000,0,0,90.0*
1,1,0.17500,0.48750,0.08750*
1,1,0.17500,0.48750,-0.08750*
1,1,0.17500,-0.48750,-0.08750*
1,1,0.17500,-0.48750,0.08750*
%
%ADD23ROUNDEDRECTD23*%
%ADD24R,1.15000X0.35000*%
%ADD25R,0.90000X0.55000*%
G04:AMPARAMS|DCode=26|XSize=0.55mm|YSize=0.9mm|CornerRadius=0.1375mm|HoleSize=0mm|Usage=FLASHONLY|Rotation=90.000|XOffset=0mm|YOffset=0mm|HoleType=Round|Shape=RoundedRectangle|*
%AMROUNDEDRECTD26*
21,1,0.55000,0.62500,0,0,90.0*
21,1,0.27500,0.90000,0,0,90.0*
1,1,0.27500,0.31250,0.13750*
1,1,0.27500,0.31250,-0.13750*
1,1,0.27500,-0.31250,-0.13750*
1,1,0.27500,-0.31250,0.13750*
%
%ADD26ROUNDEDRECTD26*%
%ADD27R,0.55000X0.90000*%
G04:AMPARAMS|DCode=28|XSize=0.55mm|YSize=0.9mm|CornerRadius=0.1375mm|HoleSize=0mm|Usage=FLASHONLY|Rotation=0.000|XOffset=0mm|YOffset=0mm|HoleType=Round|Shape=RoundedRectangle|*
%AMROUNDEDRECTD28*
21,1,0.55000,0.62500,0,0,0.0*
21,1,0.27500,0.90000,0,0,0.0*
1,1,0.27500,0.13750,-0.31250*
1,1,0.27500,-0.13750,-0.31250*
1,1,0.27500,-0.13750,0.31250*
1,1,0.27500,0.13750,0.31250*
%
%ADD28ROUNDEDRECTD28*%
G04:AMPARAMS|DCode=29|XSize=1.4mm|YSize=1.3mm|CornerRadius=0.325mm|HoleSize=0mm|Usage=FLASHONLY|Rotation=90.000|XOffset=0mm|YOffset=0mm|HoleType=Round|Shape=RoundedRectangle|*
%AMROUNDEDRECTD29*
21,1,1.40000,0.65000,0,0,90.0*
21,1,0.75000,1.30000,0,0,90.0*
1,1,0.65000,0.32500,0.37500*
1,1,0.65000,0.32500,-0.37500*
1,1,0.65000,-0.32500,-0.37500*
1,1,0.65000,-0.32500,0.37500*
%
%ADD29ROUNDEDRECTD29*%
G04:AMPARAMS|DCode=30|XSize=0.33mm|YSize=0.7mm|CornerRadius=0.0825mm|HoleSize=0mm|Usage=FLASHONLY|Rotation=270.000|XOffset=0mm|YOffset=0mm|HoleType=Round|Shape=RoundedRectangle|*
%AMROUNDEDRECTD30*
21,1,0.33000,0.53500,0,0,270.0*
21,1,0.16500,0.70000,0,0,270.0*
1,1,0.16500,-0.26750,-0.08250*
1,1,0.16500,-0.26750,0.08250*
1,1,0.16500,0.26750,0.08250*
1,1,0.16500,0.26750,-0.08250*
%
%ADD30ROUNDEDRECTD30*%
%ADD31R,0.70000X0.33000*%
%ADD32R,0.25000X0.70000*%
G04:AMPARAMS|DCode=33|XSize=0.25mm|YSize=0.7mm|CornerRadius=0.0625mm|HoleSize=0mm|Usage=FLASHONLY|Rotation=0.000|XOffset=0mm|YOffset=0mm|HoleType=Round|Shape=RoundedRectangle|*
%AMROUNDEDRECTD33*
21,1,0.25000,0.57500,0,0,0.0*
21,1,0.12500,0.70000,0,0,0.0*
1,1,0.12500,0.06250,-0.28750*
1,1,0.12500,-0.06250,-0.28750*
1,1,0.12500,-0.06250,0.28750*
1,1,0.12500,0.06250,0.28750*
%
%ADD33ROUNDEDRECTD33*%
G04:AMPARAMS|DCode=34|XSize=0.55mm|YSize=0.8mm|CornerRadius=0.1375mm|HoleSize=0mm|Usage=FLASHONLY|Rotation=270.000|XOffset=0mm|YOffset=0mm|HoleType=Round|Shape=RoundedRectangle|*
%AMROUNDEDRECTD34*
21,1,0.55000,0.52500,0,0,270.0*
21,1,0.27500,0.80000,0,0,270.0*
1,1,0.27500,-0.26250,-0.13750*
1,1,0.27500,-0.26250,0.13750*
1,1,0.27500,0.26250,0.13750*
1,1,0.27500,0.26250,-0.13750*
%
%ADD34ROUNDEDRECTD34*%
G04:AMPARAMS|DCode=35|XSize=0.35mm|YSize=1.2mm|CornerRadius=0.0875mm|HoleSize=0mm|Usage=FLASHONLY|Rotation=90.000|XOffset=0mm|YOffset=0mm|HoleType=Round|Shape=RoundedRectangle|*
%AMROUNDEDRECTD35*
21,1,0.35000,1.02500,0,0,90.0*
21,1,0.17500,1.20000,0,0,90.0*
1,1,0.17500,0.51250,0.08750*
1,1,0.17500,0.51250,-0.08750*
1,1,0.17500,-0.51250,-0.08750*
1,1,0.17500,-0.51250,0.08750*
%
%ADD35ROUNDEDRECTD35*%
%ADD36R,1.20000X0.35000*%
%ADD37R,0.85000X0.23000*%
G04:AMPARAMS|DCode=38|XSize=0.23mm|YSize=0.85mm|CornerRadius=0.0575mm|HoleSize=0mm|Usage=FLASHONLY|Rotation=90.000|XOffset=0mm|YOffset=0mm|HoleType=Round|Shape=RoundedRectangle|*
%AMROUNDEDRECTD38*
21,1,0.23000,0.73500,0,0,90.0*
21,1,0.11500,0.85000,0,0,90.0*
1,1,0.11500,0.36750,0.05750*
1,1,0.11500,0.36750,-0.05750*
1,1,0.11500,-0.36750,-0.05750*
1,1,0.11500,-0.36750,0.05750*
%
%ADD38ROUNDEDRECTD38*%
G04:AMPARAMS|DCode=39|XSize=2.55mm|YSize=1.1mm|CornerRadius=0.275mm|HoleSize=0mm|Usage=FLASHONLY|Rotation=90.000|XOffset=0mm|YOffset=0mm|HoleType=Round|Shape=RoundedRectangle|*
%AMROUNDEDRECTD39*
21,1,2.55000,0.55000,0,0,90.0*
21,1,2.00000,1.10000,0,0,90.0*
1,1,0.55000,0.27500,1.00000*
1,1,0.55000,0.27500,-1.00000*
1,1,0.55000,-0.27500,-1.00000*
1,1,0.55000,-0.27500,1.00000*
%
%ADD39ROUNDEDRECTD39*%
G04:AMPARAMS|DCode=40|XSize=0.35mm|YSize=1.15mm|CornerRadius=0.0875mm|HoleSize=0mm|Usage=FLASHONLY|Rotation=180.000|XOffset=0mm|YOffset=0mm|HoleType=Round|Shape=RoundedRectangle|*
%AMROUNDEDRECTD40*
21,1,0.35000,0.97500,0,0,180.0*
21,1,0.17500,1.15000,0,0,180.0*
1,1,0.17500,-0.08750,0.48750*
1,1,0.17500,0.08750,0.48750*
1,1,0.17500,0.08750,-0.48750*
1,1,0.17500,-0.08750,-0.48750*
%
%ADD40ROUNDEDRECTD40*%
%ADD41R,0.35000X1.15000*%
%ADD42R,0.23000X0.85000*%
G04:AMPARAMS|DCode=43|XSize=0.23mm|YSize=0.85mm|CornerRadius=0.0575mm|HoleSize=0mm|Usage=FLASHONLY|Rotation=0.000|XOffset=0mm|YOffset=0mm|HoleType=Round|Shape=RoundedRectangle|*
%AMROUNDEDRECTD43*
21,1,0.23000,0.73500,0,0,0.0*
21,1,0.11500,0.85000,0,0,0.0*
1,1,0.11500,0.05750,-0.36750*
1,1,0.11500,-0.05750,-0.36750*
1,1,0.11500,-0.05750,0.36750*
1,1,0.11500,0.05750,0.36750*
%
%ADD43ROUNDEDRECTD43*%
G04:AMPARAMS|DCode=44|XSize=2.55mm|YSize=1.1mm|CornerRadius=0.275mm|HoleSize=0mm|Usage=FLASHONLY|Rotation=0.000|XOffset=0mm|YOffset=0mm|HoleType=Round|Shape=RoundedRectangle|*
%AMROUNDEDRECTD44*
21,1,2.55000,0.55000,0,0,0.0*
21,1,2.00000,1.10000,0,0,0.0*
1,1,0.55000,1.00000,-0.27500*
1,1,0.55000,-1.00000,-0.27500*
1,1,0.55000,-1.00000,0.27500*
1,1,0.55000,1.00000,0.27500*
%
%ADD44ROUNDEDRECTD44*%
%ADD45O,0.80000X0.60000*%
%ADD46O,0.60000X0.80000*%
G04:AMPARAMS|DCode=47|XSize=0.6mm|YSize=0.7mm|CornerRadius=0.15mm|HoleSize=0mm|Usage=FLASHONLY|Rotation=0.000|XOffset=0mm|YOffset=0mm|HoleType=Round|Shape=RoundedRectangle|*
%AMROUNDEDRECTD47*
21,1,0.60000,0.40000,0,0,0.0*
21,1,0.30000,0.70000,0,0,0.0*
1,1,0.30000,0.15000,-0.20000*
1,1,0.30000,-0.15000,-0.20000*
1,1,0.30000,-0.15000,0.20000*
1,1,0.30000,0.15000,0.20000*
%
%ADD47ROUNDEDRECTD47*%
G04:AMPARAMS|DCode=48|XSize=0.6mm|YSize=0.6mm|CornerRadius=0.15mm|HoleSize=0mm|Usage=FLASHONLY|Rotation=270.000|XOffset=0mm|YOffset=0mm|HoleType=Round|Shape=RoundedRectangle|*
%AMROUNDEDRECTD48*
21,1,0.60000,0.30000,0,0,270.0*
21,1,0.30000,0.60000,0,0,270.0*
1,1,0.30000,-0.15000,-0.15000*
1,1,0.30000,-0.15000,0.15000*
1,1,0.30000,0.15000,0.15000*
1,1,0.30000,0.15000,-0.15000*
%
%ADD48ROUNDEDRECTD48*%
G04:AMPARAMS|DCode=49|XSize=0.6mm|YSize=0.6mm|CornerRadius=0.15mm|HoleSize=0mm|Usage=FLASHONLY|Rotation=0.000|XOffset=0mm|YOffset=0mm|HoleType=Round|Shape=RoundedRectangle|*
%AMROUNDEDRECTD49*
21,1,0.60000,0.30000,0,0,0.0*
21,1,0.30000,0.60000,0,0,0.0*
1,1,0.30000,0.15000,-0.15000*
1,1,0.30000,-0.15000,-0.15000*
1,1,0.30000,-0.15000,0.15000*
1,1,0.30000,0.15000,0.15000*
%
%ADD49ROUNDEDRECTD49*%
%ADD50R,0.24000X0.70000*%
%ADD51O,1.70000X0.30000*%
%ADD52R,0.70000X0.24000*%
%ADD53O,0.30000X1.70000*%
G04:AMPARAMS|DCode=54|XSize=1.8mm|YSize=0.63mm|CornerRadius=0.1575mm|HoleSize=0mm|Usage=FLASHONLY|Rotation=180.000|XOffset=0mm|YOffset=0mm|HoleType=Round|Shape=RoundedRectangle|*
%AMROUNDEDRECTD54*
21,1,1.80000,0.31500,0,0,180.0*
21,1,1.48500,0.63000,0,0,180.0*
1,1,0.31500,-0.74250,0.15750*
1,1,0.31500,0.74250,0.15750*
1,1,0.31500,0.74250,-0.15750*
1,1,0.31500,-0.74250,-0.15750*
%
%ADD54ROUNDEDRECTD54*%
G04:AMPARAMS|DCode=55|XSize=1.8mm|YSize=0.72mm|CornerRadius=0.18mm|HoleSize=0mm|Usage=FLASHONLY|Rotation=180.000|XOffset=0mm|YOffset=0mm|HoleType=Round|Shape=RoundedRectangle|*
%AMROUNDEDRECTD55*
21,1,1.80000,0.36000,0,0,180.0*
21,1,1.44000,0.72000,0,0,180.0*
1,1,0.36000,-0.72000,0.18000*
1,1,0.36000,0.72000,0.18000*
1,1,0.36000,0.72000,-0.18000*
1,1,0.36000,-0.72000,-0.18000*
%
%ADD55ROUNDEDRECTD55*%
G04:AMPARAMS|DCode=56|XSize=1.8mm|YSize=0.8mm|CornerRadius=0.2mm|HoleSize=0mm|Usage=FLASHONLY|Rotation=180.000|XOffset=0mm|YOffset=0mm|HoleType=Round|Shape=RoundedRectangle|*
%AMROUNDEDRECTD56*
21,1,1.80000,0.40000,0,0,180.0*
21,1,1.40000,0.80000,0,0,180.0*
1,1,0.40000,-0.70000,0.20000*
1,1,0.40000,0.70000,0.20000*
1,1,0.40000,0.70000,-0.20000*
1,1,0.40000,-0.70000,-0.20000*
%
%ADD56ROUNDEDRECTD56*%
%TA.AperFunction,SMDPad,SMDef*%
%ADD57C,0.30000*%
%TA.AperFunction,SMDPad,CuDef*%
G04:AMPARAMS|DCode=58|XSize=3mm|YSize=1mm|CornerRadius=0.25mm|HoleSize=0mm|Usage=FLASHONLY|Rotation=90.000|XOffset=0mm|YOffset=0mm|HoleType=Round|Shape=RoundedRectangle|*
%AMROUNDEDRECTD58*
21,1,3.00000,0.50000,0,0,90.0*
21,1,2.50000,1.00000,0,0,90.0*
1,1,0.50000,0.25000,1.25000*
1,1,0.50000,0.25000,-1.25000*
1,1,0.50000,-0.25000,-1.25000*
1,1,0.50000,-0.25000,1.25000*
%
%ADD58ROUNDEDRECTD58*%
%TA.AperFunction,SMDPad,SMDef*%
G04:AMPARAMS|DCode=59|XSize=3.8mm|YSize=1mm|CornerRadius=0.25mm|HoleSize=0mm|Usage=FLASHONLY|Rotation=90.000|XOffset=0mm|YOffset=0mm|HoleType=Round|Shape=RoundedRectangle|*
%AMROUNDEDRECTD59*
21,1,3.80000,0.50000,0,0,90.0*
21,1,3.30000,1.00000,0,0,90.0*
1,1,0.50000,0.25000,1.65000*
1,1,0.50000,0.25000,-1.65000*
1,1,0.50000,-0.25000,-1.65000*
1,1,0.50000,-0.25000,1.65000*
%
%ADD59ROUNDEDRECTD59*%
%TA.AperFunction,SMDPad,CuDef*%
G04:AMPARAMS|DCode=60|XSize=1.6mm|YSize=1mm|CornerRadius=0.25mm|HoleSize=0mm|Usage=FLASHONLY|Rotation=180.000|XOffset=0mm|YOffset=0mm|HoleType=Round|Shape=RoundedRectangle|*
%AMROUNDEDRECTD60*
21,1,1.60000,0.50000,0,0,180.0*
21,1,1.10000,1.00000,0,0,180.0*
1,1,0.50000,-0.55000,0.25000*
1,1,0.50000,0.55000,0.25000*
1,1,0.50000,0.55000,-0.25000*
1,1,0.50000,-0.55000,-0.25000*
%
%ADD60ROUNDEDRECTD60*%
G04:AMPARAMS|DCode=61|XSize=3mm|YSize=1mm|CornerRadius=0.25mm|HoleSize=0mm|Usage=FLASHONLY|Rotation=0.000|XOffset=0mm|YOffset=0mm|HoleType=Round|Shape=RoundedRectangle|*
%AMROUNDEDRECTD61*
21,1,3.00000,0.50000,0,0,0.0*
21,1,2.50000,1.00000,0,0,0.0*
1,1,0.50000,1.25000,-0.25000*
1,1,0.50000,-1.25000,-0.25000*
1,1,0.50000,-1.25000,0.25000*
1,1,0.50000,1.25000,0.25000*
%
%ADD61ROUNDEDRECTD61*%
%TA.AperFunction,SMDPad,SMDef*%
G04:AMPARAMS|DCode=62|XSize=3.8mm|YSize=1mm|CornerRadius=0.25mm|HoleSize=0mm|Usage=FLASHONLY|Rotation=0.000|XOffset=0mm|YOffset=0mm|HoleType=Round|Shape=RoundedRectangle|*
%AMROUNDEDRECTD62*
21,1,3.80000,0.50000,0,0,0.0*
21,1,3.30000,1.00000,0,0,0.0*
1,1,0.50000,1.65000,-0.25000*
1,1,0.50000,-1.65000,-0.25000*
1,1,0.50000,-1.65000,0.25000*
1,1,0.50000,1.65000,0.25000*
%
%ADD62ROUNDEDRECTD62*%
%TA.AperFunction,SMDPad,CuDef*%
G04:AMPARAMS|DCode=63|XSize=1.6mm|YSize=1mm|CornerRadius=0.25mm|HoleSize=0mm|Usage=FLASHONLY|Rotation=90.000|XOffset=0mm|YOffset=0mm|HoleType=Round|Shape=RoundedRectangle|*
%AMROUNDEDRECTD63*
21,1,1.60000,0.50000,0,0,90.0*
21,1,1.10000,1.00000,0,0,90.0*
1,1,0.50000,0.25000,0.55000*
1,1,0.50000,0.25000,-0.55000*
1,1,0.50000,-0.25000,-0.55000*
1,1,0.50000,-0.25000,0.55000*
%
%ADD63ROUNDEDRECTD63*%
G04:AMPARAMS|DCode=64|XSize=2.8mm|YSize=1.3mm|CornerRadius=0.325mm|HoleSize=0mm|Usage=FLASHONLY|Rotation=90.000|XOffset=0mm|YOffset=0mm|HoleType=Round|Shape=RoundedRectangle|*
%AMROUNDEDRECTD64*
21,1,2.80000,0.65000,0,0,90.0*
21,1,2.15000,1.30000,0,0,90.0*
1,1,0.65000,0.32500,1.07500*
1,1,0.65000,0.32500,-1.07500*
1,1,0.65000,-0.32500,-1.07500*
1,1,0.65000,-0.32500,1.07500*
%
%ADD64ROUNDEDRECTD64*%
G04:AMPARAMS|DCode=65|XSize=2.8mm|YSize=1.3mm|CornerRadius=0.325mm|HoleSize=0mm|Usage=FLASHONLY|Rotation=0.000|XOffset=0mm|YOffset=0mm|HoleType=Round|Shape=RoundedRectangle|*
%AMROUNDEDRECTD65*
21,1,2.80000,0.65000,0,0,0.0*
21,1,2.15000,1.30000,0,0,0.0*
1,1,0.65000,1.07500,-0.32500*
1,1,0.65000,-1.07500,-0.32500*
1,1,0.65000,-1.07500,0.32500*
1,1,0.65000,1.07500,0.32500*
%
%ADD65ROUNDEDRECTD65*%
G04:AMPARAMS|DCode=66|XSize=0.9mm|YSize=0.8mm|CornerRadius=0.2mm|HoleSize=0mm|Usage=FLASHONLY|Rotation=0.000|XOffset=0mm|YOffset=0mm|HoleType=Round|Shape=RoundedRectangle|*
%AMROUNDEDRECTD66*
21,1,0.90000,0.40000,0,0,0.0*
21,1,0.50000,0.80000,0,0,0.0*
1,1,0.40000,0.25000,-0.20000*
1,1,0.40000,-0.25000,-0.20000*
1,1,0.40000,-0.25000,0.20000*
1,1,0.40000,0.25000,0.20000*
%
%ADD66ROUNDEDRECTD66*%
G04:AMPARAMS|DCode=67|XSize=0.8mm|YSize=0.8mm|CornerRadius=0.2mm|HoleSize=0mm|Usage=FLASHONLY|Rotation=90.000|XOffset=0mm|YOffset=0mm|HoleType=Round|Shape=RoundedRectangle|*
%AMROUNDEDRECTD67*
21,1,0.80000,0.40000,0,0,90.0*
21,1,0.40000,0.80000,0,0,90.0*
1,1,0.40000,0.20000,0.20000*
1,1,0.40000,0.20000,-0.20000*
1,1,0.40000,-0.20000,-0.20000*
1,1,0.40000,-0.20000,0.20000*
%
%ADD67ROUNDEDRECTD67*%
%ADD68R,0.80000X0.80000*%
G04:AMPARAMS|DCode=69|XSize=0.5mm|YSize=0.7mm|CornerRadius=0.125mm|HoleSize=0mm|Usage=FLASHONLY|Rotation=180.000|XOffset=0mm|YOffset=0mm|HoleType=Round|Shape=RoundedRectangle|*
%AMROUNDEDRECTD69*
21,1,0.50000,0.45000,0,0,180.0*
21,1,0.25000,0.70000,0,0,180.0*
1,1,0.25000,-0.12500,0.22500*
1,1,0.25000,0.12500,0.22500*
1,1,0.25000,0.12500,-0.22500*
1,1,0.25000,-0.12500,-0.22500*
%
%ADD69ROUNDEDRECTD69*%
%ADD70R,0.50000X0.70000*%
G04:AMPARAMS|DCode=71|XSize=1.1mm|YSize=1.1mm|CornerRadius=0.275mm|HoleSize=0mm|Usage=FLASHONLY|Rotation=180.000|XOffset=0mm|YOffset=0mm|HoleType=Round|Shape=RoundedRectangle|*
%AMROUNDEDRECTD71*
21,1,1.10000,0.55000,0,0,180.0*
21,1,0.55000,1.10000,0,0,180.0*
1,1,0.55000,-0.27500,0.27500*
1,1,0.55000,0.27500,0.27500*
1,1,0.55000,0.27500,-0.27500*
1,1,0.55000,-0.27500,-0.27500*
%
%ADD71ROUNDEDRECTD71*%
%ADD72R,1.10000X1.10000*%
G04:AMPARAMS|DCode=73|XSize=0.8mm|YSize=0.8mm|CornerRadius=0.2mm|HoleSize=0mm|Usage=FLASHONLY|Rotation=180.000|XOffset=0mm|YOffset=0mm|HoleType=Round|Shape=RoundedRectangle|*
%AMROUNDEDRECTD73*
21,1,0.80000,0.40000,0,0,180.0*
21,1,0.40000,0.80000,0,0,180.0*
1,1,0.40000,-0.20000,0.20000*
1,1,0.40000,0.20000,0.20000*
1,1,0.40000,0.20000,-0.20000*
1,1,0.40000,-0.20000,-0.20000*
%
%ADD73ROUNDEDRECTD73*%
G04:AMPARAMS|DCode=74|XSize=1.65mm|YSize=1.25mm|CornerRadius=0.3125mm|HoleSize=0mm|Usage=FLASHONLY|Rotation=0.000|XOffset=0mm|YOffset=0mm|HoleType=Round|Shape=RoundedRectangle|*
%AMROUNDEDRECTD74*
21,1,1.65000,0.62500,0,0,0.0*
21,1,1.02500,1.25000,0,0,0.0*
1,1,0.62500,0.51250,-0.31250*
1,1,0.62500,-0.51250,-0.31250*
1,1,0.62500,-0.51250,0.31250*
1,1,0.62500,0.51250,0.31250*
%
%ADD74ROUNDEDRECTD74*%
G04:AMPARAMS|DCode=75|XSize=1.65mm|YSize=1.25mm|CornerRadius=0.3125mm|HoleSize=0mm|Usage=FLASHONLY|Rotation=270.000|XOffset=0mm|YOffset=0mm|HoleType=Round|Shape=RoundedRectangle|*
%AMROUNDEDRECTD75*
21,1,1.65000,0.62500,0,0,270.0*
21,1,1.02500,1.25000,0,0,270.0*
1,1,0.62500,-0.31250,-0.51250*
1,1,0.62500,-0.31250,0.51250*
1,1,0.62500,0.31250,0.51250*
1,1,0.62500,0.31250,-0.51250*
%
%ADD75ROUNDEDRECTD75*%
%TA.AperFunction,ComponentPad*%
G04:AMPARAMS|DCode=95|XSize=1.7mm|YSize=2.1mm|CornerRadius=0mm|HoleSize=0mm|Usage=FLASHONLY|Rotation=270.000|XOffset=0mm|YOffset=0mm|HoleType=Round|Shape=Octagon|*
%AMOCTAGOND95*
4,1,8,1.05000,0.42500,1.05000,-0.42500,0.62500,-0.85000,-0.62500,-0.85000,-1.05000,-0.42500,-1.05000,0.42500,-0.62500,0.85000,0.62500,0.85000,1.05000,0.42500,0.0*
%
%ADD95OCTAGOND95*%

G04:AMPARAMS|DCode=96|XSize=1.7mm|YSize=2.1mm|CornerRadius=0.425mm|HoleSize=0mm|Usage=FLASHONLY|Rotation=270.000|XOffset=0mm|YOffset=0mm|HoleType=Round|Shape=RoundedRectangle|*
%AMROUNDEDRECTD96*
21,1,1.70000,1.25001,0,0,270.0*
21,1,0.85000,2.10000,0,0,270.0*
1,1,0.85000,-0.62500,-0.42500*
1,1,0.85000,-0.62500,0.42500*
1,1,0.85000,0.62500,0.42500*
1,1,0.85000,0.62500,-0.42500*
%
%ADD96ROUNDEDRECTD96*%
G04:AMPARAMS|DCode=97|XSize=1.7mm|YSize=2.1mm|CornerRadius=0mm|HoleSize=0mm|Usage=FLASHONLY|Rotation=0.000|XOffset=0mm|YOffset=0mm|HoleType=Round|Shape=Octagon|*
%AMOCTAGOND97*
4,1,8,-0.42500,1.05000,0.42500,1.05000,0.85000,0.62500,0.85000,-0.62500,0.42500,-1.05000,-0.42500,-1.05000,-0.85000,-0.62500,-0.85000,0.62500,-0.42500,1.05000,0.0*
%
%ADD97OCTAGOND97*%

G04:AMPARAMS|DCode=98|XSize=1.7mm|YSize=2.1mm|CornerRadius=0.425mm|HoleSize=0mm|Usage=FLASHONLY|Rotation=0.000|XOffset=0mm|YOffset=0mm|HoleType=Round|Shape=RoundedRectangle|*
%AMROUNDEDRECTD98*
21,1,1.70000,1.25001,0,0,0.0*
21,1,0.85000,2.10000,0,0,0.0*
1,1,0.85000,0.42500,-0.62500*
1,1,0.85000,-0.42500,-0.62500*
1,1,0.85000,-0.42500,0.62500*
1,1,0.85000,0.42500,0.62500*
%
%ADD98ROUNDEDRECTD98*%
G04:AMPARAMS|DCode=99|XSize=1.8mm|YSize=1.45mm|CornerRadius=0.3625mm|HoleSize=0mm|Usage=FLASHONLY|Rotation=180.000|XOffset=0mm|YOffset=0mm|HoleType=Round|Shape=RoundedRectangle|*
%AMROUNDEDRECTD99*
21,1,1.80000,0.72500,0,0,180.0*
21,1,1.07500,1.45000,0,0,180.0*
1,1,0.72500,-0.53750,0.36250*
1,1,0.72500,0.53750,0.36250*
1,1,0.72500,0.53750,-0.36250*
1,1,0.72500,-0.53750,-0.36250*
%
%ADD99ROUNDEDRECTD99*%
G04:AMPARAMS|DCode=100|XSize=4mm|YSize=3.6mm|CornerRadius=0.54mm|HoleSize=0mm|Usage=FLASHONLY|Rotation=0.000|XOffset=0mm|YOffset=0mm|HoleType=Round|Shape=RoundedRectangle|*
%AMROUNDEDRECTD100*
21,1,4.00000,2.52000,0,0,0.0*
21,1,2.92000,3.60000,0,0,0.0*
1,1,1.08000,1.46000,-1.26000*
1,1,1.08000,-1.46000,-1.26000*
1,1,1.08000,-1.46000,1.26000*
1,1,1.08000,1.46000,1.26000*
%
%ADD100ROUNDEDRECTD100*%
G04:AMPARAMS|DCode=101|XSize=2.2mm|YSize=2.2mm|CornerRadius=0mm|HoleSize=0mm|Usage=FLASHONLY|Rotation=270.000|XOffset=0mm|YOffset=0mm|HoleType=Round|Shape=Octagon|*
%AMOCTAGOND101*
4,1,8,-0.55000,-1.10000,0.55000,-1.10000,1.10000,-0.55000,1.10000,0.55000,0.55000,1.10000,-0.55000,1.10000,-1.10000,0.55000,-1.10000,-0.55000,-0.55000,-1.10000,0.0*
%
%ADD101OCTAGOND101*%

G04:AMPARAMS|DCode=102|XSize=2.2mm|YSize=2.2mm|CornerRadius=0.55mm|HoleSize=0mm|Usage=FLASHONLY|Rotation=270.000|XOffset=0mm|YOffset=0mm|HoleType=Round|Shape=RoundedRectangle|*
%AMROUNDEDRECTD102*
21,1,2.20000,1.10000,0,0,270.0*
21,1,1.10000,2.20000,0,0,270.0*
1,1,1.10000,-0.55000,-0.55000*
1,1,1.10000,-0.55000,0.55000*
1,1,1.10000,0.55000,0.55000*
1,1,1.10000,0.55000,-0.55000*
%
%ADD102ROUNDEDRECTD102*%
D10*
X6067000Y935000D02*
D03*
X6987000Y1425000D02*
D03*
Y2405000D02*
D03*
X6067000Y1775000D02*
D03*
Y2015000D02*
D03*
Y1225000D02*
D03*
Y1535000D02*
D03*
X6987000Y1930000D02*
D03*
Y2869975D02*
D03*
X7677000Y925000D02*
D03*
X7487000Y1985000D02*
D03*
X7217000Y965000D02*
D03*
X7487000Y2465000D02*
D03*
X6737000Y1025000D02*
D03*
X7487000Y2935000D02*
D03*
X7487000Y1475000D02*
D03*
D11*
X6067000Y885000D02*
D03*
Y835000D02*
D03*
Y785000D02*
D03*
X6153000Y935000D02*
D03*
Y885000D02*
D03*
Y835000D02*
D03*
Y785000D02*
D03*
X6987000Y1375000D02*
D03*
Y1325000D02*
D03*
Y1275000D02*
D03*
X7073000Y1425000D02*
D03*
Y1375000D02*
D03*
Y1325000D02*
D03*
Y1275000D02*
D03*
X6987000Y2355000D02*
D03*
Y2305000D02*
D03*
Y2255000D02*
D03*
X7073000Y2405000D02*
D03*
Y2355000D02*
D03*
Y2305000D02*
D03*
Y2255000D02*
D03*
X6067000Y1725000D02*
D03*
Y1675000D02*
D03*
Y1625000D02*
D03*
X6153000Y1775000D02*
D03*
Y1725000D02*
D03*
Y1675000D02*
D03*
Y1625000D02*
D03*
X6067000Y1965000D02*
D03*
Y1915000D02*
D03*
Y1865000D02*
D03*
X6153000Y2015000D02*
D03*
Y1965000D02*
D03*
Y1915000D02*
D03*
Y1865000D02*
D03*
X6067000Y1175000D02*
D03*
Y1125000D02*
D03*
Y1075000D02*
D03*
X6153000Y1225000D02*
D03*
Y1175000D02*
D03*
Y1125000D02*
D03*
Y1075000D02*
D03*
X6067000Y1485000D02*
D03*
Y1435000D02*
D03*
Y1385000D02*
D03*
X6153000Y1535000D02*
D03*
Y1485000D02*
D03*
Y1435000D02*
D03*
Y1385000D02*
D03*
X6987000Y1880000D02*
D03*
Y1830000D02*
D03*
Y1780000D02*
D03*
X7073000Y1930000D02*
D03*
Y1880000D02*
D03*
Y1830000D02*
D03*
Y1780000D02*
D03*
X6987000Y2819975D02*
D03*
Y2769975D02*
D03*
Y2719975D02*
D03*
X7073000Y2869975D02*
D03*
Y2819975D02*
D03*
Y2769975D02*
D03*
Y2719975D02*
D03*
X7677000Y875000D02*
D03*
Y825000D02*
D03*
Y775000D02*
D03*
Y725000D02*
D03*
Y675000D02*
D03*
X7763000Y925000D02*
D03*
Y875000D02*
D03*
Y825000D02*
D03*
Y775000D02*
D03*
Y725000D02*
D03*
Y675000D02*
D03*
X7487000Y1935000D02*
D03*
Y1885000D02*
D03*
Y1835000D02*
D03*
Y1785000D02*
D03*
Y1735000D02*
D03*
X7573000Y1985000D02*
D03*
Y1935000D02*
D03*
Y1885000D02*
D03*
Y1835000D02*
D03*
Y1785000D02*
D03*
Y1735000D02*
D03*
X7217000Y915000D02*
D03*
Y865000D02*
D03*
Y815000D02*
D03*
Y765000D02*
D03*
Y715000D02*
D03*
X7303000Y965000D02*
D03*
Y915000D02*
D03*
Y865000D02*
D03*
Y815000D02*
D03*
Y765000D02*
D03*
Y715000D02*
D03*
X7487000Y2415000D02*
D03*
Y2365000D02*
D03*
Y2315000D02*
D03*
Y2265000D02*
D03*
Y2215000D02*
D03*
X7573000Y2465000D02*
D03*
Y2415000D02*
D03*
Y2365000D02*
D03*
Y2315000D02*
D03*
Y2265000D02*
D03*
Y2215000D02*
D03*
X6737000Y975000D02*
D03*
Y925000D02*
D03*
Y875000D02*
D03*
Y825000D02*
D03*
Y775000D02*
D03*
X6823000Y1025000D02*
D03*
Y975000D02*
D03*
Y925000D02*
D03*
Y875000D02*
D03*
Y825000D02*
D03*
Y775000D02*
D03*
X7487000Y2885000D02*
D03*
Y2835000D02*
D03*
Y2785000D02*
D03*
Y2735000D02*
D03*
Y2685000D02*
D03*
X7573000Y2935000D02*
D03*
Y2885000D02*
D03*
Y2835000D02*
D03*
Y2785000D02*
D03*
Y2735000D02*
D03*
Y2685000D02*
D03*
X7487000Y1425000D02*
D03*
Y1375000D02*
D03*
Y1325000D02*
D03*
Y1275000D02*
D03*
Y1225000D02*
D03*
X7573000Y1475000D02*
D03*
Y1425000D02*
D03*
Y1375000D02*
D03*
Y1325000D02*
D03*
Y1275000D02*
D03*
Y1225000D02*
D03*
D12*
X6784747Y3930254D02*
D03*
X6955253Y3809747D02*
D03*
X7184747Y3930253D02*
D03*
X7355253Y3809747D02*
D03*
X6784747Y3570253D02*
D03*
X6955253Y3449747D02*
D03*
D13*
X6845000Y3930001D02*
D03*
X6895000D02*
D03*
X6845000Y3810001D02*
D03*
X6895000D02*
D03*
X7245000Y3930000D02*
D03*
X7295000D02*
D03*
X7245000Y3810000D02*
D03*
X7295000D02*
D03*
X6845000Y3570000D02*
D03*
X6895000D02*
D03*
X6845000Y3450000D02*
D03*
X6895000D02*
D03*
D14*
X6955253Y3930254D02*
D03*
X6784747Y3809747D02*
D03*
X7355253Y3930253D02*
D03*
X7184747Y3809747D02*
D03*
X6955253Y3570253D02*
D03*
X6784747Y3449747D02*
D03*
D15*
X6785000Y3870000D02*
D03*
X6955000D02*
D03*
X7185000Y3870000D02*
D03*
X7355000D02*
D03*
X6785000Y3510000D02*
D03*
X6955000D02*
D03*
D16*
X5795000Y3787500D02*
D03*
X5700000D02*
D03*
X5605000D02*
D03*
Y3532500D02*
D03*
X5795000D02*
D03*
X5865000Y2407500D02*
D03*
X5770000D02*
D03*
X5675000D02*
D03*
Y2152500D02*
D03*
X5865000D02*
D03*
D17*
X6752000Y4490000D02*
D03*
Y4290000D02*
D03*
Y4440000D02*
D03*
Y4390000D02*
D03*
Y4340000D02*
D03*
X6988000Y4290000D02*
D03*
Y4340000D02*
D03*
Y4390000D02*
D03*
Y4440000D02*
D03*
Y4490000D02*
D03*
X7246998Y4580001D02*
D03*
Y4380001D02*
D03*
Y4530001D02*
D03*
Y4480001D02*
D03*
Y4430001D02*
D03*
X7482998Y4380001D02*
D03*
Y4430001D02*
D03*
Y4480001D02*
D03*
Y4530001D02*
D03*
Y4580001D02*
D03*
D18*
X6845000Y4247000D02*
D03*
X6895000D02*
D03*
Y4533000D02*
D03*
X6845000D02*
D03*
X7339998Y4337001D02*
D03*
X7389998D02*
D03*
Y4623001D02*
D03*
X7339998D02*
D03*
D19*
X6870000Y4390000D02*
D03*
X7364998Y4480001D02*
D03*
D20*
X3665000Y1320000D02*
D03*
Y1370000D02*
D03*
Y1420000D02*
D03*
Y1470000D02*
D03*
Y1520000D02*
D03*
X3355000Y1320000D02*
D03*
Y1370000D02*
D03*
Y1420000D02*
D03*
Y1470000D02*
D03*
X3254999Y2205000D02*
D03*
Y2255000D02*
D03*
Y2305000D02*
D03*
Y2355000D02*
D03*
X2964999Y2205000D02*
D03*
Y2255000D02*
D03*
Y2305000D02*
D03*
D21*
X3510000Y1420000D02*
D03*
D22*
X3355000Y1520000D02*
D03*
X2964999Y2355000D02*
D03*
D23*
X4172500Y2032500D02*
D03*
Y2097500D02*
D03*
Y2162500D02*
D03*
Y2227500D02*
D03*
X3747500Y2032500D02*
D03*
Y2097500D02*
D03*
Y2162500D02*
D03*
X5202500Y1912500D02*
D03*
Y1977500D02*
D03*
Y2042500D02*
D03*
Y2107500D02*
D03*
X4777500Y1912500D02*
D03*
Y1977500D02*
D03*
Y2042500D02*
D03*
X2797500Y4117500D02*
D03*
Y4052500D02*
D03*
Y3987500D02*
D03*
Y3922500D02*
D03*
X3222500Y4117500D02*
D03*
Y4052500D02*
D03*
Y3987500D02*
D03*
X5207500Y4327500D02*
D03*
Y4262500D02*
D03*
Y4197500D02*
D03*
Y4132500D02*
D03*
X5632500Y4327500D02*
D03*
Y4262500D02*
D03*
Y4197500D02*
D03*
D24*
X3747500Y2227500D02*
D03*
X4777500Y2107500D02*
D03*
X3222500Y3922500D02*
D03*
X5632500Y4132500D02*
D03*
D25*
X5050000Y1225000D02*
D03*
D26*
Y1130000D02*
D03*
Y1035000D02*
D03*
X5310000D02*
D03*
Y1130000D02*
D03*
Y1225000D02*
D03*
D27*
X2495000Y2360000D02*
D03*
D28*
X2400000D02*
D03*
X2305000D02*
D03*
Y2100000D02*
D03*
X2400000D02*
D03*
X2495000D02*
D03*
D29*
X3109999Y2280000D02*
D03*
D30*
X8250265Y2714551D02*
D03*
Y2779551D02*
D03*
Y2844551D02*
D03*
X8450266D02*
D03*
Y2779551D02*
D03*
D31*
Y2714551D02*
D03*
D32*
X7839999Y4640000D02*
D03*
D33*
X7789999D02*
D03*
X7739999D02*
D03*
X7689999D02*
D03*
X7839999Y4340000D02*
D03*
X7789999D02*
D03*
X7739999D02*
D03*
X7689999D02*
D03*
D34*
X3267500Y3485000D02*
D03*
Y3580000D02*
D03*
Y3675000D02*
D03*
X3012500D02*
D03*
Y3485000D02*
D03*
D35*
X4195000Y2832500D02*
D03*
Y2897500D02*
D03*
Y2962500D02*
D03*
Y3027500D02*
D03*
Y3092500D02*
D03*
Y3157500D02*
D03*
Y3222500D02*
D03*
Y3287500D02*
D03*
X3625000Y2832500D02*
D03*
Y2897500D02*
D03*
Y2962500D02*
D03*
Y3027500D02*
D03*
Y3092500D02*
D03*
Y3157500D02*
D03*
Y3222500D02*
D03*
X4275000Y3872500D02*
D03*
Y3937500D02*
D03*
Y4002500D02*
D03*
Y4067500D02*
D03*
Y4132500D02*
D03*
Y4197500D02*
D03*
Y4262500D02*
D03*
Y4327500D02*
D03*
X3705000Y3872500D02*
D03*
Y3937500D02*
D03*
Y4002500D02*
D03*
Y4067500D02*
D03*
Y4132500D02*
D03*
Y4197500D02*
D03*
Y4262500D02*
D03*
X4925000Y3167500D02*
D03*
Y3102500D02*
D03*
Y3037500D02*
D03*
Y2972500D02*
D03*
Y2907500D02*
D03*
Y2842500D02*
D03*
Y2777500D02*
D03*
Y2712500D02*
D03*
X5495000Y3167500D02*
D03*
Y3102500D02*
D03*
Y3037500D02*
D03*
Y2972500D02*
D03*
Y2907500D02*
D03*
Y2842500D02*
D03*
Y2777500D02*
D03*
D36*
X3625000Y3287500D02*
D03*
X3705000Y4327500D02*
D03*
X5495000Y2712500D02*
D03*
D37*
X3795000Y3630000D02*
D03*
D38*
Y3580000D02*
D03*
Y3530000D02*
D03*
Y3480000D02*
D03*
Y3430000D02*
D03*
X4085000Y3630000D02*
D03*
Y3580000D02*
D03*
Y3530000D02*
D03*
Y3480000D02*
D03*
Y3430000D02*
D03*
D39*
X3940000Y3530000D02*
D03*
D40*
X3087500Y3242500D02*
D03*
X3022500D02*
D03*
X2957500D02*
D03*
X2892500D02*
D03*
X3087500Y2817500D02*
D03*
X3022500D02*
D03*
X2957500D02*
D03*
X6102500Y3187500D02*
D03*
X6167500D02*
D03*
X6232500D02*
D03*
X6297500D02*
D03*
X6102500Y3612500D02*
D03*
X6167500D02*
D03*
X6232500D02*
D03*
D41*
X2892500Y2817500D02*
D03*
X6297500Y3612500D02*
D03*
D42*
X4950000Y4115000D02*
D03*
D43*
X4900000D02*
D03*
X4850000D02*
D03*
X4800000D02*
D03*
X4750000D02*
D03*
X4950000Y3825000D02*
D03*
X4900000D02*
D03*
X4850000D02*
D03*
X4800000D02*
D03*
X4750000D02*
D03*
D44*
X4850000Y3970000D02*
D03*
D45*
X3480000Y3430000D02*
D03*
X3890000Y2790000D02*
D03*
X5390000Y3690000D02*
D03*
D46*
X3810000Y3780000D02*
D03*
X5430000Y3320000D02*
D03*
X5070000Y4140000D02*
D03*
X5370000Y3910000D02*
D03*
D47*
X2020000Y1630000D02*
D03*
X1925000Y1850000D02*
D03*
X2115000D02*
D03*
X2360000Y1740000D02*
D03*
X2265000Y1960000D02*
D03*
X2455000D02*
D03*
D48*
X2310000Y2730000D02*
D03*
X2410000D02*
D03*
X2510000D02*
D03*
X5790000Y3280000D02*
D03*
X5890000D02*
D03*
X5990000D02*
D03*
X6200000Y4240000D02*
D03*
X6100000D02*
D03*
X6370000Y1650000D02*
D03*
X6270000D02*
D03*
X6370000Y1430000D02*
D03*
X6270000D02*
D03*
X6370000Y1900000D02*
D03*
X6270000D02*
D03*
X8150000Y2640000D02*
D03*
X8050000D02*
D03*
X8150000Y2740000D02*
D03*
X8050000D02*
D03*
X3780000Y1580000D02*
D03*
X3880000D02*
D03*
Y1480000D02*
D03*
X3780000D02*
D03*
X1930000Y1460000D02*
D03*
X2030000D02*
D03*
X3210000Y2030000D02*
D03*
X3110000D02*
D03*
X2090000Y1150000D02*
D03*
X1990000D02*
D03*
X2190000Y2490000D02*
D03*
X2290000D02*
D03*
X2090000Y1250000D02*
D03*
X1990000D02*
D03*
X2860000Y2400000D02*
D03*
X2760000D02*
D03*
X2860000Y2300000D02*
D03*
X2760000D02*
D03*
Y2200000D02*
D03*
X2860000D02*
D03*
X3380000Y2320000D02*
D03*
X3480000D02*
D03*
X6200000D02*
D03*
X6100000D02*
D03*
X5820000Y1670000D02*
D03*
X5920000D02*
D03*
X6970000Y1180000D02*
D03*
X7070000D02*
D03*
X5820000Y1330000D02*
D03*
X5920000D02*
D03*
X6200000Y2420000D02*
D03*
X6100000D02*
D03*
X6970000Y1680000D02*
D03*
X7070000D02*
D03*
X5920000Y1020000D02*
D03*
X5820000D02*
D03*
X6370000Y1330000D02*
D03*
X6270000D02*
D03*
X5820000Y1430000D02*
D03*
X5920000D02*
D03*
X5820000Y1770000D02*
D03*
X5920000D02*
D03*
X6270000Y2000000D02*
D03*
X6370000D02*
D03*
X6770000Y2210000D02*
D03*
X6870000D02*
D03*
X6770000Y2410000D02*
D03*
X6870000D02*
D03*
X6770000Y2690000D02*
D03*
X6869999D02*
D03*
X6770000Y2880000D02*
D03*
X6869999D02*
D03*
X2940000Y2700000D02*
D03*
X3040000D02*
D03*
X3580000Y3430000D02*
D03*
X3680000D02*
D03*
X3520000Y3530000D02*
D03*
X3620000D02*
D03*
X4420000Y2960000D02*
D03*
X4320000D02*
D03*
X1930000Y1360000D02*
D03*
X2030000D02*
D03*
X3570000Y3670000D02*
D03*
X3670000D02*
D03*
X6710000Y3190000D02*
D03*
X6610000D02*
D03*
X3990000Y2700000D02*
D03*
X4090000D02*
D03*
X2810000Y3690000D02*
D03*
X2910000D02*
D03*
X2980000Y4340000D02*
D03*
X3080000D02*
D03*
X6200000Y4340000D02*
D03*
X6100000D02*
D03*
X3280000Y3800000D02*
D03*
X3180000D02*
D03*
X4320000Y2700000D02*
D03*
X4420000D02*
D03*
X6240000Y3740000D02*
D03*
X6140000D02*
D03*
X4790000Y3000000D02*
D03*
X4690000D02*
D03*
X5520000Y3290000D02*
D03*
X5620000D02*
D03*
X4700000Y4230000D02*
D03*
X4800000D02*
D03*
X4790000Y3130000D02*
D03*
X4690000D02*
D03*
X5060000Y4240000D02*
D03*
X4960000D02*
D03*
X5370000Y4010000D02*
D03*
X5470000D02*
D03*
X5670000D02*
D03*
X5570000D02*
D03*
X2310000Y2610000D02*
D03*
X2410000D02*
D03*
X4010000Y3780000D02*
D03*
X3910000D02*
D03*
X3790000Y2700000D02*
D03*
X3890000D02*
D03*
X5820000Y1120000D02*
D03*
X5920000D02*
D03*
X5820000Y1230000D02*
D03*
X5920000D02*
D03*
X6270000Y1030000D02*
D03*
X6370000D02*
D03*
X6970000Y1520000D02*
D03*
X7069999D02*
D03*
X6200000Y2120000D02*
D03*
X6300000D02*
D03*
X4960000Y4340000D02*
D03*
X5060000D02*
D03*
X6970000Y2510000D02*
D03*
X7070000D02*
D03*
X6370000Y1530000D02*
D03*
X6270000D02*
D03*
X7330000Y4780000D02*
D03*
X7430000D02*
D03*
X7480000Y2570000D02*
D03*
X7580000D02*
D03*
X6660000Y1130000D02*
D03*
X6760000D02*
D03*
X7480000Y1580000D02*
D03*
X7580000D02*
D03*
X7460000Y3030000D02*
D03*
X7560000D02*
D03*
X7600000Y1050000D02*
D03*
X7700000D02*
D03*
X8270000Y2580000D02*
D03*
X8370000D02*
D03*
X3310000Y2720000D02*
D03*
X3410000D02*
D03*
X3560000Y1660000D02*
D03*
X3660000D02*
D03*
X5890000Y3430000D02*
D03*
X5790000D02*
D03*
X6970000Y2980000D02*
D03*
X7069999D02*
D03*
X2790000Y3370000D02*
D03*
X2890000D02*
D03*
X3730000Y2370000D02*
D03*
X3830000D02*
D03*
X4700000Y1430000D02*
D03*
X4800000D02*
D03*
X1990000Y1050000D02*
D03*
X2090000D02*
D03*
X3480000Y2420000D02*
D03*
X3380000D02*
D03*
X6200000Y2220000D02*
D03*
X6100000D02*
D03*
X8050000Y2840000D02*
D03*
X8150000D02*
D03*
X6770000Y2980000D02*
D03*
X6869999D02*
D03*
X6770000Y1520000D02*
D03*
X6870000D02*
D03*
X5820000Y1960000D02*
D03*
X5920000D02*
D03*
X5820000Y1540000D02*
D03*
X5920000D02*
D03*
X6370000Y1750000D02*
D03*
X6270000D02*
D03*
X6970000Y2030000D02*
D03*
X7069999D02*
D03*
X5240000Y3290000D02*
D03*
X5340000D02*
D03*
X3080000Y3800000D02*
D03*
X2980000D02*
D03*
X2780000D02*
D03*
X2880000D02*
D03*
X3390000Y3330000D02*
D03*
X3490000D02*
D03*
X3400000Y3210000D02*
D03*
X3500000D02*
D03*
X4420000Y3190000D02*
D03*
X4320000D02*
D03*
X4420000Y3290000D02*
D03*
X4320000D02*
D03*
X3280000Y4310000D02*
D03*
X3380000D02*
D03*
X3480000D02*
D03*
X3580000D02*
D03*
X4820000Y4330000D02*
D03*
X4720000D02*
D03*
X3090000Y3370000D02*
D03*
X2990000D02*
D03*
X4340000Y3570000D02*
D03*
X4240000D02*
D03*
X3400000Y2970000D02*
D03*
X3500000D02*
D03*
X4340000Y3770000D02*
D03*
X4240000D02*
D03*
X4340000Y3670000D02*
D03*
X4240000D02*
D03*
X3470000Y3680000D02*
D03*
X3370000D02*
D03*
X2840000Y3590000D02*
D03*
X2940000D02*
D03*
X3080000Y4240000D02*
D03*
X2980000D02*
D03*
X4420000Y2840000D02*
D03*
X4320000D02*
D03*
X4690000Y2870000D02*
D03*
X4790000D02*
D03*
X4690000Y2770000D02*
D03*
X4790000D02*
D03*
X6130000Y3060000D02*
D03*
X6230000D02*
D03*
X5090000Y3940000D02*
D03*
X5190000D02*
D03*
X5090000Y4040000D02*
D03*
X5190000D02*
D03*
X4980000Y3480000D02*
D03*
X4880000D02*
D03*
X5730000Y3050000D02*
D03*
X5630000D02*
D03*
X6140000Y3840000D02*
D03*
X6240000D02*
D03*
X5690000Y3430000D02*
D03*
X5590000D02*
D03*
X4690000Y3230000D02*
D03*
X4790000D02*
D03*
X5470000Y3910000D02*
D03*
X5570000D02*
D03*
D49*
X5870000Y4240000D02*
D03*
Y4340000D02*
D03*
X5970000D02*
D03*
Y4240000D02*
D03*
X6470000Y4680000D02*
D03*
Y4780000D02*
D03*
X6350000D02*
D03*
Y4680000D02*
D03*
X6250000D02*
D03*
Y4780000D02*
D03*
X6150000D02*
D03*
Y4680000D02*
D03*
X6270000Y1230000D02*
D03*
Y1130000D02*
D03*
X7190000Y1220000D02*
D03*
Y1320000D02*
D03*
Y2030000D02*
D03*
Y1930000D02*
D03*
X7190000Y2210000D02*
D03*
Y2310000D02*
D03*
Y2510000D02*
D03*
Y2410000D02*
D03*
X7190000Y2680000D02*
D03*
Y2780000D02*
D03*
Y2980000D02*
D03*
Y2880000D02*
D03*
X3980000Y1480000D02*
D03*
Y1580000D02*
D03*
X3940000Y1220000D02*
D03*
Y1320000D02*
D03*
X4930000Y1060000D02*
D03*
Y960000D02*
D03*
Y1260000D02*
D03*
Y1160000D02*
D03*
X3560000Y4770000D02*
D03*
Y4670000D02*
D03*
X2180000Y2130000D02*
D03*
Y2230000D02*
D03*
X2190000Y2600000D02*
D03*
Y2700000D02*
D03*
X2580000Y1920000D02*
D03*
Y1820000D02*
D03*
X5190000Y4780000D02*
D03*
Y4680000D02*
D03*
X3330000Y4770000D02*
D03*
Y4670000D02*
D03*
X5300000Y4780000D02*
D03*
Y4680000D02*
D03*
X3430000Y4770000D02*
D03*
Y4670000D02*
D03*
X4320000Y781000D02*
D03*
Y681000D02*
D03*
X4430000Y781000D02*
D03*
Y681000D02*
D03*
X5970000Y4680000D02*
D03*
Y4780000D02*
D03*
X5870000Y4680000D02*
D03*
Y4780000D02*
D03*
X5950000Y780000D02*
D03*
Y680000D02*
D03*
X5840000Y780000D02*
D03*
Y680000D02*
D03*
X6750000Y4780000D02*
D03*
Y4680000D02*
D03*
X6850000Y4780000D02*
D03*
Y4680000D02*
D03*
X5730000Y780000D02*
D03*
Y680000D02*
D03*
X5620000Y780000D02*
D03*
Y680000D02*
D03*
X5510000D02*
D03*
Y780000D02*
D03*
X5400000D02*
D03*
Y680000D02*
D03*
X5540000Y4680000D02*
D03*
Y4780000D02*
D03*
X5290000Y780000D02*
D03*
Y680000D02*
D03*
X5180000Y780000D02*
D03*
Y680000D02*
D03*
X5430000Y4780000D02*
D03*
Y4680000D02*
D03*
X5000000Y780000D02*
D03*
Y680000D02*
D03*
X5650000Y4680000D02*
D03*
Y4780000D02*
D03*
X4890000Y780000D02*
D03*
Y680000D02*
D03*
X4060000Y780000D02*
D03*
Y680000D02*
D03*
X3930000Y681000D02*
D03*
Y781000D02*
D03*
X4240000Y4670000D02*
D03*
Y4770000D02*
D03*
X4140000D02*
D03*
Y4670000D02*
D03*
X3980000D02*
D03*
Y4770000D02*
D03*
X3870000D02*
D03*
Y4670000D02*
D03*
X3770000D02*
D03*
Y4770000D02*
D03*
X7670000Y4030000D02*
D03*
Y4130000D02*
D03*
X7770000Y4140000D02*
D03*
Y4240000D02*
D03*
X6370000Y890000D02*
D03*
Y790000D02*
D03*
X6270000D02*
D03*
Y890000D02*
D03*
X6370000Y1130000D02*
D03*
Y1230000D02*
D03*
X4200000Y680000D02*
D03*
Y780000D02*
D03*
X3790000Y680000D02*
D03*
Y780000D02*
D03*
X4780000Y680000D02*
D03*
Y780000D02*
D03*
X7290000Y1320000D02*
D03*
Y1220000D02*
D03*
Y1420000D02*
D03*
Y1520000D02*
D03*
X7190000D02*
D03*
Y1420000D02*
D03*
X7290000Y1830000D02*
D03*
Y1730000D02*
D03*
X7190000D02*
D03*
Y1830000D02*
D03*
X7290000Y1930000D02*
D03*
Y2030000D02*
D03*
X7290000Y2310000D02*
D03*
Y2210000D02*
D03*
Y2410000D02*
D03*
Y2510000D02*
D03*
X7290000Y2780000D02*
D03*
Y2680000D02*
D03*
Y2880000D02*
D03*
Y2980000D02*
D03*
X4400000Y3890000D02*
D03*
Y3990000D02*
D03*
X2880000Y4340000D02*
D03*
Y4240000D02*
D03*
X3470000Y3840000D02*
D03*
Y3940000D02*
D03*
X5490000Y3530000D02*
D03*
Y3430000D02*
D03*
Y3690000D02*
D03*
Y3790000D02*
D03*
X4720000Y3480000D02*
D03*
Y3580000D02*
D03*
X5770000Y4340000D02*
D03*
Y4240000D02*
D03*
X6330000D02*
D03*
Y4340000D02*
D03*
X5770000Y4040000D02*
D03*
Y4140000D02*
D03*
X5930000Y3060000D02*
D03*
Y3160000D02*
D03*
X2780000Y4340000D02*
D03*
Y4240000D02*
D03*
X5390000Y3430000D02*
D03*
Y3530000D02*
D03*
X6950000Y4780000D02*
D03*
Y4680000D02*
D03*
X2680000Y1820000D02*
D03*
Y1920000D02*
D03*
X7070000Y3810000D02*
D03*
Y3910000D02*
D03*
X6650000Y3800000D02*
D03*
Y3900000D02*
D03*
X7930000Y3190000D02*
D03*
Y3090000D02*
D03*
X7890000Y420000D02*
D03*
Y320000D02*
D03*
X7910000Y5070000D02*
D03*
Y4970000D02*
D03*
X3840000Y1220000D02*
D03*
Y1320000D02*
D03*
X4040000D02*
D03*
Y1220000D02*
D03*
X4150000Y1450000D02*
D03*
Y1350000D02*
D03*
X4650000Y2200000D02*
D03*
Y2100000D02*
D03*
X5430000Y1030000D02*
D03*
Y1130000D02*
D03*
X5320000Y2060000D02*
D03*
Y1960000D02*
D03*
X4650000Y2000000D02*
D03*
Y1900000D02*
D03*
X3660000Y4670000D02*
D03*
Y4770000D02*
D03*
X2630000Y2380000D02*
D03*
Y2280000D02*
D03*
X6000000Y2120000D02*
D03*
Y2220000D02*
D03*
Y2420000D02*
D03*
Y2320000D02*
D03*
X7870000Y4140000D02*
D03*
Y4240000D02*
D03*
X6650000Y3640000D02*
D03*
Y3540000D02*
D03*
X6300000Y2420000D02*
D03*
Y2320000D02*
D03*
X4400000Y4210000D02*
D03*
Y4310000D02*
D03*
X3220000Y2980000D02*
D03*
Y3080000D02*
D03*
X2769702Y3090546D02*
D03*
Y3190546D02*
D03*
X3370000Y3470000D02*
D03*
Y3570000D02*
D03*
X4430000D02*
D03*
Y3470000D02*
D03*
X2770000Y2820000D02*
D03*
Y2920000D02*
D03*
X3580000Y3850000D02*
D03*
Y3950000D02*
D03*
X3180000Y4240000D02*
D03*
Y4340000D02*
D03*
X3370000Y3940000D02*
D03*
Y3840000D02*
D03*
X5740000Y2710000D02*
D03*
Y2810000D02*
D03*
X5630000Y2710000D02*
D03*
Y2810000D02*
D03*
X6030000Y2960000D02*
D03*
Y3060000D02*
D03*
X6330000Y2960000D02*
D03*
Y3060000D02*
D03*
X4870000Y3580000D02*
D03*
Y3680000D02*
D03*
X5070000Y3600000D02*
D03*
Y3700000D02*
D03*
X4970000Y3600000D02*
D03*
Y3700000D02*
D03*
D50*
X2400000Y3070000D02*
D03*
Y3310000D02*
D03*
D51*
Y3005000D02*
D03*
Y3375000D02*
D03*
D52*
X6280000Y3980000D02*
D03*
X6040000D02*
D03*
D53*
X6345000D02*
D03*
X5975000D02*
D03*
D54*
X1710000Y1460000D02*
D03*
Y1360000D02*
D03*
D55*
Y1258000D02*
D03*
Y1562000D02*
D03*
D56*
Y1135000D02*
D03*
Y1685000D02*
D03*
D57*
X8470000Y2410000D02*
D03*
Y2470000D02*
D03*
X8480000Y5100000D02*
D03*
X8540000D02*
D03*
X2453181Y4259791D02*
D03*
X2393181D02*
D03*
D58*
X2645000Y4370000D02*
D03*
X4550000Y2665000D02*
D03*
X6460000D02*
D03*
D59*
X2645000Y3815000D02*
D03*
Y3220000D02*
D03*
X4550000D02*
D03*
Y3815000D02*
D03*
X6460000Y3220000D02*
D03*
Y3815000D02*
D03*
D60*
X2815000Y4470000D02*
D03*
X4380000Y2565000D02*
D03*
X4725000Y4470000D02*
D03*
X6290000Y2565000D02*
D03*
X4725000D02*
D03*
D61*
X4450000Y4470000D02*
D03*
X2745000Y2565000D02*
D03*
X6360000Y4470000D02*
D03*
D62*
X3895000D02*
D03*
X3300000D02*
D03*
Y2565000D02*
D03*
X3895000D02*
D03*
X5805000Y4470000D02*
D03*
X5210000D02*
D03*
Y2565000D02*
D03*
X5805000D02*
D03*
D63*
X4550000Y4300000D02*
D03*
X2645000Y2735000D02*
D03*
X6460000Y4300000D02*
D03*
D64*
X3629998Y1070001D02*
D03*
X3399998D02*
D03*
X5085000Y1480000D02*
D03*
X5315000D02*
D03*
D65*
X2970000Y1045000D02*
D03*
Y1275000D02*
D03*
X2970000Y1695000D02*
D03*
Y1465000D02*
D03*
X2610000Y1275000D02*
D03*
Y1045000D02*
D03*
D66*
X2490000Y710000D02*
D03*
Y870000D02*
D03*
X2240000D02*
D03*
Y710000D02*
D03*
D67*
X7880000Y1600000D02*
D03*
Y3360000D02*
D03*
X3000000Y2040000D02*
D03*
X5050000Y4700000D02*
D03*
X3190000D02*
D03*
X4700000D02*
D03*
X2840000D02*
D03*
X7880000Y2100000D02*
D03*
Y3860000D02*
D03*
X3220000Y1720000D02*
D03*
X3380000D02*
D03*
X3960000Y910000D02*
D03*
X3800000D02*
D03*
X3500000Y1770000D02*
D03*
X3660000D02*
D03*
X5600000Y1260000D02*
D03*
X5440000D02*
D03*
X2740000Y3480000D02*
D03*
X2900000D02*
D03*
X3330000Y3090000D02*
D03*
X3490000D02*
D03*
X3330000Y2850000D02*
D03*
X3490000D02*
D03*
X3410000Y4190000D02*
D03*
X3570000D02*
D03*
X3410000Y4060000D02*
D03*
X3570000D02*
D03*
X5070000Y3300000D02*
D03*
X4910000D02*
D03*
X3680000Y2710000D02*
D03*
X3520000D02*
D03*
X5800000Y2930000D02*
D03*
X5640000D02*
D03*
X5800000Y3170000D02*
D03*
X5640000D02*
D03*
D68*
X7720000Y1600000D02*
D03*
Y3360000D02*
D03*
X2840000Y2040000D02*
D03*
X4890000Y4700000D02*
D03*
X3030000D02*
D03*
X4540000D02*
D03*
X2680000D02*
D03*
X7720000Y2100000D02*
D03*
Y3860000D02*
D03*
D69*
X2640000Y2175000D02*
D03*
X5540000Y995000D02*
D03*
X4930000Y1545000D02*
D03*
X2160000Y1515000D02*
D03*
D70*
X2640000Y2025000D02*
D03*
X5540000Y1145000D02*
D03*
X4930000Y1395000D02*
D03*
X2160000Y1365000D02*
D03*
D71*
X2400000Y3840000D02*
D03*
D72*
Y3540000D02*
D03*
D73*
X3220000Y1150000D02*
D03*
Y1310000D02*
D03*
X3230000Y3340000D02*
D03*
Y3180000D02*
D03*
X5930000Y3700000D02*
D03*
Y3540000D02*
D03*
X3220000Y1600000D02*
D03*
Y1440000D02*
D03*
X4310000Y2240000D02*
D03*
Y2080000D02*
D03*
X4380000Y4610000D02*
D03*
Y4770000D02*
D03*
X3610000Y2150000D02*
D03*
Y1990000D02*
D03*
X5480000Y1540000D02*
D03*
Y1380000D02*
D03*
X4810000Y1700000D02*
D03*
Y1540000D02*
D03*
X5430000Y2130000D02*
D03*
Y1970000D02*
D03*
X2070000Y710000D02*
D03*
Y870000D02*
D03*
X2360000Y1140000D02*
D03*
Y1300000D02*
D03*
X3200000Y2680000D02*
D03*
Y2840000D02*
D03*
X6260000Y2690000D02*
D03*
Y2850000D02*
D03*
X5920000Y2690000D02*
D03*
Y2850000D02*
D03*
X2510000Y4620000D02*
D03*
Y4460000D02*
D03*
X6120000Y2690000D02*
D03*
Y2850000D02*
D03*
X3610000Y2290000D02*
D03*
Y2450000D02*
D03*
D74*
X4310000Y1460000D02*
D03*
Y1740000D02*
D03*
X4530000Y1290000D02*
D03*
Y1010000D02*
D03*
X4310000Y1290000D02*
D03*
Y1010000D02*
D03*
X4530000Y1460000D02*
D03*
Y1740000D02*
D03*
X5230000Y3720000D02*
D03*
Y3440000D02*
D03*
X4500000Y1940000D02*
D03*
Y2220000D02*
D03*
X4770000Y1290000D02*
D03*
Y1010000D02*
D03*
D75*
X3820000Y1070000D02*
D03*
X4100000D02*
D03*
X3840000Y1740000D02*
D03*
X4120000D02*
D03*
X2720000Y1480000D02*
D03*
X2440000D02*
D03*
X2660000Y820000D02*
D03*
X2940000D02*
D03*
X5460000Y2340000D02*
D03*
X5180000D02*
D03*
D95*
X8108000Y2349500D02*
D03*
Y5143500D02*
D03*
X2012000Y4512400D02*
D03*
D96*
X8108000Y2095500D02*
D03*
Y1841500D02*
D03*
Y1587500D02*
D03*
Y1333500D02*
D03*
Y1079500D02*
D03*
Y825500D02*
D03*
X8402000Y2349500D02*
D03*
Y2095500D02*
D03*
Y1841500D02*
D03*
Y1587500D02*
D03*
Y1333500D02*
D03*
Y1079500D02*
D03*
Y825500D02*
D03*
X8108000Y571500D02*
D03*
Y317500D02*
D03*
X8402000Y571500D02*
D03*
Y317500D02*
D03*
X8108000Y4889500D02*
D03*
Y4635500D02*
D03*
Y4381500D02*
D03*
Y4127500D02*
D03*
Y3873500D02*
D03*
Y3619500D02*
D03*
X8402000Y5143500D02*
D03*
Y4889500D02*
D03*
Y4635500D02*
D03*
Y4381500D02*
D03*
Y4127500D02*
D03*
Y3873500D02*
D03*
Y3619500D02*
D03*
X8108000Y3365500D02*
D03*
Y3111500D02*
D03*
X8402000Y3365500D02*
D03*
Y3111500D02*
D03*
X2306000Y4512400D02*
D03*
Y4258400D02*
D03*
X2012000D02*
D03*
D97*
X2032000Y170500D02*
D03*
Y4996500D02*
D03*
D98*
X2286000Y170500D02*
D03*
X2540000D02*
D03*
X2794000D02*
D03*
X3048000D02*
D03*
X3302000D02*
D03*
X3556000D02*
D03*
X3810000D02*
D03*
X4064000D02*
D03*
X4318000D02*
D03*
X4572000D02*
D03*
X4826000D02*
D03*
X5080000D02*
D03*
X5334000D02*
D03*
X5588000D02*
D03*
X5842000D02*
D03*
X6096000D02*
D03*
X6350000D02*
D03*
X6604000D02*
D03*
X6858000D02*
D03*
X7112000D02*
D03*
X7366000D02*
D03*
X7620000D02*
D03*
X2032000Y464500D02*
D03*
X2286000D02*
D03*
X2540000D02*
D03*
X2794000D02*
D03*
X3048000D02*
D03*
X3302000D02*
D03*
X3556000D02*
D03*
X3810000D02*
D03*
X4064000D02*
D03*
X4318000D02*
D03*
X4572000D02*
D03*
X4826000D02*
D03*
X5080000D02*
D03*
X5334000D02*
D03*
X5588000D02*
D03*
X5842000D02*
D03*
X6096000D02*
D03*
X6350000D02*
D03*
X6604000D02*
D03*
X6858000D02*
D03*
X7112000D02*
D03*
X7366000D02*
D03*
X7620000D02*
D03*
X2286000Y4996500D02*
D03*
X2540000D02*
D03*
X2794000D02*
D03*
X3048000D02*
D03*
X3302000D02*
D03*
X3556000D02*
D03*
X3810000D02*
D03*
X4064000D02*
D03*
X4318000D02*
D03*
X4572000D02*
D03*
X4826000D02*
D03*
X5080000D02*
D03*
X5334000D02*
D03*
X5588000D02*
D03*
X5842000D02*
D03*
X6096000D02*
D03*
X6350000D02*
D03*
X6604000D02*
D03*
X6858000D02*
D03*
X7112000D02*
D03*
X7366000D02*
D03*
X7620000D02*
D03*
X2032000Y5290500D02*
D03*
X2286000D02*
D03*
X2540000D02*
D03*
X2794000D02*
D03*
X3048000D02*
D03*
X3302000D02*
D03*
X3556000D02*
D03*
X3810000D02*
D03*
X4064000D02*
D03*
X4318000D02*
D03*
X4572000D02*
D03*
X4826000D02*
D03*
X5080000D02*
D03*
X5334000D02*
D03*
X5588000D02*
D03*
X5842000D02*
D03*
X6096000D02*
D03*
X6350000D02*
D03*
X6604000D02*
D03*
X6858000D02*
D03*
X7112000D02*
D03*
X7366000D02*
D03*
X7620000D02*
D03*
D99*
X1672000Y978000D02*
D03*
X1292000D02*
D03*
X1672000Y1842000D02*
D03*
X1292000D02*
D03*
D100*
X1460500Y5143500D02*
D03*
D101*
X1480000Y695000D02*
D03*
D102*
Y345000D02*
D03*
%TF.MD5,0a97018bcc6252d1de43817b7b5c29e0*%
M02*
