%TF.GenerationSoftware,Altium Limited,Altium Designer,23.9.2 (47)*%
G04 Layer_Physical_Order=2*
G04 Layer_Color=36540*
%FSLAX45Y45*%
%MOMM*%
%TF.SameCoordinates,F1AFF133-CB08-443C-B5AD-2193434A7FAF*%
%TF.FilePolarity,Positive*%
%TF.FileFunction,Copper,L2,Inr,Signal*%
%TF.Part,Single*%
G01*
G75*
%TA.AperFunction,ComponentPad*%
G04:AMPARAMS|DCode=99|XSize=1.8mm|YSize=1.45mm|CornerRadius=0.3625mm|HoleSize=0mm|Usage=FLASHONLY|Rotation=180.000|XOffset=0mm|YOffset=0mm|HoleType=Round|Shape=RoundedRectangle|*
%AMROUNDEDRECTD99*
21,1,1.80000,0.72500,0,0,180.0*
21,1,1.07500,1.45000,0,0,180.0*
1,1,0.72500,-0.53750,0.36250*
1,1,0.72500,0.53750,0.36250*
1,1,0.72500,0.53750,-0.36250*
1,1,0.72500,-0.53750,-0.36250*
%
%ADD99ROUNDEDRECTD99*%
G04:AMPARAMS|DCode=101|XSize=2.2mm|YSize=2.2mm|CornerRadius=0.55mm|HoleSize=0mm|Usage=FLASHONLY|Rotation=270.000|XOffset=0mm|YOffset=0mm|HoleType=Round|Shape=RoundedRectangle|*
%AMROUNDEDRECTD101*
21,1,2.20000,1.10000,0,0,270.0*
21,1,1.10000,2.20000,0,0,270.0*
1,1,1.10000,-0.55000,-0.55000*
1,1,1.10000,-0.55000,0.55000*
1,1,1.10000,0.55000,0.55000*
1,1,1.10000,0.55000,-0.55000*
%
%ADD101ROUNDEDRECTD101*%
G04:AMPARAMS|DCode=102|XSize=2.2mm|YSize=2.2mm|CornerRadius=0mm|HoleSize=0mm|Usage=FLASHONLY|Rotation=270.000|XOffset=0mm|YOffset=0mm|HoleType=Round|Shape=Octagon|*
%AMOCTAGOND102*
4,1,8,-0.55000,-1.10000,0.55000,-1.10000,1.10000,-0.55000,1.10000,0.55000,0.55000,1.10000,-0.55000,1.10000,-1.10000,0.55000,-1.10000,-0.55000,-0.55000,-1.10000,0.0*
%
%ADD102OCTAGOND102*%

%TA.AperFunction,ViaPad*%
%ADD103C,0.60000*%
%TA.AperFunction,ComponentPad*%
G04:AMPARAMS|DCode=104|XSize=1.5mm|YSize=1.9mm|CornerRadius=0.375mm|HoleSize=0mm|Usage=FLASHONLY|Rotation=270.000|XOffset=0mm|YOffset=0mm|HoleType=Round|Shape=RoundedRectangle|*
%AMROUNDEDRECTD104*
21,1,1.50000,1.15000,0,0,270.0*
21,1,0.75000,1.90000,0,0,270.0*
1,1,0.75000,-0.57500,-0.37500*
1,1,0.75000,-0.57500,0.37500*
1,1,0.75000,0.57500,0.37500*
1,1,0.75000,0.57500,-0.37500*
%
%ADD104ROUNDEDRECTD104*%
G04:AMPARAMS|DCode=105|XSize=1.5mm|YSize=1.9mm|CornerRadius=0.375mm|HoleSize=0mm|Usage=FLASHONLY|Rotation=0.000|XOffset=0mm|YOffset=0mm|HoleType=Round|Shape=RoundedRectangle|*
%AMROUNDEDRECTD105*
21,1,1.50000,1.15000,0,0,0.0*
21,1,0.75000,1.90000,0,0,0.0*
1,1,0.75000,0.37500,-0.57500*
1,1,0.75000,-0.37500,-0.57500*
1,1,0.75000,-0.37500,0.57500*
1,1,0.75000,0.37500,0.57500*
%
%ADD105ROUNDEDRECTD105*%
G04:AMPARAMS|DCode=106|XSize=3.6mm|YSize=3.6mm|CornerRadius=0.54mm|HoleSize=0mm|Usage=FLASHONLY|Rotation=0.000|XOffset=0mm|YOffset=0mm|HoleType=Round|Shape=RoundedRectangle|*
%AMROUNDEDRECTD106*
21,1,3.60000,2.52000,0,0,0.0*
21,1,2.52000,3.60000,0,0,0.0*
1,1,1.08000,1.26000,-1.26000*
1,1,1.08000,-1.26000,-1.26000*
1,1,1.08000,-1.26000,1.26000*
1,1,1.08000,1.26000,1.26000*
%
%ADD106ROUNDEDRECTD106*%
G36*
X8434462Y5410484D02*
X8485651Y5389281D01*
X8529609Y5355551D01*
X8563338Y5311594D01*
X8584542Y5260404D01*
X8589867Y5219955D01*
X8591113Y5205471D01*
X8591116Y5205460D01*
X8591116Y5190471D01*
X8591120Y5057416D01*
X8576120Y5054432D01*
X8575688Y5055475D01*
X8558809Y5072354D01*
X8536757Y5081488D01*
X8535268D01*
X8525753Y5093083D01*
X8528322Y5106000D01*
Y5181000D01*
X8523083Y5207337D01*
X8508164Y5229664D01*
X8485837Y5244583D01*
X8459500Y5249822D01*
X8344500D01*
X8318163Y5244583D01*
X8295836Y5229664D01*
X8280917Y5207337D01*
X8275678Y5181000D01*
Y5106000D01*
X8280917Y5079663D01*
X8295836Y5057336D01*
X8318163Y5042417D01*
X8344500Y5037178D01*
X8450964D01*
X8460462Y5034604D01*
X8464822Y5022943D01*
Y5010057D01*
X8464671Y5007715D01*
X8454274Y4995822D01*
X8344500D01*
X8318163Y4990583D01*
X8295836Y4975664D01*
X8280917Y4953337D01*
X8275678Y4927000D01*
Y4852000D01*
X8280917Y4825663D01*
X8295836Y4803336D01*
X8318163Y4788417D01*
X8344500Y4783178D01*
X8459500D01*
X8485837Y4788417D01*
X8508164Y4803336D01*
X8523083Y4825663D01*
X8528322Y4852000D01*
Y4927000D01*
X8524446Y4946488D01*
X8534304Y4961488D01*
X8536757D01*
X8558809Y4970623D01*
X8575688Y4987501D01*
X8576122Y4988549D01*
X8591122Y4985565D01*
X8591247Y270194D01*
X8591247Y269996D01*
Y255256D01*
X8589999Y240773D01*
X8584683Y200394D01*
X8563507Y149271D01*
X8529821Y105371D01*
X8485921Y71685D01*
X8434798Y50509D01*
X8381926Y43549D01*
X8379938Y43944D01*
X7711646D01*
X7707096Y58944D01*
X7709769Y60731D01*
X7725793Y84712D01*
X7731420Y113000D01*
Y160500D01*
X7508580D01*
Y113000D01*
X7514207Y84712D01*
X7530231Y60731D01*
X7532904Y58944D01*
X7528354Y43944D01*
X7457646D01*
X7453096Y58944D01*
X7455769Y60731D01*
X7471793Y84712D01*
X7477420Y113000D01*
Y160500D01*
X7254580D01*
Y113000D01*
X7260207Y84712D01*
X7276231Y60731D01*
X7278904Y58944D01*
X7274354Y43944D01*
X7194646D01*
X7190096Y58944D01*
X7198164Y64336D01*
X7213083Y86663D01*
X7218322Y113000D01*
Y228000D01*
X7213083Y254337D01*
X7198164Y276664D01*
X7175837Y291583D01*
X7149500Y296822D01*
X7074500D01*
X7048163Y291583D01*
X7025836Y276664D01*
X7010917Y254337D01*
X7005678Y228000D01*
Y113000D01*
X7010917Y86663D01*
X7025836Y64336D01*
X7033904Y58944D01*
X7029354Y43944D01*
X6940646D01*
X6936096Y58944D01*
X6944164Y64336D01*
X6959083Y86663D01*
X6964322Y113000D01*
Y228000D01*
X6959083Y254337D01*
X6944164Y276664D01*
X6921837Y291583D01*
X6895500Y296822D01*
X6820500D01*
X6794163Y291583D01*
X6771836Y276664D01*
X6756917Y254337D01*
X6751678Y228000D01*
Y113000D01*
X6756917Y86663D01*
X6771836Y64336D01*
X6779904Y58944D01*
X6775354Y43944D01*
X6686646D01*
X6682096Y58944D01*
X6690164Y64336D01*
X6705083Y86663D01*
X6710322Y113000D01*
Y228000D01*
X6705083Y254337D01*
X6690164Y276664D01*
X6667837Y291583D01*
X6641500Y296822D01*
X6566500D01*
X6540163Y291583D01*
X6517836Y276664D01*
X6502917Y254337D01*
X6497678Y228000D01*
Y113000D01*
X6502917Y86663D01*
X6517836Y64336D01*
X6525904Y58944D01*
X6521354Y43944D01*
X6432646D01*
X6428096Y58944D01*
X6436164Y64336D01*
X6451083Y86663D01*
X6456322Y113000D01*
Y228000D01*
X6451083Y254337D01*
X6436164Y276664D01*
X6413837Y291583D01*
X6387500Y296822D01*
X6312500D01*
X6286163Y291583D01*
X6263836Y276664D01*
X6248917Y254337D01*
X6243678Y228000D01*
Y113000D01*
X6248917Y86663D01*
X6263836Y64336D01*
X6271904Y58944D01*
X6267354Y43944D01*
X6178646D01*
X6174096Y58944D01*
X6182164Y64336D01*
X6197083Y86663D01*
X6202322Y113000D01*
Y228000D01*
X6197083Y254337D01*
X6182164Y276664D01*
X6159837Y291583D01*
X6133500Y296822D01*
X6058500D01*
X6032163Y291583D01*
X6023690Y294154D01*
X6018499Y306686D01*
X6001620Y323565D01*
X5979568Y332699D01*
X5966062D01*
X5958305Y351427D01*
X5941427Y368305D01*
X5939366Y375099D01*
X5943083Y380663D01*
X5948322Y407000D01*
Y522000D01*
X5943083Y548337D01*
X5928164Y570664D01*
X5905837Y585583D01*
X5879500Y590822D01*
X5804500D01*
X5778163Y585583D01*
X5755836Y570664D01*
X5740917Y548337D01*
X5735678Y522000D01*
Y407000D01*
X5740917Y380663D01*
X5755836Y358336D01*
X5778163Y343417D01*
X5804500Y338178D01*
X5841557D01*
X5847440Y329374D01*
Y305505D01*
X5841638Y296822D01*
X5804500D01*
X5778163Y291583D01*
X5755836Y276664D01*
X5740917Y254337D01*
X5735678Y228000D01*
Y113000D01*
X5740917Y86663D01*
X5755836Y64336D01*
X5763904Y58944D01*
X5759354Y43944D01*
X5670646D01*
X5666096Y58944D01*
X5674164Y64336D01*
X5689083Y86663D01*
X5694322Y113000D01*
Y228000D01*
X5689083Y254337D01*
X5674164Y276664D01*
X5651837Y291583D01*
X5625500Y296822D01*
X5550500D01*
X5524163Y291583D01*
X5501836Y276664D01*
X5486917Y254337D01*
X5481678Y228000D01*
Y113000D01*
X5486917Y86663D01*
X5501836Y64336D01*
X5509904Y58944D01*
X5505354Y43944D01*
X5416646D01*
X5412096Y58944D01*
X5420164Y64336D01*
X5435083Y86663D01*
X5440322Y113000D01*
Y228000D01*
X5435083Y254337D01*
X5420164Y276664D01*
X5397837Y291583D01*
X5371500Y296822D01*
X5296500D01*
X5270163Y291583D01*
X5247836Y276664D01*
X5232917Y254337D01*
X5227678Y228000D01*
Y113000D01*
X5232917Y86663D01*
X5247836Y64336D01*
X5255904Y58944D01*
X5251354Y43944D01*
X5162646D01*
X5158096Y58944D01*
X5166164Y64336D01*
X5181083Y86663D01*
X5186322Y113000D01*
Y228000D01*
X5181083Y254337D01*
X5166164Y276664D01*
X5143837Y291583D01*
X5117500Y296822D01*
X5042500D01*
X5016163Y291583D01*
X4993836Y276664D01*
X4978917Y254337D01*
X4973678Y228000D01*
Y113000D01*
X4978917Y86663D01*
X4993836Y64336D01*
X5001904Y58944D01*
X4997354Y43944D01*
X4908646D01*
X4904096Y58944D01*
X4912164Y64336D01*
X4927083Y86663D01*
X4932322Y113000D01*
Y228000D01*
X4927083Y254337D01*
X4912164Y276664D01*
X4889837Y291583D01*
X4863500Y296822D01*
X4788500D01*
X4762163Y291583D01*
X4739836Y276664D01*
X4724917Y254337D01*
X4719678Y228000D01*
Y113000D01*
X4724917Y86663D01*
X4739836Y64336D01*
X4747904Y58944D01*
X4743354Y43944D01*
X4654646D01*
X4650096Y58944D01*
X4658164Y64336D01*
X4673083Y86663D01*
X4678322Y113000D01*
Y228000D01*
X4673083Y254337D01*
X4658164Y276664D01*
X4635837Y291583D01*
X4609500Y296822D01*
X4534500D01*
X4508163Y291583D01*
X4485836Y276664D01*
X4470917Y254337D01*
X4465678Y228000D01*
Y113000D01*
X4470917Y86663D01*
X4485836Y64336D01*
X4493904Y58944D01*
X4489354Y43944D01*
X4400646D01*
X4396096Y58944D01*
X4404164Y64336D01*
X4419083Y86663D01*
X4424322Y113000D01*
Y228000D01*
X4419083Y254337D01*
X4404164Y276664D01*
X4381837Y291583D01*
X4355500Y296822D01*
X4280500D01*
X4254163Y291583D01*
X4231836Y276664D01*
X4216917Y254337D01*
X4211678Y228000D01*
Y113000D01*
X4216917Y86663D01*
X4231836Y64336D01*
X4239904Y58944D01*
X4235354Y43944D01*
X4146646D01*
X4142096Y58944D01*
X4150164Y64336D01*
X4165083Y86663D01*
X4170322Y113000D01*
Y228000D01*
X4165083Y254337D01*
X4150164Y276664D01*
X4127837Y291583D01*
X4101500Y296822D01*
X4026500D01*
X4000163Y291583D01*
X3977836Y276664D01*
X3962917Y254337D01*
X3957678Y228000D01*
Y113000D01*
X3962917Y86663D01*
X3977836Y64336D01*
X3985904Y58944D01*
X3981354Y43944D01*
X3892646D01*
X3888096Y58944D01*
X3896164Y64336D01*
X3911083Y86663D01*
X3916322Y113000D01*
Y228000D01*
X3911083Y254337D01*
X3896164Y276664D01*
X3873837Y291583D01*
X3847500Y296822D01*
X3772500D01*
X3746163Y291583D01*
X3723836Y276664D01*
X3708917Y254337D01*
X3703678Y228000D01*
Y113000D01*
X3708917Y86663D01*
X3723836Y64336D01*
X3731904Y58944D01*
X3727354Y43944D01*
X3638646D01*
X3634096Y58944D01*
X3642164Y64336D01*
X3657083Y86663D01*
X3662322Y113000D01*
Y228000D01*
X3657083Y254337D01*
X3642164Y276664D01*
X3619837Y291583D01*
X3593500Y296822D01*
X3518500D01*
X3492163Y291583D01*
X3469836Y276664D01*
X3454917Y254337D01*
X3449678Y228000D01*
Y113000D01*
X3454917Y86663D01*
X3469836Y64336D01*
X3477904Y58944D01*
X3473354Y43944D01*
X3384646D01*
X3380096Y58944D01*
X3388164Y64336D01*
X3403083Y86663D01*
X3408322Y113000D01*
Y228000D01*
X3403083Y254337D01*
X3388164Y276664D01*
X3365837Y291583D01*
X3339500Y296822D01*
X3264500D01*
X3238163Y291583D01*
X3215836Y276664D01*
X3200917Y254337D01*
X3195678Y228000D01*
Y113000D01*
X3200917Y86663D01*
X3215836Y64336D01*
X3223904Y58944D01*
X3219354Y43944D01*
X3130646D01*
X3126096Y58944D01*
X3134164Y64336D01*
X3149083Y86663D01*
X3154322Y113000D01*
Y228000D01*
X3149083Y254337D01*
X3134164Y276664D01*
X3111837Y291583D01*
X3085500Y296822D01*
X3010500D01*
X2984163Y291583D01*
X2961836Y276664D01*
X2946917Y254337D01*
X2941678Y228000D01*
Y113000D01*
X2946917Y86663D01*
X2961836Y64336D01*
X2969904Y58944D01*
X2965354Y43944D01*
X2876646D01*
X2872096Y58944D01*
X2880164Y64336D01*
X2895083Y86663D01*
X2900322Y113000D01*
Y228000D01*
X2895083Y254337D01*
X2880164Y276664D01*
X2857837Y291583D01*
X2831500Y296822D01*
X2756500D01*
X2730163Y291583D01*
X2707836Y276664D01*
X2692917Y254337D01*
X2687678Y228000D01*
Y113000D01*
X2692917Y86663D01*
X2707836Y64336D01*
X2715904Y58944D01*
X2711354Y43944D01*
X2622646D01*
X2618096Y58944D01*
X2626164Y64336D01*
X2641083Y86663D01*
X2646322Y113000D01*
Y228000D01*
X2641083Y254337D01*
X2626164Y276664D01*
X2603837Y291583D01*
X2577500Y296822D01*
X2502500D01*
X2476163Y291583D01*
X2453836Y276664D01*
X2438917Y254337D01*
X2433678Y228000D01*
Y113000D01*
X2438917Y86663D01*
X2453836Y64336D01*
X2461904Y58944D01*
X2457354Y43944D01*
X2368646D01*
X2364096Y58944D01*
X2372164Y64336D01*
X2387083Y86663D01*
X2392322Y113000D01*
Y228000D01*
X2387083Y254337D01*
X2372164Y276664D01*
X2349837Y291583D01*
X2323500Y296822D01*
X2248500D01*
X2222163Y291583D01*
X2199836Y276664D01*
X2184917Y254337D01*
X2179678Y228000D01*
Y113000D01*
X2184917Y86663D01*
X2199836Y64336D01*
X2207904Y58944D01*
X2203354Y43944D01*
X2123646D01*
X2119096Y58944D01*
X2121769Y60731D01*
X2137793Y84712D01*
X2143420Y113000D01*
Y160500D01*
X1920580D01*
Y113000D01*
X1926207Y84712D01*
X1942231Y60731D01*
X1944904Y58944D01*
X1940354Y43944D01*
X1371600D01*
X1369643Y43555D01*
X1317066Y50477D01*
X1266249Y71526D01*
X1222611Y105011D01*
X1189126Y148649D01*
X1168077Y199466D01*
X1161155Y252043D01*
X1161544Y254000D01*
Y906011D01*
X1175454Y914991D01*
X1176544Y914852D01*
X1190487Y893986D01*
X1212401Y879344D01*
X1238250Y874202D01*
X1345750D01*
X1371599Y879344D01*
X1393513Y893986D01*
X1408156Y915900D01*
X1413298Y941750D01*
Y1014250D01*
X1408156Y1040099D01*
X1393513Y1062013D01*
X1371599Y1076656D01*
X1345750Y1081798D01*
X1238250D01*
X1212401Y1076656D01*
X1190487Y1062013D01*
X1176544Y1041148D01*
X1175454Y1041009D01*
X1161544Y1049989D01*
Y1770011D01*
X1175454Y1778991D01*
X1176544Y1778852D01*
X1190487Y1757986D01*
X1212401Y1743344D01*
X1238250Y1738202D01*
X1345750D01*
X1371599Y1743344D01*
X1393513Y1757986D01*
X1408156Y1779900D01*
X1413298Y1805750D01*
Y1878250D01*
X1408156Y1904099D01*
X1403327Y1911327D01*
X1410397Y1924556D01*
X1553602D01*
X1560673Y1911327D01*
X1555844Y1904099D01*
X1550702Y1878250D01*
Y1805750D01*
X1555844Y1779900D01*
X1570487Y1757986D01*
X1592401Y1743344D01*
X1618250Y1738202D01*
X1725750D01*
X1751599Y1743344D01*
X1773513Y1757986D01*
X1788156Y1779900D01*
X1793298Y1805750D01*
Y1878250D01*
X1788156Y1904099D01*
X1783327Y1911327D01*
X1790397Y1924556D01*
X1841500D01*
Y1923962D01*
X1899742Y1929699D01*
X1955745Y1946687D01*
X2007359Y1974275D01*
X2052598Y2011402D01*
X2089725Y2056641D01*
X2117313Y2108255D01*
X2134301Y2164258D01*
X2140038Y2222500D01*
X2139444D01*
Y3746500D01*
X2140038D01*
X2134301Y3804742D01*
X2117313Y3860745D01*
X2089725Y3912359D01*
X2052598Y3957598D01*
X2007359Y3994725D01*
X1955745Y4022313D01*
X1899742Y4039301D01*
X1841500Y4045038D01*
Y4044444D01*
X1161544D01*
Y5207000D01*
X1161155Y5208958D01*
X1168077Y5261534D01*
X1189126Y5312351D01*
X1222610Y5355989D01*
X1266248Y5389474D01*
X1317066Y5410523D01*
X1357121Y5415796D01*
X1371600Y5417055D01*
Y5417056D01*
X1940354D01*
X1944904Y5402056D01*
X1942231Y5400269D01*
X1926207Y5376288D01*
X1920580Y5348000D01*
Y5300500D01*
X2143420D01*
Y5348000D01*
X2137793Y5376288D01*
X2121769Y5400269D01*
X2119096Y5402056D01*
X2123646Y5417056D01*
X2203354D01*
X2207904Y5402056D01*
X2199836Y5396664D01*
X2184917Y5374337D01*
X2179678Y5348000D01*
Y5233000D01*
X2184917Y5206663D01*
X2199836Y5184336D01*
X2222163Y5169417D01*
X2248500Y5164178D01*
X2323500D01*
X2349837Y5169417D01*
X2372164Y5184336D01*
X2387083Y5206663D01*
X2392322Y5233000D01*
Y5348000D01*
X2387083Y5374337D01*
X2372164Y5396664D01*
X2364096Y5402056D01*
X2368646Y5417056D01*
X2457354D01*
X2461904Y5402056D01*
X2453836Y5396664D01*
X2438917Y5374337D01*
X2433678Y5348000D01*
Y5233000D01*
X2438917Y5206663D01*
X2453836Y5184336D01*
X2476163Y5169417D01*
X2502500Y5164178D01*
X2577500D01*
X2603837Y5169417D01*
X2626164Y5184336D01*
X2641083Y5206663D01*
X2646322Y5233000D01*
Y5348000D01*
X2641083Y5374337D01*
X2626164Y5396664D01*
X2618096Y5402056D01*
X2622646Y5417056D01*
X2711354D01*
X2715904Y5402056D01*
X2707836Y5396664D01*
X2692917Y5374337D01*
X2687678Y5348000D01*
Y5233000D01*
X2692917Y5206663D01*
X2707836Y5184336D01*
X2730163Y5169417D01*
X2756500Y5164178D01*
X2831500D01*
X2857837Y5169417D01*
X2880164Y5184336D01*
X2895083Y5206663D01*
X2900322Y5233000D01*
Y5348000D01*
X2895083Y5374337D01*
X2880164Y5396664D01*
X2872096Y5402056D01*
X2876646Y5417056D01*
X2965354D01*
X2969904Y5402056D01*
X2961836Y5396664D01*
X2946917Y5374337D01*
X2941678Y5348000D01*
Y5233000D01*
X2946917Y5206663D01*
X2961836Y5184336D01*
X2984163Y5169417D01*
X3010500Y5164178D01*
X3085500D01*
X3111837Y5169417D01*
X3134164Y5184336D01*
X3149083Y5206663D01*
X3154322Y5233000D01*
Y5348000D01*
X3149083Y5374337D01*
X3134164Y5396664D01*
X3126096Y5402056D01*
X3130646Y5417056D01*
X3219354D01*
X3223904Y5402056D01*
X3215836Y5396664D01*
X3200917Y5374337D01*
X3195678Y5348000D01*
Y5233000D01*
X3200917Y5206663D01*
X3215836Y5184336D01*
X3238163Y5169417D01*
X3264500Y5164178D01*
X3339500D01*
X3365837Y5169417D01*
X3388164Y5184336D01*
X3403083Y5206663D01*
X3408322Y5233000D01*
Y5348000D01*
X3403083Y5374337D01*
X3388164Y5396664D01*
X3380096Y5402056D01*
X3384646Y5417056D01*
X3473354D01*
X3477904Y5402056D01*
X3469836Y5396664D01*
X3454917Y5374337D01*
X3449678Y5348000D01*
Y5233000D01*
X3454917Y5206663D01*
X3469836Y5184336D01*
X3492163Y5169417D01*
X3518500Y5164178D01*
X3593500D01*
X3619837Y5169417D01*
X3642164Y5184336D01*
X3657083Y5206663D01*
X3662322Y5233000D01*
Y5348000D01*
X3657083Y5374337D01*
X3642164Y5396664D01*
X3634096Y5402056D01*
X3638646Y5417056D01*
X3727354D01*
X3731904Y5402056D01*
X3723836Y5396664D01*
X3708917Y5374337D01*
X3703678Y5348000D01*
Y5233000D01*
X3708917Y5206663D01*
X3723836Y5184336D01*
X3746163Y5169417D01*
X3772500Y5164178D01*
X3847500D01*
X3873837Y5169417D01*
X3896164Y5184336D01*
X3911083Y5206663D01*
X3916322Y5233000D01*
Y5348000D01*
X3911083Y5374337D01*
X3896164Y5396664D01*
X3888096Y5402056D01*
X3892646Y5417056D01*
X3981354D01*
X3985904Y5402056D01*
X3977836Y5396664D01*
X3962917Y5374337D01*
X3957678Y5348000D01*
Y5233000D01*
X3962917Y5206663D01*
X3977836Y5184336D01*
X4000163Y5169417D01*
X4026500Y5164178D01*
X4101500D01*
X4127837Y5169417D01*
X4150164Y5184336D01*
X4165083Y5206663D01*
X4170322Y5233000D01*
Y5348000D01*
X4165083Y5374337D01*
X4150164Y5396664D01*
X4142096Y5402056D01*
X4146646Y5417056D01*
X4235354D01*
X4239904Y5402056D01*
X4231836Y5396664D01*
X4216917Y5374337D01*
X4211678Y5348000D01*
Y5233000D01*
X4216917Y5206663D01*
X4231836Y5184336D01*
X4254163Y5169417D01*
X4280500Y5164178D01*
X4355500D01*
X4381837Y5169417D01*
X4404164Y5184336D01*
X4419083Y5206663D01*
X4424322Y5233000D01*
Y5348000D01*
X4419083Y5374337D01*
X4404164Y5396664D01*
X4396096Y5402056D01*
X4400646Y5417056D01*
X4489354D01*
X4493904Y5402056D01*
X4485836Y5396664D01*
X4470917Y5374337D01*
X4465678Y5348000D01*
Y5233000D01*
X4470917Y5206663D01*
X4485836Y5184336D01*
X4508163Y5169417D01*
X4534500Y5164178D01*
X4609500D01*
X4635837Y5169417D01*
X4658164Y5184336D01*
X4673083Y5206663D01*
X4678322Y5233000D01*
Y5348000D01*
X4673083Y5374337D01*
X4658164Y5396664D01*
X4650096Y5402056D01*
X4654646Y5417056D01*
X4743354D01*
X4747904Y5402056D01*
X4739836Y5396664D01*
X4724917Y5374337D01*
X4719678Y5348000D01*
Y5233000D01*
X4724917Y5206663D01*
X4739836Y5184336D01*
X4762163Y5169417D01*
X4788500Y5164178D01*
X4863500D01*
X4884170Y5168289D01*
X4895310Y5156815D01*
X4895486Y5156411D01*
X4892487Y5149171D01*
Y5132350D01*
X4881053Y5120773D01*
X4878629Y5119813D01*
X4863500Y5122822D01*
X4788500D01*
X4762163Y5117583D01*
X4739836Y5102664D01*
X4724917Y5080337D01*
X4719678Y5054000D01*
Y4939000D01*
X4724917Y4912663D01*
X4739836Y4890336D01*
X4762163Y4875417D01*
X4788500Y4870178D01*
X4863500D01*
X4889837Y4875417D01*
X4912164Y4890336D01*
X4927083Y4912663D01*
X4932322Y4939000D01*
Y5054000D01*
X4930066Y5065344D01*
X4935793Y5071839D01*
X4942994Y5077236D01*
X4963006D01*
X4965257Y5076414D01*
X4976027Y5065807D01*
X4973678Y5054000D01*
Y4939000D01*
X4978917Y4912663D01*
X4993836Y4890336D01*
X5016163Y4875417D01*
X5042500Y4870178D01*
X5117500D01*
X5143837Y4875417D01*
X5166164Y4890336D01*
X5181083Y4912663D01*
X5186322Y4939000D01*
Y5054000D01*
X5181083Y5080337D01*
X5166164Y5102664D01*
X5143837Y5117583D01*
X5117500Y5122822D01*
X5042500D01*
X5026345Y5119609D01*
X5023632Y5120723D01*
X5012487Y5131794D01*
Y5149171D01*
X5009396Y5156633D01*
X5010690Y5159077D01*
X5020712Y5168512D01*
X5042500Y5164178D01*
X5117500D01*
X5143837Y5169417D01*
X5166164Y5184336D01*
X5181083Y5206663D01*
X5186322Y5233000D01*
Y5348000D01*
X5181083Y5374337D01*
X5166164Y5396664D01*
X5158096Y5402056D01*
X5162646Y5417056D01*
X5251354D01*
X5255904Y5402056D01*
X5247836Y5396664D01*
X5232917Y5374337D01*
X5227678Y5348000D01*
Y5233000D01*
X5232917Y5206663D01*
X5247836Y5184336D01*
X5270163Y5169417D01*
X5296500Y5164178D01*
X5371500D01*
X5397837Y5169417D01*
X5420164Y5184336D01*
X5435083Y5206663D01*
X5440322Y5233000D01*
Y5348000D01*
X5435083Y5374337D01*
X5420164Y5396664D01*
X5412096Y5402056D01*
X5416646Y5417056D01*
X5505354D01*
X5509904Y5402056D01*
X5501836Y5396664D01*
X5486917Y5374337D01*
X5481678Y5348000D01*
Y5233000D01*
X5486917Y5206663D01*
X5501836Y5184336D01*
X5524163Y5169417D01*
X5550500Y5164178D01*
X5625500D01*
X5640734Y5167208D01*
X5651524Y5154060D01*
X5650469Y5151513D01*
Y5133149D01*
X5640363Y5122203D01*
X5637193Y5120496D01*
X5625500Y5122822D01*
X5550500D01*
X5524163Y5117583D01*
X5501836Y5102664D01*
X5486917Y5080337D01*
X5481678Y5054000D01*
Y4939000D01*
X5486917Y4912663D01*
X5501836Y4890336D01*
X5524163Y4875417D01*
X5550500Y4870178D01*
X5625500D01*
X5651837Y4875417D01*
X5674164Y4890336D01*
X5689083Y4912663D01*
X5694322Y4939000D01*
Y5054000D01*
X5691919Y5066083D01*
X5693377Y5069058D01*
X5704528Y5079578D01*
X5722403D01*
X5725747Y5080963D01*
X5738895Y5070174D01*
X5735678Y5054000D01*
Y4939000D01*
X5740917Y4912663D01*
X5755836Y4890336D01*
X5778163Y4875417D01*
X5804500Y4870178D01*
X5879500D01*
X5905837Y4875417D01*
X5928164Y4890336D01*
X5943083Y4912663D01*
X5948322Y4939000D01*
Y5054000D01*
X5943083Y5080337D01*
X5928164Y5102664D01*
X5905837Y5117583D01*
X5879500Y5122822D01*
X5804500D01*
X5782930Y5118532D01*
X5776461Y5123262D01*
X5772091Y5127526D01*
X5770469Y5130183D01*
Y5151513D01*
X5767602Y5158433D01*
X5774879Y5166001D01*
X5779390Y5169173D01*
X5804500Y5164178D01*
X5879500D01*
X5905837Y5169417D01*
X5928164Y5184336D01*
X5943083Y5206663D01*
X5948322Y5233000D01*
Y5348000D01*
X5943083Y5374337D01*
X5928164Y5396664D01*
X5920096Y5402056D01*
X5924646Y5417056D01*
X6013354D01*
X6017904Y5402056D01*
X6009836Y5396664D01*
X5994917Y5374337D01*
X5989678Y5348000D01*
Y5233000D01*
X5994917Y5206663D01*
X6009836Y5184336D01*
X6032163Y5169417D01*
X6058500Y5164178D01*
X6133500D01*
X6159837Y5169417D01*
X6182164Y5184336D01*
X6197083Y5206663D01*
X6202322Y5233000D01*
Y5348000D01*
X6197083Y5374337D01*
X6182164Y5396664D01*
X6174096Y5402056D01*
X6178646Y5417056D01*
X6267354D01*
X6271904Y5402056D01*
X6263836Y5396664D01*
X6248917Y5374337D01*
X6243678Y5348000D01*
Y5233000D01*
X6248917Y5206663D01*
X6263836Y5184336D01*
X6286163Y5169417D01*
X6312500Y5164178D01*
X6387500D01*
X6413837Y5169417D01*
X6436164Y5184336D01*
X6451083Y5206663D01*
X6456322Y5233000D01*
Y5348000D01*
X6451083Y5374337D01*
X6436164Y5396664D01*
X6428096Y5402056D01*
X6432646Y5417056D01*
X6521354D01*
X6525904Y5402056D01*
X6517836Y5396664D01*
X6502917Y5374337D01*
X6497678Y5348000D01*
Y5233000D01*
X6502917Y5206663D01*
X6517836Y5184336D01*
X6540163Y5169417D01*
X6566500Y5164178D01*
X6641500D01*
X6667837Y5169417D01*
X6690164Y5184336D01*
X6705083Y5206663D01*
X6710322Y5233000D01*
Y5348000D01*
X6705083Y5374337D01*
X6690164Y5396664D01*
X6682096Y5402056D01*
X6686646Y5417056D01*
X6775354D01*
X6779904Y5402056D01*
X6771836Y5396664D01*
X6756917Y5374337D01*
X6751678Y5348000D01*
Y5233000D01*
X6756917Y5206663D01*
X6771836Y5184336D01*
X6794163Y5169417D01*
X6820500Y5164178D01*
X6895500D01*
X6921837Y5169417D01*
X6944164Y5184336D01*
X6959083Y5206663D01*
X6964322Y5233000D01*
Y5348000D01*
X6959083Y5374337D01*
X6944164Y5396664D01*
X6936096Y5402056D01*
X6940646Y5417056D01*
X7029354D01*
X7033904Y5402056D01*
X7025836Y5396664D01*
X7010917Y5374337D01*
X7005678Y5348000D01*
Y5233000D01*
X7010917Y5206663D01*
X7025836Y5184336D01*
X7048163Y5169417D01*
X7074500Y5164178D01*
X7149500D01*
X7175837Y5169417D01*
X7198164Y5184336D01*
X7213083Y5206663D01*
X7218322Y5233000D01*
Y5348000D01*
X7213083Y5374337D01*
X7198164Y5396664D01*
X7190096Y5402056D01*
X7194646Y5417056D01*
X7283354D01*
X7287904Y5402056D01*
X7279836Y5396664D01*
X7264917Y5374337D01*
X7259678Y5348000D01*
Y5233000D01*
X7264917Y5206663D01*
X7279836Y5184336D01*
X7302163Y5169417D01*
X7328500Y5164178D01*
X7403500D01*
X7429837Y5169417D01*
X7452164Y5184336D01*
X7467083Y5206663D01*
X7472322Y5233000D01*
Y5348000D01*
X7467083Y5374337D01*
X7452164Y5396664D01*
X7444096Y5402056D01*
X7448646Y5417056D01*
X7537354D01*
X7541904Y5402056D01*
X7533836Y5396664D01*
X7518917Y5374337D01*
X7513678Y5348000D01*
Y5233000D01*
X7518917Y5206663D01*
X7533836Y5184336D01*
X7556163Y5169417D01*
X7582500Y5164178D01*
X7657500D01*
X7683837Y5169417D01*
X7706164Y5184336D01*
X7721083Y5206663D01*
X7726322Y5233000D01*
Y5348000D01*
X7721083Y5374337D01*
X7706164Y5396664D01*
X7698096Y5402056D01*
X7702646Y5417056D01*
X8379531D01*
X8381527Y5417453D01*
X8434462Y5410484D01*
D02*
G37*
%LPC*%
G36*
X2143420Y5280500D02*
X2042000D01*
Y5159080D01*
X2069500D01*
X2097788Y5164707D01*
X2121769Y5180731D01*
X2137793Y5204712D01*
X2143420Y5233000D01*
Y5280500D01*
D02*
G37*
G36*
X2022000D02*
X1920580D01*
Y5233000D01*
X1926207Y5204712D01*
X1942231Y5180731D01*
X1966212Y5164707D01*
X1994500Y5159080D01*
X2022000D01*
Y5280500D01*
D02*
G37*
G36*
X8165500Y5254920D02*
X8118000D01*
Y5153500D01*
X8239420D01*
Y5181000D01*
X8233793Y5209288D01*
X8217769Y5233269D01*
X8193788Y5249293D01*
X8165500Y5254920D01*
D02*
G37*
G36*
X1586500Y5360244D02*
X1470500D01*
Y5153500D01*
X1677244D01*
Y5269500D01*
X1670336Y5304226D01*
X1650665Y5333665D01*
X1621226Y5353336D01*
X1586500Y5360244D01*
D02*
G37*
G36*
X1450500D02*
X1334500D01*
X1299774Y5353336D01*
X1270335Y5333665D01*
X1250664Y5304226D01*
X1243756Y5269500D01*
Y5153500D01*
X1450500D01*
Y5360244D01*
D02*
G37*
G36*
X8098000Y5254920D02*
X8050500D01*
X8022212Y5249293D01*
X7998231Y5233269D01*
X7982207Y5209288D01*
X7976580Y5181000D01*
Y5153500D01*
X8098000D01*
Y5254920D01*
D02*
G37*
G36*
X8239420Y5133500D02*
X8118000D01*
Y5032080D01*
X8165500D01*
X8193788Y5037707D01*
X8217769Y5053731D01*
X8233793Y5077712D01*
X8239420Y5106000D01*
Y5133500D01*
D02*
G37*
G36*
X8098000D02*
X7976580D01*
Y5106000D01*
X7982207Y5077712D01*
X7998231Y5053731D01*
X8022212Y5037707D01*
X8050500Y5032080D01*
X8098000D01*
Y5133500D01*
D02*
G37*
G36*
X2069500Y5127920D02*
X2042000D01*
Y5006500D01*
X2143420D01*
Y5054000D01*
X2137793Y5082288D01*
X2121769Y5106269D01*
X2097788Y5122293D01*
X2069500Y5127920D01*
D02*
G37*
G36*
X2022000D02*
X1994500D01*
X1966212Y5122293D01*
X1942231Y5106269D01*
X1926207Y5082288D01*
X1920580Y5054000D01*
Y5006500D01*
X2022000D01*
Y5127920D01*
D02*
G37*
G36*
X1677244Y5133500D02*
X1470500D01*
Y4926756D01*
X1586500D01*
X1621226Y4933664D01*
X1650665Y4953335D01*
X1670336Y4982774D01*
X1677244Y5017500D01*
Y5133500D01*
D02*
G37*
G36*
X1450500D02*
X1243756D01*
Y5017500D01*
X1250664Y4982774D01*
X1270335Y4953335D01*
X1299774Y4933664D01*
X1334500Y4926756D01*
X1450500D01*
Y5133500D01*
D02*
G37*
G36*
X8165500Y4995822D02*
X8050500D01*
X8024163Y4990583D01*
X8001836Y4975664D01*
X7986917Y4953337D01*
X7981678Y4927000D01*
Y4922938D01*
X7966678Y4919955D01*
X7960865Y4933987D01*
X7943987Y4950866D01*
X7921935Y4960000D01*
X7898065D01*
X7876013Y4950866D01*
X7859134Y4933987D01*
X7850000Y4911935D01*
Y4888065D01*
X7859134Y4866013D01*
X7876013Y4849135D01*
X7898065Y4840000D01*
X7921935D01*
X7943987Y4849135D01*
X7960865Y4866013D01*
X7966678Y4880046D01*
X7981678Y4877062D01*
Y4852000D01*
X7986917Y4825663D01*
X8001836Y4803336D01*
X8024163Y4788417D01*
X8050500Y4783178D01*
X8165500D01*
X8191837Y4788417D01*
X8214164Y4803336D01*
X8229083Y4825663D01*
X8234322Y4852000D01*
Y4927000D01*
X8229083Y4953337D01*
X8214164Y4975664D01*
X8191837Y4990583D01*
X8165500Y4995822D01*
D02*
G37*
G36*
X4609500Y5122822D02*
X4534500D01*
X4508163Y5117583D01*
X4485836Y5102664D01*
X4470917Y5080337D01*
X4465678Y5054000D01*
Y4939000D01*
X4470917Y4912663D01*
X4471053Y4912459D01*
X4463506Y4902147D01*
X4461338Y4900000D01*
X4438065D01*
X4425064Y4894615D01*
X4415120Y4906732D01*
X4419083Y4912663D01*
X4424322Y4939000D01*
Y5054000D01*
X4419083Y5080337D01*
X4404164Y5102664D01*
X4381837Y5117583D01*
X4355500Y5122822D01*
X4280500D01*
X4254163Y5117583D01*
X4231836Y5102664D01*
X4216917Y5080337D01*
X4211678Y5054000D01*
Y4939000D01*
X4216917Y4912663D01*
X4231836Y4890336D01*
X4254163Y4875417D01*
X4280500Y4870178D01*
X4355500D01*
X4381837Y4875417D01*
X4384124Y4876945D01*
X4396240Y4867000D01*
X4390000Y4851935D01*
Y4828065D01*
X4399134Y4806013D01*
X4416013Y4789134D01*
X4438065Y4780000D01*
X4461935D01*
X4483987Y4789134D01*
X4500866Y4806013D01*
X4510000Y4828065D01*
Y4851935D01*
X4506469Y4860460D01*
X4517259Y4873607D01*
X4534500Y4870178D01*
X4609500D01*
X4635837Y4875417D01*
X4658164Y4890336D01*
X4673083Y4912663D01*
X4678322Y4939000D01*
Y5054000D01*
X4673083Y5080337D01*
X4658164Y5102664D01*
X4635837Y5117583D01*
X4609500Y5122822D01*
D02*
G37*
G36*
X7657500D02*
X7582500D01*
X7556163Y5117583D01*
X7533836Y5102664D01*
X7518917Y5080337D01*
X7513678Y5054000D01*
Y4939000D01*
X7518917Y4912663D01*
X7533836Y4890336D01*
X7556163Y4875417D01*
X7582500Y4870178D01*
X7657500D01*
X7683837Y4875417D01*
X7706164Y4890336D01*
X7721083Y4912663D01*
X7726322Y4939000D01*
Y5054000D01*
X7721083Y5080337D01*
X7706164Y5102664D01*
X7683837Y5117583D01*
X7657500Y5122822D01*
D02*
G37*
G36*
X7403500D02*
X7328500D01*
X7302163Y5117583D01*
X7279836Y5102664D01*
X7264917Y5080337D01*
X7259678Y5054000D01*
Y4939000D01*
X7264917Y4912663D01*
X7279836Y4890336D01*
X7302163Y4875417D01*
X7328500Y4870178D01*
X7403500D01*
X7429837Y4875417D01*
X7452164Y4890336D01*
X7467083Y4912663D01*
X7472322Y4939000D01*
Y5054000D01*
X7467083Y5080337D01*
X7452164Y5102664D01*
X7429837Y5117583D01*
X7403500Y5122822D01*
D02*
G37*
G36*
X7149500D02*
X7074500D01*
X7048163Y5117583D01*
X7025836Y5102664D01*
X7010917Y5080337D01*
X7005678Y5054000D01*
Y4939000D01*
X7010917Y4912663D01*
X7025836Y4890336D01*
X7048163Y4875417D01*
X7074500Y4870178D01*
X7149500D01*
X7175837Y4875417D01*
X7198164Y4890336D01*
X7213083Y4912663D01*
X7218322Y4939000D01*
Y5054000D01*
X7213083Y5080337D01*
X7198164Y5102664D01*
X7175837Y5117583D01*
X7149500Y5122822D01*
D02*
G37*
G36*
X6895500D02*
X6820500D01*
X6794163Y5117583D01*
X6771836Y5102664D01*
X6756917Y5080337D01*
X6751678Y5054000D01*
Y4939000D01*
X6756917Y4912663D01*
X6771836Y4890336D01*
X6794163Y4875417D01*
X6820500Y4870178D01*
X6895500D01*
X6921837Y4875417D01*
X6944164Y4890336D01*
X6959083Y4912663D01*
X6964322Y4939000D01*
Y5054000D01*
X6959083Y5080337D01*
X6944164Y5102664D01*
X6921837Y5117583D01*
X6895500Y5122822D01*
D02*
G37*
G36*
X6641500D02*
X6566500D01*
X6540163Y5117583D01*
X6517836Y5102664D01*
X6502917Y5080337D01*
X6497678Y5054000D01*
Y4939000D01*
X6502917Y4912663D01*
X6517836Y4890336D01*
X6540163Y4875417D01*
X6566500Y4870178D01*
X6641500D01*
X6667837Y4875417D01*
X6690164Y4890336D01*
X6705083Y4912663D01*
X6710322Y4939000D01*
Y5054000D01*
X6705083Y5080337D01*
X6690164Y5102664D01*
X6667837Y5117583D01*
X6641500Y5122822D01*
D02*
G37*
G36*
X6387500D02*
X6312500D01*
X6286163Y5117583D01*
X6263836Y5102664D01*
X6248917Y5080337D01*
X6243678Y5054000D01*
Y4939000D01*
X6248917Y4912663D01*
X6263836Y4890336D01*
X6286163Y4875417D01*
X6312500Y4870178D01*
X6387500D01*
X6413837Y4875417D01*
X6436164Y4890336D01*
X6451083Y4912663D01*
X6456322Y4939000D01*
Y5054000D01*
X6451083Y5080337D01*
X6436164Y5102664D01*
X6413837Y5117583D01*
X6387500Y5122822D01*
D02*
G37*
G36*
X6133500D02*
X6058500D01*
X6032163Y5117583D01*
X6009836Y5102664D01*
X5994917Y5080337D01*
X5989678Y5054000D01*
Y4939000D01*
X5994917Y4912663D01*
X6009836Y4890336D01*
X6032163Y4875417D01*
X6058500Y4870178D01*
X6133500D01*
X6159837Y4875417D01*
X6182164Y4890336D01*
X6197083Y4912663D01*
X6202322Y4939000D01*
Y5054000D01*
X6197083Y5080337D01*
X6182164Y5102664D01*
X6159837Y5117583D01*
X6133500Y5122822D01*
D02*
G37*
G36*
X5371500D02*
X5296500D01*
X5270163Y5117583D01*
X5247836Y5102664D01*
X5232917Y5080337D01*
X5227678Y5054000D01*
Y4939000D01*
X5232917Y4912663D01*
X5247836Y4890336D01*
X5270163Y4875417D01*
X5296500Y4870178D01*
X5371500D01*
X5397837Y4875417D01*
X5420164Y4890336D01*
X5435083Y4912663D01*
X5440322Y4939000D01*
Y5054000D01*
X5435083Y5080337D01*
X5420164Y5102664D01*
X5397837Y5117583D01*
X5371500Y5122822D01*
D02*
G37*
G36*
X4101500D02*
X4026500D01*
X4000163Y5117583D01*
X3977836Y5102664D01*
X3962917Y5080337D01*
X3957678Y5054000D01*
Y4939000D01*
X3962917Y4912663D01*
X3977836Y4890336D01*
X4000163Y4875417D01*
X4026500Y4870178D01*
X4101500D01*
X4127837Y4875417D01*
X4150164Y4890336D01*
X4165083Y4912663D01*
X4170322Y4939000D01*
Y5054000D01*
X4165083Y5080337D01*
X4150164Y5102664D01*
X4127837Y5117583D01*
X4101500Y5122822D01*
D02*
G37*
G36*
X3847500D02*
X3772500D01*
X3746163Y5117583D01*
X3723836Y5102664D01*
X3708917Y5080337D01*
X3703678Y5054000D01*
Y4939000D01*
X3708917Y4912663D01*
X3723836Y4890336D01*
X3746163Y4875417D01*
X3772500Y4870178D01*
X3847500D01*
X3873837Y4875417D01*
X3896164Y4890336D01*
X3911083Y4912663D01*
X3916322Y4939000D01*
Y5054000D01*
X3911083Y5080337D01*
X3896164Y5102664D01*
X3873837Y5117583D01*
X3847500Y5122822D01*
D02*
G37*
G36*
X3593500D02*
X3518500D01*
X3492163Y5117583D01*
X3469836Y5102664D01*
X3454917Y5080337D01*
X3449678Y5054000D01*
Y4939000D01*
X3454917Y4912663D01*
X3469836Y4890336D01*
X3492163Y4875417D01*
X3518500Y4870178D01*
X3593500D01*
X3619837Y4875417D01*
X3642164Y4890336D01*
X3657083Y4912663D01*
X3662322Y4939000D01*
Y5054000D01*
X3657083Y5080337D01*
X3642164Y5102664D01*
X3619837Y5117583D01*
X3593500Y5122822D01*
D02*
G37*
G36*
X3339500D02*
X3264500D01*
X3238163Y5117583D01*
X3215836Y5102664D01*
X3200917Y5080337D01*
X3195678Y5054000D01*
Y4939000D01*
X3200917Y4912663D01*
X3215836Y4890336D01*
X3238163Y4875417D01*
X3264500Y4870178D01*
X3339500D01*
X3365837Y4875417D01*
X3388164Y4890336D01*
X3403083Y4912663D01*
X3408322Y4939000D01*
Y5054000D01*
X3403083Y5080337D01*
X3388164Y5102664D01*
X3365837Y5117583D01*
X3339500Y5122822D01*
D02*
G37*
G36*
X3085500D02*
X3010500D01*
X2984163Y5117583D01*
X2961836Y5102664D01*
X2946917Y5080337D01*
X2941678Y5054000D01*
Y4939000D01*
X2946917Y4912663D01*
X2961836Y4890336D01*
X2984163Y4875417D01*
X3010500Y4870178D01*
X3085500D01*
X3111837Y4875417D01*
X3134164Y4890336D01*
X3149083Y4912663D01*
X3154322Y4939000D01*
Y5054000D01*
X3149083Y5080337D01*
X3134164Y5102664D01*
X3111837Y5117583D01*
X3085500Y5122822D01*
D02*
G37*
G36*
X2831500D02*
X2756500D01*
X2730163Y5117583D01*
X2707836Y5102664D01*
X2692917Y5080337D01*
X2687678Y5054000D01*
Y4939000D01*
X2692917Y4912663D01*
X2707836Y4890336D01*
X2730163Y4875417D01*
X2756500Y4870178D01*
X2831500D01*
X2857837Y4875417D01*
X2880164Y4890336D01*
X2895083Y4912663D01*
X2900322Y4939000D01*
Y5054000D01*
X2895083Y5080337D01*
X2880164Y5102664D01*
X2857837Y5117583D01*
X2831500Y5122822D01*
D02*
G37*
G36*
X2577500D02*
X2502500D01*
X2476163Y5117583D01*
X2453836Y5102664D01*
X2438917Y5080337D01*
X2433678Y5054000D01*
Y4939000D01*
X2438917Y4912663D01*
X2453836Y4890336D01*
X2476163Y4875417D01*
X2502500Y4870178D01*
X2577500D01*
X2603837Y4875417D01*
X2626164Y4890336D01*
X2641083Y4912663D01*
X2646322Y4939000D01*
Y5054000D01*
X2641083Y5080337D01*
X2626164Y5102664D01*
X2603837Y5117583D01*
X2577500Y5122822D01*
D02*
G37*
G36*
X2323500D02*
X2248500D01*
X2222163Y5117583D01*
X2199836Y5102664D01*
X2184917Y5080337D01*
X2179678Y5054000D01*
Y4939000D01*
X2184917Y4912663D01*
X2199836Y4890336D01*
X2222163Y4875417D01*
X2248500Y4870178D01*
X2323500D01*
X2349837Y4875417D01*
X2372164Y4890336D01*
X2387083Y4912663D01*
X2392322Y4939000D01*
Y5054000D01*
X2387083Y5080337D01*
X2372164Y5102664D01*
X2349837Y5117583D01*
X2323500Y5122822D01*
D02*
G37*
G36*
X2143420Y4986500D02*
X2042000D01*
Y4865080D01*
X2069500D01*
X2097788Y4870707D01*
X2121769Y4886731D01*
X2137793Y4910712D01*
X2143420Y4939000D01*
Y4986500D01*
D02*
G37*
G36*
X2022000D02*
X1920580D01*
Y4939000D01*
X1926207Y4910712D01*
X1942231Y4886731D01*
X1966212Y4870707D01*
X1994500Y4865080D01*
X2022000D01*
Y4986500D01*
D02*
G37*
G36*
X7551935Y4790000D02*
X7528065D01*
X7506013Y4780865D01*
X7489134Y4763987D01*
X7482252Y4747371D01*
X7467839Y4742805D01*
X7465432Y4742978D01*
X7458387Y4750022D01*
X7436335Y4759156D01*
X7412465D01*
X7390413Y4750022D01*
X7382622Y4742231D01*
X7373987Y4750866D01*
X7351935Y4760000D01*
X7328065D01*
X7306013Y4750866D01*
X7289135Y4733987D01*
X7280000Y4711935D01*
Y4688065D01*
X7289135Y4666013D01*
X7306013Y4649134D01*
X7328065Y4640000D01*
X7351935D01*
X7373987Y4649134D01*
X7381778Y4656925D01*
X7390413Y4648291D01*
X7412465Y4639157D01*
X7421743D01*
Y4638086D01*
X7430877Y4616033D01*
X7447755Y4599155D01*
X7469808Y4590021D01*
X7493677D01*
X7515730Y4599155D01*
X7532608Y4616033D01*
X7541743Y4638086D01*
Y4661955D01*
X7547118Y4670000D01*
X7551935D01*
X7573987Y4679134D01*
X7590865Y4696013D01*
X7600000Y4718065D01*
Y4741935D01*
X7590865Y4763987D01*
X7573987Y4780865D01*
X7551935Y4790000D01*
D02*
G37*
G36*
X7171672Y4783983D02*
X7147803D01*
X7125750Y4774849D01*
X7108872Y4757971D01*
X7099737Y4735918D01*
Y4712049D01*
X7108872Y4689996D01*
X7125750Y4673118D01*
X7147803Y4663984D01*
X7171672D01*
X7193724Y4673118D01*
X7210603Y4689996D01*
X7219737Y4712049D01*
Y4735918D01*
X7210603Y4757971D01*
X7193724Y4774849D01*
X7171672Y4783983D01*
D02*
G37*
G36*
X3881935Y4672500D02*
X3858065D01*
X3836013Y4663365D01*
X3823652Y4651004D01*
X3801935Y4660000D01*
X3778065D01*
X3756013Y4650865D01*
X3739135Y4633987D01*
X3730000Y4611935D01*
Y4588065D01*
X3739135Y4566013D01*
X3756013Y4549134D01*
X3778065Y4540000D01*
X3801935D01*
X3823987Y4549134D01*
X3836348Y4561495D01*
X3858065Y4552500D01*
X3881935D01*
X3903987Y4561634D01*
X3920865Y4578513D01*
X3930000Y4600565D01*
Y4624434D01*
X3920865Y4646487D01*
X3903987Y4663365D01*
X3881935Y4672500D01*
D02*
G37*
G36*
X5661936Y4669998D02*
X5638067D01*
X5616014Y4660864D01*
X5605208Y4650058D01*
X5595409Y4645659D01*
X5585610Y4650058D01*
X5574804Y4660864D01*
X5552752Y4669998D01*
X5528882D01*
X5506830Y4660864D01*
X5495009Y4649043D01*
X5485409Y4645610D01*
X5475810Y4649043D01*
X5463989Y4660864D01*
X5441937Y4669998D01*
X5418067D01*
X5396015Y4660864D01*
X5379136Y4643986D01*
X5370002Y4621933D01*
Y4598064D01*
X5379136Y4576011D01*
X5396015Y4559133D01*
X5418067Y4549999D01*
X5441937D01*
X5463989Y4559133D01*
X5475810Y4570954D01*
X5485409Y4574387D01*
X5495009Y4570954D01*
X5506830Y4559133D01*
X5528882Y4549999D01*
X5552752D01*
X5574804Y4559133D01*
X5585610Y4569939D01*
X5595409Y4574338D01*
X5605208Y4569939D01*
X5616014Y4559133D01*
X5638067Y4549999D01*
X5661936D01*
X5683989Y4559133D01*
X5700867Y4576011D01*
X5710001Y4598064D01*
Y4621933D01*
X5700867Y4643986D01*
X5683989Y4660864D01*
X5661936Y4669998D01*
D02*
G37*
G36*
X4071935Y4790000D02*
X4048065D01*
X4026013Y4780865D01*
X4009134Y4763987D01*
X4000000Y4741935D01*
Y4718065D01*
X4009134Y4696013D01*
X4010147Y4695000D01*
X3999134Y4683987D01*
X3990000Y4661935D01*
Y4638065D01*
X3999134Y4616013D01*
X4016013Y4599135D01*
X4038065Y4590000D01*
X4061935D01*
X4083987Y4599135D01*
X4100866Y4616013D01*
X4110000Y4638065D01*
Y4661935D01*
X4100866Y4683987D01*
X4099853Y4685000D01*
X4110866Y4696013D01*
X4120000Y4718065D01*
Y4741935D01*
X4110866Y4763987D01*
X4093987Y4780865D01*
X4071935Y4790000D01*
D02*
G37*
G36*
X7011935Y4677500D02*
X6988065D01*
X6966013Y4668366D01*
X6949134Y4651487D01*
X6940000Y4629435D01*
Y4605565D01*
X6949134Y4583513D01*
X6966013Y4566635D01*
X6988065Y4557500D01*
X7011935D01*
X7033987Y4566635D01*
X7050866Y4583513D01*
X7060000Y4605565D01*
Y4629435D01*
X7050866Y4651487D01*
X7033987Y4668366D01*
X7011935Y4677500D01*
D02*
G37*
G36*
X5881935Y4670000D02*
X5858065D01*
X5836013Y4660865D01*
X5819134Y4643987D01*
X5810000Y4621935D01*
Y4598065D01*
X5819134Y4576013D01*
X5836013Y4559134D01*
X5858065Y4550000D01*
X5881935D01*
X5903987Y4559134D01*
X5920865Y4576013D01*
X5930000Y4598065D01*
Y4621935D01*
X5920865Y4643987D01*
X5903987Y4660865D01*
X5881935Y4670000D01*
D02*
G37*
G36*
X6339878Y4668868D02*
X6316008D01*
X6293956Y4659734D01*
X6277078Y4642856D01*
X6267943Y4620803D01*
Y4596934D01*
X6277078Y4574881D01*
X6293956Y4558003D01*
X6316008Y4548869D01*
X6339878D01*
X6361930Y4558003D01*
X6378809Y4574881D01*
X6387943Y4596934D01*
Y4620803D01*
X6378809Y4642856D01*
X6361930Y4659734D01*
X6339878Y4668868D01*
D02*
G37*
G36*
X6856934Y4665000D02*
X6833064D01*
X6811012Y4655866D01*
X6794133Y4638987D01*
X6784999Y4616935D01*
Y4593065D01*
X6794133Y4571013D01*
X6811012Y4554135D01*
X6833064Y4545000D01*
X6856934D01*
X6878986Y4554135D01*
X6895865Y4571013D01*
X6904999Y4593065D01*
Y4616935D01*
X6895865Y4638987D01*
X6878986Y4655866D01*
X6856934Y4665000D01*
D02*
G37*
G36*
X8459500Y4741822D02*
X8344500D01*
X8318163Y4736583D01*
X8295836Y4721664D01*
X8280917Y4699337D01*
X8275678Y4673000D01*
Y4598000D01*
X8280917Y4571663D01*
X8295836Y4549336D01*
X8318163Y4534417D01*
X8344500Y4529178D01*
X8459500D01*
X8485837Y4534417D01*
X8508164Y4549336D01*
X8523083Y4571663D01*
X8528322Y4598000D01*
Y4673000D01*
X8523083Y4699337D01*
X8508164Y4721664D01*
X8485837Y4736583D01*
X8459500Y4741822D01*
D02*
G37*
G36*
X8165500D02*
X8050500D01*
X8024163Y4736583D01*
X8001836Y4721664D01*
X7986917Y4699337D01*
X7981678Y4673000D01*
Y4598000D01*
X7986917Y4571663D01*
X8001836Y4549336D01*
X8024163Y4534417D01*
X8050500Y4529178D01*
X8165500D01*
X8191837Y4534417D01*
X8214164Y4549336D01*
X8229083Y4571663D01*
X8234322Y4598000D01*
Y4673000D01*
X8229083Y4699337D01*
X8214164Y4721664D01*
X8191837Y4736583D01*
X8165500Y4741822D01*
D02*
G37*
G36*
X2069500Y4623820D02*
X2022000D01*
Y4522400D01*
X2143420D01*
Y4549900D01*
X2137793Y4578188D01*
X2121769Y4602169D01*
X2097788Y4618193D01*
X2069500Y4623820D01*
D02*
G37*
G36*
X2002000D02*
X1954500D01*
X1926212Y4618193D01*
X1902231Y4602169D01*
X1886207Y4578188D01*
X1880580Y4549900D01*
Y4522400D01*
X2002000D01*
Y4623820D01*
D02*
G37*
G36*
X7784390Y4601138D02*
X7760520D01*
X7738468Y4592003D01*
X7721589Y4575125D01*
X7712455Y4553072D01*
Y4529203D01*
X7721589Y4507150D01*
X7738468Y4490272D01*
X7760520Y4481138D01*
X7784390D01*
X7806442Y4490272D01*
X7823320Y4507150D01*
X7832455Y4529203D01*
Y4553072D01*
X7823320Y4575125D01*
X7806442Y4592003D01*
X7784390Y4601138D01*
D02*
G37*
G36*
X6061935Y4740000D02*
X6038065D01*
X6016013Y4730866D01*
X5999135Y4713987D01*
X5990000Y4691935D01*
Y4668065D01*
X5999135Y4646013D01*
X6016013Y4629135D01*
X6028764Y4623853D01*
X6032058Y4606253D01*
X6021947Y4596142D01*
X6012813Y4574090D01*
Y4550220D01*
X6021947Y4528168D01*
X6038826Y4511289D01*
X6060878Y4502155D01*
X6084188D01*
X6091538Y4484410D01*
X6108416Y4467532D01*
X6130469Y4458397D01*
X6154338D01*
X6176391Y4467532D01*
X6193269Y4484410D01*
X6202403Y4506463D01*
Y4530332D01*
X6193269Y4552385D01*
X6185253Y4560400D01*
X6200865Y4576013D01*
X6210000Y4598065D01*
Y4621935D01*
X6200865Y4643987D01*
X6183987Y4660865D01*
X6161935Y4670000D01*
X6138065D01*
X6123858Y4664115D01*
X6122448Y4664517D01*
X6110000Y4674451D01*
Y4691935D01*
X6100866Y4713987D01*
X6083987Y4730866D01*
X6061935Y4740000D01*
D02*
G37*
G36*
X3651932Y4569998D02*
X3628063D01*
X3606011Y4560864D01*
X3589132Y4543986D01*
X3579998Y4521933D01*
Y4498064D01*
X3589132Y4476011D01*
X3606011Y4459133D01*
X3628063Y4449999D01*
X3651932D01*
X3673985Y4459133D01*
X3690863Y4476011D01*
X3699998Y4498064D01*
Y4521933D01*
X3690863Y4543986D01*
X3673985Y4560864D01*
X3651932Y4569998D01*
D02*
G37*
G36*
X2143420Y4502400D02*
X2022000D01*
Y4400980D01*
X2069500D01*
X2097788Y4406607D01*
X2121769Y4422630D01*
X2137793Y4446612D01*
X2143420Y4474900D01*
Y4502400D01*
D02*
G37*
G36*
X2002000D02*
X1880580D01*
Y4474900D01*
X1886207Y4446612D01*
X1902231Y4422630D01*
X1926212Y4406607D01*
X1954500Y4400980D01*
X2002000D01*
Y4502400D01*
D02*
G37*
G36*
X2363500Y4628918D02*
X2248500D01*
X2218261Y4622903D01*
X2192626Y4605774D01*
X2175497Y4580139D01*
X2169482Y4549900D01*
Y4474900D01*
X2175497Y4444661D01*
X2192626Y4419026D01*
X2218261Y4401897D01*
X2248500Y4395882D01*
X2363500D01*
X2393739Y4401897D01*
X2419374Y4419026D01*
X2436503Y4444661D01*
X2442518Y4474900D01*
Y4549900D01*
X2436503Y4580139D01*
X2419374Y4605774D01*
X2393739Y4622903D01*
X2363500Y4628918D01*
D02*
G37*
G36*
X7196070Y4490000D02*
X7172201D01*
X7150148Y4480866D01*
X7133270Y4463987D01*
X7124136Y4441935D01*
Y4418065D01*
X7133270Y4396013D01*
X7150148Y4379134D01*
X7172201Y4370000D01*
X7196070D01*
X7218123Y4379134D01*
X7235001Y4396013D01*
X7244135Y4418065D01*
Y4441935D01*
X7235001Y4463987D01*
X7218123Y4480866D01*
X7196070Y4490000D01*
D02*
G37*
G36*
X2989435Y4467500D02*
X2965565D01*
X2943513Y4458366D01*
X2926634Y4441487D01*
X2917500Y4419435D01*
Y4395566D01*
X2926634Y4373513D01*
X2943513Y4356635D01*
X2965565Y4347500D01*
X2989435D01*
X3011487Y4356635D01*
X3028366Y4373513D01*
X3037500Y4395566D01*
Y4419435D01*
X3028366Y4441487D01*
X3011487Y4458366D01*
X2989435Y4467500D01*
D02*
G37*
G36*
X2520164Y4382875D02*
X2496295D01*
X2474242Y4373741D01*
X2457364Y4356862D01*
X2448429Y4335290D01*
X2445936Y4334233D01*
X2433230Y4331038D01*
X2419374Y4351774D01*
X2393739Y4368903D01*
X2363500Y4374918D01*
X2248500D01*
X2218261Y4368903D01*
X2192626Y4351774D01*
X2175497Y4326139D01*
X2169482Y4295900D01*
Y4220900D01*
X2175497Y4190661D01*
X2192626Y4165026D01*
X2218261Y4147897D01*
X2248500Y4141882D01*
X2363500D01*
X2393739Y4147897D01*
X2419374Y4165025D01*
X2424267Y4165508D01*
X2433811Y4155963D01*
X2455864Y4146829D01*
X2479733D01*
X2501786Y4155963D01*
X2518664Y4172841D01*
X2527798Y4194894D01*
Y4218763D01*
X2518664Y4240816D01*
X2511605Y4247875D01*
X2517818Y4262875D01*
X2520164D01*
X2542217Y4272009D01*
X2559095Y4288888D01*
X2568230Y4310940D01*
Y4334810D01*
X2559095Y4356862D01*
X2542217Y4373741D01*
X2520164Y4382875D01*
D02*
G37*
G36*
X7061070Y4526648D02*
X7037201D01*
X7015148Y4517513D01*
X6998270Y4500635D01*
X6989136Y4478583D01*
Y4454713D01*
X6998270Y4432661D01*
X6998752Y4432179D01*
X6990260Y4423688D01*
X6981126Y4401635D01*
Y4377766D01*
X6990260Y4355713D01*
X7007138Y4338835D01*
X7029191Y4329701D01*
X7053060D01*
X7075113Y4338835D01*
X7091991Y4355713D01*
X7101125Y4377766D01*
Y4401635D01*
X7091991Y4423688D01*
X7091510Y4424169D01*
X7100001Y4432661D01*
X7109135Y4454713D01*
Y4478583D01*
X7100001Y4500635D01*
X7083123Y4517513D01*
X7061070Y4526648D01*
D02*
G37*
G36*
X3391935Y4430000D02*
X3368065D01*
X3346013Y4420865D01*
X3329135Y4403987D01*
X3320000Y4381935D01*
Y4358065D01*
X3329135Y4336013D01*
X3346013Y4319134D01*
X3368065Y4310000D01*
X3391935D01*
X3413987Y4319134D01*
X3430866Y4336013D01*
X3440000Y4358065D01*
Y4381935D01*
X3430866Y4403987D01*
X3413987Y4420865D01*
X3391935Y4430000D01*
D02*
G37*
G36*
X4451935Y4420000D02*
X4428065D01*
X4406013Y4410865D01*
X4389134Y4393987D01*
X4380000Y4371935D01*
Y4348065D01*
X4389134Y4326013D01*
X4406013Y4309134D01*
X4428065Y4300000D01*
X4451935D01*
X4473987Y4309134D01*
X4490866Y4326013D01*
X4500000Y4348065D01*
Y4371935D01*
X4490866Y4393987D01*
X4473987Y4410865D01*
X4451935Y4420000D01*
D02*
G37*
G36*
X4667347Y4410000D02*
X4643477D01*
X4621425Y4400865D01*
X4604547Y4383987D01*
X4595412Y4361935D01*
Y4338065D01*
X4604547Y4316013D01*
X4621425Y4299134D01*
X4643477Y4290000D01*
X4667347D01*
X4689399Y4299134D01*
X4706278Y4316013D01*
X4715412Y4338065D01*
Y4361935D01*
X4706278Y4383987D01*
X4689399Y4400865D01*
X4667347Y4410000D01*
D02*
G37*
G36*
X8459500Y4487822D02*
X8344500D01*
X8318163Y4482583D01*
X8295836Y4467664D01*
X8280917Y4445337D01*
X8275678Y4419000D01*
Y4344000D01*
X8280917Y4317663D01*
X8287026Y4308519D01*
X8282577Y4288293D01*
X8279959Y4286676D01*
X8271935Y4290000D01*
X8248065D01*
X8226013Y4280865D01*
X8209134Y4263987D01*
X8200000Y4241935D01*
Y4239796D01*
X8185000Y4229943D01*
X8165500Y4233822D01*
X8050500D01*
X8024163Y4228583D01*
X8001836Y4213664D01*
X7986917Y4191337D01*
X7981678Y4165000D01*
Y4090000D01*
X7986917Y4063663D01*
X8001836Y4041336D01*
X8024163Y4026417D01*
X8050500Y4021178D01*
X8165500D01*
X8191837Y4026417D01*
X8214164Y4041336D01*
X8229083Y4063663D01*
X8234322Y4090000D01*
Y4159457D01*
X8246398Y4169820D01*
X8248622Y4170000D01*
X8261378D01*
X8273036Y4165924D01*
X8275678Y4156142D01*
Y4090000D01*
X8280917Y4063663D01*
X8295836Y4041336D01*
X8318163Y4026417D01*
X8344500Y4021178D01*
X8459500D01*
X8485837Y4026417D01*
X8508164Y4041336D01*
X8523083Y4063663D01*
X8528322Y4090000D01*
Y4165000D01*
X8523083Y4191337D01*
X8508164Y4213664D01*
X8485837Y4228583D01*
X8459500Y4233822D01*
X8344500D01*
X8331595Y4231255D01*
X8320000Y4240771D01*
Y4241935D01*
X8310866Y4263987D01*
X8301025Y4273827D01*
X8310587Y4285479D01*
X8318163Y4280417D01*
X8344500Y4275178D01*
X8459500D01*
X8485837Y4280417D01*
X8508164Y4295336D01*
X8523083Y4317663D01*
X8528322Y4344000D01*
Y4419000D01*
X8523083Y4445337D01*
X8508164Y4467664D01*
X8485837Y4482583D01*
X8459500Y4487822D01*
D02*
G37*
G36*
X8165500D02*
X8050500D01*
X8024163Y4482583D01*
X8001836Y4467664D01*
X7986917Y4445337D01*
X7981678Y4419000D01*
Y4344000D01*
X7986917Y4317663D01*
X8001836Y4295336D01*
X8024163Y4280417D01*
X8050500Y4275178D01*
X8165500D01*
X8191837Y4280417D01*
X8214164Y4295336D01*
X8229083Y4317663D01*
X8234322Y4344000D01*
Y4419000D01*
X8229083Y4445337D01*
X8214164Y4467664D01*
X8191837Y4482583D01*
X8165500Y4487822D01*
D02*
G37*
G36*
X4101935Y4390000D02*
X4078065D01*
X4056013Y4380866D01*
X4039134Y4363987D01*
X4030000Y4341935D01*
Y4318065D01*
X4039134Y4296013D01*
X4056013Y4279134D01*
X4078065Y4270000D01*
X4101935D01*
X4123987Y4279134D01*
X4140865Y4296013D01*
X4150000Y4318065D01*
Y4341935D01*
X4140865Y4363987D01*
X4123987Y4380866D01*
X4101935Y4390000D01*
D02*
G37*
G36*
X7571935Y4360000D02*
X7548065D01*
X7526013Y4350866D01*
X7509135Y4333987D01*
X7500000Y4311935D01*
Y4288065D01*
X7509135Y4266013D01*
X7526013Y4249135D01*
X7548065Y4240000D01*
X7571935D01*
X7593987Y4249135D01*
X7610866Y4266013D01*
X7620000Y4288065D01*
Y4311935D01*
X7610866Y4333987D01*
X7593987Y4350866D01*
X7571935Y4360000D01*
D02*
G37*
G36*
X6601935Y4817500D02*
X6578065D01*
X6556013Y4808366D01*
X6539134Y4791487D01*
X6530000Y4769435D01*
Y4745565D01*
X6539134Y4723513D01*
X6556013Y4706634D01*
X6578065Y4697500D01*
X6601935D01*
X6623987Y4706634D01*
X6633026Y4695378D01*
X6629135Y4691487D01*
X6620000Y4669435D01*
Y4660000D01*
X6608065D01*
X6586013Y4650865D01*
X6569134Y4633987D01*
X6560000Y4611935D01*
Y4588065D01*
X6569134Y4566013D01*
X6580147Y4555000D01*
X6573934Y4540000D01*
X6570565D01*
X6548513Y4530865D01*
X6531634Y4513987D01*
X6522500Y4491935D01*
Y4468065D01*
X6531634Y4446013D01*
X6537647Y4440000D01*
X6531634Y4433987D01*
X6522500Y4411935D01*
Y4388065D01*
X6531634Y4366013D01*
X6548513Y4349135D01*
X6552328Y4347554D01*
X6550000Y4341935D01*
Y4318065D01*
X6559134Y4296013D01*
X6570270Y4284878D01*
X6570348Y4280955D01*
X6566209Y4268195D01*
X6548513Y4260865D01*
X6531634Y4243987D01*
X6522500Y4221935D01*
Y4198065D01*
X6531634Y4176013D01*
X6548513Y4159134D01*
X6562631Y4153287D01*
X6560000Y4146935D01*
Y4123065D01*
X6569134Y4101013D01*
X6586013Y4084135D01*
X6608065Y4075000D01*
X6631935D01*
X6653987Y4084135D01*
X6670865Y4101013D01*
X6680000Y4123065D01*
Y4146935D01*
X6670865Y4168987D01*
X6653987Y4185866D01*
X6639869Y4191713D01*
X6642500Y4198065D01*
Y4206928D01*
X6654972Y4215262D01*
X6663881Y4211571D01*
X6687750D01*
X6709803Y4220706D01*
X6726681Y4237584D01*
X6735815Y4259637D01*
Y4283506D01*
X6726681Y4305559D01*
X6709803Y4322437D01*
X6687750Y4331571D01*
X6670000D01*
Y4341935D01*
X6660866Y4363987D01*
X6643987Y4380866D01*
X6640172Y4382446D01*
X6642500Y4388065D01*
Y4411935D01*
X6633365Y4433987D01*
X6627353Y4440000D01*
X6633365Y4446013D01*
X6642500Y4468065D01*
Y4468229D01*
X6653705D01*
X6675758Y4477364D01*
X6692636Y4494242D01*
X6701770Y4516294D01*
Y4540164D01*
X6692636Y4562216D01*
X6676130Y4578723D01*
X6680000Y4588065D01*
Y4597500D01*
X6691935D01*
X6713987Y4606634D01*
X6730866Y4623513D01*
X6740000Y4645565D01*
Y4669435D01*
X6730866Y4691487D01*
X6713987Y4708365D01*
X6691935Y4717500D01*
X6668065D01*
X6646013Y4708365D01*
X6636975Y4719622D01*
X6640866Y4723513D01*
X6650000Y4745565D01*
Y4769435D01*
X6640866Y4791487D01*
X6623987Y4808366D01*
X6601935Y4817500D01*
D02*
G37*
G36*
X7703253Y4319599D02*
X7679384D01*
X7657331Y4310464D01*
X7640453Y4293586D01*
X7631319Y4271533D01*
Y4247664D01*
X7640453Y4225612D01*
X7657331Y4208733D01*
X7679384Y4199599D01*
X7703253D01*
X7725306Y4208733D01*
X7742184Y4225612D01*
X7751319Y4247664D01*
Y4271533D01*
X7742184Y4293586D01*
X7725306Y4310464D01*
X7703253Y4319599D01*
D02*
G37*
G36*
X4891935Y4290000D02*
X4868065D01*
X4846013Y4280865D01*
X4829134Y4263987D01*
X4820000Y4241935D01*
Y4218065D01*
X4829134Y4196013D01*
X4846013Y4179134D01*
X4868065Y4170000D01*
X4891935D01*
X4913987Y4179134D01*
X4930865Y4196013D01*
X4940000Y4218065D01*
Y4241935D01*
X4930865Y4263987D01*
X4913987Y4280865D01*
X4891935Y4290000D01*
D02*
G37*
G36*
X2069500Y4364722D02*
X1954500D01*
X1928163Y4359483D01*
X1905836Y4344564D01*
X1890917Y4322237D01*
X1885678Y4295900D01*
Y4220900D01*
X1890917Y4194563D01*
X1905836Y4172235D01*
X1928163Y4157317D01*
X1954500Y4152078D01*
X2069500D01*
X2095837Y4157317D01*
X2118164Y4172235D01*
X2133083Y4194563D01*
X2138322Y4220900D01*
Y4295900D01*
X2133083Y4322237D01*
X2118164Y4344564D01*
X2095837Y4359483D01*
X2069500Y4364722D01*
D02*
G37*
G36*
X6221935Y4240000D02*
X6198065D01*
X6176013Y4230866D01*
X6159134Y4213987D01*
X6150000Y4191935D01*
Y4168065D01*
X6159134Y4146013D01*
X6176013Y4129134D01*
X6198065Y4120000D01*
X6221935D01*
X6243987Y4129134D01*
X6260866Y4146013D01*
X6270000Y4168065D01*
Y4191935D01*
X6260866Y4213987D01*
X6243987Y4230866D01*
X6221935Y4240000D01*
D02*
G37*
G36*
X2791935Y4230000D02*
X2768065D01*
X2746013Y4220866D01*
X2729134Y4203987D01*
X2720000Y4181935D01*
Y4158065D01*
X2729134Y4136013D01*
X2746013Y4119135D01*
X2768065Y4110000D01*
X2791935D01*
X2813987Y4119135D01*
X2830866Y4136013D01*
X2840000Y4158065D01*
Y4181935D01*
X2830866Y4203987D01*
X2813987Y4220866D01*
X2791935Y4230000D01*
D02*
G37*
G36*
X4201935Y4190000D02*
X4178065D01*
X4156013Y4180866D01*
X4139134Y4163987D01*
X4130000Y4141935D01*
Y4118065D01*
X4139134Y4096013D01*
X4156013Y4079135D01*
X4178065Y4070000D01*
X4201935D01*
X4223987Y4079135D01*
X4240866Y4096013D01*
X4250000Y4118065D01*
Y4141935D01*
X4240866Y4163987D01*
X4223987Y4180866D01*
X4201935Y4190000D01*
D02*
G37*
G36*
X3113924Y4120000D02*
X3086076D01*
X3060348Y4109343D01*
X3040657Y4089652D01*
X3030000Y4063924D01*
Y4036076D01*
X3040657Y4010348D01*
X3060348Y3990657D01*
X3086076Y3980000D01*
X3113924D01*
X3139652Y3990657D01*
X3159343Y4010348D01*
X3170000Y4036076D01*
Y4063924D01*
X3159343Y4089652D01*
X3139652Y4109343D01*
X3113924Y4120000D01*
D02*
G37*
G36*
X7430693Y4054981D02*
X7406824D01*
X7384771Y4045847D01*
X7367893Y4028968D01*
X7358758Y4006916D01*
Y3983046D01*
X7367893Y3960994D01*
X7384771Y3944116D01*
X7406824Y3934981D01*
X7430693D01*
X7452746Y3944116D01*
X7469624Y3960994D01*
X7478758Y3983046D01*
Y4006916D01*
X7469624Y4028968D01*
X7452746Y4045847D01*
X7430693Y4054981D01*
D02*
G37*
G36*
X6733317Y4038618D02*
X6709447D01*
X6687395Y4029483D01*
X6670517Y4012605D01*
X6661382Y3990552D01*
Y3966683D01*
X6670517Y3944630D01*
X6687395Y3927752D01*
X6709447Y3918618D01*
X6733317D01*
X6755369Y3927752D01*
X6772248Y3944630D01*
X6781382Y3966683D01*
Y3990552D01*
X6772248Y4012605D01*
X6755369Y4029483D01*
X6733317Y4038618D01*
D02*
G37*
G36*
X7201935Y4140000D02*
X7178065D01*
X7156013Y4130866D01*
X7139135Y4113987D01*
X7130000Y4091935D01*
Y4090000D01*
X7118065D01*
X7096013Y4080866D01*
X7079134Y4063987D01*
X7070000Y4041935D01*
Y4029168D01*
X7056232D01*
X7034179Y4020033D01*
X7017301Y4003155D01*
X7008166Y3981103D01*
Y3957233D01*
X7017301Y3935181D01*
X7034179Y3918302D01*
X7056232Y3909168D01*
X7080101D01*
X7102153Y3918302D01*
X7119032Y3935181D01*
X7128166Y3957233D01*
Y3970000D01*
X7141935D01*
X7163987Y3979135D01*
X7180865Y3996013D01*
X7190000Y4018065D01*
Y4020000D01*
X7201935D01*
X7223987Y4029134D01*
X7240866Y4046013D01*
X7250000Y4068065D01*
Y4091935D01*
X7240866Y4113987D01*
X7223987Y4130866D01*
X7201935Y4140000D01*
D02*
G37*
G36*
X5684435Y3995000D02*
X5660565D01*
X5638513Y3985866D01*
X5621634Y3968987D01*
X5612500Y3946935D01*
Y3923065D01*
X5621634Y3901013D01*
X5638513Y3884134D01*
X5660565Y3875000D01*
X5684435D01*
X5706487Y3884134D01*
X5723365Y3901013D01*
X5732500Y3923065D01*
Y3946935D01*
X5723365Y3968987D01*
X5706487Y3985866D01*
X5684435Y3995000D01*
D02*
G37*
G36*
X4171937Y3990000D02*
X4148067D01*
X4126015Y3980865D01*
X4109136Y3963987D01*
X4100002Y3941934D01*
Y3918065D01*
X4109136Y3896013D01*
X4126015Y3879134D01*
X4148067Y3870000D01*
X4171937D01*
X4193989Y3879134D01*
X4210867Y3896013D01*
X4220002Y3918065D01*
Y3941934D01*
X4210867Y3963987D01*
X4193989Y3980865D01*
X4171937Y3990000D01*
D02*
G37*
G36*
X6588415Y3927338D02*
X6564545D01*
X6542493Y3918203D01*
X6525615Y3901325D01*
X6516480Y3879273D01*
Y3855403D01*
X6525615Y3833351D01*
X6542493Y3816472D01*
X6564545Y3807338D01*
X6588415D01*
X6610467Y3816472D01*
X6627346Y3833351D01*
X6636480Y3855403D01*
Y3879273D01*
X6627346Y3901325D01*
X6610467Y3918203D01*
X6588415Y3927338D01*
D02*
G37*
G36*
X2991935Y3920000D02*
X2968065D01*
X2946013Y3910865D01*
X2929134Y3893987D01*
X2920000Y3871935D01*
Y3848065D01*
X2929134Y3826013D01*
X2946013Y3809134D01*
X2968065Y3800000D01*
X2991935D01*
X3013987Y3809134D01*
X3030865Y3826013D01*
X3040000Y3848065D01*
Y3871935D01*
X3030865Y3893987D01*
X3013987Y3910865D01*
X2991935Y3920000D01*
D02*
G37*
G36*
X5307972Y3970717D02*
X5284103D01*
X5262050Y3961583D01*
X5245172Y3944705D01*
X5236038Y3922652D01*
Y3907961D01*
X5218346Y3900633D01*
X5201468Y3883754D01*
X5192333Y3861702D01*
Y3837833D01*
X5201468Y3815780D01*
X5218346Y3798902D01*
X5240398Y3789767D01*
X5264268D01*
X5286320Y3798902D01*
X5303199Y3815780D01*
X5312333Y3837833D01*
Y3852524D01*
X5330025Y3859852D01*
X5346903Y3876730D01*
X5356038Y3898783D01*
Y3922652D01*
X5346903Y3944705D01*
X5330025Y3961583D01*
X5307972Y3970717D01*
D02*
G37*
G36*
X5881935Y3890000D02*
X5858065D01*
X5836013Y3880865D01*
X5819134Y3863987D01*
X5810000Y3841935D01*
Y3818065D01*
X5819134Y3796013D01*
X5836013Y3779134D01*
X5858065Y3770000D01*
X5881935D01*
X5903987Y3779134D01*
X5920865Y3796013D01*
X5930000Y3818065D01*
Y3841935D01*
X5920865Y3863987D01*
X5903987Y3880865D01*
X5881935Y3890000D01*
D02*
G37*
G36*
X8459500Y3979822D02*
X8344500D01*
X8318163Y3974583D01*
X8295836Y3959664D01*
X8280917Y3937337D01*
X8275678Y3911000D01*
Y3836000D01*
X8280917Y3809663D01*
X8295836Y3787336D01*
X8318163Y3772417D01*
X8344500Y3767178D01*
X8459500D01*
X8485837Y3772417D01*
X8508164Y3787336D01*
X8523083Y3809663D01*
X8528322Y3836000D01*
Y3911000D01*
X8523083Y3937337D01*
X8508164Y3959664D01*
X8485837Y3974583D01*
X8459500Y3979822D01*
D02*
G37*
G36*
X8165500D02*
X8050500D01*
X8024163Y3974583D01*
X8001836Y3959664D01*
X7986917Y3937337D01*
X7981678Y3911000D01*
Y3836000D01*
X7986917Y3809663D01*
X8001836Y3787336D01*
X8024163Y3772417D01*
X8050500Y3767178D01*
X8165500D01*
X8191837Y3772417D01*
X8214164Y3787336D01*
X8229083Y3809663D01*
X8234322Y3836000D01*
Y3911000D01*
X8229083Y3937337D01*
X8214164Y3959664D01*
X8191837Y3974583D01*
X8165500Y3979822D01*
D02*
G37*
G36*
X7231935Y3780000D02*
X7208065D01*
X7186013Y3770865D01*
X7169135Y3753987D01*
X7165206Y3744503D01*
X7151935Y3750000D01*
X7128065D01*
X7106013Y3740866D01*
X7089134Y3723987D01*
X7080000Y3701935D01*
Y3678065D01*
X7089134Y3656013D01*
X7106013Y3639134D01*
X7128065Y3630000D01*
X7134611D01*
X7140000Y3621934D01*
Y3598065D01*
X7149135Y3576013D01*
X7166013Y3559134D01*
X7188065Y3550000D01*
X7211935D01*
X7233987Y3559134D01*
X7250866Y3576013D01*
X7252438Y3579809D01*
X7270060Y3583156D01*
X7280095Y3573121D01*
X7302148Y3563987D01*
X7326017D01*
X7348070Y3573121D01*
X7364948Y3589999D01*
X7374082Y3612052D01*
Y3635921D01*
X7364948Y3657974D01*
X7348070Y3674852D01*
X7326017Y3683987D01*
X7302148D01*
X7280095Y3674852D01*
X7270866Y3686013D01*
X7280000Y3708065D01*
Y3731935D01*
X7270866Y3753987D01*
X7253987Y3770865D01*
X7231935Y3780000D01*
D02*
G37*
G36*
X5091935Y3860000D02*
X5068065D01*
X5046013Y3850866D01*
X5029134Y3833987D01*
X5020000Y3811935D01*
Y3788065D01*
X5029134Y3766013D01*
X5046013Y3749134D01*
X5068065Y3740000D01*
X5091935D01*
X5113987Y3749134D01*
X5130866Y3766013D01*
X5140000Y3788065D01*
Y3811935D01*
X5130866Y3833987D01*
X5113987Y3850866D01*
X5091935Y3860000D01*
D02*
G37*
G36*
X6271935Y3830000D02*
X6248065D01*
X6226013Y3820866D01*
X6209134Y3803987D01*
X6200000Y3781935D01*
Y3758065D01*
X6209134Y3736013D01*
X6226013Y3719135D01*
X6248065Y3710000D01*
X6271935D01*
X6293987Y3719135D01*
X6310865Y3736013D01*
X6320000Y3758065D01*
Y3781935D01*
X6310865Y3803987D01*
X6293987Y3820866D01*
X6271935Y3830000D01*
D02*
G37*
G36*
X7471977Y3890000D02*
X7448108D01*
X7426056Y3880865D01*
X7409177Y3863987D01*
X7400043Y3841935D01*
Y3818065D01*
X7409177Y3796013D01*
X7415169Y3790021D01*
X7409135Y3783987D01*
X7400000Y3761935D01*
Y3738065D01*
X7409135Y3716013D01*
X7426013Y3699135D01*
X7448065Y3690000D01*
X7471935D01*
X7493987Y3699135D01*
X7510866Y3716013D01*
X7520000Y3738065D01*
Y3761935D01*
X7510866Y3783987D01*
X7504874Y3789979D01*
X7510908Y3796013D01*
X7520043Y3818065D01*
Y3841935D01*
X7510908Y3863987D01*
X7494030Y3880865D01*
X7471977Y3890000D01*
D02*
G37*
G36*
X4471936Y4120002D02*
X4448067D01*
X4426014Y4110868D01*
X4409136Y4093989D01*
X4400001Y4071937D01*
Y4048067D01*
X4404759Y4036581D01*
X4406014Y4020865D01*
X4389136Y4003987D01*
X4380001Y3981934D01*
Y3958065D01*
X4389136Y3936012D01*
X4406014Y3919134D01*
X4425074Y3911239D01*
X4427058Y3900337D01*
X4426566Y3895621D01*
X4416672Y3891523D01*
X4399794Y3874645D01*
X4390659Y3852592D01*
Y3828723D01*
X4395552Y3816911D01*
X4395977Y3802050D01*
X4390198Y3795052D01*
X4379133Y3783987D01*
X4369999Y3761935D01*
Y3738065D01*
X4379133Y3716013D01*
X4396012Y3699135D01*
X4418064Y3690000D01*
X4441933D01*
X4463986Y3699135D01*
X4480864Y3716013D01*
X4489999Y3738065D01*
Y3761935D01*
X4485106Y3773747D01*
X4484680Y3788608D01*
X4490460Y3795606D01*
X4501525Y3806671D01*
X4510659Y3828723D01*
Y3852592D01*
X4501525Y3874645D01*
X4484646Y3891523D01*
X4465586Y3899418D01*
X4463602Y3910320D01*
X4464095Y3915036D01*
X4473989Y3919134D01*
X4490867Y3936012D01*
X4500001Y3958065D01*
Y3981934D01*
X4495243Y3993421D01*
X4493989Y4009137D01*
X4510867Y4026015D01*
X4520001Y4048067D01*
Y4071937D01*
X4510867Y4093989D01*
X4493988Y4110868D01*
X4471936Y4120002D01*
D02*
G37*
G36*
X6738228Y3800410D02*
X6714359D01*
X6692306Y3791276D01*
X6675428Y3774398D01*
X6666294Y3752345D01*
Y3728476D01*
X6675428Y3706423D01*
X6686838Y3695013D01*
X6678605Y3675139D01*
Y3651269D01*
X6687740Y3629217D01*
X6704618Y3612338D01*
X6726671Y3603204D01*
X6750540D01*
X6772593Y3612338D01*
X6789471Y3629217D01*
X6798605Y3651269D01*
Y3671235D01*
X6804091Y3676233D01*
X6807720Y3678471D01*
X6812463Y3680206D01*
X6820033Y3677070D01*
X6830000Y3661935D01*
Y3638065D01*
X6839134Y3616013D01*
X6856013Y3599135D01*
X6878065Y3590000D01*
X6901935D01*
X6923987Y3599135D01*
X6940865Y3616013D01*
X6950000Y3638065D01*
Y3661935D01*
X6940865Y3683987D01*
X6923987Y3700866D01*
X6913659Y3705144D01*
X6903692Y3720280D01*
Y3744149D01*
X6894558Y3766201D01*
X6877679Y3783080D01*
X6855627Y3792214D01*
X6831757D01*
X6809705Y3783080D01*
X6795629Y3769004D01*
X6783390Y3769368D01*
X6778572Y3770985D01*
X6777159Y3774398D01*
X6760281Y3791276D01*
X6738228Y3800410D01*
D02*
G37*
G36*
X3581935Y3670000D02*
X3558065D01*
X3536013Y3660865D01*
X3519134Y3643987D01*
X3510000Y3621935D01*
Y3598065D01*
X3519134Y3576013D01*
X3536013Y3559134D01*
X3558065Y3550000D01*
X3581935D01*
X3603987Y3559134D01*
X3620866Y3576013D01*
X3630000Y3598065D01*
Y3621935D01*
X3620866Y3643987D01*
X3603987Y3660865D01*
X3581935Y3670000D01*
D02*
G37*
G36*
X5681935Y3650000D02*
X5658065D01*
X5636013Y3640865D01*
X5619135Y3623987D01*
X5610000Y3601935D01*
Y3578065D01*
X5619135Y3556013D01*
X5636013Y3539134D01*
X5658065Y3530000D01*
X5681935D01*
X5703987Y3539134D01*
X5720866Y3556013D01*
X5730000Y3578065D01*
Y3601935D01*
X5720866Y3623987D01*
X5703987Y3640865D01*
X5681935Y3650000D01*
D02*
G37*
G36*
X4737840Y3792344D02*
X4713971D01*
X4691918Y3783210D01*
X4675040Y3766331D01*
X4665906Y3744279D01*
Y3720409D01*
X4675040Y3698357D01*
X4679272Y3694125D01*
X4669134Y3683987D01*
X4660000Y3661935D01*
Y3652357D01*
X4650188Y3640186D01*
X4626319D01*
X4604266Y3631051D01*
X4587388Y3614173D01*
X4578253Y3592121D01*
Y3568251D01*
X4587388Y3546199D01*
X4604266Y3529320D01*
X4626319Y3520186D01*
X4650188D01*
X4672241Y3529320D01*
X4689119Y3546199D01*
X4698253Y3568251D01*
Y3577829D01*
X4708066Y3590000D01*
X4731935D01*
X4753987Y3599135D01*
X4770865Y3616013D01*
X4777208Y3631326D01*
X4800629D01*
X4822682Y3640461D01*
X4839560Y3657339D01*
X4848695Y3679391D01*
Y3703261D01*
X4839560Y3725313D01*
X4822682Y3742192D01*
X4800629Y3751326D01*
X4782986D01*
X4776771Y3766331D01*
X4759893Y3783210D01*
X4737840Y3792344D01*
D02*
G37*
G36*
X5301935Y3640000D02*
X5278065D01*
X5256013Y3630865D01*
X5239135Y3613987D01*
X5230000Y3591935D01*
Y3568065D01*
X5239135Y3546013D01*
X5256013Y3529134D01*
X5278065Y3520000D01*
X5301935D01*
X5323987Y3529134D01*
X5340866Y3546013D01*
X5350000Y3568065D01*
Y3591935D01*
X5340866Y3613987D01*
X5323987Y3630865D01*
X5301935Y3640000D01*
D02*
G37*
G36*
X2751935Y3750000D02*
X2728065D01*
X2706013Y3740866D01*
X2689135Y3723987D01*
X2680000Y3701935D01*
Y3678065D01*
X2689135Y3656013D01*
X2706013Y3639134D01*
X2709215Y3637808D01*
X2716125Y3618710D01*
X2710000Y3603924D01*
Y3576076D01*
X2720657Y3550348D01*
X2740348Y3530657D01*
X2766076Y3520000D01*
X2793924D01*
X2819652Y3530657D01*
X2839343Y3550348D01*
X2850000Y3576076D01*
Y3603924D01*
X2839343Y3629652D01*
X2819652Y3649343D01*
X2793924Y3660000D01*
X2793055Y3661300D01*
X2800000Y3678065D01*
Y3701935D01*
X2790866Y3723987D01*
X2773987Y3740866D01*
X2751935Y3750000D01*
D02*
G37*
G36*
X8459500Y3725822D02*
X8344500D01*
X8318163Y3720583D01*
X8295836Y3705664D01*
X8280917Y3683337D01*
X8275678Y3657000D01*
Y3582000D01*
X8280917Y3555663D01*
X8295836Y3533336D01*
X8318163Y3518417D01*
X8344500Y3513178D01*
X8459500D01*
X8485837Y3518417D01*
X8508164Y3533336D01*
X8523083Y3555663D01*
X8528322Y3582000D01*
Y3657000D01*
X8523083Y3683337D01*
X8508164Y3705664D01*
X8485837Y3720583D01*
X8459500Y3725822D01*
D02*
G37*
G36*
X8165500D02*
X8050500D01*
X8024163Y3720583D01*
X8001836Y3705664D01*
X7986917Y3683337D01*
X7981678Y3657000D01*
Y3582000D01*
X7986917Y3555663D01*
X8001836Y3533336D01*
X8024163Y3518417D01*
X8050500Y3513178D01*
X8165500D01*
X8191837Y3518417D01*
X8214164Y3533336D01*
X8229083Y3555663D01*
X8234322Y3582000D01*
Y3657000D01*
X8229083Y3683337D01*
X8214164Y3705664D01*
X8191837Y3720583D01*
X8165500Y3725822D01*
D02*
G37*
G36*
X6596423Y3624515D02*
X6572554D01*
X6550501Y3615380D01*
X6533623Y3598502D01*
X6524488Y3576450D01*
Y3552580D01*
X6533623Y3530528D01*
X6550501Y3513649D01*
X6572554Y3504515D01*
X6596423D01*
X6618475Y3513649D01*
X6635354Y3530528D01*
X6644488Y3552580D01*
Y3576450D01*
X6635354Y3598502D01*
X6618475Y3615380D01*
X6596423Y3624515D01*
D02*
G37*
G36*
X4821935Y3550000D02*
X4798065D01*
X4776013Y3540866D01*
X4759134Y3523987D01*
X4750000Y3501935D01*
Y3478065D01*
X4759134Y3456013D01*
X4776013Y3439135D01*
X4798065Y3430000D01*
X4821935D01*
X4843987Y3439135D01*
X4860866Y3456013D01*
X4870000Y3478065D01*
Y3501935D01*
X4860866Y3523987D01*
X4843987Y3540866D01*
X4821935Y3550000D01*
D02*
G37*
G36*
X6171935Y3540000D02*
X6148065D01*
X6126013Y3530865D01*
X6109135Y3513987D01*
X6100000Y3491935D01*
Y3468065D01*
X6109135Y3446013D01*
X6126013Y3429134D01*
X6148065Y3420000D01*
X6171935D01*
X6193987Y3429134D01*
X6210866Y3446013D01*
X6220000Y3468065D01*
Y3491935D01*
X6210866Y3513987D01*
X6193987Y3530865D01*
X6171935Y3540000D01*
D02*
G37*
G36*
X3213924Y3560000D02*
X3186076D01*
X3160348Y3549343D01*
X3140657Y3529652D01*
X3130000Y3503924D01*
Y3476076D01*
X3140657Y3450348D01*
X3160348Y3430657D01*
X3186076Y3420000D01*
X3213924D01*
X3239652Y3430657D01*
X3259343Y3450348D01*
X3270000Y3476076D01*
Y3503924D01*
X3259343Y3529652D01*
X3239652Y3549343D01*
X3213924Y3560000D01*
D02*
G37*
G36*
X5921935Y3520000D02*
X5898065D01*
X5876013Y3510865D01*
X5859134Y3493987D01*
X5850000Y3471935D01*
Y3448065D01*
X5859134Y3426013D01*
X5876013Y3409134D01*
X5898065Y3400000D01*
X5921935D01*
X5943987Y3409134D01*
X5960865Y3426013D01*
X5970000Y3448065D01*
Y3471935D01*
X5960865Y3493987D01*
X5943987Y3510865D01*
X5921935Y3520000D01*
D02*
G37*
G36*
X4411935Y3470000D02*
X4388065D01*
X4366013Y3460866D01*
X4349135Y3443987D01*
X4340000Y3421935D01*
Y3398065D01*
X4349135Y3376013D01*
X4366013Y3359135D01*
X4388065Y3350000D01*
X4411935D01*
X4433987Y3359135D01*
X4450866Y3376013D01*
X4460000Y3398065D01*
Y3421935D01*
X4450866Y3443987D01*
X4433987Y3460866D01*
X4411935Y3470000D01*
D02*
G37*
G36*
X4189752Y3572327D02*
X4165883D01*
X4143830Y3563193D01*
X4126952Y3546314D01*
X4117818Y3524262D01*
Y3500393D01*
X4126952Y3478340D01*
X4143830Y3461462D01*
X4165883Y3452327D01*
X4183484D01*
X4189716Y3437283D01*
X4201073Y3425926D01*
X4199134Y3423987D01*
X4190000Y3401935D01*
Y3378065D01*
X4199134Y3356013D01*
X4216013Y3339135D01*
X4238065Y3330000D01*
X4261935D01*
X4283987Y3339135D01*
X4300865Y3356013D01*
X4310000Y3378065D01*
Y3401935D01*
X4300865Y3423987D01*
X4289508Y3435344D01*
X4291447Y3437283D01*
X4300581Y3459336D01*
Y3483205D01*
X4291447Y3505258D01*
X4274569Y3522136D01*
X4252516Y3531270D01*
X4234914D01*
X4228683Y3546314D01*
X4211805Y3563193D01*
X4189752Y3572327D01*
D02*
G37*
G36*
X8459500Y3471822D02*
X8344500D01*
X8318163Y3466583D01*
X8295836Y3451664D01*
X8280917Y3429337D01*
X8275678Y3403000D01*
Y3328000D01*
X8280917Y3301663D01*
X8295836Y3279336D01*
X8318163Y3264417D01*
X8344500Y3259178D01*
X8459500D01*
X8485837Y3264417D01*
X8508164Y3279336D01*
X8523083Y3301663D01*
X8528322Y3328000D01*
Y3403000D01*
X8523083Y3429337D01*
X8508164Y3451664D01*
X8485837Y3466583D01*
X8459500Y3471822D01*
D02*
G37*
G36*
X8165500D02*
X8050500D01*
X8024163Y3466583D01*
X8001836Y3451664D01*
X7986917Y3429337D01*
X7981678Y3403000D01*
Y3328000D01*
X7986917Y3301663D01*
X8001836Y3279336D01*
X8024163Y3264417D01*
X8050500Y3259178D01*
X8165500D01*
X8191837Y3264417D01*
X8214164Y3279336D01*
X8229083Y3301663D01*
X8234322Y3328000D01*
Y3403000D01*
X8229083Y3429337D01*
X8214164Y3451664D01*
X8191837Y3466583D01*
X8165500Y3471822D01*
D02*
G37*
G36*
X6291935Y3470000D02*
X6268065D01*
X6246013Y3460866D01*
X6229134Y3443987D01*
X6220000Y3421935D01*
Y3398065D01*
X6229134Y3376013D01*
X6230147Y3375000D01*
X6223934Y3360000D01*
X6218065D01*
X6196013Y3350866D01*
X6179134Y3333987D01*
X6170000Y3311935D01*
Y3288065D01*
X6179134Y3266013D01*
X6196013Y3249134D01*
X6218065Y3240000D01*
X6241935D01*
X6263987Y3249134D01*
X6280866Y3266013D01*
X6290000Y3288065D01*
Y3311935D01*
X6280866Y3333987D01*
X6279853Y3335000D01*
X6286066Y3350000D01*
X6291935D01*
X6313987Y3359135D01*
X6330865Y3376013D01*
X6340000Y3398065D01*
Y3421935D01*
X6330865Y3443987D01*
X6313987Y3460866D01*
X6291935Y3470000D01*
D02*
G37*
G36*
X6831935Y3400000D02*
X6808065D01*
X6786013Y3390865D01*
X6769135Y3373987D01*
X6760000Y3351935D01*
Y3328065D01*
X6769135Y3306013D01*
X6786013Y3289134D01*
X6808065Y3280000D01*
X6830000D01*
Y3268065D01*
X6839134Y3246013D01*
X6827878Y3236974D01*
X6823987Y3240866D01*
X6801935Y3250000D01*
X6778065D01*
X6756013Y3240866D01*
X6739134Y3223987D01*
X6730000Y3201935D01*
Y3178065D01*
X6739134Y3156013D01*
X6756013Y3139134D01*
X6778065Y3130000D01*
X6801935D01*
X6823987Y3139134D01*
X6840865Y3156013D01*
X6850000Y3178065D01*
Y3201935D01*
X6840865Y3223987D01*
X6852122Y3233026D01*
X6856013Y3229135D01*
X6878065Y3220000D01*
X6901935D01*
X6923987Y3229135D01*
X6940865Y3246013D01*
X6950000Y3268065D01*
Y3291935D01*
X6940865Y3313987D01*
X6923987Y3330866D01*
X6901935Y3340000D01*
X6880000D01*
Y3351935D01*
X6870866Y3373987D01*
X6853987Y3390865D01*
X6831935Y3400000D01*
D02*
G37*
G36*
X4801935Y3350000D02*
X4778065D01*
X4756013Y3340866D01*
X4739135Y3323987D01*
X4730000Y3301935D01*
Y3278065D01*
X4739135Y3256013D01*
X4756013Y3239134D01*
X4778065Y3230000D01*
X4801935D01*
X4823987Y3239134D01*
X4840866Y3256013D01*
X4850000Y3278065D01*
Y3301935D01*
X4840866Y3323987D01*
X4823987Y3340866D01*
X4801935Y3350000D01*
D02*
G37*
G36*
X7571935Y3450000D02*
X7548065D01*
X7526013Y3440866D01*
X7509135Y3423987D01*
X7500000Y3401935D01*
Y3388738D01*
X7493799D01*
X7471747Y3379603D01*
X7454869Y3362725D01*
X7445734Y3340673D01*
Y3340000D01*
X7428065D01*
X7406013Y3330866D01*
X7389135Y3313987D01*
X7380000Y3291935D01*
Y3268065D01*
X7389135Y3246013D01*
X7406013Y3229135D01*
X7428065Y3220000D01*
X7451935D01*
X7473987Y3229135D01*
X7490866Y3246013D01*
X7500000Y3268065D01*
Y3268738D01*
X7517669D01*
X7539721Y3277872D01*
X7556600Y3294751D01*
X7565734Y3316803D01*
Y3330000D01*
X7571935D01*
X7593987Y3339135D01*
X7610866Y3356013D01*
X7620000Y3378065D01*
Y3401935D01*
X7610866Y3423987D01*
X7593987Y3440866D01*
X7571935Y3450000D01*
D02*
G37*
G36*
X6087350Y3337763D02*
X6063481D01*
X6041428Y3328629D01*
X6024550Y3311751D01*
X6015415Y3289698D01*
Y3265829D01*
X6024550Y3243776D01*
X6041428Y3226898D01*
X6063481Y3217763D01*
X6087350D01*
X6109403Y3226898D01*
X6126281Y3243776D01*
X6135415Y3265829D01*
Y3289698D01*
X6126281Y3311751D01*
X6109403Y3328629D01*
X6087350Y3337763D01*
D02*
G37*
G36*
X6605064Y3335707D02*
X6581195D01*
X6559142Y3326572D01*
X6542264Y3309694D01*
X6533129Y3287641D01*
Y3263772D01*
X6542264Y3241719D01*
X6559142Y3224841D01*
X6581195Y3215707D01*
X6605064D01*
X6627117Y3224841D01*
X6643995Y3241719D01*
X6653129Y3263772D01*
Y3287641D01*
X6643995Y3309694D01*
X6627117Y3326572D01*
X6605064Y3335707D01*
D02*
G37*
G36*
X3591935Y3420000D02*
X3568065D01*
X3546013Y3410865D01*
X3529134Y3393987D01*
X3520000Y3371935D01*
Y3348065D01*
X3522585Y3341824D01*
X3511935Y3330000D01*
X3488065D01*
X3466013Y3320866D01*
X3449135Y3303987D01*
X3440000Y3281935D01*
Y3258065D01*
X3449135Y3236013D01*
X3466013Y3219135D01*
X3488065Y3210000D01*
X3511935D01*
X3533987Y3219135D01*
X3550866Y3236013D01*
X3560000Y3258065D01*
Y3281935D01*
X3557415Y3288176D01*
X3568066Y3300000D01*
X3591935D01*
X3613987Y3309134D01*
X3630865Y3326013D01*
X3640000Y3348065D01*
Y3371935D01*
X3630865Y3393987D01*
X3613987Y3410865D01*
X3591935Y3420000D01*
D02*
G37*
G36*
X8459500Y3222920D02*
X8412000D01*
Y3121500D01*
X8533420D01*
Y3149000D01*
X8527793Y3177288D01*
X8511769Y3201269D01*
X8487788Y3217293D01*
X8459500Y3222920D01*
D02*
G37*
G36*
X8392000D02*
X8344500D01*
X8316212Y3217293D01*
X8292231Y3201269D01*
X8276207Y3177288D01*
X8270580Y3149000D01*
Y3121500D01*
X8392000D01*
Y3222920D01*
D02*
G37*
G36*
X2961935Y3210000D02*
X2938065D01*
X2916013Y3200866D01*
X2899134Y3183987D01*
X2890000Y3161935D01*
Y3152895D01*
X2881935Y3140000D01*
X2858065D01*
X2836013Y3130865D01*
X2819135Y3113987D01*
X2810000Y3091935D01*
Y3068065D01*
X2819135Y3046013D01*
X2836013Y3029134D01*
X2858065Y3020000D01*
X2881935D01*
X2903987Y3029134D01*
X2920866Y3046013D01*
X2930000Y3068065D01*
Y3077105D01*
X2938065Y3090000D01*
X2961935D01*
X2983987Y3099135D01*
X3000865Y3116013D01*
X3010000Y3138065D01*
Y3161935D01*
X3000865Y3183987D01*
X2983987Y3200866D01*
X2961935Y3210000D01*
D02*
G37*
G36*
X6702684Y3132093D02*
X6678815D01*
X6656762Y3122958D01*
X6639884Y3106080D01*
X6630750Y3084028D01*
Y3060158D01*
X6639884Y3038106D01*
X6656762Y3021227D01*
X6678815Y3012093D01*
X6702684D01*
X6724737Y3021227D01*
X6741615Y3038106D01*
X6750750Y3060158D01*
Y3084028D01*
X6741615Y3106080D01*
X6724737Y3122958D01*
X6702684Y3132093D01*
D02*
G37*
G36*
X8165500Y3217822D02*
X8050500D01*
X8024163Y3212583D01*
X8001836Y3197664D01*
X7986917Y3175337D01*
X7981678Y3149000D01*
Y3074000D01*
X7986917Y3047663D01*
X8001836Y3025336D01*
X8024163Y3010417D01*
X8050500Y3005178D01*
X8165500D01*
X8191837Y3010417D01*
X8214164Y3025336D01*
X8229083Y3047663D01*
X8234322Y3074000D01*
Y3149000D01*
X8229083Y3175337D01*
X8214164Y3197664D01*
X8191837Y3212583D01*
X8165500Y3217822D01*
D02*
G37*
G36*
X4697049Y3124220D02*
X4673179D01*
X4651127Y3115085D01*
X4634249Y3098207D01*
X4625114Y3076154D01*
Y3052285D01*
X4634249Y3030232D01*
X4651127Y3013354D01*
X4673179Y3004220D01*
X4697049D01*
X4719101Y3013354D01*
X4735980Y3030232D01*
X4745114Y3052285D01*
Y3076154D01*
X4735980Y3098207D01*
X4719101Y3115085D01*
X4697049Y3124220D01*
D02*
G37*
G36*
X8533420Y3101500D02*
X8412000D01*
Y3000080D01*
X8459500D01*
X8487788Y3005707D01*
X8511769Y3021731D01*
X8527793Y3045712D01*
X8533420Y3074000D01*
Y3101500D01*
D02*
G37*
G36*
X8392000D02*
X8270580D01*
Y3074000D01*
X8276207Y3045712D01*
X8292231Y3021731D01*
X8316212Y3005707D01*
X8344500Y3000080D01*
X8392000D01*
Y3101500D01*
D02*
G37*
G36*
X7261935Y3120000D02*
X7238065D01*
X7216013Y3110866D01*
X7199134Y3093987D01*
X7190000Y3071935D01*
Y3048065D01*
X7199134Y3026013D01*
X7216013Y3009134D01*
X7238065Y3000000D01*
X7261935D01*
X7283987Y3009134D01*
X7300866Y3026013D01*
X7310000Y3048065D01*
Y3071935D01*
X7300866Y3093987D01*
X7283987Y3110866D01*
X7261935Y3120000D01*
D02*
G37*
G36*
X4331936Y3190001D02*
X4308067D01*
X4286014Y3180867D01*
X4269136Y3163989D01*
X4260002Y3141936D01*
Y3118067D01*
X4264759Y3106581D01*
X4266014Y3090864D01*
X4249136Y3073986D01*
X4240002Y3051934D01*
Y3028064D01*
X4249136Y3006012D01*
X4266014Y2989133D01*
X4288067Y2979999D01*
X4311936D01*
X4333989Y2989133D01*
X4350867Y3006012D01*
X4360001Y3028064D01*
Y3051934D01*
X4355244Y3063420D01*
X4353989Y3079136D01*
X4370867Y3096014D01*
X4380001Y3118067D01*
Y3141936D01*
X4370867Y3163989D01*
X4353989Y3180867D01*
X4331936Y3190001D01*
D02*
G37*
G36*
X3133290Y3079999D02*
X3109421D01*
X3087368Y3070865D01*
X3070490Y3053986D01*
X3061355Y3031934D01*
Y3008064D01*
X3070490Y2986012D01*
X3087368Y2969134D01*
X3109421Y2959999D01*
X3133290D01*
X3155342Y2969134D01*
X3172221Y2986012D01*
X3181355Y3008064D01*
Y3031934D01*
X3172221Y3053986D01*
X3155342Y3070865D01*
X3133290Y3079999D01*
D02*
G37*
G36*
X5041935Y3180000D02*
X5018065D01*
X4996013Y3170866D01*
X4979135Y3153987D01*
X4970000Y3131935D01*
Y3108065D01*
X4979135Y3086013D01*
X4996013Y3069135D01*
X5013717Y3061801D01*
Y3039216D01*
X5017005Y3031277D01*
X5016013Y3030865D01*
X4999135Y3013987D01*
X4990000Y2991935D01*
Y2968065D01*
X4999135Y2946013D01*
X5016013Y2929134D01*
X5038065Y2920000D01*
X5061935D01*
X5083987Y2929134D01*
X5100866Y2946013D01*
X5110000Y2968065D01*
Y2991935D01*
X5106711Y2999874D01*
X5107704Y3000285D01*
X5124582Y3017164D01*
X5133717Y3039216D01*
Y3063086D01*
X5124582Y3085138D01*
X5107704Y3102016D01*
X5090000Y3109350D01*
Y3131935D01*
X5080866Y3153987D01*
X5063987Y3170866D01*
X5041935Y3180000D01*
D02*
G37*
G36*
X4104433Y3150001D02*
X4080564D01*
X4058512Y3140867D01*
X4041633Y3123989D01*
X4032499Y3101936D01*
Y3078067D01*
X4041633Y3056014D01*
X4058512Y3039136D01*
X4071789Y3033636D01*
Y3017400D01*
X4056013Y3010865D01*
X4039134Y2993987D01*
X4030000Y2971935D01*
Y2948065D01*
X4039134Y2926013D01*
X4056013Y2909134D01*
X4078065Y2900000D01*
X4101935D01*
X4123987Y2909134D01*
X4140865Y2926013D01*
X4150000Y2948065D01*
Y2971935D01*
X4140865Y2993987D01*
X4123987Y3010865D01*
X4110710Y3016365D01*
Y3032601D01*
X4126486Y3039136D01*
X4143364Y3056014D01*
X4152499Y3078067D01*
Y3101936D01*
X4143364Y3123989D01*
X4126486Y3140867D01*
X4104433Y3150001D01*
D02*
G37*
G36*
X3751932Y3019999D02*
X3728063D01*
X3706010Y3010865D01*
X3689132Y2993986D01*
X3679998Y2971934D01*
Y2948064D01*
X3689132Y2926012D01*
X3706010Y2909134D01*
X3728063Y2899999D01*
X3751932D01*
X3773985Y2909134D01*
X3790863Y2926012D01*
X3799997Y2948064D01*
Y2971934D01*
X3790863Y2993986D01*
X3773985Y3010865D01*
X3751932Y3019999D01*
D02*
G37*
G36*
X5128194Y2901998D02*
X5104325D01*
X5082272Y2892864D01*
X5077131Y2887722D01*
X5073987Y2890865D01*
X5051935Y2900000D01*
X5028065D01*
X5006013Y2890865D01*
X4989135Y2873987D01*
X4980000Y2851935D01*
Y2828065D01*
X4989135Y2806013D01*
X5006013Y2789134D01*
X5028065Y2780000D01*
X5051935D01*
X5073987Y2789134D01*
X5079129Y2794276D01*
X5082272Y2791133D01*
X5104325Y2781998D01*
X5128194D01*
X5150247Y2791133D01*
X5167125Y2808011D01*
X5176259Y2830064D01*
Y2853933D01*
X5167125Y2875986D01*
X5150247Y2892864D01*
X5128194Y2901998D01*
D02*
G37*
G36*
X2423924Y3010000D02*
X2396076D01*
X2370348Y2999343D01*
X2350657Y2979652D01*
X2340000Y2953924D01*
Y2926076D01*
X2350657Y2900348D01*
X2370348Y2880657D01*
X2396076Y2870000D01*
X2423924D01*
X2449652Y2880657D01*
X2469343Y2900348D01*
X2480000Y2926076D01*
Y2953924D01*
X2469343Y2979652D01*
X2449652Y2999343D01*
X2423924Y3010000D01*
D02*
G37*
G36*
X8199935Y2974999D02*
X8176065D01*
X8154013Y2965865D01*
X8137134Y2948986D01*
X8128000Y2926934D01*
Y2903065D01*
X8137134Y2881012D01*
X8154013Y2864134D01*
X8176065Y2854999D01*
X8199935D01*
X8221987Y2864134D01*
X8238865Y2881012D01*
X8248000Y2903065D01*
Y2926934D01*
X8238865Y2948986D01*
X8221987Y2965865D01*
X8199935Y2974999D01*
D02*
G37*
G36*
X8461935Y2960000D02*
X8438065D01*
X8416013Y2950866D01*
X8399135Y2933987D01*
X8390000Y2911935D01*
Y2888065D01*
X8399135Y2866013D01*
X8416013Y2849135D01*
X8438065Y2840000D01*
X8461935D01*
X8483987Y2849135D01*
X8500866Y2866013D01*
X8510000Y2888065D01*
Y2911935D01*
X8500866Y2933987D01*
X8483987Y2950866D01*
X8461935Y2960000D01*
D02*
G37*
G36*
X7390712Y2958539D02*
X7366843D01*
X7344790Y2949404D01*
X7327912Y2932526D01*
X7318777Y2910473D01*
Y2886604D01*
X7327912Y2864552D01*
X7344790Y2847673D01*
X7366843Y2838539D01*
X7390712D01*
X7412764Y2847673D01*
X7429643Y2864552D01*
X7438777Y2886604D01*
Y2910473D01*
X7429643Y2932526D01*
X7412764Y2949404D01*
X7390712Y2958539D01*
D02*
G37*
G36*
X4263681Y2957500D02*
X4239812D01*
X4217759Y2948365D01*
X4200881Y2931487D01*
X4191747Y2909435D01*
Y2885565D01*
X4200881Y2863513D01*
X4217759Y2846634D01*
X4239812Y2837500D01*
X4263681D01*
X4285734Y2846634D01*
X4302612Y2863513D01*
X4311747Y2885565D01*
Y2909435D01*
X4302612Y2931487D01*
X4285734Y2948365D01*
X4263681Y2957500D01*
D02*
G37*
G36*
X6031935Y2930000D02*
X6008065D01*
X5986013Y2920866D01*
X5969134Y2903987D01*
X5960000Y2881935D01*
Y2858065D01*
X5969134Y2836013D01*
X5986013Y2819135D01*
X6008065Y2810000D01*
X6031935D01*
X6053987Y2819135D01*
X6070865Y2836013D01*
X6080000Y2858065D01*
Y2881935D01*
X6070865Y2903987D01*
X6053987Y2920866D01*
X6031935Y2930000D01*
D02*
G37*
G36*
X7265668Y2890000D02*
X7241798D01*
X7219746Y2880865D01*
X7202867Y2863987D01*
X7193733Y2841935D01*
Y2818065D01*
X7202867Y2796013D01*
X7219746Y2779134D01*
X7241798Y2770000D01*
X7265668D01*
X7287720Y2779134D01*
X7304599Y2796013D01*
X7313733Y2818065D01*
Y2841935D01*
X7304599Y2863987D01*
X7287720Y2880865D01*
X7265668Y2890000D01*
D02*
G37*
G36*
X6211935Y2840000D02*
X6188065D01*
X6166013Y2830866D01*
X6149135Y2813987D01*
X6140000Y2791935D01*
Y2768065D01*
X6149135Y2746013D01*
X6166013Y2729134D01*
X6188065Y2720000D01*
X6211935D01*
X6233987Y2729134D01*
X6250866Y2746013D01*
X6260000Y2768065D01*
Y2791935D01*
X6250866Y2813987D01*
X6233987Y2830866D01*
X6211935Y2840000D01*
D02*
G37*
G36*
X4431935Y2820000D02*
X4408065D01*
X4386013Y2810866D01*
X4369135Y2793987D01*
X4360000Y2771935D01*
Y2748065D01*
X4369135Y2726013D01*
X4386013Y2709135D01*
X4408065Y2700000D01*
X4431935D01*
X4453987Y2709135D01*
X4470866Y2726013D01*
X4480000Y2748065D01*
Y2771935D01*
X4470866Y2793987D01*
X4453987Y2810866D01*
X4431935Y2820000D01*
D02*
G37*
G36*
X6781934Y2870000D02*
X6758065D01*
X6736012Y2860865D01*
X6719134Y2843987D01*
X6710000Y2821935D01*
Y2798065D01*
X6719134Y2776013D01*
X6736012Y2759134D01*
X6758065Y2750000D01*
X6770382D01*
Y2738365D01*
X6779516Y2716313D01*
X6796395Y2699435D01*
X6818447Y2690300D01*
X6842317D01*
X6864369Y2699435D01*
X6881247Y2716313D01*
X6890382Y2738365D01*
Y2749093D01*
X6911612Y2757887D01*
X6928491Y2774765D01*
X6937625Y2796818D01*
Y2820687D01*
X6928491Y2842740D01*
X6911612Y2859618D01*
X6889560Y2868752D01*
X6865690D01*
X6843638Y2859618D01*
X6834236Y2850216D01*
X6823070Y2845015D01*
X6814637Y2850216D01*
X6803987Y2860865D01*
X6781934Y2870000D01*
D02*
G37*
G36*
X4261935Y2800000D02*
X4238065D01*
X4216013Y2790866D01*
X4199134Y2773987D01*
X4190000Y2751935D01*
Y2728065D01*
X4199134Y2706013D01*
X4216013Y2689135D01*
X4238065Y2680000D01*
X4261935D01*
X4283987Y2689135D01*
X4300865Y2706013D01*
X4310000Y2728065D01*
Y2751935D01*
X4300865Y2773987D01*
X4283987Y2790866D01*
X4261935Y2800000D01*
D02*
G37*
G36*
X5841935Y2790000D02*
X5818065D01*
X5796013Y2780865D01*
X5779134Y2763987D01*
X5770000Y2741935D01*
Y2718065D01*
X5779134Y2696013D01*
X5796013Y2679134D01*
X5818065Y2670000D01*
X5841935D01*
X5863987Y2679134D01*
X5880866Y2696013D01*
X5890000Y2718065D01*
Y2741935D01*
X5880866Y2763987D01*
X5863987Y2780865D01*
X5841935Y2790000D01*
D02*
G37*
G36*
X7402344Y2782426D02*
X7378474D01*
X7356422Y2773292D01*
X7339543Y2756413D01*
X7330409Y2734361D01*
Y2710491D01*
X7339543Y2688439D01*
X7356422Y2671561D01*
X7378474Y2662426D01*
X7402344D01*
X7424396Y2671561D01*
X7441274Y2688439D01*
X7450409Y2710491D01*
Y2734361D01*
X7441274Y2756413D01*
X7424396Y2773292D01*
X7402344Y2782426D01*
D02*
G37*
G36*
X4671935Y2720000D02*
X4648065D01*
X4626013Y2710866D01*
X4609135Y2693987D01*
X4600000Y2671935D01*
Y2648065D01*
X4609135Y2626013D01*
X4626013Y2609134D01*
X4648065Y2600000D01*
X4671935D01*
X4693987Y2609134D01*
X4710866Y2626013D01*
X4720000Y2648065D01*
Y2671935D01*
X4710866Y2693987D01*
X4693987Y2710866D01*
X4671935Y2720000D01*
D02*
G37*
G36*
X8312975Y2717970D02*
X8289106D01*
X8267053Y2708836D01*
X8250175Y2691957D01*
X8241041Y2669905D01*
Y2646035D01*
X8250175Y2623983D01*
X8267053Y2607105D01*
X8289106Y2597970D01*
X8312975D01*
X8335028Y2607105D01*
X8351906Y2623983D01*
X8361040Y2646035D01*
Y2669905D01*
X8351906Y2691957D01*
X8335028Y2708836D01*
X8312975Y2717970D01*
D02*
G37*
G36*
X7671935Y3080000D02*
X7648065D01*
X7626013Y3070866D01*
X7609134Y3053987D01*
X7600000Y3031935D01*
Y3008065D01*
X7609134Y2986013D01*
X7616233Y2978915D01*
X7612713Y2961221D01*
X7609981Y2960089D01*
X7593103Y2943211D01*
X7583968Y2921158D01*
Y2897289D01*
X7593103Y2875236D01*
X7609981Y2858358D01*
X7615181Y2856204D01*
X7613536Y2852233D01*
Y2828363D01*
X7622670Y2806311D01*
X7625817Y2803163D01*
X7621740Y2786027D01*
X7607602Y2780171D01*
X7590724Y2763292D01*
X7581590Y2741240D01*
Y2717370D01*
X7588746Y2700093D01*
X7578027Y2689375D01*
X7568893Y2667322D01*
Y2643453D01*
X7578027Y2621400D01*
X7594906Y2604522D01*
X7605094Y2600302D01*
X7603279Y2595919D01*
Y2572049D01*
X7612413Y2549997D01*
X7629291Y2533118D01*
X7651344Y2523984D01*
X7675213D01*
X7697266Y2533118D01*
X7714144Y2549997D01*
X7723278Y2572049D01*
Y2595919D01*
X7714144Y2617971D01*
X7697266Y2634849D01*
X7687077Y2639070D01*
X7688893Y2643453D01*
Y2667322D01*
X7681736Y2684599D01*
X7692455Y2695318D01*
X7701589Y2717370D01*
Y2741240D01*
X7692455Y2763292D01*
X7689308Y2766440D01*
X7693385Y2783576D01*
X7707523Y2789432D01*
X7724401Y2806311D01*
X7733535Y2828363D01*
Y2852233D01*
X7724401Y2874285D01*
X7707523Y2891163D01*
X7702323Y2893317D01*
X7703968Y2897289D01*
Y2921158D01*
X7694834Y2943211D01*
X7687735Y2950309D01*
X7691255Y2968003D01*
X7693987Y2969135D01*
X7710865Y2986013D01*
X7720000Y3008065D01*
Y3031935D01*
X7710865Y3053987D01*
X7693987Y3070866D01*
X7671935Y3080000D01*
D02*
G37*
G36*
X7081935Y2720000D02*
X7058065D01*
X7036013Y2710866D01*
X7019135Y2693987D01*
X7010000Y2671935D01*
Y2648065D01*
X7019135Y2626013D01*
X7036013Y2609134D01*
X7049843Y2603406D01*
X7058928Y2586142D01*
X7058163Y2584295D01*
Y2560426D01*
X7067298Y2538373D01*
X7084176Y2521495D01*
X7106228Y2512361D01*
X7130098D01*
X7152150Y2521495D01*
X7169029Y2538373D01*
X7178163Y2560426D01*
Y2584295D01*
X7169029Y2606348D01*
X7152150Y2623226D01*
X7138320Y2628955D01*
X7129235Y2646219D01*
X7130000Y2648065D01*
Y2671935D01*
X7120866Y2693987D01*
X7103987Y2710866D01*
X7081935Y2720000D01*
D02*
G37*
G36*
X8203755Y2609928D02*
X8179886D01*
X8157833Y2600794D01*
X8140955Y2583915D01*
X8131820Y2561863D01*
Y2537993D01*
X8140955Y2515941D01*
X8157833Y2499063D01*
X8179886Y2489928D01*
X8203755D01*
X8225808Y2499063D01*
X8242686Y2515941D01*
X8251820Y2537993D01*
Y2561863D01*
X8242686Y2583915D01*
X8225808Y2600794D01*
X8203755Y2609928D01*
D02*
G37*
G36*
X8479564Y2603086D02*
X8455694D01*
X8433642Y2593951D01*
X8416763Y2577073D01*
X8407629Y2555021D01*
Y2531151D01*
X8416763Y2509099D01*
X8433642Y2492220D01*
X8455694Y2483086D01*
X8479564D01*
X8501616Y2492220D01*
X8518495Y2509099D01*
X8527629Y2531151D01*
Y2555021D01*
X8518495Y2577073D01*
X8501616Y2593951D01*
X8479564Y2603086D01*
D02*
G37*
G36*
X4241935Y2590000D02*
X4218065D01*
X4196013Y2580866D01*
X4179134Y2563987D01*
X4170000Y2541935D01*
Y2518065D01*
X4179134Y2496013D01*
X4196013Y2479134D01*
X4218065Y2470000D01*
X4241935D01*
X4263987Y2479134D01*
X4280865Y2496013D01*
X4290000Y2518065D01*
Y2541935D01*
X4280865Y2563987D01*
X4263987Y2580866D01*
X4241935Y2590000D01*
D02*
G37*
G36*
X3621935D02*
X3598065D01*
X3576013Y2580866D01*
X3559134Y2563987D01*
X3550000Y2541935D01*
Y2518065D01*
X3559134Y2496013D01*
X3576013Y2479134D01*
X3598065Y2470000D01*
X3621935D01*
X3643987Y2479134D01*
X3660865Y2496013D01*
X3670000Y2518065D01*
Y2541935D01*
X3660865Y2563987D01*
X3643987Y2580866D01*
X3621935Y2590000D01*
D02*
G37*
G36*
X4031935Y2510000D02*
X4008065D01*
X3986013Y2500865D01*
X3969135Y2483987D01*
X3963118Y2469462D01*
X3946882D01*
X3940866Y2483987D01*
X3923987Y2500865D01*
X3901935Y2510000D01*
X3878065D01*
X3856013Y2500865D01*
X3839135Y2483987D01*
X3830000Y2461935D01*
Y2438065D01*
X3839135Y2416013D01*
X3856013Y2399134D01*
X3878065Y2390000D01*
X3901935D01*
X3923987Y2399134D01*
X3940866Y2416013D01*
X3946882Y2430538D01*
X3963118D01*
X3969135Y2416013D01*
X3986013Y2399134D01*
X4008065Y2390000D01*
X4031935D01*
X4053987Y2399134D01*
X4070866Y2416013D01*
X4080000Y2438065D01*
Y2461935D01*
X4070866Y2483987D01*
X4053987Y2500865D01*
X4031935Y2510000D01*
D02*
G37*
G36*
X6781934Y2540000D02*
X6758065D01*
X6736012Y2530865D01*
X6719134Y2513987D01*
X6710000Y2491935D01*
Y2468065D01*
X6719134Y2446013D01*
X6736012Y2429134D01*
X6758065Y2420000D01*
X6781934D01*
X6803987Y2429134D01*
X6820865Y2446013D01*
X6830000Y2468065D01*
Y2491935D01*
X6820865Y2513987D01*
X6803987Y2530865D01*
X6781934Y2540000D01*
D02*
G37*
G36*
X7380376Y2480895D02*
X7356506D01*
X7334454Y2471760D01*
X7317576Y2454882D01*
X7308441Y2432830D01*
Y2411358D01*
X7301902Y2406621D01*
X7294583Y2404003D01*
X7287721Y2410865D01*
X7265668Y2420000D01*
X7241799D01*
X7219746Y2410865D01*
X7202868Y2393987D01*
X7193733Y2371935D01*
Y2348065D01*
X7202868Y2326013D01*
X7219746Y2309134D01*
X7241799Y2300000D01*
X7265668D01*
X7287721Y2309134D01*
X7304599Y2326013D01*
X7313733Y2348065D01*
Y2369537D01*
X7320272Y2374274D01*
X7327591Y2376892D01*
X7334454Y2370029D01*
X7356506Y2360895D01*
X7380376D01*
X7402428Y2370029D01*
X7419307Y2386908D01*
X7428441Y2408960D01*
Y2432830D01*
X7419307Y2454882D01*
X7402428Y2471760D01*
X7380376Y2480895D01*
D02*
G37*
G36*
X5441935Y2510000D02*
X5418065D01*
X5396013Y2500865D01*
X5379135Y2483987D01*
X5370000Y2461935D01*
Y2438065D01*
X5379135Y2416013D01*
X5396013Y2399134D01*
X5418065Y2390000D01*
X5441935D01*
X5463987Y2399134D01*
X5480866Y2416013D01*
X5490000Y2438065D01*
Y2461935D01*
X5480866Y2483987D01*
X5463987Y2500865D01*
X5441935Y2510000D01*
D02*
G37*
G36*
X5021935D02*
X4998065D01*
X4976013Y2500865D01*
X4959134Y2483987D01*
X4950000Y2461935D01*
Y2438065D01*
X4959134Y2416013D01*
X4976013Y2399134D01*
X4998065Y2390000D01*
X5021935D01*
X5043987Y2399134D01*
X5060865Y2416013D01*
X5070000Y2438065D01*
Y2461935D01*
X5060865Y2483987D01*
X5043987Y2500865D01*
X5021935Y2510000D01*
D02*
G37*
G36*
X3321935Y2480000D02*
X3298065D01*
X3276013Y2470866D01*
X3259134Y2453987D01*
X3250000Y2431935D01*
Y2408065D01*
X3259134Y2386013D01*
X3276013Y2369134D01*
X3298065Y2360000D01*
X3321935D01*
X3343987Y2369134D01*
X3360866Y2386013D01*
X3370000Y2408065D01*
Y2431935D01*
X3360866Y2453987D01*
X3343987Y2470866D01*
X3321935Y2480000D01*
D02*
G37*
G36*
X8165500Y2460920D02*
X8118000D01*
Y2359500D01*
X8239420D01*
Y2387000D01*
X8233793Y2415288D01*
X8217769Y2439269D01*
X8193788Y2455293D01*
X8165500Y2460920D01*
D02*
G37*
G36*
X8051276Y2579342D02*
X8027407D01*
X8005354Y2570207D01*
X7988476Y2553329D01*
X7979342Y2531276D01*
Y2507407D01*
X7988476Y2485354D01*
X8005354Y2468476D01*
X8011273Y2466025D01*
X8012940Y2449098D01*
X7998231Y2439269D01*
X7982207Y2415288D01*
X7976580Y2387000D01*
Y2359500D01*
X8098000D01*
Y2460920D01*
X8086986D01*
X8080773Y2475920D01*
X8090207Y2485354D01*
X8099341Y2507407D01*
Y2531276D01*
X8090207Y2553329D01*
X8073329Y2570207D01*
X8051276Y2579342D01*
D02*
G37*
G36*
X4491936Y2509998D02*
X4468067D01*
X4446014Y2500863D01*
X4429136Y2483985D01*
X4420001Y2461932D01*
Y2438063D01*
X4429136Y2416010D01*
X4446014Y2399132D01*
X4468067Y2389998D01*
X4491936D01*
X4493348Y2389054D01*
X4500341Y2377243D01*
X4509136Y2356011D01*
X4526014Y2339132D01*
X4548066Y2329998D01*
X4571936D01*
X4593988Y2339132D01*
X4610867Y2356011D01*
X4620001Y2378063D01*
Y2401932D01*
X4610867Y2423985D01*
X4593988Y2440863D01*
X4571936Y2449998D01*
X4548067D01*
X4546654Y2450942D01*
X4539661Y2462752D01*
X4530867Y2483985D01*
X4513988Y2500863D01*
X4491936Y2509998D01*
D02*
G37*
G36*
X5648655Y2395000D02*
X5624786D01*
X5602733Y2385865D01*
X5585855Y2368987D01*
X5576720Y2346935D01*
Y2323065D01*
X5585855Y2301013D01*
X5602733Y2284134D01*
X5624786Y2275000D01*
X5648655D01*
X5670707Y2284134D01*
X5687586Y2301013D01*
X5696720Y2323065D01*
Y2346935D01*
X5687586Y2368987D01*
X5670707Y2385865D01*
X5648655Y2395000D01*
D02*
G37*
G36*
X8459500Y2455822D02*
X8344500D01*
X8318163Y2450583D01*
X8295836Y2435664D01*
X8280917Y2413337D01*
X8275678Y2387000D01*
Y2312000D01*
X8280917Y2285663D01*
X8295836Y2263336D01*
X8318163Y2248417D01*
X8344500Y2243178D01*
X8459500D01*
X8485837Y2248417D01*
X8508164Y2263336D01*
X8523083Y2285663D01*
X8528322Y2312000D01*
Y2387000D01*
X8523083Y2413337D01*
X8508164Y2435664D01*
X8485837Y2450583D01*
X8459500Y2455822D01*
D02*
G37*
G36*
X8098000Y2339500D02*
X7976580D01*
Y2312000D01*
X7982207Y2283712D01*
X7998231Y2259731D01*
X8022212Y2243707D01*
X8050500Y2238080D01*
X8098000D01*
Y2339500D01*
D02*
G37*
G36*
X6889560Y2398752D02*
X6865691D01*
X6843638Y2389618D01*
X6826760Y2372739D01*
X6817625Y2350687D01*
Y2339960D01*
X6796395Y2331166D01*
X6779517Y2314287D01*
X6770382Y2292235D01*
Y2268365D01*
X6779517Y2246313D01*
X6796395Y2229434D01*
X6818447Y2220300D01*
X6842317D01*
X6864369Y2229434D01*
X6881248Y2246313D01*
X6890382Y2268365D01*
Y2279093D01*
X6911613Y2287887D01*
X6928491Y2304765D01*
X6937625Y2326818D01*
Y2350687D01*
X6928491Y2372739D01*
X6911613Y2389618D01*
X6889560Y2398752D01*
D02*
G37*
G36*
X2551935Y2330000D02*
X2528065D01*
X2506013Y2320866D01*
X2489134Y2303987D01*
X2480000Y2281935D01*
Y2258065D01*
X2489134Y2236013D01*
X2506013Y2219134D01*
X2528065Y2210000D01*
X2551935D01*
X2573987Y2219134D01*
X2590866Y2236013D01*
X2600000Y2258065D01*
Y2281935D01*
X2590866Y2303987D01*
X2573987Y2320866D01*
X2551935Y2330000D01*
D02*
G37*
G36*
X7402344Y2312426D02*
X7378474D01*
X7356422Y2303292D01*
X7339544Y2286413D01*
X7330409Y2264361D01*
Y2240491D01*
X7339544Y2218439D01*
X7356422Y2201560D01*
X7378474Y2192426D01*
X7402344D01*
X7424396Y2201560D01*
X7441275Y2218439D01*
X7450409Y2240491D01*
Y2264361D01*
X7441275Y2286413D01*
X7424396Y2303292D01*
X7402344Y2312426D01*
D02*
G37*
G36*
X5331935Y2310000D02*
X5308065D01*
X5286013Y2300866D01*
X5269134Y2283987D01*
X5260000Y2261935D01*
Y2238065D01*
X5269134Y2216013D01*
X5286013Y2199135D01*
X5308065Y2190000D01*
X5331935D01*
X5353987Y2199135D01*
X5370866Y2216013D01*
X5380000Y2238065D01*
Y2261935D01*
X5370866Y2283987D01*
X5353987Y2300866D01*
X5331935Y2310000D01*
D02*
G37*
G36*
X4021935Y2290000D02*
X3998065D01*
X3976013Y2280866D01*
X3959135Y2263987D01*
X3950000Y2241935D01*
Y2218065D01*
X3959135Y2196013D01*
X3976013Y2179135D01*
X3998065Y2170000D01*
X4021935D01*
X4043987Y2179135D01*
X4060866Y2196013D01*
X4070000Y2218065D01*
Y2241935D01*
X4060866Y2263987D01*
X4043987Y2280866D01*
X4021935Y2290000D01*
D02*
G37*
G36*
X2312509Y2271070D02*
X2288640D01*
X2266587Y2261936D01*
X2249709Y2245057D01*
X2240575Y2223005D01*
Y2199135D01*
X2249709Y2177083D01*
X2266587Y2160204D01*
X2288640Y2151070D01*
X2312509D01*
X2334562Y2160204D01*
X2351440Y2177083D01*
X2360574Y2199135D01*
Y2223005D01*
X2351440Y2245057D01*
X2334562Y2261936D01*
X2312509Y2271070D01*
D02*
G37*
G36*
X7655903Y2499223D02*
X7632034D01*
X7609981Y2490089D01*
X7593103Y2473211D01*
X7583969Y2451158D01*
Y2427289D01*
X7593103Y2405236D01*
X7609981Y2388358D01*
X7615181Y2386204D01*
X7613536Y2382232D01*
Y2358363D01*
X7622670Y2336311D01*
X7625818Y2333163D01*
X7621741Y2316027D01*
X7607603Y2310171D01*
X7590724Y2293292D01*
X7581590Y2271240D01*
Y2247370D01*
X7588746Y2230093D01*
X7578028Y2219375D01*
X7568893Y2197322D01*
Y2173453D01*
X7578028Y2151400D01*
X7594906Y2134522D01*
X7616958Y2125388D01*
X7640828D01*
X7662880Y2134522D01*
X7679759Y2151400D01*
X7688893Y2173453D01*
Y2197322D01*
X7681737Y2214599D01*
X7692455Y2225318D01*
X7701590Y2247370D01*
Y2271240D01*
X7692455Y2293292D01*
X7689308Y2296440D01*
X7693385Y2313576D01*
X7707523Y2319432D01*
X7724401Y2336311D01*
X7733536Y2358363D01*
Y2382232D01*
X7724401Y2404285D01*
X7707523Y2421163D01*
X7702323Y2423317D01*
X7703968Y2427289D01*
Y2451158D01*
X7694834Y2473211D01*
X7677956Y2490089D01*
X7655903Y2499223D01*
D02*
G37*
G36*
X2761937Y2200001D02*
X2738067D01*
X2716015Y2190866D01*
X2699137Y2173988D01*
X2690002Y2151935D01*
Y2128066D01*
X2699137Y2106014D01*
X2716015Y2089135D01*
X2738067Y2080001D01*
X2761937D01*
X2783989Y2089135D01*
X2800868Y2106014D01*
X2810002Y2128066D01*
Y2151935D01*
X2800868Y2173988D01*
X2783989Y2190866D01*
X2761937Y2200001D01*
D02*
G37*
G36*
X7101935Y2250000D02*
X7078065D01*
X7056013Y2240865D01*
X7039135Y2223987D01*
X7030000Y2201935D01*
Y2178065D01*
X7039135Y2156013D01*
X7056013Y2139134D01*
X7069033Y2133741D01*
X7060000Y2111935D01*
Y2088065D01*
X7069134Y2066013D01*
X7086013Y2049135D01*
X7108065Y2040000D01*
X7131935D01*
X7153987Y2049135D01*
X7170866Y2066013D01*
X7180000Y2088065D01*
Y2111935D01*
X7170866Y2133987D01*
X7153987Y2150866D01*
X7140967Y2156259D01*
X7150000Y2178065D01*
Y2201935D01*
X7140866Y2223987D01*
X7123987Y2240865D01*
X7101935Y2250000D01*
D02*
G37*
G36*
X6651935Y2160000D02*
X6628065D01*
X6606013Y2150866D01*
X6589134Y2133987D01*
X6580000Y2111935D01*
Y2088065D01*
X6589134Y2066013D01*
X6606013Y2049135D01*
X6628065Y2040000D01*
X6651935D01*
X6673987Y2049135D01*
X6690865Y2066013D01*
X6700000Y2088065D01*
Y2111935D01*
X6690865Y2133987D01*
X6673987Y2150866D01*
X6651935Y2160000D01*
D02*
G37*
G36*
X2571935D02*
X2548065D01*
X2526013Y2150866D01*
X2509134Y2133987D01*
X2500000Y2111935D01*
Y2088065D01*
X2509134Y2066013D01*
X2526013Y2049135D01*
X2548065Y2040000D01*
X2571935D01*
X2593987Y2049135D01*
X2610865Y2066013D01*
X2620000Y2088065D01*
Y2111935D01*
X2610865Y2133987D01*
X2593987Y2150866D01*
X2571935Y2160000D01*
D02*
G37*
G36*
X6280540Y2121571D02*
X6256670D01*
X6234618Y2112437D01*
X6217740Y2095559D01*
X6208605Y2073506D01*
Y2049637D01*
X6217740Y2027584D01*
X6234618Y2010706D01*
X6256670Y2001572D01*
X6280540D01*
X6302592Y2010706D01*
X6319471Y2027584D01*
X6328605Y2049637D01*
Y2073506D01*
X6319471Y2095559D01*
X6302592Y2112437D01*
X6280540Y2121571D01*
D02*
G37*
G36*
X8459500Y2201822D02*
X8344500D01*
X8318163Y2196583D01*
X8295836Y2181664D01*
X8280917Y2159337D01*
X8275678Y2133000D01*
Y2058000D01*
X8280917Y2031663D01*
X8295836Y2009336D01*
X8318163Y1994417D01*
X8344500Y1989178D01*
X8459500D01*
X8485837Y1994417D01*
X8508164Y2009336D01*
X8523083Y2031663D01*
X8528322Y2058000D01*
Y2133000D01*
X8523083Y2159337D01*
X8508164Y2181664D01*
X8485837Y2196583D01*
X8459500Y2201822D01*
D02*
G37*
G36*
X8239420Y2339500D02*
X8118000D01*
Y2238080D01*
X8150365D01*
X8150573Y2237768D01*
Y2213899D01*
X8142503Y2201822D01*
X8050500D01*
X8024163Y2196583D01*
X8001836Y2181664D01*
X7986917Y2159337D01*
X7981678Y2133000D01*
Y2058000D01*
X7986917Y2031663D01*
X8001836Y2009336D01*
X8024163Y1994417D01*
X8050500Y1989178D01*
X8165500D01*
X8191837Y1994417D01*
X8214164Y2009336D01*
X8229083Y2031663D01*
X8234322Y2058000D01*
Y2133000D01*
X8229083Y2159337D01*
X8232282Y2169883D01*
X8244560Y2174968D01*
X8261438Y2191847D01*
X8270573Y2213899D01*
Y2237768D01*
X8261438Y2259821D01*
X8244560Y2276699D01*
X8234679Y2280792D01*
X8233793Y2283712D01*
X8239420Y2312000D01*
Y2339500D01*
D02*
G37*
G36*
X5876515Y2113954D02*
X5852645D01*
X5830593Y2104820D01*
X5813715Y2087942D01*
X5804580Y2065889D01*
Y2042020D01*
X5813715Y2019967D01*
X5830593Y2003089D01*
X5852645Y1993955D01*
X5876515D01*
X5894262Y2001306D01*
X5909135Y2004596D01*
X5926013Y1987718D01*
X5948065Y1978584D01*
X5971935D01*
X5993987Y1987718D01*
X6010866Y2004597D01*
X6020000Y2026649D01*
Y2050519D01*
X6010866Y2072571D01*
X5993987Y2089449D01*
X5971935Y2098584D01*
X5948065D01*
X5930318Y2091233D01*
X5915445Y2087942D01*
X5898567Y2104820D01*
X5876515Y2113954D01*
D02*
G37*
G36*
X3483601Y2310967D02*
X3459732D01*
X3437679Y2301833D01*
X3420801Y2284955D01*
X3411667Y2262902D01*
Y2239033D01*
X3403527Y2226852D01*
X3396630D01*
X3374578Y2217717D01*
X3357699Y2200839D01*
X3349068Y2180000D01*
X3338065D01*
X3316013Y2170866D01*
X3299134Y2153987D01*
X3290000Y2131935D01*
Y2108065D01*
X3291276Y2104984D01*
X3281248Y2089998D01*
X3267373D01*
X3245320Y2080864D01*
X3228442Y2063986D01*
X3219308Y2041933D01*
Y2018064D01*
X3228442Y1996011D01*
X3245320Y1979133D01*
X3267373Y1969999D01*
X3291242D01*
X3313295Y1979133D01*
X3330173Y1996011D01*
X3339308Y2018064D01*
Y2041933D01*
X3338031Y2045014D01*
X3348060Y2060000D01*
X3361935D01*
X3383987Y2069135D01*
X3400865Y2086013D01*
X3409497Y2106852D01*
X3420500D01*
X3442552Y2115986D01*
X3459430Y2132865D01*
X3468565Y2154917D01*
Y2178786D01*
X3476704Y2190967D01*
X3483601D01*
X3505654Y2200102D01*
X3522532Y2216980D01*
X3531666Y2239033D01*
Y2262902D01*
X3522532Y2284955D01*
X3505654Y2301833D01*
X3483601Y2310967D01*
D02*
G37*
G36*
X8271935Y2000000D02*
X8248065D01*
X8226013Y1990865D01*
X8209134Y1973987D01*
X8201050Y1954468D01*
X8198442Y1951105D01*
X8185000Y1943943D01*
X8165500Y1947822D01*
X8050500D01*
X8024163Y1942583D01*
X8001836Y1927664D01*
X7986917Y1905337D01*
X7981678Y1879000D01*
Y1804000D01*
X7986917Y1777663D01*
X8001836Y1755336D01*
X8024163Y1740417D01*
X8050500Y1735178D01*
X8165500D01*
X8191837Y1740417D01*
X8214164Y1755336D01*
X8229083Y1777663D01*
X8234322Y1804000D01*
Y1869457D01*
X8248007Y1879955D01*
X8248651Y1880000D01*
X8261349D01*
X8272138Y1879247D01*
X8275678Y1866142D01*
Y1804000D01*
X8280917Y1777663D01*
X8295836Y1755336D01*
X8318163Y1740417D01*
X8344500Y1735178D01*
X8459500D01*
X8485837Y1740417D01*
X8508164Y1755336D01*
X8523083Y1777663D01*
X8528322Y1804000D01*
Y1879000D01*
X8523083Y1905337D01*
X8508164Y1927664D01*
X8485837Y1942583D01*
X8459500Y1947822D01*
X8344500D01*
X8328813Y1944702D01*
X8320000Y1951935D01*
X8310866Y1973987D01*
X8293987Y1990865D01*
X8271935Y2000000D01*
D02*
G37*
G36*
X4911935Y2030000D02*
X4888065D01*
X4866013Y2020866D01*
X4849135Y2003987D01*
X4840000Y1981935D01*
Y1958065D01*
X4849135Y1936013D01*
X4866013Y1919135D01*
X4888065Y1910000D01*
X4911935D01*
X4933987Y1919135D01*
X4950866Y1936013D01*
X4960000Y1958065D01*
Y1981935D01*
X4950866Y2003987D01*
X4933987Y2020866D01*
X4911935Y2030000D01*
D02*
G37*
G36*
X4271935D02*
X4248065D01*
X4226013Y2020866D01*
X4209135Y2003987D01*
X4200000Y1981935D01*
Y1958065D01*
X4209135Y1936013D01*
X4226013Y1919135D01*
X4248065Y1910000D01*
X4271935D01*
X4293987Y1919135D01*
X4310866Y1936013D01*
X4320000Y1958065D01*
Y1981935D01*
X4310866Y2003987D01*
X4293987Y2020866D01*
X4271935Y2030000D01*
D02*
G37*
G36*
X7389107Y2011459D02*
X7365237D01*
X7343185Y2002325D01*
X7326306Y1985447D01*
X7317172Y1963394D01*
Y1939525D01*
X7326306Y1917472D01*
X7343185Y1900594D01*
X7365237Y1891460D01*
X7389107D01*
X7411159Y1900594D01*
X7428037Y1917472D01*
X7437172Y1939525D01*
Y1963394D01*
X7428037Y1985447D01*
X7411159Y2002325D01*
X7389107Y2011459D01*
D02*
G37*
G36*
X2131935Y1990000D02*
X2108065D01*
X2086013Y1980865D01*
X2069135Y1963987D01*
X2060000Y1941935D01*
Y1918065D01*
X2069135Y1896013D01*
X2086013Y1879134D01*
X2108065Y1870000D01*
X2131935D01*
X2153987Y1879134D01*
X2170866Y1896013D01*
X2180000Y1918065D01*
Y1941935D01*
X2170866Y1963987D01*
X2153987Y1980865D01*
X2131935Y1990000D01*
D02*
G37*
G36*
X7265668Y1940000D02*
X7241799D01*
X7219746Y1930866D01*
X7202868Y1913988D01*
X7193733Y1891935D01*
Y1868066D01*
X7202868Y1846013D01*
X7219746Y1829135D01*
X7241799Y1820001D01*
X7265668D01*
X7287721Y1829135D01*
X7304599Y1846013D01*
X7313733Y1868066D01*
Y1891935D01*
X7304599Y1913988D01*
X7287721Y1930866D01*
X7265668Y1940000D01*
D02*
G37*
G36*
X6881935Y2010000D02*
X6858065D01*
X6836013Y2000865D01*
X6819134Y1983987D01*
X6810000Y1961935D01*
Y1938065D01*
X6819134Y1916013D01*
X6828349Y1906798D01*
X6818148Y1896597D01*
X6809014Y1874544D01*
Y1850675D01*
X6818148Y1828622D01*
X6835026Y1811744D01*
X6857079Y1802610D01*
X6880948D01*
X6903001Y1811744D01*
X6919879Y1828622D01*
X6929014Y1850675D01*
Y1874544D01*
X6919879Y1896597D01*
X6910664Y1905812D01*
X6920866Y1916013D01*
X6930000Y1938065D01*
Y1961935D01*
X6920866Y1983987D01*
X6903987Y2000865D01*
X6881935Y2010000D01*
D02*
G37*
G36*
X5921935Y1910000D02*
X5898065D01*
X5876013Y1900866D01*
X5859135Y1883987D01*
X5850000Y1861935D01*
Y1838065D01*
X5859135Y1816013D01*
X5876013Y1799135D01*
X5898065Y1790000D01*
X5921935D01*
X5943987Y1799135D01*
X5960866Y1816013D01*
X5970000Y1838065D01*
Y1861935D01*
X5960866Y1883987D01*
X5943987Y1900866D01*
X5921935Y1910000D01*
D02*
G37*
G36*
X5571935D02*
X5548065D01*
X5526013Y1900866D01*
X5509135Y1883987D01*
X5500000Y1861935D01*
Y1838065D01*
X5509135Y1816013D01*
X5526013Y1799135D01*
X5548065Y1790000D01*
X5571935D01*
X5593987Y1799135D01*
X5600000Y1805147D01*
X5616013Y1789134D01*
X5638065Y1780000D01*
X5661935D01*
X5683987Y1789134D01*
X5700865Y1806013D01*
X5710000Y1828065D01*
Y1851935D01*
X5700865Y1873987D01*
X5683987Y1890865D01*
X5661935Y1900000D01*
X5638065D01*
X5616013Y1890865D01*
X5610000Y1884853D01*
X5593987Y1900866D01*
X5571935Y1910000D01*
D02*
G37*
G36*
X6529731Y1874703D02*
X6505862D01*
X6483809Y1865569D01*
X6466931Y1848690D01*
X6457797Y1826638D01*
Y1802769D01*
X6466931Y1780716D01*
X6483809Y1763838D01*
X6505862Y1754703D01*
X6529731D01*
X6551784Y1763838D01*
X6568662Y1780716D01*
X6577797Y1802769D01*
Y1826638D01*
X6568662Y1848690D01*
X6551784Y1865569D01*
X6529731Y1874703D01*
D02*
G37*
G36*
X6225325Y1856624D02*
X6201455D01*
X6179403Y1847490D01*
X6162525Y1830612D01*
X6153390Y1808559D01*
Y1784690D01*
X6162525Y1762637D01*
X6179403Y1745759D01*
X6201455Y1736625D01*
X6225325D01*
X6247377Y1745759D01*
X6264256Y1762637D01*
X6273390Y1784690D01*
Y1808559D01*
X6264256Y1830612D01*
X6247377Y1847490D01*
X6225325Y1856624D01*
D02*
G37*
G36*
X7402344Y1832427D02*
X7378474D01*
X7356422Y1823292D01*
X7339544Y1806414D01*
X7330409Y1784361D01*
Y1760492D01*
X7339544Y1738439D01*
X7356422Y1721561D01*
X7378474Y1712427D01*
X7402344D01*
X7424396Y1721561D01*
X7441275Y1738439D01*
X7450409Y1760492D01*
Y1784361D01*
X7441275Y1806414D01*
X7424396Y1823292D01*
X7402344Y1832427D01*
D02*
G37*
G36*
X5081935Y1830000D02*
X5058065D01*
X5036013Y1820866D01*
X5019134Y1803987D01*
X5010000Y1781935D01*
Y1758065D01*
X5019134Y1736013D01*
X5036013Y1719134D01*
X5058065Y1710000D01*
X5081935D01*
X5103987Y1719134D01*
X5120866Y1736013D01*
X5130000Y1758065D01*
Y1781935D01*
X5120866Y1803987D01*
X5103987Y1820866D01*
X5081935Y1830000D01*
D02*
G37*
G36*
X6731935Y1820000D02*
X6708065D01*
X6686013Y1810866D01*
X6669134Y1793987D01*
X6660000Y1771935D01*
Y1748065D01*
X6669134Y1726013D01*
X6686013Y1709135D01*
X6708065Y1700000D01*
X6731935D01*
X6753987Y1709135D01*
X6770866Y1726013D01*
X6780000Y1748065D01*
Y1771935D01*
X6770866Y1793987D01*
X6753987Y1810866D01*
X6731935Y1820000D01*
D02*
G37*
G36*
X2631935Y1800000D02*
X2608065D01*
X2586013Y1790866D01*
X2569135Y1773987D01*
X2560000Y1751935D01*
Y1728065D01*
X2569135Y1706013D01*
X2586013Y1689135D01*
X2608065Y1680000D01*
X2631935D01*
X2653987Y1689135D01*
X2670866Y1706013D01*
X2680000Y1728065D01*
Y1751935D01*
X2670866Y1773987D01*
X2653987Y1790866D01*
X2631935Y1800000D01*
D02*
G37*
G36*
X7638140Y2107500D02*
X7614271D01*
X7592218Y2098366D01*
X7575340Y2081487D01*
X7566205Y2059435D01*
Y2035565D01*
X7575340Y2013513D01*
X7583765Y2005087D01*
X7591772Y1994903D01*
X7588443Y1981962D01*
X7583969Y1971159D01*
Y1947289D01*
X7593103Y1925237D01*
X7609981Y1908359D01*
X7614684Y1906411D01*
X7612830Y1901935D01*
Y1878065D01*
X7621964Y1856013D01*
X7624813Y1853164D01*
X7621030Y1835733D01*
X7607603Y1830171D01*
X7590724Y1813293D01*
X7581590Y1791241D01*
Y1767371D01*
X7588746Y1750094D01*
X7578028Y1739375D01*
X7568893Y1717323D01*
Y1693454D01*
X7578028Y1671401D01*
X7594906Y1654523D01*
X7616958Y1645388D01*
X7640828D01*
X7662880Y1654523D01*
X7679759Y1671401D01*
X7688893Y1693454D01*
Y1717323D01*
X7681737Y1734600D01*
X7692455Y1745319D01*
X7701590Y1767371D01*
Y1791241D01*
X7692455Y1813293D01*
X7689606Y1816142D01*
X7693389Y1833572D01*
X7706817Y1839134D01*
X7723695Y1856013D01*
X7732830Y1878065D01*
Y1901935D01*
X7723695Y1923987D01*
X7706817Y1940866D01*
X7702114Y1942813D01*
X7703968Y1947289D01*
Y1971159D01*
X7694834Y1993211D01*
X7677956Y2010090D01*
X7677733Y2010182D01*
X7677071Y2013513D01*
X7686205Y2035565D01*
Y2059435D01*
X7677071Y2081487D01*
X7660192Y2098366D01*
X7638140Y2107500D01*
D02*
G37*
G36*
X5761935Y1730000D02*
X5738065D01*
X5716013Y1720865D01*
X5699134Y1703987D01*
X5690000Y1681935D01*
Y1658065D01*
X5699134Y1636013D01*
X5716013Y1619134D01*
X5738065Y1610000D01*
X5761935D01*
X5783987Y1619134D01*
X5800865Y1636013D01*
X5810000Y1658065D01*
Y1681935D01*
X5800865Y1703987D01*
X5783987Y1720865D01*
X5761935Y1730000D01*
D02*
G37*
G36*
X7497047Y1716801D02*
X7473178D01*
X7451125Y1707667D01*
X7434247Y1690789D01*
X7425112Y1668736D01*
Y1644867D01*
X7434247Y1622814D01*
X7451125Y1605936D01*
X7473178Y1596801D01*
X7497047D01*
X7519100Y1605936D01*
X7535978Y1622814D01*
X7545112Y1644867D01*
Y1668736D01*
X7535978Y1690789D01*
X7519100Y1707667D01*
X7497047Y1716801D01*
D02*
G37*
G36*
X2731935Y1660000D02*
X2708065D01*
X2686013Y1650866D01*
X2669134Y1633987D01*
X2660000Y1611935D01*
Y1588065D01*
X2669134Y1566013D01*
X2686013Y1549135D01*
X2708065Y1540000D01*
X2731935D01*
X2753987Y1549135D01*
X2770865Y1566013D01*
X2780000Y1588065D01*
Y1611935D01*
X2770865Y1633987D01*
X2753987Y1650866D01*
X2731935Y1660000D01*
D02*
G37*
G36*
X7130097Y1642361D02*
X7106228D01*
X7084176Y1633227D01*
X7067297Y1616348D01*
X7058163Y1594296D01*
Y1570426D01*
X7067297Y1548374D01*
X7084176Y1531496D01*
X7106228Y1522361D01*
X7130097D01*
X7152150Y1531496D01*
X7169028Y1548374D01*
X7178163Y1570426D01*
Y1594296D01*
X7169028Y1616348D01*
X7152150Y1633227D01*
X7130097Y1642361D01*
D02*
G37*
G36*
X6220049Y1623867D02*
X6196179D01*
X6174127Y1614733D01*
X6157248Y1597855D01*
X6148114Y1575802D01*
Y1551933D01*
X6157248Y1529880D01*
X6174127Y1513002D01*
X6196179Y1503868D01*
X6220049D01*
X6242101Y1513002D01*
X6258979Y1529880D01*
X6268114Y1551933D01*
Y1575802D01*
X6258979Y1597855D01*
X6242101Y1614733D01*
X6220049Y1623867D01*
D02*
G37*
G36*
X8459500Y1693822D02*
X8344500D01*
X8318163Y1688583D01*
X8295836Y1673664D01*
X8280917Y1651337D01*
X8275678Y1625000D01*
Y1550000D01*
X8280917Y1523663D01*
X8295836Y1501336D01*
X8318163Y1486417D01*
X8344500Y1481178D01*
X8459500D01*
X8485837Y1486417D01*
X8508164Y1501336D01*
X8523083Y1523663D01*
X8528322Y1550000D01*
Y1625000D01*
X8523083Y1651337D01*
X8508164Y1673664D01*
X8485837Y1688583D01*
X8459500Y1693822D01*
D02*
G37*
G36*
X8165500D02*
X8050500D01*
X8024163Y1688583D01*
X8001836Y1673664D01*
X7986917Y1651337D01*
X7981678Y1625000D01*
Y1550000D01*
X7986917Y1523663D01*
X8001836Y1501336D01*
X8024163Y1486417D01*
X8050500Y1481178D01*
X8165500D01*
X8191837Y1486417D01*
X8214164Y1501336D01*
X8229083Y1523663D01*
X8234322Y1550000D01*
Y1625000D01*
X8229083Y1651337D01*
X8214164Y1673664D01*
X8191837Y1688583D01*
X8165500Y1693822D01*
D02*
G37*
G36*
X4061935Y1590000D02*
X4038065D01*
X4016013Y1580866D01*
X3999134Y1563987D01*
X3990000Y1541935D01*
Y1518065D01*
X3999134Y1496013D01*
X4016013Y1479134D01*
X4038065Y1470000D01*
X4061935D01*
X4083987Y1479134D01*
X4100866Y1496013D01*
X4110000Y1518065D01*
Y1541935D01*
X4100866Y1563987D01*
X4083987Y1580866D01*
X4061935Y1590000D01*
D02*
G37*
G36*
X1991935Y1583733D02*
X1968065D01*
X1946013Y1574599D01*
X1929135Y1557721D01*
X1920000Y1535668D01*
Y1511799D01*
X1929135Y1489746D01*
X1946013Y1472868D01*
X1968065Y1463734D01*
X1991935D01*
X2013987Y1472868D01*
X2030866Y1489746D01*
X2040000Y1511799D01*
Y1535668D01*
X2030866Y1557721D01*
X2013987Y1574599D01*
X1991935Y1583733D01*
D02*
G37*
G36*
X5671935Y1560000D02*
X5648065D01*
X5626013Y1550866D01*
X5609135Y1533987D01*
X5600000Y1511935D01*
Y1488065D01*
X5609135Y1466013D01*
X5626013Y1449135D01*
X5648065Y1440000D01*
X5671935D01*
X5693987Y1449135D01*
X5710866Y1466013D01*
X5720000Y1488065D01*
Y1511935D01*
X5710866Y1533987D01*
X5693987Y1550866D01*
X5671935Y1560000D01*
D02*
G37*
G36*
X4431347Y1519076D02*
X4407477D01*
X4385425Y1509942D01*
X4368547Y1493064D01*
X4359412Y1471011D01*
Y1447142D01*
X4368547Y1425089D01*
X4385425Y1408211D01*
X4407477Y1399077D01*
X4431347D01*
X4453399Y1408211D01*
X4470278Y1425089D01*
X4479412Y1447142D01*
Y1471011D01*
X4470278Y1493064D01*
X4453399Y1509942D01*
X4431347Y1519076D01*
D02*
G37*
G36*
X7392004Y1501414D02*
X7368134D01*
X7346082Y1492280D01*
X7329204Y1475402D01*
X7320069Y1453349D01*
Y1429480D01*
X7329204Y1407427D01*
X7346082Y1390549D01*
X7368134Y1381415D01*
X7392004D01*
X7414056Y1390549D01*
X7430935Y1407427D01*
X7440069Y1429480D01*
Y1453349D01*
X7430935Y1475402D01*
X7414056Y1492280D01*
X7392004Y1501414D01*
D02*
G37*
G36*
X6002582Y1491763D02*
X5978712D01*
X5956660Y1482629D01*
X5939781Y1465750D01*
X5930647Y1443698D01*
Y1419829D01*
X5939781Y1397776D01*
X5956660Y1380898D01*
X5978712Y1371763D01*
X6002582D01*
X6024634Y1380898D01*
X6041512Y1397776D01*
X6050647Y1419829D01*
Y1443698D01*
X6041512Y1465750D01*
X6024634Y1482629D01*
X6002582Y1491763D01*
D02*
G37*
G36*
X6831934Y1500000D02*
X6808065D01*
X6786012Y1490866D01*
X6769134Y1473987D01*
X6760000Y1451935D01*
Y1428065D01*
X6769134Y1406013D01*
X6786012Y1389135D01*
X6808065Y1380000D01*
X6820000D01*
Y1368066D01*
X6829134Y1346013D01*
X6846012Y1329135D01*
X6868065Y1320000D01*
X6891934D01*
X6913987Y1329135D01*
X6930865Y1346013D01*
X6939999Y1368066D01*
Y1391935D01*
X6930865Y1413988D01*
X6913987Y1430866D01*
X6891934Y1440000D01*
X6879999D01*
Y1451935D01*
X6870865Y1473987D01*
X6853987Y1490866D01*
X6831934Y1500000D01*
D02*
G37*
G36*
X2811935Y1440000D02*
X2788065D01*
X2766013Y1430866D01*
X2749134Y1413987D01*
X2740000Y1391935D01*
Y1368065D01*
X2749134Y1346013D01*
X2766013Y1329135D01*
X2788065Y1320000D01*
X2811935D01*
X2833987Y1329135D01*
X2850866Y1346013D01*
X2860000Y1368065D01*
Y1391935D01*
X2850866Y1413987D01*
X2833987Y1430866D01*
X2811935Y1440000D01*
D02*
G37*
G36*
X7265668Y1430000D02*
X7241799D01*
X7219746Y1420866D01*
X7202868Y1403987D01*
X7193733Y1381935D01*
Y1358065D01*
X7202868Y1336013D01*
X7219746Y1319135D01*
X7241799Y1310000D01*
X7265668D01*
X7287721Y1319135D01*
X7304599Y1336013D01*
X7313733Y1358065D01*
Y1381935D01*
X7304599Y1403987D01*
X7287721Y1420866D01*
X7265668Y1430000D01*
D02*
G37*
G36*
X2251935Y1430000D02*
X2228065D01*
X2206013Y1420865D01*
X2189135Y1403987D01*
X2180000Y1381934D01*
Y1358065D01*
X2189135Y1336013D01*
X2206013Y1319134D01*
X2228065Y1310000D01*
X2251935D01*
X2273987Y1319134D01*
X2290866Y1336013D01*
X2300000Y1358065D01*
Y1381934D01*
X2290866Y1403987D01*
X2273987Y1420865D01*
X2251935Y1430000D01*
D02*
G37*
G36*
X5561935Y1420000D02*
X5538065D01*
X5516013Y1410866D01*
X5499135Y1393987D01*
X5490000Y1371935D01*
Y1348065D01*
X5499135Y1326013D01*
X5516013Y1309135D01*
X5538065Y1300000D01*
X5561935D01*
X5583987Y1309135D01*
X5600866Y1326013D01*
X5610000Y1348065D01*
Y1371935D01*
X5600866Y1393987D01*
X5583987Y1410866D01*
X5561935Y1420000D01*
D02*
G37*
G36*
X6671935Y1400000D02*
X6648065D01*
X6626013Y1390866D01*
X6609134Y1373987D01*
X6600000Y1351935D01*
Y1328065D01*
X6609134Y1306013D01*
X6626013Y1289135D01*
X6648065Y1280000D01*
X6671935D01*
X6693987Y1289135D01*
X6710865Y1306013D01*
X6720000Y1328065D01*
Y1351935D01*
X6710865Y1373987D01*
X6693987Y1390866D01*
X6671935Y1400000D01*
D02*
G37*
G36*
X5761935Y1390000D02*
X5738065D01*
X5716013Y1380865D01*
X5699134Y1363987D01*
X5690000Y1341935D01*
Y1318065D01*
X5699134Y1296013D01*
X5716013Y1279134D01*
X5738065Y1270000D01*
X5761935D01*
X5783987Y1279134D01*
X5800865Y1296013D01*
X5810000Y1318065D01*
Y1341935D01*
X5800865Y1363987D01*
X5783987Y1380865D01*
X5761935Y1390000D01*
D02*
G37*
G36*
X3762367Y1366337D02*
X3738497D01*
X3716445Y1357203D01*
X3699566Y1340324D01*
X3690432Y1318272D01*
Y1294403D01*
X3699566Y1272350D01*
X3716445Y1255472D01*
X3738497Y1246337D01*
X3762367D01*
X3784419Y1255472D01*
X3801297Y1272350D01*
X3810432Y1294403D01*
Y1318272D01*
X3801297Y1340324D01*
X3784419Y1357203D01*
X3762367Y1366337D01*
D02*
G37*
G36*
X4441935Y1360000D02*
X4418065D01*
X4396013Y1350865D01*
X4379134Y1333987D01*
X4370000Y1311935D01*
Y1288065D01*
X4379134Y1266013D01*
X4396013Y1249134D01*
X4418065Y1240000D01*
X4441935D01*
X4463987Y1249134D01*
X4480866Y1266013D01*
X4490000Y1288065D01*
Y1311935D01*
X4480866Y1333987D01*
X4463987Y1350865D01*
X4441935Y1360000D01*
D02*
G37*
G36*
X8459500Y1439822D02*
X8344500D01*
X8318163Y1434583D01*
X8295836Y1419664D01*
X8280917Y1397337D01*
X8275678Y1371000D01*
Y1296000D01*
X8280917Y1269663D01*
X8295836Y1247336D01*
X8318163Y1232417D01*
X8344500Y1227178D01*
X8459500D01*
X8485837Y1232417D01*
X8508164Y1247336D01*
X8523083Y1269663D01*
X8528322Y1296000D01*
Y1371000D01*
X8523083Y1397337D01*
X8508164Y1419664D01*
X8485837Y1434583D01*
X8459500Y1439822D01*
D02*
G37*
G36*
X8165500D02*
X8050500D01*
X8024163Y1434583D01*
X8001836Y1419664D01*
X7986917Y1397337D01*
X7981678Y1371000D01*
Y1296000D01*
X7986917Y1269663D01*
X8001836Y1247336D01*
X8024163Y1232417D01*
X8050500Y1227178D01*
X8165500D01*
X8191837Y1232417D01*
X8214164Y1247336D01*
X8229083Y1269663D01*
X8234322Y1296000D01*
Y1371000D01*
X8229083Y1397337D01*
X8214164Y1419664D01*
X8191837Y1434583D01*
X8165500Y1439822D01*
D02*
G37*
G36*
X6213479Y1338754D02*
X6189610D01*
X6167557Y1329620D01*
X6150679Y1312742D01*
X6141545Y1290689D01*
Y1266820D01*
X6150679Y1244767D01*
X6167557Y1227889D01*
X6189610Y1218754D01*
X6213479D01*
X6235532Y1227889D01*
X6252410Y1244767D01*
X6261544Y1266820D01*
Y1290689D01*
X6252410Y1312742D01*
X6235532Y1329620D01*
X6213479Y1338754D01*
D02*
G37*
G36*
X7402344Y1322426D02*
X7378474D01*
X7356422Y1313292D01*
X7339544Y1296413D01*
X7330409Y1274361D01*
Y1250492D01*
X7339544Y1228439D01*
X7356422Y1211561D01*
X7378474Y1202426D01*
X7402344D01*
X7424396Y1211561D01*
X7441275Y1228439D01*
X7450409Y1250492D01*
Y1274361D01*
X7441275Y1296413D01*
X7424396Y1313292D01*
X7402344Y1322426D01*
D02*
G37*
G36*
X4691935Y1280000D02*
X4668065D01*
X4646013Y1270866D01*
X4629135Y1253987D01*
X4620000Y1231935D01*
Y1208065D01*
X4629135Y1186013D01*
X4646013Y1169135D01*
X4668065Y1160000D01*
X4691935D01*
X4713987Y1169135D01*
X4730866Y1186013D01*
X4740000Y1208065D01*
Y1231935D01*
X4730866Y1253987D01*
X4713987Y1270866D01*
X4691935Y1280000D01*
D02*
G37*
G36*
X6771935Y1260000D02*
X6748065D01*
X6726013Y1250865D01*
X6709134Y1233987D01*
X6700000Y1211935D01*
Y1188065D01*
X6709134Y1166013D01*
X6726013Y1149134D01*
X6748065Y1140000D01*
X6771935D01*
X6793987Y1149134D01*
X6810865Y1166013D01*
X6820000Y1188065D01*
Y1211935D01*
X6810865Y1233987D01*
X6793987Y1250865D01*
X6771935Y1260000D01*
D02*
G37*
G36*
X7655903Y1509224D02*
X7632034D01*
X7609981Y1500089D01*
X7593103Y1483211D01*
X7583969Y1461158D01*
Y1437289D01*
X7593103Y1415236D01*
X7609981Y1398358D01*
X7615181Y1396204D01*
X7613536Y1392233D01*
Y1368363D01*
X7622670Y1346311D01*
X7625818Y1343163D01*
X7621741Y1326027D01*
X7607603Y1320171D01*
X7590724Y1303293D01*
X7581590Y1281240D01*
Y1257371D01*
X7588746Y1240094D01*
X7578028Y1229375D01*
X7568893Y1207322D01*
Y1183453D01*
X7578028Y1161401D01*
X7594906Y1144522D01*
X7616958Y1135388D01*
X7640828D01*
X7662880Y1144522D01*
X7679759Y1161401D01*
X7688893Y1183453D01*
Y1207322D01*
X7681737Y1224600D01*
X7692455Y1235318D01*
X7701590Y1257371D01*
Y1281240D01*
X7692455Y1303293D01*
X7689308Y1306440D01*
X7693385Y1323576D01*
X7707523Y1329432D01*
X7724401Y1346311D01*
X7733536Y1368363D01*
Y1392233D01*
X7724401Y1414285D01*
X7707523Y1431164D01*
X7702323Y1433317D01*
X7703968Y1437289D01*
Y1461158D01*
X7694834Y1483211D01*
X7677956Y1500089D01*
X7655903Y1509224D01*
D02*
G37*
G36*
X1925726Y1310948D02*
X1901856D01*
X1879804Y1301813D01*
X1862926Y1284935D01*
X1853791Y1262882D01*
Y1239013D01*
X1862926Y1216960D01*
X1876512Y1203375D01*
X1876013Y1200865D01*
X1859134Y1183987D01*
X1850000Y1161935D01*
Y1138065D01*
X1859134Y1116013D01*
X1876013Y1099134D01*
X1898065Y1090000D01*
X1921935D01*
X1943987Y1099134D01*
X1960866Y1116013D01*
X1970000Y1138065D01*
Y1161935D01*
X1960866Y1183987D01*
X1947280Y1197573D01*
X1947779Y1200082D01*
X1964657Y1216960D01*
X1973791Y1239013D01*
Y1262882D01*
X1964657Y1284935D01*
X1947778Y1301813D01*
X1925726Y1310948D01*
D02*
G37*
G36*
X6006626Y1265648D02*
X5982756D01*
X5960704Y1256514D01*
X5943826Y1239635D01*
X5934691Y1217583D01*
Y1193713D01*
X5943826Y1171661D01*
X5951312Y1164175D01*
X5960593Y1154662D01*
X5951312Y1144576D01*
X5944112Y1137377D01*
X5934978Y1115324D01*
Y1091455D01*
X5944112Y1069402D01*
X5960991Y1052524D01*
X5983043Y1043390D01*
X6006913D01*
X6028965Y1052524D01*
X6045843Y1069402D01*
X6054978Y1091455D01*
Y1115324D01*
X6045843Y1137377D01*
X6038357Y1144863D01*
X6029076Y1154375D01*
X6038357Y1164461D01*
X6045557Y1171661D01*
X6054691Y1193713D01*
Y1217583D01*
X6045557Y1239635D01*
X6028678Y1256514D01*
X6006626Y1265648D01*
D02*
G37*
G36*
X8459500Y1185822D02*
X8344500D01*
X8318163Y1180583D01*
X8295836Y1165664D01*
X8280917Y1143337D01*
X8275678Y1117000D01*
Y1042000D01*
X8280917Y1015663D01*
X8295836Y993336D01*
X8318163Y978417D01*
X8344500Y973178D01*
X8459500D01*
X8485837Y978417D01*
X8508164Y993336D01*
X8523083Y1015663D01*
X8528322Y1042000D01*
Y1117000D01*
X8523083Y1143337D01*
X8508164Y1165664D01*
X8485837Y1180583D01*
X8459500Y1185822D01*
D02*
G37*
G36*
X8165500D02*
X8050500D01*
X8024163Y1180583D01*
X8001836Y1165664D01*
X7986917Y1143337D01*
X7981678Y1117000D01*
Y1042000D01*
X7986917Y1015663D01*
X8001836Y993336D01*
X8024163Y978417D01*
X8050500Y973178D01*
X8165500D01*
X8191837Y978417D01*
X8214164Y993336D01*
X8229083Y1015663D01*
X8234322Y1042000D01*
Y1117000D01*
X8229083Y1143337D01*
X8214164Y1165664D01*
X8191837Y1180583D01*
X8165500Y1185822D01*
D02*
G37*
G36*
X5231935Y1090000D02*
X5208065D01*
X5186013Y1080866D01*
X5169134Y1063987D01*
X5160000Y1041935D01*
Y1018065D01*
X5169134Y996013D01*
X5186013Y979134D01*
X5208065Y970000D01*
X5231935D01*
X5253987Y979134D01*
X5270866Y996013D01*
X5280000Y1018065D01*
Y1041935D01*
X5270866Y1063987D01*
X5253987Y1080866D01*
X5231935Y1090000D01*
D02*
G37*
G36*
X6121038Y1066143D02*
X6097168D01*
X6075116Y1057009D01*
X6058237Y1040131D01*
X6049103Y1018078D01*
Y994209D01*
X6058237Y972156D01*
X6075116Y955278D01*
X6097168Y946144D01*
X6121038D01*
X6143090Y955278D01*
X6159968Y972156D01*
X6169103Y994209D01*
Y1018078D01*
X6159968Y1040131D01*
X6143090Y1057009D01*
X6121038Y1066143D01*
D02*
G37*
G36*
X6612119Y1050000D02*
X6588249D01*
X6566197Y1040866D01*
X6549319Y1023987D01*
X6540184Y1001935D01*
Y978065D01*
X6549319Y956013D01*
X6566197Y939135D01*
X6588249Y930000D01*
X6612119D01*
X6634171Y939135D01*
X6651050Y956013D01*
X6660184Y978065D01*
Y1001935D01*
X6651050Y1023987D01*
X6634171Y1040866D01*
X6612119Y1050000D01*
D02*
G37*
G36*
X5981935Y960000D02*
X5958065D01*
X5936013Y950866D01*
X5919134Y933987D01*
X5911392Y915296D01*
X5901935Y919213D01*
X5878065D01*
X5856013Y910079D01*
X5839134Y893201D01*
X5830000Y871148D01*
Y847279D01*
X5839134Y825226D01*
X5856013Y808348D01*
X5878065Y799214D01*
X5901935D01*
X5923987Y808348D01*
X5940865Y825226D01*
X5948608Y843918D01*
X5958065Y840000D01*
X5981935D01*
X6003987Y849134D01*
X6020866Y866013D01*
X6030000Y888065D01*
Y911935D01*
X6020866Y933987D01*
X6003987Y950866D01*
X5981935Y960000D01*
D02*
G37*
G36*
X5756935Y914999D02*
X5733065D01*
X5711013Y905865D01*
X5707032Y901884D01*
X5703993Y904922D01*
X5681941Y914056D01*
X5658071D01*
X5636019Y904922D01*
X5628297Y897200D01*
X5623689Y901808D01*
X5601636Y910942D01*
X5577767D01*
X5555715Y901808D01*
X5550570Y896664D01*
X5543507Y903727D01*
X5521455Y912861D01*
X5497585D01*
X5475533Y903727D01*
X5458655Y886848D01*
X5457286Y883543D01*
X5441050D01*
X5440865Y883987D01*
X5423987Y900866D01*
X5401935Y910000D01*
X5378065D01*
X5356013Y900866D01*
X5340000Y884853D01*
X5323987Y900866D01*
X5301935Y910000D01*
X5278065D01*
X5256013Y900866D01*
X5243616Y888468D01*
X5235839Y884881D01*
X5224539Y887947D01*
X5213326Y899160D01*
X5191273Y908294D01*
X5167404D01*
X5145351Y899160D01*
X5128473Y882282D01*
X5119339Y860229D01*
Y836360D01*
X5128473Y814307D01*
X5145351Y797429D01*
X5167404Y788295D01*
X5191273D01*
X5213326Y797429D01*
X5225723Y809826D01*
X5233499Y813413D01*
X5244800Y810348D01*
X5256013Y799135D01*
X5278065Y790000D01*
X5301935D01*
X5323987Y799135D01*
X5340000Y815147D01*
X5356013Y799135D01*
X5378065Y790000D01*
X5401935D01*
X5423987Y799135D01*
X5440865Y816013D01*
X5442234Y819318D01*
X5458470D01*
X5458655Y818874D01*
X5475533Y801996D01*
X5497585Y792861D01*
X5521455D01*
X5543507Y801996D01*
X5548652Y807140D01*
X5555715Y800077D01*
X5577767Y790943D01*
X5601636D01*
X5623689Y800077D01*
X5631411Y807799D01*
X5636019Y803191D01*
X5658071Y794057D01*
X5681941D01*
X5703993Y803191D01*
X5707975Y807172D01*
X5711013Y804134D01*
X5733065Y795000D01*
X5756935D01*
X5778987Y804134D01*
X5795866Y821012D01*
X5805000Y843065D01*
Y866934D01*
X5795866Y888987D01*
X5778987Y905865D01*
X5756935Y914999D01*
D02*
G37*
G36*
X6381935Y1020000D02*
X6358065D01*
X6336013Y1010866D01*
X6319134Y993987D01*
X6310000Y971935D01*
Y948065D01*
X6319134Y926013D01*
X6336013Y909135D01*
X6358065Y900000D01*
X6381935D01*
X6403987Y909135D01*
X6420865Y926013D01*
X6430000Y948065D01*
Y971935D01*
X6420865Y993987D01*
X6403987Y1010866D01*
X6381935Y1020000D01*
D02*
G37*
G36*
X1725750Y1081798D02*
X1618250D01*
X1592401Y1076656D01*
X1570487Y1062013D01*
X1555844Y1040099D01*
X1550702Y1014250D01*
Y941750D01*
X1555844Y915900D01*
X1570487Y893986D01*
X1592401Y879344D01*
X1618250Y874202D01*
X1725750D01*
X1751599Y879344D01*
X1773513Y893986D01*
X1788156Y915900D01*
X1793298Y941750D01*
Y1014250D01*
X1788156Y1040099D01*
X1773513Y1062013D01*
X1751599Y1076656D01*
X1725750Y1081798D01*
D02*
G37*
G36*
X7101935Y980000D02*
X7078065D01*
X7056013Y970865D01*
X7039135Y953987D01*
X7030000Y931935D01*
Y908065D01*
X7039135Y886013D01*
X7056013Y869134D01*
X7078065Y860000D01*
X7101935D01*
X7123987Y869134D01*
X7140866Y886013D01*
X7150000Y908065D01*
Y931935D01*
X7140866Y953987D01*
X7123987Y970865D01*
X7101935Y980000D01*
D02*
G37*
G36*
X4061935D02*
X4038065D01*
X4016013Y970865D01*
X3999134Y953987D01*
X3990000Y931935D01*
Y908065D01*
X3999134Y886013D01*
X4016013Y869134D01*
X4038065Y860000D01*
X4061935D01*
X4083987Y869134D01*
X4100866Y886013D01*
X4110000Y908065D01*
Y931935D01*
X4100866Y953987D01*
X4083987Y970865D01*
X4061935Y980000D01*
D02*
G37*
G36*
X7570376Y940894D02*
X7546507D01*
X7524454Y931760D01*
X7507576Y914882D01*
X7498441Y892829D01*
Y868960D01*
X7507576Y846907D01*
X7524454Y830029D01*
X7546507Y820895D01*
X7570376D01*
X7592429Y830029D01*
X7609307Y846907D01*
X7618441Y868960D01*
Y892829D01*
X7609307Y914882D01*
X7592429Y931760D01*
X7570376Y940894D01*
D02*
G37*
G36*
X2411935Y930000D02*
X2388065D01*
X2366013Y920866D01*
X2349134Y903987D01*
X2340000Y881935D01*
Y858065D01*
X2349134Y836013D01*
X2366013Y819135D01*
X2388065Y810000D01*
X2411935D01*
X2433987Y819135D01*
X2450866Y836013D01*
X2460000Y858065D01*
Y881935D01*
X2450866Y903987D01*
X2433987Y920866D01*
X2411935Y930000D01*
D02*
G37*
G36*
X2161935D02*
X2138065D01*
X2116013Y920866D01*
X2099134Y903987D01*
X2090000Y881935D01*
Y858065D01*
X2099134Y836013D01*
X2116013Y819135D01*
X2138065Y810000D01*
X2161935D01*
X2183987Y819135D01*
X2200866Y836013D01*
X2210000Y858065D01*
Y881935D01*
X2200866Y903987D01*
X2183987Y920866D01*
X2161935Y930000D01*
D02*
G37*
G36*
X5041935Y910000D02*
X5018065D01*
X4996013Y900866D01*
X4979135Y883987D01*
X4970000Y861935D01*
Y838065D01*
X4979135Y816013D01*
X4996013Y799135D01*
X5018065Y790000D01*
X5041935D01*
X5063987Y799135D01*
X5080866Y816013D01*
X5090000Y838065D01*
Y861935D01*
X5080866Y883987D01*
X5063987Y900866D01*
X5041935Y910000D01*
D02*
G37*
G36*
X4881935D02*
X4858065D01*
X4836013Y900866D01*
X4819134Y883987D01*
X4810000Y861935D01*
Y838065D01*
X4819134Y816013D01*
X4836013Y799135D01*
X4858065Y790000D01*
X4881935D01*
X4903987Y799135D01*
X4920865Y816013D01*
X4930000Y838065D01*
Y861935D01*
X4920865Y883987D01*
X4903987Y900866D01*
X4881935Y910000D01*
D02*
G37*
G36*
X4661935Y970000D02*
X4638065D01*
X4616013Y960865D01*
X4599135Y943987D01*
X4590000Y921935D01*
Y898065D01*
X4599135Y876013D01*
X4616013Y859134D01*
X4638065Y850000D01*
X4640000D01*
Y838065D01*
X4649134Y816013D01*
X4666013Y799135D01*
X4688065Y790000D01*
X4711935D01*
X4733987Y799135D01*
X4750866Y816013D01*
X4760000Y838065D01*
Y861935D01*
X4750866Y883987D01*
X4733987Y900866D01*
X4711935Y910000D01*
X4710000D01*
Y921935D01*
X4700866Y943987D01*
X4683987Y960865D01*
X4661935Y970000D01*
D02*
G37*
G36*
X6631935Y880000D02*
X6608065D01*
X6586013Y870865D01*
X6569134Y853987D01*
X6560000Y831935D01*
Y808065D01*
X6569134Y786013D01*
X6586013Y769134D01*
X6608065Y760000D01*
X6631935D01*
X6653987Y769134D01*
X6670865Y786013D01*
X6680000Y808065D01*
Y831935D01*
X6670865Y853987D01*
X6653987Y870865D01*
X6631935Y880000D01*
D02*
G37*
G36*
X3551935Y850000D02*
X3528065D01*
X3506013Y840865D01*
X3489135Y823987D01*
X3480000Y801935D01*
Y778065D01*
X3489135Y756013D01*
X3506013Y739134D01*
X3528065Y730000D01*
X3551935D01*
X3573987Y739134D01*
X3590866Y756013D01*
X3600000Y778065D01*
Y801935D01*
X3590866Y823987D01*
X3573987Y840865D01*
X3551935Y850000D01*
D02*
G37*
G36*
X4141935Y840000D02*
X4118065D01*
X4096013Y830865D01*
X4079135Y813987D01*
X4070000Y791935D01*
Y768065D01*
X4079135Y746013D01*
X4096013Y729134D01*
X4118065Y720000D01*
X4141935D01*
X4163987Y729134D01*
X4180866Y746013D01*
X4190000Y768065D01*
Y791935D01*
X4180866Y813987D01*
X4163987Y830865D01*
X4141935Y840000D01*
D02*
G37*
G36*
X3871935D02*
X3848065D01*
X3826013Y830865D01*
X3809134Y813987D01*
X3800000Y791935D01*
Y768065D01*
X3809134Y746013D01*
X3826013Y729134D01*
X3848065Y720000D01*
X3871935D01*
X3893987Y729134D01*
X3910865Y746013D01*
X3920000Y768065D01*
Y791935D01*
X3910865Y813987D01*
X3893987Y830865D01*
X3871935Y840000D01*
D02*
G37*
G36*
X8459500Y931822D02*
X8344500D01*
X8318163Y926583D01*
X8295836Y911664D01*
X8280917Y889337D01*
X8275678Y863000D01*
Y788000D01*
X8280917Y761663D01*
X8295836Y739336D01*
X8318163Y724417D01*
X8344500Y719178D01*
X8459500D01*
X8485837Y724417D01*
X8508164Y739336D01*
X8523083Y761663D01*
X8528322Y788000D01*
Y863000D01*
X8523083Y889337D01*
X8508164Y911664D01*
X8485837Y926583D01*
X8459500Y931822D01*
D02*
G37*
G36*
X8165500D02*
X8050500D01*
X8024163Y926583D01*
X8001836Y911664D01*
X7986917Y889337D01*
X7981678Y863000D01*
Y788000D01*
X7986917Y761663D01*
X8001836Y739336D01*
X8024163Y724417D01*
X8050500Y719178D01*
X8165500D01*
X8191837Y724417D01*
X8214164Y739336D01*
X8229083Y761663D01*
X8234322Y788000D01*
Y863000D01*
X8229083Y889337D01*
X8214164Y911664D01*
X8191837Y926583D01*
X8165500Y931822D01*
D02*
G37*
G36*
X6898902Y1043032D02*
X6875032D01*
X6852980Y1033898D01*
X6836102Y1017020D01*
X6826967Y994967D01*
Y971098D01*
X6836102Y949045D01*
X6852980Y932167D01*
X6875032Y923033D01*
X6880000D01*
Y918065D01*
X6889135Y896013D01*
X6890842Y894305D01*
X6884629Y879305D01*
X6879655D01*
X6857602Y870170D01*
X6840724Y853292D01*
X6831590Y831240D01*
Y807370D01*
X6840724Y785318D01*
X6857602Y768439D01*
X6879655Y759305D01*
X6880000D01*
Y748065D01*
X6889135Y726013D01*
X6906013Y709134D01*
X6928065Y700000D01*
X6951935D01*
X6973987Y709134D01*
X6990866Y726013D01*
X7000000Y748065D01*
Y771935D01*
X6990866Y793987D01*
X6973987Y810866D01*
X6951935Y820000D01*
X6951590D01*
Y831240D01*
X6942455Y853292D01*
X6940747Y855000D01*
X6946961Y870000D01*
X6951935D01*
X6973987Y879134D01*
X6990866Y896013D01*
X7000000Y918065D01*
Y941935D01*
X6990866Y963987D01*
X6973987Y980865D01*
X6951935Y990000D01*
X6946967D01*
Y994967D01*
X6937833Y1017020D01*
X6920954Y1033898D01*
X6898902Y1043032D01*
D02*
G37*
G36*
X7132344Y812426D02*
X7108474D01*
X7086422Y803292D01*
X7069544Y786413D01*
X7060409Y764361D01*
Y740492D01*
X7069544Y718439D01*
X7086422Y701561D01*
X7108474Y692426D01*
X7132344D01*
X7154396Y701561D01*
X7171275Y718439D01*
X7180409Y740492D01*
Y764361D01*
X7171275Y786413D01*
X7154396Y803292D01*
X7132344Y812426D01*
D02*
G37*
G36*
X6447320Y707909D02*
X6423450D01*
X6401398Y698775D01*
X6393635Y691012D01*
X6371935Y700000D01*
X6348065D01*
X6326013Y690866D01*
X6309134Y673987D01*
X6300000Y651935D01*
Y628065D01*
X6309134Y606013D01*
X6309623Y605524D01*
X6304669Y589265D01*
X6286163Y585583D01*
X6263836Y570664D01*
X6248917Y548337D01*
X6243678Y522000D01*
Y407000D01*
X6248917Y380663D01*
X6263836Y358336D01*
X6286163Y343417D01*
X6312500Y338178D01*
X6387500D01*
X6413837Y343417D01*
X6436164Y358336D01*
X6451083Y380663D01*
X6456322Y407000D01*
Y522000D01*
X6451083Y548337D01*
X6436164Y570664D01*
X6432805Y572909D01*
X6437355Y587909D01*
X6447320D01*
X6469372Y597044D01*
X6486251Y613922D01*
X6495385Y635974D01*
Y659844D01*
X6486251Y681896D01*
X6469372Y698775D01*
X6447320Y707909D01*
D02*
G37*
G36*
X6201935Y782500D02*
X6178065D01*
X6156013Y773365D01*
X6139135Y756487D01*
X6130000Y734435D01*
Y710565D01*
X6139135Y688513D01*
X6156013Y671634D01*
X6178065Y662500D01*
X6201935D01*
X6223987Y671634D01*
X6240866Y688513D01*
X6250000Y710565D01*
Y734435D01*
X6240866Y756487D01*
X6223987Y773365D01*
X6201935Y782500D01*
D02*
G37*
G36*
X3301935Y780000D02*
X3278065D01*
X3256013Y770866D01*
X3239134Y753987D01*
X3230000Y731935D01*
Y708065D01*
X3239134Y686013D01*
X3256013Y669135D01*
X3278065Y660000D01*
X3301935D01*
X3323987Y669135D01*
X3340866Y686013D01*
X3350000Y708065D01*
Y731935D01*
X3340866Y753987D01*
X3323987Y770866D01*
X3301935Y780000D01*
D02*
G37*
G36*
X7592344Y772426D02*
X7568475D01*
X7546422Y763291D01*
X7529544Y746413D01*
X7520409Y724361D01*
Y700491D01*
X7529544Y678439D01*
X7546422Y661560D01*
X7568475Y652426D01*
X7592344D01*
X7614397Y661560D01*
X7631275Y678439D01*
X7640409Y700491D01*
Y724361D01*
X7631275Y746413D01*
X7614397Y763291D01*
X7592344Y772426D01*
D02*
G37*
G36*
X7381791Y990190D02*
X7357922D01*
X7335870Y981055D01*
X7318991Y964177D01*
X7309857Y942125D01*
Y918255D01*
X7318991Y896203D01*
X7335870Y879324D01*
X7355000Y871400D01*
Y858363D01*
X7364135Y836311D01*
X7366140Y834305D01*
X7359927Y819305D01*
X7359655D01*
X7337603Y810171D01*
X7320724Y793293D01*
X7311590Y771240D01*
Y747371D01*
X7320724Y725318D01*
X7337603Y708440D01*
X7357877Y700042D01*
Y680188D01*
X7367011Y658136D01*
X7383889Y641257D01*
X7405942Y632123D01*
X7429811D01*
X7451864Y641257D01*
X7468742Y658136D01*
X7477877Y680188D01*
Y704058D01*
X7468742Y726110D01*
X7451864Y742988D01*
X7431590Y751386D01*
Y771240D01*
X7422455Y793293D01*
X7420450Y795298D01*
X7426663Y810298D01*
X7426935D01*
X7448987Y819432D01*
X7465866Y836311D01*
X7475000Y858363D01*
Y882233D01*
X7465866Y904285D01*
X7448987Y921164D01*
X7429857Y929088D01*
Y942125D01*
X7420722Y964177D01*
X7403844Y981055D01*
X7381791Y990190D01*
D02*
G37*
G36*
X7841935Y950000D02*
X7818065D01*
X7796013Y940866D01*
X7779135Y923987D01*
X7770000Y901935D01*
Y878065D01*
X7779135Y856013D01*
X7796013Y839134D01*
X7818065Y830000D01*
X7830000D01*
Y818363D01*
X7839134Y796310D01*
X7841140Y794305D01*
X7834927Y779305D01*
X7819655D01*
X7797603Y770170D01*
X7780724Y753292D01*
X7771590Y731240D01*
Y707370D01*
X7780724Y685318D01*
X7797603Y668439D01*
X7819655Y659305D01*
X7830000D01*
Y658065D01*
X7839134Y636013D01*
X7856013Y619134D01*
X7878065Y610000D01*
X7901935D01*
X7923987Y619134D01*
X7940865Y636013D01*
X7950000Y658065D01*
Y681935D01*
X7940865Y703987D01*
X7923987Y720865D01*
X7901935Y730000D01*
X7891590D01*
Y731240D01*
X7882455Y753292D01*
X7880450Y755298D01*
X7886663Y770298D01*
X7901935D01*
X7923987Y779432D01*
X7940865Y796310D01*
X7950000Y818363D01*
Y842232D01*
X7940865Y864285D01*
X7923987Y881163D01*
X7901935Y890297D01*
X7890000D01*
Y901935D01*
X7880866Y923987D01*
X7863987Y940866D01*
X7841935Y950000D01*
D02*
G37*
G36*
X4722593Y710658D02*
X4698724D01*
X4676671Y701524D01*
X4659793Y684646D01*
X4650658Y662593D01*
Y638724D01*
X4659793Y616671D01*
X4676671Y599793D01*
X4698724Y590658D01*
X4722593D01*
X4744646Y599793D01*
X4761524Y616671D01*
X4770658Y638724D01*
Y662593D01*
X4761524Y684646D01*
X4744646Y701524D01*
X4722593Y710658D01*
D02*
G37*
G36*
X1550000Y835000D02*
X1410000D01*
X1340000Y765000D01*
Y625000D01*
X1410000Y555000D01*
X1550000D01*
X1620000Y625000D01*
Y765000D01*
X1550000Y835000D01*
D02*
G37*
G36*
X7657500Y595920D02*
X7630000D01*
Y474500D01*
X7731420D01*
Y522000D01*
X7725793Y550288D01*
X7709769Y574269D01*
X7685788Y590293D01*
X7657500Y595920D01*
D02*
G37*
G36*
X7610000D02*
X7582500D01*
X7554212Y590293D01*
X7530231Y574269D01*
X7514207Y550288D01*
X7508580Y522000D01*
Y474500D01*
X7610000D01*
Y595920D01*
D02*
G37*
G36*
X7403500D02*
X7376000D01*
Y474500D01*
X7477420D01*
Y522000D01*
X7471793Y550288D01*
X7455769Y574269D01*
X7431788Y590293D01*
X7403500Y595920D01*
D02*
G37*
G36*
X7356000D02*
X7328500D01*
X7300212Y590293D01*
X7276231Y574269D01*
X7260207Y550288D01*
X7254580Y522000D01*
Y474500D01*
X7356000D01*
Y595920D01*
D02*
G37*
G36*
X6133500D02*
X6106000D01*
Y474500D01*
X6207420D01*
Y522000D01*
X6201793Y550288D01*
X6185769Y574269D01*
X6161788Y590293D01*
X6133500Y595920D01*
D02*
G37*
G36*
X6086000D02*
X6058500D01*
X6030212Y590293D01*
X6006231Y574269D01*
X5990207Y550288D01*
X5984580Y522000D01*
Y474500D01*
X6086000D01*
Y595920D01*
D02*
G37*
G36*
X2069500D02*
X2042000D01*
Y474500D01*
X2143420D01*
Y522000D01*
X2137793Y550288D01*
X2121769Y574269D01*
X2097788Y590293D01*
X2069500Y595920D01*
D02*
G37*
G36*
X2022000D02*
X1994500D01*
X1966212Y590293D01*
X1942231Y574269D01*
X1926207Y550288D01*
X1920580Y522000D01*
Y474500D01*
X2022000D01*
Y595920D01*
D02*
G37*
G36*
X8459500Y677822D02*
X8344500D01*
X8318163Y672583D01*
X8295836Y657664D01*
X8280917Y635337D01*
X8275678Y609000D01*
Y534000D01*
X8280917Y507663D01*
X8295836Y485336D01*
X8318163Y470417D01*
X8344500Y465178D01*
X8459500D01*
X8485837Y470417D01*
X8508164Y485336D01*
X8523083Y507663D01*
X8528322Y534000D01*
Y609000D01*
X8523083Y635337D01*
X8508164Y657664D01*
X8485837Y672583D01*
X8459500Y677822D01*
D02*
G37*
G36*
X8165500D02*
X8050500D01*
X8024163Y672583D01*
X8001836Y657664D01*
X7986917Y635337D01*
X7981678Y609000D01*
Y534000D01*
X7986917Y507663D01*
X8001836Y485336D01*
X8024163Y470417D01*
X8050500Y465178D01*
X8165500D01*
X8191837Y470417D01*
X8214164Y485336D01*
X8229083Y507663D01*
X8234322Y534000D01*
Y609000D01*
X8229083Y635337D01*
X8214164Y657664D01*
X8191837Y672583D01*
X8165500Y677822D01*
D02*
G37*
G36*
X1535000Y491763D02*
X1490000D01*
Y355000D01*
X1626763D01*
Y400000D01*
X1619778Y435116D01*
X1599887Y464887D01*
X1570116Y484778D01*
X1535000Y491763D01*
D02*
G37*
G36*
X1470000D02*
X1425000D01*
X1389884Y484778D01*
X1360114Y464887D01*
X1340222Y435116D01*
X1333237Y400000D01*
Y355000D01*
X1470000D01*
Y491763D01*
D02*
G37*
G36*
X7149500Y590822D02*
X7074500D01*
X7048163Y585583D01*
X7025836Y570664D01*
X7010917Y548337D01*
X7005678Y522000D01*
Y407000D01*
X7010917Y380663D01*
X7025836Y358336D01*
X7048163Y343417D01*
X7074500Y338178D01*
X7149500D01*
X7175837Y343417D01*
X7198164Y358336D01*
X7213083Y380663D01*
X7218322Y407000D01*
Y522000D01*
X7213083Y548337D01*
X7198164Y570664D01*
X7175837Y585583D01*
X7149500Y590822D01*
D02*
G37*
G36*
X6895500D02*
X6820500D01*
X6794163Y585583D01*
X6771836Y570664D01*
X6756917Y548337D01*
X6751678Y522000D01*
Y407000D01*
X6756917Y380663D01*
X6771836Y358336D01*
X6794163Y343417D01*
X6820500Y338178D01*
X6895500D01*
X6921837Y343417D01*
X6944164Y358336D01*
X6959083Y380663D01*
X6964322Y407000D01*
Y522000D01*
X6959083Y548337D01*
X6944164Y570664D01*
X6921837Y585583D01*
X6895500Y590822D01*
D02*
G37*
G36*
X6641500D02*
X6566500D01*
X6540163Y585583D01*
X6517836Y570664D01*
X6502917Y548337D01*
X6497678Y522000D01*
Y407000D01*
X6502917Y380663D01*
X6517836Y358336D01*
X6540163Y343417D01*
X6566500Y338178D01*
X6641500D01*
X6667837Y343417D01*
X6690164Y358336D01*
X6705083Y380663D01*
X6710322Y407000D01*
Y522000D01*
X6705083Y548337D01*
X6690164Y570664D01*
X6667837Y585583D01*
X6641500Y590822D01*
D02*
G37*
G36*
X5625500D02*
X5550500D01*
X5524163Y585583D01*
X5501836Y570664D01*
X5486917Y548337D01*
X5481678Y522000D01*
Y407000D01*
X5486917Y380663D01*
X5501836Y358336D01*
X5524163Y343417D01*
X5550500Y338178D01*
X5625500D01*
X5651837Y343417D01*
X5674164Y358336D01*
X5689083Y380663D01*
X5694322Y407000D01*
Y522000D01*
X5689083Y548337D01*
X5674164Y570664D01*
X5651837Y585583D01*
X5625500Y590822D01*
D02*
G37*
G36*
X5371500D02*
X5296500D01*
X5270163Y585583D01*
X5247836Y570664D01*
X5232917Y548337D01*
X5227678Y522000D01*
Y407000D01*
X5232917Y380663D01*
X5247836Y358336D01*
X5270163Y343417D01*
X5296500Y338178D01*
X5371500D01*
X5397837Y343417D01*
X5420164Y358336D01*
X5435083Y380663D01*
X5440322Y407000D01*
Y522000D01*
X5435083Y548337D01*
X5420164Y570664D01*
X5397837Y585583D01*
X5371500Y590822D01*
D02*
G37*
G36*
X5117500D02*
X5042500D01*
X5016163Y585583D01*
X4993836Y570664D01*
X4978917Y548337D01*
X4973678Y522000D01*
Y407000D01*
X4978917Y380663D01*
X4993836Y358336D01*
X5016163Y343417D01*
X5042500Y338178D01*
X5117500D01*
X5143837Y343417D01*
X5166164Y358336D01*
X5181083Y380663D01*
X5186322Y407000D01*
Y522000D01*
X5181083Y548337D01*
X5166164Y570664D01*
X5143837Y585583D01*
X5117500Y590822D01*
D02*
G37*
G36*
X4863500D02*
X4788500D01*
X4762163Y585583D01*
X4739836Y570664D01*
X4724917Y548337D01*
X4719678Y522000D01*
Y407000D01*
X4724917Y380663D01*
X4739836Y358336D01*
X4762163Y343417D01*
X4788500Y338178D01*
X4863500D01*
X4889837Y343417D01*
X4912164Y358336D01*
X4927083Y380663D01*
X4932322Y407000D01*
Y522000D01*
X4927083Y548337D01*
X4912164Y570664D01*
X4889837Y585583D01*
X4863500Y590822D01*
D02*
G37*
G36*
X4531935Y710000D02*
X4508065D01*
X4486013Y700866D01*
X4469135Y683987D01*
X4460000Y661935D01*
Y638065D01*
X4469135Y616013D01*
X4486013Y599134D01*
X4495539Y595189D01*
X4497206Y578262D01*
X4485836Y570664D01*
X4470917Y548337D01*
X4465678Y522000D01*
Y407000D01*
X4470917Y380663D01*
X4485836Y358336D01*
X4508163Y343417D01*
X4534500Y338178D01*
X4609500D01*
X4635837Y343417D01*
X4658164Y358336D01*
X4673083Y380663D01*
X4678322Y407000D01*
Y522000D01*
X4673083Y548337D01*
X4658164Y570664D01*
X4635837Y585583D01*
X4609500Y590822D01*
X4566888D01*
X4560675Y605822D01*
X4570866Y616013D01*
X4580000Y638065D01*
Y661935D01*
X4570866Y683987D01*
X4553987Y700866D01*
X4531935Y710000D01*
D02*
G37*
G36*
X4355500Y590822D02*
X4280500D01*
X4254163Y585583D01*
X4231836Y570664D01*
X4216917Y548337D01*
X4211678Y522000D01*
Y407000D01*
X4216917Y380663D01*
X4231836Y358336D01*
X4254163Y343417D01*
X4280500Y338178D01*
X4355500D01*
X4381837Y343417D01*
X4404164Y358336D01*
X4419083Y380663D01*
X4424322Y407000D01*
Y522000D01*
X4419083Y548337D01*
X4404164Y570664D01*
X4381837Y585583D01*
X4355500Y590822D01*
D02*
G37*
G36*
X4151935Y702500D02*
X4128065D01*
X4106013Y693366D01*
X4089135Y676487D01*
X4080000Y654435D01*
Y630565D01*
X4089135Y608513D01*
X4091825Y605822D01*
X4085612Y590822D01*
X4026500D01*
X4000163Y585583D01*
X3977836Y570664D01*
X3962917Y548337D01*
X3957678Y522000D01*
Y407000D01*
X3962917Y380663D01*
X3977836Y358336D01*
X4000163Y343417D01*
X4026500Y338178D01*
X4101500D01*
X4127837Y343417D01*
X4150164Y358336D01*
X4165083Y380663D01*
X4170322Y407000D01*
Y522000D01*
X4165083Y548337D01*
X4152204Y567612D01*
X4152140Y571155D01*
X4154136Y579188D01*
X4156574Y584422D01*
X4173987Y591635D01*
X4190866Y608513D01*
X4200000Y630565D01*
Y654435D01*
X4190866Y676487D01*
X4173987Y693366D01*
X4151935Y702500D01*
D02*
G37*
G36*
X3724110Y706743D02*
X3700241D01*
X3678188Y697608D01*
X3661310Y680730D01*
X3652176Y658678D01*
Y634808D01*
X3661310Y612756D01*
X3678188Y595877D01*
X3700241Y586743D01*
X3720900D01*
X3726656Y575171D01*
X3727159Y572885D01*
X3723836Y570664D01*
X3708917Y548337D01*
X3703678Y522000D01*
Y407000D01*
X3708917Y380663D01*
X3723836Y358336D01*
X3746163Y343417D01*
X3772500Y338178D01*
X3847500D01*
X3873837Y343417D01*
X3896164Y358336D01*
X3911083Y380663D01*
X3916322Y407000D01*
Y522000D01*
X3911083Y548337D01*
X3896164Y570664D01*
X3873837Y585583D01*
X3847500Y590822D01*
X3772500D01*
X3759793Y588294D01*
X3752404Y602119D01*
X3763041Y612756D01*
X3772176Y634808D01*
Y658678D01*
X3763041Y680730D01*
X3746163Y697608D01*
X3724110Y706743D01*
D02*
G37*
G36*
X3593500Y590822D02*
X3518500D01*
X3492163Y585583D01*
X3469836Y570664D01*
X3454917Y548337D01*
X3449678Y522000D01*
Y407000D01*
X3454917Y380663D01*
X3469836Y358336D01*
X3492163Y343417D01*
X3518500Y338178D01*
X3593500D01*
X3619837Y343417D01*
X3642164Y358336D01*
X3657083Y380663D01*
X3662322Y407000D01*
Y522000D01*
X3657083Y548337D01*
X3642164Y570664D01*
X3619837Y585583D01*
X3593500Y590822D01*
D02*
G37*
G36*
X3339500D02*
X3264500D01*
X3238163Y585583D01*
X3215836Y570664D01*
X3200917Y548337D01*
X3195678Y522000D01*
Y407000D01*
X3200917Y380663D01*
X3215836Y358336D01*
X3238163Y343417D01*
X3264500Y338178D01*
X3339500D01*
X3365837Y343417D01*
X3388164Y358336D01*
X3403083Y380663D01*
X3408322Y407000D01*
Y522000D01*
X3403083Y548337D01*
X3388164Y570664D01*
X3365837Y585583D01*
X3339500Y590822D01*
D02*
G37*
G36*
X3085500D02*
X3010500D01*
X2984163Y585583D01*
X2961836Y570664D01*
X2946917Y548337D01*
X2941678Y522000D01*
Y407000D01*
X2946917Y380663D01*
X2961836Y358336D01*
X2984163Y343417D01*
X3010500Y338178D01*
X3085500D01*
X3111837Y343417D01*
X3134164Y358336D01*
X3149083Y380663D01*
X3154322Y407000D01*
Y522000D01*
X3149083Y548337D01*
X3134164Y570664D01*
X3111837Y585583D01*
X3085500Y590822D01*
D02*
G37*
G36*
X2831500D02*
X2756500D01*
X2730163Y585583D01*
X2707836Y570664D01*
X2692917Y548337D01*
X2687678Y522000D01*
Y407000D01*
X2692917Y380663D01*
X2707836Y358336D01*
X2730163Y343417D01*
X2756500Y338178D01*
X2831500D01*
X2857837Y343417D01*
X2880164Y358336D01*
X2895083Y380663D01*
X2900322Y407000D01*
Y522000D01*
X2895083Y548337D01*
X2880164Y570664D01*
X2857837Y585583D01*
X2831500Y590822D01*
D02*
G37*
G36*
X2577500D02*
X2502500D01*
X2476163Y585583D01*
X2453836Y570664D01*
X2438917Y548337D01*
X2433678Y522000D01*
Y407000D01*
X2438917Y380663D01*
X2453836Y358336D01*
X2476163Y343417D01*
X2502500Y338178D01*
X2577500D01*
X2603837Y343417D01*
X2626164Y358336D01*
X2641083Y380663D01*
X2646322Y407000D01*
Y522000D01*
X2641083Y548337D01*
X2626164Y570664D01*
X2603837Y585583D01*
X2577500Y590822D01*
D02*
G37*
G36*
X2323500D02*
X2248500D01*
X2222163Y585583D01*
X2199836Y570664D01*
X2184917Y548337D01*
X2179678Y522000D01*
Y407000D01*
X2184917Y380663D01*
X2199836Y358336D01*
X2222163Y343417D01*
X2248500Y338178D01*
X2323500D01*
X2349837Y343417D01*
X2372164Y358336D01*
X2387083Y380663D01*
X2392322Y407000D01*
Y522000D01*
X2387083Y548337D01*
X2372164Y570664D01*
X2349837Y585583D01*
X2323500Y590822D01*
D02*
G37*
G36*
X7731420Y454500D02*
X7630000D01*
Y333080D01*
X7657500D01*
X7685788Y338707D01*
X7709769Y354731D01*
X7725793Y378712D01*
X7731420Y407000D01*
Y454500D01*
D02*
G37*
G36*
X7610000D02*
X7508580D01*
Y407000D01*
X7514207Y378712D01*
X7530231Y354731D01*
X7554212Y338707D01*
X7582500Y333080D01*
X7610000D01*
Y454500D01*
D02*
G37*
G36*
X7477420D02*
X7376000D01*
Y333080D01*
X7403500D01*
X7431788Y338707D01*
X7455769Y354731D01*
X7471793Y378712D01*
X7477420Y407000D01*
Y454500D01*
D02*
G37*
G36*
X7356000D02*
X7254580D01*
Y407000D01*
X7260207Y378712D01*
X7276231Y354731D01*
X7300212Y338707D01*
X7328500Y333080D01*
X7356000D01*
Y454500D01*
D02*
G37*
G36*
X6207420D02*
X6106000D01*
Y333080D01*
X6133500D01*
X6161788Y338707D01*
X6185769Y354731D01*
X6201793Y378712D01*
X6207420Y407000D01*
Y454500D01*
D02*
G37*
G36*
X6086000D02*
X5984580D01*
Y407000D01*
X5990207Y378712D01*
X6006231Y354731D01*
X6030212Y338707D01*
X6058500Y333080D01*
X6086000D01*
Y454500D01*
D02*
G37*
G36*
X2143420D02*
X2042000D01*
Y333080D01*
X2069500D01*
X2097788Y338707D01*
X2121769Y354731D01*
X2137793Y378712D01*
X2143420Y407000D01*
Y454500D01*
D02*
G37*
G36*
X2022000D02*
X1920580D01*
Y407000D01*
X1926207Y378712D01*
X1942231Y354731D01*
X1966212Y338707D01*
X1994500Y333080D01*
X2022000D01*
Y454500D01*
D02*
G37*
G36*
X8459500Y428920D02*
X8412000D01*
Y327500D01*
X8533420D01*
Y355000D01*
X8527793Y383288D01*
X8511769Y407269D01*
X8487788Y423293D01*
X8459500Y428920D01*
D02*
G37*
G36*
X8392000D02*
X8344500D01*
X8316212Y423293D01*
X8292231Y407269D01*
X8276207Y383288D01*
X8270580Y355000D01*
Y327500D01*
X8392000D01*
Y428920D01*
D02*
G37*
G36*
X8165500Y423822D02*
X8050500D01*
X8024163Y418583D01*
X8001836Y403664D01*
X7986917Y381337D01*
X7981678Y355000D01*
Y280000D01*
X7986917Y253663D01*
X8001836Y231336D01*
X8024163Y216417D01*
X8050500Y211178D01*
X8165500D01*
X8191837Y216417D01*
X8214164Y231336D01*
X8229083Y253663D01*
X8234322Y280000D01*
Y355000D01*
X8229083Y381337D01*
X8214164Y403664D01*
X8191837Y418583D01*
X8165500Y423822D01*
D02*
G37*
G36*
X8533420Y307500D02*
X8412000D01*
Y206080D01*
X8459500D01*
X8487788Y211707D01*
X8511769Y227731D01*
X8527793Y251712D01*
X8533420Y280000D01*
Y307500D01*
D02*
G37*
G36*
X8392000D02*
X8270580D01*
Y280000D01*
X8276207Y251712D01*
X8292231Y227731D01*
X8316212Y211707D01*
X8344500Y206080D01*
X8392000D01*
Y307500D01*
D02*
G37*
G36*
X1626763Y335000D02*
X1490000D01*
Y198237D01*
X1535000D01*
X1570116Y205222D01*
X1599887Y225114D01*
X1619778Y254884D01*
X1626763Y290000D01*
Y335000D01*
D02*
G37*
G36*
X1470000D02*
X1333237D01*
Y290000D01*
X1340222Y254884D01*
X1360114Y225114D01*
X1389884Y205222D01*
X1425000Y198237D01*
X1470000D01*
Y335000D01*
D02*
G37*
G36*
X7657500Y301920D02*
X7630000D01*
Y180500D01*
X7731420D01*
Y228000D01*
X7725793Y256288D01*
X7709769Y280269D01*
X7685788Y296293D01*
X7657500Y301920D01*
D02*
G37*
G36*
X7610000D02*
X7582500D01*
X7554212Y296293D01*
X7530231Y280269D01*
X7514207Y256288D01*
X7508580Y228000D01*
Y180500D01*
X7610000D01*
Y301920D01*
D02*
G37*
G36*
X7403500D02*
X7376000D01*
Y180500D01*
X7477420D01*
Y228000D01*
X7471793Y256288D01*
X7455769Y280269D01*
X7431788Y296293D01*
X7403500Y301920D01*
D02*
G37*
G36*
X7356000D02*
X7328500D01*
X7300212Y296293D01*
X7276231Y280269D01*
X7260207Y256288D01*
X7254580Y228000D01*
Y180500D01*
X7356000D01*
Y301920D01*
D02*
G37*
G36*
X2069500D02*
X2042000D01*
Y180500D01*
X2143420D01*
Y228000D01*
X2137793Y256288D01*
X2121769Y280269D01*
X2097788Y296293D01*
X2069500Y301920D01*
D02*
G37*
G36*
X2022000D02*
X1994500D01*
X1966212Y296293D01*
X1942231Y280269D01*
X1926207Y256288D01*
X1920580Y228000D01*
Y180500D01*
X2022000D01*
Y301920D01*
D02*
G37*
%LPD*%
D99*
X1672000Y978000D02*
D03*
X1292000D02*
D03*
X1672000Y1842000D02*
D03*
X1292000D02*
D03*
D101*
X1480000Y345000D02*
D03*
D102*
Y695000D02*
D03*
D103*
X6844999Y4605000D02*
D03*
X3500000Y1240000D02*
D03*
X4680000Y1220000D02*
D03*
X2350000Y2850000D02*
D03*
X2520000Y2590000D02*
D03*
X2430000Y2630000D02*
D03*
Y2720000D02*
D03*
X2410000Y2940000D02*
D03*
X6200000Y2990000D02*
D03*
Y2780000D02*
D03*
X5910000Y3460000D02*
D03*
X6230000Y3300000D02*
D03*
X6020000Y2870000D02*
D03*
X5830000Y2730000D02*
D03*
X6075415Y3277763D02*
D03*
X5870000Y3830000D02*
D03*
X6260000Y3770000D02*
D03*
X6620000Y4135000D02*
D03*
X6799117Y4199151D02*
D03*
X5290000Y3580000D02*
D03*
X5670000Y3590000D02*
D03*
X5660000Y3700000D02*
D03*
X6160000Y3480000D02*
D03*
X5672500Y3935000D02*
D03*
X5440000Y3700000D02*
D03*
X5252333Y3849767D02*
D03*
X5080000Y3800000D02*
D03*
X5550000Y1360000D02*
D03*
X3330000Y3180000D02*
D03*
X3200000Y3490000D02*
D03*
X3033178Y3151706D02*
D03*
X6210000Y4180000D02*
D03*
X1300500Y5283500D02*
D03*
Y5003500D02*
D03*
X1620500D02*
D03*
Y5283500D02*
D03*
X3470000Y870000D02*
D03*
X3750432Y1306337D02*
D03*
X6869014Y1862609D02*
D03*
X6517797Y1814703D02*
D03*
X6199866Y1000972D02*
D03*
X6109103Y1006144D02*
D03*
X6080000Y2120000D02*
D03*
X6438295Y1525486D02*
D03*
X5910000Y1850000D02*
D03*
X5560000D02*
D03*
X5650000Y1840000D02*
D03*
X6030000Y730000D02*
D03*
X6190000Y722500D02*
D03*
X5990647Y1431763D02*
D03*
X5998767Y1352460D02*
D03*
X6268605Y2061571D02*
D03*
X6213390Y1796625D02*
D03*
X5994691Y1205648D02*
D03*
X5995000Y1655430D02*
D03*
X5970000Y900000D02*
D03*
X6010017Y1029913D02*
D03*
X5994978Y1103390D02*
D03*
X6201545Y1278754D02*
D03*
X6370000Y960000D02*
D03*
X5967633Y272699D02*
D03*
X5907440Y317440D02*
D03*
X6435385Y647909D02*
D03*
X6360000Y640000D02*
D03*
X5890000Y859213D02*
D03*
X6208114Y1563868D02*
D03*
X5998174Y1875000D02*
D03*
X5745000Y855000D02*
D03*
X5670006Y854056D02*
D03*
X5491177Y1038661D02*
D03*
X5589702Y850942D02*
D03*
X5509520Y852861D02*
D03*
X5390000Y850000D02*
D03*
X5220000Y1030000D02*
D03*
X5179338Y848294D02*
D03*
X5864580Y2053954D02*
D03*
X5960000Y2038584D02*
D03*
X7120000Y2100000D02*
D03*
X7090000Y2190000D02*
D03*
X6960000D02*
D03*
Y2660000D02*
D03*
X7070000D02*
D03*
X6920000Y3060000D02*
D03*
X3870000Y4612500D02*
D03*
X4440000Y4360000D02*
D03*
X4682747Y1503402D02*
D03*
X7378777Y2898539D02*
D03*
X7380069Y1441414D02*
D03*
X7377172Y1951459D02*
D03*
X7424390Y1885414D02*
D03*
X6072813Y4562155D02*
D03*
X6142404Y4518397D02*
D03*
X6050000Y4680000D02*
D03*
X6590000Y4757500D02*
D03*
X6660000Y1200000D02*
D03*
Y1340000D02*
D03*
X5703323Y1959998D02*
D03*
X6721382Y3978618D02*
D03*
X6576480Y3867338D02*
D03*
X6584488Y3564515D02*
D03*
X6900000Y1180000D02*
D03*
X7643968Y1449224D02*
D03*
X7626205Y2047500D02*
D03*
X7628893Y2185388D02*
D03*
X7663279Y2583984D02*
D03*
X7673536Y2370298D02*
D03*
X7643968Y2439223D02*
D03*
X7660000Y3020000D02*
D03*
X7485112Y1656801D02*
D03*
X7390409Y1772427D02*
D03*
X7425123Y1705944D02*
D03*
X6760000Y1200000D02*
D03*
X4240581Y3471270D02*
D03*
X4177817Y3512327D02*
D03*
X4250000Y3390000D02*
D03*
X6593129Y3275707D02*
D03*
X4060000Y4730000D02*
D03*
X4050000Y4650000D02*
D03*
X3790000Y4600000D02*
D03*
X4650000Y910000D02*
D03*
X4700000Y850000D02*
D03*
X4882230Y950913D02*
D03*
X4725905Y3732344D02*
D03*
X4788695Y3691326D02*
D03*
X3580000Y3360000D02*
D03*
X3640000Y4400000D02*
D03*
X8450000Y2900000D02*
D03*
X4900000Y1970000D02*
D03*
X2980000Y3860000D02*
D03*
X2640000Y4532833D02*
D03*
X6265622Y4553521D02*
D03*
X4400000Y3410000D02*
D03*
X4470147Y3335306D02*
D03*
X7159737Y4723983D02*
D03*
X7015527Y4754889D02*
D03*
X7049136Y4466648D02*
D03*
X7041126Y4389700D02*
D03*
X7540000Y4730000D02*
D03*
X7702500Y4830000D02*
D03*
X3540000Y1880000D02*
D03*
X5470000Y1620000D02*
D03*
X7672830Y1890000D02*
D03*
X7735777Y3790405D02*
D03*
X5320000Y2250000D02*
D03*
X5010000Y2450000D02*
D03*
X3470000Y3739832D02*
D03*
X2467798Y4206829D02*
D03*
X6877625Y2338752D02*
D03*
X6230000Y2690000D02*
D03*
X3658860Y3817500D02*
D03*
X5040000Y2840000D02*
D03*
X4420000Y2760000D02*
D03*
X4638253Y3580186D02*
D03*
X6690750Y3072093D02*
D03*
X2508230Y4322875D02*
D03*
X5750000Y1670000D02*
D03*
X5747673Y1541987D02*
D03*
X5780000Y2486550D02*
D03*
X4500000Y2320000D02*
D03*
X4915575Y1699320D02*
D03*
X1885752Y1064249D02*
D03*
X1910000Y1150000D02*
D03*
X5017432Y3989517D02*
D03*
X7747500Y1508948D02*
D03*
X7628893Y1705388D02*
D03*
X1847887Y1685174D02*
D03*
X3509606Y1573840D02*
D03*
X4649005Y1010000D02*
D03*
X7424400Y4699156D02*
D03*
X7328319Y4846500D02*
D03*
X7340000Y4700000D02*
D03*
X5822616Y3070065D02*
D03*
X6454505Y1671541D02*
D03*
X2440000Y1610000D02*
D03*
X2180000Y2310000D02*
D03*
X7418679Y2365207D02*
D03*
X7368441Y2420895D02*
D03*
X6327943Y4608869D02*
D03*
X7060000Y3420000D02*
D03*
X7030000Y3510000D02*
D03*
X6890000Y3650000D02*
D03*
X7505734Y3328738D02*
D03*
X6726293Y3740410D02*
D03*
X7450000Y3910000D02*
D03*
X7460043Y3830000D02*
D03*
X7460000Y3750000D02*
D03*
X7314082Y3623987D02*
D03*
X7068166Y3969168D02*
D03*
X7220000Y3720000D02*
D03*
X7200000Y3610000D02*
D03*
X7418758Y3994981D02*
D03*
X7870000Y4080000D02*
D03*
X8524822Y5021488D02*
D03*
X7140000Y3690000D02*
D03*
X8467629Y2543086D02*
D03*
X7560000Y3390000D02*
D03*
X8060000Y2920000D02*
D03*
X8301041Y2657970D02*
D03*
X7500000Y3440000D02*
D03*
X7643968Y2909224D02*
D03*
X7673536Y2840298D02*
D03*
X8191820Y2549928D02*
D03*
X8039342Y2519342D02*
D03*
X8542436Y2581621D02*
D03*
X6890000Y3280000D02*
D03*
X7440000D02*
D03*
X6843692Y3732214D02*
D03*
X7130000Y4030000D02*
D03*
X7190000Y4080000D02*
D03*
X7068432Y3750256D02*
D03*
X6280000Y3410000D02*
D03*
X6738605Y3663204D02*
D03*
X6820000Y3340000D02*
D03*
X6790000Y3190000D02*
D03*
X7691319Y4259599D02*
D03*
X7425122Y2655943D02*
D03*
X7628893Y2655388D02*
D03*
X8210573Y2225834D02*
D03*
X8260000Y1940000D02*
D03*
X5750000Y1230000D02*
D03*
X5636720Y2335000D02*
D03*
X5430000Y2450000D02*
D03*
X5447500Y3206821D02*
D03*
X4010002Y1070000D02*
D03*
X6830382Y2280300D02*
D03*
X6640000Y2100000D02*
D03*
X6899999Y2029926D02*
D03*
X6870000Y1950000D02*
D03*
X6600184Y990000D02*
D03*
X6582500Y4400000D02*
D03*
Y4210000D02*
D03*
Y4480000D02*
D03*
X5870000Y4610000D02*
D03*
X6150000D02*
D03*
X6720000Y1760000D02*
D03*
X5750000Y1330000D02*
D03*
X5660000Y1500000D02*
D03*
X6889999Y2520500D02*
D03*
X7250000Y3060000D02*
D03*
X6610000Y4330000D02*
D03*
X7560000Y4300000D02*
D03*
X6770000Y2810000D02*
D03*
X7340000Y4180000D02*
D03*
X7641590Y2259305D02*
D03*
X6920000Y1590000D02*
D03*
X7090000Y920000D02*
D03*
X6620000Y820000D02*
D03*
X8260000Y4230000D02*
D03*
X6000000Y2570002D02*
D03*
X4870000Y850000D02*
D03*
X5030000D02*
D03*
X6960000Y4200000D02*
D03*
X7415000Y870298D02*
D03*
X7424390Y1375413D02*
D03*
X6886967Y983033D02*
D03*
X6940000Y930000D02*
D03*
Y760000D02*
D03*
X7417877Y692123D02*
D03*
X7371590Y759305D02*
D03*
X7890000Y670000D02*
D03*
X7831590Y719305D02*
D03*
X7830000Y890000D02*
D03*
X7890000Y830298D02*
D03*
X7369857Y930190D02*
D03*
X2870000Y3080000D02*
D03*
X3500000Y3270000D02*
D03*
X2950000Y3150000D02*
D03*
X3330658Y2930659D02*
D03*
X4250000Y2740000D02*
D03*
X4660000Y2660000D02*
D03*
X5390000Y2840000D02*
D03*
X2400000Y2430000D02*
D03*
X3540000Y790000D02*
D03*
X6674390Y925413D02*
D03*
X6891590Y819305D02*
D03*
X7155123Y685944D02*
D03*
X7615123Y645943D02*
D03*
X6879999Y1380000D02*
D03*
X6820000Y1440000D02*
D03*
X6770000Y2480000D02*
D03*
X7118163Y1582361D02*
D03*
X7118163Y2572361D02*
D03*
X7120409Y752426D02*
D03*
X7154390Y865413D02*
D03*
X6675123Y745943D02*
D03*
X7580409Y712426D02*
D03*
X7558441Y880895D02*
D03*
X7614390Y825413D02*
D03*
X7641589Y2729305D02*
D03*
X7390409Y2722426D02*
D03*
X7424390Y2835413D02*
D03*
X7253733Y2830000D02*
D03*
X6830382Y2750300D02*
D03*
X6877625Y2808752D02*
D03*
X7390409Y2252426D02*
D03*
X7425123Y2185943D02*
D03*
X7253733Y2360000D02*
D03*
X7641590Y1779306D02*
D03*
X7643968Y1959224D02*
D03*
X7628893Y1195388D02*
D03*
X7641590Y1269305D02*
D03*
X7673536Y1380298D02*
D03*
X6900000Y1680000D02*
D03*
X7253733Y1880001D02*
D03*
Y1370000D02*
D03*
X7390409Y1262426D02*
D03*
X7425123Y1195944D02*
D03*
X5116260Y2841998D02*
D03*
X5165000Y2450000D02*
D03*
X4710658Y650658D02*
D03*
X3712176Y646743D02*
D03*
X4140000Y642500D02*
D03*
X4130000Y780000D02*
D03*
X3860000D02*
D03*
X4050000Y920000D02*
D03*
X2560000Y2100000D02*
D03*
X3100000Y4050000D02*
D03*
X5073717Y3051151D02*
D03*
X5050000Y2980000D02*
D03*
X5030000Y3120000D02*
D03*
X4790000Y3290000D02*
D03*
X3610000Y2530000D02*
D03*
X3890000Y2450000D02*
D03*
X4020000D02*
D03*
X4230000Y2530000D02*
D03*
X4310000Y2309998D02*
D03*
X4610000Y3020000D02*
D03*
X4430000Y1300000D02*
D03*
X4251747Y2897500D02*
D03*
X5296038Y3910717D02*
D03*
X4880000Y4230000D02*
D03*
X5650001Y4609998D02*
D03*
X4655412Y4350000D02*
D03*
X4720000Y3650000D02*
D03*
X4810000Y3490000D02*
D03*
X4685114Y3064220D02*
D03*
X4410000Y3670000D02*
D03*
X8533671Y2778866D02*
D03*
X3270000Y1660000D02*
D03*
X5290000Y850000D02*
D03*
X4190000Y4130000D02*
D03*
X5360000Y2130000D02*
D03*
X5070000Y1770000D02*
D03*
X2700000Y3370000D02*
D03*
X3077352Y2569393D02*
D03*
X7481743Y4650021D02*
D03*
X4010000Y2230000D02*
D03*
X3570000Y2220000D02*
D03*
X3710000Y2830000D02*
D03*
X4090000Y2960000D02*
D03*
X2360000Y2600000D02*
D03*
X4419412Y1459077D02*
D03*
X2720000Y1600000D02*
D03*
X3408565Y2166852D02*
D03*
X3350000Y2120000D02*
D03*
X4050000Y1530000D02*
D03*
X3290000Y720000D02*
D03*
X4520000Y650000D02*
D03*
X2150000Y870000D02*
D03*
X1860000Y690000D02*
D03*
X2400000Y870000D02*
D03*
X2380000Y610000D02*
D03*
X2120000Y1930000D02*
D03*
X1980000Y1523734D02*
D03*
X2080000Y1520000D02*
D03*
X1913791Y1250948D02*
D03*
X4220000Y1650000D02*
D03*
X3471666Y2250967D02*
D03*
X3700000Y1960000D02*
D03*
X3960000Y2880000D02*
D03*
X3739998Y2959999D02*
D03*
X2977500Y4407500D02*
D03*
X2710659Y3800659D02*
D03*
X2740000Y3690000D02*
D03*
X3090000Y3740000D02*
D03*
X2780000Y3590000D02*
D03*
X3570000Y3610000D02*
D03*
X4090000Y4330000D02*
D03*
X2780000Y4170000D02*
D03*
X3380000Y4370000D02*
D03*
X3720000Y3510000D02*
D03*
X3310000Y4120000D02*
D03*
X2769342Y2040661D02*
D03*
X2240000Y1370000D02*
D03*
X2800000Y1380000D02*
D03*
X2620000Y1740000D02*
D03*
X2630000Y2440000D02*
D03*
X3110000Y730000D02*
D03*
X2540000Y2270000D02*
D03*
X3050000Y2180000D02*
D03*
X3310000Y2420000D02*
D03*
X3940000Y3890000D02*
D03*
Y4200000D02*
D03*
X5760000Y4750000D02*
D03*
X3950000Y3270000D02*
D03*
X3890000Y2120000D02*
D03*
X4060000Y1450000D02*
D03*
X4880000Y4830000D02*
D03*
X1200000Y4080000D02*
D03*
X2860000Y4820000D02*
D03*
X5360000Y4550000D02*
D03*
X4730000Y4820000D02*
D03*
X3480000Y4570000D02*
D03*
X4260000Y1970000D02*
D03*
X7910000Y4900000D02*
D03*
X7772455Y4541138D02*
D03*
X7720000Y4730000D02*
D03*
X7184135Y4430000D02*
D03*
X7830000Y5080000D02*
D03*
X7000000Y4617500D02*
D03*
X6680000Y4657500D02*
D03*
X4620000Y3370000D02*
D03*
X4450000Y4840000D02*
D03*
X8188000Y2914999D02*
D03*
X6641771Y4528229D02*
D03*
X6675815Y4271571D02*
D03*
X6620000Y4600000D02*
D03*
X3639998Y4509999D02*
D03*
X5430002Y4609998D02*
D03*
X2750002Y2140001D02*
D03*
X4429999Y3750000D02*
D03*
X4952487Y5137236D02*
D03*
X5710469Y5139578D02*
D03*
X5540817Y4609998D02*
D03*
X4480001Y2449998D02*
D03*
X4560001Y2389998D02*
D03*
X4440001Y3970000D02*
D03*
X3121355Y3019999D02*
D03*
X2300575Y2211070D02*
D03*
X4300002Y3039999D02*
D03*
X4460001Y4060002D02*
D03*
X4160002Y3930000D02*
D03*
X4092499Y3090001D02*
D03*
X2270000Y2880000D02*
D03*
X2200000Y2920000D02*
D03*
X2430000Y2810000D02*
D03*
X2750002Y2460000D02*
D03*
X3679998Y319999D02*
D03*
X4189999D02*
D03*
X2200000Y3200000D02*
D03*
Y3000000D02*
D03*
Y3100000D02*
D03*
Y3300000D02*
D03*
Y3400000D02*
D03*
X2180001Y3900002D02*
D03*
X2200001Y3699998D02*
D03*
X2189998Y3800003D02*
D03*
X2049998Y4050000D02*
D03*
X1949999Y4080002D02*
D03*
X2129998Y3990000D02*
D03*
X2190000Y4060000D02*
D03*
X2200001Y3599998D02*
D03*
X2200000Y3500000D02*
D03*
X2530000Y3680000D02*
D03*
X2400000Y4000002D02*
D03*
X2650002Y3970000D02*
D03*
X1950000Y4670000D02*
D03*
X1849999Y4400001D02*
D03*
Y4500001D02*
D03*
X1850000Y4610000D02*
D03*
X1849999Y4300002D02*
D03*
Y4100002D02*
D03*
X1850000Y4200000D02*
D03*
X2050001Y4670000D02*
D03*
X2405305Y4087301D02*
D03*
X2590002Y4620001D02*
D03*
X2250000Y4670000D02*
D03*
X2150001D02*
D03*
X2350000D02*
D03*
X3279999Y4369999D02*
D03*
X3719998Y3156915D02*
D03*
X4949998Y319999D02*
D03*
X4453077Y4211808D02*
D03*
X4320002Y3130001D02*
D03*
X3279308Y2029998D02*
D03*
X4450659Y3840658D02*
D03*
D104*
X8402000Y317500D02*
D03*
Y571500D02*
D03*
X8108000Y317500D02*
D03*
Y571500D02*
D03*
X8402000Y825500D02*
D03*
Y1079500D02*
D03*
Y1333500D02*
D03*
Y1587500D02*
D03*
Y1841500D02*
D03*
Y2095500D02*
D03*
Y2349500D02*
D03*
X8108000Y825500D02*
D03*
Y1079500D02*
D03*
Y1333500D02*
D03*
Y1587500D02*
D03*
Y1841500D02*
D03*
Y2095500D02*
D03*
Y2349500D02*
D03*
X8402000Y3111500D02*
D03*
Y3365500D02*
D03*
X8108000Y3111500D02*
D03*
Y3365500D02*
D03*
X8402000Y3619500D02*
D03*
Y3873500D02*
D03*
Y4127500D02*
D03*
Y4381500D02*
D03*
Y4635500D02*
D03*
Y4889500D02*
D03*
Y5143500D02*
D03*
X8108000Y3619500D02*
D03*
Y3873500D02*
D03*
Y4127500D02*
D03*
Y4381500D02*
D03*
Y4635500D02*
D03*
Y4889500D02*
D03*
Y5143500D02*
D03*
X2306000Y4512400D02*
D03*
Y4258400D02*
D03*
X2012000Y4512400D02*
D03*
Y4258400D02*
D03*
D105*
X2032000Y170500D02*
D03*
X2286000D02*
D03*
X2540000D02*
D03*
X2794000D02*
D03*
X3048000D02*
D03*
X3302000D02*
D03*
X3556000D02*
D03*
X3810000D02*
D03*
X4064000D02*
D03*
X4318000D02*
D03*
X4572000D02*
D03*
X4826000D02*
D03*
X5080000D02*
D03*
X5334000D02*
D03*
X5588000D02*
D03*
X5842000D02*
D03*
X6096000D02*
D03*
X6350000D02*
D03*
X6604000D02*
D03*
X6858000D02*
D03*
X7112000D02*
D03*
X7366000D02*
D03*
X7620000D02*
D03*
X2032000Y464500D02*
D03*
X2286000D02*
D03*
X2540000D02*
D03*
X2794000D02*
D03*
X3048000D02*
D03*
X3302000D02*
D03*
X3556000D02*
D03*
X3810000D02*
D03*
X4064000D02*
D03*
X4318000D02*
D03*
X4572000D02*
D03*
X4826000D02*
D03*
X5080000D02*
D03*
X5334000D02*
D03*
X5588000D02*
D03*
X5842000D02*
D03*
X6096000D02*
D03*
X6350000D02*
D03*
X6604000D02*
D03*
X6858000D02*
D03*
X7112000D02*
D03*
X7366000D02*
D03*
X7620000D02*
D03*
X2032000Y4996500D02*
D03*
X2286000D02*
D03*
X2540000D02*
D03*
X2794000D02*
D03*
X3048000D02*
D03*
X3302000D02*
D03*
X3556000D02*
D03*
X3810000D02*
D03*
X4064000D02*
D03*
X4318000D02*
D03*
X4572000D02*
D03*
X4826000D02*
D03*
X5080000D02*
D03*
X5334000D02*
D03*
X5588000D02*
D03*
X5842000D02*
D03*
X6096000D02*
D03*
X6350000D02*
D03*
X6604000D02*
D03*
X6858000D02*
D03*
X7112000D02*
D03*
X7366000D02*
D03*
X7620000D02*
D03*
X2032000Y5290500D02*
D03*
X2286000D02*
D03*
X2540000D02*
D03*
X2794000D02*
D03*
X3048000D02*
D03*
X3302000D02*
D03*
X3556000D02*
D03*
X3810000D02*
D03*
X4064000D02*
D03*
X4318000D02*
D03*
X4572000D02*
D03*
X4826000D02*
D03*
X5080000D02*
D03*
X5334000D02*
D03*
X5588000D02*
D03*
X5842000D02*
D03*
X6096000D02*
D03*
X6350000D02*
D03*
X6604000D02*
D03*
X6858000D02*
D03*
X7112000D02*
D03*
X7366000D02*
D03*
X7620000D02*
D03*
D106*
X1460500Y5143500D02*
D03*
%TF.MD5,881c609adf0be8413f9550b78b6bf26c*%
M02*
