%TF.GenerationSoftware,Altium Limited,Altium Designer,23.9.2 (47)*%
G04 Layer_Color=8388736*
%FSLAX45Y45*%
%MOMM*%
%TF.SameCoordinates,F1AFF133-CB08-443C-B5AD-2193434A7FAF*%
%TF.FilePolarity,Negative*%
%TF.FileFunction,Soldermask,Top*%
%TF.Part,Single*%
G01*
G75*
%TA.AperFunction,SMDPad,CuDef*%
G04:AMPARAMS|DCode=123|XSize=1.73mm|YSize=1.33mm|CornerRadius=0.3525mm|HoleSize=0mm|Usage=FLASHONLY|Rotation=180.000|XOffset=0mm|YOffset=0mm|HoleType=Round|Shape=RoundedRectangle|*
%AMROUNDEDRECTD123*
21,1,1.73000,0.62500,0,0,180.0*
21,1,1.02500,1.33000,0,0,180.0*
1,1,0.70500,-0.51250,0.31250*
1,1,0.70500,0.51250,0.31250*
1,1,0.70500,0.51250,-0.31250*
1,1,0.70500,-0.51250,-0.31250*
%
%ADD123ROUNDEDRECTD123*%
%TA.AperFunction,ComponentPad*%
G04:AMPARAMS|DCode=125|XSize=1.78mm|YSize=2.18mm|CornerRadius=0.465mm|HoleSize=0mm|Usage=FLASHONLY|Rotation=270.000|XOffset=0mm|YOffset=0mm|HoleType=Round|Shape=RoundedRectangle|*
%AMROUNDEDRECTD125*
21,1,1.78000,1.25001,0,0,270.0*
21,1,0.85000,2.18000,0,0,270.0*
1,1,0.93000,-0.62500,-0.42500*
1,1,0.93000,-0.62500,0.42500*
1,1,0.93000,0.62500,0.42500*
1,1,0.93000,0.62500,-0.42500*
%
%ADD125ROUNDEDRECTD125*%
G04:AMPARAMS|DCode=126|XSize=1.78mm|YSize=2.18mm|CornerRadius=0mm|HoleSize=0mm|Usage=FLASHONLY|Rotation=270.000|XOffset=0mm|YOffset=0mm|HoleType=Round|Shape=Octagon|*
%AMOCTAGOND126*
4,1,8,1.09000,0.44500,1.09000,-0.44500,0.64500,-0.89000,-0.64500,-0.89000,-1.09000,-0.44500,-1.09000,0.44500,-0.64500,0.89000,0.64500,0.89000,1.09000,0.44500,0.0*
%
%ADD126OCTAGOND126*%

G04:AMPARAMS|DCode=127|XSize=1.78mm|YSize=2.18mm|CornerRadius=0mm|HoleSize=0mm|Usage=FLASHONLY|Rotation=0.000|XOffset=0mm|YOffset=0mm|HoleType=Round|Shape=Octagon|*
%AMOCTAGOND127*
4,1,8,-0.44500,1.09000,0.44500,1.09000,0.89000,0.64500,0.89000,-0.64500,0.44500,-1.09000,-0.44500,-1.09000,-0.89000,-0.64500,-0.89000,0.64500,-0.44500,1.09000,0.0*
%
%ADD127OCTAGOND127*%

G04:AMPARAMS|DCode=128|XSize=1.78mm|YSize=2.18mm|CornerRadius=0.465mm|HoleSize=0mm|Usage=FLASHONLY|Rotation=0.000|XOffset=0mm|YOffset=0mm|HoleType=Round|Shape=RoundedRectangle|*
%AMROUNDEDRECTD128*
21,1,1.78000,1.25001,0,0,0.0*
21,1,0.85000,2.18000,0,0,0.0*
1,1,0.93000,0.42500,-0.62500*
1,1,0.93000,-0.42500,-0.62500*
1,1,0.93000,-0.42500,0.62500*
1,1,0.93000,0.42500,0.62500*
%
%ADD128ROUNDEDRECTD128*%
G04:AMPARAMS|DCode=129|XSize=1.88mm|YSize=1.53mm|CornerRadius=0.4025mm|HoleSize=0mm|Usage=FLASHONLY|Rotation=180.000|XOffset=0mm|YOffset=0mm|HoleType=Round|Shape=RoundedRectangle|*
%AMROUNDEDRECTD129*
21,1,1.88000,0.72500,0,0,180.0*
21,1,1.07500,1.53000,0,0,180.0*
1,1,0.80500,-0.53750,0.36250*
1,1,0.80500,0.53750,0.36250*
1,1,0.80500,0.53750,-0.36250*
1,1,0.80500,-0.53750,-0.36250*
%
%ADD129ROUNDEDRECTD129*%
G04:AMPARAMS|DCode=130|XSize=4.08mm|YSize=3.68mm|CornerRadius=0.58mm|HoleSize=0mm|Usage=FLASHONLY|Rotation=0.000|XOffset=0mm|YOffset=0mm|HoleType=Round|Shape=RoundedRectangle|*
%AMROUNDEDRECTD130*
21,1,4.08000,2.52000,0,0,0.0*
21,1,2.92000,3.68000,0,0,0.0*
1,1,1.16000,1.46000,-1.26000*
1,1,1.16000,-1.46000,-1.26000*
1,1,1.16000,-1.46000,1.26000*
1,1,1.16000,1.46000,1.26000*
%
%ADD130ROUNDEDRECTD130*%
G04:AMPARAMS|DCode=131|XSize=2.28mm|YSize=2.28mm|CornerRadius=0.59mm|HoleSize=0mm|Usage=FLASHONLY|Rotation=270.000|XOffset=0mm|YOffset=0mm|HoleType=Round|Shape=RoundedRectangle|*
%AMROUNDEDRECTD131*
21,1,2.28000,1.10000,0,0,270.0*
21,1,1.10000,2.28000,0,0,270.0*
1,1,1.18000,-0.55000,-0.55000*
1,1,1.18000,-0.55000,0.55000*
1,1,1.18000,0.55000,0.55000*
1,1,1.18000,0.55000,-0.55000*
%
%ADD131ROUNDEDRECTD131*%
G04:AMPARAMS|DCode=132|XSize=2.28mm|YSize=2.28mm|CornerRadius=0mm|HoleSize=0mm|Usage=FLASHONLY|Rotation=270.000|XOffset=0mm|YOffset=0mm|HoleType=Round|Shape=Octagon|*
%AMOCTAGOND132*
4,1,8,-0.57000,-1.14000,0.57000,-1.14000,1.14000,-0.57000,1.14000,0.57000,0.57000,1.14000,-0.57000,1.14000,-1.14000,0.57000,-1.14000,-0.57000,-0.57000,-1.14000,0.0*
%
%ADD132OCTAGOND132*%

%TA.AperFunction,SMDPad,CuDef*%
G04:AMPARAMS|DCode=600|XSize=2.88mm|YSize=1.38mm|CornerRadius=0.365mm|HoleSize=0mm|Usage=FLASHONLY|Rotation=90.000|XOffset=0mm|YOffset=0mm|HoleType=Round|Shape=RoundedRectangle|*
%AMROUNDEDRECTD600*
21,1,2.88000,0.65000,0,0,90.0*
21,1,2.15000,1.38000,0,0,90.0*
1,1,0.73000,0.32500,1.07500*
1,1,0.73000,0.32500,-1.07500*
1,1,0.73000,-0.32500,-1.07500*
1,1,0.73000,-0.32500,1.07500*
%
%ADD600ROUNDEDRECTD600*%
G04:AMPARAMS|DCode=601|XSize=1.73mm|YSize=1.33mm|CornerRadius=0.3525mm|HoleSize=0mm|Usage=FLASHONLY|Rotation=90.000|XOffset=0mm|YOffset=0mm|HoleType=Round|Shape=RoundedRectangle|*
%AMROUNDEDRECTD601*
21,1,1.73000,0.62500,0,0,90.0*
21,1,1.02500,1.33000,0,0,90.0*
1,1,0.70500,0.31250,0.51250*
1,1,0.70500,0.31250,-0.51250*
1,1,0.70500,-0.31250,-0.51250*
1,1,0.70500,-0.31250,0.51250*
%
%ADD601ROUNDEDRECTD601*%
G04:AMPARAMS|DCode=602|XSize=0.68mm|YSize=0.68mm|CornerRadius=0.19mm|HoleSize=0mm|Usage=FLASHONLY|Rotation=180.000|XOffset=0mm|YOffset=0mm|HoleType=Round|Shape=RoundedRectangle|*
%AMROUNDEDRECTD602*
21,1,0.68000,0.30000,0,0,180.0*
21,1,0.30000,0.68000,0,0,180.0*
1,1,0.38000,-0.15000,0.15000*
1,1,0.38000,0.15000,0.15000*
1,1,0.38000,0.15000,-0.15000*
1,1,0.38000,-0.15000,-0.15000*
%
%ADD602ROUNDEDRECTD602*%
G04:AMPARAMS|DCode=603|XSize=0.68mm|YSize=0.68mm|CornerRadius=0.19mm|HoleSize=0mm|Usage=FLASHONLY|Rotation=270.000|XOffset=0mm|YOffset=0mm|HoleType=Round|Shape=RoundedRectangle|*
%AMROUNDEDRECTD603*
21,1,0.68000,0.30000,0,0,270.0*
21,1,0.30000,0.68000,0,0,270.0*
1,1,0.38000,-0.15000,-0.15000*
1,1,0.38000,-0.15000,0.15000*
1,1,0.38000,0.15000,0.15000*
1,1,0.38000,0.15000,-0.15000*
%
%ADD603ROUNDEDRECTD603*%
%ADD604R,0.66000X0.30000*%
G04:AMPARAMS|DCode=605|XSize=0.3mm|YSize=0.66mm|CornerRadius=0.095mm|HoleSize=0mm|Usage=FLASHONLY|Rotation=90.000|XOffset=0mm|YOffset=0mm|HoleType=Round|Shape=RoundedRectangle|*
%AMROUNDEDRECTD605*
21,1,0.30000,0.47000,0,0,90.0*
21,1,0.11000,0.66000,0,0,90.0*
1,1,0.19000,0.23500,0.05500*
1,1,0.19000,0.23500,-0.05500*
1,1,0.19000,-0.23500,-0.05500*
1,1,0.19000,-0.23500,0.05500*
%
%ADD605ROUNDEDRECTD605*%
G04:AMPARAMS|DCode=606|XSize=0.6mm|YSize=0.28mm|CornerRadius=0mm|HoleSize=0mm|Usage=FLASHONLY|Rotation=315.000|XOffset=0mm|YOffset=0mm|HoleType=Round|Shape=Round|*
%AMOVALD606*
21,1,0.32000,0.28000,0.00000,0.00000,315.0*
1,1,0.28000,-0.11314,0.11314*
1,1,0.28000,0.11314,-0.11314*
%
%ADD606OVALD606*%

%ADD607O,0.28000X0.51000*%
G04:AMPARAMS|DCode=608|XSize=0.6mm|YSize=0.28mm|CornerRadius=0mm|HoleSize=0mm|Usage=FLASHONLY|Rotation=225.000|XOffset=0mm|YOffset=0mm|HoleType=Round|Shape=Round|*
%AMOVALD608*
21,1,0.32000,0.28000,0.00000,0.00000,225.0*
1,1,0.28000,0.11314,0.11314*
1,1,0.28000,-0.11314,-0.11314*
%
%ADD608OVALD608*%

%ADD609O,0.51000X0.28000*%
G04:AMPARAMS|DCode=610|XSize=0.63mm|YSize=0.88mm|CornerRadius=0.1775mm|HoleSize=0mm|Usage=FLASHONLY|Rotation=0.000|XOffset=0mm|YOffset=0mm|HoleType=Round|Shape=RoundedRectangle|*
%AMROUNDEDRECTD610*
21,1,0.63000,0.52500,0,0,0.0*
21,1,0.27500,0.88000,0,0,0.0*
1,1,0.35500,0.13750,-0.26250*
1,1,0.35500,-0.13750,-0.26250*
1,1,0.35500,-0.13750,0.26250*
1,1,0.35500,0.13750,0.26250*
%
%ADD610ROUNDEDRECTD610*%
G04:AMPARAMS|DCode=611|XSize=0.29mm|YSize=0.73mm|CornerRadius=0.0875mm|HoleSize=0mm|Usage=FLASHONLY|Rotation=90.000|XOffset=0mm|YOffset=0mm|HoleType=Round|Shape=RoundedRectangle|*
%AMROUNDEDRECTD611*
21,1,0.29000,0.55500,0,0,90.0*
21,1,0.11500,0.73000,0,0,90.0*
1,1,0.17500,0.27750,0.05750*
1,1,0.17500,0.27750,-0.05750*
1,1,0.17500,-0.27750,-0.05750*
1,1,0.17500,-0.27750,0.05750*
%
%ADD611ROUNDEDRECTD611*%
G04:AMPARAMS|DCode=612|XSize=0.29mm|YSize=0.73mm|CornerRadius=0.0875mm|HoleSize=0mm|Usage=FLASHONLY|Rotation=0.000|XOffset=0mm|YOffset=0mm|HoleType=Round|Shape=RoundedRectangle|*
%AMROUNDEDRECTD612*
21,1,0.29000,0.55500,0,0,0.0*
21,1,0.11500,0.73000,0,0,0.0*
1,1,0.17500,0.05750,-0.27750*
1,1,0.17500,-0.05750,-0.27750*
1,1,0.17500,-0.05750,0.27750*
1,1,0.17500,0.05750,0.27750*
%
%ADD612ROUNDEDRECTD612*%
G04:AMPARAMS|DCode=613|XSize=1.06mm|YSize=1.56mm|CornerRadius=0.28mm|HoleSize=0mm|Usage=FLASHONLY|Rotation=0.000|XOffset=0mm|YOffset=0mm|HoleType=Round|Shape=RoundedRectangle|*
%AMROUNDEDRECTD613*
21,1,1.06000,1.00000,0,0,0.0*
21,1,0.50000,1.56000,0,0,0.0*
1,1,0.56000,0.25000,-0.50000*
1,1,0.56000,-0.25000,-0.50000*
1,1,0.56000,-0.25000,0.50000*
1,1,0.56000,0.25000,0.50000*
%
%ADD613ROUNDEDRECTD613*%
G04:AMPARAMS|DCode=614|XSize=0.29mm|YSize=0.76mm|CornerRadius=0.0875mm|HoleSize=0mm|Usage=FLASHONLY|Rotation=90.000|XOffset=0mm|YOffset=0mm|HoleType=Round|Shape=RoundedRectangle|*
%AMROUNDEDRECTD614*
21,1,0.29000,0.58500,0,0,90.0*
21,1,0.11500,0.76000,0,0,90.0*
1,1,0.17500,0.29250,0.05750*
1,1,0.17500,0.29250,-0.05750*
1,1,0.17500,-0.29250,-0.05750*
1,1,0.17500,-0.29250,0.05750*
%
%ADD614ROUNDEDRECTD614*%
G04:AMPARAMS|DCode=615|XSize=2.56mm|YSize=1.71mm|CornerRadius=0.195mm|HoleSize=0mm|Usage=FLASHONLY|Rotation=90.000|XOffset=0mm|YOffset=0mm|HoleType=Round|Shape=RoundedRectangle|*
%AMROUNDEDRECTD615*
21,1,2.56000,1.32000,0,0,90.0*
21,1,2.17000,1.71000,0,0,90.0*
1,1,0.39000,0.66000,1.08500*
1,1,0.39000,0.66000,-1.08500*
1,1,0.39000,-0.66000,-1.08500*
1,1,0.39000,-0.66000,1.08500*
%
%ADD615ROUNDEDRECTD615*%
%ADD616R,0.76000X0.29000*%
%ADD617R,1.21000X0.41000*%
G04:AMPARAMS|DCode=618|XSize=0.41mm|YSize=1.21mm|CornerRadius=0.1175mm|HoleSize=0mm|Usage=FLASHONLY|Rotation=90.000|XOffset=0mm|YOffset=0mm|HoleType=Round|Shape=RoundedRectangle|*
%AMROUNDEDRECTD618*
21,1,0.41000,0.97500,0,0,90.0*
21,1,0.17500,1.21000,0,0,90.0*
1,1,0.23500,0.48750,0.08750*
1,1,0.23500,0.48750,-0.08750*
1,1,0.23500,-0.48750,-0.08750*
1,1,0.23500,-0.48750,0.08750*
%
%ADD618ROUNDEDRECTD618*%
G04:AMPARAMS|DCode=619|XSize=0.63mm|YSize=0.98mm|CornerRadius=0.1775mm|HoleSize=0mm|Usage=FLASHONLY|Rotation=90.000|XOffset=0mm|YOffset=0mm|HoleType=Round|Shape=RoundedRectangle|*
%AMROUNDEDRECTD619*
21,1,0.63000,0.62500,0,0,90.0*
21,1,0.27500,0.98000,0,0,90.0*
1,1,0.35500,0.31250,0.13750*
1,1,0.35500,0.31250,-0.13750*
1,1,0.35500,-0.31250,-0.13750*
1,1,0.35500,-0.31250,0.13750*
%
%ADD619ROUNDEDRECTD619*%
%ADD620R,0.98000X0.63000*%
G04:AMPARAMS|DCode=621|XSize=0.63mm|YSize=0.98mm|CornerRadius=0.1775mm|HoleSize=0mm|Usage=FLASHONLY|Rotation=0.000|XOffset=0mm|YOffset=0mm|HoleType=Round|Shape=RoundedRectangle|*
%AMROUNDEDRECTD621*
21,1,0.63000,0.62500,0,0,0.0*
21,1,0.27500,0.98000,0,0,0.0*
1,1,0.35500,0.13750,-0.31250*
1,1,0.35500,-0.13750,-0.31250*
1,1,0.35500,-0.13750,0.31250*
1,1,0.35500,0.13750,0.31250*
%
%ADD621ROUNDEDRECTD621*%
%ADD622R,0.63000X0.98000*%
G04:AMPARAMS|DCode=623|XSize=1.46mm|YSize=1.36mm|CornerRadius=0.355mm|HoleSize=0mm|Usage=FLASHONLY|Rotation=90.000|XOffset=0mm|YOffset=0mm|HoleType=Round|Shape=RoundedRectangle|*
%AMROUNDEDRECTD623*
21,1,1.46000,0.65000,0,0,90.0*
21,1,0.75000,1.36000,0,0,90.0*
1,1,0.71000,0.32500,0.37500*
1,1,0.71000,0.32500,-0.37500*
1,1,0.71000,-0.32500,-0.37500*
1,1,0.71000,-0.32500,0.37500*
%
%ADD623ROUNDEDRECTD623*%
%ADD624R,0.78000X0.41000*%
G04:AMPARAMS|DCode=625|XSize=0.41mm|YSize=0.78mm|CornerRadius=0.1225mm|HoleSize=0mm|Usage=FLASHONLY|Rotation=270.000|XOffset=0mm|YOffset=0mm|HoleType=Round|Shape=RoundedRectangle|*
%AMROUNDEDRECTD625*
21,1,0.41000,0.53500,0,0,270.0*
21,1,0.16500,0.78000,0,0,270.0*
1,1,0.24500,-0.26750,-0.08250*
1,1,0.24500,-0.26750,0.08250*
1,1,0.24500,0.26750,0.08250*
1,1,0.24500,0.26750,-0.08250*
%
%ADD625ROUNDEDRECTD625*%
%ADD626R,0.30000X0.75000*%
G04:AMPARAMS|DCode=627|XSize=0.3mm|YSize=0.75mm|CornerRadius=0.0875mm|HoleSize=0mm|Usage=FLASHONLY|Rotation=0.000|XOffset=0mm|YOffset=0mm|HoleType=Round|Shape=RoundedRectangle|*
%AMROUNDEDRECTD627*
21,1,0.30000,0.57500,0,0,0.0*
21,1,0.12500,0.75000,0,0,0.0*
1,1,0.17500,0.06250,-0.28750*
1,1,0.17500,-0.06250,-0.28750*
1,1,0.17500,-0.06250,0.28750*
1,1,0.17500,0.06250,0.28750*
%
%ADD627ROUNDEDRECTD627*%
G04:AMPARAMS|DCode=628|XSize=0.63mm|YSize=0.88mm|CornerRadius=0.1775mm|HoleSize=0mm|Usage=FLASHONLY|Rotation=270.000|XOffset=0mm|YOffset=0mm|HoleType=Round|Shape=RoundedRectangle|*
%AMROUNDEDRECTD628*
21,1,0.63000,0.52500,0,0,270.0*
21,1,0.27500,0.88000,0,0,270.0*
1,1,0.35500,-0.26250,-0.13750*
1,1,0.35500,-0.26250,0.13750*
1,1,0.35500,0.26250,0.13750*
1,1,0.35500,0.26250,-0.13750*
%
%ADD628ROUNDEDRECTD628*%
%ADD629R,1.26000X0.41000*%
G04:AMPARAMS|DCode=630|XSize=0.41mm|YSize=1.26mm|CornerRadius=0.1175mm|HoleSize=0mm|Usage=FLASHONLY|Rotation=90.000|XOffset=0mm|YOffset=0mm|HoleType=Round|Shape=RoundedRectangle|*
%AMROUNDEDRECTD630*
21,1,0.41000,1.02500,0,0,90.0*
21,1,0.17500,1.26000,0,0,90.0*
1,1,0.23500,0.51250,0.08750*
1,1,0.23500,0.51250,-0.08750*
1,1,0.23500,-0.51250,-0.08750*
1,1,0.23500,-0.51250,0.08750*
%
%ADD630ROUNDEDRECTD630*%
G04:AMPARAMS|DCode=631|XSize=2.61mm|YSize=1.16mm|CornerRadius=0.305mm|HoleSize=0mm|Usage=FLASHONLY|Rotation=90.000|XOffset=0mm|YOffset=0mm|HoleType=Round|Shape=RoundedRectangle|*
%AMROUNDEDRECTD631*
21,1,2.61000,0.55000,0,0,90.0*
21,1,2.00000,1.16000,0,0,90.0*
1,1,0.61000,0.27500,1.00000*
1,1,0.61000,0.27500,-1.00000*
1,1,0.61000,-0.27500,-1.00000*
1,1,0.61000,-0.27500,1.00000*
%
%ADD631ROUNDEDRECTD631*%
G04:AMPARAMS|DCode=632|XSize=0.29mm|YSize=0.91mm|CornerRadius=0.0875mm|HoleSize=0mm|Usage=FLASHONLY|Rotation=90.000|XOffset=0mm|YOffset=0mm|HoleType=Round|Shape=RoundedRectangle|*
%AMROUNDEDRECTD632*
21,1,0.29000,0.73500,0,0,90.0*
21,1,0.11500,0.91000,0,0,90.0*
1,1,0.17500,0.36750,0.05750*
1,1,0.17500,0.36750,-0.05750*
1,1,0.17500,-0.36750,-0.05750*
1,1,0.17500,-0.36750,0.05750*
%
%ADD632ROUNDEDRECTD632*%
%ADD633R,0.91000X0.29000*%
%ADD634R,0.41000X1.21000*%
G04:AMPARAMS|DCode=635|XSize=0.41mm|YSize=1.21mm|CornerRadius=0.1175mm|HoleSize=0mm|Usage=FLASHONLY|Rotation=180.000|XOffset=0mm|YOffset=0mm|HoleType=Round|Shape=RoundedRectangle|*
%AMROUNDEDRECTD635*
21,1,0.41000,0.97500,0,0,180.0*
21,1,0.17500,1.21000,0,0,180.0*
1,1,0.23500,-0.08750,0.48750*
1,1,0.23500,0.08750,0.48750*
1,1,0.23500,0.08750,-0.48750*
1,1,0.23500,-0.08750,-0.48750*
%
%ADD635ROUNDEDRECTD635*%
G04:AMPARAMS|DCode=636|XSize=2.61mm|YSize=1.16mm|CornerRadius=0.305mm|HoleSize=0mm|Usage=FLASHONLY|Rotation=0.000|XOffset=0mm|YOffset=0mm|HoleType=Round|Shape=RoundedRectangle|*
%AMROUNDEDRECTD636*
21,1,2.61000,0.55000,0,0,0.0*
21,1,2.00000,1.16000,0,0,0.0*
1,1,0.61000,1.00000,-0.27500*
1,1,0.61000,-1.00000,-0.27500*
1,1,0.61000,-1.00000,0.27500*
1,1,0.61000,1.00000,0.27500*
%
%ADD636ROUNDEDRECTD636*%
G04:AMPARAMS|DCode=637|XSize=0.29mm|YSize=0.91mm|CornerRadius=0.0875mm|HoleSize=0mm|Usage=FLASHONLY|Rotation=0.000|XOffset=0mm|YOffset=0mm|HoleType=Round|Shape=RoundedRectangle|*
%AMROUNDEDRECTD637*
21,1,0.29000,0.73500,0,0,0.0*
21,1,0.11500,0.91000,0,0,0.0*
1,1,0.17500,0.05750,-0.36750*
1,1,0.17500,-0.05750,-0.36750*
1,1,0.17500,-0.05750,0.36750*
1,1,0.17500,0.05750,0.36750*
%
%ADD637ROUNDEDRECTD637*%
%ADD638R,0.29000X0.91000*%
%ADD639O,0.88000X0.68000*%
%ADD640O,0.68000X0.88000*%
G04:AMPARAMS|DCode=641|XSize=0.68mm|YSize=0.78mm|CornerRadius=0.19mm|HoleSize=0mm|Usage=FLASHONLY|Rotation=0.000|XOffset=0mm|YOffset=0mm|HoleType=Round|Shape=RoundedRectangle|*
%AMROUNDEDRECTD641*
21,1,0.68000,0.40000,0,0,0.0*
21,1,0.30000,0.78000,0,0,0.0*
1,1,0.38000,0.15000,-0.20000*
1,1,0.38000,-0.15000,-0.20000*
1,1,0.38000,-0.15000,0.20000*
1,1,0.38000,0.15000,0.20000*
%
%ADD641ROUNDEDRECTD641*%
%ADD642O,1.78000X0.38000*%
%ADD643R,0.54000X1.00000*%
%ADD644O,0.38000X1.78000*%
%ADD645R,1.00000X0.54000*%
G04:AMPARAMS|DCode=646|XSize=1.88mm|YSize=0.71mm|CornerRadius=0.1975mm|HoleSize=0mm|Usage=FLASHONLY|Rotation=180.000|XOffset=0mm|YOffset=0mm|HoleType=Round|Shape=RoundedRectangle|*
%AMROUNDEDRECTD646*
21,1,1.88000,0.31500,0,0,180.0*
21,1,1.48500,0.71000,0,0,180.0*
1,1,0.39500,-0.74250,0.15750*
1,1,0.39500,0.74250,0.15750*
1,1,0.39500,0.74250,-0.15750*
1,1,0.39500,-0.74250,-0.15750*
%
%ADD646ROUNDEDRECTD646*%
G04:AMPARAMS|DCode=647|XSize=1.88mm|YSize=0.8mm|CornerRadius=0.22mm|HoleSize=0mm|Usage=FLASHONLY|Rotation=180.000|XOffset=0mm|YOffset=0mm|HoleType=Round|Shape=RoundedRectangle|*
%AMROUNDEDRECTD647*
21,1,1.88000,0.36000,0,0,180.0*
21,1,1.44000,0.80000,0,0,180.0*
1,1,0.44000,-0.72000,0.18000*
1,1,0.44000,0.72000,0.18000*
1,1,0.44000,0.72000,-0.18000*
1,1,0.44000,-0.72000,-0.18000*
%
%ADD647ROUNDEDRECTD647*%
G04:AMPARAMS|DCode=648|XSize=1.88mm|YSize=0.88mm|CornerRadius=0.24mm|HoleSize=0mm|Usage=FLASHONLY|Rotation=180.000|XOffset=0mm|YOffset=0mm|HoleType=Round|Shape=RoundedRectangle|*
%AMROUNDEDRECTD648*
21,1,1.88000,0.40000,0,0,180.0*
21,1,1.40000,0.88000,0,0,180.0*
1,1,0.48000,-0.70000,0.20000*
1,1,0.48000,0.70000,0.20000*
1,1,0.48000,0.70000,-0.20000*
1,1,0.48000,-0.70000,-0.20000*
%
%ADD648ROUNDEDRECTD648*%
G04:AMPARAMS|DCode=649|XSize=3.08mm|YSize=1.08mm|CornerRadius=0.29mm|HoleSize=0mm|Usage=FLASHONLY|Rotation=90.000|XOffset=0mm|YOffset=0mm|HoleType=Round|Shape=RoundedRectangle|*
%AMROUNDEDRECTD649*
21,1,3.08000,0.50000,0,0,90.0*
21,1,2.50000,1.08000,0,0,90.0*
1,1,0.58000,0.25000,1.25000*
1,1,0.58000,0.25000,-1.25000*
1,1,0.58000,-0.25000,-1.25000*
1,1,0.58000,-0.25000,1.25000*
%
%ADD649ROUNDEDRECTD649*%
%TA.AperFunction,SMDPad,SMDef*%
G04:AMPARAMS|DCode=650|XSize=3.6mm|YSize=0.8mm|CornerRadius=0.15mm|HoleSize=0mm|Usage=FLASHONLY|Rotation=90.000|XOffset=0mm|YOffset=0mm|HoleType=Round|Shape=RoundedRectangle|*
%AMROUNDEDRECTD650*
21,1,3.60000,0.50000,0,0,90.0*
21,1,3.30000,0.80000,0,0,90.0*
1,1,0.30000,0.25000,1.65000*
1,1,0.30000,0.25000,-1.65000*
1,1,0.30000,-0.25000,-1.65000*
1,1,0.30000,-0.25000,1.65000*
%
%ADD650ROUNDEDRECTD650*%
%TA.AperFunction,SMDPad,CuDef*%
G04:AMPARAMS|DCode=651|XSize=1.68mm|YSize=1.08mm|CornerRadius=0.29mm|HoleSize=0mm|Usage=FLASHONLY|Rotation=180.000|XOffset=0mm|YOffset=0mm|HoleType=Round|Shape=RoundedRectangle|*
%AMROUNDEDRECTD651*
21,1,1.68000,0.50000,0,0,180.0*
21,1,1.10000,1.08000,0,0,180.0*
1,1,0.58000,-0.55000,0.25000*
1,1,0.58000,0.55000,0.25000*
1,1,0.58000,0.55000,-0.25000*
1,1,0.58000,-0.55000,-0.25000*
%
%ADD651ROUNDEDRECTD651*%
G04:AMPARAMS|DCode=652|XSize=3.08mm|YSize=1.08mm|CornerRadius=0.29mm|HoleSize=0mm|Usage=FLASHONLY|Rotation=0.000|XOffset=0mm|YOffset=0mm|HoleType=Round|Shape=RoundedRectangle|*
%AMROUNDEDRECTD652*
21,1,3.08000,0.50000,0,0,0.0*
21,1,2.50000,1.08000,0,0,0.0*
1,1,0.58000,1.25000,-0.25000*
1,1,0.58000,-1.25000,-0.25000*
1,1,0.58000,-1.25000,0.25000*
1,1,0.58000,1.25000,0.25000*
%
%ADD652ROUNDEDRECTD652*%
%TA.AperFunction,SMDPad,SMDef*%
G04:AMPARAMS|DCode=653|XSize=3.596mm|YSize=0.796mm|CornerRadius=0.148mm|HoleSize=0mm|Usage=FLASHONLY|Rotation=0.000|XOffset=0mm|YOffset=0mm|HoleType=Round|Shape=RoundedRectangle|*
%AMROUNDEDRECTD653*
21,1,3.59600,0.50000,0,0,0.0*
21,1,3.30000,0.79600,0,0,0.0*
1,1,0.29600,1.65000,-0.25000*
1,1,0.29600,-1.65000,-0.25000*
1,1,0.29600,-1.65000,0.25000*
1,1,0.29600,1.65000,0.25000*
%
%ADD653ROUNDEDRECTD653*%
G04:AMPARAMS|DCode=654|XSize=3.6mm|YSize=0.8mm|CornerRadius=0.15mm|HoleSize=0mm|Usage=FLASHONLY|Rotation=0.000|XOffset=0mm|YOffset=0mm|HoleType=Round|Shape=RoundedRectangle|*
%AMROUNDEDRECTD654*
21,1,3.60000,0.50000,0,0,0.0*
21,1,3.30000,0.80000,0,0,0.0*
1,1,0.30000,1.65000,-0.25000*
1,1,0.30000,-1.65000,-0.25000*
1,1,0.30000,-1.65000,0.25000*
1,1,0.30000,1.65000,0.25000*
%
%ADD654ROUNDEDRECTD654*%
%TA.AperFunction,SMDPad,CuDef*%
G04:AMPARAMS|DCode=655|XSize=1.68mm|YSize=1.08mm|CornerRadius=0.29mm|HoleSize=0mm|Usage=FLASHONLY|Rotation=90.000|XOffset=0mm|YOffset=0mm|HoleType=Round|Shape=RoundedRectangle|*
%AMROUNDEDRECTD655*
21,1,1.68000,0.50000,0,0,90.0*
21,1,1.10000,1.08000,0,0,90.0*
1,1,0.58000,0.25000,0.55000*
1,1,0.58000,0.25000,-0.55000*
1,1,0.58000,-0.25000,-0.55000*
1,1,0.58000,-0.25000,0.55000*
%
%ADD655ROUNDEDRECTD655*%
G04:AMPARAMS|DCode=656|XSize=2.88mm|YSize=1.38mm|CornerRadius=0.365mm|HoleSize=0mm|Usage=FLASHONLY|Rotation=0.000|XOffset=0mm|YOffset=0mm|HoleType=Round|Shape=RoundedRectangle|*
%AMROUNDEDRECTD656*
21,1,2.88000,0.65000,0,0,0.0*
21,1,2.15000,1.38000,0,0,0.0*
1,1,0.73000,1.07500,-0.32500*
1,1,0.73000,-1.07500,-0.32500*
1,1,0.73000,-1.07500,0.32500*
1,1,0.73000,1.07500,0.32500*
%
%ADD656ROUNDEDRECTD656*%
G04:AMPARAMS|DCode=657|XSize=0.98mm|YSize=0.88mm|CornerRadius=0.24mm|HoleSize=0mm|Usage=FLASHONLY|Rotation=0.000|XOffset=0mm|YOffset=0mm|HoleType=Round|Shape=RoundedRectangle|*
%AMROUNDEDRECTD657*
21,1,0.98000,0.40000,0,0,0.0*
21,1,0.50000,0.88000,0,0,0.0*
1,1,0.48000,0.25000,-0.20000*
1,1,0.48000,-0.25000,-0.20000*
1,1,0.48000,-0.25000,0.20000*
1,1,0.48000,0.25000,0.20000*
%
%ADD657ROUNDEDRECTD657*%
G04:AMPARAMS|DCode=658|XSize=0.88mm|YSize=0.88mm|CornerRadius=0.24mm|HoleSize=0mm|Usage=FLASHONLY|Rotation=90.000|XOffset=0mm|YOffset=0mm|HoleType=Round|Shape=RoundedRectangle|*
%AMROUNDEDRECTD658*
21,1,0.88000,0.40000,0,0,90.0*
21,1,0.40000,0.88000,0,0,90.0*
1,1,0.48000,0.20000,0.20000*
1,1,0.48000,0.20000,-0.20000*
1,1,0.48000,-0.20000,-0.20000*
1,1,0.48000,-0.20000,0.20000*
%
%ADD658ROUNDEDRECTD658*%
%ADD659R,0.88000X0.88000*%
%ADD660R,0.58000X0.78000*%
G04:AMPARAMS|DCode=661|XSize=0.58mm|YSize=0.78mm|CornerRadius=0.165mm|HoleSize=0mm|Usage=FLASHONLY|Rotation=180.000|XOffset=0mm|YOffset=0mm|HoleType=Round|Shape=RoundedRectangle|*
%AMROUNDEDRECTD661*
21,1,0.58000,0.45000,0,0,180.0*
21,1,0.25000,0.78000,0,0,180.0*
1,1,0.33000,-0.12500,0.22500*
1,1,0.33000,0.12500,0.22500*
1,1,0.33000,0.12500,-0.22500*
1,1,0.33000,-0.12500,-0.22500*
%
%ADD661ROUNDEDRECTD661*%
%ADD662R,1.18000X1.18000*%
G04:AMPARAMS|DCode=663|XSize=1.18mm|YSize=1.18mm|CornerRadius=0.315mm|HoleSize=0mm|Usage=FLASHONLY|Rotation=180.000|XOffset=0mm|YOffset=0mm|HoleType=Round|Shape=RoundedRectangle|*
%AMROUNDEDRECTD663*
21,1,1.18000,0.55000,0,0,180.0*
21,1,0.55000,1.18000,0,0,180.0*
1,1,0.63000,-0.27500,0.27500*
1,1,0.63000,0.27500,0.27500*
1,1,0.63000,0.27500,-0.27500*
1,1,0.63000,-0.27500,-0.27500*
%
%ADD663ROUNDEDRECTD663*%
G04:AMPARAMS|DCode=664|XSize=0.88mm|YSize=0.88mm|CornerRadius=0.24mm|HoleSize=0mm|Usage=FLASHONLY|Rotation=180.000|XOffset=0mm|YOffset=0mm|HoleType=Round|Shape=RoundedRectangle|*
%AMROUNDEDRECTD664*
21,1,0.88000,0.40000,0,0,180.0*
21,1,0.40000,0.88000,0,0,180.0*
1,1,0.48000,-0.20000,0.20000*
1,1,0.48000,0.20000,0.20000*
1,1,0.48000,0.20000,-0.20000*
1,1,0.48000,-0.20000,-0.20000*
%
%ADD664ROUNDEDRECTD664*%
G36*
X2445784Y3073942D02*
X2446538Y3073713D01*
X2447233Y3073342D01*
X2447842Y3072842D01*
X2448342Y3072233D01*
X2448713Y3071538D01*
X2448942Y3070784D01*
X2449019Y3070000D01*
Y2995000D01*
X2448942Y2994216D01*
X2448713Y2993462D01*
X2448342Y2992767D01*
X2447842Y2992158D01*
X2447233Y2991658D01*
X2446538Y2991287D01*
X2445784Y2991058D01*
X2445000Y2990981D01*
X2275000D01*
X2274216Y2991058D01*
X2273462Y2991287D01*
X2272767Y2991658D01*
X2272158Y2992158D01*
X2271658Y2992767D01*
X2271287Y2993462D01*
X2271058Y2994216D01*
X2270981Y2995000D01*
Y3070000D01*
X2271058Y3070784D01*
X2271287Y3071538D01*
X2271658Y3072233D01*
X2272158Y3072842D01*
X2272767Y3073342D01*
X2273462Y3073713D01*
X2274216Y3073942D01*
X2275000Y3074019D01*
X2332511D01*
X2333295Y3073942D01*
X2334049Y3073713D01*
X2334744Y3073342D01*
X2335353Y3072842D01*
X2335853Y3072233D01*
X2336224Y3071538D01*
X2336453Y3070784D01*
X2336531Y3070000D01*
Y3014006D01*
X2383527D01*
Y3070000D01*
X2383604Y3070784D01*
X2383833Y3071538D01*
X2384204Y3072233D01*
X2384704Y3072842D01*
X2385313Y3073342D01*
X2386008Y3073713D01*
X2386762Y3073942D01*
X2387546Y3074019D01*
X2445000D01*
X2445784Y3073942D01*
D02*
G37*
G36*
Y3368942D02*
X2446538Y3368713D01*
X2447233Y3368342D01*
X2447842Y3367842D01*
X2448342Y3367233D01*
X2448713Y3366538D01*
X2448942Y3365784D01*
X2449019Y3365000D01*
Y3290000D01*
X2448942Y3289216D01*
X2448713Y3288462D01*
X2448342Y3287767D01*
X2447842Y3287158D01*
X2447233Y3286658D01*
X2446538Y3286287D01*
X2445784Y3286058D01*
X2445000Y3285981D01*
X2387505Y3285981D01*
X2386721Y3286058D01*
X2385967Y3286287D01*
X2385272Y3286659D01*
X2384663Y3287159D01*
X2384163Y3287768D01*
X2383792Y3288462D01*
X2383563Y3289216D01*
X2383486Y3290001D01*
X2383485Y3345986D01*
X2336522Y3345986D01*
X2336522Y3290000D01*
X2336445Y3289216D01*
X2336216Y3288462D01*
X2335845Y3287767D01*
X2335345Y3287158D01*
X2334736Y3286658D01*
X2334041Y3286287D01*
X2333287Y3286058D01*
X2332503Y3285981D01*
X2275000Y3285981D01*
X2274216Y3286058D01*
X2273462Y3286287D01*
X2272767Y3286658D01*
X2272158Y3287158D01*
X2271658Y3287767D01*
X2271287Y3288462D01*
X2271058Y3289216D01*
X2270981Y3290000D01*
Y3365000D01*
X2271058Y3365784D01*
X2271287Y3366538D01*
X2271658Y3367233D01*
X2272158Y3367842D01*
X2272767Y3368342D01*
X2273462Y3368713D01*
X2274216Y3368942D01*
X2275000Y3369019D01*
X2445000D01*
X2445784Y3368942D01*
D02*
G37*
G36*
X5990784Y4098942D02*
X5991538Y4098713D01*
X5992233Y4098342D01*
X5992842Y4097842D01*
X5993342Y4097233D01*
X5993713Y4096538D01*
X5993942Y4095784D01*
X5994019Y4095000D01*
X5994019Y4037505D01*
X5993942Y4036721D01*
X5993713Y4035967D01*
X5993341Y4035272D01*
X5992841Y4034663D01*
X5992232Y4034163D01*
X5991538Y4033792D01*
X5990784Y4033563D01*
X5989999Y4033486D01*
X5934014Y4033485D01*
X5934014Y3986522D01*
X5990000Y3986522D01*
X5990784Y3986445D01*
X5991538Y3986216D01*
X5992233Y3985845D01*
X5992842Y3985345D01*
X5993342Y3984736D01*
X5993713Y3984041D01*
X5993942Y3983287D01*
X5994019Y3982503D01*
X5994019Y3925000D01*
X5993942Y3924216D01*
X5993713Y3923462D01*
X5993342Y3922767D01*
X5992842Y3922158D01*
X5992233Y3921658D01*
X5991538Y3921287D01*
X5990784Y3921058D01*
X5990000Y3920981D01*
X5915000D01*
X5914216Y3921058D01*
X5913462Y3921287D01*
X5912767Y3921658D01*
X5912158Y3922158D01*
X5911658Y3922767D01*
X5911287Y3923462D01*
X5911058Y3924216D01*
X5910981Y3925000D01*
Y4095000D01*
X5911058Y4095784D01*
X5911287Y4096538D01*
X5911658Y4097233D01*
X5912158Y4097842D01*
X5912767Y4098342D01*
X5913462Y4098713D01*
X5914216Y4098942D01*
X5915000Y4099019D01*
X5990000D01*
X5990784Y4098942D01*
D02*
G37*
G36*
X6285784D02*
X6286538Y4098713D01*
X6287233Y4098342D01*
X6287842Y4097842D01*
X6288342Y4097233D01*
X6288713Y4096538D01*
X6288942Y4095784D01*
X6289019Y4095000D01*
Y3925000D01*
X6288942Y3924216D01*
X6288713Y3923462D01*
X6288342Y3922767D01*
X6287842Y3922158D01*
X6287233Y3921658D01*
X6286538Y3921287D01*
X6285784Y3921058D01*
X6285000Y3920981D01*
X6210000D01*
X6209216Y3921058D01*
X6208462Y3921287D01*
X6207767Y3921658D01*
X6207158Y3922158D01*
X6206658Y3922767D01*
X6206287Y3923462D01*
X6206058Y3924216D01*
X6205981Y3925000D01*
Y3982511D01*
X6206058Y3983295D01*
X6206287Y3984049D01*
X6206658Y3984744D01*
X6207158Y3985353D01*
X6207767Y3985853D01*
X6208462Y3986224D01*
X6209216Y3986453D01*
X6210000Y3986531D01*
X6265994D01*
Y4033527D01*
X6210000D01*
X6209216Y4033604D01*
X6208462Y4033833D01*
X6207767Y4034204D01*
X6207158Y4034704D01*
X6206658Y4035313D01*
X6206287Y4036008D01*
X6206058Y4036762D01*
X6205981Y4037546D01*
Y4095000D01*
X6206058Y4095784D01*
X6206287Y4096538D01*
X6206658Y4097233D01*
X6207158Y4097842D01*
X6207767Y4098342D01*
X6208462Y4098713D01*
X6209216Y4098942D01*
X6210000Y4099019D01*
X6285000D01*
X6285784Y4098942D01*
D02*
G37*
D123*
X4310000Y1460000D02*
D03*
Y1740000D02*
D03*
X4530000Y1290000D02*
D03*
Y1010000D02*
D03*
X4310000Y1290000D02*
D03*
Y1010000D02*
D03*
X4530000Y1460000D02*
D03*
Y1740000D02*
D03*
X4500000Y1940000D02*
D03*
Y2220000D02*
D03*
X4770000Y1290000D02*
D03*
Y1010000D02*
D03*
D125*
X8402000Y317500D02*
D03*
Y571500D02*
D03*
X8108000Y317500D02*
D03*
Y571500D02*
D03*
X8402000Y825500D02*
D03*
Y1079500D02*
D03*
Y1333500D02*
D03*
Y1587500D02*
D03*
Y1841500D02*
D03*
Y2095500D02*
D03*
Y2349500D02*
D03*
X8108000Y825500D02*
D03*
Y1079500D02*
D03*
Y1333500D02*
D03*
Y1587500D02*
D03*
Y1841500D02*
D03*
Y2095500D02*
D03*
X8402000Y3111500D02*
D03*
Y3365500D02*
D03*
X8108000Y3111500D02*
D03*
Y3365500D02*
D03*
X8402000Y3619500D02*
D03*
Y3873500D02*
D03*
Y4127500D02*
D03*
Y4381500D02*
D03*
Y4635500D02*
D03*
Y4889500D02*
D03*
Y5143500D02*
D03*
X8108000Y3619500D02*
D03*
Y3873500D02*
D03*
Y4127500D02*
D03*
Y4381500D02*
D03*
Y4635500D02*
D03*
Y4889500D02*
D03*
X2306000Y4512400D02*
D03*
Y4258400D02*
D03*
X2012000D02*
D03*
D126*
X8108000Y2349500D02*
D03*
Y5143500D02*
D03*
X2012000Y4512400D02*
D03*
D127*
X2032000Y170500D02*
D03*
Y4996500D02*
D03*
D128*
X2286000Y170500D02*
D03*
X2540000D02*
D03*
X2794000D02*
D03*
X3048000D02*
D03*
X3302000D02*
D03*
X3556000D02*
D03*
X3810000D02*
D03*
X4064000D02*
D03*
X4318000D02*
D03*
X4572000D02*
D03*
X4826000D02*
D03*
X5080000D02*
D03*
X5334000D02*
D03*
X5588000D02*
D03*
X5842000D02*
D03*
X6096000D02*
D03*
X6350000D02*
D03*
X6604000D02*
D03*
X6858000D02*
D03*
X7112000D02*
D03*
X7366000D02*
D03*
X7620000D02*
D03*
X2032000Y464500D02*
D03*
X2286000D02*
D03*
X2540000D02*
D03*
X2794000D02*
D03*
X3048000D02*
D03*
X3302000D02*
D03*
X3556000D02*
D03*
X3810000D02*
D03*
X4064000D02*
D03*
X4318000D02*
D03*
X4572000D02*
D03*
X4826000D02*
D03*
X5080000D02*
D03*
X5334000D02*
D03*
X5588000D02*
D03*
X5842000D02*
D03*
X6096000D02*
D03*
X6350000D02*
D03*
X6604000D02*
D03*
X6858000D02*
D03*
X7112000D02*
D03*
X7366000D02*
D03*
X7620000D02*
D03*
X2286000Y4996500D02*
D03*
X2540000D02*
D03*
X2794000D02*
D03*
X3048000D02*
D03*
X3302000D02*
D03*
X3556000D02*
D03*
X3810000D02*
D03*
X4064000D02*
D03*
X4318000D02*
D03*
X4572000D02*
D03*
X4826000D02*
D03*
X5080000D02*
D03*
X5334000D02*
D03*
X5588000D02*
D03*
X5842000D02*
D03*
X6096000D02*
D03*
X6350000D02*
D03*
X6604000D02*
D03*
X6858000D02*
D03*
X7112000D02*
D03*
X7366000D02*
D03*
X7620000D02*
D03*
X2032000Y5290500D02*
D03*
X2286000D02*
D03*
X2540000D02*
D03*
X2794000D02*
D03*
X3048000D02*
D03*
X3302000D02*
D03*
X3556000D02*
D03*
X3810000D02*
D03*
X4064000D02*
D03*
X4318000D02*
D03*
X4572000D02*
D03*
X4826000D02*
D03*
X5080000D02*
D03*
X5334000D02*
D03*
X5588000D02*
D03*
X5842000D02*
D03*
X6096000D02*
D03*
X6350000D02*
D03*
X6604000D02*
D03*
X6858000D02*
D03*
X7112000D02*
D03*
X7366000D02*
D03*
X7620000D02*
D03*
D129*
X1672000Y978000D02*
D03*
X1292000D02*
D03*
X1672000Y1842000D02*
D03*
X1292000D02*
D03*
D130*
X1460500Y5143500D02*
D03*
D131*
X1480000Y345000D02*
D03*
D132*
Y695000D02*
D03*
D600*
X3399998Y1070001D02*
D03*
X3629998D02*
D03*
X5315000Y1480000D02*
D03*
X5085000D02*
D03*
D601*
X5460000Y2330000D02*
D03*
X5180000D02*
D03*
X3820000Y1070000D02*
D03*
X4100000D02*
D03*
X3840000Y1740000D02*
D03*
X4120000D02*
D03*
X2720000Y1480000D02*
D03*
X2440000D02*
D03*
X2660000Y820000D02*
D03*
X2940000D02*
D03*
D602*
X6330000Y3540000D02*
D03*
Y3640000D02*
D03*
X2770000Y2970000D02*
D03*
Y3070000D02*
D03*
X2520000Y3240000D02*
D03*
Y3140000D02*
D03*
Y2960000D02*
D03*
Y2860000D02*
D03*
Y2760000D02*
D03*
Y2660000D02*
D03*
X5870000Y4240000D02*
D03*
Y4340000D02*
D03*
X5970000D02*
D03*
Y4240000D02*
D03*
X6470000Y4680000D02*
D03*
Y4780000D02*
D03*
X6350000D02*
D03*
Y4680000D02*
D03*
X6250000D02*
D03*
Y4780000D02*
D03*
X6150000D02*
D03*
Y4680000D02*
D03*
X6270000Y1230000D02*
D03*
Y1130000D02*
D03*
X7190000Y1220000D02*
D03*
Y1320000D02*
D03*
Y2030000D02*
D03*
Y1930000D02*
D03*
X7190000Y2210000D02*
D03*
Y2310000D02*
D03*
Y2510000D02*
D03*
Y2410000D02*
D03*
X7190000Y2680000D02*
D03*
Y2780000D02*
D03*
Y2980000D02*
D03*
Y2880000D02*
D03*
X3980000Y1480000D02*
D03*
Y1580000D02*
D03*
X3940000Y1220000D02*
D03*
Y1320000D02*
D03*
X4930000Y1060000D02*
D03*
Y960000D02*
D03*
Y1260000D02*
D03*
Y1160000D02*
D03*
X3560000Y4770000D02*
D03*
Y4670000D02*
D03*
X2180000Y2130000D02*
D03*
Y2230000D02*
D03*
X2580000Y1920000D02*
D03*
Y1820000D02*
D03*
X5190000Y4780000D02*
D03*
Y4680000D02*
D03*
X3330000Y4770000D02*
D03*
Y4670000D02*
D03*
X5300000Y4780000D02*
D03*
Y4680000D02*
D03*
X3430000Y4770000D02*
D03*
Y4670000D02*
D03*
X4320000Y781000D02*
D03*
Y681000D02*
D03*
X4430000Y781000D02*
D03*
Y681000D02*
D03*
X5970000Y4680000D02*
D03*
Y4780000D02*
D03*
X5870000Y4680000D02*
D03*
Y4780000D02*
D03*
X5950000Y780000D02*
D03*
Y680000D02*
D03*
X5840000Y780000D02*
D03*
Y680000D02*
D03*
X6750000Y4780000D02*
D03*
Y4680000D02*
D03*
X6850000Y4780000D02*
D03*
Y4680000D02*
D03*
X5730000Y780000D02*
D03*
Y680000D02*
D03*
X5620000Y780000D02*
D03*
Y680000D02*
D03*
X5510000D02*
D03*
Y780000D02*
D03*
X5400000D02*
D03*
Y680000D02*
D03*
X5540000Y4680000D02*
D03*
Y4780000D02*
D03*
X5290000Y780000D02*
D03*
Y680000D02*
D03*
X5180000Y780000D02*
D03*
Y680000D02*
D03*
X5430000Y4780000D02*
D03*
Y4680000D02*
D03*
X5000000Y780000D02*
D03*
Y680000D02*
D03*
X5650000Y4680000D02*
D03*
Y4780000D02*
D03*
X4890000Y780000D02*
D03*
Y680000D02*
D03*
X4060000Y780000D02*
D03*
Y680000D02*
D03*
X3930000Y681000D02*
D03*
Y781000D02*
D03*
X4240000Y4670000D02*
D03*
Y4770000D02*
D03*
X4140000D02*
D03*
Y4670000D02*
D03*
X3980000D02*
D03*
Y4770000D02*
D03*
X3870000D02*
D03*
Y4670000D02*
D03*
X3770000D02*
D03*
Y4770000D02*
D03*
X7670000Y4030000D02*
D03*
Y4130000D02*
D03*
X7770000Y4140000D02*
D03*
Y4240000D02*
D03*
X6370000Y890000D02*
D03*
Y790000D02*
D03*
X6270000D02*
D03*
Y890000D02*
D03*
X6370000Y1130000D02*
D03*
Y1230000D02*
D03*
X4200000Y680000D02*
D03*
Y780000D02*
D03*
X3790000Y680000D02*
D03*
Y780000D02*
D03*
X4780000Y680000D02*
D03*
Y780000D02*
D03*
X7290000Y1320000D02*
D03*
Y1220000D02*
D03*
Y1420000D02*
D03*
Y1520000D02*
D03*
X7190000D02*
D03*
Y1420000D02*
D03*
X7290000Y1830000D02*
D03*
Y1730000D02*
D03*
X7190000D02*
D03*
Y1830000D02*
D03*
X7290000Y1930000D02*
D03*
Y2030000D02*
D03*
X7290000Y2310000D02*
D03*
Y2210000D02*
D03*
Y2410000D02*
D03*
Y2510000D02*
D03*
X7290000Y2780000D02*
D03*
Y2680000D02*
D03*
Y2880000D02*
D03*
Y2980000D02*
D03*
X4400000Y3890000D02*
D03*
Y3990000D02*
D03*
X2880000Y4340000D02*
D03*
Y4240000D02*
D03*
X3470000Y3840000D02*
D03*
Y3940000D02*
D03*
X5290000Y3530000D02*
D03*
Y3430000D02*
D03*
Y3690000D02*
D03*
Y3790000D02*
D03*
X4720000Y3480000D02*
D03*
Y3580000D02*
D03*
X6040000Y2960000D02*
D03*
Y3060000D02*
D03*
X5890000Y3540000D02*
D03*
Y3640000D02*
D03*
X5770000Y4340000D02*
D03*
Y4240000D02*
D03*
X6310000D02*
D03*
Y4340000D02*
D03*
X5770000Y4040000D02*
D03*
Y4140000D02*
D03*
X6140000Y2960000D02*
D03*
Y3060000D02*
D03*
X2780000Y4340000D02*
D03*
Y4240000D02*
D03*
X5190000Y3430000D02*
D03*
Y3530000D02*
D03*
X6950000Y4780000D02*
D03*
Y4680000D02*
D03*
X2680000Y1820000D02*
D03*
Y1920000D02*
D03*
X7070000Y3810000D02*
D03*
Y3910000D02*
D03*
X6650000Y3800000D02*
D03*
Y3900000D02*
D03*
X7930000Y3190000D02*
D03*
Y3090000D02*
D03*
X7890000Y420000D02*
D03*
Y320000D02*
D03*
X7910000Y5070000D02*
D03*
Y4970000D02*
D03*
X3840000Y1220000D02*
D03*
Y1320000D02*
D03*
X4040000D02*
D03*
Y1220000D02*
D03*
X4150000Y1450000D02*
D03*
Y1350000D02*
D03*
X4650000Y2200000D02*
D03*
Y2100000D02*
D03*
X5430000Y1030000D02*
D03*
Y1130000D02*
D03*
X5320000Y2060000D02*
D03*
Y1960000D02*
D03*
X4650000Y2000000D02*
D03*
Y1900000D02*
D03*
X3660000Y4670000D02*
D03*
Y4770000D02*
D03*
X2630000Y2380000D02*
D03*
Y2280000D02*
D03*
X6000000Y2120000D02*
D03*
Y2220000D02*
D03*
Y2420000D02*
D03*
Y2320000D02*
D03*
X7870000Y4140000D02*
D03*
Y4240000D02*
D03*
X6650000Y3640000D02*
D03*
Y3540000D02*
D03*
X6300000Y2420000D02*
D03*
Y2320000D02*
D03*
X4400000Y4210000D02*
D03*
Y4310000D02*
D03*
X3220000Y2980000D02*
D03*
Y3080000D02*
D03*
X2770000Y3170000D02*
D03*
Y3270000D02*
D03*
X3370000Y3470000D02*
D03*
Y3570000D02*
D03*
X4430000D02*
D03*
Y3470000D02*
D03*
X2770000Y2770000D02*
D03*
Y2870000D02*
D03*
X3580000Y3850000D02*
D03*
Y3950000D02*
D03*
X3180000Y4240000D02*
D03*
Y4340000D02*
D03*
X3370000Y3940000D02*
D03*
Y3840000D02*
D03*
X5740000Y2710000D02*
D03*
Y2810000D02*
D03*
X5630000Y2710000D02*
D03*
Y2810000D02*
D03*
X5940000Y2960000D02*
D03*
Y3060000D02*
D03*
X6260000Y2960000D02*
D03*
Y3060000D02*
D03*
X6330000Y3260000D02*
D03*
Y3160000D02*
D03*
X4870000Y3580000D02*
D03*
Y3680000D02*
D03*
X5070000Y3600000D02*
D03*
Y3700000D02*
D03*
X4970000Y3600000D02*
D03*
Y3700000D02*
D03*
D603*
X6160000Y3850000D02*
D03*
X6260000D02*
D03*
X6060000D02*
D03*
X5960000D02*
D03*
X6200000Y4240000D02*
D03*
X6100000D02*
D03*
X6370000Y1650000D02*
D03*
X6270000D02*
D03*
X6370000Y1430000D02*
D03*
X6270000D02*
D03*
X6370000Y1900000D02*
D03*
X6270000D02*
D03*
X8150000Y2640000D02*
D03*
X8050000D02*
D03*
X8150000Y2740000D02*
D03*
X8050000D02*
D03*
X3780000Y1580000D02*
D03*
X3880000D02*
D03*
Y1480000D02*
D03*
X3780000D02*
D03*
X1930000Y1460000D02*
D03*
X2030000D02*
D03*
X3210000Y2030000D02*
D03*
X3110000D02*
D03*
X2190000Y2600000D02*
D03*
X2290000D02*
D03*
X2090000Y1150000D02*
D03*
X1990000D02*
D03*
X2190000Y2490000D02*
D03*
X2290000D02*
D03*
X2090000Y1250000D02*
D03*
X1990000D02*
D03*
X2860000Y2400000D02*
D03*
X2760000D02*
D03*
X2860000Y2300000D02*
D03*
X2760000D02*
D03*
Y2200000D02*
D03*
X2860000D02*
D03*
X3380000Y2320000D02*
D03*
X3480000D02*
D03*
X6200000D02*
D03*
X6100000D02*
D03*
X5820000Y1670000D02*
D03*
X5920000D02*
D03*
X6970000Y1180000D02*
D03*
X7070000D02*
D03*
X5820000Y1330000D02*
D03*
X5920000D02*
D03*
X6200000Y2420000D02*
D03*
X6100000D02*
D03*
X6970000Y1680000D02*
D03*
X7070000D02*
D03*
X5920000Y1020000D02*
D03*
X5820000D02*
D03*
X6370000Y1330000D02*
D03*
X6270000D02*
D03*
X5820000Y1430000D02*
D03*
X5920000D02*
D03*
X5820000Y1770000D02*
D03*
X5920000D02*
D03*
X6270000Y2000000D02*
D03*
X6370000D02*
D03*
X6770000Y2210000D02*
D03*
X6870000D02*
D03*
X6770000Y2410000D02*
D03*
X6870000D02*
D03*
X6770000Y2690000D02*
D03*
X6869999D02*
D03*
X6770000Y2880000D02*
D03*
X6869999D02*
D03*
X2930000Y2690000D02*
D03*
X3030000D02*
D03*
X3580000Y3430000D02*
D03*
X3680000D02*
D03*
X3520000Y3530000D02*
D03*
X3620000D02*
D03*
X4420000Y2960000D02*
D03*
X4320000D02*
D03*
X1930000Y1360000D02*
D03*
X2030000D02*
D03*
X3570000Y3670000D02*
D03*
X3670000D02*
D03*
X6710000Y3190000D02*
D03*
X6610000D02*
D03*
X3990000Y2700000D02*
D03*
X4090000D02*
D03*
X2810000Y3690000D02*
D03*
X2910000D02*
D03*
X2980000Y4340000D02*
D03*
X3080000D02*
D03*
X6200000Y4340000D02*
D03*
X6100000D02*
D03*
X3280000Y3800000D02*
D03*
X3180000D02*
D03*
X4320000Y2700000D02*
D03*
X4420000D02*
D03*
X6160000Y3740000D02*
D03*
X6060000D02*
D03*
X4790000Y3000000D02*
D03*
X4690000D02*
D03*
X5520000Y3290000D02*
D03*
X5620000D02*
D03*
X4700000Y4230000D02*
D03*
X4800000D02*
D03*
X4790000Y3130000D02*
D03*
X4690000D02*
D03*
X5060000Y4240000D02*
D03*
X4960000D02*
D03*
X5370000Y4010000D02*
D03*
X5470000D02*
D03*
X5670000D02*
D03*
X5570000D02*
D03*
X4010000Y3780000D02*
D03*
X3910000D02*
D03*
X3790000Y2700000D02*
D03*
X3890000D02*
D03*
X5820000Y1120000D02*
D03*
X5920000D02*
D03*
X5820000Y1230000D02*
D03*
X5920000D02*
D03*
X6270000Y1030000D02*
D03*
X6370000D02*
D03*
X6970000Y1520000D02*
D03*
X7069999D02*
D03*
X6200000Y2120000D02*
D03*
X6300000D02*
D03*
X4960000Y4340000D02*
D03*
X5060000D02*
D03*
X6970000Y2510000D02*
D03*
X7070000D02*
D03*
X6370000Y1530000D02*
D03*
X6270000D02*
D03*
X7330000Y4780000D02*
D03*
X7430000D02*
D03*
X7480000Y2570000D02*
D03*
X7580000D02*
D03*
X6660000Y1130000D02*
D03*
X6760000D02*
D03*
X7480000Y1580000D02*
D03*
X7580000D02*
D03*
X7460000Y3030000D02*
D03*
X7560000D02*
D03*
X7600000Y1050000D02*
D03*
X7700000D02*
D03*
X8270000Y2580000D02*
D03*
X8370000D02*
D03*
X3310000Y2720000D02*
D03*
X3410000D02*
D03*
X3560000Y1660000D02*
D03*
X3660000D02*
D03*
X5690000Y3430000D02*
D03*
X5590000D02*
D03*
X6970000Y2980000D02*
D03*
X7069999D02*
D03*
X2790000Y3370000D02*
D03*
X2890000D02*
D03*
X3730000Y2370000D02*
D03*
X3830000D02*
D03*
X4700000Y1430000D02*
D03*
X4800000D02*
D03*
X1990000Y1050000D02*
D03*
X2090000D02*
D03*
X3480000Y2420000D02*
D03*
X3380000D02*
D03*
X6200000Y2220000D02*
D03*
X6100000D02*
D03*
X8050000Y2840000D02*
D03*
X8150000D02*
D03*
X6770000Y2980000D02*
D03*
X6869999D02*
D03*
X6770000Y1520000D02*
D03*
X6870000D02*
D03*
X5820000Y1960000D02*
D03*
X5920000D02*
D03*
X5820000Y1540000D02*
D03*
X5920000D02*
D03*
X6370000Y1750000D02*
D03*
X6270000D02*
D03*
X6970000Y2030000D02*
D03*
X7069999D02*
D03*
X5240000Y3290000D02*
D03*
X5340000D02*
D03*
X3080000Y3800000D02*
D03*
X2980000D02*
D03*
X2780000D02*
D03*
X2880000D02*
D03*
X3390000Y3330000D02*
D03*
X3490000D02*
D03*
X3400000Y3210000D02*
D03*
X3500000D02*
D03*
X4420000Y3190000D02*
D03*
X4320000D02*
D03*
X4420000Y3290000D02*
D03*
X4320000D02*
D03*
X3280000Y4310000D02*
D03*
X3380000D02*
D03*
X3480000D02*
D03*
X3580000D02*
D03*
X4820000Y4330000D02*
D03*
X4720000D02*
D03*
X3090000Y3370000D02*
D03*
X2990000D02*
D03*
X4340000Y3570000D02*
D03*
X4240000D02*
D03*
X3400000Y2970000D02*
D03*
X3500000D02*
D03*
X4340000Y3770000D02*
D03*
X4240000D02*
D03*
X4340000Y3670000D02*
D03*
X4240000D02*
D03*
X3470000Y3680000D02*
D03*
X3370000D02*
D03*
X2840000Y3590000D02*
D03*
X2940000D02*
D03*
X3080000Y4240000D02*
D03*
X2980000D02*
D03*
X4420000Y2840000D02*
D03*
X4320000D02*
D03*
X4690000Y2870000D02*
D03*
X4790000D02*
D03*
X4690000Y2770000D02*
D03*
X4790000D02*
D03*
X5090000Y3940000D02*
D03*
X5190000D02*
D03*
X5090000Y4040000D02*
D03*
X5190000D02*
D03*
X4980000Y3480000D02*
D03*
X4880000D02*
D03*
X5730000Y3050000D02*
D03*
X5630000D02*
D03*
X5950000Y3740000D02*
D03*
X5850000D02*
D03*
X5490000Y3430000D02*
D03*
X5390000D02*
D03*
X4690000Y3230000D02*
D03*
X4790000D02*
D03*
X5470000Y3910000D02*
D03*
X5570000D02*
D03*
D604*
X7677000Y925000D02*
D03*
X7487000Y1985000D02*
D03*
X7217000Y965000D02*
D03*
X7487000Y2465000D02*
D03*
X6737000Y1025000D02*
D03*
X7487000Y2935000D02*
D03*
X7487000Y1475000D02*
D03*
X6067000Y935000D02*
D03*
Y1775000D02*
D03*
Y2015000D02*
D03*
Y1225000D02*
D03*
X6987000Y1425000D02*
D03*
X6067000Y1535000D02*
D03*
X6987000Y1930000D02*
D03*
Y2405000D02*
D03*
Y2869975D02*
D03*
D605*
X7677000Y875000D02*
D03*
Y825000D02*
D03*
Y775000D02*
D03*
Y725000D02*
D03*
Y675000D02*
D03*
X7763000Y925000D02*
D03*
Y875000D02*
D03*
Y825000D02*
D03*
Y775000D02*
D03*
Y725000D02*
D03*
Y675000D02*
D03*
X7487000Y1935000D02*
D03*
Y1885000D02*
D03*
Y1835000D02*
D03*
Y1785000D02*
D03*
Y1735000D02*
D03*
X7573000Y1985000D02*
D03*
Y1935000D02*
D03*
Y1885000D02*
D03*
Y1835000D02*
D03*
Y1785000D02*
D03*
Y1735000D02*
D03*
X7217000Y915000D02*
D03*
Y865000D02*
D03*
Y815000D02*
D03*
Y765000D02*
D03*
Y715000D02*
D03*
X7303000Y965000D02*
D03*
Y915000D02*
D03*
Y865000D02*
D03*
Y815000D02*
D03*
Y765000D02*
D03*
Y715000D02*
D03*
X7487000Y2415000D02*
D03*
Y2365000D02*
D03*
Y2315000D02*
D03*
Y2265000D02*
D03*
Y2215000D02*
D03*
X7573000Y2465000D02*
D03*
Y2415000D02*
D03*
Y2365000D02*
D03*
Y2315000D02*
D03*
Y2265000D02*
D03*
Y2215000D02*
D03*
X6737000Y975000D02*
D03*
Y925000D02*
D03*
Y875000D02*
D03*
Y825000D02*
D03*
Y775000D02*
D03*
X6823000Y1025000D02*
D03*
Y975000D02*
D03*
Y925000D02*
D03*
Y875000D02*
D03*
Y825000D02*
D03*
Y775000D02*
D03*
X7487000Y2885000D02*
D03*
Y2835000D02*
D03*
Y2785000D02*
D03*
Y2735000D02*
D03*
Y2685000D02*
D03*
X7573000Y2935000D02*
D03*
Y2885000D02*
D03*
Y2835000D02*
D03*
Y2785000D02*
D03*
Y2735000D02*
D03*
Y2685000D02*
D03*
X7487000Y1425000D02*
D03*
Y1375000D02*
D03*
Y1325000D02*
D03*
Y1275000D02*
D03*
Y1225000D02*
D03*
X7573000Y1475000D02*
D03*
Y1425000D02*
D03*
Y1375000D02*
D03*
Y1325000D02*
D03*
Y1275000D02*
D03*
Y1225000D02*
D03*
X6067000Y885000D02*
D03*
Y835000D02*
D03*
Y785000D02*
D03*
X6153000Y935000D02*
D03*
Y885000D02*
D03*
Y835000D02*
D03*
Y785000D02*
D03*
X6067000Y1725000D02*
D03*
Y1675000D02*
D03*
Y1625000D02*
D03*
X6153000Y1775000D02*
D03*
Y1725000D02*
D03*
Y1675000D02*
D03*
Y1625000D02*
D03*
X6067000Y1965000D02*
D03*
Y1915000D02*
D03*
Y1865000D02*
D03*
X6153000Y2015000D02*
D03*
Y1965000D02*
D03*
Y1915000D02*
D03*
Y1865000D02*
D03*
X6067000Y1175000D02*
D03*
Y1125000D02*
D03*
Y1075000D02*
D03*
X6153000Y1225000D02*
D03*
Y1175000D02*
D03*
Y1125000D02*
D03*
Y1075000D02*
D03*
X6987000Y1375000D02*
D03*
Y1325000D02*
D03*
Y1275000D02*
D03*
X7073000Y1425000D02*
D03*
Y1375000D02*
D03*
Y1325000D02*
D03*
Y1275000D02*
D03*
X6067000Y1485000D02*
D03*
Y1435000D02*
D03*
Y1385000D02*
D03*
X6153000Y1535000D02*
D03*
Y1485000D02*
D03*
Y1435000D02*
D03*
Y1385000D02*
D03*
X6987000Y1880000D02*
D03*
Y1830000D02*
D03*
Y1780000D02*
D03*
X7073000Y1930000D02*
D03*
Y1880000D02*
D03*
Y1830000D02*
D03*
Y1780000D02*
D03*
X6987000Y2355000D02*
D03*
Y2305000D02*
D03*
Y2255000D02*
D03*
X7073000Y2405000D02*
D03*
Y2355000D02*
D03*
Y2305000D02*
D03*
Y2255000D02*
D03*
X6987000Y2819975D02*
D03*
Y2769975D02*
D03*
Y2719975D02*
D03*
X7073000Y2869975D02*
D03*
Y2819975D02*
D03*
Y2769975D02*
D03*
Y2719975D02*
D03*
D606*
X6955253Y3809747D02*
D03*
X6784747Y3930254D02*
D03*
X7355253Y3809747D02*
D03*
X7184747Y3930253D02*
D03*
X6955253Y3449747D02*
D03*
X6784747Y3570253D02*
D03*
D607*
X6895000Y3810001D02*
D03*
X6845000D02*
D03*
X6895000Y3930001D02*
D03*
X6845000D02*
D03*
X7295000Y3810000D02*
D03*
X7245000D02*
D03*
X7295000Y3930000D02*
D03*
X7245000D02*
D03*
X6895000Y3450000D02*
D03*
X6845000D02*
D03*
X6895000Y3570000D02*
D03*
X6845000D02*
D03*
D608*
X6784747Y3809747D02*
D03*
X6955253Y3930254D02*
D03*
X7184747Y3809747D02*
D03*
X7355253Y3930253D02*
D03*
X6784747Y3449747D02*
D03*
X6955253Y3570253D02*
D03*
D609*
X6955000Y3870000D02*
D03*
X6785000D02*
D03*
X7355000Y3870000D02*
D03*
X7185000D02*
D03*
X6955000Y3510000D02*
D03*
X6785000D02*
D03*
D610*
X5595000Y3532500D02*
D03*
X5405000D02*
D03*
Y3787500D02*
D03*
X5500000D02*
D03*
X5595000D02*
D03*
X5865000Y2152500D02*
D03*
X5675000D02*
D03*
Y2407500D02*
D03*
X5770000D02*
D03*
X5865000D02*
D03*
D611*
X6752000Y4490000D02*
D03*
Y4290000D02*
D03*
Y4440000D02*
D03*
Y4390000D02*
D03*
Y4340000D02*
D03*
X6988000Y4290000D02*
D03*
Y4340000D02*
D03*
Y4390000D02*
D03*
Y4440000D02*
D03*
Y4490000D02*
D03*
X7246998Y4580001D02*
D03*
Y4380001D02*
D03*
Y4530001D02*
D03*
Y4480001D02*
D03*
Y4430001D02*
D03*
X7482998Y4380001D02*
D03*
Y4430001D02*
D03*
Y4480001D02*
D03*
Y4530001D02*
D03*
Y4580001D02*
D03*
D612*
X6845000Y4247000D02*
D03*
X6895000D02*
D03*
Y4533000D02*
D03*
X6845000D02*
D03*
X7339998Y4337001D02*
D03*
X7389998D02*
D03*
Y4623001D02*
D03*
X7339998D02*
D03*
D613*
X6870000Y4390000D02*
D03*
X7364998Y4480001D02*
D03*
D614*
X3665000Y1320000D02*
D03*
Y1370000D02*
D03*
Y1420000D02*
D03*
Y1470000D02*
D03*
Y1520000D02*
D03*
X3355000Y1320000D02*
D03*
Y1370000D02*
D03*
Y1420000D02*
D03*
Y1470000D02*
D03*
X3254999Y2205000D02*
D03*
Y2255000D02*
D03*
Y2305000D02*
D03*
Y2355000D02*
D03*
X2964999Y2205000D02*
D03*
Y2255000D02*
D03*
Y2305000D02*
D03*
D615*
X3510000Y1420000D02*
D03*
D616*
X3355000Y1520000D02*
D03*
X2964999Y2355000D02*
D03*
D617*
X3747500Y2227500D02*
D03*
X4777500Y2107500D02*
D03*
X3222500Y3922500D02*
D03*
X5632500Y4132500D02*
D03*
D618*
X3747500Y2162500D02*
D03*
Y2097500D02*
D03*
Y2032500D02*
D03*
X4172500Y2227500D02*
D03*
Y2162500D02*
D03*
Y2097500D02*
D03*
Y2032500D02*
D03*
X4777500Y2042500D02*
D03*
Y1977500D02*
D03*
Y1912500D02*
D03*
X5202500Y2107500D02*
D03*
Y2042500D02*
D03*
Y1977500D02*
D03*
Y1912500D02*
D03*
X3222500Y3987500D02*
D03*
Y4052500D02*
D03*
Y4117500D02*
D03*
X2797500Y3922500D02*
D03*
Y3987500D02*
D03*
Y4052500D02*
D03*
Y4117500D02*
D03*
X5632500Y4197500D02*
D03*
Y4262500D02*
D03*
Y4327500D02*
D03*
X5207500Y4132500D02*
D03*
Y4197500D02*
D03*
Y4262500D02*
D03*
Y4327500D02*
D03*
D619*
X5310000Y1225000D02*
D03*
Y1130000D02*
D03*
Y1035000D02*
D03*
X5050000D02*
D03*
Y1130000D02*
D03*
D620*
Y1225000D02*
D03*
D621*
X2495000Y2100000D02*
D03*
X2400000D02*
D03*
X2305000D02*
D03*
Y2360000D02*
D03*
X2400000D02*
D03*
D622*
X2495000D02*
D03*
D623*
X3109999Y2280000D02*
D03*
D624*
X8450266Y2714551D02*
D03*
D625*
Y2779551D02*
D03*
Y2844551D02*
D03*
X8250265D02*
D03*
Y2779551D02*
D03*
Y2714551D02*
D03*
D626*
X7839999Y4640000D02*
D03*
D627*
X7789999D02*
D03*
X7739999D02*
D03*
X7689999D02*
D03*
X7839999Y4340000D02*
D03*
X7789999D02*
D03*
X7739999D02*
D03*
X7689999D02*
D03*
D628*
X3012500Y3485000D02*
D03*
Y3675000D02*
D03*
X3267500D02*
D03*
Y3580000D02*
D03*
Y3485000D02*
D03*
D629*
X3625000Y3287500D02*
D03*
X3705000Y4327500D02*
D03*
X5495000Y2712500D02*
D03*
D630*
X3625000Y3222500D02*
D03*
Y3157500D02*
D03*
Y3092500D02*
D03*
Y3027500D02*
D03*
Y2962500D02*
D03*
Y2897500D02*
D03*
Y2832500D02*
D03*
X4195000Y3287500D02*
D03*
Y3222500D02*
D03*
Y3157500D02*
D03*
Y3092500D02*
D03*
Y3027500D02*
D03*
Y2962500D02*
D03*
Y2897500D02*
D03*
Y2832500D02*
D03*
X3705000Y4262500D02*
D03*
Y4197500D02*
D03*
Y4132500D02*
D03*
Y4067500D02*
D03*
Y4002500D02*
D03*
Y3937500D02*
D03*
Y3872500D02*
D03*
X4275000Y4327500D02*
D03*
Y4262500D02*
D03*
Y4197500D02*
D03*
Y4132500D02*
D03*
Y4067500D02*
D03*
Y4002500D02*
D03*
Y3937500D02*
D03*
Y3872500D02*
D03*
X5495000Y2777500D02*
D03*
Y2842500D02*
D03*
Y2907500D02*
D03*
Y2972500D02*
D03*
Y3037500D02*
D03*
Y3102500D02*
D03*
Y3167500D02*
D03*
X4925000Y2712500D02*
D03*
Y2777500D02*
D03*
Y2842500D02*
D03*
Y2907500D02*
D03*
Y2972500D02*
D03*
Y3037500D02*
D03*
Y3102500D02*
D03*
Y3167500D02*
D03*
D631*
X3940000Y3530000D02*
D03*
D632*
X4085000Y3430000D02*
D03*
Y3480000D02*
D03*
Y3530000D02*
D03*
Y3580000D02*
D03*
Y3630000D02*
D03*
X3795000Y3430000D02*
D03*
Y3480000D02*
D03*
Y3530000D02*
D03*
Y3580000D02*
D03*
D633*
Y3630000D02*
D03*
D634*
X2892500Y2817500D02*
D03*
X6207500Y3612500D02*
D03*
D635*
X2957500Y2817500D02*
D03*
X3022500D02*
D03*
X3087500D02*
D03*
X2892500Y3242500D02*
D03*
X2957500D02*
D03*
X3022500D02*
D03*
X3087500D02*
D03*
X6142500Y3612500D02*
D03*
X6077500D02*
D03*
X6012500D02*
D03*
X6207500Y3187500D02*
D03*
X6142500D02*
D03*
X6077500D02*
D03*
X6012500D02*
D03*
D636*
X4850000Y3970000D02*
D03*
D637*
X4750000Y3825000D02*
D03*
X4800000D02*
D03*
X4850000D02*
D03*
X4900000D02*
D03*
X4950000D02*
D03*
X4750000Y4115000D02*
D03*
X4800000D02*
D03*
X4850000D02*
D03*
X4900000D02*
D03*
D638*
X4950000D02*
D03*
D639*
X3480000Y3430000D02*
D03*
X3890000Y2790000D02*
D03*
D640*
X3810000Y3780000D02*
D03*
X5430000Y3320000D02*
D03*
X5190000Y3690000D02*
D03*
X5070000Y4140000D02*
D03*
X5370000Y3910000D02*
D03*
D641*
X2115000Y1850000D02*
D03*
X1925000D02*
D03*
X2020000Y1630000D02*
D03*
X2455000Y1960000D02*
D03*
X2265000D02*
D03*
X2360000Y1740000D02*
D03*
D642*
Y3365000D02*
D03*
Y2995000D02*
D03*
D643*
Y3300000D02*
D03*
Y3060000D02*
D03*
D644*
X5915000Y4010000D02*
D03*
X6285000D02*
D03*
D645*
X5980000D02*
D03*
X6220000D02*
D03*
D646*
X1710000Y1460000D02*
D03*
Y1360000D02*
D03*
D647*
Y1258000D02*
D03*
Y1562000D02*
D03*
D648*
Y1135000D02*
D03*
Y1685000D02*
D03*
D649*
X2645000Y4370000D02*
D03*
X4550000Y2665000D02*
D03*
X6460000D02*
D03*
D650*
X2645000Y3815000D02*
D03*
Y3220000D02*
D03*
X4550000D02*
D03*
Y3815000D02*
D03*
X6460000Y3220000D02*
D03*
Y3815000D02*
D03*
D651*
X2815000Y4470000D02*
D03*
X4380000Y2565000D02*
D03*
X4725000Y4470000D02*
D03*
X6290000Y2565000D02*
D03*
X4725000D02*
D03*
D652*
X4450000Y4470000D02*
D03*
X2745000Y2565000D02*
D03*
X6360000Y4470000D02*
D03*
D653*
X3895000D02*
D03*
X5805000D02*
D03*
D654*
X3300000D02*
D03*
Y2565000D02*
D03*
X3895000D02*
D03*
X5210000Y4470000D02*
D03*
Y2565000D02*
D03*
X5805000D02*
D03*
D655*
X4550000Y4300000D02*
D03*
X2645000Y2735000D02*
D03*
X6460000Y4300000D02*
D03*
D656*
X2970000Y1275000D02*
D03*
Y1045000D02*
D03*
X2970000Y1465000D02*
D03*
Y1695000D02*
D03*
X2610000Y1045000D02*
D03*
Y1275000D02*
D03*
D657*
X2490000Y870000D02*
D03*
Y710000D02*
D03*
X2240000D02*
D03*
Y870000D02*
D03*
D658*
X7880000Y1600000D02*
D03*
Y3360000D02*
D03*
X3000000Y2040000D02*
D03*
X5050000Y4700000D02*
D03*
X3190000D02*
D03*
X4700000D02*
D03*
X2840000D02*
D03*
X7880000Y2100000D02*
D03*
Y3860000D02*
D03*
X3380000Y1720000D02*
D03*
X3220000D02*
D03*
X3800000Y910000D02*
D03*
X3960000D02*
D03*
X3660000Y1770000D02*
D03*
X3500000D02*
D03*
X5440000Y1260000D02*
D03*
X5600000D02*
D03*
X2900000Y3480000D02*
D03*
X2740000D02*
D03*
X3490000Y3090000D02*
D03*
X3330000D02*
D03*
X3490000Y2850000D02*
D03*
X3330000D02*
D03*
X3570000Y4190000D02*
D03*
X3410000D02*
D03*
X3570000Y4060000D02*
D03*
X3410000D02*
D03*
X4910000Y3300000D02*
D03*
X5070000D02*
D03*
X3520000Y2710000D02*
D03*
X3680000D02*
D03*
X5640000Y2930000D02*
D03*
X5800000D02*
D03*
X5640000Y3170000D02*
D03*
X5800000D02*
D03*
D659*
X7720000Y1600000D02*
D03*
Y3360000D02*
D03*
X2840000Y2040000D02*
D03*
X4890000Y4700000D02*
D03*
X3030000D02*
D03*
X4540000D02*
D03*
X2680000D02*
D03*
X7720000Y2100000D02*
D03*
Y3860000D02*
D03*
D660*
X2640000Y2025000D02*
D03*
X5540000Y1145000D02*
D03*
X4930000Y1395000D02*
D03*
X2160000Y1365000D02*
D03*
D661*
X2640000Y2175000D02*
D03*
X5540000Y995000D02*
D03*
X4930000Y1545000D02*
D03*
X2160000Y1515000D02*
D03*
D662*
X2400000Y3540000D02*
D03*
D663*
Y3840000D02*
D03*
D664*
X3220000Y1310000D02*
D03*
Y1150000D02*
D03*
X3230000Y3180000D02*
D03*
Y3340000D02*
D03*
X5730000Y3540000D02*
D03*
Y3700000D02*
D03*
X3220000Y1440000D02*
D03*
Y1600000D02*
D03*
X4310000Y2080000D02*
D03*
Y2240000D02*
D03*
X4380000Y4770000D02*
D03*
Y4610000D02*
D03*
X3610000Y1990000D02*
D03*
Y2150000D02*
D03*
X5480000Y1380000D02*
D03*
Y1540000D02*
D03*
X4810000Y1540000D02*
D03*
Y1700000D02*
D03*
X5430000Y1970000D02*
D03*
Y2130000D02*
D03*
X2070000Y870000D02*
D03*
Y710000D02*
D03*
X2360000Y1300000D02*
D03*
Y1140000D02*
D03*
X3200000Y2840000D02*
D03*
Y2680000D02*
D03*
X6300000Y2850000D02*
D03*
Y2690000D02*
D03*
X5920000Y2850000D02*
D03*
Y2690000D02*
D03*
X2510000Y4460000D02*
D03*
Y4620000D02*
D03*
X6100000Y2850000D02*
D03*
Y2690000D02*
D03*
X3610000Y2450000D02*
D03*
Y2290000D02*
D03*
%TF.MD5,c84d4082222d7ad9a711f323ffafa44a*%
M02*
