%TF.GenerationSoftware,Altium Limited,Altium Designer,23.9.2 (47)*%
G04 Layer_Color=32768*
%FSLAX45Y45*%
%MOMM*%
%TF.SameCoordinates,F1AFF133-CB08-443C-B5AD-2193434A7FAF*%
%TF.FilePolarity,Positive*%
%TF.FileFunction,Other,Bottom_Designator*%
%TF.Part,Single*%
G01*
G75*
%TA.AperFunction,NonConductor*%
%ADD108C,0.15000*%
D108*
X1493734Y1375009D02*
Y1434990D01*
X1463743D01*
X1453747Y1424993D01*
Y1405000D01*
X1463743Y1395003D01*
X1493734D01*
X1393766Y1375009D02*
X1433753D01*
X1393766Y1414996D01*
Y1424993D01*
X1403763Y1434990D01*
X1423756D01*
X1433753Y1424993D01*
X4819994Y1365021D02*
X4829991Y1355024D01*
Y1335031D01*
X4819994Y1325034D01*
X4780007D01*
X4770010Y1335031D01*
Y1355024D01*
X4780007Y1365021D01*
X4770010Y1385015D02*
Y1405008D01*
Y1395011D01*
X4829991D01*
X4819994Y1385015D01*
X4829991Y1474985D02*
Y1434998D01*
X4800000D01*
X4809997Y1454992D01*
Y1464988D01*
X4800000Y1474985D01*
X4780007D01*
X4770010Y1464988D01*
Y1444995D01*
X4780007Y1434998D01*
X4819994Y1494979D02*
X4829991Y1504975D01*
Y1524969D01*
X4819994Y1534966D01*
X4780007D01*
X4770010Y1524969D01*
Y1504975D01*
X4780007Y1494979D01*
X4819994D01*
X5799993Y3525018D02*
X5809990Y3515021D01*
Y3495028D01*
X5799993Y3485031D01*
X5760007D01*
X5750010Y3495028D01*
Y3515021D01*
X5760007Y3525018D01*
X5750010Y3545011D02*
Y3565005D01*
Y3555008D01*
X5809990D01*
X5799993Y3545011D01*
X5809990Y3634982D02*
Y3594995D01*
X5780000D01*
X5789997Y3614989D01*
Y3624985D01*
X5780000Y3634982D01*
X5760007D01*
X5750010Y3624985D01*
Y3604992D01*
X5760007Y3594995D01*
X5750010Y3654976D02*
Y3674969D01*
Y3664972D01*
X5809990D01*
X5799993Y3654976D01*
X3669994Y1055021D02*
X3679991Y1045024D01*
Y1025031D01*
X3669994Y1015034D01*
X3630007D01*
X3620010Y1025031D01*
Y1045024D01*
X3630007Y1055021D01*
X3620010Y1075015D02*
Y1095008D01*
Y1085011D01*
X3679991D01*
X3669994Y1075015D01*
X3679991Y1164985D02*
Y1124998D01*
X3650000D01*
X3659997Y1144992D01*
Y1154989D01*
X3650000Y1164985D01*
X3630007D01*
X3620010Y1154989D01*
Y1134995D01*
X3630007Y1124998D01*
X3620010Y1224966D02*
Y1184979D01*
X3659997Y1224966D01*
X3669994D01*
X3679991Y1214969D01*
Y1194976D01*
X3669994Y1184979D01*
X2839994Y3020013D02*
X2849990Y3010016D01*
Y2990022D01*
X2839994Y2980026D01*
X2800007D01*
X2790010Y2990022D01*
Y3010016D01*
X2800007Y3020013D01*
X2790010Y3069997D02*
X2849990D01*
X2820000Y3040006D01*
Y3079993D01*
X2849990Y3099987D02*
Y3139974D01*
X2839994D01*
X2800007Y3099987D01*
X2790010D01*
X5529994Y1525021D02*
X5539990Y1515024D01*
Y1495031D01*
X5529994Y1485034D01*
X5490007D01*
X5480010Y1495031D01*
Y1515024D01*
X5490007Y1525021D01*
X5480010Y1545015D02*
Y1565008D01*
Y1555011D01*
X5539990D01*
X5529994Y1545015D01*
X5539990Y1634985D02*
X5529994Y1614992D01*
X5510000Y1594998D01*
X5490007D01*
X5480010Y1604995D01*
Y1624989D01*
X5490007Y1634985D01*
X5500003D01*
X5510000Y1624989D01*
Y1594998D01*
X5529994Y1654979D02*
X5539990Y1664976D01*
Y1684969D01*
X5529994Y1694966D01*
X5490007D01*
X5480010Y1684969D01*
Y1664976D01*
X5490007Y1654979D01*
X5529994D01*
X3529993Y2945018D02*
X3539990Y2935021D01*
Y2915028D01*
X3529993Y2905031D01*
X3490006D01*
X3480010Y2915028D01*
Y2935021D01*
X3490006Y2945018D01*
X3480010Y2965012D02*
Y2985005D01*
Y2975008D01*
X3539990D01*
X3529993Y2965012D01*
X3539990Y3054982D02*
X3529993Y3034989D01*
X3510000Y3014995D01*
X3490006D01*
X3480010Y3024992D01*
Y3044986D01*
X3490006Y3054982D01*
X3500003D01*
X3510000Y3044986D01*
Y3014995D01*
X3480010Y3074976D02*
Y3094969D01*
Y3084972D01*
X3539990D01*
X3529993Y3074976D01*
X6239993Y2945021D02*
X6249990Y2935025D01*
Y2915031D01*
X6239993Y2905034D01*
X6200006D01*
X6190010Y2915031D01*
Y2935025D01*
X6200006Y2945021D01*
X6190010Y2965015D02*
Y2985009D01*
Y2975012D01*
X6249990D01*
X6239993Y2965015D01*
X6249990Y3054986D02*
X6239993Y3034992D01*
X6220000Y3014999D01*
X6200006D01*
X6190010Y3024995D01*
Y3044989D01*
X6200006Y3054986D01*
X6210003D01*
X6220000Y3044989D01*
Y3014999D01*
X6190010Y3114966D02*
Y3074979D01*
X6229997Y3114966D01*
X6239993D01*
X6249990Y3104969D01*
Y3084976D01*
X6239993Y3074979D01*
%TF.MD5,a7b75d393cc4f8835b3e35dd3945d7ff*%
M02*
