%TF.GenerationSoftware,Altium Limited,Altium Designer,23.9.2 (47)*%
G04 Layer_Color=32896*
%FSLAX45Y45*%
%MOMM*%
%TF.SameCoordinates,F1AFF133-CB08-443C-B5AD-2193434A7FAF*%
%TF.FilePolarity,Positive*%
%TF.FileFunction,Legend,Bot*%
%TF.Part,Single*%
G01*
G75*
%TA.AperFunction,NonConductor*%
%ADD108C,0.15000*%
%ADD109C,0.20000*%
%ADD110R,1.40000X0.15001*%
%ADD111R,0.60000X0.15001*%
%ADD112R,0.20000X0.15001*%
%ADD113R,0.40000X0.15001*%
%ADD114R,0.60000X0.14996*%
%ADD115R,0.20000X0.14996*%
%ADD116R,0.40000X0.14996*%
%ADD117R,1.40000X0.14996*%
%ADD118R,0.80000X0.14996*%
%ADD119R,1.20000X0.14996*%
%ADD120R,1.00000X0.14996*%
G36*
X7988000Y5143500D02*
X7948000Y5111343D01*
Y5175658D01*
X7988000Y5143500D01*
D02*
G37*
G36*
X2064157Y4836500D02*
X1999842D01*
X2032000Y4876500D01*
X2064157Y4836500D01*
D02*
G37*
G36*
X1892000Y4512400D02*
X1852000Y4480243D01*
Y4544558D01*
X1892000Y4512400D01*
D02*
G37*
G36*
X7988000Y2349500D02*
X7948000Y2317343D01*
Y2381658D01*
X7988000Y2349500D01*
D02*
G37*
G36*
X1728921Y1690706D02*
X1696764Y1729294D01*
X1761079D01*
X1728921Y1690706D01*
D02*
G37*
G36*
X2064157Y10500D02*
X1999842D01*
X2032000Y50500D01*
X2064157Y10500D01*
D02*
G37*
D108*
X5730000Y3565000D02*
X5830000D01*
X5730000Y3595000D02*
X5830000D01*
X5779927D02*
Y3630000D01*
Y3530000D02*
X5780000Y3565000D01*
X5460000Y1575000D02*
X5560000D01*
X5460000Y1605000D02*
X5560000D01*
X5509927D02*
Y1640000D01*
Y1540000D02*
X5510000Y1575000D01*
X6170000Y2995000D02*
X6270000D01*
X6170000Y3025000D02*
X6270000D01*
X6219927D02*
Y3060000D01*
Y2960000D02*
X6220000Y2995000D01*
X3460000Y3015000D02*
X3560000D01*
X3460000Y2985000D02*
X3560000D01*
X3510073Y2950000D02*
Y2985000D01*
X3510000Y3015000D02*
X3510073Y3050000D01*
X3600000Y1135000D02*
X3700000D01*
X3600000Y1105000D02*
X3700000D01*
X3650073Y1070000D02*
Y1105000D01*
X3650000Y1135000D02*
X3650073Y1170000D01*
X4750000Y1415000D02*
X4850000D01*
X4750000Y1445000D02*
X4850000D01*
X4799927D02*
Y1480000D01*
Y1380000D02*
X4800000Y1415000D01*
X2770000Y3075000D02*
X2870000D01*
X2770000Y3045000D02*
X2870000D01*
X2820073Y3010000D02*
Y3045000D01*
X2820000Y3075000D02*
X2820073Y3110000D01*
X1120000Y955000D02*
Y1855000D01*
X1620000Y1055000D02*
Y1110000D01*
X1120000Y1855000D02*
X1170000D01*
X1160000Y955179D02*
Y1855000D01*
X1120000Y955000D02*
X1170000D01*
X1450000D02*
X1520000D01*
X1620000Y1700000D02*
Y1755000D01*
X1450000Y1855000D02*
X1520000D01*
X1936645Y1820013D02*
Y1899987D01*
X1896658D01*
X1883329Y1886658D01*
Y1860000D01*
X1896658Y1846671D01*
X1936645D01*
X1803355Y1820013D02*
X1856671D01*
X1803355Y1873329D01*
Y1886658D01*
X1816684Y1899987D01*
X1843342D01*
X1856671Y1886658D01*
D109*
X8508000Y2449500D02*
Y2499500D01*
X7963000Y2501500D02*
X8548000D01*
X8003000Y2449500D02*
Y2499500D01*
X7963000Y1206500D02*
X8548000D01*
X8508000Y1184500D02*
Y1229500D01*
X8003000Y1184500D02*
Y1229500D01*
X7972000Y1206500D02*
X8537000D01*
X8003000Y1184500D02*
Y1229500D01*
X8508000Y1184500D02*
Y1229500D01*
Y164500D02*
Y214500D01*
X8003000Y164500D02*
Y214500D01*
X7963000Y160500D02*
X8548000D01*
X8508000Y5243500D02*
Y5293500D01*
X7963000Y5295500D02*
X8548000D01*
X8003000Y5243500D02*
Y5293500D01*
X7963000Y4000500D02*
X8548000D01*
X8508000Y3978500D02*
Y4023500D01*
X8003000Y3978500D02*
Y4023500D01*
X7972000Y4000500D02*
X8537000D01*
X8003000Y3978500D02*
Y4023500D01*
X8508000Y3978500D02*
Y4023500D01*
Y2958500D02*
Y3008500D01*
X8003000Y2958500D02*
Y3008500D01*
X7963000Y2954500D02*
X8548000D01*
X6962000Y570500D02*
X7007000D01*
X6962000Y65500D02*
X7007000D01*
X6985000Y34500D02*
Y599500D01*
X6962000Y65500D02*
X7007000D01*
X6962000Y570500D02*
X7007000D01*
X6985000Y25500D02*
Y610500D01*
X5692000Y570500D02*
X5737000D01*
X5692000Y65500D02*
X5737000D01*
X5715000Y34500D02*
Y599500D01*
X5692000Y65500D02*
X5737000D01*
X5692000Y570500D02*
X5737000D01*
X5715000Y25500D02*
Y610500D01*
X4422000Y570500D02*
X4467000D01*
X4422000Y65500D02*
X4467000D01*
X4445000Y34500D02*
Y599500D01*
X4422000Y65500D02*
X4467000D01*
X4422000Y570500D02*
X4467000D01*
X4445000Y25500D02*
Y610500D01*
X7777000Y25500D02*
Y610500D01*
X7723000Y65500D02*
X7773000D01*
X7723000Y570500D02*
X7773000D01*
X3152000D02*
X3197000D01*
X3152000Y65500D02*
X3197000D01*
X3175000Y34500D02*
Y599500D01*
X3152000Y65500D02*
X3197000D01*
X3152000Y570500D02*
X3197000D01*
X3175000Y25500D02*
Y610500D01*
X1882000Y65500D02*
X1932000D01*
X1880000Y25500D02*
Y610500D01*
X1882000Y570500D02*
X1932000D01*
X6962000Y5396500D02*
X7007000D01*
X6962000Y4891500D02*
X7007000D01*
X6985000Y4860500D02*
Y5425500D01*
X6962000Y4891500D02*
X7007000D01*
X6962000Y5396500D02*
X7007000D01*
X6985000Y4851500D02*
Y5436500D01*
X5692000Y5396500D02*
X5737000D01*
X5692000Y4891500D02*
X5737000D01*
X5715000Y4860500D02*
Y5425500D01*
X5692000Y4891500D02*
X5737000D01*
X5692000Y5396500D02*
X5737000D01*
X5715000Y4851500D02*
Y5436500D01*
X4422000Y5396500D02*
X4467000D01*
X4422000Y4891500D02*
X4467000D01*
X4445000Y4860500D02*
Y5425500D01*
X4422000Y4891500D02*
X4467000D01*
X4422000Y5396500D02*
X4467000D01*
X4445000Y4851500D02*
Y5436500D01*
X7777000Y4851500D02*
Y5436500D01*
X7723000Y4891500D02*
X7773000D01*
X7723000Y5396500D02*
X7773000D01*
X3152000D02*
X3197000D01*
X3152000Y4891500D02*
X3197000D01*
X3175000Y4860500D02*
Y5425500D01*
X3152000Y4891500D02*
X3197000D01*
X3152000Y5396500D02*
X3197000D01*
X3175000Y4851500D02*
Y5436500D01*
X1882000Y4891500D02*
X1932000D01*
X1880000Y4851500D02*
Y5436500D01*
X1882000Y5396500D02*
X1932000D01*
X2412000Y4112400D02*
Y4157400D01*
X1907000Y4112400D02*
Y4157400D01*
X1867000Y4101400D02*
X2452000D01*
X2412000Y4612400D02*
Y4657400D01*
X1867000Y4664400D02*
X2452000D01*
X1907000Y4612400D02*
Y4657400D01*
X3390000Y3189968D02*
Y3090000D01*
X3323355D01*
X3223387Y3189968D02*
X3290032D01*
Y3139984D01*
X3256710Y3156645D01*
X3240048D01*
X3223387Y3139984D01*
Y3106661D01*
X3240048Y3090000D01*
X3273371D01*
X3290032Y3106661D01*
X3190064Y3189968D02*
Y3123322D01*
X3156742Y3090000D01*
X3123419Y3123322D01*
Y3189968D01*
X6100000Y2960000D02*
X6066677D01*
X6083339D01*
Y3059968D01*
X6100000Y3043306D01*
X5950049Y3059968D02*
X5983371Y3043306D01*
X6016694Y3009984D01*
Y2976661D01*
X6000032Y2960000D01*
X5966710D01*
X5950049Y2976661D01*
Y2993322D01*
X5966710Y3009984D01*
X6016694D01*
X5916726Y3059968D02*
Y2993322D01*
X5883403Y2960000D01*
X5850081Y2993322D01*
Y3059968D01*
X5323355Y1489968D02*
X5390000D01*
Y1439984D01*
X5356678Y1456645D01*
X5340016D01*
X5323355Y1439984D01*
Y1406661D01*
X5340016Y1390000D01*
X5373339D01*
X5390000Y1406661D01*
X5290032Y1489968D02*
Y1423323D01*
X5256710Y1390000D01*
X5223387Y1423323D01*
Y1489968D01*
X3463355Y1309968D02*
X3530000D01*
Y1259984D01*
X3496678Y1276645D01*
X3480016D01*
X3463355Y1259984D01*
Y1226661D01*
X3480016Y1210000D01*
X3513339D01*
X3530000Y1226661D01*
X3430032Y1309968D02*
Y1243322D01*
X3396710Y1210000D01*
X3363387Y1243322D01*
Y1309968D01*
X4593355Y1349968D02*
X4626678Y1333306D01*
X4660000Y1299984D01*
Y1266661D01*
X4643339Y1250000D01*
X4610016D01*
X4593355Y1266661D01*
Y1283323D01*
X4610016Y1299984D01*
X4660000D01*
X4560032Y1349968D02*
Y1283323D01*
X4526710Y1250000D01*
X4493387Y1283323D01*
Y1349968D01*
X5650000Y3489968D02*
Y3390000D01*
X5583355D01*
X5483387Y3489968D02*
X5550032D01*
Y3439984D01*
X5516710Y3456645D01*
X5500048D01*
X5483387Y3439984D01*
Y3406661D01*
X5500048Y3390000D01*
X5533371D01*
X5550032Y3406661D01*
X5450065Y3489968D02*
Y3423323D01*
X5416742Y3390000D01*
X5383420Y3423323D01*
Y3489968D01*
X2700000Y3010000D02*
X2666677D01*
X2683339D01*
Y3109968D01*
X2700000Y3093306D01*
X2550048Y3109968D02*
X2583371Y3093306D01*
X2616694Y3059984D01*
Y3026661D01*
X2600032Y3010000D01*
X2566710D01*
X2550048Y3026661D01*
Y3043323D01*
X2566710Y3059984D01*
X2616694D01*
X2516726Y3109968D02*
Y3043323D01*
X2483403Y3010000D01*
X2450081Y3043323D01*
Y3109968D01*
X1339968Y636645D02*
Y570000D01*
X1289984D01*
X1306645Y603322D01*
Y619984D01*
X1289984Y636645D01*
X1256661D01*
X1240000Y619984D01*
Y586661D01*
X1256661Y570000D01*
X1339968Y669968D02*
X1273323D01*
X1240000Y703290D01*
X1273323Y736613D01*
X1339968D01*
Y836580D02*
Y769935D01*
X1240000D01*
Y836580D01*
X1289984Y769935D02*
Y803258D01*
X1323306Y276645D02*
X1339968Y259983D01*
Y226661D01*
X1323306Y210000D01*
X1256661D01*
X1240000Y226661D01*
Y259983D01*
X1256661Y276645D01*
X1289984D01*
Y243322D01*
X1240000Y309967D02*
X1339968D01*
X1240000Y376612D01*
X1339968D01*
Y409935D02*
X1240000D01*
Y459919D01*
X1256661Y476580D01*
X1323306D01*
X1339968Y459919D01*
Y409935D01*
X2950000Y4349968D02*
Y4283322D01*
X2916677Y4250000D01*
X2883355Y4283322D01*
Y4349968D01*
X2850032D02*
Y4250000D01*
Y4299984D01*
X2783387D01*
Y4349968D01*
Y4250000D01*
X2733403Y4316645D02*
X2700080D01*
X2683419Y4299984D01*
Y4250000D01*
X2733403D01*
X2750064Y4266661D01*
X2733403Y4283322D01*
X2683419D01*
X2650097Y4316645D02*
Y4250000D01*
Y4283322D01*
X2633435Y4299984D01*
X2616774Y4316645D01*
X2600113D01*
X2550129D02*
X2516806Y4250000D01*
X2483484Y4316645D01*
X3050000Y4539968D02*
Y4473323D01*
X3016677Y4440000D01*
X2983355Y4473323D01*
Y4539968D01*
X2883387Y4523306D02*
X2900048Y4539968D01*
X2933371D01*
X2950032Y4523306D01*
Y4506645D01*
X2933371Y4489984D01*
X2900048D01*
X2883387Y4473323D01*
Y4456661D01*
X2900048Y4440000D01*
X2933371D01*
X2950032Y4456661D01*
X2800081Y4440000D02*
X2833403D01*
X2850064Y4456661D01*
Y4489984D01*
X2833403Y4506645D01*
X2800081D01*
X2783419Y4489984D01*
Y4473323D01*
X2850064D01*
X2750097Y4440000D02*
Y4506645D01*
X2700113D01*
X2683452Y4489984D01*
Y4440000D01*
X2650129D02*
X2600145D01*
X2583484Y4456661D01*
X2600145Y4473323D01*
X2633467D01*
X2650129Y4489984D01*
X2633467Y4506645D01*
X2583484D01*
X2500177Y4440000D02*
X2533500D01*
X2550161Y4456661D01*
Y4489984D01*
X2533500Y4506645D01*
X2500177D01*
X2483516Y4489984D01*
Y4473323D01*
X2550161D01*
X1820000Y4349968D02*
Y4283322D01*
X1786677Y4250000D01*
X1753355Y4283322D01*
Y4349968D01*
X1653387Y4333306D02*
X1670048Y4349968D01*
X1703371D01*
X1720032Y4333306D01*
Y4316645D01*
X1703371Y4299984D01*
X1670048D01*
X1653387Y4283322D01*
Y4266661D01*
X1670048Y4250000D01*
X1703371D01*
X1720032Y4266661D01*
X1620064Y4250000D02*
X1586742D01*
X1603403D01*
Y4316645D01*
X1620064D01*
X1536758Y4250000D02*
Y4316645D01*
X1520097D01*
X1503435Y4299984D01*
Y4250000D01*
Y4299984D01*
X1486774Y4316645D01*
X1470113Y4299984D01*
Y4250000D01*
X1753355Y4523306D02*
X1770016Y4539968D01*
X1803339D01*
X1820000Y4523306D01*
Y4456661D01*
X1803339Y4440000D01*
X1770016D01*
X1753355Y4456661D01*
Y4489984D01*
X1786677D01*
X1720032Y4440000D02*
Y4539968D01*
X1653387Y4440000D01*
Y4539968D01*
X1620064D02*
Y4440000D01*
X1570080D01*
X1553419Y4456661D01*
Y4523306D01*
X1570080Y4539968D01*
X1620064D01*
X3599968Y4706645D02*
Y4640000D01*
X3500000D01*
Y4706645D01*
X3549984Y4640000D02*
Y4673322D01*
X3500000Y4739967D02*
X3599968D01*
X3500000Y4806612D01*
X3599968D01*
X2839968Y696645D02*
Y630000D01*
X2789984D01*
X2806645Y663322D01*
Y679983D01*
X2789984Y696645D01*
X2756661D01*
X2740000Y679983D01*
Y646661D01*
X2756661Y630000D01*
X2839968Y729967D02*
X2773322D01*
X2740000Y763290D01*
X2773322Y796612D01*
X2839968D01*
X2579968Y696645D02*
Y630000D01*
X2529984D01*
X2546645Y663322D01*
Y679983D01*
X2529984Y696645D01*
X2496661D01*
X2480000Y679983D01*
Y646661D01*
X2496661Y630000D01*
X2579968Y729967D02*
X2513322D01*
X2480000Y763290D01*
X2513322Y796612D01*
X2579968D01*
Y896580D02*
Y829935D01*
X2480000D01*
Y896580D01*
X2529984Y829935D02*
Y863258D01*
X2323306Y630000D02*
X2339968Y646661D01*
Y679983D01*
X2323306Y696645D01*
X2306645D01*
X2289984Y679983D01*
Y663322D01*
Y679983D01*
X2273322Y696645D01*
X2256661D01*
X2240000Y679983D01*
Y646661D01*
X2256661Y630000D01*
X2339968Y729967D02*
X2273322D01*
X2240000Y763290D01*
X2273322Y796612D01*
X2339968D01*
X2323306Y829935D02*
X2339968Y846596D01*
Y879919D01*
X2323306Y896580D01*
X2306645D01*
X2289984Y879919D01*
Y863258D01*
Y879919D01*
X2273322Y896580D01*
X2256661D01*
X2240000Y879919D01*
Y846596D01*
X2256661Y829935D01*
X2063306Y696645D02*
X2079968Y679983D01*
Y646661D01*
X2063306Y630000D01*
X1996661D01*
X1980000Y646661D01*
Y679983D01*
X1996661Y696645D01*
X2029984D01*
Y663322D01*
X1980000Y729967D02*
X2079968D01*
X1980000Y796612D01*
X2079968D01*
Y829935D02*
X1980000D01*
Y879919D01*
X1996661Y896580D01*
X2063306D01*
X2079968Y879919D01*
Y829935D01*
D110*
X6050000Y4472504D02*
D03*
X6409999D02*
D03*
D111*
X6170000D02*
D03*
X6050000Y4432504D02*
D03*
X6409999D02*
D03*
X6210000Y4412504D02*
D03*
X6369999Y4312504D02*
D03*
D112*
X6310000Y4472504D02*
D03*
X5990000Y4452504D02*
D03*
X6110000D02*
D03*
X6310000D02*
D03*
X6349999D02*
D03*
X6469999D02*
D03*
X5990000Y4432504D02*
D03*
X6110000D02*
D03*
X6190000D02*
D03*
X6230000D02*
D03*
X6349999D02*
D03*
X6469999D02*
D03*
X5990000Y4412504D02*
D03*
X6110000D02*
D03*
X6150000D02*
D03*
X6349999D02*
D03*
X6469999D02*
D03*
X5990000Y4392504D02*
D03*
X6110000D02*
D03*
X6349999D02*
D03*
X6469999D02*
D03*
X5990000Y4372504D02*
D03*
X6110000D02*
D03*
X6190000D02*
D03*
X6349999D02*
D03*
X6469999D02*
D03*
X6150000Y4352504D02*
D03*
X6190000D02*
D03*
X6230000D02*
D03*
X6270000D02*
D03*
X6310000D02*
D03*
X6150000Y4332504D02*
D03*
X6090000Y4312504D02*
D03*
X6230000D02*
D03*
X6270000D02*
D03*
D113*
X6240000Y4452504D02*
D03*
X6300000Y4432504D02*
D03*
X6220000Y4392504D02*
D03*
X6260000Y4332504D02*
D03*
X6459999Y4312504D02*
D03*
Y4292504D02*
D03*
D114*
X6050000Y4412501D02*
D03*
X6290000D02*
D03*
X6409999D02*
D03*
X6050000Y4392501D02*
D03*
X6409999D02*
D03*
X6290000Y4372501D02*
D03*
X6190000Y4272501D02*
D03*
X6310000Y4252502D02*
D03*
X6110000Y4232502D02*
D03*
X6170000Y4212502D02*
D03*
X6050000Y4112502D02*
D03*
X6290000Y4092502D02*
D03*
X6010000Y4072502D02*
D03*
X6409999D02*
D03*
X6110000Y4052502D02*
D03*
X6409999D02*
D03*
Y4032502D02*
D03*
D115*
X6170000Y4392501D02*
D03*
X6310000Y4292501D02*
D03*
X6369999D02*
D03*
X6030000Y4272501D02*
D03*
X6070000D02*
D03*
X6110000D02*
D03*
X6409999D02*
D03*
X6469999D02*
D03*
X6230000Y4252502D02*
D03*
X6389999D02*
D03*
X6449999D02*
D03*
X6250000Y4232502D02*
D03*
X6349999D02*
D03*
X6389999D02*
D03*
X6469999D02*
D03*
X6230000Y4212502D02*
D03*
X6469999D02*
D03*
X6409999Y4192502D02*
D03*
X5990000Y4172502D02*
D03*
X6030000D02*
D03*
X6090000D02*
D03*
X6170000D02*
D03*
X6210000D02*
D03*
X6250000D02*
D03*
X6409999D02*
D03*
X5990000Y4152502D02*
D03*
X6030000D02*
D03*
X6290000D02*
D03*
X6070000Y4132502D02*
D03*
X6150000D02*
D03*
X6310000D02*
D03*
X6110000Y4112502D02*
D03*
X6150000D02*
D03*
X6290000D02*
D03*
X6070000Y4092502D02*
D03*
X6150000D02*
D03*
X6190000D02*
D03*
X6230000D02*
D03*
X6349999D02*
D03*
X6469999D02*
D03*
X6310000Y4072502D02*
D03*
X6349999D02*
D03*
X6469999D02*
D03*
X6050000Y4052502D02*
D03*
X6170000D02*
D03*
X6230000D02*
D03*
X6290000D02*
D03*
X6349999D02*
D03*
X6469999D02*
D03*
X6349999Y4032502D02*
D03*
X6469999D02*
D03*
X6070000Y4012502D02*
D03*
X6130000D02*
D03*
X6170000D02*
D03*
X6210000D02*
D03*
X6310000D02*
D03*
X6349999D02*
D03*
X6469999D02*
D03*
X6130000Y3992502D02*
D03*
D116*
X6280000Y4392501D02*
D03*
X6060000Y4292501D02*
D03*
X6280000Y4272501D02*
D03*
X6359999D02*
D03*
X6020000Y4252502D02*
D03*
X6040000Y4232502D02*
D03*
X6200000D02*
D03*
X6080000Y4212502D02*
D03*
X6280000D02*
D03*
X6040000Y4192502D02*
D03*
X6220000Y4152502D02*
D03*
X6359999D02*
D03*
X6020000Y4132502D02*
D03*
X6200000D02*
D03*
X6020000Y4092502D02*
D03*
X6200000Y4072502D02*
D03*
X6260000D02*
D03*
X6000000Y4052502D02*
D03*
X6020000Y4032502D02*
D03*
X6100000D02*
D03*
X6020000Y4012502D02*
D03*
X6260000D02*
D03*
X6220000Y3992502D02*
D03*
X6300000D02*
D03*
D117*
X6050000Y4352501D02*
D03*
X6409999D02*
D03*
X6130000Y4252502D02*
D03*
X6210000Y4192502D02*
D03*
X6409999Y4112502D02*
D03*
Y3992502D02*
D03*
D118*
X6020000Y4312501D02*
D03*
X6180000Y4292501D02*
D03*
X6399999Y4212502D02*
D03*
X6340000Y4192502D02*
D03*
X6439999Y4152502D02*
D03*
D119*
X6120000D02*
D03*
X6040000Y3992502D02*
D03*
D120*
X6110000Y4072502D02*
D03*
X6230000Y4032502D02*
D03*
%TF.MD5,9076ae15a03fec572c71e22fbd7c8b9d*%
M02*
