%TF.GenerationSoftware,Altium Limited,Altium Designer,23.9.2 (47)*%
G04 Layer_Color=255*
%FSLAX45Y45*%
%MOMM*%
%TF.SameCoordinates,F1AFF133-CB08-443C-B5AD-2193434A7FAF*%
%TF.FilePolarity,Positive*%
%TF.FileFunction,Pads,Bot*%
%TF.Part,Single*%
G01*
G75*
%TA.AperFunction,SMDPad,CuDef*%
G04:AMPARAMS|DCode=75|XSize=1.65mm|YSize=1.25mm|CornerRadius=0.3125mm|HoleSize=0mm|Usage=FLASHONLY|Rotation=0.000|XOffset=0mm|YOffset=0mm|HoleType=Round|Shape=RoundedRectangle|*
%AMROUNDEDRECTD75*
21,1,1.65000,0.62500,0,0,0.0*
21,1,1.02500,1.25000,0,0,0.0*
1,1,0.62500,0.51250,-0.31250*
1,1,0.62500,-0.51250,-0.31250*
1,1,0.62500,-0.51250,0.31250*
1,1,0.62500,0.51250,0.31250*
%
%ADD75ROUNDEDRECTD75*%
%TA.AperFunction,ComponentPad*%
G04:AMPARAMS|DCode=95|XSize=1.7mm|YSize=2.1mm|CornerRadius=0.425mm|HoleSize=0mm|Usage=FLASHONLY|Rotation=270.000|XOffset=0mm|YOffset=0mm|HoleType=Round|Shape=RoundedRectangle|*
%AMROUNDEDRECTD95*
21,1,1.70000,1.25001,0,0,270.0*
21,1,0.85000,2.10000,0,0,270.0*
1,1,0.85000,-0.62500,-0.42500*
1,1,0.85000,-0.62500,0.42500*
1,1,0.85000,0.62500,0.42500*
1,1,0.85000,0.62500,-0.42500*
%
%ADD95ROUNDEDRECTD95*%
G04:AMPARAMS|DCode=96|XSize=1.7mm|YSize=2.1mm|CornerRadius=0mm|HoleSize=0mm|Usage=FLASHONLY|Rotation=270.000|XOffset=0mm|YOffset=0mm|HoleType=Round|Shape=Octagon|*
%AMOCTAGOND96*
4,1,8,1.05000,0.42500,1.05000,-0.42500,0.62500,-0.85000,-0.62500,-0.85000,-1.05000,-0.42500,-1.05000,0.42500,-0.62500,0.85000,0.62500,0.85000,1.05000,0.42500,0.0*
%
%ADD96OCTAGOND96*%

G04:AMPARAMS|DCode=97|XSize=1.7mm|YSize=2.1mm|CornerRadius=0mm|HoleSize=0mm|Usage=FLASHONLY|Rotation=0.000|XOffset=0mm|YOffset=0mm|HoleType=Round|Shape=Octagon|*
%AMOCTAGOND97*
4,1,8,-0.42500,1.05000,0.42500,1.05000,0.85000,0.62500,0.85000,-0.62500,0.42500,-1.05000,-0.42500,-1.05000,-0.85000,-0.62500,-0.85000,0.62500,-0.42500,1.05000,0.0*
%
%ADD97OCTAGOND97*%

G04:AMPARAMS|DCode=98|XSize=1.7mm|YSize=2.1mm|CornerRadius=0.425mm|HoleSize=0mm|Usage=FLASHONLY|Rotation=0.000|XOffset=0mm|YOffset=0mm|HoleType=Round|Shape=RoundedRectangle|*
%AMROUNDEDRECTD98*
21,1,1.70000,1.25001,0,0,0.0*
21,1,0.85000,2.10000,0,0,0.0*
1,1,0.85000,0.42500,-0.62500*
1,1,0.85000,-0.42500,-0.62500*
1,1,0.85000,-0.42500,0.62500*
1,1,0.85000,0.42500,0.62500*
%
%ADD98ROUNDEDRECTD98*%
G04:AMPARAMS|DCode=99|XSize=1.8mm|YSize=1.45mm|CornerRadius=0.3625mm|HoleSize=0mm|Usage=FLASHONLY|Rotation=180.000|XOffset=0mm|YOffset=0mm|HoleType=Round|Shape=RoundedRectangle|*
%AMROUNDEDRECTD99*
21,1,1.80000,0.72500,0,0,180.0*
21,1,1.07500,1.45000,0,0,180.0*
1,1,0.72500,-0.53750,0.36250*
1,1,0.72500,0.53750,0.36250*
1,1,0.72500,0.53750,-0.36250*
1,1,0.72500,-0.53750,-0.36250*
%
%ADD99ROUNDEDRECTD99*%
G04:AMPARAMS|DCode=100|XSize=4mm|YSize=3.6mm|CornerRadius=0.54mm|HoleSize=0mm|Usage=FLASHONLY|Rotation=0.000|XOffset=0mm|YOffset=0mm|HoleType=Round|Shape=RoundedRectangle|*
%AMROUNDEDRECTD100*
21,1,4.00000,2.52000,0,0,0.0*
21,1,2.92000,3.60000,0,0,0.0*
1,1,1.08000,1.46000,-1.26000*
1,1,1.08000,-1.46000,-1.26000*
1,1,1.08000,-1.46000,1.26000*
1,1,1.08000,1.46000,1.26000*
%
%ADD100ROUNDEDRECTD100*%
G04:AMPARAMS|DCode=101|XSize=2.2mm|YSize=2.2mm|CornerRadius=0.55mm|HoleSize=0mm|Usage=FLASHONLY|Rotation=270.000|XOffset=0mm|YOffset=0mm|HoleType=Round|Shape=RoundedRectangle|*
%AMROUNDEDRECTD101*
21,1,2.20000,1.10000,0,0,270.0*
21,1,1.10000,2.20000,0,0,270.0*
1,1,1.10000,-0.55000,-0.55000*
1,1,1.10000,-0.55000,0.55000*
1,1,1.10000,0.55000,0.55000*
1,1,1.10000,0.55000,-0.55000*
%
%ADD101ROUNDEDRECTD101*%
G04:AMPARAMS|DCode=102|XSize=2.2mm|YSize=2.2mm|CornerRadius=0mm|HoleSize=0mm|Usage=FLASHONLY|Rotation=270.000|XOffset=0mm|YOffset=0mm|HoleType=Round|Shape=Octagon|*
%AMOCTAGOND102*
4,1,8,-0.55000,-1.10000,0.55000,-1.10000,1.10000,-0.55000,1.10000,0.55000,0.55000,1.10000,-0.55000,1.10000,-1.10000,0.55000,-1.10000,-0.55000,-0.55000,-1.10000,0.0*
%
%ADD102OCTAGOND102*%

%TA.AperFunction,SMDPad,CuDef*%
G04:AMPARAMS|DCode=107|XSize=2.2mm|YSize=0.7mm|CornerRadius=0.175mm|HoleSize=0mm|Usage=FLASHONLY|Rotation=180.000|XOffset=0mm|YOffset=0mm|HoleType=Round|Shape=RoundedRectangle|*
%AMROUNDEDRECTD107*
21,1,2.20000,0.35000,0,0,180.0*
21,1,1.85000,0.70000,0,0,180.0*
1,1,0.35000,-0.92500,0.17500*
1,1,0.35000,0.92500,0.17500*
1,1,0.35000,0.92500,-0.17500*
1,1,0.35000,-0.92500,-0.17500*
%
%ADD107ROUNDEDRECTD107*%
D75*
X5780000Y3440000D02*
D03*
Y3720000D02*
D03*
X5510000Y1450000D02*
D03*
Y1730000D02*
D03*
X6220000Y2870000D02*
D03*
Y3150000D02*
D03*
X3510000Y3140000D02*
D03*
Y2860000D02*
D03*
X3650000Y1260000D02*
D03*
Y980000D02*
D03*
X4800000Y1290000D02*
D03*
Y1570000D02*
D03*
X2820000Y3200000D02*
D03*
Y2920000D02*
D03*
D95*
X8402000Y317500D02*
D03*
Y571500D02*
D03*
X8108000Y317500D02*
D03*
Y571500D02*
D03*
X8402000Y825500D02*
D03*
Y1079500D02*
D03*
Y1333500D02*
D03*
Y1587500D02*
D03*
Y1841500D02*
D03*
Y2095500D02*
D03*
Y2349500D02*
D03*
X8108000Y825500D02*
D03*
Y1079500D02*
D03*
Y1333500D02*
D03*
Y1587500D02*
D03*
Y1841500D02*
D03*
Y2095500D02*
D03*
X8402000Y3111500D02*
D03*
Y3365500D02*
D03*
X8108000Y3111500D02*
D03*
Y3365500D02*
D03*
X8402000Y3619500D02*
D03*
Y3873500D02*
D03*
Y4127500D02*
D03*
Y4381500D02*
D03*
Y4635500D02*
D03*
Y4889500D02*
D03*
Y5143500D02*
D03*
X8108000Y3619500D02*
D03*
Y3873500D02*
D03*
Y4127500D02*
D03*
Y4381500D02*
D03*
Y4635500D02*
D03*
Y4889500D02*
D03*
X2306000Y4512400D02*
D03*
Y4258400D02*
D03*
X2012000D02*
D03*
D96*
X8108000Y2349500D02*
D03*
Y5143500D02*
D03*
X2012000Y4512400D02*
D03*
D97*
X2032000Y170500D02*
D03*
Y4996500D02*
D03*
D98*
X2286000Y170500D02*
D03*
X2540000D02*
D03*
X2794000D02*
D03*
X3048000D02*
D03*
X3302000D02*
D03*
X3556000D02*
D03*
X3810000D02*
D03*
X4064000D02*
D03*
X4318000D02*
D03*
X4572000D02*
D03*
X4826000D02*
D03*
X5080000D02*
D03*
X5334000D02*
D03*
X5588000D02*
D03*
X5842000D02*
D03*
X6096000D02*
D03*
X6350000D02*
D03*
X6604000D02*
D03*
X6858000D02*
D03*
X7112000D02*
D03*
X7366000D02*
D03*
X7620000D02*
D03*
X2032000Y464500D02*
D03*
X2286000D02*
D03*
X2540000D02*
D03*
X2794000D02*
D03*
X3048000D02*
D03*
X3302000D02*
D03*
X3556000D02*
D03*
X3810000D02*
D03*
X4064000D02*
D03*
X4318000D02*
D03*
X4572000D02*
D03*
X4826000D02*
D03*
X5080000D02*
D03*
X5334000D02*
D03*
X5588000D02*
D03*
X5842000D02*
D03*
X6096000D02*
D03*
X6350000D02*
D03*
X6604000D02*
D03*
X6858000D02*
D03*
X7112000D02*
D03*
X7366000D02*
D03*
X7620000D02*
D03*
X2286000Y4996500D02*
D03*
X2540000D02*
D03*
X2794000D02*
D03*
X3048000D02*
D03*
X3302000D02*
D03*
X3556000D02*
D03*
X3810000D02*
D03*
X4064000D02*
D03*
X4318000D02*
D03*
X4572000D02*
D03*
X4826000D02*
D03*
X5080000D02*
D03*
X5334000D02*
D03*
X5588000D02*
D03*
X5842000D02*
D03*
X6096000D02*
D03*
X6350000D02*
D03*
X6604000D02*
D03*
X6858000D02*
D03*
X7112000D02*
D03*
X7366000D02*
D03*
X7620000D02*
D03*
X2032000Y5290500D02*
D03*
X2286000D02*
D03*
X2540000D02*
D03*
X2794000D02*
D03*
X3048000D02*
D03*
X3302000D02*
D03*
X3556000D02*
D03*
X3810000D02*
D03*
X4064000D02*
D03*
X4318000D02*
D03*
X4572000D02*
D03*
X4826000D02*
D03*
X5080000D02*
D03*
X5334000D02*
D03*
X5588000D02*
D03*
X5842000D02*
D03*
X6096000D02*
D03*
X6350000D02*
D03*
X6604000D02*
D03*
X6858000D02*
D03*
X7112000D02*
D03*
X7366000D02*
D03*
X7620000D02*
D03*
D99*
X1672000Y978000D02*
D03*
X1292000D02*
D03*
X1672000Y1842000D02*
D03*
X1292000D02*
D03*
D100*
X1460500Y5143500D02*
D03*
D101*
X1480000Y345000D02*
D03*
D102*
Y695000D02*
D03*
D107*
X1660000Y1630000D02*
D03*
Y1480000D02*
D03*
Y1330000D02*
D03*
Y1180000D02*
D03*
%TF.MD5,01f0ef01cb8f0f9ccf3fe761f18c6d93*%
M02*
