%TF.GenerationSoftware,Altium Limited,Altium Designer,23.9.2 (47)*%
G04 Layer_Color=0*
%FSLAX45Y45*%
%MOMM*%
%TF.SameCoordinates,F1AFF133-CB08-443C-B5AD-2193434A7FAF*%
%TF.FilePolarity,Positive*%
%TF.FileFunction,Plated,1,6,PTH,Drill*%
%TF.Part,Single*%
G01*
G75*
%TA.AperFunction,ComponentDrill*%
%ADD668C,1.10000*%
%ADD669C,1.10000*%
%ADD670C,1.05000*%
%ADD671C,3.20000*%
%ADD672C,1.20000*%
%TA.AperFunction,ViaDrill,NotFilled*%
%ADD673C,0.25000*%
D668*
X8382000Y317500D02*
D03*
Y571500D02*
D03*
X8128000Y317500D02*
D03*
Y571500D02*
D03*
X8382000Y825500D02*
D03*
Y1079500D02*
D03*
Y1333500D02*
D03*
Y1587500D02*
D03*
Y1841500D02*
D03*
Y2095500D02*
D03*
Y2349500D02*
D03*
X8128000Y825500D02*
D03*
Y1079500D02*
D03*
Y1333500D02*
D03*
Y1587500D02*
D03*
Y1841500D02*
D03*
Y2095500D02*
D03*
Y2349500D02*
D03*
X8382000Y3111500D02*
D03*
Y3365500D02*
D03*
X8128000Y3111500D02*
D03*
Y3365500D02*
D03*
X8382000Y3619500D02*
D03*
Y3873500D02*
D03*
Y4127500D02*
D03*
Y4381500D02*
D03*
Y4635500D02*
D03*
Y4889500D02*
D03*
Y5143500D02*
D03*
X8128000Y3619500D02*
D03*
Y3873500D02*
D03*
Y4127500D02*
D03*
Y4381500D02*
D03*
Y4635500D02*
D03*
Y4889500D02*
D03*
Y5143500D02*
D03*
X2286000Y4512400D02*
D03*
Y4258400D02*
D03*
X2032000Y4512400D02*
D03*
Y4258400D02*
D03*
D669*
Y190500D02*
D03*
X2286000D02*
D03*
X2540000D02*
D03*
X2794000D02*
D03*
X3048000D02*
D03*
X3302000D02*
D03*
X3556000D02*
D03*
X3810000D02*
D03*
X4064000D02*
D03*
X4318000D02*
D03*
X4572000D02*
D03*
X4826000D02*
D03*
X5080000D02*
D03*
X5334000D02*
D03*
X5588000D02*
D03*
X5842000D02*
D03*
X6096000D02*
D03*
X6350000D02*
D03*
X6604000D02*
D03*
X6858000D02*
D03*
X7112000D02*
D03*
X7366000D02*
D03*
X7620000D02*
D03*
X2032000Y444500D02*
D03*
X2286000D02*
D03*
X2540000D02*
D03*
X2794000D02*
D03*
X3048000D02*
D03*
X3302000D02*
D03*
X3556000D02*
D03*
X3810000D02*
D03*
X4064000D02*
D03*
X4318000D02*
D03*
X4572000D02*
D03*
X4826000D02*
D03*
X5080000D02*
D03*
X5334000D02*
D03*
X5588000D02*
D03*
X5842000D02*
D03*
X6096000D02*
D03*
X6350000D02*
D03*
X6604000D02*
D03*
X6858000D02*
D03*
X7112000D02*
D03*
X7366000D02*
D03*
X7620000D02*
D03*
X2032000Y5016500D02*
D03*
X2286000D02*
D03*
X2540000D02*
D03*
X2794000D02*
D03*
X3048000D02*
D03*
X3302000D02*
D03*
X3556000D02*
D03*
X3810000D02*
D03*
X4064000D02*
D03*
X4318000D02*
D03*
X4572000D02*
D03*
X4826000D02*
D03*
X5080000D02*
D03*
X5334000D02*
D03*
X5588000D02*
D03*
X5842000D02*
D03*
X6096000D02*
D03*
X6350000D02*
D03*
X6604000D02*
D03*
X6858000D02*
D03*
X7112000D02*
D03*
X7366000D02*
D03*
X7620000D02*
D03*
X2032000Y5270500D02*
D03*
X2286000D02*
D03*
X2540000D02*
D03*
X2794000D02*
D03*
X3048000D02*
D03*
X3302000D02*
D03*
X3556000D02*
D03*
X3810000D02*
D03*
X4064000D02*
D03*
X4318000D02*
D03*
X4572000D02*
D03*
X4826000D02*
D03*
X5080000D02*
D03*
X5334000D02*
D03*
X5588000D02*
D03*
X5842000D02*
D03*
X6096000D02*
D03*
X6350000D02*
D03*
X6604000D02*
D03*
X6858000D02*
D03*
X7112000D02*
D03*
X7366000D02*
D03*
X7620000D02*
D03*
D670*
X1672000Y978000D02*
D03*
X1292000D02*
D03*
X1672000Y1842000D02*
D03*
X1292000D02*
D03*
D671*
X1460500Y5143500D02*
D03*
D672*
X1480000Y345000D02*
D03*
Y695000D02*
D03*
D673*
X6844999Y4605000D02*
D03*
X3500000Y1240000D02*
D03*
X4680000Y1220000D02*
D03*
X2350000Y2850000D02*
D03*
X2520000Y2590000D02*
D03*
X2430000Y2630000D02*
D03*
Y2720000D02*
D03*
X2410000Y2940000D02*
D03*
X6200000Y2990000D02*
D03*
Y2780000D02*
D03*
X5910000Y3460000D02*
D03*
X6230000Y3300000D02*
D03*
X6020000Y2870000D02*
D03*
X5830000Y2730000D02*
D03*
X6075415Y3277763D02*
D03*
X5870000Y3830000D02*
D03*
X6260000Y3770000D02*
D03*
X6620000Y4135000D02*
D03*
X6799117Y4199151D02*
D03*
X5290000Y3580000D02*
D03*
X5670000Y3590000D02*
D03*
X5660000Y3700000D02*
D03*
X6160000Y3480000D02*
D03*
X5672500Y3935000D02*
D03*
X5440000Y3700000D02*
D03*
X5252333Y3849767D02*
D03*
X5080000Y3800000D02*
D03*
X5550000Y1360000D02*
D03*
X3330000Y3180000D02*
D03*
X3200000Y3490000D02*
D03*
X3033178Y3151706D02*
D03*
X6210000Y4180000D02*
D03*
X1300500Y5283500D02*
D03*
Y5003500D02*
D03*
X1620500D02*
D03*
Y5283500D02*
D03*
X3470000Y870000D02*
D03*
X3750432Y1306337D02*
D03*
X6869014Y1862609D02*
D03*
X6517797Y1814703D02*
D03*
X6199866Y1000972D02*
D03*
X6109103Y1006144D02*
D03*
X6080000Y2120000D02*
D03*
X6438295Y1525486D02*
D03*
X5910000Y1850000D02*
D03*
X5560000D02*
D03*
X5650000Y1840000D02*
D03*
X6030000Y730000D02*
D03*
X6190000Y722500D02*
D03*
X5990647Y1431763D02*
D03*
X5998767Y1352460D02*
D03*
X6268605Y2061571D02*
D03*
X6213390Y1796625D02*
D03*
X5994691Y1205648D02*
D03*
X5995000Y1655430D02*
D03*
X5970000Y900000D02*
D03*
X6010017Y1029913D02*
D03*
X5994978Y1103390D02*
D03*
X6201545Y1278754D02*
D03*
X6370000Y960000D02*
D03*
X5967633Y272699D02*
D03*
X5907440Y317440D02*
D03*
X6435385Y647909D02*
D03*
X6360000Y640000D02*
D03*
X5890000Y859213D02*
D03*
X6208114Y1563868D02*
D03*
X5998174Y1875000D02*
D03*
X5745000Y855000D02*
D03*
X5670006Y854056D02*
D03*
X5491177Y1038661D02*
D03*
X5589702Y850942D02*
D03*
X5509520Y852861D02*
D03*
X5390000Y850000D02*
D03*
X5220000Y1030000D02*
D03*
X5179338Y848294D02*
D03*
X5864580Y2053954D02*
D03*
X5960000Y2038584D02*
D03*
X7120000Y2100000D02*
D03*
X7090000Y2190000D02*
D03*
X6960000D02*
D03*
Y2660000D02*
D03*
X7070000D02*
D03*
X6920000Y3060000D02*
D03*
X3870000Y4612500D02*
D03*
X4440000Y4360000D02*
D03*
X4682747Y1503402D02*
D03*
X7378777Y2898539D02*
D03*
X7380069Y1441414D02*
D03*
X7377172Y1951459D02*
D03*
X7424390Y1885414D02*
D03*
X6072813Y4562155D02*
D03*
X6142404Y4518397D02*
D03*
X6050000Y4680000D02*
D03*
X6590000Y4757500D02*
D03*
X6660000Y1200000D02*
D03*
Y1340000D02*
D03*
X5703323Y1959998D02*
D03*
X6721382Y3978618D02*
D03*
X6576480Y3867338D02*
D03*
X6584488Y3564515D02*
D03*
X6900000Y1180000D02*
D03*
X7643968Y1449224D02*
D03*
X7626205Y2047500D02*
D03*
X7628893Y2185388D02*
D03*
X7663279Y2583984D02*
D03*
X7673536Y2370298D02*
D03*
X7643968Y2439223D02*
D03*
X7660000Y3020000D02*
D03*
X7485112Y1656801D02*
D03*
X7390409Y1772427D02*
D03*
X7425123Y1705944D02*
D03*
X6760000Y1200000D02*
D03*
X4240581Y3471270D02*
D03*
X4177817Y3512327D02*
D03*
X4250000Y3390000D02*
D03*
X6593129Y3275707D02*
D03*
X4060000Y4730000D02*
D03*
X4050000Y4650000D02*
D03*
X3790000Y4600000D02*
D03*
X4650000Y910000D02*
D03*
X4700000Y850000D02*
D03*
X4882230Y950913D02*
D03*
X4725905Y3732344D02*
D03*
X4788695Y3691326D02*
D03*
X3580000Y3360000D02*
D03*
X3640000Y4400000D02*
D03*
X8450000Y2900000D02*
D03*
X4900000Y1970000D02*
D03*
X2980000Y3860000D02*
D03*
X2640000Y4532833D02*
D03*
X6265622Y4553521D02*
D03*
X4400000Y3410000D02*
D03*
X4470147Y3335306D02*
D03*
X7159737Y4723983D02*
D03*
X7015527Y4754889D02*
D03*
X7049136Y4466648D02*
D03*
X7041126Y4389700D02*
D03*
X7540000Y4730000D02*
D03*
X7702500Y4830000D02*
D03*
X3540000Y1880000D02*
D03*
X5470000Y1620000D02*
D03*
X7672830Y1890000D02*
D03*
X7735777Y3790405D02*
D03*
X5320000Y2250000D02*
D03*
X5010000Y2450000D02*
D03*
X3470000Y3739832D02*
D03*
X2467798Y4206829D02*
D03*
X6877625Y2338752D02*
D03*
X6230000Y2690000D02*
D03*
X3658860Y3817500D02*
D03*
X5040000Y2840000D02*
D03*
X4420000Y2760000D02*
D03*
X4638253Y3580186D02*
D03*
X6690750Y3072093D02*
D03*
X2508230Y4322875D02*
D03*
X5750000Y1670000D02*
D03*
X5747673Y1541987D02*
D03*
X5780000Y2486550D02*
D03*
X4500000Y2320000D02*
D03*
X4915575Y1699320D02*
D03*
X1885752Y1064249D02*
D03*
X1910000Y1150000D02*
D03*
X5017432Y3989517D02*
D03*
X7747500Y1508948D02*
D03*
X7628893Y1705388D02*
D03*
X1847887Y1685174D02*
D03*
X3509606Y1573840D02*
D03*
X4649005Y1010000D02*
D03*
X7424400Y4699156D02*
D03*
X7328319Y4846500D02*
D03*
X7340000Y4700000D02*
D03*
X5822616Y3070065D02*
D03*
X6454505Y1671541D02*
D03*
X2440000Y1610000D02*
D03*
X2180000Y2310000D02*
D03*
X7418679Y2365207D02*
D03*
X7368441Y2420895D02*
D03*
X6327943Y4608869D02*
D03*
X7060000Y3420000D02*
D03*
X7030000Y3510000D02*
D03*
X6890000Y3650000D02*
D03*
X7505734Y3328738D02*
D03*
X6726293Y3740410D02*
D03*
X7450000Y3910000D02*
D03*
X7460043Y3830000D02*
D03*
X7460000Y3750000D02*
D03*
X7314082Y3623987D02*
D03*
X7068166Y3969168D02*
D03*
X7220000Y3720000D02*
D03*
X7200000Y3610000D02*
D03*
X7418758Y3994981D02*
D03*
X7870000Y4080000D02*
D03*
X8524822Y5021488D02*
D03*
X7140000Y3690000D02*
D03*
X8467629Y2543086D02*
D03*
X7560000Y3390000D02*
D03*
X8060000Y2920000D02*
D03*
X8301041Y2657970D02*
D03*
X7500000Y3440000D02*
D03*
X7643968Y2909224D02*
D03*
X7673536Y2840298D02*
D03*
X8191820Y2549928D02*
D03*
X8039342Y2519342D02*
D03*
X8542436Y2581621D02*
D03*
X6890000Y3280000D02*
D03*
X7440000D02*
D03*
X6843692Y3732214D02*
D03*
X7130000Y4030000D02*
D03*
X7190000Y4080000D02*
D03*
X7068432Y3750256D02*
D03*
X6280000Y3410000D02*
D03*
X6738605Y3663204D02*
D03*
X6820000Y3340000D02*
D03*
X6790000Y3190000D02*
D03*
X7691319Y4259599D02*
D03*
X7425122Y2655943D02*
D03*
X7628893Y2655388D02*
D03*
X8210573Y2225834D02*
D03*
X8260000Y1940000D02*
D03*
X5750000Y1230000D02*
D03*
X5636720Y2335000D02*
D03*
X5430000Y2450000D02*
D03*
X5447500Y3206821D02*
D03*
X4010002Y1070000D02*
D03*
X6830382Y2280300D02*
D03*
X6640000Y2100000D02*
D03*
X6899999Y2029926D02*
D03*
X6870000Y1950000D02*
D03*
X6600184Y990000D02*
D03*
X6582500Y4400000D02*
D03*
Y4210000D02*
D03*
Y4480000D02*
D03*
X5870000Y4610000D02*
D03*
X6150000D02*
D03*
X6720000Y1760000D02*
D03*
X5750000Y1330000D02*
D03*
X5660000Y1500000D02*
D03*
X6889999Y2520500D02*
D03*
X7250000Y3060000D02*
D03*
X6610000Y4330000D02*
D03*
X7560000Y4300000D02*
D03*
X6770000Y2810000D02*
D03*
X7340000Y4180000D02*
D03*
X7641590Y2259305D02*
D03*
X6920000Y1590000D02*
D03*
X7090000Y920000D02*
D03*
X6620000Y820000D02*
D03*
X8260000Y4230000D02*
D03*
X6000000Y2570002D02*
D03*
X4870000Y850000D02*
D03*
X5030000D02*
D03*
X6960000Y4200000D02*
D03*
X7415000Y870298D02*
D03*
X7424390Y1375413D02*
D03*
X6886967Y983033D02*
D03*
X6940000Y930000D02*
D03*
Y760000D02*
D03*
X7417877Y692123D02*
D03*
X7371590Y759305D02*
D03*
X7890000Y670000D02*
D03*
X7831590Y719305D02*
D03*
X7830000Y890000D02*
D03*
X7890000Y830298D02*
D03*
X7369857Y930190D02*
D03*
X2870000Y3080000D02*
D03*
X3500000Y3270000D02*
D03*
X2950000Y3150000D02*
D03*
X3330658Y2930659D02*
D03*
X4250000Y2740000D02*
D03*
X4660000Y2660000D02*
D03*
X5390000Y2840000D02*
D03*
X2400000Y2430000D02*
D03*
X3540000Y790000D02*
D03*
X6674390Y925413D02*
D03*
X6891590Y819305D02*
D03*
X7155123Y685944D02*
D03*
X7615123Y645943D02*
D03*
X6879999Y1380000D02*
D03*
X6820000Y1440000D02*
D03*
X6770000Y2480000D02*
D03*
X7118163Y1582361D02*
D03*
X7118163Y2572361D02*
D03*
X7120409Y752426D02*
D03*
X7154390Y865413D02*
D03*
X6675123Y745943D02*
D03*
X7580409Y712426D02*
D03*
X7558441Y880895D02*
D03*
X7614390Y825413D02*
D03*
X7641589Y2729305D02*
D03*
X7390409Y2722426D02*
D03*
X7424390Y2835413D02*
D03*
X7253733Y2830000D02*
D03*
X6830382Y2750300D02*
D03*
X6877625Y2808752D02*
D03*
X7390409Y2252426D02*
D03*
X7425123Y2185943D02*
D03*
X7253733Y2360000D02*
D03*
X7641590Y1779306D02*
D03*
X7643968Y1959224D02*
D03*
X7628893Y1195388D02*
D03*
X7641590Y1269305D02*
D03*
X7673536Y1380298D02*
D03*
X6900000Y1680000D02*
D03*
X7253733Y1880001D02*
D03*
Y1370000D02*
D03*
X7390409Y1262426D02*
D03*
X7425123Y1195944D02*
D03*
X5116260Y2841998D02*
D03*
X5165000Y2450000D02*
D03*
X4710658Y650658D02*
D03*
X3712176Y646743D02*
D03*
X4140000Y642500D02*
D03*
X4130000Y780000D02*
D03*
X3860000D02*
D03*
X4050000Y920000D02*
D03*
X2560000Y2100000D02*
D03*
X3100000Y4050000D02*
D03*
X5073717Y3051151D02*
D03*
X5050000Y2980000D02*
D03*
X5030000Y3120000D02*
D03*
X4790000Y3290000D02*
D03*
X3610000Y2530000D02*
D03*
X3890000Y2450000D02*
D03*
X4020000D02*
D03*
X4230000Y2530000D02*
D03*
X4310000Y2309998D02*
D03*
X4610000Y3020000D02*
D03*
X4430000Y1300000D02*
D03*
X4251747Y2897500D02*
D03*
X5296038Y3910717D02*
D03*
X4880000Y4230000D02*
D03*
X5650001Y4609998D02*
D03*
X4655412Y4350000D02*
D03*
X4720000Y3650000D02*
D03*
X4810000Y3490000D02*
D03*
X4685114Y3064220D02*
D03*
X4410000Y3670000D02*
D03*
X8533671Y2778866D02*
D03*
X3270000Y1660000D02*
D03*
X5290000Y850000D02*
D03*
X4190000Y4130000D02*
D03*
X5360000Y2130000D02*
D03*
X5070000Y1770000D02*
D03*
X2700000Y3370000D02*
D03*
X3077352Y2569393D02*
D03*
X7481743Y4650021D02*
D03*
X4010000Y2230000D02*
D03*
X3570000Y2220000D02*
D03*
X3710000Y2830000D02*
D03*
X4090000Y2960000D02*
D03*
X2360000Y2600000D02*
D03*
X4419412Y1459077D02*
D03*
X2720000Y1600000D02*
D03*
X3408565Y2166852D02*
D03*
X3350000Y2120000D02*
D03*
X4050000Y1530000D02*
D03*
X3290000Y720000D02*
D03*
X4520000Y650000D02*
D03*
X2150000Y870000D02*
D03*
X1860000Y690000D02*
D03*
X2400000Y870000D02*
D03*
X2380000Y610000D02*
D03*
X2120000Y1930000D02*
D03*
X1980000Y1523734D02*
D03*
X2080000Y1520000D02*
D03*
X1913791Y1250948D02*
D03*
X4220000Y1650000D02*
D03*
X3471666Y2250967D02*
D03*
X3700000Y1960000D02*
D03*
X3960000Y2880000D02*
D03*
X3739998Y2959999D02*
D03*
X2977500Y4407500D02*
D03*
X2710659Y3800659D02*
D03*
X2740000Y3690000D02*
D03*
X3090000Y3740000D02*
D03*
X2780000Y3590000D02*
D03*
X3570000Y3610000D02*
D03*
X4090000Y4330000D02*
D03*
X2780000Y4170000D02*
D03*
X3380000Y4370000D02*
D03*
X3720000Y3510000D02*
D03*
X3310000Y4120000D02*
D03*
X2769342Y2040661D02*
D03*
X2240000Y1370000D02*
D03*
X2800000Y1380000D02*
D03*
X2620000Y1740000D02*
D03*
X2630000Y2440000D02*
D03*
X3110000Y730000D02*
D03*
X2540000Y2270000D02*
D03*
X3050000Y2180000D02*
D03*
X3310000Y2420000D02*
D03*
X3940000Y3890000D02*
D03*
Y4200000D02*
D03*
X5760000Y4750000D02*
D03*
X3950000Y3270000D02*
D03*
X3890000Y2120000D02*
D03*
X4060000Y1450000D02*
D03*
X4880000Y4830000D02*
D03*
X1200000Y4080000D02*
D03*
X2860000Y4820000D02*
D03*
X5360000Y4550000D02*
D03*
X4730000Y4820000D02*
D03*
X3480000Y4570000D02*
D03*
X4260000Y1970000D02*
D03*
X7910000Y4900000D02*
D03*
X7772455Y4541138D02*
D03*
X7720000Y4730000D02*
D03*
X7184135Y4430000D02*
D03*
X7830000Y5080000D02*
D03*
X7000000Y4617500D02*
D03*
X6680000Y4657500D02*
D03*
X4620000Y3370000D02*
D03*
X4450000Y4840000D02*
D03*
X8188000Y2914999D02*
D03*
X6641771Y4528229D02*
D03*
X6675815Y4271571D02*
D03*
X6620000Y4600000D02*
D03*
X3639998Y4509999D02*
D03*
X5430002Y4609998D02*
D03*
X2750002Y2140001D02*
D03*
X4429999Y3750000D02*
D03*
X4952487Y5137236D02*
D03*
X5710469Y5139578D02*
D03*
X5540817Y4609998D02*
D03*
X4480001Y2449998D02*
D03*
X4560001Y2389998D02*
D03*
X4440001Y3970000D02*
D03*
X3121355Y3019999D02*
D03*
X2300575Y2211070D02*
D03*
X4300002Y3039999D02*
D03*
X4460001Y4060002D02*
D03*
X4160002Y3930000D02*
D03*
X4092499Y3090001D02*
D03*
X2270000Y2880000D02*
D03*
X2200000Y2920000D02*
D03*
X2430000Y2810000D02*
D03*
X2750002Y2460000D02*
D03*
X3679998Y319999D02*
D03*
X4189999D02*
D03*
X2200000Y3200000D02*
D03*
Y3000000D02*
D03*
Y3100000D02*
D03*
Y3300000D02*
D03*
Y3400000D02*
D03*
X2180001Y3900002D02*
D03*
X2200001Y3699998D02*
D03*
X2189998Y3800003D02*
D03*
X2049998Y4050000D02*
D03*
X1949999Y4080002D02*
D03*
X2129998Y3990000D02*
D03*
X2190000Y4060000D02*
D03*
X2200001Y3599998D02*
D03*
X2200000Y3500000D02*
D03*
X2530000Y3680000D02*
D03*
X2400000Y4000002D02*
D03*
X2650002Y3970000D02*
D03*
X1950000Y4670000D02*
D03*
X1849999Y4400001D02*
D03*
Y4500001D02*
D03*
X1850000Y4610000D02*
D03*
X1849999Y4300002D02*
D03*
Y4100002D02*
D03*
X1850000Y4200000D02*
D03*
X2050001Y4670000D02*
D03*
X2405305Y4087301D02*
D03*
X2590002Y4620001D02*
D03*
X2250000Y4670000D02*
D03*
X2150001D02*
D03*
X2350000D02*
D03*
X3279999Y4369999D02*
D03*
X3719998Y3156915D02*
D03*
X4949998Y319999D02*
D03*
X4453077Y4211808D02*
D03*
X4320002Y3130001D02*
D03*
X3279308Y2029998D02*
D03*
X4450659Y3840658D02*
D03*
%TF.MD5,27a669b4bff389edf4aaa041fddf565b*%
M02*
