%TF.GenerationSoftware,Altium Limited,Altium Designer,21.1.0 (24)*%
G04 Layer_Color=8388736*
%FSLAX45Y45*%
%MOMM*%
%TF.SameCoordinates,A42B3F18-A760-40AD-9EC3-E9591E309F50*%
%TF.FilePolarity,Negative*%
%TF.FileFunction,Soldermask,Top*%
%TF.Part,Single*%
G01*
G75*
%TA.AperFunction,NonConductor*%
%ADD24C,0.15000*%
%TA.AperFunction,SMDPad,CuDef*%
G04:AMPARAMS|DCode=66|XSize=1.55mm|YSize=2.35mm|CornerRadius=0.425mm|HoleSize=0mm|Usage=FLASHONLY|Rotation=0.000|XOffset=0mm|YOffset=0mm|HoleType=Round|Shape=RoundedRectangle|*
%AMROUNDEDRECTD66*
21,1,1.55000,1.50000,0,0,0.0*
21,1,0.70000,2.35000,0,0,0.0*
1,1,0.85000,0.35000,-0.75000*
1,1,0.85000,-0.35000,-0.75000*
1,1,0.85000,-0.35000,0.75000*
1,1,0.85000,0.35000,0.75000*
%
%ADD66ROUNDEDRECTD66*%
%TA.AperFunction,ComponentPad*%
G04:AMPARAMS|DCode=68|XSize=1.85mm|YSize=2.25mm|CornerRadius=0mm|HoleSize=0mm|Usage=FLASHONLY|Rotation=270.000|XOffset=0mm|YOffset=0mm|HoleType=Round|Shape=Octagon|*
%AMOCTAGOND68*
4,1,8,1.12500,0.46250,1.12500,-0.46250,0.66250,-0.92500,-0.66250,-0.92500,-1.12500,-0.46250,-1.12500,0.46250,-0.66250,0.92500,0.66250,0.92500,1.12500,0.46250,0.0*
%
%ADD68OCTAGOND68*%

G04:AMPARAMS|DCode=69|XSize=1.85mm|YSize=2.25mm|CornerRadius=0.5mm|HoleSize=0mm|Usage=FLASHONLY|Rotation=270.000|XOffset=0mm|YOffset=0mm|HoleType=Round|Shape=RoundedRectangle|*
%AMROUNDEDRECTD69*
21,1,1.85000,1.25001,0,0,270.0*
21,1,0.85000,2.25000,0,0,270.0*
1,1,1.00000,-0.62500,-0.42500*
1,1,1.00000,-0.62500,0.42500*
1,1,1.00000,0.62500,0.42500*
1,1,1.00000,0.62500,-0.42500*
%
%ADD69ROUNDEDRECTD69*%
G04:AMPARAMS|DCode=70|XSize=1.25mm|YSize=1.35mm|CornerRadius=0.35mm|HoleSize=0mm|Usage=FLASHONLY|Rotation=180.000|XOffset=0mm|YOffset=0mm|HoleType=Round|Shape=RoundedRectangle|*
%AMROUNDEDRECTD70*
21,1,1.25000,0.65000,0,0,180.0*
21,1,0.55000,1.35000,0,0,180.0*
1,1,0.70000,-0.27500,0.32500*
1,1,0.70000,0.27500,0.32500*
1,1,0.70000,0.27500,-0.32500*
1,1,0.70000,-0.27500,-0.32500*
%
%ADD70ROUNDEDRECTD70*%
G04:AMPARAMS|DCode=71|XSize=2.05mm|YSize=2.05mm|CornerRadius=0.55mm|HoleSize=0mm|Usage=FLASHONLY|Rotation=180.000|XOffset=0mm|YOffset=0mm|HoleType=Round|Shape=RoundedRectangle|*
%AMROUNDEDRECTD71*
21,1,2.05000,0.95000,0,0,180.0*
21,1,0.95000,2.05000,0,0,180.0*
1,1,1.10000,-0.47500,0.47500*
1,1,1.10000,0.47500,0.47500*
1,1,1.10000,0.47500,-0.47500*
1,1,1.10000,-0.47500,-0.47500*
%
%ADD71ROUNDEDRECTD71*%
%TA.AperFunction,SMDPad,CuDef*%
%ADD82R,1.25000X1.25000*%
G04:AMPARAMS|DCode=83|XSize=1.25mm|YSize=1.25mm|CornerRadius=0.35mm|HoleSize=0mm|Usage=FLASHONLY|Rotation=270.000|XOffset=0mm|YOffset=0mm|HoleType=Round|Shape=RoundedRectangle|*
%AMROUNDEDRECTD83*
21,1,1.25000,0.55000,0,0,270.0*
21,1,0.55000,1.25000,0,0,270.0*
1,1,0.70000,-0.27500,-0.27500*
1,1,0.70000,-0.27500,0.27500*
1,1,0.70000,0.27500,0.27500*
1,1,0.70000,0.27500,-0.27500*
%
%ADD83ROUNDEDRECTD83*%
G04:AMPARAMS|DCode=84|XSize=0.95mm|YSize=0.95mm|CornerRadius=0.275mm|HoleSize=0mm|Usage=FLASHONLY|Rotation=270.000|XOffset=0mm|YOffset=0mm|HoleType=Round|Shape=RoundedRectangle|*
%AMROUNDEDRECTD84*
21,1,0.95000,0.40000,0,0,270.0*
21,1,0.40000,0.95000,0,0,270.0*
1,1,0.55000,-0.20000,-0.20000*
1,1,0.55000,-0.20000,0.20000*
1,1,0.55000,0.20000,0.20000*
1,1,0.55000,0.20000,-0.20000*
%
%ADD84ROUNDEDRECTD84*%
%ADD85R,0.95000X0.95000*%
%TA.AperFunction,BGAPad,CuDef*%
%ADD86C,0.75000*%
%TA.AperFunction,SMDPad,CuDef*%
G04:AMPARAMS|DCode=87|XSize=0.75mm|YSize=0.85mm|CornerRadius=0.225mm|HoleSize=0mm|Usage=FLASHONLY|Rotation=270.000|XOffset=0mm|YOffset=0mm|HoleType=Round|Shape=RoundedRectangle|*
%AMROUNDEDRECTD87*
21,1,0.75000,0.40000,0,0,270.0*
21,1,0.30000,0.85000,0,0,270.0*
1,1,0.45000,-0.20000,-0.15000*
1,1,0.45000,-0.20000,0.15000*
1,1,0.45000,0.20000,0.15000*
1,1,0.45000,0.20000,-0.15000*
%
%ADD87ROUNDEDRECTD87*%
G04:AMPARAMS|DCode=88|XSize=0.65mm|YSize=0.65mm|CornerRadius=0.2mm|HoleSize=0mm|Usage=FLASHONLY|Rotation=270.000|XOffset=0mm|YOffset=0mm|HoleType=Round|Shape=RoundedRectangle|*
%AMROUNDEDRECTD88*
21,1,0.65000,0.25000,0,0,270.0*
21,1,0.25000,0.65000,0,0,270.0*
1,1,0.40000,-0.12500,-0.12500*
1,1,0.40000,-0.12500,0.12500*
1,1,0.40000,0.12500,0.12500*
1,1,0.40000,0.12500,-0.12500*
%
%ADD88ROUNDEDRECTD88*%
%ADD89R,0.53000X1.55000*%
G04:AMPARAMS|DCode=90|XSize=0.53mm|YSize=1.55mm|CornerRadius=0.17mm|HoleSize=0mm|Usage=FLASHONLY|Rotation=180.000|XOffset=0mm|YOffset=0mm|HoleType=Round|Shape=RoundedRectangle|*
%AMROUNDEDRECTD90*
21,1,0.53000,1.21000,0,0,180.0*
21,1,0.19000,1.55000,0,0,180.0*
1,1,0.34000,-0.09500,0.60500*
1,1,0.34000,0.09500,0.60500*
1,1,0.34000,0.09500,-0.60500*
1,1,0.34000,-0.09500,-0.60500*
%
%ADD90ROUNDEDRECTD90*%
G04:AMPARAMS|DCode=91|XSize=3.05mm|YSize=2.05mm|CornerRadius=0.55mm|HoleSize=0mm|Usage=FLASHONLY|Rotation=180.000|XOffset=0mm|YOffset=0mm|HoleType=Round|Shape=RoundedRectangle|*
%AMROUNDEDRECTD91*
21,1,3.05000,0.95000,0,0,180.0*
21,1,1.95000,2.05000,0,0,180.0*
1,1,1.10000,-0.97500,0.47500*
1,1,1.10000,0.97500,0.47500*
1,1,1.10000,0.97500,-0.47500*
1,1,1.10000,-0.97500,-0.47500*
%
%ADD91ROUNDEDRECTD91*%
G04:AMPARAMS|DCode=92|XSize=0.65mm|YSize=0.65mm|CornerRadius=0.2mm|HoleSize=0mm|Usage=FLASHONLY|Rotation=180.000|XOffset=0mm|YOffset=0mm|HoleType=Round|Shape=RoundedRectangle|*
%AMROUNDEDRECTD92*
21,1,0.65000,0.25000,0,0,180.0*
21,1,0.25000,0.65000,0,0,180.0*
1,1,0.40000,-0.12500,0.12500*
1,1,0.40000,0.12500,0.12500*
1,1,0.40000,0.12500,-0.12500*
1,1,0.40000,-0.12500,-0.12500*
%
%ADD92ROUNDEDRECTD92*%
D24*
X1390033Y1309995D02*
Y1380000D01*
X1390035Y420000D02*
Y489995D01*
X1370000Y439995D02*
X1440031D01*
X1370000Y1359995D02*
X1440030D01*
X3010034Y420000D02*
Y489995D01*
X2810000Y439997D02*
X2879966D01*
X3010034Y1309995D02*
Y1380000D01*
X2810034Y1360000D02*
X2880000D01*
D66*
X1588000Y170000D02*
D03*
X2604000D02*
D03*
X1842000D02*
D03*
X2096000D02*
D03*
X826000D02*
D03*
X1080000D02*
D03*
X2350000D02*
D03*
X1334000D02*
D03*
D68*
X180000Y1760000D02*
D03*
D69*
Y1506000D02*
D03*
Y1252000D02*
D03*
Y998000D02*
D03*
Y744000D02*
D03*
Y490000D02*
D03*
Y236000D02*
D03*
X474000Y1760000D02*
D03*
Y1506000D02*
D03*
Y1252000D02*
D03*
Y998000D02*
D03*
Y744000D02*
D03*
Y490000D02*
D03*
Y236000D02*
D03*
D70*
X1637500Y1560000D02*
D03*
X2097500D02*
D03*
D71*
X1450000Y1860000D02*
D03*
X2285000D02*
D03*
D82*
X1030000Y1890000D02*
D03*
D83*
X730000D02*
D03*
D84*
X730000Y1720000D02*
D03*
Y1060000D02*
D03*
D85*
X890000Y1720000D02*
D03*
Y1060000D02*
D03*
D86*
X1540000Y570000D02*
D03*
X1650000D02*
D03*
X1760000D02*
D03*
X1870000D02*
D03*
X1980000D02*
D03*
X2090000D02*
D03*
X2200000D02*
D03*
X2310000D02*
D03*
X2420000D02*
D03*
X2530000D02*
D03*
X2750000D02*
D03*
X2860000D02*
D03*
X1540000Y680000D02*
D03*
X1650000D02*
D03*
X1760000D02*
D03*
X1870000D02*
D03*
X1980000D02*
D03*
X2090000D02*
D03*
X2200000D02*
D03*
X2310000D02*
D03*
X2420000D02*
D03*
X2530000D02*
D03*
X1540000Y790000D02*
D03*
X1650000D02*
D03*
X1760000D02*
D03*
X1870000D02*
D03*
X1980000D02*
D03*
X2090000D02*
D03*
X2200000D02*
D03*
X2310000D02*
D03*
X2420000D02*
D03*
X2530000D02*
D03*
X1540000Y900000D02*
D03*
X1650000D02*
D03*
X1760000D02*
D03*
X1870000D02*
D03*
X1980000D02*
D03*
X2090000D02*
D03*
X2200000D02*
D03*
X2310000D02*
D03*
X2420000D02*
D03*
X2530000D02*
D03*
X1540000Y1010000D02*
D03*
X1650000D02*
D03*
X1760000D02*
D03*
X1870000D02*
D03*
X1980000D02*
D03*
X2090000D02*
D03*
X2200000D02*
D03*
X2310000D02*
D03*
X2420000D02*
D03*
X2530000D02*
D03*
X1540000Y1120000D02*
D03*
X1650000D02*
D03*
X1760000D02*
D03*
X1870000D02*
D03*
X1980000D02*
D03*
X2090000D02*
D03*
X2200000D02*
D03*
X2310000D02*
D03*
X2420000D02*
D03*
X2530000D02*
D03*
X1540000Y1230000D02*
D03*
X1650000D02*
D03*
X1760000D02*
D03*
X1870000D02*
D03*
X1980000D02*
D03*
X2090000D02*
D03*
X2200000D02*
D03*
X2310000D02*
D03*
X2420000D02*
D03*
X2530000D02*
D03*
X2750000D02*
D03*
X2860000D02*
D03*
D87*
X700000Y1390000D02*
D03*
X920000Y1485000D02*
D03*
Y1295000D02*
D03*
X700000Y730000D02*
D03*
X920000Y825000D02*
D03*
Y635000D02*
D03*
D88*
X720000Y1170000D02*
D03*
X820000D02*
D03*
X820000Y1610000D02*
D03*
X720000D02*
D03*
X2410000Y1430000D02*
D03*
X2310000D02*
D03*
X1950000D02*
D03*
X2050000D02*
D03*
X850000Y510000D02*
D03*
X750000D02*
D03*
X820000Y960000D02*
D03*
X720000D02*
D03*
X1660000Y1430000D02*
D03*
X1560000D02*
D03*
X850000Y410000D02*
D03*
X750000D02*
D03*
D89*
X1737500Y1600000D02*
D03*
D90*
X1802500D02*
D03*
X1867500D02*
D03*
X1932500D02*
D03*
X1997500D02*
D03*
D91*
X1867500Y1860000D02*
D03*
D92*
X1310000Y1010000D02*
D03*
Y910000D02*
D03*
%TF.MD5,919de7dd034daea65db5805d693f4484*%
M02*
