%TF.GenerationSoftware,Altium Limited,Altium Designer,21.1.0 (24)*%
G04 Layer_Color=128*
%FSLAX45Y45*%
%MOMM*%
%TF.SameCoordinates,A42B3F18-A760-40AD-9EC3-E9591E309F50*%
%TF.FilePolarity,Positive*%
%TF.FileFunction,Drillmap*%
%TF.Part,Single*%
G01*
G75*
%TA.AperFunction,NonConductor*%
%ADD100C,0.12700*%
D100*
X145000Y1760000D02*
X255000D01*
X200000Y1705000D02*
Y1815000D01*
X145000Y1506000D02*
X255000D01*
X200000Y1451000D02*
Y1561000D01*
X145000Y1252000D02*
X255000D01*
X200000Y1197000D02*
Y1307000D01*
X145000Y998000D02*
X255000D01*
X200000Y943000D02*
Y1053000D01*
X145000Y744000D02*
X255000D01*
X200000Y689000D02*
Y799000D01*
X145000Y490000D02*
X255000D01*
X200000Y435000D02*
Y545000D01*
X145000Y236000D02*
X255000D01*
X200000Y181000D02*
Y291000D01*
X399000Y1760000D02*
X509000D01*
X454000Y1705000D02*
Y1815000D01*
X399000Y1506000D02*
X509000D01*
X454000Y1451000D02*
Y1561000D01*
X399000Y1252000D02*
X509000D01*
X454000Y1197000D02*
Y1307000D01*
X399000Y998000D02*
X509000D01*
X454000Y943000D02*
Y1053000D01*
X399000Y744000D02*
X509000D01*
X454000Y689000D02*
Y799000D01*
X399000Y490000D02*
X509000D01*
X454000Y435000D02*
Y545000D01*
X399000Y236000D02*
X509000D01*
X454000Y181000D02*
Y291000D01*
X1600000Y1560000D02*
X1675000D01*
X1637500Y1522500D02*
Y1597500D01*
X2060000Y1560000D02*
X2135000D01*
X2097500Y1522500D02*
Y1597500D01*
X1390000Y1860000D02*
X1510000D01*
X1450000Y1800000D02*
Y1920000D01*
X2225000Y1860000D02*
X2345000D01*
X2285000Y1800000D02*
Y1920000D01*
X107500Y1910000D02*
X132500D01*
X120000Y1897500D02*
Y1922500D01*
X1147500Y1000000D02*
X1172500D01*
X1160000Y987500D02*
Y1012500D01*
X1167500Y1150000D02*
X1192500D01*
X1180000Y1137500D02*
Y1162500D01*
X1187500Y1070000D02*
X1212500D01*
X1200000Y1057500D02*
Y1082500D01*
X1295898Y742403D02*
X1320897D01*
X1308397Y729904D02*
Y754903D01*
X1337500Y680000D02*
X1362500D01*
X1350000Y667500D02*
Y692500D01*
X1407500Y740000D02*
X1432500D01*
X1420000Y727500D02*
Y752500D01*
X907500Y1160000D02*
X932500D01*
X920000Y1147500D02*
Y1172500D01*
X947500Y410000D02*
X972500D01*
X960000Y397500D02*
Y422500D01*
X682500Y460000D02*
X707500D01*
X695000Y447500D02*
Y472500D01*
X2097500Y1350000D02*
X2122500D01*
X2110000Y1337500D02*
Y1362500D01*
X2005465Y1265132D02*
X2030465D01*
X2017965Y1252632D02*
Y1277632D01*
X807500Y772500D02*
X832500D01*
X820000Y760000D02*
Y785000D01*
X837500Y1490000D02*
X862500D01*
X850000Y1477500D02*
Y1502500D01*
X1677382Y972191D02*
X1702382D01*
X1689882Y959691D02*
Y984691D01*
X2115675Y1158501D02*
X2140674D01*
X2128175Y1146002D02*
Y1171001D01*
X1592554Y1074122D02*
X1617553D01*
X1605053Y1061622D02*
Y1086621D01*
X1712383Y1083207D02*
X1737382D01*
X1724883Y1070707D02*
Y1095707D01*
X1820916Y1081734D02*
X1845916D01*
X1833416Y1069234D02*
Y1094234D01*
X1925341Y1160842D02*
X1950341D01*
X1937841Y1148342D02*
Y1173342D01*
X1927977Y1046619D02*
X1952977D01*
X1940477Y1034120D02*
Y1059119D01*
X1899493Y971235D02*
X1924492D01*
X1911993Y958735D02*
Y983735D01*
X2047500Y1045000D02*
X2072500D01*
X2060000Y1032500D02*
Y1057500D01*
X2371767Y1160048D02*
X2396767D01*
X2384267Y1147548D02*
Y1172548D01*
X2335444Y1085459D02*
X2360443D01*
X2347943Y1072959D02*
Y1097959D01*
X2147496Y1049998D02*
X2172496D01*
X2159996Y1037498D02*
Y1062498D01*
X2337066Y976742D02*
X2362066D01*
X2349566Y964242D02*
Y989242D01*
X2335000Y1270395D02*
X2360000D01*
X2347500Y1257895D02*
Y1282895D01*
X2087500Y350000D02*
X2112500D01*
X2100000Y337500D02*
Y362500D01*
X1712116Y610556D02*
X1737116D01*
X1724616Y598056D02*
Y623056D01*
X1892961Y606013D02*
X1917960D01*
X1905461Y593513D02*
Y618512D01*
X1447500Y110000D02*
X1472500D01*
X1460000Y97500D02*
Y122500D01*
X1187500Y230000D02*
X1212500D01*
X1200000Y217500D02*
Y242500D01*
X937500Y170000D02*
X962500D01*
X950000Y157500D02*
Y182500D01*
X1798565Y845001D02*
X1823565D01*
X1811065Y832501D02*
Y857500D01*
X1797500Y960000D02*
X1822500D01*
X1810000Y947500D02*
Y972500D01*
X1689660Y843906D02*
X1714660D01*
X1702160Y831406D02*
Y856405D01*
X2277500Y480000D02*
X2302500D01*
X2290000Y467500D02*
Y492500D01*
X2337500Y390000D02*
X2362500D01*
X2350000Y377500D02*
Y402500D01*
X2287500Y1350000D02*
X2312500D01*
X2300000Y1337500D02*
Y1362500D01*
X2237500Y1510000D02*
X2262500D01*
X2250000Y1497500D02*
Y1522500D01*
X1217498Y1369997D02*
X1242497D01*
X1229998Y1357497D02*
Y1382497D01*
X1297500Y1370000D02*
X1322500D01*
X1310000Y1357500D02*
Y1382500D01*
X1157500Y1450000D02*
X1182500D01*
X1170000Y1437500D02*
Y1462500D01*
X2136435Y625000D02*
X2161434D01*
X2148934Y612500D02*
Y637500D01*
X1877500Y380000D02*
X1902500D01*
X1890000Y367500D02*
Y392500D01*
X1467500Y400000D02*
X1492500D01*
X1480000Y387500D02*
Y412500D01*
X2477500Y170000D02*
X2502500D01*
X2490000Y157500D02*
Y182500D01*
X1457500Y1520000D02*
X1482500D01*
X1470000Y1507500D02*
Y1532500D01*
X1987500Y1710000D02*
X2012500D01*
X2000000Y1697500D02*
Y1722500D01*
X2607500Y568944D02*
X2632500D01*
X2620000Y556444D02*
Y581444D01*
X817500Y1890000D02*
X842500D01*
X830000Y1877500D02*
Y1902500D01*
X1957500Y170000D02*
X1982500D01*
X1970000Y157500D02*
Y182500D01*
X1697500Y230000D02*
X1722500D01*
X1710000Y217500D02*
Y242500D01*
X2207500Y110000D02*
X2232500D01*
X2220000Y97500D02*
Y122500D01*
X2457500Y270000D02*
X2482500D01*
X2470000Y257500D02*
Y282500D01*
X2127500Y850000D02*
X2152500D01*
X2140000Y837500D02*
Y862500D01*
%TF.MD5,1e9e134084eabcb5edf3c15eda1e47b8*%
M02*
