%TF.GenerationSoftware,Altium Limited,Altium Designer,23.4.1 (23)*%
G04 Layer_Color=32896*
%FSLAX45Y45*%
%MOMM*%
%TF.SameCoordinates,30DB59E4-3B06-4861-84B7-939192905612*%
%TF.FilePolarity,Positive*%
%TF.FileFunction,Legend,Bot*%
%TF.Part,Single*%
G01*
G75*
%TA.AperFunction,NonConductor*%
%ADD30C,0.25400*%
D30*
X1324600Y1013033D02*
Y1114600D01*
X1223033Y1013033D01*
X1197641D01*
X1172249Y1038425D01*
Y1089208D01*
X1197641Y1114600D01*
X1324600Y962249D02*
X1223033D01*
X1172249Y911466D01*
X1223033Y860682D01*
X1324600D01*
X1248425D01*
Y962249D01*
X852249Y1574600D02*
X1004600D01*
Y1473032D01*
Y1396857D02*
Y1346074D01*
X979208Y1320682D01*
X928425D01*
X903033Y1346074D01*
Y1396857D01*
X928425Y1422249D01*
X979208D01*
X1004600Y1396857D01*
X903033Y1269898D02*
X979208D01*
X1004600Y1244506D01*
X979208Y1219115D01*
X1004600Y1193723D01*
X979208Y1168331D01*
X903033D01*
X1004600Y965197D02*
X852249D01*
X1004600Y863629D01*
X852249D01*
X1004600Y787454D02*
Y736671D01*
X979208Y711279D01*
X928425D01*
X903033Y736671D01*
Y787454D01*
X928425Y812846D01*
X979208D01*
X1004600Y787454D01*
Y660495D02*
Y609712D01*
Y635103D01*
X903033D01*
Y660495D01*
X1004600Y533536D02*
Y457361D01*
X979208Y431969D01*
X953816Y457361D01*
Y508145D01*
X928425Y533536D01*
X903033Y508145D01*
Y431969D01*
X1004600Y305010D02*
Y355794D01*
X979208Y381186D01*
X928425D01*
X903033Y355794D01*
Y305010D01*
X928425Y279618D01*
X953816D01*
Y381186D01*
X1392249Y1013033D02*
Y1114600D01*
X1468425D01*
X1443033Y1063817D01*
Y1038425D01*
X1468425Y1013033D01*
X1519208D01*
X1544600Y1038425D01*
Y1089208D01*
X1519208Y1114600D01*
X1392249Y962249D02*
X1493816D01*
X1544600Y911466D01*
X1493816Y860682D01*
X1392249D01*
Y581372D02*
Y632156D01*
X1417641Y657548D01*
X1519208D01*
X1544600Y632156D01*
Y581372D01*
X1519208Y555981D01*
X1417641D01*
X1392249Y581372D01*
Y505197D02*
X1519208D01*
X1544600Y479805D01*
Y429022D01*
X1519208Y403630D01*
X1392249D01*
Y352846D02*
Y251279D01*
Y302063D01*
X1544600D01*
X1747641Y1013033D02*
X1722249Y1038425D01*
Y1089208D01*
X1747641Y1114600D01*
X1849208D01*
X1874600Y1089208D01*
Y1038425D01*
X1849208Y1013033D01*
X1798425D01*
Y1063817D01*
X1874600Y962249D02*
X1722249D01*
X1874600Y860682D01*
X1722249D01*
Y809899D02*
X1874600D01*
Y733723D01*
X1849208Y708331D01*
X1747641D01*
X1722249Y733723D01*
Y809899D01*
X527641Y1013033D02*
X502249Y1038425D01*
Y1089208D01*
X527641Y1114600D01*
X629208D01*
X654600Y1089208D01*
Y1038425D01*
X629208Y1013033D01*
X578425D01*
Y1063817D01*
X654600Y962249D02*
X502249D01*
X654600Y860682D01*
X502249D01*
Y809899D02*
X654600D01*
Y733723D01*
X629208Y708331D01*
X527641D01*
X502249Y733723D01*
Y809899D01*
X304600Y1038424D02*
X228425Y1114600D01*
X152250Y1038424D01*
X304600Y962249D02*
Y911466D01*
Y936857D01*
X152250D01*
X177642Y962249D01*
X152250Y835290D02*
Y733723D01*
X177642D01*
X279208Y835290D01*
X304600D01*
X152250Y682939D02*
X253817D01*
X304600Y632156D01*
X253817Y581372D01*
X152250D01*
Y378238D02*
Y327455D01*
Y352846D01*
X304600D01*
Y378238D01*
Y327455D01*
Y251279D02*
X152250D01*
X304600Y149712D01*
X152250D01*
%TF.MD5,7458bb99826677569d0b9ac6dea66d9e*%
M02*
