%TF.GenerationSoftware,Altium Limited,Altium Designer,21.5.1 (32)*%
G04 Layer_Color=8388736*
%FSLAX45Y45*%
%MOMM*%
%TF.SameCoordinates,6D93875A-9943-4EB1-8E24-321CDD5DE8D5*%
%TF.FilePolarity,Positive*%
%TF.FileFunction,Other,Top_Designator*%
%TF.Part,Single*%
G01*
G75*
%TA.AperFunction,NonConductor*%
%ADD232C,0.13000*%
D232*
X5229965Y4000000D02*
X5219968Y3990003D01*
Y3970009D01*
X5229965Y3960013D01*
X5269952D01*
X5279949Y3970009D01*
Y3990003D01*
X5269952Y4000000D01*
X5279949Y4019993D02*
Y4039987D01*
Y4029990D01*
X5219968D01*
X5229965Y4019993D01*
X5015012Y3529952D02*
X5005015Y3539949D01*
X4985021D01*
X4975025Y3529952D01*
Y3489965D01*
X4985021Y3479968D01*
X5005015D01*
X5015012Y3489965D01*
X5035005Y3479968D02*
X5054999D01*
X5045002D01*
Y3539949D01*
X5035005Y3529952D01*
X5084989D02*
X5094985Y3539949D01*
X5114979D01*
X5124976Y3529952D01*
Y3489965D01*
X5114979Y3479968D01*
X5094985D01*
X5084989Y3489965D01*
Y3529952D01*
X5009965Y3635008D02*
X4999968Y3625012D01*
Y3605018D01*
X5009965Y3595021D01*
X5049952D01*
X5059949Y3605018D01*
Y3625012D01*
X5049952Y3635008D01*
X5059949Y3655002D02*
Y3674995D01*
Y3664999D01*
X4999968D01*
X5009965Y3655002D01*
X5059949Y3704985D02*
Y3724979D01*
Y3714982D01*
X4999968D01*
X5009965Y3704985D01*
X5110048Y3650003D02*
X5100051Y3640006D01*
Y3620013D01*
X5110048Y3610016D01*
X5150035D01*
X5160031Y3620013D01*
Y3640006D01*
X5150035Y3650003D01*
X5160031Y3699987D02*
X5100051D01*
X5130041Y3669997D01*
Y3709984D01*
X5199965Y3650003D02*
X5189968Y3640006D01*
Y3620013D01*
X5199965Y3610016D01*
X5239952D01*
X5249949Y3620013D01*
Y3640006D01*
X5239952Y3650003D01*
X5189968Y3709984D02*
Y3669997D01*
X5219959D01*
X5209962Y3689990D01*
Y3699987D01*
X5219959Y3709984D01*
X5239952D01*
X5249949Y3699987D01*
Y3679993D01*
X5239952Y3669997D01*
X5389965Y3735012D02*
X5379968Y3725015D01*
Y3705021D01*
X5389965Y3695025D01*
X5429952D01*
X5439949Y3705021D01*
Y3725015D01*
X5429952Y3735012D01*
X5439949Y3755005D02*
Y3774999D01*
Y3765002D01*
X5379968D01*
X5389965Y3755005D01*
X5439949Y3844976D02*
Y3804989D01*
X5399962Y3844976D01*
X5389965D01*
X5379968Y3834979D01*
Y3814986D01*
X5389965Y3804989D01*
X5289965Y3735012D02*
X5279968Y3725015D01*
Y3705021D01*
X5289965Y3695025D01*
X5329952D01*
X5339949Y3705021D01*
Y3725015D01*
X5329952Y3735012D01*
X5339949Y3755005D02*
Y3774999D01*
Y3765002D01*
X5279968D01*
X5289965Y3755005D01*
Y3804989D02*
X5279968Y3814986D01*
Y3834979D01*
X5289965Y3844976D01*
X5299962D01*
X5309959Y3834979D01*
Y3824982D01*
Y3834979D01*
X5319955Y3844976D01*
X5329952D01*
X5339949Y3834979D01*
Y3814986D01*
X5329952Y3804989D01*
X5929965Y3980003D02*
X5919968Y3970006D01*
Y3950013D01*
X5929965Y3940016D01*
X5969952D01*
X5979949Y3950013D01*
Y3970006D01*
X5969952Y3980003D01*
X5929965Y3999997D02*
X5919968Y4009993D01*
Y4029987D01*
X5929965Y4039984D01*
X5939962D01*
X5949958Y4029987D01*
Y4019990D01*
Y4029987D01*
X5959955Y4039984D01*
X5969952D01*
X5979949Y4029987D01*
Y4009993D01*
X5969952Y3999997D01*
X5930003Y3089952D02*
X5920007Y3099949D01*
X5900013D01*
X5890016Y3089952D01*
Y3049965D01*
X5900013Y3039968D01*
X5920007D01*
X5930003Y3049965D01*
X5949997Y3099949D02*
X5989984D01*
Y3089952D01*
X5949997Y3049965D01*
Y3039968D01*
X5900007Y3240003D02*
X5890010Y3230007D01*
Y3210013D01*
X5900007Y3200016D01*
X5939994D01*
X5949990Y3210013D01*
Y3230007D01*
X5939994Y3240003D01*
X5900007Y3259997D02*
X5890010Y3269994D01*
Y3289987D01*
X5900007Y3299984D01*
X5910003D01*
X5920000Y3289987D01*
X5929997Y3299984D01*
X5939994D01*
X5949990Y3289987D01*
Y3269994D01*
X5939994Y3259997D01*
X5929997D01*
X5920000Y3269994D01*
X5910003Y3259997D01*
X5900007D01*
X5920000Y3269994D02*
Y3289987D01*
X5970003Y2969993D02*
X5960007Y2979990D01*
X5940013D01*
X5930016Y2969993D01*
Y2930006D01*
X5940013Y2920010D01*
X5960007D01*
X5970003Y2930006D01*
X5989997D02*
X5999994Y2920010D01*
X6019987D01*
X6029984Y2930006D01*
Y2969993D01*
X6019987Y2979990D01*
X5999994D01*
X5989997Y2969993D01*
Y2959997D01*
X5999994Y2950000D01*
X6029984D01*
X5030048Y2790013D02*
X5020051Y2780016D01*
Y2760023D01*
X5030048Y2750026D01*
X5070035D01*
X5080031Y2760023D01*
Y2780016D01*
X5070035Y2790013D01*
X5080031Y2849994D02*
Y2810007D01*
X5040045Y2849994D01*
X5030048D01*
X5020051Y2839997D01*
Y2820003D01*
X5030048Y2810007D01*
Y2869987D02*
X5020051Y2879984D01*
Y2899977D01*
X5030048Y2909974D01*
X5070035D01*
X5080031Y2899977D01*
Y2879984D01*
X5070035Y2869987D01*
X5030048D01*
X4930048Y2800009D02*
X4920051Y2790013D01*
Y2770019D01*
X4930048Y2760022D01*
X4970035D01*
X4980031Y2770019D01*
Y2790013D01*
X4970035Y2800009D01*
X4980031Y2859990D02*
Y2820003D01*
X4940044Y2859990D01*
X4930048D01*
X4920051Y2849993D01*
Y2830000D01*
X4930048Y2820003D01*
X4980031Y2879984D02*
Y2899977D01*
Y2889980D01*
X4920051D01*
X4930048Y2879984D01*
X5900013Y2849952D02*
X5890016Y2859949D01*
X5870023D01*
X5860026Y2849952D01*
Y2809965D01*
X5870023Y2799968D01*
X5890016D01*
X5900013Y2809965D01*
X5959994Y2799968D02*
X5920007D01*
X5959994Y2839955D01*
Y2849952D01*
X5949997Y2859949D01*
X5930003D01*
X5920007Y2849952D01*
X6019974Y2799968D02*
X5979987D01*
X6019974Y2839955D01*
Y2849952D01*
X6009978Y2859949D01*
X5989984D01*
X5979987Y2849952D01*
X5900013Y2749952D02*
X5890016Y2759949D01*
X5870023D01*
X5860026Y2749952D01*
Y2709965D01*
X5870023Y2699968D01*
X5890016D01*
X5900013Y2709965D01*
X5959994Y2699968D02*
X5920007D01*
X5959994Y2739955D01*
Y2749952D01*
X5949997Y2759949D01*
X5930003D01*
X5920007Y2749952D01*
X5979987D02*
X5989984Y2759949D01*
X6009978D01*
X6019974Y2749952D01*
Y2739955D01*
X6009978Y2729958D01*
X5999981D01*
X6009978D01*
X6019974Y2719962D01*
Y2709965D01*
X6009978Y2699968D01*
X5989984D01*
X5979987Y2709965D01*
X4300006Y2120013D02*
X4290009Y2110016D01*
Y2090022D01*
X4300006Y2080026D01*
X4339993D01*
X4349990Y2090022D01*
Y2110016D01*
X4339993Y2120013D01*
Y2140006D02*
X4349990Y2150003D01*
Y2169997D01*
X4339993Y2179993D01*
X4300006D01*
X4290009Y2169997D01*
Y2150003D01*
X4300006Y2140006D01*
X4310003D01*
X4320000Y2150003D01*
Y2179993D01*
X4290009Y2199987D02*
Y2239974D01*
X4300006D01*
X4339993Y2199987D01*
X4349990D01*
X2940007Y4640013D02*
X2930010Y4630016D01*
Y4610023D01*
X2940007Y4600026D01*
X2979994D01*
X2989990Y4610023D01*
Y4630016D01*
X2979994Y4640013D01*
Y4660006D02*
X2989990Y4670003D01*
Y4689997D01*
X2979994Y4699993D01*
X2940007D01*
X2930010Y4689997D01*
Y4670003D01*
X2940007Y4660006D01*
X2950003D01*
X2960000Y4670003D01*
Y4699993D01*
X2930010Y4759974D02*
Y4719987D01*
X2960000D01*
X2950003Y4739981D01*
Y4749977D01*
X2960000Y4759974D01*
X2979994D01*
X2989990Y4749977D01*
Y4729984D01*
X2979994Y4719987D01*
X2690007Y750013D02*
X2680010Y740016D01*
Y720023D01*
X2690007Y710026D01*
X2729994D01*
X2739990Y720023D01*
Y740016D01*
X2729994Y750013D01*
X2680010Y770007D02*
Y809994D01*
X2690007D01*
X2729994Y770007D01*
X2739990D01*
X2680010Y869974D02*
X2690007Y849981D01*
X2710000Y829987D01*
X2729994D01*
X2739990Y839984D01*
Y859977D01*
X2729994Y869974D01*
X2719997D01*
X2710000Y859977D01*
Y829987D01*
X2575021Y1689993D02*
X2565025Y1699990D01*
X2545031D01*
X2535034Y1689993D01*
Y1650006D01*
X2545031Y1640010D01*
X2565025D01*
X2575021Y1650006D01*
X2595015Y1640010D02*
X2615008D01*
X2605012D01*
Y1699990D01*
X2595015Y1689993D01*
X2644999D02*
X2654995Y1699990D01*
X2674989D01*
X2684985Y1689993D01*
Y1650006D01*
X2674989Y1640010D01*
X2654995D01*
X2644999Y1650006D01*
Y1689993D01*
X2704979D02*
X2714976Y1699990D01*
X2734969D01*
X2744966Y1689993D01*
Y1679997D01*
X2734969Y1670000D01*
X2724973D01*
X2734969D01*
X2744966Y1660003D01*
Y1650006D01*
X2734969Y1640010D01*
X2714976D01*
X2704979Y1650006D01*
X2190007Y750013D02*
X2180010Y740016D01*
Y720023D01*
X2190007Y710026D01*
X2229994D01*
X2239990Y720023D01*
Y740016D01*
X2229994Y750013D01*
X2180010Y770007D02*
Y809994D01*
X2190007D01*
X2229994Y770007D01*
X2239990D01*
X2180010Y829987D02*
Y869974D01*
X2190007D01*
X2229994Y829987D01*
X2239990D01*
X3580007Y2050013D02*
X3570010Y2040016D01*
Y2020023D01*
X3580007Y2010026D01*
X3619994D01*
X3629990Y2020023D01*
Y2040016D01*
X3619994Y2050013D01*
Y2070007D02*
X3629990Y2080003D01*
Y2099997D01*
X3619994Y2109993D01*
X3580007D01*
X3570010Y2099997D01*
Y2080003D01*
X3580007Y2070007D01*
X3590003D01*
X3600000Y2080003D01*
Y2109993D01*
X3629990Y2159977D02*
X3570010D01*
X3600000Y2129987D01*
Y2169974D01*
X6500048Y2170013D02*
X6490051Y2160017D01*
Y2140023D01*
X6500048Y2130026D01*
X6540035D01*
X6550032Y2140023D01*
Y2160017D01*
X6540035Y2170013D01*
X6490051Y2229994D02*
X6500048Y2210000D01*
X6520041Y2190007D01*
X6540035D01*
X6550032Y2200003D01*
Y2219997D01*
X6540035Y2229994D01*
X6530038D01*
X6520041Y2219997D01*
Y2190007D01*
X6550032Y2289974D02*
Y2249987D01*
X6510045Y2289974D01*
X6500048D01*
X6490051Y2279978D01*
Y2259984D01*
X6500048Y2249987D01*
X6500047Y1360013D02*
X6490051Y1350016D01*
Y1330022D01*
X6500047Y1320026D01*
X6540034D01*
X6550031Y1330022D01*
Y1350016D01*
X6540034Y1360013D01*
X6490051Y1419993D02*
X6500047Y1400000D01*
X6520041Y1380006D01*
X6540034D01*
X6550031Y1390003D01*
Y1409997D01*
X6540034Y1419993D01*
X6530037D01*
X6520041Y1409997D01*
Y1380006D01*
X6490051Y1479974D02*
Y1439987D01*
X6520041D01*
X6510044Y1459981D01*
Y1469977D01*
X6520041Y1479974D01*
X6540034D01*
X6550031Y1469977D01*
Y1449984D01*
X6540034Y1439987D01*
X6299965Y1360013D02*
X6289968Y1350016D01*
Y1330022D01*
X6299965Y1320026D01*
X6339952D01*
X6349949Y1330022D01*
Y1350016D01*
X6339952Y1360013D01*
X6289968Y1419993D02*
X6299965Y1400000D01*
X6319958Y1380006D01*
X6339952D01*
X6349949Y1390003D01*
Y1409997D01*
X6339952Y1419993D01*
X6329955D01*
X6319958Y1409997D01*
Y1380006D01*
X6299965Y1439987D02*
X6289968Y1449984D01*
Y1469977D01*
X6299965Y1479974D01*
X6309962D01*
X6319958Y1469977D01*
X6329955Y1479974D01*
X6339952D01*
X6349949Y1469977D01*
Y1449984D01*
X6339952Y1439987D01*
X6329955D01*
X6319958Y1449984D01*
X6309962Y1439987D01*
X6299965D01*
X6319958Y1449984D02*
Y1469977D01*
X6299965Y2170013D02*
X6289968Y2160017D01*
Y2140023D01*
X6299965Y2130026D01*
X6339952D01*
X6349949Y2140023D01*
Y2160017D01*
X6339952Y2170013D01*
X6289968Y2229994D02*
X6299965Y2210000D01*
X6319959Y2190007D01*
X6339952D01*
X6349949Y2200003D01*
Y2219997D01*
X6339952Y2229994D01*
X6329955D01*
X6319959Y2219997D01*
Y2190007D01*
X6339952Y2249987D02*
X6349949Y2259984D01*
Y2279978D01*
X6339952Y2289974D01*
X6299965D01*
X6289968Y2279978D01*
Y2259984D01*
X6299965Y2249987D01*
X6309962D01*
X6319959Y2259984D01*
Y2289974D01*
X7760048Y3290013D02*
X7750051Y3280016D01*
Y3260023D01*
X7760048Y3250026D01*
X7800035D01*
X7810031Y3260023D01*
Y3280016D01*
X7800035Y3290013D01*
X7750051Y3310007D02*
Y3349994D01*
X7760048D01*
X7800035Y3310007D01*
X7810031D01*
Y3409974D02*
Y3369987D01*
X7770044Y3409974D01*
X7760048D01*
X7750051Y3399977D01*
Y3379984D01*
X7760048Y3369987D01*
X6830013Y710035D02*
X6820016Y720032D01*
X6800023D01*
X6790026Y710035D01*
Y670048D01*
X6800023Y660051D01*
X6820016D01*
X6830013Y670048D01*
X6889994Y720032D02*
X6870000Y710035D01*
X6850007Y690041D01*
Y670048D01*
X6860003Y660051D01*
X6879997D01*
X6889994Y670048D01*
Y680045D01*
X6879997Y690041D01*
X6850007D01*
X6939977Y660051D02*
Y720032D01*
X6909987Y690041D01*
X6949974D01*
X6790048Y3780013D02*
X6780051Y3770016D01*
Y3750022D01*
X6790048Y3740026D01*
X6830035D01*
X6840031Y3750022D01*
Y3770016D01*
X6830035Y3780013D01*
X6780051Y3800006D02*
Y3839993D01*
X6790048D01*
X6830035Y3800006D01*
X6840031D01*
X6790048Y3859987D02*
X6780051Y3869983D01*
Y3889977D01*
X6790048Y3899974D01*
X6830035D01*
X6840031Y3889977D01*
Y3869983D01*
X6830035Y3859987D01*
X6790048D01*
X7130048Y1545021D02*
X7120051Y1535025D01*
Y1515031D01*
X7130048Y1505034D01*
X7170035D01*
X7180031Y1515031D01*
Y1535025D01*
X7170035Y1545021D01*
X7180031Y1565015D02*
Y1585009D01*
Y1575012D01*
X7120051D01*
X7130048Y1565015D01*
X7180031Y1654986D02*
Y1614999D01*
X7140044Y1654986D01*
X7130048D01*
X7120051Y1644989D01*
Y1624995D01*
X7130048Y1614999D01*
Y1674979D02*
X7120051Y1684976D01*
Y1704969D01*
X7130048Y1714966D01*
X7140044D01*
X7150041Y1704969D01*
Y1694973D01*
Y1704969D01*
X7160038Y1714966D01*
X7170035D01*
X7180031Y1704969D01*
Y1684976D01*
X7170035Y1674979D01*
X7100048Y2675021D02*
X7090051Y2665024D01*
Y2645031D01*
X7100048Y2635034D01*
X7140034D01*
X7150031Y2645031D01*
Y2665024D01*
X7140034Y2675021D01*
X7150031Y2695015D02*
Y2715008D01*
Y2705011D01*
X7090051D01*
X7100048Y2695015D01*
X7150031Y2784985D02*
Y2744998D01*
X7110044Y2784985D01*
X7100048D01*
X7090051Y2774989D01*
Y2754995D01*
X7100048Y2744998D01*
X7150031Y2834969D02*
X7090051D01*
X7120041Y2804979D01*
Y2844966D01*
X7130047Y1915021D02*
X7120051Y1905024D01*
Y1885031D01*
X7130047Y1875034D01*
X7170034D01*
X7180031Y1885031D01*
Y1905024D01*
X7170034Y1915021D01*
X7180031Y1935015D02*
Y1955008D01*
Y1945011D01*
X7120051D01*
X7130047Y1935015D01*
X7180031Y2024985D02*
Y1984998D01*
X7140044Y2024985D01*
X7130047D01*
X7120051Y2014989D01*
Y1994995D01*
X7130047Y1984998D01*
X7120051Y2084966D02*
Y2044979D01*
X7150041D01*
X7140044Y2064973D01*
Y2074969D01*
X7150041Y2084966D01*
X7170034D01*
X7180031Y2074969D01*
Y2054976D01*
X7170034Y2044979D01*
X7100048Y2285021D02*
X7090051Y2275025D01*
Y2255031D01*
X7100048Y2245034D01*
X7140035D01*
X7150031Y2255031D01*
Y2275025D01*
X7140035Y2285021D01*
X7150031Y2305015D02*
Y2325009D01*
Y2315012D01*
X7090051D01*
X7100048Y2305015D01*
X7150031Y2394986D02*
Y2354999D01*
X7110044Y2394986D01*
X7100048D01*
X7090051Y2384989D01*
Y2364995D01*
X7100048Y2354999D01*
X7090051Y2454966D02*
X7100048Y2434973D01*
X7120041Y2414979D01*
X7140035D01*
X7150031Y2424976D01*
Y2444969D01*
X7140035Y2454966D01*
X7130038D01*
X7120041Y2444969D01*
Y2414979D01*
X6705021Y3490034D02*
X6695024Y3500031D01*
X6675031D01*
X6665034Y3490034D01*
Y3450047D01*
X6675031Y3440051D01*
X6695024D01*
X6705021Y3450047D01*
X6725015Y3440051D02*
X6745008D01*
X6735011D01*
Y3500031D01*
X6725015Y3490034D01*
X6814985Y3440051D02*
X6774998D01*
X6814985Y3480038D01*
Y3490034D01*
X6804989Y3500031D01*
X6784995D01*
X6774998Y3490034D01*
X6834979Y3500031D02*
X6874966D01*
Y3490034D01*
X6834979Y3450047D01*
Y3440051D01*
X6975021Y4259952D02*
X6965024Y4269949D01*
X6945031D01*
X6935034Y4259952D01*
Y4219965D01*
X6945031Y4209968D01*
X6965024D01*
X6975021Y4219965D01*
X6995015Y4209968D02*
X7015008D01*
X7005011D01*
Y4269949D01*
X6995015Y4259952D01*
X7084985Y4209968D02*
X7044998D01*
X7084985Y4249955D01*
Y4259952D01*
X7074989Y4269949D01*
X7054995D01*
X7044998Y4259952D01*
X7104979D02*
X7114976Y4269949D01*
X7134969D01*
X7144966Y4259952D01*
Y4249955D01*
X7134969Y4239958D01*
X7144966Y4229962D01*
Y4219965D01*
X7134969Y4209968D01*
X7114976D01*
X7104979Y4219965D01*
Y4229962D01*
X7114976Y4239958D01*
X7104979Y4249955D01*
Y4259952D01*
X7114976Y4239958D02*
X7134969D01*
X4920048Y3270003D02*
X4910051Y3260006D01*
Y3240013D01*
X4920048Y3230016D01*
X4960035D01*
X4970031Y3240013D01*
Y3260006D01*
X4960035Y3270003D01*
X4970031Y3329983D02*
Y3289996D01*
X4930044Y3329983D01*
X4920048D01*
X4910051Y3319987D01*
Y3299993D01*
X4920048Y3289996D01*
X5430013Y2229952D02*
X5420016Y2239949D01*
X5400023D01*
X5390026Y2229952D01*
Y2189965D01*
X5400023Y2179968D01*
X5420016D01*
X5430013Y2189965D01*
X5450007Y2229952D02*
X5460003Y2239949D01*
X5479997D01*
X5489994Y2229952D01*
Y2219955D01*
X5479997Y2209958D01*
X5489994Y2199962D01*
Y2189965D01*
X5479997Y2179968D01*
X5460003D01*
X5450007Y2189965D01*
Y2199962D01*
X5460003Y2209958D01*
X5450007Y2219955D01*
Y2229952D01*
X5460003Y2209958D02*
X5479997D01*
X5539977Y2179968D02*
Y2239949D01*
X5509987Y2209958D01*
X5549974D01*
X3230013Y1210034D02*
X3220016Y1220031D01*
X3200023D01*
X3190026Y1210034D01*
Y1170047D01*
X3200023Y1160051D01*
X3220016D01*
X3230013Y1170047D01*
X3250006D02*
X3260003Y1160051D01*
X3279997D01*
X3289993Y1170047D01*
Y1210034D01*
X3279997Y1220031D01*
X3260003D01*
X3250006Y1210034D01*
Y1200038D01*
X3260003Y1190041D01*
X3289993D01*
X3309987Y1210034D02*
X3319984Y1220031D01*
X3339977D01*
X3349974Y1210034D01*
Y1200038D01*
X3339977Y1190041D01*
X3349974Y1180044D01*
Y1170047D01*
X3339977Y1160051D01*
X3319984D01*
X3309987Y1170047D01*
Y1180044D01*
X3319984Y1190041D01*
X3309987Y1200038D01*
Y1210034D01*
X3319984Y1190041D02*
X3339977D01*
X3230013Y1109952D02*
X3220016Y1119949D01*
X3200023D01*
X3190026Y1109952D01*
Y1069965D01*
X3200023Y1059968D01*
X3220016D01*
X3230013Y1069965D01*
X3250006D02*
X3260003Y1059968D01*
X3279997D01*
X3289993Y1069965D01*
Y1109952D01*
X3279997Y1119949D01*
X3260003D01*
X3250006Y1109952D01*
Y1099955D01*
X3260003Y1089958D01*
X3289993D01*
X3309987Y1069965D02*
X3319984Y1059968D01*
X3339977D01*
X3349974Y1069965D01*
Y1109952D01*
X3339977Y1119949D01*
X3319984D01*
X3309987Y1109952D01*
Y1099955D01*
X3319984Y1089958D01*
X3349974D01*
X4040048Y1215021D02*
X4030051Y1205024D01*
Y1185031D01*
X4040048Y1175034D01*
X4080035D01*
X4090031Y1185031D01*
Y1205024D01*
X4080035Y1215021D01*
X4090031Y1235015D02*
Y1255008D01*
Y1245011D01*
X4030051D01*
X4040048Y1235015D01*
Y1284998D02*
X4030051Y1294995D01*
Y1314988D01*
X4040048Y1324985D01*
X4080035D01*
X4090031Y1314988D01*
Y1294995D01*
X4080035Y1284998D01*
X4040048D01*
X4090031Y1374969D02*
X4030051D01*
X4060041Y1344979D01*
Y1384966D01*
X3199965Y1285021D02*
X3189968Y1275025D01*
Y1255031D01*
X3199965Y1245034D01*
X3239952D01*
X3249949Y1255031D01*
Y1275025D01*
X3239952Y1285021D01*
X3249949Y1305015D02*
Y1325009D01*
Y1315012D01*
X3189968D01*
X3199965Y1305015D01*
Y1354999D02*
X3189968Y1364995D01*
Y1384989D01*
X3199965Y1394986D01*
X3239952D01*
X3249949Y1384989D01*
Y1364995D01*
X3239952Y1354999D01*
X3199965D01*
X3189968Y1454966D02*
Y1414979D01*
X3219959D01*
X3209962Y1434973D01*
Y1444969D01*
X3219959Y1454966D01*
X3239952D01*
X3249949Y1444969D01*
Y1424976D01*
X3239952Y1414979D01*
X3820047Y1205021D02*
X3810051Y1195024D01*
Y1175031D01*
X3820047Y1165034D01*
X3860034D01*
X3870031Y1175031D01*
Y1195024D01*
X3860034Y1205021D01*
X3870031Y1225015D02*
Y1245008D01*
Y1235011D01*
X3810051D01*
X3820047Y1225015D01*
Y1274998D02*
X3810051Y1284995D01*
Y1304988D01*
X3820047Y1314985D01*
X3860034D01*
X3870031Y1304988D01*
Y1284995D01*
X3860034Y1274998D01*
X3820047D01*
X3810051Y1374966D02*
X3820047Y1354972D01*
X3840041Y1334979D01*
X3860034D01*
X3870031Y1344975D01*
Y1364969D01*
X3860034Y1374966D01*
X3850038D01*
X3840041Y1364969D01*
Y1334979D01*
X3200006Y1515021D02*
X3190009Y1505024D01*
Y1485031D01*
X3200006Y1475034D01*
X3239993D01*
X3249990Y1485031D01*
Y1505024D01*
X3239993Y1515021D01*
X3249990Y1535014D02*
Y1555008D01*
Y1545011D01*
X3190009D01*
X3200006Y1535014D01*
Y1584998D02*
X3190009Y1594995D01*
Y1614988D01*
X3200006Y1624985D01*
X3239993D01*
X3249990Y1614988D01*
Y1594995D01*
X3239993Y1584998D01*
X3200006D01*
X3190009Y1644979D02*
Y1684966D01*
X3200006D01*
X3239993Y1644979D01*
X3249990D01*
X3485021Y1810034D02*
X3475025Y1820031D01*
X3455031D01*
X3445034Y1810034D01*
Y1770048D01*
X3455031Y1760051D01*
X3475025D01*
X3485021Y1770048D01*
X3505015Y1760051D02*
X3525008D01*
X3515012D01*
Y1820031D01*
X3505015Y1810034D01*
X3554998D02*
X3564995Y1820031D01*
X3584989D01*
X3594985Y1810034D01*
Y1770048D01*
X3584989Y1760051D01*
X3564995D01*
X3554998Y1770048D01*
Y1810034D01*
X3614979D02*
X3624976Y1820031D01*
X3644969D01*
X3654966Y1810034D01*
Y1800038D01*
X3644969Y1790041D01*
X3654966Y1780044D01*
Y1770048D01*
X3644969Y1760051D01*
X3624976D01*
X3614979Y1770048D01*
Y1780044D01*
X3624976Y1790041D01*
X3614979Y1800038D01*
Y1810034D01*
X3624976Y1790041D02*
X3644969D01*
X3240020Y1809993D02*
X3230023Y1819990D01*
X3210029D01*
X3200033Y1809993D01*
Y1770006D01*
X3210029Y1760010D01*
X3230023D01*
X3240020Y1770006D01*
X3260013Y1760010D02*
X3280007D01*
X3270010D01*
Y1819990D01*
X3260013Y1809993D01*
X3309997Y1760010D02*
X3329991D01*
X3319994D01*
Y1819990D01*
X3309997Y1809993D01*
X3359981Y1819990D02*
X3399968D01*
Y1809993D01*
X3359981Y1770006D01*
Y1760010D01*
X3495021Y1680034D02*
X3485025Y1690031D01*
X3465031D01*
X3455034Y1680034D01*
Y1640048D01*
X3465031Y1630051D01*
X3485025D01*
X3495021Y1640048D01*
X3515015Y1630051D02*
X3535008D01*
X3525011D01*
Y1690031D01*
X3515015Y1680034D01*
X3564998D02*
X3574995Y1690031D01*
X3594989D01*
X3604985Y1680034D01*
Y1640048D01*
X3594989Y1630051D01*
X3574995D01*
X3564998Y1640048D01*
Y1680034D01*
X3624979Y1640048D02*
X3634976Y1630051D01*
X3654969D01*
X3664966Y1640048D01*
Y1680034D01*
X3654969Y1690031D01*
X3634976D01*
X3624979Y1680034D01*
Y1670038D01*
X3634976Y1660041D01*
X3664966D01*
X3850020Y939952D02*
X3840023Y949949D01*
X3820029D01*
X3810033Y939952D01*
Y899965D01*
X3820029Y889968D01*
X3840023D01*
X3850020Y899965D01*
X3870013Y889968D02*
X3890007D01*
X3880010D01*
Y949949D01*
X3870013Y939952D01*
X3919997Y889968D02*
X3939991D01*
X3929994D01*
Y949949D01*
X3919997Y939952D01*
X3969981D02*
X3979977Y949949D01*
X3999971D01*
X4009968Y939952D01*
Y929955D01*
X3999971Y919959D01*
X3989974D01*
X3999971D01*
X4009968Y909962D01*
Y899965D01*
X3999971Y889968D01*
X3979977D01*
X3969981Y899965D01*
X3820020Y1759993D02*
X3810023Y1769990D01*
X3790030D01*
X3780033Y1759993D01*
Y1720006D01*
X3790030Y1710010D01*
X3810023D01*
X3820020Y1720006D01*
X3840013Y1710010D02*
X3860007D01*
X3850010D01*
Y1769990D01*
X3840013Y1759993D01*
X3889997Y1710010D02*
X3909991D01*
X3899994D01*
Y1769990D01*
X3889997Y1759993D01*
X3939981D02*
X3949977Y1769990D01*
X3969971D01*
X3979968Y1759993D01*
Y1720006D01*
X3969971Y1710010D01*
X3949977D01*
X3939981Y1720006D01*
Y1759993D01*
X3970020Y1089993D02*
X3960023Y1099990D01*
X3940029D01*
X3930033Y1089993D01*
Y1050006D01*
X3940029Y1040010D01*
X3960023D01*
X3970020Y1050006D01*
X3990013Y1040010D02*
X4010007D01*
X4000010D01*
Y1099990D01*
X3990013Y1089993D01*
X4039997Y1040010D02*
X4059991D01*
X4049994D01*
Y1099990D01*
X4039997Y1089993D01*
X4119971Y1040010D02*
Y1099990D01*
X4089981Y1070000D01*
X4129968D01*
X4620007Y1210019D02*
X4610010Y1200023D01*
Y1180029D01*
X4620007Y1170032D01*
X4659993D01*
X4669990Y1180029D01*
Y1200023D01*
X4659993Y1210019D01*
X4669990Y1230013D02*
Y1250007D01*
Y1240010D01*
X4610010D01*
X4620007Y1230013D01*
X4669990Y1279997D02*
Y1299990D01*
Y1289993D01*
X4610010D01*
X4620007Y1279997D01*
X4610010Y1369967D02*
X4620007Y1349974D01*
X4640000Y1329980D01*
X4659993D01*
X4669990Y1339977D01*
Y1359971D01*
X4659993Y1369967D01*
X4649997D01*
X4640000Y1359971D01*
Y1329980D01*
X4330020Y1119993D02*
X4320023Y1129990D01*
X4300029D01*
X4290033Y1119993D01*
Y1080006D01*
X4300029Y1070010D01*
X4320023D01*
X4330020Y1080006D01*
X4350013Y1070010D02*
X4370007D01*
X4360010D01*
Y1129990D01*
X4350013Y1119993D01*
X4399997Y1070010D02*
X4419991D01*
X4409994D01*
Y1129990D01*
X4399997Y1119993D01*
X4489968Y1129990D02*
X4449981D01*
Y1100000D01*
X4469974Y1109997D01*
X4479971D01*
X4489968Y1100000D01*
Y1080006D01*
X4479971Y1070010D01*
X4459977D01*
X4449981Y1080006D01*
X8185018Y2799952D02*
X8175021Y2809949D01*
X8155028D01*
X8145031Y2799952D01*
Y2759965D01*
X8155028Y2749968D01*
X8175021D01*
X8185018Y2759965D01*
X8205012Y2749968D02*
X8225005D01*
X8215008D01*
Y2809949D01*
X8205012Y2799952D01*
X8294982Y2749968D02*
X8254995D01*
X8294982Y2789955D01*
Y2799952D01*
X8284985Y2809949D01*
X8264992D01*
X8254995Y2799952D01*
X8314976Y2749968D02*
X8334969D01*
X8324972D01*
Y2809949D01*
X8314976Y2799952D01*
X1830013Y1370035D02*
X1820016Y1380032D01*
X1800023D01*
X1790026Y1370035D01*
Y1330048D01*
X1800023Y1320051D01*
X1820016D01*
X1830013Y1330048D01*
X1850007Y1370035D02*
X1860003Y1380032D01*
X1879997D01*
X1889994Y1370035D01*
Y1360038D01*
X1879997Y1350041D01*
X1889994Y1340045D01*
Y1330048D01*
X1879997Y1320051D01*
X1860003D01*
X1850007Y1330048D01*
Y1340045D01*
X1860003Y1350041D01*
X1850007Y1360038D01*
Y1370035D01*
X1860003Y1350041D02*
X1879997D01*
X1909987Y1370035D02*
X1919984Y1380032D01*
X1939978D01*
X1949974Y1370035D01*
Y1330048D01*
X1939978Y1320051D01*
X1919984D01*
X1909987Y1330048D01*
Y1370035D01*
X6800013Y2070034D02*
X6790016Y2080031D01*
X6770023D01*
X6760026Y2070034D01*
Y2030048D01*
X6770023Y2020051D01*
X6790016D01*
X6800013Y2030048D01*
X6859994Y2080031D02*
X6840000Y2070034D01*
X6820007Y2050041D01*
Y2030048D01*
X6830003Y2020051D01*
X6849997D01*
X6859994Y2030048D01*
Y2040044D01*
X6849997Y2050041D01*
X6820007D01*
X6879987Y2070034D02*
X6889984Y2080031D01*
X6909978D01*
X6919974Y2070034D01*
Y2060038D01*
X6909978Y2050041D01*
X6899981D01*
X6909978D01*
X6919974Y2040044D01*
Y2030048D01*
X6909978Y2020051D01*
X6889984D01*
X6879987Y2030048D01*
X3580006Y2335011D02*
X3570009Y2325015D01*
Y2305021D01*
X3580006Y2295024D01*
X3619993D01*
X3629990Y2305021D01*
Y2325015D01*
X3619993Y2335011D01*
X3629990Y2355005D02*
Y2374999D01*
Y2365002D01*
X3570009D01*
X3580006Y2355005D01*
X3570009Y2444976D02*
X3580006Y2424982D01*
X3600000Y2404989D01*
X3619993D01*
X3629990Y2414985D01*
Y2434979D01*
X3619993Y2444976D01*
X3609996D01*
X3600000Y2434979D01*
Y2404989D01*
X6135012Y3209952D02*
X6125015Y3219949D01*
X6105021D01*
X6095025Y3209952D01*
Y3169965D01*
X6105021Y3159968D01*
X6125015D01*
X6135012Y3169965D01*
X6155005Y3159968D02*
X6174999D01*
X6165002D01*
Y3219949D01*
X6155005Y3209952D01*
X6204989Y3219949D02*
X6244976D01*
Y3209952D01*
X6204989Y3169965D01*
Y3159968D01*
X6135012Y3109952D02*
X6125015Y3119949D01*
X6105021D01*
X6095025Y3109952D01*
Y3069965D01*
X6105021Y3059968D01*
X6125015D01*
X6135012Y3069965D01*
X6155005Y3059968D02*
X6174999D01*
X6165002D01*
Y3119949D01*
X6155005Y3109952D01*
X6204989D02*
X6214986Y3119949D01*
X6234979D01*
X6244976Y3109952D01*
Y3099955D01*
X6234979Y3089959D01*
X6244976Y3079962D01*
Y3069965D01*
X6234979Y3059968D01*
X6214986D01*
X6204989Y3069965D01*
Y3079962D01*
X6214986Y3089959D01*
X6204989Y3099955D01*
Y3109952D01*
X6214986Y3089959D02*
X6234979D01*
X7900048Y4330020D02*
X7890051Y4320023D01*
Y4300029D01*
X7900048Y4290033D01*
X7940035D01*
X7950031Y4300029D01*
Y4320023D01*
X7940035Y4330020D01*
X7950031Y4350013D02*
Y4370007D01*
Y4360010D01*
X7890051D01*
X7900048Y4350013D01*
X7950031Y4399997D02*
Y4419991D01*
Y4409994D01*
X7890051D01*
X7900048Y4399997D01*
Y4449981D02*
X7890051Y4459977D01*
Y4479971D01*
X7900048Y4489968D01*
X7910044D01*
X7920041Y4479971D01*
X7930038Y4489968D01*
X7940035D01*
X7950031Y4479971D01*
Y4459977D01*
X7940035Y4449981D01*
X7930038D01*
X7920041Y4459977D01*
X7910044Y4449981D01*
X7900048D01*
X7920041Y4459977D02*
Y4479971D01*
X8175021Y2700034D02*
X8165025Y2710031D01*
X8145031D01*
X8135034Y2700034D01*
Y2660048D01*
X8145031Y2650051D01*
X8165025D01*
X8175021Y2660048D01*
X8195015Y2650051D02*
X8215008D01*
X8205012D01*
Y2710031D01*
X8195015Y2700034D01*
X8284985Y2650051D02*
X8244998D01*
X8284985Y2690038D01*
Y2700034D01*
X8274989Y2710031D01*
X8254995D01*
X8244998Y2700034D01*
X8304979D02*
X8314976Y2710031D01*
X8334969D01*
X8344966Y2700034D01*
Y2660048D01*
X8334969Y2650051D01*
X8314976D01*
X8304979Y2660048D01*
Y2700034D01*
X4590048Y710013D02*
X4580051Y700016D01*
Y680023D01*
X4590048Y670026D01*
X4630035D01*
X4640031Y680023D01*
Y700016D01*
X4630035Y710013D01*
X4580051Y769994D02*
X4590048Y750000D01*
X4610041Y730007D01*
X4630035D01*
X4640031Y740003D01*
Y759997D01*
X4630035Y769994D01*
X4620038D01*
X4610041Y759997D01*
Y730007D01*
X4580051Y829974D02*
X4590048Y809981D01*
X4610041Y789987D01*
X4630035D01*
X4640031Y799984D01*
Y819978D01*
X4630035Y829974D01*
X4620038D01*
X4610041Y819978D01*
Y789987D01*
X3640048Y710013D02*
X3630051Y700016D01*
Y680023D01*
X3640048Y670026D01*
X3680035D01*
X3690031Y680023D01*
Y700016D01*
X3680035Y710013D01*
X3630051Y769994D02*
X3640048Y750000D01*
X3660041Y730007D01*
X3680035D01*
X3690031Y740003D01*
Y759997D01*
X3680035Y769994D01*
X3670038D01*
X3660041Y759997D01*
Y730007D01*
X3630051Y789987D02*
Y829974D01*
X3640048D01*
X3680035Y789987D01*
X3690031D01*
X7870048Y970019D02*
X7860051Y960023D01*
Y940029D01*
X7870048Y930032D01*
X7910034D01*
X7920031Y940029D01*
Y960023D01*
X7910034Y970019D01*
X7920031Y990013D02*
Y1010007D01*
Y1000010D01*
X7860051D01*
X7870048Y990013D01*
X7920031Y1039997D02*
Y1059990D01*
Y1049993D01*
X7860051D01*
X7870048Y1039997D01*
X7910034Y1089980D02*
X7920031Y1099977D01*
Y1119971D01*
X7910034Y1129967D01*
X7870048D01*
X7860051Y1119971D01*
Y1099977D01*
X7870048Y1089980D01*
X7880044D01*
X7890041Y1099977D01*
Y1129967D01*
X1885021Y1039993D02*
X1875024Y1049990D01*
X1855031D01*
X1845034Y1039993D01*
Y1000006D01*
X1855031Y990010D01*
X1875024D01*
X1885021Y1000006D01*
X1905015Y990010D02*
X1925008D01*
X1915011D01*
Y1049990D01*
X1905015Y1039993D01*
X1954998D02*
X1964995Y1049990D01*
X1984989D01*
X1994985Y1039993D01*
Y1000006D01*
X1984989Y990010D01*
X1964995D01*
X1954998Y1000006D01*
Y1039993D01*
X2014979D02*
X2024976Y1049990D01*
X2044969D01*
X2054966Y1039993D01*
Y1000006D01*
X2044969Y990010D01*
X2024976D01*
X2014979Y1000006D01*
Y1039993D01*
X7854240Y5272490D02*
Y5212510D01*
X7884230D01*
X7894227Y5222506D01*
Y5262493D01*
X7884230Y5272490D01*
X7854240D01*
X7914221Y5212510D02*
X7934214D01*
X7924217D01*
Y5272490D01*
X7914221Y5262493D01*
X8004191Y5272490D02*
X7984198Y5262493D01*
X7964204Y5242500D01*
Y5222506D01*
X7974201Y5212510D01*
X7994195D01*
X8004191Y5222506D01*
Y5232503D01*
X7994195Y5242500D01*
X7964204D01*
X7854240Y272490D02*
Y212510D01*
X7884230D01*
X7894227Y222507D01*
Y262494D01*
X7884230Y272490D01*
X7854240D01*
X7914221Y212510D02*
X7934214D01*
X7924217D01*
Y272490D01*
X7914221Y262494D01*
X7964204Y272490D02*
X8004191D01*
Y262494D01*
X7964204Y222507D01*
Y212510D01*
X7690016Y4602490D02*
Y4542510D01*
X7720007D01*
X7730003Y4552507D01*
Y4592493D01*
X7720007Y4602490D01*
X7690016D01*
X7749997Y4592493D02*
X7759994Y4602490D01*
X7779987D01*
X7789984Y4592493D01*
Y4582497D01*
X7779987Y4572500D01*
X7769991D01*
X7779987D01*
X7789984Y4562503D01*
Y4552507D01*
X7779987Y4542510D01*
X7759994D01*
X7749997Y4552507D01*
X7760016Y912490D02*
Y852510D01*
X7790007D01*
X7800003Y862507D01*
Y902493D01*
X7790007Y912490D01*
X7760016D01*
X7849987Y852510D02*
Y912490D01*
X7819997Y882500D01*
X7859984D01*
X4760010Y1670016D02*
X4819990D01*
Y1710003D01*
X4760010Y1769984D02*
X4770007Y1749991D01*
X4790000Y1729997D01*
X4809994D01*
X4819990Y1739994D01*
Y1759987D01*
X4809994Y1769984D01*
X4799997D01*
X4790000Y1759987D01*
Y1729997D01*
X2330010Y750013D02*
X2389990D01*
Y790000D01*
Y809994D02*
Y829987D01*
Y819990D01*
X2330010D01*
X2340007Y809994D01*
X2510010Y740016D02*
X2569990D01*
Y780003D01*
Y839984D02*
Y799997D01*
X2530003Y839984D01*
X2520007D01*
X2510010Y829987D01*
Y809994D01*
X2520007Y799997D01*
X1860010Y715024D02*
X1919990D01*
Y755011D01*
Y775005D02*
Y794999D01*
Y785002D01*
X1860010D01*
X1870007Y775005D01*
Y824989D02*
X1860010Y834985D01*
Y854979D01*
X1870007Y864976D01*
X1909994D01*
X1919990Y854979D01*
Y834985D01*
X1909994Y824989D01*
X1870007D01*
X1410516Y5113510D02*
Y5173490D01*
X1430510Y5153497D01*
X1450503Y5173490D01*
Y5113510D01*
X1510484Y5173490D02*
X1490491Y5163493D01*
X1470497Y5143500D01*
Y5123506D01*
X1480494Y5113510D01*
X1500487D01*
X1510484Y5123506D01*
Y5133503D01*
X1500487Y5143500D01*
X1470497D01*
X8014516Y4816010D02*
Y4875990D01*
X8034510Y4855997D01*
X8054503Y4875990D01*
Y4816010D01*
X8074497Y4875990D02*
X8114484D01*
Y4865993D01*
X8074497Y4826006D01*
Y4816010D01*
X8014516Y585010D02*
Y644990D01*
X8034510Y624997D01*
X8054503Y644990D01*
Y585010D01*
X8074497Y634993D02*
X8084494Y644990D01*
X8104487D01*
X8114484Y634993D01*
Y624997D01*
X8104487Y615000D01*
X8114484Y605003D01*
Y595006D01*
X8104487Y585010D01*
X8084494D01*
X8074497Y595006D01*
Y605003D01*
X8084494Y615000D01*
X8074497Y624997D01*
Y634993D01*
X8084494Y615000D02*
X8104487D01*
X5678013Y3790010D02*
Y3849990D01*
X5708003D01*
X5718000Y3839993D01*
Y3820000D01*
X5708003Y3810003D01*
X5678013D01*
X5698006D02*
X5718000Y3790010D01*
X5737993D02*
X5757987D01*
X5747990D01*
Y3849990D01*
X5737993Y3839993D01*
X5539990Y3720016D02*
X5480010D01*
Y3750007D01*
X5490007Y3760003D01*
X5510000D01*
X5519997Y3750007D01*
Y3720016D01*
Y3740010D02*
X5539990Y3760003D01*
Y3819984D02*
Y3779997D01*
X5500003Y3819984D01*
X5490007D01*
X5480010Y3809987D01*
Y3789994D01*
X5490007Y3779997D01*
X4830016Y4260010D02*
Y4319990D01*
X4860007D01*
X4870003Y4309993D01*
Y4290000D01*
X4860007Y4280003D01*
X4830016D01*
X4850010D02*
X4870003Y4260010D01*
X4889997Y4319990D02*
X4929984D01*
Y4309993D01*
X4889997Y4270006D01*
Y4260010D01*
X6168016Y4210010D02*
Y4269990D01*
X6198007D01*
X6208003Y4259993D01*
Y4240000D01*
X6198007Y4230003D01*
X6168016D01*
X6188010D02*
X6208003Y4210010D01*
X6227997Y4259993D02*
X6237994Y4269990D01*
X6257987D01*
X6267984Y4259993D01*
Y4249997D01*
X6257987Y4240000D01*
X6267984Y4230003D01*
Y4220006D01*
X6257987Y4210010D01*
X6237994D01*
X6227997Y4220006D01*
Y4230003D01*
X6237994Y4240000D01*
X6227997Y4249997D01*
Y4259993D01*
X6237994Y4240000D02*
X6257987D01*
X6200370Y3980010D02*
Y4039990D01*
X6230360D01*
X6240357Y4029993D01*
Y4010000D01*
X6230360Y4000003D01*
X6200370D01*
X6220363D02*
X6240357Y3980010D01*
X6260350Y3990006D02*
X6270347Y3980010D01*
X6290341D01*
X6300337Y3990006D01*
Y4029993D01*
X6290341Y4039990D01*
X6270347D01*
X6260350Y4029993D01*
Y4019997D01*
X6270347Y4010000D01*
X6300337D01*
X4869990Y3130016D02*
X4810009D01*
Y3160006D01*
X4820006Y3170003D01*
X4840000D01*
X4849996Y3160006D01*
Y3130016D01*
Y3150010D02*
X4869990Y3170003D01*
X4810009Y3229984D02*
X4820006Y3209990D01*
X4840000Y3189997D01*
X4859993D01*
X4869990Y3199993D01*
Y3219987D01*
X4859993Y3229984D01*
X4849996D01*
X4840000Y3219987D01*
Y3189997D01*
X6149990Y2130026D02*
X6090010D01*
Y2160017D01*
X6100007Y2170013D01*
X6120000D01*
X6129997Y2160017D01*
Y2130026D01*
Y2150020D02*
X6149990Y2170013D01*
X6100007Y2190007D02*
X6090010Y2200003D01*
Y2219997D01*
X6100007Y2229994D01*
X6110003D01*
X6120000Y2219997D01*
Y2210000D01*
Y2219997D01*
X6129997Y2229994D01*
X6139994D01*
X6149990Y2219997D01*
Y2200003D01*
X6139994Y2190007D01*
X6090010Y2289974D02*
Y2249987D01*
X6120000D01*
X6110003Y2269981D01*
Y2279978D01*
X6120000Y2289974D01*
X6139994D01*
X6149990Y2279978D01*
Y2259984D01*
X6139994Y2249987D01*
X7689990Y3230032D02*
X7630009D01*
Y3260023D01*
X7640006Y3270019D01*
X7660000D01*
X7669996Y3260023D01*
Y3230032D01*
Y3250026D02*
X7689990Y3270019D01*
Y3290013D02*
Y3310007D01*
Y3300010D01*
X7630009D01*
X7640006Y3290013D01*
X7689990Y3339997D02*
Y3359990D01*
Y3349993D01*
X7630009D01*
X7640006Y3339997D01*
X7689990Y3429967D02*
Y3389980D01*
X7650003Y3429967D01*
X7640006D01*
X7630009Y3419971D01*
Y3399977D01*
X7640006Y3389980D01*
X6149990Y1320026D02*
X6090010D01*
Y1350016D01*
X6100007Y1360013D01*
X6120000D01*
X6129997Y1350016D01*
Y1320026D01*
Y1340019D02*
X6149990Y1360013D01*
X6090010Y1419993D02*
Y1380006D01*
X6120000D01*
X6110003Y1400000D01*
Y1409997D01*
X6120000Y1419993D01*
X6139994D01*
X6149990Y1409997D01*
Y1390003D01*
X6139994Y1380006D01*
X6090010Y1479974D02*
Y1439987D01*
X6120000D01*
X6110003Y1459981D01*
Y1469977D01*
X6120000Y1479974D01*
X6139994D01*
X6149990Y1469977D01*
Y1449984D01*
X6139994Y1439987D01*
X7589990Y3230032D02*
X7530010D01*
Y3260023D01*
X7540007Y3270019D01*
X7560000D01*
X7569997Y3260023D01*
Y3230032D01*
Y3250026D02*
X7589990Y3270019D01*
Y3290013D02*
Y3310007D01*
Y3300010D01*
X7530010D01*
X7540007Y3290013D01*
X7589990Y3339997D02*
Y3359990D01*
Y3349993D01*
X7530010D01*
X7540007Y3339997D01*
Y3389980D02*
X7530010Y3399977D01*
Y3419971D01*
X7540007Y3429967D01*
X7550003D01*
X7560000Y3419971D01*
Y3409974D01*
Y3419971D01*
X7569997Y3429967D01*
X7579993D01*
X7589990Y3419971D01*
Y3399977D01*
X7579993Y3389980D01*
X4879990Y3590016D02*
X4820009D01*
Y3620006D01*
X4830006Y3630003D01*
X4850000D01*
X4859996Y3620006D01*
Y3590016D01*
Y3610010D02*
X4879990Y3630003D01*
Y3679987D02*
X4820009D01*
X4850000Y3649997D01*
Y3689984D01*
X4925021Y3070010D02*
Y3129990D01*
X4955011D01*
X4965008Y3119993D01*
Y3100000D01*
X4955011Y3090003D01*
X4925021D01*
X4945015D02*
X4965008Y3070010D01*
X4985002D02*
X5004995D01*
X4994998D01*
Y3129990D01*
X4985002Y3119993D01*
X5034985Y3070010D02*
X5054979D01*
X5044982D01*
Y3129990D01*
X5034985Y3119993D01*
X2730026Y2170010D02*
Y2229990D01*
X2760016D01*
X2770013Y2219994D01*
Y2200000D01*
X2760016Y2190003D01*
X2730026D01*
X2750020D02*
X2770013Y2170010D01*
X2790007Y2180007D02*
X2800003Y2170010D01*
X2819997D01*
X2829994Y2180007D01*
Y2219994D01*
X2819997Y2229990D01*
X2800003D01*
X2790007Y2219994D01*
Y2209997D01*
X2800003Y2200000D01*
X2829994D01*
X2849987Y2219994D02*
X2859984Y2229990D01*
X2879977D01*
X2889974Y2219994D01*
Y2180007D01*
X2879977Y2170010D01*
X2859984D01*
X2849987Y2180007D01*
Y2219994D01*
X2730026Y2270010D02*
Y2329990D01*
X2760016D01*
X2770013Y2319993D01*
Y2300000D01*
X2760016Y2290003D01*
X2730026D01*
X2750020D02*
X2770013Y2270010D01*
X2790007Y2280006D02*
X2800003Y2270010D01*
X2819997D01*
X2829994Y2280006D01*
Y2319993D01*
X2819997Y2329990D01*
X2800003D01*
X2790007Y2319993D01*
Y2309997D01*
X2800003Y2300000D01*
X2829994D01*
X2889974Y2329990D02*
X2849987D01*
Y2300000D01*
X2869981Y2309997D01*
X2879977D01*
X2889974Y2300000D01*
Y2280006D01*
X2879977Y2270010D01*
X2859984D01*
X2849987Y2280006D01*
X3339990Y4640026D02*
X3280009D01*
Y4670016D01*
X3290006Y4680013D01*
X3310000D01*
X3319996Y4670016D01*
Y4640026D01*
Y4660019D02*
X3339990Y4680013D01*
X3290006Y4700006D02*
X3280009Y4710003D01*
Y4729997D01*
X3290006Y4739993D01*
X3300003D01*
X3310000Y4729997D01*
Y4720000D01*
Y4729997D01*
X3319996Y4739993D01*
X3329993D01*
X3339990Y4729997D01*
Y4710003D01*
X3329993Y4700006D01*
X3339990Y4799974D02*
Y4759987D01*
X3300003Y4799974D01*
X3290006D01*
X3280009Y4789977D01*
Y4769984D01*
X3290006Y4759987D01*
X5395026Y4309990D02*
X5435013D01*
X5415020D01*
Y4250010D01*
X5455007D02*
Y4309990D01*
X5484997D01*
X5494994Y4299993D01*
Y4280000D01*
X5484997Y4270003D01*
X5455007D01*
X5554974Y4250010D02*
X5514987D01*
X5554974Y4289997D01*
Y4299993D01*
X5544977Y4309990D01*
X5524984D01*
X5514987Y4299993D01*
X5765023Y3739990D02*
X5805010D01*
X5785016D01*
Y3680010D01*
X5825003D02*
Y3739990D01*
X5854994D01*
X5864990Y3729993D01*
Y3710000D01*
X5854994Y3700003D01*
X5825003D01*
X5884984Y3680010D02*
X5904978D01*
X5894981D01*
Y3739990D01*
X5884984Y3729993D01*
X5765026Y4309990D02*
X5805013D01*
X5785020D01*
Y4250010D01*
X5825007D02*
Y4309990D01*
X5854997D01*
X5864994Y4299993D01*
Y4280000D01*
X5854997Y4270003D01*
X5825007D01*
X5884987Y4299993D02*
X5894984Y4309990D01*
X5914978D01*
X5924974Y4299993D01*
Y4289997D01*
X5914978Y4280000D01*
X5904981D01*
X5914978D01*
X5924974Y4270003D01*
Y4260006D01*
X5914978Y4250010D01*
X5894984D01*
X5884987Y4260006D01*
X5455026Y3359990D02*
X5495013D01*
X5475020D01*
Y3300009D01*
X5515007D02*
Y3359990D01*
X5544997D01*
X5554994Y3349993D01*
Y3330000D01*
X5544997Y3320003D01*
X5515007D01*
X5604978Y3300009D02*
Y3359990D01*
X5574987Y3330000D01*
X5614974D01*
X4960010Y3936095D02*
X5009994D01*
X5019990Y3946091D01*
Y3966085D01*
X5009994Y3976082D01*
X4960010D01*
X5019990Y4036062D02*
Y3996075D01*
X4980003Y4036062D01*
X4970007D01*
X4960010Y4026066D01*
Y4006072D01*
X4970007Y3996075D01*
X5560013Y4069990D02*
Y4020006D01*
X5570010Y4010010D01*
X5590003D01*
X5600000Y4020006D01*
Y4069990D01*
X5619994Y4010010D02*
X5639987D01*
X5629990D01*
Y4069990D01*
X5619994Y4059993D01*
X5410016Y3017490D02*
Y2967506D01*
X5420013Y2957509D01*
X5440007D01*
X5450003Y2967506D01*
Y3017490D01*
X5499987Y2957509D02*
Y3017490D01*
X5469997Y2987500D01*
X5509984D01*
X6311710Y1859990D02*
Y1810007D01*
X6321706Y1800010D01*
X6341700D01*
X6351697Y1810007D01*
Y1859990D01*
X6371690Y1800010D02*
X6391684D01*
X6381687D01*
Y1859990D01*
X6371690Y1849994D01*
X6421674Y1800010D02*
X6441668D01*
X6431671D01*
Y1859990D01*
X6421674Y1849994D01*
X7346447Y2599990D02*
Y2550006D01*
X7356444Y2540010D01*
X7376438D01*
X7386434Y2550006D01*
Y2599990D01*
X7446415Y2540010D02*
X7406428D01*
X7446415Y2579997D01*
Y2589993D01*
X7436418Y2599990D01*
X7416425D01*
X7406428Y2589993D01*
X7506395Y2599990D02*
X7486402Y2589993D01*
X7466408Y2570000D01*
Y2550006D01*
X7476405Y2540010D01*
X7496399D01*
X7506395Y2550006D01*
Y2560003D01*
X7496399Y2570000D01*
X7466408D01*
X6986447Y3289990D02*
Y3240006D01*
X6996444Y3230010D01*
X7016438D01*
X7026434Y3240006D01*
Y3289990D01*
X7086415Y3230010D02*
X7046428D01*
X7086415Y3269997D01*
Y3279993D01*
X7076418Y3289990D01*
X7056425D01*
X7046428Y3279993D01*
X7106408D02*
X7116405Y3289990D01*
X7136399D01*
X7146395Y3279993D01*
Y3269997D01*
X7136399Y3260000D01*
X7126402D01*
X7136399D01*
X7146395Y3250003D01*
Y3240006D01*
X7136399Y3230010D01*
X7116405D01*
X7106408Y3240006D01*
X7346447Y2219990D02*
Y2170006D01*
X7356444Y2160010D01*
X7376438D01*
X7386434Y2170006D01*
Y2219990D01*
X7446415Y2160010D02*
X7406428D01*
X7446415Y2199997D01*
Y2209993D01*
X7436418Y2219990D01*
X7416425D01*
X7406428Y2209993D01*
X7466408D02*
X7476405Y2219990D01*
X7496399D01*
X7506395Y2209993D01*
Y2199997D01*
X7496399Y2190000D01*
X7506395Y2180003D01*
Y2170006D01*
X7496399Y2160010D01*
X7476405D01*
X7466408Y2170006D01*
Y2180003D01*
X7476405Y2190000D01*
X7466408Y2199997D01*
Y2209993D01*
X7476405Y2190000D02*
X7496399D01*
X6301714Y1049990D02*
Y1000006D01*
X6311710Y990010D01*
X6331704D01*
X6341701Y1000006D01*
Y1049990D01*
X6361694Y990010D02*
X6381688D01*
X6371691D01*
Y1049990D01*
X6361694Y1039993D01*
X6451665Y990010D02*
X6411678D01*
X6451665Y1029997D01*
Y1039993D01*
X6441668Y1049990D01*
X6421674D01*
X6411678Y1039993D01*
X7689561Y3004759D02*
X7739545D01*
X7749541Y3014755D01*
Y3034749D01*
X7739545Y3044746D01*
X7689561D01*
X7749541Y3064739D02*
Y3084733D01*
Y3074736D01*
X7689561D01*
X7699558Y3064739D01*
X7689561Y3154710D02*
Y3114723D01*
X7719551D01*
X7709554Y3134717D01*
Y3144713D01*
X7719551Y3154710D01*
X7739545D01*
X7749541Y3144713D01*
Y3124720D01*
X7739545Y3114723D01*
X7346447Y1479990D02*
Y1430006D01*
X7356444Y1420010D01*
X7376438D01*
X7386434Y1430006D01*
Y1479990D01*
X7446415Y1420010D02*
X7406428D01*
X7446415Y1459997D01*
Y1469993D01*
X7436418Y1479990D01*
X7416425D01*
X7406428Y1469993D01*
X7496399Y1420010D02*
Y1479990D01*
X7466408Y1450000D01*
X7506395D01*
X7346447Y1849990D02*
Y1800006D01*
X7356444Y1790010D01*
X7376438D01*
X7386434Y1800006D01*
Y1849990D01*
X7446415Y1790010D02*
X7406428D01*
X7446415Y1829997D01*
Y1839993D01*
X7436418Y1849990D01*
X7416425D01*
X7406428Y1839993D01*
X7466408Y1800006D02*
X7476405Y1790010D01*
X7496399D01*
X7506395Y1800006D01*
Y1839993D01*
X7496399Y1849990D01*
X7476405D01*
X7466408Y1839993D01*
Y1829997D01*
X7476405Y1820000D01*
X7506395D01*
X7346447Y1099990D02*
Y1050006D01*
X7356444Y1040010D01*
X7376438D01*
X7386434Y1050006D01*
Y1099990D01*
X7446415Y1040010D02*
X7406428D01*
X7446415Y1079997D01*
Y1089993D01*
X7436418Y1099990D01*
X7416425D01*
X7406428Y1089993D01*
X7466408Y1099990D02*
X7506395D01*
Y1089993D01*
X7466408Y1050006D01*
Y1040010D01*
X6991446Y3669990D02*
Y3620006D01*
X7001443Y3610010D01*
X7021436D01*
X7031433Y3620006D01*
Y3669990D01*
X7051427Y3610010D02*
X7071420D01*
X7061423D01*
Y3669990D01*
X7051427Y3659993D01*
X7101410D02*
X7111407Y3669990D01*
X7131401D01*
X7141397Y3659993D01*
Y3649997D01*
X7131401Y3640000D01*
X7121404D01*
X7131401D01*
X7141397Y3630003D01*
Y3620006D01*
X7131401Y3610010D01*
X7111407D01*
X7101410Y3620006D01*
X7717199Y4005235D02*
X7767183D01*
X7777180Y4015231D01*
Y4035225D01*
X7767183Y4045222D01*
X7717199D01*
X7777180Y4065215D02*
Y4085209D01*
Y4075212D01*
X7717199D01*
X7727196Y4065215D01*
X7777180Y4145189D02*
X7717199D01*
X7747189Y4115199D01*
Y4155186D01*
X3426447Y1449990D02*
Y1400006D01*
X3436444Y1390010D01*
X3456438D01*
X3466434Y1400006D01*
Y1449990D01*
X3526415Y1390010D02*
X3486428D01*
X3526415Y1429997D01*
Y1439993D01*
X3516418Y1449990D01*
X3496425D01*
X3486428Y1439993D01*
X3586395Y1390010D02*
X3546408D01*
X3586395Y1429997D01*
Y1439993D01*
X3576399Y1449990D01*
X3556405D01*
X3546408Y1439993D01*
X6270010Y3480016D02*
X6319994D01*
X6329990Y3490013D01*
Y3510007D01*
X6319994Y3520003D01*
X6270010D01*
X6280007Y3539997D02*
X6270010Y3549994D01*
Y3569987D01*
X6280007Y3579984D01*
X6290003D01*
X6300000Y3569987D01*
Y3559991D01*
Y3569987D01*
X6309997Y3579984D01*
X6319994D01*
X6329990Y3569987D01*
Y3549994D01*
X6319994Y3539997D01*
X4754516Y5114010D02*
Y5173990D01*
X4784507D01*
X4794503Y5163993D01*
Y5144000D01*
X4784507Y5134003D01*
X4754516D01*
X4814497Y5163993D02*
X4824494Y5173990D01*
X4844487D01*
X4854484Y5163993D01*
Y5153997D01*
X4844487Y5144000D01*
X4854484Y5134003D01*
Y5124006D01*
X4844487Y5114010D01*
X4824494D01*
X4814497Y5124006D01*
Y5134003D01*
X4824494Y5144000D01*
X4814497Y5153997D01*
Y5163993D01*
X4824494Y5144000D02*
X4844487D01*
X4754516Y288010D02*
Y347990D01*
X4784507D01*
X4794503Y337993D01*
Y318000D01*
X4784507Y308003D01*
X4754516D01*
X4814497Y298006D02*
X4824494Y288010D01*
X4844487D01*
X4854484Y298006D01*
Y337993D01*
X4844487Y347990D01*
X4824494D01*
X4814497Y337993D01*
Y327997D01*
X4824494Y318000D01*
X4854484D01*
X7090010Y829990D02*
X7050023D01*
Y800000D01*
X7070016D01*
X7050023D01*
Y770010D01*
X7110003Y829990D02*
Y770010D01*
X7139994D01*
X7149990Y780006D01*
Y819993D01*
X7139994Y829990D01*
X7110003D01*
X7169984Y770010D02*
X7189977D01*
X7179981D01*
Y829990D01*
X7169984Y819993D01*
X3160013Y829990D02*
X3120026D01*
Y800000D01*
X3140020D01*
X3120026D01*
Y770010D01*
X3180007Y829990D02*
Y770010D01*
X3209997D01*
X3219994Y780006D01*
Y819993D01*
X3209997Y829990D01*
X3180007D01*
X3279974Y770010D02*
X3239987D01*
X3279974Y809997D01*
Y819993D01*
X3269977Y829990D01*
X3249984D01*
X3239987Y819993D01*
X6740013Y4429990D02*
X6700026D01*
Y4400000D01*
X6720020D01*
X6700026D01*
Y4370010D01*
X6760007Y4429990D02*
Y4370010D01*
X6789997D01*
X6799994Y4380006D01*
Y4419993D01*
X6789997Y4429990D01*
X6760007D01*
X6819987Y4419993D02*
X6829984Y4429990D01*
X6849977D01*
X6859974Y4419993D01*
Y4409997D01*
X6849977Y4400000D01*
X6839981D01*
X6849977D01*
X6859974Y4390003D01*
Y4380006D01*
X6849977Y4370010D01*
X6829984D01*
X6819987Y4380006D01*
X3380013Y2429952D02*
X3370016Y2439949D01*
X3350023D01*
X3340026Y2429952D01*
Y2389965D01*
X3350023Y2379968D01*
X3370016D01*
X3380013Y2389965D01*
X3400007Y2439949D02*
X3439994D01*
Y2429952D01*
X3400007Y2389965D01*
Y2379968D01*
X3459987Y2429952D02*
X3469984Y2439949D01*
X3489978D01*
X3499974Y2429952D01*
Y2419955D01*
X3489978Y2409959D01*
X3499974Y2399962D01*
Y2389965D01*
X3489978Y2379968D01*
X3469984D01*
X3459987Y2389965D01*
Y2399962D01*
X3469984Y2409959D01*
X3459987Y2419955D01*
Y2429952D01*
X3469984Y2409959D02*
X3489978D01*
X4610016Y4742490D02*
Y4682510D01*
X4640007D01*
X4650003Y4692506D01*
Y4732493D01*
X4640007Y4742490D01*
X4610016D01*
X4709984D02*
X4669997D01*
Y4712500D01*
X4689991Y4722497D01*
X4699987D01*
X4709984Y4712500D01*
Y4692506D01*
X4699987Y4682510D01*
X4679994D01*
X4669997Y4692506D01*
X6140016Y4742490D02*
Y4682510D01*
X6170007D01*
X6180003Y4692506D01*
Y4732493D01*
X6170007Y4742490D01*
X6140016D01*
X6239984D02*
X6219991Y4732493D01*
X6199997Y4712500D01*
Y4692506D01*
X6209994Y4682510D01*
X6229987D01*
X6239984Y4692506D01*
Y4702503D01*
X6229987Y4712500D01*
X6199997D01*
X4459990Y670026D02*
X4400010D01*
Y700016D01*
X4410007Y710013D01*
X4430000D01*
X4439997Y700016D01*
Y670026D01*
Y690020D02*
X4459990Y710013D01*
X4410007Y730007D02*
X4400010Y740003D01*
Y759997D01*
X4410007Y769994D01*
X4420003D01*
X4430000Y759997D01*
X4439997Y769994D01*
X4449994D01*
X4459990Y759997D01*
Y740003D01*
X4449994Y730007D01*
X4439997D01*
X4430000Y740003D01*
X4420003Y730007D01*
X4410007D01*
X4430000Y740003D02*
Y759997D01*
X4400010Y789987D02*
Y829974D01*
X4410007D01*
X4449994Y789987D01*
X4459990D01*
X4349990Y670026D02*
X4290010D01*
Y700016D01*
X4300007Y710013D01*
X4320000D01*
X4329997Y700016D01*
Y670026D01*
Y690020D02*
X4349990Y710013D01*
X4300007Y730007D02*
X4290010Y740003D01*
Y759997D01*
X4300007Y769994D01*
X4310003D01*
X4320000Y759997D01*
X4329997Y769994D01*
X4339994D01*
X4349990Y759997D01*
Y740003D01*
X4339994Y730007D01*
X4329997D01*
X4320000Y740003D01*
X4310003Y730007D01*
X4300007D01*
X4320000Y740003D02*
Y759997D01*
X4300007Y789987D02*
X4290010Y799984D01*
Y819978D01*
X4300007Y829974D01*
X4310003D01*
X4320000Y819978D01*
X4329997Y829974D01*
X4339994D01*
X4349990Y819978D01*
Y799984D01*
X4339994Y789987D01*
X4329997D01*
X4320000Y799984D01*
X4310003Y789987D01*
X4300007D01*
X4320000Y799984D02*
Y819978D01*
X3340026Y2250010D02*
Y2309990D01*
X3370016D01*
X3380013Y2299993D01*
Y2280000D01*
X3370016Y2270003D01*
X3340026D01*
X3360020D02*
X3380013Y2250010D01*
X3400007Y2299993D02*
X3410003Y2309990D01*
X3429997D01*
X3439994Y2299993D01*
Y2289997D01*
X3429997Y2280000D01*
X3439994Y2270003D01*
Y2260006D01*
X3429997Y2250010D01*
X3410003D01*
X3400007Y2260006D01*
Y2270003D01*
X3410003Y2280000D01*
X3400007Y2289997D01*
Y2299993D01*
X3410003Y2280000D02*
X3429997D01*
X3459987Y2260006D02*
X3469984Y2250010D01*
X3489978D01*
X3499974Y2260006D01*
Y2299993D01*
X3489978Y2309990D01*
X3469984D01*
X3459987Y2299993D01*
Y2289997D01*
X3469984Y2280000D01*
X3499974D01*
X2730026Y2370010D02*
Y2429990D01*
X2760016D01*
X2770013Y2419993D01*
Y2400000D01*
X2760016Y2390003D01*
X2730026D01*
X2750020D02*
X2770013Y2370010D01*
X2790007Y2380006D02*
X2800003Y2370010D01*
X2819997D01*
X2829994Y2380006D01*
Y2419993D01*
X2819997Y2429990D01*
X2800003D01*
X2790007Y2419993D01*
Y2409997D01*
X2800003Y2400000D01*
X2829994D01*
X2889974Y2429990D02*
X2869981Y2419993D01*
X2849987Y2400000D01*
Y2380006D01*
X2859984Y2370010D01*
X2879977D01*
X2889974Y2380006D01*
Y2390003D01*
X2879977Y2400000D01*
X2849987D01*
X3109990Y4650023D02*
X3050010D01*
Y4680013D01*
X3060007Y4690010D01*
X3080000D01*
X3089997Y4680013D01*
Y4650023D01*
Y4670016D02*
X3109990Y4690010D01*
X3099994Y4710003D02*
X3109990Y4720000D01*
Y4739994D01*
X3099994Y4749990D01*
X3060007D01*
X3050010Y4739994D01*
Y4720000D01*
X3060007Y4710003D01*
X3070003D01*
X3080000Y4720000D01*
Y4749990D01*
X3109990Y4769984D02*
Y4789977D01*
Y4779981D01*
X3050010D01*
X3060007Y4769984D01*
X5849990Y4650026D02*
X5790010D01*
Y4680016D01*
X5800006Y4690013D01*
X5820000D01*
X5829996Y4680016D01*
Y4650026D01*
Y4670019D02*
X5849990Y4690013D01*
X5839993Y4710006D02*
X5849990Y4720003D01*
Y4739997D01*
X5839993Y4749993D01*
X5800006D01*
X5790010Y4739997D01*
Y4720003D01*
X5800006Y4710006D01*
X5810003D01*
X5820000Y4720003D01*
Y4749993D01*
X5849990Y4809974D02*
Y4769987D01*
X5810003Y4809974D01*
X5800006D01*
X5790010Y4799977D01*
Y4779984D01*
X5800006Y4769987D01*
X3523016Y3463010D02*
Y3522990D01*
X3543010Y3502997D01*
X3563003Y3522990D01*
Y3463010D01*
X3612987D02*
Y3522990D01*
X3582997Y3493000D01*
X3622984D01*
X3033945Y2319990D02*
Y2270006D01*
X3043942Y2260009D01*
X3063935D01*
X3073932Y2270006D01*
Y2319990D01*
X3093926Y2260009D02*
X3113919D01*
X3103922D01*
Y2319990D01*
X3093926Y2309993D01*
X3143909Y2319990D02*
X3183896D01*
Y2309993D01*
X3143909Y2270006D01*
Y2260009D01*
X6335011Y3210034D02*
X6325015Y3220031D01*
X6305021D01*
X6295024Y3210034D01*
Y3170048D01*
X6305021Y3160051D01*
X6325015D01*
X6335011Y3170048D01*
X6355005Y3160051D02*
X6374999D01*
X6365002D01*
Y3220031D01*
X6355005Y3210034D01*
X6434979Y3160051D02*
Y3220031D01*
X6404989Y3190041D01*
X6444976D01*
X6335011Y3110034D02*
X6325015Y3120031D01*
X6305021D01*
X6295024Y3110034D01*
Y3070047D01*
X6305021Y3060051D01*
X6325015D01*
X6335011Y3070047D01*
X6355005Y3060051D02*
X6374999D01*
X6365002D01*
Y3120031D01*
X6355005Y3110034D01*
X6444976Y3120031D02*
X6404989D01*
Y3090041D01*
X6424982Y3100038D01*
X6434979D01*
X6444976Y3090041D01*
Y3070047D01*
X6434979Y3060051D01*
X6414985D01*
X6404989Y3070047D01*
X2940010Y1530016D02*
X2999990D01*
Y1570003D01*
X2950007Y1589997D02*
X2940010Y1599993D01*
Y1619987D01*
X2950007Y1629984D01*
X2960003D01*
X2970000Y1619987D01*
X2979997Y1629984D01*
X2989994D01*
X2999990Y1619987D01*
Y1599993D01*
X2989994Y1589997D01*
X2979997D01*
X2970000Y1599993D01*
X2960003Y1589997D01*
X2950007D01*
X2970000Y1599993D02*
Y1619987D01*
X4860048Y1940013D02*
X4850051Y1930016D01*
Y1910023D01*
X4860048Y1900026D01*
X4900035D01*
X4910031Y1910023D01*
Y1930016D01*
X4900035Y1940013D01*
X4860048Y1960007D02*
X4850051Y1970003D01*
Y1989997D01*
X4860048Y1999994D01*
X4870044D01*
X4880041Y1989997D01*
X4890038Y1999994D01*
X4900035D01*
X4910031Y1989997D01*
Y1970003D01*
X4900035Y1960007D01*
X4890038D01*
X4880041Y1970003D01*
X4870044Y1960007D01*
X4860048D01*
X4880041Y1970003D02*
Y1989997D01*
X4850051Y2059974D02*
Y2019987D01*
X4880041D01*
X4870044Y2039981D01*
Y2049978D01*
X4880041Y2059974D01*
X4900035D01*
X4910031Y2049978D01*
Y2029984D01*
X4900035Y2019987D01*
X5530048Y1950013D02*
X5520051Y1940016D01*
Y1920023D01*
X5530048Y1910026D01*
X5570035D01*
X5580032Y1920023D01*
Y1940016D01*
X5570035Y1950013D01*
X5530048Y1970007D02*
X5520051Y1980003D01*
Y1999997D01*
X5530048Y2009994D01*
X5540045D01*
X5550041Y1999997D01*
X5560038Y2009994D01*
X5570035D01*
X5580032Y1999997D01*
Y1980003D01*
X5570035Y1970007D01*
X5560038D01*
X5550041Y1980003D01*
X5540045Y1970007D01*
X5530048D01*
X5550041Y1980003D02*
Y1999997D01*
X5520051Y2069974D02*
X5530048Y2049981D01*
X5550041Y2029987D01*
X5570035D01*
X5580032Y2039984D01*
Y2059978D01*
X5570035Y2069974D01*
X5560038D01*
X5550041Y2059978D01*
Y2029987D01*
X4970013Y1769993D02*
X4960016Y1779990D01*
X4940023D01*
X4930026Y1769993D01*
Y1730006D01*
X4940023Y1720010D01*
X4960016D01*
X4970013Y1730006D01*
X4990007D02*
X5000003Y1720010D01*
X5019997D01*
X5029993Y1730006D01*
Y1769993D01*
X5019997Y1779990D01*
X5000003D01*
X4990007Y1769993D01*
Y1759997D01*
X5000003Y1750000D01*
X5029993D01*
X5049987Y1769993D02*
X5059984Y1779990D01*
X5079977D01*
X5089974Y1769993D01*
Y1730006D01*
X5079977Y1720010D01*
X5059984D01*
X5049987Y1730006D01*
Y1769993D01*
X5410013D02*
X5400016Y1779990D01*
X5380023D01*
X5370026Y1769993D01*
Y1730006D01*
X5380023Y1720010D01*
X5400016D01*
X5410013Y1730006D01*
X5430007Y1769993D02*
X5440003Y1779990D01*
X5459997D01*
X5469994Y1769993D01*
Y1759997D01*
X5459997Y1750000D01*
X5469994Y1740003D01*
Y1730006D01*
X5459997Y1720010D01*
X5440003D01*
X5430007Y1730006D01*
Y1740003D01*
X5440003Y1750000D01*
X5430007Y1759997D01*
Y1769993D01*
X5440003Y1750000D02*
X5459997D01*
X5489987Y1779990D02*
X5529974D01*
Y1769993D01*
X5489987Y1730006D01*
Y1720010D01*
X5519965Y1090010D02*
X5509968Y1080013D01*
Y1060019D01*
X5519965Y1050023D01*
X5559952D01*
X5569949Y1060019D01*
Y1080013D01*
X5559952Y1090010D01*
Y1110003D02*
X5569949Y1120000D01*
Y1139994D01*
X5559952Y1149990D01*
X5519965D01*
X5509968Y1139994D01*
Y1120000D01*
X5519965Y1110003D01*
X5529962D01*
X5539959Y1120000D01*
Y1149990D01*
X5569949Y1169984D02*
Y1189978D01*
Y1179981D01*
X5509968D01*
X5519965Y1169984D01*
X5560007Y1460013D02*
X5550010Y1450016D01*
Y1430023D01*
X5560007Y1420026D01*
X5599994D01*
X5609990Y1430023D01*
Y1450016D01*
X5599994Y1460013D01*
Y1480007D02*
X5609990Y1490003D01*
Y1509997D01*
X5599994Y1519994D01*
X5560007D01*
X5550010Y1509997D01*
Y1490003D01*
X5560007Y1480007D01*
X5570003D01*
X5580000Y1490003D01*
Y1519994D01*
X5609990Y1579974D02*
Y1539987D01*
X5570003Y1579974D01*
X5560007D01*
X5550010Y1569978D01*
Y1549984D01*
X5560007Y1539987D01*
X5000013Y2249952D02*
X4990016Y2259949D01*
X4970023D01*
X4960026Y2249952D01*
Y2209965D01*
X4970023Y2199968D01*
X4990016D01*
X5000013Y2209965D01*
X5020007D02*
X5030003Y2199968D01*
X5049997D01*
X5059994Y2209965D01*
Y2249952D01*
X5049997Y2259949D01*
X5030003D01*
X5020007Y2249952D01*
Y2239955D01*
X5030003Y2229959D01*
X5059994D01*
X5079987Y2249952D02*
X5089984Y2259949D01*
X5109978D01*
X5119974Y2249952D01*
Y2239955D01*
X5109978Y2229959D01*
X5099981D01*
X5109978D01*
X5119974Y2219962D01*
Y2209965D01*
X5109978Y2199968D01*
X5089984D01*
X5079987Y2209965D01*
X4580007Y1610016D02*
X4570010Y1600020D01*
Y1580026D01*
X4580007Y1570029D01*
X4619994D01*
X4629990Y1580026D01*
Y1600020D01*
X4619994Y1610016D01*
X4629990Y1630010D02*
Y1650004D01*
Y1640007D01*
X4570010D01*
X4580007Y1630010D01*
X4629990Y1679994D02*
Y1699987D01*
Y1689990D01*
X4570010D01*
X4580007Y1679994D01*
X4629990Y1729977D02*
Y1749971D01*
Y1739974D01*
X4570010D01*
X4580007Y1729977D01*
X4710006Y2070013D02*
X4700009Y2060016D01*
Y2040023D01*
X4710006Y2030026D01*
X4749993D01*
X4759990Y2040023D01*
Y2060016D01*
X4749993Y2070013D01*
X4710006Y2090006D02*
X4700009Y2100003D01*
Y2119997D01*
X4710006Y2129993D01*
X4720003D01*
X4730000Y2119997D01*
X4739996Y2129993D01*
X4749993D01*
X4759990Y2119997D01*
Y2100003D01*
X4749993Y2090006D01*
X4739996D01*
X4730000Y2100003D01*
X4720003Y2090006D01*
X4710006D01*
X4730000Y2100003D02*
Y2119997D01*
X4710006Y2149987D02*
X4700009Y2159984D01*
Y2179977D01*
X4710006Y2189974D01*
X4720003D01*
X4730000Y2179977D01*
Y2169981D01*
Y2179977D01*
X4739996Y2189974D01*
X4749993D01*
X4759990Y2179977D01*
Y2159984D01*
X4749993Y2149987D01*
X4900048Y1480009D02*
X4890051Y1470013D01*
Y1450019D01*
X4900048Y1440023D01*
X4940035D01*
X4950031Y1450019D01*
Y1470013D01*
X4940035Y1480009D01*
X4900048Y1500003D02*
X4890051Y1510000D01*
Y1529993D01*
X4900048Y1539990D01*
X4910044D01*
X4920041Y1529993D01*
X4930038Y1539990D01*
X4940035D01*
X4950031Y1529993D01*
Y1510000D01*
X4940035Y1500003D01*
X4930038D01*
X4920041Y1510000D01*
X4910044Y1500003D01*
X4900048D01*
X4920041Y1510000D02*
Y1529993D01*
X4950031Y1559984D02*
Y1579977D01*
Y1569980D01*
X4890051D01*
X4900048Y1559984D01*
X5520013Y3549993D02*
X5510016Y3559990D01*
X5490023D01*
X5480026Y3549993D01*
Y3510006D01*
X5490023Y3500010D01*
X5510016D01*
X5520013Y3510006D01*
X5540007Y3549993D02*
X5550003Y3559990D01*
X5569997D01*
X5579994Y3549993D01*
Y3539997D01*
X5569997Y3530000D01*
X5579994Y3520003D01*
Y3510006D01*
X5569997Y3500010D01*
X5550003D01*
X5540007Y3510006D01*
Y3520003D01*
X5550003Y3530000D01*
X5540007Y3539997D01*
Y3549993D01*
X5550003Y3530000D02*
X5569997D01*
X5599987Y3549993D02*
X5609984Y3559990D01*
X5629978D01*
X5639974Y3549993D01*
Y3539997D01*
X5629978Y3530000D01*
X5639974Y3520003D01*
Y3510006D01*
X5629978Y3500010D01*
X5609984D01*
X5599987Y3510006D01*
Y3520003D01*
X5609984Y3530000D01*
X5599987Y3539997D01*
Y3549993D01*
X5609984Y3530000D02*
X5629978D01*
X4990009Y1443771D02*
X5049990D01*
Y1473761D01*
X5039993Y1483758D01*
X5000006D01*
X4990009Y1473761D01*
Y1443771D01*
X5049990Y1503751D02*
Y1523745D01*
Y1513748D01*
X4990009D01*
X5000006Y1503751D01*
X5049990Y1553735D02*
Y1573729D01*
Y1563732D01*
X4990009D01*
X5000006Y1553735D01*
X5640010Y1066274D02*
X5699990D01*
Y1096265D01*
X5689994Y1106261D01*
X5650007D01*
X5640010Y1096265D01*
Y1066274D01*
X5699990Y1126255D02*
Y1146249D01*
Y1136252D01*
X5640010D01*
X5650007Y1126255D01*
X5699990Y1216226D02*
Y1176239D01*
X5660003Y1216226D01*
X5650007D01*
X5640010Y1206229D01*
Y1186235D01*
X5650007Y1176239D01*
X5250016Y1549990D02*
Y1490010D01*
X5290003D01*
X5349984Y1549990D02*
X5309997D01*
Y1520000D01*
X5329991Y1529997D01*
X5339987D01*
X5349984Y1520000D01*
Y1500006D01*
X5339987Y1490010D01*
X5319994D01*
X5309997Y1500006D01*
X5879990Y670026D02*
X5820010D01*
Y700016D01*
X5830007Y710013D01*
X5850000D01*
X5859997Y700016D01*
Y670026D01*
Y690020D02*
X5879990Y710013D01*
X5820010Y730007D02*
Y769994D01*
X5830007D01*
X5869994Y730007D01*
X5879990D01*
X5820010Y829974D02*
X5830007Y809981D01*
X5850000Y789987D01*
X5869994D01*
X5879990Y799984D01*
Y819978D01*
X5869994Y829974D01*
X5859997D01*
X5850000Y819978D01*
Y789987D01*
X2599990Y1820026D02*
X2540009D01*
Y1850016D01*
X2550006Y1860013D01*
X2570000D01*
X2579996Y1850016D01*
Y1820026D01*
Y1840019D02*
X2599990Y1860013D01*
X2589993Y1880006D02*
X2599990Y1890003D01*
Y1909997D01*
X2589993Y1919993D01*
X2550006D01*
X2540009Y1909997D01*
Y1890003D01*
X2550006Y1880006D01*
X2560003D01*
X2570000Y1890003D01*
Y1919993D01*
X2550006Y1939987D02*
X2540009Y1949984D01*
Y1969977D01*
X2550006Y1979974D01*
X2560003D01*
X2570000Y1969977D01*
X2579996Y1979974D01*
X2589993D01*
X2599990Y1969977D01*
Y1949984D01*
X2589993Y1939987D01*
X2579996D01*
X2570000Y1949984D01*
X2560003Y1939987D01*
X2550006D01*
X2570000Y1949984D02*
Y1969977D01*
X5059990Y975034D02*
X5000010D01*
Y1005025D01*
X5010007Y1015021D01*
X5030000D01*
X5039997Y1005025D01*
Y975034D01*
Y995028D02*
X5059990Y1015021D01*
Y1035015D02*
Y1055009D01*
Y1045012D01*
X5000010D01*
X5010007Y1035015D01*
Y1084999D02*
X5000010Y1094995D01*
Y1114989D01*
X5010007Y1124986D01*
X5049994D01*
X5059990Y1114989D01*
Y1094995D01*
X5049994Y1084999D01*
X5010007D01*
X5000010Y1184966D02*
Y1144979D01*
X5030000D01*
X5020003Y1164973D01*
Y1174969D01*
X5030000Y1184966D01*
X5049994D01*
X5059990Y1174969D01*
Y1154976D01*
X5049994Y1144979D01*
X2219990Y2250026D02*
X2160010D01*
Y2280016D01*
X2170007Y2290013D01*
X2190000D01*
X2199997Y2280016D01*
Y2250026D01*
Y2270020D02*
X2219990Y2290013D01*
X2209994Y2310007D02*
X2219990Y2320003D01*
Y2339997D01*
X2209994Y2349994D01*
X2170007D01*
X2160010Y2339997D01*
Y2320003D01*
X2170007Y2310007D01*
X2180003D01*
X2190000Y2320003D01*
Y2349994D01*
X2209994Y2369987D02*
X2219990Y2379984D01*
Y2399977D01*
X2209994Y2409974D01*
X2170007D01*
X2160010Y2399977D01*
Y2379984D01*
X2170007Y2369987D01*
X2180003D01*
X2190000Y2379984D01*
Y2409974D01*
X5059990Y1175034D02*
X5000010D01*
Y1205024D01*
X5010006Y1215021D01*
X5030000D01*
X5039997Y1205024D01*
Y1175034D01*
Y1195028D02*
X5059990Y1215021D01*
Y1235015D02*
Y1255008D01*
Y1245011D01*
X5000010D01*
X5010006Y1235015D01*
Y1284998D02*
X5000010Y1294995D01*
Y1314988D01*
X5010006Y1324985D01*
X5049993D01*
X5059990Y1314988D01*
Y1294995D01*
X5049993Y1284998D01*
X5010006D01*
X5059990Y1374969D02*
X5000010D01*
X5030000Y1344979D01*
Y1384966D01*
X1895010Y1730016D02*
Y1770003D01*
Y1750010D01*
X1954990D01*
Y1829984D02*
Y1789997D01*
X1915003Y1829984D01*
X1905007D01*
X1895010Y1819987D01*
Y1799994D01*
X1905007Y1789997D01*
X5145025Y2019991D02*
Y1970007D01*
X5155021Y1960010D01*
X5175015D01*
X5185012Y1970007D01*
Y2019991D01*
X5205005Y1960010D02*
X5224999D01*
X5215002D01*
Y2019991D01*
X5205005Y2009994D01*
X5254989Y1970007D02*
X5264986Y1960010D01*
X5284979D01*
X5294976Y1970007D01*
Y2009994D01*
X5284979Y2019991D01*
X5264986D01*
X5254989Y2009994D01*
Y1999997D01*
X5264986Y1990000D01*
X5294976D01*
X5200026Y1202490D02*
Y1152506D01*
X5210023Y1142510D01*
X5230016D01*
X5240013Y1152506D01*
Y1202490D01*
X5299993Y1142510D02*
X5260006D01*
X5299993Y1182496D01*
Y1192493D01*
X5289997Y1202490D01*
X5270003D01*
X5260006Y1192493D01*
X5319987D02*
X5329984Y1202490D01*
X5349977D01*
X5359974Y1192493D01*
Y1152506D01*
X5349977Y1142510D01*
X5329984D01*
X5319987Y1152506D01*
Y1192493D01*
X2126274Y1659990D02*
Y1600009D01*
X2156265D01*
X2166261Y1610006D01*
Y1649993D01*
X2156265Y1659990D01*
X2126274D01*
X2186255Y1600009D02*
X2206249D01*
X2196252D01*
Y1659990D01*
X2186255Y1649993D01*
X2266229Y1600009D02*
Y1659990D01*
X2236239Y1630000D01*
X2276226D01*
X2219990Y2035031D02*
X2160010D01*
Y2065021D01*
X2170007Y2075018D01*
X2190000D01*
X2199997Y2065021D01*
Y2035031D01*
Y2055025D02*
X2219990Y2075018D01*
Y2095012D02*
Y2115005D01*
Y2105008D01*
X2160010D01*
X2170007Y2095012D01*
Y2144995D02*
X2160010Y2154992D01*
Y2174985D01*
X2170007Y2184982D01*
X2209994D01*
X2219990Y2174985D01*
Y2154992D01*
X2209994Y2144995D01*
X2170007D01*
X2219990Y2204976D02*
Y2224969D01*
Y2214972D01*
X2160010D01*
X2170007Y2204976D01*
X5155034Y2200010D02*
Y2259990D01*
X5185024D01*
X5195021Y2249993D01*
Y2230000D01*
X5185024Y2220003D01*
X5155034D01*
X5175028D02*
X5195021Y2200010D01*
X5215015D02*
X5235008D01*
X5225011D01*
Y2259990D01*
X5215015Y2249993D01*
X5264998D02*
X5274995Y2259990D01*
X5294989D01*
X5304985Y2249993D01*
Y2210007D01*
X5294989Y2200010D01*
X5274995D01*
X5264998Y2210007D01*
Y2249993D01*
X5324979D02*
X5334976Y2259990D01*
X5354969D01*
X5364966Y2249993D01*
Y2239997D01*
X5354969Y2230000D01*
X5344973D01*
X5354969D01*
X5364966Y2220003D01*
Y2210007D01*
X5354969Y2200010D01*
X5334976D01*
X5324979Y2210007D01*
X6099990Y3535024D02*
X6040010D01*
Y3565015D01*
X6050007Y3575011D01*
X6070000D01*
X6079997Y3565015D01*
Y3535024D01*
Y3555018D02*
X6099990Y3575011D01*
Y3595005D02*
Y3614999D01*
Y3605002D01*
X6040010D01*
X6050007Y3595005D01*
X6099990Y3684976D02*
Y3644989D01*
X6060003Y3684976D01*
X6050007D01*
X6040010Y3674979D01*
Y3654985D01*
X6050007Y3644989D01*
X2325010Y1830013D02*
Y1870000D01*
Y1850006D01*
X2384990D01*
Y1889993D02*
Y1909987D01*
Y1899990D01*
X2325010D01*
X2335007Y1889993D01*
X2372510Y2155024D02*
X2422494D01*
X2432490Y2165021D01*
Y2185014D01*
X2422494Y2195011D01*
X2372510D01*
X2432490Y2215005D02*
Y2234998D01*
Y2225001D01*
X2372510D01*
X2382507Y2215005D01*
Y2264988D02*
X2372510Y2274985D01*
Y2294979D01*
X2382507Y2304975D01*
X2392503D01*
X2402500Y2294979D01*
X2412497Y2304975D01*
X2422494D01*
X2432490Y2294979D01*
Y2274985D01*
X2422494Y2264988D01*
X2412497D01*
X2402500Y2274985D01*
X2392503Y2264988D01*
X2382507D01*
X2402500Y2274985D02*
Y2294979D01*
X1401188Y521009D02*
Y501016D01*
Y511013D01*
X1451172D01*
X1461169Y501016D01*
Y491019D01*
X1451172Y481022D01*
X1461169Y541003D02*
Y560997D01*
Y551000D01*
X1401188D01*
X1411185Y541003D01*
X2940009Y1110016D02*
X2999990D01*
Y1150003D01*
X2989993Y1169997D02*
X2999990Y1179993D01*
Y1199987D01*
X2989993Y1209984D01*
X2950006D01*
X2940009Y1199987D01*
Y1179993D01*
X2950006Y1169997D01*
X2960003D01*
X2970000Y1179993D01*
Y1209984D01*
X3505024Y1099990D02*
Y1040010D01*
X3545011D01*
X3565005D02*
X3584999D01*
X3575002D01*
Y1099990D01*
X3565005Y1089993D01*
X3654976Y1040010D02*
X3614989D01*
X3654976Y1079997D01*
Y1089993D01*
X3644979Y1099990D01*
X3624985D01*
X3614989Y1089993D01*
X1376266Y1395010D02*
Y1454990D01*
X1406257D01*
X1416253Y1444993D01*
Y1425000D01*
X1406257Y1415003D01*
X1376266D01*
X1476234Y1395010D02*
X1436247D01*
X1476234Y1434997D01*
Y1444993D01*
X1466237Y1454990D01*
X1446243D01*
X1436247Y1444993D01*
X8102990Y3738819D02*
X8043009D01*
Y3768810D01*
X8053006Y3778806D01*
X8073000D01*
X8082996Y3768810D01*
Y3738819D01*
X8102990Y3798800D02*
Y3818793D01*
Y3808797D01*
X8043009D01*
X8053006Y3798800D01*
Y3848784D02*
X8043009Y3858780D01*
Y3878774D01*
X8053006Y3888770D01*
X8092993D01*
X8102990Y3878774D01*
Y3858780D01*
X8092993Y3848784D01*
X8053006D01*
X8285490Y1670615D02*
X8225509D01*
Y1700605D01*
X8235506Y1710602D01*
X8255500D01*
X8265496Y1700605D01*
Y1670615D01*
X8285490Y1730596D02*
Y1750589D01*
Y1740592D01*
X8225509D01*
X8235506Y1730596D01*
X8285490Y1780579D02*
Y1800573D01*
Y1790576D01*
X8225509D01*
X8235506Y1780579D01*
X3439990Y4640026D02*
X3380009D01*
Y4670016D01*
X3390006Y4680013D01*
X3410000D01*
X3419996Y4670016D01*
Y4640026D01*
Y4660019D02*
X3439990Y4680013D01*
X3380009Y4739993D02*
Y4700006D01*
X3410000D01*
X3400003Y4720000D01*
Y4729997D01*
X3410000Y4739993D01*
X3429993D01*
X3439990Y4729997D01*
Y4710003D01*
X3429993Y4700006D01*
Y4759987D02*
X3439990Y4769984D01*
Y4789977D01*
X3429993Y4799974D01*
X3390006D01*
X3380009Y4789977D01*
Y4769984D01*
X3390006Y4759987D01*
X3400003D01*
X3410000Y4769984D01*
Y4799974D01*
X1790026Y1420010D02*
Y1479990D01*
X1820016D01*
X1830013Y1469993D01*
Y1450000D01*
X1820016Y1440003D01*
X1790026D01*
X1810020D02*
X1830013Y1420010D01*
X1850007Y1430006D02*
X1860003Y1420010D01*
X1879997D01*
X1889994Y1430006D01*
Y1469993D01*
X1879997Y1479990D01*
X1860003D01*
X1850007Y1469993D01*
Y1459997D01*
X1860003Y1450000D01*
X1889994D01*
X1909987Y1479990D02*
X1949974D01*
Y1469993D01*
X1909987Y1430006D01*
Y1420010D01*
X1765034Y1520010D02*
Y1579990D01*
X1795025D01*
X1805021Y1569993D01*
Y1550000D01*
X1795025Y1540003D01*
X1765034D01*
X1785028D02*
X1805021Y1520010D01*
X1825015D02*
X1845009D01*
X1835012D01*
Y1579990D01*
X1825015Y1569993D01*
X1874999D02*
X1884995Y1579990D01*
X1904989D01*
X1914986Y1569993D01*
Y1530006D01*
X1904989Y1520010D01*
X1884995D01*
X1874999Y1530006D01*
Y1569993D01*
X1934979D02*
X1944976Y1579990D01*
X1964969D01*
X1974966Y1569993D01*
Y1530006D01*
X1964969Y1520010D01*
X1944976D01*
X1934979Y1530006D01*
Y1569993D01*
X2159990Y1825034D02*
X2100010D01*
Y1855024D01*
X2110007Y1865021D01*
X2130000D01*
X2139997Y1855024D01*
Y1825034D01*
Y1845028D02*
X2159990Y1865021D01*
Y1885015D02*
Y1905008D01*
Y1895011D01*
X2100010D01*
X2110007Y1885015D01*
Y1934998D02*
X2100010Y1944995D01*
Y1964989D01*
X2110007Y1974985D01*
X2149994D01*
X2159990Y1964989D01*
Y1944995D01*
X2149994Y1934998D01*
X2110007D01*
X2159990Y2034966D02*
Y1994979D01*
X2120003Y2034966D01*
X2110007D01*
X2100010Y2024969D01*
Y2004976D01*
X2110007Y1994979D01*
X1825034Y1120010D02*
Y1179990D01*
X1855024D01*
X1865021Y1169993D01*
Y1150000D01*
X1855024Y1140003D01*
X1825034D01*
X1845028D02*
X1865021Y1120010D01*
X1885015D02*
X1905008D01*
X1895011D01*
Y1179990D01*
X1885015Y1169993D01*
X1934998D02*
X1944995Y1179990D01*
X1964989D01*
X1974985Y1169993D01*
Y1130006D01*
X1964989Y1120010D01*
X1944995D01*
X1934998Y1130006D01*
Y1169993D01*
X1994979Y1179990D02*
X2034966D01*
Y1169993D01*
X1994979Y1130006D01*
Y1120010D01*
X4259990Y4640026D02*
X4200009D01*
Y4670016D01*
X4210006Y4680013D01*
X4230000D01*
X4239996Y4670016D01*
Y4640026D01*
Y4660019D02*
X4259990Y4680013D01*
X4210006Y4700006D02*
X4200009Y4710003D01*
Y4729997D01*
X4210006Y4739993D01*
X4220003D01*
X4230000Y4729997D01*
Y4720000D01*
Y4729997D01*
X4239996Y4739993D01*
X4249993D01*
X4259990Y4729997D01*
Y4710003D01*
X4249993Y4700006D01*
X4259990Y4789977D02*
X4200009D01*
X4230000Y4759987D01*
Y4799974D01*
X3569990Y4640026D02*
X3510009D01*
Y4670016D01*
X3520006Y4680013D01*
X3540000D01*
X3549996Y4670016D01*
Y4640026D01*
Y4660019D02*
X3569990Y4680013D01*
X3520006Y4700006D02*
X3510009Y4710003D01*
Y4729997D01*
X3520006Y4739993D01*
X3530003D01*
X3540000Y4729997D01*
Y4720000D01*
Y4729997D01*
X3549996Y4739993D01*
X3559993D01*
X3569990Y4729997D01*
Y4710003D01*
X3559993Y4700006D01*
X3510009Y4759987D02*
Y4799974D01*
X3520006D01*
X3559993Y4759987D01*
X3569990D01*
X3899990Y4640026D02*
X3840009D01*
Y4670016D01*
X3850006Y4680013D01*
X3870000D01*
X3879996Y4670016D01*
Y4640026D01*
Y4660019D02*
X3899990Y4680013D01*
X3850006Y4700006D02*
X3840009Y4710003D01*
Y4729997D01*
X3850006Y4739993D01*
X3860003D01*
X3870000Y4729997D01*
Y4720000D01*
Y4729997D01*
X3879996Y4739993D01*
X3889993D01*
X3899990Y4729997D01*
Y4710003D01*
X3889993Y4700006D01*
Y4759987D02*
X3899990Y4769984D01*
Y4789977D01*
X3889993Y4799974D01*
X3850006D01*
X3840009Y4789977D01*
Y4769984D01*
X3850006Y4759987D01*
X3860003D01*
X3870000Y4769984D01*
Y4799974D01*
X4799990Y670026D02*
X4740010D01*
Y700016D01*
X4750007Y710013D01*
X4770000D01*
X4779997Y700016D01*
Y670026D01*
Y690020D02*
X4799990Y710013D01*
Y759997D02*
X4740010D01*
X4770000Y730007D01*
Y769994D01*
X4750007Y789987D02*
X4740010Y799984D01*
Y819978D01*
X4750007Y829974D01*
X4760003D01*
X4770000Y819978D01*
Y809981D01*
Y819978D01*
X4779997Y829974D01*
X4789994D01*
X4799990Y819978D01*
Y799984D01*
X4789994Y789987D01*
X5159990Y670026D02*
X5100010D01*
Y700016D01*
X5110007Y710013D01*
X5130000D01*
X5139997Y700016D01*
Y670026D01*
Y690020D02*
X5159990Y710013D01*
Y759997D02*
X5100010D01*
X5130000Y730007D01*
Y769994D01*
X5100010Y829974D02*
Y789987D01*
X5130000D01*
X5120003Y809981D01*
Y819978D01*
X5130000Y829974D01*
X5149994D01*
X5159990Y819978D01*
Y799984D01*
X5149994Y789987D01*
X3849990Y670026D02*
X3790010D01*
Y700016D01*
X3800007Y710013D01*
X3820000D01*
X3829997Y700016D01*
Y670026D01*
Y690020D02*
X3849990Y710013D01*
Y759997D02*
X3790010D01*
X3820000Y730007D01*
Y769994D01*
X3790010Y789987D02*
Y829974D01*
X3800007D01*
X3839994Y789987D01*
X3849990D01*
X4209990Y670026D02*
X4150010D01*
Y700016D01*
X4160007Y710013D01*
X4180000D01*
X4189997Y700016D01*
Y670026D01*
Y690020D02*
X4209990Y710013D01*
Y759997D02*
X4150010D01*
X4180000Y730007D01*
Y769994D01*
X4199994Y789987D02*
X4209990Y799984D01*
Y819978D01*
X4199994Y829974D01*
X4160007D01*
X4150010Y819978D01*
Y799984D01*
X4160007Y789987D01*
X4170003D01*
X4180000Y799984D01*
Y829974D01*
X5619990Y4660023D02*
X5560010D01*
Y4690013D01*
X5570007Y4700010D01*
X5590000D01*
X5599997Y4690013D01*
Y4660023D01*
Y4680016D02*
X5619990Y4700010D01*
X5560010Y4759990D02*
Y4720003D01*
X5590000D01*
X5580003Y4739997D01*
Y4749994D01*
X5590000Y4759990D01*
X5609994D01*
X5619990Y4749994D01*
Y4730000D01*
X5609994Y4720003D01*
X5619990Y4779984D02*
Y4799977D01*
Y4789981D01*
X5560010D01*
X5570007Y4779984D01*
X6860026Y2120010D02*
Y2179990D01*
X6890016D01*
X6900013Y2169993D01*
Y2150000D01*
X6890016Y2140003D01*
X6860026D01*
X6880020D02*
X6900013Y2120010D01*
X6959994Y2179990D02*
X6920007D01*
Y2150000D01*
X6940000Y2159997D01*
X6949997D01*
X6959994Y2150000D01*
Y2130006D01*
X6949997Y2120010D01*
X6930003D01*
X6920007Y2130006D01*
X6979987Y2169993D02*
X6989984Y2179990D01*
X7009978D01*
X7019974Y2169993D01*
Y2159997D01*
X7009978Y2150000D01*
X7019974Y2140003D01*
Y2130006D01*
X7009978Y2120010D01*
X6989984D01*
X6979987Y2130006D01*
Y2140003D01*
X6989984Y2150000D01*
X6979987Y2159997D01*
Y2169993D01*
X6989984Y2150000D02*
X7009978D01*
X6790026Y1920010D02*
Y1979990D01*
X6820016D01*
X6830013Y1969993D01*
Y1950000D01*
X6820016Y1940003D01*
X6790026D01*
X6810019D02*
X6830013Y1920010D01*
X6850006Y1969993D02*
X6860003Y1979990D01*
X6879997D01*
X6889993Y1969993D01*
Y1959997D01*
X6879997Y1950000D01*
X6870000D01*
X6879997D01*
X6889993Y1940003D01*
Y1930006D01*
X6879997Y1920010D01*
X6860003D01*
X6850006Y1930006D01*
X6909987Y1969993D02*
X6919984Y1979990D01*
X6939977D01*
X6949974Y1969993D01*
Y1959997D01*
X6939977Y1950000D01*
X6929981D01*
X6939977D01*
X6949974Y1940003D01*
Y1930006D01*
X6939977Y1920010D01*
X6919984D01*
X6909987Y1930006D01*
X6790026Y1820010D02*
Y1879990D01*
X6820016D01*
X6830013Y1869993D01*
Y1850000D01*
X6820016Y1840003D01*
X6790026D01*
X6810019D02*
X6830013Y1820010D01*
X6850006Y1869993D02*
X6860003Y1879990D01*
X6879997D01*
X6889993Y1869993D01*
Y1859997D01*
X6879997Y1850000D01*
X6870000D01*
X6879997D01*
X6889993Y1840003D01*
Y1830006D01*
X6879997Y1820010D01*
X6860003D01*
X6850006Y1830006D01*
X6949974Y1879990D02*
X6929981Y1869993D01*
X6909987Y1850000D01*
Y1830006D01*
X6919984Y1820010D01*
X6939977D01*
X6949974Y1830006D01*
Y1840003D01*
X6939977Y1850000D01*
X6909987D01*
X6790026Y1720010D02*
Y1779990D01*
X6820016D01*
X6830013Y1769993D01*
Y1750000D01*
X6820016Y1740003D01*
X6790026D01*
X6810019D02*
X6830013Y1720010D01*
X6850006Y1769993D02*
X6860003Y1779990D01*
X6879997D01*
X6889993Y1769993D01*
Y1759996D01*
X6879997Y1750000D01*
X6870000D01*
X6879997D01*
X6889993Y1740003D01*
Y1730006D01*
X6879997Y1720010D01*
X6860003D01*
X6850006Y1730006D01*
X6909987Y1769993D02*
X6919984Y1779990D01*
X6939977D01*
X6949974Y1769993D01*
Y1759996D01*
X6939977Y1750000D01*
X6949974Y1740003D01*
Y1730006D01*
X6939977Y1720010D01*
X6919984D01*
X6909987Y1730006D01*
Y1740003D01*
X6919984Y1750000D01*
X6909987Y1759996D01*
Y1769993D01*
X6919984Y1750000D02*
X6939977D01*
X6790026Y1620009D02*
Y1679990D01*
X6820016D01*
X6830013Y1669993D01*
Y1650000D01*
X6820016Y1640003D01*
X6790026D01*
X6810019D02*
X6830013Y1620009D01*
X6879997D02*
Y1679990D01*
X6850006Y1650000D01*
X6889993D01*
X6909987Y1669993D02*
X6919984Y1679990D01*
X6939977D01*
X6949974Y1669993D01*
Y1630006D01*
X6939977Y1620009D01*
X6919984D01*
X6909987Y1630006D01*
Y1669993D01*
X6790026Y1060010D02*
Y1119990D01*
X6820016D01*
X6830013Y1109993D01*
Y1090000D01*
X6820016Y1080003D01*
X6790026D01*
X6810019D02*
X6830013Y1060010D01*
X6879997D02*
Y1119990D01*
X6850006Y1090000D01*
X6889993D01*
X6939977Y1060010D02*
Y1119990D01*
X6909987Y1090000D01*
X6949974D01*
X6790026Y960010D02*
Y1019990D01*
X6820016D01*
X6830013Y1009993D01*
Y990000D01*
X6820016Y980003D01*
X6790026D01*
X6810019D02*
X6830013Y960010D01*
X6879997D02*
Y1019990D01*
X6850006Y990000D01*
X6889993D01*
X6949974Y1019990D02*
X6929981Y1009993D01*
X6909987Y990000D01*
Y970006D01*
X6919984Y960010D01*
X6939977D01*
X6949974Y970006D01*
Y980003D01*
X6939977Y990000D01*
X6909987D01*
X6790026Y860010D02*
Y919990D01*
X6820016D01*
X6830013Y909993D01*
Y890000D01*
X6820016Y880003D01*
X6790026D01*
X6810019D02*
X6830013Y860010D01*
X6879997D02*
Y919990D01*
X6850006Y890000D01*
X6889993D01*
X6909987Y909993D02*
X6919984Y919990D01*
X6939977D01*
X6949974Y909993D01*
Y899997D01*
X6939977Y890000D01*
X6949974Y880003D01*
Y870006D01*
X6939977Y860010D01*
X6919984D01*
X6909987Y870006D01*
Y880003D01*
X6919984Y890000D01*
X6909987Y899997D01*
Y909993D01*
X6919984Y890000D02*
X6939977D01*
X6790026Y760010D02*
Y819990D01*
X6820016D01*
X6830013Y809993D01*
Y790000D01*
X6820016Y780003D01*
X6790026D01*
X6810019D02*
X6830013Y760010D01*
X6889993Y819990D02*
X6850006D01*
Y790000D01*
X6870000Y799997D01*
X6879996D01*
X6889993Y790000D01*
Y770006D01*
X6879996Y760010D01*
X6860003D01*
X6850006Y770006D01*
X6909987Y809993D02*
X6919983Y819990D01*
X6939977D01*
X6949974Y809993D01*
Y770006D01*
X6939977Y760010D01*
X6919983D01*
X6909987Y770006D01*
Y809993D01*
X6790026Y1160010D02*
Y1219990D01*
X6820016D01*
X6830013Y1209994D01*
Y1190000D01*
X6820016Y1180003D01*
X6790026D01*
X6810019D02*
X6830013Y1160010D01*
X6889993Y1219990D02*
X6850006D01*
Y1190000D01*
X6870000Y1199997D01*
X6879997D01*
X6889993Y1190000D01*
Y1170007D01*
X6879997Y1160010D01*
X6860003D01*
X6850006Y1170007D01*
X6949974Y1160010D02*
X6909987D01*
X6949974Y1199997D01*
Y1209994D01*
X6939977Y1219990D01*
X6919984D01*
X6909987Y1209994D01*
X7849990Y4310026D02*
X7790010D01*
Y4340016D01*
X7800006Y4350013D01*
X7820000D01*
X7829997Y4340016D01*
Y4310026D01*
Y4330020D02*
X7849990Y4350013D01*
X7790010Y4409993D02*
Y4370006D01*
X7820000D01*
X7810003Y4390000D01*
Y4399997D01*
X7820000Y4409993D01*
X7839993D01*
X7849990Y4399997D01*
Y4380003D01*
X7839993Y4370006D01*
X7790010Y4469974D02*
X7800006Y4449981D01*
X7820000Y4429987D01*
X7839993D01*
X7849990Y4439984D01*
Y4459977D01*
X7839993Y4469974D01*
X7829997D01*
X7820000Y4459977D01*
Y4429987D01*
X7669990Y4310026D02*
X7610009D01*
Y4340016D01*
X7620006Y4350013D01*
X7640000D01*
X7649996Y4340016D01*
Y4310026D01*
Y4330020D02*
X7669990Y4350013D01*
X7610009Y4409993D02*
Y4370006D01*
X7640000D01*
X7630003Y4390000D01*
Y4399997D01*
X7640000Y4409993D01*
X7659993D01*
X7669990Y4399997D01*
Y4380003D01*
X7659993Y4370006D01*
X7610009Y4429987D02*
Y4469974D01*
X7620006D01*
X7659993Y4429987D01*
X7669990D01*
X3979990Y1175034D02*
X3920009D01*
Y1205024D01*
X3930006Y1215021D01*
X3950000D01*
X3959996Y1205024D01*
Y1175034D01*
Y1195028D02*
X3979990Y1215021D01*
Y1235015D02*
Y1255008D01*
Y1245011D01*
X3920009D01*
X3930006Y1235015D01*
Y1284998D02*
X3920009Y1294995D01*
Y1314988D01*
X3930006Y1324985D01*
X3969993D01*
X3979990Y1314988D01*
Y1294995D01*
X3969993Y1284998D01*
X3930006D01*
Y1344979D02*
X3920009Y1354975D01*
Y1374969D01*
X3930006Y1384966D01*
X3940003D01*
X3950000Y1374969D01*
X3959996Y1384966D01*
X3969993D01*
X3979990Y1374969D01*
Y1354975D01*
X3969993Y1344979D01*
X3959996D01*
X3950000Y1354975D01*
X3940003Y1344979D01*
X3930006D01*
X3950000Y1354975D02*
Y1374969D01*
X3710033Y1450010D02*
Y1509990D01*
X3740023D01*
X3750020Y1499993D01*
Y1480000D01*
X3740023Y1470003D01*
X3710033D01*
X3730026D02*
X3750020Y1450010D01*
X3770013D02*
X3790007D01*
X3780010D01*
Y1509990D01*
X3770013Y1499993D01*
X3819997Y1450010D02*
X3839991D01*
X3829994D01*
Y1509990D01*
X3819997Y1499993D01*
X3869981D02*
X3879977Y1509990D01*
X3899971D01*
X3909968Y1499993D01*
Y1460006D01*
X3899971Y1450010D01*
X3879977D01*
X3869981Y1460006D01*
Y1499993D01*
X3720029Y1550010D02*
Y1609990D01*
X3750020D01*
X3760016Y1599993D01*
Y1580000D01*
X3750020Y1570003D01*
X3720029D01*
X3740023D02*
X3760016Y1550010D01*
X3780010D02*
X3800004D01*
X3790007D01*
Y1609990D01*
X3780010Y1599993D01*
X3829994Y1550010D02*
X3849987D01*
X3839990D01*
Y1609990D01*
X3829994Y1599993D01*
X3879977Y1550010D02*
X3899971D01*
X3889974D01*
Y1609990D01*
X3879977Y1599993D01*
X5279990Y4170016D02*
X5220009D01*
Y4200006D01*
X5230006Y4210003D01*
X5250000D01*
X5259996Y4200006D01*
Y4170016D01*
Y4190010D02*
X5279990Y4210003D01*
X5230006Y4229997D02*
X5220009Y4239993D01*
Y4259987D01*
X5230006Y4269984D01*
X5240003D01*
X5250000Y4259987D01*
Y4249990D01*
Y4259987D01*
X5259996Y4269984D01*
X5269993D01*
X5279990Y4259987D01*
Y4239993D01*
X5269993Y4229997D01*
X5040016Y4260010D02*
Y4319990D01*
X5070007D01*
X5080003Y4309993D01*
Y4290000D01*
X5070007Y4280003D01*
X5040016D01*
X5060010D02*
X5080003Y4260010D01*
X5139984Y4319990D02*
X5099997D01*
Y4290000D01*
X5119991Y4299997D01*
X5129987D01*
X5139984Y4290000D01*
Y4270006D01*
X5129987Y4260010D01*
X5109994D01*
X5099997Y4270006D01*
X3999990Y1425034D02*
X3940009D01*
Y1455024D01*
X3950006Y1465021D01*
X3970000D01*
X3979996Y1455024D01*
Y1425034D01*
Y1445028D02*
X3999990Y1465021D01*
Y1485015D02*
Y1505008D01*
Y1495011D01*
X3940009D01*
X3950006Y1485015D01*
Y1534998D02*
X3940009Y1544995D01*
Y1564988D01*
X3950006Y1574985D01*
X3989993D01*
X3999990Y1564988D01*
Y1544995D01*
X3989993Y1534998D01*
X3950006D01*
X3989993Y1594979D02*
X3999990Y1604975D01*
Y1624969D01*
X3989993Y1634966D01*
X3950006D01*
X3940009Y1624969D01*
Y1604975D01*
X3950006Y1594979D01*
X3960003D01*
X3970000Y1604975D01*
Y1634966D01*
X5659990Y670026D02*
X5600010D01*
Y700016D01*
X5610007Y710013D01*
X5630000D01*
X5639997Y700016D01*
Y670026D01*
Y690020D02*
X5659990Y710013D01*
X5600010Y730007D02*
Y769994D01*
X5610007D01*
X5649994Y730007D01*
X5659990D01*
X5600010Y829974D02*
Y789987D01*
X5630000D01*
X5620003Y809981D01*
Y819978D01*
X5630000Y829974D01*
X5649994D01*
X5659990Y819978D01*
Y799984D01*
X5649994Y789987D01*
X5769990Y670026D02*
X5710010D01*
Y700016D01*
X5720007Y710013D01*
X5740000D01*
X5749997Y700016D01*
Y670026D01*
Y690020D02*
X5769990Y710013D01*
X5710010Y730007D02*
Y769994D01*
X5720007D01*
X5759994Y730007D01*
X5769990D01*
Y819978D02*
X5710010D01*
X5740000Y789987D01*
Y829974D01*
X5279990Y4660023D02*
X5220009D01*
Y4690013D01*
X5230006Y4700010D01*
X5250000D01*
X5259996Y4690013D01*
Y4660023D01*
Y4680016D02*
X5279990Y4700010D01*
Y4749994D02*
X5220009D01*
X5250000Y4720003D01*
Y4759990D01*
X5279990Y4779984D02*
Y4799977D01*
Y4789981D01*
X5220009D01*
X5230006Y4779984D01*
X6790026Y1520010D02*
Y1579990D01*
X6820016D01*
X6830013Y1569993D01*
Y1550000D01*
X6820016Y1540003D01*
X6790026D01*
X6810019D02*
X6830013Y1520010D01*
X6879997D02*
Y1579990D01*
X6850006Y1550000D01*
X6889993D01*
X6949974Y1520010D02*
X6909987D01*
X6949974Y1559997D01*
Y1569993D01*
X6939977Y1579990D01*
X6919984D01*
X6909987Y1569993D01*
X5729990Y4650026D02*
X5670009D01*
Y4680016D01*
X5680006Y4690013D01*
X5700000D01*
X5709996Y4680016D01*
Y4650026D01*
Y4670019D02*
X5729990Y4690013D01*
X5670009Y4710006D02*
Y4749993D01*
X5680006D01*
X5719993Y4710006D01*
X5729990D01*
Y4809974D02*
Y4769987D01*
X5690003Y4809974D01*
X5680006D01*
X5670009Y4799977D01*
Y4779984D01*
X5680006Y4769987D01*
X5499990Y4650026D02*
X5440009D01*
Y4680016D01*
X5450006Y4690013D01*
X5469999D01*
X5479996Y4680016D01*
Y4650026D01*
Y4670019D02*
X5499990Y4690013D01*
X5440009Y4749993D02*
X5450006Y4730000D01*
X5469999Y4710006D01*
X5489993D01*
X5499990Y4720003D01*
Y4739997D01*
X5489993Y4749993D01*
X5479996D01*
X5469999Y4739997D01*
Y4710006D01*
X5489993Y4769987D02*
X5499990Y4779984D01*
Y4799977D01*
X5489993Y4809974D01*
X5450006D01*
X5440009Y4799977D01*
Y4779984D01*
X5450006Y4769987D01*
X5460003D01*
X5469999Y4779984D01*
Y4809974D01*
X6839990Y4640026D02*
X6780010D01*
Y4670016D01*
X6790006Y4680013D01*
X6810000D01*
X6819997Y4670016D01*
Y4640026D01*
Y4660019D02*
X6839990Y4680013D01*
X6780010Y4700006D02*
Y4739993D01*
X6790006D01*
X6829993Y4700006D01*
X6839990D01*
X6780010Y4759987D02*
Y4799974D01*
X6790006D01*
X6829993Y4759987D01*
X6839990D01*
X6729990Y4640026D02*
X6670010D01*
Y4670016D01*
X6680006Y4680013D01*
X6700000D01*
X6709996Y4670016D01*
Y4640026D01*
Y4660019D02*
X6729990Y4680013D01*
X6670010Y4700006D02*
Y4739993D01*
X6680006D01*
X6719993Y4700006D01*
X6729990D01*
X6680006Y4759987D02*
X6670010Y4769984D01*
Y4789977D01*
X6680006Y4799974D01*
X6690003D01*
X6700000Y4789977D01*
X6709996Y4799974D01*
X6719993D01*
X6729990Y4789977D01*
Y4769984D01*
X6719993Y4759987D01*
X6709996D01*
X6700000Y4769984D01*
X6690003Y4759987D01*
X6680006D01*
X6700000Y4769984D02*
Y4789977D01*
X7589990Y4640026D02*
X7530010D01*
Y4670016D01*
X7540007Y4680013D01*
X7560000D01*
X7569997Y4670016D01*
Y4640026D01*
Y4660019D02*
X7589990Y4680013D01*
X7540007Y4700006D02*
X7530010Y4710003D01*
Y4729997D01*
X7540007Y4739993D01*
X7550003D01*
X7560000Y4729997D01*
X7569997Y4739993D01*
X7579993D01*
X7589990Y4729997D01*
Y4710003D01*
X7579993Y4700006D01*
X7569997D01*
X7560000Y4710003D01*
X7550003Y4700006D01*
X7540007D01*
X7560000Y4710003D02*
Y4729997D01*
X7530010Y4799974D02*
Y4759987D01*
X7560000D01*
X7550003Y4779981D01*
Y4789977D01*
X7560000Y4799974D01*
X7579993D01*
X7589990Y4789977D01*
Y4769984D01*
X7579993Y4759987D01*
X7489990Y4640026D02*
X7430010D01*
Y4670016D01*
X7440006Y4680013D01*
X7460000D01*
X7469996Y4670016D01*
Y4640026D01*
Y4660019D02*
X7489990Y4680013D01*
X7440006Y4700006D02*
X7430010Y4710003D01*
Y4729997D01*
X7440006Y4739993D01*
X7450003D01*
X7460000Y4729997D01*
X7469996Y4739993D01*
X7479993D01*
X7489990Y4729997D01*
Y4710003D01*
X7479993Y4700006D01*
X7469996D01*
X7460000Y4710003D01*
X7450003Y4700006D01*
X7440006D01*
X7460000Y4710003D02*
Y4729997D01*
X7430010Y4799974D02*
X7440006Y4779981D01*
X7460000Y4759987D01*
X7479993D01*
X7489990Y4769984D01*
Y4789977D01*
X7479993Y4799974D01*
X7469996D01*
X7460000Y4789977D01*
Y4759987D01*
X3799990Y4640026D02*
X3740010D01*
Y4670016D01*
X3750006Y4680013D01*
X3770000D01*
X3779997Y4670016D01*
Y4640026D01*
Y4660019D02*
X3799990Y4680013D01*
X3740010Y4739993D02*
X3750006Y4720000D01*
X3770000Y4700006D01*
X3789993D01*
X3799990Y4710003D01*
Y4729997D01*
X3789993Y4739993D01*
X3779997D01*
X3770000Y4729997D01*
Y4700006D01*
X3750006Y4759987D02*
X3740010Y4769984D01*
Y4789977D01*
X3750006Y4799974D01*
X3789993D01*
X3799990Y4789977D01*
Y4769984D01*
X3789993Y4759987D01*
X3750006D01*
X3669990Y4650023D02*
X3610010D01*
Y4680013D01*
X3620007Y4690010D01*
X3640000D01*
X3649997Y4680013D01*
Y4650023D01*
Y4670016D02*
X3669990Y4690010D01*
X3610010Y4749990D02*
X3620007Y4729997D01*
X3640000Y4710003D01*
X3659994D01*
X3669990Y4720000D01*
Y4739994D01*
X3659994Y4749990D01*
X3649997D01*
X3640000Y4739994D01*
Y4710003D01*
X3669990Y4769984D02*
Y4789977D01*
Y4779981D01*
X3610010D01*
X3620007Y4769984D01*
X4159990Y4640026D02*
X4100009D01*
Y4670016D01*
X4110006Y4680013D01*
X4130000D01*
X4139996Y4670016D01*
Y4640026D01*
Y4660019D02*
X4159990Y4680013D01*
X4100009Y4739993D02*
X4110006Y4720000D01*
X4130000Y4700006D01*
X4149993D01*
X4159990Y4710003D01*
Y4729997D01*
X4149993Y4739993D01*
X4139996D01*
X4130000Y4729997D01*
Y4700006D01*
X4159990Y4799974D02*
Y4759987D01*
X4120003Y4799974D01*
X4110006D01*
X4100009Y4789977D01*
Y4769984D01*
X4110006Y4759987D01*
X4029990Y4640026D02*
X3970009D01*
Y4670016D01*
X3980006Y4680013D01*
X4000000D01*
X4009996Y4670016D01*
Y4640026D01*
Y4660019D02*
X4029990Y4680013D01*
X3970009Y4739993D02*
X3980006Y4720000D01*
X4000000Y4700006D01*
X4019993D01*
X4029990Y4710003D01*
Y4729997D01*
X4019993Y4739993D01*
X4009996D01*
X4000000Y4729997D01*
Y4700006D01*
X3980006Y4759987D02*
X3970009Y4769984D01*
Y4789977D01*
X3980006Y4799974D01*
X3990003D01*
X4000000Y4789977D01*
Y4779981D01*
Y4789977D01*
X4009996Y4799974D01*
X4019993D01*
X4029990Y4789977D01*
Y4769984D01*
X4019993Y4759987D01*
X3959990Y670026D02*
X3900010D01*
Y700016D01*
X3910007Y710013D01*
X3930000D01*
X3939997Y700016D01*
Y670026D01*
Y690020D02*
X3959990Y710013D01*
X3900010Y769994D02*
X3910007Y750000D01*
X3930000Y730007D01*
X3949994D01*
X3959990Y740003D01*
Y759997D01*
X3949994Y769994D01*
X3939997D01*
X3930000Y759997D01*
Y730007D01*
X3959990Y819978D02*
X3900010D01*
X3930000Y789987D01*
Y829974D01*
X4099990Y670026D02*
X4040010D01*
Y700016D01*
X4050007Y710013D01*
X4070000D01*
X4079997Y700016D01*
Y670026D01*
Y690020D02*
X4099990Y710013D01*
X4040010Y769994D02*
X4050007Y750000D01*
X4070000Y730007D01*
X4089994D01*
X4099990Y740003D01*
Y759997D01*
X4089994Y769994D01*
X4079997D01*
X4070000Y759997D01*
Y730007D01*
X4040010Y829974D02*
Y789987D01*
X4070000D01*
X4060003Y809981D01*
Y819978D01*
X4070000Y829974D01*
X4089994D01*
X4099990Y819978D01*
Y799984D01*
X4089994Y789987D01*
X4909990Y670026D02*
X4850010D01*
Y700016D01*
X4860007Y710013D01*
X4880000D01*
X4889997Y700016D01*
Y670026D01*
Y690020D02*
X4909990Y710013D01*
X4850010Y769994D02*
X4860007Y750000D01*
X4880000Y730007D01*
X4899994D01*
X4909990Y740003D01*
Y759997D01*
X4899994Y769994D01*
X4889997D01*
X4880000Y759997D01*
Y730007D01*
X4850010Y829974D02*
X4860007Y809981D01*
X4880000Y789987D01*
X4899994D01*
X4909990Y799984D01*
Y819978D01*
X4899994Y829974D01*
X4889997D01*
X4880000Y819978D01*
Y789987D01*
X5389990Y4650026D02*
X5330009D01*
Y4680016D01*
X5340006Y4690013D01*
X5359999D01*
X5369996Y4680016D01*
Y4650026D01*
Y4670019D02*
X5389990Y4690013D01*
X5330009Y4749993D02*
X5340006Y4730000D01*
X5359999Y4710006D01*
X5379993D01*
X5389990Y4720003D01*
Y4739997D01*
X5379993Y4749993D01*
X5369996D01*
X5359999Y4739997D01*
Y4710006D01*
X5330009Y4769987D02*
Y4809974D01*
X5340006D01*
X5379993Y4769987D01*
X5389990D01*
X5049990Y670026D02*
X4990010D01*
Y700016D01*
X5000007Y710013D01*
X5020000D01*
X5029997Y700016D01*
Y670026D01*
Y690020D02*
X5049990Y710013D01*
X4990010Y769994D02*
X5000007Y750000D01*
X5020000Y730007D01*
X5039994D01*
X5049990Y740003D01*
Y759997D01*
X5039994Y769994D01*
X5029997D01*
X5020000Y759997D01*
Y730007D01*
X5000007Y789987D02*
X4990010Y799984D01*
Y819978D01*
X5000007Y829974D01*
X5010003D01*
X5020000Y819978D01*
X5029997Y829974D01*
X5039994D01*
X5049990Y819978D01*
Y799984D01*
X5039994Y789987D01*
X5029997D01*
X5020000Y799984D01*
X5010003Y789987D01*
X5000007D01*
X5020000Y799984D02*
Y819978D01*
X2115009Y1360016D02*
Y1400003D01*
Y1380010D01*
X2174990D01*
X2125006Y1419997D02*
X2115009Y1429993D01*
Y1449987D01*
X2125006Y1459984D01*
X2135003D01*
X2145000Y1449987D01*
Y1439990D01*
Y1449987D01*
X2154996Y1459984D01*
X2164993D01*
X2174990Y1449987D01*
Y1429993D01*
X2164993Y1419997D01*
X4470007Y2050020D02*
X4460010Y2040023D01*
Y2020029D01*
X4470007Y2010033D01*
X4509994D01*
X4519990Y2020029D01*
Y2040023D01*
X4509994Y2050020D01*
X4519990Y2070013D02*
Y2090007D01*
Y2080010D01*
X4460010D01*
X4470007Y2070013D01*
X4519990Y2119997D02*
Y2139991D01*
Y2129994D01*
X4460010D01*
X4470007Y2119997D01*
X4519990Y2209968D02*
Y2169981D01*
X4480003Y2209968D01*
X4470007D01*
X4460010Y2199971D01*
Y2179977D01*
X4470007Y2169981D01*
X2020010Y715024D02*
X2079990D01*
Y755011D01*
Y775005D02*
Y794999D01*
Y785002D01*
X2020010D01*
X2030007Y775005D01*
X2079990Y854979D02*
X2020010D01*
X2050000Y824989D01*
Y864976D01*
X2844240Y2082490D02*
Y2022510D01*
X2874230D01*
X2884227Y2032506D01*
Y2072493D01*
X2874230Y2082490D01*
X2844240D01*
X2904221Y2022510D02*
X2924214D01*
X2914217D01*
Y2082490D01*
X2904221Y2072493D01*
X2954204D02*
X2964201Y2082490D01*
X2984195D01*
X2994191Y2072493D01*
Y2062497D01*
X2984195Y2052500D01*
X2974198D01*
X2984195D01*
X2994191Y2042503D01*
Y2032506D01*
X2984195Y2022510D01*
X2964201D01*
X2954204Y2032506D01*
X5329990Y670026D02*
X5270010D01*
Y700016D01*
X5280007Y710013D01*
X5300000D01*
X5309997Y700016D01*
Y670026D01*
Y690020D02*
X5329990Y710013D01*
X5270010Y730007D02*
Y769994D01*
X5280007D01*
X5319994Y730007D01*
X5329990D01*
X5280007Y789987D02*
X5270010Y799984D01*
Y819978D01*
X5280007Y829974D01*
X5319994D01*
X5329990Y819978D01*
Y799984D01*
X5319994Y789987D01*
X5280007D01*
X5439990Y680023D02*
X5380010D01*
Y710013D01*
X5390006Y720009D01*
X5410000D01*
X5419997Y710013D01*
Y680023D01*
Y700016D02*
X5439990Y720009D01*
X5380010Y740003D02*
Y779990D01*
X5390006D01*
X5429993Y740003D01*
X5439990D01*
Y799984D02*
Y819977D01*
Y809980D01*
X5380010D01*
X5390006Y799984D01*
X5549990Y670026D02*
X5490010D01*
Y700016D01*
X5500007Y710013D01*
X5520000D01*
X5529997Y700016D01*
Y670026D01*
Y690020D02*
X5549990Y710013D01*
X5490010Y730007D02*
Y769994D01*
X5500007D01*
X5539993Y730007D01*
X5549990D01*
X5500007Y789987D02*
X5490010Y799984D01*
Y819978D01*
X5500007Y829974D01*
X5510003D01*
X5520000Y819978D01*
Y809981D01*
Y819978D01*
X5529997Y829974D01*
X5539993D01*
X5549990Y819978D01*
Y799984D01*
X5539993Y789987D01*
X7369990Y670023D02*
X7310010D01*
Y700013D01*
X7320006Y710010D01*
X7340000D01*
X7349996Y700013D01*
Y670023D01*
Y690016D02*
X7369990Y710010D01*
X7320006Y730003D02*
X7310010Y740000D01*
Y759993D01*
X7320006Y769990D01*
X7330003D01*
X7340000Y759993D01*
X7349996Y769990D01*
X7359993D01*
X7369990Y759993D01*
Y740000D01*
X7359993Y730003D01*
X7349996D01*
X7340000Y740000D01*
X7330003Y730003D01*
X7320006D01*
X7340000Y740000D02*
Y759993D01*
X7369990Y789984D02*
Y809977D01*
Y799980D01*
X7310010D01*
X7320006Y789984D01*
X7479990Y660026D02*
X7420010D01*
Y690016D01*
X7430007Y700013D01*
X7450000D01*
X7459997Y690016D01*
Y660026D01*
Y680020D02*
X7479990Y700013D01*
X7430007Y720007D02*
X7420010Y730003D01*
Y749997D01*
X7430007Y759994D01*
X7440003D01*
X7450000Y749997D01*
X7459997Y759994D01*
X7469994D01*
X7479990Y749997D01*
Y730003D01*
X7469994Y720007D01*
X7459997D01*
X7450000Y730003D01*
X7440003Y720007D01*
X7430007D01*
X7450000Y730003D02*
Y749997D01*
X7479990Y809978D02*
X7420010D01*
X7450000Y779987D01*
Y819974D01*
X3055034Y2000010D02*
Y2059990D01*
X3085025D01*
X3095021Y2049993D01*
Y2030000D01*
X3085025Y2020003D01*
X3055034D01*
X3075028D02*
X3095021Y2000010D01*
X3115015D02*
X3135008D01*
X3125012D01*
Y2059990D01*
X3115015Y2049993D01*
X3164998D02*
X3174995Y2059990D01*
X3194989D01*
X3204985Y2049993D01*
Y2010006D01*
X3194989Y2000010D01*
X3174995D01*
X3164998Y2010006D01*
Y2049993D01*
X3264966Y2059990D02*
X3244973Y2049993D01*
X3224979Y2030000D01*
Y2010006D01*
X3234976Y2000010D01*
X3254969D01*
X3264966Y2010006D01*
Y2020003D01*
X3254969Y2030000D01*
X3224979D01*
X5540013Y2379993D02*
X5530016Y2389990D01*
X5510023D01*
X5500026Y2379993D01*
Y2340006D01*
X5510023Y2330010D01*
X5530016D01*
X5540013Y2340006D01*
X5560007Y2379993D02*
X5570003Y2389990D01*
X5589997D01*
X5599994Y2379993D01*
Y2369997D01*
X5589997Y2360000D01*
X5599994Y2350003D01*
Y2340006D01*
X5589997Y2330010D01*
X5570003D01*
X5560007Y2340006D01*
Y2350003D01*
X5570003Y2360000D01*
X5560007Y2369997D01*
Y2379993D01*
X5570003Y2360000D02*
X5589997D01*
X5619987Y2340006D02*
X5629984Y2330010D01*
X5649978D01*
X5659974Y2340006D01*
Y2379993D01*
X5649978Y2389990D01*
X5629984D01*
X5619987Y2379993D01*
Y2369997D01*
X5629984Y2360000D01*
X5659974D01*
X5730006Y1435021D02*
X5720009Y1425024D01*
Y1405031D01*
X5730006Y1395034D01*
X5769993D01*
X5779990Y1405031D01*
Y1425024D01*
X5769993Y1435021D01*
X5779990Y1455015D02*
Y1475008D01*
Y1465011D01*
X5720009D01*
X5730006Y1455015D01*
Y1504998D02*
X5720009Y1514995D01*
Y1534989D01*
X5730006Y1544985D01*
X5769993D01*
X5779990Y1534989D01*
Y1514995D01*
X5769993Y1504998D01*
X5730006D01*
X5779990Y1604966D02*
Y1564979D01*
X5740003Y1604966D01*
X5730006D01*
X5720009Y1594969D01*
Y1574976D01*
X5730006Y1564979D01*
X2505018Y1509993D02*
X2495021Y1519990D01*
X2475028D01*
X2465031Y1509993D01*
Y1470006D01*
X2475028Y1460010D01*
X2495021D01*
X2505018Y1470006D01*
X2525011Y1460010D02*
X2545005D01*
X2535008D01*
Y1519990D01*
X2525011Y1509993D01*
X2574995D02*
X2584992Y1519990D01*
X2604985D01*
X2614982Y1509993D01*
Y1470006D01*
X2604985Y1460010D01*
X2584992D01*
X2574995Y1470006D01*
Y1509993D01*
X2634976Y1460010D02*
X2654969D01*
X2644972D01*
Y1519990D01*
X2634976Y1509993D01*
X2490007Y4500013D02*
X2480010Y4490016D01*
Y4470023D01*
X2490007Y4460026D01*
X2529994D01*
X2539990Y4470023D01*
Y4490016D01*
X2529994Y4500013D01*
X2539990Y4559994D02*
Y4520007D01*
X2500003Y4559994D01*
X2490007D01*
X2480010Y4549997D01*
Y4530003D01*
X2490007Y4520007D01*
X2539990Y4609978D02*
X2480010D01*
X2510000Y4579987D01*
Y4619974D01*
X5090013Y3409993D02*
X5080016Y3419990D01*
X5060023D01*
X5050026Y3409993D01*
Y3370006D01*
X5060023Y3360010D01*
X5080016D01*
X5090013Y3370006D01*
X5149994Y3360010D02*
X5110007D01*
X5149994Y3399997D01*
Y3409993D01*
X5139997Y3419990D01*
X5120003D01*
X5110007Y3409993D01*
X5209974Y3419990D02*
X5169987D01*
Y3390000D01*
X5189981Y3399997D01*
X5199977D01*
X5209974Y3390000D01*
Y3370006D01*
X5199977Y3360010D01*
X5179984D01*
X5169987Y3370006D01*
X6270007Y2760013D02*
X6260010Y2750016D01*
Y2730023D01*
X6270007Y2720026D01*
X6309994D01*
X6319990Y2730023D01*
Y2750016D01*
X6309994Y2760013D01*
X6319990Y2819994D02*
Y2780007D01*
X6280003Y2819994D01*
X6270007D01*
X6260010Y2809997D01*
Y2790003D01*
X6270007Y2780007D01*
X6260010Y2879974D02*
X6270007Y2859981D01*
X6290000Y2839987D01*
X6309994D01*
X6319990Y2849984D01*
Y2869977D01*
X6309994Y2879974D01*
X6299997D01*
X6290000Y2869977D01*
Y2839987D01*
X2610010Y2061266D02*
X2669990D01*
Y2091257D01*
X2659994Y2101253D01*
X2620007D01*
X2610010Y2091257D01*
Y2061266D01*
X2659994Y2121247D02*
X2669990Y2131244D01*
Y2151237D01*
X2659994Y2161234D01*
X2620007D01*
X2610010Y2151237D01*
Y2131244D01*
X2620007Y2121247D01*
X2630003D01*
X2640000Y2131244D01*
Y2161234D01*
X5385026Y2739990D02*
X5425013D01*
X5405020D01*
Y2680009D01*
X5445007D02*
Y2739990D01*
X5474997D01*
X5484994Y2729993D01*
Y2710000D01*
X5474997Y2700003D01*
X5445007D01*
X5544974Y2739990D02*
X5504987D01*
Y2710000D01*
X5524981Y2719996D01*
X5534978D01*
X5544974Y2710000D01*
Y2690006D01*
X5534978Y2680009D01*
X5514984D01*
X5504987Y2690006D01*
X2153774Y1049990D02*
Y990010D01*
X2183765D01*
X2193761Y1000006D01*
Y1039993D01*
X2183765Y1049990D01*
X2153774D01*
X2213755Y990010D02*
X2233749D01*
X2223752D01*
Y1049990D01*
X2213755Y1039993D01*
X2263739D02*
X2273735Y1049990D01*
X2293729D01*
X2303726Y1039993D01*
Y1000006D01*
X2293729Y990010D01*
X2273735D01*
X2263739Y1000006D01*
Y1039993D01*
X2153774Y1189990D02*
Y1130010D01*
X2183765D01*
X2193761Y1140006D01*
Y1179993D01*
X2183765Y1189990D01*
X2153774D01*
X2213755Y1130010D02*
X2233749D01*
X2223752D01*
Y1189990D01*
X2213755Y1179993D01*
X2303726Y1189990D02*
X2263739D01*
Y1160000D01*
X2283732Y1169997D01*
X2293729D01*
X2303726Y1160000D01*
Y1140006D01*
X2293729Y1130010D01*
X2273735D01*
X2263739Y1140006D01*
X2610048Y2290013D02*
X2600051Y2280016D01*
Y2260023D01*
X2610048Y2250026D01*
X2650035D01*
X2660032Y2260023D01*
Y2280016D01*
X2650035Y2290013D01*
X2600051Y2310007D02*
Y2349994D01*
X2610048D01*
X2650035Y2310007D01*
X2660032D01*
X2650035Y2369987D02*
X2660032Y2379984D01*
Y2399977D01*
X2650035Y2409974D01*
X2610048D01*
X2600051Y2399977D01*
Y2379984D01*
X2610048Y2369987D01*
X2620045D01*
X2630041Y2379984D01*
Y2409974D01*
X4919232Y4742490D02*
Y4682510D01*
X4949223D01*
X4959219Y4692506D01*
Y4732493D01*
X4949223Y4742490D01*
X4919232D01*
X4979213D02*
X5019200D01*
Y4732493D01*
X4979213Y4692506D01*
Y4682510D01*
X6449232Y4742490D02*
Y4682510D01*
X6479223D01*
X6489219Y4692506D01*
Y4732493D01*
X6479223Y4742490D01*
X6449232D01*
X6509213Y4732493D02*
X6519209Y4742490D01*
X6539203D01*
X6549200Y4732493D01*
Y4722497D01*
X6539203Y4712500D01*
X6549200Y4702503D01*
Y4692506D01*
X6539203Y4682510D01*
X6519209D01*
X6509213Y4692506D01*
Y4702503D01*
X6519209Y4712500D01*
X6509213Y4722497D01*
Y4732493D01*
X6519209Y4712500D02*
X6539203D01*
X3209990Y4640026D02*
X3150009D01*
Y4670016D01*
X3160006Y4680013D01*
X3180000D01*
X3189996Y4670016D01*
Y4640026D01*
Y4660019D02*
X3209990Y4680013D01*
X3199993Y4700006D02*
X3209990Y4710003D01*
Y4729997D01*
X3199993Y4739993D01*
X3160006D01*
X3150009Y4729997D01*
Y4710003D01*
X3160006Y4700006D01*
X3170003D01*
X3180000Y4710003D01*
Y4739993D01*
X3160006Y4759987D02*
X3150009Y4769984D01*
Y4789977D01*
X3160006Y4799974D01*
X3170003D01*
X3180000Y4789977D01*
Y4779981D01*
Y4789977D01*
X3189996Y4799974D01*
X3199993D01*
X3209990Y4789977D01*
Y4769984D01*
X3199993Y4759987D01*
X5959990Y4650026D02*
X5900010D01*
Y4680016D01*
X5910006Y4690013D01*
X5930000D01*
X5939997Y4680016D01*
Y4650026D01*
Y4670019D02*
X5959990Y4690013D01*
X5949993Y4710006D02*
X5959990Y4720003D01*
Y4739997D01*
X5949993Y4749993D01*
X5910006D01*
X5900010Y4739997D01*
Y4720003D01*
X5910006Y4710006D01*
X5920003D01*
X5930000Y4720003D01*
Y4749993D01*
X5959990Y4799977D02*
X5900010D01*
X5930000Y4769987D01*
Y4809974D01*
X3940016Y4132490D02*
Y4082506D01*
X3950013Y4072510D01*
X3970007D01*
X3980003Y4082506D01*
Y4132490D01*
X4039984D02*
X4019990Y4122493D01*
X3999997Y4102500D01*
Y4082506D01*
X4009994Y4072510D01*
X4029987D01*
X4039984Y4082506D01*
Y4092503D01*
X4029987Y4102500D01*
X3999997D01*
X3883938Y3559990D02*
Y3510006D01*
X3893934Y3500010D01*
X3913928D01*
X3923925Y3510006D01*
Y3559990D01*
X3943918Y3549993D02*
X3953915Y3559990D01*
X3973908D01*
X3983905Y3549993D01*
Y3539996D01*
X3973908Y3530000D01*
X3983905Y3520003D01*
Y3510006D01*
X3973908Y3500010D01*
X3953915D01*
X3943918Y3510006D01*
Y3520003D01*
X3953915Y3530000D01*
X3943918Y3539996D01*
Y3549993D01*
X3953915Y3530000D02*
X3973908D01*
X3860016Y3102490D02*
Y3052506D01*
X3870013Y3042510D01*
X3890006D01*
X3900003Y3052506D01*
Y3102490D01*
X3919997Y3052506D02*
X3929993Y3042510D01*
X3949987D01*
X3959984Y3052506D01*
Y3092493D01*
X3949987Y3102490D01*
X3929993D01*
X3919997Y3092493D01*
Y3082497D01*
X3929993Y3072500D01*
X3959984D01*
X2960010Y3000016D02*
X3009993D01*
X3019990Y3010013D01*
Y3030007D01*
X3009993Y3040003D01*
X2960010D01*
Y3059997D02*
Y3099984D01*
X2970007D01*
X3009993Y3059997D01*
X3019990D01*
X3825026Y3789990D02*
X3865013D01*
X3845020D01*
Y3730010D01*
X3885007D02*
Y3789990D01*
X3914997D01*
X3924994Y3779993D01*
Y3760000D01*
X3914997Y3750003D01*
X3885007D01*
X3984974Y3789990D02*
X3964981Y3779993D01*
X3944987Y3760000D01*
Y3740006D01*
X3954984Y3730010D01*
X3974978D01*
X3984974Y3740006D01*
Y3750003D01*
X3974978Y3760000D01*
X3944987D01*
X3465026Y2739990D02*
X3505013D01*
X3485020D01*
Y2680009D01*
X3525007D02*
Y2739990D01*
X3554997D01*
X3564994Y2729993D01*
Y2710000D01*
X3554997Y2700003D01*
X3525007D01*
X3584987Y2739990D02*
X3624974D01*
Y2729993D01*
X3584987Y2690006D01*
Y2680009D01*
X2920026Y2670010D02*
Y2729990D01*
X2950016D01*
X2960013Y2719993D01*
Y2700000D01*
X2950016Y2690003D01*
X2920026D01*
X2940020D02*
X2960013Y2670010D01*
X3019993D02*
X2980006D01*
X3019993Y2709997D01*
Y2719993D01*
X3009997Y2729990D01*
X2990003D01*
X2980006Y2719993D01*
X3039987Y2680006D02*
X3049984Y2670010D01*
X3069977D01*
X3079974Y2680006D01*
Y2719993D01*
X3069977Y2729990D01*
X3049984D01*
X3039987Y2719993D01*
Y2709997D01*
X3049984Y2700000D01*
X3079974D01*
X3530026Y3630010D02*
Y3689990D01*
X3560016D01*
X3570013Y3679993D01*
Y3660000D01*
X3560016Y3650003D01*
X3530026D01*
X3550020D02*
X3570013Y3630010D01*
X3629994D02*
X3590007D01*
X3629994Y3669997D01*
Y3679993D01*
X3619997Y3689990D01*
X3600003D01*
X3590007Y3679993D01*
X3679977Y3630010D02*
Y3689990D01*
X3649987Y3660000D01*
X3689974D01*
X2955025Y4280010D02*
Y4339990D01*
X2985015D01*
X2995012Y4329993D01*
Y4310000D01*
X2985015Y4300003D01*
X2955025D01*
X2975018D02*
X2995012Y4280010D01*
X3015005D02*
X3034999D01*
X3025002D01*
Y4339990D01*
X3015005Y4329993D01*
X3064989Y4290006D02*
X3074985Y4280010D01*
X3094979D01*
X3104976Y4290006D01*
Y4329993D01*
X3094979Y4339990D01*
X3074985D01*
X3064989Y4329993D01*
Y4319997D01*
X3074985Y4310000D01*
X3104976D01*
X4429990Y3865024D02*
X4370010D01*
Y3895015D01*
X4380006Y3905011D01*
X4400000D01*
X4409997Y3895015D01*
Y3865024D01*
Y3885018D02*
X4429990Y3905011D01*
Y3925005D02*
Y3944998D01*
Y3935002D01*
X4370010D01*
X4380006Y3925005D01*
X4370010Y3974988D02*
Y4014975D01*
X4380006D01*
X4419993Y3974988D01*
X4429990D01*
X2909990Y4185025D02*
X2850010D01*
Y4215015D01*
X2860007Y4225012D01*
X2880000D01*
X2889997Y4215015D01*
Y4185025D01*
Y4205018D02*
X2909990Y4225012D01*
Y4245005D02*
Y4264999D01*
Y4255002D01*
X2850010D01*
X2860007Y4245005D01*
X2850010Y4334976D02*
Y4294989D01*
X2880000D01*
X2870003Y4314982D01*
Y4324979D01*
X2880000Y4334976D01*
X2899994D01*
X2909990Y4324979D01*
Y4304986D01*
X2899994Y4294989D01*
X3499990Y3785024D02*
X3440010D01*
Y3815015D01*
X3450007Y3825011D01*
X3470000D01*
X3479997Y3815015D01*
Y3785024D01*
Y3805018D02*
X3499990Y3825011D01*
Y3845005D02*
Y3864999D01*
Y3855002D01*
X3440010D01*
X3450007Y3845005D01*
X3499990Y3924979D02*
X3440010D01*
X3470000Y3894989D01*
Y3934976D01*
X3530026Y3400010D02*
Y3459990D01*
X3560016D01*
X3570013Y3449993D01*
Y3430000D01*
X3560016Y3420003D01*
X3530026D01*
X3550020D02*
X3570013Y3400010D01*
X3629994D02*
X3590007D01*
X3629994Y3439997D01*
Y3449993D01*
X3619997Y3459990D01*
X3600003D01*
X3590007Y3449993D01*
X3649987D02*
X3659984Y3459990D01*
X3679977D01*
X3689974Y3449993D01*
Y3439997D01*
X3679977Y3430000D01*
X3689974Y3420003D01*
Y3410006D01*
X3679977Y3400010D01*
X3659984D01*
X3649987Y3410006D01*
Y3420003D01*
X3659984Y3430000D01*
X3649987Y3439997D01*
Y3449993D01*
X3659984Y3430000D02*
X3679977D01*
X4190026Y3360009D02*
Y3419990D01*
X4220016D01*
X4230013Y3409993D01*
Y3390000D01*
X4220016Y3380003D01*
X4190026D01*
X4210020D02*
X4230013Y3360009D01*
X4289993D02*
X4250006D01*
X4289993Y3399996D01*
Y3409993D01*
X4279997Y3419990D01*
X4260003D01*
X4250006Y3409993D01*
X4309987D02*
X4319984Y3419990D01*
X4339977D01*
X4349974Y3409993D01*
Y3399996D01*
X4339977Y3390000D01*
X4329981D01*
X4339977D01*
X4349974Y3380003D01*
Y3370006D01*
X4339977Y3360009D01*
X4319984D01*
X4309987Y3370006D01*
X3480026Y3500010D02*
Y3559990D01*
X3510016D01*
X3520013Y3549993D01*
Y3530000D01*
X3510016Y3520003D01*
X3480026D01*
X3500020D02*
X3520013Y3500010D01*
X3579994D02*
X3540007D01*
X3579994Y3539997D01*
Y3549993D01*
X3569997Y3559990D01*
X3550003D01*
X3540007Y3549993D01*
X3599987Y3559990D02*
X3639974D01*
Y3549993D01*
X3599987Y3510006D01*
Y3500010D01*
X4290026Y2930010D02*
Y2989990D01*
X4320016D01*
X4330013Y2979993D01*
Y2960000D01*
X4320016Y2950003D01*
X4290026D01*
X4310020D02*
X4330013Y2930010D01*
X4389994D02*
X4350007D01*
X4389994Y2969997D01*
Y2979993D01*
X4379997Y2989990D01*
X4360003D01*
X4350007Y2979993D01*
X4449974Y2989990D02*
X4429981Y2979993D01*
X4409987Y2960000D01*
Y2940006D01*
X4419984Y2930010D01*
X4439977D01*
X4449974Y2940006D01*
Y2950003D01*
X4439977Y2960000D01*
X4409987D01*
X3920026Y2670010D02*
Y2729990D01*
X3950016D01*
X3960013Y2719993D01*
Y2700000D01*
X3950016Y2690003D01*
X3920026D01*
X3940020D02*
X3960013Y2670010D01*
X4019993D02*
X3980007D01*
X4019993Y2709997D01*
Y2719993D01*
X4009997Y2729990D01*
X3990003D01*
X3980007Y2719993D01*
X4079974Y2729990D02*
X4039987D01*
Y2700000D01*
X4059981Y2709997D01*
X4069977D01*
X4079974Y2700000D01*
Y2680006D01*
X4069977Y2670010D01*
X4049984D01*
X4039987Y2680006D01*
X3209990Y4185025D02*
X3150010D01*
Y4215015D01*
X3160007Y4225012D01*
X3180000D01*
X3189997Y4215015D01*
Y4185025D01*
Y4205018D02*
X3209990Y4225012D01*
Y4245005D02*
Y4264999D01*
Y4255002D01*
X3150010D01*
X3160007Y4245005D01*
Y4294989D02*
X3150010Y4304986D01*
Y4324979D01*
X3160007Y4334976D01*
X3170003D01*
X3180000Y4324979D01*
X3189997Y4334976D01*
X3199994D01*
X3209990Y4324979D01*
Y4304986D01*
X3199994Y4294989D01*
X3189997D01*
X3180000Y4304986D01*
X3170003Y4294989D01*
X3160007D01*
X3180000Y4304986D02*
Y4324979D01*
X2429990Y2949669D02*
X2370009D01*
Y2979659D01*
X2380006Y2989656D01*
X2400000D01*
X2409996Y2979659D01*
Y2949669D01*
Y2969663D02*
X2429990Y2989656D01*
Y3049637D02*
Y3009650D01*
X2390003Y3049637D01*
X2380006D01*
X2370009Y3039640D01*
Y3019646D01*
X2380006Y3009650D01*
X2429990Y3069630D02*
Y3089624D01*
Y3079627D01*
X2370009D01*
X2380006Y3069630D01*
X2750026Y3600010D02*
Y3659990D01*
X2780016D01*
X2790013Y3649993D01*
Y3630000D01*
X2780016Y3620003D01*
X2750026D01*
X2770020D02*
X2790013Y3600010D01*
X2849994D02*
X2810007D01*
X2849994Y3639997D01*
Y3649993D01*
X2839997Y3659990D01*
X2820003D01*
X2810007Y3649993D01*
X2869987D02*
X2879984Y3659990D01*
X2899977D01*
X2909974Y3649993D01*
Y3610006D01*
X2899977Y3600010D01*
X2879984D01*
X2869987Y3610006D01*
Y3649993D01*
X4285024Y2670010D02*
Y2729990D01*
X4315015D01*
X4325011Y2719993D01*
Y2700000D01*
X4315015Y2690003D01*
X4285024D01*
X4305018D02*
X4325011Y2670010D01*
X4345005D02*
X4364999D01*
X4355002D01*
Y2729990D01*
X4345005Y2719993D01*
X4394989D02*
X4404985Y2729990D01*
X4424979D01*
X4434976Y2719993D01*
Y2709997D01*
X4424979Y2700000D01*
X4414982D01*
X4424979D01*
X4434976Y2690003D01*
Y2680006D01*
X4424979Y2670010D01*
X4404985D01*
X4394989Y2680006D01*
X2087528Y4355909D02*
Y4415890D01*
X2117519D01*
X2127515Y4405893D01*
Y4385900D01*
X2117519Y4375903D01*
X2087528D01*
X2187496Y4415890D02*
X2167503Y4405893D01*
X2147509Y4385900D01*
Y4365906D01*
X2157506Y4355909D01*
X2177499D01*
X2187496Y4365906D01*
Y4375903D01*
X2177499Y4385900D01*
X2147509D01*
X5553016Y3463010D02*
Y3522990D01*
X5573010Y3502997D01*
X5593003Y3522990D01*
Y3463010D01*
X5652984D02*
X5612997D01*
X5652984Y3502997D01*
Y3512993D01*
X5642987Y3522990D01*
X5622993D01*
X5612997Y3512993D01*
X1440016Y4712490D02*
Y4652510D01*
X1470007D01*
X1480003Y4662507D01*
Y4702494D01*
X1470007Y4712490D01*
X1440016D01*
X1539984Y4652510D02*
X1499997D01*
X1539984Y4692497D01*
Y4702494D01*
X1529987Y4712490D01*
X1509994D01*
X1499997Y4702494D01*
X2370010Y3490013D02*
X2429990D01*
Y3520003D01*
X2419994Y3530000D01*
X2380007D01*
X2370010Y3520003D01*
Y3490013D01*
X2429990Y3549994D02*
Y3569987D01*
Y3559990D01*
X2370010D01*
X2380007Y3549994D01*
X2759965Y3010013D02*
X2749968Y3000016D01*
Y2980023D01*
X2759965Y2970026D01*
X2799952D01*
X2809949Y2980023D01*
Y3000016D01*
X2799952Y3010013D01*
X2809949Y3059997D02*
X2749968D01*
X2779959Y3030007D01*
Y3069994D01*
X2749968Y3089987D02*
Y3129974D01*
X2759965D01*
X2799952Y3089987D01*
X2809949D01*
X2760048Y3210013D02*
X2750051Y3200016D01*
Y3180023D01*
X2760048Y3170026D01*
X2800035D01*
X2810031Y3180023D01*
Y3200016D01*
X2800035Y3210013D01*
X2810031Y3259997D02*
X2750051D01*
X2780041Y3230007D01*
Y3269994D01*
X2750051Y3329974D02*
X2760048Y3309981D01*
X2780041Y3289987D01*
X2800035D01*
X2810031Y3299984D01*
Y3319978D01*
X2800035Y3329974D01*
X2790038D01*
X2780041Y3319978D01*
Y3289987D01*
X3290013Y4310034D02*
X3280016Y4320031D01*
X3260023D01*
X3250026Y4310034D01*
Y4270047D01*
X3260023Y4260051D01*
X3280016D01*
X3290013Y4270047D01*
X3349994Y4320031D02*
X3310007D01*
Y4290041D01*
X3330000Y4300038D01*
X3339997D01*
X3349994Y4290041D01*
Y4270047D01*
X3339997Y4260051D01*
X3320003D01*
X3310007Y4270047D01*
X3409974Y4320031D02*
X3369987D01*
Y4290041D01*
X3389981Y4300038D01*
X3399977D01*
X3409974Y4290041D01*
Y4270047D01*
X3399977Y4260051D01*
X3379984D01*
X3369987Y4270047D01*
X3490013Y4310034D02*
X3480016Y4320031D01*
X3460023D01*
X3450026Y4310034D01*
Y4270047D01*
X3460023Y4260051D01*
X3480016D01*
X3490013Y4270047D01*
X3549993Y4320031D02*
X3510006D01*
Y4290041D01*
X3530000Y4300038D01*
X3539997D01*
X3549993Y4290041D01*
Y4270047D01*
X3539997Y4260051D01*
X3520003D01*
X3510006Y4270047D01*
X3599977Y4260051D02*
Y4320031D01*
X3569987Y4290041D01*
X3609974D01*
X4319965Y4680013D02*
X4309968Y4670016D01*
Y4650022D01*
X4319965Y4640026D01*
X4359952D01*
X4369949Y4650022D01*
Y4670016D01*
X4359952Y4680013D01*
X4309968Y4739993D02*
Y4700006D01*
X4339958D01*
X4329962Y4720000D01*
Y4729997D01*
X4339958Y4739993D01*
X4359952D01*
X4369949Y4729997D01*
Y4710003D01*
X4359952Y4700006D01*
X4319965Y4759987D02*
X4309968Y4769984D01*
Y4789977D01*
X4319965Y4799974D01*
X4329962D01*
X4339958Y4789977D01*
Y4779981D01*
Y4789977D01*
X4349955Y4799974D01*
X4359952D01*
X4369949Y4789977D01*
Y4769984D01*
X4359952Y4759987D01*
X4379965Y4220013D02*
X4369968Y4210016D01*
Y4190022D01*
X4379965Y4180026D01*
X4419952D01*
X4429949Y4190022D01*
Y4210016D01*
X4419952Y4220013D01*
X4369968Y4279993D02*
Y4240006D01*
X4399958D01*
X4389962Y4260000D01*
Y4269997D01*
X4399958Y4279993D01*
X4419952D01*
X4429949Y4269997D01*
Y4250003D01*
X4419952Y4240006D01*
X4429949Y4339974D02*
Y4299987D01*
X4389962Y4339974D01*
X4379965D01*
X4369968Y4329977D01*
Y4309984D01*
X4379965Y4299987D01*
X3000010Y3809952D02*
X2990013Y3819949D01*
X2970019D01*
X2960023Y3809952D01*
Y3769965D01*
X2970019Y3759968D01*
X2990013D01*
X3000010Y3769965D01*
X3059990Y3819949D02*
X3039997Y3809952D01*
X3020003Y3789959D01*
Y3769965D01*
X3030000Y3759968D01*
X3049994D01*
X3059990Y3769965D01*
Y3779962D01*
X3049994Y3789959D01*
X3020003D01*
X3079984Y3759968D02*
X3099978D01*
X3089981D01*
Y3819949D01*
X3079984Y3809952D01*
X2790013Y3810035D02*
X2780016Y3820031D01*
X2760023D01*
X2750026Y3810035D01*
Y3770048D01*
X2760023Y3760051D01*
X2780016D01*
X2790013Y3770048D01*
X2849994Y3820031D02*
X2830000Y3810035D01*
X2810007Y3790041D01*
Y3770048D01*
X2820003Y3760051D01*
X2839997D01*
X2849994Y3770048D01*
Y3780045D01*
X2839997Y3790041D01*
X2810007D01*
X2869987Y3810035D02*
X2879984Y3820031D01*
X2899977D01*
X2909974Y3810035D01*
Y3770048D01*
X2899977Y3760051D01*
X2879984D01*
X2869987Y3770048D01*
Y3810035D01*
X3450013Y4189993D02*
X3440016Y4199990D01*
X3420023D01*
X3410026Y4189993D01*
Y4150006D01*
X3420023Y4140010D01*
X3440016D01*
X3450013Y4150006D01*
X3470007Y4189993D02*
X3480003Y4199990D01*
X3499997D01*
X3509993Y4189993D01*
Y4179997D01*
X3499997Y4170000D01*
X3490000D01*
X3499997D01*
X3509993Y4160003D01*
Y4150006D01*
X3499997Y4140010D01*
X3480003D01*
X3470007Y4150006D01*
X3529987Y4189993D02*
X3539984Y4199990D01*
X3559977D01*
X3569974Y4189993D01*
Y4179997D01*
X3559977Y4170000D01*
X3549981D01*
X3559977D01*
X3569974Y4160003D01*
Y4150006D01*
X3559977Y4140010D01*
X3539984D01*
X3529987Y4150006D01*
X3450013Y4059993D02*
X3440016Y4069990D01*
X3420023D01*
X3410026Y4059993D01*
Y4020006D01*
X3420023Y4010010D01*
X3440016D01*
X3450013Y4020006D01*
X3470007Y4059993D02*
X3480003Y4069990D01*
X3499997D01*
X3509993Y4059993D01*
Y4049996D01*
X3499997Y4040000D01*
X3490000D01*
X3499997D01*
X3509993Y4030003D01*
Y4020006D01*
X3499997Y4010010D01*
X3480003D01*
X3470007Y4020006D01*
X3569974Y4010010D02*
X3529987D01*
X3569974Y4049996D01*
Y4059993D01*
X3559977Y4069990D01*
X3539984D01*
X3529987Y4059993D01*
X3559965Y3850009D02*
X3549968Y3840013D01*
Y3820019D01*
X3559965Y3810022D01*
X3599952D01*
X3609948Y3820019D01*
Y3840013D01*
X3599952Y3850009D01*
X3559965Y3870003D02*
X3549968Y3880000D01*
Y3899993D01*
X3559965Y3909990D01*
X3569961D01*
X3579958Y3899993D01*
Y3889997D01*
Y3899993D01*
X3589955Y3909990D01*
X3599952D01*
X3609948Y3899993D01*
Y3880000D01*
X3599952Y3870003D01*
X3609948Y3929984D02*
Y3949977D01*
Y3939980D01*
X3549968D01*
X3559965Y3929984D01*
X2760048Y4220013D02*
X2750051Y4210016D01*
Y4190023D01*
X2760048Y4180026D01*
X2800035D01*
X2810031Y4190023D01*
Y4210016D01*
X2800035Y4220013D01*
X2760048Y4240007D02*
X2750051Y4250003D01*
Y4269997D01*
X2760048Y4279994D01*
X2770044D01*
X2780041Y4269997D01*
Y4260000D01*
Y4269997D01*
X2790038Y4279994D01*
X2800035D01*
X2810031Y4269997D01*
Y4250003D01*
X2800035Y4240007D01*
X2760048Y4299987D02*
X2750051Y4309984D01*
Y4329978D01*
X2760048Y4339974D01*
X2800035D01*
X2810031Y4329978D01*
Y4309984D01*
X2800035Y4299987D01*
X2760048D01*
X2990013Y4229952D02*
X2980016Y4239949D01*
X2960023D01*
X2950026Y4229952D01*
Y4189965D01*
X2960023Y4179968D01*
X2980016D01*
X2990013Y4189965D01*
X3049994Y4179968D02*
X3010007D01*
X3049994Y4219955D01*
Y4229952D01*
X3039997Y4239949D01*
X3020003D01*
X3010007Y4229952D01*
X3069987Y4189965D02*
X3079984Y4179968D01*
X3099978D01*
X3109974Y4189965D01*
Y4229952D01*
X3099978Y4239949D01*
X3079984D01*
X3069987Y4229952D01*
Y4219955D01*
X3079984Y4209959D01*
X3109974D01*
X3350048Y3820013D02*
X3340051Y3810016D01*
Y3790023D01*
X3350048Y3780026D01*
X3390035D01*
X3400032Y3790023D01*
Y3810016D01*
X3390035Y3820013D01*
X3400032Y3879994D02*
Y3840007D01*
X3360045Y3879994D01*
X3350048D01*
X3340051Y3869997D01*
Y3850003D01*
X3350048Y3840007D01*
Y3899987D02*
X3340051Y3909984D01*
Y3929977D01*
X3350048Y3939974D01*
X3360045D01*
X3370041Y3929977D01*
X3380038Y3939974D01*
X3390035D01*
X3400032Y3929977D01*
Y3909984D01*
X3390035Y3899987D01*
X3380038D01*
X3370041Y3909984D01*
X3360045Y3899987D01*
X3350048D01*
X3370041Y3909984D02*
Y3929977D01*
X3329965Y3440013D02*
X3319968Y3430016D01*
Y3410022D01*
X3329965Y3400026D01*
X3369952D01*
X3379949Y3410022D01*
Y3430016D01*
X3369952Y3440013D01*
X3379949Y3489997D02*
X3319968D01*
X3349958Y3460006D01*
Y3499993D01*
X3319968Y3559974D02*
Y3519987D01*
X3349958D01*
X3339962Y3539980D01*
Y3549977D01*
X3349958Y3559974D01*
X3369952D01*
X3379949Y3549977D01*
Y3529984D01*
X3369952Y3519987D01*
X2790013Y3450035D02*
X2780016Y3460031D01*
X2760023D01*
X2750026Y3450035D01*
Y3410048D01*
X2760023Y3400051D01*
X2780016D01*
X2790013Y3410048D01*
X2839997Y3400051D02*
Y3460031D01*
X2810007Y3430041D01*
X2849994D01*
X2899977Y3400051D02*
Y3460031D01*
X2869987Y3430041D01*
X2909974D01*
X4410048Y3470013D02*
X4400051Y3460016D01*
Y3440023D01*
X4410048Y3430026D01*
X4450035D01*
X4460031Y3440023D01*
Y3460016D01*
X4450035Y3470013D01*
X4460031Y3519997D02*
X4400051D01*
X4430041Y3490007D01*
Y3529994D01*
X4460031Y3589974D02*
Y3549987D01*
X4420044Y3589974D01*
X4410048D01*
X4400051Y3579978D01*
Y3559984D01*
X4410048Y3549987D01*
X4250013Y3589952D02*
X4240016Y3599949D01*
X4220023D01*
X4210026Y3589952D01*
Y3549965D01*
X4220023Y3539968D01*
X4240016D01*
X4250013Y3549965D01*
X4299997Y3539968D02*
Y3599949D01*
X4270007Y3569959D01*
X4309994D01*
X4329987Y3589952D02*
X4339984Y3599949D01*
X4359978D01*
X4369974Y3589952D01*
Y3579955D01*
X4359978Y3569959D01*
X4349981D01*
X4359978D01*
X4369974Y3559962D01*
Y3549965D01*
X4359978Y3539968D01*
X4339984D01*
X4329987Y3549965D01*
X4250013Y3789952D02*
X4240016Y3799949D01*
X4220023D01*
X4210026Y3789952D01*
Y3749965D01*
X4220023Y3739968D01*
X4240016D01*
X4250013Y3749965D01*
X4270007Y3789952D02*
X4280003Y3799949D01*
X4299997D01*
X4309994Y3789952D01*
Y3779955D01*
X4299997Y3769959D01*
X4290000D01*
X4299997D01*
X4309994Y3759962D01*
Y3749965D01*
X4299997Y3739968D01*
X4280003D01*
X4270007Y3749965D01*
X4329987Y3789952D02*
X4339984Y3799949D01*
X4359978D01*
X4369974Y3789952D01*
Y3779955D01*
X4359978Y3769959D01*
X4369974Y3759962D01*
Y3749965D01*
X4359978Y3739968D01*
X4339984D01*
X4329987Y3749965D01*
Y3759962D01*
X4339984Y3769959D01*
X4329987Y3779955D01*
Y3789952D01*
X4339984Y3769959D02*
X4359978D01*
X4250013Y3689952D02*
X4240016Y3699949D01*
X4220023D01*
X4210026Y3689952D01*
Y3649965D01*
X4220023Y3639968D01*
X4240016D01*
X4250013Y3649965D01*
X4270007Y3689952D02*
X4280003Y3699949D01*
X4299997D01*
X4309994Y3689952D01*
Y3679955D01*
X4299997Y3669959D01*
X4290000D01*
X4299997D01*
X4309994Y3659962D01*
Y3649965D01*
X4299997Y3639968D01*
X4280003D01*
X4270007Y3649965D01*
X4329987Y3699949D02*
X4369974D01*
Y3689952D01*
X4329987Y3649965D01*
Y3639968D01*
X3360013Y3649952D02*
X3350016Y3659949D01*
X3330023D01*
X3320026Y3649952D01*
Y3609965D01*
X3330023Y3599968D01*
X3350016D01*
X3360013Y3609965D01*
X3380007Y3649952D02*
X3390003Y3659949D01*
X3409997D01*
X3419994Y3649952D01*
Y3639955D01*
X3409997Y3629959D01*
X3400000D01*
X3409997D01*
X3419994Y3619962D01*
Y3609965D01*
X3409997Y3599968D01*
X3390003D01*
X3380007Y3609965D01*
X3479974Y3659949D02*
X3459981Y3649952D01*
X3439987Y3629959D01*
Y3609965D01*
X3449984Y3599968D01*
X3469978D01*
X3479974Y3609965D01*
Y3619962D01*
X3469978Y3629959D01*
X3439987D01*
X3410013Y3350034D02*
X3400016Y3360031D01*
X3380023D01*
X3370026Y3350034D01*
Y3310047D01*
X3380023Y3300051D01*
X3400016D01*
X3410013Y3310047D01*
X3469994Y3360031D02*
X3430007D01*
Y3330041D01*
X3450000Y3340038D01*
X3459997D01*
X3469994Y3330041D01*
Y3310047D01*
X3459997Y3300051D01*
X3440003D01*
X3430007Y3310047D01*
X3489987D02*
X3499984Y3300051D01*
X3519977D01*
X3529974Y3310047D01*
Y3350034D01*
X3519977Y3360031D01*
X3499984D01*
X3489987Y3350034D01*
Y3340038D01*
X3499984Y3330041D01*
X3529974D01*
X3410013Y3250034D02*
X3400016Y3260031D01*
X3380023D01*
X3370026Y3250034D01*
Y3210047D01*
X3380023Y3200051D01*
X3400016D01*
X3410013Y3210047D01*
X3469994Y3260031D02*
X3430007D01*
Y3230041D01*
X3450000Y3240038D01*
X3459997D01*
X3469994Y3230041D01*
Y3210047D01*
X3459997Y3200051D01*
X3440003D01*
X3430007Y3210047D01*
X3489987Y3250034D02*
X3499984Y3260031D01*
X3519977D01*
X3529974Y3250034D01*
Y3240038D01*
X3519977Y3230041D01*
X3529974Y3220044D01*
Y3210047D01*
X3519977Y3200051D01*
X3499984D01*
X3489987Y3210047D01*
Y3220044D01*
X3499984Y3230041D01*
X3489987Y3240038D01*
Y3250034D01*
X3499984Y3230041D02*
X3519977D01*
X4330013Y3209952D02*
X4320016Y3219949D01*
X4300023D01*
X4290026Y3209952D01*
Y3169965D01*
X4300023Y3159968D01*
X4320016D01*
X4330013Y3169965D01*
X4389994Y3219949D02*
X4350007D01*
Y3189959D01*
X4370000Y3199955D01*
X4379997D01*
X4389994Y3189959D01*
Y3169965D01*
X4379997Y3159968D01*
X4360003D01*
X4350007Y3169965D01*
X4409987Y3219949D02*
X4449974D01*
Y3209952D01*
X4409987Y3169965D01*
Y3159968D01*
X4330013Y3309952D02*
X4320016Y3319949D01*
X4300023D01*
X4290026Y3309952D01*
Y3269965D01*
X4300023Y3259968D01*
X4320016D01*
X4330013Y3269965D01*
X4389994Y3319949D02*
X4350007D01*
Y3289959D01*
X4370000Y3299955D01*
X4379997D01*
X4389994Y3289959D01*
Y3269965D01*
X4379997Y3259968D01*
X4360003D01*
X4350007Y3269965D01*
X4449974Y3319949D02*
X4429981Y3309952D01*
X4409987Y3289959D01*
Y3269965D01*
X4419984Y3259968D01*
X4439977D01*
X4449974Y3269965D01*
Y3279962D01*
X4439977Y3289959D01*
X4409987D01*
X3179965Y3000013D02*
X3169968Y2990016D01*
Y2970023D01*
X3179965Y2960026D01*
X3219952D01*
X3229949Y2970023D01*
Y2990016D01*
X3219952Y3000013D01*
X3169968Y3059994D02*
Y3020007D01*
X3199959D01*
X3189962Y3040000D01*
Y3049997D01*
X3199959Y3059994D01*
X3219952D01*
X3229949Y3049997D01*
Y3030003D01*
X3219952Y3020007D01*
X3179965Y3079987D02*
X3169968Y3089984D01*
Y3109978D01*
X3179965Y3119974D01*
X3219952D01*
X3229949Y3109978D01*
Y3089984D01*
X3219952Y3079987D01*
X3179965D01*
X3180047Y3200013D02*
X3170051Y3190016D01*
Y3170022D01*
X3180047Y3160026D01*
X3220034D01*
X3230031Y3170022D01*
Y3190016D01*
X3220034Y3200013D01*
X3230031Y3249997D02*
X3170051D01*
X3200041Y3220006D01*
Y3259993D01*
X3220034Y3279987D02*
X3230031Y3289984D01*
Y3309977D01*
X3220034Y3319974D01*
X3180047D01*
X3170051Y3309977D01*
Y3289984D01*
X3180047Y3279987D01*
X3190044D01*
X3200041Y3289984D01*
Y3319974D01*
X3380009Y3109993D02*
X3370013Y3119990D01*
X3350019D01*
X3340023Y3109993D01*
Y3070006D01*
X3350019Y3060010D01*
X3370013D01*
X3380009Y3070006D01*
X3429993Y3060010D02*
Y3119990D01*
X3400003Y3090000D01*
X3439990D01*
X3459984Y3060010D02*
X3479977D01*
X3469980D01*
Y3119990D01*
X3459984Y3109993D01*
X3370013Y2859993D02*
X3360016Y2869990D01*
X3340023D01*
X3330026Y2859993D01*
Y2820006D01*
X3340023Y2810010D01*
X3360016D01*
X3370013Y2820006D01*
X3419997Y2810010D02*
Y2869990D01*
X3390007Y2840000D01*
X3429994D01*
X3449987Y2859993D02*
X3459984Y2869990D01*
X3479978D01*
X3489974Y2859993D01*
Y2820006D01*
X3479978Y2810010D01*
X3459984D01*
X3449987Y2820006D01*
Y2859993D01*
X3410013Y2980034D02*
X3400016Y2990031D01*
X3380023D01*
X3370026Y2980034D01*
Y2940047D01*
X3380023Y2930051D01*
X3400016D01*
X3410013Y2940047D01*
X3430007Y2980034D02*
X3440003Y2990031D01*
X3459997D01*
X3469994Y2980034D01*
Y2970038D01*
X3459997Y2960041D01*
X3450000D01*
X3459997D01*
X3469994Y2950044D01*
Y2940047D01*
X3459997Y2930051D01*
X3440003D01*
X3430007Y2940047D01*
X3489987D02*
X3499984Y2930051D01*
X3519977D01*
X3529974Y2940047D01*
Y2980034D01*
X3519977Y2990031D01*
X3499984D01*
X3489987Y2980034D01*
Y2970038D01*
X3499984Y2960041D01*
X3529974D01*
X2790013Y3550035D02*
X2780016Y3560031D01*
X2760023D01*
X2750026Y3550035D01*
Y3510048D01*
X2760023Y3500051D01*
X2780016D01*
X2790013Y3510048D01*
X2810007Y3550035D02*
X2820003Y3560031D01*
X2839997D01*
X2849994Y3550035D01*
Y3540038D01*
X2839997Y3530041D01*
X2830000D01*
X2839997D01*
X2849994Y3520045D01*
Y3510048D01*
X2839997Y3500051D01*
X2820003D01*
X2810007Y3510048D01*
X2899977Y3500051D02*
Y3560031D01*
X2869987Y3530041D01*
X2909974D01*
X4330013Y2849952D02*
X4320016Y2859949D01*
X4300023D01*
X4290026Y2849952D01*
Y2809965D01*
X4300023Y2799968D01*
X4320016D01*
X4330013Y2809965D01*
X4389994Y2799968D02*
X4350007D01*
X4389994Y2839955D01*
Y2849952D01*
X4379997Y2859949D01*
X4360003D01*
X4350007Y2849952D01*
X4409987Y2859949D02*
X4449974D01*
Y2849952D01*
X4409987Y2809965D01*
Y2799968D01*
X6249990Y2130026D02*
X6190010D01*
Y2160017D01*
X6200007Y2170013D01*
X6220000D01*
X6229997Y2160017D01*
Y2130026D01*
Y2150020D02*
X6249990Y2170013D01*
X6200007Y2190007D02*
X6190010Y2200003D01*
Y2219997D01*
X6200007Y2229994D01*
X6210003D01*
X6220000Y2219997D01*
Y2210000D01*
Y2219997D01*
X6229997Y2229994D01*
X6239994D01*
X6249990Y2219997D01*
Y2200003D01*
X6239994Y2190007D01*
X6200007Y2249987D02*
X6190010Y2259984D01*
Y2279978D01*
X6200007Y2289974D01*
X6239994D01*
X6249990Y2279978D01*
Y2259984D01*
X6239994Y2249987D01*
X6200007D01*
X6449990Y2140023D02*
X6390010D01*
Y2170013D01*
X6400007Y2180010D01*
X6420000D01*
X6429997Y2170013D01*
Y2140023D01*
Y2160016D02*
X6449990Y2180010D01*
X6400007Y2200003D02*
X6390010Y2210000D01*
Y2229994D01*
X6400007Y2239990D01*
X6410003D01*
X6420000Y2229994D01*
Y2219997D01*
Y2229994D01*
X6429997Y2239990D01*
X6439993D01*
X6449990Y2229994D01*
Y2210000D01*
X6439993Y2200003D01*
X6449990Y2259984D02*
Y2279977D01*
Y2269980D01*
X6390010D01*
X6400007Y2259984D01*
X6249990Y1320026D02*
X6190010D01*
Y1350016D01*
X6200007Y1360013D01*
X6220000D01*
X6229997Y1350016D01*
Y1320026D01*
Y1340019D02*
X6249990Y1360013D01*
X6190010Y1419993D02*
Y1380006D01*
X6220000D01*
X6210003Y1400000D01*
Y1409997D01*
X6220000Y1419993D01*
X6239994D01*
X6249990Y1409997D01*
Y1390003D01*
X6239994Y1380006D01*
X6200007Y1439987D02*
X6190010Y1449984D01*
Y1469977D01*
X6200007Y1479974D01*
X6210003D01*
X6220000Y1469977D01*
Y1459981D01*
Y1469977D01*
X6229997Y1479974D01*
X6239994D01*
X6249990Y1469977D01*
Y1449984D01*
X6239994Y1439987D01*
X6449990Y1320026D02*
X6390010D01*
Y1350016D01*
X6400007Y1360013D01*
X6420000D01*
X6429997Y1350016D01*
Y1320026D01*
Y1340019D02*
X6449990Y1360013D01*
X6390010Y1419993D02*
Y1380006D01*
X6420000D01*
X6410003Y1400000D01*
Y1409997D01*
X6420000Y1419993D01*
X6439993D01*
X6449990Y1409997D01*
Y1390003D01*
X6439993Y1380006D01*
X6449990Y1469977D02*
X6390010D01*
X6420000Y1439987D01*
Y1479974D01*
X6250003Y3880034D02*
X6240007Y3890031D01*
X6220013D01*
X6210016Y3880034D01*
Y3840047D01*
X6220013Y3830051D01*
X6240007D01*
X6250003Y3840047D01*
X6309984Y3890031D02*
X6289990Y3880034D01*
X6269997Y3860041D01*
Y3840047D01*
X6279994Y3830051D01*
X6299987D01*
X6309984Y3840047D01*
Y3850044D01*
X6299987Y3860041D01*
X6269997D01*
X2759965Y2800013D02*
X2749968Y2790016D01*
Y2770023D01*
X2759965Y2760026D01*
X2799952D01*
X2809949Y2770023D01*
Y2790016D01*
X2799952Y2800013D01*
X2759965Y2820007D02*
X2749968Y2830003D01*
Y2849997D01*
X2759965Y2859994D01*
X2769962D01*
X2779959Y2849997D01*
Y2840000D01*
Y2849997D01*
X2789955Y2859994D01*
X2799952D01*
X2809949Y2849997D01*
Y2830003D01*
X2799952Y2820007D01*
X2749968Y2919974D02*
Y2879987D01*
X2779959D01*
X2769962Y2899981D01*
Y2909977D01*
X2779959Y2919974D01*
X2799952D01*
X2809949Y2909977D01*
Y2889984D01*
X2799952Y2879987D01*
X4850006Y1150013D02*
X4840009Y1140016D01*
Y1120022D01*
X4850006Y1110026D01*
X4889993D01*
X4899990Y1120022D01*
Y1140016D01*
X4889993Y1150013D01*
X4850006Y1170006D02*
X4840009Y1180003D01*
Y1199997D01*
X4850006Y1209993D01*
X4860003D01*
X4870000Y1199997D01*
X4879996Y1209993D01*
X4889993D01*
X4899990Y1199997D01*
Y1180003D01*
X4889993Y1170006D01*
X4879996D01*
X4870000Y1180003D01*
X4860003Y1170006D01*
X4850006D01*
X4870000Y1180003D02*
Y1199997D01*
X4899990Y1269974D02*
Y1229987D01*
X4860003Y1269974D01*
X4850006D01*
X4840009Y1259977D01*
Y1239984D01*
X4850006Y1229987D01*
X3740013Y2400035D02*
X3730016Y2410032D01*
X3710023D01*
X3700026Y2400035D01*
Y2360048D01*
X3710023Y2350051D01*
X3730016D01*
X3740013Y2360048D01*
X3760007D02*
X3770003Y2350051D01*
X3789997D01*
X3799994Y2360048D01*
Y2400035D01*
X3789997Y2410032D01*
X3770003D01*
X3760007Y2400035D01*
Y2390038D01*
X3770003Y2380041D01*
X3799994D01*
X3859974Y2410032D02*
X3839981Y2400035D01*
X3819987Y2380041D01*
Y2360048D01*
X3829984Y2350051D01*
X3849978D01*
X3859974Y2360048D01*
Y2370045D01*
X3849978Y2380041D01*
X3819987D01*
X7140047Y1175021D02*
X7130051Y1165024D01*
Y1145031D01*
X7140047Y1135034D01*
X7180034D01*
X7190031Y1145031D01*
Y1165024D01*
X7180034Y1175021D01*
X7190031Y1195015D02*
Y1215008D01*
Y1205011D01*
X7130051D01*
X7140047Y1195015D01*
X7190031Y1284985D02*
Y1244998D01*
X7150044Y1284985D01*
X7140047D01*
X7130051Y1274989D01*
Y1254995D01*
X7140047Y1244998D01*
X7190031Y1344966D02*
Y1304979D01*
X7150044Y1344966D01*
X7140047D01*
X7130051Y1334969D01*
Y1314976D01*
X7140047Y1304979D01*
X2860010Y740016D02*
X2919990D01*
Y780003D01*
Y829987D02*
X2860010D01*
X2890000Y799997D01*
Y839984D01*
X3720026Y2670010D02*
Y2729990D01*
X3750016D01*
X3760013Y2719993D01*
Y2700000D01*
X3750016Y2690003D01*
X3720026D01*
X3740020D02*
X3760013Y2670010D01*
X3819994D02*
X3780007D01*
X3819994Y2709997D01*
Y2719993D01*
X3809997Y2729990D01*
X3790003D01*
X3780007Y2719993D01*
X3879974Y2670010D02*
X3839987D01*
X3879974Y2709997D01*
Y2719993D01*
X3869978Y2729990D01*
X3849984D01*
X3839987Y2719993D01*
X3155024Y3770010D02*
Y3829990D01*
X3185015D01*
X3195011Y3819993D01*
Y3800000D01*
X3185015Y3790003D01*
X3155024D01*
X3175018D02*
X3195011Y3770010D01*
X3215005D02*
X3234999D01*
X3225002D01*
Y3829990D01*
X3215005Y3819993D01*
X3304976Y3829990D02*
X3284982Y3819993D01*
X3264989Y3800000D01*
Y3780006D01*
X3274985Y3770010D01*
X3294979D01*
X3304976Y3780006D01*
Y3790003D01*
X3294979Y3800000D01*
X3264989D01*
X3890023Y2159990D02*
Y2110006D01*
X3900019Y2100010D01*
X3920013D01*
X3930010Y2110006D01*
Y2159990D01*
X3989990Y2100010D02*
X3950003D01*
X3989990Y2139997D01*
Y2149993D01*
X3979994Y2159990D01*
X3960000D01*
X3950003Y2149993D01*
X4009984Y2100010D02*
X4029977D01*
X4019981D01*
Y2159990D01*
X4009984Y2149993D01*
X6986447Y4049990D02*
Y4000006D01*
X6996444Y3990010D01*
X7016438D01*
X7026434Y4000006D01*
Y4049990D01*
X7086415Y3990010D02*
X7046428D01*
X7086415Y4029997D01*
Y4039993D01*
X7076418Y4049990D01*
X7056425D01*
X7046428Y4039993D01*
X7146395Y4049990D02*
X7106408D01*
Y4020000D01*
X7126402Y4029997D01*
X7136399D01*
X7146395Y4020000D01*
Y4000006D01*
X7136399Y3990010D01*
X7116405D01*
X7106408Y4000006D01*
X4260021Y1359990D02*
Y1300010D01*
X4300008D01*
X4320002D02*
X4339995D01*
X4329998D01*
Y1359990D01*
X4320002Y1349993D01*
X4369985Y1300010D02*
X4389979D01*
X4379982D01*
Y1359990D01*
X4369985Y1349993D01*
X5740010Y1990016D02*
X5799990D01*
Y2030003D01*
X5740010Y2049997D02*
Y2089984D01*
X5750007D01*
X5789993Y2049997D01*
X5799990D01*
X4245025Y1719990D02*
Y1660010D01*
X4285011D01*
X4305005D02*
X4324999D01*
X4315002D01*
Y1719990D01*
X4305005Y1709993D01*
X4354989D02*
X4364985Y1719990D01*
X4384979D01*
X4394976Y1709993D01*
Y1699997D01*
X4384979Y1690000D01*
X4374982D01*
X4384979D01*
X4394976Y1680003D01*
Y1670006D01*
X4384979Y1660010D01*
X4364985D01*
X4354989Y1670006D01*
X2570009Y1110016D02*
X2629990D01*
Y1150003D01*
X2580006Y1169997D02*
X2570009Y1179993D01*
Y1199987D01*
X2580006Y1209984D01*
X2590003D01*
X2600000Y1199987D01*
Y1189990D01*
Y1199987D01*
X2609996Y1209984D01*
X2619993D01*
X2629990Y1199987D01*
Y1179993D01*
X2619993Y1169997D01*
X5945024Y3420010D02*
Y3479990D01*
X5975015D01*
X5985011Y3469993D01*
Y3450000D01*
X5975015Y3440003D01*
X5945024D01*
X5965018D02*
X5985011Y3420010D01*
X6005005D02*
X6024999D01*
X6015002D01*
Y3479990D01*
X6005005Y3469993D01*
X6054989D02*
X6064985Y3479990D01*
X6084979D01*
X6094976Y3469993D01*
Y3430006D01*
X6084979Y3420010D01*
X6064985D01*
X6054989Y3430006D01*
Y3469993D01*
X6140007Y2765011D02*
X6130010Y2755015D01*
Y2735021D01*
X6140007Y2725025D01*
X6179994D01*
X6189990Y2735021D01*
Y2755015D01*
X6179994Y2765011D01*
X6189990Y2785005D02*
Y2804999D01*
Y2795002D01*
X6130010D01*
X6140007Y2785005D01*
X6179994Y2834989D02*
X6189990Y2844985D01*
Y2864979D01*
X6179994Y2874976D01*
X6140007D01*
X6130010Y2864979D01*
Y2844985D01*
X6140007Y2834989D01*
X6150003D01*
X6160000Y2844985D01*
Y2874976D01*
X6400007Y2760013D02*
X6390010Y2750016D01*
Y2730023D01*
X6400007Y2720026D01*
X6439994D01*
X6449990Y2730023D01*
Y2750016D01*
X6439994Y2760013D01*
X6449990Y2809997D02*
X6390010D01*
X6420000Y2780007D01*
Y2819994D01*
X6400007Y2839987D02*
X6390010Y2849984D01*
Y2869977D01*
X6400007Y2879974D01*
X6410003D01*
X6420000Y2869977D01*
X6429997Y2879974D01*
X6439994D01*
X6449990Y2869977D01*
Y2849984D01*
X6439994Y2839987D01*
X6429997D01*
X6420000Y2849984D01*
X6410003Y2839987D01*
X6400007D01*
X6420000Y2849984D02*
Y2869977D01*
X3180006Y2740010D02*
X3170009Y2730013D01*
Y2710019D01*
X3180006Y2700023D01*
X3219993D01*
X3229990Y2710019D01*
Y2730013D01*
X3219993Y2740010D01*
X3170009Y2799990D02*
Y2760003D01*
X3200000D01*
X3190003Y2779997D01*
Y2789993D01*
X3200000Y2799990D01*
X3219993D01*
X3229990Y2789993D01*
Y2770000D01*
X3219993Y2760003D01*
X3229990Y2819984D02*
Y2839977D01*
Y2829980D01*
X3170009D01*
X3180006Y2819984D01*
X6900013Y2269952D02*
X6890016Y2279949D01*
X6870023D01*
X6860026Y2269952D01*
Y2229965D01*
X6870023Y2219968D01*
X6890016D01*
X6900013Y2229965D01*
X6920007Y2279949D02*
X6959994D01*
Y2269952D01*
X6920007Y2229965D01*
Y2219968D01*
X6979987Y2269952D02*
X6989984Y2279949D01*
X7009978D01*
X7019974Y2269952D01*
Y2259955D01*
X7009978Y2249959D01*
X6999981D01*
X7009978D01*
X7019974Y2239962D01*
Y2229965D01*
X7009978Y2219968D01*
X6989984D01*
X6979987Y2229965D01*
X6700013Y2269952D02*
X6690016Y2279949D01*
X6670023D01*
X6660026Y2269952D01*
Y2229965D01*
X6670023Y2219968D01*
X6690016D01*
X6700013Y2229965D01*
X6720007Y2279949D02*
X6759994D01*
Y2269952D01*
X6720007Y2229965D01*
Y2219968D01*
X6809977D02*
Y2279949D01*
X6779987Y2249959D01*
X6819974D01*
X6700013Y2169952D02*
X6690016Y2179949D01*
X6670023D01*
X6660026Y2169952D01*
Y2129965D01*
X6670023Y2119968D01*
X6690016D01*
X6700013Y2129965D01*
X6720007Y2179949D02*
X6759994D01*
Y2169952D01*
X6720007Y2129965D01*
Y2119968D01*
X6819974Y2179949D02*
X6779987D01*
Y2149959D01*
X6799981Y2159955D01*
X6809977D01*
X6819974Y2149959D01*
Y2129965D01*
X6809977Y2119968D01*
X6789984D01*
X6779987Y2129965D01*
X6775025Y2494990D02*
Y2445006D01*
X6785021Y2435010D01*
X6805015D01*
X6815012Y2445006D01*
Y2494990D01*
X6835005Y2435010D02*
X6854999D01*
X6845002D01*
Y2494990D01*
X6835005Y2484993D01*
X6924976Y2494990D02*
X6904982Y2484993D01*
X6884989Y2465000D01*
Y2445006D01*
X6894985Y2435010D01*
X6914979D01*
X6924976Y2445006D01*
Y2455003D01*
X6914979Y2465000D01*
X6884989D01*
X3035024Y3554990D02*
Y3505006D01*
X3045021Y3495010D01*
X3065015D01*
X3075011Y3505006D01*
Y3554990D01*
X3095005Y3495010D02*
X3114999D01*
X3105002D01*
Y3554990D01*
X3095005Y3544993D01*
X3144989D02*
X3154985Y3554990D01*
X3174979D01*
X3184976Y3544993D01*
Y3505006D01*
X3174979Y3495010D01*
X3154985D01*
X3144989Y3505006D01*
Y3544993D01*
X2960016Y4029990D02*
Y3980006D01*
X2970013Y3970010D01*
X2990006D01*
X3000003Y3980006D01*
Y4029990D01*
X3059984D02*
X3019997D01*
Y4000000D01*
X3039990Y4009997D01*
X3049987D01*
X3059984Y4000000D01*
Y3980006D01*
X3049987Y3970010D01*
X3029993D01*
X3019997Y3980006D01*
X2472132Y3927149D02*
Y3967136D01*
Y3947143D01*
X2532113D01*
Y3987130D02*
X2472132D01*
Y4017120D01*
X2482129Y4027117D01*
X2502123D01*
X2512119Y4017120D01*
Y3987130D01*
X2482129Y4047111D02*
X2472132Y4057107D01*
Y4077101D01*
X2482129Y4087097D01*
X2492126D01*
X2502123Y4077101D01*
X2512119Y4087097D01*
X2522116D01*
X2532113Y4077101D01*
Y4057107D01*
X2522116Y4047111D01*
X2512119D01*
X2502123Y4057107D01*
X2492126Y4047111D01*
X2482129D01*
X2502123Y4057107D02*
Y4077101D01*
X7799965Y3750010D02*
X7789968Y3740013D01*
Y3720019D01*
X7799965Y3710023D01*
X7839952D01*
X7849949Y3720019D01*
Y3740013D01*
X7839952Y3750010D01*
X7789968Y3770003D02*
Y3809990D01*
X7799965D01*
X7839952Y3770003D01*
X7849949D01*
Y3829984D02*
Y3849977D01*
Y3839980D01*
X7789968D01*
X7799965Y3829984D01*
X6560033Y1920010D02*
Y1979990D01*
X6590023D01*
X6600020Y1969993D01*
Y1950000D01*
X6590023Y1940003D01*
X6560033D01*
X6580026D02*
X6600020Y1920010D01*
X6620013D02*
X6640007D01*
X6630010D01*
Y1979990D01*
X6620013Y1969993D01*
X6669997Y1920010D02*
X6689990D01*
X6679993D01*
Y1979990D01*
X6669997Y1969993D01*
X6749971Y1920010D02*
Y1979990D01*
X6719980Y1950000D01*
X6759967D01*
X6560033Y1820010D02*
Y1879990D01*
X6590023D01*
X6600020Y1869993D01*
Y1850000D01*
X6590023Y1840003D01*
X6560033D01*
X6580026D02*
X6600020Y1820010D01*
X6620013D02*
X6640007D01*
X6630010D01*
Y1879990D01*
X6620013Y1869993D01*
X6669997Y1820010D02*
X6689990D01*
X6679993D01*
Y1879990D01*
X6669997Y1869993D01*
X6759967Y1879990D02*
X6719980D01*
Y1850000D01*
X6739974Y1859997D01*
X6749971D01*
X6759967Y1850000D01*
Y1830007D01*
X6749971Y1820010D01*
X6729977D01*
X6719980Y1830007D01*
X6560033Y1720010D02*
Y1779990D01*
X6590023D01*
X6600020Y1769993D01*
Y1750000D01*
X6590023Y1740003D01*
X6560033D01*
X6580026D02*
X6600020Y1720010D01*
X6620013D02*
X6640007D01*
X6630010D01*
Y1779990D01*
X6620013Y1769993D01*
X6669997Y1720010D02*
X6689990D01*
X6679993D01*
Y1779990D01*
X6669997Y1769993D01*
X6759967Y1779990D02*
X6739974Y1769993D01*
X6719980Y1750000D01*
Y1730006D01*
X6729977Y1720010D01*
X6749971D01*
X6759967Y1730006D01*
Y1740003D01*
X6749971Y1750000D01*
X6719980D01*
X6560033Y1620010D02*
Y1679990D01*
X6590023D01*
X6600020Y1669993D01*
Y1650000D01*
X6590023Y1640003D01*
X6560033D01*
X6580026D02*
X6600020Y1620010D01*
X6620013D02*
X6640007D01*
X6630010D01*
Y1679990D01*
X6620013Y1669993D01*
X6669997Y1620010D02*
X6689990D01*
X6679993D01*
Y1679990D01*
X6669997Y1669993D01*
X6719980Y1679990D02*
X6759967D01*
Y1669993D01*
X6719980Y1630006D01*
Y1620010D01*
X6560033Y1520010D02*
Y1579990D01*
X6590023D01*
X6600020Y1569993D01*
Y1550000D01*
X6590023Y1540003D01*
X6560033D01*
X6580026D02*
X6600020Y1520010D01*
X6620013D02*
X6640007D01*
X6630010D01*
Y1579990D01*
X6620013Y1569993D01*
X6669997Y1520010D02*
X6689990D01*
X6679993D01*
Y1579990D01*
X6669997Y1569993D01*
X6719980D02*
X6729977Y1579990D01*
X6749971D01*
X6759967Y1569993D01*
Y1559997D01*
X6749971Y1550000D01*
X6759967Y1540003D01*
Y1530006D01*
X6749971Y1520010D01*
X6729977D01*
X6719980Y1530006D01*
Y1540003D01*
X6729977Y1550000D01*
X6719980Y1559997D01*
Y1569993D01*
X6729977Y1550000D02*
X6749971D01*
X6560033Y1060010D02*
Y1119990D01*
X6590023D01*
X6600020Y1109993D01*
Y1090000D01*
X6590023Y1080003D01*
X6560033D01*
X6580026D02*
X6600020Y1060010D01*
X6620013D02*
X6640007D01*
X6630010D01*
Y1119990D01*
X6620013Y1109993D01*
X6669997Y1060010D02*
X6689990D01*
X6679993D01*
Y1119990D01*
X6669997Y1109993D01*
X6719980Y1070006D02*
X6729977Y1060010D01*
X6749971D01*
X6759967Y1070006D01*
Y1109993D01*
X6749971Y1119990D01*
X6729977D01*
X6719980Y1109993D01*
Y1099997D01*
X6729977Y1090000D01*
X6759967D01*
X6555034Y960010D02*
Y1019990D01*
X6585024D01*
X6595021Y1009993D01*
Y990000D01*
X6585024Y980003D01*
X6555034D01*
X6575028D02*
X6595021Y960010D01*
X6615015D02*
X6635008D01*
X6625011D01*
Y1019990D01*
X6615015Y1009993D01*
X6704985Y960010D02*
X6664998D01*
X6704985Y999997D01*
Y1009993D01*
X6694989Y1019990D01*
X6674995D01*
X6664998Y1009993D01*
X6724979D02*
X6734976Y1019990D01*
X6754969D01*
X6764966Y1009993D01*
Y970006D01*
X6754969Y960010D01*
X6734976D01*
X6724979Y970006D01*
Y1009993D01*
X6565031Y860010D02*
Y919990D01*
X6595021D01*
X6605018Y909993D01*
Y890000D01*
X6595021Y880003D01*
X6565031D01*
X6585024D02*
X6605018Y860010D01*
X6625011D02*
X6645005D01*
X6635008D01*
Y919990D01*
X6625011Y909993D01*
X6714982Y860010D02*
X6674995D01*
X6714982Y899997D01*
Y909993D01*
X6704985Y919990D01*
X6684992D01*
X6674995Y909993D01*
X6734976Y860010D02*
X6754969D01*
X6744972D01*
Y919990D01*
X6734976Y909993D01*
X6555034Y760010D02*
Y819990D01*
X6585024D01*
X6595021Y809993D01*
Y790000D01*
X6585024Y780003D01*
X6555034D01*
X6575028D02*
X6595021Y760010D01*
X6615015D02*
X6635008D01*
X6625011D01*
Y819990D01*
X6615015Y809993D01*
X6704985Y760010D02*
X6664998D01*
X6704985Y799997D01*
Y809993D01*
X6694989Y819990D01*
X6674995D01*
X6664998Y809993D01*
X6764966Y760010D02*
X6724979D01*
X6764966Y799997D01*
Y809993D01*
X6754969Y819990D01*
X6734976D01*
X6724979Y809993D01*
X6555034Y1160010D02*
Y1219990D01*
X6585024D01*
X6595021Y1209993D01*
Y1190000D01*
X6585024Y1180003D01*
X6555034D01*
X6575028D02*
X6595021Y1160010D01*
X6615015D02*
X6635008D01*
X6625011D01*
Y1219990D01*
X6615015Y1209993D01*
X6704985Y1160010D02*
X6664998D01*
X6704985Y1199997D01*
Y1209993D01*
X6694989Y1219990D01*
X6674995D01*
X6664998Y1209993D01*
X6724979D02*
X6734976Y1219990D01*
X6754969D01*
X6764966Y1209993D01*
Y1199997D01*
X6754969Y1190000D01*
X6744973D01*
X6754969D01*
X6764966Y1180003D01*
Y1170006D01*
X6754969Y1160010D01*
X6734976D01*
X6724979Y1170006D01*
X7270048Y4675021D02*
X7260051Y4665024D01*
Y4645031D01*
X7270048Y4635034D01*
X7310035D01*
X7320031Y4645031D01*
Y4665024D01*
X7310035Y4675021D01*
X7320031Y4695015D02*
Y4715008D01*
Y4705011D01*
X7260051D01*
X7270048Y4695015D01*
X7320031Y4784985D02*
Y4744998D01*
X7280044Y4784985D01*
X7270048D01*
X7260051Y4774989D01*
Y4754995D01*
X7270048Y4744998D01*
X7310035Y4804979D02*
X7320031Y4814976D01*
Y4834969D01*
X7310035Y4844966D01*
X7270048D01*
X7260051Y4834969D01*
Y4814976D01*
X7270048Y4804979D01*
X7280044D01*
X7290041Y4814976D01*
Y4844966D01*
X7005026Y4595492D02*
Y4545508D01*
X7015023Y4535512D01*
X7035016D01*
X7045013Y4545508D01*
Y4595492D01*
X7065007Y4585495D02*
X7075003Y4595492D01*
X7094997D01*
X7104994Y4585495D01*
Y4575499D01*
X7094997Y4565502D01*
X7085000D01*
X7094997D01*
X7104994Y4555505D01*
Y4545508D01*
X7094997Y4535512D01*
X7075003D01*
X7065007Y4545508D01*
X7124987Y4585495D02*
X7134984Y4595492D01*
X7154978D01*
X7164974Y4585495D01*
Y4545508D01*
X7154978Y4535512D01*
X7134984D01*
X7124987Y4545508D01*
Y4585495D01*
%TF.MD5,3a90af4f98343674f1db1b3266dbe2c7*%
M02*
