%TF.GenerationSoftware,Altium Limited,Altium Designer,21.2.2 (38)*%
G04 Layer_Color=8421504*
%FSLAX45Y45*%
%MOMM*%
%TF.SameCoordinates,D1C1B47B-FFDC-44FD-B647-F1046EBF8E97*%
%TF.FilePolarity,Positive*%
%TF.FileFunction,Paste,Top*%
%TF.Part,Single*%
G01*
G75*
%TA.AperFunction,SMDPad,CuDef*%
G04:AMPARAMS|DCode=13|XSize=0.5mm|YSize=0.5mm|CornerRadius=0.125mm|HoleSize=0mm|Usage=FLASHONLY|Rotation=270.000|XOffset=0mm|YOffset=0mm|HoleType=Round|Shape=RoundedRectangle|*
%AMROUNDEDRECTD13*
21,1,0.50000,0.25000,0,0,270.0*
21,1,0.25000,0.50000,0,0,270.0*
1,1,0.25000,-0.12500,-0.12500*
1,1,0.25000,-0.12500,0.12500*
1,1,0.25000,0.12500,0.12500*
1,1,0.25000,0.12500,-0.12500*
%
%ADD13ROUNDEDRECTD13*%
G04:AMPARAMS|DCode=21|XSize=0.5mm|YSize=0.5mm|CornerRadius=0.125mm|HoleSize=0mm|Usage=FLASHONLY|Rotation=180.000|XOffset=0mm|YOffset=0mm|HoleType=Round|Shape=RoundedRectangle|*
%AMROUNDEDRECTD21*
21,1,0.50000,0.25000,0,0,180.0*
21,1,0.25000,0.50000,0,0,180.0*
1,1,0.25000,-0.12500,0.12500*
1,1,0.25000,0.12500,0.12500*
1,1,0.25000,0.12500,-0.12500*
1,1,0.25000,-0.12500,-0.12500*
%
%ADD21ROUNDEDRECTD21*%
G04:AMPARAMS|DCode=47|XSize=0.6mm|YSize=0.7mm|CornerRadius=0.15mm|HoleSize=0mm|Usage=FLASHONLY|Rotation=0.000|XOffset=0mm|YOffset=0mm|HoleType=Round|Shape=RoundedRectangle|*
%AMROUNDEDRECTD47*
21,1,0.60000,0.40000,0,0,0.0*
21,1,0.30000,0.70000,0,0,0.0*
1,1,0.30000,0.15000,-0.20000*
1,1,0.30000,-0.15000,-0.20000*
1,1,0.30000,-0.15000,0.20000*
1,1,0.30000,0.15000,0.20000*
%
%ADD47ROUNDEDRECTD47*%
%ADD50R,2.20000X0.70000*%
G04:AMPARAMS|DCode=51|XSize=2.2mm|YSize=0.7mm|CornerRadius=0.175mm|HoleSize=0mm|Usage=FLASHONLY|Rotation=180.000|XOffset=0mm|YOffset=0mm|HoleType=Round|Shape=RoundedRectangle|*
%AMROUNDEDRECTD51*
21,1,2.20000,0.35000,0,0,180.0*
21,1,1.85000,0.70000,0,0,180.0*
1,1,0.35000,-0.92500,0.17500*
1,1,0.35000,0.92500,0.17500*
1,1,0.35000,0.92500,-0.17500*
1,1,0.35000,-0.92500,-0.17500*
%
%ADD51ROUNDEDRECTD51*%
G04:AMPARAMS|DCode=52|XSize=2mm|YSize=1.1mm|CornerRadius=0.275mm|HoleSize=0mm|Usage=FLASHONLY|Rotation=180.000|XOffset=0mm|YOffset=0mm|HoleType=Round|Shape=RoundedRectangle|*
%AMROUNDEDRECTD52*
21,1,2.00000,0.55000,0,0,180.0*
21,1,1.45000,1.10000,0,0,180.0*
1,1,0.55000,-0.72500,0.27500*
1,1,0.55000,0.72500,0.27500*
1,1,0.55000,0.72500,-0.27500*
1,1,0.55000,-0.72500,-0.27500*
%
%ADD52ROUNDEDRECTD52*%
%ADD62R,0.70000X0.50000*%
%TA.AperFunction,NonConductor*%
%ADD97C,0.25000*%
%ADD120R,0.65000X0.40000*%
%ADD121R,0.60000X0.60000*%
%ADD122R,0.50000X0.30000*%
%ADD123R,0.40000X0.50000*%
%ADD124R,0.30000X0.55000*%
%ADD125R,0.55000X1.70000*%
%ADD126R,0.80000X0.60000*%
%ADD127R,0.55000X0.30000*%
%ADD128R,0.55000X0.30000*%
%ADD129R,0.70000X0.60000*%
%ADD130R,0.70000X0.60000*%
%ADD131R,0.40000X0.65000*%
%ADD132R,0.30000X0.50000*%
%ADD133R,0.30000X0.55000*%
%ADD134R,0.60000X0.70000*%
%ADD135R,0.60000X0.70000*%
%ADD136R,1.70000X0.55000*%
%TA.AperFunction,SMDPad,CuDef*%
G04:AMPARAMS|DCode=137|XSize=0.5mm|YSize=0.7mm|CornerRadius=0.1mm|HoleSize=0mm|Usage=FLASHONLY|Rotation=270.000|XOffset=0mm|YOffset=0mm|HoleType=Round|Shape=RoundedRectangle|*
%AMROUNDEDRECTD137*
21,1,0.50000,0.50000,0,0,270.0*
21,1,0.30000,0.70000,0,0,270.0*
1,1,0.20000,-0.25000,-0.15000*
1,1,0.20000,-0.25000,0.15000*
1,1,0.20000,0.25000,0.15000*
1,1,0.20000,0.25000,-0.15000*
%
%ADD137ROUNDEDRECTD137*%
G04:AMPARAMS|DCode=138|XSize=0.7mm|YSize=0.7mm|CornerRadius=0.15mm|HoleSize=0mm|Usage=FLASHONLY|Rotation=90.000|XOffset=0mm|YOffset=0mm|HoleType=Round|Shape=RoundedRectangle|*
%AMROUNDEDRECTD138*
21,1,0.70000,0.40000,0,0,90.0*
21,1,0.40000,0.70000,0,0,90.0*
1,1,0.30000,0.20000,0.20000*
1,1,0.30000,0.20000,-0.20000*
1,1,0.30000,-0.20000,-0.20000*
1,1,0.30000,-0.20000,0.20000*
%
%ADD138ROUNDEDRECTD138*%
G04:AMPARAMS|DCode=139|XSize=0.45mm|YSize=0.8mm|CornerRadius=0.0875mm|HoleSize=0mm|Usage=FLASHONLY|Rotation=90.000|XOffset=0mm|YOffset=0mm|HoleType=Round|Shape=RoundedRectangle|*
%AMROUNDEDRECTD139*
21,1,0.45000,0.62500,0,0,90.0*
21,1,0.27500,0.80000,0,0,90.0*
1,1,0.17500,0.31250,0.13750*
1,1,0.17500,0.31250,-0.13750*
1,1,0.17500,-0.31250,-0.13750*
1,1,0.17500,-0.31250,0.13750*
%
%ADD139ROUNDEDRECTD139*%
%ADD140R,0.80000X0.45000*%
G04:AMPARAMS|DCode=141|XSize=0.45mm|YSize=0.8mm|CornerRadius=0.0875mm|HoleSize=0mm|Usage=FLASHONLY|Rotation=0.000|XOffset=0mm|YOffset=0mm|HoleType=Round|Shape=RoundedRectangle|*
%AMROUNDEDRECTD141*
21,1,0.45000,0.62500,0,0,0.0*
21,1,0.27500,0.80000,0,0,0.0*
1,1,0.17500,0.13750,-0.31250*
1,1,0.17500,-0.13750,-0.31250*
1,1,0.17500,-0.13750,0.31250*
1,1,0.17500,0.13750,0.31250*
%
%ADD141ROUNDEDRECTD141*%
%ADD142R,0.45000X0.80000*%
G04:AMPARAMS|DCode=143|XSize=2.7mm|YSize=1.2mm|CornerRadius=0.275mm|HoleSize=0mm|Usage=FLASHONLY|Rotation=90.000|XOffset=0mm|YOffset=0mm|HoleType=Round|Shape=RoundedRectangle|*
%AMROUNDEDRECTD143*
21,1,2.70000,0.65000,0,0,90.0*
21,1,2.15000,1.20000,0,0,90.0*
1,1,0.55000,0.32500,1.07500*
1,1,0.55000,0.32500,-1.07500*
1,1,0.55000,-0.32500,-1.07500*
1,1,0.55000,-0.32500,1.07500*
%
%ADD143ROUNDEDRECTD143*%
G04:AMPARAMS|DCode=144|XSize=0.8mm|YSize=0.7mm|CornerRadius=0.15mm|HoleSize=0mm|Usage=FLASHONLY|Rotation=180.000|XOffset=0mm|YOffset=0mm|HoleType=Round|Shape=RoundedRectangle|*
%AMROUNDEDRECTD144*
21,1,0.80000,0.40000,0,0,180.0*
21,1,0.50000,0.70000,0,0,180.0*
1,1,0.30000,-0.25000,0.20000*
1,1,0.30000,0.25000,0.20000*
1,1,0.30000,0.25000,-0.20000*
1,1,0.30000,-0.25000,-0.20000*
%
%ADD144ROUNDEDRECTD144*%
G04:AMPARAMS|DCode=145|XSize=2.7mm|YSize=1.2mm|CornerRadius=0.275mm|HoleSize=0mm|Usage=FLASHONLY|Rotation=180.000|XOffset=0mm|YOffset=0mm|HoleType=Round|Shape=RoundedRectangle|*
%AMROUNDEDRECTD145*
21,1,2.70000,0.65000,0,0,180.0*
21,1,2.15000,1.20000,0,0,180.0*
1,1,0.55000,-1.07500,0.32500*
1,1,0.55000,1.07500,0.32500*
1,1,0.55000,1.07500,-0.32500*
1,1,0.55000,-1.07500,-0.32500*
%
%ADD145ROUNDEDRECTD145*%
%ADD146R,0.60000X0.40000*%
G04:AMPARAMS|DCode=147|XSize=0.4mm|YSize=0.6mm|CornerRadius=0.075mm|HoleSize=0mm|Usage=FLASHONLY|Rotation=90.000|XOffset=0mm|YOffset=0mm|HoleType=Round|Shape=RoundedRectangle|*
%AMROUNDEDRECTD147*
21,1,0.40000,0.45000,0,0,90.0*
21,1,0.25000,0.60000,0,0,90.0*
1,1,0.15000,0.22500,0.12500*
1,1,0.15000,0.22500,-0.12500*
1,1,0.15000,-0.22500,-0.12500*
1,1,0.15000,-0.22500,0.12500*
%
%ADD147ROUNDEDRECTD147*%
%ADD148R,0.70000X0.70000*%
%ADD149R,0.40000X0.60000*%
G04:AMPARAMS|DCode=150|XSize=0.4mm|YSize=0.6mm|CornerRadius=0.075mm|HoleSize=0mm|Usage=FLASHONLY|Rotation=0.000|XOffset=0mm|YOffset=0mm|HoleType=Round|Shape=RoundedRectangle|*
%AMROUNDEDRECTD150*
21,1,0.40000,0.45000,0,0,0.0*
21,1,0.25000,0.60000,0,0,0.0*
1,1,0.15000,0.12500,-0.22500*
1,1,0.15000,-0.12500,-0.22500*
1,1,0.15000,-0.12500,0.22500*
1,1,0.15000,0.12500,0.22500*
%
%ADD150ROUNDEDRECTD150*%
G04:AMPARAMS|DCode=151|XSize=0.9mm|YSize=0.9mm|CornerRadius=0.175mm|HoleSize=0mm|Usage=FLASHONLY|Rotation=180.000|XOffset=0mm|YOffset=0mm|HoleType=Round|Shape=RoundedRectangle|*
%AMROUNDEDRECTD151*
21,1,0.90000,0.55000,0,0,180.0*
21,1,0.55000,0.90000,0,0,180.0*
1,1,0.35000,-0.27500,0.27500*
1,1,0.35000,0.27500,0.27500*
1,1,0.35000,0.27500,-0.27500*
1,1,0.35000,-0.27500,-0.27500*
%
%ADD151ROUNDEDRECTD151*%
%ADD152R,0.90000X0.90000*%
G04:AMPARAMS|DCode=153|XSize=1.45mm|YSize=1.05mm|CornerRadius=0.2125mm|HoleSize=0mm|Usage=FLASHONLY|Rotation=270.000|XOffset=0mm|YOffset=0mm|HoleType=Round|Shape=RoundedRectangle|*
%AMROUNDEDRECTD153*
21,1,1.45000,0.62500,0,0,270.0*
21,1,1.02500,1.05000,0,0,270.0*
1,1,0.42500,-0.31250,-0.51250*
1,1,0.42500,-0.31250,0.51250*
1,1,0.42500,0.31250,0.51250*
1,1,0.42500,0.31250,-0.51250*
%
%ADD153ROUNDEDRECTD153*%
G04:AMPARAMS|DCode=154|XSize=1.45mm|YSize=1.05mm|CornerRadius=0.2125mm|HoleSize=0mm|Usage=FLASHONLY|Rotation=0.000|XOffset=0mm|YOffset=0mm|HoleType=Round|Shape=RoundedRectangle|*
%AMROUNDEDRECTD154*
21,1,1.45000,0.62500,0,0,0.0*
21,1,1.02500,1.05000,0,0,0.0*
1,1,0.42500,0.51250,-0.31250*
1,1,0.42500,-0.51250,-0.31250*
1,1,0.42500,-0.51250,0.31250*
1,1,0.42500,0.51250,0.31250*
%
%ADD154ROUNDEDRECTD154*%
G04:AMPARAMS|DCode=155|XSize=0.7mm|YSize=0.7mm|CornerRadius=0.15mm|HoleSize=0mm|Usage=FLASHONLY|Rotation=180.000|XOffset=0mm|YOffset=0mm|HoleType=Round|Shape=RoundedRectangle|*
%AMROUNDEDRECTD155*
21,1,0.70000,0.40000,0,0,180.0*
21,1,0.40000,0.70000,0,0,180.0*
1,1,0.30000,-0.20000,0.20000*
1,1,0.30000,0.20000,0.20000*
1,1,0.30000,0.20000,-0.20000*
1,1,0.30000,-0.20000,-0.20000*
%
%ADD155ROUNDEDRECTD155*%
D13*
X3610000Y3530000D02*
D03*
X3510000D02*
D03*
X5720000Y3820000D02*
D03*
X5620000D02*
D03*
X6790000Y2250000D02*
D03*
X6690000D02*
D03*
Y2150000D02*
D03*
X6790000D02*
D03*
X6890000Y2250000D02*
D03*
X6990000D02*
D03*
X6890000Y2150000D02*
D03*
X6990000D02*
D03*
X3050000Y2700000D02*
D03*
X2950000D02*
D03*
X3170000Y3800000D02*
D03*
X3270000D02*
D03*
X3850000Y2700000D02*
D03*
X3750000D02*
D03*
X6070000Y3450000D02*
D03*
X5970000D02*
D03*
X3110000Y2050000D02*
D03*
X3210000D02*
D03*
X6790000Y1550000D02*
D03*
X6890000D02*
D03*
X5040000Y4280000D02*
D03*
X5140000D02*
D03*
X3860000Y1580000D02*
D03*
X3760000D02*
D03*
X3760000Y1480000D02*
D03*
X3860000D02*
D03*
X6790000Y1190000D02*
D03*
X6890000D02*
D03*
X6790000Y790000D02*
D03*
X6890000D02*
D03*
X6790000Y890000D02*
D03*
X6890000D02*
D03*
X6790000Y990000D02*
D03*
X6890000D02*
D03*
X6790000Y1090000D02*
D03*
X6890000D02*
D03*
X6790000Y1650000D02*
D03*
X6890000D02*
D03*
X6790000Y1750000D02*
D03*
X6890000D02*
D03*
X6790000Y1850000D02*
D03*
X6890000D02*
D03*
X6790000Y1950000D02*
D03*
X6890000D02*
D03*
X1920000Y1550000D02*
D03*
X1820000D02*
D03*
X1820000Y1450000D02*
D03*
X1920000D02*
D03*
X5210000Y2230000D02*
D03*
X5310000D02*
D03*
X3660000Y3660000D02*
D03*
X3560000D02*
D03*
X3080000Y4310000D02*
D03*
X2980000D02*
D03*
X2760000Y2400000D02*
D03*
X2860000D02*
D03*
X3370000Y2280000D02*
D03*
X3470000D02*
D03*
X2760000Y2300000D02*
D03*
X2860000D02*
D03*
X2860000Y2200000D02*
D03*
X2760000D02*
D03*
X3660000Y3430000D02*
D03*
X3560000D02*
D03*
X4220000Y3390000D02*
D03*
X4320000D02*
D03*
Y2960000D02*
D03*
X4420000D02*
D03*
X4940000Y3100000D02*
D03*
X5040000D02*
D03*
X4050000Y2700000D02*
D03*
X3950000D02*
D03*
X2880000Y3540000D02*
D03*
X2780000D02*
D03*
X4420000Y2700000D02*
D03*
X4320000D02*
D03*
X6120000Y4240000D02*
D03*
X6220000D02*
D03*
X4930000Y4280000D02*
D03*
X4830000D02*
D03*
X3730000Y2380000D02*
D03*
X3830000D02*
D03*
X6210000Y3860000D02*
D03*
X6310000D02*
D03*
X5090000Y2230000D02*
D03*
X4990000D02*
D03*
X3280000Y4290000D02*
D03*
X3380000D02*
D03*
X3480000D02*
D03*
X3580000D02*
D03*
X3080000Y3790000D02*
D03*
X2980000D02*
D03*
X2780000D02*
D03*
X2880000D02*
D03*
X3080000Y4210000D02*
D03*
X2980000D02*
D03*
X6320000Y3090000D02*
D03*
X6420000D02*
D03*
X6320000Y3190000D02*
D03*
X6420000D02*
D03*
X3470000Y2410000D02*
D03*
X3370000D02*
D03*
X2780000Y3430000D02*
D03*
X2880000D02*
D03*
X4340000Y3560000D02*
D03*
X4240000D02*
D03*
X4340000Y3760000D02*
D03*
X4240000D02*
D03*
X4340000Y3660000D02*
D03*
X4240000D02*
D03*
X3450000Y3630000D02*
D03*
X3350000D02*
D03*
X8190000Y2680000D02*
D03*
X8290000D02*
D03*
X3400000Y3330000D02*
D03*
X3500000D02*
D03*
X3400000Y3230000D02*
D03*
X3500000D02*
D03*
X4420000Y3190000D02*
D03*
X4320000D02*
D03*
X4420000Y3290000D02*
D03*
X4320000D02*
D03*
X3400000Y2960000D02*
D03*
X3500000D02*
D03*
X2880000Y3640000D02*
D03*
X2780000D02*
D03*
X6230000Y3090000D02*
D03*
X6130000D02*
D03*
X6230000Y3190000D02*
D03*
X6130000D02*
D03*
X6790000Y2050000D02*
D03*
X6890000D02*
D03*
X1820000Y1350000D02*
D03*
X1920000D02*
D03*
X8290000Y2780000D02*
D03*
X8190000D02*
D03*
X3960000Y920000D02*
D03*
X3860000D02*
D03*
X3510000Y1660000D02*
D03*
X3610000D02*
D03*
X3500000Y1790000D02*
D03*
X3600000D02*
D03*
X3320000Y1090000D02*
D03*
X3220000D02*
D03*
Y1190000D02*
D03*
X3320000D02*
D03*
X5520000Y2210000D02*
D03*
X5420000D02*
D03*
X4420000Y2820000D02*
D03*
X4320000D02*
D03*
X7090000Y4280000D02*
D03*
X6990000D02*
D03*
X6720000Y3510000D02*
D03*
X6820000D02*
D03*
X6790000Y690000D02*
D03*
X6890000D02*
D03*
X5990000Y2730000D02*
D03*
X5890000D02*
D03*
X5990000Y2830000D02*
D03*
X5890000D02*
D03*
X5990000Y3070000D02*
D03*
X5890000D02*
D03*
X5100000Y3510000D02*
D03*
X5000000D02*
D03*
D21*
X7820000Y3730000D02*
D03*
Y3830000D02*
D03*
X7160000Y1190000D02*
D03*
Y1290000D02*
D03*
X7150000Y1930000D02*
D03*
Y2030000D02*
D03*
X7120000Y2300000D02*
D03*
Y2400000D02*
D03*
X6440000Y1350000D02*
D03*
Y1450000D02*
D03*
X6240000Y1350000D02*
D03*
Y1450000D02*
D03*
X6440000Y2160000D02*
D03*
Y2260000D02*
D03*
X6240000Y2160000D02*
D03*
Y2260000D02*
D03*
X7430000Y690000D02*
D03*
Y790000D02*
D03*
X7320000Y690000D02*
D03*
Y790000D02*
D03*
X5520000Y700000D02*
D03*
Y800000D02*
D03*
X5410000Y700000D02*
D03*
Y800000D02*
D03*
X5300000Y700000D02*
D03*
Y800000D02*
D03*
X5020000Y700000D02*
D03*
Y800000D02*
D03*
X5360000Y4780000D02*
D03*
Y4680000D02*
D03*
X4880000Y700000D02*
D03*
Y800000D02*
D03*
X4070000Y700000D02*
D03*
Y800000D02*
D03*
X3930000Y800000D02*
D03*
Y700000D02*
D03*
X4000000Y4770000D02*
D03*
Y4670000D02*
D03*
X4130000Y4670000D02*
D03*
Y4770000D02*
D03*
X3640000Y4770000D02*
D03*
Y4670000D02*
D03*
X3770000Y4670000D02*
D03*
Y4770000D02*
D03*
X7440000Y4770000D02*
D03*
Y4670000D02*
D03*
X7550000Y4670000D02*
D03*
Y4770000D02*
D03*
X7200000Y4770000D02*
D03*
Y4670000D02*
D03*
X7310000Y4670000D02*
D03*
Y4770000D02*
D03*
X6960000Y4770000D02*
D03*
Y4670000D02*
D03*
X7070000Y4670000D02*
D03*
Y4770000D02*
D03*
X6720000Y4770000D02*
D03*
Y4670000D02*
D03*
X6830000Y4670000D02*
D03*
Y4770000D02*
D03*
X5470000Y4680000D02*
D03*
Y4780000D02*
D03*
X5700000Y4780000D02*
D03*
Y4680000D02*
D03*
X5250000Y4680000D02*
D03*
Y4780000D02*
D03*
X5740000Y800000D02*
D03*
Y700000D02*
D03*
X5630000Y700000D02*
D03*
Y800000D02*
D03*
X3970000Y1480000D02*
D03*
Y1580000D02*
D03*
X5250000Y4250000D02*
D03*
Y4150000D02*
D03*
X3950000Y1330000D02*
D03*
Y1230000D02*
D03*
X7640000Y4340000D02*
D03*
Y4440000D02*
D03*
X7820000Y4340000D02*
D03*
Y4440000D02*
D03*
X5590000Y4680000D02*
D03*
Y4780000D02*
D03*
X4180000Y800000D02*
D03*
Y700000D02*
D03*
X3820000Y800000D02*
D03*
Y700000D02*
D03*
X5130000Y800000D02*
D03*
Y700000D02*
D03*
X4770000Y800000D02*
D03*
Y700000D02*
D03*
X3870000Y4670000D02*
D03*
Y4770000D02*
D03*
X3540000Y4670000D02*
D03*
Y4770000D02*
D03*
X4230000Y4670000D02*
D03*
Y4770000D02*
D03*
X1860000Y700000D02*
D03*
Y800000D02*
D03*
X2130000Y1980000D02*
D03*
Y1880000D02*
D03*
X3410000Y4770000D02*
D03*
Y4670000D02*
D03*
X6070000Y3660000D02*
D03*
Y3560000D02*
D03*
X2190000Y2080000D02*
D03*
Y2180000D02*
D03*
X5030000Y1230000D02*
D03*
Y1330000D02*
D03*
X2190000Y2380000D02*
D03*
Y2280000D02*
D03*
X5030000Y1030000D02*
D03*
Y1130000D02*
D03*
X2570000Y1850000D02*
D03*
Y1950000D02*
D03*
X5850000Y700000D02*
D03*
Y800000D02*
D03*
X4400000Y3980000D02*
D03*
Y3880000D02*
D03*
X2880000Y4210000D02*
D03*
Y4310000D02*
D03*
X3460000Y3910000D02*
D03*
Y3810000D02*
D03*
X5930000Y4680000D02*
D03*
Y4780000D02*
D03*
X3180000Y4670000D02*
D03*
Y4770000D02*
D03*
X5820000Y4680000D02*
D03*
Y4780000D02*
D03*
X3080000Y4670000D02*
D03*
Y4770000D02*
D03*
X4320000Y700000D02*
D03*
Y800000D02*
D03*
X4430000Y700000D02*
D03*
Y800000D02*
D03*
X3310000Y4670000D02*
D03*
Y4770000D02*
D03*
X4850000Y3710000D02*
D03*
Y3610000D02*
D03*
X3180000Y4310000D02*
D03*
Y4210000D02*
D03*
X7560000Y3380000D02*
D03*
Y3280000D02*
D03*
X6140000Y1350000D02*
D03*
Y1450000D02*
D03*
X7660000Y3380000D02*
D03*
Y3280000D02*
D03*
X6140000Y2160000D02*
D03*
Y2260000D02*
D03*
X4840000Y3130000D02*
D03*
Y3230000D02*
D03*
X5510000Y3820000D02*
D03*
Y3720000D02*
D03*
X2630000Y2380000D02*
D03*
Y2280000D02*
D03*
X4920000Y1560000D02*
D03*
Y1460000D02*
D03*
X2780000Y2810000D02*
D03*
Y2910000D02*
D03*
X5540000Y1070000D02*
D03*
Y1170000D02*
D03*
X5550000Y2040000D02*
D03*
Y1940000D02*
D03*
X4880000Y2030000D02*
D03*
Y1930000D02*
D03*
X2780000Y3000000D02*
D03*
Y3100000D02*
D03*
X2780000Y3290000D02*
D03*
Y3190000D02*
D03*
X4340000Y4670000D02*
D03*
Y4770000D02*
D03*
X4400000Y4210000D02*
D03*
Y4310000D02*
D03*
X3580000Y3830000D02*
D03*
Y3930000D02*
D03*
X2780000Y4310000D02*
D03*
Y4210000D02*
D03*
X3360000Y3910000D02*
D03*
Y3810000D02*
D03*
X7890000Y1080000D02*
D03*
Y980000D02*
D03*
X3350000Y3430000D02*
D03*
Y3530000D02*
D03*
X4430000Y3560000D02*
D03*
Y3460000D02*
D03*
X3660000Y800000D02*
D03*
Y700000D02*
D03*
X4610000Y800000D02*
D03*
Y700000D02*
D03*
X7920000Y4440000D02*
D03*
Y4340000D02*
D03*
X3200000Y2990000D02*
D03*
Y3090000D02*
D03*
Y3290000D02*
D03*
Y3190000D02*
D03*
X3840000Y1320000D02*
D03*
Y1220000D02*
D03*
X3220000Y1300000D02*
D03*
Y1400000D02*
D03*
X4060000Y1330000D02*
D03*
Y1230000D02*
D03*
X4940000Y3330000D02*
D03*
Y3230000D02*
D03*
X7120000Y2790000D02*
D03*
Y2690000D02*
D03*
X7150000Y1660000D02*
D03*
Y1560000D02*
D03*
X6810000Y3910000D02*
D03*
Y3810000D02*
D03*
X7780000Y3380000D02*
D03*
Y3280000D02*
D03*
X6340000Y2160000D02*
D03*
Y2260000D02*
D03*
Y1350000D02*
D03*
Y1450000D02*
D03*
X6540000D02*
D03*
Y1350000D02*
D03*
X6540000Y2260000D02*
D03*
Y2160000D02*
D03*
X4950000Y2880000D02*
D03*
Y2780000D02*
D03*
X5050000Y2880000D02*
D03*
Y2780000D02*
D03*
X5950000Y3940000D02*
D03*
Y4040000D02*
D03*
X5310000Y3720000D02*
D03*
Y3820000D02*
D03*
X5410000Y3720000D02*
D03*
Y3820000D02*
D03*
X5220000Y3610000D02*
D03*
Y3710000D02*
D03*
X5130000D02*
D03*
Y3610000D02*
D03*
X5030000Y3610000D02*
D03*
Y3710000D02*
D03*
X5250000Y3960000D02*
D03*
Y4060000D02*
D03*
D47*
X2140000Y1300000D02*
D03*
X2045000Y1520000D02*
D03*
X2235000D02*
D03*
X2350000Y1760000D02*
D03*
X2255000Y1980000D02*
D03*
X2445000D02*
D03*
X1920000Y1670000D02*
D03*
X1825000Y1890000D02*
D03*
X2015000D02*
D03*
D50*
X1620000Y1200000D02*
D03*
D51*
Y1350000D02*
D03*
Y1500000D02*
D03*
Y1650000D02*
D03*
D52*
X1270000Y1845000D02*
D03*
Y1005000D02*
D03*
D62*
X3237500Y3435000D02*
D03*
X6967500Y2375000D02*
D03*
D97*
X2547423Y4114599D02*
G03*
X2534426Y4137110I-37423J-6599D01*
G01*
X2485640D02*
G03*
X2472644Y4114599I24426J-29110D01*
G01*
X2497012Y4084292D02*
G03*
X2523005Y4084292I12997J35708D01*
G01*
X2472577Y3903401D02*
G03*
X2485574Y3880890I37423J6599D01*
G01*
X2534426D02*
G03*
X2547423Y3903401I-24426J29110D01*
G01*
X2522997Y3945708D02*
G03*
X2497003Y3945708I-12997J-35708D01*
G01*
X5355401Y2727423D02*
G03*
X5332890Y2714426I6599J-37423D01*
G01*
Y2665640D02*
G03*
X5355401Y2652644I29110J24426D01*
G01*
X5385708Y2677011D02*
G03*
X5385708Y2703005I-35708J12997D01*
G01*
X5566599Y2652577D02*
G03*
X5589110Y2665574I-6599J37423D01*
G01*
Y2714426D02*
G03*
X5566599Y2727423I-29110J-24426D01*
G01*
X5524292Y2702997D02*
G03*
X5524292Y2677003I35708J-12997D01*
G01*
X4014599Y3722577D02*
G03*
X4037110Y3735574I-6599J37423D01*
G01*
Y3784359D02*
G03*
X4014599Y3797356I-29110J-24426D01*
G01*
X3984292Y3772988D02*
G03*
X3984292Y3746995I35708J-12997D01*
G01*
X3803401Y3797422D02*
G03*
X3780890Y3784426I6599J-37423D01*
G01*
Y3735574D02*
G03*
X3803401Y3722577I29110J24426D01*
G01*
X3845708Y3747003D02*
G03*
X3845708Y3772997I-35708J12997D01*
G01*
X3435401Y2747422D02*
G03*
X3412890Y2734426I6599J-37423D01*
G01*
Y2685640D02*
G03*
X3435401Y2672644I29110J24426D01*
G01*
X3465708Y2697011D02*
G03*
X3465708Y2723005I-35708J12997D01*
G01*
X3646599Y2672577D02*
G03*
X3669110Y2685574I-6599J37423D01*
G01*
Y2734426D02*
G03*
X3646599Y2747422I-29110J-24426D01*
G01*
X3604292Y2722997D02*
G03*
X3604292Y2697003I35708J-12997D01*
G01*
X5425401Y3367423D02*
G03*
X5402890Y3354426I6599J-37423D01*
G01*
Y3305640D02*
G03*
X5425401Y3292644I29110J24426D01*
G01*
X5455708Y3317011D02*
G03*
X5455708Y3343005I-35708J12997D01*
G01*
X5636599Y3292577D02*
G03*
X5659110Y3305574I-6599J37423D01*
G01*
Y3354426D02*
G03*
X5636599Y3367423I-29110J-24426D01*
G01*
X5594292Y3342997D02*
G03*
X5594292Y3317003I35708J-12997D01*
G01*
X5954599Y4242577D02*
G03*
X5977110Y4255574I-6599J37423D01*
G01*
Y4304360D02*
G03*
X5954599Y4317356I-29110J-24426D01*
G01*
X5924292Y4292989D02*
G03*
X5924292Y4266995I35708J-12997D01*
G01*
X5743401Y4317423D02*
G03*
X5720890Y4304426I6599J-37423D01*
G01*
Y4255574D02*
G03*
X5743401Y4242577I29110J24426D01*
G01*
X5785708Y4267003D02*
G03*
X5785708Y4292997I-35708J12997D01*
G01*
X5944599Y3672577D02*
G03*
X5967110Y3685574I-6599J37423D01*
G01*
Y3734360D02*
G03*
X5944599Y3747356I-29110J-24426D01*
G01*
X5914292Y3722988D02*
G03*
X5914292Y3696995I35708J-12997D01*
G01*
X5733401Y3747423D02*
G03*
X5710890Y3734426I6599J-37423D01*
G01*
Y3685574D02*
G03*
X5733401Y3672577I29110J24426D01*
G01*
X5775708Y3697003D02*
G03*
X5775708Y3722997I-35708J12997D01*
G01*
X5584599Y4242577D02*
G03*
X5607110Y4255574I-6599J37423D01*
G01*
Y4304360D02*
G03*
X5584599Y4317356I-29110J-24426D01*
G01*
X5554292Y4292989D02*
G03*
X5554292Y4266995I35708J-12997D01*
G01*
X5373401Y4317423D02*
G03*
X5350890Y4304426I6599J-37423D01*
G01*
Y4255574D02*
G03*
X5373401Y4242577I29110J24426D01*
G01*
X5415708Y4267003D02*
G03*
X5415708Y4292997I-35708J12997D01*
G01*
D120*
X4180000Y2227500D02*
D03*
Y2162500D02*
D03*
Y2097500D02*
D03*
Y2032500D02*
D03*
X3740000D02*
D03*
Y2097500D02*
D03*
Y2162500D02*
D03*
Y2227508D02*
D03*
X3229996Y3902491D02*
D03*
Y3967503D02*
D03*
Y4032496D02*
D03*
Y4097500D02*
D03*
X2790003D02*
D03*
Y4032496D02*
D03*
Y3967503D02*
D03*
Y3902500D02*
D03*
X5000000Y2087509D02*
D03*
Y2022500D02*
D03*
Y1957500D02*
D03*
Y1892500D02*
D03*
X5440000D02*
D03*
Y1957500D02*
D03*
Y2022500D02*
D03*
Y2087500D02*
D03*
X3695000Y3862492D02*
D03*
Y3927491D02*
D03*
Y3992491D02*
D03*
Y4057492D02*
D03*
Y4122492D02*
D03*
Y4187491D02*
D03*
Y4252491D02*
D03*
Y4317492D02*
D03*
X4285000Y4317500D02*
D03*
Y4252500D02*
D03*
Y4187500D02*
D03*
Y4122500D02*
D03*
Y4057500D02*
D03*
Y3992500D02*
D03*
Y3927500D02*
D03*
Y3862500D02*
D03*
X3615000Y2832492D02*
D03*
Y2897491D02*
D03*
Y2962491D02*
D03*
Y3027492D02*
D03*
Y3092492D02*
D03*
Y3157491D02*
D03*
Y3222491D02*
D03*
Y3287492D02*
D03*
X4205000Y3287500D02*
D03*
Y3222500D02*
D03*
Y3157500D02*
D03*
Y3092500D02*
D03*
Y3027500D02*
D03*
Y2962500D02*
D03*
Y2897500D02*
D03*
Y2832500D02*
D03*
X5755000Y3227507D02*
D03*
Y3162505D02*
D03*
Y3097505D02*
D03*
Y3032508D02*
D03*
Y2967507D02*
D03*
Y2902512D02*
D03*
Y2837512D02*
D03*
Y2772508D02*
D03*
X5165000Y2772503D02*
D03*
Y2837500D02*
D03*
Y2902500D02*
D03*
Y2967503D02*
D03*
Y3032496D02*
D03*
Y3097500D02*
D03*
Y3162500D02*
D03*
Y3227496D02*
D03*
X5819996Y3942491D02*
D03*
Y4007503D02*
D03*
Y4072496D02*
D03*
Y4137499D02*
D03*
X5380003D02*
D03*
Y4072496D02*
D03*
Y4007503D02*
D03*
Y3942500D02*
D03*
D121*
X7070023Y4059992D02*
D03*
X7119977Y4150008D02*
D03*
X7019976D02*
D03*
X7119992Y3969977D02*
D03*
X7019992D02*
D03*
X3460000Y1330000D02*
D03*
X3560000D02*
D03*
X3460000Y1510000D02*
D03*
X3560000D02*
D03*
X3510000Y1420000D02*
D03*
X7019935Y3589996D02*
D03*
X7119935D02*
D03*
X7019996Y3770064D02*
D03*
X7119996D02*
D03*
X7070004Y3679936D02*
D03*
X7379999Y980000D02*
D03*
X7480000D02*
D03*
X7379999Y1160000D02*
D03*
X7480000D02*
D03*
X7430000Y1070000D02*
D03*
X7379999Y1730000D02*
D03*
X7480000D02*
D03*
X7379999Y1910000D02*
D03*
X7480000D02*
D03*
X7430000Y1820000D02*
D03*
X7379999Y1360000D02*
D03*
X7480000D02*
D03*
X7379999Y1540000D02*
D03*
X7480000D02*
D03*
X7430000Y1450000D02*
D03*
X7379999Y2100000D02*
D03*
X7480000D02*
D03*
X7379999Y2280000D02*
D03*
X7480000D02*
D03*
X7430000Y2190000D02*
D03*
X7020002Y3210001D02*
D03*
X7119995D02*
D03*
X7020004Y3389998D02*
D03*
X7119997D02*
D03*
X7070000Y3299999D02*
D03*
X7379999Y2480000D02*
D03*
X7480000D02*
D03*
X7379999Y2660000D02*
D03*
X7480000D02*
D03*
X7430000Y2570000D02*
D03*
D122*
X7220000Y4160000D02*
D03*
X7219999Y4110001D02*
D03*
Y4060001D02*
D03*
Y4010001D02*
D03*
Y3960001D02*
D03*
X6920000Y3959999D02*
D03*
X6919999Y4010001D02*
D03*
Y4060001D02*
D03*
Y4110001D02*
D03*
Y4160001D02*
D03*
X3249999Y2355000D02*
D03*
Y2304999D02*
D03*
Y2255000D02*
D03*
Y2205000D02*
D03*
X2969999D02*
D03*
Y2255000D02*
D03*
Y2304999D02*
D03*
Y2354999D02*
D03*
X3360000Y1520000D02*
D03*
Y1470000D02*
D03*
Y1420000D02*
D03*
Y1370000D02*
D03*
Y1320000D02*
D03*
X3660000D02*
D03*
Y1370000D02*
D03*
Y1420000D02*
D03*
Y1470000D02*
D03*
Y1520000D02*
D03*
X6920004Y3780002D02*
D03*
Y3730002D02*
D03*
Y3680003D02*
D03*
Y3630003D02*
D03*
X6919997Y3579998D02*
D03*
X7220004Y3580003D02*
D03*
Y3630003D02*
D03*
Y3680003D02*
D03*
Y3730002D02*
D03*
X7219996Y3779998D02*
D03*
X7280000Y1170000D02*
D03*
Y1120000D02*
D03*
Y1070000D02*
D03*
Y1020000D02*
D03*
Y970000D02*
D03*
X7580000Y970000D02*
D03*
Y1020000D02*
D03*
Y1070000D02*
D03*
Y1120000D02*
D03*
Y1170000D02*
D03*
X7280000Y1920000D02*
D03*
Y1870000D02*
D03*
Y1820000D02*
D03*
Y1770000D02*
D03*
Y1720000D02*
D03*
X7580000Y1720000D02*
D03*
Y1770000D02*
D03*
Y1820000D02*
D03*
Y1870000D02*
D03*
Y1920000D02*
D03*
X7280000Y1550000D02*
D03*
Y1500000D02*
D03*
Y1450000D02*
D03*
Y1400000D02*
D03*
Y1350000D02*
D03*
X7580000D02*
D03*
Y1400000D02*
D03*
Y1450000D02*
D03*
Y1500000D02*
D03*
Y1550000D02*
D03*
X6275000Y1195000D02*
D03*
X6275000Y1145000D02*
D03*
Y1095000D02*
D03*
Y1045000D02*
D03*
X6525000D02*
D03*
Y1095000D02*
D03*
Y1145000D02*
D03*
Y1195000D02*
D03*
X6275000Y995000D02*
D03*
X6275000Y945000D02*
D03*
Y895000D02*
D03*
Y845000D02*
D03*
X6525000D02*
D03*
Y895000D02*
D03*
Y945000D02*
D03*
X6525000Y995000D02*
D03*
X7280000Y2290000D02*
D03*
Y2240000D02*
D03*
Y2190000D02*
D03*
Y2140000D02*
D03*
Y2090000D02*
D03*
X7580000D02*
D03*
Y2140000D02*
D03*
Y2190000D02*
D03*
Y2240000D02*
D03*
Y2290000D02*
D03*
X6920002Y3400000D02*
D03*
Y3350000D02*
D03*
Y3300000D02*
D03*
Y3250000D02*
D03*
X6920002Y3200004D02*
D03*
X7219998Y3200000D02*
D03*
Y3250000D02*
D03*
Y3300000D02*
D03*
Y3350000D02*
D03*
X7219999Y3399997D02*
D03*
X7280000Y2670000D02*
D03*
Y2620000D02*
D03*
Y2570000D02*
D03*
Y2520000D02*
D03*
Y2470000D02*
D03*
X7580000Y2470000D02*
D03*
Y2520000D02*
D03*
Y2570000D02*
D03*
Y2620000D02*
D03*
Y2670000D02*
D03*
X6275000Y2005000D02*
D03*
X6274999Y1955000D02*
D03*
Y1905000D02*
D03*
Y1855000D02*
D03*
X6525000Y1855000D02*
D03*
Y1905000D02*
D03*
Y1955000D02*
D03*
Y2005000D02*
D03*
X6275000Y1805000D02*
D03*
X6274999Y1755001D02*
D03*
Y1705001D02*
D03*
Y1655001D02*
D03*
X6525000Y1655000D02*
D03*
Y1705000D02*
D03*
Y1755000D02*
D03*
X6524999Y1805000D02*
D03*
D123*
X7654540Y2979766D02*
D03*
X7719540D02*
D03*
X7784583Y2979745D02*
D03*
Y3179745D02*
D03*
X7719540Y3179766D02*
D03*
X7654540D02*
D03*
D124*
X7814997Y3932505D02*
D03*
X7765003Y3932495D02*
D03*
X7715003D02*
D03*
X7664997Y3932505D02*
D03*
Y4227505D02*
D03*
X7715003Y4227495D02*
D03*
X7765003D02*
D03*
X7814997Y4227505D02*
D03*
D125*
X6097500Y4010000D02*
D03*
X6402500Y4010000D02*
D03*
D126*
X3109999Y2240000D02*
D03*
Y2319999D02*
D03*
D127*
X3797500Y3630000D02*
D03*
Y3580000D02*
D03*
Y3430000D02*
D03*
X4082500D02*
D03*
Y3580000D02*
D03*
Y3630000D02*
D03*
D128*
X3797500Y3530000D02*
D03*
Y3480000D02*
D03*
X4082500D02*
D03*
Y3530000D02*
D03*
D129*
X3940000Y3620000D02*
D03*
X6400000Y1020000D02*
D03*
X6400000Y1830000D02*
D03*
D130*
X3940000Y3530000D02*
D03*
Y3440000D02*
D03*
X6400452Y906071D02*
D03*
X6400256Y1133790D02*
D03*
X6400451Y1716072D02*
D03*
X6400255Y1943791D02*
D03*
D131*
X2892491Y2830001D02*
D03*
X2957499Y2830002D02*
D03*
X3022497Y2830000D02*
D03*
X3087499Y2830001D02*
D03*
X3087500Y3269998D02*
D03*
X3022499D02*
D03*
X2957501Y3270000D02*
D03*
X2892500Y3269998D02*
D03*
X6397516Y3749998D02*
D03*
X6332498Y3750008D02*
D03*
X6267500Y3750006D02*
D03*
X6202508Y3749998D02*
D03*
X6202508Y3310001D02*
D03*
X6267502Y3310008D02*
D03*
X6332500Y3310010D02*
D03*
X6397508Y3310001D02*
D03*
D132*
X6425000Y1245000D02*
D03*
X6375000D02*
D03*
Y795000D02*
D03*
X6425000D02*
D03*
X6424999Y2055000D02*
D03*
X6374999D02*
D03*
Y1605000D02*
D03*
X6424999D02*
D03*
D133*
X5089999Y4122499D02*
D03*
X5039999D02*
D03*
X4990000Y4122499D02*
D03*
X4940001Y4122498D02*
D03*
X4890001D02*
D03*
X4890001Y3837501D02*
D03*
X4940001D02*
D03*
X4990000Y3837500D02*
D03*
X5039999Y3837501D02*
D03*
X5089999D02*
D03*
D134*
X5079998Y3980014D02*
D03*
D135*
X4990000Y3980000D02*
D03*
X4900000D02*
D03*
D136*
X2400000Y2867500D02*
D03*
X2399999Y3172499D02*
D03*
D137*
X3237500Y3530000D02*
D03*
Y3625000D02*
D03*
X2982500D02*
D03*
Y3435000D02*
D03*
X6712500Y2375000D02*
D03*
Y2565000D02*
D03*
X6967500D02*
D03*
Y2470000D02*
D03*
D138*
X2720000Y1670000D02*
D03*
X2560000D02*
D03*
X3000000Y2040000D02*
D03*
X6580000Y4700000D02*
D03*
X5050000D02*
D03*
X6270000D02*
D03*
X4740000D02*
D03*
X1570000Y4670000D02*
D03*
X7890000Y870000D02*
D03*
X7820000Y4560000D02*
D03*
X8010000Y230000D02*
D03*
Y5230000D02*
D03*
X5370000Y1750000D02*
D03*
X5530000D02*
D03*
X5090000D02*
D03*
X4930000D02*
D03*
X3410000Y4170000D02*
D03*
X3570000D02*
D03*
X3410000Y4040000D02*
D03*
X3570000D02*
D03*
X3330000Y3090000D02*
D03*
X3490000D02*
D03*
X3330000Y2840000D02*
D03*
X3490000D02*
D03*
X5210000Y3390000D02*
D03*
X5050000D02*
D03*
X4310000Y1100000D02*
D03*
X4470000D02*
D03*
X3220000Y1790000D02*
D03*
X3380000D02*
D03*
X6060000Y2950000D02*
D03*
X5900000D02*
D03*
D139*
X5410000Y1265000D02*
D03*
Y1170000D02*
D03*
Y1075000D02*
D03*
X5150000D02*
D03*
Y1170000D02*
D03*
D140*
Y1265000D02*
D03*
D141*
X2495000Y2100000D02*
D03*
X2400000D02*
D03*
X2305000D02*
D03*
Y2360000D02*
D03*
X2400000D02*
D03*
D142*
X2495000D02*
D03*
D143*
X4435000Y1690000D02*
D03*
X4205000D02*
D03*
X4440000Y1330000D02*
D03*
X4210000D02*
D03*
X3695000Y1070000D02*
D03*
X3465000D02*
D03*
X5185000Y1520000D02*
D03*
X5415000D02*
D03*
D144*
X2720000Y710000D02*
D03*
Y870000D02*
D03*
X1880000Y990000D02*
D03*
Y1150000D02*
D03*
X1990000Y710000D02*
D03*
Y870000D02*
D03*
X2520000D02*
D03*
Y710000D02*
D03*
X2290000D02*
D03*
Y870000D02*
D03*
X4790000Y1640000D02*
D03*
Y1800000D02*
D03*
D145*
X5770000Y2155000D02*
D03*
Y1925000D02*
D03*
X2600000Y1275000D02*
D03*
Y1045000D02*
D03*
X2970000D02*
D03*
Y1275000D02*
D03*
X2970000Y1695000D02*
D03*
Y1465000D02*
D03*
D146*
X2155000Y1010000D02*
D03*
Y1150000D02*
D03*
X2275000Y1640000D02*
D03*
D147*
X2305000Y1010000D02*
D03*
Y1150000D02*
D03*
X2125000Y1640000D02*
D03*
D148*
X2840000Y2040000D02*
D03*
X6420000Y4700000D02*
D03*
X4890000D02*
D03*
X6110000D02*
D03*
X4580000D02*
D03*
X1410000Y4670000D02*
D03*
X7730000Y870000D02*
D03*
X7660000Y4560000D02*
D03*
X7850000Y230000D02*
D03*
Y5230000D02*
D03*
D149*
X5660000Y1215000D02*
D03*
X5030000Y1435000D02*
D03*
X2630000Y2185000D02*
D03*
D150*
X5660000Y1065000D02*
D03*
X5030000Y1585000D02*
D03*
X2630000Y2035000D02*
D03*
D151*
X2400000Y3680000D02*
D03*
D152*
Y3380000D02*
D03*
D153*
X5700000Y3530000D02*
D03*
X5420000D02*
D03*
X2420000Y1490000D02*
D03*
X2700000D02*
D03*
X5440000Y2360000D02*
D03*
X5720000D02*
D03*
X4170000Y1070000D02*
D03*
X3890000D02*
D03*
X4020000Y1740000D02*
D03*
X3740000D02*
D03*
D154*
X4730000Y2250000D02*
D03*
Y1970000D02*
D03*
X4870000Y1050000D02*
D03*
Y1330000D02*
D03*
X5750000Y1640000D02*
D03*
Y1360000D02*
D03*
X4490000Y2250000D02*
D03*
Y1970000D02*
D03*
X4640000Y1410000D02*
D03*
Y1130000D02*
D03*
D155*
X4600000Y1580000D02*
D03*
Y1740000D02*
D03*
X3200000Y2690000D02*
D03*
Y2850000D02*
D03*
X6430000Y2720000D02*
D03*
Y2880000D02*
D03*
X6170000Y2720000D02*
D03*
Y2880000D02*
D03*
X6300000D02*
D03*
Y2720000D02*
D03*
X5580000Y1580000D02*
D03*
Y1420000D02*
D03*
X2020000Y1150000D02*
D03*
Y990000D02*
D03*
X2510000Y4620000D02*
D03*
Y4460000D02*
D03*
X3600000Y2290000D02*
D03*
Y2450000D02*
D03*
X3220000Y1660000D02*
D03*
Y1500000D02*
D03*
X3600000Y2170000D02*
D03*
Y2010000D02*
D03*
X2140000Y710000D02*
D03*
Y870000D02*
D03*
X2870000Y710000D02*
D03*
Y870000D02*
D03*
X2960000Y4600000D02*
D03*
Y4760000D02*
D03*
X4320000Y2240000D02*
D03*
Y2080000D02*
D03*
X5920000Y3330000D02*
D03*
Y3170000D02*
D03*
%TF.MD5,9aad62f4f60d88a9068444db2052c77b*%
M02*
