%TF.GenerationSoftware,Altium Limited,Altium Designer,21.5.1 (32)*%
G04 Layer_Color=8421504*
%FSLAX45Y45*%
%MOMM*%
%TF.SameCoordinates,6D93875A-9943-4EB1-8E24-321CDD5DE8D5*%
%TF.FilePolarity,Positive*%
%TF.FileFunction,Paste,Top*%
%TF.Part,Single*%
G01*
G75*
%TA.AperFunction,SMDPad,CuDef*%
G04:AMPARAMS|DCode=12|XSize=0.6mm|YSize=0.6mm|CornerRadius=0.15mm|HoleSize=0mm|Usage=FLASHONLY|Rotation=180.000|XOffset=0mm|YOffset=0mm|HoleType=Round|Shape=RoundedRectangle|*
%AMROUNDEDRECTD12*
21,1,0.60000,0.30000,0,0,180.0*
21,1,0.30000,0.60000,0,0,180.0*
1,1,0.30000,-0.15000,0.15000*
1,1,0.30000,0.15000,0.15000*
1,1,0.30000,0.15000,-0.15000*
1,1,0.30000,-0.15000,-0.15000*
%
%ADD12ROUNDEDRECTD12*%
G04:AMPARAMS|DCode=13|XSize=0.6mm|YSize=0.7mm|CornerRadius=0.15mm|HoleSize=0mm|Usage=FLASHONLY|Rotation=0.000|XOffset=0mm|YOffset=0mm|HoleType=Round|Shape=RoundedRectangle|*
%AMROUNDEDRECTD13*
21,1,0.60000,0.40000,0,0,0.0*
21,1,0.30000,0.70000,0,0,0.0*
1,1,0.30000,0.15000,-0.20000*
1,1,0.30000,-0.15000,-0.20000*
1,1,0.30000,-0.15000,0.20000*
1,1,0.30000,0.15000,0.20000*
%
%ADD13ROUNDEDRECTD13*%
G04:AMPARAMS|DCode=48|XSize=0.6mm|YSize=0.6mm|CornerRadius=0.15mm|HoleSize=0mm|Usage=FLASHONLY|Rotation=90.000|XOffset=0mm|YOffset=0mm|HoleType=Round|Shape=RoundedRectangle|*
%AMROUNDEDRECTD48*
21,1,0.60000,0.30000,0,0,90.0*
21,1,0.30000,0.60000,0,0,90.0*
1,1,0.30000,0.15000,0.15000*
1,1,0.30000,0.15000,-0.15000*
1,1,0.30000,-0.15000,-0.15000*
1,1,0.30000,-0.15000,0.15000*
%
%ADD48ROUNDEDRECTD48*%
G04:AMPARAMS|DCode=53|XSize=2mm|YSize=1.1mm|CornerRadius=0.275mm|HoleSize=0mm|Usage=FLASHONLY|Rotation=180.000|XOffset=0mm|YOffset=0mm|HoleType=Round|Shape=RoundedRectangle|*
%AMROUNDEDRECTD53*
21,1,2.00000,0.55000,0,0,180.0*
21,1,1.45000,1.10000,0,0,180.0*
1,1,0.55000,-0.72500,0.27500*
1,1,0.55000,0.72500,0.27500*
1,1,0.55000,0.72500,-0.27500*
1,1,0.55000,-0.72500,-0.27500*
%
%ADD53ROUNDEDRECTD53*%
G04:AMPARAMS|DCode=54|XSize=2.2mm|YSize=0.7mm|CornerRadius=0.175mm|HoleSize=0mm|Usage=FLASHONLY|Rotation=180.000|XOffset=0mm|YOffset=0mm|HoleType=Round|Shape=RoundedRectangle|*
%AMROUNDEDRECTD54*
21,1,2.20000,0.35000,0,0,180.0*
21,1,1.85000,0.70000,0,0,180.0*
1,1,0.35000,-0.92500,0.17500*
1,1,0.35000,0.92500,0.17500*
1,1,0.35000,0.92500,-0.17500*
1,1,0.35000,-0.92500,-0.17500*
%
%ADD54ROUNDEDRECTD54*%
%ADD55R,2.20000X0.70000*%
%ADD67R,0.70000X0.50000*%
%TA.AperFunction,NonConductor*%
%ADD102C,0.25000*%
%ADD128R,0.50000X0.30000*%
%ADD129R,0.30000X0.50000*%
%ADD130R,0.60000X0.60000*%
%ADD131R,0.65000X0.40000*%
%ADD132R,0.80000X0.60000*%
%ADD133R,0.40000X0.50000*%
%ADD134R,0.30000X0.55000*%
%ADD135R,0.30000X0.50000*%
%ADD136R,0.70000X0.60000*%
%ADD137R,0.70000X0.60000*%
%ADD138R,0.55000X0.30000*%
%ADD139R,0.55000X0.30000*%
%ADD140R,0.40000X0.65000*%
%ADD141R,0.30000X0.55000*%
%ADD142R,0.60000X0.70000*%
%ADD143R,0.60000X0.70000*%
%ADD144R,1.70000X0.55000*%
%ADD145R,0.55000X1.70000*%
%TA.AperFunction,SMDPad,CuDef*%
G04:AMPARAMS|DCode=146|XSize=0.7mm|YSize=1.2mm|CornerRadius=0.1mm|HoleSize=0mm|Usage=FLASHONLY|Rotation=0.000|XOffset=0mm|YOffset=0mm|HoleType=Round|Shape=RoundedRectangle|*
%AMROUNDEDRECTD146*
21,1,0.70000,1.00000,0,0,0.0*
21,1,0.50000,1.20000,0,0,0.0*
1,1,0.20000,0.25000,-0.50000*
1,1,0.20000,-0.25000,-0.50000*
1,1,0.20000,-0.25000,0.50000*
1,1,0.20000,0.25000,0.50000*
%
%ADD146ROUNDEDRECTD146*%
%ADD147R,0.80000X0.45000*%
G04:AMPARAMS|DCode=148|XSize=0.45mm|YSize=0.8mm|CornerRadius=0.0875mm|HoleSize=0mm|Usage=FLASHONLY|Rotation=90.000|XOffset=0mm|YOffset=0mm|HoleType=Round|Shape=RoundedRectangle|*
%AMROUNDEDRECTD148*
21,1,0.45000,0.62500,0,0,90.0*
21,1,0.27500,0.80000,0,0,90.0*
1,1,0.17500,0.31250,0.13750*
1,1,0.17500,0.31250,-0.13750*
1,1,0.17500,-0.31250,-0.13750*
1,1,0.17500,-0.31250,0.13750*
%
%ADD148ROUNDEDRECTD148*%
%ADD149R,0.45000X0.80000*%
G04:AMPARAMS|DCode=150|XSize=0.45mm|YSize=0.8mm|CornerRadius=0.0875mm|HoleSize=0mm|Usage=FLASHONLY|Rotation=0.000|XOffset=0mm|YOffset=0mm|HoleType=Round|Shape=RoundedRectangle|*
%AMROUNDEDRECTD150*
21,1,0.45000,0.62500,0,0,0.0*
21,1,0.27500,0.80000,0,0,0.0*
1,1,0.17500,0.13750,-0.31250*
1,1,0.17500,-0.13750,-0.31250*
1,1,0.17500,-0.13750,0.31250*
1,1,0.17500,0.13750,0.31250*
%
%ADD150ROUNDEDRECTD150*%
G04:AMPARAMS|DCode=151|XSize=0.5mm|YSize=0.7mm|CornerRadius=0.1mm|HoleSize=0mm|Usage=FLASHONLY|Rotation=270.000|XOffset=0mm|YOffset=0mm|HoleType=Round|Shape=RoundedRectangle|*
%AMROUNDEDRECTD151*
21,1,0.50000,0.50000,0,0,270.0*
21,1,0.30000,0.70000,0,0,270.0*
1,1,0.20000,-0.25000,-0.15000*
1,1,0.20000,-0.25000,0.15000*
1,1,0.20000,0.25000,0.15000*
1,1,0.20000,0.25000,-0.15000*
%
%ADD151ROUNDEDRECTD151*%
G04:AMPARAMS|DCode=152|XSize=0.8mm|YSize=0.7mm|CornerRadius=0.15mm|HoleSize=0mm|Usage=FLASHONLY|Rotation=180.000|XOffset=0mm|YOffset=0mm|HoleType=Round|Shape=RoundedRectangle|*
%AMROUNDEDRECTD152*
21,1,0.80000,0.40000,0,0,180.0*
21,1,0.50000,0.70000,0,0,180.0*
1,1,0.30000,-0.25000,0.20000*
1,1,0.30000,0.25000,0.20000*
1,1,0.30000,0.25000,-0.20000*
1,1,0.30000,-0.25000,-0.20000*
%
%ADD152ROUNDEDRECTD152*%
G04:AMPARAMS|DCode=153|XSize=2.7mm|YSize=1.2mm|CornerRadius=0.275mm|HoleSize=0mm|Usage=FLASHONLY|Rotation=90.000|XOffset=0mm|YOffset=0mm|HoleType=Round|Shape=RoundedRectangle|*
%AMROUNDEDRECTD153*
21,1,2.70000,0.65000,0,0,90.0*
21,1,2.15000,1.20000,0,0,90.0*
1,1,0.55000,0.32500,1.07500*
1,1,0.55000,0.32500,-1.07500*
1,1,0.55000,-0.32500,-1.07500*
1,1,0.55000,-0.32500,1.07500*
%
%ADD153ROUNDEDRECTD153*%
G04:AMPARAMS|DCode=154|XSize=2.7mm|YSize=1.2mm|CornerRadius=0.275mm|HoleSize=0mm|Usage=FLASHONLY|Rotation=0.000|XOffset=0mm|YOffset=0mm|HoleType=Round|Shape=RoundedRectangle|*
%AMROUNDEDRECTD154*
21,1,2.70000,0.65000,0,0,0.0*
21,1,2.15000,1.20000,0,0,0.0*
1,1,0.55000,1.07500,-0.32500*
1,1,0.55000,-1.07500,-0.32500*
1,1,0.55000,-1.07500,0.32500*
1,1,0.55000,1.07500,0.32500*
%
%ADD154ROUNDEDRECTD154*%
%ADD155R,0.70000X0.70000*%
G04:AMPARAMS|DCode=156|XSize=0.7mm|YSize=0.7mm|CornerRadius=0.15mm|HoleSize=0mm|Usage=FLASHONLY|Rotation=90.000|XOffset=0mm|YOffset=0mm|HoleType=Round|Shape=RoundedRectangle|*
%AMROUNDEDRECTD156*
21,1,0.70000,0.40000,0,0,90.0*
21,1,0.40000,0.70000,0,0,90.0*
1,1,0.30000,0.20000,0.20000*
1,1,0.30000,0.20000,-0.20000*
1,1,0.30000,-0.20000,-0.20000*
1,1,0.30000,-0.20000,0.20000*
%
%ADD156ROUNDEDRECTD156*%
%ADD157R,0.60000X0.40000*%
G04:AMPARAMS|DCode=158|XSize=0.4mm|YSize=0.6mm|CornerRadius=0.075mm|HoleSize=0mm|Usage=FLASHONLY|Rotation=90.000|XOffset=0mm|YOffset=0mm|HoleType=Round|Shape=RoundedRectangle|*
%AMROUNDEDRECTD158*
21,1,0.40000,0.45000,0,0,90.0*
21,1,0.25000,0.60000,0,0,90.0*
1,1,0.15000,0.22500,0.12500*
1,1,0.15000,0.22500,-0.12500*
1,1,0.15000,-0.22500,-0.12500*
1,1,0.15000,-0.22500,0.12500*
%
%ADD158ROUNDEDRECTD158*%
%ADD159R,0.40000X0.60000*%
G04:AMPARAMS|DCode=160|XSize=0.4mm|YSize=0.6mm|CornerRadius=0.075mm|HoleSize=0mm|Usage=FLASHONLY|Rotation=0.000|XOffset=0mm|YOffset=0mm|HoleType=Round|Shape=RoundedRectangle|*
%AMROUNDEDRECTD160*
21,1,0.40000,0.45000,0,0,0.0*
21,1,0.25000,0.60000,0,0,0.0*
1,1,0.15000,0.12500,-0.22500*
1,1,0.15000,-0.12500,-0.22500*
1,1,0.15000,-0.12500,0.22500*
1,1,0.15000,0.12500,0.22500*
%
%ADD160ROUNDEDRECTD160*%
%ADD161R,0.90000X0.90000*%
G04:AMPARAMS|DCode=162|XSize=0.9mm|YSize=0.9mm|CornerRadius=0.175mm|HoleSize=0mm|Usage=FLASHONLY|Rotation=180.000|XOffset=0mm|YOffset=0mm|HoleType=Round|Shape=RoundedRectangle|*
%AMROUNDEDRECTD162*
21,1,0.90000,0.55000,0,0,180.0*
21,1,0.55000,0.90000,0,0,180.0*
1,1,0.35000,-0.27500,0.27500*
1,1,0.35000,0.27500,0.27500*
1,1,0.35000,0.27500,-0.27500*
1,1,0.35000,-0.27500,-0.27500*
%
%ADD162ROUNDEDRECTD162*%
G04:AMPARAMS|DCode=163|XSize=1.45mm|YSize=1.05mm|CornerRadius=0.2125mm|HoleSize=0mm|Usage=FLASHONLY|Rotation=0.000|XOffset=0mm|YOffset=0mm|HoleType=Round|Shape=RoundedRectangle|*
%AMROUNDEDRECTD163*
21,1,1.45000,0.62500,0,0,0.0*
21,1,1.02500,1.05000,0,0,0.0*
1,1,0.42500,0.51250,-0.31250*
1,1,0.42500,-0.51250,-0.31250*
1,1,0.42500,-0.51250,0.31250*
1,1,0.42500,0.51250,0.31250*
%
%ADD163ROUNDEDRECTD163*%
G04:AMPARAMS|DCode=164|XSize=1.45mm|YSize=1.05mm|CornerRadius=0.2125mm|HoleSize=0mm|Usage=FLASHONLY|Rotation=270.000|XOffset=0mm|YOffset=0mm|HoleType=Round|Shape=RoundedRectangle|*
%AMROUNDEDRECTD164*
21,1,1.45000,0.62500,0,0,270.0*
21,1,1.02500,1.05000,0,0,270.0*
1,1,0.42500,-0.31250,-0.51250*
1,1,0.42500,-0.31250,0.51250*
1,1,0.42500,0.31250,0.51250*
1,1,0.42500,0.31250,-0.51250*
%
%ADD164ROUNDEDRECTD164*%
G04:AMPARAMS|DCode=165|XSize=0.7mm|YSize=0.7mm|CornerRadius=0.15mm|HoleSize=0mm|Usage=FLASHONLY|Rotation=180.000|XOffset=0mm|YOffset=0mm|HoleType=Round|Shape=RoundedRectangle|*
%AMROUNDEDRECTD165*
21,1,0.70000,0.40000,0,0,180.0*
21,1,0.40000,0.70000,0,0,180.0*
1,1,0.30000,-0.20000,0.20000*
1,1,0.30000,0.20000,0.20000*
1,1,0.30000,0.20000,-0.20000*
1,1,0.30000,-0.20000,-0.20000*
%
%ADD165ROUNDEDRECTD165*%
D12*
X7460000Y4775000D02*
D03*
Y4665000D02*
D03*
X7560000Y3385000D02*
D03*
Y3275000D02*
D03*
X7660000Y3385000D02*
D03*
Y3275000D02*
D03*
X3970000Y1475000D02*
D03*
Y1585000D02*
D03*
X3950000Y1335000D02*
D03*
Y1225000D02*
D03*
X5030000Y1025000D02*
D03*
Y1135000D02*
D03*
Y1225000D02*
D03*
Y1335000D02*
D03*
X2130000Y1985000D02*
D03*
Y1875000D02*
D03*
X2190000Y2075000D02*
D03*
Y2185000D02*
D03*
Y2385000D02*
D03*
Y2275000D02*
D03*
X2570000Y1845000D02*
D03*
Y1955000D02*
D03*
X5930000Y4675000D02*
D03*
Y4785000D02*
D03*
X3180000Y4665000D02*
D03*
Y4775000D02*
D03*
X5820000Y4675000D02*
D03*
Y4785000D02*
D03*
X3080000Y4665000D02*
D03*
Y4775000D02*
D03*
X4320000Y695000D02*
D03*
Y805000D02*
D03*
X4430000Y695000D02*
D03*
Y805000D02*
D03*
X7560000Y4665000D02*
D03*
Y4775000D02*
D03*
X7450000Y685000D02*
D03*
Y795000D02*
D03*
X7340000Y685000D02*
D03*
Y795000D02*
D03*
X6700000Y4665000D02*
D03*
Y4775000D02*
D03*
X6810000Y4665000D02*
D03*
Y4775000D02*
D03*
X5850000Y695000D02*
D03*
Y805000D02*
D03*
X5630000Y695000D02*
D03*
Y805000D02*
D03*
X5740000D02*
D03*
Y695000D02*
D03*
X5520000D02*
D03*
Y805000D02*
D03*
X5700000Y4785000D02*
D03*
Y4675000D02*
D03*
X5410000Y695000D02*
D03*
Y805000D02*
D03*
X5300000Y695000D02*
D03*
Y805000D02*
D03*
X5470000Y4675000D02*
D03*
Y4785000D02*
D03*
X5020000Y695000D02*
D03*
Y805000D02*
D03*
X5360000Y4785000D02*
D03*
Y4675000D02*
D03*
X4880000Y695000D02*
D03*
Y805000D02*
D03*
X4070000Y695000D02*
D03*
Y805000D02*
D03*
X3930000D02*
D03*
Y695000D02*
D03*
X4000000Y4775000D02*
D03*
Y4665000D02*
D03*
X4130000D02*
D03*
Y4775000D02*
D03*
X3640000D02*
D03*
Y4665000D02*
D03*
X3770000D02*
D03*
Y4775000D02*
D03*
X3410000D02*
D03*
Y4665000D02*
D03*
X7640000Y4335000D02*
D03*
Y4445000D02*
D03*
X7820000Y4335000D02*
D03*
Y4445000D02*
D03*
X6120000Y1345000D02*
D03*
Y1455000D02*
D03*
X6420000Y1345000D02*
D03*
Y1455000D02*
D03*
X6220000Y1345000D02*
D03*
Y1455000D02*
D03*
X5590000Y4675000D02*
D03*
Y4785000D02*
D03*
X4180000Y805000D02*
D03*
Y695000D02*
D03*
X3820000Y805000D02*
D03*
Y695000D02*
D03*
X5130000Y805000D02*
D03*
Y695000D02*
D03*
X4770000Y805000D02*
D03*
Y695000D02*
D03*
X5250000Y4675000D02*
D03*
Y4785000D02*
D03*
X3870000Y4665000D02*
D03*
Y4775000D02*
D03*
X3540000Y4665000D02*
D03*
Y4775000D02*
D03*
X6120000Y2155000D02*
D03*
Y2265000D02*
D03*
X4230000Y4665000D02*
D03*
Y4775000D02*
D03*
X3310000Y4665000D02*
D03*
Y4775000D02*
D03*
X6420000Y2155000D02*
D03*
Y2265000D02*
D03*
X6220000Y2155000D02*
D03*
Y2265000D02*
D03*
X3180000Y4315000D02*
D03*
Y4205000D02*
D03*
X4400000Y3995000D02*
D03*
Y3885000D02*
D03*
X2880000Y4205000D02*
D03*
Y4315000D02*
D03*
X3470000Y3915000D02*
D03*
Y3805000D02*
D03*
X6070000Y3665000D02*
D03*
Y3555000D02*
D03*
X4840000Y3125000D02*
D03*
Y3235000D02*
D03*
X4850000Y3695000D02*
D03*
Y3585000D02*
D03*
X5250000Y4275000D02*
D03*
Y4165000D02*
D03*
X5510000Y3825000D02*
D03*
Y3715000D02*
D03*
X7290000Y4685000D02*
D03*
Y4795000D02*
D03*
X7120000Y2295000D02*
D03*
Y2405000D02*
D03*
X7150000Y1925000D02*
D03*
Y2035000D02*
D03*
X7120000Y2685000D02*
D03*
Y2795000D02*
D03*
X7150000Y1555000D02*
D03*
Y1665000D02*
D03*
X7160000Y1185000D02*
D03*
Y1295000D02*
D03*
X7890000Y975000D02*
D03*
Y1085000D02*
D03*
X7920000Y4335000D02*
D03*
Y4445000D02*
D03*
X3840000Y1215000D02*
D03*
Y1325000D02*
D03*
X3220000Y1405000D02*
D03*
Y1295000D02*
D03*
X4060000Y1225000D02*
D03*
Y1335000D02*
D03*
X5540000Y1175000D02*
D03*
Y1065000D02*
D03*
X5550000Y1935000D02*
D03*
Y2045000D02*
D03*
X4880000Y1925000D02*
D03*
Y2035000D02*
D03*
X4920000Y1455000D02*
D03*
Y1565000D02*
D03*
X2630000Y2275000D02*
D03*
Y2385000D02*
D03*
X7780000Y3275000D02*
D03*
Y3385000D02*
D03*
X7820000Y3835000D02*
D03*
Y3725000D02*
D03*
X6810000Y3765000D02*
D03*
Y3875000D02*
D03*
X6320000Y2265000D02*
D03*
Y2155000D02*
D03*
Y1455000D02*
D03*
Y1345000D02*
D03*
X3660000Y695000D02*
D03*
Y805000D02*
D03*
X4610000Y695000D02*
D03*
Y805000D02*
D03*
X6520000Y1345000D02*
D03*
Y1455000D02*
D03*
X6520000Y2155000D02*
D03*
Y2265000D02*
D03*
X4340000Y4775000D02*
D03*
Y4665000D02*
D03*
X4400000Y4315000D02*
D03*
Y4205000D02*
D03*
X3200000Y3095000D02*
D03*
Y2985000D02*
D03*
Y3185000D02*
D03*
Y3295000D02*
D03*
X2780000Y3105000D02*
D03*
Y2995000D02*
D03*
Y3195000D02*
D03*
Y3305000D02*
D03*
X3350000Y3535000D02*
D03*
Y3425000D02*
D03*
X4430000Y3455000D02*
D03*
Y3565000D02*
D03*
X2780000Y2895000D02*
D03*
Y2785000D02*
D03*
X3580000Y3935000D02*
D03*
Y3825000D02*
D03*
X2780000Y4205000D02*
D03*
Y4315000D02*
D03*
X3370000Y3805000D02*
D03*
Y3915000D02*
D03*
X4950000Y2775000D02*
D03*
Y2885000D02*
D03*
X5050000Y2775000D02*
D03*
Y2885000D02*
D03*
X5310000Y3825000D02*
D03*
Y3715000D02*
D03*
X5410000Y3825000D02*
D03*
Y3715000D02*
D03*
X5030000Y3715000D02*
D03*
Y3605000D02*
D03*
X5220000Y3715000D02*
D03*
Y3605000D02*
D03*
X5130000D02*
D03*
Y3715000D02*
D03*
X5950000Y4045000D02*
D03*
Y3935000D02*
D03*
X4940000Y3225000D02*
D03*
Y3335000D02*
D03*
X5250000Y4055000D02*
D03*
Y3945000D02*
D03*
D13*
X2235000Y1520000D02*
D03*
X2045000D02*
D03*
X2140000Y1300000D02*
D03*
X2015000Y1890000D02*
D03*
X1825000D02*
D03*
X1920000Y1670000D02*
D03*
X2445000Y1980000D02*
D03*
X2255000D02*
D03*
X2350000Y1760000D02*
D03*
D48*
X6605000Y1190000D02*
D03*
X6715000D02*
D03*
X6605000Y790000D02*
D03*
X6715000D02*
D03*
X6605000Y890000D02*
D03*
X6715000D02*
D03*
X6605000Y990000D02*
D03*
X6715000D02*
D03*
X6605000Y1090000D02*
D03*
X6715000D02*
D03*
X6605000Y1550000D02*
D03*
X6715000D02*
D03*
X6605000Y1650000D02*
D03*
X6715000D02*
D03*
X6605000Y1750000D02*
D03*
X6715000D02*
D03*
X6605000Y1850000D02*
D03*
X6715000D02*
D03*
X6605000Y1950000D02*
D03*
X6715000D02*
D03*
X3865000Y1580000D02*
D03*
X3755000D02*
D03*
Y1480000D02*
D03*
X3865000D02*
D03*
X1985000Y1150000D02*
D03*
X1875000D02*
D03*
X3105000Y2030000D02*
D03*
X3215000D02*
D03*
X5205000Y2230000D02*
D03*
X5315000D02*
D03*
X1925000Y1550000D02*
D03*
X1815000D02*
D03*
Y1450000D02*
D03*
X1925000D02*
D03*
X2755000Y2400000D02*
D03*
X2865000D02*
D03*
X2755000Y2300000D02*
D03*
X2865000D02*
D03*
Y2200000D02*
D03*
X2755000D02*
D03*
X3365000Y2280000D02*
D03*
X3475000D02*
D03*
X6995000Y2150000D02*
D03*
X6885000D02*
D03*
X6815000Y1190000D02*
D03*
X6925000D02*
D03*
X6815000Y790000D02*
D03*
X6924999D02*
D03*
X6815000Y890000D02*
D03*
X6925000D02*
D03*
X6815000Y990000D02*
D03*
X6925000D02*
D03*
X6815000Y1090000D02*
D03*
X6925000D02*
D03*
X6815000Y1550000D02*
D03*
X6925000D02*
D03*
X6815000Y1650000D02*
D03*
X6925000D02*
D03*
X6815000Y1750000D02*
D03*
X6925000D02*
D03*
X6815000Y1850000D02*
D03*
X6925000D02*
D03*
X6815000Y1950000D02*
D03*
X6925000D02*
D03*
X3055000Y2700000D02*
D03*
X2945000D02*
D03*
X3665000Y3430000D02*
D03*
X3555000D02*
D03*
X3615000Y3530000D02*
D03*
X3505000D02*
D03*
X4315000Y2960000D02*
D03*
X4425000D02*
D03*
X4055000Y2700000D02*
D03*
X3945000D02*
D03*
X3665000Y3660000D02*
D03*
X3555000D02*
D03*
X4215000Y3390000D02*
D03*
X4325000D02*
D03*
X3855000Y2700000D02*
D03*
X3745000D02*
D03*
X2885000Y3630000D02*
D03*
X2775000D02*
D03*
X3085000Y4310000D02*
D03*
X2975000D02*
D03*
X3175000Y3800000D02*
D03*
X3285000D02*
D03*
X4415000Y2700000D02*
D03*
X4305000D02*
D03*
X4935000Y3100000D02*
D03*
X5045000D02*
D03*
X6075000Y3450000D02*
D03*
X5965000D02*
D03*
X6225000Y4240000D02*
D03*
X6115000D02*
D03*
X4935000Y4290000D02*
D03*
X4825000D02*
D03*
X5035000D02*
D03*
X5145000D02*
D03*
X5725000Y3820000D02*
D03*
X5615000D02*
D03*
X6985000Y4240000D02*
D03*
X7095000D02*
D03*
X6825000Y3470000D02*
D03*
X6715000D02*
D03*
X8185000Y2780000D02*
D03*
X8295000D02*
D03*
Y2680000D02*
D03*
X8185000D02*
D03*
X3855000Y920000D02*
D03*
X3965000D02*
D03*
X3615000Y1660000D02*
D03*
X3505000D02*
D03*
X3605000Y1790000D02*
D03*
X3495000D02*
D03*
X3215000Y1090000D02*
D03*
X3325000D02*
D03*
Y1190000D02*
D03*
X3215000D02*
D03*
X3835000Y2380000D02*
D03*
X3725000D02*
D03*
X4985000Y2230000D02*
D03*
X5095000D02*
D03*
X5415000Y2210000D02*
D03*
X5525000D02*
D03*
X1925000Y1350000D02*
D03*
X1815000D02*
D03*
X3365000Y2410000D02*
D03*
X3475000D02*
D03*
X6685000Y2150000D02*
D03*
X6795000D02*
D03*
X6685000Y2250000D02*
D03*
X6795000D02*
D03*
X6885000D02*
D03*
X6995000D02*
D03*
X6925000Y690000D02*
D03*
X6815000D02*
D03*
X6895000Y2050000D02*
D03*
X6785000D02*
D03*
X2975000Y3790000D02*
D03*
X3085000D02*
D03*
X2885000D02*
D03*
X2775000D02*
D03*
X3505000Y3330000D02*
D03*
X3395000D02*
D03*
X3505000Y3230000D02*
D03*
X3395000D02*
D03*
X4315000Y3190000D02*
D03*
X4425000D02*
D03*
X4315000Y3290000D02*
D03*
X4425000D02*
D03*
X3385000Y4290000D02*
D03*
X3275000D02*
D03*
X3585000D02*
D03*
X3475000D02*
D03*
X2885000Y3430000D02*
D03*
X2775000D02*
D03*
X4235000Y3570000D02*
D03*
X4345000D02*
D03*
X3505000Y2960000D02*
D03*
X3395000D02*
D03*
X4235000Y3770000D02*
D03*
X4345000D02*
D03*
X4235000Y3670000D02*
D03*
X4345000D02*
D03*
X3345000Y3630000D02*
D03*
X3455000D02*
D03*
X2885000Y3530000D02*
D03*
X2775000D02*
D03*
X2975000Y4210000D02*
D03*
X3085000D02*
D03*
X4315000Y2830000D02*
D03*
X4425000D02*
D03*
X5885000Y2730000D02*
D03*
X5995000D02*
D03*
X5885000Y2830000D02*
D03*
X5995000D02*
D03*
X6115000Y3090000D02*
D03*
X6225000D02*
D03*
X6115000Y3190000D02*
D03*
X6225000D02*
D03*
X6425000Y3090000D02*
D03*
X6315000D02*
D03*
X6425000Y3190000D02*
D03*
X6315000D02*
D03*
X4995000Y3510000D02*
D03*
X5105000D02*
D03*
X5885000Y3070000D02*
D03*
X5995000D02*
D03*
X6315000Y3860000D02*
D03*
X6205000D02*
D03*
D53*
X1270000Y1005000D02*
D03*
Y1845000D02*
D03*
D54*
X1620000Y1650000D02*
D03*
Y1500000D02*
D03*
Y1350000D02*
D03*
D55*
Y1200000D02*
D03*
D67*
X6977500Y2375000D02*
D03*
X3237500Y3435000D02*
D03*
D102*
X2515120Y3947832D02*
G03*
X2495525Y3949546I-12997J-35708D01*
G01*
X2526549Y3883014D02*
G03*
X2537832Y3899127I-24426J29110D01*
G01*
X2464701Y3905525D02*
G03*
X2473014Y3887698I37423J6599D01*
G01*
X2489135Y4086415D02*
G03*
X2508730Y4084701I12997J35708D01*
G01*
X2477764Y4139233D02*
G03*
X2466481Y4123120I24426J-29110D01*
G01*
X2539546Y4116722D02*
G03*
X2531233Y4134550I-37423J-6599D01*
G01*
X3604292Y2722997D02*
G03*
X3602578Y2703401I35708J-12997D01*
G01*
X3669110Y2734426D02*
G03*
X3652997Y2745708I-29110J-24426D01*
G01*
X3646599Y2672577D02*
G03*
X3664426Y2680890I-6599J37423D01*
G01*
X3465708Y2697011D02*
G03*
X3467423Y2716607I-35708J12997D01*
G01*
X3412890Y2685640D02*
G03*
X3429003Y2674358I29110J24426D01*
G01*
X3435401Y2747422D02*
G03*
X3417574Y2739110I6599J-37423D01*
G01*
X3845708Y3747003D02*
G03*
X3847423Y3766599I-35708J12997D01*
G01*
X3780890Y3735574D02*
G03*
X3797003Y3724292I29110J24426D01*
G01*
X3803401Y3797422D02*
G03*
X3785574Y3789110I6599J-37423D01*
G01*
X3984292Y3772988D02*
G03*
X3982578Y3753393I35708J-12997D01*
G01*
X4037110Y3784359D02*
G03*
X4020997Y3795642I-29110J-24426D01*
G01*
X4014599Y3722577D02*
G03*
X4032426Y3730890I-6599J37423D01*
G01*
X5524292Y2722997D02*
G03*
X5522577Y2703401I35708J-12997D01*
G01*
X5589110Y2734426D02*
G03*
X5572997Y2745708I-29110J-24426D01*
G01*
X5566599Y2672577D02*
G03*
X5584426Y2680890I-6599J37423D01*
G01*
X5385708Y2697011D02*
G03*
X5387423Y2716607I-35708J12997D01*
G01*
X5332890Y2685640D02*
G03*
X5349003Y2674358I29110J24426D01*
G01*
X5355401Y2747422D02*
G03*
X5337574Y2739110I6599J-37423D01*
G01*
X5594292Y3342997D02*
G03*
X5592578Y3323401I35708J-12997D01*
G01*
X5659110Y3354426D02*
G03*
X5642997Y3365708I-29110J-24426D01*
G01*
X5636599Y3292577D02*
G03*
X5654426Y3300890I-6599J37423D01*
G01*
X5455708Y3317011D02*
G03*
X5457423Y3336607I-35708J12997D01*
G01*
X5402890Y3305640D02*
G03*
X5419003Y3294358I29110J24426D01*
G01*
X5425401Y3367423D02*
G03*
X5407574Y3359110I6599J-37423D01*
G01*
X5785708Y4267003D02*
G03*
X5787423Y4286599I-35708J12997D01*
G01*
X5720890Y4255574D02*
G03*
X5737003Y4244292I29110J24426D01*
G01*
X5743401Y4317423D02*
G03*
X5725574Y4309110I6599J-37423D01*
G01*
X5924292Y4292989D02*
G03*
X5922577Y4273393I35708J-12997D01*
G01*
X5977110Y4304360D02*
G03*
X5960997Y4315642I-29110J-24426D01*
G01*
X5954599Y4242577D02*
G03*
X5972426Y4250890I-6599J37423D01*
G01*
X5415708Y4267003D02*
G03*
X5417422Y4286599I-35708J12997D01*
G01*
X5350890Y4255574D02*
G03*
X5367003Y4244292I29110J24426D01*
G01*
X5373401Y4317423D02*
G03*
X5355574Y4309110I6599J-37423D01*
G01*
X5554292Y4292989D02*
G03*
X5552577Y4273393I35708J-12997D01*
G01*
X5607110Y4304360D02*
G03*
X5590997Y4315642I-29110J-24426D01*
G01*
X5584599Y4242577D02*
G03*
X5602426Y4250890I-6599J37423D01*
G01*
X5775708Y3697003D02*
G03*
X5777423Y3716599I-35708J12997D01*
G01*
X5710890Y3685574D02*
G03*
X5727003Y3674292I29110J24426D01*
G01*
X5733401Y3747423D02*
G03*
X5715574Y3739110I6599J-37423D01*
G01*
X5914292Y3722988D02*
G03*
X5912577Y3703393I35708J-12997D01*
G01*
X5967110Y3734360D02*
G03*
X5950997Y3745642I-29110J-24426D01*
G01*
X5944599Y3672577D02*
G03*
X5962426Y3680890I-6599J37423D01*
G01*
D128*
X7200000Y4660000D02*
D03*
Y4610000D02*
D03*
Y4560000D02*
D03*
Y4510000D02*
D03*
Y4460000D02*
D03*
X6970000Y4610000D02*
D03*
Y4560000D02*
D03*
Y4660000D02*
D03*
Y4510000D02*
D03*
Y4460000D02*
D03*
X7580000Y1920000D02*
D03*
Y1870000D02*
D03*
Y1820000D02*
D03*
Y1770000D02*
D03*
Y1720000D02*
D03*
X7280000Y1720000D02*
D03*
Y1770000D02*
D03*
Y1820000D02*
D03*
Y1870000D02*
D03*
Y1920000D02*
D03*
X7580000Y2290000D02*
D03*
Y2240000D02*
D03*
Y2190000D02*
D03*
Y2140000D02*
D03*
Y2090000D02*
D03*
X7280000D02*
D03*
Y2140000D02*
D03*
Y2190000D02*
D03*
Y2240000D02*
D03*
Y2290000D02*
D03*
X7580000Y1170000D02*
D03*
Y1120000D02*
D03*
Y1070000D02*
D03*
Y1020000D02*
D03*
Y970000D02*
D03*
X7280000Y970000D02*
D03*
Y1020000D02*
D03*
Y1070000D02*
D03*
Y1120000D02*
D03*
Y1170000D02*
D03*
X7580000Y2670000D02*
D03*
Y2620000D02*
D03*
Y2570000D02*
D03*
Y2520000D02*
D03*
Y2470000D02*
D03*
X7280000Y2470000D02*
D03*
Y2520000D02*
D03*
Y2570000D02*
D03*
Y2620000D02*
D03*
Y2670000D02*
D03*
X7220000Y4120000D02*
D03*
Y4070000D02*
D03*
Y4020000D02*
D03*
Y3970000D02*
D03*
Y3920000D02*
D03*
X6920000D02*
D03*
Y3970000D02*
D03*
Y4020000D02*
D03*
Y4070000D02*
D03*
Y4120000D02*
D03*
X7580000Y1550000D02*
D03*
Y1500000D02*
D03*
Y1450000D02*
D03*
Y1400000D02*
D03*
Y1350000D02*
D03*
X7280000D02*
D03*
Y1400000D02*
D03*
Y1450000D02*
D03*
Y1500000D02*
D03*
Y1550000D02*
D03*
X7220000Y3360000D02*
D03*
Y3310000D02*
D03*
Y3260000D02*
D03*
Y3210000D02*
D03*
Y3160000D02*
D03*
X6920000D02*
D03*
Y3210000D02*
D03*
Y3260000D02*
D03*
Y3310000D02*
D03*
Y3360000D02*
D03*
X3660000Y1520000D02*
D03*
Y1470000D02*
D03*
Y1420000D02*
D03*
Y1370000D02*
D03*
Y1320000D02*
D03*
X3360000D02*
D03*
Y1370000D02*
D03*
Y1420000D02*
D03*
Y1470000D02*
D03*
Y1520000D02*
D03*
X7220000Y3740000D02*
D03*
Y3690000D02*
D03*
Y3640000D02*
D03*
Y3590000D02*
D03*
Y3540000D02*
D03*
X6920000Y3540000D02*
D03*
Y3590000D02*
D03*
Y3640000D02*
D03*
Y3690000D02*
D03*
Y3740000D02*
D03*
X3249999Y2355000D02*
D03*
Y2304999D02*
D03*
Y2255000D02*
D03*
Y2205000D02*
D03*
X2969999D02*
D03*
Y2255000D02*
D03*
Y2304999D02*
D03*
Y2354999D02*
D03*
X6505000Y995000D02*
D03*
X6505000Y945000D02*
D03*
Y895000D02*
D03*
Y845000D02*
D03*
X6255000D02*
D03*
Y895000D02*
D03*
Y945000D02*
D03*
X6255000Y995000D02*
D03*
X6505000Y1195000D02*
D03*
Y1145000D02*
D03*
Y1095000D02*
D03*
Y1045000D02*
D03*
X6255000D02*
D03*
Y1095000D02*
D03*
Y1145000D02*
D03*
X6255000Y1195000D02*
D03*
X6504999Y1805000D02*
D03*
X6505000Y1755000D02*
D03*
Y1705000D02*
D03*
Y1655000D02*
D03*
X6254999Y1655001D02*
D03*
Y1705001D02*
D03*
Y1755001D02*
D03*
X6255000Y1805000D02*
D03*
X6505000Y2005000D02*
D03*
Y1955000D02*
D03*
Y1905000D02*
D03*
Y1855000D02*
D03*
X6254999Y1855000D02*
D03*
Y1905000D02*
D03*
Y1955000D02*
D03*
X6255000Y2005000D02*
D03*
D129*
X7060000Y4699999D02*
D03*
X7110000D02*
D03*
X7060000Y4420000D02*
D03*
X7110000D02*
D03*
D130*
X7430000Y1820000D02*
D03*
X7480000Y1910000D02*
D03*
X7379999D02*
D03*
X7480000Y1730000D02*
D03*
X7379999D02*
D03*
X7430000Y2190000D02*
D03*
X7480000Y2280000D02*
D03*
X7379999D02*
D03*
X7480000Y2100000D02*
D03*
X7379999D02*
D03*
X7430000Y1070000D02*
D03*
X7480000Y1160000D02*
D03*
X7379999D02*
D03*
X7480000Y980000D02*
D03*
X7379999D02*
D03*
X7430000Y2570000D02*
D03*
X7480000Y2660000D02*
D03*
X7379999D02*
D03*
X7480000Y2480000D02*
D03*
X7379999D02*
D03*
X7070000Y4020000D02*
D03*
X7120000Y4110000D02*
D03*
X7020000D02*
D03*
X7120000Y3930000D02*
D03*
X7020000D02*
D03*
X7430000Y1450000D02*
D03*
X7480000Y1540000D02*
D03*
X7379999D02*
D03*
X7480000Y1360000D02*
D03*
X7379999D02*
D03*
X7070000Y3260000D02*
D03*
X7120000Y3350000D02*
D03*
X7020000D02*
D03*
X7120000Y3170000D02*
D03*
X7020000D02*
D03*
X3510000Y1420000D02*
D03*
X3560000Y1510000D02*
D03*
X3460000D02*
D03*
X3560000Y1330000D02*
D03*
X3460000D02*
D03*
X7070000Y3640000D02*
D03*
X7120000Y3730000D02*
D03*
X7020000D02*
D03*
X7120000Y3550000D02*
D03*
X7020000D02*
D03*
D131*
X4180000Y2227500D02*
D03*
Y2162500D02*
D03*
Y2097500D02*
D03*
Y2032500D02*
D03*
X3740000D02*
D03*
Y2097500D02*
D03*
Y2162500D02*
D03*
Y2227508D02*
D03*
X5440000Y2087500D02*
D03*
Y2022500D02*
D03*
Y1957500D02*
D03*
Y1892500D02*
D03*
X5000000D02*
D03*
Y1957500D02*
D03*
Y2022500D02*
D03*
Y2087509D02*
D03*
X3615000Y2832492D02*
D03*
Y2897491D02*
D03*
Y2962491D02*
D03*
Y3027492D02*
D03*
Y3092492D02*
D03*
Y3157491D02*
D03*
Y3222491D02*
D03*
Y3287492D02*
D03*
X4205000Y3287500D02*
D03*
Y3222500D02*
D03*
Y3157500D02*
D03*
Y3092500D02*
D03*
Y3027500D02*
D03*
Y2962500D02*
D03*
Y2897500D02*
D03*
Y2832500D02*
D03*
X3695000Y3862492D02*
D03*
Y3927491D02*
D03*
Y3992491D02*
D03*
Y4057492D02*
D03*
Y4122492D02*
D03*
Y4187491D02*
D03*
Y4252491D02*
D03*
Y4317492D02*
D03*
X4285000Y4317500D02*
D03*
Y4252500D02*
D03*
Y4187500D02*
D03*
Y4122500D02*
D03*
Y4057500D02*
D03*
Y3992500D02*
D03*
Y3927500D02*
D03*
Y3862500D02*
D03*
X2790003Y3902500D02*
D03*
Y3967503D02*
D03*
Y4032496D02*
D03*
Y4097500D02*
D03*
X3229996D02*
D03*
Y4032496D02*
D03*
Y3967503D02*
D03*
Y3902491D02*
D03*
X5755000Y3227507D02*
D03*
Y3162505D02*
D03*
Y3097505D02*
D03*
Y3032508D02*
D03*
Y2967507D02*
D03*
Y2902512D02*
D03*
Y2837512D02*
D03*
Y2772508D02*
D03*
X5165000Y2772503D02*
D03*
Y2837500D02*
D03*
Y2902500D02*
D03*
Y2967503D02*
D03*
Y3032496D02*
D03*
Y3097500D02*
D03*
Y3162500D02*
D03*
Y3227496D02*
D03*
X5380003Y3942500D02*
D03*
Y4007503D02*
D03*
Y4072496D02*
D03*
Y4137499D02*
D03*
X5819996D02*
D03*
Y4072496D02*
D03*
Y4007503D02*
D03*
Y3942491D02*
D03*
D132*
X3109999Y2240000D02*
D03*
Y2319999D02*
D03*
D133*
X7654552Y2979734D02*
D03*
X7719551Y2979736D02*
D03*
X7784549Y2979734D02*
D03*
Y3179734D02*
D03*
X7719551Y3179733D02*
D03*
X7654551D02*
D03*
D134*
X7814999Y4227499D02*
D03*
X7765000Y4227500D02*
D03*
X7715000D02*
D03*
X7665000Y4227498D02*
D03*
Y3932500D02*
D03*
X7715001Y3932501D02*
D03*
X7765000Y3932500D02*
D03*
X7814999D02*
D03*
D135*
X6405000Y795000D02*
D03*
X6355000D02*
D03*
Y1245000D02*
D03*
X6405000D02*
D03*
X6404999Y1605000D02*
D03*
X6354999D02*
D03*
Y2055000D02*
D03*
X6404999D02*
D03*
D136*
X6380256Y1133790D02*
D03*
X6380452Y906071D02*
D03*
X6380255Y1943791D02*
D03*
X6380451Y1716072D02*
D03*
X3940000Y3530000D02*
D03*
Y3440000D02*
D03*
D137*
X6380000Y1020000D02*
D03*
X6380000Y1830000D02*
D03*
X3940000Y3620000D02*
D03*
D138*
X3797500Y3630000D02*
D03*
Y3580000D02*
D03*
Y3430000D02*
D03*
X4082500D02*
D03*
Y3580000D02*
D03*
Y3630000D02*
D03*
D139*
X3797500Y3530000D02*
D03*
Y3480000D02*
D03*
X4082500D02*
D03*
Y3530000D02*
D03*
D140*
X2892500Y3269998D02*
D03*
X2957501Y3270000D02*
D03*
X3022499Y3269998D02*
D03*
X3087500D02*
D03*
X3087499Y2830001D02*
D03*
X3022497Y2830000D02*
D03*
X2957499Y2830002D02*
D03*
X2892491Y2830001D02*
D03*
X6397504Y3310001D02*
D03*
X6332500Y3310005D02*
D03*
X6267502Y3310003D02*
D03*
X6202504Y3310001D02*
D03*
X6202503Y3749998D02*
D03*
X6267500Y3750001D02*
D03*
X6332498Y3750003D02*
D03*
X6397512Y3749998D02*
D03*
D141*
X5089999Y4122499D02*
D03*
X5039999D02*
D03*
X4990000Y4122499D02*
D03*
X4940001Y4122498D02*
D03*
X4890001D02*
D03*
X4890001Y3837501D02*
D03*
X4940001D02*
D03*
X4990000Y3837500D02*
D03*
X5039999Y3837501D02*
D03*
X5089999D02*
D03*
D142*
X5079998Y3980004D02*
D03*
D143*
X4990000Y3980000D02*
D03*
X4900000D02*
D03*
D144*
X2400000Y3172499D02*
D03*
X2400001Y2867501D02*
D03*
D145*
X6097500Y4010000D02*
D03*
X6402500Y4010000D02*
D03*
D146*
X7085000Y4560000D02*
D03*
D147*
X5150000Y1265000D02*
D03*
D148*
Y1170000D02*
D03*
Y1075000D02*
D03*
X5410000D02*
D03*
Y1170000D02*
D03*
Y1265000D02*
D03*
D149*
X2495000Y2360000D02*
D03*
D150*
X2400000D02*
D03*
X2305000D02*
D03*
Y2100000D02*
D03*
X2400000D02*
D03*
X2495000D02*
D03*
D151*
X6722500Y2375000D02*
D03*
Y2565000D02*
D03*
X6977500D02*
D03*
Y2470000D02*
D03*
X2982500Y3435000D02*
D03*
Y3625000D02*
D03*
X3237500D02*
D03*
Y3530000D02*
D03*
D152*
X2050000Y870000D02*
D03*
Y710000D02*
D03*
X1890000Y870000D02*
D03*
Y710000D02*
D03*
X4790000Y1800000D02*
D03*
Y1640000D02*
D03*
X2890000Y870000D02*
D03*
Y710000D02*
D03*
X2540000D02*
D03*
Y870000D02*
D03*
X2360000D02*
D03*
Y710000D02*
D03*
D153*
X4205000Y1690000D02*
D03*
X4435000D02*
D03*
X3465000Y1070000D02*
D03*
X3695000D02*
D03*
X4210000Y1330000D02*
D03*
X4440000D02*
D03*
X5415000Y1520000D02*
D03*
X5185000D02*
D03*
D154*
X2970000Y1275000D02*
D03*
Y1045000D02*
D03*
X2970000Y1465000D02*
D03*
Y1695000D02*
D03*
X5770000Y1925000D02*
D03*
Y2155000D02*
D03*
X2600000Y1045000D02*
D03*
Y1275000D02*
D03*
D155*
X7850000Y230000D02*
D03*
Y5230000D02*
D03*
X2840000Y2040000D02*
D03*
X6420000Y4700000D02*
D03*
X4890000D02*
D03*
X6110000D02*
D03*
X4580000D02*
D03*
X7730000Y870000D02*
D03*
X7660000Y4560000D02*
D03*
X1410000Y4670000D02*
D03*
D156*
X8010000Y230000D02*
D03*
Y5230000D02*
D03*
X3000000Y2040000D02*
D03*
X6580000Y4700000D02*
D03*
X5050000D02*
D03*
X6270000D02*
D03*
X4740000D02*
D03*
X7890000Y870000D02*
D03*
X7820000Y4560000D02*
D03*
X1570000Y4670000D02*
D03*
X3380000Y1790000D02*
D03*
X3220000D02*
D03*
X4470000Y1100000D02*
D03*
X4310000D02*
D03*
X2720000Y1670000D02*
D03*
X2560000D02*
D03*
X1870000Y1020000D02*
D03*
X2030000D02*
D03*
X4930000Y1750000D02*
D03*
X5090000D02*
D03*
X5530000D02*
D03*
X5370000D02*
D03*
X3490000Y3090000D02*
D03*
X3330000D02*
D03*
X3490000Y2840000D02*
D03*
X3330000D02*
D03*
X3570000Y4170000D02*
D03*
X3410000D02*
D03*
X3570000Y4040000D02*
D03*
X3410000D02*
D03*
X5050000Y3390000D02*
D03*
X5210000D02*
D03*
X5900000Y2950000D02*
D03*
X6060000D02*
D03*
D157*
X2155000Y1150000D02*
D03*
X2275000Y1640000D02*
D03*
X2155000Y1010000D02*
D03*
D158*
X2305000Y1150000D02*
D03*
X2125000Y1640000D02*
D03*
X2305000Y1010000D02*
D03*
D159*
X5660000Y1215000D02*
D03*
X5030000Y1435000D02*
D03*
X2630000Y2185000D02*
D03*
D160*
X5660000Y1065000D02*
D03*
X5030000Y1585000D02*
D03*
X2630000Y2035000D02*
D03*
D161*
X2400000Y3380000D02*
D03*
D162*
Y3680000D02*
D03*
D163*
X4640000Y1410000D02*
D03*
Y1130000D02*
D03*
X4490000Y2250000D02*
D03*
Y1970000D02*
D03*
X5750000Y1640000D02*
D03*
Y1360000D02*
D03*
X4730000Y2250000D02*
D03*
Y1970000D02*
D03*
X4870000Y1050000D02*
D03*
Y1330000D02*
D03*
D164*
X4170000Y1070000D02*
D03*
X3890000D02*
D03*
X4020000Y1740000D02*
D03*
X3740000D02*
D03*
X2420000Y1490000D02*
D03*
X2700000D02*
D03*
X5440000Y2360000D02*
D03*
X5720000D02*
D03*
X5700000Y3530000D02*
D03*
X5420000D02*
D03*
D165*
X4600000Y1740000D02*
D03*
Y1580000D02*
D03*
X3220000Y1500000D02*
D03*
Y1660000D02*
D03*
X4320000Y2080000D02*
D03*
Y2240000D02*
D03*
X2960000Y4760000D02*
D03*
Y4600000D02*
D03*
X3600000Y2010000D02*
D03*
Y2170000D02*
D03*
X5580000Y1420000D02*
D03*
Y1580000D02*
D03*
X2210000Y870000D02*
D03*
Y710000D02*
D03*
X2710000Y870000D02*
D03*
Y710000D02*
D03*
X3200000Y2850000D02*
D03*
Y2690000D02*
D03*
X6420000Y2880000D02*
D03*
Y2720000D02*
D03*
X6290000D02*
D03*
Y2880000D02*
D03*
X2510000Y4460000D02*
D03*
Y4620000D02*
D03*
X6160000Y2880000D02*
D03*
Y2720000D02*
D03*
X3600000Y2450000D02*
D03*
Y2290000D02*
D03*
X5920000Y3170000D02*
D03*
Y3330000D02*
D03*
%TF.MD5,5702ba08b9d20881138a36dd55023677*%
M02*
