%TF.GenerationSoftware,Altium Limited,Altium Designer,21.5.1 (32)*%
G04 Layer_Color=65535*
%FSLAX45Y45*%
%MOMM*%
%TF.SameCoordinates,6D93875A-9943-4EB1-8E24-321CDD5DE8D5*%
%TF.FilePolarity,Positive*%
%TF.FileFunction,Legend,Top*%
%TF.Part,Single*%
G01*
G75*
%TA.AperFunction,NonConductor*%
%ADD101C,0.20000*%
%ADD103C,0.15000*%
%ADD126C,0.10000*%
%ADD127C,0.30000*%
G36*
X3750000Y2256411D02*
X3717842Y2295000D01*
X3782157D01*
X3750000Y2256411D01*
D02*
G37*
G36*
X2705000Y2162843D02*
X2666411Y2195000D01*
X2705000Y2227158D01*
Y2162843D01*
D02*
G37*
G36*
X5010000Y2116412D02*
X4977843Y2155000D01*
X5042158D01*
X5010000Y2116412D01*
D02*
G37*
G36*
X2820000Y2091411D02*
X2787843Y2130000D01*
X2852157D01*
X2820000Y2091411D01*
D02*
G37*
G36*
X2950000Y2000000D02*
X2900000Y2040000D01*
X2950000Y2080000D01*
Y2000000D01*
D02*
G37*
G36*
X2525000Y1942843D02*
X2486411Y1975000D01*
X2525000Y2007158D01*
Y1942843D01*
D02*
G37*
G36*
X2095000Y1852843D02*
X2056411Y1885000D01*
X2095000Y1917157D01*
Y1852843D01*
D02*
G37*
G36*
X2317157Y1565000D02*
X2252843D01*
X2285000Y1603589D01*
X2317157Y1565000D01*
D02*
G37*
G36*
X3325000Y1556411D02*
X3292843Y1595000D01*
X3357157D01*
X3325000Y1556411D01*
D02*
G37*
G36*
X2315000Y1482843D02*
X2276411Y1515000D01*
X2315000Y1547157D01*
Y1482843D01*
D02*
G37*
G36*
X4993589Y1425000D02*
X4955000Y1392843D01*
Y1457157D01*
X4993589Y1425000D01*
D02*
G37*
G36*
X2145000Y1186411D02*
X2112843Y1225000D01*
X2177157D01*
X2145000Y1186411D01*
D02*
G37*
G36*
X1780000Y1167843D02*
X1741411Y1200000D01*
X1780000Y1232158D01*
Y1167843D01*
D02*
G37*
G36*
X2145000Y1046411D02*
X2112843Y1085000D01*
X2177157D01*
X2145000Y1046411D01*
D02*
G37*
G36*
X1731261Y888429D02*
X1699104Y927018D01*
X1763418D01*
X1731261Y888429D01*
D02*
G37*
G36*
X1832357Y799137D02*
X1793768Y831294D01*
X1832357Y863452D01*
Y799137D01*
D02*
G37*
G36*
X1860589Y70563D02*
X1822000Y38406D01*
Y102720D01*
X1860589Y70563D01*
D02*
G37*
G36*
Y4896563D02*
X1822000Y4864406D01*
Y4928720D01*
X1860589Y4896563D01*
D02*
G37*
G36*
X4870000Y4751411D02*
X4837843Y4790000D01*
X4902158D01*
X4870000Y4751411D01*
D02*
G37*
G36*
X4560000D02*
X4527843Y4790000D01*
X4592157D01*
X4560000Y4751411D01*
D02*
G37*
G36*
X1390000Y4721411D02*
X1357843Y4760000D01*
X1422157D01*
X1390000Y4721411D01*
D02*
G37*
G36*
X5000000Y4660000D02*
X4950000Y4700000D01*
X5000000Y4740000D01*
Y4660000D01*
D02*
G37*
G36*
X4690000D02*
X4640000Y4700000D01*
X4690000Y4740000D01*
Y4660000D01*
D02*
G37*
G36*
X1520000Y4630000D02*
X1470000Y4670000D01*
X1520000Y4710000D01*
Y4630000D01*
D02*
G37*
G36*
X3705000Y4346411D02*
X3672843Y4385000D01*
X3737157D01*
X3705000Y4346411D01*
D02*
G37*
G36*
X1860613Y4138203D02*
X1822024Y4106045D01*
Y4170360D01*
X1860613Y4138203D01*
D02*
G37*
G36*
X3252157Y3835000D02*
X3187842D01*
X3220000Y3873589D01*
X3252157Y3835000D01*
D02*
G37*
G36*
X3755000Y3666411D02*
X3722843Y3705000D01*
X3787158D01*
X3755000Y3666411D01*
D02*
G37*
G36*
X3267157Y3355000D02*
X3202842D01*
X3235000Y3393589D01*
X3267157Y3355000D01*
D02*
G37*
G36*
X2333589Y3350000D02*
X2295000Y3317843D01*
Y3382158D01*
X2333589Y3350000D01*
D02*
G37*
G36*
X3625000Y3316411D02*
X3592842Y3355000D01*
X3657157D01*
X3625000Y3316411D01*
D02*
G37*
G36*
X2863589Y2840000D02*
X2825000Y2807842D01*
Y2872157D01*
X2863589Y2840000D01*
D02*
G37*
G36*
X2940000Y2381411D02*
X2907842Y2420000D01*
X2972157D01*
X2940000Y2381411D01*
D02*
G37*
G36*
X2570000Y2322842D02*
X2531411Y2355000D01*
X2570000Y2387157D01*
Y2322842D01*
D02*
G37*
G36*
X6847943Y3075426D02*
X6848969D01*
Y3074913D01*
Y3074400D01*
Y3073887D01*
X6849482D01*
Y3073374D01*
Y3072861D01*
Y3072348D01*
Y3071835D01*
Y3071322D01*
X6849995D01*
Y3070809D01*
Y3070296D01*
Y3069783D01*
Y3069270D01*
Y3068757D01*
Y3068244D01*
X6850508D01*
Y3067731D01*
Y3067219D01*
Y3066706D01*
Y3066192D01*
Y3065680D01*
X6851021D01*
Y3065167D01*
Y3064654D01*
Y3064141D01*
Y3063628D01*
Y3063115D01*
X6851534D01*
Y3062602D01*
Y3062089D01*
Y3061576D01*
Y3061063D01*
Y3060550D01*
Y3060037D01*
X6852047D01*
Y3059524D01*
Y3059011D01*
Y3058498D01*
Y3057986D01*
Y3057472D01*
X6852560D01*
Y3056959D01*
Y3056447D01*
Y3055934D01*
Y3055420D01*
Y3054908D01*
X6853072D01*
Y3054395D01*
Y3053882D01*
Y3053369D01*
Y3052856D01*
Y3052343D01*
Y3051830D01*
X6853585D01*
Y3051317D01*
Y3050804D01*
Y3050291D01*
Y3049778D01*
Y3049265D01*
X6854098D01*
Y3048752D01*
Y3048239D01*
Y3047726D01*
Y3047213D01*
Y3046700D01*
Y3046187D01*
X6854611D01*
Y3045674D01*
Y3045161D01*
Y3044648D01*
Y3044135D01*
Y3043623D01*
X6855124D01*
Y3043109D01*
Y3042597D01*
Y3042084D01*
Y3041570D01*
Y3041058D01*
X6855637D01*
Y3040545D01*
Y3040032D01*
Y3039519D01*
Y3039006D01*
Y3038493D01*
Y3037980D01*
X6856150D01*
Y3037467D01*
Y3036954D01*
Y3036441D01*
Y3035928D01*
Y3035415D01*
X6856663D01*
Y3034902D01*
Y3034389D01*
X6857176D01*
Y3033876D01*
X6858202D01*
Y3033364D01*
X6859228D01*
Y3032851D01*
X6860767D01*
Y3032337D01*
X6861793D01*
Y3031825D01*
X6863331D01*
Y3031312D01*
X6864358D01*
Y3030798D01*
X6865383D01*
Y3030286D01*
X6866922D01*
Y3029773D01*
X6867948D01*
Y3029260D01*
X6869487D01*
Y3028747D01*
X6870513D01*
Y3028234D01*
X6872052D01*
Y3027721D01*
X6873078D01*
Y3027208D01*
X6874617D01*
Y3026695D01*
X6875643D01*
Y3026182D01*
X6876668D01*
Y3025669D01*
X6878207D01*
Y3025156D01*
X6879233D01*
Y3024643D01*
X6880772D01*
Y3024130D01*
X6881798D01*
Y3023617D01*
X6883337D01*
Y3023104D01*
X6884363D01*
Y3022591D01*
X6885902D01*
Y3023104D01*
X6886928D01*
Y3023617D01*
X6887441D01*
Y3024130D01*
X6888466D01*
Y3024643D01*
X6888980D01*
Y3025156D01*
X6889492D01*
Y3025669D01*
X6890518D01*
Y3026182D01*
X6891031D01*
Y3026695D01*
X6892057D01*
Y3027208D01*
X6892570D01*
Y3027721D01*
X6893596D01*
Y3028234D01*
X6894109D01*
Y3028747D01*
X6895135D01*
Y3029260D01*
X6895648D01*
Y3029773D01*
X6896674D01*
Y3030286D01*
X6897187D01*
Y3030798D01*
X6897700D01*
Y3031312D01*
X6898726D01*
Y3031825D01*
X6899238D01*
Y3032337D01*
X6900265D01*
Y3032851D01*
X6900777D01*
Y3033364D01*
X6901803D01*
Y3033876D01*
X6902316D01*
Y3034389D01*
X6903342D01*
Y3034902D01*
X6903855D01*
Y3035415D01*
X6904881D01*
Y3035928D01*
X6905394D01*
Y3036441D01*
X6905907D01*
Y3036954D01*
X6906933D01*
Y3037467D01*
X6907446D01*
Y3037980D01*
X6908472D01*
Y3038493D01*
X6908985D01*
Y3039006D01*
X6910011D01*
Y3039519D01*
X6910524D01*
Y3040032D01*
X6911550D01*
Y3040545D01*
X6912063D01*
Y3041058D01*
X6913088D01*
Y3041570D01*
X6913601D01*
Y3042084D01*
X6914627D01*
Y3042597D01*
X6915140D01*
Y3043109D01*
X6915653D01*
Y3043623D01*
X6916679D01*
Y3044135D01*
X6917192D01*
Y3044648D01*
X6918218D01*
Y3045161D01*
X6918731D01*
Y3045674D01*
X6921296D01*
Y3045161D01*
X6921809D01*
Y3044648D01*
X6922321D01*
Y3044135D01*
X6922835D01*
Y3043623D01*
X6923348D01*
Y3043109D01*
X6923860D01*
Y3042597D01*
X6924374D01*
Y3042084D01*
X6924887D01*
Y3041570D01*
X6925399D01*
Y3041058D01*
X6925912D01*
Y3040545D01*
X6926425D01*
Y3040032D01*
X6926938D01*
Y3039519D01*
X6927451D01*
Y3039006D01*
X6927964D01*
Y3038493D01*
X6928477D01*
Y3037980D01*
X6928990D01*
Y3037467D01*
X6929503D01*
Y3036954D01*
X6930016D01*
Y3036441D01*
X6930529D01*
Y3035928D01*
X6931042D01*
Y3035415D01*
X6931555D01*
Y3034902D01*
X6932068D01*
Y3034389D01*
X6932581D01*
Y3033876D01*
X6933094D01*
Y3033364D01*
X6933607D01*
Y3032851D01*
X6934120D01*
Y3032337D01*
X6934633D01*
Y3031825D01*
X6935146D01*
Y3031312D01*
X6935658D01*
Y3030798D01*
X6936171D01*
Y3030286D01*
X6936684D01*
Y3029773D01*
X6937197D01*
Y3029260D01*
X6937710D01*
Y3028747D01*
X6938223D01*
Y3028234D01*
X6938736D01*
Y3027721D01*
X6939249D01*
Y3027208D01*
X6939762D01*
Y3026695D01*
X6940275D01*
Y3026182D01*
X6940788D01*
Y3025669D01*
X6941301D01*
Y3025156D01*
X6941814D01*
Y3024643D01*
X6942327D01*
Y3024130D01*
X6942840D01*
Y3023617D01*
X6943353D01*
Y3023104D01*
X6943866D01*
Y3022591D01*
X6944379D01*
Y3022078D01*
X6944892D01*
Y3021565D01*
X6945404D01*
Y3021052D01*
X6945918D01*
Y3020540D01*
X6946431D01*
Y3020026D01*
X6946943D01*
Y3019514D01*
X6947457D01*
Y3019001D01*
X6947970D01*
Y3018487D01*
X6948482D01*
Y3017975D01*
X6948995D01*
Y3017462D01*
X6949508D01*
Y3016949D01*
Y3016436D01*
Y3015923D01*
Y3015410D01*
Y3014897D01*
X6948995D01*
Y3014384D01*
X6948482D01*
Y3013871D01*
Y3013358D01*
X6947970D01*
Y3012845D01*
X6947457D01*
Y3012332D01*
Y3011819D01*
X6946943D01*
Y3011306D01*
X6946431D01*
Y3010793D01*
Y3010280D01*
X6945918D01*
Y3009767D01*
X6945404D01*
Y3009254D01*
X6944892D01*
Y3008742D01*
Y3008229D01*
X6944379D01*
Y3007715D01*
X6943866D01*
Y3007203D01*
Y3006690D01*
X6943353D01*
Y3006177D01*
X6942840D01*
Y3005664D01*
Y3005151D01*
X6942327D01*
Y3004638D01*
X6941814D01*
Y3004125D01*
Y3003612D01*
X6941301D01*
Y3003099D01*
X6940788D01*
Y3002586D01*
Y3002073D01*
X6940275D01*
Y3001560D01*
X6939762D01*
Y3001047D01*
X6939249D01*
Y3000534D01*
Y3000021D01*
X6938736D01*
Y2999508D01*
X6938223D01*
Y2998995D01*
Y2998482D01*
X6937710D01*
Y2997969D01*
X6937197D01*
Y2997457D01*
Y2996943D01*
X6936684D01*
Y2996430D01*
X6936171D01*
Y2995918D01*
Y2995404D01*
X6935658D01*
Y2994892D01*
X6935146D01*
Y2994379D01*
Y2993866D01*
X6934633D01*
Y2993353D01*
X6934120D01*
Y2992840D01*
X6933607D01*
Y2992327D01*
Y2991814D01*
X6933094D01*
Y2991301D01*
X6932581D01*
Y2990788D01*
Y2990275D01*
X6932068D01*
Y2989762D01*
X6931555D01*
Y2989249D01*
Y2988736D01*
X6931042D01*
Y2988223D01*
X6930529D01*
Y2987710D01*
Y2987197D01*
X6930016D01*
Y2986684D01*
X6929503D01*
Y2986171D01*
Y2985658D01*
X6928990D01*
Y2985146D01*
X6928477D01*
Y2984632D01*
Y2984120D01*
X6927964D01*
Y2983607D01*
X6927451D01*
Y2983094D01*
Y2982581D01*
X6926938D01*
Y2982068D01*
Y2981555D01*
Y2981042D01*
X6927451D01*
Y2980529D01*
Y2980016D01*
Y2979503D01*
X6927964D01*
Y2978990D01*
Y2978477D01*
X6928477D01*
Y2977964D01*
Y2977451D01*
X6928990D01*
Y2976938D01*
Y2976425D01*
Y2975913D01*
X6929503D01*
Y2975399D01*
Y2974886D01*
X6930016D01*
Y2974374D01*
Y2973860D01*
X6930529D01*
Y2973347D01*
Y2972835D01*
Y2972321D01*
X6931042D01*
Y2971809D01*
Y2971296D01*
X6931555D01*
Y2970783D01*
Y2970270D01*
X6932068D01*
Y2969757D01*
Y2969244D01*
Y2968731D01*
X6932581D01*
Y2968218D01*
Y2967705D01*
X6933094D01*
Y2967192D01*
Y2966679D01*
X6933607D01*
Y2966166D01*
Y2965653D01*
Y2965140D01*
X6934120D01*
Y2964627D01*
Y2964114D01*
X6934633D01*
Y2963601D01*
Y2963088D01*
X6935146D01*
Y2962575D01*
Y2962062D01*
Y2961549D01*
X6935658D01*
Y2961036D01*
Y2960524D01*
X6936171D01*
Y2960011D01*
Y2959498D01*
X6936684D01*
Y2958985D01*
Y2958472D01*
Y2957959D01*
X6937197D01*
Y2957446D01*
Y2956933D01*
X6937710D01*
Y2956420D01*
Y2955907D01*
X6938223D01*
Y2955394D01*
Y2954881D01*
Y2954368D01*
X6938736D01*
Y2953855D01*
Y2953342D01*
X6939249D01*
Y2952829D01*
X6940275D01*
Y2952316D01*
X6941814D01*
Y2951803D01*
X6944892D01*
Y2951291D01*
X6947457D01*
Y2950777D01*
X6950021D01*
Y2950264D01*
X6953099D01*
Y2949752D01*
X6955664D01*
Y2949239D01*
X6958741D01*
Y2948725D01*
X6961306D01*
Y2948213D01*
X6963871D01*
Y2947700D01*
X6966949D01*
Y2947187D01*
X6969514D01*
Y2946674D01*
X6972078D01*
Y2946161D01*
X6975156D01*
Y2945648D01*
X6977721D01*
Y2945135D01*
X6979260D01*
Y2944622D01*
Y2944109D01*
X6979773D01*
Y2943596D01*
Y2943083D01*
Y2942570D01*
Y2942057D01*
Y2941544D01*
Y2941031D01*
Y2940518D01*
Y2940005D01*
Y2939492D01*
Y2938979D01*
Y2938466D01*
Y2937953D01*
Y2937441D01*
Y2936928D01*
Y2936414D01*
Y2935902D01*
Y2935389D01*
Y2934876D01*
Y2934363D01*
Y2933850D01*
Y2933337D01*
Y2932824D01*
Y2932311D01*
Y2931798D01*
Y2931285D01*
Y2930772D01*
Y2930259D01*
Y2929746D01*
Y2929233D01*
Y2928720D01*
Y2928207D01*
Y2927694D01*
Y2927181D01*
Y2926669D01*
Y2926156D01*
Y2925642D01*
Y2925130D01*
Y2924617D01*
Y2924104D01*
Y2923591D01*
Y2923078D01*
Y2922565D01*
Y2922052D01*
Y2921539D01*
Y2921026D01*
Y2920513D01*
Y2920000D01*
Y2919487D01*
Y2918974D01*
Y2918461D01*
Y2917948D01*
Y2917435D01*
Y2916922D01*
Y2916409D01*
Y2915896D01*
Y2915383D01*
Y2914870D01*
Y2914357D01*
Y2913845D01*
Y2913331D01*
Y2912819D01*
Y2912306D01*
Y2911792D01*
Y2911280D01*
Y2910767D01*
Y2910254D01*
Y2909741D01*
Y2909228D01*
Y2908715D01*
Y2908202D01*
Y2907689D01*
Y2907176D01*
Y2906663D01*
Y2906150D01*
Y2905637D01*
Y2905124D01*
Y2904611D01*
Y2904098D01*
Y2903586D01*
X6979260D01*
Y2903072D01*
X6978747D01*
Y2902559D01*
X6977208D01*
Y2902047D01*
X6974643D01*
Y2901534D01*
X6971565D01*
Y2901020D01*
X6969001D01*
Y2900508D01*
X6965923D01*
Y2899995D01*
X6963358D01*
Y2899482D01*
X6960793D01*
Y2898969D01*
X6957716D01*
Y2898456D01*
X6955151D01*
Y2897943D01*
X6952586D01*
Y2897430D01*
X6949508D01*
Y2896917D01*
X6946943D01*
Y2896404D01*
X6943866D01*
Y2895891D01*
X6941301D01*
Y2895378D01*
X6940788D01*
Y2894865D01*
X6940275D01*
Y2894352D01*
X6939762D01*
Y2893839D01*
Y2893326D01*
X6939249D01*
Y2892813D01*
Y2892300D01*
X6938736D01*
Y2891787D01*
Y2891274D01*
Y2890762D01*
X6938223D01*
Y2890248D01*
Y2889736D01*
X6937710D01*
Y2889223D01*
Y2888709D01*
Y2888197D01*
X6937197D01*
Y2887684D01*
Y2887171D01*
X6936684D01*
Y2886658D01*
Y2886145D01*
Y2885632D01*
X6936171D01*
Y2885119D01*
Y2884606D01*
X6935658D01*
Y2884093D01*
Y2883580D01*
Y2883067D01*
X6935146D01*
Y2882554D01*
Y2882041D01*
X6934633D01*
Y2881528D01*
Y2881015D01*
Y2880502D01*
X6934120D01*
Y2879989D01*
Y2879476D01*
X6933607D01*
Y2878964D01*
Y2878451D01*
Y2877937D01*
X6933094D01*
Y2877425D01*
Y2876912D01*
X6932581D01*
Y2876399D01*
Y2875886D01*
Y2875373D01*
X6932068D01*
Y2874860D01*
Y2874347D01*
X6931555D01*
Y2873834D01*
Y2873321D01*
Y2872808D01*
X6931042D01*
Y2872295D01*
Y2871782D01*
X6930529D01*
Y2871269D01*
Y2870756D01*
Y2870243D01*
X6930016D01*
Y2869730D01*
Y2869217D01*
X6929503D01*
Y2868704D01*
Y2868191D01*
Y2867679D01*
X6928990D01*
Y2867165D01*
Y2866652D01*
X6928477D01*
Y2866140D01*
Y2865626D01*
Y2865114D01*
X6927964D01*
Y2864601D01*
Y2864088D01*
Y2863575D01*
X6928477D01*
Y2863062D01*
Y2862549D01*
X6928990D01*
Y2862036D01*
X6929503D01*
Y2861523D01*
Y2861010D01*
X6930016D01*
Y2860497D01*
X6930529D01*
Y2859984D01*
Y2859471D01*
X6931042D01*
Y2858958D01*
X6931555D01*
Y2858445D01*
X6932068D01*
Y2857932D01*
Y2857419D01*
X6932581D01*
Y2856906D01*
X6933094D01*
Y2856393D01*
Y2855880D01*
X6933607D01*
Y2855367D01*
X6934120D01*
Y2854854D01*
Y2854342D01*
X6934633D01*
Y2853829D01*
X6935146D01*
Y2853316D01*
Y2852803D01*
X6935658D01*
Y2852290D01*
X6936171D01*
Y2851777D01*
Y2851264D01*
X6936684D01*
Y2850751D01*
X6937197D01*
Y2850238D01*
X6937710D01*
Y2849725D01*
Y2849212D01*
X6938223D01*
Y2848699D01*
X6938736D01*
Y2848186D01*
Y2847673D01*
X6939249D01*
Y2847160D01*
X6939762D01*
Y2846647D01*
Y2846134D01*
X6940275D01*
Y2845621D01*
X6940788D01*
Y2845108D01*
Y2844596D01*
X6941301D01*
Y2844082D01*
X6941814D01*
Y2843569D01*
Y2843057D01*
X6942327D01*
Y2842543D01*
X6942840D01*
Y2842030D01*
Y2841518D01*
X6943353D01*
Y2841005D01*
X6943866D01*
Y2840492D01*
X6944379D01*
Y2839979D01*
Y2839466D01*
X6944892D01*
Y2838953D01*
X6945404D01*
Y2838440D01*
Y2837927D01*
X6945918D01*
Y2837414D01*
X6946431D01*
Y2836901D01*
Y2836388D01*
X6946943D01*
Y2835875D01*
X6947457D01*
Y2835362D01*
Y2834849D01*
X6947970D01*
Y2834336D01*
X6948482D01*
Y2833823D01*
Y2833310D01*
X6948995D01*
Y2832797D01*
X6949508D01*
Y2832284D01*
Y2831771D01*
Y2831258D01*
Y2830746D01*
Y2830233D01*
X6948995D01*
Y2829720D01*
X6948482D01*
Y2829207D01*
X6947970D01*
Y2828694D01*
X6947457D01*
Y2828181D01*
X6946943D01*
Y2827668D01*
X6946431D01*
Y2827155D01*
X6945918D01*
Y2826642D01*
X6945404D01*
Y2826129D01*
X6944892D01*
Y2825616D01*
X6944379D01*
Y2825103D01*
X6943866D01*
Y2824590D01*
X6943353D01*
Y2824077D01*
X6942840D01*
Y2823564D01*
X6942327D01*
Y2823051D01*
X6941814D01*
Y2822538D01*
X6941301D01*
Y2822025D01*
X6940788D01*
Y2821513D01*
X6940275D01*
Y2820999D01*
X6939762D01*
Y2820486D01*
X6939249D01*
Y2819974D01*
X6938736D01*
Y2819460D01*
X6938223D01*
Y2818947D01*
X6937710D01*
Y2818435D01*
X6937197D01*
Y2817922D01*
X6936684D01*
Y2817409D01*
X6936171D01*
Y2816896D01*
X6935658D01*
Y2816383D01*
X6935146D01*
Y2815870D01*
X6934633D01*
Y2815357D01*
X6934120D01*
Y2814844D01*
X6933607D01*
Y2814331D01*
X6933094D01*
Y2813818D01*
X6932581D01*
Y2813305D01*
X6932068D01*
Y2812792D01*
X6931555D01*
Y2812279D01*
X6931042D01*
Y2811766D01*
X6930529D01*
Y2811253D01*
X6930016D01*
Y2810740D01*
X6929503D01*
Y2810227D01*
X6928990D01*
Y2809714D01*
X6928477D01*
Y2809201D01*
X6927964D01*
Y2808688D01*
X6927451D01*
Y2808175D01*
X6926938D01*
Y2807662D01*
X6926425D01*
Y2807150D01*
X6925912D01*
Y2806636D01*
X6925399D01*
Y2806124D01*
X6924887D01*
Y2805611D01*
X6924374D01*
Y2805098D01*
X6923860D01*
Y2804585D01*
X6923348D01*
Y2804072D01*
X6922835D01*
Y2803559D01*
X6922321D01*
Y2803046D01*
X6921809D01*
Y2802533D01*
X6920783D01*
Y2802020D01*
X6919244D01*
Y2802533D01*
X6918218D01*
Y2803046D01*
X6917705D01*
Y2803559D01*
X6916679D01*
Y2804072D01*
X6916166D01*
Y2804585D01*
X6915140D01*
Y2805098D01*
X6914627D01*
Y2805611D01*
X6913601D01*
Y2806124D01*
X6913088D01*
Y2806636D01*
X6912063D01*
Y2807150D01*
X6911550D01*
Y2807662D01*
X6911036D01*
Y2808175D01*
X6910011D01*
Y2808688D01*
X6909498D01*
Y2809201D01*
X6908472D01*
Y2809714D01*
X6907959D01*
Y2810227D01*
X6906933D01*
Y2810740D01*
X6906420D01*
Y2811253D01*
X6905394D01*
Y2811766D01*
X6904881D01*
Y2812279D01*
X6903855D01*
Y2812792D01*
X6903342D01*
Y2813305D01*
X6902829D01*
Y2813818D01*
X6901803D01*
Y2814331D01*
X6901290D01*
Y2814844D01*
X6900265D01*
Y2815357D01*
X6899752D01*
Y2815870D01*
X6898726D01*
Y2816383D01*
X6898213D01*
Y2816896D01*
X6897187D01*
Y2817409D01*
X6896674D01*
Y2817922D01*
X6895648D01*
Y2818435D01*
X6895135D01*
Y2818947D01*
X6894622D01*
Y2819460D01*
X6893596D01*
Y2819974D01*
X6893083D01*
Y2820486D01*
X6892057D01*
Y2820999D01*
X6891544D01*
Y2821513D01*
X6890518D01*
Y2822025D01*
X6890005D01*
Y2822538D01*
X6888980D01*
Y2823051D01*
X6886415D01*
Y2822538D01*
X6885389D01*
Y2822025D01*
X6884876D01*
Y2821513D01*
X6883850D01*
Y2820999D01*
X6882824D01*
Y2820486D01*
X6881798D01*
Y2819974D01*
X6880772D01*
Y2819460D01*
X6879746D01*
Y2818947D01*
X6878720D01*
Y2818435D01*
X6877694D01*
Y2817922D01*
X6877182D01*
Y2817409D01*
X6876155D01*
Y2816896D01*
X6875130D01*
Y2816383D01*
X6874104D01*
Y2815870D01*
X6871539D01*
Y2816383D01*
X6871026D01*
Y2816896D01*
Y2817409D01*
X6870513D01*
Y2817922D01*
Y2818435D01*
Y2818947D01*
X6870000D01*
Y2819460D01*
Y2819974D01*
X6869487D01*
Y2820486D01*
Y2820999D01*
X6868974D01*
Y2821513D01*
Y2822025D01*
Y2822538D01*
X6868461D01*
Y2823051D01*
Y2823564D01*
X6867948D01*
Y2824077D01*
Y2824590D01*
Y2825103D01*
X6867435D01*
Y2825616D01*
Y2826129D01*
X6866922D01*
Y2826642D01*
Y2827155D01*
Y2827668D01*
X6866409D01*
Y2828181D01*
Y2828694D01*
X6865897D01*
Y2829207D01*
Y2829720D01*
X6865383D01*
Y2830233D01*
Y2830746D01*
Y2831258D01*
X6864870D01*
Y2831771D01*
Y2832284D01*
X6864358D01*
Y2832797D01*
Y2833310D01*
Y2833823D01*
X6863845D01*
Y2834336D01*
Y2834849D01*
X6863331D01*
Y2835362D01*
Y2835875D01*
X6862819D01*
Y2836388D01*
Y2836901D01*
Y2837414D01*
X6862306D01*
Y2837927D01*
Y2838440D01*
X6861793D01*
Y2838953D01*
Y2839466D01*
Y2839979D01*
X6861280D01*
Y2840492D01*
Y2841005D01*
X6860767D01*
Y2841518D01*
Y2842030D01*
Y2842543D01*
X6860254D01*
Y2843057D01*
Y2843569D01*
X6859741D01*
Y2844082D01*
Y2844596D01*
X6859228D01*
Y2845108D01*
Y2845621D01*
Y2846134D01*
X6858715D01*
Y2846647D01*
Y2847160D01*
X6858202D01*
Y2847673D01*
Y2848186D01*
Y2848699D01*
X6857689D01*
Y2849212D01*
Y2849725D01*
X6857176D01*
Y2850238D01*
Y2850751D01*
X6856663D01*
Y2851264D01*
Y2851777D01*
Y2852290D01*
X6856150D01*
Y2852803D01*
Y2853316D01*
X6855637D01*
Y2853829D01*
Y2854342D01*
Y2854854D01*
X6855124D01*
Y2855367D01*
Y2855880D01*
X6854611D01*
Y2856393D01*
Y2856906D01*
Y2857419D01*
X6854098D01*
Y2857932D01*
Y2858445D01*
X6853585D01*
Y2858958D01*
Y2859471D01*
X6853072D01*
Y2859984D01*
Y2860497D01*
Y2861010D01*
X6852560D01*
Y2861523D01*
Y2862036D01*
X6852047D01*
Y2862549D01*
Y2863062D01*
Y2863575D01*
X6851534D01*
Y2864088D01*
Y2864601D01*
X6851021D01*
Y2865114D01*
Y2865626D01*
X6850508D01*
Y2866140D01*
Y2866652D01*
Y2867165D01*
X6849995D01*
Y2867679D01*
Y2868191D01*
X6849482D01*
Y2868704D01*
Y2869217D01*
Y2869730D01*
X6848969D01*
Y2870243D01*
Y2870756D01*
X6848456D01*
Y2871269D01*
Y2871782D01*
Y2872295D01*
X6847943D01*
Y2872808D01*
Y2873321D01*
X6847430D01*
Y2873834D01*
Y2874347D01*
X6846917D01*
Y2874860D01*
Y2875373D01*
Y2875886D01*
X6846404D01*
Y2876399D01*
Y2876912D01*
X6845891D01*
Y2877425D01*
Y2877937D01*
Y2878451D01*
X6845378D01*
Y2878964D01*
Y2879476D01*
X6844865D01*
Y2879989D01*
Y2880502D01*
X6844352D01*
Y2881015D01*
Y2881528D01*
Y2882041D01*
X6843839D01*
Y2882554D01*
Y2883067D01*
X6844352D01*
Y2883580D01*
Y2884093D01*
X6844865D01*
Y2884606D01*
X6845378D01*
Y2885119D01*
X6846404D01*
Y2885632D01*
X6846917D01*
Y2886145D01*
X6847943D01*
Y2886658D01*
X6848456D01*
Y2887171D01*
X6849482D01*
Y2887684D01*
X6849995D01*
Y2888197D01*
X6850508D01*
Y2888709D01*
X6851534D01*
Y2889223D01*
X6852047D01*
Y2889736D01*
X6853072D01*
Y2890248D01*
X6853585D01*
Y2890762D01*
X6854098D01*
Y2891274D01*
X6854611D01*
Y2891787D01*
X6855637D01*
Y2892300D01*
X6856150D01*
Y2892813D01*
X6856663D01*
Y2893326D01*
X6857176D01*
Y2893839D01*
X6857689D01*
Y2894352D01*
X6858202D01*
Y2894865D01*
X6858715D01*
Y2895378D01*
X6859228D01*
Y2895891D01*
X6859741D01*
Y2896404D01*
Y2896917D01*
X6860254D01*
Y2897430D01*
X6860767D01*
Y2897943D01*
X6861280D01*
Y2898456D01*
X6861793D01*
Y2898969D01*
Y2899482D01*
X6862306D01*
Y2899995D01*
X6862819D01*
Y2900508D01*
Y2901020D01*
X6863331D01*
Y2901534D01*
X6863845D01*
Y2902047D01*
Y2902559D01*
X6864358D01*
Y2903072D01*
Y2903586D01*
X6864870D01*
Y2904098D01*
Y2904611D01*
X6865383D01*
Y2905124D01*
Y2905637D01*
X6865897D01*
Y2906150D01*
Y2906663D01*
X6866409D01*
Y2907176D01*
Y2907689D01*
X6866922D01*
Y2908202D01*
Y2908715D01*
X6867435D01*
Y2909228D01*
Y2909741D01*
Y2910254D01*
X6867948D01*
Y2910767D01*
Y2911280D01*
Y2911792D01*
X6868461D01*
Y2912306D01*
Y2912819D01*
Y2913331D01*
Y2913845D01*
X6868974D01*
Y2914357D01*
Y2914870D01*
Y2915383D01*
Y2915896D01*
Y2916409D01*
X6869487D01*
Y2916922D01*
Y2917435D01*
Y2917948D01*
Y2918461D01*
Y2918974D01*
Y2919487D01*
Y2920000D01*
X6870000D01*
Y2920513D01*
Y2921026D01*
Y2921539D01*
Y2922052D01*
Y2922565D01*
Y2923078D01*
Y2923591D01*
Y2924104D01*
Y2924617D01*
Y2925130D01*
Y2925642D01*
Y2926156D01*
Y2926669D01*
Y2927181D01*
X6869487D01*
Y2927694D01*
Y2928207D01*
Y2928720D01*
Y2929233D01*
Y2929746D01*
Y2930259D01*
Y2930772D01*
X6868974D01*
Y2931285D01*
Y2931798D01*
Y2932311D01*
Y2932824D01*
Y2933337D01*
X6868461D01*
Y2933850D01*
Y2934363D01*
Y2934876D01*
Y2935389D01*
X6867948D01*
Y2935902D01*
Y2936414D01*
Y2936928D01*
X6867435D01*
Y2937441D01*
Y2937953D01*
Y2938466D01*
X6866922D01*
Y2938979D01*
Y2939492D01*
X6866409D01*
Y2940005D01*
Y2940518D01*
Y2941031D01*
X6865897D01*
Y2941544D01*
Y2942057D01*
X6865383D01*
Y2942570D01*
Y2943083D01*
X6864870D01*
Y2943596D01*
Y2944109D01*
X6864358D01*
Y2944622D01*
X6863845D01*
Y2945135D01*
Y2945648D01*
X6863331D01*
Y2946161D01*
Y2946674D01*
X6862819D01*
Y2947187D01*
X6862306D01*
Y2947700D01*
Y2948213D01*
X6861793D01*
Y2948725D01*
X6861280D01*
Y2949239D01*
X6860767D01*
Y2949752D01*
Y2950264D01*
X6860254D01*
Y2950777D01*
X6859741D01*
Y2951291D01*
X6859228D01*
Y2951803D01*
X6858715D01*
Y2952316D01*
X6858202D01*
Y2952829D01*
X6857689D01*
Y2953342D01*
X6857176D01*
Y2953855D01*
X6856663D01*
Y2954368D01*
X6856150D01*
Y2954881D01*
X6855637D01*
Y2955394D01*
X6855124D01*
Y2955907D01*
X6854611D01*
Y2956420D01*
X6854098D01*
Y2956933D01*
X6853072D01*
Y2957446D01*
X6852560D01*
Y2957959D01*
X6851534D01*
Y2958472D01*
X6851021D01*
Y2958985D01*
X6849995D01*
Y2959498D01*
X6849482D01*
Y2960011D01*
X6848456D01*
Y2960524D01*
X6847430D01*
Y2961036D01*
X6846404D01*
Y2961549D01*
X6845378D01*
Y2962062D01*
X6844352D01*
Y2962575D01*
X6843326D01*
Y2963088D01*
X6841787D01*
Y2963601D01*
X6840248D01*
Y2964114D01*
X6838710D01*
Y2964627D01*
X6836658D01*
Y2965140D01*
X6833580D01*
Y2965653D01*
X6821782D01*
Y2965140D01*
X6818704D01*
Y2964627D01*
X6816653D01*
Y2964114D01*
X6815114D01*
Y2963601D01*
X6813575D01*
Y2963088D01*
X6812036D01*
Y2962575D01*
X6811010D01*
Y2962062D01*
X6809984D01*
Y2961549D01*
X6808958D01*
Y2961036D01*
X6807932D01*
Y2960524D01*
X6806906D01*
Y2960011D01*
X6805880D01*
Y2959498D01*
X6805368D01*
Y2958985D01*
X6804342D01*
Y2958472D01*
X6803829D01*
Y2957959D01*
X6802803D01*
Y2957446D01*
X6802290D01*
Y2956933D01*
X6801777D01*
Y2956420D01*
X6801264D01*
Y2955907D01*
X6800238D01*
Y2955394D01*
X6799725D01*
Y2954881D01*
X6799212D01*
Y2954368D01*
X6798699D01*
Y2953855D01*
X6798186D01*
Y2953342D01*
X6797673D01*
Y2952829D01*
X6797160D01*
Y2952316D01*
X6796647D01*
Y2951803D01*
X6796134D01*
Y2951291D01*
X6795621D01*
Y2950777D01*
X6795109D01*
Y2950264D01*
Y2949752D01*
X6794596D01*
Y2949239D01*
X6794082D01*
Y2948725D01*
X6793570D01*
Y2948213D01*
Y2947700D01*
X6793057D01*
Y2947187D01*
X6792543D01*
Y2946674D01*
Y2946161D01*
X6792031D01*
Y2945648D01*
X6791518D01*
Y2945135D01*
Y2944622D01*
X6791005D01*
Y2944109D01*
Y2943596D01*
X6790492D01*
Y2943083D01*
Y2942570D01*
X6789979D01*
Y2942057D01*
Y2941544D01*
X6789466D01*
Y2941031D01*
Y2940518D01*
X6788953D01*
Y2940005D01*
Y2939492D01*
X6788440D01*
Y2938979D01*
Y2938466D01*
Y2937953D01*
X6787927D01*
Y2937441D01*
Y2936928D01*
Y2936414D01*
X6787414D01*
Y2935902D01*
Y2935389D01*
Y2934876D01*
X6786901D01*
Y2934363D01*
Y2933850D01*
Y2933337D01*
Y2932824D01*
X6786388D01*
Y2932311D01*
Y2931798D01*
Y2931285D01*
Y2930772D01*
Y2930259D01*
X6785875D01*
Y2929746D01*
Y2929233D01*
Y2928720D01*
Y2928207D01*
Y2927694D01*
Y2927181D01*
Y2926669D01*
Y2926156D01*
Y2925642D01*
Y2925130D01*
X6785362D01*
Y2924617D01*
Y2924104D01*
Y2923591D01*
Y2923078D01*
Y2922565D01*
Y2922052D01*
X6785875D01*
Y2921539D01*
Y2921026D01*
Y2920513D01*
Y2920000D01*
Y2919487D01*
Y2918974D01*
Y2918461D01*
Y2917948D01*
Y2917435D01*
Y2916922D01*
X6786388D01*
Y2916409D01*
Y2915896D01*
Y2915383D01*
Y2914870D01*
Y2914357D01*
X6786901D01*
Y2913845D01*
Y2913331D01*
Y2912819D01*
Y2912306D01*
X6787414D01*
Y2911792D01*
Y2911280D01*
Y2910767D01*
X6787927D01*
Y2910254D01*
Y2909741D01*
Y2909228D01*
X6788440D01*
Y2908715D01*
Y2908202D01*
X6788953D01*
Y2907689D01*
Y2907176D01*
Y2906663D01*
X6789466D01*
Y2906150D01*
Y2905637D01*
X6789979D01*
Y2905124D01*
Y2904611D01*
X6790492D01*
Y2904098D01*
Y2903586D01*
X6791005D01*
Y2903072D01*
Y2902559D01*
X6791518D01*
Y2902047D01*
X6792031D01*
Y2901534D01*
Y2901020D01*
X6792543D01*
Y2900508D01*
X6793057D01*
Y2899995D01*
Y2899482D01*
X6793570D01*
Y2898969D01*
X6794082D01*
Y2898456D01*
Y2897943D01*
X6794596D01*
Y2897430D01*
X6795109D01*
Y2896917D01*
X6795621D01*
Y2896404D01*
X6796134D01*
Y2895891D01*
X6796647D01*
Y2895378D01*
Y2894865D01*
X6797160D01*
Y2894352D01*
X6797673D01*
Y2893839D01*
X6798186D01*
Y2893326D01*
X6798699D01*
Y2892813D01*
X6799725D01*
Y2892300D01*
X6800238D01*
Y2891787D01*
X6800751D01*
Y2891274D01*
X6801264D01*
Y2890762D01*
X6801777D01*
Y2890248D01*
X6802803D01*
Y2889736D01*
X6803316D01*
Y2889223D01*
X6803829D01*
Y2888709D01*
X6804855D01*
Y2888197D01*
X6805368D01*
Y2887684D01*
X6805880D01*
Y2887171D01*
X6806906D01*
Y2886658D01*
X6807419D01*
Y2886145D01*
X6808445D01*
Y2885632D01*
X6809471D01*
Y2885119D01*
X6809984D01*
Y2884606D01*
X6811010D01*
Y2884093D01*
Y2883580D01*
X6811523D01*
Y2883067D01*
Y2882554D01*
Y2882041D01*
Y2881528D01*
X6811010D01*
Y2881015D01*
Y2880502D01*
X6810497D01*
Y2879989D01*
Y2879476D01*
Y2878964D01*
X6809984D01*
Y2878451D01*
Y2877937D01*
X6809471D01*
Y2877425D01*
Y2876912D01*
X6808958D01*
Y2876399D01*
Y2875886D01*
Y2875373D01*
X6808445D01*
Y2874860D01*
Y2874347D01*
X6807932D01*
Y2873834D01*
Y2873321D01*
Y2872808D01*
X6807419D01*
Y2872295D01*
Y2871782D01*
X6806906D01*
Y2871269D01*
Y2870756D01*
X6806393D01*
Y2870243D01*
Y2869730D01*
Y2869217D01*
X6805880D01*
Y2868704D01*
Y2868191D01*
X6805368D01*
Y2867679D01*
Y2867165D01*
Y2866652D01*
X6804855D01*
Y2866140D01*
Y2865626D01*
X6804342D01*
Y2865114D01*
Y2864601D01*
Y2864088D01*
X6803829D01*
Y2863575D01*
Y2863062D01*
X6803316D01*
Y2862549D01*
Y2862036D01*
X6802803D01*
Y2861523D01*
Y2861010D01*
Y2860497D01*
X6802290D01*
Y2859984D01*
Y2859471D01*
X6801777D01*
Y2858958D01*
Y2858445D01*
Y2857932D01*
X6801264D01*
Y2857419D01*
Y2856906D01*
X6800751D01*
Y2856393D01*
Y2855880D01*
X6800238D01*
Y2855367D01*
Y2854854D01*
Y2854342D01*
X6799725D01*
Y2853829D01*
Y2853316D01*
X6799212D01*
Y2852803D01*
Y2852290D01*
Y2851777D01*
X6798699D01*
Y2851264D01*
Y2850751D01*
X6798186D01*
Y2850238D01*
Y2849725D01*
Y2849212D01*
X6797673D01*
Y2848699D01*
Y2848186D01*
X6797160D01*
Y2847673D01*
Y2847160D01*
X6796647D01*
Y2846647D01*
Y2846134D01*
Y2845621D01*
X6796134D01*
Y2845108D01*
Y2844596D01*
X6795621D01*
Y2844082D01*
Y2843569D01*
Y2843057D01*
X6795109D01*
Y2842543D01*
Y2842030D01*
X6794596D01*
Y2841518D01*
Y2841005D01*
X6794082D01*
Y2840492D01*
Y2839979D01*
Y2839466D01*
X6793570D01*
Y2838953D01*
Y2838440D01*
X6793057D01*
Y2837927D01*
Y2837414D01*
Y2836901D01*
X6792543D01*
Y2836388D01*
Y2835875D01*
X6792031D01*
Y2835362D01*
Y2834849D01*
Y2834336D01*
X6791518D01*
Y2833823D01*
Y2833310D01*
X6791005D01*
Y2832797D01*
Y2832284D01*
X6790492D01*
Y2831771D01*
Y2831258D01*
Y2830746D01*
X6789979D01*
Y2830233D01*
Y2829720D01*
X6789466D01*
Y2829207D01*
Y2828694D01*
Y2828181D01*
X6788953D01*
Y2827668D01*
Y2827155D01*
X6788440D01*
Y2826642D01*
Y2826129D01*
X6787927D01*
Y2825616D01*
Y2825103D01*
Y2824590D01*
X6787414D01*
Y2824077D01*
Y2823564D01*
X6786901D01*
Y2823051D01*
Y2822538D01*
Y2822025D01*
X6786388D01*
Y2821513D01*
Y2820999D01*
X6785875D01*
Y2820486D01*
Y2819974D01*
Y2819460D01*
X6785362D01*
Y2818947D01*
Y2818435D01*
X6784849D01*
Y2817922D01*
Y2817409D01*
X6784336D01*
Y2816896D01*
Y2816383D01*
X6783823D01*
Y2815870D01*
X6781258D01*
Y2816383D01*
X6780233D01*
Y2816896D01*
X6779720D01*
Y2817409D01*
X6778694D01*
Y2817922D01*
X6777668D01*
Y2818435D01*
X6776642D01*
Y2818947D01*
X6775616D01*
Y2819460D01*
X6774590D01*
Y2819974D01*
X6773564D01*
Y2820486D01*
X6772538D01*
Y2820999D01*
X6772025D01*
Y2821513D01*
X6770999D01*
Y2822025D01*
X6769974D01*
Y2822538D01*
X6768948D01*
Y2823051D01*
X6766383D01*
Y2822538D01*
X6765357D01*
Y2822025D01*
X6764844D01*
Y2821513D01*
X6764331D01*
Y2820999D01*
X6763305D01*
Y2820486D01*
X6762792D01*
Y2819974D01*
X6761766D01*
Y2819460D01*
X6761253D01*
Y2818947D01*
X6760227D01*
Y2818435D01*
X6759714D01*
Y2817922D01*
X6758688D01*
Y2817409D01*
X6758175D01*
Y2816896D01*
X6757150D01*
Y2816383D01*
X6756637D01*
Y2815870D01*
X6756124D01*
Y2815357D01*
X6755098D01*
Y2814844D01*
X6754585D01*
Y2814331D01*
X6753559D01*
Y2813818D01*
X6753046D01*
Y2813305D01*
X6752020D01*
Y2812792D01*
X6751507D01*
Y2812279D01*
X6750481D01*
Y2811766D01*
X6749968D01*
Y2811253D01*
X6748942D01*
Y2810740D01*
X6748429D01*
Y2810227D01*
X6747916D01*
Y2809714D01*
X6746890D01*
Y2809201D01*
X6746377D01*
Y2808688D01*
X6745352D01*
Y2808175D01*
X6744839D01*
Y2807662D01*
X6743813D01*
Y2807150D01*
X6743300D01*
Y2806636D01*
X6742274D01*
Y2806124D01*
X6741761D01*
Y2805611D01*
X6740735D01*
Y2805098D01*
X6740222D01*
Y2804585D01*
X6739196D01*
Y2804072D01*
X6738683D01*
Y2803559D01*
X6738170D01*
Y2803046D01*
X6737144D01*
Y2802533D01*
X6736119D01*
Y2802020D01*
X6734580D01*
Y2802533D01*
X6733553D01*
Y2803046D01*
X6733041D01*
Y2803559D01*
X6732528D01*
Y2804072D01*
X6732015D01*
Y2804585D01*
X6731502D01*
Y2805098D01*
X6730989D01*
Y2805611D01*
X6730476D01*
Y2806124D01*
X6729963D01*
Y2806636D01*
X6729450D01*
Y2807150D01*
X6728937D01*
Y2807662D01*
X6728424D01*
Y2808175D01*
X6727911D01*
Y2808688D01*
X6727398D01*
Y2809201D01*
X6726885D01*
Y2809714D01*
X6726372D01*
Y2810227D01*
X6725859D01*
Y2810740D01*
X6725346D01*
Y2811253D01*
X6724833D01*
Y2811766D01*
X6724320D01*
Y2812279D01*
X6723807D01*
Y2812792D01*
X6723294D01*
Y2813305D01*
X6722782D01*
Y2813818D01*
X6722268D01*
Y2814331D01*
X6721756D01*
Y2814844D01*
X6721243D01*
Y2815357D01*
X6720730D01*
Y2815870D01*
X6720217D01*
Y2816383D01*
X6719704D01*
Y2816896D01*
X6719191D01*
Y2817409D01*
X6718678D01*
Y2817922D01*
X6718165D01*
Y2818435D01*
X6717652D01*
Y2818947D01*
X6717139D01*
Y2819460D01*
X6716626D01*
Y2819974D01*
X6716113D01*
Y2820486D01*
X6715600D01*
Y2820999D01*
X6715087D01*
Y2821513D01*
X6714574D01*
Y2822025D01*
X6714061D01*
Y2822538D01*
X6713548D01*
Y2823051D01*
X6713035D01*
Y2823564D01*
X6712522D01*
Y2824077D01*
X6712009D01*
Y2824590D01*
X6711497D01*
Y2825103D01*
X6710983D01*
Y2825616D01*
X6710470D01*
Y2826129D01*
X6709958D01*
Y2826642D01*
X6709445D01*
Y2827155D01*
X6708932D01*
Y2827668D01*
X6708419D01*
Y2828181D01*
X6707906D01*
Y2828694D01*
X6707393D01*
Y2829207D01*
X6706880D01*
Y2829720D01*
X6706367D01*
Y2830233D01*
Y2830746D01*
X6705854D01*
Y2831258D01*
Y2831771D01*
Y2832284D01*
X6706367D01*
Y2832797D01*
Y2833310D01*
X6706880D01*
Y2833823D01*
Y2834336D01*
X6707393D01*
Y2834849D01*
X6707906D01*
Y2835362D01*
X6708419D01*
Y2835875D01*
Y2836388D01*
X6708932D01*
Y2836901D01*
X6709445D01*
Y2837414D01*
Y2837927D01*
X6709958D01*
Y2838440D01*
X6710470D01*
Y2838953D01*
Y2839466D01*
X6710983D01*
Y2839979D01*
X6711497D01*
Y2840492D01*
Y2841005D01*
X6712009D01*
Y2841518D01*
X6712522D01*
Y2842030D01*
Y2842543D01*
X6713035D01*
Y2843057D01*
X6713548D01*
Y2843569D01*
X6714061D01*
Y2844082D01*
Y2844596D01*
X6714574D01*
Y2845108D01*
X6715087D01*
Y2845621D01*
Y2846134D01*
X6715600D01*
Y2846647D01*
X6716113D01*
Y2847160D01*
Y2847673D01*
X6716626D01*
Y2848186D01*
X6717139D01*
Y2848699D01*
Y2849212D01*
X6717652D01*
Y2849725D01*
X6718165D01*
Y2850238D01*
Y2850751D01*
X6718678D01*
Y2851264D01*
X6719191D01*
Y2851777D01*
Y2852290D01*
X6719704D01*
Y2852803D01*
X6720217D01*
Y2853316D01*
X6720730D01*
Y2853829D01*
Y2854342D01*
X6721243D01*
Y2854854D01*
X6721756D01*
Y2855367D01*
Y2855880D01*
X6722268D01*
Y2856393D01*
X6722782D01*
Y2856906D01*
Y2857419D01*
X6723294D01*
Y2857932D01*
X6723807D01*
Y2858445D01*
Y2858958D01*
X6724320D01*
Y2859471D01*
X6724833D01*
Y2859984D01*
Y2860497D01*
X6725346D01*
Y2861010D01*
X6725859D01*
Y2861523D01*
X6726372D01*
Y2862036D01*
Y2862549D01*
X6726885D01*
Y2863062D01*
X6727398D01*
Y2863575D01*
Y2864088D01*
Y2864601D01*
Y2865114D01*
Y2865626D01*
X6726885D01*
Y2866140D01*
Y2866652D01*
Y2867165D01*
X6726372D01*
Y2867679D01*
Y2868191D01*
X6725859D01*
Y2868704D01*
Y2869217D01*
Y2869730D01*
X6725346D01*
Y2870243D01*
Y2870756D01*
X6724833D01*
Y2871269D01*
Y2871782D01*
Y2872295D01*
X6724320D01*
Y2872808D01*
Y2873321D01*
X6723807D01*
Y2873834D01*
Y2874347D01*
Y2874860D01*
X6723294D01*
Y2875373D01*
Y2875886D01*
X6722782D01*
Y2876399D01*
Y2876912D01*
Y2877425D01*
X6722268D01*
Y2877937D01*
Y2878451D01*
X6721756D01*
Y2878964D01*
Y2879476D01*
Y2879989D01*
X6721243D01*
Y2880502D01*
Y2881015D01*
X6720730D01*
Y2881528D01*
Y2882041D01*
Y2882554D01*
X6720217D01*
Y2883067D01*
Y2883580D01*
X6719704D01*
Y2884093D01*
Y2884606D01*
Y2885119D01*
X6719191D01*
Y2885632D01*
Y2886145D01*
X6718678D01*
Y2886658D01*
Y2887171D01*
Y2887684D01*
X6718165D01*
Y2888197D01*
Y2888709D01*
X6717652D01*
Y2889223D01*
Y2889736D01*
Y2890248D01*
X6717139D01*
Y2890762D01*
Y2891274D01*
X6716626D01*
Y2891787D01*
Y2892300D01*
Y2892813D01*
X6716113D01*
Y2893326D01*
Y2893839D01*
X6715600D01*
Y2894352D01*
Y2894865D01*
X6715087D01*
Y2895378D01*
X6714061D01*
Y2895891D01*
X6711497D01*
Y2896404D01*
X6708419D01*
Y2896917D01*
X6705854D01*
Y2897430D01*
X6703289D01*
Y2897943D01*
X6700211D01*
Y2898456D01*
X6697647D01*
Y2898969D01*
X6695082D01*
Y2899482D01*
X6692004D01*
Y2899995D01*
X6689439D01*
Y2900508D01*
X6686362D01*
Y2901020D01*
X6683797D01*
Y2901534D01*
X6681232D01*
Y2902047D01*
X6678154D01*
Y2902559D01*
X6676615D01*
Y2903072D01*
X6676102D01*
Y2903586D01*
X6675590D01*
Y2904098D01*
Y2904611D01*
Y2905124D01*
Y2905637D01*
Y2906150D01*
Y2906663D01*
Y2907176D01*
Y2907689D01*
Y2908202D01*
Y2908715D01*
Y2909228D01*
Y2909741D01*
Y2910254D01*
Y2910767D01*
Y2911280D01*
Y2911792D01*
Y2912306D01*
Y2912819D01*
Y2913331D01*
Y2913845D01*
Y2914357D01*
Y2914870D01*
Y2915383D01*
Y2915896D01*
Y2916409D01*
Y2916922D01*
Y2917435D01*
Y2917948D01*
Y2918461D01*
Y2918974D01*
Y2919487D01*
Y2920000D01*
Y2920513D01*
Y2921026D01*
Y2921539D01*
Y2922052D01*
Y2922565D01*
Y2923078D01*
Y2923591D01*
Y2924104D01*
Y2924617D01*
Y2925130D01*
Y2925642D01*
Y2926156D01*
Y2926669D01*
Y2927181D01*
Y2927694D01*
Y2928207D01*
Y2928720D01*
Y2929233D01*
Y2929746D01*
Y2930259D01*
Y2930772D01*
Y2931285D01*
Y2931798D01*
Y2932311D01*
Y2932824D01*
Y2933337D01*
Y2933850D01*
Y2934363D01*
Y2934876D01*
Y2935389D01*
Y2935902D01*
Y2936414D01*
Y2936928D01*
Y2937441D01*
Y2937953D01*
Y2938466D01*
Y2938979D01*
Y2939492D01*
Y2940005D01*
Y2940518D01*
Y2941031D01*
Y2941544D01*
Y2942057D01*
Y2942570D01*
Y2943083D01*
Y2943596D01*
Y2944109D01*
X6676102D01*
Y2944622D01*
X6676615D01*
Y2945135D01*
X6677641D01*
Y2945648D01*
X6680206D01*
Y2946161D01*
X6683284D01*
Y2946674D01*
X6685848D01*
Y2947187D01*
X6688926D01*
Y2947700D01*
X6691491D01*
Y2948213D01*
X6694056D01*
Y2948725D01*
X6697134D01*
Y2949239D01*
X6699698D01*
Y2949752D01*
X6702263D01*
Y2950264D01*
X6705341D01*
Y2950777D01*
X6707906D01*
Y2951291D01*
X6710983D01*
Y2951803D01*
X6713548D01*
Y2952316D01*
X6715600D01*
Y2952829D01*
X6716113D01*
Y2953342D01*
X6716626D01*
Y2953855D01*
Y2954368D01*
X6717139D01*
Y2954881D01*
Y2955394D01*
X6717652D01*
Y2955907D01*
Y2956420D01*
X6718165D01*
Y2956933D01*
Y2957446D01*
Y2957959D01*
X6718678D01*
Y2958472D01*
Y2958985D01*
X6719191D01*
Y2959498D01*
Y2960011D01*
X6719704D01*
Y2960524D01*
Y2961036D01*
Y2961549D01*
X6720217D01*
Y2962062D01*
Y2962575D01*
X6720730D01*
Y2963088D01*
Y2963601D01*
X6721243D01*
Y2964114D01*
Y2964627D01*
Y2965140D01*
X6721756D01*
Y2965653D01*
Y2966166D01*
X6722268D01*
Y2966679D01*
Y2967192D01*
X6722782D01*
Y2967705D01*
Y2968218D01*
Y2968731D01*
X6723294D01*
Y2969244D01*
Y2969757D01*
X6723807D01*
Y2970270D01*
Y2970783D01*
X6724320D01*
Y2971296D01*
Y2971809D01*
Y2972321D01*
X6724833D01*
Y2972835D01*
Y2973347D01*
X6725346D01*
Y2973860D01*
Y2974374D01*
X6725859D01*
Y2974886D01*
Y2975399D01*
Y2975913D01*
X6726372D01*
Y2976425D01*
Y2976938D01*
X6726885D01*
Y2977451D01*
Y2977964D01*
X6727398D01*
Y2978477D01*
Y2978990D01*
Y2979503D01*
X6727911D01*
Y2980016D01*
Y2980529D01*
X6728424D01*
Y2981042D01*
Y2981555D01*
Y2982068D01*
Y2982581D01*
Y2983094D01*
X6727911D01*
Y2983607D01*
X6727398D01*
Y2984120D01*
Y2984632D01*
X6726885D01*
Y2985146D01*
X6726372D01*
Y2985658D01*
Y2986171D01*
X6725859D01*
Y2986684D01*
X6725346D01*
Y2987197D01*
Y2987710D01*
X6724833D01*
Y2988223D01*
X6724320D01*
Y2988736D01*
Y2989249D01*
X6723807D01*
Y2989762D01*
X6723294D01*
Y2990275D01*
Y2990788D01*
X6722782D01*
Y2991301D01*
X6722268D01*
Y2991814D01*
X6721756D01*
Y2992327D01*
Y2992840D01*
X6721243D01*
Y2993353D01*
X6720730D01*
Y2993866D01*
Y2994379D01*
X6720217D01*
Y2994892D01*
X6719704D01*
Y2995404D01*
Y2995918D01*
X6719191D01*
Y2996430D01*
X6718678D01*
Y2996943D01*
Y2997457D01*
X6718165D01*
Y2997969D01*
X6717652D01*
Y2998482D01*
Y2998995D01*
X6717139D01*
Y2999508D01*
X6716626D01*
Y3000021D01*
X6716113D01*
Y3000534D01*
Y3001047D01*
X6715600D01*
Y3001560D01*
X6715087D01*
Y3002073D01*
Y3002586D01*
X6714574D01*
Y3003099D01*
X6714061D01*
Y3003612D01*
Y3004125D01*
X6713548D01*
Y3004638D01*
X6713035D01*
Y3005151D01*
Y3005664D01*
X6712522D01*
Y3006177D01*
X6712009D01*
Y3006690D01*
Y3007203D01*
X6711497D01*
Y3007715D01*
X6710983D01*
Y3008229D01*
X6710470D01*
Y3008742D01*
Y3009254D01*
X6709958D01*
Y3009767D01*
X6709445D01*
Y3010280D01*
Y3010793D01*
X6708932D01*
Y3011306D01*
X6708419D01*
Y3011819D01*
Y3012332D01*
X6707906D01*
Y3012845D01*
X6707393D01*
Y3013358D01*
Y3013871D01*
X6706880D01*
Y3014384D01*
X6706367D01*
Y3014897D01*
Y3015410D01*
X6705854D01*
Y3015923D01*
Y3016436D01*
Y3016949D01*
X6706367D01*
Y3017462D01*
Y3017975D01*
X6706880D01*
Y3018487D01*
X6707393D01*
Y3019001D01*
X6707906D01*
Y3019514D01*
X6708419D01*
Y3020026D01*
X6708932D01*
Y3020540D01*
X6709445D01*
Y3021052D01*
X6709958D01*
Y3021565D01*
X6710470D01*
Y3022078D01*
X6710983D01*
Y3022591D01*
X6711497D01*
Y3023104D01*
X6712009D01*
Y3023617D01*
X6712522D01*
Y3024130D01*
X6713035D01*
Y3024643D01*
X6713548D01*
Y3025156D01*
X6714061D01*
Y3025669D01*
X6714574D01*
Y3026182D01*
X6715087D01*
Y3026695D01*
X6715600D01*
Y3027208D01*
X6716113D01*
Y3027721D01*
X6716626D01*
Y3028234D01*
X6717139D01*
Y3028747D01*
X6717652D01*
Y3029260D01*
X6718165D01*
Y3029773D01*
X6718678D01*
Y3030286D01*
X6719191D01*
Y3030798D01*
X6719704D01*
Y3031312D01*
X6720217D01*
Y3031825D01*
X6720730D01*
Y3032337D01*
X6721243D01*
Y3032851D01*
X6721756D01*
Y3033364D01*
X6722268D01*
Y3033876D01*
X6722782D01*
Y3034389D01*
X6723294D01*
Y3034902D01*
X6723807D01*
Y3035415D01*
X6724320D01*
Y3035928D01*
X6724833D01*
Y3036441D01*
X6725346D01*
Y3036954D01*
X6725859D01*
Y3037467D01*
X6726372D01*
Y3037980D01*
X6726885D01*
Y3038493D01*
X6727398D01*
Y3039006D01*
X6727911D01*
Y3039519D01*
X6728424D01*
Y3040032D01*
X6728937D01*
Y3040545D01*
X6729450D01*
Y3041058D01*
X6729963D01*
Y3041570D01*
X6730476D01*
Y3042084D01*
X6730989D01*
Y3042597D01*
X6731502D01*
Y3043109D01*
X6732015D01*
Y3043623D01*
X6732528D01*
Y3044135D01*
X6733041D01*
Y3044648D01*
X6733553D01*
Y3045161D01*
X6734067D01*
Y3045674D01*
X6736631D01*
Y3045161D01*
X6737144D01*
Y3044648D01*
X6738170D01*
Y3044135D01*
X6738683D01*
Y3043623D01*
X6739709D01*
Y3043109D01*
X6740222D01*
Y3042597D01*
X6741248D01*
Y3042084D01*
X6741761D01*
Y3041570D01*
X6742787D01*
Y3041058D01*
X6743300D01*
Y3040545D01*
X6744326D01*
Y3040032D01*
X6744839D01*
Y3039519D01*
X6745352D01*
Y3039006D01*
X6746377D01*
Y3038493D01*
X6746890D01*
Y3037980D01*
X6747916D01*
Y3037467D01*
X6748429D01*
Y3036954D01*
X6749455D01*
Y3036441D01*
X6749968D01*
Y3035928D01*
X6750994D01*
Y3035415D01*
X6751507D01*
Y3034902D01*
X6752533D01*
Y3034389D01*
X6753046D01*
Y3033876D01*
X6754072D01*
Y3033364D01*
X6754585D01*
Y3032851D01*
X6755098D01*
Y3032337D01*
X6756124D01*
Y3031825D01*
X6756637D01*
Y3031312D01*
X6757663D01*
Y3030798D01*
X6758175D01*
Y3030286D01*
X6759202D01*
Y3029773D01*
X6759714D01*
Y3029260D01*
X6760740D01*
Y3028747D01*
X6761253D01*
Y3028234D01*
X6762279D01*
Y3027721D01*
X6762792D01*
Y3027208D01*
X6763305D01*
Y3026695D01*
X6764331D01*
Y3026182D01*
X6764844D01*
Y3025669D01*
X6765870D01*
Y3025156D01*
X6766383D01*
Y3024643D01*
X6767409D01*
Y3024130D01*
X6767922D01*
Y3023617D01*
X6768948D01*
Y3023104D01*
X6769974D01*
Y3022591D01*
X6770999D01*
Y3023104D01*
X6772538D01*
Y3023617D01*
X6773564D01*
Y3024130D01*
X6774590D01*
Y3024643D01*
X6776129D01*
Y3025156D01*
X6777155D01*
Y3025669D01*
X6778694D01*
Y3026182D01*
X6779720D01*
Y3026695D01*
X6781258D01*
Y3027208D01*
X6782285D01*
Y3027721D01*
X6783823D01*
Y3028234D01*
X6784849D01*
Y3028747D01*
X6785875D01*
Y3029260D01*
X6787414D01*
Y3029773D01*
X6788440D01*
Y3030286D01*
X6789979D01*
Y3030798D01*
X6791005D01*
Y3031312D01*
X6792543D01*
Y3031825D01*
X6793570D01*
Y3032337D01*
X6795109D01*
Y3032851D01*
X6796134D01*
Y3033364D01*
X6797160D01*
Y3033876D01*
X6798186D01*
Y3034389D01*
X6798699D01*
Y3034902D01*
Y3035415D01*
X6799212D01*
Y3035928D01*
Y3036441D01*
Y3036954D01*
Y3037467D01*
X6799725D01*
Y3037980D01*
Y3038493D01*
Y3039006D01*
Y3039519D01*
Y3040032D01*
X6800238D01*
Y3040545D01*
Y3041058D01*
Y3041570D01*
Y3042084D01*
Y3042597D01*
Y3043109D01*
X6800751D01*
Y3043623D01*
Y3044135D01*
Y3044648D01*
Y3045161D01*
Y3045674D01*
X6801264D01*
Y3046187D01*
Y3046700D01*
Y3047213D01*
Y3047726D01*
Y3048239D01*
Y3048752D01*
X6801777D01*
Y3049265D01*
Y3049778D01*
Y3050291D01*
Y3050804D01*
Y3051317D01*
X6802290D01*
Y3051830D01*
Y3052343D01*
Y3052856D01*
Y3053369D01*
Y3053882D01*
X6802803D01*
Y3054395D01*
Y3054908D01*
Y3055420D01*
Y3055934D01*
Y3056447D01*
Y3056959D01*
X6803316D01*
Y3057472D01*
Y3057986D01*
Y3058498D01*
Y3059011D01*
Y3059524D01*
X6803829D01*
Y3060037D01*
Y3060550D01*
Y3061063D01*
Y3061576D01*
Y3062089D01*
X6804342D01*
Y3062602D01*
Y3063115D01*
Y3063628D01*
Y3064141D01*
Y3064654D01*
Y3065167D01*
X6804855D01*
Y3065680D01*
Y3066192D01*
Y3066706D01*
Y3067219D01*
Y3067731D01*
X6805368D01*
Y3068244D01*
Y3068757D01*
Y3069270D01*
Y3069783D01*
Y3070296D01*
Y3070809D01*
X6805880D01*
Y3071322D01*
Y3071835D01*
Y3072348D01*
Y3072861D01*
Y3073374D01*
X6806393D01*
Y3073887D01*
Y3074400D01*
Y3074913D01*
X6806906D01*
Y3075426D01*
X6807419D01*
Y3075939D01*
X6847943D01*
Y3075426D01*
D02*
G37*
G36*
X7633140Y2974735D02*
X7594551Y2942577D01*
Y3006892D01*
X7633140Y2974735D01*
D02*
G37*
G36*
X7245000Y2706411D02*
X7212843Y2745000D01*
X7277157D01*
X7245000Y2706411D01*
D02*
G37*
G36*
X5777157Y2705000D02*
X5712843D01*
X5745000Y2743589D01*
X5777157Y2705000D01*
D02*
G37*
G36*
X8009754Y2646724D02*
X7977596Y2685313D01*
X8041911D01*
X8009754Y2646724D01*
D02*
G37*
G36*
X7245000Y2326411D02*
X7212843Y2365000D01*
X7277157D01*
X7245000Y2326411D01*
D02*
G37*
G36*
X7007157Y2295000D02*
X6942843D01*
X6975000Y2333589D01*
X7007157Y2295000D01*
D02*
G37*
G36*
X6225535Y2043176D02*
X6193378Y2081765D01*
X6257693D01*
X6225535Y2043176D01*
D02*
G37*
G36*
X7245000Y1956411D02*
X7212843Y1995000D01*
X7277157D01*
X7245000Y1956411D01*
D02*
G37*
G36*
Y1586411D02*
X7212843Y1625000D01*
X7277157D01*
X7245000Y1586411D01*
D02*
G37*
G36*
X5155000Y1301411D02*
X5122842Y1340000D01*
X5187157D01*
X5155000Y1301411D01*
D02*
G37*
G36*
X6225536Y1233176D02*
X6193378Y1271765D01*
X6257693D01*
X6225536Y1233176D01*
D02*
G37*
G36*
X7245000Y1206411D02*
X7212843Y1245000D01*
X7277157D01*
X7245000Y1206411D01*
D02*
G37*
G36*
X5735000Y1192843D02*
X5696412Y1225000D01*
X5735000Y1257158D01*
Y1192843D01*
D02*
G37*
G36*
X7710000Y921411D02*
X7677842Y960000D01*
X7742157D01*
X7710000Y921411D01*
D02*
G37*
G36*
X7840000Y830000D02*
X7790000Y870000D01*
X7840000Y910000D01*
Y830000D01*
D02*
G37*
G36*
X7830000Y281411D02*
X7797842Y320000D01*
X7862157D01*
X7830000Y281411D01*
D02*
G37*
G36*
X7960000Y190000D02*
X7910000Y230000D01*
X7960000Y270000D01*
Y190000D01*
D02*
G37*
G36*
X7830000Y5281411D02*
X7797842Y5320000D01*
X7862157D01*
X7830000Y5281411D01*
D02*
G37*
G36*
X7960000Y5190000D02*
X7910000Y5230000D01*
X7960000Y5270000D01*
Y5190000D01*
D02*
G37*
G36*
X6400000Y4751411D02*
X6367843Y4790000D01*
X6432158D01*
X6400000Y4751411D01*
D02*
G37*
G36*
X6090000D02*
X6057843Y4790000D01*
X6122157D01*
X6090000Y4751411D01*
D02*
G37*
G36*
X7013018Y4717415D02*
X6980861Y4756004D01*
X7045176D01*
X7013018Y4717415D01*
D02*
G37*
G36*
X8007161Y4680894D02*
X7975003Y4719483D01*
X8039318D01*
X8007161Y4680894D01*
D02*
G37*
G36*
X6530000Y4660000D02*
X6480000Y4700000D01*
X6530000Y4740000D01*
Y4660000D01*
D02*
G37*
G36*
X6220000D02*
X6170000Y4700000D01*
X6220000Y4740000D01*
Y4660000D01*
D02*
G37*
G36*
X7640000Y4611411D02*
X7607843Y4650000D01*
X7672157D01*
X7640000Y4611411D01*
D02*
G37*
G36*
X7770000Y4520000D02*
X7720000Y4560000D01*
X7770000Y4600000D01*
Y4520000D01*
D02*
G37*
G36*
X7875000Y4197843D02*
X7836411Y4230000D01*
X7875000Y4262157D01*
Y4197843D01*
D02*
G37*
G36*
X6885000Y4156411D02*
X6852843Y4195000D01*
X6917157D01*
X6885000Y4156411D01*
D02*
G37*
G36*
X5165000Y4132842D02*
X5126411Y4165000D01*
X5165000Y4197157D01*
Y4132842D01*
D02*
G37*
G36*
X5842157Y3875000D02*
X5777843D01*
X5810000Y3913589D01*
X5842157Y3875000D01*
D02*
G37*
G36*
X6885000Y3776411D02*
X6852843Y3815000D01*
X6917158D01*
X6885000Y3776411D01*
D02*
G37*
G36*
X6465000Y3707843D02*
X6426411Y3740000D01*
X6465000Y3772158D01*
Y3707843D01*
D02*
G37*
G36*
X6885000Y3396411D02*
X6852843Y3435000D01*
X6917157D01*
X6885000Y3396411D01*
D02*
G37*
D101*
X2290000Y1340000D02*
Y1440000D01*
X2210000Y1340000D02*
X2290000D01*
X1990000D02*
Y1440000D01*
Y1340000D02*
X2070000D01*
X2070000Y1710000D02*
Y1810000D01*
X1990000Y1710000D02*
X2070000D01*
X1770000D02*
Y1810000D01*
Y1710000D02*
X1850000D01*
X2500000Y1800000D02*
Y1900000D01*
X2420000Y1800000D02*
X2500000D01*
X2200000D02*
Y1900000D01*
Y1800000D02*
X2280000D01*
X2470000Y2950000D02*
Y3090000D01*
X2330000Y2950000D02*
Y3090000D01*
X6180000Y4080000D02*
X6320000D01*
X6180000Y3940000D02*
X6320000D01*
X6169961Y4220000D02*
Y4260000D01*
X5669961Y3800000D02*
Y3840000D01*
X8003000Y2558803D02*
Y2618800D01*
X7963000Y2628800D02*
X8548000D01*
X8508000Y2556800D02*
Y2618800D01*
X7963000Y1333800D02*
X8548000D01*
X8003000Y1288803D02*
Y1333052D01*
X8508000Y1286800D02*
Y1333654D01*
X7973000Y1333800D02*
X8538000D01*
X8508000Y1334548D02*
Y1378797D01*
X8003000Y1333946D02*
Y1380800D01*
Y805800D02*
Y872800D01*
X8508000Y805800D02*
Y870797D01*
X7963000Y795800D02*
X8548000D01*
X7963000Y2827800D02*
X8548000D01*
X8508000Y2837800D02*
Y2902797D01*
X8003000Y2837800D02*
Y2904800D01*
Y3365946D02*
Y3412800D01*
X8508000Y3366548D02*
Y3410797D01*
X7973000Y3365800D02*
X8538000D01*
X8508000Y3318800D02*
Y3365654D01*
X8003000Y3320803D02*
Y3365052D01*
X7963000Y3365800D02*
X8548000D01*
X8508000Y4588800D02*
Y4650800D01*
X7963000Y4660800D02*
X8548000D01*
X8003000Y4590803D02*
Y4650800D01*
X3128000Y65500D02*
X3174854D01*
X3130003Y570500D02*
X3174252D01*
X3175000Y25500D02*
Y610500D01*
X4445146Y570500D02*
X4492000D01*
X4445748Y65500D02*
X4489997D01*
X4445000Y55500D02*
Y579500D01*
X4398000Y65500D02*
X4444854D01*
X4400003Y570500D02*
X4444252D01*
X4445000Y25500D02*
Y610500D01*
X5715146Y570500D02*
X5762000D01*
X5715748Y65500D02*
X5759997D01*
X5715000Y55500D02*
Y579500D01*
X5668000Y65500D02*
X5714854D01*
X5670003Y570500D02*
X5714252D01*
X5715000Y25500D02*
Y610500D01*
X6985146Y570500D02*
X7032000D01*
X6985748Y65500D02*
X7029997D01*
X6985000Y55500D02*
Y579500D01*
X6938000Y65500D02*
X6984854D01*
X6940003Y570500D02*
X6984252D01*
X6985000Y25500D02*
Y610500D01*
X7700000Y65500D02*
X7767000D01*
X7702003Y570500D02*
X7767000D01*
X7777000Y25500D02*
Y610500D01*
X3175146Y570500D02*
X3222000D01*
X3175748Y65500D02*
X3219997D01*
X3175000Y55500D02*
Y579500D01*
X1890000Y570500D02*
X1952000D01*
X1880000Y25500D02*
Y610500D01*
X1890000Y65500D02*
X1949997D01*
X3128000Y4891500D02*
X3174854D01*
X3130003Y5396500D02*
X3174252D01*
X3175000Y4851500D02*
Y5436500D01*
X4445146Y5396500D02*
X4492000D01*
X4445748Y4891500D02*
X4489997D01*
X4445000Y4881500D02*
Y5405500D01*
X4398000Y4891500D02*
X4444854D01*
X4400003Y5396500D02*
X4444252D01*
X4445000Y4851500D02*
Y5436500D01*
X5715146Y5396500D02*
X5762000D01*
X5715748Y4891500D02*
X5759997D01*
X5715000Y4881500D02*
Y5405500D01*
X5668000Y4891500D02*
X5714854D01*
X5670003Y5396500D02*
X5714252D01*
X5715000Y4851500D02*
Y5436500D01*
X6985146Y5396500D02*
X7032000D01*
X6985748Y4891500D02*
X7029997D01*
X6985000Y4881500D02*
Y5405500D01*
X6938000Y4891500D02*
X6984854D01*
X6940003Y5396500D02*
X6984252D01*
X6985000Y4851500D02*
Y5436500D01*
X7700000Y4891500D02*
X7767000D01*
X7702003Y5396500D02*
X7767000D01*
X7777000Y4851500D02*
Y5436500D01*
X3175146Y5396500D02*
X3222000D01*
X3175748Y4891500D02*
X3219997D01*
X3175000Y4881500D02*
Y5405500D01*
X1890000Y5396500D02*
X1952000D01*
X1880000Y4851500D02*
Y5436500D01*
X1890000Y4891500D02*
X1949997D01*
X2366000Y4133400D02*
X2433000D01*
X2368003Y4638400D02*
X2433000D01*
X2443000Y4093400D02*
Y4678400D01*
X1890000Y4133400D02*
X1949997D01*
X1880000Y4093400D02*
Y4678400D01*
X1890000Y4638400D02*
X1952000D01*
X6220000Y2310000D02*
X6430000D01*
X6340000Y2380000D02*
X6370000Y2350000D01*
X6370000D02*
X6400000Y2380000D01*
X6370000Y2350000D02*
Y2420000D01*
X4720000Y1880000D02*
X4750000Y1850000D01*
X4690000D02*
X4720000Y1880000D01*
Y1810000D02*
Y1880000D01*
X4360000Y2000000D02*
X4390000Y1970000D01*
X4360000Y1940000D02*
X4390000Y1970000D01*
X4320000Y1970000D02*
X4390000D01*
X4554382Y1000100D02*
X4584381Y1030100D01*
X4584382D02*
X4614382Y1000100D01*
X4584381Y960100D02*
Y1030100D01*
X5820000Y1810000D02*
X5850000Y1840000D01*
X5850000D02*
X5880000Y1810000D01*
X5850000Y1770000D02*
Y1840000D01*
X5820000Y2320000D02*
X5850000Y2290000D01*
X5820000Y2320000D02*
X5850000Y2350000D01*
X5820000Y2320000D02*
X5890000D01*
X7800000Y330000D02*
X7830000Y300000D01*
X7830000D02*
X7860000Y330000D01*
X7830000Y300000D02*
Y370000D01*
X7840000Y5150000D02*
X7870000Y5120000D01*
X7810000D02*
X7840000Y5150000D01*
Y5080000D02*
Y5150000D01*
X7610000Y4660000D02*
X7640000Y4630000D01*
X7640000D02*
X7670000Y4660000D01*
X7640000Y4630000D02*
Y4700000D01*
X7810000Y720000D02*
Y790000D01*
X7780000Y760000D02*
X7810000Y790000D01*
X7810000D02*
X7840000Y760000D01*
X7880000Y366645D02*
X7913323Y300000D01*
X7946645Y366645D01*
X8046613Y383306D02*
X8029952Y399968D01*
X7996629D01*
X7979968Y383306D01*
Y366645D01*
X7996629Y349984D01*
X8029952D01*
X8046613Y333322D01*
Y316661D01*
X8029952Y300000D01*
X7996629D01*
X7979968Y316661D01*
X8079936Y300000D02*
Y399968D01*
X8129919D01*
X8146581Y383306D01*
Y349984D01*
X8129919Y333322D01*
X8079936D01*
X8113258D02*
X8146581Y300000D01*
X8246548Y383306D02*
X8229887Y399968D01*
X8196565D01*
X8179903Y383306D01*
Y316661D01*
X8196565Y300000D01*
X8229887D01*
X8246548Y316661D01*
X2790000Y1860000D02*
Y1959968D01*
X2839984D01*
X2856645Y1943306D01*
Y1909984D01*
X2839984Y1893322D01*
X2790000D01*
X2889968Y1959968D02*
Y1860000D01*
X2923290Y1893322D01*
X2956613Y1860000D01*
Y1959968D01*
X2989936Y1860000D02*
Y1959968D01*
X3039919D01*
X3056581Y1943306D01*
Y1909984D01*
X3039919Y1893322D01*
X2989936D01*
X3023258D02*
X3056581Y1860000D01*
X7890000Y5126645D02*
X7923322Y5060000D01*
X7956645Y5126645D01*
X8056613Y5143306D02*
X8039952Y5159968D01*
X8006629D01*
X7989968Y5143306D01*
Y5126645D01*
X8006629Y5109984D01*
X8039952D01*
X8056613Y5093323D01*
Y5076661D01*
X8039952Y5060000D01*
X8006629D01*
X7989968Y5076661D01*
X8089936Y5060000D02*
Y5159968D01*
X8139919D01*
X8156581Y5143306D01*
Y5109984D01*
X8139919Y5093323D01*
X8089936D01*
X8123258D02*
X8156581Y5060000D01*
X8256548Y5143306D02*
X8239887Y5159968D01*
X8206565D01*
X8189903Y5143306D01*
Y5076661D01*
X8206565Y5060000D01*
X8239887D01*
X8256548Y5076661D01*
X6160000Y4540000D02*
Y4639968D01*
X6209984D01*
X6226645Y4623306D01*
Y4589984D01*
X6209984Y4573323D01*
X6160000D01*
X6259968Y4540000D02*
Y4639968D01*
X6309952D01*
X6326613Y4623306D01*
Y4589984D01*
X6309952Y4573323D01*
X6259968D01*
X6293290D02*
X6326613Y4540000D01*
X6359936Y4639968D02*
Y4556661D01*
X6376597Y4540000D01*
X6409920D01*
X6426581Y4556661D01*
Y4639968D01*
X6459904Y4540000D02*
X6493226D01*
X6476565D01*
Y4639968D01*
X6459904Y4623306D01*
X6160000Y4853306D02*
X6176662Y4869968D01*
X6209984D01*
X6226645Y4853306D01*
Y4786661D01*
X6209984Y4770000D01*
X6176662D01*
X6160000Y4786661D01*
Y4853306D01*
X6480000Y4770000D02*
X6513323D01*
X6496661D01*
Y4869968D01*
X6480000Y4853306D01*
X4950000Y4770000D02*
X4983323D01*
X4966661D01*
Y4869968D01*
X4950000Y4853306D01*
X4630000D02*
X4646661Y4869968D01*
X4679984D01*
X4696645Y4853306D01*
Y4786661D01*
X4679984Y4770000D01*
X4646661D01*
X4630000Y4786661D01*
Y4853306D01*
X1826645Y5230000D02*
X1760000D01*
X1826645Y5296645D01*
Y5313306D01*
X1809984Y5329968D01*
X1776661D01*
X1760000Y5313306D01*
X1826645Y4470000D02*
X1760000D01*
X1826645Y4536645D01*
Y4553306D01*
X1809984Y4569968D01*
X1776661D01*
X1760000Y4553306D01*
X1780000Y4950000D02*
X1813323D01*
X1796661D01*
Y5049968D01*
X1780000Y5033306D01*
Y4180000D02*
X1813323D01*
X1796661D01*
Y4279968D01*
X1780000Y4263306D01*
X1856645Y420000D02*
X1790000D01*
X1856645Y486645D01*
Y503306D01*
X1839984Y519968D01*
X1806661D01*
X1790000Y503306D01*
X1810000Y130000D02*
X1843322D01*
X1826661D01*
Y229968D01*
X1810000Y213306D01*
X7890000Y2500000D02*
X7923322D01*
X7906661D01*
Y2599968D01*
X7890000Y2583306D01*
X7910000Y4520000D02*
X7943322D01*
X7926661D01*
Y4619968D01*
X7910000Y4603306D01*
X7590000Y789968D02*
X7623323D01*
X7606661D01*
Y690000D01*
X7590000D01*
X7623323D01*
X7723290Y789968D02*
X7689968D01*
X7673306Y773306D01*
Y706661D01*
X7689968Y690000D01*
X7723290D01*
X7739952Y706661D01*
Y773306D01*
X7723290Y789968D01*
X7690000Y4749968D02*
X7723322D01*
X7706661D01*
Y4650000D01*
X7690000D01*
X7723322D01*
X7823290Y4749968D02*
X7789968D01*
X7773306Y4733306D01*
Y4666661D01*
X7789968Y4650000D01*
X7823290D01*
X7839951Y4666661D01*
Y4733306D01*
X7823290Y4749968D01*
X4150000Y2479968D02*
Y2380000D01*
Y2429984D01*
X4216645D01*
Y2479968D01*
Y2380000D01*
X4249968D02*
Y2479968D01*
X4299952D01*
X4316613Y2463306D01*
Y2429984D01*
X4299952Y2413323D01*
X4249968D01*
X4283290D02*
X4316613Y2380000D01*
X4349936Y2479968D02*
Y2413323D01*
X4383258Y2380000D01*
X4416581Y2413323D01*
Y2479968D01*
X4776645D02*
X4710000D01*
Y2380000D01*
X4776645D01*
X4710000Y2429984D02*
X4743322D01*
X4809968Y2380000D02*
Y2479968D01*
X4843290Y2446645D01*
X4876613Y2479968D01*
Y2380000D01*
X4909936Y2479968D02*
Y2396661D01*
X4926597Y2380000D01*
X4959919D01*
X4976581Y2396661D01*
Y2479968D01*
X1180000Y4869968D02*
Y4770000D01*
Y4819984D01*
X1246645D01*
Y4869968D01*
Y4770000D01*
X1296629Y4836645D02*
X1329952D01*
X1346613Y4819984D01*
Y4770000D01*
X1296629D01*
X1279968Y4786661D01*
X1296629Y4803322D01*
X1346613D01*
X1379936Y4836645D02*
Y4770000D01*
Y4803322D01*
X1396597Y4819984D01*
X1413258Y4836645D01*
X1429919D01*
X1479903D02*
X1513226Y4770000D01*
X1546548Y4836645D01*
X1629855Y4770000D02*
X1596532D01*
X1579871Y4786661D01*
Y4819984D01*
X1596532Y4836645D01*
X1629855D01*
X1646516Y4819984D01*
Y4803322D01*
X1579871D01*
X1679839Y4770000D02*
X1729823D01*
X1746484Y4786661D01*
X1729823Y4803322D01*
X1696500D01*
X1679839Y4819984D01*
X1696500Y4836645D01*
X1746484D01*
X1796468Y4853306D02*
Y4836645D01*
X1779807D01*
X1813129D01*
X1796468D01*
Y4786661D01*
X1813129Y4770000D01*
X4630000Y4540000D02*
Y4639968D01*
X4679984D01*
X4696645Y4623306D01*
Y4589984D01*
X4679984Y4573323D01*
X4630000D01*
X4729968Y4540000D02*
Y4639968D01*
X4779952D01*
X4796613Y4623306D01*
Y4589984D01*
X4779952Y4573323D01*
X4729968D01*
X4763290D02*
X4796613Y4540000D01*
X4829935Y4639968D02*
Y4556661D01*
X4846597Y4540000D01*
X4879919D01*
X4896581Y4556661D01*
Y4639968D01*
X4929903Y4623306D02*
X4946565Y4639968D01*
X4979887D01*
X4996548Y4623306D01*
Y4556661D01*
X4979887Y4540000D01*
X4946565D01*
X4929903Y4556661D01*
Y4623306D01*
X8530000Y2579961D02*
Y2460000D01*
X8589981D01*
X8609974Y2479994D01*
Y2499987D01*
X8589981Y2519980D01*
X8530000D01*
X8589981D01*
X8609974Y2539974D01*
Y2559968D01*
X8589981Y2579961D01*
X8530000D01*
Y2880000D02*
Y2959974D01*
X8569987Y2999961D01*
X8609974Y2959974D01*
Y2880000D01*
Y2939981D01*
X8530000D01*
D103*
X2522123Y3992124D02*
G03*
X2562123Y3992124I20000J0D01*
G01*
X2442123D02*
G03*
X2482123Y3992124I20000J0D01*
G01*
X2522123D02*
G03*
X2482123Y3992124I-20000J0D01*
G01*
X3560000Y2730000D02*
G03*
X3560000Y2770000I0J20000D01*
G01*
Y2650000D02*
G03*
X3560000Y2690000I0J20000D01*
G01*
Y2730000D02*
G03*
X3560000Y2690000I0J-20000D01*
G01*
X3890000Y3740000D02*
G03*
X3890000Y3700000I0J-20000D01*
G01*
Y3820000D02*
G03*
X3890000Y3780000I0J-20000D01*
G01*
Y3740000D02*
G03*
X3890000Y3780000I0J20000D01*
G01*
X5480000Y2730000D02*
G03*
X5480000Y2770000I0J20000D01*
G01*
Y2650000D02*
G03*
X5480000Y2690000I0J20000D01*
G01*
Y2730000D02*
G03*
X5480000Y2690000I0J-20000D01*
G01*
X5550000Y3350000D02*
G03*
X5550000Y3390000I0J20000D01*
G01*
Y3270000D02*
G03*
X5550000Y3310000I0J20000D01*
G01*
Y3350000D02*
G03*
X5550000Y3310000I0J-20000D01*
G01*
X5830000Y4260000D02*
G03*
X5830000Y4220000I0J-20000D01*
G01*
Y4340000D02*
G03*
X5830000Y4300000I0J-20000D01*
G01*
Y4260000D02*
G03*
X5830000Y4300000I0J20000D01*
G01*
X5460000Y4260000D02*
G03*
X5460000Y4220000I0J-20000D01*
G01*
Y4340000D02*
G03*
X5460000Y4300000I0J-20000D01*
G01*
Y4260000D02*
G03*
X5460000Y4300000I0J20000D01*
G01*
X5820000Y3690000D02*
G03*
X5820000Y3650000I0J-20000D01*
G01*
Y3770000D02*
G03*
X5820000Y3730000I0J-20000D01*
G01*
Y3690000D02*
G03*
X5820000Y3730000I0J20000D01*
G01*
X2025533Y813495D02*
G03*
X2071857Y814743I23675J-18425D01*
G01*
X2070653Y813697D02*
G03*
X2087324Y765919I23555J-18578D01*
G01*
X2013770Y766448D02*
G03*
X2025040Y813879I-11379J27758D01*
G01*
X4343446Y1646077D02*
G03*
X4295668Y1629405I-18578J-23555D01*
G01*
X4343244Y1691197D02*
G03*
X4344492Y1644873I-18425J-23675D01*
G01*
X4343582Y1737027D02*
G03*
X4343628Y1691690I-19627J-22688D01*
G01*
X4294612Y1753091D02*
G03*
X4342449Y1735718I29342J6247D01*
G01*
X3603446Y1026077D02*
G03*
X3555668Y1009405I-18578J-23555D01*
G01*
X3603243Y1071197D02*
G03*
X3604492Y1024872I-18425J-23675D01*
G01*
X3603582Y1117027D02*
G03*
X3603628Y1071690I-19627J-22688D01*
G01*
X3554612Y1133091D02*
G03*
X3602449Y1115718I29342J6247D01*
G01*
X4348446Y1286077D02*
G03*
X4300668Y1269405I-18578J-23555D01*
G01*
X4348244Y1331197D02*
G03*
X4349492Y1284872I-18425J-23675D01*
G01*
X4348582Y1377027D02*
G03*
X4348628Y1331690I-19627J-22688D01*
G01*
X4299612Y1393091D02*
G03*
X4347449Y1375718I29342J6247D01*
G01*
X1865533Y813495D02*
G03*
X1911857Y814743I23675J-18425D01*
G01*
X1910653Y813697D02*
G03*
X1927324Y765919I23555J-18578D01*
G01*
X1853770Y766448D02*
G03*
X1865040Y813879I-11379J27758D01*
G01*
X2926077Y1136554D02*
G03*
X2909405Y1184332I-23555J18578D01*
G01*
X2971197Y1136756D02*
G03*
X2924872Y1135508I-23675J18425D01*
G01*
X3017027Y1136418D02*
G03*
X2971690Y1136372I-22688J19627D01*
G01*
X3033091Y1185388D02*
G03*
X3015718Y1137551I6247J-29342D01*
G01*
X3013923Y1603446D02*
G03*
X3030595Y1555668I23555J-18578D01*
G01*
X2968803Y1603244D02*
G03*
X3015128Y1604492I23675J-18425D01*
G01*
X2922973Y1603582D02*
G03*
X2968310Y1603628I22688J-19627D01*
G01*
X2906909Y1554613D02*
G03*
X2924282Y1602449I-6247J29342D01*
G01*
X5813923Y2063446D02*
G03*
X5830594Y2015668I23555J-18578D01*
G01*
X5768803Y2063244D02*
G03*
X5815127Y2064492I23675J-18425D01*
G01*
X5722973Y2063582D02*
G03*
X5768310Y2063628I22688J-19627D01*
G01*
X5706908Y2014612D02*
G03*
X5724282Y2062449I-6247J29342D01*
G01*
X4765533Y1743495D02*
G03*
X4811857Y1744743I23675J-18425D01*
G01*
X4810653Y1743697D02*
G03*
X4827324Y1695920I23555J-18578D01*
G01*
X4753770Y1696448D02*
G03*
X4765040Y1743879I-11379J27758D01*
G01*
X5276554Y1563923D02*
G03*
X5324332Y1580595I18578J23555D01*
G01*
X5276757Y1518803D02*
G03*
X5275508Y1565127I18425J23675D01*
G01*
X5276418Y1472973D02*
G03*
X5276372Y1518310I19627J22688D01*
G01*
X5325388Y1456908D02*
G03*
X5277551Y1474282I-29342J-6247D01*
G01*
X2865533Y813495D02*
G03*
X2911857Y814743I23675J-18425D01*
G01*
X2910653Y813697D02*
G03*
X2927324Y765919I23555J-18578D01*
G01*
X2853770Y766448D02*
G03*
X2865040Y813879I-11379J27758D01*
G01*
X2643923Y1183446D02*
G03*
X2660594Y1135668I23555J-18578D01*
G01*
X2598803Y1183244D02*
G03*
X2645127Y1184492I23675J-18425D01*
G01*
X2552973Y1183582D02*
G03*
X2598310Y1183628I22688J-19627D01*
G01*
X2536908Y1134612D02*
G03*
X2554282Y1182449I-6247J29342D01*
G01*
X2564467Y766505D02*
G03*
X2518143Y765257I-23675J18425D01*
G01*
X2519347Y766303D02*
G03*
X2502676Y814080I-23555J18578D01*
G01*
X2576230Y813552D02*
G03*
X2564960Y766121I11379J-27758D01*
G01*
X2335533Y813495D02*
G03*
X2381857Y814743I23675J-18425D01*
G01*
X2380653Y813697D02*
G03*
X2397324Y765919I23555J-18578D01*
G01*
X2323770Y766448D02*
G03*
X2335040Y813879I-11379J27758D01*
G01*
X7430000Y4700000D02*
Y4740000D01*
X7490000Y4700000D02*
Y4740000D01*
X7262500Y1652500D02*
Y1670000D01*
X7597500Y1970000D02*
Y1987500D01*
Y1652500D02*
Y1670000D01*
X7285000Y1987500D02*
X7324000D01*
X7536000D02*
X7597500D01*
X7262500Y1652500D02*
X7324000D01*
X7536000D02*
X7597500D01*
X7262500Y2022500D02*
Y2040000D01*
X7597500Y2340000D02*
Y2357500D01*
Y2022500D02*
Y2040000D01*
X7285000Y2357500D02*
X7324000D01*
X7536000D02*
X7597500D01*
X7262500Y2022500D02*
X7324000D01*
X7536000D02*
X7597500D01*
X7262500Y902500D02*
Y920000D01*
X7597500Y1220000D02*
Y1237500D01*
Y902500D02*
Y920000D01*
X7285000Y1237500D02*
X7324000D01*
X7536000D02*
X7597500D01*
X7262500Y902500D02*
X7324000D01*
X7536000D02*
X7597500D01*
X7262500Y2402500D02*
Y2420000D01*
X7597500Y2720000D02*
Y2737500D01*
Y2402500D02*
Y2420000D01*
X7285000Y2737500D02*
X7324000D01*
X7536000D02*
X7597500D01*
X7262500Y2402500D02*
X7324000D01*
X7536000D02*
X7597500D01*
X6902500Y3852500D02*
Y3870000D01*
X7237500Y4170000D02*
Y4187500D01*
Y3852500D02*
Y3870000D01*
X6925000Y4187500D02*
X6964000D01*
X7176000D02*
X7237500D01*
X6902500Y3852500D02*
X6964000D01*
X7176000D02*
X7237500D01*
X7262500Y1282500D02*
Y1300000D01*
X7597500Y1600000D02*
Y1617500D01*
Y1282500D02*
Y1300000D01*
X7285000Y1617500D02*
X7324000D01*
X7536000D02*
X7597500D01*
X7262500Y1282500D02*
X7324000D01*
X7536000D02*
X7597500D01*
X6902500Y3092500D02*
Y3110000D01*
X7237500Y3410000D02*
Y3427500D01*
Y3092500D02*
Y3110000D01*
X6925000Y3427500D02*
X6964000D01*
X7176000D02*
X7237500D01*
X6902500Y3092500D02*
X6964000D01*
X7176000D02*
X7237500D01*
X3342500Y1252500D02*
Y1270000D01*
X3677500Y1570000D02*
Y1587500D01*
Y1252500D02*
Y1270000D01*
X3365000Y1587500D02*
X3404000D01*
X3616000D02*
X3677500D01*
X3342500Y1252500D02*
X3404000D01*
X3616000D02*
X3677500D01*
X6902500Y3472500D02*
Y3490000D01*
X7237500Y3790000D02*
Y3807500D01*
Y3472500D02*
Y3490000D01*
X6925000Y3807500D02*
X6964000D01*
X7176000D02*
X7237500D01*
X6902500Y3472500D02*
X6964000D01*
X7176000D02*
X7237500D01*
X4090000Y1985606D02*
Y2275516D01*
X3830000Y1985606D02*
X4090000D01*
X3900515Y2275516D02*
X4090000D01*
X3830000Y2205000D02*
X3900515Y2275516D01*
X3830000Y1985606D02*
Y2205000D01*
X5286949Y1310086D02*
X5340000D01*
X5220000Y1030410D02*
X5340000D01*
Y1310086D01*
X5220000Y1030410D02*
Y1243137D01*
X5286949Y1310086D01*
X5350000Y1845606D02*
Y2135516D01*
X5090000Y1845606D02*
X5350000D01*
X5160516Y2135516D02*
X5350000D01*
X5090000Y2065000D02*
X5160516Y2135516D01*
X5090000Y1845606D02*
Y2065000D01*
X2540086Y2170000D02*
Y2223050D01*
X2260410Y2170000D02*
Y2290000D01*
Y2170000D02*
X2540086D01*
X2260410Y2290000D02*
X2473137D01*
X2540086Y2223050D01*
X3004999Y2385000D02*
X3214999D01*
X3005000Y2175000D02*
X3214999D01*
X6790000Y2330345D02*
X6875815D01*
X6910000Y2364530D01*
Y2609436D01*
X6790000Y2330345D02*
Y2609436D01*
X6910000D01*
X7818884Y3034735D02*
Y3124734D01*
X7619333D02*
X7818884D01*
X7619333Y3054953D02*
Y3124734D01*
Y3054953D02*
X7639551Y3034735D01*
X7818884D01*
X7645000Y3985000D02*
Y4175000D01*
X7835000Y3985000D02*
Y4175000D01*
X7645000Y3985000D02*
X7835000D01*
X7645000Y4175000D02*
X7835000D01*
X6273491Y1265002D02*
X6307500Y1265000D01*
X6452500D02*
X6525000D01*
Y1242500D02*
Y1265000D01*
Y775000D02*
Y797500D01*
X6452500Y775000D02*
X6525000D01*
X6235000D02*
Y797500D01*
Y775000D02*
X6307500D01*
X6273490Y2075002D02*
X6307500Y2075000D01*
X6452500D02*
X6525000D01*
Y2052500D02*
Y2075000D01*
Y1585000D02*
Y1607500D01*
X6452500Y1585000D02*
X6525000D01*
X6235000D02*
Y1607500D01*
Y1585000D02*
X6307500D01*
X3050000Y3390345D02*
X3135814D01*
X3170000Y3424530D01*
Y3669436D01*
X3050000Y3390345D02*
Y3669436D01*
X3170000D01*
X3710000Y2814315D02*
X4105000D01*
Y3305311D01*
X3770311D02*
X4105000D01*
X3710000Y3245000D02*
X3770311Y3305311D01*
X3710000Y2814315D02*
Y3245000D01*
X3795000Y3697500D02*
X3836000D01*
X3772500Y3362500D02*
Y3380000D01*
X4107500Y3680000D02*
Y3697500D01*
Y3362500D02*
Y3380000D01*
X4044000Y3697500D02*
X4107500D01*
X3772500Y3362500D02*
X3836000D01*
X4044000D02*
X4107500D01*
X2844484Y3180000D02*
X3134394D01*
Y2920000D02*
Y3180000D01*
X2844484Y2990515D02*
Y3180000D01*
Y2990515D02*
X2915000Y2920000D01*
X3134394D01*
X3790000Y3844315D02*
X4185000D01*
Y4335311D01*
X3850311D02*
X4185000D01*
X3790000Y4275000D02*
X3850311Y4335311D01*
X3790000Y3844315D02*
Y4275000D01*
X2880000Y3854484D02*
Y4144394D01*
X3140000D01*
X2880000Y3854484D02*
X3069484D01*
X3140000Y3925000D01*
Y4144394D01*
X5265000Y3245685D02*
X5660000D01*
X5265000Y2754689D02*
Y3245685D01*
Y2754689D02*
X5599689D01*
X5660000Y2815000D01*
Y3245685D01*
X6155606Y3400000D02*
X6445516D01*
X6155606D02*
Y3660000D01*
X6445516Y3400000D02*
Y3589485D01*
X6375000Y3660000D02*
X6445516Y3589485D01*
X6155606Y3660000D02*
X6375000D01*
X5157500Y4084000D02*
Y4125000D01*
X4822500Y4147500D02*
X4840000D01*
X5140000Y3812500D02*
X5157500D01*
X4822500D02*
X4840000D01*
X5157500D02*
Y3876000D01*
X4822500Y4084000D02*
Y4147500D01*
Y3812500D02*
Y3876000D01*
X5470000Y3894484D02*
Y4184394D01*
X5730000D01*
X5470000Y3894484D02*
X5659484D01*
X5730000Y3965000D01*
Y4184394D01*
X2452351Y4051933D02*
X2468892Y4035393D01*
X2484957Y4050430D02*
X2501497Y4033889D01*
X2517375Y4050999D02*
X2533916Y4034458D01*
X2544816Y4050430D02*
X2561356Y4033889D01*
X2443516D02*
X2561543D01*
X3500190Y2660228D02*
X3516731Y2676769D01*
X3501694Y2692834D02*
X3518235Y2709374D01*
X3501125Y2725252D02*
X3517666Y2741793D01*
X3501694Y2752692D02*
X3518235Y2769233D01*
Y2651393D02*
Y2769420D01*
X3933269Y3793231D02*
X3949810Y3809772D01*
X3931766Y3760626D02*
X3948306Y3777166D01*
X3932335Y3728207D02*
X3948875Y3744748D01*
X3931766Y3700767D02*
X3948306Y3717308D01*
X3931766Y3700580D02*
Y3818607D01*
X5420190Y2660228D02*
X5436731Y2676769D01*
X5421694Y2692834D02*
X5438234Y2709374D01*
X5421125Y2725252D02*
X5437666Y2741793D01*
X5421694Y2752692D02*
X5438234Y2769233D01*
Y2651393D02*
Y2769420D01*
X5490190Y3280228D02*
X5506731Y3296769D01*
X5491694Y3312834D02*
X5508235Y3329374D01*
X5491125Y3345252D02*
X5507666Y3361793D01*
X5491694Y3372692D02*
X5508235Y3389233D01*
Y3271393D02*
Y3389420D01*
X5873269Y4313231D02*
X5889810Y4329772D01*
X5871765Y4280626D02*
X5888306Y4297166D01*
X5872334Y4248207D02*
X5888875Y4264748D01*
X5871765Y4220767D02*
X5888306Y4237308D01*
X5871765Y4220580D02*
Y4338607D01*
X5503269Y4313231D02*
X5519810Y4329772D01*
X5501765Y4280626D02*
X5518306Y4297166D01*
X5502334Y4248207D02*
X5518875Y4264748D01*
X5501765Y4220767D02*
X5518306Y4237308D01*
X5501765Y4220580D02*
Y4338607D01*
X5863269Y3743231D02*
X5879810Y3759772D01*
X5861766Y3710626D02*
X5878306Y3727166D01*
X5862334Y3678207D02*
X5878875Y3694748D01*
X5861766Y3650767D02*
X5878306Y3667308D01*
X5861766Y3650580D02*
Y3768607D01*
X6640000Y1160000D02*
X6680000D01*
X6640000Y1220000D02*
X6680000D01*
X6640000Y760000D02*
X6680000D01*
X6640000Y820000D02*
X6680000D01*
X6640000Y860000D02*
X6680000D01*
X6640000Y920000D02*
X6680000D01*
X6640000Y960000D02*
X6680000D01*
X6640000Y1020000D02*
X6680000D01*
X6640000Y1060000D02*
X6680000D01*
X6640000Y1120000D02*
X6680000D01*
X6640000Y1520000D02*
X6680000D01*
X6640000Y1580000D02*
X6680000D01*
X6640000Y1620000D02*
X6680000D01*
X6640000Y1680000D02*
X6680000D01*
X6640000Y1720000D02*
X6680000D01*
X6640000Y1780000D02*
X6680000D01*
X6640000Y1820000D02*
X6680000D01*
X6640000Y1880000D02*
X6680000D01*
X6640000Y1920000D02*
X6680000D01*
X6640000Y1980000D02*
X6680000D01*
X7530000Y3310000D02*
Y3350000D01*
X7590000Y3310000D02*
Y3350000D01*
X7630000Y3310000D02*
Y3350000D01*
X7690000Y3310000D02*
Y3350000D01*
X3790000Y1610000D02*
X3830000D01*
X3790000Y1550000D02*
X3830000D01*
X3790000Y1450000D02*
X3830000D01*
X3790000Y1510000D02*
X3830000D01*
X4000000D02*
Y1550000D01*
X3940000Y1510000D02*
Y1550000D01*
X3920000Y1260000D02*
Y1300000D01*
X3980000Y1260000D02*
Y1300000D01*
X1910000Y1180000D02*
X1950000D01*
X1910000Y1120000D02*
X1950000D01*
X3140000Y2000000D02*
X3180000D01*
X3140000Y2060000D02*
X3180000D01*
X5060000Y1060000D02*
Y1100000D01*
X5000000Y1060000D02*
Y1100000D01*
X5060000Y1260000D02*
Y1300000D01*
X5000000Y1260000D02*
Y1300000D01*
X5240000Y2200000D02*
X5280000D01*
X5240000Y2260000D02*
X5280000D01*
X2100000Y1910000D02*
Y1950000D01*
X2160000Y1910000D02*
Y1950000D01*
X2220000Y2110000D02*
Y2150000D01*
X2160000Y2110000D02*
Y2150000D01*
X1850000Y1580000D02*
X1890000D01*
X1850000Y1520000D02*
X1890000D01*
X2160000Y2310000D02*
Y2350000D01*
X2220000Y2310000D02*
Y2350000D01*
X2600000Y1880000D02*
Y1920000D01*
X2540000Y1880000D02*
Y1920000D01*
X1850000Y1420000D02*
X1890000D01*
X1850000Y1480000D02*
X1890000D01*
X2790000Y2370000D02*
X2830000D01*
X2790000Y2430000D02*
X2830000D01*
X2790000Y2270000D02*
X2830000D01*
X2790000Y2330000D02*
X2830000D01*
X5960000Y4710000D02*
Y4750000D01*
X5900000Y4710000D02*
Y4750000D01*
X3210000Y4700000D02*
Y4740000D01*
X3150000Y4700000D02*
Y4740000D01*
X5850000Y4710000D02*
Y4750000D01*
X5790000Y4710000D02*
Y4750000D01*
X3110000Y4700000D02*
Y4740000D01*
X3050000Y4700000D02*
Y4740000D01*
X2790000Y2230000D02*
X2830000D01*
X2790000Y2170000D02*
X2830000D01*
X3400000Y2250000D02*
X3440000D01*
X3400000Y2310000D02*
X3440000D01*
X4350000Y730000D02*
Y770000D01*
X4290000Y730000D02*
Y770000D01*
X4460000Y730000D02*
Y770000D01*
X4400000Y730000D02*
Y770000D01*
X7590000Y4700000D02*
Y4740000D01*
X7530000Y4700000D02*
Y4740000D01*
X7480000Y720000D02*
Y760000D01*
X7420000Y720000D02*
Y760000D01*
X7370000Y720000D02*
Y760000D01*
X7310000Y720000D02*
Y760000D01*
X6730000Y4700000D02*
Y4740000D01*
X6670000Y4700000D02*
Y4740000D01*
X6840000Y4700000D02*
Y4740000D01*
X6780000Y4700000D02*
Y4740000D01*
X5880000Y730000D02*
Y770000D01*
X5820000Y730000D02*
Y770000D01*
X5660000Y730000D02*
Y770000D01*
X5600000Y730000D02*
Y770000D01*
X5710000Y730000D02*
Y770000D01*
X5770000Y730000D02*
Y770000D01*
X5550000Y730000D02*
Y770000D01*
X5490000Y730000D02*
Y770000D01*
X5670000Y4710000D02*
Y4750000D01*
X5730000Y4710000D02*
Y4750000D01*
X5440000Y730000D02*
Y770000D01*
X5380000Y730000D02*
Y770000D01*
X5330000Y730000D02*
Y770000D01*
X5270000Y730000D02*
Y770000D01*
X5500000Y4710000D02*
Y4750000D01*
X5440000Y4710000D02*
Y4750000D01*
X5050000Y730000D02*
Y770000D01*
X4990000Y730000D02*
Y770000D01*
X5330000Y4710000D02*
Y4750000D01*
X5390000Y4710000D02*
Y4750000D01*
X4910000Y730000D02*
Y770000D01*
X4850000Y730000D02*
Y770000D01*
X4100000Y730000D02*
Y770000D01*
X4040000Y730000D02*
Y770000D01*
X3900000Y730000D02*
Y770000D01*
X3960000Y730000D02*
Y770000D01*
X3970000Y4700000D02*
Y4740000D01*
X4030000Y4700000D02*
Y4740000D01*
X4160000Y4700000D02*
Y4740000D01*
X4100000Y4700000D02*
Y4740000D01*
X3610000Y4700000D02*
Y4740000D01*
X3670000Y4700000D02*
Y4740000D01*
X3800000Y4700000D02*
Y4740000D01*
X3740000Y4700000D02*
Y4740000D01*
X3380000Y4700000D02*
Y4740000D01*
X3440000Y4700000D02*
Y4740000D01*
X6920000Y2180000D02*
X6960000D01*
X6920000Y2120000D02*
X6960000D01*
X7670000Y4370000D02*
Y4410000D01*
X7610000Y4370000D02*
Y4410000D01*
X7850000Y4370000D02*
Y4410000D01*
X7790000Y4370000D02*
Y4410000D01*
X6150000Y1380000D02*
Y1420000D01*
X6090000Y1380000D02*
Y1420000D01*
X6450000Y1380000D02*
Y1420000D01*
X6390000Y1380000D02*
Y1420000D01*
X6250000Y1380000D02*
Y1420000D01*
X6190000Y1380000D02*
Y1420000D01*
X6850000Y1160000D02*
X6890000D01*
X6850000Y1220000D02*
X6890000D01*
X5620000Y4710000D02*
Y4750000D01*
X5560000Y4710000D02*
Y4750000D01*
X6850000Y760000D02*
X6889999D01*
X6850000Y820000D02*
X6889999D01*
X4150000Y730000D02*
Y770000D01*
X4210000Y730000D02*
Y770000D01*
X6850000Y860000D02*
X6890000D01*
X6850000Y920000D02*
X6890000D01*
X3790000Y730000D02*
Y770000D01*
X3850000Y730000D02*
Y770000D01*
X6850000Y960000D02*
X6890000D01*
X6850000Y1020000D02*
X6890000D01*
X5100000Y730000D02*
Y770000D01*
X5160000Y730000D02*
Y770000D01*
X6850000Y1060000D02*
X6890000D01*
X6850000Y1120000D02*
X6890000D01*
X4740000Y730000D02*
Y770000D01*
X4800000Y730000D02*
Y770000D01*
X6850000Y1520000D02*
X6890000D01*
X6850000Y1580000D02*
X6890000D01*
X5280000Y4710000D02*
Y4750000D01*
X5220000Y4710000D02*
Y4750000D01*
X6850000Y1620000D02*
X6890000D01*
X6850000Y1680000D02*
X6890000D01*
X3900000Y4700000D02*
Y4740000D01*
X3840000Y4700000D02*
Y4740000D01*
X6850000Y1720000D02*
X6890000D01*
X6850000Y1780000D02*
X6890000D01*
X3570000Y4700000D02*
Y4740000D01*
X3510000Y4700000D02*
Y4740000D01*
X6850000Y1820000D02*
X6890000D01*
X6850000Y1880000D02*
X6890000D01*
X6150000Y2190000D02*
Y2230000D01*
X6090000Y2190000D02*
Y2230000D01*
X4260000Y4700000D02*
Y4740000D01*
X4200000Y4700000D02*
Y4740000D01*
X6850000Y1920000D02*
X6890000D01*
X6850000Y1980000D02*
X6890000D01*
X3340000Y4700000D02*
Y4740000D01*
X3280000Y4700000D02*
Y4740000D01*
X6450000Y2190000D02*
Y2230000D01*
X6390000Y2190000D02*
Y2230000D01*
X6250000Y2190000D02*
Y2230000D01*
X6190000Y2190000D02*
Y2230000D01*
X2980000Y2730000D02*
X3020000D01*
X2980000Y2670000D02*
X3020000D01*
X3590000Y3460000D02*
X3630000D01*
X3590000Y3400000D02*
X3630000D01*
X3540000Y3560000D02*
X3580000D01*
X3540000Y3500000D02*
X3580000D01*
X4350000Y2930000D02*
X4390000D01*
X4350000Y2990000D02*
X4390000D01*
X3980000Y2730000D02*
X4020000D01*
X3980000Y2670000D02*
X4020000D01*
X3590000Y3690000D02*
X3630000D01*
X3590000Y3630000D02*
X3630000D01*
X4250000Y3360000D02*
X4290000D01*
X4250000Y3420000D02*
X4290000D01*
X3780000Y2730000D02*
X3820000D01*
X3780000Y2670000D02*
X3820000D01*
X2810000Y3660000D02*
X2850000D01*
X2810000Y3600000D02*
X2850000D01*
X3010000Y4340000D02*
X3050000D01*
X3010000Y4280000D02*
X3050000D01*
X3150000Y4240000D02*
Y4280000D01*
X3210000Y4240000D02*
Y4280000D01*
X4370000Y3920000D02*
Y3960000D01*
X4430000Y3920000D02*
Y3960000D01*
X3210000Y3770000D02*
X3250000D01*
X3210000Y3830000D02*
X3250000D01*
X2910000Y4240000D02*
Y4280000D01*
X2850000Y4240000D02*
Y4280000D01*
X3440000Y3840000D02*
Y3880000D01*
X3500000Y3840000D02*
Y3880000D01*
X4340000Y2730000D02*
X4380000D01*
X4340000Y2670000D02*
X4380000D01*
X6040000Y3590000D02*
Y3630000D01*
X6100000Y3590000D02*
Y3630000D01*
X4970000Y3070000D02*
X5010000D01*
X4970000Y3130000D02*
X5010000D01*
X6000000Y3480000D02*
X6040000D01*
X6000000Y3420000D02*
X6040000D01*
X6150000Y4210000D02*
X6190000D01*
X6150000Y4270000D02*
X6190000D01*
X4860000Y4320000D02*
X4900000D01*
X4860000Y4260000D02*
X4900000D01*
X4870000Y3160000D02*
Y3200000D01*
X4810000Y3160000D02*
Y3200000D01*
X5070000Y4260000D02*
X5110000D01*
X5070000Y4320000D02*
X5110000D01*
X4820000Y3620000D02*
Y3660000D01*
X4880000Y3620000D02*
Y3660000D01*
X5220000Y4200000D02*
Y4240000D01*
X5280000Y4200000D02*
Y4240000D01*
X5480000Y3750000D02*
Y3790000D01*
X5540000Y3750000D02*
Y3790000D01*
X5650000D02*
X5690000D01*
X5650000Y3850000D02*
X5690000D01*
X1380000Y975000D02*
X1580000D01*
Y1155000D01*
X1380000Y1875000D02*
X1580000D01*
X1080000D02*
X1159648D01*
X1120000Y975000D02*
Y1874821D01*
X1080000Y975000D02*
X1160000D01*
X1580000Y1700000D02*
Y1875000D01*
X1080000Y975000D02*
Y1875000D01*
X4250000Y1540000D02*
X4390000D01*
X4250000Y1840000D02*
X4390000D01*
X3510000Y920000D02*
X3650000D01*
X3510000Y1220000D02*
X3650000D01*
X4255000Y1180000D02*
X4395000D01*
X4255000Y1480000D02*
X4395000D01*
X2820000Y1090000D02*
Y1230000D01*
X3120000Y1090000D02*
Y1230000D01*
X3120000Y1510000D02*
Y1650000D01*
X2820000Y1510000D02*
Y1650000D01*
X5920000Y1970000D02*
Y2110000D01*
X5620000Y1970000D02*
Y2110000D01*
X5230000Y1670000D02*
X5370000D01*
X5230000Y1370000D02*
X5370000D01*
X2750000Y1090000D02*
Y1230000D01*
X2450000Y1090000D02*
Y1230000D01*
X1115000Y175000D02*
Y865000D01*
X1090000D02*
X1770000D01*
X1090000Y175000D02*
Y865000D01*
Y175000D02*
X1770000D01*
Y865000D01*
X7910000Y195000D02*
Y265000D01*
Y5195000D02*
Y5265000D01*
X2900000Y2005000D02*
Y2075000D01*
X6480000Y4665000D02*
Y4735000D01*
X4950000Y4665000D02*
Y4735000D01*
X6170000Y4665000D02*
Y4735000D01*
X4640000Y4665000D02*
Y4735000D01*
X7790000Y835000D02*
Y905000D01*
X7720000Y4525000D02*
Y4595000D01*
X1470000Y4635000D02*
Y4705000D01*
X2400000Y3540106D02*
Y3610000D01*
X2345000Y3500106D02*
X2460000D01*
X2400122Y3500228D02*
X2459894Y3560000D01*
X2340106D02*
X2459894D01*
X2400000Y3500106D02*
Y3540106D01*
X2340106Y3560000D02*
X2400000Y3500106D01*
Y3450000D02*
Y3500106D01*
X7317619Y4752000D02*
X7317692Y4752073D01*
X7290000Y4752000D02*
X7317619D01*
X7262511D02*
X7317619D01*
X7262373Y4728000D02*
X7317895D01*
X7052000Y4212381D02*
X7052073Y4212308D01*
X7052000Y4212381D02*
Y4240000D01*
Y4212381D02*
Y4267489D01*
X7028000Y4212105D02*
Y4267627D01*
X6757927Y3497692D02*
X6758000Y3497619D01*
Y3470000D02*
Y3497619D01*
Y3442511D02*
Y3497619D01*
X6782000Y3442373D02*
Y3497895D01*
X7147619Y2362000D02*
X7147692Y2362073D01*
X7120000Y2362000D02*
X7147619D01*
X7092511D02*
X7147619D01*
X7092373Y2338000D02*
X7147895D01*
X7177619Y1992000D02*
X7177692Y1992073D01*
X7150000Y1992000D02*
X7177619D01*
X7122511D02*
X7177619D01*
X7122373Y1968000D02*
X7177895D01*
X7147619Y2752000D02*
X7147692Y2752073D01*
X7120000Y2752000D02*
X7147619D01*
X7092511D02*
X7147619D01*
X7092373Y2728000D02*
X7147895D01*
X7177619Y1622000D02*
X7177692Y1622073D01*
X7150000Y1622000D02*
X7177619D01*
X7122511D02*
X7177619D01*
X7122373Y1598000D02*
X7177895D01*
X7187619Y1252000D02*
X7187692Y1252073D01*
X7160000Y1252000D02*
X7187619D01*
X7132511D02*
X7187619D01*
X7132373Y1228000D02*
X7187895D01*
X8252000Y2752381D02*
X8252073Y2752308D01*
X8252000Y2752381D02*
Y2780000D01*
Y2752381D02*
Y2807489D01*
X8228000Y2752105D02*
Y2807627D01*
X8227927Y2707692D02*
X8228000Y2707619D01*
Y2680000D02*
Y2707619D01*
Y2652511D02*
Y2707619D01*
X8252000Y2652373D02*
Y2707895D01*
X7917619Y1042000D02*
X7917692Y1042073D01*
X7890000Y1042000D02*
X7917619D01*
X7862511D02*
X7917619D01*
X7862373Y1018000D02*
X7917895D01*
X7947619Y4402000D02*
X7947692Y4402073D01*
X7920000Y4402000D02*
X7947619D01*
X7892511D02*
X7947619D01*
X7892373Y4378000D02*
X7947895D01*
X3315000Y1755000D02*
Y1825000D01*
X3285000Y1755000D02*
Y1825000D01*
X3270000Y1790000D02*
X3285000D01*
X3315000D02*
X3330000D01*
X4640000Y1255000D02*
X4640073Y1215000D01*
Y1285000D02*
Y1325000D01*
X4590000Y1285000D02*
X4690000D01*
X4590000Y1255000D02*
X4690000D01*
X4405000Y1065000D02*
Y1135000D01*
X4375000Y1065000D02*
Y1135000D01*
X4360000Y1100000D02*
X4375000D01*
X4405000D02*
X4420000D01*
X3975000Y1069927D02*
X4015000Y1070000D01*
X4045000Y1069927D02*
X4085000D01*
X4045000Y1020000D02*
Y1120000D01*
X4015000Y1020000D02*
Y1120000D01*
X3922000Y892381D02*
X3922073Y892308D01*
X3922000Y892381D02*
Y920000D01*
Y892381D02*
Y947489D01*
X3898000Y892105D02*
Y947627D01*
X4490000Y2095000D02*
X4490073Y2055000D01*
Y2125000D02*
Y2165000D01*
X4440000Y2125000D02*
X4540000D01*
X4440000Y2095000D02*
X4540000D01*
X4565000Y1675000D02*
X4635000D01*
X4565000Y1645000D02*
X4635000D01*
X4600000Y1630000D02*
Y1645000D01*
Y1675000D02*
Y1690000D01*
X3825000Y1739927D02*
X3865000Y1740000D01*
X3895000Y1739927D02*
X3935000D01*
X3895000Y1690000D02*
Y1790000D01*
X3865000Y1690000D02*
Y1790000D01*
X3547927Y1687692D02*
X3548000Y1687619D01*
Y1660000D02*
Y1687619D01*
Y1632511D02*
Y1687619D01*
X3572000Y1632373D02*
Y1687895D01*
X3537927Y1817692D02*
X3538000Y1817619D01*
Y1790000D02*
Y1817619D01*
Y1762511D02*
Y1817619D01*
X3562000Y1762373D02*
Y1817895D01*
X3185000Y1565000D02*
X3255000D01*
X3185000Y1595000D02*
X3255000D01*
X3220000D02*
Y1610000D01*
Y1550000D02*
Y1565000D01*
X3867619Y1282000D02*
X3867692Y1282073D01*
X3840000Y1282000D02*
X3867619D01*
X3812511D02*
X3867619D01*
X3812373Y1258000D02*
X3867895D01*
X3192308Y1337927D02*
X3192381Y1338000D01*
X3220000D01*
X3192381D02*
X3247489D01*
X3192105Y1362000D02*
X3247627D01*
X4087619Y1292000D02*
X4087692Y1292073D01*
X4060000Y1292000D02*
X4087619D01*
X4032511D02*
X4087619D01*
X4032373Y1268000D02*
X4087895D01*
X2655000Y1635000D02*
Y1705000D01*
X2625000Y1635000D02*
Y1705000D01*
X2610000Y1670000D02*
X2625000D01*
X2655000D02*
X2670000D01*
X5750000Y1485000D02*
X5750073Y1445000D01*
Y1515000D02*
Y1555000D01*
X5700000Y1515000D02*
X5800000D01*
X5700000Y1485000D02*
X5800000D01*
X2575000Y1490000D02*
X2615000Y1490073D01*
X2505000D02*
X2545000D01*
Y1440000D02*
Y1540000D01*
X2575000Y1440000D02*
Y1540000D01*
X1935000Y985000D02*
Y1055000D01*
X1965000Y985000D02*
Y1055000D01*
Y1020000D02*
X1980000D01*
X1920000D02*
X1935000D01*
X3282000Y1062381D02*
X3282073Y1062308D01*
X3282000Y1062381D02*
Y1090000D01*
Y1062381D02*
Y1117489D01*
X3258000Y1062105D02*
Y1117627D01*
X3257927Y1217692D02*
X3258000Y1217619D01*
Y1190000D02*
Y1217619D01*
Y1162511D02*
Y1217619D01*
X3282000Y1162373D02*
Y1217895D01*
X4285000Y2145000D02*
X4355000D01*
X4285000Y2175000D02*
X4355000D01*
X4320000D02*
Y2190000D01*
Y2130000D02*
Y2145000D01*
X3767927Y2407692D02*
X3768000Y2407619D01*
Y2380000D02*
Y2407619D01*
Y2352511D02*
Y2407619D01*
X3792000Y2352373D02*
Y2407895D01*
X2925000Y4695000D02*
X2995000D01*
X2925000Y4665000D02*
X2995000D01*
X2960000Y4650000D02*
Y4665000D01*
Y4695000D02*
Y4710000D01*
X3565000Y2075000D02*
X3635000D01*
X3565000Y2105000D02*
X3635000D01*
X3600000D02*
Y2120000D01*
Y2060000D02*
Y2075000D01*
X5052000Y2202381D02*
X5052073Y2202308D01*
X5052000Y2202381D02*
Y2230000D01*
Y2202381D02*
Y2257489D01*
X5028000Y2202105D02*
Y2257627D01*
X5545000Y1485000D02*
X5615000D01*
X5545000Y1515000D02*
X5615000D01*
X5580000D02*
Y1530000D01*
Y1470000D02*
Y1485000D01*
X5512308Y1107927D02*
X5512381Y1108000D01*
X5540000D01*
X5512381D02*
X5567489D01*
X5512105Y1132000D02*
X5567627D01*
X4995000Y1715000D02*
Y1785000D01*
X5025000Y1715000D02*
Y1785000D01*
Y1750000D02*
X5040000D01*
X4980000D02*
X4995000D01*
X5595000Y2360000D02*
X5635000Y2360073D01*
X5525000D02*
X5565000D01*
Y2310000D02*
Y2410000D01*
X5595000Y2310000D02*
Y2410000D01*
X5505000Y3529927D02*
X5545000Y3530000D01*
X5575000Y3529927D02*
X5615000D01*
X5575000Y3480000D02*
Y3580000D01*
X5545000Y3480000D02*
Y3580000D01*
X5465000Y1715000D02*
Y1785000D01*
X5435000Y1715000D02*
Y1785000D01*
X5420000Y1750000D02*
X5435000D01*
X5465000D02*
X5480000D01*
X5577619Y2002000D02*
X5577692Y2002073D01*
X5550000Y2002000D02*
X5577619D01*
X5522511D02*
X5577619D01*
X5522373Y1978000D02*
X5577895D01*
X4907619Y1992000D02*
X4907692Y1992073D01*
X4880000Y1992000D02*
X4907619D01*
X4852511D02*
X4907619D01*
X4852373Y1968000D02*
X4907895D01*
X5482000Y2182381D02*
X5482073Y2182308D01*
X5482000Y2182381D02*
Y2210000D01*
Y2182381D02*
Y2237489D01*
X5458000Y2182105D02*
Y2237627D01*
X4730000Y2095000D02*
X4730073Y2055000D01*
Y2125000D02*
Y2165000D01*
X4680000Y2125000D02*
X4780000D01*
X4680000Y2095000D02*
X4780000D01*
X4869927Y1245000D02*
X4870000Y1205000D01*
X4869927Y1135000D02*
Y1175000D01*
X4820000D02*
X4920000D01*
X4820000Y1205000D02*
X4920000D01*
X4947619Y1522000D02*
X4947692Y1522073D01*
X4920000Y1522000D02*
X4947619D01*
X4892511D02*
X4947619D01*
X4892373Y1498000D02*
X4947895D01*
X1857927Y1377692D02*
X1858000Y1377619D01*
Y1350000D02*
Y1377619D01*
Y1322511D02*
Y1377619D01*
X1882000Y1322373D02*
Y1377895D01*
X2657619Y2342000D02*
X2657692Y2342073D01*
X2630000Y2342000D02*
X2657619D01*
X2602511D02*
X2657619D01*
X2602373Y2318000D02*
X2657895D01*
X3432000Y2382381D02*
X3432073Y2382308D01*
X3432000Y2382381D02*
Y2410000D01*
Y2382381D02*
Y2437489D01*
X3408000Y2382105D02*
Y2437627D01*
X2175000Y805000D02*
X2245000D01*
X2175000Y775000D02*
X2245000D01*
X2210000Y760000D02*
Y775000D01*
Y805000D02*
Y820000D01*
X2675000Y805000D02*
X2745000D01*
X2675000Y775000D02*
X2745000D01*
X2710000Y760000D02*
Y775000D01*
Y805000D02*
Y820000D01*
X6752000Y2122381D02*
X6752073Y2122308D01*
X6752000Y2122381D02*
Y2150000D01*
Y2122381D02*
Y2177489D01*
X6728000Y2122105D02*
Y2177627D01*
X6752000Y2222381D02*
X6752073Y2222308D01*
X6752000Y2222381D02*
Y2250000D01*
Y2222381D02*
Y2277489D01*
X6728000Y2222105D02*
Y2277627D01*
X6952000Y2222381D02*
X6952073Y2222308D01*
X6952000Y2222381D02*
Y2250000D01*
Y2222381D02*
Y2277489D01*
X6928000Y2222105D02*
Y2277627D01*
X7807619Y3342000D02*
X7807692Y3342073D01*
X7780000Y3342000D02*
X7807619D01*
X7752511D02*
X7807619D01*
X7752373Y3318000D02*
X7807895D01*
X7792308Y3767927D02*
X7792381Y3768000D01*
X7820000D01*
X7792381D02*
X7847489D01*
X7792105Y3792000D02*
X7847627D01*
X6837619Y3832000D02*
X6837692Y3832073D01*
X6810000Y3832000D02*
X6837619D01*
X6782511D02*
X6837619D01*
X6782373Y3808000D02*
X6837895D01*
X6292308Y2197927D02*
X6292381Y2198000D01*
X6320000D01*
X6292381D02*
X6347489D01*
X6292105Y2222000D02*
X6347627D01*
X6292308Y1387927D02*
X6292381Y1388000D01*
X6320000D01*
X6292381D02*
X6347489D01*
X6292105Y1412000D02*
X6347627D01*
X3687619Y762000D02*
X3687692Y762073D01*
X3660000Y762000D02*
X3687619D01*
X3632511D02*
X3687619D01*
X3632373Y738000D02*
X3687895D01*
X4637619Y762000D02*
X4637692Y762073D01*
X4610000Y762000D02*
X4637619D01*
X4582511D02*
X4637619D01*
X4582373Y738000D02*
X4637895D01*
X6547619Y1412000D02*
X6547692Y1412073D01*
X6520000Y1412000D02*
X6547619D01*
X6492511D02*
X6547619D01*
X6492373Y1388000D02*
X6547895D01*
X6857927Y717692D02*
X6858000Y717619D01*
Y690000D02*
Y717619D01*
Y662511D02*
Y717619D01*
X6882000Y662373D02*
Y717895D01*
X6827927Y2077692D02*
X6828000Y2077619D01*
Y2050000D02*
Y2077619D01*
Y2022511D02*
Y2077619D01*
X6852000Y2022373D02*
Y2077895D01*
X6547619Y2222000D02*
X6547692Y2222073D01*
X6520000Y2222000D02*
X6547619D01*
X6492511D02*
X6547619D01*
X6492373Y2198000D02*
X6547895D01*
X3042000Y3762381D02*
X3042073Y3762308D01*
X3042000Y3762381D02*
Y3790000D01*
Y3762381D02*
Y3817489D01*
X3018000Y3762105D02*
Y3817627D01*
X2817927Y3817692D02*
X2818000Y3817619D01*
Y3790000D02*
Y3817619D01*
Y3762511D02*
Y3817619D01*
X2842000Y3762373D02*
Y3817895D01*
X3437927Y3357692D02*
X3438000Y3357619D01*
Y3330000D02*
Y3357619D01*
Y3302511D02*
Y3357619D01*
X3462000Y3302373D02*
Y3357895D01*
X3437927Y3257692D02*
X3438000Y3257619D01*
Y3230000D02*
Y3257619D01*
Y3202511D02*
Y3257619D01*
X3462000Y3202373D02*
Y3257895D01*
X4382000Y3162381D02*
X4382073Y3162308D01*
X4382000Y3162381D02*
Y3190000D01*
Y3162381D02*
Y3217489D01*
X4358000Y3162105D02*
Y3217627D01*
X4382000Y3262381D02*
X4382073Y3262308D01*
X4382000Y3262381D02*
Y3290000D01*
Y3262381D02*
Y3317489D01*
X4358000Y3262105D02*
Y3317627D01*
X3317927Y4317692D02*
X3318000Y4317619D01*
Y4290000D02*
Y4317619D01*
Y4262511D02*
Y4317619D01*
X3342000Y4262373D02*
Y4317895D01*
X3517927Y4317692D02*
X3518000Y4317619D01*
Y4290000D02*
Y4317619D01*
Y4262511D02*
Y4317619D01*
X3542000Y4262373D02*
Y4317895D01*
X4312308Y4707927D02*
X4312381Y4708000D01*
X4340000D01*
X4312381D02*
X4367489D01*
X4312105Y4732000D02*
X4367627D01*
X4372308Y4247927D02*
X4372381Y4248000D01*
X4400000D01*
X4372381D02*
X4427489D01*
X4372105Y4272000D02*
X4427627D01*
X3165000Y2785000D02*
X3235000D01*
X3165000Y2755000D02*
X3235000D01*
X3200000Y2740000D02*
Y2755000D01*
Y2785000D02*
Y2800000D01*
X3172308Y3027927D02*
X3172381Y3028000D01*
X3200000D01*
X3172381D02*
X3227489D01*
X3172105Y3052000D02*
X3227627D01*
X3227619Y3252000D02*
X3227692Y3252073D01*
X3200000Y3252000D02*
X3227619D01*
X3172511D02*
X3227619D01*
X3172373Y3228000D02*
X3227895D01*
X6385000Y2815000D02*
X6455000D01*
X6385000Y2785000D02*
X6455000D01*
X6420000Y2770000D02*
Y2785000D01*
Y2815000D02*
Y2830000D01*
X2752308Y3037927D02*
X2752381Y3038000D01*
X2780000D01*
X2752381D02*
X2807489D01*
X2752105Y3062000D02*
X2807627D01*
X2807619Y3262000D02*
X2807692Y3262073D01*
X2780000Y3262000D02*
X2807619D01*
X2752511D02*
X2807619D01*
X2752373Y3238000D02*
X2807895D01*
X3322308Y3467927D02*
X3322381Y3468000D01*
X3350000D01*
X3322381D02*
X3377489D01*
X3322105Y3492000D02*
X3377627D01*
X2817927Y3457692D02*
X2818000Y3457619D01*
Y3430000D02*
Y3457619D01*
Y3402511D02*
Y3457619D01*
X2842000Y3402373D02*
Y3457895D01*
X4302000Y3542381D02*
X4302073Y3542308D01*
X4302000Y3542381D02*
Y3570000D01*
Y3542381D02*
Y3597489D01*
X4278000Y3542105D02*
Y3597627D01*
X4457619Y3522000D02*
X4457692Y3522073D01*
X4430000Y3522000D02*
X4457619D01*
X4402511D02*
X4457619D01*
X4402373Y3498000D02*
X4457895D01*
X3425000Y3055000D02*
Y3125000D01*
X3395000Y3055000D02*
Y3125000D01*
X3380000Y3090000D02*
X3395000D01*
X3425000D02*
X3440000D01*
X3425000Y2805000D02*
Y2875000D01*
X3395000Y2805000D02*
Y2875000D01*
X3380000Y2840000D02*
X3395000D01*
X3425000D02*
X3440000D01*
X3437927Y2987692D02*
X3438000Y2987619D01*
Y2960000D02*
Y2987619D01*
Y2932511D02*
Y2987619D01*
X3462000Y2932373D02*
Y2987895D01*
X4302000Y3742381D02*
X4302073Y3742308D01*
X4302000Y3742381D02*
Y3770000D01*
Y3742381D02*
Y3797489D01*
X4278000Y3742105D02*
Y3797627D01*
X4302000Y3642381D02*
X4302073Y3642308D01*
X4302000Y3642381D02*
Y3670000D01*
Y3642381D02*
Y3697489D01*
X4278000Y3642105D02*
Y3697627D01*
X3412000Y3602381D02*
X3412073Y3602308D01*
X3412000Y3602381D02*
Y3630000D01*
Y3602381D02*
Y3657489D01*
X3388000Y3602105D02*
Y3657627D01*
X2752308Y2827927D02*
X2752381Y2828000D01*
X2780000D01*
X2752381D02*
X2807489D01*
X2752105Y2852000D02*
X2807627D01*
X2817927Y3557692D02*
X2818000Y3557619D01*
Y3530000D02*
Y3557619D01*
Y3502511D02*
Y3557619D01*
X2842000Y3502373D02*
Y3557895D01*
X3505000Y4135000D02*
Y4205000D01*
X3475000Y4135000D02*
Y4205000D01*
X3460000Y4170000D02*
X3475000D01*
X3505000D02*
X3520000D01*
X3505000Y4005000D02*
Y4075000D01*
X3475000Y4005000D02*
Y4075000D01*
X3460000Y4040000D02*
X3475000D01*
X3505000D02*
X3520000D01*
X3552308Y3867927D02*
X3552381Y3868000D01*
X3580000D01*
X3552381D02*
X3607489D01*
X3552104Y3892000D02*
X3607627D01*
X2807619Y4272000D02*
X2807692Y4272073D01*
X2780000Y4272000D02*
X2807619D01*
X2752511D02*
X2807619D01*
X2752373Y4248000D02*
X2807895D01*
X3042000Y4182381D02*
X3042073Y4182308D01*
X3042000Y4182381D02*
Y4210000D01*
Y4182381D02*
Y4237489D01*
X3018000Y4182105D02*
Y4237627D01*
X3397619Y3872000D02*
X3397692Y3872073D01*
X3370000Y3872000D02*
X3397619D01*
X3342511D02*
X3397619D01*
X3342373Y3848000D02*
X3397895D01*
X4382000Y2802381D02*
X4382073Y2802308D01*
X4382000Y2802381D02*
Y2830000D01*
Y2802381D02*
Y2857489D01*
X4358000Y2802105D02*
Y2857627D01*
X6255000Y2785000D02*
X6325000D01*
X6255000Y2815000D02*
X6325000D01*
X6290000D02*
Y2830000D01*
Y2770000D02*
Y2785000D01*
X5115000Y3355000D02*
Y3425000D01*
X5145000Y3355000D02*
Y3425000D01*
Y3390000D02*
X5160000D01*
X5100000D02*
X5115000D01*
X2475000Y4525000D02*
X2545000D01*
X2475000Y4555000D02*
X2545000D01*
X2510000D02*
Y4570000D01*
Y4510000D02*
Y4525000D01*
X5952000Y2702381D02*
X5952073Y2702308D01*
X5952000Y2702381D02*
Y2730000D01*
Y2702381D02*
Y2757489D01*
X5928000Y2702105D02*
Y2757627D01*
X5952000Y2802381D02*
X5952073Y2802308D01*
X5952000Y2802381D02*
Y2830000D01*
Y2802381D02*
Y2857489D01*
X5928000Y2802105D02*
Y2857627D01*
X4977619Y2842000D02*
X4977692Y2842073D01*
X4950000Y2842000D02*
X4977619D01*
X4922511D02*
X4977619D01*
X4922373Y2818000D02*
X4977895D01*
X5077619Y2842000D02*
X5077692Y2842073D01*
X5050000Y2842000D02*
X5077619D01*
X5022511D02*
X5077619D01*
X5022373Y2818000D02*
X5077895D01*
X6125000Y2815000D02*
X6195000D01*
X6125000Y2785000D02*
X6195000D01*
X6160000Y2770000D02*
Y2785000D01*
Y2815000D02*
Y2830000D01*
X6182000Y3062381D02*
X6182073Y3062308D01*
X6182000Y3062381D02*
Y3090000D01*
Y3062381D02*
Y3117489D01*
X6158000Y3062105D02*
Y3117627D01*
X6182000Y3162381D02*
X6182073Y3162308D01*
X6182000Y3162381D02*
Y3190000D01*
Y3162381D02*
Y3217489D01*
X6158000Y3162105D02*
Y3217627D01*
X3565000Y2385000D02*
X3635000D01*
X3565000Y2355000D02*
X3635000D01*
X3600000Y2340000D02*
Y2355000D01*
Y2385000D02*
Y2400000D01*
X6357927Y3117692D02*
X6358000Y3117619D01*
Y3090000D02*
Y3117619D01*
Y3062511D02*
Y3117619D01*
X6382000Y3062373D02*
Y3117895D01*
X6357927Y3217692D02*
X6358000Y3217619D01*
Y3190000D02*
Y3217619D01*
Y3162511D02*
Y3217619D01*
X6382000Y3162373D02*
Y3217895D01*
X5282308Y3757927D02*
X5282381Y3758000D01*
X5310000D01*
X5282381D02*
X5337489D01*
X5282105Y3782000D02*
X5337627D01*
X5382308Y3757927D02*
X5382381Y3758000D01*
X5410000D01*
X5382381D02*
X5437489D01*
X5382105Y3782000D02*
X5437627D01*
X5002308Y3647927D02*
X5002381Y3648000D01*
X5030000D01*
X5002381D02*
X5057489D01*
X5002105Y3672000D02*
X5057627D01*
X5062000Y3482381D02*
X5062073Y3482308D01*
X5062000Y3482381D02*
Y3510000D01*
Y3482381D02*
Y3537489D01*
X5038000Y3482105D02*
Y3537627D01*
X5965000Y2915000D02*
Y2985000D01*
X5995000Y2915000D02*
Y2985000D01*
Y2950000D02*
X6010000D01*
X5950000D02*
X5965000D01*
X5885000Y3235000D02*
X5955000D01*
X5885000Y3265000D02*
X5955000D01*
X5920000D02*
Y3280000D01*
Y3220000D02*
Y3235000D01*
X5952000Y3042381D02*
X5952073Y3042308D01*
X5952000Y3042381D02*
Y3070000D01*
Y3042381D02*
Y3097489D01*
X5928000Y3042105D02*
Y3097627D01*
X6247927Y3887692D02*
X6248000Y3887619D01*
Y3860000D02*
Y3887619D01*
Y3832511D02*
Y3887619D01*
X6272000Y3832373D02*
Y3887895D01*
X5192308Y3647927D02*
X5192381Y3648000D01*
X5220000D01*
X5192381D02*
X5247489D01*
X5192105Y3672000D02*
X5247627D01*
X5157619D02*
X5157692Y3672073D01*
X5130000Y3672000D02*
X5157619D01*
X5102511D02*
X5157619D01*
X5102373Y3648000D02*
X5157895D01*
X5922308Y3977927D02*
X5922381Y3978000D01*
X5950000D01*
X5922381D02*
X5977489D01*
X5922105Y4002000D02*
X5977627D01*
X4967619Y3292000D02*
X4967692Y3292073D01*
X4940000Y3292000D02*
X4967619D01*
X4912511D02*
X4967619D01*
X4912373Y3268000D02*
X4967895D01*
X5222308Y3987927D02*
X5222381Y3988000D01*
X5250000D01*
X5222381D02*
X5277489D01*
X5222105Y4012000D02*
X5277627D01*
X7253368Y4469987D02*
Y4403342D01*
X7266697Y4390013D01*
X7293355D01*
X7306684Y4403342D01*
Y4469987D01*
X7333342Y4456658D02*
X7346671Y4469987D01*
X7373329D01*
X7386658Y4456658D01*
Y4443329D01*
X7373329Y4430000D01*
X7360000D01*
X7373329D01*
X7386658Y4416671D01*
Y4403342D01*
X7373329Y4390013D01*
X7346671D01*
X7333342Y4403342D01*
X7413316Y4456658D02*
X7426645Y4469987D01*
X7453303D01*
X7466632Y4456658D01*
Y4403342D01*
X7453303Y4390013D01*
X7426645D01*
X7413316Y4403342D01*
Y4456658D01*
X7283368Y3909987D02*
Y3843342D01*
X7296697Y3830013D01*
X7323355D01*
X7336684Y3843342D01*
Y3909987D01*
X7416658Y3830013D02*
X7363342D01*
X7416658Y3883329D01*
Y3896658D01*
X7403329Y3909987D01*
X7376671D01*
X7363342Y3896658D01*
X7496632Y3909987D02*
X7443316D01*
Y3870000D01*
X7469974Y3883329D01*
X7483303D01*
X7496632Y3870000D01*
Y3843342D01*
X7483303Y3830013D01*
X7456645D01*
X7443316Y3843342D01*
X7283368Y3139987D02*
Y3073342D01*
X7296697Y3060013D01*
X7323355D01*
X7336684Y3073342D01*
Y3139987D01*
X7416658Y3060013D02*
X7363342D01*
X7416658Y3113329D01*
Y3126658D01*
X7403329Y3139987D01*
X7376671D01*
X7363342Y3126658D01*
X7443316D02*
X7456645Y3139987D01*
X7483303D01*
X7496632Y3126658D01*
Y3113329D01*
X7483303Y3100000D01*
X7469974D01*
X7483303D01*
X7496632Y3086671D01*
Y3073342D01*
X7483303Y3060013D01*
X7456645D01*
X7443316Y3073342D01*
X5245000Y1240000D02*
X5291651D01*
X5314977Y1216674D01*
X5291651Y1193348D01*
X5245000D01*
X5279988D01*
Y1240000D01*
X5314977Y1170022D02*
X5245000D01*
Y1135034D01*
X5256663Y1123371D01*
X5268326D01*
X5279988Y1135034D01*
Y1170022D01*
Y1135034D01*
X5291651Y1123371D01*
X5303314D01*
X5314977Y1135034D01*
Y1170022D01*
X5303314Y1053393D02*
X5314977Y1065056D01*
Y1088382D01*
X5303314Y1100045D01*
X5256663D01*
X5245000Y1088382D01*
Y1065056D01*
X5256663Y1053393D01*
X2470001Y2265000D02*
Y2218348D01*
X2446675Y2195022D01*
X2423349Y2218348D01*
Y2265000D01*
Y2230011D01*
X2470001D01*
X2400023Y2195022D02*
Y2265000D01*
X2365034D01*
X2353371Y2253337D01*
Y2241674D01*
X2365034Y2230011D01*
X2400023D01*
X2365034D01*
X2353371Y2218348D01*
Y2206685D01*
X2365034Y2195022D01*
X2400023D01*
X2283394Y2206685D02*
X2295057Y2195022D01*
X2318383D01*
X2330046Y2206685D01*
Y2253337D01*
X2318383Y2265000D01*
X2295057D01*
X2283394Y2253337D01*
X6715000Y1285000D02*
Y1311658D01*
Y1298329D01*
X6635026D01*
X6648355Y1285000D01*
X6715000Y1351645D02*
X6635026D01*
X6688342D02*
X6661684Y1391632D01*
X6688342Y1351645D02*
X6715000Y1391632D01*
X6033361Y1689987D02*
Y1623342D01*
X6046690Y1610013D01*
X6073349D01*
X6086677Y1623342D01*
Y1689987D01*
X6113335Y1610013D02*
X6139994D01*
X6126665D01*
Y1689987D01*
X6113335Y1676658D01*
X6179981Y1610013D02*
X6206639D01*
X6193310D01*
Y1689987D01*
X6179981Y1676658D01*
X5990032Y1249987D02*
Y1183342D01*
X6003361Y1170013D01*
X6030019D01*
X6043348Y1183342D01*
Y1249987D01*
X6070006Y1170013D02*
X6096664D01*
X6083336D01*
Y1249987D01*
X6070006Y1236658D01*
X6189968Y1170013D02*
X6136652D01*
X6189968Y1223329D01*
Y1236658D01*
X6176639Y1249987D01*
X6149981D01*
X6136652Y1236658D01*
X3200032Y3749987D02*
Y3683342D01*
X3213361Y3670013D01*
X3240019D01*
X3253348Y3683342D01*
Y3749987D01*
X3280006Y3670013D02*
X3306664D01*
X3293336D01*
Y3749987D01*
X3280006Y3736658D01*
X3346652D02*
X3359981Y3749987D01*
X3386639D01*
X3399968Y3736658D01*
Y3683342D01*
X3386639Y3670013D01*
X3359981D01*
X3346652Y3683342D01*
Y3736658D01*
X1198316Y734974D02*
X1145000D01*
Y694987D01*
X1171658Y708316D01*
X1184987D01*
X1198316Y694987D01*
Y668329D01*
X1184987Y655000D01*
X1158329D01*
X1145000Y668329D01*
X1224974Y734974D02*
Y681658D01*
X1251632Y655000D01*
X1278290Y681658D01*
Y734974D01*
X6135000Y2504974D02*
Y2425000D01*
X6188316D01*
X6214974Y2491645D02*
X6228303Y2504974D01*
X6254961D01*
X6268290Y2491645D01*
Y2478316D01*
X6254961Y2464987D01*
X6241632D01*
X6254961D01*
X6268290Y2451658D01*
Y2438329D01*
X6254961Y2425000D01*
X6228303D01*
X6214974Y2438329D01*
X6294948Y2504974D02*
Y2451658D01*
X6321606Y2425000D01*
X6348264Y2451658D01*
Y2504974D01*
X4578316Y1884974D02*
X4551658Y1871645D01*
X4525000Y1844987D01*
Y1818329D01*
X4538329Y1805000D01*
X4564987D01*
X4578316Y1818329D01*
Y1831658D01*
X4564987Y1844987D01*
X4525000D01*
X4604974Y1884974D02*
Y1831658D01*
X4631632Y1805000D01*
X4658290Y1831658D01*
Y1884974D01*
X5945000Y1864974D02*
Y1785000D01*
X5998316D01*
X6078290Y1864974D02*
X6024974D01*
Y1824987D01*
X6051632Y1838316D01*
X6064961D01*
X6078290Y1824987D01*
Y1798329D01*
X6064961Y1785000D01*
X6038303D01*
X6024974Y1798329D01*
X6104948Y1864974D02*
Y1811658D01*
X6131606Y1785000D01*
X6158264Y1811658D01*
Y1864974D01*
X4105000Y1865000D02*
X4131658D01*
X4118329D01*
Y1944974D01*
X4105000Y1931645D01*
X4171645D02*
X4184974Y1944974D01*
X4211632D01*
X4224961Y1931645D01*
Y1878329D01*
X4211632Y1865000D01*
X4184974D01*
X4171645Y1878329D01*
Y1931645D01*
X4251619Y1944974D02*
Y1891658D01*
X4278277Y1865000D01*
X4304935Y1891658D01*
Y1944974D01*
X5825000Y2375000D02*
Y2428316D01*
X5851658Y2454974D01*
X5878316Y2428316D01*
Y2375000D01*
Y2414987D01*
X5825000D01*
X5958290Y2454974D02*
X5904974D01*
Y2414987D01*
X5931632Y2428316D01*
X5944961D01*
X5958290Y2414987D01*
Y2388329D01*
X5944961Y2375000D01*
X5918303D01*
X5904974Y2388329D01*
X5984948Y2454974D02*
Y2401658D01*
X6011606Y2375000D01*
X6038264Y2401658D01*
Y2454974D01*
X4295000Y974987D02*
X4348316D01*
X4428290Y1014974D02*
X4401632Y1001645D01*
X4374974Y974987D01*
Y948329D01*
X4388303Y935000D01*
X4414961D01*
X4428290Y948329D01*
Y961658D01*
X4414961Y974987D01*
X4374974D01*
X4454948Y1014974D02*
Y961658D01*
X4481606Y935000D01*
X4508264Y961658D01*
Y1014974D01*
X1198316Y371645D02*
X1184987Y384974D01*
X1158329D01*
X1145000Y371645D01*
Y318329D01*
X1158329Y305000D01*
X1184987D01*
X1198316Y318329D01*
Y344987D01*
X1171658D01*
X1224974Y305000D02*
Y384974D01*
X1278290Y305000D01*
Y384974D01*
X1304948D02*
Y305000D01*
X1344935D01*
X1358264Y318329D01*
Y371645D01*
X1344935Y384974D01*
X1304948D01*
X1705000Y755000D02*
X1731658D01*
X1718329D01*
Y834974D01*
X1705000Y821645D01*
X6885000Y1285000D02*
Y1311658D01*
Y1298329D01*
X6805026D01*
X6818355Y1285000D01*
Y1351645D02*
X6805026Y1364974D01*
Y1391632D01*
X6818355Y1404961D01*
X6871671D01*
X6885000Y1391632D01*
Y1364974D01*
X6871671Y1351645D01*
X6818355D01*
X6885000Y1431619D02*
X6805026D01*
X6858342D02*
X6831684Y1471606D01*
X6858342Y1431619D02*
X6885000Y1471606D01*
X1348316Y134974D02*
X1295000D01*
Y94987D01*
X1321658Y108316D01*
X1334987D01*
X1348316Y94987D01*
Y68329D01*
X1334987Y55000D01*
X1308329D01*
X1295000Y68329D01*
X1374974Y134974D02*
Y81658D01*
X1401632Y55000D01*
X1428290Y81658D01*
Y134974D01*
X1534922Y55000D02*
Y134974D01*
X1561580Y108316D01*
X1588238Y134974D01*
Y55000D01*
X1628226Y108316D02*
X1654884D01*
X1668213Y94987D01*
Y55000D01*
X1628226D01*
X1614896Y68329D01*
X1628226Y81658D01*
X1668213D01*
X1694871Y108316D02*
X1748187Y55000D01*
X1721529Y81658D01*
X1748187Y108316D01*
X1694871Y55000D01*
X2345491Y3842111D02*
X2398807D01*
X2372149D01*
Y3762136D01*
X2425465D02*
Y3842111D01*
X2465452D01*
X2478781Y3828782D01*
Y3802124D01*
X2465452Y3788795D01*
X2425465D01*
X2505439Y3828782D02*
X2518768Y3842111D01*
X2545426D01*
X2558755Y3828782D01*
Y3815453D01*
X2545426Y3802124D01*
X2558755Y3788795D01*
Y3775466D01*
X2545426Y3762136D01*
X2518768D01*
X2505439Y3775466D01*
Y3788795D01*
X2518768Y3802124D01*
X2505439Y3815453D01*
Y3828782D01*
X2518768Y3802124D02*
X2545426D01*
X2943355Y4119987D02*
Y4053342D01*
X2956684Y4040013D01*
X2983342D01*
X2996671Y4053342D01*
Y4119987D01*
X3076645D02*
X3023329D01*
Y4080000D01*
X3049987Y4093329D01*
X3063316D01*
X3076645Y4080000D01*
Y4053342D01*
X3063316Y4040013D01*
X3036658D01*
X3023329Y4053342D01*
X6520032Y2499987D02*
Y2433342D01*
X6533361Y2420013D01*
X6560019D01*
X6573348Y2433342D01*
Y2499987D01*
X6600006Y2420013D02*
X6626664D01*
X6613336D01*
Y2499987D01*
X6600006Y2486658D01*
X6719968Y2499987D02*
X6693310Y2486658D01*
X6666652Y2460000D01*
Y2433342D01*
X6679981Y2420013D01*
X6706639D01*
X6719968Y2433342D01*
Y2446671D01*
X6706639Y2460000D01*
X6666652D01*
X3706697Y1959987D02*
Y1893342D01*
X3720026Y1880013D01*
X3746684D01*
X3760013Y1893342D01*
Y1959987D01*
X3839987Y1880013D02*
X3786671D01*
X3839987Y1933329D01*
Y1946658D01*
X3826658Y1959987D01*
X3800000D01*
X3786671Y1946658D01*
X3866645Y1880013D02*
X3893303D01*
X3879974D01*
Y1959987D01*
X3866645Y1946658D01*
X2203355Y4010013D02*
Y4089987D01*
X2243342D01*
X2256671Y4076658D01*
Y4050000D01*
X2243342Y4036671D01*
X2203355D01*
X2336645Y4089987D02*
X2309987Y4076658D01*
X2283329Y4050000D01*
Y4023342D01*
X2296658Y4010013D01*
X2323316D01*
X2336645Y4023342D01*
Y4036671D01*
X2323316Y4050000D01*
X2283329D01*
X4063368Y2749987D02*
X4116684D01*
X4090026D01*
Y2670013D01*
X4143342D02*
Y2749987D01*
X4183329D01*
X4196658Y2736658D01*
Y2710000D01*
X4183329Y2696671D01*
X4143342D01*
X4223316Y2749987D02*
X4276632D01*
Y2736658D01*
X4223316Y2683342D01*
Y2670013D01*
X3523368Y3789987D02*
X3576684D01*
X3550026D01*
Y3710013D01*
X3603342D02*
Y3789987D01*
X3643329D01*
X3656658Y3776658D01*
Y3750000D01*
X3643329Y3736671D01*
X3603342D01*
X3736632Y3789987D02*
X3709974Y3776658D01*
X3683316Y3750000D01*
Y3723342D01*
X3696645Y3710013D01*
X3723303D01*
X3736632Y3723342D01*
Y3736671D01*
X3723303Y3750000D01*
X3683316D01*
X2753355Y2749987D02*
Y2683342D01*
X2766684Y2670013D01*
X2793342D01*
X2806671Y2683342D01*
Y2749987D01*
X2833329D02*
X2886645D01*
Y2736658D01*
X2833329Y2683342D01*
Y2670013D01*
X4333355Y3099987D02*
Y3033342D01*
X4346684Y3020013D01*
X4373342D01*
X4386671Y3033342D01*
Y3099987D01*
X4413329Y3033342D02*
X4426658Y3020013D01*
X4453316D01*
X4466645Y3033342D01*
Y3086658D01*
X4453316Y3099987D01*
X4426658D01*
X4413329Y3086658D01*
Y3073329D01*
X4426658Y3060000D01*
X4466645D01*
X4063355Y3799987D02*
Y3733342D01*
X4076684Y3720013D01*
X4103342D01*
X4116671Y3733342D01*
Y3799987D01*
X4143329Y3786658D02*
X4156658Y3799987D01*
X4183316D01*
X4196645Y3786658D01*
Y3773329D01*
X4183316Y3760000D01*
X4196645Y3746671D01*
Y3733342D01*
X4183316Y3720013D01*
X4156658D01*
X4143329Y3733342D01*
Y3746671D01*
X4156658Y3760000D01*
X4143329Y3773329D01*
Y3786658D01*
X4156658Y3760000D02*
X4183316D01*
X4123355Y4439987D02*
Y4373342D01*
X4136684Y4360013D01*
X4163342D01*
X4176671Y4373342D01*
Y4439987D01*
X4256645D02*
X4229987Y4426658D01*
X4203329Y4400000D01*
Y4373342D01*
X4216658Y4360013D01*
X4243316D01*
X4256645Y4373342D01*
Y4386671D01*
X4243316Y4400000D01*
X4203329D01*
X5063368Y2719987D02*
X5116684D01*
X5090026D01*
Y2640013D01*
X5143342D02*
Y2719987D01*
X5183329D01*
X5196658Y2706658D01*
Y2680000D01*
X5183329Y2666671D01*
X5143342D01*
X5276632Y2719987D02*
X5223316D01*
Y2680000D01*
X5249974Y2693329D01*
X5263303D01*
X5276632Y2680000D01*
Y2653342D01*
X5263303Y2640013D01*
X5236645D01*
X5223316Y2653342D01*
X8363361Y2660013D02*
Y2739987D01*
X8403349D01*
X8416678Y2726658D01*
Y2700000D01*
X8403349Y2686671D01*
X8363361D01*
X8443336Y2660013D02*
X8469994D01*
X8456665D01*
Y2739987D01*
X8443336Y2726658D01*
X8509981Y2660013D02*
X8536639D01*
X8523310D01*
Y2739987D01*
X8509981Y2726658D01*
X7930032Y2720013D02*
Y2799987D01*
X7970019D01*
X7983348Y2786658D01*
Y2760000D01*
X7970019Y2746671D01*
X7930032D01*
X8010006Y2720013D02*
X8036664D01*
X8023335D01*
Y2799987D01*
X8010006Y2786658D01*
X8076652D02*
X8089981Y2799987D01*
X8116639D01*
X8129968Y2786658D01*
Y2733342D01*
X8116639Y2720013D01*
X8089981D01*
X8076652Y2733342D01*
Y2786658D01*
X1643355Y1050013D02*
Y1129987D01*
X1683342D01*
X1696671Y1116658D01*
Y1090000D01*
X1683342Y1076671D01*
X1643355D01*
X1776645Y1050013D02*
X1723329D01*
X1776645Y1103329D01*
Y1116658D01*
X1763316Y1129987D01*
X1736658D01*
X1723329Y1116658D01*
X1750000Y1019987D02*
X1723342D01*
X1736671D01*
Y953342D01*
X1723342Y940013D01*
X1710013D01*
X1696684Y953342D01*
X1776658Y940013D02*
X1803316D01*
X1789987D01*
Y1019987D01*
X1776658Y1006658D01*
X2170032Y2529987D02*
Y2463342D01*
X2183361Y2450013D01*
X2210019D01*
X2223348Y2463342D01*
Y2529987D01*
X2250006Y2450013D02*
X2276664D01*
X2263336D01*
Y2529987D01*
X2250006Y2516658D01*
X2316652D02*
X2329981Y2529987D01*
X2356639D01*
X2369968Y2516658D01*
Y2503329D01*
X2356639Y2490000D01*
X2369968Y2476671D01*
Y2463342D01*
X2356639Y2450013D01*
X2329981D01*
X2316652Y2463342D01*
Y2476671D01*
X2329981Y2490000D01*
X2316652Y2503329D01*
Y2516658D01*
X2329981Y2490000D02*
X2356639D01*
X5133368Y989987D02*
Y923342D01*
X5146697Y910013D01*
X5173355D01*
X5186684Y923342D01*
Y989987D01*
X5266658Y910013D02*
X5213342D01*
X5266658Y963329D01*
Y976658D01*
X5253329Y989987D01*
X5226671D01*
X5213342Y976658D01*
X5293316D02*
X5306645Y989987D01*
X5333303D01*
X5346632Y976658D01*
Y923342D01*
X5333303Y910013D01*
X5306645D01*
X5293316Y923342D01*
Y976658D01*
X5040032Y2379987D02*
Y2313342D01*
X5053361Y2300013D01*
X5080019D01*
X5093348Y2313342D01*
Y2379987D01*
X5120006Y2300013D02*
X5146664D01*
X5133335D01*
Y2379987D01*
X5120006Y2366658D01*
X5186652Y2313342D02*
X5199981Y2300013D01*
X5226639D01*
X5239968Y2313342D01*
Y2366658D01*
X5226639Y2379987D01*
X5199981D01*
X5186652Y2366658D01*
Y2353329D01*
X5199981Y2340000D01*
X5239968D01*
X3010032Y2499987D02*
Y2433342D01*
X3023361Y2420013D01*
X3050019D01*
X3063348Y2433342D01*
Y2499987D01*
X3090006Y2420013D02*
X3116664D01*
X3103335D01*
Y2499987D01*
X3090006Y2486658D01*
X3156652Y2499987D02*
X3209968D01*
Y2486658D01*
X3156652Y2433342D01*
Y2420013D01*
X2953355Y610013D02*
Y689987D01*
X2993342D01*
X3006671Y676658D01*
Y650000D01*
X2993342Y636671D01*
X2953355D01*
X3033329Y623342D02*
X3046658Y610013D01*
X3073316D01*
X3086645Y623342D01*
Y676658D01*
X3073316Y689987D01*
X3046658D01*
X3033329Y676658D01*
Y663329D01*
X3046658Y650000D01*
X3086645D01*
X1963355Y4770013D02*
Y4849987D01*
X2003342D01*
X2016671Y4836658D01*
Y4810000D01*
X2003342Y4796671D01*
X1963355D01*
X2043329Y4836658D02*
X2056658Y4849987D01*
X2083316D01*
X2096645Y4836658D01*
Y4823329D01*
X2083316Y4810000D01*
X2096645Y4796671D01*
Y4783342D01*
X2083316Y4770013D01*
X2056658D01*
X2043329Y4783342D01*
Y4796671D01*
X2056658Y4810000D01*
X2043329Y4823329D01*
Y4836658D01*
X2056658Y4810000D02*
X2083316D01*
X6243355Y3509987D02*
Y3443342D01*
X6256684Y3430013D01*
X6283342D01*
X6296671Y3443342D01*
Y3509987D01*
X6323329Y3496658D02*
X6336658Y3509987D01*
X6363316D01*
X6376645Y3496658D01*
Y3483329D01*
X6363316Y3470000D01*
X6349987D01*
X6363316D01*
X6376645Y3456671D01*
Y3443342D01*
X6363316Y3430013D01*
X6336658D01*
X6323329Y3443342D01*
X3723368Y1439987D02*
Y1373342D01*
X3736697Y1360013D01*
X3763355D01*
X3776684Y1373342D01*
Y1439987D01*
X3856658Y1360013D02*
X3803342D01*
X3856658Y1413329D01*
Y1426658D01*
X3843329Y1439987D01*
X3816671D01*
X3803342Y1426658D01*
X3936632Y1360013D02*
X3883316D01*
X3936632Y1413329D01*
Y1426658D01*
X3923303Y1439987D01*
X3896645D01*
X3883316Y1426658D01*
X7570032Y3809987D02*
Y3743342D01*
X7583361Y3730013D01*
X7610019D01*
X7623348Y3743342D01*
Y3809987D01*
X7650006Y3730013D02*
X7676664D01*
X7663335D01*
Y3809987D01*
X7650006Y3796658D01*
X7756639Y3730013D02*
Y3809987D01*
X7716652Y3770000D01*
X7769968D01*
X7280032Y3489987D02*
Y3423342D01*
X7293361Y3410013D01*
X7320019D01*
X7333348Y3423342D01*
Y3489987D01*
X7360006Y3410013D02*
X7386664D01*
X7373336D01*
Y3489987D01*
X7360006Y3476658D01*
X7426652D02*
X7439981Y3489987D01*
X7466639D01*
X7479968Y3476658D01*
Y3463329D01*
X7466639Y3450000D01*
X7453310D01*
X7466639D01*
X7479968Y3436671D01*
Y3423342D01*
X7466639Y3410013D01*
X7439981D01*
X7426652Y3423342D01*
X7733368Y1259987D02*
Y1193342D01*
X7746697Y1180013D01*
X7773355D01*
X7786684Y1193342D01*
Y1259987D01*
X7866658Y1180013D02*
X7813342D01*
X7866658Y1233329D01*
Y1246658D01*
X7853329Y1259987D01*
X7826671D01*
X7813342Y1246658D01*
X7893316Y1259987D02*
X7946632D01*
Y1246658D01*
X7893316Y1193342D01*
Y1180013D01*
X7743368Y1989987D02*
Y1923342D01*
X7756697Y1910013D01*
X7783355D01*
X7796684Y1923342D01*
Y1989987D01*
X7876658Y1910013D02*
X7823342D01*
X7876658Y1963329D01*
Y1976658D01*
X7863329Y1989987D01*
X7836671D01*
X7823342Y1976658D01*
X7903316Y1923342D02*
X7916645Y1910013D01*
X7943303D01*
X7956632Y1923342D01*
Y1976658D01*
X7943303Y1989987D01*
X7916645D01*
X7903316Y1976658D01*
Y1963329D01*
X7916645Y1950000D01*
X7956632D01*
X7703368Y1609987D02*
Y1543342D01*
X7716697Y1530013D01*
X7743355D01*
X7756684Y1543342D01*
Y1609987D01*
X7836658Y1530013D02*
X7783342D01*
X7836658Y1583329D01*
Y1596658D01*
X7823329Y1609987D01*
X7796671D01*
X7783342Y1596658D01*
X7903303Y1530013D02*
Y1609987D01*
X7863316Y1570000D01*
X7916632D01*
X7660032Y3529987D02*
Y3463342D01*
X7673361Y3450013D01*
X7700019D01*
X7713348Y3463342D01*
Y3529987D01*
X7740006Y3450013D02*
X7766664D01*
X7753336D01*
Y3529987D01*
X7740006Y3516658D01*
X7859968Y3529987D02*
X7806652D01*
Y3490000D01*
X7833310Y3503329D01*
X7846639D01*
X7859968Y3490000D01*
Y3463342D01*
X7846639Y3450013D01*
X7819981D01*
X7806652Y3463342D01*
X7753368Y2349987D02*
Y2283342D01*
X7766697Y2270013D01*
X7793355D01*
X7806684Y2283342D01*
Y2349987D01*
X7886658Y2270013D02*
X7833342D01*
X7886658Y2323329D01*
Y2336658D01*
X7873329Y2349987D01*
X7846671D01*
X7833342Y2336658D01*
X7913316D02*
X7926645Y2349987D01*
X7953303D01*
X7966632Y2336658D01*
Y2323329D01*
X7953303Y2310000D01*
X7966632Y2296671D01*
Y2283342D01*
X7953303Y2270013D01*
X7926645D01*
X7913316Y2283342D01*
Y2296671D01*
X7926645Y2310000D01*
X7913316Y2323329D01*
Y2336658D01*
X7926645Y2310000D02*
X7953303D01*
X7753368Y2469987D02*
Y2403342D01*
X7766697Y2390013D01*
X7793355D01*
X7806684Y2403342D01*
Y2469987D01*
X7886658Y2390013D02*
X7833342D01*
X7886658Y2443329D01*
Y2456658D01*
X7873329Y2469987D01*
X7846671D01*
X7833342Y2456658D01*
X7966632Y2469987D02*
X7939974Y2456658D01*
X7913316Y2430000D01*
Y2403342D01*
X7926645Y2390013D01*
X7953303D01*
X7966632Y2403342D01*
Y2416671D01*
X7953303Y2430000D01*
X7913316D01*
X5293355Y3219987D02*
Y3153342D01*
X5306684Y3140013D01*
X5333342D01*
X5346671Y3153342D01*
Y3219987D01*
X5413316Y3140013D02*
Y3219987D01*
X5373329Y3180000D01*
X5426645D01*
X5516684Y4149987D02*
Y4083342D01*
X5530013Y4070013D01*
X5556671D01*
X5570000Y4083342D01*
Y4149987D01*
X5596658Y4070013D02*
X5623316D01*
X5609987D01*
Y4149987D01*
X5596658Y4136658D01*
X4683355Y4099987D02*
Y4033342D01*
X4696684Y4020013D01*
X4723342D01*
X4736671Y4033342D01*
Y4099987D01*
X4816645Y4020013D02*
X4763329D01*
X4816645Y4073329D01*
Y4086658D01*
X4803316Y4099987D01*
X4776658D01*
X4763329Y4086658D01*
X5663368Y3429987D02*
X5716684D01*
X5690026D01*
Y3350013D01*
X5743342D02*
Y3429987D01*
X5783329D01*
X5796658Y3416658D01*
Y3390000D01*
X5783329Y3376671D01*
X5743342D01*
X5863303Y3350013D02*
Y3429987D01*
X5823316Y3390000D01*
X5876632D01*
X5983368Y4389987D02*
X6036684D01*
X6010026D01*
Y4310013D01*
X6063342D02*
Y4389987D01*
X6103329D01*
X6116658Y4376658D01*
Y4350000D01*
X6103329Y4336671D01*
X6063342D01*
X6143316Y4376658D02*
X6156645Y4389987D01*
X6183303D01*
X6196632Y4376658D01*
Y4363329D01*
X6183303Y4350000D01*
X6169974D01*
X6183303D01*
X6196632Y4336671D01*
Y4323342D01*
X6183303Y4310013D01*
X6156645D01*
X6143316Y4323342D01*
X5796697Y3609987D02*
X5850013D01*
X5823355D01*
Y3530013D01*
X5876671D02*
Y3609987D01*
X5916658D01*
X5929987Y3596658D01*
Y3570000D01*
X5916658Y3556671D01*
X5876671D01*
X5956645Y3530013D02*
X5983303D01*
X5969974D01*
Y3609987D01*
X5956645Y3596658D01*
X5523368Y4429987D02*
X5576684D01*
X5550026D01*
Y4350013D01*
X5603342D02*
Y4429987D01*
X5643329D01*
X5656658Y4416658D01*
Y4390000D01*
X5643329Y4376671D01*
X5603342D01*
X5736632Y4350013D02*
X5683316D01*
X5736632Y4403329D01*
Y4416658D01*
X5723303Y4429987D01*
X5696645D01*
X5683316Y4416658D01*
D126*
X7145000Y4715000D02*
X7215000D01*
Y4690000D02*
Y4715000D01*
Y4405000D02*
Y4430000D01*
X7162500Y4405000D02*
X7215000D01*
X6955000Y4715000D02*
X7025000D01*
X6955000Y4690000D02*
Y4715000D01*
Y4405000D02*
X7007500D01*
X6955000D02*
Y4430000D01*
X2561356Y4033889D02*
X2561543D01*
X3518235Y2769233D02*
Y2769420D01*
X3931766Y3700580D02*
Y3700767D01*
X5438234Y2769233D02*
Y2769420D01*
X5508235Y3389233D02*
Y3389420D01*
X5871765Y4220580D02*
Y4220767D01*
X5501765Y4220580D02*
Y4220767D01*
X5861766Y3650580D02*
Y3650767D01*
X2250000Y1150000D02*
X2259423D01*
X2199772Y1149878D02*
X2199894Y1150000D01*
X2210000D01*
Y1110000D02*
Y1190000D01*
Y1150000D02*
X2250000Y1190000D01*
X2210000Y1150000D02*
X2250000Y1110000D01*
Y1190000D01*
X2210000Y1150000D02*
X2250000D01*
X2170577Y1640000D02*
X2180000D01*
X2230106D02*
X2230228Y1640122D01*
X2220000Y1640000D02*
X2230106D01*
X2220000Y1600000D02*
Y1680000D01*
X2180000Y1600000D02*
X2220000Y1640000D01*
X2180000Y1680000D02*
X2220000Y1640000D01*
X2180000Y1600000D02*
Y1680000D01*
Y1640000D02*
X2220000D01*
X5660000Y1110577D02*
Y1120000D01*
X5659878Y1170228D02*
X5660000Y1170106D01*
Y1160000D02*
Y1170106D01*
X5620000Y1160000D02*
X5700000D01*
X5660000D02*
X5700000Y1120000D01*
X5620000D02*
X5660000Y1160000D01*
X5620000Y1120000D02*
X5700000D01*
X5660000D02*
Y1160000D01*
X5030000Y1530000D02*
Y1539423D01*
Y1479894D02*
X5030122Y1479772D01*
X5030000Y1479894D02*
Y1490000D01*
X4990000D02*
X5070000D01*
X4990000Y1530000D02*
X5030000Y1490000D01*
X5070000Y1530000D01*
X4990000D02*
X5070000D01*
X5030000Y1490000D02*
Y1530000D01*
X2250000Y1010000D02*
X2259423D01*
X2199772Y1009878D02*
X2199894Y1010000D01*
X2210000D01*
Y970000D02*
Y1050000D01*
Y1010000D02*
X2250000Y1050000D01*
X2210000Y1010000D02*
X2250000Y970000D01*
Y1050000D01*
X2210000Y1010000D02*
X2250000D01*
X2630000Y2080577D02*
Y2090000D01*
X2629878Y2140228D02*
X2630000Y2140106D01*
Y2130000D02*
Y2140106D01*
X2590000Y2130000D02*
X2670000D01*
X2630000D02*
X2670000Y2090000D01*
X2590000D02*
X2630000Y2130000D01*
X2590000Y2090000D02*
X2670000D01*
X2630000D02*
Y2130000D01*
X7290000Y4724906D02*
Y4730000D01*
Y4750000D02*
Y4755289D01*
X7024906Y4240000D02*
X7030000D01*
X7050000D02*
X7055289D01*
X6780000Y3470000D02*
X6785094D01*
X6754711D02*
X6760000D01*
X7120000Y2334906D02*
Y2340000D01*
Y2360000D02*
Y2365289D01*
X7150000Y1964906D02*
Y1970000D01*
Y1990000D02*
Y1995289D01*
X7120000Y2724906D02*
Y2730000D01*
Y2750000D02*
Y2755289D01*
X7150000Y1594906D02*
Y1600000D01*
Y1620000D02*
Y1625289D01*
X7160000Y1224906D02*
Y1230000D01*
Y1250000D02*
Y1255289D01*
X8224906Y2780000D02*
X8230000D01*
X8250000D02*
X8255289D01*
X8250000Y2680000D02*
X8255094D01*
X8224711D02*
X8230000D01*
X7890000Y1014906D02*
Y1020000D01*
Y1040000D02*
Y1045289D01*
X7920000Y4374906D02*
Y4380000D01*
Y4400000D02*
Y4405289D01*
X3894906Y920000D02*
X3900000D01*
X3920000D02*
X3925289D01*
X3570000Y1660000D02*
X3575094D01*
X3544711D02*
X3550000D01*
X3560000Y1790000D02*
X3565094D01*
X3534711D02*
X3540000D01*
X3840000Y1254906D02*
Y1260000D01*
Y1280000D02*
Y1285289D01*
X3220000Y1360000D02*
Y1365094D01*
Y1334711D02*
Y1340000D01*
X4060000Y1264906D02*
Y1270000D01*
Y1290000D02*
Y1295289D01*
X3254906Y1090000D02*
X3260000D01*
X3280000D02*
X3285289D01*
X3280000Y1190000D02*
X3285094D01*
X3254711D02*
X3260000D01*
X3790000Y2380000D02*
X3795094D01*
X3764711D02*
X3770000D01*
X5024906Y2230000D02*
X5030000D01*
X5050000D02*
X5055289D01*
X5540000Y1130000D02*
Y1135094D01*
Y1104711D02*
Y1110000D01*
X5550000Y1974906D02*
Y1980000D01*
Y2000000D02*
Y2005289D01*
X4880000Y1964906D02*
Y1970000D01*
Y1990000D02*
Y1995289D01*
X5454906Y2210000D02*
X5460000D01*
X5480000D02*
X5485289D01*
X4920000Y1494906D02*
Y1500000D01*
Y1520000D02*
Y1525289D01*
X1880000Y1350000D02*
X1885094D01*
X1854711D02*
X1860000D01*
X2630000Y2314906D02*
Y2320000D01*
Y2340000D02*
Y2345289D01*
X3404906Y2410000D02*
X3410000D01*
X3430000D02*
X3435289D01*
X6724906Y2150000D02*
X6730000D01*
X6750000D02*
X6755289D01*
X6724906Y2250000D02*
X6730000D01*
X6750000D02*
X6755289D01*
X6924906D02*
X6930000D01*
X6950000D02*
X6955289D01*
X7780000Y3314906D02*
Y3320000D01*
Y3340000D02*
Y3345289D01*
X7820000Y3790000D02*
Y3795094D01*
Y3764711D02*
Y3770000D01*
X6810000Y3804906D02*
Y3810000D01*
Y3830000D02*
Y3835288D01*
X6320000Y2220000D02*
Y2225094D01*
Y2194711D02*
Y2200000D01*
Y1410000D02*
Y1415094D01*
Y1384711D02*
Y1390000D01*
X3660000Y734906D02*
Y740000D01*
Y760000D02*
Y765289D01*
X4610000Y734906D02*
Y740000D01*
Y760000D02*
Y765289D01*
X6520000Y1384906D02*
Y1390000D01*
Y1410000D02*
Y1415289D01*
X6880000Y690000D02*
X6885094D01*
X6854711D02*
X6860000D01*
X6850000Y2050000D02*
X6855094D01*
X6824711D02*
X6830000D01*
X6520000Y2194906D02*
Y2200000D01*
Y2220000D02*
Y2225289D01*
X3014906Y3790000D02*
X3020000D01*
X3040000D02*
X3045289D01*
X2840000D02*
X2845094D01*
X2814711D02*
X2820000D01*
X3460000Y3330000D02*
X3465094D01*
X3434711D02*
X3440000D01*
X3460000Y3230000D02*
X3465094D01*
X3434711D02*
X3440000D01*
X4354906Y3190000D02*
X4360000D01*
X4380000D02*
X4385289D01*
X4354906Y3290000D02*
X4360000D01*
X4380000D02*
X4385289D01*
X3340000Y4290000D02*
X3345094D01*
X3314711D02*
X3320000D01*
X3540000D02*
X3545093D01*
X3514711D02*
X3520000D01*
X4340000Y4730000D02*
Y4735094D01*
Y4704711D02*
Y4710000D01*
X4400000Y4270000D02*
Y4275094D01*
Y4244711D02*
Y4250000D01*
X3200000Y3050000D02*
Y3055094D01*
Y3024711D02*
Y3030000D01*
Y3224906D02*
Y3230000D01*
Y3250000D02*
Y3255289D01*
X2780000Y3060000D02*
Y3065094D01*
Y3034711D02*
Y3040000D01*
Y3234906D02*
Y3240000D01*
Y3260000D02*
Y3265289D01*
X3350000Y3490000D02*
Y3495094D01*
Y3464711D02*
Y3470000D01*
X2840000Y3430000D02*
X2845094D01*
X2814711D02*
X2820000D01*
X4274906Y3570000D02*
X4280000D01*
X4300000D02*
X4305289D01*
X4430000Y3494906D02*
Y3500000D01*
Y3520000D02*
Y3525289D01*
X3460000Y2960000D02*
X3465094D01*
X3434711D02*
X3440000D01*
X4274906Y3770000D02*
X4280000D01*
X4300000D02*
X4305289D01*
X4274906Y3670000D02*
X4280000D01*
X4300000D02*
X4305289D01*
X3384906Y3630000D02*
X3390000D01*
X3410000D02*
X3415289D01*
X2780000Y2850000D02*
Y2855094D01*
Y2824711D02*
Y2830000D01*
X2840000Y3530000D02*
X2845094D01*
X2814711D02*
X2820000D01*
X3580000Y3890000D02*
Y3895094D01*
Y3864711D02*
Y3870000D01*
X2780000Y4244906D02*
Y4250000D01*
Y4270000D02*
Y4275289D01*
X3014906Y4210000D02*
X3020000D01*
X3040000D02*
X3045289D01*
X3370000Y3844906D02*
Y3850000D01*
Y3870000D02*
Y3875289D01*
X4354906Y2830000D02*
X4360000D01*
X4380000D02*
X4385289D01*
X5924906Y2730000D02*
X5930000D01*
X5950000D02*
X5955289D01*
X5924906Y2830000D02*
X5930000D01*
X5950000D02*
X5955289D01*
X4950000Y2814906D02*
Y2820000D01*
Y2840000D02*
Y2845289D01*
X5050000Y2814906D02*
Y2820000D01*
Y2840000D02*
Y2845289D01*
X6154906Y3090000D02*
X6160000D01*
X6180000D02*
X6185289D01*
X6154906Y3190000D02*
X6160000D01*
X6180000D02*
X6185289D01*
X6380000Y3090000D02*
X6385094D01*
X6354711D02*
X6360000D01*
X6380000Y3190000D02*
X6385094D01*
X6354711D02*
X6360000D01*
X5310000Y3780000D02*
Y3785094D01*
Y3754711D02*
Y3760000D01*
X5410000Y3780000D02*
Y3785094D01*
Y3754711D02*
Y3760000D01*
X5030000Y3670000D02*
Y3675094D01*
Y3644711D02*
Y3650000D01*
X5034906Y3510000D02*
X5040000D01*
X5060000D02*
X5065289D01*
X5924906Y3070000D02*
X5930000D01*
X5950000D02*
X5955289D01*
X6270000Y3860000D02*
X6275094D01*
X6244711D02*
X6250000D01*
X5220000Y3670000D02*
Y3675093D01*
Y3644711D02*
Y3650000D01*
X5130000Y3644906D02*
Y3650000D01*
Y3670000D02*
Y3675289D01*
X5950000Y4000000D02*
Y4005094D01*
Y3974711D02*
Y3980000D01*
X4940000Y3264906D02*
Y3270000D01*
Y3290000D02*
Y3295289D01*
X5250000Y4010000D02*
Y4015094D01*
Y3984711D02*
Y3990000D01*
D127*
X2910000Y2565000D02*
X3105000D01*
X3495000D02*
X3700000D01*
X4090000D02*
X4285000D01*
X4550000Y2830000D02*
Y3025000D01*
Y3415000D02*
Y3620000D01*
Y4010000D02*
Y4205000D01*
X3495000Y4470000D02*
X3700000D01*
X2910000D02*
X3105000D01*
X2645000Y4010000D02*
Y4205000D01*
Y3415000D02*
Y3620000D01*
Y2830000D02*
Y3025000D01*
X4090000Y4470000D02*
X4285000D01*
X4940000Y2565000D02*
X5135000D01*
X5525000D02*
X5730000D01*
X6120000D02*
X6315000D01*
X6580000Y2830000D02*
Y3025000D01*
Y3415000D02*
Y3620000D01*
Y4010000D02*
Y4205000D01*
X5525000Y4470000D02*
X5730000D01*
X4940000D02*
X5135000D01*
X4675000Y4010000D02*
Y4205000D01*
Y3415000D02*
Y3620000D01*
Y2830000D02*
Y3025000D01*
X6120000Y4470000D02*
X6315000D01*
X1520000Y4550000D02*
X1660000D01*
X1490000Y4360000D02*
Y4510000D01*
X1520000Y4320000D02*
X1660000D01*
X1520000Y4080000D02*
X1660000D01*
X1689999Y4360000D02*
Y4510000D01*
X1490000Y4125000D02*
Y4275000D01*
X1690000Y4125000D02*
Y4275000D01*
X1390000Y4125000D02*
Y4275000D01*
X1190000Y4125000D02*
Y4275000D01*
X1390000Y4360000D02*
Y4510000D01*
X1220000Y4080000D02*
X1360000D01*
X1220000Y4320000D02*
X1360000D01*
X1190000Y4360000D02*
Y4510000D01*
X1220000Y4550000D02*
X1360000D01*
X8310000Y4710000D02*
Y4843290D01*
X8376645Y4909936D01*
X8443290Y4843290D01*
Y4710000D01*
Y4809968D01*
X8310000D01*
X8305912Y753749D02*
Y553813D01*
X8405880D01*
X8439202Y587135D01*
Y620458D01*
X8405880Y653781D01*
X8305912D01*
X8405880D01*
X8439202Y687103D01*
Y720426D01*
X8405880Y753749D01*
X8305912D01*
%TF.MD5,57ad433690d21c880c257ddfae3ea018*%
M02*
