%TF.GenerationSoftware,Altium Limited,Altium Designer,21.5.1 (32)*%
G04 Layer_Color=0*
%FSLAX45Y45*%
%MOMM*%
%TF.SameCoordinates,6D93875A-9943-4EB1-8E24-321CDD5DE8D5*%
%TF.FilePolarity,Positive*%
%TF.FileFunction,Plated,1,4,PTH,Drill*%
%TF.Part,Single*%
G01*
G75*
%TA.AperFunction,ComponentDrill*%
%ADD235C,1.10000*%
%ADD236C,1.10000*%
%ADD237C,3.20000*%
%ADD238C,1.20000*%
%TA.AperFunction,ViaDrill,NotFilled*%
%ADD239C,0.25000*%
%ADD240C,0.50000*%
%ADD241C,0.70000*%
D235*
X8128000Y2476800D02*
D03*
Y2222800D02*
D03*
Y1968800D02*
D03*
Y1714800D02*
D03*
Y1460800D02*
D03*
Y1206800D02*
D03*
Y952800D02*
D03*
X8382000Y2476800D02*
D03*
Y2222800D02*
D03*
Y1968800D02*
D03*
Y1714800D02*
D03*
Y1460800D02*
D03*
Y1206800D02*
D03*
Y952800D02*
D03*
X8128000Y4508800D02*
D03*
Y4254800D02*
D03*
Y4000800D02*
D03*
Y3746800D02*
D03*
Y3492800D02*
D03*
Y3238800D02*
D03*
Y2984800D02*
D03*
X8382000Y4508800D02*
D03*
Y4254800D02*
D03*
Y4000800D02*
D03*
Y3746800D02*
D03*
Y3492800D02*
D03*
Y3238800D02*
D03*
Y2984800D02*
D03*
D236*
X7620000Y444500D02*
D03*
X7366000D02*
D03*
X7112000D02*
D03*
X6858000D02*
D03*
X6604000D02*
D03*
X6350000D02*
D03*
X6096000D02*
D03*
X5842000D02*
D03*
X5588000D02*
D03*
X5334000D02*
D03*
X5080000D02*
D03*
X4826000D02*
D03*
X4572000D02*
D03*
X4318000D02*
D03*
X4064000D02*
D03*
X3810000D02*
D03*
X3556000D02*
D03*
X3302000D02*
D03*
X3048000D02*
D03*
X2794000D02*
D03*
X2540000D02*
D03*
X2286000D02*
D03*
X2032000D02*
D03*
X7620000Y190500D02*
D03*
X7366000D02*
D03*
X7112000D02*
D03*
X6858000D02*
D03*
X6604000D02*
D03*
X6350000D02*
D03*
X6096000D02*
D03*
X5842000D02*
D03*
X5588000D02*
D03*
X5334000D02*
D03*
X5080000D02*
D03*
X4826000D02*
D03*
X4572000D02*
D03*
X4318000D02*
D03*
X4064000D02*
D03*
X3810000D02*
D03*
X3556000D02*
D03*
X3302000D02*
D03*
X3048000D02*
D03*
X2794000D02*
D03*
X2540000D02*
D03*
X2286000D02*
D03*
X2032000D02*
D03*
X7620000Y5270500D02*
D03*
X7366000D02*
D03*
X7112000D02*
D03*
X6858000D02*
D03*
X6604000D02*
D03*
X6350000D02*
D03*
X6096000D02*
D03*
X5842000D02*
D03*
X5588000D02*
D03*
X5334000D02*
D03*
X5080000D02*
D03*
X4826000D02*
D03*
X4572000D02*
D03*
X4318000D02*
D03*
X4064000D02*
D03*
X3810000D02*
D03*
X3556000D02*
D03*
X3302000D02*
D03*
X3048000D02*
D03*
X2794000D02*
D03*
X2540000D02*
D03*
X2286000D02*
D03*
X2032000D02*
D03*
X7620000Y5016500D02*
D03*
X7366000D02*
D03*
X7112000D02*
D03*
X6858000D02*
D03*
X6604000D02*
D03*
X6350000D02*
D03*
X6096000D02*
D03*
X5842000D02*
D03*
X5588000D02*
D03*
X5334000D02*
D03*
X5080000D02*
D03*
X4826000D02*
D03*
X4572000D02*
D03*
X4318000D02*
D03*
X4064000D02*
D03*
X3810000D02*
D03*
X3556000D02*
D03*
X3302000D02*
D03*
X3048000D02*
D03*
X2794000D02*
D03*
X2540000D02*
D03*
X2286000D02*
D03*
X2032000D02*
D03*
Y4512400D02*
D03*
X2286000D02*
D03*
X2032000Y4258400D02*
D03*
X2286000D02*
D03*
D237*
X8064500Y615000D02*
D03*
Y4846000D02*
D03*
X1460500Y5143500D02*
D03*
D238*
X1480000Y345000D02*
D03*
Y695000D02*
D03*
D239*
X3540000Y860000D02*
D03*
X4019958Y920049D02*
D03*
X4080000Y1070000D02*
D03*
X4540000Y1000000D02*
D03*
X4091598Y945849D02*
D03*
X4199341Y869341D02*
D03*
X3750000Y800000D02*
D03*
X4717307Y899555D02*
D03*
X4888683Y3198019D02*
D03*
X4320000Y2770000D02*
D03*
X4780000Y3010000D02*
D03*
X6830000Y2770000D02*
D03*
X1380000Y1120000D02*
D03*
X1410000Y1370000D02*
D03*
X4415000Y2755000D02*
D03*
X6100000Y2790000D02*
D03*
X7889301Y1137694D02*
D03*
X7530000Y4590000D02*
D03*
X7248451Y4210232D02*
D03*
X3542445Y3860000D02*
D03*
X4177819Y3512330D02*
D03*
X4250504Y3461387D02*
D03*
X4450659Y3840659D02*
D03*
X4440000Y3970000D02*
D03*
X4460000Y4060000D02*
D03*
X4430000Y3750000D02*
D03*
X4959598Y3503168D02*
D03*
X4760167Y3578274D02*
D03*
X4857748Y3432721D02*
D03*
X4940000Y3400000D02*
D03*
X4936183Y3703817D02*
D03*
X7528431Y791568D02*
D03*
X7060000Y1560000D02*
D03*
Y1930000D02*
D03*
X4253595Y2895653D02*
D03*
X4090098Y2928585D02*
D03*
X2750000Y2460000D02*
D03*
X3438702Y1660022D02*
D03*
X4300000Y3040000D02*
D03*
X5070000Y3180000D02*
D03*
X6530000Y2310000D02*
D03*
X6320000Y2100000D02*
D03*
X3021664Y3349445D02*
D03*
X4200000Y4120000D02*
D03*
X7582500Y3638431D02*
D03*
Y3560000D02*
D03*
X7640000Y3100000D02*
D03*
X7194602Y1857811D02*
D03*
X7130000Y1800000D02*
D03*
X7180000Y1740000D02*
D03*
X5340000Y860000D02*
D03*
X4960000Y880000D02*
D03*
X4060000Y1630000D02*
D03*
X2295020Y2747532D02*
D03*
X2400000Y2680000D02*
D03*
X2390000Y2780000D02*
D03*
X3470000Y3400000D02*
D03*
X3110000Y4610000D02*
D03*
X5680000D02*
D03*
X5900000Y4160000D02*
D03*
X2160000Y1460000D02*
D03*
X2800000Y1480000D02*
D03*
X7200000Y4710000D02*
D03*
Y4400000D02*
D03*
X6992073Y4417746D02*
D03*
X7160000Y4210000D02*
D03*
X6930000Y4190000D02*
D03*
X7290000Y4570000D02*
D03*
Y4645000D02*
D03*
X7180000Y4830000D02*
D03*
X7680000Y2462500D02*
D03*
X6824877Y4085405D02*
D03*
X7310000Y3190000D02*
D03*
X7664046Y3857478D02*
D03*
X7423248Y3700072D02*
D03*
X7220000Y3830000D02*
D03*
X7368934Y3955000D02*
D03*
X7321460Y3760000D02*
D03*
X7409294Y3789233D02*
D03*
X7090000Y3080000D02*
D03*
X7320000Y3341432D02*
D03*
X6839381Y3418482D02*
D03*
X6770000Y3390000D02*
D03*
X6810000Y3250000D02*
D03*
X7300000Y3520000D02*
D03*
X7329038Y3599038D02*
D03*
X6920000Y3490000D02*
D03*
X7393527Y4071463D02*
D03*
X6893029Y3883548D02*
D03*
X6795832Y3565790D02*
D03*
X6810000Y3690000D02*
D03*
X7309341Y4081367D02*
D03*
X6710000Y4580000D02*
D03*
X6628683Y4581317D02*
D03*
X6792892Y4581097D02*
D03*
X4230000Y4602500D02*
D03*
X6110659Y4600659D02*
D03*
X5470000Y4600000D02*
D03*
X4000000Y4602500D02*
D03*
X6540012D02*
D03*
X7738396Y3847623D02*
D03*
X5594489Y3695511D02*
D03*
X5534110Y3623215D02*
D03*
X5620000Y3770000D02*
D03*
X5380000Y3100000D02*
D03*
X8224500Y755000D02*
D03*
Y475000D02*
D03*
X7904500D02*
D03*
Y755000D02*
D03*
X8224500Y4986000D02*
D03*
Y4706000D02*
D03*
X7904500D02*
D03*
Y4986000D02*
D03*
X7458486Y4529803D02*
D03*
X7800000Y4700000D02*
D03*
X7010000Y4750000D02*
D03*
X7152459Y3023777D02*
D03*
X7190000Y2850000D02*
D03*
X7730000Y4490000D02*
D03*
X8070000Y260000D02*
D03*
X6120000Y1960000D02*
D03*
X6130000Y2065000D02*
D03*
X6030000Y1040000D02*
D03*
X5900000Y1000000D02*
D03*
X5902500Y1500000D02*
D03*
Y1770000D02*
D03*
Y1681306D02*
D03*
X6000000Y960000D02*
D03*
X6140000Y860000D02*
D03*
X6070000Y790000D02*
D03*
X6770000Y1950000D02*
D03*
Y1850000D02*
D03*
Y1750000D02*
D03*
Y1650000D02*
D03*
Y1550000D02*
D03*
Y790000D02*
D03*
Y910000D02*
D03*
Y990000D02*
D03*
Y1090000D02*
D03*
Y1190000D02*
D03*
X6919342Y1500658D02*
D03*
X6730000Y610000D02*
D03*
X6919704Y1245676D02*
D03*
X6515758Y1253207D02*
D03*
X6530000Y2420000D02*
D03*
X2690072Y3495000D02*
D03*
X2772500Y3740000D02*
D03*
X2450000Y740000D02*
D03*
X1810000Y820000D02*
D03*
X2310000Y1075000D02*
D03*
X2597085Y810000D02*
D03*
X2710000Y950000D02*
D03*
X4520000Y620000D02*
D03*
X3302852Y2413636D02*
D03*
X3297210Y2135216D02*
D03*
X2540000Y2100000D02*
D03*
X2660000Y1830000D02*
D03*
X2750000Y2140000D02*
D03*
X2240000Y1898943D02*
D03*
X2130000Y1790000D02*
D03*
X1970000Y1600000D02*
D03*
X2670000Y620000D02*
D03*
X1760000Y1200000D02*
D03*
X1400000Y920000D02*
D03*
X1820000Y1280000D02*
D03*
X1390000Y1640000D02*
D03*
X2809904Y869806D02*
D03*
X1983392Y1222959D02*
D03*
X2440000Y620000D02*
D03*
X1420000Y1840000D02*
D03*
X1490000Y1410000D02*
D03*
X3172500Y3435000D02*
D03*
X7725255Y2269990D02*
D03*
X7728683Y2190000D02*
D03*
X7650000Y1940000D02*
D03*
X3550000Y2230000D02*
D03*
X7210000Y1120000D02*
D03*
X7189886Y1371546D02*
D03*
X7147613Y1433498D02*
D03*
X3410000Y780000D02*
D03*
X7754146Y1387500D02*
D03*
X7840000Y1510000D02*
D03*
X3060000Y4530000D02*
D03*
X7714497Y4115503D02*
D03*
X8007127Y1835937D02*
D03*
X3680000Y320000D02*
D03*
X4190000D02*
D03*
X6730000D02*
D03*
X6220000D02*
D03*
X4950000D02*
D03*
X4820000Y900000D02*
D03*
X5220000Y700000D02*
D03*
X5450000Y860000D02*
D03*
X5540000D02*
D03*
X5630000D02*
D03*
X5740000D02*
D03*
X5833349Y856652D02*
D03*
X2430000Y1760000D02*
D03*
X5700000Y1760000D02*
D03*
X4310625Y2310000D02*
D03*
X5312500Y2500000D02*
D03*
X5110000Y2130000D02*
D03*
X5409314Y2996103D02*
D03*
X2590000Y4620000D02*
D03*
X3560000Y2770000D02*
D03*
X3449341Y3689341D02*
D03*
X3720000Y3156916D02*
D03*
X7920000Y4500000D02*
D03*
X7590000Y4230000D02*
D03*
X7869341Y3630658D02*
D03*
X6420000Y2780000D02*
D03*
X6790000Y2310000D02*
D03*
X6125423Y2350275D02*
D03*
X5610000Y2040000D02*
D03*
X4731710Y2143472D02*
D03*
X3070000Y2390000D02*
D03*
X2769342Y2040663D02*
D03*
X3130000Y1170000D02*
D03*
X3280000Y1850000D02*
D03*
X2430000Y1630000D02*
D03*
X3660229Y857472D02*
D03*
X3790000Y1230000D02*
D03*
X3750434Y1306338D02*
D03*
X4878948Y2084181D02*
D03*
X5090000Y1820000D02*
D03*
X4670000Y1580000D02*
D03*
X4640000Y930000D02*
D03*
X5827091Y1237500D02*
D03*
X6575636Y1447653D02*
D03*
X6320000Y1300000D02*
D03*
X6660000Y3470000D02*
D03*
X7930000Y4280000D02*
D03*
X7691850Y4408150D02*
D03*
X5139606Y4700923D02*
D03*
X7522500Y3510000D02*
D03*
X4450000Y4290000D02*
D03*
X7530000Y2850000D02*
D03*
X7560000Y3435000D02*
D03*
X6730000Y3880000D02*
D03*
X7530000Y3060000D02*
D03*
X7350000Y3263302D02*
D03*
X7615265Y2845000D02*
D03*
X7700000D02*
D03*
X7200000Y2770000D02*
D03*
X7830000Y3990000D02*
D03*
X8100000Y2680000D02*
D03*
X7947678Y3690000D02*
D03*
X8561131Y4379489D02*
D03*
X8500000Y4130000D02*
D03*
X6820000Y3170000D02*
D03*
X7047500Y1090658D02*
D03*
X7120659Y2499341D02*
D03*
X3410000Y880000D02*
D03*
X4650239Y1021962D02*
D03*
X7070000Y2330000D02*
D03*
X7710806Y2623570D02*
D03*
X7687944Y2695000D02*
D03*
X7710715Y2548570D02*
D03*
X2430000Y3810000D02*
D03*
X2398709Y3902954D02*
D03*
X2500000Y2650000D02*
D03*
X2450000Y4700000D02*
D03*
X2350000D02*
D03*
X2250000D02*
D03*
X2150000D02*
D03*
X2050000D02*
D03*
X1950000D02*
D03*
X1850000D02*
D03*
Y4600000D02*
D03*
Y4500000D02*
D03*
Y4400000D02*
D03*
Y4300000D02*
D03*
Y4200000D02*
D03*
X2190000Y3800000D02*
D03*
X2200000Y3700000D02*
D03*
Y3600000D02*
D03*
X3159857Y3625738D02*
D03*
X2504246Y3914247D02*
D03*
X2502123Y4182123D02*
D03*
X2200000Y3500000D02*
D03*
X3180000Y4360000D02*
D03*
X2710000Y4180000D02*
D03*
X6746078Y3769460D02*
D03*
X6736236Y3630000D02*
D03*
X2400000Y4100000D02*
D03*
X2160000Y4090000D02*
D03*
X1850000Y4100000D02*
D03*
X2130000Y3990000D02*
D03*
X2180000Y3900000D02*
D03*
X2400000Y4000000D02*
D03*
X1950000Y4080000D02*
D03*
X2050000Y4050000D02*
D03*
X2200000Y3400000D02*
D03*
Y3300000D02*
D03*
Y3200000D02*
D03*
Y3100000D02*
D03*
Y3000000D02*
D03*
Y2900000D02*
D03*
Y2800000D02*
D03*
X6300000Y2340000D02*
D03*
X6225000Y1505000D02*
D03*
X6350000Y1530000D02*
D03*
X7060000Y1277400D02*
D03*
X6540000Y3610000D02*
D03*
X6810000Y3950000D02*
D03*
X5620000Y1310000D02*
D03*
X6540000Y2960000D02*
D03*
X5847500Y3281251D02*
D03*
X6420002Y2990002D02*
D03*
X6570000Y2840000D02*
D03*
X6320000Y3020000D02*
D03*
X6050000Y4240000D02*
D03*
X5307936Y3521386D02*
D03*
X5612500Y2320000D02*
D03*
X5528224Y1819925D02*
D03*
X5850000Y2680000D02*
D03*
X5310000Y2320000D02*
D03*
X5290000Y3390000D02*
D03*
X5170000Y3510000D02*
D03*
X7000000Y2690000D02*
D03*
X7070000Y2620000D02*
D03*
X6200000Y700000D02*
D03*
X6999895Y614807D02*
D03*
X4890000Y2220000D02*
D03*
X4283724Y1969697D02*
D03*
X3279307Y2030000D02*
D03*
X3334999Y2200000D02*
D03*
X3406530Y2222547D02*
D03*
X5080000Y2480000D02*
D03*
X4230625Y2590000D02*
D03*
X3598750Y2591250D02*
D03*
X3920000Y2230000D02*
D03*
X6250000Y2630000D02*
D03*
X3101353Y3020000D02*
D03*
X3320000Y2920000D02*
D03*
X3740000Y2960000D02*
D03*
X3900000Y1720000D02*
D03*
X4390000Y1920000D02*
D03*
X4020000Y2370459D02*
D03*
X4850000Y1560000D02*
D03*
X7649985Y2299995D02*
D03*
X6177130Y2982870D02*
D03*
X3006652Y4826652D02*
D03*
X4030000Y2460000D02*
D03*
X4560000Y2390000D02*
D03*
X4480000Y2450000D02*
D03*
X4627500Y2507500D02*
D03*
X6480000Y600000D02*
D03*
X4092500Y3090000D02*
D03*
X3862500Y2780000D02*
D03*
X1650000Y4670000D02*
D03*
X2700000Y4100000D02*
D03*
X3560000Y3600000D02*
D03*
X2982500Y4370000D02*
D03*
X2950000Y3170000D02*
D03*
X7130000Y2220000D02*
D03*
X7720000Y1880000D02*
D03*
X7659985Y1129998D02*
D03*
X7169986Y2619995D02*
D03*
X7205153Y2243440D02*
D03*
X7689985Y1249997D02*
D03*
X7660000Y1570000D02*
D03*
X7209986Y1499997D02*
D03*
X3310000Y4610000D02*
D03*
X3560000Y4530000D02*
D03*
X3870000Y4602500D02*
D03*
X5140000Y870000D02*
D03*
X7250000Y1660000D02*
D03*
X7189986Y2449995D02*
D03*
X7229986Y2039996D02*
D03*
X7659985Y2129996D02*
D03*
X7687327Y1726203D02*
D03*
X7300000Y910000D02*
D03*
X7659985Y1009998D02*
D03*
X7870000Y1320000D02*
D03*
X7280000Y1307500D02*
D03*
X3330000Y3180000D02*
D03*
X4420000Y3340000D02*
D03*
X4420000Y3660000D02*
D03*
X3330000Y4097503D02*
D03*
X3280000Y4350000D02*
D03*
X3730000Y3500000D02*
D03*
X2980000Y3840000D02*
D03*
X3380000Y4340000D02*
D03*
X3660000Y4380000D02*
D03*
X4480000Y3460000D02*
D03*
X3260000Y3290000D02*
D03*
X3080000Y3740000D02*
D03*
X1320000Y4670000D02*
D03*
X6120000Y2570000D02*
D03*
X4650000Y3420000D02*
D03*
X7649985Y1449997D02*
D03*
X7945208Y5287588D02*
D03*
X2650000Y3970000D02*
D03*
X3200000Y4610000D02*
D03*
X4434292Y4747500D02*
D03*
X3040000Y900000D02*
D03*
X4811250Y4830000D02*
D03*
X2508228Y4323171D02*
D03*
X4590000Y4210000D02*
D03*
X2640000Y4530000D02*
D03*
X3077354Y2569391D02*
D03*
X2062644Y1591929D02*
D03*
X5590000Y4830000D02*
D03*
X4340000D02*
D03*
X3870000D02*
D03*
X3540000D02*
D03*
X3310000D02*
D03*
X3640000Y4510000D02*
D03*
X5160000Y4830000D02*
D03*
X4770000Y4210000D02*
D03*
X5440000Y1002500D02*
D03*
X5030000Y970000D02*
D03*
X5580000Y620000D02*
D03*
X2119640Y2050360D02*
D03*
X2300573Y2211071D02*
D03*
X7800000Y5340000D02*
D03*
X7502500Y1252366D02*
D03*
X7181317Y2108683D02*
D03*
X7200000Y1000000D02*
D03*
X4249991Y3359993D02*
D03*
X4160000Y3930000D02*
D03*
X7720000Y1800000D02*
D03*
X7719985Y1069998D02*
D03*
X7630000Y930000D02*
D03*
X5286249Y3033751D02*
D03*
X5280000Y2950000D02*
D03*
X4829990Y3789992D02*
D03*
X3600000Y3370000D02*
D03*
X2727310Y3290000D02*
D03*
X4453075Y4211807D02*
D03*
X4960000Y4210000D02*
D03*
X5310000Y3640000D02*
D03*
X7850000Y150000D02*
D03*
X1850000Y1820000D02*
D03*
X2400000Y2440000D02*
D03*
X2630000Y2430000D02*
D03*
X4240000Y700000D02*
D03*
X4320000Y3130000D02*
D03*
X4840000Y3085003D02*
D03*
X5060000Y2980003D02*
D03*
X4880000Y2770000D02*
D03*
X4690000Y700000D02*
D03*
X3740000D02*
D03*
X4800000Y2680000D02*
D03*
X2890000Y3010000D02*
D03*
X5250000Y3820000D02*
D03*
D240*
X1640484Y5323500D02*
D03*
X1640988Y4963500D02*
D03*
X1280500D02*
D03*
Y5323500D02*
D03*
D241*
X2350000Y1370000D02*
D03*
X2770000D02*
D03*
%TF.MD5,8f4fc7e2b621b7b8f1b5add865a3707e*%
M02*
