%TF.GenerationSoftware,Altium Limited,Altium Designer,21.5.1 (32)*%
G04 Layer_Color=32768*
%FSLAX45Y45*%
%MOMM*%
%TF.SameCoordinates,6D93875A-9943-4EB1-8E24-321CDD5DE8D5*%
%TF.FilePolarity,Positive*%
%TF.FileFunction,Other,Assembly_Notes*%
%TF.Part,Single*%
G01*
G75*
%TA.AperFunction,NonConductor*%
%ADD101C,0.20000*%
%ADD126C,0.10000*%
%ADD233C,0.25400*%
D101*
X3133322Y493322D02*
X3100000Y526645D01*
Y559967D01*
X3133322Y593290D01*
X3183306Y576629D02*
X3199968Y593290D01*
X3233290D01*
X3249951Y576629D01*
Y559967D01*
X3233290Y543306D01*
X3216629D01*
X3233290D01*
X3249951Y526645D01*
Y509984D01*
X3233290Y493322D01*
X3199968D01*
X3183306Y509984D01*
X3349919Y493322D02*
X3283274D01*
X3349919Y559967D01*
Y576629D01*
X3333258Y593290D01*
X3299935D01*
X3283274Y576629D01*
X3399903Y476661D02*
X3416564Y493322D01*
Y509984D01*
X3399903D01*
Y493322D01*
X3416564D01*
X3399903Y476661D01*
X3383242Y460000D01*
X3483210Y576629D02*
X3499871Y593290D01*
X3533194D01*
X3549855Y576629D01*
Y559967D01*
X3533194Y543306D01*
X3549855Y526645D01*
Y509984D01*
X3533194Y493322D01*
X3499871D01*
X3483210Y509984D01*
Y526645D01*
X3499871Y543306D01*
X3483210Y559967D01*
Y576629D01*
X3499871Y543306D02*
X3533194D01*
X3583177Y493322D02*
X3616500Y526645D01*
Y559967D01*
X3583177Y593290D01*
X5853323Y4403322D02*
X5820000Y4436645D01*
Y4469967D01*
X5853323Y4503290D01*
X5969951D02*
X5936629Y4486629D01*
X5903306Y4453306D01*
Y4419984D01*
X5919968Y4403322D01*
X5953290D01*
X5969951Y4419984D01*
Y4436645D01*
X5953290Y4453306D01*
X5903306D01*
X6003274Y4503290D02*
X6069919D01*
Y4486629D01*
X6003274Y4419984D01*
Y4403322D01*
X6103242D02*
Y4419984D01*
X6119903D01*
Y4403322D01*
X6103242D01*
X6186548Y4486629D02*
X6203210Y4503290D01*
X6236532D01*
X6253193Y4486629D01*
Y4469967D01*
X6236532Y4453306D01*
X6253193Y4436645D01*
Y4419984D01*
X6236532Y4403322D01*
X6203210D01*
X6186548Y4419984D01*
Y4436645D01*
X6203210Y4453306D01*
X6186548Y4469967D01*
Y4486629D01*
X6203210Y4453306D02*
X6236532D01*
X6303178Y4386661D02*
X6319839Y4403322D01*
Y4419984D01*
X6303178D01*
Y4403322D01*
X6319839D01*
X6303178Y4386661D01*
X6286516Y4370000D01*
X6436468Y4403322D02*
Y4503290D01*
X6386484Y4453306D01*
X6453129D01*
X6536436Y4403322D02*
Y4503290D01*
X6486452Y4453306D01*
X6553097D01*
X6586420Y4403322D02*
X6619742Y4436645D01*
Y4469967D01*
X6586420Y4503290D01*
X6793322Y493322D02*
X6760000Y526645D01*
Y559967D01*
X6793322Y593290D01*
X6843306D02*
X6909951D01*
Y576629D01*
X6843306Y509984D01*
Y493322D01*
X6943274D02*
X6976597D01*
X6959936D01*
Y593290D01*
X6943274Y576629D01*
X7026581Y493322D02*
Y509984D01*
X7043242D01*
Y493322D01*
X7026581D01*
X7176532D02*
X7109887D01*
X7176532Y559967D01*
Y576629D01*
X7159871Y593290D01*
X7126548D01*
X7109887Y576629D01*
X7226516Y476661D02*
X7243177Y493322D01*
Y509984D01*
X7226516D01*
Y493322D01*
X7243177D01*
X7226516Y476661D01*
X7209855Y460000D01*
X7309823Y576629D02*
X7326484Y593290D01*
X7359806D01*
X7376468Y576629D01*
Y559967D01*
X7359806Y543306D01*
X7376468Y526645D01*
Y509984D01*
X7359806Y493322D01*
X7326484D01*
X7309823Y509984D01*
Y526645D01*
X7326484Y543306D01*
X7309823Y559967D01*
Y576629D01*
X7326484Y543306D02*
X7359806D01*
X7409790Y493322D02*
X7443113Y526645D01*
Y559967D01*
X7409790Y593290D01*
X93322Y83322D02*
X60000Y116645D01*
Y149967D01*
X93322Y183290D01*
X143306Y166629D02*
X159968Y183290D01*
X193290D01*
X209951Y166629D01*
Y99984D01*
X193290Y83322D01*
X159968D01*
X143306Y99984D01*
Y166629D01*
X259935Y66661D02*
X276597Y83322D01*
Y99984D01*
X259935D01*
Y83322D01*
X276597D01*
X259935Y66661D01*
X243274Y50000D01*
X343242Y166629D02*
X359903Y183290D01*
X393226D01*
X409887Y166629D01*
Y99984D01*
X393226Y83322D01*
X359903D01*
X343242Y99984D01*
Y166629D01*
X443210Y83322D02*
X476532Y116645D01*
Y149967D01*
X443210Y183290D01*
D126*
X1642361Y1200000D02*
G03*
X1642361Y1200000I-22361J0D01*
G01*
X6825000Y4400000D02*
G03*
X6825000Y4400000I-45000J0D01*
G01*
X6915000D02*
G03*
X6915000Y4400000I-135000J0D01*
G01*
X3245000Y800000D02*
G03*
X3245000Y800000I-45000J0D01*
G01*
X3335000D02*
G03*
X3335000Y800000I-135000J0D01*
G01*
X7165000D02*
G03*
X7165000Y800000I-45000J0D01*
G01*
X7255000D02*
G03*
X7255000Y800000I-135000J0D01*
G01*
X7432500Y4720000D02*
X7487500D01*
X7460000Y4692500D02*
Y4747500D01*
X7415000Y4625000D02*
Y4815000D01*
Y4625000D02*
X7505000D01*
X7415000Y4815000D02*
X7505000D01*
Y4625000D02*
Y4815000D01*
X2300000Y1480000D02*
Y1570000D01*
X2210000D02*
X2300000Y1480000D01*
X2210000Y1570000D02*
X2300000D01*
Y1250000D02*
Y1480000D01*
X2140000Y1360000D02*
Y1460000D01*
X1980000Y1570000D02*
X2210000D01*
X2090000Y1410000D02*
X2190000D01*
X1980000Y1250000D02*
X2300000D01*
X1980000D02*
Y1570000D01*
X7240000Y4380000D02*
Y4740000D01*
X7085000Y4510000D02*
Y4610000D01*
X6930000Y4740000D02*
X7240000D01*
X7035000Y4560000D02*
X7135000D01*
X6930141Y4667350D02*
X6999336Y4736545D01*
X6930000Y4380000D02*
X7240000D01*
X6930000D02*
Y4740000D01*
X7225000Y1655000D02*
X7635000D01*
X7380000Y1820000D02*
X7480000D01*
X7430000Y1770000D02*
Y1870000D01*
X7635000Y1655000D02*
Y1985000D01*
X7316096D02*
X7635000D01*
X7225000Y1893904D02*
X7316096Y1985000D01*
X7225000Y1655000D02*
Y1893904D01*
Y1985000D02*
X7315000D01*
X7225000Y1875000D02*
Y1985000D01*
Y2025000D02*
X7635000D01*
X7380000Y2190000D02*
X7480000D01*
X7430000Y2140000D02*
Y2240000D01*
X7635000Y2025000D02*
Y2355000D01*
X7316096D02*
X7635000D01*
X7225000Y2263904D02*
X7316096Y2355000D01*
X7225000Y2025000D02*
Y2263904D01*
Y2355000D02*
X7315000D01*
X7225000Y2245000D02*
Y2355000D01*
Y905000D02*
X7635000D01*
X7380000Y1070000D02*
X7480000D01*
X7430000Y1020000D02*
Y1120000D01*
X7635000Y905000D02*
Y1235000D01*
X7316096D02*
X7635000D01*
X7225000Y1143904D02*
X7316096Y1235000D01*
X7225000Y905000D02*
Y1143904D01*
Y1235000D02*
X7315000D01*
X7225000Y1125000D02*
Y1235000D01*
Y2405000D02*
X7635000D01*
X7380000Y2570000D02*
X7480000D01*
X7430000Y2520000D02*
Y2620000D01*
X7635000Y2405000D02*
Y2735000D01*
X7316096D02*
X7635000D01*
X7225000Y2643904D02*
X7316096Y2735000D01*
X7225000Y2405000D02*
Y2643904D01*
Y2735000D02*
X7315000D01*
X7225000Y2625000D02*
Y2735000D01*
X6865000Y3855000D02*
X7275000D01*
X7020000Y4020000D02*
X7120000D01*
X7070000Y3970000D02*
Y4070000D01*
X7275000Y3855000D02*
Y4185000D01*
X6956096D02*
X7275000D01*
X6865000Y4093904D02*
X6956096Y4185000D01*
X6865000Y3855000D02*
Y4093904D01*
Y4185000D02*
X6955000D01*
X6865000Y4075000D02*
Y4185000D01*
X7225000Y1285000D02*
X7635000D01*
X7380000Y1450000D02*
X7480000D01*
X7430000Y1400000D02*
Y1500000D01*
X7635000Y1285000D02*
Y1615000D01*
X7316096D02*
X7635000D01*
X7225000Y1523904D02*
X7316096Y1615000D01*
X7225000Y1285000D02*
Y1523904D01*
Y1615000D02*
X7315000D01*
X7225000Y1505000D02*
Y1615000D01*
X6865000Y3095000D02*
X7275000D01*
X7020000Y3260000D02*
X7120000D01*
X7070000Y3210000D02*
Y3310000D01*
X7275000Y3095000D02*
Y3425000D01*
X6956096D02*
X7275000D01*
X6865000Y3333904D02*
X6956096Y3425000D01*
X6865000Y3095000D02*
Y3333904D01*
Y3425000D02*
X6955000D01*
X6865000Y3315000D02*
Y3425000D01*
X3305000Y1255000D02*
X3715000D01*
X3460000Y1420000D02*
X3560000D01*
X3510000Y1370000D02*
Y1470000D01*
X3715000Y1255000D02*
Y1585000D01*
X3396096D02*
X3715000D01*
X3305000Y1493904D02*
X3396096Y1585000D01*
X3305000Y1255000D02*
Y1493904D01*
Y1585000D02*
X3395000D01*
X3305000Y1475000D02*
Y1585000D01*
X6865000Y3475000D02*
X7275000D01*
X7020000Y3640000D02*
X7120000D01*
X7070000Y3590000D02*
Y3690000D01*
X7275000Y3475000D02*
Y3805000D01*
X6956096D02*
X7275000D01*
X6865000Y3713904D02*
X6956096Y3805000D01*
X6865000Y3475000D02*
Y3713904D01*
Y3805000D02*
X6955000D01*
X6865000Y3695000D02*
Y3805000D01*
X3675000Y2215000D02*
Y2295000D01*
X3755000D01*
X3675000Y2214036D02*
X3755964Y2295000D01*
X3675000Y1965000D02*
Y2214036D01*
X3755964Y2295000D02*
X4245000D01*
Y1965000D02*
Y2295000D01*
X3675000Y1965000D02*
X4245000D01*
X3910000Y2130000D02*
X4010000D01*
X3960000Y2080000D02*
Y2180000D01*
X5085000Y1240000D02*
Y1330000D01*
X5475000Y1010000D02*
Y1330000D01*
X5085000Y1010000D02*
X5475000D01*
X5230000Y1170000D02*
X5330000D01*
X5280000Y1120000D02*
Y1220000D01*
X5171378Y1330000D02*
X5475000D01*
X5085000Y1243622D02*
X5171378Y1330000D01*
X5085000Y1010000D02*
Y1243622D01*
Y1330000D02*
X5171378D01*
X4935000Y2075000D02*
Y2155000D01*
X5015000D01*
X4935000Y2074036D02*
X5015965Y2155000D01*
X4935000Y1825000D02*
Y2074036D01*
X5015965Y2155000D02*
X5505000D01*
Y1825000D02*
Y2155000D01*
X4935000Y1825000D02*
X5505000D01*
X5170000Y1990000D02*
X5270000D01*
X5220000Y1940000D02*
Y2040000D01*
X2470000Y2425000D02*
X2560000D01*
X2240000Y2035000D02*
X2560000D01*
X2240000D02*
Y2425000D01*
X2400000Y2180000D02*
Y2280000D01*
X2350000Y2230000D02*
X2450000D01*
X2560000Y2035000D02*
Y2338622D01*
X2473622Y2425000D02*
X2560000Y2338622D01*
X2240000Y2425000D02*
X2473622D01*
X2560000Y2338622D02*
Y2425000D01*
X2914999Y2315000D02*
Y2395000D01*
X2994999D01*
X3109999Y2230000D02*
Y2330000D01*
X3059999Y2280000D02*
X3159999D01*
X2914999Y2165000D02*
X3304999D01*
Y2395000D01*
X2983907D02*
X3304999D01*
X2914999Y2326092D02*
X2983907Y2395000D01*
X2914999Y2165000D02*
Y2326092D01*
X7030000Y2310000D02*
Y2394537D01*
X6920000Y2310000D02*
X7030000D01*
X6850000Y2420000D02*
Y2520000D01*
X6800000Y2470000D02*
X6900000D01*
X6670000Y2630000D02*
X7030000D01*
X6670000Y2310000D02*
Y2630000D01*
Y2310000D02*
X6945463D01*
X7030000Y2394537D01*
Y2630000D01*
X7839551Y2929735D02*
Y3229734D01*
X7665246Y2929735D02*
X7839551D01*
X7599551Y3229734D02*
X7839551D01*
X7599551Y2995429D02*
X7665246Y2929735D01*
X7599551Y2995429D02*
Y3229734D01*
X7669551Y3079735D02*
X7769551D01*
X7719551Y3029735D02*
Y3129735D01*
X7599551Y2929735D02*
Y3009734D01*
Y2929735D02*
X7679551D01*
X7775000Y4275000D02*
X7855000D01*
Y4195000D02*
Y4275000D01*
X7624379D02*
X7791158D01*
X7855000Y4211158D01*
X7690000Y4080000D02*
X7790000D01*
X7740000Y4030000D02*
Y4130000D01*
X7855000Y3885000D02*
Y4211158D01*
X7624379Y3885000D02*
Y4275421D01*
Y3885000D02*
X7855000D01*
X6205000Y1215000D02*
Y1295000D01*
X6285000D01*
X6205000Y745000D02*
Y1219433D01*
X6280568Y1295000D01*
X6205000D02*
X6555000D01*
Y745000D02*
Y1295000D01*
X6205000Y745000D02*
X6555000D01*
X6330000Y1020000D02*
X6430000D01*
X6380000Y970000D02*
Y1070000D01*
X6205000Y2025000D02*
Y2105000D01*
X6285000D01*
X6205000Y1555000D02*
Y2029433D01*
X6280567Y2105000D01*
X6205000D02*
X6555000D01*
Y1555000D02*
Y2105000D01*
X6205000Y1555000D02*
X6555000D01*
X6330000Y1830000D02*
X6430000D01*
X6380000Y1780000D02*
Y1880000D01*
X3290000Y3370000D02*
Y3454537D01*
X3180000Y3370000D02*
X3290000D01*
X3110000Y3480000D02*
Y3580000D01*
X3060000Y3530000D02*
X3160000D01*
X2930000Y3690000D02*
X3290000D01*
X2930000Y3370000D02*
Y3690000D01*
Y3370000D02*
X3205463D01*
X3290000Y3454537D01*
Y3690000D01*
X3550000Y3325000D02*
X3630000D01*
X3550000Y3240000D02*
Y3325000D01*
Y2795000D02*
Y3240000D01*
X3635000Y3325000D01*
X4270000D01*
X3910000Y3010000D02*
Y3110000D01*
X3860000Y3060000D02*
X3960000D01*
X3550000Y2795000D02*
X4270000D01*
Y3325000D01*
X3740000Y3615000D02*
Y3695000D01*
X3820000D01*
X3740000Y3365000D02*
X4140000D01*
X3890000Y3530000D02*
X3990000D01*
X3940000Y3480000D02*
Y3580000D01*
X4140000Y3365000D02*
Y3695000D01*
X3812465D02*
X4140000D01*
X3740000Y3622535D02*
X3812465Y3695000D01*
X3740000Y3365000D02*
Y3622535D01*
X2825000Y2765000D02*
X2905000D01*
X2825000D02*
Y2845000D01*
Y2845964D02*
X2905964Y2765000D01*
X3155000D01*
X2825000Y2845964D02*
Y3335000D01*
X3155000D01*
Y2765000D02*
Y3335000D01*
X2990000Y3000000D02*
Y3100000D01*
X2940000Y3050000D02*
X3040000D01*
X3630000Y4355000D02*
X3710000D01*
X3630000Y4270000D02*
Y4355000D01*
Y3825000D02*
Y4270000D01*
X3715000Y4355000D01*
X4350000D01*
X3990000Y4040000D02*
Y4140000D01*
X3940000Y4090000D02*
X4040000D01*
X3630000Y3825000D02*
X4350000D01*
Y4355000D01*
X3295000Y3835000D02*
Y3915000D01*
X3215000Y3835000D02*
X3295000D01*
X3214035D02*
X3295000Y3915964D01*
Y4165000D01*
X2725000Y3835000D02*
X3214035D01*
X2725000D02*
Y4165000D01*
X3295000D01*
X2960000Y4000000D02*
X3060000D01*
X3010000Y3950000D02*
Y4050000D01*
X5740000Y2735000D02*
X5820000D01*
Y2820000D01*
Y3265000D01*
X5735000Y2735000D02*
X5820000Y2820000D01*
X5100000Y2735000D02*
X5735000D01*
X5460000Y2950000D02*
Y3050000D01*
X5410000Y3000000D02*
X5510000D01*
X5100000Y3265000D02*
X5820000D01*
X5100000Y2735000D02*
Y3265000D01*
X6385000Y3815000D02*
X6465000D01*
Y3735000D02*
Y3815000D01*
X6384036D02*
X6465000Y3734036D01*
X6135000Y3815000D02*
X6384036D01*
X6465000Y3245000D02*
Y3734036D01*
X6135000Y3245000D02*
X6465000D01*
X6135000D02*
Y3815000D01*
X6300000Y3480000D02*
Y3580000D01*
X6250000Y3530000D02*
X6350000D01*
X5075000Y4180000D02*
X5155000D01*
Y4100000D02*
Y4180000D01*
X4825000Y3780000D02*
Y4180000D01*
X4990000Y3930000D02*
Y4030000D01*
X4940000Y3980000D02*
X5040000D01*
X4825000Y3780000D02*
X5155000D01*
Y4107535D01*
X5082535Y4180000D02*
X5155000Y4107535D01*
X4825000Y4180000D02*
X5082535D01*
X5885000Y3875000D02*
Y3955000D01*
X5805000Y3875000D02*
X5885000D01*
X5804036D02*
X5885000Y3955964D01*
Y4205000D01*
X5315000Y3875000D02*
X5804036D01*
X5315000D02*
Y4205000D01*
X5885000D01*
X5550000Y4040000D02*
X5650000D01*
X5600000Y3990000D02*
Y4090000D01*
X1760000Y1620000D02*
X2080000D01*
X1760000D02*
Y1940000D01*
X1920000Y1730000D02*
Y1830000D01*
X1870000Y1780000D02*
X1970000D01*
X1760000Y1940000D02*
X1990000D01*
X2080000Y1850000D01*
Y1620000D02*
Y1850000D01*
Y1940000D01*
X1990000D02*
X2080000D01*
X2190000Y1710000D02*
X2510000D01*
X2190000D02*
Y2030000D01*
X2350000Y1820000D02*
Y1920000D01*
X2300000Y1870000D02*
X2400000D01*
X2190000Y2030000D02*
X2420000D01*
X2510000Y1940000D01*
Y1710000D02*
Y1940000D01*
Y2030000D01*
X2420000D02*
X2510000D01*
X6565000Y1235000D02*
X6755000D01*
X6565000Y1145000D02*
Y1235000D01*
X6755000Y1145000D02*
Y1235000D01*
X6565000Y1145000D02*
X6755000D01*
X6632500Y1190000D02*
X6687500D01*
X6660000Y1162500D02*
Y1217500D01*
X6565000Y835000D02*
X6755000D01*
X6565000Y745000D02*
Y835000D01*
X6755000Y745000D02*
Y835000D01*
X6565000Y745000D02*
X6755000D01*
X6632500Y790000D02*
X6687500D01*
X6660000Y762500D02*
Y817500D01*
X6565000Y935000D02*
X6755000D01*
X6565000Y845000D02*
Y935000D01*
X6755000Y845000D02*
Y935000D01*
X6565000Y845000D02*
X6755000D01*
X6632500Y890000D02*
X6687500D01*
X6660000Y862500D02*
Y917500D01*
X6565000Y1035000D02*
X6755000D01*
X6565000Y945000D02*
Y1035000D01*
X6755000Y945000D02*
Y1035000D01*
X6565000Y945000D02*
X6755000D01*
X6632500Y990000D02*
X6687500D01*
X6660000Y962500D02*
Y1017500D01*
X6565000Y1135000D02*
X6755000D01*
X6565000Y1045000D02*
Y1135000D01*
X6755000Y1045000D02*
Y1135000D01*
X6565000Y1045000D02*
X6755000D01*
X6632500Y1090000D02*
X6687500D01*
X6660000Y1062500D02*
Y1117500D01*
X6565000Y1595000D02*
X6755000D01*
X6565000Y1505000D02*
Y1595000D01*
X6755000Y1505000D02*
Y1595000D01*
X6565000Y1505000D02*
X6755000D01*
X6632500Y1550000D02*
X6687500D01*
X6660000Y1522500D02*
Y1577500D01*
X6565000Y1695000D02*
X6755000D01*
X6565000Y1605000D02*
Y1695000D01*
X6755000Y1605000D02*
Y1695000D01*
X6565000Y1605000D02*
X6755000D01*
X6632500Y1650000D02*
X6687500D01*
X6660000Y1622500D02*
Y1677500D01*
X6565000Y1795000D02*
X6755000D01*
X6565000Y1705000D02*
Y1795000D01*
X6755000Y1705000D02*
Y1795000D01*
X6565000Y1705000D02*
X6755000D01*
X6632500Y1750000D02*
X6687500D01*
X6660000Y1722500D02*
Y1777500D01*
X6565000Y1895000D02*
X6755000D01*
X6565000Y1805000D02*
Y1895000D01*
X6755000Y1805000D02*
Y1895000D01*
X6565000Y1805000D02*
X6755000D01*
X6632500Y1850000D02*
X6687500D01*
X6660000Y1822500D02*
Y1877500D01*
X6565000Y1995000D02*
X6755000D01*
X6565000Y1905000D02*
Y1995000D01*
X6755000Y1905000D02*
Y1995000D01*
X6565000Y1905000D02*
X6755000D01*
X6632500Y1950000D02*
X6687500D01*
X6660000Y1922500D02*
Y1977500D01*
X7605000Y3235000D02*
Y3425000D01*
X7515000D02*
X7605000D01*
X7515000Y3235000D02*
X7605000D01*
X7515000D02*
Y3425000D01*
X7560000Y3302500D02*
Y3357500D01*
X7532500Y3330000D02*
X7587500D01*
X7705000Y3235000D02*
Y3425000D01*
X7615000D02*
X7705000D01*
X7615000Y3235000D02*
X7705000D01*
X7615000D02*
Y3425000D01*
X7660000Y3302500D02*
Y3357500D01*
X7632500Y3330000D02*
X7687500D01*
X3715000Y1535000D02*
X3905000D01*
Y1625000D01*
X3715000Y1535000D02*
Y1625000D01*
X3905000D01*
X3782500Y1580000D02*
X3837500D01*
X3810000Y1552500D02*
Y1607500D01*
X3715000Y1525000D02*
X3905000D01*
X3715000Y1435000D02*
Y1525000D01*
X3905000Y1435000D02*
Y1525000D01*
X3715000Y1435000D02*
X3905000D01*
X3782500Y1480000D02*
X3837500D01*
X3810000Y1452500D02*
Y1507500D01*
X3925000Y1435000D02*
Y1625000D01*
Y1435000D02*
X4015000D01*
X3925000Y1625000D02*
X4015000D01*
Y1435000D02*
Y1625000D01*
X3970000Y1502500D02*
Y1557500D01*
X3942500Y1530000D02*
X3997500D01*
X3995000Y1185000D02*
Y1375000D01*
X3905000D02*
X3995000D01*
X3905000Y1185000D02*
X3995000D01*
X3905000D02*
Y1375000D01*
X3950000Y1252500D02*
Y1307500D01*
X3922500Y1280000D02*
X3977500D01*
X1835000Y1105000D02*
X2025000D01*
Y1195000D01*
X1835000Y1105000D02*
Y1195000D01*
X2025000D01*
X1902500Y1150000D02*
X1957500D01*
X1930000Y1122500D02*
Y1177500D01*
X3065000Y2075000D02*
X3255000D01*
X3065000Y1985000D02*
Y2075000D01*
X3255000Y1985000D02*
Y2075000D01*
X3065000Y1985000D02*
X3255000D01*
X3132500Y2030000D02*
X3187500D01*
X3160000Y2002500D02*
Y2057500D01*
X4985000Y985000D02*
Y1175000D01*
Y985000D02*
X5075000D01*
X4985000Y1175000D02*
X5075000D01*
Y985000D02*
Y1175000D01*
X5030000Y1052500D02*
Y1107500D01*
X5002500Y1080000D02*
X5057500D01*
X4985000Y1185000D02*
Y1375000D01*
Y1185000D02*
X5075000D01*
X4985000Y1375000D02*
X5075000D01*
Y1185000D02*
Y1375000D01*
X5030000Y1252500D02*
Y1307500D01*
X5002500Y1280000D02*
X5057500D01*
X5165000Y2275000D02*
X5355000D01*
X5165000Y2185000D02*
Y2275000D01*
X5355000Y2185000D02*
Y2275000D01*
X5165000Y2185000D02*
X5355000D01*
X5232500Y2230000D02*
X5287500D01*
X5260000Y2202500D02*
Y2257500D01*
X2175000Y1835000D02*
Y2025000D01*
X2085000D02*
X2175000D01*
X2085000Y1835000D02*
X2175000D01*
X2085000D02*
Y2025000D01*
X2130000Y1902500D02*
Y1957500D01*
X2102500Y1930000D02*
X2157500D01*
X2145000Y2035000D02*
Y2225000D01*
Y2035000D02*
X2235000D01*
X2145000Y2225000D02*
X2235000D01*
Y2035000D02*
Y2225000D01*
X2190000Y2102500D02*
Y2157500D01*
X2162500Y2130000D02*
X2217500D01*
X1775000Y1505000D02*
X1965000D01*
Y1595000D01*
X1775000Y1505000D02*
Y1595000D01*
X1965000D01*
X1842500Y1550000D02*
X1897500D01*
X1870000Y1522500D02*
Y1577500D01*
X2235000Y2235000D02*
Y2425000D01*
X2145000D02*
X2235000D01*
X2145000Y2235000D02*
X2235000D01*
X2145000D02*
Y2425000D01*
X2190000Y2302500D02*
Y2357500D01*
X2162500Y2330000D02*
X2217500D01*
X2525000Y1805000D02*
Y1995000D01*
Y1805000D02*
X2615000D01*
X2525000Y1995000D02*
X2615000D01*
Y1805000D02*
Y1995000D01*
X2570000Y1872500D02*
Y1927500D01*
X2542500Y1900000D02*
X2597500D01*
X1775000Y1495000D02*
X1965000D01*
X1775000Y1405000D02*
Y1495000D01*
X1965000Y1405000D02*
Y1495000D01*
X1775000Y1405000D02*
X1965000D01*
X1842500Y1450000D02*
X1897500D01*
X1870000Y1422500D02*
Y1477500D01*
X2715000Y2445000D02*
X2905000D01*
X2715000Y2355000D02*
Y2445000D01*
X2905000Y2355000D02*
Y2445000D01*
X2715000Y2355000D02*
X2905000D01*
X2782500Y2400000D02*
X2837500D01*
X2810000Y2372500D02*
Y2427500D01*
X2715000Y2345000D02*
X2905000D01*
X2715000Y2255000D02*
Y2345000D01*
X2905000Y2255000D02*
Y2345000D01*
X2715000Y2255000D02*
X2905000D01*
X2782500Y2300000D02*
X2837500D01*
X2810000Y2272500D02*
Y2327500D01*
X5885000Y4635000D02*
Y4825000D01*
Y4635000D02*
X5975000D01*
X5885000Y4825000D02*
X5975000D01*
Y4635000D02*
Y4825000D01*
X5930000Y4702500D02*
Y4757500D01*
X5902500Y4730000D02*
X5957500D01*
X3135000Y4625000D02*
Y4815000D01*
Y4625000D02*
X3225000D01*
X3135000Y4815000D02*
X3225000D01*
Y4625000D02*
Y4815000D01*
X3180000Y4692500D02*
Y4747500D01*
X3152500Y4720000D02*
X3207500D01*
X5775000Y4635000D02*
Y4825000D01*
Y4635000D02*
X5865000D01*
X5775000Y4825000D02*
X5865000D01*
Y4635000D02*
Y4825000D01*
X5820000Y4702500D02*
Y4757500D01*
X5792500Y4730000D02*
X5847500D01*
X3035000Y4625000D02*
Y4815000D01*
Y4625000D02*
X3125000D01*
X3035000Y4815000D02*
X3125000D01*
Y4625000D02*
Y4815000D01*
X3080000Y4692500D02*
Y4747500D01*
X3052500Y4720000D02*
X3107500D01*
X2715000Y2155000D02*
X2905000D01*
Y2245000D01*
X2715000Y2155000D02*
Y2245000D01*
X2905000D01*
X2782500Y2200000D02*
X2837500D01*
X2810000Y2172500D02*
Y2227500D01*
X3325000Y2325000D02*
X3515000D01*
X3325000Y2235000D02*
Y2325000D01*
X3515000Y2235000D02*
Y2325000D01*
X3325000Y2235000D02*
X3515000D01*
X3392500Y2280000D02*
X3447500D01*
X3420000Y2252500D02*
Y2307500D01*
X4275000Y655000D02*
Y845000D01*
Y655000D02*
X4365000D01*
X4275000Y845000D02*
X4365000D01*
Y655000D02*
Y845000D01*
X4320000Y722500D02*
Y777500D01*
X4292500Y750000D02*
X4347500D01*
X4385000Y655000D02*
Y845000D01*
Y655000D02*
X4475000D01*
X4385000Y845000D02*
X4475000D01*
Y655000D02*
Y845000D01*
X4430000Y722500D02*
Y777500D01*
X4402500Y750000D02*
X4457500D01*
X7515000Y4625000D02*
Y4815000D01*
Y4625000D02*
X7605000D01*
X7515000Y4815000D02*
X7605000D01*
Y4625000D02*
Y4815000D01*
X7560000Y4692500D02*
Y4747500D01*
X7532500Y4720000D02*
X7587500D01*
X7405000Y645000D02*
Y835000D01*
Y645000D02*
X7495000D01*
X7405000Y835000D02*
X7495000D01*
Y645000D02*
Y835000D01*
X7450000Y712500D02*
Y767500D01*
X7422500Y740000D02*
X7477500D01*
X7295000Y645000D02*
Y835000D01*
Y645000D02*
X7385000D01*
X7295000Y835000D02*
X7385000D01*
Y645000D02*
Y835000D01*
X7340000Y712500D02*
Y767500D01*
X7312500Y740000D02*
X7367500D01*
X6655000Y4625000D02*
Y4815000D01*
Y4625000D02*
X6745000D01*
X6655000Y4815000D02*
X6745000D01*
Y4625000D02*
Y4815000D01*
X6700000Y4692500D02*
Y4747500D01*
X6672500Y4720000D02*
X6727500D01*
X6765000Y4625000D02*
Y4815000D01*
Y4625000D02*
X6855000D01*
X6765000Y4815000D02*
X6855000D01*
Y4625000D02*
Y4815000D01*
X6810000Y4692500D02*
Y4747500D01*
X6782500Y4720000D02*
X6837500D01*
X5805000Y655000D02*
Y845000D01*
Y655000D02*
X5895000D01*
X5805000Y845000D02*
X5895000D01*
Y655000D02*
Y845000D01*
X5850000Y722500D02*
Y777500D01*
X5822500Y750000D02*
X5877500D01*
X5585000Y655000D02*
Y845000D01*
Y655000D02*
X5675000D01*
X5585000Y845000D02*
X5675000D01*
Y655000D02*
Y845000D01*
X5630000Y722500D02*
Y777500D01*
X5602500Y750000D02*
X5657500D01*
X5785000Y655000D02*
Y845000D01*
X5695000D02*
X5785000D01*
X5695000Y655000D02*
X5785000D01*
X5695000D02*
Y845000D01*
X5740000Y722500D02*
Y777500D01*
X5712500Y750000D02*
X5767500D01*
X5475000Y655000D02*
Y845000D01*
Y655000D02*
X5565000D01*
X5475000Y845000D02*
X5565000D01*
Y655000D02*
Y845000D01*
X5520000Y722500D02*
Y777500D01*
X5492500Y750000D02*
X5547500D01*
X5745000Y4635000D02*
Y4825000D01*
X5655000D02*
X5745000D01*
X5655000Y4635000D02*
X5745000D01*
X5655000D02*
Y4825000D01*
X5700000Y4702500D02*
Y4757500D01*
X5672500Y4730000D02*
X5727500D01*
X5365000Y655000D02*
Y845000D01*
Y655000D02*
X5455000D01*
X5365000Y845000D02*
X5455000D01*
Y655000D02*
Y845000D01*
X5410000Y722500D02*
Y777500D01*
X5382500Y750000D02*
X5437500D01*
X5255000Y655000D02*
Y845000D01*
Y655000D02*
X5345000D01*
X5255000Y845000D02*
X5345000D01*
Y655000D02*
Y845000D01*
X5300000Y722500D02*
Y777500D01*
X5272500Y750000D02*
X5327500D01*
X5425000Y4635000D02*
Y4825000D01*
Y4635000D02*
X5515000D01*
X5425000Y4825000D02*
X5515000D01*
Y4635000D02*
Y4825000D01*
X5470000Y4702500D02*
Y4757500D01*
X5442500Y4730000D02*
X5497500D01*
X4975000Y655000D02*
Y845000D01*
Y655000D02*
X5065000D01*
X4975000Y845000D02*
X5065000D01*
Y655000D02*
Y845000D01*
X5020000Y722500D02*
Y777500D01*
X4992500Y750000D02*
X5047500D01*
X5405000Y4635000D02*
Y4825000D01*
X5315000D02*
X5405000D01*
X5315000Y4635000D02*
X5405000D01*
X5315000D02*
Y4825000D01*
X5360000Y4702500D02*
Y4757500D01*
X5332500Y4730000D02*
X5387500D01*
X4835000Y655000D02*
Y845000D01*
Y655000D02*
X4925000D01*
X4835000Y845000D02*
X4925000D01*
Y655000D02*
Y845000D01*
X4880000Y722500D02*
Y777500D01*
X4852500Y750000D02*
X4907500D01*
X4025000Y655000D02*
Y845000D01*
Y655000D02*
X4115000D01*
X4025000Y845000D02*
X4115000D01*
Y655000D02*
Y845000D01*
X4070000Y722500D02*
Y777500D01*
X4042500Y750000D02*
X4097500D01*
X3975000Y655000D02*
Y845000D01*
X3885000D02*
X3975000D01*
X3885000Y655000D02*
X3975000D01*
X3885000D02*
Y845000D01*
X3930000Y722500D02*
Y777500D01*
X3902500Y750000D02*
X3957500D01*
X4045000Y4625000D02*
Y4815000D01*
X3955000D02*
X4045000D01*
X3955000Y4625000D02*
X4045000D01*
X3955000D02*
Y4815000D01*
X4000000Y4692500D02*
Y4747500D01*
X3972500Y4720000D02*
X4027500D01*
X4085000Y4625000D02*
Y4815000D01*
Y4625000D02*
X4175000D01*
X4085000Y4815000D02*
X4175000D01*
Y4625000D02*
Y4815000D01*
X4130000Y4692500D02*
Y4747500D01*
X4102500Y4720000D02*
X4157500D01*
X3685000Y4625000D02*
Y4815000D01*
X3595000D02*
X3685000D01*
X3595000Y4625000D02*
X3685000D01*
X3595000D02*
Y4815000D01*
X3640000Y4692500D02*
Y4747500D01*
X3612500Y4720000D02*
X3667500D01*
X3725000Y4625000D02*
Y4815000D01*
Y4625000D02*
X3815000D01*
X3725000Y4815000D02*
X3815000D01*
Y4625000D02*
Y4815000D01*
X3770000Y4692500D02*
Y4747500D01*
X3742500Y4720000D02*
X3797500D01*
X3455000Y4625000D02*
Y4815000D01*
X3365000D02*
X3455000D01*
X3365000Y4625000D02*
X3455000D01*
X3365000D02*
Y4815000D01*
X3410000Y4692500D02*
Y4747500D01*
X3382500Y4720000D02*
X3437500D01*
X6845000Y2105000D02*
X7035000D01*
Y2195000D01*
X6845000Y2105000D02*
Y2195000D01*
X7035000D01*
X6912500Y2150000D02*
X6967500D01*
X6940000Y2122500D02*
Y2177500D01*
X7595000Y4295000D02*
Y4485000D01*
Y4295000D02*
X7685000D01*
X7595000Y4485000D02*
X7685000D01*
Y4295000D02*
Y4485000D01*
X7640000Y4362500D02*
Y4417500D01*
X7612500Y4390000D02*
X7667500D01*
X7775000Y4295000D02*
Y4485000D01*
Y4295000D02*
X7865000D01*
X7775000Y4485000D02*
X7865000D01*
Y4295000D02*
Y4485000D01*
X7820000Y4362500D02*
Y4417500D01*
X7792500Y4390000D02*
X7847500D01*
X6075000Y1305000D02*
Y1495000D01*
Y1305000D02*
X6165000D01*
X6075000Y1495000D02*
X6165000D01*
Y1305000D02*
Y1495000D01*
X6120000Y1372500D02*
Y1427500D01*
X6092500Y1400000D02*
X6147500D01*
X6375000Y1305000D02*
Y1495000D01*
Y1305000D02*
X6465000D01*
X6375000Y1495000D02*
X6465000D01*
Y1305000D02*
Y1495000D01*
X6420000Y1372500D02*
Y1427500D01*
X6392500Y1400000D02*
X6447500D01*
X6175000Y1305000D02*
Y1495000D01*
Y1305000D02*
X6265000D01*
X6175000Y1495000D02*
X6265000D01*
Y1305000D02*
Y1495000D01*
X6220000Y1372500D02*
Y1427500D01*
X6192500Y1400000D02*
X6247500D01*
X6775000Y1235000D02*
X6965000D01*
X6775000Y1145000D02*
Y1235000D01*
X6965000Y1145000D02*
Y1235000D01*
X6775000Y1145000D02*
X6965000D01*
X6842500Y1190000D02*
X6897500D01*
X6870000Y1162500D02*
Y1217500D01*
X5545000Y4635000D02*
Y4825000D01*
Y4635000D02*
X5635000D01*
X5545000Y4825000D02*
X5635000D01*
Y4635000D02*
Y4825000D01*
X5590000Y4702500D02*
Y4757500D01*
X5562500Y4730000D02*
X5617500D01*
X6774999Y835000D02*
X6965000D01*
X6774999Y745000D02*
Y835000D01*
X6965000Y745000D02*
Y835000D01*
X6774999Y745000D02*
X6965000D01*
X6842500Y790000D02*
X6897500D01*
X6869999Y762500D02*
Y817500D01*
X4225000Y655000D02*
Y845000D01*
X4135000D02*
X4225000D01*
X4135000Y655000D02*
X4225000D01*
X4135000D02*
Y845000D01*
X4180000Y722500D02*
Y777500D01*
X4152500Y750000D02*
X4207500D01*
X6775000Y935000D02*
X6965000D01*
X6775000Y845000D02*
Y935000D01*
X6965000Y845000D02*
Y935000D01*
X6775000Y845000D02*
X6965000D01*
X6842500Y890000D02*
X6897500D01*
X6870000Y862500D02*
Y917500D01*
X3865000Y655000D02*
Y845000D01*
X3775000D02*
X3865000D01*
X3775000Y655000D02*
X3865000D01*
X3775000D02*
Y845000D01*
X3820000Y722500D02*
Y777500D01*
X3792500Y750000D02*
X3847500D01*
X6775000Y1035000D02*
X6965000D01*
X6775000Y945000D02*
Y1035000D01*
X6965000Y945000D02*
Y1035000D01*
X6775000Y945000D02*
X6965000D01*
X6842500Y990000D02*
X6897500D01*
X6870000Y962500D02*
Y1017500D01*
X5175000Y655000D02*
Y845000D01*
X5085000D02*
X5175000D01*
X5085000Y655000D02*
X5175000D01*
X5085000D02*
Y845000D01*
X5130000Y722500D02*
Y777500D01*
X5102500Y750000D02*
X5157500D01*
X6775000Y1135000D02*
X6965000D01*
X6775000Y1045000D02*
Y1135000D01*
X6965000Y1045000D02*
Y1135000D01*
X6775000Y1045000D02*
X6965000D01*
X6842500Y1090000D02*
X6897500D01*
X6870000Y1062500D02*
Y1117500D01*
X4815000Y655000D02*
Y845000D01*
X4725000D02*
X4815000D01*
X4725000Y655000D02*
X4815000D01*
X4725000D02*
Y845000D01*
X4770000Y722500D02*
Y777500D01*
X4742500Y750000D02*
X4797500D01*
X6775000Y1595000D02*
X6965000D01*
X6775000Y1505000D02*
Y1595000D01*
X6965000Y1505000D02*
Y1595000D01*
X6775000Y1505000D02*
X6965000D01*
X6842500Y1550000D02*
X6897500D01*
X6870000Y1522500D02*
Y1577500D01*
X5205000Y4635000D02*
Y4825000D01*
Y4635000D02*
X5295000D01*
X5205000Y4825000D02*
X5295000D01*
Y4635000D02*
Y4825000D01*
X5250000Y4702500D02*
Y4757500D01*
X5222500Y4730000D02*
X5277500D01*
X6775000Y1695000D02*
X6965000D01*
X6775000Y1605000D02*
Y1695000D01*
X6965000Y1605000D02*
Y1695000D01*
X6775000Y1605000D02*
X6965000D01*
X6842500Y1650000D02*
X6897500D01*
X6870000Y1622500D02*
Y1677500D01*
X3825000Y4625000D02*
Y4815000D01*
Y4625000D02*
X3915000D01*
X3825000Y4815000D02*
X3915000D01*
Y4625000D02*
Y4815000D01*
X3870000Y4692500D02*
Y4747500D01*
X3842500Y4720000D02*
X3897500D01*
X6775000Y1795000D02*
X6965000D01*
X6775000Y1705000D02*
Y1795000D01*
X6965000Y1705000D02*
Y1795000D01*
X6775000Y1705000D02*
X6965000D01*
X6842500Y1750000D02*
X6897500D01*
X6870000Y1722500D02*
Y1777500D01*
X3495000Y4625000D02*
Y4815000D01*
Y4625000D02*
X3585000D01*
X3495000Y4815000D02*
X3585000D01*
Y4625000D02*
Y4815000D01*
X3540000Y4692500D02*
Y4747500D01*
X3512500Y4720000D02*
X3567500D01*
X6775000Y1895000D02*
X6965000D01*
X6775000Y1805000D02*
Y1895000D01*
X6965000Y1805000D02*
Y1895000D01*
X6775000Y1805000D02*
X6965000D01*
X6842500Y1850000D02*
X6897500D01*
X6870000Y1822500D02*
Y1877500D01*
X6075000Y2115000D02*
Y2305000D01*
Y2115000D02*
X6165000D01*
X6075000Y2305000D02*
X6165000D01*
Y2115000D02*
Y2305000D01*
X6120000Y2182500D02*
Y2237500D01*
X6092500Y2210000D02*
X6147500D01*
X4185000Y4625000D02*
Y4815000D01*
Y4625000D02*
X4275000D01*
X4185000Y4815000D02*
X4275000D01*
Y4625000D02*
Y4815000D01*
X4230000Y4692500D02*
Y4747500D01*
X4202500Y4720000D02*
X4257500D01*
X6775000Y1995000D02*
X6965000D01*
X6775000Y1905000D02*
Y1995000D01*
X6965000Y1905000D02*
Y1995000D01*
X6775000Y1905000D02*
X6965000D01*
X6842500Y1950000D02*
X6897500D01*
X6870000Y1922500D02*
Y1977500D01*
X3265000Y4625000D02*
Y4815000D01*
Y4625000D02*
X3355000D01*
X3265000Y4815000D02*
X3355000D01*
Y4625000D02*
Y4815000D01*
X3310000Y4692500D02*
Y4747500D01*
X3282500Y4720000D02*
X3337500D01*
X6375000Y2115000D02*
Y2305000D01*
Y2115000D02*
X6465000D01*
X6375000Y2305000D02*
X6465000D01*
Y2115000D02*
Y2305000D01*
X6420000Y2182500D02*
Y2237500D01*
X6392500Y2210000D02*
X6447500D01*
X6175000Y2115000D02*
Y2305000D01*
Y2115000D02*
X6265000D01*
X6175000Y2305000D02*
X6265000D01*
Y2115000D02*
Y2305000D01*
X6220000Y2182500D02*
Y2237500D01*
X6192500Y2210000D02*
X6247500D01*
X2905000Y2655000D02*
X3095000D01*
Y2745000D01*
X2905000Y2655000D02*
Y2745000D01*
X3095000D01*
X2972500Y2700000D02*
X3027500D01*
X3000000Y2672500D02*
Y2727500D01*
X3515000Y3385000D02*
X3705000D01*
Y3475000D01*
X3515000Y3385000D02*
Y3475000D01*
X3705000D01*
X3582500Y3430000D02*
X3637500D01*
X3610000Y3402500D02*
Y3457500D01*
X3465000Y3485000D02*
X3655000D01*
Y3575000D01*
X3465000Y3485000D02*
Y3575000D01*
X3655000D01*
X3532500Y3530000D02*
X3587500D01*
X3560000Y3502500D02*
Y3557500D01*
X4275000Y3005000D02*
X4465000D01*
X4275000Y2915000D02*
Y3005000D01*
X4465000Y2915000D02*
Y3005000D01*
X4275000Y2915000D02*
X4465000D01*
X4342500Y2960000D02*
X4397500D01*
X4370000Y2932500D02*
Y2987500D01*
X3905000Y2655000D02*
X4095000D01*
Y2745000D01*
X3905000Y2655000D02*
Y2745000D01*
X4095000D01*
X3972500Y2700000D02*
X4027500D01*
X4000000Y2672500D02*
Y2727500D01*
X3515000Y3615000D02*
X3705000D01*
Y3705000D01*
X3515000Y3615000D02*
Y3705000D01*
X3705000D01*
X3582500Y3660000D02*
X3637500D01*
X3610000Y3632500D02*
Y3687500D01*
X4175000Y3434999D02*
X4365000D01*
X4175000Y3345000D02*
Y3434999D01*
X4365000Y3345000D02*
Y3434999D01*
X4175000Y3345000D02*
X4365000D01*
X4242500Y3390000D02*
X4297500D01*
X4270000Y3362499D02*
Y3417500D01*
X3705000Y2655000D02*
X3895000D01*
Y2745000D01*
X3705000Y2655000D02*
Y2745000D01*
X3895000D01*
X3772500Y2700000D02*
X3827500D01*
X3800000Y2672500D02*
Y2727500D01*
X2300000Y3235132D02*
X2500000D01*
X2300000Y2804161D02*
Y3235132D01*
X2500000Y2804161D02*
Y3235132D01*
X2300000Y2804161D02*
X2500000D01*
X2400000Y2970000D02*
Y3070000D01*
X2350000Y3020000D02*
X2450000D01*
X2735000Y3585000D02*
X2925000D01*
Y3675000D01*
X2735000Y3585000D02*
Y3675000D01*
X2925000D01*
X2802500Y3630000D02*
X2857500D01*
X2830000Y3602500D02*
Y3657500D01*
X2935000Y4265000D02*
X3125000D01*
Y4355000D01*
X2935000Y4265000D02*
Y4355000D01*
X3125000D01*
X3002500Y4310000D02*
X3057500D01*
X3030000Y4282500D02*
Y4337500D01*
X3225000Y4165000D02*
Y4355000D01*
X3135000D02*
X3225000D01*
X3135000Y4165000D02*
X3225000D01*
X3135000D02*
Y4355000D01*
X3180000Y4232500D02*
Y4287500D01*
X3152500Y4260000D02*
X3207500D01*
X4445000Y3845000D02*
Y4035000D01*
X4355000D02*
X4445000D01*
X4355000Y3845000D02*
X4445000D01*
X4355000D02*
Y4035000D01*
X4400000Y3912500D02*
Y3967500D01*
X4372500Y3940000D02*
X4427500D01*
X3135000Y3845000D02*
X3325000D01*
X3135000Y3755000D02*
Y3845000D01*
X3325000Y3755000D02*
Y3845000D01*
X3135000Y3755000D02*
X3325000D01*
X3202500Y3800000D02*
X3257500D01*
X3230000Y3772500D02*
Y3827500D01*
X2835000Y4165000D02*
Y4355000D01*
Y4165000D02*
X2925000D01*
X2835000Y4355000D02*
X2925000D01*
Y4165000D02*
Y4355000D01*
X2880000Y4232500D02*
Y4287500D01*
X2852500Y4260000D02*
X2907500D01*
X3515000Y3765000D02*
Y3955000D01*
X3425000D02*
X3515000D01*
X3425000Y3765000D02*
X3515000D01*
X3425000D02*
Y3955000D01*
X3470000Y3832500D02*
Y3887500D01*
X3442500Y3860000D02*
X3497500D01*
X4265000Y2655000D02*
X4455000D01*
Y2745000D01*
X4265000Y2655000D02*
Y2745000D01*
X4455000D01*
X4332500Y2700000D02*
X4387500D01*
X4360000Y2672500D02*
Y2727500D01*
X6115000Y3515000D02*
Y3705000D01*
X6025000D02*
X6115000D01*
X6025000Y3515000D02*
X6115000D01*
X6025000D02*
Y3705000D01*
X6070000Y3582500D02*
Y3637500D01*
X6042500Y3610000D02*
X6097500D01*
X4895000Y3145000D02*
X5085000D01*
X4895000Y3055000D02*
Y3145000D01*
X5085000Y3055000D02*
Y3145000D01*
X4895000Y3055000D02*
X5085000D01*
X4962500Y3100000D02*
X5017500D01*
X4990000Y3072500D02*
Y3127500D01*
X5925000Y3405000D02*
X6115000D01*
Y3495000D01*
X5925000Y3405000D02*
Y3495000D01*
X6115000D01*
X5992500Y3450000D02*
X6047500D01*
X6020000Y3422500D02*
Y3477500D01*
X6034868Y3910000D02*
Y4110000D01*
Y3910000D02*
X6465839D01*
X6034868Y4110000D02*
X6465839D01*
Y3910000D02*
Y4110000D01*
X6200000Y4010000D02*
X6300000D01*
X6250000Y3960000D02*
Y4060000D01*
X6170000Y4212500D02*
Y4267500D01*
X6142500Y4240000D02*
X6197500D01*
X6075000Y4195000D02*
X6265000D01*
X6075000Y4285000D02*
X6265000D01*
Y4195000D02*
Y4285000D01*
X6075000Y4195000D02*
Y4285000D01*
X4785000Y4245000D02*
X4975000D01*
Y4335000D01*
X4785000Y4245000D02*
Y4335000D01*
X4975000D01*
X4852500Y4290000D02*
X4907500D01*
X4880000Y4262500D02*
Y4317500D01*
X4795000Y3085000D02*
Y3275000D01*
Y3085000D02*
X4885000D01*
X4795000Y3275000D02*
X4885000D01*
Y3085000D02*
Y3275000D01*
X4840000Y3152500D02*
Y3207500D01*
X4812500Y3180000D02*
X4867500D01*
X4995000Y4335000D02*
X5185000D01*
X4995000Y4245000D02*
Y4335000D01*
X5185000Y4245000D02*
Y4335000D01*
X4995000Y4245000D02*
X5185000D01*
X5062500Y4290000D02*
X5117500D01*
X5090000Y4262500D02*
Y4317500D01*
X4895000Y3545000D02*
Y3735000D01*
X4805000D02*
X4895000D01*
X4805000Y3545000D02*
X4895000D01*
X4805000D02*
Y3735000D01*
X4850000Y3612500D02*
Y3667500D01*
X4822500Y3640000D02*
X4877500D01*
X5295000Y4125000D02*
Y4315000D01*
X5205000D02*
X5295000D01*
X5205000Y4125000D02*
X5295000D01*
X5205000D02*
Y4315000D01*
X5250000Y4192500D02*
Y4247500D01*
X5222500Y4220000D02*
X5277500D01*
X5555000Y3675000D02*
Y3865000D01*
X5465000D02*
X5555000D01*
X5465000Y3675000D02*
X5555000D01*
X5465000D02*
Y3865000D01*
X5510000Y3742500D02*
Y3797500D01*
X5482500Y3770000D02*
X5537500D01*
X5670000Y3792500D02*
Y3847500D01*
X5642500Y3820000D02*
X5697500D01*
X5575000Y3775000D02*
X5765000D01*
X5575000Y3865000D02*
X5765000D01*
Y3775000D02*
Y3865000D01*
X5575000Y3775000D02*
Y3865000D01*
X1580000Y975000D02*
X1730000D01*
X1580000Y1875000D02*
X1730000D01*
X1080000Y975000D02*
X1580000D01*
X1080000Y1875000D02*
X1580000D01*
X1080000Y975000D02*
Y1875000D01*
X1730000Y975000D02*
Y1875000D01*
X1570000Y1200000D02*
X1670000D01*
X1620000Y1150000D02*
Y1250000D01*
X2545000Y2515000D02*
X2645000D01*
X2595000Y2465000D02*
Y2565000D01*
X4575000Y2515000D02*
X4675000D01*
X4625000Y2465000D02*
Y2565000D01*
X1985000Y655000D02*
Y925000D01*
X2115000D01*
X1985000Y655000D02*
X2115000D01*
X2005000Y790000D02*
X2095000D01*
X2050000Y745000D02*
Y835000D01*
X2115000Y655000D02*
Y925000D01*
X4110000Y1530000D02*
Y1850000D01*
X4530000Y1530000D02*
Y1850000D01*
X4110000D02*
X4530000D01*
X4110000Y1530000D02*
X4530000D01*
X4270000Y1690000D02*
X4370000D01*
X4320000Y1640000D02*
Y1740000D01*
X3370000Y910000D02*
Y1230000D01*
X3790000Y910000D02*
Y1230000D01*
X3370000D02*
X3790000D01*
X3370000Y910000D02*
X3790000D01*
X3530000Y1070000D02*
X3630000D01*
X3580000Y1020000D02*
Y1120000D01*
X4115000Y1170000D02*
Y1490000D01*
X4535000Y1170000D02*
Y1490000D01*
X4115000D02*
X4535000D01*
X4115000Y1170000D02*
X4535000D01*
X4275000Y1330000D02*
X4375000D01*
X4325000Y1280000D02*
Y1380000D01*
X1825000Y655000D02*
Y925000D01*
X1955000D01*
X1825000Y655000D02*
X1955000D01*
X1845000Y790000D02*
X1935000D01*
X1890000Y745000D02*
Y835000D01*
X1955000Y655000D02*
Y925000D01*
X2810000Y1370000D02*
X3130000D01*
X2810000Y950000D02*
X3130000D01*
Y1370000D01*
X2810000Y950000D02*
Y1370000D01*
X2970000Y1110000D02*
Y1210000D01*
X2920000Y1160000D02*
X3020000D01*
X2810000Y1370000D02*
X3130000D01*
X2810000Y1790000D02*
X3130000D01*
X2810000Y1370000D02*
Y1790000D01*
X3130000Y1370000D02*
Y1790000D01*
X2970000Y1530000D02*
Y1630000D01*
X2920000Y1580000D02*
X3020000D01*
X5610000Y1830000D02*
X5930000D01*
X5610000Y2250000D02*
X5930000D01*
X5610000Y1830000D02*
Y2250000D01*
X5930000Y1830000D02*
Y2250000D01*
X5770000Y1990000D02*
Y2090000D01*
X5720000Y2040000D02*
X5820000D01*
X4725000Y1585000D02*
Y1855000D01*
X4855000D01*
X4725000Y1585000D02*
X4855000D01*
X4745000Y1720000D02*
X4835000D01*
X4790000Y1675000D02*
Y1765000D01*
X4855000Y1585000D02*
Y1855000D01*
X5510000Y1360000D02*
Y1680000D01*
X5090000Y1360000D02*
Y1680000D01*
Y1360000D02*
X5510000D01*
X5090000Y1680000D02*
X5510000D01*
X5250000Y1520000D02*
X5350000D01*
X5300000Y1470000D02*
Y1570000D01*
X2825000Y655000D02*
Y925000D01*
X2955000D01*
X2825000Y655000D02*
X2955000D01*
X2845000Y790000D02*
X2935000D01*
X2890000Y745000D02*
Y835000D01*
X2955000Y655000D02*
Y925000D01*
X2440000Y950000D02*
X2760000D01*
X2440000Y1370000D02*
X2760000D01*
X2440000Y950000D02*
Y1370000D01*
X2760000Y950000D02*
Y1370000D01*
X2600000Y1110000D02*
Y1210000D01*
X2550000Y1160000D02*
X2650000D01*
X2605000Y655000D02*
Y925000D01*
X2475000Y655000D02*
X2605000D01*
X2475000Y925000D02*
X2605000D01*
X2495000Y790000D02*
X2585000D01*
X2540000Y745000D02*
Y835000D01*
X2475000Y655000D02*
Y925000D01*
X2295000Y655000D02*
Y925000D01*
X2425000D01*
X2295000Y655000D02*
X2425000D01*
X2315000Y790000D02*
X2405000D01*
X2360000Y745000D02*
Y835000D01*
X2425000Y655000D02*
Y925000D01*
X6730000Y4400000D02*
X6830000D01*
X6780000Y4350000D02*
Y4450000D01*
X3150000Y800000D02*
X3250000D01*
X3200000Y750000D02*
Y850000D01*
X7070000Y800000D02*
X7170000D01*
X7120000Y750000D02*
Y850000D01*
X8063982Y170000D02*
Y290000D01*
X7795000Y170000D02*
X8063982D01*
X7885000Y230000D02*
X7975000D01*
X7930000Y185000D02*
Y275000D01*
X7835275Y290000D02*
X8063982D01*
X7795000Y249725D02*
X7835275Y290000D01*
X7795000Y170000D02*
Y249725D01*
X7794449Y210000D02*
Y290000D01*
X7874449D01*
X8063982Y5170000D02*
Y5290000D01*
X7795000Y5170000D02*
X8063982D01*
X7885000Y5230000D02*
X7975000D01*
X7930000Y5185000D02*
Y5275000D01*
X7835275Y5290000D02*
X8063982D01*
X7795000Y5249725D02*
X7835275Y5290000D01*
X7795000Y5170000D02*
Y5249725D01*
X7794449Y5210000D02*
Y5290000D01*
X7874449D01*
X2110000Y1120000D02*
Y1200000D01*
X2190000D01*
X2110000Y1100000D02*
Y1160674D01*
X2149326Y1200000D01*
X2347500D01*
Y1100000D02*
Y1200000D01*
X2110000Y1100000D02*
X2347500D01*
X2180000Y1150000D02*
X2280000D01*
X2230000Y1100000D02*
Y1200000D01*
X2320000Y1590000D02*
Y1670000D01*
X2240000Y1590000D02*
X2320000D01*
Y1629326D02*
Y1690000D01*
X2280674Y1590000D02*
X2320000Y1629326D01*
X2082500Y1590000D02*
X2280674D01*
X2082500D02*
Y1690000D01*
X2320000D01*
X2150000Y1640000D02*
X2250000D01*
X2200000Y1590000D02*
Y1690000D01*
X3053982Y1980000D02*
Y2100000D01*
X2785000Y1980000D02*
X3053982D01*
X2875000Y2040000D02*
X2965000D01*
X2920000Y1995000D02*
Y2085000D01*
X2825275Y2100000D02*
X3053982D01*
X2785000Y2059725D02*
X2825275Y2100000D01*
X2785000Y1980000D02*
Y2059725D01*
X2784449Y2020000D02*
Y2100000D01*
X2864449D01*
X5630000Y1260000D02*
X5710000D01*
Y1180000D02*
Y1260000D01*
X5610000D02*
X5670674D01*
X5710000Y1220674D01*
Y1022500D02*
Y1220674D01*
X5610000Y1022500D02*
X5710000D01*
X5610000D02*
Y1260000D01*
X5660000Y1090000D02*
Y1190000D01*
X5610000Y1140000D02*
X5710000D01*
X4980000Y1390000D02*
X5060000D01*
X4980000D02*
Y1470000D01*
X5019326Y1390000D02*
X5080000D01*
X4980000Y1429326D02*
X5019326Y1390000D01*
X4980000Y1429326D02*
Y1627500D01*
X5080000D01*
Y1390000D02*
Y1627500D01*
X5030000Y1460000D02*
Y1560000D01*
X4980000Y1510000D02*
X5080000D01*
X2110000Y980000D02*
Y1060000D01*
X2190000D01*
X2110000Y960000D02*
Y1020674D01*
X2149326Y1060000D01*
X2347500D01*
Y960000D02*
Y1060000D01*
X2110000Y960000D02*
X2347500D01*
X2180000Y1010000D02*
X2280000D01*
X2230000Y960000D02*
Y1060000D01*
X2600000Y2230000D02*
X2680000D01*
Y2150000D02*
Y2230000D01*
X2580000D02*
X2640674D01*
X2680000Y2190674D01*
Y1992500D02*
Y2190674D01*
X2580000Y1992500D02*
X2680000D01*
X2580000D02*
Y2230000D01*
X2630000Y2060000D02*
Y2160000D01*
X2580000Y2110000D02*
X2680000D01*
X6633982Y4640000D02*
Y4760000D01*
X6365000Y4640000D02*
X6633982D01*
X6455000Y4700000D02*
X6545000D01*
X6500000Y4655000D02*
Y4745000D01*
X6405275Y4760000D02*
X6633982D01*
X6365000Y4719725D02*
X6405275Y4760000D01*
X6365000Y4640000D02*
Y4719725D01*
X6364450Y4680000D02*
Y4760000D01*
X6444449D01*
X5103982Y4640000D02*
Y4760000D01*
X4835000Y4640000D02*
X5103982D01*
X4925000Y4700000D02*
X5015000D01*
X4970000Y4655000D02*
Y4745000D01*
X4875275Y4760000D02*
X5103982D01*
X4835000Y4719725D02*
X4875275Y4760000D01*
X4835000Y4640000D02*
Y4719725D01*
X4834450Y4680000D02*
Y4760000D01*
X4914449D01*
X6055000D02*
X6135000D01*
X6055000Y4680000D02*
Y4760000D01*
X6190000Y4655000D02*
Y4745000D01*
X6145000Y4700000D02*
X6235000D01*
X6055000Y4640000D02*
X6325000D01*
Y4760000D01*
X6095405D02*
X6325000D01*
X6055000Y4719595D02*
X6095405Y4760000D01*
X6055000Y4640000D02*
Y4719595D01*
X4525000Y4760000D02*
X4605000D01*
X4525000Y4680000D02*
Y4760000D01*
X4660000Y4655000D02*
Y4745000D01*
X4615000Y4700000D02*
X4705000D01*
X4525000Y4640000D02*
X4795000D01*
Y4760000D01*
X4565405D02*
X4795000D01*
X4525000Y4719595D02*
X4565405Y4760000D01*
X4525000Y4640000D02*
Y4719595D01*
X7675000Y930000D02*
X7755000D01*
X7675000Y850000D02*
Y930000D01*
X7810000Y825000D02*
Y915000D01*
X7765000Y870000D02*
X7855000D01*
X7675000Y810000D02*
X7945000D01*
Y930000D01*
X7715405D02*
X7945000D01*
X7675000Y889595D02*
X7715405Y930000D01*
X7675000Y810000D02*
Y889595D01*
X7605000Y4620000D02*
X7685000D01*
X7605000Y4540000D02*
Y4620000D01*
X7740000Y4515000D02*
Y4605000D01*
X7695000Y4560000D02*
X7785000D01*
X7605000Y4500000D02*
X7875000D01*
Y4620000D01*
X7645405D02*
X7875000D01*
X7605000Y4579595D02*
X7645405Y4620000D01*
X7605000Y4500000D02*
Y4579595D01*
X1355000Y4730000D02*
X1435000D01*
X1355000Y4650000D02*
Y4730000D01*
X1490000Y4625000D02*
Y4715000D01*
X1445000Y4670000D02*
X1535000D01*
X1355000Y4610000D02*
X1625000D01*
Y4730000D01*
X1395405D02*
X1625000D01*
X1355000Y4689595D02*
X1395405Y4730000D01*
X1355000Y4610000D02*
Y4689595D01*
X2295000Y3750000D02*
X2505000D01*
Y3310000D02*
Y3750000D01*
X2400000Y3480000D02*
Y3580000D01*
X2350000Y3530000D02*
X2450000D01*
X2295000Y3365459D02*
Y3750000D01*
Y3365459D02*
X2350459Y3310000D01*
X2505000D01*
X2295000D02*
X2375000D01*
X2295000D02*
Y3390000D01*
X7244903Y4645000D02*
X7335179D01*
X7245363Y4835000D02*
X7334936D01*
X7262500Y4740000D02*
X7317500D01*
X7290000Y4712500D02*
Y4767500D01*
X7244903Y4645000D02*
X7245363Y4835000D01*
X7334936D02*
X7335179Y4645000D01*
X6945000Y4194820D02*
Y4285097D01*
X7135000Y4195064D02*
Y4284636D01*
X7040000Y4212500D02*
Y4267500D01*
X7012500Y4240000D02*
X7067500D01*
X6945000Y4285097D02*
X7135000Y4284636D01*
X6945000Y4194820D02*
X7135000Y4195064D01*
X6865000Y3424903D02*
Y3515179D01*
X6675000Y3425363D02*
Y3514936D01*
X6770000Y3442500D02*
Y3497500D01*
X6742500Y3470000D02*
X6797500D01*
X6675000Y3425363D02*
X6865000Y3424903D01*
X6675000Y3514936D02*
X6865000Y3515179D01*
X7074903Y2255000D02*
X7165179D01*
X7075364Y2445000D02*
X7164936D01*
X7092500Y2350000D02*
X7147500D01*
X7120000Y2322500D02*
Y2377500D01*
X7074903Y2255000D02*
X7075364Y2445000D01*
X7164936D02*
X7165179Y2255000D01*
X7104903Y1885000D02*
X7195179D01*
X7105363Y2075000D02*
X7194936D01*
X7122500Y1980000D02*
X7177500D01*
X7150000Y1952500D02*
Y2007500D01*
X7104903Y1885000D02*
X7105363Y2075000D01*
X7194936D02*
X7195179Y1885000D01*
X7074903Y2645000D02*
X7165179D01*
X7075364Y2835000D02*
X7164936D01*
X7092500Y2740000D02*
X7147500D01*
X7120000Y2712500D02*
Y2767500D01*
X7074903Y2645000D02*
X7075364Y2835000D01*
X7164936D02*
X7165179Y2645000D01*
X7104903Y1515000D02*
X7195179D01*
X7105363Y1705000D02*
X7194936D01*
X7122500Y1610000D02*
X7177500D01*
X7150000Y1582500D02*
Y1637500D01*
X7104903Y1515000D02*
X7105363Y1705000D01*
X7194936D02*
X7195179Y1515000D01*
X7114903Y1145000D02*
X7205179D01*
X7115363Y1335000D02*
X7204936D01*
X7132500Y1240000D02*
X7187500D01*
X7160000Y1212500D02*
Y1267500D01*
X7114903Y1145000D02*
X7115363Y1335000D01*
X7204936D02*
X7205179Y1145000D01*
X8145000Y2734821D02*
Y2825097D01*
X8335000Y2735064D02*
Y2824636D01*
X8240000Y2752500D02*
Y2807500D01*
X8212500Y2780000D02*
X8267500D01*
X8145000Y2825097D02*
X8335000Y2824636D01*
X8145000Y2734821D02*
X8335000Y2735064D01*
Y2634903D02*
Y2725179D01*
X8145000Y2635364D02*
Y2724936D01*
X8240000Y2652500D02*
Y2707500D01*
X8212500Y2680000D02*
X8267500D01*
X8145000Y2635364D02*
X8335000Y2634903D01*
X8145000Y2724936D02*
X8335000Y2725179D01*
X7844903Y935000D02*
X7935179D01*
X7845364Y1125000D02*
X7934936D01*
X7862500Y1030000D02*
X7917500D01*
X7890000Y1002500D02*
Y1057500D01*
X7844903Y935000D02*
X7845364Y1125000D01*
X7934936D02*
X7935179Y935000D01*
X7874903Y4295000D02*
X7965179D01*
X7875363Y4485000D02*
X7964936D01*
X7892500Y4390000D02*
X7947500D01*
X7920000Y4362500D02*
Y4417500D01*
X7874903Y4295000D02*
X7875363Y4485000D01*
X7964936D02*
X7965179Y4295000D01*
X3300000Y1747500D02*
Y1832500D01*
X3257500Y1790000D02*
X3342500D01*
X3165000Y1730000D02*
X3435000D01*
X3165000Y1850000D02*
X3435000D01*
Y1730000D02*
Y1850000D01*
X3165000Y1730000D02*
Y1850000D01*
X4545000Y1485000D02*
X4735000D01*
X4545000Y1055000D02*
X4735000D01*
Y1485000D01*
X4545000Y1055000D02*
Y1485000D01*
X4640000Y1220000D02*
Y1320000D01*
X4590000Y1270000D02*
X4690000D01*
X4390000Y1057500D02*
Y1142500D01*
X4347500Y1100000D02*
X4432500D01*
X4255000Y1040000D02*
X4525000D01*
X4255000Y1160000D02*
X4525000D01*
Y1040000D02*
Y1160000D01*
X4255000Y1040000D02*
Y1160000D01*
X4245000Y975000D02*
Y1165000D01*
X3815000Y975000D02*
Y1165000D01*
Y975000D02*
X4245000D01*
X3815000Y1165000D02*
X4245000D01*
X3980000Y1070000D02*
X4080000D01*
X4030000Y1020000D02*
Y1120000D01*
X3815000Y874820D02*
Y965097D01*
X4005000Y875064D02*
Y964636D01*
X3910000Y892500D02*
Y947500D01*
X3882500Y920000D02*
X3937500D01*
X3815000Y965097D02*
X4005000Y964636D01*
X3815000Y874820D02*
X4005000Y875064D01*
X4395000Y2325000D02*
X4585000D01*
X4395000Y1895000D02*
X4585000D01*
Y2325000D01*
X4395000Y1895000D02*
Y2325000D01*
X4490000Y2060000D02*
Y2160000D01*
X4440000Y2110000D02*
X4540000D01*
X4557500Y1660000D02*
X4642500D01*
X4600000Y1617500D02*
Y1702500D01*
X4660000Y1525000D02*
Y1795000D01*
X4540000Y1525000D02*
Y1795000D01*
X4660000D01*
X4540000Y1525000D02*
X4660000D01*
X4095000Y1645000D02*
Y1835000D01*
X3665000Y1645000D02*
Y1835000D01*
Y1645000D02*
X4095000D01*
X3665000Y1835000D02*
X4095000D01*
X3830000Y1740000D02*
X3930000D01*
X3880000Y1690000D02*
Y1790000D01*
X3655000Y1614903D02*
Y1705179D01*
X3465000Y1615364D02*
Y1704936D01*
X3560000Y1632500D02*
Y1687500D01*
X3532500Y1660000D02*
X3587500D01*
X3465000Y1615364D02*
X3655000Y1614903D01*
X3465000Y1704936D02*
X3655000Y1705179D01*
X3645000Y1744903D02*
Y1835179D01*
X3455000Y1745364D02*
Y1834936D01*
X3550000Y1762500D02*
Y1817500D01*
X3522500Y1790000D02*
X3577500D01*
X3455000Y1745364D02*
X3645000Y1744903D01*
X3455000Y1834936D02*
X3645000Y1835179D01*
X3177500Y1580000D02*
X3262500D01*
X3220000Y1537500D02*
Y1622500D01*
X3160000Y1445000D02*
Y1715000D01*
X3280000Y1445000D02*
Y1715000D01*
X3160000Y1445000D02*
X3280000D01*
X3160000Y1715000D02*
X3280000D01*
X3794903Y1175000D02*
X3885179D01*
X3795364Y1365000D02*
X3884936D01*
X3812500Y1270000D02*
X3867500D01*
X3840000Y1242500D02*
Y1297500D01*
X3794903Y1175000D02*
X3795364Y1365000D01*
X3884936D02*
X3885179Y1175000D01*
X3174821Y1445000D02*
X3265097D01*
X3175065Y1255000D02*
X3264637D01*
X3192500Y1350000D02*
X3247500D01*
X3220000Y1322500D02*
Y1377500D01*
X3264637Y1255000D02*
X3265097Y1445000D01*
X3174821D02*
X3175065Y1255000D01*
X4014903Y1185000D02*
X4105179D01*
X4015364Y1375000D02*
X4104936D01*
X4032500Y1280000D02*
X4087500D01*
X4060000Y1252500D02*
Y1307500D01*
X4014903Y1185000D02*
X4015364Y1375000D01*
X4104936D02*
X4105179Y1185000D01*
X2640000Y1627500D02*
Y1712500D01*
X2597500Y1670000D02*
X2682500D01*
X2505000Y1610000D02*
X2775000D01*
X2505000Y1730000D02*
X2775000D01*
Y1610000D02*
Y1730000D01*
X2505000Y1610000D02*
Y1730000D01*
X5655000Y1715000D02*
X5845000D01*
X5655000Y1285000D02*
X5845000D01*
Y1715000D01*
X5655000Y1285000D02*
Y1715000D01*
X5750000Y1450000D02*
Y1550000D01*
X5700000Y1500000D02*
X5800000D01*
X2345000Y1395000D02*
Y1585000D01*
X2775000Y1395000D02*
Y1585000D01*
X2345000D02*
X2775000D01*
X2345000Y1395000D02*
X2775000D01*
X2510000Y1490000D02*
X2610000D01*
X2560000Y1440000D02*
Y1540000D01*
X1950000Y977500D02*
Y1062500D01*
X1907500Y1020000D02*
X1992500D01*
X1815000Y1080000D02*
X2085000D01*
X1815000Y960000D02*
X2085000D01*
X1815000D02*
Y1080000D01*
X2085000Y960000D02*
Y1080000D01*
X3175000Y1044820D02*
Y1135097D01*
X3365000Y1045064D02*
Y1134636D01*
X3270000Y1062500D02*
Y1117500D01*
X3242500Y1090000D02*
X3297500D01*
X3175000Y1135097D02*
X3365000Y1134636D01*
X3175000Y1044820D02*
X3365000Y1045064D01*
Y1144903D02*
Y1235179D01*
X3175000Y1145363D02*
Y1234936D01*
X3270000Y1162500D02*
Y1217500D01*
X3242500Y1190000D02*
X3297500D01*
X3175000Y1145363D02*
X3365000Y1144903D01*
X3175000Y1234936D02*
X3365000Y1235179D01*
X4277500Y2160000D02*
X4362500D01*
X4320000Y2117500D02*
Y2202500D01*
X4260000Y2025000D02*
Y2295000D01*
X4380000Y2025000D02*
Y2295000D01*
X4260000Y2025000D02*
X4380000D01*
X4260000Y2295000D02*
X4380000D01*
X3875000Y2334903D02*
Y2425180D01*
X3685000Y2335364D02*
Y2424936D01*
X3780000Y2352500D02*
Y2407500D01*
X3752500Y2380000D02*
X3807500D01*
X3685000Y2335364D02*
X3875000Y2334903D01*
X3685000Y2424936D02*
X3875000Y2425180D01*
X2917500Y4680000D02*
X3002500D01*
X2960000Y4637500D02*
Y4722500D01*
X3020000Y4545000D02*
Y4815000D01*
X2900000Y4545000D02*
Y4815000D01*
X3020000D01*
X2900000Y4545000D02*
X3020000D01*
X3557500Y2090000D02*
X3642500D01*
X3600000Y2047500D02*
Y2132500D01*
X3540000Y1955000D02*
Y2225000D01*
X3660000Y1955000D02*
Y2225000D01*
X3540000Y1955000D02*
X3660000D01*
X3540000Y2225000D02*
X3660000D01*
X4945000Y2184821D02*
Y2275097D01*
X5135000Y2185064D02*
Y2274637D01*
X5040000Y2202500D02*
Y2257500D01*
X5012500Y2230000D02*
X5067500D01*
X4945000Y2275097D02*
X5135000Y2274637D01*
X4945000Y2184821D02*
X5135000Y2185064D01*
X5537500Y1500000D02*
X5622500D01*
X5580000Y1457500D02*
Y1542500D01*
X5520000Y1365000D02*
Y1635000D01*
X5640000Y1365000D02*
Y1635000D01*
X5520000Y1365000D02*
X5640000D01*
X5520000Y1635000D02*
X5640000D01*
X5494821Y1215000D02*
X5585097D01*
X5495064Y1025000D02*
X5584637D01*
X5512500Y1120000D02*
X5567500D01*
X5540000Y1092500D02*
Y1147500D01*
X5584637Y1025000D02*
X5585097Y1215000D01*
X5494821D02*
X5495064Y1025000D01*
X5010000Y1707500D02*
Y1792500D01*
X4967500Y1750000D02*
X5052500D01*
X4875000Y1810000D02*
X5145000D01*
X4875000Y1690000D02*
X5145000D01*
X4875000D02*
Y1810000D01*
X5145000Y1690000D02*
Y1810000D01*
X5365000Y2265000D02*
Y2455000D01*
X5795000Y2265000D02*
Y2455000D01*
X5365000D02*
X5795000D01*
X5365000Y2265000D02*
X5795000D01*
X5530000Y2360000D02*
X5630000D01*
X5580000Y2310000D02*
Y2410000D01*
X5775000Y3435000D02*
Y3625000D01*
X5345000Y3435000D02*
Y3625000D01*
Y3435000D02*
X5775000D01*
X5345000Y3625000D02*
X5775000D01*
X5510000Y3530000D02*
X5610000D01*
X5560000Y3480000D02*
Y3580000D01*
X5450000Y1707500D02*
Y1792500D01*
X5407500Y1750000D02*
X5492500D01*
X5315000Y1690000D02*
X5585000D01*
X5315000Y1810000D02*
X5585000D01*
Y1690000D02*
Y1810000D01*
X5315000Y1690000D02*
Y1810000D01*
X5504903Y1895000D02*
X5595180D01*
X5505364Y2085000D02*
X5594936D01*
X5522500Y1990000D02*
X5577500D01*
X5550000Y1962500D02*
Y2017500D01*
X5504903Y1895000D02*
X5505364Y2085000D01*
X5594936D02*
X5595180Y1895000D01*
X4834903Y1885000D02*
X4925179D01*
X4835363Y2075000D02*
X4924936D01*
X4852500Y1980000D02*
X4907500D01*
X4880000Y1952500D02*
Y2007500D01*
X4834903Y1885000D02*
X4835363Y2075000D01*
X4924936D02*
X4925179Y1885000D01*
X5375000Y2164820D02*
Y2255097D01*
X5565000Y2165064D02*
Y2254636D01*
X5470000Y2182500D02*
Y2237500D01*
X5442500Y2210000D02*
X5497500D01*
X5375000Y2255097D02*
X5565000Y2254636D01*
X5375000Y2164820D02*
X5565000Y2165064D01*
X4635000Y2325000D02*
X4825000D01*
X4635000Y1895000D02*
X4825000D01*
Y2325000D01*
X4635000Y1895000D02*
Y2325000D01*
X4730000Y2060000D02*
Y2160000D01*
X4680000Y2110000D02*
X4780000D01*
X4775000Y975000D02*
X4965000D01*
X4775000Y1405000D02*
X4965000D01*
X4775000Y975000D02*
Y1405000D01*
X4965000Y975000D02*
Y1405000D01*
X4870000Y1140000D02*
Y1240000D01*
X4820000Y1190000D02*
X4920000D01*
X4874903Y1415000D02*
X4965180D01*
X4875364Y1605000D02*
X4964936D01*
X4892500Y1510000D02*
X4947500D01*
X4920000Y1482500D02*
Y1537500D01*
X4874903Y1415000D02*
X4875364Y1605000D01*
X4964936D02*
X4965180Y1415000D01*
X1965000Y1304903D02*
Y1395180D01*
X1775000Y1305364D02*
Y1394936D01*
X1870000Y1322500D02*
Y1377500D01*
X1842500Y1350000D02*
X1897500D01*
X1775000Y1305364D02*
X1965000Y1304903D01*
X1775000Y1394936D02*
X1965000Y1395180D01*
X2584903Y2235000D02*
X2675180D01*
X2585364Y2425000D02*
X2674936D01*
X2602500Y2330000D02*
X2657500D01*
X2630000Y2302500D02*
Y2357500D01*
X2584903Y2235000D02*
X2585364Y2425000D01*
X2674936D02*
X2675180Y2235000D01*
X3325000Y2364821D02*
Y2455097D01*
X3515000Y2365064D02*
Y2454636D01*
X3420000Y2382500D02*
Y2437500D01*
X3392500Y2410000D02*
X3447500D01*
X3325000Y2455097D02*
X3515000Y2454636D01*
X3325000Y2364821D02*
X3515000Y2365064D01*
X2167500Y790000D02*
X2252500D01*
X2210000Y747500D02*
Y832500D01*
X2270000Y655000D02*
Y925000D01*
X2150000Y655000D02*
Y925000D01*
X2270000D01*
X2150000Y655000D02*
X2270000D01*
X2667500Y790000D02*
X2752500D01*
X2710000Y747500D02*
Y832500D01*
X2770000Y655000D02*
Y925000D01*
X2650000Y655000D02*
Y925000D01*
X2770000D01*
X2650000Y655000D02*
X2770000D01*
X6645000Y2104821D02*
Y2195097D01*
X6835000Y2105064D02*
Y2194636D01*
X6740000Y2122500D02*
Y2177500D01*
X6712500Y2150000D02*
X6767500D01*
X6645000Y2195097D02*
X6835000Y2194636D01*
X6645000Y2104821D02*
X6835000Y2105064D01*
X6645000Y2204821D02*
Y2295097D01*
X6835000Y2205064D02*
Y2294637D01*
X6740000Y2222500D02*
Y2277500D01*
X6712500Y2250000D02*
X6767500D01*
X6645000Y2295097D02*
X6835000Y2294637D01*
X6645000Y2204821D02*
X6835000Y2205064D01*
X6845000Y2204821D02*
Y2295097D01*
X7035000Y2205064D02*
Y2294637D01*
X6940000Y2222500D02*
Y2277500D01*
X6912500Y2250000D02*
X6967500D01*
X6845000Y2295097D02*
X7035000Y2294637D01*
X6845000Y2204821D02*
X7035000Y2205064D01*
X7734903Y3235000D02*
X7825179D01*
X7735363Y3425000D02*
X7824936D01*
X7752500Y3330000D02*
X7807500D01*
X7780000Y3302500D02*
Y3357500D01*
X7734903Y3235000D02*
X7735363Y3425000D01*
X7824936D02*
X7825179Y3235000D01*
X7774821Y3875000D02*
X7865097D01*
X7775064Y3685000D02*
X7864637D01*
X7792500Y3780000D02*
X7847500D01*
X7820000Y3752500D02*
Y3807500D01*
X7864637Y3685000D02*
X7865097Y3875000D01*
X7774821D02*
X7775064Y3685000D01*
X6764903Y3725000D02*
X6855180D01*
X6765364Y3915000D02*
X6854936D01*
X6782500Y3820000D02*
X6837500D01*
X6810000Y3792500D02*
Y3847500D01*
X6764903Y3725000D02*
X6765364Y3915000D01*
X6854936D02*
X6855180Y3725000D01*
X6274821Y2305000D02*
X6365097D01*
X6275064Y2115000D02*
X6364636D01*
X6292500Y2210000D02*
X6347500D01*
X6320000Y2182500D02*
Y2237500D01*
X6364636Y2115000D02*
X6365097Y2305000D01*
X6274821D02*
X6275064Y2115000D01*
X6274821Y1495000D02*
X6365097D01*
X6275064Y1305000D02*
X6364636D01*
X6292500Y1400000D02*
X6347500D01*
X6320000Y1372500D02*
Y1427500D01*
X6364636Y1305000D02*
X6365097Y1495000D01*
X6274821D02*
X6275064Y1305000D01*
X3614903Y655000D02*
X3705180D01*
X3615364Y845000D02*
X3704936D01*
X3632500Y750000D02*
X3687500D01*
X3660000Y722500D02*
Y777500D01*
X3614903Y655000D02*
X3615364Y845000D01*
X3704936D02*
X3705180Y655000D01*
X4564903D02*
X4655179D01*
X4565363Y845000D02*
X4654936D01*
X4582500Y750000D02*
X4637500D01*
X4610000Y722500D02*
Y777500D01*
X4564903Y655000D02*
X4565363Y845000D01*
X4654936D02*
X4655179Y655000D01*
X6474903Y1305000D02*
X6565179D01*
X6475363Y1495000D02*
X6564936D01*
X6492500Y1400000D02*
X6547500D01*
X6520000Y1372500D02*
Y1427500D01*
X6474903Y1305000D02*
X6475363Y1495000D01*
X6564936D02*
X6565179Y1305000D01*
X6965000Y644903D02*
Y735180D01*
X6775000Y645364D02*
Y734936D01*
X6870000Y662500D02*
Y717500D01*
X6842500Y690000D02*
X6897500D01*
X6775000Y645364D02*
X6965000Y644903D01*
X6775000Y734936D02*
X6965000Y735180D01*
X6935000Y2004903D02*
Y2095179D01*
X6745000Y2005364D02*
Y2094936D01*
X6840000Y2022500D02*
Y2077500D01*
X6812500Y2050000D02*
X6867500D01*
X6745000Y2005364D02*
X6935000Y2004903D01*
X6745000Y2094936D02*
X6935000Y2095179D01*
X6474903Y2115000D02*
X6565180D01*
X6475364Y2305000D02*
X6564936D01*
X6492500Y2210000D02*
X6547500D01*
X6520000Y2182500D02*
Y2237500D01*
X6474903Y2115000D02*
X6475364Y2305000D01*
X6564936D02*
X6565180Y2115000D01*
X2935000Y3744821D02*
Y3835097D01*
X3125000Y3745064D02*
Y3834636D01*
X3030000Y3762500D02*
Y3817500D01*
X3002500Y3790000D02*
X3057500D01*
X2935000Y3835097D02*
X3125000Y3834636D01*
X2935000Y3744821D02*
X3125000Y3745064D01*
X2925000Y3744903D02*
Y3835180D01*
X2735000Y3745364D02*
Y3834936D01*
X2830000Y3762500D02*
Y3817500D01*
X2802500Y3790000D02*
X2857500D01*
X2735000Y3745364D02*
X2925000Y3744903D01*
X2735000Y3834936D02*
X2925000Y3835180D01*
X3545000Y3284903D02*
Y3375179D01*
X3355000Y3285364D02*
Y3374936D01*
X3450000Y3302500D02*
Y3357500D01*
X3422500Y3330000D02*
X3477500D01*
X3355000Y3285364D02*
X3545000Y3284903D01*
X3355000Y3374936D02*
X3545000Y3375179D01*
Y3184903D02*
Y3275179D01*
X3355000Y3185363D02*
Y3274936D01*
X3450000Y3202500D02*
Y3257500D01*
X3422500Y3230000D02*
X3477500D01*
X3355000Y3185363D02*
X3545000Y3184903D01*
X3355000Y3274936D02*
X3545000Y3275179D01*
X4275000Y3144820D02*
Y3235097D01*
X4465000Y3145064D02*
Y3234636D01*
X4370000Y3162500D02*
Y3217500D01*
X4342500Y3190000D02*
X4397500D01*
X4275000Y3235097D02*
X4465000Y3234636D01*
X4275000Y3144820D02*
X4465000Y3145064D01*
X4275000Y3244821D02*
Y3335097D01*
X4465000Y3245064D02*
Y3334636D01*
X4370000Y3262500D02*
Y3317500D01*
X4342500Y3290000D02*
X4397500D01*
X4275000Y3335097D02*
X4465000Y3334636D01*
X4275000Y3244821D02*
X4465000Y3245064D01*
X3425000Y4244903D02*
Y4335179D01*
X3235000Y4245363D02*
Y4334935D01*
X3330000Y4262500D02*
Y4317500D01*
X3302500Y4290000D02*
X3357500D01*
X3235000Y4245363D02*
X3425000Y4244903D01*
X3235000Y4334935D02*
X3425000Y4335179D01*
X3625000Y4244903D02*
Y4335179D01*
X3435000Y4245363D02*
Y4334935D01*
X3530000Y4262500D02*
Y4317500D01*
X3502500Y4290000D02*
X3557500D01*
X3435000Y4245363D02*
X3625000Y4244903D01*
X3435000Y4334935D02*
X3625000Y4335179D01*
X4294820Y4815000D02*
X4385097D01*
X4295064Y4625000D02*
X4384636D01*
X4312500Y4720000D02*
X4367500D01*
X4340000Y4692500D02*
Y4747500D01*
X4384636Y4625000D02*
X4385097Y4815000D01*
X4294820D02*
X4295064Y4625000D01*
X4354821Y4355000D02*
X4445097D01*
X4355064Y4165000D02*
X4444637D01*
X4372500Y4260000D02*
X4427500D01*
X4400000Y4232500D02*
Y4287500D01*
X4444637Y4165000D02*
X4445097Y4355000D01*
X4354821D02*
X4355064Y4165000D01*
X3157500Y2770000D02*
X3242500D01*
X3200000Y2727500D02*
Y2812500D01*
X3260000Y2635000D02*
Y2905000D01*
X3140000Y2635000D02*
Y2905000D01*
X3260000D01*
X3140000Y2635000D02*
X3260000D01*
X3154820Y3135000D02*
X3245097D01*
X3155064Y2945000D02*
X3244636D01*
X3172500Y3040000D02*
X3227500D01*
X3200000Y3012500D02*
Y3067500D01*
X3244636Y2945000D02*
X3245097Y3135000D01*
X3154820D02*
X3155064Y2945000D01*
X3154903Y3145000D02*
X3245179D01*
X3155364Y3335000D02*
X3244936D01*
X3172500Y3240000D02*
X3227500D01*
X3200000Y3212500D02*
Y3267500D01*
X3154903Y3145000D02*
X3155364Y3335000D01*
X3244936D02*
X3245179Y3145000D01*
X6377500Y2800000D02*
X6462500D01*
X6420000Y2757500D02*
Y2842500D01*
X6480000Y2665000D02*
Y2935000D01*
X6360000Y2665000D02*
Y2935000D01*
X6480000D01*
X6360000Y2665000D02*
X6480000D01*
X2734821Y3145000D02*
X2825097D01*
X2735064Y2955000D02*
X2824636D01*
X2752500Y3050000D02*
X2807500D01*
X2780000Y3022500D02*
Y3077500D01*
X2824636Y2955000D02*
X2825097Y3145000D01*
X2734821D02*
X2735064Y2955000D01*
X2734903Y3155000D02*
X2825180D01*
X2735364Y3345000D02*
X2824936D01*
X2752500Y3250000D02*
X2807500D01*
X2780000Y3222500D02*
Y3277500D01*
X2734903Y3155000D02*
X2735364Y3345000D01*
X2824936D02*
X2825180Y3155000D01*
X3304820Y3575000D02*
X3395097D01*
X3305064Y3385000D02*
X3394636D01*
X3322500Y3480000D02*
X3377500D01*
X3350000Y3452500D02*
Y3507500D01*
X3394636Y3385000D02*
X3395097Y3575000D01*
X3304820D02*
X3305064Y3385000D01*
X2925000Y3384903D02*
Y3475179D01*
X2735000Y3385364D02*
Y3474936D01*
X2830000Y3402500D02*
Y3457500D01*
X2802500Y3430000D02*
X2857500D01*
X2735000Y3385364D02*
X2925000Y3384903D01*
X2735000Y3474936D02*
X2925000Y3475179D01*
X4195000Y3524820D02*
Y3615097D01*
X4385000Y3525064D02*
Y3614636D01*
X4290000Y3542500D02*
Y3597500D01*
X4262500Y3570000D02*
X4317500D01*
X4195000Y3615097D02*
X4385000Y3614636D01*
X4195000Y3524820D02*
X4385000Y3525064D01*
X4384903Y3415000D02*
X4475180D01*
X4385364Y3605000D02*
X4474936D01*
X4402500Y3510000D02*
X4457500D01*
X4430000Y3482500D02*
Y3537500D01*
X4384903Y3415000D02*
X4385364Y3605000D01*
X4474936D02*
X4475180Y3415000D01*
X3410000Y3047500D02*
Y3132500D01*
X3367500Y3090000D02*
X3452500D01*
X3275000Y3030000D02*
X3545000D01*
X3275000Y3150000D02*
X3545000D01*
Y3030000D02*
Y3150000D01*
X3275000Y3030000D02*
Y3150000D01*
X3410000Y2797500D02*
Y2882500D01*
X3367500Y2840000D02*
X3452500D01*
X3275000Y2780000D02*
X3545000D01*
X3275000Y2900000D02*
X3545000D01*
Y2780000D02*
Y2900000D01*
X3275000Y2780000D02*
Y2900000D01*
X3545000Y2914903D02*
Y3005179D01*
X3355000Y2915363D02*
Y3004936D01*
X3450000Y2932500D02*
Y2987500D01*
X3422500Y2960000D02*
X3477500D01*
X3355000Y2915363D02*
X3545000Y2914903D01*
X3355000Y3004936D02*
X3545000Y3005179D01*
X4195000Y3724821D02*
Y3815097D01*
X4385000Y3725064D02*
Y3814637D01*
X4290000Y3742500D02*
Y3797500D01*
X4262500Y3770000D02*
X4317500D01*
X4195000Y3815097D02*
X4385000Y3814637D01*
X4195000Y3724821D02*
X4385000Y3725064D01*
X4195000Y3624821D02*
Y3715097D01*
X4385000Y3625064D02*
Y3714636D01*
X4290000Y3642500D02*
Y3697500D01*
X4262500Y3670000D02*
X4317500D01*
X4195000Y3715097D02*
X4385000Y3714636D01*
X4195000Y3624821D02*
X4385000Y3625064D01*
X3305000Y3584821D02*
Y3675097D01*
X3495000Y3585064D02*
Y3674637D01*
X3400000Y3602500D02*
Y3657500D01*
X3372500Y3630000D02*
X3427500D01*
X3305000Y3675097D02*
X3495000Y3674637D01*
X3305000Y3584821D02*
X3495000Y3585064D01*
X2734821Y2935000D02*
X2825097D01*
X2735064Y2745000D02*
X2824636D01*
X2752500Y2840000D02*
X2807500D01*
X2780000Y2812500D02*
Y2867500D01*
X2824636Y2745000D02*
X2825097Y2935000D01*
X2734821D02*
X2735064Y2745000D01*
X2925000Y3484903D02*
Y3575180D01*
X2735000Y3485364D02*
Y3574936D01*
X2830000Y3502500D02*
Y3557500D01*
X2802500Y3530000D02*
X2857500D01*
X2735000Y3485364D02*
X2925000Y3484903D01*
X2735000Y3574936D02*
X2925000Y3575180D01*
X3490000Y4127500D02*
Y4212500D01*
X3447500Y4170000D02*
X3532500D01*
X3355000Y4110000D02*
X3625000D01*
X3355000Y4230000D02*
X3625000D01*
Y4110000D02*
Y4230000D01*
X3355000Y4110000D02*
Y4230000D01*
X3490000Y3997500D02*
Y4082500D01*
X3447500Y4040000D02*
X3532500D01*
X3355000Y3980000D02*
X3625000D01*
X3355000Y4100000D02*
X3625000D01*
Y3980000D02*
Y4100000D01*
X3355000Y3980000D02*
Y4100000D01*
X3534820Y3975000D02*
X3625097D01*
X3535064Y3785000D02*
X3624636D01*
X3552500Y3880000D02*
X3607500D01*
X3580000Y3852500D02*
Y3907500D01*
X3624636Y3785000D02*
X3625097Y3975000D01*
X3534820D02*
X3535064Y3785000D01*
X2734903Y4165000D02*
X2825180D01*
X2735364Y4355000D02*
X2824936D01*
X2752500Y4260000D02*
X2807500D01*
X2780000Y4232500D02*
Y4287500D01*
X2734903Y4165000D02*
X2735364Y4355000D01*
X2824936D02*
X2825180Y4165000D01*
X2935000Y4164820D02*
Y4255097D01*
X3125000Y4165064D02*
Y4254636D01*
X3030000Y4182500D02*
Y4237500D01*
X3002500Y4210000D02*
X3057500D01*
X2935000Y4255097D02*
X3125000Y4254636D01*
X2935000Y4164820D02*
X3125000Y4165064D01*
X3324903Y3765000D02*
X3415180D01*
X3325364Y3955000D02*
X3414936D01*
X3342500Y3860000D02*
X3397500D01*
X3370000Y3832500D02*
Y3887500D01*
X3324903Y3765000D02*
X3325364Y3955000D01*
X3414936D02*
X3415180Y3765000D01*
X4275000Y2784820D02*
Y2875097D01*
X4465000Y2785064D02*
Y2874636D01*
X4370000Y2802500D02*
Y2857500D01*
X4342500Y2830000D02*
X4397500D01*
X4275000Y2875097D02*
X4465000Y2874636D01*
X4275000Y2784820D02*
X4465000Y2785064D01*
X6247500Y2800000D02*
X6332500D01*
X6290000Y2757500D02*
Y2842500D01*
X6230000Y2665000D02*
Y2935000D01*
X6350000Y2665000D02*
Y2935000D01*
X6230000Y2665000D02*
X6350000D01*
X6230000Y2935000D02*
X6350000D01*
X5130000Y3347500D02*
Y3432500D01*
X5087500Y3390000D02*
X5172500D01*
X4995000Y3450000D02*
X5265000D01*
X4995000Y3330000D02*
X5265000D01*
X4995000D02*
Y3450000D01*
X5265000Y3330000D02*
Y3450000D01*
X2467500Y4540000D02*
X2552500D01*
X2510000Y4497500D02*
Y4582500D01*
X2450000Y4405000D02*
Y4675000D01*
X2570000Y4405000D02*
Y4675000D01*
X2450000Y4405000D02*
X2570000D01*
X2450000Y4675000D02*
X2570000D01*
X5845000Y2684820D02*
Y2775097D01*
X6035000Y2685064D02*
Y2774636D01*
X5940000Y2702500D02*
Y2757500D01*
X5912500Y2730000D02*
X5967500D01*
X5845000Y2775097D02*
X6035000Y2774636D01*
X5845000Y2684820D02*
X6035000Y2685064D01*
X5845000Y2784820D02*
Y2875097D01*
X6035000Y2785064D02*
Y2874636D01*
X5940000Y2802500D02*
Y2857500D01*
X5912500Y2830000D02*
X5967500D01*
X5845000Y2875097D02*
X6035000Y2874636D01*
X5845000Y2784820D02*
X6035000Y2785064D01*
X4904903Y2735000D02*
X4995179D01*
X4905364Y2925000D02*
X4994936D01*
X4922500Y2830000D02*
X4977500D01*
X4950000Y2802500D02*
Y2857500D01*
X4904903Y2735000D02*
X4905364Y2925000D01*
X4994936D02*
X4995179Y2735000D01*
X5004903D02*
X5095180D01*
X5005364Y2925000D02*
X5094936D01*
X5022500Y2830000D02*
X5077500D01*
X5050000Y2802500D02*
Y2857500D01*
X5004903Y2735000D02*
X5005364Y2925000D01*
X5094936D02*
X5095180Y2735000D01*
X6117500Y2800000D02*
X6202500D01*
X6160000Y2757500D02*
Y2842500D01*
X6220000Y2665000D02*
Y2935000D01*
X6100000Y2665000D02*
Y2935000D01*
X6220000D01*
X6100000Y2665000D02*
X6220000D01*
X6075000Y3044820D02*
Y3135097D01*
X6265000Y3045064D02*
Y3134636D01*
X6170000Y3062500D02*
Y3117500D01*
X6142500Y3090000D02*
X6197500D01*
X6075000Y3135097D02*
X6265000Y3134636D01*
X6075000Y3044820D02*
X6265000Y3045064D01*
X6075000Y3144820D02*
Y3235097D01*
X6265000Y3145064D02*
Y3234636D01*
X6170000Y3162500D02*
Y3217500D01*
X6142500Y3190000D02*
X6197500D01*
X6075000Y3235097D02*
X6265000Y3234636D01*
X6075000Y3144820D02*
X6265000Y3145064D01*
X3557500Y2370000D02*
X3642500D01*
X3600000Y2327500D02*
Y2412500D01*
X3660000Y2235000D02*
Y2505000D01*
X3540000Y2235000D02*
Y2505000D01*
X3660000D01*
X3540000Y2235000D02*
X3660000D01*
X6465000Y3044903D02*
Y3135179D01*
X6275000Y3045363D02*
Y3134936D01*
X6370000Y3062500D02*
Y3117500D01*
X6342500Y3090000D02*
X6397500D01*
X6275000Y3045363D02*
X6465000Y3044903D01*
X6275000Y3134936D02*
X6465000Y3135179D01*
Y3144903D02*
Y3235179D01*
X6275000Y3145364D02*
Y3234936D01*
X6370000Y3162500D02*
Y3217500D01*
X6342500Y3190000D02*
X6397500D01*
X6275000Y3145364D02*
X6465000Y3144903D01*
X6275000Y3234936D02*
X6465000Y3235179D01*
X5264821Y3865000D02*
X5355097D01*
X5265064Y3675000D02*
X5354636D01*
X5282500Y3770000D02*
X5337500D01*
X5310000Y3742500D02*
Y3797500D01*
X5354636Y3675000D02*
X5355097Y3865000D01*
X5264821D02*
X5265064Y3675000D01*
X5364821Y3865000D02*
X5455097D01*
X5365064Y3675000D02*
X5454637D01*
X5382500Y3770000D02*
X5437500D01*
X5410000Y3742500D02*
Y3797500D01*
X5454637Y3675000D02*
X5455097Y3865000D01*
X5364821D02*
X5365064Y3675000D01*
X4984821Y3755000D02*
X5075097D01*
X4985064Y3565000D02*
X5074637D01*
X5002500Y3660000D02*
X5057500D01*
X5030000Y3632500D02*
Y3687500D01*
X5074637Y3565000D02*
X5075097Y3755000D01*
X4984821D02*
X4985064Y3565000D01*
X4955000Y3464821D02*
Y3555097D01*
X5145000Y3465064D02*
Y3554637D01*
X5050000Y3482500D02*
Y3537500D01*
X5022500Y3510000D02*
X5077500D01*
X4955000Y3555097D02*
X5145000Y3554637D01*
X4955000Y3464821D02*
X5145000Y3465064D01*
X5980000Y2907500D02*
Y2992500D01*
X5937500Y2950000D02*
X6022500D01*
X5845000Y3010000D02*
X6115000D01*
X5845000Y2890000D02*
X6115000D01*
X5845000D02*
Y3010000D01*
X6115000Y2890000D02*
Y3010000D01*
X5877500Y3250000D02*
X5962500D01*
X5920000Y3207500D02*
Y3292500D01*
X5860000Y3115000D02*
Y3385000D01*
X5980000Y3115000D02*
Y3385000D01*
X5860000Y3115000D02*
X5980000D01*
X5860000Y3385000D02*
X5980000D01*
X5845000Y3024820D02*
Y3115097D01*
X6035000Y3025064D02*
Y3114636D01*
X5940000Y3042500D02*
Y3097500D01*
X5912500Y3070000D02*
X5967500D01*
X5845000Y3115097D02*
X6035000Y3114636D01*
X5845000Y3024820D02*
X6035000Y3025064D01*
X6355000Y3814903D02*
Y3905179D01*
X6165000Y3815363D02*
Y3904936D01*
X6260000Y3832500D02*
Y3887500D01*
X6232500Y3860000D02*
X6287500D01*
X6165000Y3815363D02*
X6355000Y3814903D01*
X6165000Y3904936D02*
X6355000Y3905179D01*
X5174820Y3755000D02*
X5265097D01*
X5175064Y3565000D02*
X5264636D01*
X5192500Y3660000D02*
X5247500D01*
X5220000Y3632500D02*
Y3687500D01*
X5264636Y3565000D02*
X5265097Y3755000D01*
X5174820D02*
X5175064Y3565000D01*
X5084903D02*
X5175179D01*
X5085363Y3755000D02*
X5174936D01*
X5102500Y3660000D02*
X5157500D01*
X5130000Y3632500D02*
Y3687500D01*
X5084903Y3565000D02*
X5085363Y3755000D01*
X5174936D02*
X5175179Y3565000D01*
X5904821Y4085000D02*
X5995097D01*
X5905064Y3895000D02*
X5994636D01*
X5922500Y3990000D02*
X5977500D01*
X5950000Y3962500D02*
Y4017500D01*
X5994636Y3895000D02*
X5995097Y4085000D01*
X5904821D02*
X5905064Y3895000D01*
X4894903Y3185000D02*
X4985180D01*
X4895364Y3375000D02*
X4984936D01*
X4912500Y3280000D02*
X4967500D01*
X4940000Y3252500D02*
Y3307500D01*
X4894903Y3185000D02*
X4895364Y3375000D01*
X4984936D02*
X4985180Y3185000D01*
X5204820Y4095000D02*
X5295097D01*
X5205064Y3905000D02*
X5294636D01*
X5222500Y4000000D02*
X5277500D01*
X5250000Y3972500D02*
Y4027500D01*
X5294636Y3905000D02*
X5295097Y4095000D01*
X5204820D02*
X5205064Y3905000D01*
X7843322Y226653D02*
X7834992Y234984D01*
X7818331D01*
X7810000Y226653D01*
Y193331D01*
X7818331Y185000D01*
X7834992D01*
X7843322Y193331D01*
Y5226653D02*
X7834992Y5234984D01*
X7818331D01*
X7810000Y5226653D01*
Y5193331D01*
X7818331Y5185000D01*
X7834992D01*
X7843322Y5193331D01*
X2163323Y1156653D02*
X2154992Y1164984D01*
X2138331D01*
X2130000Y1156653D01*
Y1123331D01*
X2138331Y1115000D01*
X2154992D01*
X2163323Y1123331D01*
X2266675Y1633347D02*
X2275006Y1625016D01*
X2291667D01*
X2299998Y1633347D01*
Y1666669D01*
X2291667Y1675000D01*
X2275006D01*
X2266675Y1666669D01*
X2833323Y2036653D02*
X2824992Y2044984D01*
X2808331D01*
X2800000Y2036653D01*
Y2003331D01*
X2808331Y1995000D01*
X2824992D01*
X2833323Y2003331D01*
X5666653Y1206677D02*
X5674984Y1215008D01*
Y1231669D01*
X5666653Y1240000D01*
X5633331D01*
X5625000Y1231669D01*
Y1215008D01*
X5633331Y1206677D01*
X5023346Y1443323D02*
X5015015Y1434993D01*
Y1418331D01*
X5023346Y1410001D01*
X5056668D01*
X5064999Y1418331D01*
Y1434993D01*
X5056668Y1443323D01*
X2163323Y1016653D02*
X2154992Y1024984D01*
X2138331D01*
X2130000Y1016653D01*
Y983331D01*
X2138331Y975000D01*
X2154992D01*
X2163323Y983331D01*
X2636653Y2176677D02*
X2644984Y2185008D01*
Y2201669D01*
X2636653Y2210000D01*
X2603331D01*
X2595000Y2201669D01*
Y2185008D01*
X2603331Y2176677D01*
X6413323Y4696653D02*
X6404992Y4704984D01*
X6388331D01*
X6380000Y4696653D01*
Y4663331D01*
X6388331Y4655000D01*
X6404992D01*
X6413323Y4663331D01*
X4883323Y4696653D02*
X4874992Y4704984D01*
X4858331D01*
X4850000Y4696653D01*
Y4663331D01*
X4858331Y4655000D01*
X4874992D01*
X4883323Y4663331D01*
X6103323Y4696653D02*
X6094992Y4704984D01*
X6078331D01*
X6070000Y4696653D01*
Y4663331D01*
X6078331Y4655000D01*
X6094992D01*
X6103323Y4663331D01*
X4573323Y4696653D02*
X4564992Y4704984D01*
X4548331D01*
X4540000Y4696653D01*
Y4663331D01*
X4548331Y4655000D01*
X4564992D01*
X4573323Y4663331D01*
X7723322Y866653D02*
X7714992Y874984D01*
X7698331D01*
X7690000Y866653D01*
Y833331D01*
X7698331Y825000D01*
X7714992D01*
X7723322Y833331D01*
X7653323Y4556653D02*
X7644992Y4564984D01*
X7628331D01*
X7620000Y4556653D01*
Y4523331D01*
X7628331Y4515000D01*
X7644992D01*
X7653323Y4523331D01*
X1403323Y4666653D02*
X1394992Y4674984D01*
X1378331D01*
X1370000Y4666653D01*
Y4633331D01*
X1378331Y4625000D01*
X1394992D01*
X1403323Y4633331D01*
X2408355Y3388316D02*
X2395026Y3374987D01*
Y3348329D01*
X2408355Y3335000D01*
X2461671D01*
X2475000Y3348329D01*
Y3374987D01*
X2461671Y3388316D01*
D233*
X0Y-76200D02*
Y76200D01*
X-76200Y0D02*
X76200D01*
%TF.MD5,9d3b652780955118b9f3b3440419ddb3*%
M02*
