%TF.GenerationSoftware,Altium Limited,Altium Designer,21.5.1 (32)*%
G04 Layer_Color=16711935*
%FSLAX45Y45*%
%MOMM*%
%TF.SameCoordinates,6D93875A-9943-4EB1-8E24-321CDD5DE8D5*%
%TF.FilePolarity,Negative*%
%TF.FileFunction,Soldermask,Bot*%
%TF.Part,Single*%
G01*
G75*
%TA.AperFunction,SMDPad,CuDef*%
G04:AMPARAMS|DCode=115|XSize=1.92mm|YSize=2.62mm|CornerRadius=0mm|HoleSize=0mm|Usage=FLASHONLY|Rotation=270.000|XOffset=0mm|YOffset=0mm|HoleType=Round|Shape=Octagon|*
%AMOCTAGOND115*
4,1,8,1.31000,0.48000,1.31000,-0.48000,0.83000,-0.96000,-0.83000,-0.96000,-1.31000,-0.48000,-1.31000,0.48000,-0.83000,0.96000,0.83000,0.96000,1.31000,0.48000,0.0*
%
%ADD115OCTAGOND115*%

G04:AMPARAMS|DCode=116|XSize=1.92mm|YSize=2.62mm|CornerRadius=0.51mm|HoleSize=0mm|Usage=FLASHONLY|Rotation=270.000|XOffset=0mm|YOffset=0mm|HoleType=Round|Shape=RoundedRectangle|*
%AMROUNDEDRECTD116*
21,1,1.92000,1.60000,0,0,270.0*
21,1,0.90000,2.62000,0,0,270.0*
1,1,1.02000,-0.80000,-0.45000*
1,1,1.02000,-0.80000,0.45000*
1,1,1.02000,0.80000,0.45000*
1,1,1.02000,0.80000,-0.45000*
%
%ADD116ROUNDEDRECTD116*%
%TA.AperFunction,ComponentPad*%
G04:AMPARAMS|DCode=117|XSize=1.82mm|YSize=2.22mm|CornerRadius=0mm|HoleSize=0mm|Usage=FLASHONLY|Rotation=270.000|XOffset=0mm|YOffset=0mm|HoleType=Round|Shape=Octagon|*
%AMOCTAGOND117*
4,1,8,1.11000,0.45500,1.11000,-0.45500,0.65500,-0.91000,-0.65500,-0.91000,-1.11000,-0.45500,-1.11000,0.45500,-0.65500,0.91000,0.65500,0.91000,1.11000,0.45500,0.0*
%
%ADD117OCTAGOND117*%

G04:AMPARAMS|DCode=118|XSize=1.82mm|YSize=2.22mm|CornerRadius=0.485mm|HoleSize=0mm|Usage=FLASHONLY|Rotation=270.000|XOffset=0mm|YOffset=0mm|HoleType=Round|Shape=RoundedRectangle|*
%AMROUNDEDRECTD118*
21,1,1.82000,1.25001,0,0,270.0*
21,1,0.85000,2.22000,0,0,270.0*
1,1,0.97000,-0.62500,-0.42500*
1,1,0.97000,-0.62500,0.42500*
1,1,0.97000,0.62500,0.42500*
1,1,0.97000,0.62500,-0.42500*
%
%ADD118ROUNDEDRECTD118*%
G04:AMPARAMS|DCode=119|XSize=1.82mm|YSize=2.22mm|CornerRadius=0.485mm|HoleSize=0mm|Usage=FLASHONLY|Rotation=0.000|XOffset=0mm|YOffset=0mm|HoleType=Round|Shape=RoundedRectangle|*
%AMROUNDEDRECTD119*
21,1,1.82000,1.25001,0,0,0.0*
21,1,0.85000,2.22000,0,0,0.0*
1,1,0.97000,0.42500,-0.62500*
1,1,0.97000,-0.42500,-0.62500*
1,1,0.97000,-0.42500,0.62500*
1,1,0.97000,0.42500,0.62500*
%
%ADD119ROUNDEDRECTD119*%
G04:AMPARAMS|DCode=120|XSize=1.82mm|YSize=2.22mm|CornerRadius=0mm|HoleSize=0mm|Usage=FLASHONLY|Rotation=0.000|XOffset=0mm|YOffset=0mm|HoleType=Round|Shape=Octagon|*
%AMOCTAGOND120*
4,1,8,-0.45500,1.11000,0.45500,1.11000,0.91000,0.65500,0.91000,-0.65500,0.45500,-1.11000,-0.45500,-1.11000,-0.91000,-0.65500,-0.91000,0.65500,-0.45500,1.11000,0.0*
%
%ADD120OCTAGOND120*%

G04:AMPARAMS|DCode=121|XSize=4.12mm|YSize=3.72mm|CornerRadius=0.6mm|HoleSize=0mm|Usage=FLASHONLY|Rotation=0.000|XOffset=0mm|YOffset=0mm|HoleType=Round|Shape=RoundedRectangle|*
%AMROUNDEDRECTD121*
21,1,4.12000,2.52000,0,0,0.0*
21,1,2.92000,3.72000,0,0,0.0*
1,1,1.20000,1.46000,-1.26000*
1,1,1.20000,-1.46000,-1.26000*
1,1,1.20000,-1.46000,1.26000*
1,1,1.20000,1.46000,1.26000*
%
%ADD121ROUNDEDRECTD121*%
G04:AMPARAMS|DCode=122|XSize=5.12mm|YSize=5.12mm|CornerRadius=1.06mm|HoleSize=0mm|Usage=FLASHONLY|Rotation=0.000|XOffset=0mm|YOffset=0mm|HoleType=Round|Shape=RoundedRectangle|*
%AMROUNDEDRECTD122*
21,1,5.12000,3.00000,0,0,0.0*
21,1,3.00000,5.12000,0,0,0.0*
1,1,2.12000,1.50000,-1.50000*
1,1,2.12000,-1.50000,-1.50000*
1,1,2.12000,-1.50000,1.50000*
1,1,2.12000,1.50000,1.50000*
%
%ADD122ROUNDEDRECTD122*%
G04:AMPARAMS|DCode=123|XSize=2.32mm|YSize=2.32mm|CornerRadius=0.61mm|HoleSize=0mm|Usage=FLASHONLY|Rotation=270.000|XOffset=0mm|YOffset=0mm|HoleType=Round|Shape=RoundedRectangle|*
%AMROUNDEDRECTD123*
21,1,2.32000,1.10000,0,0,270.0*
21,1,1.10000,2.32000,0,0,270.0*
1,1,1.22000,-0.55000,-0.55000*
1,1,1.22000,-0.55000,0.55000*
1,1,1.22000,0.55000,0.55000*
1,1,1.22000,0.55000,-0.55000*
%
%ADD123ROUNDEDRECTD123*%
G04:AMPARAMS|DCode=124|XSize=2.32mm|YSize=2.32mm|CornerRadius=0mm|HoleSize=0mm|Usage=FLASHONLY|Rotation=270.000|XOffset=0mm|YOffset=0mm|HoleType=Round|Shape=Octagon|*
%AMOCTAGOND124*
4,1,8,-0.58000,-1.16000,0.58000,-1.16000,1.16000,-0.58000,1.16000,0.58000,0.58000,1.16000,-0.58000,1.16000,-1.16000,0.58000,-1.16000,-0.58000,-0.58000,-1.16000,0.0*
%
%ADD124OCTAGOND124*%

%TA.AperFunction,ViaPad*%
%ADD125C,1.22000*%
G36*
X5859999Y3914996D02*
X4999999Y3914996D01*
X5000000Y4425853D01*
X5860000Y4425853D01*
X5859999Y3914996D01*
D02*
G37*
D115*
X1310000Y1674000D02*
D03*
D116*
Y1420000D02*
D03*
Y1166000D02*
D03*
D117*
X8108000Y2476800D02*
D03*
Y4508800D02*
D03*
D118*
Y2222800D02*
D03*
Y1968800D02*
D03*
Y1714800D02*
D03*
Y1460800D02*
D03*
Y1206800D02*
D03*
Y952800D02*
D03*
X8402000Y2476800D02*
D03*
Y2222800D02*
D03*
Y1968800D02*
D03*
Y1714800D02*
D03*
Y1460800D02*
D03*
Y1206800D02*
D03*
Y952800D02*
D03*
X8108000Y4254800D02*
D03*
Y4000800D02*
D03*
Y3746800D02*
D03*
Y3492800D02*
D03*
Y3238800D02*
D03*
Y2984800D02*
D03*
X8402000Y4508800D02*
D03*
Y4254800D02*
D03*
Y4000800D02*
D03*
Y3746800D02*
D03*
Y3492800D02*
D03*
Y3238800D02*
D03*
Y2984800D02*
D03*
D119*
X7620000Y464500D02*
D03*
X7366000D02*
D03*
X7112000D02*
D03*
X6858000D02*
D03*
X6604000D02*
D03*
X6350000D02*
D03*
X6096000D02*
D03*
X5842000D02*
D03*
X5588000D02*
D03*
X5334000D02*
D03*
X5080000D02*
D03*
X4826000D02*
D03*
X4572000D02*
D03*
X4318000D02*
D03*
X4064000D02*
D03*
X3810000D02*
D03*
X3556000D02*
D03*
X3302000D02*
D03*
X3048000D02*
D03*
X2794000D02*
D03*
X2540000D02*
D03*
X2286000D02*
D03*
X2032000D02*
D03*
X7620000Y170500D02*
D03*
X7366000D02*
D03*
X7112000D02*
D03*
X6858000D02*
D03*
X6604000D02*
D03*
X6350000D02*
D03*
X6096000D02*
D03*
X5842000D02*
D03*
X5588000D02*
D03*
X5334000D02*
D03*
X5080000D02*
D03*
X4826000D02*
D03*
X4572000D02*
D03*
X4318000D02*
D03*
X4064000D02*
D03*
X3810000D02*
D03*
X3556000D02*
D03*
X3302000D02*
D03*
X3048000D02*
D03*
X2794000D02*
D03*
X2540000D02*
D03*
X2286000D02*
D03*
X7620000Y5290500D02*
D03*
X7366000D02*
D03*
X7112000D02*
D03*
X6858000D02*
D03*
X6604000D02*
D03*
X6350000D02*
D03*
X6096000D02*
D03*
X5842000D02*
D03*
X5588000D02*
D03*
X5334000D02*
D03*
X5080000D02*
D03*
X4826000D02*
D03*
X4572000D02*
D03*
X4318000D02*
D03*
X4064000D02*
D03*
X3810000D02*
D03*
X3556000D02*
D03*
X3302000D02*
D03*
X3048000D02*
D03*
X2794000D02*
D03*
X2540000D02*
D03*
X2286000D02*
D03*
X2032000D02*
D03*
X7620000Y4996500D02*
D03*
X7366000D02*
D03*
X7112000D02*
D03*
X6858000D02*
D03*
X6604000D02*
D03*
X6350000D02*
D03*
X6096000D02*
D03*
X5842000D02*
D03*
X5588000D02*
D03*
X5334000D02*
D03*
X5080000D02*
D03*
X4826000D02*
D03*
X4572000D02*
D03*
X4318000D02*
D03*
X4064000D02*
D03*
X3810000D02*
D03*
X3556000D02*
D03*
X3302000D02*
D03*
X3048000D02*
D03*
X2794000D02*
D03*
X2540000D02*
D03*
X2286000D02*
D03*
X2032000Y4532400D02*
D03*
X2286000D02*
D03*
Y4238400D02*
D03*
D120*
X2032000Y170500D02*
D03*
Y4996500D02*
D03*
Y4238400D02*
D03*
D121*
X8064500Y615000D02*
D03*
Y4846000D02*
D03*
D122*
X1460500Y5143500D02*
D03*
D123*
X1480000Y345000D02*
D03*
D124*
Y695000D02*
D03*
D125*
X2350000Y1370000D02*
D03*
X2770000D02*
D03*
%TF.MD5,5a0c70ab2bd6609fe4a4337f5ca42cd9*%
M02*
