%TF.GenerationSoftware,Altium Limited,Altium Designer,21.5.1 (32)*%
G04 Layer_Color=255*
%FSLAX45Y45*%
%MOMM*%
%TF.SameCoordinates,6D93875A-9943-4EB1-8E24-321CDD5DE8D5*%
%TF.FilePolarity,Positive*%
%TF.FileFunction,Pads,Top*%
%TF.Part,Single*%
G01*
G75*
%TA.AperFunction,SMDPad,CuDef*%
G04:AMPARAMS|DCode=12|XSize=0.6mm|YSize=0.6mm|CornerRadius=0.15mm|HoleSize=0mm|Usage=FLASHONLY|Rotation=180.000|XOffset=0mm|YOffset=0mm|HoleType=Round|Shape=RoundedRectangle|*
%AMROUNDEDRECTD12*
21,1,0.60000,0.30000,0,0,180.0*
21,1,0.30000,0.60000,0,0,180.0*
1,1,0.30000,-0.15000,0.15000*
1,1,0.30000,0.15000,0.15000*
1,1,0.30000,0.15000,-0.15000*
1,1,0.30000,-0.15000,-0.15000*
%
%ADD12ROUNDEDRECTD12*%
G04:AMPARAMS|DCode=13|XSize=0.6mm|YSize=0.7mm|CornerRadius=0.15mm|HoleSize=0mm|Usage=FLASHONLY|Rotation=0.000|XOffset=0mm|YOffset=0mm|HoleType=Round|Shape=RoundedRectangle|*
%AMROUNDEDRECTD13*
21,1,0.60000,0.40000,0,0,0.0*
21,1,0.30000,0.70000,0,0,0.0*
1,1,0.30000,0.15000,-0.20000*
1,1,0.30000,-0.15000,-0.20000*
1,1,0.30000,-0.15000,0.20000*
1,1,0.30000,0.15000,0.20000*
%
%ADD13ROUNDEDRECTD13*%
G04:AMPARAMS|DCode=14|XSize=0.25mm|YSize=0.65mm|CornerRadius=0.0625mm|HoleSize=0mm|Usage=FLASHONLY|Rotation=90.000|XOffset=0mm|YOffset=0mm|HoleType=Round|Shape=RoundedRectangle|*
%AMROUNDEDRECTD14*
21,1,0.25000,0.52500,0,0,90.0*
21,1,0.12500,0.65000,0,0,90.0*
1,1,0.12500,0.26250,0.06250*
1,1,0.12500,0.26250,-0.06250*
1,1,0.12500,-0.26250,-0.06250*
1,1,0.12500,-0.26250,0.06250*
%
%ADD14ROUNDEDRECTD14*%
G04:AMPARAMS|DCode=15|XSize=0.25mm|YSize=0.65mm|CornerRadius=0.0625mm|HoleSize=0mm|Usage=FLASHONLY|Rotation=0.000|XOffset=0mm|YOffset=0mm|HoleType=Round|Shape=RoundedRectangle|*
%AMROUNDEDRECTD15*
21,1,0.25000,0.52500,0,0,0.0*
21,1,0.12500,0.65000,0,0,0.0*
1,1,0.12500,0.06250,-0.26250*
1,1,0.12500,-0.06250,-0.26250*
1,1,0.12500,-0.06250,0.26250*
1,1,0.12500,0.06250,0.26250*
%
%ADD15ROUNDEDRECTD15*%
G04:AMPARAMS|DCode=16|XSize=1mm|YSize=1.5mm|CornerRadius=0.25mm|HoleSize=0mm|Usage=FLASHONLY|Rotation=0.000|XOffset=0mm|YOffset=0mm|HoleType=Round|Shape=RoundedRectangle|*
%AMROUNDEDRECTD16*
21,1,1.00000,1.00000,0,0,0.0*
21,1,0.50000,1.50000,0,0,0.0*
1,1,0.50000,0.25000,-0.50000*
1,1,0.50000,-0.25000,-0.50000*
1,1,0.50000,-0.25000,0.50000*
1,1,0.50000,0.25000,0.50000*
%
%ADD16ROUNDEDRECTD16*%
%ADD17R,0.70000X0.25000*%
G04:AMPARAMS|DCode=18|XSize=0.25mm|YSize=0.7mm|CornerRadius=0.0625mm|HoleSize=0mm|Usage=FLASHONLY|Rotation=90.000|XOffset=0mm|YOffset=0mm|HoleType=Round|Shape=RoundedRectangle|*
%AMROUNDEDRECTD18*
21,1,0.25000,0.57500,0,0,90.0*
21,1,0.12500,0.70000,0,0,90.0*
1,1,0.12500,0.28750,0.06250*
1,1,0.12500,0.28750,-0.06250*
1,1,0.12500,-0.28750,-0.06250*
1,1,0.12500,-0.28750,0.06250*
%
%ADD18ROUNDEDRECTD18*%
G04:AMPARAMS|DCode=19|XSize=2.5mm|YSize=1.7mm|CornerRadius=0.17mm|HoleSize=0mm|Usage=FLASHONLY|Rotation=90.000|XOffset=0mm|YOffset=0mm|HoleType=Round|Shape=RoundedRectangle|*
%AMROUNDEDRECTD19*
21,1,2.50000,1.36000,0,0,90.0*
21,1,2.16000,1.70000,0,0,90.0*
1,1,0.34000,0.68000,1.08000*
1,1,0.34000,0.68000,-1.08000*
1,1,0.34000,-0.68000,-1.08000*
1,1,0.34000,-0.68000,1.08000*
%
%ADD19ROUNDEDRECTD19*%
%ADD20R,1.15000X0.35000*%
G04:AMPARAMS|DCode=21|XSize=0.35mm|YSize=1.15mm|CornerRadius=0.0875mm|HoleSize=0mm|Usage=FLASHONLY|Rotation=90.000|XOffset=0mm|YOffset=0mm|HoleType=Round|Shape=RoundedRectangle|*
%AMROUNDEDRECTD21*
21,1,0.35000,0.97500,0,0,90.0*
21,1,0.17500,1.15000,0,0,90.0*
1,1,0.17500,0.48750,0.08750*
1,1,0.17500,0.48750,-0.08750*
1,1,0.17500,-0.48750,-0.08750*
1,1,0.17500,-0.48750,0.08750*
%
%ADD21ROUNDEDRECTD21*%
%ADD22R,0.90000X0.55000*%
G04:AMPARAMS|DCode=23|XSize=0.55mm|YSize=0.9mm|CornerRadius=0.1375mm|HoleSize=0mm|Usage=FLASHONLY|Rotation=90.000|XOffset=0mm|YOffset=0mm|HoleType=Round|Shape=RoundedRectangle|*
%AMROUNDEDRECTD23*
21,1,0.55000,0.62500,0,0,90.0*
21,1,0.27500,0.90000,0,0,90.0*
1,1,0.27500,0.31250,0.13750*
1,1,0.27500,0.31250,-0.13750*
1,1,0.27500,-0.31250,-0.13750*
1,1,0.27500,-0.31250,0.13750*
%
%ADD23ROUNDEDRECTD23*%
%ADD24R,0.55000X0.90000*%
G04:AMPARAMS|DCode=25|XSize=0.55mm|YSize=0.9mm|CornerRadius=0.1375mm|HoleSize=0mm|Usage=FLASHONLY|Rotation=0.000|XOffset=0mm|YOffset=0mm|HoleType=Round|Shape=RoundedRectangle|*
%AMROUNDEDRECTD25*
21,1,0.55000,0.62500,0,0,0.0*
21,1,0.27500,0.90000,0,0,0.0*
1,1,0.27500,0.13750,-0.31250*
1,1,0.27500,-0.13750,-0.31250*
1,1,0.27500,-0.13750,0.31250*
1,1,0.27500,0.13750,0.31250*
%
%ADD25ROUNDEDRECTD25*%
G04:AMPARAMS|DCode=26|XSize=1.4mm|YSize=1.3mm|CornerRadius=0.325mm|HoleSize=0mm|Usage=FLASHONLY|Rotation=90.000|XOffset=0mm|YOffset=0mm|HoleType=Round|Shape=RoundedRectangle|*
%AMROUNDEDRECTD26*
21,1,1.40000,0.65000,0,0,90.0*
21,1,0.75000,1.30000,0,0,90.0*
1,1,0.65000,0.32500,0.37500*
1,1,0.65000,0.32500,-0.37500*
1,1,0.65000,-0.32500,-0.37500*
1,1,0.65000,-0.32500,0.37500*
%
%ADD26ROUNDEDRECTD26*%
G04:AMPARAMS|DCode=27|XSize=0.6mm|YSize=0.8mm|CornerRadius=0.15mm|HoleSize=0mm|Usage=FLASHONLY|Rotation=270.000|XOffset=0mm|YOffset=0mm|HoleType=Round|Shape=RoundedRectangle|*
%AMROUNDEDRECTD27*
21,1,0.60000,0.50000,0,0,270.0*
21,1,0.30000,0.80000,0,0,270.0*
1,1,0.30000,-0.25000,-0.15000*
1,1,0.30000,-0.25000,0.15000*
1,1,0.30000,0.25000,0.15000*
1,1,0.30000,0.25000,-0.15000*
%
%ADD27ROUNDEDRECTD27*%
%ADD28R,0.80000X0.60000*%
G04:AMPARAMS|DCode=29|XSize=0.35mm|YSize=0.7mm|CornerRadius=0.0875mm|HoleSize=0mm|Usage=FLASHONLY|Rotation=180.000|XOffset=0mm|YOffset=0mm|HoleType=Round|Shape=RoundedRectangle|*
%AMROUNDEDRECTD29*
21,1,0.35000,0.52501,0,0,180.0*
21,1,0.17500,0.70000,0,0,180.0*
1,1,0.17500,-0.08750,0.26250*
1,1,0.17500,0.08750,0.26250*
1,1,0.17500,0.08750,-0.26250*
1,1,0.17500,-0.08750,-0.26250*
%
%ADD29ROUNDEDRECTD29*%
%ADD30R,0.35000X0.70000*%
G04:AMPARAMS|DCode=31|XSize=0.27mm|YSize=0.65mm|CornerRadius=0.0675mm|HoleSize=0mm|Usage=FLASHONLY|Rotation=0.000|XOffset=0mm|YOffset=0mm|HoleType=Round|Shape=RoundedRectangle|*
%AMROUNDEDRECTD31*
21,1,0.27000,0.51501,0,0,0.0*
21,1,0.13500,0.65000,0,0,0.0*
1,1,0.13500,0.06750,-0.25750*
1,1,0.13500,-0.06750,-0.25750*
1,1,0.13500,-0.06750,0.25750*
1,1,0.13500,0.06750,0.25750*
%
%ADD31ROUNDEDRECTD31*%
%ADD32R,0.27000X0.65000*%
G04:AMPARAMS|DCode=33|XSize=0.25mm|YSize=0.7mm|CornerRadius=0.0625mm|HoleSize=0mm|Usage=FLASHONLY|Rotation=0.000|XOffset=0mm|YOffset=0mm|HoleType=Round|Shape=RoundedRectangle|*
%AMROUNDEDRECTD33*
21,1,0.25000,0.57500,0,0,0.0*
21,1,0.12500,0.70000,0,0,0.0*
1,1,0.12500,0.06250,-0.28750*
1,1,0.12500,-0.06250,-0.28750*
1,1,0.12500,-0.06250,0.28750*
1,1,0.12500,0.06250,0.28750*
%
%ADD33ROUNDEDRECTD33*%
G04:AMPARAMS|DCode=34|XSize=1mm|YSize=3mm|CornerRadius=0.25mm|HoleSize=0mm|Usage=FLASHONLY|Rotation=0.000|XOffset=0mm|YOffset=0mm|HoleType=Round|Shape=RoundedRectangle|*
%AMROUNDEDRECTD34*
21,1,1.00000,2.50000,0,0,0.0*
21,1,0.50000,3.00000,0,0,0.0*
1,1,0.50000,0.25000,-1.25000*
1,1,0.50000,-0.25000,-1.25000*
1,1,0.50000,-0.25000,1.25000*
1,1,0.50000,0.25000,1.25000*
%
%ADD34ROUNDEDRECTD34*%
G04:AMPARAMS|DCode=35|XSize=0.35mm|YSize=1.2mm|CornerRadius=0.0875mm|HoleSize=0mm|Usage=FLASHONLY|Rotation=90.000|XOffset=0mm|YOffset=0mm|HoleType=Round|Shape=RoundedRectangle|*
%AMROUNDEDRECTD35*
21,1,0.35000,1.02500,0,0,90.0*
21,1,0.17500,1.20000,0,0,90.0*
1,1,0.17500,0.51250,0.08750*
1,1,0.17500,0.51250,-0.08750*
1,1,0.17500,-0.51250,-0.08750*
1,1,0.17500,-0.51250,0.08750*
%
%ADD35ROUNDEDRECTD35*%
%ADD36R,1.20000X0.35000*%
%ADD37R,0.85000X0.25000*%
G04:AMPARAMS|DCode=38|XSize=0.25mm|YSize=0.85mm|CornerRadius=0.0625mm|HoleSize=0mm|Usage=FLASHONLY|Rotation=90.000|XOffset=0mm|YOffset=0mm|HoleType=Round|Shape=RoundedRectangle|*
%AMROUNDEDRECTD38*
21,1,0.25000,0.72500,0,0,90.0*
21,1,0.12500,0.85000,0,0,90.0*
1,1,0.12500,0.36250,0.06250*
1,1,0.12500,0.36250,-0.06250*
1,1,0.12500,-0.36250,-0.06250*
1,1,0.12500,-0.36250,0.06250*
%
%ADD38ROUNDEDRECTD38*%
G04:AMPARAMS|DCode=39|XSize=2.55mm|YSize=1.1mm|CornerRadius=0.275mm|HoleSize=0mm|Usage=FLASHONLY|Rotation=90.000|XOffset=0mm|YOffset=0mm|HoleType=Round|Shape=RoundedRectangle|*
%AMROUNDEDRECTD39*
21,1,2.55000,0.55000,0,0,90.0*
21,1,2.00000,1.10000,0,0,90.0*
1,1,0.55000,0.27500,1.00000*
1,1,0.55000,0.27500,-1.00000*
1,1,0.55000,-0.27500,-1.00000*
1,1,0.55000,-0.27500,1.00000*
%
%ADD39ROUNDEDRECTD39*%
%ADD40R,0.35000X1.15000*%
G04:AMPARAMS|DCode=41|XSize=0.35mm|YSize=1.15mm|CornerRadius=0.0875mm|HoleSize=0mm|Usage=FLASHONLY|Rotation=180.000|XOffset=0mm|YOffset=0mm|HoleType=Round|Shape=RoundedRectangle|*
%AMROUNDEDRECTD41*
21,1,0.35000,0.97500,0,0,180.0*
21,1,0.17500,1.15000,0,0,180.0*
1,1,0.17500,-0.08750,0.48750*
1,1,0.17500,0.08750,0.48750*
1,1,0.17500,0.08750,-0.48750*
1,1,0.17500,-0.08750,-0.48750*
%
%ADD41ROUNDEDRECTD41*%
%ADD42R,0.25000X0.85000*%
G04:AMPARAMS|DCode=43|XSize=0.25mm|YSize=0.85mm|CornerRadius=0.0625mm|HoleSize=0mm|Usage=FLASHONLY|Rotation=0.000|XOffset=0mm|YOffset=0mm|HoleType=Round|Shape=RoundedRectangle|*
%AMROUNDEDRECTD43*
21,1,0.25000,0.72500,0,0,0.0*
21,1,0.12500,0.85000,0,0,0.0*
1,1,0.12500,0.06250,-0.36250*
1,1,0.12500,-0.06250,-0.36250*
1,1,0.12500,-0.06250,0.36250*
1,1,0.12500,0.06250,0.36250*
%
%ADD43ROUNDEDRECTD43*%
G04:AMPARAMS|DCode=44|XSize=2.55mm|YSize=1.1mm|CornerRadius=0.275mm|HoleSize=0mm|Usage=FLASHONLY|Rotation=0.000|XOffset=0mm|YOffset=0mm|HoleType=Round|Shape=RoundedRectangle|*
%AMROUNDEDRECTD44*
21,1,2.55000,0.55000,0,0,0.0*
21,1,2.00000,1.10000,0,0,0.0*
1,1,0.55000,1.00000,-0.27500*
1,1,0.55000,-1.00000,-0.27500*
1,1,0.55000,-1.00000,0.27500*
1,1,0.55000,1.00000,0.27500*
%
%ADD44ROUNDEDRECTD44*%
%ADD45C,1.00000*%
G04:AMPARAMS|DCode=46|XSize=0.8mm|YSize=1mm|CornerRadius=0.04mm|HoleSize=0mm|Usage=FLASHONLY|Rotation=90.000|XOffset=0mm|YOffset=0mm|HoleType=Round|Shape=RoundedRectangle|*
%AMROUNDEDRECTD46*
21,1,0.80000,0.92000,0,0,90.0*
21,1,0.72000,1.00000,0,0,90.0*
1,1,0.08000,0.46000,0.36000*
1,1,0.08000,0.46000,-0.36000*
1,1,0.08000,-0.46000,-0.36000*
1,1,0.08000,-0.46000,0.36000*
%
%ADD46ROUNDEDRECTD46*%
G04:AMPARAMS|DCode=47|XSize=0.8mm|YSize=1mm|CornerRadius=0.04mm|HoleSize=0mm|Usage=FLASHONLY|Rotation=180.000|XOffset=0mm|YOffset=0mm|HoleType=Round|Shape=RoundedRectangle|*
%AMROUNDEDRECTD47*
21,1,0.80000,0.92000,0,0,180.0*
21,1,0.72000,1.00000,0,0,180.0*
1,1,0.08000,-0.36000,0.46000*
1,1,0.08000,0.36000,0.46000*
1,1,0.08000,0.36000,-0.46000*
1,1,0.08000,-0.36000,-0.46000*
%
%ADD47ROUNDEDRECTD47*%
G04:AMPARAMS|DCode=48|XSize=0.6mm|YSize=0.6mm|CornerRadius=0.15mm|HoleSize=0mm|Usage=FLASHONLY|Rotation=90.000|XOffset=0mm|YOffset=0mm|HoleType=Round|Shape=RoundedRectangle|*
%AMROUNDEDRECTD48*
21,1,0.60000,0.30000,0,0,90.0*
21,1,0.30000,0.60000,0,0,90.0*
1,1,0.30000,0.15000,0.15000*
1,1,0.30000,0.15000,-0.15000*
1,1,0.30000,-0.15000,-0.15000*
1,1,0.30000,-0.15000,0.15000*
%
%ADD48ROUNDEDRECTD48*%
%ADD49O,1.70000X0.30000*%
%ADD50R,0.24000X0.70000*%
%ADD51O,0.30000X1.70000*%
%ADD52R,0.70000X0.24000*%
G04:AMPARAMS|DCode=53|XSize=2mm|YSize=1.1mm|CornerRadius=0.275mm|HoleSize=0mm|Usage=FLASHONLY|Rotation=180.000|XOffset=0mm|YOffset=0mm|HoleType=Round|Shape=RoundedRectangle|*
%AMROUNDEDRECTD53*
21,1,2.00000,0.55000,0,0,180.0*
21,1,1.45000,1.10000,0,0,180.0*
1,1,0.55000,-0.72500,0.27500*
1,1,0.55000,0.72500,0.27500*
1,1,0.55000,0.72500,-0.27500*
1,1,0.55000,-0.72500,-0.27500*
%
%ADD53ROUNDEDRECTD53*%
G04:AMPARAMS|DCode=54|XSize=2.2mm|YSize=0.7mm|CornerRadius=0.175mm|HoleSize=0mm|Usage=FLASHONLY|Rotation=180.000|XOffset=0mm|YOffset=0mm|HoleType=Round|Shape=RoundedRectangle|*
%AMROUNDEDRECTD54*
21,1,2.20000,0.35000,0,0,180.0*
21,1,1.85000,0.70000,0,0,180.0*
1,1,0.35000,-0.92500,0.17500*
1,1,0.35000,0.92500,0.17500*
1,1,0.35000,0.92500,-0.17500*
1,1,0.35000,-0.92500,-0.17500*
%
%ADD54ROUNDEDRECTD54*%
%ADD55R,2.20000X0.70000*%
G04:AMPARAMS|DCode=56|XSize=1.6mm|YSize=1mm|CornerRadius=0.25mm|HoleSize=0mm|Usage=FLASHONLY|Rotation=270.000|XOffset=0mm|YOffset=0mm|HoleType=Round|Shape=RoundedRectangle|*
%AMROUNDEDRECTD56*
21,1,1.60000,0.50000,0,0,270.0*
21,1,1.10000,1.00000,0,0,270.0*
1,1,0.50000,-0.25000,-0.55000*
1,1,0.50000,-0.25000,0.55000*
1,1,0.50000,0.25000,0.55000*
1,1,0.50000,0.25000,-0.55000*
%
%ADD56ROUNDEDRECTD56*%
%TA.AperFunction,SMDPad,SMDef*%
G04:AMPARAMS|DCode=57|XSize=3.8mm|YSize=1mm|CornerRadius=0.25mm|HoleSize=0mm|Usage=FLASHONLY|Rotation=180.000|XOffset=0mm|YOffset=0mm|HoleType=Round|Shape=RoundedRectangle|*
%AMROUNDEDRECTD57*
21,1,3.80000,0.50000,0,0,180.0*
21,1,3.30000,1.00000,0,0,180.0*
1,1,0.50000,-1.65000,0.25000*
1,1,0.50000,1.65000,0.25000*
1,1,0.50000,1.65000,-0.25000*
1,1,0.50000,-1.65000,-0.25000*
%
%ADD57ROUNDEDRECTD57*%
%TA.AperFunction,SMDPad,CuDef*%
G04:AMPARAMS|DCode=58|XSize=3mm|YSize=1mm|CornerRadius=0.25mm|HoleSize=0mm|Usage=FLASHONLY|Rotation=180.000|XOffset=0mm|YOffset=0mm|HoleType=Round|Shape=RoundedRectangle|*
%AMROUNDEDRECTD58*
21,1,3.00000,0.50000,0,0,180.0*
21,1,2.50000,1.00000,0,0,180.0*
1,1,0.50000,-1.25000,0.25000*
1,1,0.50000,1.25000,0.25000*
1,1,0.50000,1.25000,-0.25000*
1,1,0.50000,-1.25000,-0.25000*
%
%ADD58ROUNDEDRECTD58*%
G04:AMPARAMS|DCode=59|XSize=1.6mm|YSize=1mm|CornerRadius=0.25mm|HoleSize=0mm|Usage=FLASHONLY|Rotation=0.000|XOffset=0mm|YOffset=0mm|HoleType=Round|Shape=RoundedRectangle|*
%AMROUNDEDRECTD59*
21,1,1.60000,0.50000,0,0,0.0*
21,1,1.10000,1.00000,0,0,0.0*
1,1,0.50000,0.55000,-0.25000*
1,1,0.50000,-0.55000,-0.25000*
1,1,0.50000,-0.55000,0.25000*
1,1,0.50000,0.55000,0.25000*
%
%ADD59ROUNDEDRECTD59*%
%TA.AperFunction,SMDPad,SMDef*%
G04:AMPARAMS|DCode=60|XSize=3.8mm|YSize=1mm|CornerRadius=0.25mm|HoleSize=0mm|Usage=FLASHONLY|Rotation=270.000|XOffset=0mm|YOffset=0mm|HoleType=Round|Shape=RoundedRectangle|*
%AMROUNDEDRECTD60*
21,1,3.80000,0.50000,0,0,270.0*
21,1,3.30000,1.00000,0,0,270.0*
1,1,0.50000,-0.25000,-1.65000*
1,1,0.50000,-0.25000,1.65000*
1,1,0.50000,0.25000,1.65000*
1,1,0.50000,0.25000,-1.65000*
%
%ADD60ROUNDEDRECTD60*%
%TA.AperFunction,SMDPad,CuDef*%
G04:AMPARAMS|DCode=61|XSize=3mm|YSize=1mm|CornerRadius=0.25mm|HoleSize=0mm|Usage=FLASHONLY|Rotation=270.000|XOffset=0mm|YOffset=0mm|HoleType=Round|Shape=RoundedRectangle|*
%AMROUNDEDRECTD61*
21,1,3.00000,0.50000,0,0,270.0*
21,1,2.50000,1.00000,0,0,270.0*
1,1,0.50000,-0.25000,-1.25000*
1,1,0.50000,-0.25000,1.25000*
1,1,0.50000,0.25000,1.25000*
1,1,0.50000,0.25000,-1.25000*
%
%ADD61ROUNDEDRECTD61*%
G04:AMPARAMS|DCode=62|XSize=0.9mm|YSize=0.8mm|CornerRadius=0.2mm|HoleSize=0mm|Usage=FLASHONLY|Rotation=180.000|XOffset=0mm|YOffset=0mm|HoleType=Round|Shape=RoundedRectangle|*
%AMROUNDEDRECTD62*
21,1,0.90000,0.40000,0,0,180.0*
21,1,0.50000,0.80000,0,0,180.0*
1,1,0.40000,-0.25000,0.20000*
1,1,0.40000,0.25000,0.20000*
1,1,0.40000,0.25000,-0.20000*
1,1,0.40000,-0.25000,-0.20000*
%
%ADD62ROUNDEDRECTD62*%
G04:AMPARAMS|DCode=63|XSize=2.8mm|YSize=1.3mm|CornerRadius=0.325mm|HoleSize=0mm|Usage=FLASHONLY|Rotation=90.000|XOffset=0mm|YOffset=0mm|HoleType=Round|Shape=RoundedRectangle|*
%AMROUNDEDRECTD63*
21,1,2.80000,0.65000,0,0,90.0*
21,1,2.15000,1.30000,0,0,90.0*
1,1,0.65000,0.32500,1.07500*
1,1,0.65000,0.32500,-1.07500*
1,1,0.65000,-0.32500,-1.07500*
1,1,0.65000,-0.32500,1.07500*
%
%ADD63ROUNDEDRECTD63*%
G04:AMPARAMS|DCode=64|XSize=2.8mm|YSize=1.3mm|CornerRadius=0.325mm|HoleSize=0mm|Usage=FLASHONLY|Rotation=0.000|XOffset=0mm|YOffset=0mm|HoleType=Round|Shape=RoundedRectangle|*
%AMROUNDEDRECTD64*
21,1,2.80000,0.65000,0,0,0.0*
21,1,2.15000,1.30000,0,0,0.0*
1,1,0.65000,1.07500,-0.32500*
1,1,0.65000,-1.07500,-0.32500*
1,1,0.65000,-1.07500,0.32500*
1,1,0.65000,1.07500,0.32500*
%
%ADD64ROUNDEDRECTD64*%
%ADD65R,0.80000X0.80000*%
G04:AMPARAMS|DCode=66|XSize=0.8mm|YSize=0.8mm|CornerRadius=0.2mm|HoleSize=0mm|Usage=FLASHONLY|Rotation=90.000|XOffset=0mm|YOffset=0mm|HoleType=Round|Shape=RoundedRectangle|*
%AMROUNDEDRECTD66*
21,1,0.80000,0.40000,0,0,90.0*
21,1,0.40000,0.80000,0,0,90.0*
1,1,0.40000,0.20000,0.20000*
1,1,0.40000,0.20000,-0.20000*
1,1,0.40000,-0.20000,-0.20000*
1,1,0.40000,-0.20000,0.20000*
%
%ADD66ROUNDEDRECTD66*%
%ADD67R,0.70000X0.50000*%
G04:AMPARAMS|DCode=68|XSize=0.5mm|YSize=0.7mm|CornerRadius=0.125mm|HoleSize=0mm|Usage=FLASHONLY|Rotation=90.000|XOffset=0mm|YOffset=0mm|HoleType=Round|Shape=RoundedRectangle|*
%AMROUNDEDRECTD68*
21,1,0.50000,0.45000,0,0,90.0*
21,1,0.25000,0.70000,0,0,90.0*
1,1,0.25000,0.22500,0.12500*
1,1,0.25000,0.22500,-0.12500*
1,1,0.25000,-0.22500,-0.12500*
1,1,0.25000,-0.22500,0.12500*
%
%ADD68ROUNDEDRECTD68*%
%ADD69R,0.50000X0.70000*%
G04:AMPARAMS|DCode=70|XSize=0.5mm|YSize=0.7mm|CornerRadius=0.125mm|HoleSize=0mm|Usage=FLASHONLY|Rotation=0.000|XOffset=0mm|YOffset=0mm|HoleType=Round|Shape=RoundedRectangle|*
%AMROUNDEDRECTD70*
21,1,0.50000,0.45000,0,0,0.0*
21,1,0.25000,0.70000,0,0,0.0*
1,1,0.25000,0.12500,-0.22500*
1,1,0.25000,-0.12500,-0.22500*
1,1,0.25000,-0.12500,0.22500*
1,1,0.25000,0.12500,0.22500*
%
%ADD70ROUNDEDRECTD70*%
%ADD71R,1.10000X1.10000*%
G04:AMPARAMS|DCode=72|XSize=1.1mm|YSize=1.1mm|CornerRadius=0.275mm|HoleSize=0mm|Usage=FLASHONLY|Rotation=180.000|XOffset=0mm|YOffset=0mm|HoleType=Round|Shape=RoundedRectangle|*
%AMROUNDEDRECTD72*
21,1,1.10000,0.55000,0,0,180.0*
21,1,0.55000,1.10000,0,0,180.0*
1,1,0.55000,-0.27500,0.27500*
1,1,0.55000,0.27500,0.27500*
1,1,0.55000,0.27500,-0.27500*
1,1,0.55000,-0.27500,-0.27500*
%
%ADD72ROUNDEDRECTD72*%
G04:AMPARAMS|DCode=73|XSize=1.65mm|YSize=1.25mm|CornerRadius=0.3125mm|HoleSize=0mm|Usage=FLASHONLY|Rotation=0.000|XOffset=0mm|YOffset=0mm|HoleType=Round|Shape=RoundedRectangle|*
%AMROUNDEDRECTD73*
21,1,1.65000,0.62500,0,0,0.0*
21,1,1.02500,1.25000,0,0,0.0*
1,1,0.62500,0.51250,-0.31250*
1,1,0.62500,-0.51250,-0.31250*
1,1,0.62500,-0.51250,0.31250*
1,1,0.62500,0.51250,0.31250*
%
%ADD73ROUNDEDRECTD73*%
G04:AMPARAMS|DCode=74|XSize=1.65mm|YSize=1.25mm|CornerRadius=0.3125mm|HoleSize=0mm|Usage=FLASHONLY|Rotation=270.000|XOffset=0mm|YOffset=0mm|HoleType=Round|Shape=RoundedRectangle|*
%AMROUNDEDRECTD74*
21,1,1.65000,0.62500,0,0,270.0*
21,1,1.02500,1.25000,0,0,270.0*
1,1,0.62500,-0.31250,-0.51250*
1,1,0.62500,-0.31250,0.51250*
1,1,0.62500,0.31250,0.51250*
1,1,0.62500,0.31250,-0.51250*
%
%ADD74ROUNDEDRECTD74*%
G04:AMPARAMS|DCode=75|XSize=0.8mm|YSize=0.8mm|CornerRadius=0.2mm|HoleSize=0mm|Usage=FLASHONLY|Rotation=180.000|XOffset=0mm|YOffset=0mm|HoleType=Round|Shape=RoundedRectangle|*
%AMROUNDEDRECTD75*
21,1,0.80000,0.40000,0,0,180.0*
21,1,0.40000,0.80000,0,0,180.0*
1,1,0.40000,-0.20000,0.20000*
1,1,0.40000,0.20000,0.20000*
1,1,0.40000,0.20000,-0.20000*
1,1,0.40000,-0.20000,-0.20000*
%
%ADD75ROUNDEDRECTD75*%
%TA.AperFunction,ComponentPad*%
G04:AMPARAMS|DCode=85|XSize=1.7mm|YSize=2.1mm|CornerRadius=0mm|HoleSize=0mm|Usage=FLASHONLY|Rotation=270.000|XOffset=0mm|YOffset=0mm|HoleType=Round|Shape=Octagon|*
%AMOCTAGOND85*
4,1,8,1.05000,0.42500,1.05000,-0.42500,0.62500,-0.85000,-0.62500,-0.85000,-1.05000,-0.42500,-1.05000,0.42500,-0.62500,0.85000,0.62500,0.85000,1.05000,0.42500,0.0*
%
%ADD85OCTAGOND85*%

G04:AMPARAMS|DCode=86|XSize=1.7mm|YSize=2.1mm|CornerRadius=0.425mm|HoleSize=0mm|Usage=FLASHONLY|Rotation=270.000|XOffset=0mm|YOffset=0mm|HoleType=Round|Shape=RoundedRectangle|*
%AMROUNDEDRECTD86*
21,1,1.70000,1.25001,0,0,270.0*
21,1,0.85000,2.10000,0,0,270.0*
1,1,0.85000,-0.62500,-0.42500*
1,1,0.85000,-0.62500,0.42500*
1,1,0.85000,0.62500,0.42500*
1,1,0.85000,0.62500,-0.42500*
%
%ADD86ROUNDEDRECTD86*%
G04:AMPARAMS|DCode=87|XSize=1.7mm|YSize=2.1mm|CornerRadius=0.425mm|HoleSize=0mm|Usage=FLASHONLY|Rotation=0.000|XOffset=0mm|YOffset=0mm|HoleType=Round|Shape=RoundedRectangle|*
%AMROUNDEDRECTD87*
21,1,1.70000,1.25001,0,0,0.0*
21,1,0.85000,2.10000,0,0,0.0*
1,1,0.85000,0.42500,-0.62500*
1,1,0.85000,-0.42500,-0.62500*
1,1,0.85000,-0.42500,0.62500*
1,1,0.85000,0.42500,0.62500*
%
%ADD87ROUNDEDRECTD87*%
G04:AMPARAMS|DCode=88|XSize=1.7mm|YSize=2.1mm|CornerRadius=0mm|HoleSize=0mm|Usage=FLASHONLY|Rotation=0.000|XOffset=0mm|YOffset=0mm|HoleType=Round|Shape=Octagon|*
%AMOCTAGOND88*
4,1,8,-0.42500,1.05000,0.42500,1.05000,0.85000,0.62500,0.85000,-0.62500,0.42500,-1.05000,-0.42500,-1.05000,-0.85000,-0.62500,-0.85000,0.62500,-0.42500,1.05000,0.0*
%
%ADD88OCTAGOND88*%

G04:AMPARAMS|DCode=89|XSize=4mm|YSize=3.6mm|CornerRadius=0.54mm|HoleSize=0mm|Usage=FLASHONLY|Rotation=0.000|XOffset=0mm|YOffset=0mm|HoleType=Round|Shape=RoundedRectangle|*
%AMROUNDEDRECTD89*
21,1,4.00000,2.52000,0,0,0.0*
21,1,2.92000,3.60000,0,0,0.0*
1,1,1.08000,1.46000,-1.26000*
1,1,1.08000,-1.46000,-1.26000*
1,1,1.08000,-1.46000,1.26000*
1,1,1.08000,1.46000,1.26000*
%
%ADD89ROUNDEDRECTD89*%
G04:AMPARAMS|DCode=90|XSize=5mm|YSize=5mm|CornerRadius=1mm|HoleSize=0mm|Usage=FLASHONLY|Rotation=0.000|XOffset=0mm|YOffset=0mm|HoleType=Round|Shape=RoundedRectangle|*
%AMROUNDEDRECTD90*
21,1,5.00000,3.00000,0,0,0.0*
21,1,3.00000,5.00000,0,0,0.0*
1,1,2.00000,1.50000,-1.50000*
1,1,2.00000,-1.50000,-1.50000*
1,1,2.00000,-1.50000,1.50000*
1,1,2.00000,1.50000,1.50000*
%
%ADD90ROUNDEDRECTD90*%
G04:AMPARAMS|DCode=91|XSize=2.2mm|YSize=2.2mm|CornerRadius=0.55mm|HoleSize=0mm|Usage=FLASHONLY|Rotation=270.000|XOffset=0mm|YOffset=0mm|HoleType=Round|Shape=RoundedRectangle|*
%AMROUNDEDRECTD91*
21,1,2.20000,1.10000,0,0,270.0*
21,1,1.10000,2.20000,0,0,270.0*
1,1,1.10000,-0.55000,-0.55000*
1,1,1.10000,-0.55000,0.55000*
1,1,1.10000,0.55000,0.55000*
1,1,1.10000,0.55000,-0.55000*
%
%ADD91ROUNDEDRECTD91*%
G04:AMPARAMS|DCode=92|XSize=2.2mm|YSize=2.2mm|CornerRadius=0mm|HoleSize=0mm|Usage=FLASHONLY|Rotation=270.000|XOffset=0mm|YOffset=0mm|HoleType=Round|Shape=Octagon|*
%AMOCTAGOND92*
4,1,8,-0.55000,-1.10000,0.55000,-1.10000,1.10000,-0.55000,1.10000,0.55000,0.55000,1.10000,-0.55000,1.10000,-1.10000,0.55000,-1.10000,-0.55000,-0.55000,-1.10000,0.0*
%
%ADD92OCTAGOND92*%

D12*
X7460000Y4775000D02*
D03*
Y4665000D02*
D03*
X7560000Y3385000D02*
D03*
Y3275000D02*
D03*
X7660000Y3385000D02*
D03*
Y3275000D02*
D03*
X3970000Y1475000D02*
D03*
Y1585000D02*
D03*
X3950000Y1335000D02*
D03*
Y1225000D02*
D03*
X5030000Y1025000D02*
D03*
Y1135000D02*
D03*
Y1225000D02*
D03*
Y1335000D02*
D03*
X2130000Y1985000D02*
D03*
Y1875000D02*
D03*
X2190000Y2075000D02*
D03*
Y2185000D02*
D03*
Y2385000D02*
D03*
Y2275000D02*
D03*
X2570000Y1845000D02*
D03*
Y1955000D02*
D03*
X5930000Y4675000D02*
D03*
Y4785000D02*
D03*
X3180000Y4665000D02*
D03*
Y4775000D02*
D03*
X5820000Y4675000D02*
D03*
Y4785000D02*
D03*
X3080000Y4665000D02*
D03*
Y4775000D02*
D03*
X4320000Y695000D02*
D03*
Y805000D02*
D03*
X4430000Y695000D02*
D03*
Y805000D02*
D03*
X7560000Y4665000D02*
D03*
Y4775000D02*
D03*
X7450000Y685000D02*
D03*
Y795000D02*
D03*
X7340000Y685000D02*
D03*
Y795000D02*
D03*
X6700000Y4665000D02*
D03*
Y4775000D02*
D03*
X6810000Y4665000D02*
D03*
Y4775000D02*
D03*
X5850000Y695000D02*
D03*
Y805000D02*
D03*
X5630000Y695000D02*
D03*
Y805000D02*
D03*
X5740000D02*
D03*
Y695000D02*
D03*
X5520000D02*
D03*
Y805000D02*
D03*
X5700000Y4785000D02*
D03*
Y4675000D02*
D03*
X5410000Y695000D02*
D03*
Y805000D02*
D03*
X5300000Y695000D02*
D03*
Y805000D02*
D03*
X5470000Y4675000D02*
D03*
Y4785000D02*
D03*
X5020000Y695000D02*
D03*
Y805000D02*
D03*
X5360000Y4785000D02*
D03*
Y4675000D02*
D03*
X4880000Y695000D02*
D03*
Y805000D02*
D03*
X4070000Y695000D02*
D03*
Y805000D02*
D03*
X3930000D02*
D03*
Y695000D02*
D03*
X4000000Y4775000D02*
D03*
Y4665000D02*
D03*
X4130000D02*
D03*
Y4775000D02*
D03*
X3640000D02*
D03*
Y4665000D02*
D03*
X3770000D02*
D03*
Y4775000D02*
D03*
X3410000D02*
D03*
Y4665000D02*
D03*
X7640000Y4335000D02*
D03*
Y4445000D02*
D03*
X7820000Y4335000D02*
D03*
Y4445000D02*
D03*
X6120000Y1345000D02*
D03*
Y1455000D02*
D03*
X6420000Y1345000D02*
D03*
Y1455000D02*
D03*
X6220000Y1345000D02*
D03*
Y1455000D02*
D03*
X5590000Y4675000D02*
D03*
Y4785000D02*
D03*
X4180000Y805000D02*
D03*
Y695000D02*
D03*
X3820000Y805000D02*
D03*
Y695000D02*
D03*
X5130000Y805000D02*
D03*
Y695000D02*
D03*
X4770000Y805000D02*
D03*
Y695000D02*
D03*
X5250000Y4675000D02*
D03*
Y4785000D02*
D03*
X3870000Y4665000D02*
D03*
Y4775000D02*
D03*
X3540000Y4665000D02*
D03*
Y4775000D02*
D03*
X6120000Y2155000D02*
D03*
Y2265000D02*
D03*
X4230000Y4665000D02*
D03*
Y4775000D02*
D03*
X3310000Y4665000D02*
D03*
Y4775000D02*
D03*
X6420000Y2155000D02*
D03*
Y2265000D02*
D03*
X6220000Y2155000D02*
D03*
Y2265000D02*
D03*
X3180000Y4315000D02*
D03*
Y4205000D02*
D03*
X4400000Y3995000D02*
D03*
Y3885000D02*
D03*
X2880000Y4205000D02*
D03*
Y4315000D02*
D03*
X3470000Y3915000D02*
D03*
Y3805000D02*
D03*
X6070000Y3665000D02*
D03*
Y3555000D02*
D03*
X4840000Y3125000D02*
D03*
Y3235000D02*
D03*
X4850000Y3695000D02*
D03*
Y3585000D02*
D03*
X5250000Y4275000D02*
D03*
Y4165000D02*
D03*
X5510000Y3825000D02*
D03*
Y3715000D02*
D03*
X7290000Y4685000D02*
D03*
Y4795000D02*
D03*
X7120000Y2295000D02*
D03*
Y2405000D02*
D03*
X7150000Y1925000D02*
D03*
Y2035000D02*
D03*
X7120000Y2685000D02*
D03*
Y2795000D02*
D03*
X7150000Y1555000D02*
D03*
Y1665000D02*
D03*
X7160000Y1185000D02*
D03*
Y1295000D02*
D03*
X7890000Y975000D02*
D03*
Y1085000D02*
D03*
X7920000Y4335000D02*
D03*
Y4445000D02*
D03*
X3840000Y1215000D02*
D03*
Y1325000D02*
D03*
X3220000Y1405000D02*
D03*
Y1295000D02*
D03*
X4060000Y1225000D02*
D03*
Y1335000D02*
D03*
X5540000Y1175000D02*
D03*
Y1065000D02*
D03*
X5550000Y1935000D02*
D03*
Y2045000D02*
D03*
X4880000Y1925000D02*
D03*
Y2035000D02*
D03*
X4920000Y1455000D02*
D03*
Y1565000D02*
D03*
X2630000Y2275000D02*
D03*
Y2385000D02*
D03*
X7780000Y3275000D02*
D03*
Y3385000D02*
D03*
X7820000Y3835000D02*
D03*
Y3725000D02*
D03*
X6810000Y3765000D02*
D03*
Y3875000D02*
D03*
X6320000Y2265000D02*
D03*
Y2155000D02*
D03*
Y1455000D02*
D03*
Y1345000D02*
D03*
X3660000Y695000D02*
D03*
Y805000D02*
D03*
X4610000Y695000D02*
D03*
Y805000D02*
D03*
X6520000Y1345000D02*
D03*
Y1455000D02*
D03*
X6520000Y2155000D02*
D03*
Y2265000D02*
D03*
X4340000Y4775000D02*
D03*
Y4665000D02*
D03*
X4400000Y4315000D02*
D03*
Y4205000D02*
D03*
X3200000Y3095000D02*
D03*
Y2985000D02*
D03*
Y3185000D02*
D03*
Y3295000D02*
D03*
X2780000Y3105000D02*
D03*
Y2995000D02*
D03*
Y3195000D02*
D03*
Y3305000D02*
D03*
X3350000Y3535000D02*
D03*
Y3425000D02*
D03*
X4430000Y3455000D02*
D03*
Y3565000D02*
D03*
X2780000Y2895000D02*
D03*
Y2785000D02*
D03*
X3580000Y3935000D02*
D03*
Y3825000D02*
D03*
X2780000Y4205000D02*
D03*
Y4315000D02*
D03*
X3370000Y3805000D02*
D03*
Y3915000D02*
D03*
X4950000Y2775000D02*
D03*
Y2885000D02*
D03*
X5050000Y2775000D02*
D03*
Y2885000D02*
D03*
X5310000Y3825000D02*
D03*
Y3715000D02*
D03*
X5410000Y3825000D02*
D03*
Y3715000D02*
D03*
X5030000Y3715000D02*
D03*
Y3605000D02*
D03*
X5220000Y3715000D02*
D03*
Y3605000D02*
D03*
X5130000D02*
D03*
Y3715000D02*
D03*
X5950000Y4045000D02*
D03*
Y3935000D02*
D03*
X4940000Y3225000D02*
D03*
Y3335000D02*
D03*
X5250000Y4055000D02*
D03*
Y3945000D02*
D03*
D13*
X2235000Y1520000D02*
D03*
X2045000D02*
D03*
X2140000Y1300000D02*
D03*
X2015000Y1890000D02*
D03*
X1825000D02*
D03*
X1920000Y1670000D02*
D03*
X2445000Y1980000D02*
D03*
X2255000D02*
D03*
X2350000Y1760000D02*
D03*
D14*
X7200000Y4610000D02*
D03*
Y4660000D02*
D03*
Y4560000D02*
D03*
Y4510000D02*
D03*
Y4460000D02*
D03*
X6970000Y4560000D02*
D03*
Y4610000D02*
D03*
Y4660000D02*
D03*
Y4460000D02*
D03*
Y4510000D02*
D03*
D15*
X7110000Y4700000D02*
D03*
X7060000D02*
D03*
X7110000Y4420000D02*
D03*
X7060000D02*
D03*
D16*
X7085000Y4560000D02*
D03*
D17*
X7275000Y1920000D02*
D03*
Y2290000D02*
D03*
Y1170000D02*
D03*
Y2670000D02*
D03*
X6915000Y4120000D02*
D03*
X7275000Y1550000D02*
D03*
X6915000Y3360000D02*
D03*
X3355000Y1520000D02*
D03*
X6915000Y3740000D02*
D03*
X2964999Y2355000D02*
D03*
X6255000Y1195000D02*
D03*
X6254999Y2005001D02*
D03*
D18*
X7275000Y1870000D02*
D03*
Y1820000D02*
D03*
Y1770000D02*
D03*
Y1720000D02*
D03*
X7585000Y1920000D02*
D03*
Y1870000D02*
D03*
Y1820000D02*
D03*
Y1770000D02*
D03*
Y1720000D02*
D03*
X7275000Y2240000D02*
D03*
Y2190000D02*
D03*
Y2140000D02*
D03*
Y2090000D02*
D03*
X7585000Y2290000D02*
D03*
Y2240000D02*
D03*
Y2190000D02*
D03*
Y2140000D02*
D03*
Y2090000D02*
D03*
X7275000Y1120000D02*
D03*
Y1070000D02*
D03*
Y1020000D02*
D03*
Y970000D02*
D03*
X7585000Y1170000D02*
D03*
Y1120000D02*
D03*
Y1070000D02*
D03*
Y1020000D02*
D03*
Y970000D02*
D03*
X7275000Y2620000D02*
D03*
Y2570000D02*
D03*
Y2520000D02*
D03*
Y2470000D02*
D03*
X7585000Y2670000D02*
D03*
Y2620000D02*
D03*
Y2570000D02*
D03*
Y2520000D02*
D03*
Y2470000D02*
D03*
X6915000Y4070000D02*
D03*
Y4020000D02*
D03*
Y3970000D02*
D03*
Y3920000D02*
D03*
X7225000Y4120000D02*
D03*
Y4070000D02*
D03*
Y4020000D02*
D03*
Y3970000D02*
D03*
Y3920000D02*
D03*
X7275000Y1500000D02*
D03*
Y1450000D02*
D03*
Y1400000D02*
D03*
Y1350000D02*
D03*
X7585000Y1550000D02*
D03*
Y1500000D02*
D03*
Y1450000D02*
D03*
Y1400000D02*
D03*
Y1350000D02*
D03*
X6915000Y3310000D02*
D03*
Y3260000D02*
D03*
Y3210000D02*
D03*
Y3160000D02*
D03*
X7225000Y3360000D02*
D03*
Y3310000D02*
D03*
Y3260000D02*
D03*
Y3210000D02*
D03*
Y3160000D02*
D03*
X3355000Y1470000D02*
D03*
Y1420000D02*
D03*
Y1370000D02*
D03*
Y1320000D02*
D03*
X3665000Y1520000D02*
D03*
Y1470000D02*
D03*
Y1420000D02*
D03*
Y1370000D02*
D03*
Y1320000D02*
D03*
X6915000Y3690000D02*
D03*
Y3640000D02*
D03*
Y3590000D02*
D03*
Y3540000D02*
D03*
X7225000Y3740000D02*
D03*
Y3690000D02*
D03*
Y3640000D02*
D03*
Y3590000D02*
D03*
Y3540000D02*
D03*
X3254999Y2205000D02*
D03*
Y2255000D02*
D03*
Y2305000D02*
D03*
Y2355000D02*
D03*
X2964999Y2205000D02*
D03*
Y2255000D02*
D03*
Y2305000D02*
D03*
X6255000Y1145000D02*
D03*
Y1095000D02*
D03*
Y1045000D02*
D03*
Y995000D02*
D03*
Y945000D02*
D03*
Y895000D02*
D03*
Y845000D02*
D03*
X6505000Y845000D02*
D03*
Y895000D02*
D03*
Y945000D02*
D03*
Y995000D02*
D03*
Y1045000D02*
D03*
Y1095000D02*
D03*
Y1145000D02*
D03*
Y1195000D02*
D03*
X6254999Y1955000D02*
D03*
Y1905001D02*
D03*
Y1855001D02*
D03*
Y1805000D02*
D03*
Y1755001D02*
D03*
Y1705000D02*
D03*
Y1655000D02*
D03*
X6505000Y1655000D02*
D03*
Y1705000D02*
D03*
Y1755000D02*
D03*
Y1805000D02*
D03*
Y1855000D02*
D03*
Y1905000D02*
D03*
Y1955000D02*
D03*
Y2005000D02*
D03*
D19*
X7430000Y1820000D02*
D03*
Y2190000D02*
D03*
Y1070000D02*
D03*
Y2570000D02*
D03*
X7070000Y4020000D02*
D03*
X7430000Y1450000D02*
D03*
X7070000Y3260000D02*
D03*
X3510000Y1420000D02*
D03*
X7070000Y3640000D02*
D03*
D20*
X3747500Y2227500D02*
D03*
X5007500Y2087500D02*
D03*
X3222500Y3902500D02*
D03*
X5812500Y3942500D02*
D03*
D21*
X3747500Y2162500D02*
D03*
Y2097500D02*
D03*
Y2032500D02*
D03*
X4172500Y2227500D02*
D03*
Y2162500D02*
D03*
Y2097500D02*
D03*
Y2032500D02*
D03*
X5007500Y2022500D02*
D03*
Y1957500D02*
D03*
Y1892500D02*
D03*
X5432500Y2087500D02*
D03*
Y2022500D02*
D03*
Y1957500D02*
D03*
Y1892500D02*
D03*
X3222500Y3967500D02*
D03*
Y4032500D02*
D03*
Y4097500D02*
D03*
X2797500Y3902500D02*
D03*
Y3967500D02*
D03*
Y4032500D02*
D03*
Y4097500D02*
D03*
X5812500Y4007500D02*
D03*
Y4072500D02*
D03*
Y4137500D02*
D03*
X5387500Y3942500D02*
D03*
Y4007500D02*
D03*
Y4072500D02*
D03*
Y4137500D02*
D03*
D22*
X5150000Y1265000D02*
D03*
D23*
Y1170000D02*
D03*
Y1075000D02*
D03*
X5410000D02*
D03*
Y1170000D02*
D03*
Y1265000D02*
D03*
D24*
X2495000Y2360000D02*
D03*
D25*
X2400000D02*
D03*
X2305000D02*
D03*
Y2100000D02*
D03*
X2400000D02*
D03*
X2495000D02*
D03*
D26*
X3109999Y2280000D02*
D03*
D27*
X6722500Y2375000D02*
D03*
Y2565000D02*
D03*
X6977500D02*
D03*
Y2470000D02*
D03*
X2982500Y3435000D02*
D03*
Y3625000D02*
D03*
X3237500D02*
D03*
Y3530000D02*
D03*
D28*
X6977500Y2375000D02*
D03*
X3237500Y3435000D02*
D03*
D29*
X7654551Y3179735D02*
D03*
X7719551D02*
D03*
X7784551D02*
D03*
Y2979734D02*
D03*
X7719551D02*
D03*
D30*
X7654551D02*
D03*
D31*
X7665000Y3930000D02*
D03*
X7715000D02*
D03*
X7765000D02*
D03*
X7815000D02*
D03*
X7665000Y4230000D02*
D03*
X7715000D02*
D03*
X7765000D02*
D03*
D32*
X7815000D02*
D03*
D33*
X6355000Y794999D02*
D03*
X6405000D02*
D03*
X6405000Y1245000D02*
D03*
X6355000D02*
D03*
X6355000Y1605000D02*
D03*
X6405000D02*
D03*
X6404999Y2055000D02*
D03*
X6354999D02*
D03*
D34*
X6380000Y1020000D02*
D03*
X6380000Y1830000D02*
D03*
D35*
X4195000Y2832500D02*
D03*
Y2897500D02*
D03*
Y2962500D02*
D03*
Y3027500D02*
D03*
Y3092500D02*
D03*
Y3157500D02*
D03*
Y3222500D02*
D03*
Y3287500D02*
D03*
X3625000Y2832500D02*
D03*
Y2897500D02*
D03*
Y2962500D02*
D03*
Y3027500D02*
D03*
Y3092500D02*
D03*
Y3157500D02*
D03*
Y3222500D02*
D03*
X4275000Y3862500D02*
D03*
Y3927500D02*
D03*
Y3992500D02*
D03*
Y4057500D02*
D03*
Y4122500D02*
D03*
Y4187500D02*
D03*
Y4252500D02*
D03*
Y4317500D02*
D03*
X3705000Y3862500D02*
D03*
Y3927500D02*
D03*
Y3992500D02*
D03*
Y4057500D02*
D03*
Y4122500D02*
D03*
Y4187500D02*
D03*
Y4252500D02*
D03*
X5175000Y3227500D02*
D03*
Y3162500D02*
D03*
Y3097500D02*
D03*
Y3032500D02*
D03*
Y2967500D02*
D03*
Y2902500D02*
D03*
Y2837500D02*
D03*
Y2772500D02*
D03*
X5745000Y3227500D02*
D03*
Y3162500D02*
D03*
Y3097500D02*
D03*
Y3032500D02*
D03*
Y2967500D02*
D03*
Y2902500D02*
D03*
Y2837500D02*
D03*
D36*
X3625000Y3287500D02*
D03*
X3705000Y4317500D02*
D03*
X5745000Y2772500D02*
D03*
D37*
X3795000Y3630000D02*
D03*
D38*
Y3580000D02*
D03*
Y3530000D02*
D03*
Y3480000D02*
D03*
Y3430000D02*
D03*
X4085000Y3630000D02*
D03*
Y3580000D02*
D03*
Y3530000D02*
D03*
Y3480000D02*
D03*
Y3430000D02*
D03*
D39*
X3940000Y3530000D02*
D03*
D40*
X2892500Y2837500D02*
D03*
X6397500Y3742500D02*
D03*
D41*
X2957500Y2837500D02*
D03*
X3022500D02*
D03*
X3087500D02*
D03*
X2892500Y3262500D02*
D03*
X2957500D02*
D03*
X3022500D02*
D03*
X3087500D02*
D03*
X6332500Y3742500D02*
D03*
X6267500D02*
D03*
X6202500D02*
D03*
X6397500Y3317500D02*
D03*
X6332500D02*
D03*
X6267500D02*
D03*
X6202500D02*
D03*
D42*
X5090000Y4125000D02*
D03*
D43*
X5040000D02*
D03*
X4990000D02*
D03*
X4940000D02*
D03*
X4890000D02*
D03*
X5090000Y3835000D02*
D03*
X5040000D02*
D03*
X4990000D02*
D03*
X4940000D02*
D03*
X4890000D02*
D03*
D44*
X4990000Y3980000D02*
D03*
D45*
X2502123Y3912123D02*
D03*
X3640000Y2710000D02*
D03*
X3810000Y3760000D02*
D03*
X5560000Y2710000D02*
D03*
X5630000Y3330000D02*
D03*
X5750000Y4280000D02*
D03*
X5380000D02*
D03*
X5740000Y3710000D02*
D03*
D46*
X2502123Y4112124D02*
D03*
D47*
X3440000Y2710000D02*
D03*
X4010000Y3760000D02*
D03*
X5360000Y2710000D02*
D03*
X5430000Y3330000D02*
D03*
X5950000Y4280000D02*
D03*
X5580000D02*
D03*
X5940000Y3710000D02*
D03*
D48*
X6605000Y1190000D02*
D03*
X6715000D02*
D03*
X6605000Y790000D02*
D03*
X6715000D02*
D03*
X6605000Y890000D02*
D03*
X6715000D02*
D03*
X6605000Y990000D02*
D03*
X6715000D02*
D03*
X6605000Y1090000D02*
D03*
X6715000D02*
D03*
X6605000Y1550000D02*
D03*
X6715000D02*
D03*
X6605000Y1650000D02*
D03*
X6715000D02*
D03*
X6605000Y1750000D02*
D03*
X6715000D02*
D03*
X6605000Y1850000D02*
D03*
X6715000D02*
D03*
X6605000Y1950000D02*
D03*
X6715000D02*
D03*
X3865000Y1580000D02*
D03*
X3755000D02*
D03*
Y1480000D02*
D03*
X3865000D02*
D03*
X1985000Y1150000D02*
D03*
X1875000D02*
D03*
X3105000Y2030000D02*
D03*
X3215000D02*
D03*
X5205000Y2230000D02*
D03*
X5315000D02*
D03*
X1925000Y1550000D02*
D03*
X1815000D02*
D03*
Y1450000D02*
D03*
X1925000D02*
D03*
X2755000Y2400000D02*
D03*
X2865000D02*
D03*
X2755000Y2300000D02*
D03*
X2865000D02*
D03*
Y2200000D02*
D03*
X2755000D02*
D03*
X3365000Y2280000D02*
D03*
X3475000D02*
D03*
X6995000Y2150000D02*
D03*
X6885000D02*
D03*
X6815000Y1190000D02*
D03*
X6925000D02*
D03*
X6815000Y790000D02*
D03*
X6924999D02*
D03*
X6815000Y890000D02*
D03*
X6925000D02*
D03*
X6815000Y990000D02*
D03*
X6925000D02*
D03*
X6815000Y1090000D02*
D03*
X6925000D02*
D03*
X6815000Y1550000D02*
D03*
X6925000D02*
D03*
X6815000Y1650000D02*
D03*
X6925000D02*
D03*
X6815000Y1750000D02*
D03*
X6925000D02*
D03*
X6815000Y1850000D02*
D03*
X6925000D02*
D03*
X6815000Y1950000D02*
D03*
X6925000D02*
D03*
X3055000Y2700000D02*
D03*
X2945000D02*
D03*
X3665000Y3430000D02*
D03*
X3555000D02*
D03*
X3615000Y3530000D02*
D03*
X3505000D02*
D03*
X4315000Y2960000D02*
D03*
X4425000D02*
D03*
X4055000Y2700000D02*
D03*
X3945000D02*
D03*
X3665000Y3660000D02*
D03*
X3555000D02*
D03*
X4215000Y3390000D02*
D03*
X4325000D02*
D03*
X3855000Y2700000D02*
D03*
X3745000D02*
D03*
X2885000Y3630000D02*
D03*
X2775000D02*
D03*
X3085000Y4310000D02*
D03*
X2975000D02*
D03*
X3175000Y3800000D02*
D03*
X3285000D02*
D03*
X4415000Y2700000D02*
D03*
X4305000D02*
D03*
X4935000Y3100000D02*
D03*
X5045000D02*
D03*
X6075000Y3450000D02*
D03*
X5965000D02*
D03*
X6330000Y4240000D02*
D03*
X6225000D02*
D03*
X6115000D02*
D03*
X4935000Y4290000D02*
D03*
X4825000D02*
D03*
X5035000D02*
D03*
X5145000D02*
D03*
X5830000Y3820000D02*
D03*
X5725000D02*
D03*
X5615000D02*
D03*
X6985000Y4240000D02*
D03*
X7095000D02*
D03*
X6825000Y3470000D02*
D03*
X6715000D02*
D03*
X8185000Y2780000D02*
D03*
X8295000D02*
D03*
Y2680000D02*
D03*
X8185000D02*
D03*
X3855000Y920000D02*
D03*
X3965000D02*
D03*
X3615000Y1660000D02*
D03*
X3505000D02*
D03*
X3605000Y1790000D02*
D03*
X3495000D02*
D03*
X3215000Y1090000D02*
D03*
X3325000D02*
D03*
Y1190000D02*
D03*
X3215000D02*
D03*
X3835000Y2380000D02*
D03*
X3725000D02*
D03*
X4985000Y2230000D02*
D03*
X5095000D02*
D03*
X5415000Y2210000D02*
D03*
X5525000D02*
D03*
X1925000Y1350000D02*
D03*
X1815000D02*
D03*
X3365000Y2410000D02*
D03*
X3475000D02*
D03*
X6685000Y2150000D02*
D03*
X6795000D02*
D03*
X6685000Y2250000D02*
D03*
X6795000D02*
D03*
X6885000D02*
D03*
X6995000D02*
D03*
X6925000Y690000D02*
D03*
X6815000D02*
D03*
X6895000Y2050000D02*
D03*
X6785000D02*
D03*
X2975000Y3790000D02*
D03*
X3085000D02*
D03*
X2885000D02*
D03*
X2775000D02*
D03*
X3505000Y3330000D02*
D03*
X3395000D02*
D03*
X3505000Y3230000D02*
D03*
X3395000D02*
D03*
X4315000Y3190000D02*
D03*
X4425000D02*
D03*
X4315000Y3290000D02*
D03*
X4425000D02*
D03*
X3385000Y4290000D02*
D03*
X3275000D02*
D03*
X3585000D02*
D03*
X3475000D02*
D03*
X2885000Y3430000D02*
D03*
X2775000D02*
D03*
X4235000Y3570000D02*
D03*
X4345000D02*
D03*
X3505000Y2960000D02*
D03*
X3395000D02*
D03*
X4235000Y3770000D02*
D03*
X4345000D02*
D03*
X4235000Y3670000D02*
D03*
X4345000D02*
D03*
X3345000Y3630000D02*
D03*
X3455000D02*
D03*
X2885000Y3530000D02*
D03*
X2775000D02*
D03*
X2975000Y4210000D02*
D03*
X3085000D02*
D03*
X4315000Y2830000D02*
D03*
X4425000D02*
D03*
X5885000Y2730000D02*
D03*
X5995000D02*
D03*
X5885000Y2830000D02*
D03*
X5995000D02*
D03*
X6115000Y3090000D02*
D03*
X6225000D02*
D03*
X6115000Y3190000D02*
D03*
X6225000D02*
D03*
X6425000Y3090000D02*
D03*
X6315000D02*
D03*
X6425000Y3190000D02*
D03*
X6315000D02*
D03*
X4995000Y3510000D02*
D03*
X5105000D02*
D03*
X5885000Y3070000D02*
D03*
X5995000D02*
D03*
X6315000Y3860000D02*
D03*
X6205000D02*
D03*
D49*
X2400000Y3205000D02*
D03*
Y2835000D02*
D03*
D50*
Y3140000D02*
D03*
Y2900000D02*
D03*
D51*
X6065000Y4010000D02*
D03*
X6435000D02*
D03*
D52*
X6130000D02*
D03*
X6370000D02*
D03*
D53*
X1270000Y1005000D02*
D03*
Y1845000D02*
D03*
D54*
X1620000Y1650000D02*
D03*
Y1500000D02*
D03*
Y1350000D02*
D03*
D55*
Y1200000D02*
D03*
D56*
X2645000Y2735000D02*
D03*
X4550000Y4300000D02*
D03*
X4675000Y2735000D02*
D03*
X6580000Y4300000D02*
D03*
D57*
X3895000Y2565000D02*
D03*
X3300000D02*
D03*
Y4470000D02*
D03*
X3895000D02*
D03*
X5925000Y2565000D02*
D03*
X5330000D02*
D03*
Y4470000D02*
D03*
X5925000D02*
D03*
D58*
X2745000Y2565000D02*
D03*
X4450000Y4470000D02*
D03*
X4775000Y2565000D02*
D03*
X6480000Y4470000D02*
D03*
D59*
X4380000Y2565000D02*
D03*
X2815000Y4470000D02*
D03*
X6410000Y2565000D02*
D03*
X4845000Y4470000D02*
D03*
D60*
X4550000Y3815000D02*
D03*
Y3220000D02*
D03*
X2645000D02*
D03*
Y3815000D02*
D03*
X6580000D02*
D03*
Y3220000D02*
D03*
X4675000D02*
D03*
Y3815000D02*
D03*
D61*
X4550000Y2665000D02*
D03*
X2645000Y4370000D02*
D03*
X6580000Y2665000D02*
D03*
X4675000Y4370000D02*
D03*
D62*
X2050000Y870000D02*
D03*
Y710000D02*
D03*
X1890000Y870000D02*
D03*
Y710000D02*
D03*
X4790000Y1800000D02*
D03*
Y1640000D02*
D03*
X2890000Y870000D02*
D03*
Y710000D02*
D03*
X2540000D02*
D03*
Y870000D02*
D03*
X2360000D02*
D03*
Y710000D02*
D03*
D63*
X4205000Y1690000D02*
D03*
X4435000D02*
D03*
X3465000Y1070000D02*
D03*
X3695000D02*
D03*
X4210000Y1330000D02*
D03*
X4440000D02*
D03*
X5415000Y1520000D02*
D03*
X5185000D02*
D03*
D64*
X2970000Y1275000D02*
D03*
Y1045000D02*
D03*
X2970000Y1465000D02*
D03*
Y1695000D02*
D03*
X5770000Y1925000D02*
D03*
Y2155000D02*
D03*
X2600000Y1045000D02*
D03*
Y1275000D02*
D03*
D65*
X7850000Y230000D02*
D03*
Y5230000D02*
D03*
X2840000Y2040000D02*
D03*
X6420000Y4700000D02*
D03*
X4890000D02*
D03*
X6110000D02*
D03*
X4580000D02*
D03*
X7730000Y870000D02*
D03*
X7660000Y4560000D02*
D03*
X1410000Y4670000D02*
D03*
D66*
X8010000Y230000D02*
D03*
Y5230000D02*
D03*
X3000000Y2040000D02*
D03*
X6580000Y4700000D02*
D03*
X5050000D02*
D03*
X6270000D02*
D03*
X4740000D02*
D03*
X7890000Y870000D02*
D03*
X7820000Y4560000D02*
D03*
X1570000Y4670000D02*
D03*
X3380000Y1790000D02*
D03*
X3220000D02*
D03*
X4470000Y1100000D02*
D03*
X4310000D02*
D03*
X2720000Y1670000D02*
D03*
X2560000D02*
D03*
X1870000Y1020000D02*
D03*
X2030000D02*
D03*
X4930000Y1750000D02*
D03*
X5090000D02*
D03*
X5530000D02*
D03*
X5370000D02*
D03*
X3490000Y3090000D02*
D03*
X3330000D02*
D03*
X3490000Y2840000D02*
D03*
X3330000D02*
D03*
X3570000Y4170000D02*
D03*
X3410000D02*
D03*
X3570000Y4040000D02*
D03*
X3410000D02*
D03*
X5050000Y3390000D02*
D03*
X5210000D02*
D03*
X5900000Y2950000D02*
D03*
X6060000D02*
D03*
D67*
X2155000Y1150000D02*
D03*
X2275000Y1640000D02*
D03*
X2155000Y1010000D02*
D03*
D68*
X2305000Y1150000D02*
D03*
X2125000Y1640000D02*
D03*
X2305000Y1010000D02*
D03*
D69*
X5660000Y1215000D02*
D03*
X5030000Y1435000D02*
D03*
X2630000Y2185000D02*
D03*
D70*
X5660000Y1065000D02*
D03*
X5030000Y1585000D02*
D03*
X2630000Y2035000D02*
D03*
D71*
X2400000Y3380000D02*
D03*
D72*
Y3680000D02*
D03*
D73*
X4640000Y1410000D02*
D03*
Y1130000D02*
D03*
X4490000Y2250000D02*
D03*
Y1970000D02*
D03*
X5750000Y1640000D02*
D03*
Y1360000D02*
D03*
X4730000Y2250000D02*
D03*
Y1970000D02*
D03*
X4870000Y1050000D02*
D03*
Y1330000D02*
D03*
D74*
X4170000Y1070000D02*
D03*
X3890000D02*
D03*
X4020000Y1740000D02*
D03*
X3740000D02*
D03*
X2420000Y1490000D02*
D03*
X2700000D02*
D03*
X5440000Y2360000D02*
D03*
X5720000D02*
D03*
X5700000Y3530000D02*
D03*
X5420000D02*
D03*
D75*
X4600000Y1740000D02*
D03*
Y1580000D02*
D03*
X3220000Y1500000D02*
D03*
Y1660000D02*
D03*
X4320000Y2080000D02*
D03*
Y2240000D02*
D03*
X2960000Y4760000D02*
D03*
Y4600000D02*
D03*
X3600000Y2010000D02*
D03*
Y2170000D02*
D03*
X5580000Y1420000D02*
D03*
Y1580000D02*
D03*
X2210000Y870000D02*
D03*
Y710000D02*
D03*
X2710000Y870000D02*
D03*
Y710000D02*
D03*
X3200000Y2850000D02*
D03*
Y2690000D02*
D03*
X6420000Y2880000D02*
D03*
Y2720000D02*
D03*
X6290000D02*
D03*
Y2880000D02*
D03*
X2510000Y4460000D02*
D03*
Y4620000D02*
D03*
X6160000Y2880000D02*
D03*
Y2720000D02*
D03*
X3600000Y2450000D02*
D03*
Y2290000D02*
D03*
X5920000Y3170000D02*
D03*
Y3330000D02*
D03*
D85*
X8108000Y2476800D02*
D03*
Y4508800D02*
D03*
D86*
Y2222800D02*
D03*
Y1968800D02*
D03*
Y1714800D02*
D03*
Y1460800D02*
D03*
Y1206800D02*
D03*
Y952800D02*
D03*
X8402000Y2476800D02*
D03*
Y2222800D02*
D03*
Y1968800D02*
D03*
Y1714800D02*
D03*
Y1460800D02*
D03*
Y1206800D02*
D03*
Y952800D02*
D03*
X8108000Y4254800D02*
D03*
Y4000800D02*
D03*
Y3746800D02*
D03*
Y3492800D02*
D03*
Y3238800D02*
D03*
Y2984800D02*
D03*
X8402000Y4508800D02*
D03*
Y4254800D02*
D03*
Y4000800D02*
D03*
Y3746800D02*
D03*
Y3492800D02*
D03*
Y3238800D02*
D03*
Y2984800D02*
D03*
D87*
X7620000Y464500D02*
D03*
X7366000D02*
D03*
X7112000D02*
D03*
X6858000D02*
D03*
X6604000D02*
D03*
X6350000D02*
D03*
X6096000D02*
D03*
X5842000D02*
D03*
X5588000D02*
D03*
X5334000D02*
D03*
X5080000D02*
D03*
X4826000D02*
D03*
X4572000D02*
D03*
X4318000D02*
D03*
X4064000D02*
D03*
X3810000D02*
D03*
X3556000D02*
D03*
X3302000D02*
D03*
X3048000D02*
D03*
X2794000D02*
D03*
X2540000D02*
D03*
X2286000D02*
D03*
X2032000D02*
D03*
X7620000Y170500D02*
D03*
X7366000D02*
D03*
X7112000D02*
D03*
X6858000D02*
D03*
X6604000D02*
D03*
X6350000D02*
D03*
X6096000D02*
D03*
X5842000D02*
D03*
X5588000D02*
D03*
X5334000D02*
D03*
X5080000D02*
D03*
X4826000D02*
D03*
X4572000D02*
D03*
X4318000D02*
D03*
X4064000D02*
D03*
X3810000D02*
D03*
X3556000D02*
D03*
X3302000D02*
D03*
X3048000D02*
D03*
X2794000D02*
D03*
X2540000D02*
D03*
X2286000D02*
D03*
X7620000Y5290500D02*
D03*
X7366000D02*
D03*
X7112000D02*
D03*
X6858000D02*
D03*
X6604000D02*
D03*
X6350000D02*
D03*
X6096000D02*
D03*
X5842000D02*
D03*
X5588000D02*
D03*
X5334000D02*
D03*
X5080000D02*
D03*
X4826000D02*
D03*
X4572000D02*
D03*
X4318000D02*
D03*
X4064000D02*
D03*
X3810000D02*
D03*
X3556000D02*
D03*
X3302000D02*
D03*
X3048000D02*
D03*
X2794000D02*
D03*
X2540000D02*
D03*
X2286000D02*
D03*
X2032000D02*
D03*
X7620000Y4996500D02*
D03*
X7366000D02*
D03*
X7112000D02*
D03*
X6858000D02*
D03*
X6604000D02*
D03*
X6350000D02*
D03*
X6096000D02*
D03*
X5842000D02*
D03*
X5588000D02*
D03*
X5334000D02*
D03*
X5080000D02*
D03*
X4826000D02*
D03*
X4572000D02*
D03*
X4318000D02*
D03*
X4064000D02*
D03*
X3810000D02*
D03*
X3556000D02*
D03*
X3302000D02*
D03*
X3048000D02*
D03*
X2794000D02*
D03*
X2540000D02*
D03*
X2286000D02*
D03*
X2032000Y4532400D02*
D03*
X2286000D02*
D03*
Y4238400D02*
D03*
D88*
X2032000Y170500D02*
D03*
Y4996500D02*
D03*
Y4238400D02*
D03*
D89*
X8064500Y615000D02*
D03*
Y4846000D02*
D03*
D90*
X1460500Y5143500D02*
D03*
D91*
X1480000Y345000D02*
D03*
D92*
Y695000D02*
D03*
%TF.MD5,ad0ea622b774eaef6bd4babe31baa083*%
M02*
