%TF.GenerationSoftware,Altium Limited,Altium Designer,21.2.2 (38)*%
G04 Layer_Color=32896*
%FSLAX45Y45*%
%MOMM*%
%TF.SameCoordinates,9B882A86-BDC0-4CB1-B03D-B9E00FC7DE04*%
%TF.FilePolarity,Positive*%
%TF.FileFunction,Legend,Bot*%
%TF.Part,Single*%
G01*
G75*
%TA.AperFunction,NonConductor*%
%ADD24C,0.15000*%
%ADD32C,0.20000*%
%ADD33R,0.15000X1.40000*%
%ADD34R,0.15000X0.40000*%
%ADD35R,0.15000X0.20000*%
%ADD36R,0.15000X1.20000*%
%ADD37R,0.15000X0.20000*%
%ADD38R,0.15000X0.60000*%
%ADD39R,0.15000X1.00000*%
%ADD40R,0.15000X0.60000*%
%ADD41R,0.15000X1.40000*%
%ADD42R,0.15000X0.80000*%
%ADD43R,0.15000X0.20000*%
%ADD44R,0.15000X0.80000*%
%ADD45R,0.15000X0.40000*%
%ADD46R,0.15000X0.60000*%
%ADD47R,0.15000X0.40000*%
%ADD48R,0.15000X0.60000*%
G36*
X681000Y50000D02*
X651000Y75000D01*
Y25000D01*
X681000Y50000D01*
D02*
G37*
G36*
X82500Y1925000D02*
X107500Y1955000D01*
X57500D01*
X82500Y1925000D01*
D02*
G37*
G36*
X2955001Y1196000D02*
X2783797D01*
D01*
X2625849D01*
X2435001D01*
Y1956000D01*
X2625849D01*
D01*
X2783797D01*
D01*
X2955001D01*
Y1196000D01*
D02*
G37*
%LPC*%
G36*
X2760342Y1934026D02*
Y1918557D01*
X2733291D01*
Y1932349D01*
X2717213D01*
Y1918557D01*
X2686352D01*
X2686276D01*
X2685971D01*
X2685514D01*
X2684828D01*
X2684142D01*
X2683304D01*
X2681475Y1918633D01*
X2679570D01*
X2678656Y1918710D01*
X2677741D01*
X2676979Y1918786D01*
X2676294D01*
X2675760Y1918862D01*
X2675379Y1918938D01*
X2675303D01*
X2675151Y1919014D01*
X2674846Y1919167D01*
X2674465Y1919319D01*
X2674084Y1919548D01*
X2673703Y1919853D01*
X2673246Y1920234D01*
X2672865Y1920691D01*
X2672788Y1920767D01*
X2672712Y1920919D01*
X2672560Y1921224D01*
X2672407Y1921681D01*
X2672179Y1922139D01*
X2672026Y1922748D01*
X2671950Y1923434D01*
X2671874Y1924120D01*
Y1924653D01*
X2671950Y1925263D01*
X2672103Y1926177D01*
X2672331Y1927320D01*
X2672712Y1928768D01*
X2673169Y1930368D01*
X2673779Y1932273D01*
X2658082Y1934026D01*
D01*
Y1933950D01*
X2657929Y1933721D01*
X2657777Y1933340D01*
X2657625Y1932807D01*
X2657396Y1932121D01*
X2657167Y1931283D01*
X2656863Y1930368D01*
X2656634Y1929378D01*
X2656329Y1928235D01*
X2656024Y1927015D01*
X2655796Y1925720D01*
X2655567Y1924272D01*
X2655262Y1921300D01*
X2655110Y1918024D01*
Y1917109D01*
X2655186Y1916652D01*
Y1916119D01*
X2655339Y1914747D01*
X2655567Y1913223D01*
X2655872Y1911623D01*
X2656329Y1909870D01*
X2656939Y1908194D01*
Y1908118D01*
X2657015Y1908042D01*
X2657091Y1907813D01*
X2657244Y1907508D01*
X2657701Y1906746D01*
X2658234Y1905756D01*
X2658920Y1904689D01*
X2659682Y1903698D01*
X2660596Y1902631D01*
X2661663Y1901793D01*
X2661816Y1901717D01*
X2662197Y1901488D01*
X2662882Y1901107D01*
X2663721Y1900650D01*
X2664864Y1900193D01*
X2666235Y1899736D01*
X2667835Y1899279D01*
X2669588Y1898974D01*
X2669664D01*
X2669740D01*
X2669969Y1898898D01*
X2670274D01*
X2670731Y1898821D01*
X2671264D01*
X2671950Y1898745D01*
X2672712Y1898669D01*
X2673550Y1898593D01*
X2674617D01*
X2675760Y1898517D01*
X2677056Y1898440D01*
X2678503D01*
X2680180Y1898364D01*
X2681932D01*
X2683837D01*
X2717213D01*
Y1889068D01*
X2655110D01*
D01*
X2760342D01*
Y1934026D01*
D02*
G37*
G36*
X2733291Y1877409D02*
X2662425D01*
X2661358Y1877333D01*
X2660063Y1877257D01*
X2658615D01*
X2657091Y1877104D01*
X2655491Y1877028D01*
X2653815Y1876876D01*
X2650462Y1876419D01*
X2648862Y1876190D01*
X2647338Y1875885D01*
X2645814Y1875504D01*
X2644518Y1875123D01*
X2644442D01*
X2644213Y1875047D01*
X2643909Y1874895D01*
X2643451Y1874742D01*
X2642842Y1874514D01*
X2642232Y1874209D01*
X2640708Y1873523D01*
X2639032Y1872609D01*
X2637279Y1871542D01*
X2635527Y1870323D01*
X2634003Y1868875D01*
X2633926Y1868799D01*
X2633850Y1868722D01*
X2633622Y1868494D01*
X2633393Y1868113D01*
X2633088Y1867732D01*
X2632707Y1867275D01*
X2632250Y1866665D01*
X2631869Y1865979D01*
X2631336Y1865293D01*
X2630878Y1864455D01*
X2629888Y1862626D01*
X2628897Y1860493D01*
X2628059Y1858054D01*
Y1857978D01*
X2627983Y1857750D01*
X2627830Y1857369D01*
X2627754Y1856835D01*
X2627526Y1856226D01*
X2627373Y1855387D01*
X2627145Y1854473D01*
X2626992Y1853406D01*
X2626764Y1852263D01*
X2626535Y1850968D01*
X2626383Y1849596D01*
X2626230Y1848072D01*
X2626078Y1846472D01*
X2625925Y1844719D01*
X2625849Y1842973D01*
Y1839765D01*
X2625925Y1839233D01*
Y1837938D01*
X2626078Y1836337D01*
X2626230Y1834509D01*
X2626383Y1832451D01*
X2626687Y1830318D01*
X2627068Y1828108D01*
X2627526Y1825822D01*
X2628059Y1823460D01*
X2628669Y1821250D01*
X2629431Y1819040D01*
X2630345Y1816983D01*
X2631412Y1815154D01*
X2632555Y1813477D01*
X2632631Y1813401D01*
X2632860Y1813096D01*
X2633241Y1812715D01*
X2633774Y1812182D01*
X2634460Y1811572D01*
X2635222Y1810887D01*
X2636136Y1810201D01*
X2637203Y1809439D01*
X2638346Y1808677D01*
X2639641Y1807991D01*
X2641013Y1807305D01*
X2642537Y1806696D01*
X2644137Y1806162D01*
X2645814Y1805781D01*
X2647566Y1805476D01*
X2649471Y1805400D01*
X2649547D01*
X2649700D01*
X2649852D01*
X2650157D01*
X2650919D01*
X2651910Y1805476D01*
X2649090Y1828565D01*
X2649014D01*
X2648938D01*
X2648404Y1828717D01*
X2647719Y1828870D01*
X2646880Y1829098D01*
X2645966Y1829479D01*
X2645052Y1829937D01*
X2644213Y1830470D01*
X2643528Y1831232D01*
X2643451Y1831384D01*
X2643223Y1831765D01*
X2642842Y1832451D01*
X2642461Y1833442D01*
X2642004Y1834661D01*
X2641851Y1835423D01*
X2641699Y1836261D01*
X2641546Y1837176D01*
X2641394Y1838090D01*
X2641318Y1839157D01*
Y1841062D01*
X2641394Y1841595D01*
Y1842281D01*
X2641470Y1843043D01*
X2641546Y1843881D01*
X2641623Y1844796D01*
X2641927Y1846701D01*
X2642385Y1848682D01*
X2642918Y1850511D01*
X2643299Y1851425D01*
X2643756Y1852187D01*
X2643832Y1852339D01*
X2644061Y1852644D01*
X2644442Y1853101D01*
X2644975Y1853711D01*
X2645737Y1854321D01*
X2646576Y1855006D01*
X2647642Y1855692D01*
X2648862Y1856226D01*
X2649014Y1856302D01*
X2649395Y1856378D01*
X2650005Y1856530D01*
X2650462Y1856607D01*
X2650995Y1856759D01*
X2651529Y1856835D01*
X2652214Y1856911D01*
X2652976Y1856988D01*
X2653815Y1857064D01*
X2654729Y1857140D01*
X2655796D01*
X2656863Y1857216D01*
X2658082D01*
X2669283Y1857292D01*
X2669131Y1857216D01*
X2668750Y1856911D01*
X2668140Y1856378D01*
X2667378Y1855616D01*
X2666388Y1854778D01*
X2665321Y1853635D01*
X2664254Y1852416D01*
X2663111Y1850968D01*
X2661892Y1849368D01*
X2660825Y1847691D01*
X2659758Y1845786D01*
X2658844Y1843729D01*
X2658006Y1841519D01*
X2657396Y1839233D01*
X2657015Y1836795D01*
X2656863Y1834280D01*
Y1833594D01*
X2656939Y1832832D01*
X2657091Y1831765D01*
X2657244Y1830470D01*
X2657548Y1828946D01*
X2657929Y1827270D01*
X2658463Y1825441D01*
X2659149Y1823536D01*
X2660063Y1821555D01*
X2661054Y1819573D01*
X2662349Y1817516D01*
X2663797Y1815459D01*
X2665549Y1813554D01*
X2667531Y1811649D01*
X2669817Y1809896D01*
X2669969Y1809820D01*
X2670274Y1809591D01*
X2670883Y1809286D01*
X2671645Y1808829D01*
X2672636Y1808296D01*
X2673855Y1807686D01*
X2675303Y1807077D01*
X2676903Y1806391D01*
X2678656Y1805705D01*
X2680561Y1805095D01*
X2682694Y1804486D01*
X2684980Y1803952D01*
X2687343Y1803571D01*
X2689933Y1803190D01*
X2692600Y1802962D01*
X2695420Y1802886D01*
X2625849D01*
X2734968D01*
Y1835728D01*
X2734891Y1836490D01*
X2734739Y1837480D01*
X2734587Y1838700D01*
X2734282Y1840071D01*
X2733901Y1841671D01*
X2733444Y1843348D01*
X2732758Y1845177D01*
X2731920Y1847082D01*
X2730929Y1848987D01*
X2729710Y1850968D01*
X2728262Y1852949D01*
X2726586Y1854854D01*
X2724681Y1856759D01*
X2722471Y1858512D01*
X2733291D01*
Y1877409D01*
D02*
G37*
G36*
X2891162Y1870513D02*
X2824640D01*
D01*
X2823344D01*
X2822735Y1870437D01*
X2822125D01*
X2821439Y1870361D01*
X2819763Y1870208D01*
X2817858Y1870056D01*
X2815801Y1869751D01*
X2813515Y1869370D01*
X2811152Y1868837D01*
X2808638Y1868227D01*
X2806123Y1867465D01*
X2803685Y1866551D01*
X2801170Y1865484D01*
X2798808Y1864265D01*
X2796522Y1862817D01*
X2794465Y1861141D01*
X2794312Y1861064D01*
X2794007Y1860683D01*
X2793474Y1860226D01*
X2792788Y1859464D01*
X2792026Y1858550D01*
X2791112Y1857483D01*
X2790197Y1856264D01*
X2789207Y1854816D01*
X2788216Y1853292D01*
X2787302Y1851539D01*
X2786387Y1849634D01*
X2785625Y1847653D01*
X2784940Y1845520D01*
X2784406Y1843310D01*
X2784101Y1840948D01*
X2783949Y1838509D01*
Y1837900D01*
X2784025Y1837366D01*
Y1836833D01*
X2784101Y1836071D01*
X2784254Y1835309D01*
X2784330Y1834471D01*
X2784787Y1832489D01*
X2785321Y1830280D01*
X2786159Y1827917D01*
X2786616Y1826774D01*
X2787226Y1825555D01*
X2787302Y1825479D01*
X2787378Y1825250D01*
X2787607Y1824946D01*
X2787835Y1824488D01*
X2788216Y1823955D01*
X2788597Y1823345D01*
X2789131Y1822583D01*
X2789664Y1821821D01*
X2791036Y1820145D01*
X2792712Y1818316D01*
X2794617Y1816411D01*
X2796903Y1814659D01*
X2785702D01*
Y1795913D01*
X2783949D01*
D01*
X2891162D01*
Y1816106D01*
X2853139D01*
X2853291Y1816183D01*
X2853596Y1816564D01*
X2854129Y1817021D01*
X2854815Y1817783D01*
X2855653Y1818621D01*
X2856491Y1819688D01*
X2857482Y1820983D01*
X2858473Y1822355D01*
X2859463Y1823879D01*
X2860454Y1825555D01*
X2861368Y1827384D01*
X2862130Y1829365D01*
X2862816Y1831423D01*
X2863349Y1833556D01*
X2863654Y1835842D01*
X2863807Y1838204D01*
Y1838814D01*
X2863730Y1839576D01*
X2863654Y1840567D01*
X2863502Y1841710D01*
X2863273Y1843157D01*
X2862968Y1844681D01*
X2862511Y1846358D01*
X2861978Y1848187D01*
X2861368Y1850015D01*
X2860530Y1851920D01*
X2859539Y1853902D01*
X2858396Y1855807D01*
X2857025Y1857788D01*
X2855425Y1859617D01*
X2853672Y1861369D01*
X2853520Y1861445D01*
X2853215Y1861750D01*
X2852605Y1862207D01*
X2851767Y1862817D01*
X2850776Y1863503D01*
X2849481Y1864265D01*
X2847957Y1865103D01*
X2846281Y1865941D01*
X2844299Y1866779D01*
X2842166Y1867618D01*
X2839727Y1868380D01*
X2837137Y1869065D01*
X2834317Y1869675D01*
X2831345Y1870132D01*
X2828069Y1870437D01*
X2824640Y1870513D01*
X2891162D01*
D02*
G37*
G36*
X2604757Y1751489D02*
Y1751298D01*
D01*
Y1751489D01*
D02*
G37*
G36*
X2553627Y1784902D02*
X2548902D01*
X2548064Y1784826D01*
X2547074D01*
X2546007Y1784750D01*
X2544788Y1784674D01*
X2543568Y1784598D01*
X2542197Y1784521D01*
X2540749Y1784369D01*
X2537625Y1784064D01*
X2534272Y1783607D01*
X2530767Y1783074D01*
X2527185Y1782388D01*
X2523604Y1781550D01*
X2520099Y1780559D01*
X2516670Y1779340D01*
X2513469Y1777968D01*
X2511945Y1777206D01*
X2510498Y1776368D01*
X2509126Y1775454D01*
X2507831Y1774539D01*
X2507678Y1774463D01*
X2507373Y1774158D01*
X2506840Y1773625D01*
X2506154Y1772939D01*
X2505316Y1772101D01*
X2504402Y1771034D01*
X2503487Y1769739D01*
X2502497Y1768291D01*
X2501430Y1766691D01*
X2500515Y1764938D01*
X2499601Y1762957D01*
X2498763Y1760823D01*
X2498077Y1758537D01*
X2497544Y1756023D01*
X2497239Y1753432D01*
X2497086Y1750612D01*
Y1784902D01*
Y1749927D01*
X2497163Y1749165D01*
X2497239Y1748098D01*
X2497467Y1746726D01*
X2497696Y1745278D01*
X2498077Y1743526D01*
X2498534Y1741773D01*
X2499220Y1739792D01*
X2499982Y1737811D01*
X2500896Y1735753D01*
X2502039Y1733620D01*
X2503411Y1731562D01*
X2505011Y1729581D01*
X2506840Y1727600D01*
X2508897Y1725771D01*
X2509050Y1725695D01*
X2509431Y1725390D01*
X2509812Y1725162D01*
X2510193Y1724933D01*
X2510650Y1724628D01*
X2511183Y1724323D01*
X2511869Y1723942D01*
X2512555Y1723638D01*
X2513393Y1723180D01*
X2514231Y1722799D01*
X2515222Y1722418D01*
X2516213Y1721961D01*
X2517356Y1721504D01*
X2518575Y1721123D01*
X2519870Y1720666D01*
X2521318Y1720209D01*
X2522766Y1719751D01*
X2524366Y1719370D01*
X2526042Y1718989D01*
X2527795Y1718608D01*
X2529700Y1718227D01*
X2531681Y1717846D01*
X2533739Y1717542D01*
X2535872Y1717237D01*
X2538158Y1717008D01*
X2540520Y1716780D01*
X2542959Y1716627D01*
X2545550Y1716475D01*
X2548217Y1716399D01*
X2497086D01*
D01*
X2604757D01*
D01*
X2552331D01*
X2553017Y1716475D01*
X2553855D01*
X2554846D01*
X2555913Y1716551D01*
X2557056Y1716627D01*
X2558351Y1716703D01*
X2559723Y1716856D01*
X2561171Y1716932D01*
X2564219Y1717237D01*
X2567571Y1717694D01*
X2571077Y1718227D01*
X2574582Y1718913D01*
X2578163Y1719751D01*
X2581745Y1720742D01*
X2585097Y1721885D01*
X2588298Y1723257D01*
X2589822Y1724095D01*
X2591270Y1724857D01*
X2592641Y1725771D01*
X2593937Y1726686D01*
X2594089Y1726762D01*
X2594394Y1727067D01*
X2594927Y1727600D01*
X2595613Y1728286D01*
X2596451Y1729124D01*
X2597366Y1730191D01*
X2598356Y1731486D01*
X2599347Y1732934D01*
X2600337Y1734534D01*
X2601328Y1736287D01*
X2602242Y1738268D01*
X2603081Y1740402D01*
X2603766Y1742688D01*
X2604300Y1745202D01*
X2604605Y1747793D01*
X2604757Y1750612D01*
Y1751298D01*
X2604681Y1752060D01*
X2604605Y1753127D01*
X2604452Y1754422D01*
X2604147Y1755946D01*
X2603843Y1757547D01*
X2603385Y1759375D01*
X2602776Y1761204D01*
X2602090Y1763185D01*
X2601176Y1765167D01*
X2600109Y1767148D01*
X2598890Y1769129D01*
X2597442Y1771034D01*
X2595689Y1772863D01*
X2593784Y1774539D01*
X2593632Y1774692D01*
X2593479Y1774768D01*
X2593175Y1774996D01*
X2592794Y1775225D01*
X2592413Y1775530D01*
X2591879Y1775835D01*
X2591270Y1776139D01*
X2590660Y1776520D01*
X2589898Y1776978D01*
X2589060Y1777359D01*
X2588145Y1777816D01*
X2587079Y1778273D01*
X2586012Y1778730D01*
X2584869Y1779264D01*
X2583573Y1779721D01*
X2582202Y1780178D01*
X2580754Y1780711D01*
X2579230Y1781169D01*
X2577630Y1781626D01*
X2575877Y1782083D01*
X2574125Y1782464D01*
X2572220Y1782921D01*
X2570238Y1783302D01*
X2568105Y1783607D01*
X2565971Y1783912D01*
X2563685Y1784217D01*
X2561323Y1784445D01*
X2558885Y1784674D01*
X2556294Y1784826D01*
X2553627Y1784902D01*
D02*
G37*
G36*
X2785702Y1781283D02*
D01*
Y1761319D01*
X2785778D01*
X2786083Y1761166D01*
X2786540Y1761014D01*
X2787226Y1760785D01*
X2788064Y1760480D01*
X2789054Y1760099D01*
X2790274Y1759718D01*
X2791645Y1759337D01*
X2791721D01*
X2791950Y1759261D01*
X2792255Y1759185D01*
X2792636Y1759033D01*
X2793398Y1758804D01*
X2793703Y1758728D01*
X2794007Y1758652D01*
X2793931Y1758575D01*
X2793779Y1758423D01*
X2793550Y1758118D01*
X2793169Y1757737D01*
X2792788Y1757280D01*
X2792255Y1756670D01*
X2791721Y1756061D01*
X2791188Y1755299D01*
X2789969Y1753699D01*
X2788673Y1751794D01*
X2787530Y1749736D01*
X2786464Y1747526D01*
Y1747450D01*
X2786387Y1747298D01*
X2786235Y1746917D01*
X2786083Y1746536D01*
X2785854Y1745926D01*
X2785702Y1745317D01*
X2785473Y1744555D01*
X2785244Y1743793D01*
X2784940Y1742878D01*
X2784711Y1741888D01*
X2784330Y1739754D01*
X2784025Y1737392D01*
X2783949Y1734953D01*
Y1781283D01*
D01*
Y1709579D01*
D01*
Y1734420D01*
X2784025Y1733810D01*
Y1732972D01*
X2784178Y1731982D01*
X2784254Y1730839D01*
X2784482Y1729619D01*
X2784787Y1728172D01*
X2785092Y1726724D01*
X2785549Y1725200D01*
X2786006Y1723676D01*
X2786616Y1722152D01*
X2787378Y1720628D01*
X2788216Y1719104D01*
X2789207Y1717656D01*
X2790350Y1716361D01*
X2790426Y1716284D01*
X2790655Y1716056D01*
X2791036Y1715751D01*
X2791493Y1715294D01*
X2792102Y1714760D01*
X2792864Y1714227D01*
X2793779Y1713617D01*
X2794769Y1713008D01*
X2795912Y1712322D01*
X2797132Y1711712D01*
X2798427Y1711179D01*
X2799875Y1710646D01*
X2801399Y1710188D01*
X2802999Y1709884D01*
X2804752Y1709655D01*
X2806504Y1709579D01*
X2783949D01*
X2863807D01*
X2807114D01*
X2807571Y1709655D01*
X2808181D01*
X2808790Y1709731D01*
X2809552Y1709807D01*
X2810390Y1709960D01*
X2812143Y1710341D01*
X2814124Y1710874D01*
X2816105Y1711636D01*
X2818010Y1712627D01*
X2818087Y1712703D01*
X2818239Y1712779D01*
X2818468Y1712932D01*
X2818849Y1713236D01*
X2819763Y1713922D01*
X2820906Y1714913D01*
X2822125Y1716132D01*
X2823421Y1717580D01*
X2824716Y1719332D01*
X2825783Y1721314D01*
Y1721390D01*
X2825935Y1721542D01*
X2826088Y1721923D01*
X2826240Y1722380D01*
X2826469Y1722914D01*
X2826773Y1723600D01*
X2827078Y1724438D01*
X2827383Y1725428D01*
X2827764Y1726495D01*
X2828145Y1727714D01*
X2828526Y1729010D01*
X2828907Y1730458D01*
X2829364Y1731982D01*
X2829745Y1733658D01*
X2830126Y1735487D01*
X2830507Y1737392D01*
Y1737544D01*
X2830660Y1738001D01*
X2830736Y1738763D01*
X2830964Y1739678D01*
X2831193Y1740821D01*
X2831498Y1742192D01*
X2831803Y1743640D01*
X2832107Y1745164D01*
X2832946Y1748441D01*
X2833784Y1751641D01*
X2834165Y1753165D01*
X2834622Y1754613D01*
X2835079Y1755908D01*
X2835536Y1757051D01*
X2837518D01*
X2837594D01*
X2837746D01*
X2838051D01*
X2838432Y1756975D01*
X2838965D01*
X2839499Y1756899D01*
X2840718Y1756670D01*
X2842090Y1756366D01*
X2843461Y1755832D01*
X2844757Y1755146D01*
X2845290Y1754689D01*
X2845823Y1754156D01*
X2845900Y1754003D01*
X2846052Y1753851D01*
X2846204Y1753546D01*
X2846433Y1753241D01*
X2846585Y1752784D01*
X2846814Y1752327D01*
X2847119Y1751717D01*
X2847347Y1751032D01*
X2847576Y1750193D01*
X2847728Y1749355D01*
X2847957Y1748365D01*
X2848109Y1747222D01*
X2848262Y1746002D01*
X2848338Y1744707D01*
Y1742345D01*
X2848262Y1741888D01*
Y1741354D01*
X2848109Y1740211D01*
X2847805Y1738840D01*
X2847424Y1737392D01*
X2846890Y1736020D01*
X2846204Y1734801D01*
X2846128Y1734649D01*
X2845823Y1734344D01*
X2845214Y1733734D01*
X2844452Y1733125D01*
X2843461Y1732363D01*
X2842166Y1731524D01*
X2840566Y1730762D01*
X2838737Y1730000D01*
X2842013Y1711636D01*
X2842166Y1711712D01*
X2842471Y1711789D01*
X2843080Y1711941D01*
X2843842Y1712246D01*
X2844757Y1712551D01*
X2845823Y1713008D01*
X2846966Y1713541D01*
X2848186Y1714075D01*
X2849557Y1714760D01*
X2850853Y1715599D01*
X2852224Y1716437D01*
X2853596Y1717427D01*
X2854891Y1718418D01*
X2856187Y1719637D01*
X2857330Y1720856D01*
X2858396Y1722228D01*
X2858473Y1722304D01*
X2858625Y1722609D01*
X2858930Y1723066D01*
X2859235Y1723676D01*
X2859616Y1724438D01*
X2860073Y1725428D01*
X2860606Y1726571D01*
X2861140Y1727943D01*
X2861597Y1729391D01*
X2862130Y1731067D01*
X2862587Y1732972D01*
X2862968Y1734953D01*
X2863273Y1737163D01*
X2863578Y1739525D01*
X2863730Y1742040D01*
X2863807Y1744783D01*
Y1746079D01*
X2863730Y1746993D01*
Y1748136D01*
X2863654Y1749431D01*
X2863578Y1750879D01*
X2863426Y1752403D01*
X2863273Y1754003D01*
X2863045Y1755680D01*
X2862435Y1759033D01*
X2862130Y1760633D01*
X2861673Y1762233D01*
X2861140Y1763681D01*
X2860606Y1764976D01*
Y1765052D01*
X2860454Y1765281D01*
X2860301Y1765586D01*
X2859997Y1766043D01*
X2859692Y1766576D01*
X2859311Y1767186D01*
X2858396Y1768634D01*
X2857177Y1770158D01*
X2855806Y1771682D01*
X2854205Y1773130D01*
X2853367Y1773739D01*
X2852453Y1774273D01*
X2852377D01*
X2852224Y1774425D01*
X2851919Y1774501D01*
X2851462Y1774730D01*
X2850929Y1774882D01*
X2850167Y1775111D01*
X2849329Y1775416D01*
X2848338Y1775644D01*
X2847195Y1775873D01*
X2845823Y1776178D01*
X2844376Y1776406D01*
X2842699Y1776559D01*
X2840870Y1776787D01*
X2838889Y1776863D01*
X2836679Y1777016D01*
X2834317D01*
X2810771Y1776711D01*
X2810695D01*
X2810314D01*
X2809781D01*
X2809095D01*
X2808257D01*
X2807342Y1776787D01*
X2806276D01*
X2805133Y1776863D01*
X2802694Y1776940D01*
X2800256Y1777092D01*
X2799037Y1777168D01*
X2797894Y1777321D01*
X2796903Y1777473D01*
X2795912Y1777625D01*
X2795836D01*
X2795684Y1777702D01*
X2795455D01*
X2795074Y1777854D01*
X2794617Y1777930D01*
X2794084Y1778083D01*
X2792864Y1778464D01*
X2791340Y1778921D01*
X2789588Y1779607D01*
X2787683Y1780369D01*
X2785702Y1781283D01*
D02*
G37*
G36*
X2762323Y1793970D02*
X2656863D01*
Y1710150D01*
D01*
Y1741468D01*
X2744493D01*
Y1710150D01*
X2762323D01*
Y1793970D01*
D02*
G37*
G36*
X2577020Y1712131D02*
D01*
Y1699406D01*
X2576944Y1699939D01*
X2576868Y1700549D01*
X2576792Y1701235D01*
X2576715Y1702073D01*
X2576563Y1702987D01*
X2576106Y1705045D01*
X2575420Y1707331D01*
X2574963Y1708474D01*
X2574429Y1709693D01*
X2573820Y1710912D01*
X2573134Y1712131D01*
D01*
X2555532Y1705807D01*
X2555608Y1705731D01*
X2555684Y1705578D01*
X2555837Y1705273D01*
X2556065Y1704969D01*
X2556294Y1704511D01*
X2556599Y1703978D01*
X2557208Y1702683D01*
X2557818Y1701235D01*
X2558351Y1699635D01*
X2558732Y1697958D01*
X2558885Y1697120D01*
Y1695596D01*
X2558732Y1694758D01*
X2558580Y1693767D01*
X2558275Y1692624D01*
X2557894Y1691405D01*
X2557284Y1690186D01*
X2556522Y1689043D01*
X2556446Y1688890D01*
X2556065Y1688586D01*
X2555456Y1688052D01*
X2554617Y1687366D01*
X2553398Y1686681D01*
X2552712Y1686300D01*
X2551950Y1685919D01*
X2551112Y1685538D01*
X2550198Y1685157D01*
X2549131Y1684776D01*
X2548064Y1684471D01*
X2547988D01*
X2547759Y1684395D01*
X2547378Y1684318D01*
X2546845Y1684242D01*
X2546083Y1684090D01*
X2545092Y1683937D01*
X2543949Y1683785D01*
X2542578Y1683633D01*
X2540978Y1683480D01*
X2539149Y1683328D01*
X2537015Y1683175D01*
X2534729Y1683023D01*
X2532062Y1682947D01*
X2529167Y1682871D01*
X2525966Y1682794D01*
X2524290D01*
X2522461D01*
X2498915D01*
Y1662601D01*
X2577020D01*
Y1712131D01*
D02*
G37*
G36*
X2705173Y1705807D02*
X2684980D01*
Y1666107D01*
X2705173D01*
Y1705807D01*
D02*
G37*
G36*
X2803532Y1699825D02*
X2785702D01*
Y1625606D01*
X2890248D01*
Y1647361D01*
Y1646866D01*
X2803532D01*
Y1699825D01*
D02*
G37*
G36*
X2604757Y1628997D02*
X2498915D01*
Y1608804D01*
X2575039D01*
X2574887Y1608652D01*
X2574582Y1608271D01*
X2574048Y1607661D01*
X2573363Y1606823D01*
X2572524Y1605756D01*
X2571534Y1604461D01*
X2570391Y1603013D01*
X2569248Y1601337D01*
X2568029Y1599508D01*
X2566733Y1597527D01*
X2565438Y1595393D01*
X2564219Y1593107D01*
X2562999Y1590669D01*
X2561780Y1588078D01*
X2560713Y1585411D01*
X2559723Y1582668D01*
X2498915D01*
D01*
X2604757D01*
Y1628997D01*
D02*
G37*
G36*
X2733291Y1650409D02*
X2656863D01*
Y1579543D01*
X2762704D01*
X2657015D01*
X2657320Y1579620D01*
X2657929Y1579696D01*
X2658691Y1579848D01*
X2659606Y1580001D01*
X2660749Y1580229D01*
X2661968Y1580458D01*
X2663340Y1580839D01*
X2664864Y1581220D01*
X2666464Y1581753D01*
X2668064Y1582287D01*
X2669817Y1582896D01*
X2671569Y1583658D01*
X2673398Y1584496D01*
X2675151Y1585411D01*
X2676979Y1586401D01*
X2677056Y1586478D01*
X2677437Y1586706D01*
X2677970Y1587087D01*
X2678732Y1587544D01*
X2679646Y1588230D01*
X2680789Y1589145D01*
X2682161Y1590211D01*
X2683685Y1591431D01*
X2685438Y1592878D01*
X2687343Y1594479D01*
X2689400Y1596384D01*
X2691686Y1598441D01*
X2694124Y1600803D01*
X2696639Y1603318D01*
X2699382Y1606137D01*
X2702278Y1609185D01*
X2702354Y1609261D01*
X2702430Y1609338D01*
X2702811Y1609795D01*
X2703497Y1610481D01*
X2704335Y1611395D01*
X2705402Y1612462D01*
X2706545Y1613681D01*
X2707840Y1614976D01*
X2709212Y1616424D01*
X2712108Y1619244D01*
X2713479Y1620691D01*
X2714927Y1621987D01*
X2716222Y1623282D01*
X2717442Y1624349D01*
X2718585Y1625263D01*
X2719499Y1625949D01*
X2719575Y1626025D01*
X2719804Y1626102D01*
X2720109Y1626330D01*
X2720566Y1626635D01*
X2721175Y1626940D01*
X2721785Y1627245D01*
X2722547Y1627626D01*
X2723385Y1628083D01*
X2725290Y1628845D01*
X2727348Y1629454D01*
X2729634Y1629988D01*
X2730777Y1630064D01*
X2731920Y1630140D01*
X2731996D01*
X2732224D01*
X2732529D01*
X2733063Y1630064D01*
X2733596D01*
X2734206Y1629988D01*
X2735730Y1629683D01*
X2737406Y1629226D01*
X2739159Y1628616D01*
X2740759Y1627702D01*
X2741597Y1627092D01*
X2742283Y1626483D01*
X2742359Y1626406D01*
X2742435Y1626330D01*
X2742588Y1626102D01*
X2742892Y1625797D01*
X2743121Y1625416D01*
X2743426Y1624959D01*
X2743807Y1624425D01*
X2744112Y1623892D01*
X2744797Y1622444D01*
X2745407Y1620691D01*
X2745788Y1618710D01*
X2745864Y1617567D01*
X2745940Y1616424D01*
Y1615815D01*
X2745864Y1615357D01*
Y1614824D01*
X2745712Y1614214D01*
X2745483Y1612767D01*
X2745026Y1611166D01*
X2744340Y1609414D01*
X2743883Y1608652D01*
X2743426Y1607814D01*
X2742816Y1607052D01*
X2742130Y1606290D01*
X2742054Y1606213D01*
X2741978Y1606137D01*
X2741749Y1605909D01*
X2741368Y1605680D01*
X2740987Y1605375D01*
X2740454Y1605070D01*
X2739844Y1604766D01*
X2739159Y1604385D01*
X2738320Y1604004D01*
X2737406Y1603623D01*
X2736339Y1603242D01*
X2735196Y1602937D01*
X2733901Y1602632D01*
X2732529Y1602327D01*
X2731081Y1602175D01*
X2729481Y1602022D01*
X2731462Y1581906D01*
X2731539D01*
X2731691D01*
X2731920Y1581982D01*
X2732224D01*
X2732605Y1582058D01*
X2733063Y1582134D01*
X2734206Y1582363D01*
X2735577Y1582591D01*
X2737101Y1582972D01*
X2738854Y1583430D01*
X2740683Y1583963D01*
X2742664Y1584649D01*
X2744645Y1585411D01*
X2746626Y1586325D01*
X2748607Y1587392D01*
X2750512Y1588535D01*
X2752265Y1589907D01*
X2753941Y1591431D01*
X2755389Y1593107D01*
X2755465Y1593183D01*
X2755694Y1593564D01*
X2756075Y1594098D01*
X2756532Y1594783D01*
X2757066Y1595774D01*
X2757675Y1596841D01*
X2758361Y1598212D01*
X2759047Y1599660D01*
X2759733Y1601260D01*
X2760418Y1603089D01*
X2761028Y1605070D01*
X2761561Y1607128D01*
X2762019Y1609414D01*
X2762400Y1611776D01*
X2762628Y1614291D01*
X2762704Y1616881D01*
Y1617567D01*
X2762628Y1618405D01*
X2762552Y1619472D01*
X2762476Y1620768D01*
X2762247Y1622292D01*
X2762019Y1623968D01*
X2761638Y1625797D01*
X2761180Y1627702D01*
X2760647Y1629759D01*
X2759961Y1631817D01*
X2759123Y1633798D01*
X2758132Y1635855D01*
X2757066Y1637836D01*
X2755770Y1639665D01*
X2754246Y1641418D01*
X2754170Y1641494D01*
X2753865Y1641799D01*
X2753408Y1642256D01*
X2752722Y1642789D01*
X2751884Y1643475D01*
X2750970Y1644237D01*
X2749750Y1645075D01*
X2748455Y1645914D01*
X2747007Y1646752D01*
X2745483Y1647590D01*
X2743731Y1648352D01*
X2741902Y1649038D01*
X2739921Y1649571D01*
X2737787Y1650028D01*
X2735577Y1650333D01*
X2733291Y1650409D01*
D02*
G37*
G36*
X2519108Y1560874D02*
X2498915D01*
Y1540681D01*
X2519108D01*
Y1560874D01*
D02*
G37*
G36*
X2760952Y1571390D02*
X2655034D01*
D01*
X2691610D01*
X2690924Y1571314D01*
X2690010Y1571238D01*
X2688867Y1571161D01*
X2687571Y1571009D01*
X2686047Y1570780D01*
X2684447Y1570476D01*
X2682694Y1570018D01*
X2680789Y1569561D01*
X2678884Y1568952D01*
X2676903Y1568190D01*
X2674922Y1567275D01*
X2672941Y1566285D01*
X2670960Y1565142D01*
X2668978Y1563770D01*
X2668826Y1563618D01*
X2668369Y1563313D01*
X2667683Y1562703D01*
X2666769Y1561865D01*
X2665778Y1560874D01*
X2664559Y1559579D01*
X2663340Y1558055D01*
X2662044Y1556379D01*
X2660673Y1554474D01*
X2659453Y1552340D01*
X2658234Y1549978D01*
X2657244Y1547463D01*
X2656329Y1544720D01*
X2655643Y1541748D01*
X2655186Y1538624D01*
X2655110Y1536948D01*
X2655034Y1535271D01*
Y1534662D01*
X2655110Y1533900D01*
X2655186Y1532833D01*
X2655262Y1531614D01*
X2655415Y1530166D01*
X2655720Y1528566D01*
X2656024Y1526813D01*
X2656405Y1524984D01*
X2656939Y1523079D01*
X2657548Y1521098D01*
X2658310Y1519117D01*
X2659225Y1517136D01*
X2660215Y1515154D01*
X2661435Y1513249D01*
X2662806Y1511497D01*
X2662882Y1511421D01*
X2663187Y1511116D01*
X2663644Y1510659D01*
X2664254Y1510049D01*
X2665016Y1509287D01*
X2666007Y1508525D01*
X2667073Y1507611D01*
X2668369Y1506696D01*
X2669817Y1505706D01*
X2671417Y1504791D01*
X2673093Y1503877D01*
X2674998Y1502962D01*
X2676979Y1502200D01*
X2679189Y1501515D01*
X2681399Y1500905D01*
X2683837Y1500524D01*
X2685971Y1520641D01*
X2685895D01*
X2685666Y1520717D01*
X2685285D01*
X2684828Y1520869D01*
X2684295Y1520946D01*
X2683609Y1521098D01*
X2682085Y1521555D01*
X2680332Y1522241D01*
X2678503Y1523155D01*
X2676751Y1524222D01*
X2675913Y1524908D01*
X2675151Y1525670D01*
X2675074Y1525746D01*
X2674998Y1525899D01*
X2674770Y1526127D01*
X2674541Y1526432D01*
X2674236Y1526813D01*
X2673931Y1527346D01*
X2673169Y1528489D01*
X2672407Y1529937D01*
X2671798Y1531614D01*
X2671341Y1533519D01*
X2671264Y1534509D01*
X2671188Y1535500D01*
Y1536109D01*
X2671264Y1536567D01*
X2671341Y1537100D01*
X2671493Y1537710D01*
X2671798Y1539234D01*
X2672407Y1540910D01*
X2672865Y1541748D01*
X2673322Y1542663D01*
X2673931Y1543577D01*
X2674617Y1544491D01*
X2675379Y1545330D01*
X2676294Y1546168D01*
X2676370Y1546244D01*
X2676522Y1546396D01*
X2676827Y1546549D01*
X2677284Y1546854D01*
X2677818Y1547158D01*
X2678503Y1547539D01*
X2679265Y1547997D01*
X2680180Y1548378D01*
X2681247Y1548759D01*
X2682390Y1549216D01*
X2683685Y1549597D01*
X2685057Y1549902D01*
X2686581Y1550206D01*
X2688257Y1550435D01*
X2690010Y1550511D01*
X2691915Y1550587D01*
X2691991D01*
X2692372D01*
X2692829D01*
X2693515Y1550511D01*
X2694353Y1550435D01*
X2695267Y1550359D01*
X2696258Y1550206D01*
X2697401Y1550054D01*
X2699763Y1549521D01*
X2700982Y1549140D01*
X2702202Y1548759D01*
X2703421Y1548225D01*
X2704488Y1547616D01*
X2705554Y1546930D01*
X2706545Y1546168D01*
X2706621Y1546092D01*
X2706774Y1545939D01*
X2707002Y1545711D01*
X2707307Y1545406D01*
X2707688Y1544949D01*
X2708069Y1544415D01*
X2708526Y1543806D01*
X2708983Y1543120D01*
X2709441Y1542358D01*
X2709898Y1541520D01*
X2710660Y1539615D01*
X2710965Y1538472D01*
X2711193Y1537405D01*
X2711346Y1536186D01*
X2711422Y1534890D01*
Y1534509D01*
X2711346Y1534052D01*
X2711269Y1533442D01*
X2711193Y1532680D01*
X2711041Y1531766D01*
X2710812Y1530775D01*
X2710431Y1529709D01*
X2710050Y1528489D01*
X2709517Y1527270D01*
X2708907Y1525975D01*
X2708145Y1524603D01*
X2707307Y1523308D01*
X2706240Y1521936D01*
X2705097Y1520565D01*
X2703726Y1519269D01*
X2706088Y1502962D01*
X2760952Y1513326D01*
Y1566742D01*
X2742054D01*
Y1528642D01*
X2724071Y1525365D01*
X2724147Y1525441D01*
X2724223Y1525670D01*
X2724376Y1526051D01*
X2724604Y1526508D01*
X2724833Y1527194D01*
X2725138Y1527880D01*
X2725443Y1528718D01*
X2725824Y1529632D01*
X2726128Y1530623D01*
X2726433Y1531766D01*
X2726967Y1534052D01*
X2727348Y1536643D01*
X2727500Y1537938D01*
Y1539843D01*
X2727424Y1540529D01*
X2727348Y1541443D01*
X2727195Y1542663D01*
X2726967Y1543958D01*
X2726662Y1545482D01*
X2726281Y1547082D01*
X2725747Y1548835D01*
X2725138Y1550664D01*
X2724300Y1552569D01*
X2723385Y1554474D01*
X2722242Y1556455D01*
X2720947Y1558360D01*
X2719423Y1560189D01*
X2717670Y1562017D01*
X2717594Y1562094D01*
X2717213Y1562398D01*
X2716680Y1562856D01*
X2715918Y1563465D01*
X2714927Y1564227D01*
X2713708Y1564989D01*
X2712336Y1565827D01*
X2710812Y1566742D01*
X2709060Y1567580D01*
X2707155Y1568418D01*
X2705021Y1569256D01*
X2702811Y1569942D01*
X2700373Y1570552D01*
X2697782Y1571009D01*
X2695115Y1571314D01*
X2692219Y1571390D01*
X2760952D01*
D02*
G37*
G36*
X2816334Y1566247D02*
X2783797D01*
X2815420D01*
X2814810Y1566170D01*
X2813972Y1566094D01*
X2813057Y1565942D01*
X2811991Y1565789D01*
X2810848Y1565637D01*
X2809552Y1565332D01*
X2808181Y1565027D01*
X2806809Y1564570D01*
X2805361Y1564113D01*
X2803837Y1563503D01*
X2802313Y1562818D01*
X2800865Y1562056D01*
X2799341Y1561141D01*
X2799265Y1561065D01*
X2799037Y1560913D01*
X2798579Y1560608D01*
X2798046Y1560227D01*
X2797436Y1559693D01*
X2796674Y1559084D01*
X2795836Y1558322D01*
X2794922Y1557484D01*
X2794007Y1556493D01*
X2793017Y1555426D01*
X2792026Y1554283D01*
X2791112Y1552988D01*
X2790121Y1551616D01*
X2789207Y1550168D01*
X2788369Y1548568D01*
X2787607Y1546892D01*
X2787530Y1546816D01*
X2787454Y1546511D01*
X2787226Y1545977D01*
X2786997Y1545215D01*
X2786692Y1544377D01*
X2786387Y1543310D01*
X2786083Y1542015D01*
X2785702Y1540643D01*
X2785321Y1539043D01*
X2785016Y1537291D01*
X2784711Y1535386D01*
X2784406Y1533404D01*
X2784178Y1531271D01*
X2783949Y1528985D01*
X2783873Y1526546D01*
X2783797Y1524040D01*
Y1522658D01*
X2783873Y1522127D01*
Y1521441D01*
X2783949Y1520755D01*
X2784101Y1519079D01*
X2784254Y1517098D01*
X2784559Y1514964D01*
X2784940Y1512678D01*
X2785473Y1510240D01*
X2786083Y1507725D01*
X2786768Y1505134D01*
X2787683Y1502620D01*
X2788750Y1500105D01*
X2789969Y1497667D01*
X2791417Y1495381D01*
X2793017Y1493247D01*
X2793093Y1493095D01*
X2793474Y1492790D01*
X2794007Y1492256D01*
X2794769Y1491571D01*
X2795684Y1490732D01*
X2796903Y1489742D01*
X2798275Y1488751D01*
X2799875Y1487684D01*
X2801627Y1486541D01*
X2803685Y1485475D01*
X2805895Y1484408D01*
X2808257Y1483417D01*
X2810924Y1482427D01*
X2813743Y1481665D01*
X2816791Y1480979D01*
X2819992Y1480522D01*
X2821973Y1501248D01*
X2821820D01*
X2821516Y1501324D01*
X2820982Y1501477D01*
X2820296Y1501629D01*
X2819382Y1501858D01*
X2818391Y1502162D01*
X2817325Y1502467D01*
X2816182Y1502848D01*
X2813667Y1503915D01*
X2812372Y1504525D01*
X2811076Y1505210D01*
X2809857Y1505972D01*
X2808714Y1506811D01*
X2807647Y1507801D01*
X2806657Y1508792D01*
X2806580Y1508868D01*
X2806428Y1509097D01*
X2806199Y1509401D01*
X2805895Y1509859D01*
X2805514Y1510392D01*
X2805133Y1511154D01*
X2804675Y1511916D01*
X2804218Y1512907D01*
X2803761Y1513897D01*
X2803304Y1515116D01*
X2802923Y1516336D01*
X2802542Y1517707D01*
X2802237Y1519231D01*
X2802008Y1520831D01*
X2801856Y1522508D01*
X2801780Y1524260D01*
Y1525251D01*
X2801856Y1525937D01*
X2801932Y1526775D01*
X2802008Y1527766D01*
X2802161Y1528909D01*
X2802313Y1530052D01*
X2802847Y1532566D01*
X2803228Y1533862D01*
X2803609Y1535157D01*
X2804142Y1536376D01*
X2804675Y1537595D01*
X2805361Y1538738D01*
X2806123Y1539729D01*
X2806199Y1539805D01*
X2806352Y1539958D01*
X2806580Y1540186D01*
X2806885Y1540567D01*
X2807342Y1540948D01*
X2807800Y1541405D01*
X2808409Y1541863D01*
X2809019Y1542396D01*
X2810543Y1543310D01*
X2812219Y1544149D01*
X2813210Y1544530D01*
X2814124Y1544758D01*
X2815191Y1544911D01*
X2816258Y1544987D01*
X2816334D01*
X2816410D01*
X2816867D01*
X2817553Y1544911D01*
X2818468Y1544682D01*
X2819458Y1544453D01*
X2820525Y1544072D01*
X2821592Y1543539D01*
X2822582Y1542777D01*
X2822735Y1542701D01*
X2823040Y1542320D01*
X2823497Y1541786D01*
X2824183Y1541024D01*
X2824868Y1539958D01*
X2825707Y1538586D01*
X2826469Y1536986D01*
X2826850Y1536071D01*
X2827231Y1535081D01*
Y1535005D01*
X2827307Y1534928D01*
X2827383Y1534624D01*
X2827459Y1534319D01*
X2827612Y1533785D01*
X2827840Y1533176D01*
X2828069Y1532414D01*
X2828297Y1531576D01*
X2828602Y1530509D01*
X2828907Y1529290D01*
X2829288Y1527918D01*
X2829745Y1526318D01*
X2830202Y1524565D01*
X2830660Y1522584D01*
X2831193Y1520374D01*
X2831803Y1518012D01*
Y1517936D01*
X2831879Y1517783D01*
Y1517555D01*
X2832031Y1517250D01*
X2832107Y1516869D01*
X2832260Y1516412D01*
X2832565Y1515269D01*
X2832946Y1513821D01*
X2833479Y1512221D01*
X2834089Y1510468D01*
X2834698Y1508639D01*
X2835460Y1506658D01*
X2836222Y1504677D01*
X2837060Y1502620D01*
X2837975Y1500715D01*
X2838965Y1498810D01*
X2840032Y1497057D01*
X2841099Y1495457D01*
X2842242Y1494009D01*
X2842318Y1493933D01*
X2842623Y1493628D01*
X2843156Y1493095D01*
X2843766Y1492485D01*
X2844604Y1491799D01*
X2845671Y1490961D01*
X2846814Y1490047D01*
X2848186Y1489208D01*
X2849633Y1488294D01*
X2851234Y1487380D01*
X2852986Y1486541D01*
X2854815Y1485856D01*
X2856796Y1485246D01*
X2858930Y1484713D01*
X2861140Y1484408D01*
X2863426Y1484332D01*
X2863502D01*
X2863807D01*
X2864188D01*
X2864797Y1484408D01*
X2865483Y1484484D01*
X2866321Y1484560D01*
X2867312Y1484713D01*
X2868379Y1484865D01*
X2869445Y1485170D01*
X2870665Y1485398D01*
X2871884Y1485779D01*
X2873179Y1486237D01*
X2874551Y1486770D01*
X2875846Y1487380D01*
X2877218Y1488065D01*
X2878513Y1488827D01*
X2878589Y1488904D01*
X2878818Y1489056D01*
X2879199Y1489285D01*
X2879656Y1489666D01*
X2880266Y1490123D01*
X2880952Y1490732D01*
X2881637Y1491418D01*
X2882476Y1492180D01*
X2883314Y1493095D01*
X2884228Y1494085D01*
X2885066Y1495152D01*
X2885981Y1496295D01*
X2886819Y1497590D01*
X2887657Y1498962D01*
X2888495Y1500410D01*
X2889181Y1502010D01*
X2889257Y1502086D01*
X2889334Y1502391D01*
X2889562Y1502924D01*
X2889791Y1503534D01*
X2890019Y1504372D01*
X2890400Y1505363D01*
X2890705Y1506506D01*
X2891086Y1507801D01*
X2891391Y1509249D01*
X2891772Y1510849D01*
X2892077Y1512526D01*
X2892305Y1514354D01*
X2892610Y1516336D01*
X2892763Y1518393D01*
X2892839Y1520527D01*
X2892915Y1522736D01*
Y1524108D01*
X2892839Y1524641D01*
Y1525251D01*
X2892763Y1526013D01*
X2892686Y1527689D01*
X2892458Y1529594D01*
X2892153Y1531652D01*
X2891848Y1533938D01*
X2891391Y1536300D01*
X2890781Y1538738D01*
X2890096Y1541253D01*
X2889257Y1543768D01*
X2888191Y1546130D01*
X2887048Y1548492D01*
X2885676Y1550626D01*
X2884152Y1552607D01*
X2884076Y1552759D01*
X2883771Y1553064D01*
X2883238Y1553521D01*
X2882552Y1554207D01*
X2881714Y1554969D01*
X2880647Y1555807D01*
X2879428Y1556722D01*
X2877980Y1557712D01*
X2876456Y1558703D01*
X2874703Y1559617D01*
X2872798Y1560532D01*
X2870741Y1561294D01*
X2868531Y1562056D01*
X2866169Y1562589D01*
X2863654Y1562970D01*
X2860987Y1563199D01*
X2860073Y1541939D01*
X2860149D01*
X2860454Y1541863D01*
X2860835Y1541786D01*
X2861368Y1541634D01*
X2862054Y1541482D01*
X2862816Y1541253D01*
X2863654Y1541024D01*
X2864569Y1540720D01*
X2866474Y1539881D01*
X2868379Y1538891D01*
X2870207Y1537595D01*
X2871046Y1536910D01*
X2871731Y1536071D01*
X2871808Y1535995D01*
X2871884Y1535843D01*
X2872036Y1535614D01*
X2872265Y1535233D01*
X2872570Y1534776D01*
X2872874Y1534166D01*
X2873179Y1533481D01*
X2873560Y1532719D01*
X2873865Y1531804D01*
X2874170Y1530814D01*
X2874475Y1529671D01*
X2874779Y1528451D01*
X2875008Y1527156D01*
X2875160Y1525784D01*
X2875313Y1524184D01*
Y1521670D01*
X2875237Y1521060D01*
X2875160Y1520298D01*
X2875084Y1519384D01*
X2875008Y1518393D01*
X2874856Y1517250D01*
X2874398Y1514964D01*
X2873713Y1512526D01*
X2873255Y1511306D01*
X2872722Y1510163D01*
X2872112Y1509097D01*
X2871427Y1508030D01*
X2871350Y1507877D01*
X2870969Y1507496D01*
X2870436Y1506963D01*
X2869674Y1506353D01*
X2868760Y1505744D01*
X2867693Y1505210D01*
X2866397Y1504829D01*
X2865712Y1504753D01*
X2864950Y1504677D01*
X2864873D01*
X2864797D01*
X2864340Y1504753D01*
X2863654Y1504829D01*
X2862740Y1505058D01*
X2861749Y1505439D01*
X2860682Y1505972D01*
X2859616Y1506734D01*
X2858549Y1507801D01*
Y1507877D01*
X2858396Y1508030D01*
X2858244Y1508258D01*
X2857939Y1508716D01*
X2857634Y1509249D01*
X2857253Y1509935D01*
X2856872Y1510773D01*
X2856415Y1511764D01*
X2855882Y1512983D01*
X2855348Y1514354D01*
X2854739Y1515955D01*
X2854129Y1517783D01*
X2853443Y1519841D01*
X2852834Y1522051D01*
X2852148Y1524641D01*
X2851462Y1527385D01*
Y1527461D01*
X2851386Y1527537D01*
Y1527766D01*
X2851310Y1528070D01*
X2851081Y1528832D01*
X2850853Y1529899D01*
X2850472Y1531195D01*
X2850091Y1532719D01*
X2849633Y1534319D01*
X2849176Y1536071D01*
X2848567Y1537900D01*
X2848033Y1539805D01*
X2846738Y1543615D01*
X2846052Y1545444D01*
X2845290Y1547197D01*
X2844604Y1548873D01*
X2843842Y1550321D01*
X2843766Y1550397D01*
X2843690Y1550626D01*
X2843461Y1551007D01*
X2843156Y1551540D01*
X2842699Y1552150D01*
X2842242Y1552912D01*
X2841709Y1553674D01*
X2841023Y1554588D01*
X2840337Y1555502D01*
X2839499Y1556417D01*
X2838661Y1557407D01*
X2837670Y1558398D01*
X2835536Y1560303D01*
X2834317Y1561141D01*
X2833098Y1561979D01*
X2833022Y1562056D01*
X2832793Y1562132D01*
X2832412Y1562360D01*
X2831879Y1562665D01*
X2831193Y1562970D01*
X2830431Y1563351D01*
X2829517Y1563732D01*
X2828450Y1564113D01*
X2827307Y1564494D01*
X2826011Y1564875D01*
X2824640Y1565256D01*
X2823192Y1565561D01*
X2821592Y1565866D01*
X2819915Y1566094D01*
X2818163Y1566170D01*
X2816334Y1566247D01*
D02*
G37*
G36*
X2575344Y1522698D02*
X2574125D01*
X2573515Y1522622D01*
X2572753Y1522546D01*
X2571915Y1522470D01*
X2571000Y1522393D01*
X2568943Y1522089D01*
X2566657Y1521631D01*
X2564219Y1520946D01*
X2561780Y1520107D01*
X2561704D01*
X2561475Y1519955D01*
X2561171Y1519803D01*
X2560637Y1519650D01*
X2560104Y1519345D01*
X2559418Y1518964D01*
X2558580Y1518583D01*
X2557742Y1518126D01*
X2556751Y1517593D01*
X2555684Y1516983D01*
X2553398Y1515612D01*
X2550960Y1513935D01*
X2548369Y1512030D01*
X2548293Y1511954D01*
X2548140Y1511878D01*
X2547912Y1511649D01*
X2547531Y1511344D01*
X2546997Y1510887D01*
X2546388Y1510354D01*
X2545702Y1509744D01*
X2544940Y1508982D01*
X2544026Y1508144D01*
X2543035Y1507153D01*
X2541892Y1506087D01*
X2540673Y1504867D01*
X2539377Y1503572D01*
X2538006Y1502124D01*
X2536482Y1500524D01*
X2534882Y1498771D01*
X2534805Y1498695D01*
X2534501Y1498390D01*
X2534043Y1497857D01*
X2533434Y1497247D01*
X2532748Y1496485D01*
X2531986Y1495571D01*
X2531072Y1494657D01*
X2530157Y1493666D01*
X2528176Y1491609D01*
X2526271Y1489551D01*
X2525357Y1488637D01*
X2524595Y1487875D01*
X2523833Y1487113D01*
X2523223Y1486579D01*
X2523071Y1486503D01*
X2522766Y1486198D01*
X2522156Y1485665D01*
X2521470Y1485132D01*
X2520632Y1484446D01*
X2519642Y1483760D01*
X2518651Y1483074D01*
X2517660Y1482465D01*
Y1522698D01*
X2498915D01*
Y1451832D01*
X2604757D01*
Y1483760D01*
Y1451832D01*
X2499068D01*
X2499372Y1451908D01*
X2499982Y1451985D01*
X2500744Y1452137D01*
X2501658Y1452289D01*
X2502801Y1452518D01*
X2504021Y1452747D01*
X2505392Y1453128D01*
X2506916Y1453509D01*
X2508516Y1454042D01*
X2510117Y1454575D01*
X2511869Y1455185D01*
X2513622Y1455947D01*
X2515451Y1456785D01*
X2517203Y1457700D01*
X2519032Y1458690D01*
X2519108Y1458766D01*
X2519489Y1458995D01*
X2520023Y1459376D01*
X2520785Y1459833D01*
X2521699Y1460519D01*
X2522842Y1461433D01*
X2524214Y1462500D01*
X2525738Y1463719D01*
X2527490Y1465167D01*
X2529395Y1466767D01*
X2531453Y1468672D01*
X2533739Y1470730D01*
X2536177Y1473092D01*
X2538692Y1475607D01*
X2541435Y1478426D01*
X2544330Y1481474D01*
X2544407Y1481550D01*
X2544483Y1481626D01*
X2544864Y1482084D01*
X2545550Y1482769D01*
X2546388Y1483684D01*
X2547455Y1484751D01*
X2548598Y1485970D01*
X2549893Y1487265D01*
X2551265Y1488713D01*
X2554160Y1491532D01*
X2555532Y1492980D01*
X2556980Y1494276D01*
X2558275Y1495571D01*
X2559494Y1496638D01*
X2560637Y1497552D01*
X2561552Y1498238D01*
X2561628Y1498314D01*
X2561856Y1498390D01*
X2562161Y1498619D01*
X2562618Y1498924D01*
X2563228Y1499229D01*
X2563838Y1499533D01*
X2564600Y1499914D01*
X2565438Y1500372D01*
X2567343Y1501134D01*
X2569400Y1501743D01*
X2571686Y1502277D01*
X2572829Y1502353D01*
X2573972Y1502429D01*
X2574048D01*
X2574277D01*
X2574582D01*
X2575115Y1502353D01*
X2575649D01*
X2576258Y1502277D01*
X2577782Y1501972D01*
X2579459Y1501515D01*
X2581211Y1500905D01*
X2582811Y1499991D01*
X2583650Y1499381D01*
X2584335Y1498771D01*
X2584412Y1498695D01*
X2584488Y1498619D01*
X2584640Y1498390D01*
X2584945Y1498086D01*
X2585174Y1497705D01*
X2585478Y1497247D01*
X2585859Y1496714D01*
X2586164Y1496181D01*
X2586850Y1494733D01*
X2587460Y1492980D01*
X2587841Y1490999D01*
X2587917Y1489856D01*
X2587993Y1488713D01*
Y1488103D01*
X2587917Y1487646D01*
Y1487113D01*
X2587764Y1486503D01*
X2587536Y1485055D01*
X2587079Y1483455D01*
X2586393Y1481703D01*
X2585936Y1480941D01*
X2585478Y1480102D01*
X2584869Y1479340D01*
X2584183Y1478578D01*
X2584107Y1478502D01*
X2584031Y1478426D01*
X2583802Y1478197D01*
X2583421Y1477969D01*
X2583040Y1477664D01*
X2582507Y1477359D01*
X2581897Y1477054D01*
X2581211Y1476673D01*
X2580373Y1476292D01*
X2579459Y1475911D01*
X2578392Y1475530D01*
X2577249Y1475226D01*
X2575953Y1474921D01*
X2574582Y1474616D01*
X2573134Y1474464D01*
X2571534Y1474311D01*
X2573515Y1454194D01*
X2573591D01*
X2573744D01*
X2573972Y1454271D01*
X2574277D01*
X2574658Y1454347D01*
X2575115Y1454423D01*
X2576258Y1454652D01*
X2577630Y1454880D01*
X2579154Y1455261D01*
X2580906Y1455718D01*
X2582735Y1456252D01*
X2584716Y1456938D01*
X2586698Y1457700D01*
X2588679Y1458614D01*
X2590660Y1459681D01*
X2592565Y1460824D01*
X2594318Y1462195D01*
X2595994Y1463719D01*
X2597442Y1465396D01*
X2597518Y1465472D01*
X2597747Y1465853D01*
X2598128Y1466386D01*
X2598585Y1467072D01*
X2599118Y1468063D01*
X2599728Y1469130D01*
X2600414Y1470501D01*
X2601099Y1471949D01*
X2601785Y1473549D01*
X2602471Y1475378D01*
X2603081Y1477359D01*
X2603614Y1479417D01*
X2604071Y1481703D01*
X2604452Y1484065D01*
X2604681Y1486579D01*
X2604757Y1489170D01*
Y1483760D01*
Y1489170D01*
Y1489856D01*
X2604681Y1490694D01*
X2604605Y1491761D01*
X2604528Y1493056D01*
X2604300Y1494580D01*
X2604071Y1496257D01*
X2603690Y1498086D01*
X2603233Y1499991D01*
X2602700Y1502048D01*
X2602014Y1504105D01*
X2601176Y1506087D01*
X2600185Y1508144D01*
X2599118Y1510125D01*
X2597823Y1511954D01*
X2596299Y1513707D01*
X2596223Y1513783D01*
X2595918Y1514088D01*
X2595461Y1514545D01*
X2594775Y1515078D01*
X2593937Y1515764D01*
X2593022Y1516526D01*
X2591803Y1517364D01*
X2590508Y1518202D01*
X2589060Y1519041D01*
X2587536Y1519879D01*
X2585783Y1520641D01*
X2583954Y1521327D01*
X2581973Y1521860D01*
X2579840Y1522317D01*
X2577630Y1522622D01*
X2575344Y1522698D01*
D02*
G37*
G36*
X2762323Y1487113D02*
X2656863D01*
Y1414799D01*
X2762323D01*
Y1487113D01*
D02*
G37*
G36*
X2803532Y1467872D02*
X2785702D01*
Y1387710D01*
X2891162D01*
Y1465891D01*
X2873332D01*
Y1408970D01*
X2849938D01*
Y1461929D01*
X2832107D01*
Y1408970D01*
X2803532D01*
Y1467872D01*
D02*
G37*
G36*
X2575344Y1446422D02*
D01*
X2498915Y1416094D01*
Y1397883D01*
X2575344Y1367098D01*
X2498915D01*
D01*
X2575344D01*
Y1446422D01*
D02*
G37*
G36*
X2762323Y1403140D02*
D01*
Y1354753D01*
X2762247Y1355896D01*
Y1357344D01*
X2762171Y1358944D01*
X2762095Y1360697D01*
X2761942Y1362602D01*
X2761790Y1364583D01*
X2761638Y1366564D01*
X2761104Y1370679D01*
X2760799Y1372584D01*
X2760418Y1374413D01*
X2759961Y1376166D01*
X2759428Y1377690D01*
Y1377766D01*
X2759275Y1377994D01*
X2759123Y1378452D01*
X2758894Y1378985D01*
X2758590Y1379595D01*
X2758132Y1380357D01*
X2757675Y1381195D01*
X2757142Y1382109D01*
X2756456Y1383100D01*
X2755694Y1384090D01*
X2754856Y1385081D01*
X2753941Y1386148D01*
X2752951Y1387138D01*
X2751808Y1388129D01*
X2750589Y1389043D01*
X2749293Y1389958D01*
X2749217Y1390034D01*
X2748988Y1390186D01*
X2748531Y1390415D01*
X2747998Y1390720D01*
X2747312Y1391025D01*
X2746550Y1391406D01*
X2745559Y1391863D01*
X2744493Y1392320D01*
X2743350Y1392701D01*
X2742054Y1393158D01*
X2740683Y1393539D01*
X2739235Y1393920D01*
X2737711Y1394149D01*
X2736111Y1394377D01*
X2734510Y1394530D01*
X2732758Y1394606D01*
X2732605D01*
X2732224D01*
X2731615Y1394530D01*
X2730777D01*
X2729786Y1394377D01*
X2728567Y1394225D01*
X2727271Y1393996D01*
X2725824Y1393768D01*
X2724300Y1393387D01*
X2722699Y1392930D01*
X2721099Y1392320D01*
X2719423Y1391634D01*
X2717823Y1390872D01*
X2716146Y1389882D01*
X2714622Y1388815D01*
X2713098Y1387596D01*
X2713022Y1387519D01*
X2712793Y1387291D01*
X2712412Y1386834D01*
X2711879Y1386300D01*
X2711269Y1385538D01*
X2710584Y1384700D01*
X2709822Y1383633D01*
X2708983Y1382414D01*
X2708145Y1380966D01*
X2707383Y1379442D01*
X2706545Y1377766D01*
X2705783Y1375861D01*
X2705021Y1373803D01*
X2704411Y1371594D01*
X2703878Y1369231D01*
X2703421Y1366717D01*
X2703345Y1366793D01*
X2703268Y1367022D01*
X2703040Y1367403D01*
X2702735Y1367860D01*
X2702354Y1368469D01*
X2701897Y1369155D01*
X2701363Y1369917D01*
X2700830Y1370755D01*
X2699458Y1372584D01*
X2697934Y1374489D01*
X2696258Y1376394D01*
X2694505Y1378147D01*
X2694429Y1378223D01*
X2694277Y1378375D01*
X2693972Y1378604D01*
X2693591Y1378985D01*
X2693058Y1379442D01*
X2692372Y1379976D01*
X2691534Y1380585D01*
X2690543Y1381347D01*
X2689476Y1382185D01*
X2688257Y1383100D01*
X2686809Y1384090D01*
X2685285Y1385157D01*
X2683533Y1386300D01*
X2681704Y1387519D01*
X2679646Y1388891D01*
X2677437Y1390263D01*
X2656863Y1403140D01*
Y1377613D01*
X2679799Y1362297D01*
X2679951Y1362221D01*
X2680332Y1361916D01*
X2680942Y1361535D01*
X2681780Y1361002D01*
X2682771Y1360316D01*
X2683837Y1359554D01*
X2685057Y1358716D01*
X2686352Y1357801D01*
X2688943Y1355896D01*
X2690238Y1354982D01*
X2691534Y1354068D01*
X2692677Y1353229D01*
X2693667Y1352391D01*
X2694582Y1351629D01*
X2695267Y1351020D01*
X2695420Y1350867D01*
X2695801Y1350486D01*
X2696334Y1349877D01*
X2697020Y1349115D01*
X2697782Y1348124D01*
X2698468Y1347057D01*
X2699154Y1345914D01*
X2699687Y1344619D01*
X2699763Y1344466D01*
X2699839Y1344238D01*
X2699916Y1344009D01*
X2699992Y1343628D01*
X2700068Y1343171D01*
X2700220Y1342638D01*
X2700297Y1342028D01*
X2700449Y1341342D01*
X2700525Y1340580D01*
X2700601Y1339666D01*
X2700754Y1338675D01*
X2700830Y1337685D01*
Y1336542D01*
X2700906Y1335246D01*
Y1329684D01*
X2656863D01*
Y1336542D01*
Y1308424D01*
X2762323D01*
Y1403140D01*
D02*
G37*
G36*
X2891162Y1365155D02*
X2785702D01*
Y1343819D01*
X2854739Y1301223D01*
X2785702D01*
Y1281487D01*
X2891162D01*
Y1302137D01*
X2820525Y1345419D01*
X2891162D01*
Y1365155D01*
D02*
G37*
G36*
X2734968Y1251731D02*
Y1251579D01*
D01*
Y1251731D01*
D02*
G37*
G36*
Y1287697D02*
X2656863D01*
Y1217974D01*
X2734968D01*
X2733291D01*
Y1236720D01*
X2722014D01*
X2722166Y1236872D01*
X2722547Y1237177D01*
X2723233Y1237710D01*
X2724071Y1238548D01*
X2724985Y1239539D01*
X2726128Y1240682D01*
X2727271Y1242054D01*
X2728491Y1243654D01*
X2729710Y1245330D01*
X2730853Y1247235D01*
X2731996Y1249369D01*
X2732910Y1251579D01*
X2733748Y1253941D01*
X2734434Y1256455D01*
X2734815Y1259122D01*
X2734968Y1261942D01*
Y1263085D01*
X2734891Y1263694D01*
X2734815Y1264380D01*
X2734739Y1265142D01*
X2734663Y1265980D01*
X2734358Y1267885D01*
X2733977Y1269943D01*
X2733367Y1272000D01*
X2732529Y1274134D01*
Y1274210D01*
X2732453Y1274362D01*
X2732301Y1274667D01*
X2732072Y1275048D01*
X2731843Y1275505D01*
X2731539Y1276039D01*
X2730853Y1277258D01*
X2729938Y1278630D01*
X2728872Y1280001D01*
X2727729Y1281373D01*
X2726357Y1282516D01*
X2726281D01*
X2726205Y1282668D01*
X2725976Y1282821D01*
X2725671Y1282973D01*
X2724909Y1283506D01*
X2723919Y1284116D01*
X2722623Y1284802D01*
X2721252Y1285411D01*
X2719651Y1286021D01*
X2717899Y1286554D01*
X2717823D01*
X2717670Y1286631D01*
X2717442D01*
X2717061Y1286707D01*
X2716527Y1286859D01*
X2715918Y1286935D01*
X2715232Y1287012D01*
X2714394Y1287164D01*
X2713479Y1287240D01*
X2712489Y1287316D01*
X2711346Y1287469D01*
X2710126Y1287545D01*
X2708831Y1287621D01*
X2707383D01*
X2705859Y1287697D01*
X2734968D01*
D02*
G37*
%LPD*%
G36*
X2760342Y1889068D02*
X2733291D01*
Y1898364D01*
X2748455D01*
X2760342Y1918557D01*
Y1889068D01*
D02*
G37*
G36*
X2698011Y1857445D02*
X2699001Y1857369D01*
X2700144Y1857292D01*
X2701363Y1857140D01*
X2702735Y1856911D01*
X2705631Y1856302D01*
X2707078Y1855921D01*
X2708526Y1855464D01*
X2709898Y1854854D01*
X2711269Y1854168D01*
X2712565Y1853406D01*
X2713708Y1852568D01*
X2713784Y1852492D01*
X2713936Y1852339D01*
X2714241Y1852035D01*
X2714622Y1851730D01*
X2715079Y1851196D01*
X2715537Y1850663D01*
X2716070Y1849977D01*
X2716603Y1849215D01*
X2717137Y1848377D01*
X2717670Y1847386D01*
X2718127Y1846396D01*
X2718585Y1845329D01*
X2718966Y1844110D01*
X2719270Y1842891D01*
X2719423Y1841595D01*
X2719499Y1840224D01*
Y1839538D01*
X2719423Y1839004D01*
X2719347Y1838395D01*
X2719194Y1837709D01*
X2719042Y1836871D01*
X2718813Y1836033D01*
X2718508Y1835118D01*
X2718127Y1834128D01*
X2717670Y1833137D01*
X2717061Y1832146D01*
X2716451Y1831156D01*
X2715689Y1830165D01*
X2714775Y1829175D01*
X2713784Y1828260D01*
X2713708Y1828184D01*
X2713555Y1828032D01*
X2713174Y1827803D01*
X2712717Y1827574D01*
X2712108Y1827193D01*
X2711422Y1826812D01*
X2710507Y1826355D01*
X2709517Y1825974D01*
X2708374Y1825517D01*
X2707078Y1825060D01*
X2705707Y1824679D01*
X2704107Y1824374D01*
X2702430Y1824069D01*
X2700601Y1823841D01*
X2698696Y1823688D01*
X2696563Y1823612D01*
X2696410D01*
X2696029D01*
X2695420D01*
X2694582Y1823688D01*
X2693591Y1823764D01*
X2692448Y1823841D01*
X2691153Y1823993D01*
X2689781Y1824222D01*
X2686885Y1824755D01*
X2685438Y1825136D01*
X2683990Y1825593D01*
X2682542Y1826127D01*
X2681170Y1826736D01*
X2679951Y1827422D01*
X2678808Y1828260D01*
X2678732Y1828336D01*
X2678580Y1828489D01*
X2678275Y1828717D01*
X2677894Y1829098D01*
X2677513Y1829556D01*
X2677056Y1830089D01*
X2676522Y1830775D01*
X2675989Y1831461D01*
X2675455Y1832299D01*
X2674922Y1833213D01*
X2674084Y1835194D01*
X2673703Y1836261D01*
X2673398Y1837404D01*
X2673246Y1838623D01*
X2673169Y1839919D01*
Y1840224D01*
X2673246Y1840605D01*
Y1841138D01*
X2673322Y1841824D01*
X2673474Y1842510D01*
X2673627Y1843348D01*
X2673931Y1844262D01*
X2674236Y1845253D01*
X2674617Y1846243D01*
X2675074Y1847234D01*
X2675608Y1848301D01*
X2676294Y1849368D01*
X2677056Y1850434D01*
X2677970Y1851425D01*
X2678961Y1852416D01*
X2679037Y1852492D01*
X2679265Y1852644D01*
X2679570Y1852873D01*
X2680027Y1853254D01*
X2680637Y1853635D01*
X2681399Y1854016D01*
X2682237Y1854473D01*
X2683304Y1855006D01*
X2684447Y1855464D01*
X2685666Y1855921D01*
X2687114Y1856302D01*
X2688638Y1856759D01*
X2690314Y1857064D01*
X2692143Y1857292D01*
X2694048Y1857445D01*
X2696106Y1857521D01*
X2696258D01*
X2696639D01*
X2697249D01*
X2698011Y1857445D01*
D02*
G37*
G36*
X2734968Y1802886D02*
X2696715D01*
X2697249Y1802962D01*
X2697858D01*
X2698544Y1803038D01*
X2700220Y1803190D01*
X2702049Y1803343D01*
X2704107Y1803648D01*
X2706316Y1804029D01*
X2708602Y1804562D01*
X2711041Y1805172D01*
X2713479Y1805857D01*
X2715918Y1806772D01*
X2718280Y1807839D01*
X2720566Y1809058D01*
X2722776Y1810506D01*
X2724757Y1812106D01*
X2724909Y1812182D01*
X2725214Y1812563D01*
X2725671Y1813020D01*
X2726357Y1813782D01*
X2727119Y1814697D01*
X2727957Y1815763D01*
X2728948Y1816983D01*
X2729862Y1818430D01*
X2730853Y1820031D01*
X2731767Y1821783D01*
X2732605Y1823688D01*
X2733367Y1825669D01*
X2734053Y1827879D01*
X2734510Y1830165D01*
X2734891Y1832604D01*
X2734968Y1835118D01*
Y1802886D01*
D02*
G37*
G36*
X2825783Y1849711D02*
X2826850Y1849634D01*
X2828069Y1849558D01*
X2829440Y1849406D01*
X2830964Y1849177D01*
X2834012Y1848644D01*
X2835613Y1848263D01*
X2837137Y1847729D01*
X2838661Y1847196D01*
X2840108Y1846586D01*
X2841404Y1845824D01*
X2842547Y1844986D01*
X2842623Y1844910D01*
X2842775Y1844758D01*
X2843080Y1844529D01*
X2843461Y1844148D01*
X2843918Y1843691D01*
X2844376Y1843081D01*
X2844909Y1842472D01*
X2845442Y1841710D01*
X2845976Y1840871D01*
X2846509Y1839957D01*
X2846966Y1838966D01*
X2847424Y1837900D01*
X2847805Y1836757D01*
X2848109Y1835537D01*
X2848262Y1834242D01*
X2848338Y1832870D01*
Y1832185D01*
X2848262Y1831651D01*
X2848186Y1831042D01*
X2848033Y1830280D01*
X2847881Y1829518D01*
X2847652Y1828603D01*
X2847347Y1827689D01*
X2846966Y1826698D01*
X2846509Y1825708D01*
X2845900Y1824641D01*
X2845290Y1823650D01*
X2844528Y1822660D01*
X2843614Y1821669D01*
X2842623Y1820755D01*
X2842547Y1820678D01*
X2842394Y1820526D01*
X2842013Y1820297D01*
X2841556Y1819993D01*
X2840947Y1819612D01*
X2840261Y1819231D01*
X2839346Y1818773D01*
X2838356Y1818392D01*
X2837213Y1817935D01*
X2835994Y1817478D01*
X2834546Y1817097D01*
X2833022Y1816716D01*
X2831345Y1816411D01*
X2829517Y1816183D01*
X2827535Y1816030D01*
X2825478Y1815954D01*
X2825326D01*
X2824945D01*
X2824335D01*
X2823573Y1816030D01*
X2822582Y1816106D01*
X2821439Y1816183D01*
X2820220Y1816259D01*
X2818849Y1816411D01*
X2816029Y1816868D01*
X2813134Y1817554D01*
X2811686Y1817935D01*
X2810314Y1818469D01*
X2809095Y1819002D01*
X2807952Y1819688D01*
X2807876Y1819764D01*
X2807647Y1819916D01*
X2807190Y1820221D01*
X2806733Y1820678D01*
X2806123Y1821212D01*
X2805437Y1821821D01*
X2804675Y1822583D01*
X2803990Y1823422D01*
X2803228Y1824336D01*
X2802466Y1825403D01*
X2801780Y1826546D01*
X2801170Y1827765D01*
X2800713Y1829137D01*
X2800332Y1830508D01*
X2800027Y1832032D01*
X2799951Y1833632D01*
Y1833937D01*
X2800027Y1834318D01*
Y1834775D01*
X2800103Y1835309D01*
X2800256Y1835995D01*
X2800408Y1836757D01*
X2800637Y1837595D01*
X2800942Y1838433D01*
X2801323Y1839347D01*
X2801780Y1840338D01*
X2802389Y1841252D01*
X2802999Y1842243D01*
X2803761Y1843234D01*
X2804675Y1844148D01*
X2805666Y1845062D01*
X2805742Y1845139D01*
X2805971Y1845291D01*
X2806276Y1845520D01*
X2806733Y1845824D01*
X2807342Y1846129D01*
X2808104Y1846586D01*
X2809019Y1846967D01*
X2810086Y1847425D01*
X2811229Y1847882D01*
X2812600Y1848263D01*
X2814048Y1848720D01*
X2815648Y1849025D01*
X2817401Y1849330D01*
X2819382Y1849558D01*
X2821439Y1849711D01*
X2823649Y1849787D01*
X2823725D01*
X2823802D01*
X2824259D01*
X2824868D01*
X2825783Y1849711D01*
D02*
G37*
G36*
X2555379Y1763719D02*
X2557132D01*
X2558961Y1763643D01*
X2561018Y1763566D01*
X2563076Y1763490D01*
X2565209Y1763338D01*
X2567343Y1763185D01*
X2569400Y1762957D01*
X2571381Y1762804D01*
X2573286Y1762500D01*
X2574887Y1762195D01*
X2576334Y1761890D01*
X2576411D01*
X2576639Y1761814D01*
X2577020Y1761661D01*
X2577477Y1761585D01*
X2578011Y1761357D01*
X2578620Y1761128D01*
X2580068Y1760595D01*
X2581668Y1759909D01*
X2583192Y1759071D01*
X2584564Y1758156D01*
X2585174Y1757623D01*
X2585631Y1757089D01*
X2585707Y1756937D01*
X2586012Y1756632D01*
X2586393Y1756023D01*
X2586850Y1755261D01*
X2587231Y1754270D01*
X2587612Y1753203D01*
X2587917Y1751908D01*
X2587993Y1750612D01*
Y1750003D01*
X2587841Y1749317D01*
X2587688Y1748403D01*
X2587383Y1747412D01*
X2587002Y1746345D01*
X2586393Y1745202D01*
X2585631Y1744059D01*
X2585555Y1743907D01*
X2585174Y1743602D01*
X2584564Y1743069D01*
X2583726Y1742383D01*
X2582583Y1741697D01*
X2581897Y1741316D01*
X2581135Y1740935D01*
X2580297Y1740554D01*
X2579306Y1740249D01*
X2578316Y1739868D01*
X2577249Y1739563D01*
X2577173D01*
X2576868Y1739487D01*
X2576411Y1739411D01*
X2575725Y1739259D01*
X2574887Y1739106D01*
X2573820Y1738878D01*
X2572524Y1738725D01*
X2571000Y1738573D01*
X2569324Y1738344D01*
X2567343Y1738192D01*
X2565209Y1737963D01*
X2562847Y1737811D01*
X2560180Y1737735D01*
X2557361Y1737582D01*
X2554236Y1737506D01*
X2550884D01*
X2550807D01*
X2550655D01*
X2550426D01*
X2550045D01*
X2549664D01*
X2549131D01*
X2547836D01*
X2546388Y1737582D01*
X2544635D01*
X2542730Y1737658D01*
X2540749Y1737735D01*
X2538615Y1737811D01*
X2536482Y1737963D01*
X2534348Y1738116D01*
X2532291Y1738268D01*
X2530310Y1738497D01*
X2528481Y1738725D01*
X2526804Y1739030D01*
X2525357Y1739335D01*
X2525280D01*
X2525052Y1739411D01*
X2524671Y1739563D01*
X2524214Y1739716D01*
X2523680Y1739868D01*
X2523071Y1740097D01*
X2521623Y1740630D01*
X2520099Y1741316D01*
X2518575Y1742154D01*
X2517203Y1743069D01*
X2516594Y1743526D01*
X2516136Y1744059D01*
X2516060Y1744212D01*
X2515755Y1744593D01*
X2515451Y1745202D01*
X2514993Y1745964D01*
X2514612Y1746955D01*
X2514231Y1748022D01*
X2513927Y1749317D01*
X2513850Y1750612D01*
Y1750765D01*
X2513927Y1751222D01*
X2514003Y1751908D01*
X2514155Y1752822D01*
X2514384Y1753813D01*
X2514841Y1754956D01*
X2515374Y1756023D01*
X2516136Y1757166D01*
X2516289Y1757318D01*
X2516594Y1757623D01*
X2517203Y1758156D01*
X2518041Y1758842D01*
X2519261Y1759528D01*
X2519946Y1759909D01*
X2520708Y1760290D01*
X2521547Y1760671D01*
X2522461Y1760976D01*
X2523452Y1761357D01*
X2524518Y1761661D01*
X2524595D01*
X2524899Y1761738D01*
X2525357Y1761890D01*
X2526042Y1761966D01*
X2526881Y1762195D01*
X2527947Y1762347D01*
X2529243Y1762500D01*
X2530767Y1762728D01*
X2532443Y1762957D01*
X2534348Y1763109D01*
X2536558Y1763338D01*
X2538920Y1763490D01*
X2541511Y1763566D01*
X2544407Y1763719D01*
X2547531Y1763795D01*
X2550884D01*
X2550960D01*
X2551112D01*
X2551341D01*
X2551722D01*
X2552103D01*
X2552636D01*
X2553855D01*
X2555379Y1763719D01*
D02*
G37*
G36*
X2822354Y1756975D02*
X2822278Y1756899D01*
X2822201Y1756670D01*
X2822125Y1756289D01*
X2821973Y1755908D01*
X2821820Y1755375D01*
X2821668Y1754765D01*
X2821516Y1754003D01*
X2821287Y1753165D01*
X2821058Y1752251D01*
X2820754Y1751260D01*
X2820525Y1750117D01*
X2820220Y1748898D01*
X2819915Y1747603D01*
X2819534Y1746155D01*
X2819230Y1744631D01*
Y1744555D01*
X2819153Y1744250D01*
X2819077Y1743869D01*
X2818925Y1743259D01*
X2818772Y1742573D01*
X2818544Y1741811D01*
X2818087Y1740135D01*
X2817553Y1738306D01*
X2817020Y1736477D01*
X2816639Y1735639D01*
X2816334Y1734877D01*
X2816029Y1734191D01*
X2815724Y1733658D01*
Y1733582D01*
X2815572Y1733506D01*
X2815191Y1733048D01*
X2814581Y1732439D01*
X2813743Y1731753D01*
X2812753Y1730991D01*
X2811533Y1730381D01*
X2810086Y1729924D01*
X2809324Y1729848D01*
X2808562Y1729772D01*
X2808485D01*
X2808409D01*
X2808181D01*
X2807876Y1729848D01*
X2807038Y1729924D01*
X2806047Y1730153D01*
X2804904Y1730534D01*
X2803685Y1731067D01*
X2802466Y1731829D01*
X2801246Y1732896D01*
X2801094Y1733048D01*
X2800789Y1733506D01*
X2800256Y1734191D01*
X2799722Y1735106D01*
X2799189Y1736249D01*
X2798656Y1737620D01*
X2798351Y1739221D01*
X2798198Y1740973D01*
Y1741507D01*
X2798275Y1741888D01*
Y1742421D01*
X2798427Y1742954D01*
X2798656Y1744326D01*
X2799113Y1745926D01*
X2799722Y1747679D01*
X2800637Y1749508D01*
X2801170Y1750498D01*
X2801780Y1751413D01*
Y1751489D01*
X2801932Y1751565D01*
X2802237Y1752022D01*
X2802847Y1752632D01*
X2803609Y1753394D01*
X2804599Y1754232D01*
X2805742Y1754994D01*
X2807038Y1755680D01*
X2808409Y1756213D01*
X2808562Y1756289D01*
X2808943Y1756366D01*
X2809247Y1756442D01*
X2809628Y1756518D01*
X2810086Y1756594D01*
X2810619Y1756670D01*
X2811229Y1756747D01*
X2811991Y1756823D01*
X2812753D01*
X2813667Y1756899D01*
X2814658Y1756975D01*
X2815801Y1757051D01*
X2817020D01*
X2818315D01*
X2822354D01*
Y1756975D01*
D02*
G37*
G36*
X2744493Y1762728D02*
X2656863D01*
Y1793970D01*
X2744493D01*
Y1762728D01*
D02*
G37*
G36*
X2577020Y1662601D02*
X2575344D01*
Y1681347D01*
X2564447D01*
X2564523Y1681423D01*
X2564752Y1681575D01*
X2565209Y1681804D01*
X2565666Y1682185D01*
X2566276Y1682566D01*
X2567038Y1683099D01*
X2568638Y1684242D01*
X2570315Y1685538D01*
X2571991Y1686985D01*
X2572753Y1687747D01*
X2573439Y1688509D01*
X2574048Y1689271D01*
X2574582Y1689957D01*
Y1690033D01*
X2574658Y1690110D01*
X2574810Y1690338D01*
X2574963Y1690643D01*
X2575344Y1691481D01*
X2575801Y1692548D01*
X2576258Y1693843D01*
X2576639Y1695291D01*
X2576944Y1696968D01*
X2577020Y1698720D01*
Y1662601D01*
D02*
G37*
G36*
X2604757Y1582668D02*
X2578087D01*
Y1582744D01*
X2578239Y1583049D01*
X2578392Y1583430D01*
X2578620Y1584039D01*
X2578925Y1584801D01*
X2579230Y1585639D01*
X2579687Y1586630D01*
X2580221Y1587773D01*
X2580906Y1588992D01*
X2581592Y1590288D01*
X2582354Y1591735D01*
X2583269Y1593183D01*
X2584259Y1594783D01*
X2585326Y1596384D01*
X2586545Y1598060D01*
X2587841Y1599813D01*
X2587917Y1599889D01*
X2588145Y1600194D01*
X2588603Y1600727D01*
X2589136Y1601337D01*
X2589822Y1602099D01*
X2590660Y1602937D01*
X2591574Y1603851D01*
X2592641Y1604918D01*
X2593860Y1605909D01*
X2595156Y1606975D01*
X2596527Y1608042D01*
X2598051Y1609109D01*
X2599575Y1610100D01*
X2601252Y1611014D01*
X2603004Y1611852D01*
X2604757Y1612538D01*
Y1582668D01*
D02*
G37*
G36*
X2731462Y1650333D02*
X2730700Y1650257D01*
X2729862Y1650181D01*
X2728948Y1650105D01*
X2726890Y1649800D01*
X2724604Y1649343D01*
X2722166Y1648657D01*
X2719728Y1647819D01*
X2719651D01*
X2719423Y1647666D01*
X2719118Y1647514D01*
X2718585Y1647361D01*
X2718051Y1647057D01*
X2717365Y1646676D01*
X2716527Y1646295D01*
X2715689Y1645837D01*
X2714698Y1645304D01*
X2713632Y1644694D01*
X2711346Y1643323D01*
X2708907Y1641646D01*
X2706316Y1639741D01*
X2706240Y1639665D01*
X2706088Y1639589D01*
X2705859Y1639360D01*
X2705478Y1639056D01*
X2704945Y1638598D01*
X2704335Y1638065D01*
X2703649Y1637455D01*
X2702887Y1636693D01*
X2701973Y1635855D01*
X2700982Y1634865D01*
X2699839Y1633798D01*
X2698620Y1632579D01*
X2697325Y1631283D01*
X2695953Y1629835D01*
X2694429Y1628235D01*
X2692829Y1626483D01*
X2692753Y1626406D01*
X2692448Y1626102D01*
X2691991Y1625568D01*
X2691381Y1624959D01*
X2690695Y1624197D01*
X2689933Y1623282D01*
X2689019Y1622368D01*
X2688105Y1621377D01*
X2686123Y1619320D01*
X2684218Y1617262D01*
X2683304Y1616348D01*
X2682542Y1615586D01*
X2681780Y1614824D01*
X2681170Y1614291D01*
X2681018Y1614214D01*
X2680713Y1613910D01*
X2680104Y1613376D01*
X2679418Y1612843D01*
X2678580Y1612157D01*
X2677589Y1611471D01*
X2676598Y1610785D01*
X2675608Y1610176D01*
Y1650409D01*
X2732072D01*
X2731462Y1650333D01*
D02*
G37*
G36*
X2744493Y1436059D02*
X2719499D01*
Y1480102D01*
X2701668D01*
Y1436059D01*
X2656863D01*
Y1487113D01*
X2744493D01*
Y1436059D01*
D02*
G37*
G36*
X2575344Y1388281D02*
X2536329Y1402683D01*
X2523299Y1406874D01*
X2523375D01*
X2523528Y1406950D01*
X2523756Y1407027D01*
X2524137Y1407179D01*
X2524976Y1407408D01*
X2525966Y1407789D01*
X2527109Y1408093D01*
X2528176Y1408474D01*
X2529090Y1408703D01*
X2529548Y1408855D01*
X2529852Y1408932D01*
X2530005Y1409008D01*
X2530386Y1409084D01*
X2531072Y1409313D01*
X2531834Y1409617D01*
X2532824Y1409922D01*
X2533967Y1410303D01*
X2535110Y1410684D01*
X2536329Y1411141D01*
X2575344Y1425619D01*
Y1388281D01*
D02*
G37*
G36*
X2732301Y1372584D02*
X2732758D01*
X2733215Y1372508D01*
X2734434Y1372279D01*
X2735806Y1371975D01*
X2737254Y1371441D01*
X2738625Y1370755D01*
X2739921Y1369765D01*
X2739997D01*
X2740073Y1369612D01*
X2740454Y1369231D01*
X2740987Y1368622D01*
X2741673Y1367707D01*
X2742359Y1366564D01*
X2743045Y1365193D01*
X2743654Y1363593D01*
X2744112Y1361764D01*
Y1361459D01*
X2744188Y1361154D01*
Y1360773D01*
X2744264Y1360240D01*
Y1359630D01*
X2744340Y1358868D01*
Y1356811D01*
X2744416Y1355592D01*
Y1354144D01*
X2744493Y1352467D01*
Y1329684D01*
X2717746D01*
Y1347819D01*
X2717823Y1349038D01*
Y1351934D01*
X2717899Y1353534D01*
X2718051Y1356811D01*
X2718127Y1358411D01*
X2718280Y1359935D01*
X2718432Y1361307D01*
X2718585Y1362602D01*
X2718737Y1363669D01*
X2718966Y1364507D01*
Y1364583D01*
X2719042Y1364659D01*
X2719194Y1365117D01*
X2719575Y1365802D01*
X2720032Y1366717D01*
X2720642Y1367631D01*
X2721404Y1368622D01*
X2722318Y1369612D01*
X2723461Y1370451D01*
X2723614Y1370527D01*
X2724071Y1370832D01*
X2724757Y1371136D01*
X2725671Y1371594D01*
X2726814Y1371975D01*
X2728186Y1372356D01*
X2729710Y1372584D01*
X2731386Y1372660D01*
X2731462D01*
X2731615D01*
X2731920D01*
X2732301Y1372584D01*
D02*
G37*
G36*
X2698773Y1267428D02*
X2699916D01*
X2701135D01*
X2702430Y1267352D01*
X2705097Y1267200D01*
X2706469Y1267047D01*
X2707764Y1266895D01*
X2708983Y1266742D01*
X2710050Y1266590D01*
X2711041Y1266361D01*
X2711803Y1266133D01*
X2711879D01*
X2711955Y1266057D01*
X2712412Y1265904D01*
X2713098Y1265599D01*
X2713860Y1265142D01*
X2714775Y1264533D01*
X2715765Y1263847D01*
X2716603Y1262932D01*
X2717442Y1261942D01*
X2717518Y1261789D01*
X2717746Y1261408D01*
X2718127Y1260799D01*
X2718508Y1259961D01*
X2718813Y1258970D01*
X2719194Y1257751D01*
X2719423Y1256379D01*
X2719499Y1254931D01*
Y1254398D01*
X2719423Y1254017D01*
Y1253560D01*
X2719347Y1253026D01*
X2719118Y1251731D01*
X2718813Y1250283D01*
X2718280Y1248683D01*
X2717594Y1247007D01*
X2716603Y1245406D01*
Y1245330D01*
X2716451Y1245254D01*
X2716299Y1245025D01*
X2716070Y1244721D01*
X2715460Y1244035D01*
X2714546Y1243120D01*
X2713479Y1242206D01*
X2712108Y1241215D01*
X2710584Y1240377D01*
X2708907Y1239691D01*
X2708831D01*
X2708679Y1239615D01*
X2708374Y1239539D01*
X2707993Y1239463D01*
X2707459Y1239310D01*
X2706774Y1239234D01*
X2705935Y1239082D01*
X2704945Y1238929D01*
X2703802Y1238777D01*
X2702583Y1238625D01*
X2701135Y1238548D01*
X2699535Y1238396D01*
X2697782Y1238320D01*
X2695801Y1238244D01*
X2693667Y1238167D01*
X2691381D01*
X2656863D01*
Y1267504D01*
X2695801D01*
X2695953D01*
X2696334D01*
X2696944D01*
X2697782D01*
X2698773Y1267428D01*
D02*
G37*
D24*
X699000Y35000D02*
X699919Y310100D01*
X701390Y290148D02*
X745639D01*
X1922000Y289000D02*
X1968854D01*
X2731000Y35000D02*
Y310000D01*
X2686004Y50000D02*
X2730252D01*
X2684020Y289815D02*
X2730874D01*
X699146Y50000D02*
X746000D01*
X1968838Y310000D02*
X1969000Y35000D01*
X1969748Y289000D02*
X2013997D01*
X1969146Y50000D02*
X2016000D01*
X1968838Y293489D02*
X1969000Y35000D01*
X1924004Y50000D02*
X1968252D01*
X864974Y835000D02*
X785000D01*
Y888316D01*
X864974Y968290D02*
Y914974D01*
X785000D01*
Y968290D01*
X824987Y914974D02*
Y941632D01*
X864974Y994948D02*
X785000D01*
Y1034935D01*
X798329Y1048264D01*
X851645D01*
X864974Y1034935D01*
Y994948D01*
X785000Y1074922D02*
Y1101580D01*
Y1088251D01*
X864974D01*
X851645Y1074922D01*
X824987Y1221542D02*
Y1274858D01*
X785000Y1301516D02*
X824987Y1341503D01*
X864974Y1301516D01*
X785000Y1448135D02*
X864974D01*
Y1488123D01*
X851645Y1501451D01*
X824987D01*
X811658Y1488123D01*
Y1448135D01*
X851645Y1528109D02*
X864974Y1541439D01*
Y1568097D01*
X851645Y1581426D01*
X798329D01*
X785000Y1568097D01*
Y1541439D01*
X798329Y1528109D01*
X851645D01*
X785000Y1608084D02*
X798329D01*
Y1621413D01*
X785000D01*
Y1608084D01*
Y1674729D02*
Y1701387D01*
Y1688058D01*
X864974D01*
X851645Y1674729D01*
Y1741374D02*
X864974Y1754703D01*
Y1781361D01*
X851645Y1794690D01*
X838316D01*
X824987Y1781361D01*
Y1768032D01*
Y1781361D01*
X811658Y1794690D01*
X798329D01*
X785000Y1781361D01*
Y1754703D01*
X798329Y1741374D01*
X734974Y835000D02*
X655000D01*
Y888316D01*
X734974Y968290D02*
Y914974D01*
X655000D01*
Y968290D01*
X694987Y914974D02*
Y941632D01*
X734974Y994948D02*
X655000D01*
Y1034935D01*
X668329Y1048264D01*
X721645D01*
X734974Y1034935D01*
Y994948D01*
X655000Y1128238D02*
Y1074922D01*
X708316Y1128238D01*
X721645D01*
X734974Y1114909D01*
Y1088251D01*
X721645Y1074922D01*
X694987Y1234871D02*
Y1288187D01*
X655000Y1314845D02*
X694987Y1354832D01*
X734974Y1314845D01*
X655000Y1461464D02*
X734974D01*
Y1501451D01*
X721645Y1514780D01*
X694987D01*
X681658Y1501451D01*
Y1461464D01*
X721645Y1541438D02*
X734974Y1554768D01*
Y1581426D01*
X721645Y1594754D01*
X668329D01*
X655000Y1581426D01*
Y1554768D01*
X668329Y1541438D01*
X721645D01*
X655000Y1621413D02*
X668329D01*
Y1634742D01*
X655000D01*
Y1621413D01*
Y1688058D02*
Y1714716D01*
Y1701387D01*
X734974D01*
X721645Y1688058D01*
X655000Y1794690D02*
X734974D01*
X694987Y1754703D01*
Y1808019D01*
X2656032Y299775D02*
X2629374D01*
X2642703D01*
Y379749D01*
X2656032Y366420D01*
X2536071Y379749D02*
X2589387D01*
Y339762D01*
X2562729Y353091D01*
X2549400D01*
X2536071Y339762D01*
Y313104D01*
X2549400Y299775D01*
X2576058D01*
X2589387Y313104D01*
X841000Y305000D02*
X814342D01*
X827671D01*
Y384974D01*
X841000Y371645D01*
D32*
X44000Y79000D02*
X609000D01*
X80000Y89000D02*
Y153997D01*
X574000Y89000D02*
Y156000D01*
Y617146D02*
Y664000D01*
X80000Y617748D02*
Y661997D01*
X44000Y617000D02*
X609000D01*
X80000Y570000D02*
Y616854D01*
X574000Y572003D02*
Y616252D01*
X65000Y617000D02*
X589000D01*
X80000Y1840000D02*
Y1902000D01*
X44000Y1912000D02*
X609000D01*
X574000Y1842003D02*
Y1902000D01*
D33*
X2462500Y720000D02*
D03*
X2662500Y920000D02*
D03*
X2722500Y1000000D02*
D03*
X2822499Y1080000D02*
D03*
X2942500Y720000D02*
D03*
D34*
X2462500Y830000D02*
D03*
Y910000D02*
D03*
X2482499Y870000D02*
D03*
Y1110000D02*
D03*
X2502499Y1030000D02*
D03*
X2502499Y1110000D02*
D03*
X2522500Y1130000D02*
D03*
X2542500Y870000D02*
D03*
Y930000D02*
D03*
X2562500Y1110000D02*
D03*
X2602500Y930000D02*
D03*
Y1110000D02*
D03*
X2622499Y769999D02*
D03*
X2622500Y910000D02*
D03*
X2662500Y1090000D02*
D03*
X2682500Y850000D02*
D03*
X2682499Y1050000D02*
D03*
X2702500Y930000D02*
D03*
Y1090000D02*
D03*
X2722500Y1110000D02*
D03*
X2742499Y770000D02*
D03*
X2742499Y850000D02*
D03*
X2762500Y670000D02*
D03*
X2762499Y1070000D02*
D03*
X2782500Y670000D02*
D03*
X2802500Y870000D02*
D03*
X2862500Y910000D02*
D03*
X2922500Y890000D02*
D03*
D35*
X2462499Y1000000D02*
D03*
X2482499Y660000D02*
D03*
X2482499Y780000D02*
D03*
Y820000D02*
D03*
X2482499Y920000D02*
D03*
X2482499Y1000000D02*
D03*
Y1060000D02*
D03*
X2502499Y660000D02*
D03*
X2502499Y780000D02*
D03*
X2522500Y660000D02*
D03*
X2522499Y780000D02*
D03*
X2522499Y840000D02*
D03*
X2522500Y900000D02*
D03*
X2522499Y1080000D02*
D03*
X2542500Y660000D02*
D03*
X2542499Y779999D02*
D03*
Y819999D02*
D03*
X2562500Y660000D02*
D03*
X2562499Y779999D02*
D03*
X2562500Y900000D02*
D03*
Y940000D02*
D03*
X2562499Y980000D02*
D03*
Y1059999D02*
D03*
X2582499Y980000D02*
D03*
Y1019999D02*
D03*
X2602499Y819999D02*
D03*
Y980000D02*
D03*
Y1059999D02*
D03*
X2622500Y1100000D02*
D03*
Y1140000D02*
D03*
X2642500Y720000D02*
D03*
X2642499Y880000D02*
D03*
Y920000D02*
D03*
X2642500Y1040000D02*
D03*
X2642499Y1100000D02*
D03*
Y1140000D02*
D03*
X2662499Y720000D02*
D03*
X2682500Y660000D02*
D03*
Y900000D02*
D03*
X2702500Y660000D02*
D03*
X2702499Y740000D02*
D03*
Y780000D02*
D03*
X2702500Y880000D02*
D03*
X2722500Y680000D02*
D03*
X2722499Y740000D02*
D03*
X2722500Y900000D02*
D03*
X2742499Y660000D02*
D03*
X2742499Y720000D02*
D03*
Y1020000D02*
D03*
Y1060000D02*
D03*
X2742499Y1100000D02*
D03*
X2762499Y760000D02*
D03*
Y820000D02*
D03*
X2782500Y860000D02*
D03*
Y900000D02*
D03*
X2782499Y1039999D02*
D03*
X2802499Y980000D02*
D03*
X2822499Y819999D02*
D03*
X2822500Y860000D02*
D03*
Y900000D02*
D03*
Y940000D02*
D03*
X2822499Y980000D02*
D03*
X2842500Y660000D02*
D03*
X2842499Y779999D02*
D03*
X2842500Y940000D02*
D03*
X2842499Y1019999D02*
D03*
X2842500Y1140000D02*
D03*
X2862500Y660000D02*
D03*
X2862499Y779999D02*
D03*
Y960000D02*
D03*
Y1019999D02*
D03*
X2862500Y1140000D02*
D03*
X2882500Y660000D02*
D03*
X2882499Y779999D02*
D03*
Y980000D02*
D03*
Y1019999D02*
D03*
X2882500Y1140000D02*
D03*
X2902499Y660000D02*
D03*
X2902500Y780000D02*
D03*
X2902499Y900000D02*
D03*
Y940000D02*
D03*
X2902500Y1020000D02*
D03*
X2902499Y1140000D02*
D03*
X2922500Y660000D02*
D03*
X2922499Y780000D02*
D03*
Y820000D02*
D03*
Y1020000D02*
D03*
X2922500Y1140000D02*
D03*
X2942499Y820000D02*
D03*
D36*
X2462500Y1090000D02*
D03*
X2622499Y1010000D02*
D03*
D37*
X2482499Y960000D02*
D03*
X2522499D02*
D03*
X2582499Y840000D02*
D03*
X2622499D02*
D03*
D38*
X2502499Y720000D02*
D03*
X2522499D02*
D03*
X2562499Y840000D02*
D03*
X2582499Y1080000D02*
D03*
X2682500Y960000D02*
D03*
X2742499Y940000D02*
D03*
X2842499Y840000D02*
D03*
X2862499Y1080000D02*
D03*
X2882499Y840000D02*
D03*
Y1080000D02*
D03*
X2942500Y960000D02*
D03*
D39*
X2502499Y900000D02*
D03*
X2542499Y1019999D02*
D03*
D40*
X2522499Y1020000D02*
D03*
X2542499Y720000D02*
D03*
X2542500Y1120000D02*
D03*
X2702499Y1020000D02*
D03*
X2722500Y820000D02*
D03*
X2782499Y759999D02*
D03*
X2862499Y720000D02*
D03*
X2882499D02*
D03*
X2882500Y920000D02*
D03*
D41*
X2582499Y720000D02*
D03*
X2822499D02*
D03*
X2942500Y1080000D02*
D03*
D42*
X2622499Y690000D02*
D03*
X2662499Y790000D02*
D03*
D43*
X2642499Y960000D02*
D03*
D44*
X2682500Y730000D02*
D03*
X2762499Y950000D02*
D03*
X2782499Y1110000D02*
D03*
D45*
X2862499Y850000D02*
D03*
D46*
X2902499Y720000D02*
D03*
D47*
Y830000D02*
D03*
D48*
Y1080000D02*
D03*
%TF.MD5,709b3164d4a3b772bd80110395182553*%
M02*
