%TF.GenerationSoftware,Altium Limited,Altium Designer,21.2.2 (38)*%
G04 Layer_Physical_Order=4*
G04 Layer_Color=16711680*
%FSLAX45Y45*%
%MOMM*%
%TF.SameCoordinates,9B882A86-BDC0-4CB1-B03D-B9E00FC7DE04*%
%TF.FilePolarity,Positive*%
%TF.FileFunction,Copper,L4,Bot,Signal*%
%TF.Part,Single*%
G01*
G75*
%TA.AperFunction,SMDPad,CuDef*%
G04:AMPARAMS|DCode=14|XSize=1.4mm|YSize=2.2mm|CornerRadius=0.35mm|HoleSize=0mm|Usage=FLASHONLY|Rotation=0.000|XOffset=0mm|YOffset=0mm|HoleType=Round|Shape=RoundedRectangle|*
%AMROUNDEDRECTD14*
21,1,1.40000,1.50000,0,0,0.0*
21,1,0.70000,2.20000,0,0,0.0*
1,1,0.70000,0.35000,-0.75000*
1,1,0.70000,-0.35000,-0.75000*
1,1,0.70000,-0.35000,0.75000*
1,1,0.70000,0.35000,0.75000*
%
%ADD14ROUNDEDRECTD14*%
%TA.AperFunction,Conductor*%
%ADD22C,0.40000*%
%ADD23C,0.25000*%
%TA.AperFunction,ComponentPad*%
G04:AMPARAMS|DCode=25|XSize=1.9mm|YSize=1.9mm|CornerRadius=0.475mm|HoleSize=0mm|Usage=FLASHONLY|Rotation=180.000|XOffset=0mm|YOffset=0mm|HoleType=Round|Shape=RoundedRectangle|*
%AMROUNDEDRECTD25*
21,1,1.90000,0.95000,0,0,180.0*
21,1,0.95000,1.90000,0,0,180.0*
1,1,0.95000,-0.47500,0.47500*
1,1,0.95000,0.47500,0.47500*
1,1,0.95000,0.47500,-0.47500*
1,1,0.95000,-0.47500,-0.47500*
%
%ADD25ROUNDEDRECTD25*%
G04:AMPARAMS|DCode=26|XSize=1.1mm|YSize=1.2mm|CornerRadius=0.275mm|HoleSize=0mm|Usage=FLASHONLY|Rotation=180.000|XOffset=0mm|YOffset=0mm|HoleType=Round|Shape=RoundedRectangle|*
%AMROUNDEDRECTD26*
21,1,1.10000,0.65000,0,0,180.0*
21,1,0.55000,1.20000,0,0,180.0*
1,1,0.55000,-0.27500,0.32500*
1,1,0.55000,0.27500,0.32500*
1,1,0.55000,0.27500,-0.32500*
1,1,0.55000,-0.27500,-0.32500*
%
%ADD26ROUNDEDRECTD26*%
G04:AMPARAMS|DCode=27|XSize=1.7mm|YSize=2.1mm|CornerRadius=0mm|HoleSize=0mm|Usage=FLASHONLY|Rotation=270.000|XOffset=0mm|YOffset=0mm|HoleType=Round|Shape=Octagon|*
%AMOCTAGOND27*
4,1,8,1.05000,0.42500,1.05000,-0.42500,0.62500,-0.85000,-0.62500,-0.85000,-1.05000,-0.42500,-1.05000,0.42500,-0.62500,0.85000,0.62500,0.85000,1.05000,0.42500,0.0*
%
%ADD27OCTAGOND27*%

G04:AMPARAMS|DCode=28|XSize=1.7mm|YSize=2.1mm|CornerRadius=0.425mm|HoleSize=0mm|Usage=FLASHONLY|Rotation=270.000|XOffset=0mm|YOffset=0mm|HoleType=Round|Shape=RoundedRectangle|*
%AMROUNDEDRECTD28*
21,1,1.70000,1.25001,0,0,270.0*
21,1,0.85000,2.10000,0,0,270.0*
1,1,0.85000,-0.62500,-0.42500*
1,1,0.85000,-0.62500,0.42500*
1,1,0.85000,0.62500,0.42500*
1,1,0.85000,0.62500,-0.42500*
%
%ADD28ROUNDEDRECTD28*%
%TA.AperFunction,ViaPad*%
%ADD29C,0.60000*%
%TA.AperFunction,SMDPad,CuDef*%
G04:AMPARAMS|DCode=31|XSize=1.4mm|YSize=2.2mm|CornerRadius=0mm|HoleSize=0mm|Usage=FLASHONLY|Rotation=0.000|XOffset=0mm|YOffset=0mm|HoleType=Round|Shape=Octagon|*
%AMOCTAGOND31*
4,1,8,-0.35000,1.10000,0.35000,1.10000,0.70000,0.75000,0.70000,-0.75000,0.35000,-1.10000,-0.35000,-1.10000,-0.70000,-0.75000,-0.70000,0.75000,-0.35000,1.10000,0.0*
%
%ADD31OCTAGOND31*%

G36*
X2430000Y1206545D02*
X2415000Y1199647D01*
X2403776Y1207147D01*
X2384267Y1211027D01*
X2364758Y1207147D01*
X2348219Y1196096D01*
X2337168Y1179557D01*
X2333287Y1160048D01*
X2337168Y1140539D01*
X2334349Y1133735D01*
X2328435Y1132558D01*
X2318137Y1125677D01*
X2303137Y1133343D01*
Y1221862D01*
X2318137Y1229880D01*
X2327991Y1223296D01*
X2347500Y1219415D01*
X2367009Y1223296D01*
X2383548Y1234347D01*
X2394599Y1250886D01*
X2398480Y1270395D01*
X2394599Y1289904D01*
X2383548Y1306443D01*
X2367009Y1317494D01*
X2357693Y1319347D01*
X2347841Y1329711D01*
X2348073Y1335390D01*
X2350980Y1350000D01*
X2347099Y1369509D01*
X2336048Y1386048D01*
X2319509Y1397099D01*
X2300000Y1400980D01*
X2298820Y1400745D01*
X2291431Y1414569D01*
X2373431Y1496569D01*
X2380614Y1507320D01*
X2383137Y1520000D01*
Y1550054D01*
X2384145Y1552383D01*
X2384221Y1557091D01*
X2384803Y1565200D01*
X2385201Y1567988D01*
X2385694Y1570418D01*
X2386191Y1572223D01*
X2386612Y1573369D01*
X2386798Y1573752D01*
X2387340Y1574376D01*
X2387507Y1574874D01*
X2387581Y1574989D01*
X2387623Y1575223D01*
X2388351Y1577398D01*
X2397099Y1590491D01*
X2400980Y1610000D01*
X2397099Y1629509D01*
X2386048Y1646048D01*
X2369509Y1657099D01*
X2350000Y1660980D01*
X2330491Y1657099D01*
X2313952Y1646048D01*
X2302901Y1629509D01*
X2299021Y1610000D01*
X2302901Y1590491D01*
X2311649Y1577398D01*
X2312377Y1575222D01*
X2312420Y1574989D01*
X2312493Y1574875D01*
X2312660Y1574376D01*
X2313202Y1573752D01*
X2313388Y1573370D01*
X2313809Y1572223D01*
X2314307Y1570418D01*
X2314799Y1567988D01*
X2315198Y1565200D01*
X2315780Y1557091D01*
X2315855Y1552383D01*
X2316864Y1550054D01*
Y1541685D01*
X2308549Y1534971D01*
X2291408Y1538026D01*
X2286048Y1546048D01*
X2269509Y1557099D01*
X2250000Y1560980D01*
X2230491Y1557099D01*
X2213952Y1546048D01*
X2202901Y1529509D01*
X2199020Y1510000D01*
X2202901Y1490491D01*
X2213952Y1473952D01*
X2227095Y1465170D01*
X2231674Y1448536D01*
X2196569Y1413431D01*
X2189386Y1402681D01*
X2186863Y1390000D01*
Y1187664D01*
X2171863Y1183114D01*
X2164222Y1194549D01*
X2147684Y1205600D01*
X2128175Y1209481D01*
X2108666Y1205600D01*
X2095573Y1196852D01*
X2093397Y1196124D01*
X2093164Y1196082D01*
X2093049Y1196008D01*
X2092550Y1195841D01*
X2091927Y1195299D01*
X2091544Y1195113D01*
X2090398Y1194692D01*
X2088592Y1194195D01*
X2086162Y1193703D01*
X2083375Y1193304D01*
X2075266Y1192722D01*
X2070557Y1192647D01*
X2068228Y1191638D01*
X2036973D01*
X2027182Y1203307D01*
X2031275Y1216800D01*
X2037474Y1218033D01*
X2054013Y1229084D01*
X2065064Y1245623D01*
X2067159Y1256156D01*
X2069294Y1259718D01*
X2069450Y1260767D01*
X2069487Y1260895D01*
X2069798Y1261669D01*
X2070474Y1262994D01*
X2071562Y1264789D01*
X2072810Y1266590D01*
X2080523Y1275725D01*
X2083693Y1278988D01*
X2084634Y1281356D01*
X2087765Y1284487D01*
X2089642Y1285067D01*
X2089953Y1285655D01*
X2090576Y1285888D01*
X2097561Y1292391D01*
X2100085Y1294450D01*
X2102428Y1296163D01*
X2104359Y1297393D01*
X2105798Y1298163D01*
X2106577Y1298490D01*
X2107009Y1298487D01*
X2107465Y1298672D01*
X2107986Y1298751D01*
X2108650Y1299153D01*
X2108876Y1299244D01*
X2110000Y1299021D01*
X2129509Y1302901D01*
X2146048Y1313952D01*
X2157099Y1330491D01*
X2160980Y1350000D01*
X2157099Y1369509D01*
X2146048Y1386048D01*
X2129509Y1397099D01*
X2110000Y1400980D01*
X2090491Y1397099D01*
X2073952Y1386048D01*
X2062901Y1369509D01*
X2060806Y1358977D01*
X2058671Y1355416D01*
X2058514Y1354365D01*
X2058479Y1354239D01*
X2058167Y1353464D01*
X2057491Y1352139D01*
X2056405Y1350347D01*
X2055154Y1348542D01*
X2047441Y1339408D01*
X2044271Y1336144D01*
X2043330Y1333777D01*
X2040199Y1330645D01*
X2038322Y1330065D01*
X2038011Y1329477D01*
X2037388Y1329245D01*
X2030403Y1322742D01*
X2027880Y1320682D01*
X2025536Y1318970D01*
X2023605Y1317739D01*
X2022167Y1316970D01*
X2021388Y1316643D01*
X2020955Y1316646D01*
X2020500Y1316461D01*
X2019978Y1316381D01*
X2019314Y1315980D01*
X2019089Y1315888D01*
X2017965Y1316112D01*
X1998456Y1312231D01*
X1981917Y1301180D01*
X1970866Y1284641D01*
X1969000Y1275262D01*
X1966751Y1272164D01*
X1953074Y1264605D01*
X1952748Y1264593D01*
X1947500Y1265637D01*
X1788683D01*
X1776002Y1263114D01*
X1765252Y1255931D01*
X1639122Y1129801D01*
X1631939Y1119052D01*
X1624562Y1121221D01*
X1605053Y1125101D01*
X1585544Y1121221D01*
X1569005Y1110169D01*
X1557954Y1093631D01*
X1554074Y1074122D01*
X1555982Y1064529D01*
X1549386Y1054658D01*
X1546863Y1041977D01*
Y440000D01*
X1549386Y427319D01*
X1556569Y416569D01*
X1669811Y303327D01*
X1669458Y297898D01*
X1659077Y291778D01*
X1652323Y291555D01*
X1644460Y296809D01*
X1623000Y301077D01*
X1581320D01*
X1578870Y301931D01*
X1573398Y304606D01*
X1566849Y308603D01*
X1559593Y313799D01*
X1541855Y328911D01*
X1532042Y338390D01*
X1529689Y339318D01*
X1525576Y343431D01*
X1518956Y347855D01*
X1516476Y361587D01*
X1517058Y365464D01*
X1527099Y380491D01*
X1530980Y400000D01*
X1527099Y419509D01*
X1516048Y436048D01*
X1499509Y447099D01*
X1480000Y450980D01*
X1460491Y447099D01*
X1443952Y436048D01*
X1432901Y419509D01*
X1429021Y400000D01*
X1432901Y380491D01*
X1441156Y368137D01*
X1435194Y353137D01*
X1303726D01*
X1283137Y373725D01*
Y886275D01*
X1333431Y936569D01*
X1340614Y947319D01*
X1343137Y960000D01*
Y1310053D01*
X1344145Y1312381D01*
X1344220Y1317091D01*
X1344802Y1325200D01*
X1345201Y1327988D01*
X1345694Y1330418D01*
X1346191Y1332223D01*
X1346612Y1333369D01*
X1346798Y1333752D01*
X1347340Y1334376D01*
X1347506Y1334874D01*
X1347580Y1334989D01*
X1347623Y1335223D01*
X1348351Y1337398D01*
X1357099Y1350491D01*
X1360979Y1370000D01*
X1357099Y1389509D01*
X1346048Y1406048D01*
X1329509Y1417099D01*
X1310000Y1420980D01*
X1290491Y1417099D01*
X1280957Y1410728D01*
X1266045Y1406045D01*
X1249507Y1417096D01*
X1229998Y1420977D01*
X1228596Y1420698D01*
X1224253Y1424397D01*
X1217765Y1433838D01*
X1220980Y1450000D01*
X1217099Y1469509D01*
X1206048Y1486048D01*
X1189509Y1497099D01*
X1170000Y1500979D01*
X1150491Y1497099D01*
X1133952Y1486048D01*
X1122901Y1469509D01*
X1119020Y1450000D01*
X1122901Y1430491D01*
X1133952Y1413952D01*
X1150491Y1402901D01*
X1170000Y1399020D01*
X1171402Y1399299D01*
X1175744Y1395600D01*
X1182233Y1386160D01*
X1179018Y1369997D01*
X1182899Y1350488D01*
X1193950Y1333949D01*
X1210489Y1322898D01*
X1226863Y1319641D01*
Y1194806D01*
X1211863Y1188844D01*
X1199509Y1197099D01*
X1180000Y1200980D01*
X1160491Y1197099D01*
X1143952Y1186048D01*
X1132901Y1169509D01*
X1129020Y1150000D01*
X1132901Y1130491D01*
X1143952Y1113952D01*
X1148958Y1110607D01*
X1153356Y1090190D01*
X1152901Y1089509D01*
X1149020Y1070000D01*
X1150151Y1064315D01*
X1140491Y1047099D01*
X1123952Y1036048D01*
X1112901Y1019509D01*
X1109020Y1000000D01*
X1112901Y980491D01*
X1113593Y979456D01*
X1113625Y978015D01*
X1113599Y977698D01*
X1113635Y977584D01*
X1113641Y977300D01*
X1113948Y976604D01*
X1114034Y976337D01*
X1114308Y975181D01*
X1114522Y973974D01*
X1115817Y954777D01*
X1115852Y949996D01*
X1116863Y947606D01*
Y302607D01*
X1115000Y301077D01*
X1045000D01*
X1023540Y296809D01*
X1005347Y284653D01*
X993192Y266460D01*
X988923Y245000D01*
Y222167D01*
X973923Y214150D01*
X969509Y217099D01*
X950000Y220979D01*
X931000Y217200D01*
X928321Y216858D01*
X916000Y224988D01*
Y255000D01*
X878918Y292081D01*
X878807Y292350D01*
X878539Y292461D01*
X871000Y300000D01*
X864169D01*
X863151Y302622D01*
X861974Y307226D01*
X861006Y313340D01*
X860375Y320867D01*
X860311Y323449D01*
X906150Y369288D01*
X906435Y369162D01*
X916222Y368930D01*
X919778Y368695D01*
X926555Y367884D01*
X928726Y367471D01*
X930534Y367019D01*
X931715Y366634D01*
X932220Y366419D01*
X933279Y365830D01*
X936698Y365435D01*
X940491Y362901D01*
X960000Y359020D01*
X979509Y362901D01*
X996048Y373952D01*
X1007099Y390491D01*
X1010980Y410000D01*
X1007099Y429509D01*
X996048Y446048D01*
X979509Y457099D01*
X960000Y460980D01*
X940491Y457099D01*
X923952Y446048D01*
X920324Y440619D01*
X920006Y440433D01*
X919403Y440323D01*
X919010Y440070D01*
X918507Y439891D01*
X918092Y439518D01*
X917958Y439455D01*
X916811Y439061D01*
X914901Y438590D01*
X912548Y438187D01*
X904796Y437533D01*
X900166Y437447D01*
X897856Y436440D01*
X897572D01*
X895214Y436779D01*
X894761Y436440D01*
X893303D01*
X880623Y433917D01*
X869872Y426734D01*
X802569Y359431D01*
X795386Y348681D01*
X792864Y336000D01*
Y332499D01*
X791859Y330236D01*
X791625Y320870D01*
X790994Y313338D01*
X790026Y307226D01*
X788849Y302622D01*
X787831Y300000D01*
X781000D01*
X773462Y292461D01*
X773193Y292350D01*
X773082Y292081D01*
X736000Y255000D01*
Y85000D01*
X763198Y57802D01*
X757458Y43944D01*
X200000D01*
X199453Y43836D01*
X159563Y49087D01*
X121882Y64695D01*
X89524Y89524D01*
X64695Y121882D01*
X52544Y151217D01*
X65837Y158323D01*
X72440Y148440D01*
X93114Y134626D01*
X117500Y129776D01*
X242500D01*
X266887Y134626D01*
X287560Y148440D01*
X301374Y169114D01*
X306225Y193500D01*
Y278500D01*
X301374Y302886D01*
X287560Y323560D01*
X266887Y337374D01*
X242500Y342224D01*
X117500D01*
X93114Y337374D01*
X72440Y323560D01*
X58944Y303362D01*
X57655Y303083D01*
X43944Y305857D01*
Y420143D01*
X57655Y422917D01*
X58944Y422638D01*
X72440Y402440D01*
X93114Y388626D01*
X117500Y383776D01*
X242500D01*
X266887Y388626D01*
X287560Y402440D01*
X301374Y423114D01*
X306225Y447500D01*
Y532500D01*
X301374Y556886D01*
X287560Y577560D01*
X266887Y591374D01*
X242500Y596224D01*
X117500D01*
X93114Y591374D01*
X72440Y577560D01*
X58944Y557362D01*
X57655Y557083D01*
X43944Y559857D01*
Y674143D01*
X57655Y676917D01*
X58944Y676638D01*
X72440Y656440D01*
X93114Y642626D01*
X117500Y637776D01*
X242500D01*
X266887Y642626D01*
X287560Y656440D01*
X301374Y677114D01*
X306225Y701500D01*
Y786500D01*
X301374Y810886D01*
X287560Y831560D01*
X266887Y845374D01*
X242500Y850224D01*
X117500D01*
X93114Y845374D01*
X72440Y831560D01*
X58944Y811362D01*
X57655Y811083D01*
X43944Y813857D01*
Y928143D01*
X57655Y930917D01*
X58944Y930638D01*
X72440Y910440D01*
X93114Y896626D01*
X117500Y891776D01*
X242500D01*
X266887Y896626D01*
X287560Y910440D01*
X301374Y931114D01*
X306225Y955500D01*
Y1040500D01*
X301374Y1064886D01*
X287560Y1085560D01*
X266887Y1099374D01*
X242500Y1104224D01*
X117500D01*
X93114Y1099374D01*
X72440Y1085560D01*
X58944Y1065362D01*
X57655Y1065083D01*
X43944Y1067857D01*
Y1182143D01*
X57655Y1184917D01*
X58944Y1184638D01*
X72440Y1164440D01*
X93114Y1150626D01*
X117500Y1145776D01*
X242500D01*
X266887Y1150626D01*
X287560Y1164440D01*
X301374Y1185114D01*
X306225Y1209500D01*
Y1294500D01*
X301374Y1318886D01*
X287560Y1339560D01*
X266887Y1353374D01*
X242500Y1358224D01*
X117500D01*
X93114Y1353374D01*
X72440Y1339560D01*
X58944Y1319362D01*
X57655Y1319083D01*
X43944Y1321857D01*
Y1436143D01*
X57655Y1438917D01*
X58944Y1438638D01*
X72440Y1418440D01*
X93114Y1404626D01*
X117500Y1399776D01*
X242500D01*
X266887Y1404626D01*
X287560Y1418440D01*
X301374Y1439114D01*
X306225Y1463500D01*
Y1548500D01*
X301374Y1572886D01*
X287560Y1593560D01*
X266887Y1607374D01*
X242500Y1612224D01*
X117500D01*
X93114Y1607374D01*
X72440Y1593560D01*
X58944Y1573362D01*
X57655Y1573083D01*
X43944Y1575857D01*
Y1689243D01*
X58944Y1695456D01*
X104800Y1649600D01*
X167300D01*
Y1760000D01*
Y1870400D01*
X104800D01*
X58944Y1824544D01*
X43944Y1830757D01*
Y1956056D01*
X1337853D01*
X1344924Y1942827D01*
X1338917Y1933837D01*
X1333678Y1907500D01*
Y1812500D01*
X1338917Y1786163D01*
X1353835Y1763836D01*
X1376163Y1748917D01*
X1402500Y1743678D01*
X1497500D01*
X1523837Y1748917D01*
X1546164Y1763836D01*
X1561083Y1786163D01*
X1566322Y1812500D01*
Y1907500D01*
X1561083Y1933837D01*
X1555076Y1942827D01*
X1562147Y1956056D01*
X2172853D01*
X2179924Y1942827D01*
X2173917Y1933837D01*
X2168678Y1907500D01*
Y1812500D01*
X2173917Y1786163D01*
X2188836Y1763836D01*
X2211163Y1748917D01*
X2237500Y1743678D01*
X2332500D01*
X2358837Y1748917D01*
X2381164Y1763836D01*
X2396083Y1786163D01*
X2401322Y1812500D01*
Y1907500D01*
X2396083Y1933837D01*
X2390076Y1942827D01*
X2397147Y1956056D01*
X2430000D01*
Y1206545D01*
D02*
G37*
G36*
X2369385Y1586718D02*
X2367940Y1584476D01*
X2366665Y1581850D01*
X2365560Y1578841D01*
X2364625Y1575448D01*
X2363860Y1571671D01*
X2363265Y1567511D01*
X2362585Y1558040D01*
X2362500Y1552728D01*
X2337500D01*
X2337415Y1558040D01*
X2336735Y1567511D01*
X2336140Y1571671D01*
X2335375Y1575448D01*
X2334440Y1578841D01*
X2333335Y1581850D01*
X2332060Y1584476D01*
X2330615Y1586718D01*
X2329000Y1588576D01*
X2371000D01*
X2369385Y1586718D01*
D02*
G37*
G36*
X2107167Y1320134D02*
X2104726Y1320152D01*
X2102131Y1319757D01*
X2099383Y1318949D01*
X2096479Y1317728D01*
X2093422Y1316094D01*
X2090211Y1314047D01*
X2086846Y1311588D01*
X2083326Y1308715D01*
X2075825Y1301732D01*
X2059799Y1321061D01*
X2063495Y1324866D01*
X2072359Y1335363D01*
X2074573Y1338557D01*
X2076416Y1341598D01*
X2077889Y1344487D01*
X2078991Y1347222D01*
X2079723Y1349805D01*
X2080083Y1352236D01*
X2107167Y1320134D01*
D02*
G37*
G36*
X1329385Y1346718D02*
X1327940Y1344476D01*
X1326665Y1341850D01*
X1325560Y1338841D01*
X1324625Y1335448D01*
X1323860Y1331671D01*
X1323265Y1327511D01*
X1322585Y1318040D01*
X1322500Y1312728D01*
X1297500D01*
X1297415Y1318040D01*
X1296735Y1327511D01*
X1296140Y1331671D01*
X1295375Y1335448D01*
X1294440Y1338841D01*
X1293335Y1341850D01*
X1292060Y1344476D01*
X1290615Y1346718D01*
X1289000Y1348576D01*
X1331000D01*
X1329385Y1346718D01*
D02*
G37*
G36*
X2297665Y1320091D02*
X2297406Y1319913D01*
X2296786Y1319365D01*
X2282345Y1305192D01*
X2278839Y1301691D01*
X2261161Y1319368D01*
X2263789Y1322021D01*
X2273325Y1332799D01*
X2273876Y1333739D01*
X2274130Y1334432D01*
X2274088Y1334882D01*
X2297665Y1320091D01*
D02*
G37*
G36*
X2068166Y1294072D02*
X2064470Y1290268D01*
X2055606Y1279770D01*
X2053392Y1276576D01*
X2051549Y1273535D01*
X2050076Y1270646D01*
X2048974Y1267911D01*
X2048242Y1265328D01*
X2047881Y1262898D01*
X2020797Y1294998D01*
X2023238Y1294980D01*
X2025833Y1295376D01*
X2028582Y1296184D01*
X2031485Y1297405D01*
X2034542Y1299039D01*
X2037753Y1301085D01*
X2041119Y1303545D01*
X2044638Y1306417D01*
X2052139Y1313401D01*
X2068166Y1294072D01*
D02*
G37*
G36*
X2106750Y1137501D02*
X2104892Y1139116D01*
X2102650Y1140561D01*
X2100025Y1141836D01*
X2097016Y1142941D01*
X2093623Y1143876D01*
X2089846Y1144641D01*
X2085686Y1145236D01*
X2076214Y1145916D01*
X2070903Y1146001D01*
Y1171001D01*
X2076214Y1171086D01*
X2085686Y1171766D01*
X2089846Y1172361D01*
X2093623Y1173126D01*
X2097016Y1174061D01*
X2100025Y1175166D01*
X2102650Y1176441D01*
X2104892Y1177886D01*
X2106750Y1179501D01*
Y1137501D01*
D02*
G37*
G36*
X1968076Y1159021D02*
X1968702Y1156419D01*
X1969711Y1153665D01*
X1971104Y1150760D01*
X1972881Y1147704D01*
X1975041Y1144497D01*
X1977585Y1141139D01*
X1983825Y1133969D01*
X1987520Y1130157D01*
X1970446Y1111876D01*
X1966626Y1115572D01*
X1959441Y1121766D01*
X1956076Y1124265D01*
X1952863Y1126364D01*
X1949801Y1128063D01*
X1946891Y1129363D01*
X1944133Y1130264D01*
X1941527Y1130765D01*
X1939072Y1130867D01*
X1967835Y1161473D01*
X1968076Y1159021D01*
D02*
G37*
G36*
X1172658Y972801D02*
X1170728Y971623D01*
X1169001Y969981D01*
X1167477Y967873D01*
X1166157Y965301D01*
X1165039Y962264D01*
X1164125Y958761D01*
X1163414Y954794D01*
X1162906Y950363D01*
X1162500Y940105D01*
X1137500Y950157D01*
X1137459Y955587D01*
X1136042Y976597D01*
X1135515Y979571D01*
X1134907Y982135D01*
X1134218Y984290D01*
X1133449Y986035D01*
X1172658Y972801D01*
D02*
G37*
G36*
X1719986Y975169D02*
X1720912Y972674D01*
X1722185Y970017D01*
X1723804Y967197D01*
X1725771Y964214D01*
X1730746Y957762D01*
X1733754Y954293D01*
X1740812Y946866D01*
X1726865Y925457D01*
X1723023Y929162D01*
X1715828Y935256D01*
X1712475Y937646D01*
X1709285Y939597D01*
X1706258Y941109D01*
X1703394Y942184D01*
X1700694Y942820D01*
X1698156Y943017D01*
X1695782Y942777D01*
X1719408Y977501D01*
X1719986Y975169D01*
D02*
G37*
G36*
X2369117Y953601D02*
X2367683Y951349D01*
X2366417Y948715D01*
X2365320Y945699D01*
X2364392Y942300D01*
X2363633Y938519D01*
X2363042Y934355D01*
X2362367Y924881D01*
X2362283Y919571D01*
X2337283Y919372D01*
X2337197Y924684D01*
X2336512Y934153D01*
X2335913Y938310D01*
X2335143Y942082D01*
X2334201Y945469D01*
X2333088Y948471D01*
X2331804Y951088D01*
X2330348Y953320D01*
X2328722Y955166D01*
X2370720Y955470D01*
X2369117Y953601D01*
D02*
G37*
G36*
X2189336Y881658D02*
X2185641Y877843D01*
X2179424Y870665D01*
X2176903Y867302D01*
X2174773Y864090D01*
X2173035Y861030D01*
X2171689Y858121D01*
X2170734Y855363D01*
X2170170Y852756D01*
X2169998Y850300D01*
X2140300Y879998D01*
X2142756Y880170D01*
X2145363Y880734D01*
X2148121Y881689D01*
X2151030Y883035D01*
X2154090Y884773D01*
X2157302Y886903D01*
X2160664Y889424D01*
X2167843Y895641D01*
X2171658Y899336D01*
X2189336Y881658D01*
D02*
G37*
G36*
X1732330Y841150D02*
X1732893Y838543D01*
X1733848Y835785D01*
X1735195Y832875D01*
X1736933Y829815D01*
X1739063Y826604D01*
X1741584Y823241D01*
X1747800Y816063D01*
X1751496Y812247D01*
X1733818Y794570D01*
X1730002Y798265D01*
X1722824Y804482D01*
X1719462Y807003D01*
X1716250Y809132D01*
X1713190Y810870D01*
X1710281Y812217D01*
X1707523Y813172D01*
X1704916Y813735D01*
X1702460Y813907D01*
X1732158Y843606D01*
X1732330Y841150D01*
D02*
G37*
G36*
X2123061Y671298D02*
X2133572Y662468D01*
X2136773Y660276D01*
X2139821Y658461D01*
X2142718Y657022D01*
X2145463Y655958D01*
X2148056Y655271D01*
X2150498Y654959D01*
X2119013Y627162D01*
X2118980Y629610D01*
X2118541Y632212D01*
X2117694Y634966D01*
X2116440Y637873D01*
X2114779Y640933D01*
X2112711Y644146D01*
X2110235Y647512D01*
X2104062Y654702D01*
X2100365Y658526D01*
X2119253Y674993D01*
X2123061Y671298D01*
D02*
G37*
G36*
X1935703Y604334D02*
X1936338Y601732D01*
X1937355Y598979D01*
X1938755Y596075D01*
X1940538Y593020D01*
X1942703Y589814D01*
X1945250Y586457D01*
X1951493Y579288D01*
X1955188Y575477D01*
X1938206Y557105D01*
X1934385Y560801D01*
X1927199Y566992D01*
X1923834Y569487D01*
X1920621Y571581D01*
X1917559Y573275D01*
X1914649Y574568D01*
X1911892Y575460D01*
X1909286Y575952D01*
X1906832Y576044D01*
X1935451Y606784D01*
X1935703Y604334D01*
D02*
G37*
G36*
X2362369Y442058D02*
X2363053Y432589D01*
X2363653Y428432D01*
X2364423Y424660D01*
X2365365Y421273D01*
X2366478Y418271D01*
X2367762Y415654D01*
X2369218Y413422D01*
X2370844Y411576D01*
X2328846Y411272D01*
X2330449Y413141D01*
X2331883Y415393D01*
X2333149Y418027D01*
X2334246Y421043D01*
X2335174Y424442D01*
X2335933Y428223D01*
X2336524Y432386D01*
X2337199Y441860D01*
X2337283Y447171D01*
X2362283Y447370D01*
X2362369Y442058D01*
D02*
G37*
G36*
X943804Y384748D02*
X941736Y385898D01*
X939308Y386928D01*
X936521Y387836D01*
X933375Y388623D01*
X929869Y389289D01*
X921778Y390258D01*
X917194Y390561D01*
X906946Y390803D01*
X900567Y415803D01*
X905909Y415902D01*
X915290Y416693D01*
X919328Y417385D01*
X922931Y418274D01*
X926100Y419362D01*
X928834Y420647D01*
X931134Y422129D01*
X932999Y423810D01*
X934429Y425687D01*
X943804Y384748D01*
D02*
G37*
G36*
X838750Y319691D02*
X839500Y310740D01*
X840750Y302842D01*
X842500Y295998D01*
X844750Y290206D01*
X847500Y285467D01*
X850750Y281782D01*
X854500Y279149D01*
X858750Y277569D01*
X863500Y277043D01*
X788500D01*
X793250Y277569D01*
X797500Y279149D01*
X801250Y281782D01*
X804500Y285467D01*
X807250Y290206D01*
X809500Y295998D01*
X811250Y302842D01*
X812500Y310740D01*
X813250Y319691D01*
X813500Y329695D01*
X838500D01*
X838750Y319691D01*
D02*
G37*
G36*
X2445984Y266130D02*
X2446845Y266110D01*
Y264575D01*
X2459379Y241943D01*
X2446845Y241708D01*
Y241110D01*
X2441083Y241025D01*
X2431590Y240346D01*
X2427859Y239752D01*
X2424805Y238988D01*
X2422428Y238054D01*
X2420728Y236951D01*
X2419705Y235678D01*
X2419359Y234235D01*
X2419690Y232622D01*
X2416332Y241137D01*
X2414873Y241110D01*
X2413576Y248127D01*
X2403234Y274357D01*
X2404256Y272790D01*
X2406019Y271388D01*
X2408525Y270151D01*
X2411773Y269079D01*
X2415763Y268172D01*
X2420495Y267429D01*
X2425154Y267035D01*
X2428726Y267674D01*
X2432023Y268554D01*
X2434791Y269629D01*
X2437032Y270899D01*
X2438744Y272365D01*
X2439928Y274027D01*
X2440583Y275884D01*
X2445984Y266130D01*
D02*
G37*
G36*
X1811010Y304739D02*
X1811976Y293448D01*
X1812820Y289029D01*
X1813905Y285428D01*
X1815232Y282645D01*
X1816800Y280680D01*
X1818610Y279532D01*
X1820660Y279202D01*
X1822952Y279690D01*
X1776694Y262497D01*
X1778441Y265146D01*
X1780005Y268297D01*
X1781384Y271951D01*
X1782579Y276108D01*
X1783591Y280768D01*
X1784419Y285931D01*
X1785522Y297765D01*
X1785890Y311611D01*
X1810890D01*
X1811010Y304739D01*
D02*
G37*
G36*
X1722585Y281960D02*
X1723265Y272489D01*
X1723860Y268329D01*
X1724625Y264552D01*
X1725560Y261159D01*
X1726665Y258150D01*
X1727940Y255524D01*
X1729385Y253282D01*
X1731000Y251424D01*
X1689000D01*
X1690615Y253282D01*
X1692060Y255524D01*
X1693335Y258150D01*
X1694440Y261159D01*
X1695375Y264552D01*
X1696140Y268329D01*
X1696735Y272489D01*
X1697415Y281960D01*
X1697500Y287272D01*
X1722500D01*
X1722585Y281960D01*
D02*
G37*
G36*
X1527301Y312871D02*
X1546246Y296731D01*
X1554891Y290539D01*
X1562985Y285600D01*
X1570528Y281913D01*
X1577519Y279478D01*
X1583958Y278296D01*
X1589846Y278367D01*
X1595183Y279690D01*
X1519018Y250356D01*
X1523354Y252688D01*
X1526227Y255781D01*
X1527638Y259634D01*
X1527586Y264248D01*
X1526071Y269623D01*
X1523094Y275758D01*
X1518654Y282655D01*
X1512752Y290312D01*
X1505387Y298729D01*
X1496559Y307908D01*
X1517002Y322820D01*
X1527301Y312871D01*
D02*
G37*
G36*
X1263468Y304560D02*
X1280929Y289903D01*
X1288755Y284531D01*
X1295977Y280463D01*
X1302596Y277700D01*
X1308612Y276241D01*
X1314024Y276086D01*
X1318833Y277236D01*
X1323038Y279690D01*
X1264310Y232961D01*
X1267519Y236412D01*
X1269337Y240553D01*
X1269765Y245382D01*
X1268803Y250901D01*
X1266450Y257110D01*
X1262707Y264008D01*
X1257573Y271595D01*
X1251049Y279871D01*
X1243135Y288837D01*
X1233830Y298493D01*
X1253833Y313845D01*
X1263468Y304560D01*
D02*
G37*
G36*
X1985000Y225981D02*
X1985077Y220677D01*
X1986234Y206987D01*
X1986928Y203163D01*
X1987776Y199711D01*
X1988779Y196627D01*
X1989936Y193915D01*
X1991247Y191572D01*
X1992712Y189600D01*
X1950858Y193099D01*
X1952595Y194815D01*
X1954150Y196931D01*
X1955521Y199448D01*
X1956709Y202365D01*
X1957715Y205683D01*
X1958537Y209402D01*
X1959177Y213522D01*
X1959634Y218042D01*
X1960000Y228284D01*
X1985000Y225981D01*
D02*
G37*
G36*
X2534310Y190047D02*
X2542361Y190000D01*
Y150000D01*
X2534310Y149740D01*
Y136996D01*
X2533867Y139467D01*
X2532538Y141677D01*
X2530323Y143628D01*
X2527221Y145318D01*
X2523233Y146749D01*
X2518359Y147919D01*
X2512598Y148830D01*
X2505952Y149480D01*
X2490000Y150000D01*
Y190000D01*
X2498419Y190130D01*
X2512598Y191170D01*
X2518359Y192081D01*
X2523233Y193251D01*
X2527221Y194681D01*
X2530323Y196372D01*
X2532538Y198322D01*
X2533867Y200533D01*
X2534310Y203004D01*
Y190047D01*
D02*
G37*
G36*
X2232585Y161960D02*
X2233265Y152489D01*
X2233860Y148329D01*
X2234625Y144552D01*
X2235560Y141159D01*
X2236665Y138150D01*
X2237940Y135524D01*
X2239385Y133282D01*
X2241000Y131424D01*
X2199000D01*
X2200615Y133282D01*
X2202060Y135524D01*
X2203335Y138150D01*
X2204440Y141159D01*
X2205375Y144552D01*
X2206140Y148329D01*
X2206735Y152489D01*
X2207415Y161960D01*
X2207500Y167272D01*
X2232500D01*
X2232585Y161960D01*
D02*
G37*
%LPC*%
G36*
X830000Y1940980D02*
X810491Y1937099D01*
X793952Y1926048D01*
X782901Y1909509D01*
X779021Y1890000D01*
X782901Y1870491D01*
X793952Y1853952D01*
X810491Y1842901D01*
X830000Y1839020D01*
X849509Y1842901D01*
X866048Y1853952D01*
X877099Y1870491D01*
X880980Y1890000D01*
X877099Y1909509D01*
X866048Y1926048D01*
X849509Y1937099D01*
X830000Y1940980D01*
D02*
G37*
G36*
X255200Y1870400D02*
X192700D01*
Y1772700D01*
X310400D01*
Y1815200D01*
X255200Y1870400D01*
D02*
G37*
G36*
X536500Y1866224D02*
X411500D01*
X387114Y1861374D01*
X366440Y1847560D01*
X352626Y1826886D01*
X347776Y1802500D01*
Y1717500D01*
X352626Y1693114D01*
X366440Y1672440D01*
X387114Y1658626D01*
X411500Y1653776D01*
X536500D01*
X560887Y1658626D01*
X581560Y1672440D01*
X595374Y1693114D01*
X600225Y1717500D01*
Y1802500D01*
X595374Y1826886D01*
X581560Y1847560D01*
X560887Y1861374D01*
X536500Y1866224D01*
D02*
G37*
G36*
X310400Y1747300D02*
X192700D01*
Y1649600D01*
X255200D01*
X310400Y1704800D01*
Y1747300D01*
D02*
G37*
G36*
X2125000Y1640931D02*
X2070000D01*
X2051467Y1637244D01*
X2035755Y1626746D01*
X2025256Y1611034D01*
X2021569Y1592500D01*
Y1527500D01*
X2025256Y1508967D01*
X2035755Y1493255D01*
X2051467Y1482756D01*
X2070000Y1479070D01*
X2125000D01*
X2143533Y1482756D01*
X2159245Y1493255D01*
X2169744Y1508967D01*
X2173431Y1527500D01*
Y1592500D01*
X2169744Y1611034D01*
X2159245Y1626746D01*
X2143533Y1637244D01*
X2125000Y1640931D01*
D02*
G37*
G36*
X1665000D02*
X1610000D01*
X1591466Y1637244D01*
X1575755Y1626746D01*
X1565256Y1611034D01*
X1561569Y1592500D01*
Y1527500D01*
X1565256Y1508967D01*
X1575755Y1493255D01*
X1591466Y1482756D01*
X1610000Y1479070D01*
X1665000D01*
X1683533Y1482756D01*
X1699245Y1493255D01*
X1709744Y1508967D01*
X1713430Y1527500D01*
Y1592500D01*
X1709744Y1611034D01*
X1699245Y1626746D01*
X1683533Y1637244D01*
X1665000Y1640931D01*
D02*
G37*
G36*
X536500Y1612224D02*
X411500D01*
X387114Y1607374D01*
X366440Y1593560D01*
X352626Y1572886D01*
X347776Y1548500D01*
Y1463500D01*
X352626Y1439114D01*
X366440Y1418440D01*
X387114Y1404626D01*
X411500Y1399776D01*
X536500D01*
X560887Y1404626D01*
X581560Y1418440D01*
X595374Y1439114D01*
X600225Y1463500D01*
Y1548500D01*
X595374Y1572886D01*
X581560Y1593560D01*
X560887Y1607374D01*
X536500Y1612224D01*
D02*
G37*
G36*
Y1358224D02*
X411500D01*
X387114Y1353374D01*
X366440Y1339560D01*
X352626Y1318886D01*
X347776Y1294500D01*
Y1209500D01*
X352626Y1185114D01*
X366440Y1164440D01*
X387114Y1150626D01*
X411500Y1145776D01*
X536500D01*
X560887Y1150626D01*
X581560Y1164440D01*
X595374Y1185114D01*
X600225Y1209500D01*
Y1294500D01*
X595374Y1318886D01*
X581560Y1339560D01*
X560887Y1353374D01*
X536500Y1358224D01*
D02*
G37*
G36*
Y1104224D02*
X411500D01*
X387114Y1099374D01*
X366440Y1085560D01*
X352626Y1064886D01*
X347776Y1040500D01*
Y955500D01*
X352626Y931114D01*
X366440Y910440D01*
X387114Y896626D01*
X411500Y891776D01*
X536500D01*
X560887Y896626D01*
X581560Y910440D01*
X595374Y931114D01*
X600225Y955500D01*
Y1040500D01*
X595374Y1064886D01*
X581560Y1085560D01*
X560887Y1099374D01*
X536500Y1104224D01*
D02*
G37*
G36*
X1420000Y790980D02*
X1400491Y787099D01*
X1383952Y776048D01*
X1372901Y759509D01*
X1369020Y740000D01*
X1355748Y729836D01*
X1350000Y730979D01*
X1330491Y727099D01*
X1313952Y716048D01*
X1302901Y699509D01*
X1299021Y680000D01*
X1302901Y660491D01*
X1313952Y643952D01*
X1330491Y632901D01*
X1350000Y629020D01*
X1369509Y632901D01*
X1386048Y643952D01*
X1397099Y660491D01*
X1400980Y680000D01*
X1414252Y690164D01*
X1420000Y689020D01*
X1439509Y692901D01*
X1456048Y703952D01*
X1467099Y720491D01*
X1470980Y740000D01*
X1467099Y759509D01*
X1456048Y776048D01*
X1439509Y787099D01*
X1420000Y790980D01*
D02*
G37*
G36*
X536500Y850224D02*
X411500D01*
X387114Y845374D01*
X366440Y831560D01*
X352626Y810886D01*
X347776Y786500D01*
Y701500D01*
X352626Y677114D01*
X366440Y656440D01*
X387114Y642626D01*
X411500Y637776D01*
X536500D01*
X560887Y642626D01*
X581560Y656440D01*
X595374Y677114D01*
X600225Y701500D01*
Y786500D01*
X595374Y810886D01*
X581560Y831560D01*
X560887Y845374D01*
X536500Y850224D01*
D02*
G37*
G36*
Y596224D02*
X411500D01*
X387114Y591374D01*
X366440Y577560D01*
X352626Y556886D01*
X347776Y532500D01*
Y447500D01*
X352626Y423114D01*
X366440Y402440D01*
X387114Y388626D01*
X411500Y383776D01*
X536500D01*
X560887Y388626D01*
X581560Y402440D01*
X595374Y423114D01*
X600225Y447500D01*
Y532500D01*
X595374Y556886D01*
X581560Y577560D01*
X560887Y591374D01*
X536500Y596224D01*
D02*
G37*
G36*
Y347730D02*
X486700D01*
Y248700D01*
X605730D01*
Y278500D01*
X600461Y304993D01*
X585453Y327453D01*
X562994Y342460D01*
X536500Y347730D01*
D02*
G37*
G36*
X461300D02*
X411500D01*
X385007Y342460D01*
X362547Y327453D01*
X347540Y304993D01*
X342270Y278500D01*
Y248700D01*
X461300D01*
Y347730D01*
D02*
G37*
G36*
X605730Y223300D02*
X486700D01*
Y124270D01*
X536500D01*
X562994Y129540D01*
X585453Y144547D01*
X600461Y167007D01*
X605730Y193500D01*
Y223300D01*
D02*
G37*
G36*
X461300D02*
X342270D01*
Y193500D01*
X347540Y167007D01*
X362547Y144547D01*
X385007Y129540D01*
X411500Y124270D01*
X461300D01*
Y223300D01*
D02*
G37*
%LPD*%
D14*
X1588000Y170000D02*
D03*
X2604000D02*
D03*
X1842000D02*
D03*
X2096000D02*
D03*
X1080000D02*
D03*
X2350000D02*
D03*
X1334000D02*
D03*
D22*
X2490000D02*
X2604000D01*
D23*
X2100000Y350000D02*
Y359471D01*
X2085843Y373628D02*
X2100000Y359471D01*
X1880000Y820001D02*
X2080000Y620001D01*
X2085843Y373628D02*
Y381302D01*
X2080000Y387145D02*
Y620001D01*
Y387145D02*
X2085843Y381302D01*
X1880000Y820001D02*
Y864926D01*
X1860000Y770000D02*
X2030000Y600000D01*
Y282145D02*
Y600000D01*
X1776065Y770000D02*
X1860000D01*
X2350000Y1520000D02*
Y1610000D01*
X2220000Y1390000D02*
X2350000Y1520000D01*
X2220000Y930000D02*
Y1390000D01*
X2300000Y1340529D02*
Y1350000D01*
X2270000Y1310529D02*
X2300000Y1340529D01*
X2140000Y850000D02*
X2220000Y930000D01*
X1250000Y900000D02*
X1310000Y960000D01*
X1150000Y282145D02*
Y980529D01*
X1229998Y1367855D02*
X1260000Y1337853D01*
X1150000Y980529D02*
X1160000Y990529D01*
X1310000Y960000D02*
Y1370000D01*
X1229998Y1367855D02*
Y1369997D01*
X1160000Y990529D02*
Y1000000D01*
X1260000Y980000D02*
Y1337853D01*
X1200000Y920000D02*
X1260000Y980000D01*
X953303Y403303D02*
X960000Y410000D01*
X893303Y403303D02*
X953303D01*
X826000Y336000D02*
X893303Y403303D01*
X826000Y170000D02*
Y336000D01*
X1580000Y440000D02*
Y1041977D01*
Y440000D02*
X1710000Y310000D01*
X1605053Y1067030D02*
Y1074122D01*
X1580000Y1041977D02*
X1605053Y1067030D01*
X1842426Y902500D02*
X1880000Y864926D01*
X1767500Y902500D02*
X1842426D01*
X1200000Y350000D02*
Y920000D01*
X1080000Y212145D02*
X1150000Y282145D01*
X1250000Y360000D02*
Y900000D01*
Y360000D02*
X1290000Y320000D01*
X2106416Y1350000D02*
X2110000D01*
X2017965Y1265132D02*
X2021548D01*
X2106416Y1350000D01*
X1080000Y170000D02*
Y212145D01*
X1200000Y350000D02*
X1334000Y216000D01*
X1632382Y1012382D02*
X1662553Y1042553D01*
X1632382Y477619D02*
Y1012382D01*
X1662553Y1042553D02*
Y1106370D01*
X1697809Y972191D02*
X1767500Y902500D01*
X1689882Y972191D02*
X1697809D01*
X2021499Y1158501D02*
X2128175D01*
X1947500Y1232500D02*
X2021499Y1158501D01*
X1632382Y477619D02*
X1798390Y311611D01*
X1662553Y1106370D02*
X1788683Y1232500D01*
X1947500D01*
X1939158Y1160842D02*
X2001134Y1098866D01*
X1937841Y1160842D02*
X1939158D01*
X1918689Y944165D02*
Y964538D01*
X1911993Y971235D02*
X1918689Y964538D01*
Y944165D02*
X1930000Y932855D01*
Y846569D02*
Y932855D01*
X2001134Y868867D02*
X2220000Y650000D01*
X2001134Y868867D02*
Y1098866D01*
X2349566Y976742D02*
X2349783Y976525D01*
Y390217D02*
X2350000Y390000D01*
X2349783Y390217D02*
Y976525D01*
X2290000Y480000D02*
Y489471D01*
X2270000Y509471D02*
X2290000Y489471D01*
X2270000Y509471D02*
Y1310529D01*
X1906976Y606013D02*
X1972500Y540488D01*
Y172500D02*
Y540488D01*
X1905461Y606013D02*
X1906976D01*
X1930000Y846569D02*
X2148934Y627634D01*
X1702160Y843906D02*
X1776065Y770000D01*
X2220000Y110000D02*
Y650000D01*
X1970000Y170000D02*
X1972500Y172500D01*
X2148934Y625000D02*
Y627634D01*
X1798390Y213610D02*
Y311611D01*
X1290000Y320000D02*
X1502145D01*
X1544390Y277755D01*
X1334000Y170000D02*
Y216000D01*
X1798390Y213610D02*
X1842000Y170000D01*
X2096000D02*
Y216145D01*
X2030000Y282145D02*
X2096000Y216145D01*
X1710000Y230000D02*
Y310000D01*
X1544390Y213610D02*
X1588000Y170000D01*
X1544390Y213610D02*
Y277755D01*
X2350000Y170000D02*
Y197823D01*
X2405787Y253610D01*
X2446845D01*
X2463235Y270000D01*
X2470000D01*
D25*
X2285000Y1860000D02*
D03*
X1450000D02*
D03*
D26*
X2097500Y1560000D02*
D03*
X1637500D02*
D03*
D27*
X180000Y1760000D02*
D03*
D28*
Y1506000D02*
D03*
Y1252000D02*
D03*
Y998000D02*
D03*
Y744000D02*
D03*
Y490000D02*
D03*
Y236000D02*
D03*
X474000Y1760000D02*
D03*
Y1506000D02*
D03*
Y1252000D02*
D03*
Y998000D02*
D03*
Y744000D02*
D03*
Y490000D02*
D03*
Y236000D02*
D03*
D29*
X2450000Y1350000D02*
D03*
X2510000Y470000D02*
D03*
X200000Y90000D02*
D03*
X2300000Y1350000D02*
D03*
X2350000Y1610000D02*
D03*
X2110000Y1350000D02*
D03*
X2000000Y1710000D02*
D03*
X2347500Y1270395D02*
D03*
X695000Y460000D02*
D03*
X120000Y1910000D02*
D03*
X1160000Y1000000D02*
D03*
X1180000Y1150000D02*
D03*
X1200000Y1070000D02*
D03*
X1308397Y742403D02*
D03*
X1350000Y680000D02*
D03*
X1420000Y740000D02*
D03*
X920000Y1160000D02*
D03*
X960000Y410000D02*
D03*
X2017965Y1265132D02*
D03*
X820000Y772500D02*
D03*
X850000Y1490000D02*
D03*
X1689882Y972191D02*
D03*
X2128175Y1158501D02*
D03*
X1605053Y1074122D02*
D03*
X1724883Y1083207D02*
D03*
X1833416Y1081734D02*
D03*
X1937841Y1160842D02*
D03*
X1940477Y1046619D02*
D03*
X1911993Y971235D02*
D03*
X2060000Y1045000D02*
D03*
X2384267Y1160048D02*
D03*
X2347943Y1085459D02*
D03*
X2159996Y1049998D02*
D03*
X2349566Y976742D02*
D03*
X2100000Y350000D02*
D03*
X1724616Y610556D02*
D03*
X1905461Y606013D02*
D03*
X1460000Y110000D02*
D03*
X1200000Y230000D02*
D03*
X950000Y170000D02*
D03*
X1811065Y845001D02*
D03*
X1810000Y960000D02*
D03*
X1702160Y843906D02*
D03*
X2290000Y480000D02*
D03*
X2350000Y390000D02*
D03*
X2250000Y1510000D02*
D03*
X1229998Y1369997D02*
D03*
X1310000Y1370000D02*
D03*
X1170000Y1450000D02*
D03*
X2148934Y625000D02*
D03*
X1890000Y380000D02*
D03*
X1480000Y400000D02*
D03*
X2490000Y170000D02*
D03*
X1470000Y1520000D02*
D03*
X830000Y1890000D02*
D03*
X1970000Y170000D02*
D03*
X1710000Y230000D02*
D03*
X2220000Y110000D02*
D03*
X2470000Y270000D02*
D03*
X2140000Y850000D02*
D03*
D31*
X826000Y170000D02*
D03*
%TF.MD5,7944211ef1c3086f8f324b61667d2092*%
M02*
