%TF.GenerationSoftware,Altium Limited,Altium Designer,22.7.1 (60)*%
G04 Layer_Color=128*
%FSLAX45Y45*%
%MOMM*%
%TF.SameCoordinates,89C5C705-8D76-4DBF-8A4D-424F25D0343C*%
%TF.FilePolarity,Positive*%
%TF.FileFunction,Drillmap*%
%TF.Part,Single*%
G01*
G75*
%TA.AperFunction,NonConductor*%
%ADD688C,0.12700*%
D688*
X8073000Y2349500D02*
X8183000D01*
X8128000Y2294500D02*
Y2404500D01*
X8073000Y2095500D02*
X8183000D01*
X8128000Y2040500D02*
Y2150500D01*
X8073000Y1841500D02*
X8183000D01*
X8128000Y1786500D02*
Y1896500D01*
X8073000Y1587500D02*
X8183000D01*
X8128000Y1532500D02*
Y1642500D01*
X8073000Y1333500D02*
X8183000D01*
X8128000Y1278500D02*
Y1388500D01*
X8073000Y1079500D02*
X8183000D01*
X8128000Y1024500D02*
Y1134500D01*
X8073000Y825500D02*
X8183000D01*
X8128000Y770500D02*
Y880500D01*
X8327000Y2349500D02*
X8437000D01*
X8382000Y2294500D02*
Y2404500D01*
X8327000Y2095500D02*
X8437000D01*
X8382000Y2040500D02*
Y2150500D01*
X8327000Y1841500D02*
X8437000D01*
X8382000Y1786500D02*
Y1896500D01*
X8327000Y1587500D02*
X8437000D01*
X8382000Y1532500D02*
Y1642500D01*
X8327000Y1333500D02*
X8437000D01*
X8382000Y1278500D02*
Y1388500D01*
X8327000Y1079500D02*
X8437000D01*
X8382000Y1024500D02*
Y1134500D01*
X8327000Y825500D02*
X8437000D01*
X8382000Y770500D02*
Y880500D01*
X8073000Y571500D02*
X8183000D01*
X8128000Y516500D02*
Y626500D01*
X8073000Y317500D02*
X8183000D01*
X8128000Y262500D02*
Y372500D01*
X8327000Y571500D02*
X8437000D01*
X8382000Y516500D02*
Y626500D01*
X8327000Y317500D02*
X8437000D01*
X8382000Y262500D02*
Y372500D01*
X8073000Y5143500D02*
X8183000D01*
X8128000Y5088500D02*
Y5198500D01*
X8073000Y4889500D02*
X8183000D01*
X8128000Y4834500D02*
Y4944500D01*
X8073000Y4635500D02*
X8183000D01*
X8128000Y4580500D02*
Y4690500D01*
X8073000Y4381500D02*
X8183000D01*
X8128000Y4326500D02*
Y4436500D01*
X8073000Y4127500D02*
X8183000D01*
X8128000Y4072500D02*
Y4182500D01*
X8073000Y3873500D02*
X8183000D01*
X8128000Y3818500D02*
Y3928500D01*
X8073000Y3619500D02*
X8183000D01*
X8128000Y3564500D02*
Y3674500D01*
X8327000Y5143500D02*
X8437000D01*
X8382000Y5088500D02*
Y5198500D01*
X8327000Y4889500D02*
X8437000D01*
X8382000Y4834500D02*
Y4944500D01*
X8327000Y4635500D02*
X8437000D01*
X8382000Y4580500D02*
Y4690500D01*
X8327000Y4381500D02*
X8437000D01*
X8382000Y4326500D02*
Y4436500D01*
X8327000Y4127500D02*
X8437000D01*
X8382000Y4072500D02*
Y4182500D01*
X8327000Y3873500D02*
X8437000D01*
X8382000Y3818500D02*
Y3928500D01*
X8327000Y3619500D02*
X8437000D01*
X8382000Y3564500D02*
Y3674500D01*
X8073000Y3365500D02*
X8183000D01*
X8128000Y3310500D02*
Y3420500D01*
X8073000Y3111500D02*
X8183000D01*
X8128000Y3056500D02*
Y3166500D01*
X8327000Y3365500D02*
X8437000D01*
X8382000Y3310500D02*
Y3420500D01*
X8327000Y3111500D02*
X8437000D01*
X8382000Y3056500D02*
Y3166500D01*
X1977000Y190500D02*
X2087000D01*
X2032000Y135500D02*
Y245500D01*
X2231000Y190500D02*
X2341000D01*
X2286000Y135500D02*
Y245500D01*
X2485000Y190500D02*
X2595000D01*
X2540000Y135500D02*
Y245500D01*
X2739000Y190500D02*
X2849000D01*
X2794000Y135500D02*
Y245500D01*
X2993000Y190500D02*
X3103000D01*
X3048000Y135500D02*
Y245500D01*
X3247000Y190500D02*
X3357000D01*
X3302000Y135500D02*
Y245500D01*
X3501000Y190500D02*
X3611000D01*
X3556000Y135500D02*
Y245500D01*
X3755000Y190500D02*
X3865000D01*
X3810000Y135500D02*
Y245500D01*
X4009000Y190500D02*
X4119000D01*
X4064000Y135500D02*
Y245500D01*
X4263000Y190500D02*
X4373000D01*
X4318000Y135500D02*
Y245500D01*
X4517000Y190500D02*
X4627000D01*
X4572000Y135500D02*
Y245500D01*
X4771000Y190500D02*
X4881000D01*
X4826000Y135500D02*
Y245500D01*
X5025000Y190500D02*
X5135000D01*
X5080000Y135500D02*
Y245500D01*
X5279000Y190500D02*
X5389000D01*
X5334000Y135500D02*
Y245500D01*
X5533000Y190500D02*
X5643000D01*
X5588000Y135500D02*
Y245500D01*
X5787000Y190500D02*
X5897000D01*
X5842000Y135500D02*
Y245500D01*
X6041000Y190500D02*
X6151000D01*
X6096000Y135500D02*
Y245500D01*
X6295000Y190500D02*
X6405000D01*
X6350000Y135500D02*
Y245500D01*
X6549000Y190500D02*
X6659000D01*
X6604000Y135500D02*
Y245500D01*
X6803000Y190500D02*
X6913000D01*
X6858000Y135500D02*
Y245500D01*
X7057000Y190500D02*
X7167000D01*
X7112000Y135500D02*
Y245500D01*
X7311000Y190500D02*
X7421000D01*
X7366000Y135500D02*
Y245500D01*
X7565000Y190500D02*
X7675000D01*
X7620000Y135500D02*
Y245500D01*
X1977000Y444500D02*
X2087000D01*
X2032000Y389500D02*
Y499500D01*
X2231000Y444500D02*
X2341000D01*
X2286000Y389500D02*
Y499500D01*
X2485000Y444500D02*
X2595000D01*
X2540000Y389500D02*
Y499500D01*
X2739000Y444500D02*
X2849000D01*
X2794000Y389500D02*
Y499500D01*
X2993000Y444500D02*
X3103000D01*
X3048000Y389500D02*
Y499500D01*
X3247000Y444500D02*
X3357000D01*
X3302000Y389500D02*
Y499500D01*
X3501000Y444500D02*
X3611000D01*
X3556000Y389500D02*
Y499500D01*
X3755000Y444500D02*
X3865000D01*
X3810000Y389500D02*
Y499500D01*
X4009000Y444500D02*
X4119000D01*
X4064000Y389500D02*
Y499500D01*
X4263000Y444500D02*
X4373000D01*
X4318000Y389500D02*
Y499500D01*
X4517000Y444500D02*
X4627000D01*
X4572000Y389500D02*
Y499500D01*
X4771000Y444500D02*
X4881000D01*
X4826000Y389500D02*
Y499500D01*
X5025000Y444500D02*
X5135000D01*
X5080000Y389500D02*
Y499500D01*
X5279000Y444500D02*
X5389000D01*
X5334000Y389500D02*
Y499500D01*
X5533000Y444500D02*
X5643000D01*
X5588000Y389500D02*
Y499500D01*
X5787000Y444500D02*
X5897000D01*
X5842000Y389500D02*
Y499500D01*
X6041000Y444500D02*
X6151000D01*
X6096000Y389500D02*
Y499500D01*
X6295000Y444500D02*
X6405000D01*
X6350000Y389500D02*
Y499500D01*
X6549000Y444500D02*
X6659000D01*
X6604000Y389500D02*
Y499500D01*
X6803000Y444500D02*
X6913000D01*
X6858000Y389500D02*
Y499500D01*
X7057000Y444500D02*
X7167000D01*
X7112000Y389500D02*
Y499500D01*
X7311000Y444500D02*
X7421000D01*
X7366000Y389500D02*
Y499500D01*
X7565000Y444500D02*
X7675000D01*
X7620000Y389500D02*
Y499500D01*
X1977000Y5016500D02*
X2087000D01*
X2032000Y4961500D02*
Y5071500D01*
X2231000Y5016500D02*
X2341000D01*
X2286000Y4961500D02*
Y5071500D01*
X2485000Y5016500D02*
X2595000D01*
X2540000Y4961500D02*
Y5071500D01*
X2739000Y5016500D02*
X2849000D01*
X2794000Y4961500D02*
Y5071500D01*
X2993000Y5016500D02*
X3103000D01*
X3048000Y4961500D02*
Y5071500D01*
X3247000Y5016500D02*
X3357000D01*
X3302000Y4961500D02*
Y5071500D01*
X3501000Y5016500D02*
X3611000D01*
X3556000Y4961500D02*
Y5071500D01*
X3755000Y5016500D02*
X3865000D01*
X3810000Y4961500D02*
Y5071500D01*
X4009000Y5016500D02*
X4119000D01*
X4064000Y4961500D02*
Y5071500D01*
X4263000Y5016500D02*
X4373000D01*
X4318000Y4961500D02*
Y5071500D01*
X4517000Y5016500D02*
X4627000D01*
X4572000Y4961500D02*
Y5071500D01*
X4771000Y5016500D02*
X4881000D01*
X4826000Y4961500D02*
Y5071500D01*
X5025000Y5016500D02*
X5135000D01*
X5080000Y4961500D02*
Y5071500D01*
X5279000Y5016500D02*
X5389000D01*
X5334000Y4961500D02*
Y5071500D01*
X5533000Y5016500D02*
X5643000D01*
X5588000Y4961500D02*
Y5071500D01*
X5787000Y5016500D02*
X5897000D01*
X5842000Y4961500D02*
Y5071500D01*
X6041000Y5016500D02*
X6151000D01*
X6096000Y4961500D02*
Y5071500D01*
X6295000Y5016500D02*
X6405000D01*
X6350000Y4961500D02*
Y5071500D01*
X6549000Y5016500D02*
X6659000D01*
X6604000Y4961500D02*
Y5071500D01*
X6803000Y5016500D02*
X6913000D01*
X6858000Y4961500D02*
Y5071500D01*
X7057000Y5016500D02*
X7167000D01*
X7112000Y4961500D02*
Y5071500D01*
X7311000Y5016500D02*
X7421000D01*
X7366000Y4961500D02*
Y5071500D01*
X7565000Y5016500D02*
X7675000D01*
X7620000Y4961500D02*
Y5071500D01*
X1977000Y5270500D02*
X2087000D01*
X2032000Y5215500D02*
Y5325500D01*
X2231000Y5270500D02*
X2341000D01*
X2286000Y5215500D02*
Y5325500D01*
X2485000Y5270500D02*
X2595000D01*
X2540000Y5215500D02*
Y5325500D01*
X2739000Y5270500D02*
X2849000D01*
X2794000Y5215500D02*
Y5325500D01*
X2993000Y5270500D02*
X3103000D01*
X3048000Y5215500D02*
Y5325500D01*
X3247000Y5270500D02*
X3357000D01*
X3302000Y5215500D02*
Y5325500D01*
X3501000Y5270500D02*
X3611000D01*
X3556000Y5215500D02*
Y5325500D01*
X3755000Y5270500D02*
X3865000D01*
X3810000Y5215500D02*
Y5325500D01*
X4009000Y5270500D02*
X4119000D01*
X4064000Y5215500D02*
Y5325500D01*
X4263000Y5270500D02*
X4373000D01*
X4318000Y5215500D02*
Y5325500D01*
X4517000Y5270500D02*
X4627000D01*
X4572000Y5215500D02*
Y5325500D01*
X4771000Y5270500D02*
X4881000D01*
X4826000Y5215500D02*
Y5325500D01*
X5025000Y5270500D02*
X5135000D01*
X5080000Y5215500D02*
Y5325500D01*
X5279000Y5270500D02*
X5389000D01*
X5334000Y5215500D02*
Y5325500D01*
X5533000Y5270500D02*
X5643000D01*
X5588000Y5215500D02*
Y5325500D01*
X5787000Y5270500D02*
X5897000D01*
X5842000Y5215500D02*
Y5325500D01*
X6041000Y5270500D02*
X6151000D01*
X6096000Y5215500D02*
Y5325500D01*
X6295000Y5270500D02*
X6405000D01*
X6350000Y5215500D02*
Y5325500D01*
X6549000Y5270500D02*
X6659000D01*
X6604000Y5215500D02*
Y5325500D01*
X6803000Y5270500D02*
X6913000D01*
X6858000Y5215500D02*
Y5325500D01*
X7057000Y5270500D02*
X7167000D01*
X7112000Y5215500D02*
Y5325500D01*
X7311000Y5270500D02*
X7421000D01*
X7366000Y5215500D02*
Y5325500D01*
X7565000Y5270500D02*
X7675000D01*
X7620000Y5215500D02*
Y5325500D01*
X2231000Y4512400D02*
X2341000D01*
X2286000Y4457400D02*
Y4567400D01*
X2231000Y4258400D02*
X2341000D01*
X2286000Y4203400D02*
Y4313400D01*
X1977000Y4512400D02*
X2087000D01*
X2032000Y4457400D02*
Y4567400D01*
X1977000Y4258400D02*
X2087000D01*
X2032000Y4203400D02*
Y4313400D01*
X1619500Y978000D02*
X1724500D01*
X1672000Y925500D02*
Y1030500D01*
X1239500Y978000D02*
X1344500D01*
X1292000Y925500D02*
Y1030500D01*
X1619500Y1842000D02*
X1724500D01*
X1672000Y1789500D02*
Y1894500D01*
X1239500Y1842000D02*
X1344500D01*
X1292000Y1789500D02*
Y1894500D01*
X1300500Y5143500D02*
X1620500D01*
X1460500Y4983500D02*
Y5303500D01*
X1420000Y695000D02*
X1540000D01*
X1480000Y635000D02*
Y755000D01*
X1420000Y345000D02*
X1540000D01*
X1480000Y285000D02*
Y405000D01*
X1288000Y5283500D02*
X1313000D01*
X1300500Y5271000D02*
Y5296000D01*
X1288000Y5003500D02*
X1313000D01*
X1300500Y4991000D02*
Y5016000D01*
X1608000Y5003500D02*
X1633000D01*
X1620500Y4991000D02*
Y5016000D01*
X1608000Y5283500D02*
X1633000D01*
X1620500Y5271000D02*
Y5296000D01*
X4670247Y1503402D02*
X4695247D01*
X4682747Y1490903D02*
Y1515902D01*
X7366277Y2898539D02*
X7391277D01*
X7378777Y2886039D02*
Y2911039D01*
X7367569Y1441414D02*
X7392569D01*
X7380069Y1428915D02*
Y1453914D01*
X7364672Y1951459D02*
X7389672D01*
X7377172Y1938960D02*
Y1963959D01*
X7411890Y1885414D02*
X7436890D01*
X7424390Y1872914D02*
Y1897913D01*
X6060313Y4562155D02*
X6085313D01*
X6072813Y4549655D02*
Y4574655D01*
X6129904Y4518397D02*
X6154903D01*
X6142404Y4505898D02*
Y4530897D01*
X6037500Y4680000D02*
X6062500D01*
X6050000Y4667500D02*
Y4692500D01*
X6577500Y4757500D02*
X6602500D01*
X6590000Y4745000D02*
Y4770000D01*
X6217500Y4150000D02*
X6242500D01*
X6230000Y4137500D02*
Y4162500D01*
X5994013Y1867367D02*
X6019013D01*
X6006513Y1854867D02*
Y1879866D01*
X5861482Y2055714D02*
X5886482D01*
X5873982Y2043214D02*
Y2068214D01*
X6194699Y1564783D02*
X6219699D01*
X6207199Y1552283D02*
Y1577283D01*
X6647500Y1200000D02*
X6672500D01*
X6660000Y1187500D02*
Y1212500D01*
X6647500Y1340000D02*
X6672500D01*
X6660000Y1327500D02*
Y1352500D01*
X6007024Y2752748D02*
X6032023D01*
X6019524Y2740248D02*
Y2765248D01*
X6005625Y3563595D02*
X6030625D01*
X6018125Y3551095D02*
Y3576095D01*
X5216757Y3621307D02*
X5241757D01*
X5229257Y3608807D02*
Y3633807D01*
X5690823Y1959998D02*
X5715822D01*
X5703323Y1947498D02*
Y1972498D01*
X6708882Y3978618D02*
X6733882D01*
X6721382Y3966118D02*
Y3991117D01*
X6607500Y4130000D02*
X6632500D01*
X6620000Y4117500D02*
Y4142500D01*
X6563980Y3867338D02*
X6588980D01*
X6576480Y3854838D02*
Y3879838D01*
X6571988Y3564515D02*
X6596988D01*
X6584488Y3552015D02*
Y3577015D01*
X6887500Y1220000D02*
X6912500D01*
X6900000Y1207500D02*
Y1232500D01*
X7100073Y1162574D02*
X7125073D01*
X7112573Y1150074D02*
Y1175074D01*
X7631469Y1449224D02*
X7656468D01*
X7643968Y1436724D02*
Y1461724D01*
X7613705Y2047500D02*
X7638705D01*
X7626205Y2035000D02*
Y2060000D01*
X7616393Y2185388D02*
X7641393D01*
X7628893Y2172888D02*
Y2197887D01*
X7650779Y2583984D02*
X7675778D01*
X7663279Y2571484D02*
Y2596484D01*
X7661036Y2370298D02*
X7686036D01*
X7673536Y2357798D02*
Y2382798D01*
X7631469Y2439223D02*
X7656468D01*
X7643968Y2426724D02*
Y2451723D01*
X7647500Y3020000D02*
X7672500D01*
X7660000Y3007500D02*
Y3032500D01*
X7472612Y1656801D02*
X7497612D01*
X7485112Y1644302D02*
Y1669301D01*
X7377909Y1772427D02*
X7402909D01*
X7390409Y1759927D02*
Y1784927D01*
X7412623Y1705944D02*
X7437622D01*
X7425123Y1693444D02*
Y1718444D01*
X6747500Y1200000D02*
X6772500D01*
X6760000Y1187500D02*
Y1212500D01*
X6178890Y1098610D02*
X6203890D01*
X6191390Y1086110D02*
Y1111110D01*
X4228081Y3471270D02*
X4253081D01*
X4240581Y3458771D02*
Y3483770D01*
X4165318Y3512327D02*
X4190317D01*
X4177817Y3499827D02*
Y3524827D01*
X4237500Y3390000D02*
X4262500D01*
X4250000Y3377500D02*
Y3402500D01*
X6580629Y3275707D02*
X6605629D01*
X6593129Y3263207D02*
Y3288207D01*
X4047500Y4730000D02*
X4072500D01*
X4060000Y4717500D02*
Y4742500D01*
X4037500Y4650000D02*
X4062500D01*
X4050000Y4637500D02*
Y4662500D01*
X3857500Y4610000D02*
X3882500D01*
X3870000Y4597500D02*
Y4622500D01*
X3777500Y4600000D02*
X3802500D01*
X3790000Y4587500D02*
Y4612500D01*
X4637500Y910000D02*
X4662500D01*
X4650000Y897500D02*
Y922500D01*
X4687500Y850000D02*
X4712500D01*
X4700000Y837500D02*
Y862500D01*
X4869730Y950913D02*
X4894730D01*
X4882230Y938413D02*
Y963413D01*
X4713406Y3732344D02*
X4738405D01*
X4725905Y3719844D02*
Y3744844D01*
X4776195Y3691326D02*
X4801195D01*
X4788695Y3678826D02*
Y3703826D01*
X3567500Y3360000D02*
X3592500D01*
X3580000Y3347500D02*
Y3372500D01*
X3627500Y4400000D02*
X3652500D01*
X3640000Y4387500D02*
Y4412500D01*
X8437500Y2900000D02*
X8462500D01*
X8450000Y2887500D02*
Y2912500D01*
X4887500Y1970000D02*
X4912500D01*
X4900000Y1957500D02*
Y1982500D01*
X2967500Y3860000D02*
X2992500D01*
X2980000Y3847500D02*
Y3872500D01*
X2627500Y4532833D02*
X2652500D01*
X2640000Y4520333D02*
Y4545333D01*
X6253122Y4553521D02*
X6278122D01*
X6265622Y4541022D02*
Y4566021D01*
X4387500Y3410000D02*
X4412500D01*
X4400000Y3397500D02*
Y3422500D01*
X4457647Y3335306D02*
X4482646D01*
X4470147Y3322806D02*
Y3347806D01*
X7147237Y4723983D02*
X7172237D01*
X7159737Y4711484D02*
Y4736483D01*
X7003027Y4754889D02*
X7028027D01*
X7015527Y4742389D02*
Y4767389D01*
X7036636Y4466648D02*
X7061635D01*
X7049136Y4454148D02*
Y4479148D01*
X7028626Y4389700D02*
X7053625D01*
X7041126Y4377201D02*
Y4402200D01*
X7527500Y4730000D02*
X7552500D01*
X7540000Y4717500D02*
Y4742500D01*
X7690000Y4830000D02*
X7715000D01*
X7702500Y4817500D02*
Y4842500D01*
X3527500Y1880000D02*
X3552500D01*
X3540000Y1867500D02*
Y1892500D01*
X5457500Y1620000D02*
X5482500D01*
X5470000Y1607500D02*
Y1632500D01*
X7660330Y1890000D02*
X7685330D01*
X7672830Y1877500D02*
Y1902500D01*
X7723277Y3790405D02*
X7748277D01*
X7735777Y3777905D02*
Y3802905D01*
X5307500Y2250000D02*
X5332500D01*
X5320000Y2237500D02*
Y2262500D01*
X4997500Y2450000D02*
X5022500D01*
X5010000Y2437500D02*
Y2462500D01*
X3457500Y3739832D02*
X3482500D01*
X3470000Y3727333D02*
Y3752332D01*
X2455299Y4206829D02*
X2480298D01*
X2467798Y4194329D02*
Y4219328D01*
X6949136Y2680880D02*
X6974135D01*
X6961636Y2668380D02*
Y2693380D01*
X6865125Y2338752D02*
X6890125D01*
X6877625Y2326252D02*
Y2351252D01*
X6950189Y2210497D02*
X6975189D01*
X6962689Y2197997D02*
Y2222997D01*
X6177500Y2690000D02*
X6202500D01*
X6190000Y2677500D02*
Y2702500D01*
X3646360Y3817500D02*
X3671360D01*
X3658860Y3805000D02*
Y3830000D01*
X6087500Y830000D02*
X6112500D01*
X6100000Y817500D02*
Y842500D01*
X6074612Y756116D02*
X6099612D01*
X6087112Y743616D02*
Y768616D01*
X5977500Y912500D02*
X6002500D01*
X5990000Y900000D02*
Y925000D01*
X6307500Y820000D02*
X6332500D01*
X6320000Y807500D02*
Y832500D01*
X6157500Y800000D02*
X6182500D01*
X6170000Y787500D02*
Y812500D01*
X6357500Y1060000D02*
X6382500D01*
X6370000Y1047500D02*
Y1072500D01*
X6422885Y647909D02*
X6447885D01*
X6435385Y635409D02*
Y660409D01*
X6207500Y640000D02*
X6232500D01*
X6220000Y627500D02*
Y652500D01*
X5027500Y2840000D02*
X5052500D01*
X5040000Y2827500D02*
Y2852500D01*
X4407500Y2760000D02*
X4432500D01*
X4420000Y2747500D02*
Y2772500D01*
X4625754Y3580186D02*
X4650753D01*
X4638253Y3567686D02*
Y3592686D01*
X6678250Y3072093D02*
X6703249D01*
X6690750Y3059593D02*
Y3084593D01*
X2495730Y4322875D02*
X2520730D01*
X2508230Y4310375D02*
Y4335375D01*
X6786617Y4199151D02*
X6811617D01*
X6799117Y4186651D02*
Y4211650D01*
X5982500Y1111661D02*
X6007500D01*
X5995000Y1099162D02*
Y1124161D01*
X6056287Y1090556D02*
X6081287D01*
X6068787Y1078056D02*
Y1103056D01*
X5737500Y1670000D02*
X5762500D01*
X5750000Y1657500D02*
Y1682500D01*
X5917500Y1850000D02*
X5942500D01*
X5930000Y1837500D02*
Y1862500D01*
X5735173Y1541987D02*
X5760172D01*
X5747673Y1529487D02*
Y1554487D01*
X5767500Y2486550D02*
X5792500D01*
X5780000Y2474050D02*
Y2499050D01*
X6088932Y2044179D02*
X6113931D01*
X6101432Y2031679D02*
Y2056679D01*
X4487500Y2320000D02*
X4512500D01*
X4500000Y2307500D02*
Y2332500D01*
X4903075Y1699320D02*
X4928075D01*
X4915575Y1686821D02*
Y1711820D01*
X1873252Y1064249D02*
X1898251D01*
X1885752Y1051749D02*
Y1076748D01*
X1897500Y1150000D02*
X1922500D01*
X1910000Y1137500D02*
Y1162500D01*
X5917500Y3790000D02*
X5942500D01*
X5930000Y3777500D02*
Y3802500D01*
X5687500Y3720000D02*
X5712500D01*
X5700000Y3707500D02*
Y3732500D01*
X5004932Y3989517D02*
X5029932D01*
X5017432Y3977017D02*
Y4002016D01*
X7735000Y1508948D02*
X7760000D01*
X7747500Y1496448D02*
Y1521448D01*
X7616393Y1705388D02*
X7641393D01*
X7628893Y1692888D02*
Y1717888D01*
X1835387Y1685174D02*
X1860386D01*
X1847887Y1672674D02*
Y1697674D01*
X3497107Y1573840D02*
X3522106D01*
X3509606Y1561340D02*
Y1586340D01*
X4636505Y1010000D02*
X4661505D01*
X4649005Y997500D02*
Y1022500D01*
X7411900Y4699156D02*
X7436900D01*
X7424400Y4686657D02*
Y4711656D01*
X7315819Y4846500D02*
X7340819D01*
X7328319Y4834000D02*
Y4859000D01*
X7327500Y4700000D02*
X7352500D01*
X7340000Y4687500D02*
Y4712500D01*
X5810116Y3070065D02*
X5835116D01*
X5822616Y3057565D02*
Y3082565D01*
X6029672Y1383307D02*
X6054672D01*
X6042172Y1370807D02*
Y1395807D01*
X5969485Y1429921D02*
X5994485D01*
X5981985Y1417421D02*
Y1442421D01*
X5989674Y1673304D02*
X6014674D01*
X6002174Y1660804D02*
Y1685804D01*
X6427500Y1520000D02*
X6452500D01*
X6440000Y1507500D02*
Y1532500D01*
X6442005Y1671541D02*
X6467005D01*
X6454505Y1659042D02*
Y1684041D01*
X6505480Y1814520D02*
X6530479D01*
X6517980Y1802021D02*
Y1827020D01*
X5478677Y1038661D02*
X5503677D01*
X5491177Y1026161D02*
Y1051161D01*
X5207500Y1030000D02*
X5232500D01*
X5220000Y1017500D02*
Y1042500D01*
X5737500Y1070000D02*
X5762500D01*
X5750000Y1057500D02*
Y1082500D01*
X2427500Y1610000D02*
X2452500D01*
X2440000Y1597500D02*
Y1622500D01*
X2167500Y2310000D02*
X2192500D01*
X2180000Y2297500D02*
Y2322500D01*
X7406179Y2365207D02*
X7431178D01*
X7418679Y2352707D02*
Y2377706D01*
X7355941Y2420895D02*
X7380941D01*
X7368441Y2408395D02*
Y2433395D01*
X6315443Y4608869D02*
X6340443D01*
X6327943Y4596369D02*
Y4621368D01*
X7047500Y3420000D02*
X7072500D01*
X7060000Y3407500D02*
Y3432500D01*
X7017500Y3510000D02*
X7042500D01*
X7030000Y3497500D02*
Y3522500D01*
X6877500Y3650000D02*
X6902500D01*
X6890000Y3637500D02*
Y3662500D01*
X7493234Y3328738D02*
X7518234D01*
X7505734Y3316238D02*
Y3341238D01*
X6713794Y3740410D02*
X6738793D01*
X6726293Y3727911D02*
Y3752910D01*
X7437500Y3910000D02*
X7462500D01*
X7450000Y3897500D02*
Y3922500D01*
X7447543Y3830000D02*
X7472543D01*
X7460043Y3817500D02*
Y3842500D01*
X7447500Y3750000D02*
X7472500D01*
X7460000Y3737500D02*
Y3762500D01*
X7301583Y3623987D02*
X7326582D01*
X7314082Y3611487D02*
Y3636487D01*
X7055666Y3969168D02*
X7080666D01*
X7068166Y3956668D02*
Y3981668D01*
X7207500Y3720000D02*
X7232500D01*
X7220000Y3707500D02*
Y3732500D01*
X7187500Y3610000D02*
X7212500D01*
X7200000Y3597500D02*
Y3622500D01*
X7406258Y3994981D02*
X7431258D01*
X7418758Y3982481D02*
Y4007481D01*
X7857500Y4080000D02*
X7882500D01*
X7870000Y4067500D02*
Y4092500D01*
X8512322Y5021488D02*
X8537322D01*
X8524822Y5008988D02*
Y5033988D01*
X7127500Y3690000D02*
X7152500D01*
X7140000Y3677500D02*
Y3702500D01*
X8455129Y2543086D02*
X8480129D01*
X8467629Y2530586D02*
Y2555586D01*
X7547500Y3390000D02*
X7572500D01*
X7560000Y3377500D02*
Y3402500D01*
X8047500Y2920000D02*
X8072500D01*
X8060000Y2907500D02*
Y2932500D01*
X8288541Y2657970D02*
X8313540D01*
X8301041Y2645470D02*
Y2670470D01*
X7487500Y3440000D02*
X7512500D01*
X7500000Y3427500D02*
Y3452500D01*
X7631468Y2909224D02*
X7656468D01*
X7643968Y2896724D02*
Y2921723D01*
X7661036Y2840298D02*
X7686035D01*
X7673536Y2827798D02*
Y2852798D01*
X8179320Y2549928D02*
X8204320D01*
X8191820Y2537428D02*
Y2562428D01*
X8026842Y2519342D02*
X8051841D01*
X8039342Y2506842D02*
Y2531842D01*
X8529936Y2581621D02*
X8554936D01*
X8542436Y2569122D02*
Y2594121D01*
X6877500Y3280000D02*
X6902500D01*
X6890000Y3267500D02*
Y3292500D01*
X7427500Y3280000D02*
X7452500D01*
X7440000Y3267500D02*
Y3292500D01*
X6831192Y3732214D02*
X6856192D01*
X6843692Y3719714D02*
Y3744714D01*
X7117500Y4030000D02*
X7142500D01*
X7130000Y4017500D02*
Y4042500D01*
X7177500Y4080000D02*
X7202500D01*
X7190000Y4067500D02*
Y4092500D01*
X7055933Y3750256D02*
X7080932D01*
X7068432Y3737756D02*
Y3762756D01*
X6267500Y3410000D02*
X6292500D01*
X6280000Y3397500D02*
Y3422500D01*
X6147500Y3480000D02*
X6172500D01*
X6160000Y3467500D02*
Y3492500D01*
X6726105Y3663204D02*
X6751105D01*
X6738605Y3650704D02*
Y3675704D01*
X6807500Y3340000D02*
X6832500D01*
X6820000Y3327500D02*
Y3352500D01*
X5660000Y3935000D02*
X5685000D01*
X5672500Y3922500D02*
Y3947500D01*
X6777500Y3190000D02*
X6802500D01*
X6790000Y3177500D02*
Y3202500D01*
X7678819Y4259599D02*
X7703818D01*
X7691319Y4247099D02*
Y4272099D01*
X7412622Y2655943D02*
X7437622D01*
X7425122Y2643444D02*
Y2668443D01*
X7616393Y2655388D02*
X7641393D01*
X7628893Y2642888D02*
Y2667887D01*
X8198073Y2225834D02*
X8223073D01*
X8210573Y2213334D02*
Y2238334D01*
X8247500Y1940000D02*
X8272500D01*
X8260000Y1927500D02*
Y1952500D01*
X5982500Y1233190D02*
X6007500D01*
X5995000Y1220690D02*
Y1245690D01*
X5737500Y1230000D02*
X5762500D01*
X5750000Y1217500D02*
Y1242500D01*
X6224146Y746504D02*
X6249145D01*
X6236645Y734004D02*
Y759004D01*
X5624220Y2335000D02*
X5649220D01*
X5636720Y2322500D02*
Y2347500D01*
X5417500Y2450000D02*
X5442500D01*
X5430000Y2437500D02*
Y2462500D01*
X5527500Y1850000D02*
X5552500D01*
X5540000Y1837500D02*
Y1862500D01*
X5607500Y1850000D02*
X5632500D01*
X5620000Y1837500D02*
Y1862500D01*
X5435000Y3601930D02*
X5460000D01*
X5447500Y3589430D02*
Y3614429D01*
X5435000Y3206821D02*
X5460000D01*
X5447500Y3194321D02*
Y3219321D01*
X3997502Y1070000D02*
X4022502D01*
X4010002Y1057501D02*
Y1082500D01*
X6817882Y2280300D02*
X6842882D01*
X6830382Y2267800D02*
Y2292800D01*
X6161516Y1307610D02*
X6186515D01*
X6174016Y1295110D02*
Y1320110D01*
X6627500Y2100000D02*
X6652500D01*
X6640000Y2087500D02*
Y2112500D01*
X6887500Y2029926D02*
X6912499D01*
X6899999Y2017426D02*
Y2042426D01*
X6857500Y1950000D02*
X6882500D01*
X6870000Y1937500D02*
Y1962500D01*
X6193705Y1780278D02*
X6218705D01*
X6206205Y1767779D02*
Y1792778D01*
X6197500Y2040000D02*
X6222500D01*
X6210000Y2027500D02*
Y2052500D01*
X6587684Y990000D02*
X6612684D01*
X6600184Y977500D02*
Y1002500D01*
X6570000Y4400000D02*
X6595000D01*
X6582500Y4387500D02*
Y4412500D01*
X6570000Y4210000D02*
X6595000D01*
X6582500Y4197500D02*
Y4222500D01*
X6570000Y4480000D02*
X6595000D01*
X6582500Y4467500D02*
Y4492500D01*
X5857500Y4610000D02*
X5882500D01*
X5870000Y4597500D02*
Y4622500D01*
X6137500Y4610000D02*
X6162500D01*
X6150000Y4597500D02*
Y4622500D01*
X6707500Y1760000D02*
X6732500D01*
X6720000Y1747500D02*
Y1772500D01*
X5980000Y2040000D02*
X6005000D01*
X5992500Y2027500D02*
Y2052500D01*
X5737500Y1330000D02*
X5762500D01*
X5750000Y1317500D02*
Y1342500D01*
X5647500Y1500000D02*
X5672500D01*
X5660000Y1487500D02*
Y1512500D01*
X6877500Y2520500D02*
X6902499D01*
X6889999Y2508000D02*
Y2533000D01*
X7237500Y3060000D02*
X7262500D01*
X7250000Y3047500D02*
Y3072500D01*
X6597500Y4330000D02*
X6622500D01*
X6610000Y4317500D02*
Y4342500D01*
X6857500Y1860000D02*
X6882500D01*
X6870000Y1847500D02*
Y1872500D01*
X7547500Y4300000D02*
X7572500D01*
X7560000Y4287500D02*
Y4312500D01*
X6757500Y2810000D02*
X6782500D01*
X6770000Y2797500D02*
Y2822500D01*
X7327500Y4180000D02*
X7352500D01*
X7340000Y4167500D02*
Y4192500D01*
X7629090Y2259305D02*
X7654090D01*
X7641590Y2246805D02*
Y2271805D01*
X6907500Y1590000D02*
X6932500D01*
X6920000Y1577500D02*
Y1602500D01*
X7077500Y920000D02*
X7102500D01*
X7090000Y907500D02*
Y932500D01*
X6607500Y820000D02*
X6632500D01*
X6620000Y807500D02*
Y832500D01*
X8247500Y4230000D02*
X8272500D01*
X8260000Y4217500D02*
Y4242500D01*
X5987500Y2570002D02*
X6012500D01*
X6000000Y2557503D02*
Y2582502D01*
X6215000Y2974850D02*
X6240000D01*
X6227500Y2962350D02*
Y2987350D01*
X4857500Y850000D02*
X4882500D01*
X4870000Y837500D02*
Y862500D01*
X6832499Y4605000D02*
X6857499D01*
X6844999Y4592500D02*
Y4617500D01*
X5957500Y370000D02*
X5982500D01*
X5970000Y357500D02*
Y382500D01*
X5017500Y850000D02*
X5042500D01*
X5030000Y837500D02*
Y862500D01*
X5545996Y1379465D02*
X5570995D01*
X5558495Y1366965D02*
Y1391964D01*
X6947500Y4200000D02*
X6972500D01*
X6960000Y4187500D02*
Y4212500D01*
X7402500Y870298D02*
X7427500D01*
X7415000Y857798D02*
Y882798D01*
X7411890Y1375413D02*
X7436890D01*
X7424390Y1362913D02*
Y1387913D01*
X6874467Y983033D02*
X6899467D01*
X6886967Y970533D02*
Y995532D01*
X6927500Y930000D02*
X6952500D01*
X6940000Y917500D02*
Y942500D01*
X6927500Y760000D02*
X6952500D01*
X6940000Y747500D02*
Y772500D01*
X7405377Y692123D02*
X7430377D01*
X7417877Y679623D02*
Y704623D01*
X7359090Y759305D02*
X7384090D01*
X7371590Y746805D02*
Y771805D01*
X7877500Y670000D02*
X7902500D01*
X7890000Y657500D02*
Y682500D01*
X7819090Y719305D02*
X7844090D01*
X7831590Y706805D02*
Y731805D01*
X7817500Y890000D02*
X7842500D01*
X7830000Y877500D02*
Y902500D01*
X7877500Y830298D02*
X7902500D01*
X7890000Y817798D02*
Y842797D01*
X7357357Y930190D02*
X7382357D01*
X7369857Y917690D02*
Y942690D01*
X2857500Y3080000D02*
X2882500D01*
X2870000Y3067500D02*
Y3092500D01*
X2517500Y2800000D02*
X2542500D01*
X2530000Y2787500D02*
Y2812500D01*
X3018817Y3150000D02*
X3043817D01*
X3031317Y3137500D02*
Y3162500D01*
X3487500Y3270000D02*
X3512500D01*
X3500000Y3257500D02*
Y3282500D01*
X4657500Y1160000D02*
X4682500D01*
X4670000Y1147500D02*
Y1172500D01*
X2937500Y3150000D02*
X2962500D01*
X2950000Y3137500D02*
Y3162500D01*
X3318158Y2930659D02*
X3343158D01*
X3330658Y2918159D02*
Y2943159D01*
X4237500Y2740000D02*
X4262500D01*
X4250000Y2727500D02*
Y2752500D01*
X4647500Y2660000D02*
X4672500D01*
X4660000Y2647500D02*
Y2672500D01*
X5377500Y2840000D02*
X5402500D01*
X5390000Y2827500D02*
Y2852500D01*
X5979585Y3221698D02*
X6004584D01*
X5992085Y3209199D02*
Y3234198D01*
X2296192Y2793662D02*
X2321191D01*
X2308692Y2781162D02*
Y2806162D01*
X2397500Y2670000D02*
X2422500D01*
X2410000Y2657500D02*
Y2682500D01*
X2387500Y2430000D02*
X2412500D01*
X2400000Y2417500D02*
Y2442500D01*
X3527500Y790000D02*
X3552500D01*
X3540000Y777500D02*
Y802500D01*
X3457500Y870000D02*
X3482500D01*
X3470000Y857500D02*
Y882500D01*
X6661890Y925413D02*
X6686890D01*
X6674390Y912913D02*
Y937913D01*
X6879090Y819305D02*
X6904090D01*
X6891590Y806805D02*
Y831805D01*
X7142623Y685944D02*
X7167622D01*
X7155123Y673444D02*
Y698443D01*
X7602623Y645943D02*
X7627623D01*
X7615123Y633443D02*
Y658443D01*
X6867500Y1380000D02*
X6892499D01*
X6879999Y1367500D02*
Y1392500D01*
X6807500Y1440000D02*
X6832499D01*
X6820000Y1427500D02*
Y1452500D01*
X6757500Y2480000D02*
X6782500D01*
X6770000Y2467500D02*
Y2492500D01*
X7105663Y1582361D02*
X7130663D01*
X7118163Y1569861D02*
Y1594861D01*
X7100073Y2087426D02*
X7125073D01*
X7112573Y2074927D02*
Y2099926D01*
X7105663Y2572361D02*
X7130663D01*
X7118163Y2559861D02*
Y2584860D01*
X6907374Y3043824D02*
X6932373D01*
X6919874Y3031324D02*
Y3056324D01*
X7107909Y752426D02*
X7132909D01*
X7120409Y739926D02*
Y764926D01*
X7141890Y865413D02*
X7166890D01*
X7154390Y852913D02*
Y877913D01*
X6662623Y745943D02*
X6687622D01*
X6675123Y733443D02*
Y758443D01*
X7567909Y712426D02*
X7592909D01*
X7580409Y699926D02*
Y724926D01*
X7545941Y880895D02*
X7570941D01*
X7558441Y868395D02*
Y893394D01*
X7601891Y825413D02*
X7626890D01*
X7614390Y812913D02*
Y837912D01*
X7629090Y2729305D02*
X7654089D01*
X7641589Y2716805D02*
Y2741805D01*
X7377909Y2722426D02*
X7402909D01*
X7390409Y2709926D02*
Y2734926D01*
X7411890Y2835413D02*
X7436890D01*
X7424390Y2822913D02*
Y2847913D01*
X7241233Y2830000D02*
X7266233D01*
X7253733Y2817500D02*
Y2842500D01*
X7057499Y2680001D02*
X7082499D01*
X7069999Y2667501D02*
Y2692501D01*
X6817882Y2750300D02*
X6842882D01*
X6830382Y2737800D02*
Y2762800D01*
X6865125Y2808752D02*
X6890125D01*
X6877625Y2796252D02*
Y2821252D01*
X7057499Y2210001D02*
X7082499D01*
X7069999Y2197501D02*
Y2222501D01*
X7377909Y2252426D02*
X7402909D01*
X7390409Y2239926D02*
Y2264926D01*
X7412623Y2185943D02*
X7437622D01*
X7425123Y2173443D02*
Y2198443D01*
X7241233Y2360000D02*
X7266233D01*
X7253733Y2347500D02*
Y2372500D01*
X7629090Y1779306D02*
X7654090D01*
X7641590Y1766806D02*
Y1791806D01*
X7631469Y1959224D02*
X7656468D01*
X7643968Y1946724D02*
Y1971724D01*
X7616393Y1195388D02*
X7641393D01*
X7628893Y1182888D02*
Y1207888D01*
X7629090Y1269305D02*
X7654090D01*
X7641590Y1256805D02*
Y1281805D01*
X7661036Y1380298D02*
X7686036D01*
X7673536Y1367798D02*
Y1392798D01*
X6887500Y1730000D02*
X6912500D01*
X6900000Y1717501D02*
Y1742500D01*
X7241233Y1880001D02*
X7266233D01*
X7253733Y1867501D02*
Y1892500D01*
X7241233Y1370000D02*
X7266233D01*
X7253733Y1357500D02*
Y1382500D01*
X7377909Y1262426D02*
X7402909D01*
X7390409Y1249926D02*
Y1274926D01*
X7412623Y1195944D02*
X7437622D01*
X7425123Y1183444D02*
Y1208443D01*
X5727500Y850000D02*
X5752500D01*
X5740000Y837500D02*
Y862500D01*
X5103760Y2841998D02*
X5128759D01*
X5116260Y2829499D02*
Y2854498D01*
X5152500Y2450000D02*
X5177500D01*
X5165000Y2437500D02*
Y2462500D01*
X4698158Y650658D02*
X4723158D01*
X4710658Y638158D02*
Y663158D01*
X3699676Y646743D02*
X3724676D01*
X3712176Y634243D02*
Y659243D01*
X4127500Y642500D02*
X4152500D01*
X4140000Y630000D02*
Y655000D01*
X4117500Y780000D02*
X4142500D01*
X4130000Y767500D02*
Y792500D01*
X3847500Y780000D02*
X3872500D01*
X3860000Y767500D02*
Y792500D01*
X4037500Y920000D02*
X4062500D01*
X4050000Y907500D02*
Y932500D01*
X2547500Y2100000D02*
X2572500D01*
X2560000Y2087500D02*
Y2112500D01*
X3087500Y4050000D02*
X3112500D01*
X3100000Y4037500D02*
Y4062500D01*
X5061217Y3051151D02*
X5086217D01*
X5073717Y3038651D02*
Y3063651D01*
X5037500Y2980000D02*
X5062500D01*
X5050000Y2967500D02*
Y2992500D01*
X5017500Y3120000D02*
X5042500D01*
X5030000Y3107500D02*
Y3132500D01*
X4777500Y3290000D02*
X4802500D01*
X4790000Y3277500D02*
Y3302500D01*
X3597500Y2530000D02*
X3622500D01*
X3610000Y2517500D02*
Y2542500D01*
X3877500Y2450000D02*
X3902500D01*
X3890000Y2437500D02*
Y2462500D01*
X4007500Y2450000D02*
X4032500D01*
X4020000Y2437500D02*
Y2462500D01*
X4217500Y2530000D02*
X4242500D01*
X4230000Y2517500D02*
Y2542500D01*
X4297500Y2309998D02*
X4322500D01*
X4310000Y2297498D02*
Y2322498D01*
X4597500Y3020000D02*
X4622500D01*
X4610000Y3007500D02*
Y3032500D01*
X4417500Y1300000D02*
X4442500D01*
X4430000Y1287500D02*
Y1312500D01*
X4239247Y2897500D02*
X4264246D01*
X4251747Y2885000D02*
Y2910000D01*
X6121619Y2970000D02*
X6146619D01*
X6134119Y2957500D02*
Y2982500D01*
X5387500Y3790000D02*
X5412500D01*
X5400000Y3777500D02*
Y3802500D01*
X5283538Y3910717D02*
X5308538D01*
X5296038Y3898218D02*
Y3923217D01*
X4867500Y4230000D02*
X4892500D01*
X4880000Y4217500D02*
Y4242500D01*
X5637502Y4609998D02*
X5662501D01*
X5650001Y4597499D02*
Y4622498D01*
X4437500Y4370000D02*
X4462500D01*
X4450000Y4357500D02*
Y4382500D01*
X4642912Y4350000D02*
X4667912D01*
X4655412Y4337500D02*
Y4362500D01*
X4707500Y3650000D02*
X4732500D01*
X4720000Y3637500D02*
Y3662500D01*
X4797500Y3490000D02*
X4822500D01*
X4810000Y3477500D02*
Y3502500D01*
X4672614Y3064220D02*
X4697614D01*
X4685114Y3051720D02*
Y3076720D01*
X4397500Y3670000D02*
X4422500D01*
X4410000Y3657500D02*
Y3682500D01*
X8521171Y2778866D02*
X8546170D01*
X8533671Y2766367D02*
Y2791366D01*
X3257500Y1660000D02*
X3282500D01*
X3270000Y1647500D02*
Y1672500D01*
X5207500Y850000D02*
X5232500D01*
X5220000Y837500D02*
Y862500D01*
X5317500Y850000D02*
X5342500D01*
X5330000Y837500D02*
Y862500D01*
X5427500Y850000D02*
X5452500D01*
X5440000Y837500D02*
Y862500D01*
X5547500Y850000D02*
X5572500D01*
X5560000Y837500D02*
Y862500D01*
X5647500Y850000D02*
X5672500D01*
X5660000Y837500D02*
Y862500D01*
X4177500Y4130000D02*
X4202500D01*
X4190000Y4117500D02*
Y4142500D01*
X5347500Y2130000D02*
X5372500D01*
X5360000Y2117500D02*
Y2142500D01*
X5057500Y1770000D02*
X5082500D01*
X5070000Y1757500D02*
Y1782500D01*
X3187500Y3490000D02*
X3212500D01*
X3200000Y3477500D02*
Y3502500D01*
X2687500Y3370000D02*
X2712500D01*
X2700000Y3357500D02*
Y3382500D01*
X3064852Y2569393D02*
X3089852D01*
X3077352Y2556893D02*
Y2581893D01*
X3317500Y3180000D02*
X3342500D01*
X3330000Y3167500D02*
Y3192500D01*
X3737932Y1306337D02*
X3762932D01*
X3750432Y1293837D02*
Y1318837D01*
X7469243Y4650021D02*
X7494243D01*
X7481743Y4637521D02*
Y4662521D01*
X3997500Y2230000D02*
X4022500D01*
X4010000Y2217500D02*
Y2242500D01*
X3557500Y2220000D02*
X3582500D01*
X3570000Y2207500D02*
Y2232500D01*
X3697500Y2830000D02*
X3722500D01*
X3710000Y2817500D02*
Y2842500D01*
X4077500Y2960000D02*
X4102500D01*
X4090000Y2947500D02*
Y2972500D01*
X2177500Y2770000D02*
X2202500D01*
X2190000Y2757500D02*
Y2782500D01*
X4406912Y1459077D02*
X4431912D01*
X4419412Y1446577D02*
Y1471576D01*
X2707500Y1600000D02*
X2732500D01*
X2720000Y1587500D02*
Y1612500D01*
X3396065Y2166852D02*
X3421065D01*
X3408565Y2154352D02*
Y2179352D01*
X3337500Y2120000D02*
X3362500D01*
X3350000Y2107500D02*
Y2132500D01*
X4037500Y1530000D02*
X4062500D01*
X4050000Y1517500D02*
Y1542500D01*
X3277500Y720000D02*
X3302500D01*
X3290000Y707500D02*
Y732500D01*
X4507500Y650000D02*
X4532500D01*
X4520000Y637500D02*
Y662500D01*
X2137500Y870000D02*
X2162500D01*
X2150000Y857500D02*
Y882500D01*
X1847500Y690000D02*
X1872500D01*
X1860000Y677500D02*
Y702500D01*
X2387500Y870000D02*
X2412500D01*
X2400000Y857500D02*
Y882500D01*
X2367500Y610000D02*
X2392500D01*
X2380000Y597500D02*
Y622500D01*
X2107500Y1930000D02*
X2132500D01*
X2120000Y1917500D02*
Y1942500D01*
X1967500Y1523734D02*
X1992500D01*
X1980000Y1511234D02*
Y1536233D01*
X2067500Y1520000D02*
X2092500D01*
X2080000Y1507500D02*
Y1532500D01*
X1901291Y1250948D02*
X1926291D01*
X1913791Y1238448D02*
Y1263448D01*
X4207500Y1650000D02*
X4232500D01*
X4220000Y1637500D02*
Y1662500D01*
X3459167Y2250967D02*
X3484166D01*
X3471666Y2238467D02*
Y2263467D01*
X3687500Y1960000D02*
X3712500D01*
X3700000Y1947500D02*
Y1972500D01*
X3947500Y2880000D02*
X3972500D01*
X3960000Y2867500D02*
Y2892500D01*
X3727498Y2959999D02*
X3752497D01*
X3739998Y2947499D02*
Y2972499D01*
X2965000Y4407500D02*
X2990000D01*
X2977500Y4395000D02*
Y4420000D01*
X2698159Y3800659D02*
X2723158D01*
X2710659Y3788159D02*
Y3813158D01*
X2727500Y3690000D02*
X2752500D01*
X2740000Y3677500D02*
Y3702500D01*
X3077500Y3740000D02*
X3102500D01*
X3090000Y3727500D02*
Y3752500D01*
X2767500Y3590000D02*
X2792500D01*
X2780000Y3577500D02*
Y3602500D01*
X3557500Y3610000D02*
X3582500D01*
X3570000Y3597500D02*
Y3622500D01*
X4077500Y4330000D02*
X4102500D01*
X4090000Y4317500D02*
Y4342500D01*
X2767500Y4170000D02*
X2792500D01*
X2780000Y4157500D02*
Y4182500D01*
X3367500Y4370000D02*
X3392500D01*
X3380000Y4357500D02*
Y4382500D01*
X3707500Y3510000D02*
X3732500D01*
X3720000Y3497500D02*
Y3522500D01*
X3297500Y4120000D02*
X3322500D01*
X3310000Y4107500D02*
Y4132500D01*
X2756842Y2040661D02*
X2781842D01*
X2769342Y2028162D02*
Y2053161D01*
X2227500Y1370000D02*
X2252500D01*
X2240000Y1357500D02*
Y1382500D01*
X2397500Y2850000D02*
X2422500D01*
X2410000Y2837500D02*
Y2862500D01*
X2787500Y1380000D02*
X2812500D01*
X2800000Y1367500D02*
Y1392500D01*
X2607500Y1740000D02*
X2632500D01*
X2620000Y1727500D02*
Y1752500D01*
X2617500Y2440000D02*
X2642500D01*
X2630000Y2427500D02*
Y2452500D01*
X3097500Y730000D02*
X3122500D01*
X3110000Y717500D02*
Y742500D01*
X2527500Y2270000D02*
X2552500D01*
X2540000Y2257500D02*
Y2282500D01*
X3037500Y2180000D02*
X3062500D01*
X3050000Y2167500D02*
Y2192500D01*
X3297500Y2420000D02*
X3322500D01*
X3310000Y2407500D02*
Y2432500D01*
X3927500Y3890000D02*
X3952500D01*
X3940000Y3877500D02*
Y3902500D01*
X3927500Y4200000D02*
X3952500D01*
X3940000Y4187500D02*
Y4212500D01*
X5747500Y4750000D02*
X5772500D01*
X5760000Y4737500D02*
Y4762500D01*
X3937500Y3270000D02*
X3962500D01*
X3950000Y3257500D02*
Y3282500D01*
X3877500Y2120000D02*
X3902500D01*
X3890000Y2107500D02*
Y2132500D01*
X4047500Y1450000D02*
X4072500D01*
X4060000Y1437500D02*
Y1462500D01*
X4867500Y4830000D02*
X4892500D01*
X4880000Y4817500D02*
Y4842500D01*
X1187500Y4080000D02*
X1212500D01*
X1200000Y4067500D02*
Y4092500D01*
X2847500Y4820000D02*
X2872500D01*
X2860000Y4807500D02*
Y4832500D01*
X5347500Y4550000D02*
X5372500D01*
X5360000Y4537500D02*
Y4562500D01*
X4717500Y4820000D02*
X4742500D01*
X4730000Y4807500D02*
Y4832500D01*
X3467500Y4570000D02*
X3492500D01*
X3480000Y4557500D02*
Y4582500D01*
X4247500Y1970000D02*
X4272500D01*
X4260000Y1957500D02*
Y1982500D01*
X7897500Y4900000D02*
X7922500D01*
X7910000Y4887500D02*
Y4912500D01*
X7759955Y4541138D02*
X7784955D01*
X7772455Y4528638D02*
Y4553638D01*
X7707500Y4730000D02*
X7732500D01*
X7720000Y4717500D02*
Y4742500D01*
X7171636Y4430000D02*
X7196635D01*
X7184135Y4417500D02*
Y4442500D01*
X7817500Y5080000D02*
X7842500D01*
X7830000Y5067500D02*
Y5092500D01*
X6987500Y4617500D02*
X7012500D01*
X7000000Y4605000D02*
Y4630000D01*
X6667500Y4657500D02*
X6692500D01*
X6680000Y4645000D02*
Y4670000D01*
X4607500Y3370000D02*
X4632500D01*
X4620000Y3357500D02*
Y3382500D01*
X4437500Y4840000D02*
X4462500D01*
X4450000Y4827500D02*
Y4852500D01*
X8175500Y2914999D02*
X8200500D01*
X8188000Y2902499D02*
Y2927499D01*
X6629271Y4528229D02*
X6654270D01*
X6641771Y4515729D02*
Y4540729D01*
X6663316Y4271571D02*
X6688315D01*
X6675815Y4259071D02*
Y4284071D01*
X6607500Y4600000D02*
X6632500D01*
X6620000Y4587500D02*
Y4612500D01*
X3627498Y4509999D02*
X3652498D01*
X3639998Y4497499D02*
Y4522498D01*
X5417502Y4609998D02*
X5442502D01*
X5430002Y4597499D02*
Y4622498D01*
X2737502Y2140001D02*
X2762502D01*
X2750002Y2127501D02*
Y2152501D01*
X2377498Y2949999D02*
X2402498D01*
X2389998Y2937500D02*
Y2962499D01*
X4417499Y3750000D02*
X4442499D01*
X4429999Y3737500D02*
Y3762500D01*
X4939987Y5137236D02*
X4964987D01*
X4952487Y5124737D02*
Y5149736D01*
X5697969Y5139578D02*
X5722968D01*
X5710469Y5127078D02*
Y5152078D01*
X5528317Y4609998D02*
X5553317D01*
X5540817Y4597499D02*
Y4622498D01*
X4467501Y2449998D02*
X4492501D01*
X4480001Y2437498D02*
Y2462497D01*
X4547501Y2389998D02*
X4572501D01*
X4560001Y2377498D02*
Y2402498D01*
X4427501Y3970000D02*
X4452501D01*
X4440001Y3957500D02*
Y3982500D01*
X3108855Y3019999D02*
X3133855D01*
X3121355Y3007499D02*
Y3032499D01*
X2288075Y2211070D02*
X2313074D01*
X2300575Y2198570D02*
Y2223570D01*
X4287502Y3039999D02*
X4312501D01*
X4300002Y3027499D02*
Y3052499D01*
X4447501Y4060002D02*
X4472501D01*
X4460001Y4047502D02*
Y4072502D01*
X4147502Y3930000D02*
X4172502D01*
X4160002Y3917500D02*
Y3942500D01*
X4079999Y3090001D02*
X4104999D01*
X4092499Y3077502D02*
Y3102501D01*
X2307500Y2870000D02*
X2332500D01*
X2320000Y2857500D02*
Y2882500D01*
X2247500Y2930000D02*
X2272500D01*
X2260000Y2917500D02*
Y2942500D01*
X2467500Y2900000D02*
X2492500D01*
X2480000Y2887500D02*
Y2912500D01*
X2737502Y2460000D02*
X2762502D01*
X2750002Y2447500D02*
Y2472500D01*
X3667498Y319999D02*
X3692498D01*
X3679998Y307500D02*
Y332499D01*
X4177499Y319999D02*
X4202499D01*
X4189999Y307500D02*
Y332499D01*
X2187501Y3199999D02*
X2212501D01*
X2200001Y3187499D02*
Y3212499D01*
X2187501Y2999999D02*
X2212501D01*
X2200001Y2987499D02*
Y3012499D01*
X2187501Y3099999D02*
X2212501D01*
X2200001Y3087499D02*
Y3112499D01*
X2187501Y3299998D02*
X2212501D01*
X2200001Y3287499D02*
Y3312498D01*
X2187501Y3399998D02*
X2212501D01*
X2200001Y3387498D02*
Y3412498D01*
X2167501Y3900002D02*
X2192501D01*
X2180001Y3887503D02*
Y3912502D01*
X2187501Y3699998D02*
X2212501D01*
X2200001Y3687498D02*
Y3712498D01*
X2177498Y3800003D02*
X2202498D01*
X2189998Y3787503D02*
Y3812502D01*
X2037499Y4050000D02*
X2062498D01*
X2049998Y4037500D02*
Y4062499D01*
X1937499Y4080002D02*
X1962498D01*
X1949999Y4067502D02*
Y4092502D01*
X2117498Y3990000D02*
X2142498D01*
X2129998Y3977500D02*
Y4002499D01*
X2177500Y4060000D02*
X2202500D01*
X2190000Y4047500D02*
Y4072500D01*
X2187501Y3599998D02*
X2212501D01*
X2200001Y3587498D02*
Y3612498D01*
X2187501Y3499998D02*
X2212501D01*
X2200001Y3487498D02*
Y3512498D01*
X2517500Y3680000D02*
X2542500D01*
X2530000Y3667500D02*
Y3692500D01*
X2387500Y4000002D02*
X2412500D01*
X2400000Y3987502D02*
Y4012502D01*
X2637502Y3970000D02*
X2662502D01*
X2650002Y3957500D02*
Y3982500D01*
X1937500Y4670000D02*
X1962500D01*
X1950000Y4657500D02*
Y4682500D01*
X1837499Y4400001D02*
X1862499D01*
X1849999Y4387502D02*
Y4412501D01*
X1837499Y4500001D02*
X1862499D01*
X1849999Y4487501D02*
Y4512501D01*
X1837500Y4610000D02*
X1862500D01*
X1850000Y4597500D02*
Y4622500D01*
X1837499Y4300002D02*
X1862499D01*
X1849999Y4287502D02*
Y4312501D01*
X1837499Y4100002D02*
X1862499D01*
X1849999Y4087502D02*
Y4112502D01*
X1837499Y4200002D02*
X1862499D01*
X1849999Y4187502D02*
Y4212502D01*
X2037501Y4670000D02*
X2062501D01*
X2050001Y4657500D02*
Y4682500D01*
X2392805Y4087301D02*
X2417805D01*
X2405305Y4074802D02*
Y4099801D01*
X2577503Y4620001D02*
X2602502D01*
X2590002Y4607501D02*
Y4632501D01*
X2237500Y4670000D02*
X2262500D01*
X2250000Y4657500D02*
Y4682500D01*
X2137501Y4670000D02*
X2162500D01*
X2150001Y4657500D02*
Y4682500D01*
X2337500Y4670000D02*
X2362500D01*
X2350000Y4657500D02*
Y4682500D01*
X3267499Y4369999D02*
X3292498D01*
X3279999Y4357499D02*
Y4382499D01*
X3707498Y3156915D02*
X3732497D01*
X3719998Y3144415D02*
Y3169415D01*
X4937498Y319999D02*
X4962498D01*
X4949998Y307500D02*
Y332499D01*
X4440577Y4211808D02*
X4465577D01*
X4453077Y4199308D02*
Y4224308D01*
X4307502Y3130001D02*
X4332501D01*
X4320002Y3117502D02*
Y3142501D01*
X3266808Y2029998D02*
X3291807D01*
X3279308Y2017499D02*
Y2042498D01*
X4438159Y3840658D02*
X4463159D01*
X4450659Y3828158D02*
Y3853158D01*
%TF.MD5,74f2cc5e397302306973557076cc7965*%
M02*
