%TF.GenerationSoftware,Altium Limited,Altium Designer,23.9.2 (47)*%
G04 Layer_Color=8388736*
%FSLAX45Y45*%
%MOMM*%
%TF.SameCoordinates,14EE52A8-4136-4093-BC95-9A2147CF655B*%
%TF.FilePolarity,Negative*%
%TF.FileFunction,Soldermask,Top*%
%TF.Part,Single*%
G01*
G75*
%TA.AperFunction,ComponentPad*%
G04:AMPARAMS|DCode=29|XSize=2.35mm|YSize=2.35mm|CornerRadius=0mm|HoleSize=0mm|Usage=FLASHONLY|Rotation=180.000|XOffset=0mm|YOffset=0mm|HoleType=Round|Shape=Octagon|*
%AMOCTAGOND29*
4,1,8,-1.17500,0.58750,-1.17500,-0.58750,-0.58750,-1.17500,0.58750,-1.17500,1.17500,-0.58750,1.17500,0.58750,0.58750,1.17500,-0.58750,1.17500,-1.17500,0.58750,0.0*
%
%ADD29OCTAGOND29*%

G04:AMPARAMS|DCode=30|XSize=2.35mm|YSize=2.35mm|CornerRadius=0.625mm|HoleSize=0mm|Usage=FLASHONLY|Rotation=180.000|XOffset=0mm|YOffset=0mm|HoleType=Round|Shape=RoundedRectangle|*
%AMROUNDEDRECTD30*
21,1,2.35000,1.10000,0,0,180.0*
21,1,1.10000,2.35000,0,0,180.0*
1,1,1.25001,-0.55000,0.55000*
1,1,1.25001,0.55000,0.55000*
1,1,1.25001,0.55000,-0.55000*
1,1,1.25001,-0.55000,-0.55000*
%
%ADD30ROUNDEDRECTD30*%
%TA.AperFunction,SMDPad,CuDef*%
G04:AMPARAMS|DCode=49|XSize=0.28mm|YSize=0.73mm|CornerRadius=0.09mm|HoleSize=0mm|Usage=FLASHONLY|Rotation=180.000|XOffset=0mm|YOffset=0mm|HoleType=Round|Shape=RoundedRectangle|*
%AMROUNDEDRECTD49*
21,1,0.28000,0.55000,0,0,180.0*
21,1,0.10000,0.73000,0,0,180.0*
1,1,0.18000,-0.05000,0.27500*
1,1,0.18000,0.05000,0.27500*
1,1,0.18000,0.05000,-0.27500*
1,1,0.18000,-0.05000,-0.27500*
%
%ADD49ROUNDEDRECTD49*%
G04:AMPARAMS|DCode=50|XSize=0.28mm|YSize=1.08mm|CornerRadius=0.09mm|HoleSize=0mm|Usage=FLASHONLY|Rotation=180.000|XOffset=0mm|YOffset=0mm|HoleType=Round|Shape=RoundedRectangle|*
%AMROUNDEDRECTD50*
21,1,0.28000,0.90000,0,0,180.0*
21,1,0.10000,1.08000,0,0,180.0*
1,1,0.18000,-0.05000,0.45000*
1,1,0.18000,0.05000,0.45000*
1,1,0.18000,0.05000,-0.45000*
1,1,0.18000,-0.05000,-0.45000*
%
%ADD50ROUNDEDRECTD50*%
G04:AMPARAMS|DCode=51|XSize=0.3mm|YSize=0.63mm|CornerRadius=0.095mm|HoleSize=0mm|Usage=FLASHONLY|Rotation=90.000|XOffset=0mm|YOffset=0mm|HoleType=Round|Shape=RoundedRectangle|*
%AMROUNDEDRECTD51*
21,1,0.30000,0.44000,0,0,90.0*
21,1,0.11000,0.63000,0,0,90.0*
1,1,0.19000,0.22000,0.05500*
1,1,0.19000,0.22000,-0.05500*
1,1,0.19000,-0.22000,-0.05500*
1,1,0.19000,-0.22000,0.05500*
%
%ADD51ROUNDEDRECTD51*%
G04:AMPARAMS|DCode=52|XSize=0.75mm|YSize=0.75mm|CornerRadius=0.225mm|HoleSize=0mm|Usage=FLASHONLY|Rotation=90.000|XOffset=0mm|YOffset=0mm|HoleType=Round|Shape=RoundedRectangle|*
%AMROUNDEDRECTD52*
21,1,0.75000,0.30000,0,0,90.0*
21,1,0.30000,0.75000,0,0,90.0*
1,1,0.45000,0.15000,0.15000*
1,1,0.45000,0.15000,-0.15000*
1,1,0.45000,-0.15000,-0.15000*
1,1,0.45000,-0.15000,0.15000*
%
%ADD52ROUNDEDRECTD52*%
G04:AMPARAMS|DCode=53|XSize=3.75mm|YSize=2.15mm|CornerRadius=0.575mm|HoleSize=0mm|Usage=FLASHONLY|Rotation=90.000|XOffset=0mm|YOffset=0mm|HoleType=Round|Shape=RoundedRectangle|*
%AMROUNDEDRECTD53*
21,1,3.75000,1.00000,0,0,90.0*
21,1,2.60000,2.15000,0,0,90.0*
1,1,1.15000,0.50000,1.30000*
1,1,1.15000,0.50000,-1.30000*
1,1,1.15000,-0.50000,-1.30000*
1,1,1.15000,-0.50000,1.30000*
%
%ADD53ROUNDEDRECTD53*%
G04:AMPARAMS|DCode=54|XSize=0.95mm|YSize=0.95mm|CornerRadius=0.275mm|HoleSize=0mm|Usage=FLASHONLY|Rotation=90.000|XOffset=0mm|YOffset=0mm|HoleType=Round|Shape=RoundedRectangle|*
%AMROUNDEDRECTD54*
21,1,0.95000,0.40000,0,0,90.0*
21,1,0.40000,0.95000,0,0,90.0*
1,1,0.55000,0.20000,0.20000*
1,1,0.55000,0.20000,-0.20000*
1,1,0.55000,-0.20000,-0.20000*
1,1,0.55000,-0.20000,0.20000*
%
%ADD54ROUNDEDRECTD54*%
G04:AMPARAMS|DCode=55|XSize=1.8mm|YSize=1.4mm|CornerRadius=0.3875mm|HoleSize=0mm|Usage=FLASHONLY|Rotation=270.000|XOffset=0mm|YOffset=0mm|HoleType=Round|Shape=RoundedRectangle|*
%AMROUNDEDRECTD55*
21,1,1.80000,0.62500,0,0,270.0*
21,1,1.02500,1.40000,0,0,270.0*
1,1,0.77500,-0.31250,-0.51250*
1,1,0.77500,-0.31250,0.51250*
1,1,0.77500,0.31250,0.51250*
1,1,0.77500,0.31250,-0.51250*
%
%ADD55ROUNDEDRECTD55*%
G04:AMPARAMS|DCode=56|XSize=0.95mm|YSize=0.95mm|CornerRadius=0.275mm|HoleSize=0mm|Usage=FLASHONLY|Rotation=0.000|XOffset=0mm|YOffset=0mm|HoleType=Round|Shape=RoundedRectangle|*
%AMROUNDEDRECTD56*
21,1,0.95000,0.40000,0,0,0.0*
21,1,0.40000,0.95000,0,0,0.0*
1,1,0.55000,0.20000,-0.20000*
1,1,0.55000,-0.20000,-0.20000*
1,1,0.55000,-0.20000,0.20000*
1,1,0.55000,0.20000,0.20000*
%
%ADD56ROUNDEDRECTD56*%
G04:AMPARAMS|DCode=57|XSize=0.75mm|YSize=0.75mm|CornerRadius=0.225mm|HoleSize=0mm|Usage=FLASHONLY|Rotation=0.000|XOffset=0mm|YOffset=0mm|HoleType=Round|Shape=RoundedRectangle|*
%AMROUNDEDRECTD57*
21,1,0.75000,0.30000,0,0,0.0*
21,1,0.30000,0.75000,0,0,0.0*
1,1,0.45000,0.15000,-0.15000*
1,1,0.45000,-0.15000,-0.15000*
1,1,0.45000,-0.15000,0.15000*
1,1,0.45000,0.15000,0.15000*
%
%ADD57ROUNDEDRECTD57*%
D29*
X1800000Y1280000D02*
D03*
X579999D02*
D03*
D30*
X1450000D02*
D03*
X229999D02*
D03*
D49*
X555000Y392500D02*
D03*
X655000D02*
D03*
X605000Y567500D02*
D03*
D50*
Y410000D02*
D03*
X655000Y550000D02*
D03*
X555000D02*
D03*
D51*
X487500Y505000D02*
D03*
Y405000D02*
D03*
Y555000D02*
D03*
Y455000D02*
D03*
D52*
X260000Y370000D02*
D03*
X360000D02*
D03*
Y270000D02*
D03*
X260000D02*
D03*
X360000Y170000D02*
D03*
X260000D02*
D03*
D53*
X1200000Y230000D02*
D03*
X860000D02*
D03*
D54*
X350000Y530000D02*
D03*
X190000D02*
D03*
D55*
X1540000Y860000D02*
D03*
X1820000D02*
D03*
X1420000Y270000D02*
D03*
X1700000D02*
D03*
D56*
X130000Y190000D02*
D03*
Y350000D02*
D03*
X340000Y740000D02*
D03*
Y900000D02*
D03*
X470000Y740000D02*
D03*
Y900000D02*
D03*
D57*
X580000Y830000D02*
D03*
Y730000D02*
D03*
%TF.MD5,42247eafa398a0babfabd3ed5103bfa2*%
M02*
