%TF.GenerationSoftware,Altium Limited,Altium Designer,23.9.2 (47)*%
G04 Layer_Color=128*
%FSLAX45Y45*%
%MOMM*%
%TF.SameCoordinates,14EE52A8-4136-4093-BC95-9A2147CF655B*%
%TF.FilePolarity,Positive*%
%TF.FileFunction,Drillmap*%
%TF.Part,Single*%
G01*
G75*
%TA.AperFunction,NonConductor*%
%ADD63C,0.12700*%
D63*
X1740000Y1280000D02*
X1860000D01*
X1800000Y1220000D02*
Y1340000D01*
X1390000Y1280000D02*
X1510000D01*
X1450000Y1220000D02*
Y1340000D01*
X519999Y1280000D02*
X639999D01*
X579999Y1220000D02*
Y1340000D01*
X169999Y1280000D02*
X289999D01*
X229999Y1220000D02*
Y1340000D01*
X1042500Y400000D02*
X1057500D01*
X1050000Y392500D02*
Y407500D01*
X1692500Y160000D02*
X1707500D01*
X1700000Y152500D02*
Y167500D01*
X1782500Y270000D02*
X1797500D01*
X1790000Y262500D02*
Y277500D01*
X1252500Y1620000D02*
X1267500D01*
X1260000Y1612500D02*
Y1627500D01*
X732500Y1620000D02*
X747500D01*
X740000Y1612500D02*
Y1627500D01*
X252500Y110000D02*
X267500D01*
X260000Y102500D02*
Y117500D01*
X462500Y970000D02*
X477500D01*
X470000Y962500D02*
Y977500D01*
X1192500Y570000D02*
X1207500D01*
X1200000Y562500D02*
Y577500D01*
X902500Y540000D02*
X917500D01*
X910000Y532500D02*
Y547500D01*
X1002500Y140000D02*
X1017500D01*
X1010000Y132500D02*
Y147500D01*
X1342500Y490000D02*
X1357500D01*
X1350000Y482500D02*
Y497500D01*
X1692500Y390000D02*
X1707500D01*
X1700000Y382500D02*
Y397500D01*
X1382500Y80000D02*
X1397500D01*
X1390000Y72500D02*
Y87500D01*
X1872500Y120000D02*
X1887500D01*
X1880000Y112500D02*
Y127500D01*
X1912500Y1620000D02*
X1927500D01*
X1920000Y1612500D02*
Y1627500D01*
X72500Y1620000D02*
X87500D01*
X80000Y1612500D02*
Y1627500D01*
X172500Y90000D02*
X187500D01*
X180000Y82500D02*
Y97500D01*
X432500Y130000D02*
X447500D01*
X440000Y122500D02*
Y137500D01*
X652500Y630000D02*
X667500D01*
X660000Y622500D02*
Y637500D01*
X1812500Y750000D02*
X1827500D01*
X1820000Y742500D02*
Y757500D01*
X1902500Y860000D02*
X1917500D01*
X1910000Y852500D02*
Y867500D01*
X1812500Y970000D02*
X1827500D01*
X1820000Y962500D02*
Y977500D01*
X332500Y970000D02*
X347500D01*
X340000Y962500D02*
Y977500D01*
X632500Y830000D02*
X647500D01*
X640000Y822500D02*
Y837500D01*
X112500Y530000D02*
X127500D01*
X120000Y522500D02*
Y537500D01*
X422500Y580000D02*
X437500D01*
X430000Y572500D02*
Y587500D01*
X412500Y370000D02*
X427500D01*
X420000Y362500D02*
Y377500D01*
X692500Y130000D02*
X707500D01*
X700000Y122500D02*
Y137500D01*
X1531992Y745051D02*
X1546992D01*
X1539492Y737551D02*
Y752550D01*
%TF.MD5,d13cebbe672df29f8322e0874562713b*%
M02*
