%TF.GenerationSoftware,Altium Limited,Altium Designer,23.9.2 (47)*%
G04 Layer_Color=2752767*
%FSLAX45Y45*%
%MOMM*%
%TF.SameCoordinates,F1AFF133-CB08-443C-B5AD-2193434A7FAF*%
%TF.FilePolarity,Positive*%
%TF.FileFunction,Drawing*%
%TF.Part,Single*%
G01*
G75*
%TA.AperFunction,NonConductor*%
%ADD675C,0.12700*%
%ADD676C,0.16933*%
D675*
X8331200Y266700D02*
Y368300D01*
X8432800D01*
Y266700D01*
X8331200D01*
Y520700D02*
Y622300D01*
X8432800D01*
Y520700D01*
X8331200D01*
X8077200Y266700D02*
Y368300D01*
X8178800D01*
Y266700D01*
X8077200D01*
Y520700D02*
Y622300D01*
X8178800D01*
Y520700D01*
X8077200D01*
X8331200Y774700D02*
Y876300D01*
X8432800D01*
Y774700D01*
X8331200D01*
Y1028700D02*
Y1130300D01*
X8432800D01*
Y1028700D01*
X8331200D01*
Y1282700D02*
Y1384300D01*
X8432800D01*
Y1282700D01*
X8331200D01*
Y1536700D02*
Y1638300D01*
X8432800D01*
Y1536700D01*
X8331200D01*
Y1790700D02*
Y1892300D01*
X8432800D01*
Y1790700D01*
X8331200D01*
Y2044700D02*
Y2146300D01*
X8432800D01*
Y2044700D01*
X8331200D01*
Y2298700D02*
Y2400300D01*
X8432800D01*
Y2298700D01*
X8331200D01*
X8077200Y774700D02*
Y876300D01*
X8178800D01*
Y774700D01*
X8077200D01*
Y1028700D02*
Y1130300D01*
X8178800D01*
Y1028700D01*
X8077200D01*
Y1282700D02*
Y1384300D01*
X8178800D01*
Y1282700D01*
X8077200D01*
Y1536700D02*
Y1638300D01*
X8178800D01*
Y1536700D01*
X8077200D01*
Y1790700D02*
Y1892300D01*
X8178800D01*
Y1790700D01*
X8077200D01*
Y2044700D02*
Y2146300D01*
X8178800D01*
Y2044700D01*
X8077200D01*
Y2298700D02*
Y2400300D01*
X8178800D01*
Y2298700D01*
X8077200D01*
X8331200Y3060700D02*
Y3162300D01*
X8432800D01*
Y3060700D01*
X8331200D01*
Y3314700D02*
Y3416300D01*
X8432800D01*
Y3314700D01*
X8331200D01*
X8077200Y3060700D02*
Y3162300D01*
X8178800D01*
Y3060700D01*
X8077200D01*
Y3314700D02*
Y3416300D01*
X8178800D01*
Y3314700D01*
X8077200D01*
X8331200Y3568700D02*
Y3670300D01*
X8432800D01*
Y3568700D01*
X8331200D01*
Y3822700D02*
Y3924300D01*
X8432800D01*
Y3822700D01*
X8331200D01*
Y4076700D02*
Y4178300D01*
X8432800D01*
Y4076700D01*
X8331200D01*
Y4330700D02*
Y4432300D01*
X8432800D01*
Y4330700D01*
X8331200D01*
Y4584700D02*
Y4686300D01*
X8432800D01*
Y4584700D01*
X8331200D01*
Y4838700D02*
Y4940300D01*
X8432800D01*
Y4838700D01*
X8331200D01*
Y5092700D02*
Y5194300D01*
X8432800D01*
Y5092700D01*
X8331200D01*
X8077200Y3568700D02*
Y3670300D01*
X8178800D01*
Y3568700D01*
X8077200D01*
Y3822700D02*
Y3924300D01*
X8178800D01*
Y3822700D01*
X8077200D01*
Y4076700D02*
Y4178300D01*
X8178800D01*
Y4076700D01*
X8077200D01*
Y4330700D02*
Y4432300D01*
X8178800D01*
Y4330700D01*
X8077200D01*
Y4584700D02*
Y4686300D01*
X8178800D01*
Y4584700D01*
X8077200D01*
Y4838700D02*
Y4940300D01*
X8178800D01*
Y4838700D01*
X8077200D01*
Y5092700D02*
Y5194300D01*
X8178800D01*
Y5092700D01*
X8077200D01*
X1981200Y139700D02*
Y241300D01*
X2082800D01*
Y139700D01*
X1981200D01*
X2235200D02*
Y241300D01*
X2336800D01*
Y139700D01*
X2235200D01*
X2489200D02*
Y241300D01*
X2590800D01*
Y139700D01*
X2489200D01*
X2743200D02*
Y241300D01*
X2844800D01*
Y139700D01*
X2743200D01*
X2997200D02*
Y241300D01*
X3098800D01*
Y139700D01*
X2997200D01*
X3251200D02*
Y241300D01*
X3352800D01*
Y139700D01*
X3251200D01*
X3505200D02*
Y241300D01*
X3606800D01*
Y139700D01*
X3505200D01*
X3759200D02*
Y241300D01*
X3860800D01*
Y139700D01*
X3759200D01*
X4013200D02*
Y241300D01*
X4114800D01*
Y139700D01*
X4013200D01*
X4267200D02*
Y241300D01*
X4368800D01*
Y139700D01*
X4267200D01*
X4521200D02*
Y241300D01*
X4622800D01*
Y139700D01*
X4521200D01*
X4775200D02*
Y241300D01*
X4876800D01*
Y139700D01*
X4775200D01*
X5029200D02*
Y241300D01*
X5130800D01*
Y139700D01*
X5029200D01*
X5283200D02*
Y241300D01*
X5384800D01*
Y139700D01*
X5283200D01*
X5537200D02*
Y241300D01*
X5638800D01*
Y139700D01*
X5537200D01*
X5791200D02*
Y241300D01*
X5892800D01*
Y139700D01*
X5791200D01*
X6045200D02*
Y241300D01*
X6146800D01*
Y139700D01*
X6045200D01*
X6299200D02*
Y241300D01*
X6400800D01*
Y139700D01*
X6299200D01*
X6553200D02*
Y241300D01*
X6654800D01*
Y139700D01*
X6553200D01*
X6807200D02*
Y241300D01*
X6908800D01*
Y139700D01*
X6807200D01*
X7061200D02*
Y241300D01*
X7162800D01*
Y139700D01*
X7061200D01*
X7315200D02*
Y241300D01*
X7416800D01*
Y139700D01*
X7315200D01*
X7569200D02*
Y241300D01*
X7670800D01*
Y139700D01*
X7569200D01*
X1981200Y393700D02*
Y495300D01*
X2082800D01*
Y393700D01*
X1981200D01*
X2235200D02*
Y495300D01*
X2336800D01*
Y393700D01*
X2235200D01*
X2489200D02*
Y495300D01*
X2590800D01*
Y393700D01*
X2489200D01*
X2743200D02*
Y495300D01*
X2844800D01*
Y393700D01*
X2743200D01*
X2997200D02*
Y495300D01*
X3098800D01*
Y393700D01*
X2997200D01*
X3251200D02*
Y495300D01*
X3352800D01*
Y393700D01*
X3251200D01*
X3505200D02*
Y495300D01*
X3606800D01*
Y393700D01*
X3505200D01*
X3759200D02*
Y495300D01*
X3860800D01*
Y393700D01*
X3759200D01*
X4013200D02*
Y495300D01*
X4114800D01*
Y393700D01*
X4013200D01*
X4267200D02*
Y495300D01*
X4368800D01*
Y393700D01*
X4267200D01*
X4521200D02*
Y495300D01*
X4622800D01*
Y393700D01*
X4521200D01*
X4775200D02*
Y495300D01*
X4876800D01*
Y393700D01*
X4775200D01*
X5029200D02*
Y495300D01*
X5130800D01*
Y393700D01*
X5029200D01*
X5283200D02*
Y495300D01*
X5384800D01*
Y393700D01*
X5283200D01*
X5537200D02*
Y495300D01*
X5638800D01*
Y393700D01*
X5537200D01*
X5791200D02*
Y495300D01*
X5892800D01*
Y393700D01*
X5791200D01*
X6045200D02*
Y495300D01*
X6146800D01*
Y393700D01*
X6045200D01*
X6299200D02*
Y495300D01*
X6400800D01*
Y393700D01*
X6299200D01*
X6553200D02*
Y495300D01*
X6654800D01*
Y393700D01*
X6553200D01*
X6807200D02*
Y495300D01*
X6908800D01*
Y393700D01*
X6807200D01*
X7061200D02*
Y495300D01*
X7162800D01*
Y393700D01*
X7061200D01*
X7315200D02*
Y495300D01*
X7416800D01*
Y393700D01*
X7315200D01*
X7569200D02*
Y495300D01*
X7670800D01*
Y393700D01*
X7569200D01*
X1981200Y4965700D02*
Y5067300D01*
X2082800D01*
Y4965700D01*
X1981200D01*
X2235200D02*
Y5067300D01*
X2336800D01*
Y4965700D01*
X2235200D01*
X2489200D02*
Y5067300D01*
X2590800D01*
Y4965700D01*
X2489200D01*
X2743200D02*
Y5067300D01*
X2844800D01*
Y4965700D01*
X2743200D01*
X2997200D02*
Y5067300D01*
X3098800D01*
Y4965700D01*
X2997200D01*
X3251200D02*
Y5067300D01*
X3352800D01*
Y4965700D01*
X3251200D01*
X3505200D02*
Y5067300D01*
X3606800D01*
Y4965700D01*
X3505200D01*
X3759200D02*
Y5067300D01*
X3860800D01*
Y4965700D01*
X3759200D01*
X4013200D02*
Y5067300D01*
X4114800D01*
Y4965700D01*
X4013200D01*
X4267200D02*
Y5067300D01*
X4368800D01*
Y4965700D01*
X4267200D01*
X4521200D02*
Y5067300D01*
X4622800D01*
Y4965700D01*
X4521200D01*
X4775200D02*
Y5067300D01*
X4876800D01*
Y4965700D01*
X4775200D01*
X5029200D02*
Y5067300D01*
X5130800D01*
Y4965700D01*
X5029200D01*
X5283200D02*
Y5067300D01*
X5384800D01*
Y4965700D01*
X5283200D01*
X5537200D02*
Y5067300D01*
X5638800D01*
Y4965700D01*
X5537200D01*
X5791200D02*
Y5067300D01*
X5892800D01*
Y4965700D01*
X5791200D01*
X6045200D02*
Y5067300D01*
X6146800D01*
Y4965700D01*
X6045200D01*
X6299200D02*
Y5067300D01*
X6400800D01*
Y4965700D01*
X6299200D01*
X6553200D02*
Y5067300D01*
X6654800D01*
Y4965700D01*
X6553200D01*
X6807200D02*
Y5067300D01*
X6908800D01*
Y4965700D01*
X6807200D01*
X7061200D02*
Y5067300D01*
X7162800D01*
Y4965700D01*
X7061200D01*
X7315200D02*
Y5067300D01*
X7416800D01*
Y4965700D01*
X7315200D01*
X7569200D02*
Y5067300D01*
X7670800D01*
Y4965700D01*
X7569200D01*
X1981200Y5219700D02*
Y5321300D01*
X2082800D01*
Y5219700D01*
X1981200D01*
X2235200D02*
Y5321300D01*
X2336800D01*
Y5219700D01*
X2235200D01*
X2489200D02*
Y5321300D01*
X2590800D01*
Y5219700D01*
X2489200D01*
X2743200D02*
Y5321300D01*
X2844800D01*
Y5219700D01*
X2743200D01*
X2997200D02*
Y5321300D01*
X3098800D01*
Y5219700D01*
X2997200D01*
X3251200D02*
Y5321300D01*
X3352800D01*
Y5219700D01*
X3251200D01*
X3505200D02*
Y5321300D01*
X3606800D01*
Y5219700D01*
X3505200D01*
X3759200D02*
Y5321300D01*
X3860800D01*
Y5219700D01*
X3759200D01*
X4013200D02*
Y5321300D01*
X4114800D01*
Y5219700D01*
X4013200D01*
X4267200D02*
Y5321300D01*
X4368800D01*
Y5219700D01*
X4267200D01*
X4521200D02*
Y5321300D01*
X4622800D01*
Y5219700D01*
X4521200D01*
X4775200D02*
Y5321300D01*
X4876800D01*
Y5219700D01*
X4775200D01*
X5029200D02*
Y5321300D01*
X5130800D01*
Y5219700D01*
X5029200D01*
X5283200D02*
Y5321300D01*
X5384800D01*
Y5219700D01*
X5283200D01*
X5537200D02*
Y5321300D01*
X5638800D01*
Y5219700D01*
X5537200D01*
X5791200D02*
Y5321300D01*
X5892800D01*
Y5219700D01*
X5791200D01*
X6045200D02*
Y5321300D01*
X6146800D01*
Y5219700D01*
X6045200D01*
X6299200D02*
Y5321300D01*
X6400800D01*
Y5219700D01*
X6299200D01*
X6553200D02*
Y5321300D01*
X6654800D01*
Y5219700D01*
X6553200D01*
X6807200D02*
Y5321300D01*
X6908800D01*
Y5219700D01*
X6807200D01*
X7061200D02*
Y5321300D01*
X7162800D01*
Y5219700D01*
X7061200D01*
X7315200D02*
Y5321300D01*
X7416800D01*
Y5219700D01*
X7315200D01*
X7569200D02*
Y5321300D01*
X7670800D01*
Y5219700D01*
X7569200D01*
X2235200Y4461600D02*
Y4563200D01*
X2336800D01*
Y4461600D01*
X2235200D01*
Y4207600D02*
Y4309200D01*
X2336800D01*
Y4207600D01*
X2235200D01*
X1981200Y4461600D02*
Y4563200D01*
X2082800D01*
Y4461600D01*
X1981200D01*
Y4207600D02*
Y4309200D01*
X2082800D01*
Y4207600D01*
X1981200D01*
X1621200Y927200D02*
X1646600Y978000D01*
X1621200Y1028800D01*
X1672000Y1003400D01*
X1722800Y1028800D01*
X1697400Y978000D01*
X1722800Y927200D01*
X1672000Y952600D01*
X1621200Y927200D01*
X1241200D02*
X1266600Y978000D01*
X1241200Y1028800D01*
X1292000Y1003400D01*
X1342800Y1028800D01*
X1317400Y978000D01*
X1342800Y927200D01*
X1292000Y952600D01*
X1241200Y927200D01*
X1621200Y1791200D02*
X1646600Y1842000D01*
X1621200Y1892800D01*
X1672000Y1867400D01*
X1722800Y1892800D01*
X1697400Y1842000D01*
X1722800Y1791200D01*
X1672000Y1816600D01*
X1621200Y1791200D01*
X1241200D02*
X1266600Y1842000D01*
X1241200Y1892800D01*
X1292000Y1867400D01*
X1342800Y1892800D01*
X1317400Y1842000D01*
X1342800Y1791200D01*
X1292000Y1816600D01*
X1241200Y1791200D01*
X1460500Y5092700D02*
X1409700Y5194300D01*
X1511300D01*
X1460500Y5092700D01*
X6819599Y4579600D02*
Y4554200D01*
X6870399D01*
Y4579600D01*
X6895799D01*
Y4630400D01*
X6870399D01*
Y4655800D01*
X6819599D01*
Y4630400D01*
X6794199D01*
Y4579600D01*
X6819599D01*
X3474600Y1214600D02*
Y1189200D01*
X3525400D01*
Y1214600D01*
X3550800D01*
Y1265400D01*
X3525400D01*
Y1290800D01*
X3474600D01*
Y1265400D01*
X3449200D01*
Y1214600D01*
X3474600D01*
X4654600Y1194600D02*
Y1169200D01*
X4705400D01*
Y1194600D01*
X4730800D01*
Y1245400D01*
X4705400D01*
Y1270800D01*
X4654600D01*
Y1245400D01*
X4629200D01*
Y1194600D01*
X4654600D01*
X2324600Y2824600D02*
Y2799200D01*
X2375400D01*
Y2824600D01*
X2400800D01*
Y2875400D01*
X2375400D01*
Y2900800D01*
X2324600D01*
Y2875400D01*
X2299200D01*
Y2824600D01*
X2324600D01*
X2494600Y2564600D02*
Y2539200D01*
X2545400D01*
Y2564600D01*
X2570800D01*
Y2615400D01*
X2545400D01*
Y2640800D01*
X2494600D01*
Y2615400D01*
X2469200D01*
Y2564600D01*
X2494600D01*
X2404600Y2604600D02*
Y2579200D01*
X2455400D01*
Y2604600D01*
X2480800D01*
Y2655400D01*
X2455400D01*
Y2680800D01*
X2404600D01*
Y2655400D01*
X2379200D01*
Y2604600D01*
X2404600D01*
Y2694600D02*
Y2669200D01*
X2455400D01*
Y2694600D01*
X2480800D01*
Y2745400D01*
X2455400D01*
Y2770800D01*
X2404600D01*
Y2745400D01*
X2379200D01*
Y2694600D01*
X2404600D01*
X2384600Y2914600D02*
Y2889200D01*
X2435400D01*
Y2914600D01*
X2460800D01*
Y2965400D01*
X2435400D01*
Y2990800D01*
X2384600D01*
Y2965400D01*
X2359200D01*
Y2914600D01*
X2384600D01*
X6174600Y2964600D02*
Y2939200D01*
X6225400D01*
Y2964600D01*
X6250800D01*
Y3015400D01*
X6225400D01*
Y3040800D01*
X6174600D01*
Y3015400D01*
X6149200D01*
Y2964600D01*
X6174600D01*
Y2754600D02*
Y2729200D01*
X6225400D01*
Y2754600D01*
X6250800D01*
Y2805400D01*
X6225400D01*
Y2830800D01*
X6174600D01*
Y2805400D01*
X6149200D01*
Y2754600D01*
X6174600D01*
X5884600Y3434600D02*
Y3409200D01*
X5935400D01*
Y3434600D01*
X5960800D01*
Y3485400D01*
X5935400D01*
Y3510800D01*
X5884600D01*
Y3485400D01*
X5859200D01*
Y3434600D01*
X5884600D01*
X6204600Y3274600D02*
Y3249200D01*
X6255400D01*
Y3274600D01*
X6280800D01*
Y3325400D01*
X6255400D01*
Y3350800D01*
X6204600D01*
Y3325400D01*
X6179200D01*
Y3274600D01*
X6204600D01*
X5994600Y2844600D02*
Y2819200D01*
X6045400D01*
Y2844600D01*
X6070800D01*
Y2895400D01*
X6045400D01*
Y2920800D01*
X5994600D01*
Y2895400D01*
X5969200D01*
Y2844600D01*
X5994600D01*
X5804600Y2704600D02*
Y2679200D01*
X5855400D01*
Y2704600D01*
X5880800D01*
Y2755400D01*
X5855400D01*
Y2780800D01*
X5804600D01*
Y2755400D01*
X5779200D01*
Y2704600D01*
X5804600D01*
X6050015Y3252363D02*
Y3226963D01*
X6100815D01*
Y3252363D01*
X6126215D01*
Y3303163D01*
X6100815D01*
Y3328563D01*
X6050015D01*
Y3303163D01*
X6024615D01*
Y3252363D01*
X6050015D01*
X5844600Y3804600D02*
Y3779200D01*
X5895400D01*
Y3804600D01*
X5920800D01*
Y3855400D01*
X5895400D01*
Y3880800D01*
X5844600D01*
Y3855400D01*
X5819200D01*
Y3804600D01*
X5844600D01*
X6234600Y3744600D02*
Y3719200D01*
X6285400D01*
Y3744600D01*
X6310800D01*
Y3795400D01*
X6285400D01*
Y3820800D01*
X6234600D01*
Y3795400D01*
X6209200D01*
Y3744600D01*
X6234600D01*
X6594600Y4109600D02*
Y4084200D01*
X6645400D01*
Y4109600D01*
X6670800D01*
Y4160400D01*
X6645400D01*
Y4185800D01*
X6594600D01*
Y4160400D01*
X6569200D01*
Y4109600D01*
X6594600D01*
X6773717Y4173751D02*
Y4148351D01*
X6824517D01*
Y4173751D01*
X6849917D01*
Y4224551D01*
X6824517D01*
Y4249951D01*
X6773717D01*
Y4224551D01*
X6748317D01*
Y4173751D01*
X6773717D01*
X5264600Y3554600D02*
Y3529200D01*
X5315400D01*
Y3554600D01*
X5340800D01*
Y3605400D01*
X5315400D01*
Y3630800D01*
X5264600D01*
Y3605400D01*
X5239200D01*
Y3554600D01*
X5264600D01*
X5644600Y3564600D02*
Y3539200D01*
X5695400D01*
Y3564600D01*
X5720800D01*
Y3615400D01*
X5695400D01*
Y3640800D01*
X5644600D01*
Y3615400D01*
X5619200D01*
Y3564600D01*
X5644600D01*
X5634600Y3674600D02*
Y3649200D01*
X5685400D01*
Y3674600D01*
X5710800D01*
Y3725400D01*
X5685400D01*
Y3750800D01*
X5634600D01*
Y3725400D01*
X5609200D01*
Y3674600D01*
X5634600D01*
X6134600Y3454600D02*
Y3429200D01*
X6185400D01*
Y3454600D01*
X6210800D01*
Y3505400D01*
X6185400D01*
Y3530800D01*
X6134600D01*
Y3505400D01*
X6109200D01*
Y3454600D01*
X6134600D01*
X5647100Y3909600D02*
Y3884200D01*
X5697900D01*
Y3909600D01*
X5723300D01*
Y3960400D01*
X5697900D01*
Y3985800D01*
X5647100D01*
Y3960400D01*
X5621700D01*
Y3909600D01*
X5647100D01*
X5414600Y3674600D02*
Y3649200D01*
X5465400D01*
Y3674600D01*
X5490800D01*
Y3725400D01*
X5465400D01*
Y3750800D01*
X5414600D01*
Y3725400D01*
X5389200D01*
Y3674600D01*
X5414600D01*
X5226933Y3824367D02*
Y3798967D01*
X5277733D01*
Y3824367D01*
X5303133D01*
Y3875167D01*
X5277733D01*
Y3900567D01*
X5226933D01*
Y3875167D01*
X5201533D01*
Y3824367D01*
X5226933D01*
X5054600Y3774600D02*
Y3749200D01*
X5105400D01*
Y3774600D01*
X5130800D01*
Y3825400D01*
X5105400D01*
Y3850800D01*
X5054600D01*
Y3825400D01*
X5029200D01*
Y3774600D01*
X5054600D01*
X5524600Y1334600D02*
Y1309200D01*
X5575400D01*
Y1334600D01*
X5600800D01*
Y1385400D01*
X5575400D01*
Y1410800D01*
X5524600D01*
Y1385400D01*
X5499200D01*
Y1334600D01*
X5524600D01*
X3304600Y3154600D02*
Y3129200D01*
X3355400D01*
Y3154600D01*
X3380800D01*
Y3205400D01*
X3355400D01*
Y3230800D01*
X3304600D01*
Y3205400D01*
X3279200D01*
Y3154600D01*
X3304600D01*
X3174600Y3464600D02*
Y3439200D01*
X3225400D01*
Y3464600D01*
X3250800D01*
Y3515400D01*
X3225400D01*
Y3540800D01*
X3174600D01*
Y3515400D01*
X3149200D01*
Y3464600D01*
X3174600D01*
X3007778Y3126306D02*
Y3100906D01*
X3058578D01*
Y3126306D01*
X3083978D01*
Y3177106D01*
X3058578D01*
Y3202506D01*
X3007778D01*
Y3177106D01*
X2982378D01*
Y3126306D01*
X3007778D01*
X6184600Y4154600D02*
Y4129200D01*
X6235400D01*
Y4154600D01*
X6260800D01*
Y4205400D01*
X6235400D01*
Y4230800D01*
X6184600D01*
Y4205400D01*
X6159200D01*
Y4154600D01*
X6184600D01*
X1275100Y5258100D02*
Y5232700D01*
X1325900D01*
Y5258100D01*
X1351300D01*
Y5308900D01*
X1325900D01*
Y5334300D01*
X1275100D01*
Y5308900D01*
X1249700D01*
Y5258100D01*
X1275100D01*
Y4978100D02*
Y4952700D01*
X1325900D01*
Y4978100D01*
X1351300D01*
Y5028900D01*
X1325900D01*
Y5054300D01*
X1275100D01*
Y5028900D01*
X1249700D01*
Y4978100D01*
X1275100D01*
X1595100D02*
Y4952700D01*
X1645900D01*
Y4978100D01*
X1671300D01*
Y5028900D01*
X1645900D01*
Y5054300D01*
X1595100D01*
Y5028900D01*
X1569700D01*
Y4978100D01*
X1595100D01*
Y5258100D02*
Y5232700D01*
X1645900D01*
Y5258100D01*
X1671300D01*
Y5308900D01*
X1645900D01*
Y5334300D01*
X1595100D01*
Y5308900D01*
X1569700D01*
Y5258100D01*
X1595100D01*
X3444600Y844600D02*
Y819200D01*
X3495400D01*
Y844600D01*
X3520800D01*
Y895400D01*
X3495400D01*
Y920800D01*
X3444600D01*
Y895400D01*
X3419200D01*
Y844600D01*
X3444600D01*
X3725032Y1280937D02*
Y1255537D01*
X3775832D01*
Y1280937D01*
X3801232D01*
Y1331737D01*
X3775832D01*
Y1357137D01*
X3725032D01*
Y1331737D01*
X3699632D01*
Y1280937D01*
X3725032D01*
X6843614Y1837209D02*
Y1811809D01*
X6894414D01*
Y1837209D01*
X6919814D01*
Y1888009D01*
X6894414D01*
Y1913409D01*
X6843614D01*
Y1888009D01*
X6818214D01*
Y1837209D01*
X6843614D01*
X6492397Y1789303D02*
Y1763903D01*
X6543197D01*
Y1789303D01*
X6568597D01*
Y1840103D01*
X6543197D01*
Y1865503D01*
X6492397D01*
Y1840103D01*
X6466997D01*
Y1789303D01*
X6492397D01*
X6174466Y975572D02*
Y950172D01*
X6225266D01*
Y975572D01*
X6250666D01*
Y1026372D01*
X6225266D01*
Y1051772D01*
X6174466D01*
Y1026372D01*
X6149066D01*
Y975572D01*
X6174466D01*
X6083703Y980744D02*
Y955344D01*
X6134503D01*
Y980744D01*
X6159903D01*
Y1031544D01*
X6134503D01*
Y1056944D01*
X6083703D01*
Y1031544D01*
X6058303D01*
Y980744D01*
X6083703D01*
X6054600Y2094600D02*
Y2069200D01*
X6105400D01*
Y2094600D01*
X6130800D01*
Y2145400D01*
X6105400D01*
Y2170800D01*
X6054600D01*
Y2145400D01*
X6029200D01*
Y2094600D01*
X6054600D01*
X6412895Y1500086D02*
Y1474686D01*
X6463695D01*
Y1500086D01*
X6489095D01*
Y1550886D01*
X6463695D01*
Y1576286D01*
X6412895D01*
Y1550886D01*
X6387495D01*
Y1500086D01*
X6412895D01*
X5884600Y1824600D02*
Y1799200D01*
X5935400D01*
Y1824600D01*
X5960800D01*
Y1875400D01*
X5935400D01*
Y1900800D01*
X5884600D01*
Y1875400D01*
X5859200D01*
Y1824600D01*
X5884600D01*
X5534600D02*
Y1799200D01*
X5585400D01*
Y1824600D01*
X5610800D01*
Y1875400D01*
X5585400D01*
Y1900800D01*
X5534600D01*
Y1875400D01*
X5509200D01*
Y1824600D01*
X5534600D01*
X5624600Y1814600D02*
Y1789200D01*
X5675400D01*
Y1814600D01*
X5700800D01*
Y1865400D01*
X5675400D01*
Y1890800D01*
X5624600D01*
Y1865400D01*
X5599200D01*
Y1814600D01*
X5624600D01*
X6004600Y704600D02*
Y679200D01*
X6055400D01*
Y704600D01*
X6080800D01*
Y755400D01*
X6055400D01*
Y780800D01*
X6004600D01*
Y755400D01*
X5979200D01*
Y704600D01*
X6004600D01*
X6164600Y697100D02*
Y671700D01*
X6215400D01*
Y697100D01*
X6240800D01*
Y747900D01*
X6215400D01*
Y773300D01*
X6164600D01*
Y747900D01*
X6139200D01*
Y697100D01*
X6164600D01*
X5965247Y1406363D02*
Y1380963D01*
X6016047D01*
Y1406363D01*
X6041447D01*
Y1457163D01*
X6016047D01*
Y1482563D01*
X5965247D01*
Y1457163D01*
X5939847D01*
Y1406363D01*
X5965247D01*
X5973367Y1327060D02*
Y1301660D01*
X6024167D01*
Y1327060D01*
X6049567D01*
Y1377860D01*
X6024167D01*
Y1403260D01*
X5973367D01*
Y1377860D01*
X5947967D01*
Y1327060D01*
X5973367D01*
X6243205Y2036171D02*
Y2010771D01*
X6294005D01*
Y2036171D01*
X6319405D01*
Y2086971D01*
X6294005D01*
Y2112371D01*
X6243205D01*
Y2086971D01*
X6217805D01*
Y2036171D01*
X6243205D01*
X6187990Y1771225D02*
Y1745825D01*
X6238790D01*
Y1771225D01*
X6264190D01*
Y1822025D01*
X6238790D01*
Y1847425D01*
X6187990D01*
Y1822025D01*
X6162590D01*
Y1771225D01*
X6187990D01*
X5969291Y1180248D02*
Y1154848D01*
X6020091D01*
Y1180248D01*
X6045491D01*
Y1231048D01*
X6020091D01*
Y1256448D01*
X5969291D01*
Y1231048D01*
X5943891D01*
Y1180248D01*
X5969291D01*
X5969600Y1630030D02*
Y1604630D01*
X6020400D01*
Y1630030D01*
X6045800D01*
Y1680830D01*
X6020400D01*
Y1706230D01*
X5969600D01*
Y1680830D01*
X5944200D01*
Y1630030D01*
X5969600D01*
X5944600Y874600D02*
Y849200D01*
X5995400D01*
Y874600D01*
X6020800D01*
Y925400D01*
X5995400D01*
Y950800D01*
X5944600D01*
Y925400D01*
X5919200D01*
Y874600D01*
X5944600D01*
X5984617Y1004513D02*
Y979113D01*
X6035417D01*
Y1004513D01*
X6060817D01*
Y1055313D01*
X6035417D01*
Y1080713D01*
X5984617D01*
Y1055313D01*
X5959217D01*
Y1004513D01*
X5984617D01*
X5969578Y1077990D02*
Y1052590D01*
X6020378D01*
Y1077990D01*
X6045778D01*
Y1128790D01*
X6020378D01*
Y1154190D01*
X5969578D01*
Y1128790D01*
X5944178D01*
Y1077990D01*
X5969578D01*
X6176145Y1253354D02*
Y1227954D01*
X6226945D01*
Y1253354D01*
X6252345D01*
Y1304154D01*
X6226945D01*
Y1329554D01*
X6176145D01*
Y1304154D01*
X6150745D01*
Y1253354D01*
X6176145D01*
X6344600Y934600D02*
Y909200D01*
X6395400D01*
Y934600D01*
X6420800D01*
Y985400D01*
X6395400D01*
Y1010800D01*
X6344600D01*
Y985400D01*
X6319200D01*
Y934600D01*
X6344600D01*
X5942233Y247299D02*
Y221899D01*
X5993033D01*
Y247299D01*
X6018433D01*
Y298099D01*
X5993033D01*
Y323499D01*
X5942233D01*
Y298099D01*
X5916833D01*
Y247299D01*
X5942233D01*
X5882040Y292040D02*
Y266640D01*
X5932840D01*
Y292040D01*
X5958240D01*
Y342840D01*
X5932840D01*
Y368240D01*
X5882040D01*
Y342840D01*
X5856640D01*
Y292040D01*
X5882040D01*
X6409985Y622509D02*
Y597109D01*
X6460785D01*
Y622509D01*
X6486185D01*
Y673309D01*
X6460785D01*
Y698709D01*
X6409985D01*
Y673309D01*
X6384585D01*
Y622509D01*
X6409985D01*
X6334600Y614600D02*
Y589200D01*
X6385400D01*
Y614600D01*
X6410800D01*
Y665400D01*
X6385400D01*
Y690800D01*
X6334600D01*
Y665400D01*
X6309200D01*
Y614600D01*
X6334600D01*
X5864600Y833813D02*
Y808413D01*
X5915400D01*
Y833813D01*
X5940800D01*
Y884613D01*
X5915400D01*
Y910013D01*
X5864600D01*
Y884613D01*
X5839200D01*
Y833813D01*
X5864600D01*
X6182714Y1538468D02*
Y1513068D01*
X6233514D01*
Y1538468D01*
X6258914D01*
Y1589268D01*
X6233514D01*
Y1614668D01*
X6182714D01*
Y1589268D01*
X6157314D01*
Y1538468D01*
X6182714D01*
X5972774Y1849600D02*
Y1824200D01*
X6023574D01*
Y1849600D01*
X6048974D01*
Y1900400D01*
X6023574D01*
Y1925800D01*
X5972774D01*
Y1900400D01*
X5947374D01*
Y1849600D01*
X5972774D01*
X5719600Y829600D02*
Y804200D01*
X5770400D01*
Y829600D01*
X5795800D01*
Y880400D01*
X5770400D01*
Y905800D01*
X5719600D01*
Y880400D01*
X5694200D01*
Y829600D01*
X5719600D01*
X5644606Y828656D02*
Y803256D01*
X5695406D01*
Y828656D01*
X5720806D01*
Y879456D01*
X5695406D01*
Y904856D01*
X5644606D01*
Y879456D01*
X5619206D01*
Y828656D01*
X5644606D01*
X5465777Y1013261D02*
Y987861D01*
X5516577D01*
Y1013261D01*
X5541977D01*
Y1064061D01*
X5516577D01*
Y1089461D01*
X5465777D01*
Y1064061D01*
X5440377D01*
Y1013261D01*
X5465777D01*
X5564302Y825542D02*
Y800142D01*
X5615102D01*
Y825542D01*
X5640502D01*
Y876342D01*
X5615102D01*
Y901742D01*
X5564302D01*
Y876342D01*
X5538902D01*
Y825542D01*
X5564302D01*
X5484120Y827461D02*
Y802061D01*
X5534920D01*
Y827461D01*
X5560320D01*
Y878261D01*
X5534920D01*
Y903661D01*
X5484120D01*
Y878261D01*
X5458720D01*
Y827461D01*
X5484120D01*
X5364600Y824600D02*
Y799200D01*
X5415400D01*
Y824600D01*
X5440800D01*
Y875400D01*
X5415400D01*
Y900800D01*
X5364600D01*
Y875400D01*
X5339200D01*
Y824600D01*
X5364600D01*
X5194600Y1004600D02*
Y979200D01*
X5245400D01*
Y1004600D01*
X5270800D01*
Y1055400D01*
X5245400D01*
Y1080800D01*
X5194600D01*
Y1055400D01*
X5169200D01*
Y1004600D01*
X5194600D01*
X5153938Y822894D02*
Y797494D01*
X5204738D01*
Y822894D01*
X5230138D01*
Y873694D01*
X5204738D01*
Y899094D01*
X5153938D01*
Y873694D01*
X5128538D01*
Y822894D01*
X5153938D01*
X5839180Y2028554D02*
Y2003154D01*
X5889980D01*
Y2028554D01*
X5915380D01*
Y2079354D01*
X5889980D01*
Y2104754D01*
X5839180D01*
Y2079354D01*
X5813780D01*
Y2028554D01*
X5839180D01*
X5934600Y2013184D02*
Y1987784D01*
X5985400D01*
Y2013184D01*
X6010800D01*
Y2063984D01*
X5985400D01*
Y2089384D01*
X5934600D01*
Y2063984D01*
X5909200D01*
Y2013184D01*
X5934600D01*
X7094600Y2074600D02*
Y2049200D01*
X7145400D01*
Y2074600D01*
X7170800D01*
Y2125400D01*
X7145400D01*
Y2150800D01*
X7094600D01*
Y2125400D01*
X7069200D01*
Y2074600D01*
X7094600D01*
X7064600Y2164600D02*
Y2139200D01*
X7115400D01*
Y2164600D01*
X7140800D01*
Y2215400D01*
X7115400D01*
Y2240800D01*
X7064600D01*
Y2215400D01*
X7039200D01*
Y2164600D01*
X7064600D01*
X6934600D02*
Y2139200D01*
X6985400D01*
Y2164600D01*
X7010800D01*
Y2215400D01*
X6985400D01*
Y2240800D01*
X6934600D01*
Y2215400D01*
X6909200D01*
Y2164600D01*
X6934600D01*
Y2634600D02*
Y2609200D01*
X6985400D01*
Y2634600D01*
X7010800D01*
Y2685400D01*
X6985400D01*
Y2710800D01*
X6934600D01*
Y2685400D01*
X6909200D01*
Y2634600D01*
X6934600D01*
X7044600D02*
Y2609200D01*
X7095400D01*
Y2634600D01*
X7120800D01*
Y2685400D01*
X7095400D01*
Y2710800D01*
X7044600D01*
Y2685400D01*
X7019200D01*
Y2634600D01*
X7044600D01*
X6894600Y3034600D02*
Y3009200D01*
X6945400D01*
Y3034600D01*
X6970800D01*
Y3085400D01*
X6945400D01*
Y3110800D01*
X6894600D01*
Y3085400D01*
X6869200D01*
Y3034600D01*
X6894600D01*
X3844600Y4587100D02*
Y4561700D01*
X3895400D01*
Y4587100D01*
X3920800D01*
Y4637900D01*
X3895400D01*
Y4663300D01*
X3844600D01*
Y4637900D01*
X3819200D01*
Y4587100D01*
X3844600D01*
X4414600Y4334600D02*
Y4309200D01*
X4465400D01*
Y4334600D01*
X4490800D01*
Y4385400D01*
X4465400D01*
Y4410800D01*
X4414600D01*
Y4385400D01*
X4389200D01*
Y4334600D01*
X4414600D01*
X4657347Y1478002D02*
Y1452602D01*
X4708147D01*
Y1478002D01*
X4733547D01*
Y1528802D01*
X4708147D01*
Y1554202D01*
X4657347D01*
Y1528802D01*
X4631947D01*
Y1478002D01*
X4657347D01*
X7353377Y2873139D02*
Y2847739D01*
X7404177D01*
Y2873139D01*
X7429577D01*
Y2923939D01*
X7404177D01*
Y2949339D01*
X7353377D01*
Y2923939D01*
X7327977D01*
Y2873139D01*
X7353377D01*
X7354669Y1416014D02*
Y1390614D01*
X7405469D01*
Y1416014D01*
X7430869D01*
Y1466814D01*
X7405469D01*
Y1492214D01*
X7354669D01*
Y1466814D01*
X7329269D01*
Y1416014D01*
X7354669D01*
X7351772Y1926059D02*
Y1900659D01*
X7402572D01*
Y1926059D01*
X7427972D01*
Y1976859D01*
X7402572D01*
Y2002259D01*
X7351772D01*
Y1976859D01*
X7326372D01*
Y1926059D01*
X7351772D01*
X7398990Y1860014D02*
Y1834614D01*
X7449790D01*
Y1860014D01*
X7475190D01*
Y1910814D01*
X7449790D01*
Y1936214D01*
X7398990D01*
Y1910814D01*
X7373590D01*
Y1860014D01*
X7398990D01*
X6047413Y4536755D02*
Y4511355D01*
X6098213D01*
Y4536755D01*
X6123613D01*
Y4587555D01*
X6098213D01*
Y4612955D01*
X6047413D01*
Y4587555D01*
X6022013D01*
Y4536755D01*
X6047413D01*
X6117004Y4492997D02*
Y4467597D01*
X6167804D01*
Y4492997D01*
X6193204D01*
Y4543797D01*
X6167804D01*
Y4569197D01*
X6117004D01*
Y4543797D01*
X6091604D01*
Y4492997D01*
X6117004D01*
X6024600Y4654600D02*
Y4629200D01*
X6075400D01*
Y4654600D01*
X6100800D01*
Y4705400D01*
X6075400D01*
Y4730800D01*
X6024600D01*
Y4705400D01*
X5999200D01*
Y4654600D01*
X6024600D01*
X6564600Y4732100D02*
Y4706700D01*
X6615400D01*
Y4732100D01*
X6640800D01*
Y4782900D01*
X6615400D01*
Y4808300D01*
X6564600D01*
Y4782900D01*
X6539200D01*
Y4732100D01*
X6564600D01*
X6634600Y1174600D02*
Y1149200D01*
X6685400D01*
Y1174600D01*
X6710800D01*
Y1225400D01*
X6685400D01*
Y1250800D01*
X6634600D01*
Y1225400D01*
X6609200D01*
Y1174600D01*
X6634600D01*
Y1314600D02*
Y1289200D01*
X6685400D01*
Y1314600D01*
X6710800D01*
Y1365400D01*
X6685400D01*
Y1390800D01*
X6634600D01*
Y1365400D01*
X6609200D01*
Y1314600D01*
X6634600D01*
X5677923Y1934598D02*
Y1909198D01*
X5728723D01*
Y1934598D01*
X5754123D01*
Y1985398D01*
X5728723D01*
Y2010798D01*
X5677923D01*
Y1985398D01*
X5652523D01*
Y1934598D01*
X5677923D01*
X6695982Y3953218D02*
Y3927818D01*
X6746782D01*
Y3953218D01*
X6772182D01*
Y4004018D01*
X6746782D01*
Y4029418D01*
X6695982D01*
Y4004018D01*
X6670582D01*
Y3953218D01*
X6695982D01*
X6551080Y3841938D02*
Y3816538D01*
X6601880D01*
Y3841938D01*
X6627280D01*
Y3892738D01*
X6601880D01*
Y3918138D01*
X6551080D01*
Y3892738D01*
X6525680D01*
Y3841938D01*
X6551080D01*
X6559088Y3539115D02*
Y3513715D01*
X6609888D01*
Y3539115D01*
X6635288D01*
Y3589915D01*
X6609888D01*
Y3615315D01*
X6559088D01*
Y3589915D01*
X6533688D01*
Y3539115D01*
X6559088D01*
X6874600Y1154600D02*
Y1129200D01*
X6925400D01*
Y1154600D01*
X6950800D01*
Y1205400D01*
X6925400D01*
Y1230800D01*
X6874600D01*
Y1205400D01*
X6849200D01*
Y1154600D01*
X6874600D01*
X7618568Y1423824D02*
Y1398424D01*
X7669368D01*
Y1423824D01*
X7694768D01*
Y1474624D01*
X7669368D01*
Y1500024D01*
X7618568D01*
Y1474624D01*
X7593168D01*
Y1423824D01*
X7618568D01*
X7600805Y2022100D02*
Y1996700D01*
X7651605D01*
Y2022100D01*
X7677005D01*
Y2072900D01*
X7651605D01*
Y2098300D01*
X7600805D01*
Y2072900D01*
X7575405D01*
Y2022100D01*
X7600805D01*
X7603493Y2159988D02*
Y2134588D01*
X7654293D01*
Y2159988D01*
X7679693D01*
Y2210788D01*
X7654293D01*
Y2236188D01*
X7603493D01*
Y2210788D01*
X7578093D01*
Y2159988D01*
X7603493D01*
X7637879Y2558584D02*
Y2533184D01*
X7688679D01*
Y2558584D01*
X7714079D01*
Y2609384D01*
X7688679D01*
Y2634784D01*
X7637879D01*
Y2609384D01*
X7612479D01*
Y2558584D01*
X7637879D01*
X7648136Y2344898D02*
Y2319498D01*
X7698936D01*
Y2344898D01*
X7724336D01*
Y2395698D01*
X7698936D01*
Y2421098D01*
X7648136D01*
Y2395698D01*
X7622736D01*
Y2344898D01*
X7648136D01*
X7618568Y2413823D02*
Y2388423D01*
X7669368D01*
Y2413823D01*
X7694768D01*
Y2464623D01*
X7669368D01*
Y2490023D01*
X7618568D01*
Y2464623D01*
X7593168D01*
Y2413823D01*
X7618568D01*
X7634600Y2994600D02*
Y2969200D01*
X7685400D01*
Y2994600D01*
X7710800D01*
Y3045400D01*
X7685400D01*
Y3070800D01*
X7634600D01*
Y3045400D01*
X7609200D01*
Y2994600D01*
X7634600D01*
X7459712Y1631401D02*
Y1606001D01*
X7510512D01*
Y1631401D01*
X7535912D01*
Y1682201D01*
X7510512D01*
Y1707601D01*
X7459712D01*
Y1682201D01*
X7434312D01*
Y1631401D01*
X7459712D01*
X7365009Y1747027D02*
Y1721627D01*
X7415809D01*
Y1747027D01*
X7441209D01*
Y1797827D01*
X7415809D01*
Y1823227D01*
X7365009D01*
Y1797827D01*
X7339609D01*
Y1747027D01*
X7365009D01*
X7399723Y1680544D02*
Y1655144D01*
X7450523D01*
Y1680544D01*
X7475923D01*
Y1731344D01*
X7450523D01*
Y1756744D01*
X7399723D01*
Y1731344D01*
X7374323D01*
Y1680544D01*
X7399723D01*
X6734600Y1174600D02*
Y1149200D01*
X6785400D01*
Y1174600D01*
X6810800D01*
Y1225400D01*
X6785400D01*
Y1250800D01*
X6734600D01*
Y1225400D01*
X6709200D01*
Y1174600D01*
X6734600D01*
X4215181Y3445870D02*
Y3420470D01*
X4265981D01*
Y3445870D01*
X4291381D01*
Y3496670D01*
X4265981D01*
Y3522070D01*
X4215181D01*
Y3496670D01*
X4189781D01*
Y3445870D01*
X4215181D01*
X4152417Y3486927D02*
Y3461527D01*
X4203217D01*
Y3486927D01*
X4228617D01*
Y3537727D01*
X4203217D01*
Y3563127D01*
X4152417D01*
Y3537727D01*
X4127017D01*
Y3486927D01*
X4152417D01*
X4224600Y3364600D02*
Y3339200D01*
X4275400D01*
Y3364600D01*
X4300800D01*
Y3415400D01*
X4275400D01*
Y3440800D01*
X4224600D01*
Y3415400D01*
X4199200D01*
Y3364600D01*
X4224600D01*
X6567729Y3250307D02*
Y3224907D01*
X6618529D01*
Y3250307D01*
X6643929D01*
Y3301107D01*
X6618529D01*
Y3326507D01*
X6567729D01*
Y3301107D01*
X6542329D01*
Y3250307D01*
X6567729D01*
X4034600Y4704600D02*
Y4679200D01*
X4085400D01*
Y4704600D01*
X4110800D01*
Y4755400D01*
X4085400D01*
Y4780800D01*
X4034600D01*
Y4755400D01*
X4009200D01*
Y4704600D01*
X4034600D01*
X4024600Y4624600D02*
Y4599200D01*
X4075400D01*
Y4624600D01*
X4100800D01*
Y4675400D01*
X4075400D01*
Y4700800D01*
X4024600D01*
Y4675400D01*
X3999200D01*
Y4624600D01*
X4024600D01*
X3764600Y4574600D02*
Y4549200D01*
X3815400D01*
Y4574600D01*
X3840800D01*
Y4625400D01*
X3815400D01*
Y4650800D01*
X3764600D01*
Y4625400D01*
X3739200D01*
Y4574600D01*
X3764600D01*
X4624600Y884600D02*
Y859200D01*
X4675400D01*
Y884600D01*
X4700800D01*
Y935400D01*
X4675400D01*
Y960800D01*
X4624600D01*
Y935400D01*
X4599200D01*
Y884600D01*
X4624600D01*
X4674600Y824600D02*
Y799200D01*
X4725400D01*
Y824600D01*
X4750800D01*
Y875400D01*
X4725400D01*
Y900800D01*
X4674600D01*
Y875400D01*
X4649200D01*
Y824600D01*
X4674600D01*
X4856830Y925513D02*
Y900113D01*
X4907630D01*
Y925513D01*
X4933030D01*
Y976313D01*
X4907630D01*
Y1001713D01*
X4856830D01*
Y976313D01*
X4831430D01*
Y925513D01*
X4856830D01*
X4700505Y3706944D02*
Y3681544D01*
X4751305D01*
Y3706944D01*
X4776705D01*
Y3757744D01*
X4751305D01*
Y3783144D01*
X4700505D01*
Y3757744D01*
X4675105D01*
Y3706944D01*
X4700505D01*
X4763295Y3665926D02*
Y3640526D01*
X4814095D01*
Y3665926D01*
X4839495D01*
Y3716726D01*
X4814095D01*
Y3742126D01*
X4763295D01*
Y3716726D01*
X4737895D01*
Y3665926D01*
X4763295D01*
X3554600Y3334600D02*
Y3309200D01*
X3605400D01*
Y3334600D01*
X3630800D01*
Y3385400D01*
X3605400D01*
Y3410800D01*
X3554600D01*
Y3385400D01*
X3529200D01*
Y3334600D01*
X3554600D01*
X3614600Y4374600D02*
Y4349200D01*
X3665400D01*
Y4374600D01*
X3690800D01*
Y4425400D01*
X3665400D01*
Y4450800D01*
X3614600D01*
Y4425400D01*
X3589200D01*
Y4374600D01*
X3614600D01*
X8424600Y2874600D02*
Y2849200D01*
X8475400D01*
Y2874600D01*
X8500800D01*
Y2925400D01*
X8475400D01*
Y2950800D01*
X8424600D01*
Y2925400D01*
X8399200D01*
Y2874600D01*
X8424600D01*
X4874600Y1944600D02*
Y1919200D01*
X4925400D01*
Y1944600D01*
X4950800D01*
Y1995400D01*
X4925400D01*
Y2020800D01*
X4874600D01*
Y1995400D01*
X4849200D01*
Y1944600D01*
X4874600D01*
X2954600Y3834600D02*
Y3809200D01*
X3005400D01*
Y3834600D01*
X3030800D01*
Y3885400D01*
X3005400D01*
Y3910800D01*
X2954600D01*
Y3885400D01*
X2929200D01*
Y3834600D01*
X2954600D01*
X2614600Y4507433D02*
Y4482033D01*
X2665400D01*
Y4507433D01*
X2690800D01*
Y4558233D01*
X2665400D01*
Y4583633D01*
X2614600D01*
Y4558233D01*
X2589200D01*
Y4507433D01*
X2614600D01*
X6240222Y4528121D02*
Y4502721D01*
X6291022D01*
Y4528121D01*
X6316422D01*
Y4578921D01*
X6291022D01*
Y4604321D01*
X6240222D01*
Y4578921D01*
X6214822D01*
Y4528121D01*
X6240222D01*
X4374600Y3384600D02*
Y3359200D01*
X4425400D01*
Y3384600D01*
X4450800D01*
Y3435400D01*
X4425400D01*
Y3460800D01*
X4374600D01*
Y3435400D01*
X4349200D01*
Y3384600D01*
X4374600D01*
X4444747Y3309906D02*
Y3284506D01*
X4495547D01*
Y3309906D01*
X4520947D01*
Y3360706D01*
X4495547D01*
Y3386106D01*
X4444747D01*
Y3360706D01*
X4419347D01*
Y3309906D01*
X4444747D01*
X7134337Y4698583D02*
Y4673183D01*
X7185137D01*
Y4698583D01*
X7210537D01*
Y4749383D01*
X7185137D01*
Y4774783D01*
X7134337D01*
Y4749383D01*
X7108937D01*
Y4698583D01*
X7134337D01*
X6990127Y4729489D02*
Y4704089D01*
X7040927D01*
Y4729489D01*
X7066327D01*
Y4780289D01*
X7040927D01*
Y4805689D01*
X6990127D01*
Y4780289D01*
X6964727D01*
Y4729489D01*
X6990127D01*
X7023736Y4441248D02*
Y4415848D01*
X7074536D01*
Y4441248D01*
X7099936D01*
Y4492048D01*
X7074536D01*
Y4517448D01*
X7023736D01*
Y4492048D01*
X6998336D01*
Y4441248D01*
X7023736D01*
X7015726Y4364300D02*
Y4338900D01*
X7066526D01*
Y4364300D01*
X7091926D01*
Y4415100D01*
X7066526D01*
Y4440500D01*
X7015726D01*
Y4415100D01*
X6990326D01*
Y4364300D01*
X7015726D01*
X7514600Y4704600D02*
Y4679200D01*
X7565400D01*
Y4704600D01*
X7590800D01*
Y4755400D01*
X7565400D01*
Y4780800D01*
X7514600D01*
Y4755400D01*
X7489200D01*
Y4704600D01*
X7514600D01*
X7677100Y4804600D02*
Y4779200D01*
X7727900D01*
Y4804600D01*
X7753300D01*
Y4855400D01*
X7727900D01*
Y4880800D01*
X7677100D01*
Y4855400D01*
X7651700D01*
Y4804600D01*
X7677100D01*
X3514600Y1854600D02*
Y1829200D01*
X3565400D01*
Y1854600D01*
X3590800D01*
Y1905400D01*
X3565400D01*
Y1930800D01*
X3514600D01*
Y1905400D01*
X3489200D01*
Y1854600D01*
X3514600D01*
X5444600Y1594600D02*
Y1569200D01*
X5495400D01*
Y1594600D01*
X5520800D01*
Y1645400D01*
X5495400D01*
Y1670800D01*
X5444600D01*
Y1645400D01*
X5419200D01*
Y1594600D01*
X5444600D01*
X7647430Y1864600D02*
Y1839200D01*
X7698230D01*
Y1864600D01*
X7723630D01*
Y1915400D01*
X7698230D01*
Y1940800D01*
X7647430D01*
Y1915400D01*
X7622030D01*
Y1864600D01*
X7647430D01*
X7710377Y3765005D02*
Y3739605D01*
X7761177D01*
Y3765005D01*
X7786577D01*
Y3815805D01*
X7761177D01*
Y3841205D01*
X7710377D01*
Y3815805D01*
X7684977D01*
Y3765005D01*
X7710377D01*
X5294600Y2224600D02*
Y2199200D01*
X5345400D01*
Y2224600D01*
X5370800D01*
Y2275400D01*
X5345400D01*
Y2300800D01*
X5294600D01*
Y2275400D01*
X5269200D01*
Y2224600D01*
X5294600D01*
X4984600Y2424600D02*
Y2399200D01*
X5035400D01*
Y2424600D01*
X5060800D01*
Y2475400D01*
X5035400D01*
Y2500800D01*
X4984600D01*
Y2475400D01*
X4959200D01*
Y2424600D01*
X4984600D01*
X3444600Y3714433D02*
Y3689032D01*
X3495400D01*
Y3714433D01*
X3520800D01*
Y3765232D01*
X3495400D01*
Y3790633D01*
X3444600D01*
Y3765232D01*
X3419200D01*
Y3714433D01*
X3444600D01*
X2442398Y4181429D02*
Y4156029D01*
X2493198D01*
Y4181429D01*
X2518598D01*
Y4232229D01*
X2493198D01*
Y4257629D01*
X2442398D01*
Y4232229D01*
X2416998D01*
Y4181429D01*
X2442398D01*
X6852225Y2313352D02*
Y2287952D01*
X6903025D01*
Y2313352D01*
X6928425D01*
Y2364152D01*
X6903025D01*
Y2389552D01*
X6852225D01*
Y2364152D01*
X6826825D01*
Y2313352D01*
X6852225D01*
X6204600Y2664600D02*
Y2639200D01*
X6255400D01*
Y2664600D01*
X6280800D01*
Y2715400D01*
X6255400D01*
Y2740800D01*
X6204600D01*
Y2715400D01*
X6179200D01*
Y2664600D01*
X6204600D01*
X3633460Y3792100D02*
Y3766700D01*
X3684260D01*
Y3792100D01*
X3709660D01*
Y3842900D01*
X3684260D01*
Y3868300D01*
X3633460D01*
Y3842900D01*
X3608060D01*
Y3792100D01*
X3633460D01*
X5014600Y2814600D02*
Y2789200D01*
X5065400D01*
Y2814600D01*
X5090800D01*
Y2865400D01*
X5065400D01*
Y2890800D01*
X5014600D01*
Y2865400D01*
X4989200D01*
Y2814600D01*
X5014600D01*
X4394600Y2734600D02*
Y2709200D01*
X4445400D01*
Y2734600D01*
X4470800D01*
Y2785400D01*
X4445400D01*
Y2810800D01*
X4394600D01*
Y2785400D01*
X4369200D01*
Y2734600D01*
X4394600D01*
X4612853Y3554786D02*
Y3529386D01*
X4663653D01*
Y3554786D01*
X4689053D01*
Y3605586D01*
X4663653D01*
Y3630986D01*
X4612853D01*
Y3605586D01*
X4587453D01*
Y3554786D01*
X4612853D01*
X6665350Y3046693D02*
Y3021293D01*
X6716150D01*
Y3046693D01*
X6741550D01*
Y3097493D01*
X6716150D01*
Y3122893D01*
X6665350D01*
Y3097493D01*
X6639950D01*
Y3046693D01*
X6665350D01*
X2482830Y4297475D02*
Y4272075D01*
X2533630D01*
Y4297475D01*
X2559030D01*
Y4348275D01*
X2533630D01*
Y4373675D01*
X2482830D01*
Y4348275D01*
X2457430D01*
Y4297475D01*
X2482830D01*
X5724600Y1644600D02*
Y1619200D01*
X5775400D01*
Y1644600D01*
X5800800D01*
Y1695400D01*
X5775400D01*
Y1720800D01*
X5724600D01*
Y1695400D01*
X5699200D01*
Y1644600D01*
X5724600D01*
X5722273Y1516587D02*
Y1491187D01*
X5773073D01*
Y1516587D01*
X5798473D01*
Y1567387D01*
X5773073D01*
Y1592787D01*
X5722273D01*
Y1567387D01*
X5696873D01*
Y1516587D01*
X5722273D01*
X5754600Y2461150D02*
Y2435750D01*
X5805400D01*
Y2461150D01*
X5830800D01*
Y2511950D01*
X5805400D01*
Y2537350D01*
X5754600D01*
Y2511950D01*
X5729200D01*
Y2461150D01*
X5754600D01*
X4474600Y2294600D02*
Y2269200D01*
X4525400D01*
Y2294600D01*
X4550800D01*
Y2345400D01*
X4525400D01*
Y2370800D01*
X4474600D01*
Y2345400D01*
X4449200D01*
Y2294600D01*
X4474600D01*
X4890175Y1673920D02*
Y1648520D01*
X4940975D01*
Y1673920D01*
X4966375D01*
Y1724720D01*
X4940975D01*
Y1750120D01*
X4890175D01*
Y1724720D01*
X4864775D01*
Y1673920D01*
X4890175D01*
X1860352Y1038849D02*
Y1013449D01*
X1911152D01*
Y1038849D01*
X1936552D01*
Y1089649D01*
X1911152D01*
Y1115049D01*
X1860352D01*
Y1089649D01*
X1834952D01*
Y1038849D01*
X1860352D01*
X1884600Y1124600D02*
Y1099200D01*
X1935400D01*
Y1124600D01*
X1960800D01*
Y1175400D01*
X1935400D01*
Y1200800D01*
X1884600D01*
Y1175400D01*
X1859200D01*
Y1124600D01*
X1884600D01*
X4992032Y3964117D02*
Y3938717D01*
X5042832D01*
Y3964117D01*
X5068232D01*
Y4014917D01*
X5042832D01*
Y4040317D01*
X4992032D01*
Y4014917D01*
X4966632D01*
Y3964117D01*
X4992032D01*
X7722100Y1483548D02*
Y1458148D01*
X7772900D01*
Y1483548D01*
X7798300D01*
Y1534348D01*
X7772900D01*
Y1559748D01*
X7722100D01*
Y1534348D01*
X7696700D01*
Y1483548D01*
X7722100D01*
X7603493Y1679988D02*
Y1654588D01*
X7654293D01*
Y1679988D01*
X7679693D01*
Y1730788D01*
X7654293D01*
Y1756188D01*
X7603493D01*
Y1730788D01*
X7578093D01*
Y1679988D01*
X7603493D01*
X1822487Y1659774D02*
Y1634374D01*
X1873287D01*
Y1659774D01*
X1898687D01*
Y1710574D01*
X1873287D01*
Y1735974D01*
X1822487D01*
Y1710574D01*
X1797087D01*
Y1659774D01*
X1822487D01*
X3484206Y1548440D02*
Y1523040D01*
X3535006D01*
Y1548440D01*
X3560406D01*
Y1599240D01*
X3535006D01*
Y1624640D01*
X3484206D01*
Y1599240D01*
X3458806D01*
Y1548440D01*
X3484206D01*
X4623605Y984600D02*
Y959200D01*
X4674405D01*
Y984600D01*
X4699805D01*
Y1035400D01*
X4674405D01*
Y1060800D01*
X4623605D01*
Y1035400D01*
X4598205D01*
Y984600D01*
X4623605D01*
X7399000Y4673756D02*
Y4648356D01*
X7449800D01*
Y4673756D01*
X7475200D01*
Y4724556D01*
X7449800D01*
Y4749956D01*
X7399000D01*
Y4724556D01*
X7373600D01*
Y4673756D01*
X7399000D01*
X7302919Y4821100D02*
Y4795700D01*
X7353719D01*
Y4821100D01*
X7379119D01*
Y4871900D01*
X7353719D01*
Y4897300D01*
X7302919D01*
Y4871900D01*
X7277519D01*
Y4821100D01*
X7302919D01*
X7314600Y4674600D02*
Y4649200D01*
X7365400D01*
Y4674600D01*
X7390800D01*
Y4725400D01*
X7365400D01*
Y4750800D01*
X7314600D01*
Y4725400D01*
X7289200D01*
Y4674600D01*
X7314600D01*
X5797216Y3044665D02*
Y3019265D01*
X5848016D01*
Y3044665D01*
X5873416D01*
Y3095465D01*
X5848016D01*
Y3120865D01*
X5797216D01*
Y3095465D01*
X5771816D01*
Y3044665D01*
X5797216D01*
X6429105Y1646141D02*
Y1620741D01*
X6479905D01*
Y1646141D01*
X6505305D01*
Y1696941D01*
X6479905D01*
Y1722341D01*
X6429105D01*
Y1696941D01*
X6403705D01*
Y1646141D01*
X6429105D01*
X2414600Y1584600D02*
Y1559200D01*
X2465400D01*
Y1584600D01*
X2490800D01*
Y1635400D01*
X2465400D01*
Y1660800D01*
X2414600D01*
Y1635400D01*
X2389200D01*
Y1584600D01*
X2414600D01*
X2154600Y2284600D02*
Y2259200D01*
X2205400D01*
Y2284600D01*
X2230800D01*
Y2335400D01*
X2205400D01*
Y2360800D01*
X2154600D01*
Y2335400D01*
X2129200D01*
Y2284600D01*
X2154600D01*
X7393279Y2339807D02*
Y2314407D01*
X7444079D01*
Y2339807D01*
X7469479D01*
Y2390607D01*
X7444079D01*
Y2416007D01*
X7393279D01*
Y2390607D01*
X7367879D01*
Y2339807D01*
X7393279D01*
X7343041Y2395495D02*
Y2370095D01*
X7393841D01*
Y2395495D01*
X7419241D01*
Y2446295D01*
X7393841D01*
Y2471695D01*
X7343041D01*
Y2446295D01*
X7317641D01*
Y2395495D01*
X7343041D01*
X6302543Y4583469D02*
Y4558069D01*
X6353343D01*
Y4583469D01*
X6378743D01*
Y4634269D01*
X6353343D01*
Y4659669D01*
X6302543D01*
Y4634269D01*
X6277143D01*
Y4583469D01*
X6302543D01*
X7034600Y3394600D02*
Y3369200D01*
X7085400D01*
Y3394600D01*
X7110800D01*
Y3445400D01*
X7085400D01*
Y3470800D01*
X7034600D01*
Y3445400D01*
X7009200D01*
Y3394600D01*
X7034600D01*
X7004600Y3484600D02*
Y3459200D01*
X7055400D01*
Y3484600D01*
X7080800D01*
Y3535400D01*
X7055400D01*
Y3560800D01*
X7004600D01*
Y3535400D01*
X6979200D01*
Y3484600D01*
X7004600D01*
X6864600Y3624600D02*
Y3599200D01*
X6915400D01*
Y3624600D01*
X6940800D01*
Y3675400D01*
X6915400D01*
Y3700800D01*
X6864600D01*
Y3675400D01*
X6839200D01*
Y3624600D01*
X6864600D01*
X7480334Y3303338D02*
Y3277938D01*
X7531134D01*
Y3303338D01*
X7556534D01*
Y3354138D01*
X7531134D01*
Y3379538D01*
X7480334D01*
Y3354138D01*
X7454934D01*
Y3303338D01*
X7480334D01*
X6700893Y3715010D02*
Y3689610D01*
X6751693D01*
Y3715010D01*
X6777093D01*
Y3765810D01*
X6751693D01*
Y3791210D01*
X6700893D01*
Y3765810D01*
X6675493D01*
Y3715010D01*
X6700893D01*
X7424600Y3884600D02*
Y3859200D01*
X7475400D01*
Y3884600D01*
X7500800D01*
Y3935400D01*
X7475400D01*
Y3960800D01*
X7424600D01*
Y3935400D01*
X7399200D01*
Y3884600D01*
X7424600D01*
X7434643Y3804600D02*
Y3779200D01*
X7485443D01*
Y3804600D01*
X7510843D01*
Y3855400D01*
X7485443D01*
Y3880800D01*
X7434643D01*
Y3855400D01*
X7409243D01*
Y3804600D01*
X7434643D01*
X7434600Y3724600D02*
Y3699200D01*
X7485400D01*
Y3724600D01*
X7510800D01*
Y3775400D01*
X7485400D01*
Y3800800D01*
X7434600D01*
Y3775400D01*
X7409200D01*
Y3724600D01*
X7434600D01*
X7288682Y3598587D02*
Y3573187D01*
X7339482D01*
Y3598587D01*
X7364882D01*
Y3649387D01*
X7339482D01*
Y3674787D01*
X7288682D01*
Y3649387D01*
X7263282D01*
Y3598587D01*
X7288682D01*
X7042766Y3943768D02*
Y3918368D01*
X7093566D01*
Y3943768D01*
X7118966D01*
Y3994568D01*
X7093566D01*
Y4019968D01*
X7042766D01*
Y3994568D01*
X7017366D01*
Y3943768D01*
X7042766D01*
X7194600Y3694600D02*
Y3669200D01*
X7245400D01*
Y3694600D01*
X7270800D01*
Y3745400D01*
X7245400D01*
Y3770800D01*
X7194600D01*
Y3745400D01*
X7169200D01*
Y3694600D01*
X7194600D01*
X7174600Y3584600D02*
Y3559200D01*
X7225400D01*
Y3584600D01*
X7250800D01*
Y3635400D01*
X7225400D01*
Y3660800D01*
X7174600D01*
Y3635400D01*
X7149200D01*
Y3584600D01*
X7174600D01*
X7393358Y3969581D02*
Y3944181D01*
X7444158D01*
Y3969581D01*
X7469558D01*
Y4020381D01*
X7444158D01*
Y4045781D01*
X7393358D01*
Y4020381D01*
X7367958D01*
Y3969581D01*
X7393358D01*
X7844600Y4054600D02*
Y4029200D01*
X7895400D01*
Y4054600D01*
X7920800D01*
Y4105400D01*
X7895400D01*
Y4130800D01*
X7844600D01*
Y4105400D01*
X7819200D01*
Y4054600D01*
X7844600D01*
X8499422Y4996088D02*
Y4970688D01*
X8550222D01*
Y4996088D01*
X8575622D01*
Y5046888D01*
X8550222D01*
Y5072288D01*
X8499422D01*
Y5046888D01*
X8474022D01*
Y4996088D01*
X8499422D01*
X7114600Y3664600D02*
Y3639200D01*
X7165400D01*
Y3664600D01*
X7190800D01*
Y3715400D01*
X7165400D01*
Y3740800D01*
X7114600D01*
Y3715400D01*
X7089200D01*
Y3664600D01*
X7114600D01*
X8442229Y2517686D02*
Y2492286D01*
X8493029D01*
Y2517686D01*
X8518429D01*
Y2568486D01*
X8493029D01*
Y2593886D01*
X8442229D01*
Y2568486D01*
X8416829D01*
Y2517686D01*
X8442229D01*
X7534600Y3364600D02*
Y3339200D01*
X7585400D01*
Y3364600D01*
X7610800D01*
Y3415400D01*
X7585400D01*
Y3440800D01*
X7534600D01*
Y3415400D01*
X7509200D01*
Y3364600D01*
X7534600D01*
X8034600Y2894600D02*
Y2869200D01*
X8085400D01*
Y2894600D01*
X8110800D01*
Y2945400D01*
X8085400D01*
Y2970800D01*
X8034600D01*
Y2945400D01*
X8009200D01*
Y2894600D01*
X8034600D01*
X8275641Y2632570D02*
Y2607170D01*
X8326441D01*
Y2632570D01*
X8351841D01*
Y2683370D01*
X8326441D01*
Y2708770D01*
X8275641D01*
Y2683370D01*
X8250241D01*
Y2632570D01*
X8275641D01*
X7474600Y3414600D02*
Y3389200D01*
X7525400D01*
Y3414600D01*
X7550800D01*
Y3465400D01*
X7525400D01*
Y3490800D01*
X7474600D01*
Y3465400D01*
X7449200D01*
Y3414600D01*
X7474600D01*
X7618568Y2883824D02*
Y2858424D01*
X7669368D01*
Y2883824D01*
X7694768D01*
Y2934624D01*
X7669368D01*
Y2960024D01*
X7618568D01*
Y2934624D01*
X7593168D01*
Y2883824D01*
X7618568D01*
X7648136Y2814898D02*
Y2789498D01*
X7698936D01*
Y2814898D01*
X7724336D01*
Y2865698D01*
X7698936D01*
Y2891098D01*
X7648136D01*
Y2865698D01*
X7622736D01*
Y2814898D01*
X7648136D01*
X8166420Y2524528D02*
Y2499128D01*
X8217220D01*
Y2524528D01*
X8242620D01*
Y2575328D01*
X8217220D01*
Y2600728D01*
X8166420D01*
Y2575328D01*
X8141020D01*
Y2524528D01*
X8166420D01*
X8013942Y2493942D02*
Y2468542D01*
X8064742D01*
Y2493942D01*
X8090142D01*
Y2544742D01*
X8064742D01*
Y2570142D01*
X8013942D01*
Y2544742D01*
X7988542D01*
Y2493942D01*
X8013942D01*
X8517036Y2556221D02*
Y2530821D01*
X8567836D01*
Y2556221D01*
X8593236D01*
Y2607021D01*
X8567836D01*
Y2632421D01*
X8517036D01*
Y2607021D01*
X8491636D01*
Y2556221D01*
X8517036D01*
X6864600Y3254600D02*
Y3229200D01*
X6915400D01*
Y3254600D01*
X6940800D01*
Y3305400D01*
X6915400D01*
Y3330800D01*
X6864600D01*
Y3305400D01*
X6839200D01*
Y3254600D01*
X6864600D01*
X7414600D02*
Y3229200D01*
X7465400D01*
Y3254600D01*
X7490800D01*
Y3305400D01*
X7465400D01*
Y3330800D01*
X7414600D01*
Y3305400D01*
X7389200D01*
Y3254600D01*
X7414600D01*
X6818292Y3706814D02*
Y3681414D01*
X6869092D01*
Y3706814D01*
X6894492D01*
Y3757614D01*
X6869092D01*
Y3783014D01*
X6818292D01*
Y3757614D01*
X6792892D01*
Y3706814D01*
X6818292D01*
X7104600Y4004600D02*
Y3979200D01*
X7155400D01*
Y4004600D01*
X7180800D01*
Y4055400D01*
X7155400D01*
Y4080800D01*
X7104600D01*
Y4055400D01*
X7079200D01*
Y4004600D01*
X7104600D01*
X7164600Y4054600D02*
Y4029200D01*
X7215400D01*
Y4054600D01*
X7240800D01*
Y4105400D01*
X7215400D01*
Y4130800D01*
X7164600D01*
Y4105400D01*
X7139200D01*
Y4054600D01*
X7164600D01*
X7043032Y3724856D02*
Y3699456D01*
X7093832D01*
Y3724856D01*
X7119232D01*
Y3775656D01*
X7093832D01*
Y3801056D01*
X7043032D01*
Y3775656D01*
X7017632D01*
Y3724856D01*
X7043032D01*
X6254600Y3384600D02*
Y3359200D01*
X6305400D01*
Y3384600D01*
X6330800D01*
Y3435400D01*
X6305400D01*
Y3460800D01*
X6254600D01*
Y3435400D01*
X6229200D01*
Y3384600D01*
X6254600D01*
X6713205Y3637804D02*
Y3612404D01*
X6764005D01*
Y3637804D01*
X6789405D01*
Y3688604D01*
X6764005D01*
Y3714004D01*
X6713205D01*
Y3688604D01*
X6687805D01*
Y3637804D01*
X6713205D01*
X6794600Y3314600D02*
Y3289200D01*
X6845400D01*
Y3314600D01*
X6870800D01*
Y3365400D01*
X6845400D01*
Y3390800D01*
X6794600D01*
Y3365400D01*
X6769200D01*
Y3314600D01*
X6794600D01*
X6764600Y3164600D02*
Y3139200D01*
X6815400D01*
Y3164600D01*
X6840800D01*
Y3215400D01*
X6815400D01*
Y3240800D01*
X6764600D01*
Y3215400D01*
X6739200D01*
Y3164600D01*
X6764600D01*
X7665919Y4234199D02*
Y4208799D01*
X7716719D01*
Y4234199D01*
X7742119D01*
Y4284999D01*
X7716719D01*
Y4310399D01*
X7665919D01*
Y4284999D01*
X7640519D01*
Y4234199D01*
X7665919D01*
X7399722Y2630543D02*
Y2605143D01*
X7450522D01*
Y2630543D01*
X7475922D01*
Y2681343D01*
X7450522D01*
Y2706743D01*
X7399722D01*
Y2681343D01*
X7374322D01*
Y2630543D01*
X7399722D01*
X7603493Y2629988D02*
Y2604588D01*
X7654293D01*
Y2629988D01*
X7679693D01*
Y2680788D01*
X7654293D01*
Y2706188D01*
X7603493D01*
Y2680788D01*
X7578093D01*
Y2629988D01*
X7603493D01*
X8185173Y2200434D02*
Y2175034D01*
X8235973D01*
Y2200434D01*
X8261373D01*
Y2251234D01*
X8235973D01*
Y2276634D01*
X8185173D01*
Y2251234D01*
X8159773D01*
Y2200434D01*
X8185173D01*
X8234600Y1914600D02*
Y1889200D01*
X8285400D01*
Y1914600D01*
X8310800D01*
Y1965400D01*
X8285400D01*
Y1990800D01*
X8234600D01*
Y1965400D01*
X8209200D01*
Y1914600D01*
X8234600D01*
X5724600Y1204600D02*
Y1179200D01*
X5775400D01*
Y1204600D01*
X5800800D01*
Y1255400D01*
X5775400D01*
Y1280800D01*
X5724600D01*
Y1255400D01*
X5699200D01*
Y1204600D01*
X5724600D01*
X5611320Y2309600D02*
Y2284200D01*
X5662120D01*
Y2309600D01*
X5687520D01*
Y2360400D01*
X5662120D01*
Y2385800D01*
X5611320D01*
Y2360400D01*
X5585920D01*
Y2309600D01*
X5611320D01*
X5404600Y2424600D02*
Y2399200D01*
X5455400D01*
Y2424600D01*
X5480800D01*
Y2475400D01*
X5455400D01*
Y2500800D01*
X5404600D01*
Y2475400D01*
X5379200D01*
Y2424600D01*
X5404600D01*
X5422100Y3181421D02*
Y3156021D01*
X5472900D01*
Y3181421D01*
X5498300D01*
Y3232221D01*
X5472900D01*
Y3257621D01*
X5422100D01*
Y3232221D01*
X5396700D01*
Y3181421D01*
X5422100D01*
X3984602Y1044600D02*
Y1019200D01*
X4035402D01*
Y1044600D01*
X4060802D01*
Y1095400D01*
X4035402D01*
Y1120800D01*
X3984602D01*
Y1095400D01*
X3959202D01*
Y1044600D01*
X3984602D01*
X6804982Y2254900D02*
Y2229500D01*
X6855782D01*
Y2254900D01*
X6881182D01*
Y2305700D01*
X6855782D01*
Y2331100D01*
X6804982D01*
Y2305700D01*
X6779582D01*
Y2254900D01*
X6804982D01*
X6614600Y2074600D02*
Y2049200D01*
X6665400D01*
Y2074600D01*
X6690800D01*
Y2125400D01*
X6665400D01*
Y2150800D01*
X6614600D01*
Y2125400D01*
X6589200D01*
Y2074600D01*
X6614600D01*
X6874599Y2004526D02*
Y1979126D01*
X6925399D01*
Y2004526D01*
X6950799D01*
Y2055326D01*
X6925399D01*
Y2080726D01*
X6874599D01*
Y2055326D01*
X6849199D01*
Y2004526D01*
X6874599D01*
X6844600Y1924600D02*
Y1899200D01*
X6895400D01*
Y1924600D01*
X6920800D01*
Y1975400D01*
X6895400D01*
Y2000800D01*
X6844600D01*
Y1975400D01*
X6819200D01*
Y1924600D01*
X6844600D01*
X6574784Y964600D02*
Y939200D01*
X6625584D01*
Y964600D01*
X6650984D01*
Y1015400D01*
X6625584D01*
Y1040800D01*
X6574784D01*
Y1015400D01*
X6549384D01*
Y964600D01*
X6574784D01*
X6557100Y4374600D02*
Y4349200D01*
X6607900D01*
Y4374600D01*
X6633300D01*
Y4425400D01*
X6607900D01*
Y4450800D01*
X6557100D01*
Y4425400D01*
X6531700D01*
Y4374600D01*
X6557100D01*
Y4184600D02*
Y4159200D01*
X6607900D01*
Y4184600D01*
X6633300D01*
Y4235400D01*
X6607900D01*
Y4260800D01*
X6557100D01*
Y4235400D01*
X6531700D01*
Y4184600D01*
X6557100D01*
Y4454600D02*
Y4429200D01*
X6607900D01*
Y4454600D01*
X6633300D01*
Y4505400D01*
X6607900D01*
Y4530800D01*
X6557100D01*
Y4505400D01*
X6531700D01*
Y4454600D01*
X6557100D01*
X5844600Y4584600D02*
Y4559200D01*
X5895400D01*
Y4584600D01*
X5920800D01*
Y4635400D01*
X5895400D01*
Y4660800D01*
X5844600D01*
Y4635400D01*
X5819200D01*
Y4584600D01*
X5844600D01*
X6124600D02*
Y4559200D01*
X6175400D01*
Y4584600D01*
X6200800D01*
Y4635400D01*
X6175400D01*
Y4660800D01*
X6124600D01*
Y4635400D01*
X6099200D01*
Y4584600D01*
X6124600D01*
X6694600Y1734600D02*
Y1709200D01*
X6745400D01*
Y1734600D01*
X6770800D01*
Y1785400D01*
X6745400D01*
Y1810800D01*
X6694600D01*
Y1785400D01*
X6669200D01*
Y1734600D01*
X6694600D01*
X5724600Y1304600D02*
Y1279200D01*
X5775400D01*
Y1304600D01*
X5800800D01*
Y1355400D01*
X5775400D01*
Y1380800D01*
X5724600D01*
Y1355400D01*
X5699200D01*
Y1304600D01*
X5724600D01*
X5634600Y1474600D02*
Y1449200D01*
X5685400D01*
Y1474600D01*
X5710800D01*
Y1525400D01*
X5685400D01*
Y1550800D01*
X5634600D01*
Y1525400D01*
X5609200D01*
Y1474600D01*
X5634600D01*
X6864599Y2495100D02*
Y2469700D01*
X6915399D01*
Y2495100D01*
X6940799D01*
Y2545900D01*
X6915399D01*
Y2571300D01*
X6864599D01*
Y2545900D01*
X6839199D01*
Y2495100D01*
X6864599D01*
X7224600Y3034600D02*
Y3009200D01*
X7275400D01*
Y3034600D01*
X7300800D01*
Y3085400D01*
X7275400D01*
Y3110800D01*
X7224600D01*
Y3085400D01*
X7199200D01*
Y3034600D01*
X7224600D01*
X6584600Y4304600D02*
Y4279200D01*
X6635400D01*
Y4304600D01*
X6660800D01*
Y4355400D01*
X6635400D01*
Y4380800D01*
X6584600D01*
Y4355400D01*
X6559200D01*
Y4304600D01*
X6584600D01*
X7534600Y4274600D02*
Y4249200D01*
X7585400D01*
Y4274600D01*
X7610800D01*
Y4325400D01*
X7585400D01*
Y4350800D01*
X7534600D01*
Y4325400D01*
X7509200D01*
Y4274600D01*
X7534600D01*
X6744600Y2784600D02*
Y2759200D01*
X6795400D01*
Y2784600D01*
X6820800D01*
Y2835400D01*
X6795400D01*
Y2860800D01*
X6744600D01*
Y2835400D01*
X6719200D01*
Y2784600D01*
X6744600D01*
X7314600Y4154600D02*
Y4129200D01*
X7365400D01*
Y4154600D01*
X7390800D01*
Y4205400D01*
X7365400D01*
Y4230800D01*
X7314600D01*
Y4205400D01*
X7289200D01*
Y4154600D01*
X7314600D01*
X7616190Y2233905D02*
Y2208505D01*
X7666990D01*
Y2233905D01*
X7692390D01*
Y2284705D01*
X7666990D01*
Y2310105D01*
X7616190D01*
Y2284705D01*
X7590790D01*
Y2233905D01*
X7616190D01*
X6894600Y1564600D02*
Y1539200D01*
X6945400D01*
Y1564600D01*
X6970800D01*
Y1615400D01*
X6945400D01*
Y1640800D01*
X6894600D01*
Y1615400D01*
X6869200D01*
Y1564600D01*
X6894600D01*
X7064600Y894600D02*
Y869200D01*
X7115400D01*
Y894600D01*
X7140800D01*
Y945400D01*
X7115400D01*
Y970800D01*
X7064600D01*
Y945400D01*
X7039200D01*
Y894600D01*
X7064600D01*
X6594600Y794600D02*
Y769200D01*
X6645400D01*
Y794600D01*
X6670800D01*
Y845400D01*
X6645400D01*
Y870800D01*
X6594600D01*
Y845400D01*
X6569200D01*
Y794600D01*
X6594600D01*
X8234600Y4204600D02*
Y4179200D01*
X8285400D01*
Y4204600D01*
X8310800D01*
Y4255400D01*
X8285400D01*
Y4280800D01*
X8234600D01*
Y4255400D01*
X8209200D01*
Y4204600D01*
X8234600D01*
X5974600Y2544602D02*
Y2519202D01*
X6025400D01*
Y2544602D01*
X6050800D01*
Y2595402D01*
X6025400D01*
Y2620802D01*
X5974600D01*
Y2595402D01*
X5949200D01*
Y2544602D01*
X5974600D01*
X4844600Y824600D02*
Y799200D01*
X4895400D01*
Y824600D01*
X4920800D01*
Y875400D01*
X4895400D01*
Y900800D01*
X4844600D01*
Y875400D01*
X4819200D01*
Y824600D01*
X4844600D01*
X5004600D02*
Y799200D01*
X5055400D01*
Y824600D01*
X5080800D01*
Y875400D01*
X5055400D01*
Y900800D01*
X5004600D01*
Y875400D01*
X4979200D01*
Y824600D01*
X5004600D01*
X6934600Y4174600D02*
Y4149200D01*
X6985400D01*
Y4174600D01*
X7010800D01*
Y4225400D01*
X6985400D01*
Y4250800D01*
X6934600D01*
Y4225400D01*
X6909200D01*
Y4174600D01*
X6934600D01*
X7389600Y844898D02*
Y819498D01*
X7440400D01*
Y844898D01*
X7465800D01*
Y895698D01*
X7440400D01*
Y921098D01*
X7389600D01*
Y895698D01*
X7364200D01*
Y844898D01*
X7389600D01*
X7398990Y1350013D02*
Y1324613D01*
X7449790D01*
Y1350013D01*
X7475190D01*
Y1400813D01*
X7449790D01*
Y1426213D01*
X7398990D01*
Y1400813D01*
X7373590D01*
Y1350013D01*
X7398990D01*
X6861567Y957633D02*
Y932233D01*
X6912367D01*
Y957633D01*
X6937767D01*
Y1008433D01*
X6912367D01*
Y1033833D01*
X6861567D01*
Y1008433D01*
X6836167D01*
Y957633D01*
X6861567D01*
X6914600Y904600D02*
Y879200D01*
X6965400D01*
Y904600D01*
X6990800D01*
Y955400D01*
X6965400D01*
Y980800D01*
X6914600D01*
Y955400D01*
X6889200D01*
Y904600D01*
X6914600D01*
Y734600D02*
Y709200D01*
X6965400D01*
Y734600D01*
X6990800D01*
Y785400D01*
X6965400D01*
Y810800D01*
X6914600D01*
Y785400D01*
X6889200D01*
Y734600D01*
X6914600D01*
X7392477Y666723D02*
Y641323D01*
X7443277D01*
Y666723D01*
X7468677D01*
Y717523D01*
X7443277D01*
Y742923D01*
X7392477D01*
Y717523D01*
X7367077D01*
Y666723D01*
X7392477D01*
X7346190Y733905D02*
Y708505D01*
X7396990D01*
Y733905D01*
X7422390D01*
Y784705D01*
X7396990D01*
Y810105D01*
X7346190D01*
Y784705D01*
X7320790D01*
Y733905D01*
X7346190D01*
X7864600Y644600D02*
Y619200D01*
X7915400D01*
Y644600D01*
X7940800D01*
Y695400D01*
X7915400D01*
Y720800D01*
X7864600D01*
Y695400D01*
X7839200D01*
Y644600D01*
X7864600D01*
X7806190Y693905D02*
Y668505D01*
X7856990D01*
Y693905D01*
X7882390D01*
Y744705D01*
X7856990D01*
Y770105D01*
X7806190D01*
Y744705D01*
X7780790D01*
Y693905D01*
X7806190D01*
X7804600Y864600D02*
Y839200D01*
X7855400D01*
Y864600D01*
X7880800D01*
Y915400D01*
X7855400D01*
Y940800D01*
X7804600D01*
Y915400D01*
X7779200D01*
Y864600D01*
X7804600D01*
X7864600Y804898D02*
Y779498D01*
X7915400D01*
Y804898D01*
X7940800D01*
Y855698D01*
X7915400D01*
Y881098D01*
X7864600D01*
Y855698D01*
X7839200D01*
Y804898D01*
X7864600D01*
X7344457Y904790D02*
Y879390D01*
X7395257D01*
Y904790D01*
X7420657D01*
Y955590D01*
X7395257D01*
Y980990D01*
X7344457D01*
Y955590D01*
X7319057D01*
Y904790D01*
X7344457D01*
X2844600Y3054600D02*
Y3029200D01*
X2895400D01*
Y3054600D01*
X2920800D01*
Y3105400D01*
X2895400D01*
Y3130800D01*
X2844600D01*
Y3105400D01*
X2819200D01*
Y3054600D01*
X2844600D01*
X3474600Y3244600D02*
Y3219200D01*
X3525400D01*
Y3244600D01*
X3550800D01*
Y3295400D01*
X3525400D01*
Y3320800D01*
X3474600D01*
Y3295400D01*
X3449200D01*
Y3244600D01*
X3474600D01*
X2924600Y3124600D02*
Y3099200D01*
X2975400D01*
Y3124600D01*
X3000800D01*
Y3175400D01*
X2975400D01*
Y3200800D01*
X2924600D01*
Y3175400D01*
X2899200D01*
Y3124600D01*
X2924600D01*
X3305258Y2905259D02*
Y2879859D01*
X3356058D01*
Y2905259D01*
X3381458D01*
Y2956059D01*
X3356058D01*
Y2981459D01*
X3305258D01*
Y2956059D01*
X3279858D01*
Y2905259D01*
X3305258D01*
X4224600Y2714600D02*
Y2689200D01*
X4275400D01*
Y2714600D01*
X4300800D01*
Y2765400D01*
X4275400D01*
Y2790800D01*
X4224600D01*
Y2765400D01*
X4199200D01*
Y2714600D01*
X4224600D01*
X4634600Y2634600D02*
Y2609200D01*
X4685400D01*
Y2634600D01*
X4710800D01*
Y2685400D01*
X4685400D01*
Y2710800D01*
X4634600D01*
Y2685400D01*
X4609200D01*
Y2634600D01*
X4634600D01*
X5364600Y2814600D02*
Y2789200D01*
X5415400D01*
Y2814600D01*
X5440800D01*
Y2865400D01*
X5415400D01*
Y2890800D01*
X5364600D01*
Y2865400D01*
X5339200D01*
Y2814600D01*
X5364600D01*
X2374600Y2404600D02*
Y2379200D01*
X2425400D01*
Y2404600D01*
X2450800D01*
Y2455400D01*
X2425400D01*
Y2480800D01*
X2374600D01*
Y2455400D01*
X2349200D01*
Y2404600D01*
X2374600D01*
X3514600Y764600D02*
Y739200D01*
X3565400D01*
Y764600D01*
X3590800D01*
Y815400D01*
X3565400D01*
Y840800D01*
X3514600D01*
Y815400D01*
X3489200D01*
Y764600D01*
X3514600D01*
X6648990Y900013D02*
Y874613D01*
X6699790D01*
Y900013D01*
X6725190D01*
Y950813D01*
X6699790D01*
Y976213D01*
X6648990D01*
Y950813D01*
X6623590D01*
Y900013D01*
X6648990D01*
X6866190Y793905D02*
Y768505D01*
X6916990D01*
Y793905D01*
X6942390D01*
Y844705D01*
X6916990D01*
Y870105D01*
X6866190D01*
Y844705D01*
X6840790D01*
Y793905D01*
X6866190D01*
X7129723Y660544D02*
Y635144D01*
X7180523D01*
Y660544D01*
X7205923D01*
Y711344D01*
X7180523D01*
Y736744D01*
X7129723D01*
Y711344D01*
X7104323D01*
Y660544D01*
X7129723D01*
X7589723Y620543D02*
Y595143D01*
X7640523D01*
Y620543D01*
X7665923D01*
Y671343D01*
X7640523D01*
Y696743D01*
X7589723D01*
Y671343D01*
X7564323D01*
Y620543D01*
X7589723D01*
X6854599Y1354600D02*
Y1329200D01*
X6905399D01*
Y1354600D01*
X6930799D01*
Y1405400D01*
X6905399D01*
Y1430800D01*
X6854599D01*
Y1405400D01*
X6829199D01*
Y1354600D01*
X6854599D01*
X6794600Y1414600D02*
Y1389200D01*
X6845400D01*
Y1414600D01*
X6870800D01*
Y1465400D01*
X6845400D01*
Y1490800D01*
X6794600D01*
Y1465400D01*
X6769200D01*
Y1414600D01*
X6794600D01*
X6744600Y2454600D02*
Y2429200D01*
X6795400D01*
Y2454600D01*
X6820800D01*
Y2505400D01*
X6795400D01*
Y2530800D01*
X6744600D01*
Y2505400D01*
X6719200D01*
Y2454600D01*
X6744600D01*
X7092763Y1556961D02*
Y1531561D01*
X7143563D01*
Y1556961D01*
X7168963D01*
Y1607761D01*
X7143563D01*
Y1633161D01*
X7092763D01*
Y1607761D01*
X7067363D01*
Y1556961D01*
X7092763D01*
X7092763Y2546961D02*
Y2521561D01*
X7143563D01*
Y2546961D01*
X7168963D01*
Y2597761D01*
X7143563D01*
Y2623161D01*
X7092763D01*
Y2597761D01*
X7067363D01*
Y2546961D01*
X7092763D01*
X7095009Y727026D02*
Y701626D01*
X7145809D01*
Y727026D01*
X7171209D01*
Y777826D01*
X7145809D01*
Y803226D01*
X7095009D01*
Y777826D01*
X7069609D01*
Y727026D01*
X7095009D01*
X7128990Y840013D02*
Y814613D01*
X7179790D01*
Y840013D01*
X7205190D01*
Y890813D01*
X7179790D01*
Y916213D01*
X7128990D01*
Y890813D01*
X7103590D01*
Y840013D01*
X7128990D01*
X6649723Y720543D02*
Y695143D01*
X6700523D01*
Y720543D01*
X6725923D01*
Y771343D01*
X6700523D01*
Y796743D01*
X6649723D01*
Y771343D01*
X6624323D01*
Y720543D01*
X6649723D01*
X7555009Y687026D02*
Y661626D01*
X7605809D01*
Y687026D01*
X7631209D01*
Y737826D01*
X7605809D01*
Y763226D01*
X7555009D01*
Y737826D01*
X7529609D01*
Y687026D01*
X7555009D01*
X7533041Y855495D02*
Y830095D01*
X7583841D01*
Y855495D01*
X7609241D01*
Y906295D01*
X7583841D01*
Y931695D01*
X7533041D01*
Y906295D01*
X7507641D01*
Y855495D01*
X7533041D01*
X7588990Y800013D02*
Y774613D01*
X7639790D01*
Y800013D01*
X7665190D01*
Y850813D01*
X7639790D01*
Y876213D01*
X7588990D01*
Y850813D01*
X7563590D01*
Y800013D01*
X7588990D01*
X7616189Y2703905D02*
Y2678505D01*
X7666989D01*
Y2703905D01*
X7692389D01*
Y2754705D01*
X7666989D01*
Y2780105D01*
X7616189D01*
Y2754705D01*
X7590789D01*
Y2703905D01*
X7616189D01*
X7365009Y2697026D02*
Y2671626D01*
X7415809D01*
Y2697026D01*
X7441209D01*
Y2747826D01*
X7415809D01*
Y2773226D01*
X7365009D01*
Y2747826D01*
X7339609D01*
Y2697026D01*
X7365009D01*
X7398990Y2810013D02*
Y2784613D01*
X7449790D01*
Y2810013D01*
X7475190D01*
Y2860813D01*
X7449790D01*
Y2886213D01*
X7398990D01*
Y2860813D01*
X7373590D01*
Y2810013D01*
X7398990D01*
X7228333Y2804600D02*
Y2779200D01*
X7279133D01*
Y2804600D01*
X7304533D01*
Y2855400D01*
X7279133D01*
Y2880800D01*
X7228333D01*
Y2855400D01*
X7202933D01*
Y2804600D01*
X7228333D01*
X6804982Y2724900D02*
Y2699500D01*
X6855782D01*
Y2724900D01*
X6881182D01*
Y2775700D01*
X6855782D01*
Y2801100D01*
X6804982D01*
Y2775700D01*
X6779582D01*
Y2724900D01*
X6804982D01*
X6852225Y2783352D02*
Y2757952D01*
X6903025D01*
Y2783352D01*
X6928425D01*
Y2834152D01*
X6903025D01*
Y2859552D01*
X6852225D01*
Y2834152D01*
X6826825D01*
Y2783352D01*
X6852225D01*
X7365009Y2227026D02*
Y2201626D01*
X7415809D01*
Y2227026D01*
X7441209D01*
Y2277826D01*
X7415809D01*
Y2303226D01*
X7365009D01*
Y2277826D01*
X7339609D01*
Y2227026D01*
X7365009D01*
X7399723Y2160543D02*
Y2135143D01*
X7450523D01*
Y2160543D01*
X7475923D01*
Y2211343D01*
X7450523D01*
Y2236743D01*
X7399723D01*
Y2211343D01*
X7374323D01*
Y2160543D01*
X7399723D01*
X7228333Y2334600D02*
Y2309200D01*
X7279133D01*
Y2334600D01*
X7304533D01*
Y2385400D01*
X7279133D01*
Y2410800D01*
X7228333D01*
Y2385400D01*
X7202933D01*
Y2334600D01*
X7228333D01*
X7616190Y1753906D02*
Y1728506D01*
X7666990D01*
Y1753906D01*
X7692390D01*
Y1804706D01*
X7666990D01*
Y1830106D01*
X7616190D01*
Y1804706D01*
X7590790D01*
Y1753906D01*
X7616190D01*
X7618568Y1933824D02*
Y1908424D01*
X7669368D01*
Y1933824D01*
X7694768D01*
Y1984624D01*
X7669368D01*
Y2010024D01*
X7618568D01*
Y1984624D01*
X7593168D01*
Y1933824D01*
X7618568D01*
X7603493Y1169988D02*
Y1144588D01*
X7654293D01*
Y1169988D01*
X7679693D01*
Y1220788D01*
X7654293D01*
Y1246188D01*
X7603493D01*
Y1220788D01*
X7578093D01*
Y1169988D01*
X7603493D01*
X7616190Y1243905D02*
Y1218505D01*
X7666990D01*
Y1243905D01*
X7692390D01*
Y1294705D01*
X7666990D01*
Y1320105D01*
X7616190D01*
Y1294705D01*
X7590790D01*
Y1243905D01*
X7616190D01*
X7648136Y1354898D02*
Y1329498D01*
X7698936D01*
Y1354898D01*
X7724336D01*
Y1405698D01*
X7698936D01*
Y1431098D01*
X7648136D01*
Y1405698D01*
X7622736D01*
Y1354898D01*
X7648136D01*
X6874600Y1654600D02*
Y1629200D01*
X6925400D01*
Y1654600D01*
X6950800D01*
Y1705400D01*
X6925400D01*
Y1730800D01*
X6874600D01*
Y1705400D01*
X6849200D01*
Y1654600D01*
X6874600D01*
X7228333Y1854601D02*
Y1829201D01*
X7279133D01*
Y1854601D01*
X7304533D01*
Y1905401D01*
X7279133D01*
Y1930801D01*
X7228333D01*
Y1905401D01*
X7202933D01*
Y1854601D01*
X7228333D01*
Y1344600D02*
Y1319200D01*
X7279133D01*
Y1344600D01*
X7304533D01*
Y1395400D01*
X7279133D01*
Y1420800D01*
X7228333D01*
Y1395400D01*
X7202933D01*
Y1344600D01*
X7228333D01*
X7365009Y1237026D02*
Y1211626D01*
X7415809D01*
Y1237026D01*
X7441209D01*
Y1287826D01*
X7415809D01*
Y1313226D01*
X7365009D01*
Y1287826D01*
X7339609D01*
Y1237026D01*
X7365009D01*
X7399723Y1170544D02*
Y1145144D01*
X7450523D01*
Y1170544D01*
X7475923D01*
Y1221344D01*
X7450523D01*
Y1246744D01*
X7399723D01*
Y1221344D01*
X7374323D01*
Y1170544D01*
X7399723D01*
X5090860Y2816598D02*
Y2791198D01*
X5141660D01*
Y2816598D01*
X5167060D01*
Y2867398D01*
X5141660D01*
Y2892798D01*
X5090860D01*
Y2867398D01*
X5065460D01*
Y2816598D01*
X5090860D01*
X5139600Y2424600D02*
Y2399200D01*
X5190400D01*
Y2424600D01*
X5215800D01*
Y2475400D01*
X5190400D01*
Y2500800D01*
X5139600D01*
Y2475400D01*
X5114200D01*
Y2424600D01*
X5139600D01*
X4685258Y625258D02*
Y599858D01*
X4736058D01*
Y625258D01*
X4761458D01*
Y676058D01*
X4736058D01*
Y701458D01*
X4685258D01*
Y676058D01*
X4659858D01*
Y625258D01*
X4685258D01*
X3686776Y621343D02*
Y595943D01*
X3737576D01*
Y621343D01*
X3762976D01*
Y672143D01*
X3737576D01*
Y697543D01*
X3686776D01*
Y672143D01*
X3661376D01*
Y621343D01*
X3686776D01*
X4114600Y617100D02*
Y591700D01*
X4165400D01*
Y617100D01*
X4190800D01*
Y667900D01*
X4165400D01*
Y693300D01*
X4114600D01*
Y667900D01*
X4089200D01*
Y617100D01*
X4114600D01*
X4104600Y754600D02*
Y729200D01*
X4155400D01*
Y754600D01*
X4180800D01*
Y805400D01*
X4155400D01*
Y830800D01*
X4104600D01*
Y805400D01*
X4079200D01*
Y754600D01*
X4104600D01*
X3834600D02*
Y729200D01*
X3885400D01*
Y754600D01*
X3910800D01*
Y805400D01*
X3885400D01*
Y830800D01*
X3834600D01*
Y805400D01*
X3809200D01*
Y754600D01*
X3834600D01*
X4024600Y894600D02*
Y869200D01*
X4075400D01*
Y894600D01*
X4100800D01*
Y945400D01*
X4075400D01*
Y970800D01*
X4024600D01*
Y945400D01*
X3999200D01*
Y894600D01*
X4024600D01*
X2534600Y2074600D02*
Y2049200D01*
X2585400D01*
Y2074600D01*
X2610800D01*
Y2125400D01*
X2585400D01*
Y2150800D01*
X2534600D01*
Y2125400D01*
X2509200D01*
Y2074600D01*
X2534600D01*
X3074600Y4024600D02*
Y3999200D01*
X3125400D01*
Y4024600D01*
X3150800D01*
Y4075400D01*
X3125400D01*
Y4100800D01*
X3074600D01*
Y4075400D01*
X3049200D01*
Y4024600D01*
X3074600D01*
X5048317Y3025751D02*
Y3000351D01*
X5099117D01*
Y3025751D01*
X5124517D01*
Y3076551D01*
X5099117D01*
Y3101951D01*
X5048317D01*
Y3076551D01*
X5022917D01*
Y3025751D01*
X5048317D01*
X5024600Y2954600D02*
Y2929200D01*
X5075400D01*
Y2954600D01*
X5100800D01*
Y3005400D01*
X5075400D01*
Y3030800D01*
X5024600D01*
Y3005400D01*
X4999200D01*
Y2954600D01*
X5024600D01*
X5004600Y3094600D02*
Y3069200D01*
X5055400D01*
Y3094600D01*
X5080800D01*
Y3145400D01*
X5055400D01*
Y3170800D01*
X5004600D01*
Y3145400D01*
X4979200D01*
Y3094600D01*
X5004600D01*
X4764600Y3264600D02*
Y3239200D01*
X4815400D01*
Y3264600D01*
X4840800D01*
Y3315400D01*
X4815400D01*
Y3340800D01*
X4764600D01*
Y3315400D01*
X4739200D01*
Y3264600D01*
X4764600D01*
X3584600Y2504600D02*
Y2479200D01*
X3635400D01*
Y2504600D01*
X3660800D01*
Y2555400D01*
X3635400D01*
Y2580800D01*
X3584600D01*
Y2555400D01*
X3559200D01*
Y2504600D01*
X3584600D01*
X3864600Y2424600D02*
Y2399200D01*
X3915400D01*
Y2424600D01*
X3940800D01*
Y2475400D01*
X3915400D01*
Y2500800D01*
X3864600D01*
Y2475400D01*
X3839200D01*
Y2424600D01*
X3864600D01*
X3994600D02*
Y2399200D01*
X4045400D01*
Y2424600D01*
X4070800D01*
Y2475400D01*
X4045400D01*
Y2500800D01*
X3994600D01*
Y2475400D01*
X3969200D01*
Y2424600D01*
X3994600D01*
X4204600Y2504600D02*
Y2479200D01*
X4255400D01*
Y2504600D01*
X4280800D01*
Y2555400D01*
X4255400D01*
Y2580800D01*
X4204600D01*
Y2555400D01*
X4179200D01*
Y2504600D01*
X4204600D01*
X4284600Y2284598D02*
Y2259198D01*
X4335400D01*
Y2284598D01*
X4360800D01*
Y2335398D01*
X4335400D01*
Y2360798D01*
X4284600D01*
Y2335398D01*
X4259200D01*
Y2284598D01*
X4284600D01*
X4584600Y2994600D02*
Y2969200D01*
X4635400D01*
Y2994600D01*
X4660800D01*
Y3045400D01*
X4635400D01*
Y3070800D01*
X4584600D01*
Y3045400D01*
X4559200D01*
Y2994600D01*
X4584600D01*
X4404600Y1274600D02*
Y1249200D01*
X4455400D01*
Y1274600D01*
X4480800D01*
Y1325400D01*
X4455400D01*
Y1350800D01*
X4404600D01*
Y1325400D01*
X4379200D01*
Y1274600D01*
X4404600D01*
X4226347Y2872100D02*
Y2846700D01*
X4277147D01*
Y2872100D01*
X4302547D01*
Y2922900D01*
X4277147D01*
Y2948300D01*
X4226347D01*
Y2922900D01*
X4200947D01*
Y2872100D01*
X4226347D01*
X5270638Y3885317D02*
Y3859917D01*
X5321438D01*
Y3885317D01*
X5346838D01*
Y3936117D01*
X5321438D01*
Y3961517D01*
X5270638D01*
Y3936117D01*
X5245238D01*
Y3885317D01*
X5270638D01*
X4854600Y4204600D02*
Y4179200D01*
X4905400D01*
Y4204600D01*
X4930800D01*
Y4255400D01*
X4905400D01*
Y4280800D01*
X4854600D01*
Y4255400D01*
X4829200D01*
Y4204600D01*
X4854600D01*
X5624601Y4584598D02*
Y4559198D01*
X5675401D01*
Y4584598D01*
X5700801D01*
Y4635398D01*
X5675401D01*
Y4660798D01*
X5624601D01*
Y4635398D01*
X5599201D01*
Y4584598D01*
X5624601D01*
X4630012Y4324600D02*
Y4299200D01*
X4680812D01*
Y4324600D01*
X4706212D01*
Y4375400D01*
X4680812D01*
Y4400800D01*
X4630012D01*
Y4375400D01*
X4604612D01*
Y4324600D01*
X4630012D01*
X4694600Y3624600D02*
Y3599200D01*
X4745400D01*
Y3624600D01*
X4770800D01*
Y3675400D01*
X4745400D01*
Y3700800D01*
X4694600D01*
Y3675400D01*
X4669200D01*
Y3624600D01*
X4694600D01*
X4784600Y3464600D02*
Y3439200D01*
X4835400D01*
Y3464600D01*
X4860800D01*
Y3515400D01*
X4835400D01*
Y3540800D01*
X4784600D01*
Y3515400D01*
X4759200D01*
Y3464600D01*
X4784600D01*
X4659714Y3038820D02*
Y3013420D01*
X4710514D01*
Y3038820D01*
X4735914D01*
Y3089620D01*
X4710514D01*
Y3115020D01*
X4659714D01*
Y3089620D01*
X4634314D01*
Y3038820D01*
X4659714D01*
X4384600Y3644600D02*
Y3619200D01*
X4435400D01*
Y3644600D01*
X4460800D01*
Y3695400D01*
X4435400D01*
Y3720800D01*
X4384600D01*
Y3695400D01*
X4359200D01*
Y3644600D01*
X4384600D01*
X8508271Y2753466D02*
Y2728066D01*
X8559071D01*
Y2753466D01*
X8584471D01*
Y2804266D01*
X8559071D01*
Y2829666D01*
X8508271D01*
Y2804266D01*
X8482871D01*
Y2753466D01*
X8508271D01*
X3244600Y1634600D02*
Y1609200D01*
X3295400D01*
Y1634600D01*
X3320800D01*
Y1685400D01*
X3295400D01*
Y1710800D01*
X3244600D01*
Y1685400D01*
X3219200D01*
Y1634600D01*
X3244600D01*
X5264600Y824600D02*
Y799200D01*
X5315400D01*
Y824600D01*
X5340800D01*
Y875400D01*
X5315400D01*
Y900800D01*
X5264600D01*
Y875400D01*
X5239200D01*
Y824600D01*
X5264600D01*
X4164600Y4104600D02*
Y4079200D01*
X4215400D01*
Y4104600D01*
X4240800D01*
Y4155400D01*
X4215400D01*
Y4180800D01*
X4164600D01*
Y4155400D01*
X4139200D01*
Y4104600D01*
X4164600D01*
X5334600Y2104600D02*
Y2079200D01*
X5385400D01*
Y2104600D01*
X5410800D01*
Y2155400D01*
X5385400D01*
Y2180800D01*
X5334600D01*
Y2155400D01*
X5309200D01*
Y2104600D01*
X5334600D01*
X5044600Y1744600D02*
Y1719200D01*
X5095400D01*
Y1744600D01*
X5120800D01*
Y1795400D01*
X5095400D01*
Y1820800D01*
X5044600D01*
Y1795400D01*
X5019200D01*
Y1744600D01*
X5044600D01*
X2674600Y3344600D02*
Y3319200D01*
X2725400D01*
Y3344600D01*
X2750800D01*
Y3395400D01*
X2725400D01*
Y3420800D01*
X2674600D01*
Y3395400D01*
X2649200D01*
Y3344600D01*
X2674600D01*
X3051952Y2543993D02*
Y2518593D01*
X3102752D01*
Y2543993D01*
X3128152D01*
Y2594793D01*
X3102752D01*
Y2620193D01*
X3051952D01*
Y2594793D01*
X3026552D01*
Y2543993D01*
X3051952D01*
X7456343Y4624621D02*
Y4599221D01*
X7507143D01*
Y4624621D01*
X7532543D01*
Y4675421D01*
X7507143D01*
Y4700821D01*
X7456343D01*
Y4675421D01*
X7430943D01*
Y4624621D01*
X7456343D01*
X3984600Y2204600D02*
Y2179200D01*
X4035400D01*
Y2204600D01*
X4060800D01*
Y2255400D01*
X4035400D01*
Y2280800D01*
X3984600D01*
Y2255400D01*
X3959200D01*
Y2204600D01*
X3984600D01*
X3544600Y2194600D02*
Y2169200D01*
X3595400D01*
Y2194600D01*
X3620800D01*
Y2245400D01*
X3595400D01*
Y2270800D01*
X3544600D01*
Y2245400D01*
X3519200D01*
Y2194600D01*
X3544600D01*
X3684600Y2804600D02*
Y2779200D01*
X3735400D01*
Y2804600D01*
X3760800D01*
Y2855400D01*
X3735400D01*
Y2880800D01*
X3684600D01*
Y2855400D01*
X3659200D01*
Y2804600D01*
X3684600D01*
X4064600Y2934600D02*
Y2909200D01*
X4115400D01*
Y2934600D01*
X4140800D01*
Y2985400D01*
X4115400D01*
Y3010800D01*
X4064600D01*
Y2985400D01*
X4039200D01*
Y2934600D01*
X4064600D01*
X2334600Y2574600D02*
Y2549200D01*
X2385400D01*
Y2574600D01*
X2410800D01*
Y2625400D01*
X2385400D01*
Y2650800D01*
X2334600D01*
Y2625400D01*
X2309200D01*
Y2574600D01*
X2334600D01*
X4394012Y1433677D02*
Y1408277D01*
X4444812D01*
Y1433677D01*
X4470212D01*
Y1484477D01*
X4444812D01*
Y1509877D01*
X4394012D01*
Y1484477D01*
X4368612D01*
Y1433677D01*
X4394012D01*
X2694600Y1574600D02*
Y1549200D01*
X2745400D01*
Y1574600D01*
X2770800D01*
Y1625400D01*
X2745400D01*
Y1650800D01*
X2694600D01*
Y1625400D01*
X2669200D01*
Y1574600D01*
X2694600D01*
X3383165Y2141452D02*
Y2116052D01*
X3433965D01*
Y2141452D01*
X3459365D01*
Y2192252D01*
X3433965D01*
Y2217652D01*
X3383165D01*
Y2192252D01*
X3357765D01*
Y2141452D01*
X3383165D01*
X3324600Y2094600D02*
Y2069200D01*
X3375400D01*
Y2094600D01*
X3400800D01*
Y2145400D01*
X3375400D01*
Y2170800D01*
X3324600D01*
Y2145400D01*
X3299200D01*
Y2094600D01*
X3324600D01*
X4024600Y1504600D02*
Y1479200D01*
X4075400D01*
Y1504600D01*
X4100800D01*
Y1555400D01*
X4075400D01*
Y1580800D01*
X4024600D01*
Y1555400D01*
X3999200D01*
Y1504600D01*
X4024600D01*
X3264600Y694600D02*
Y669200D01*
X3315400D01*
Y694600D01*
X3340800D01*
Y745400D01*
X3315400D01*
Y770800D01*
X3264600D01*
Y745400D01*
X3239200D01*
Y694600D01*
X3264600D01*
X4494600Y624600D02*
Y599200D01*
X4545400D01*
Y624600D01*
X4570800D01*
Y675400D01*
X4545400D01*
Y700800D01*
X4494600D01*
Y675400D01*
X4469200D01*
Y624600D01*
X4494600D01*
X2124600Y844600D02*
Y819200D01*
X2175400D01*
Y844600D01*
X2200800D01*
Y895400D01*
X2175400D01*
Y920800D01*
X2124600D01*
Y895400D01*
X2099200D01*
Y844600D01*
X2124600D01*
X1834600Y664600D02*
Y639200D01*
X1885400D01*
Y664600D01*
X1910800D01*
Y715400D01*
X1885400D01*
Y740800D01*
X1834600D01*
Y715400D01*
X1809200D01*
Y664600D01*
X1834600D01*
X2374600Y844600D02*
Y819200D01*
X2425400D01*
Y844600D01*
X2450800D01*
Y895400D01*
X2425400D01*
Y920800D01*
X2374600D01*
Y895400D01*
X2349200D01*
Y844600D01*
X2374600D01*
X2354600Y584600D02*
Y559200D01*
X2405400D01*
Y584600D01*
X2430800D01*
Y635400D01*
X2405400D01*
Y660800D01*
X2354600D01*
Y635400D01*
X2329200D01*
Y584600D01*
X2354600D01*
X2094600Y1904600D02*
Y1879200D01*
X2145400D01*
Y1904600D01*
X2170800D01*
Y1955400D01*
X2145400D01*
Y1980800D01*
X2094600D01*
Y1955400D01*
X2069200D01*
Y1904600D01*
X2094600D01*
X1954600Y1498334D02*
Y1472934D01*
X2005400D01*
Y1498334D01*
X2030800D01*
Y1549134D01*
X2005400D01*
Y1574534D01*
X1954600D01*
Y1549134D01*
X1929200D01*
Y1498334D01*
X1954600D01*
X2054600Y1494600D02*
Y1469200D01*
X2105400D01*
Y1494600D01*
X2130800D01*
Y1545400D01*
X2105400D01*
Y1570800D01*
X2054600D01*
Y1545400D01*
X2029200D01*
Y1494600D01*
X2054600D01*
X1888391Y1225548D02*
Y1200148D01*
X1939191D01*
Y1225548D01*
X1964591D01*
Y1276348D01*
X1939191D01*
Y1301748D01*
X1888391D01*
Y1276348D01*
X1862991D01*
Y1225548D01*
X1888391D01*
X4194600Y1624600D02*
Y1599200D01*
X4245400D01*
Y1624600D01*
X4270800D01*
Y1675400D01*
X4245400D01*
Y1700800D01*
X4194600D01*
Y1675400D01*
X4169200D01*
Y1624600D01*
X4194600D01*
X3446266Y2225567D02*
Y2200167D01*
X3497066D01*
Y2225567D01*
X3522466D01*
Y2276367D01*
X3497066D01*
Y2301767D01*
X3446266D01*
Y2276367D01*
X3420866D01*
Y2225567D01*
X3446266D01*
X3674600Y1934600D02*
Y1909200D01*
X3725400D01*
Y1934600D01*
X3750800D01*
Y1985400D01*
X3725400D01*
Y2010800D01*
X3674600D01*
Y1985400D01*
X3649200D01*
Y1934600D01*
X3674600D01*
X3934600Y2854600D02*
Y2829200D01*
X3985400D01*
Y2854600D01*
X4010800D01*
Y2905400D01*
X3985400D01*
Y2930800D01*
X3934600D01*
Y2905400D01*
X3909200D01*
Y2854600D01*
X3934600D01*
X3714598Y2934599D02*
Y2909199D01*
X3765398D01*
Y2934599D01*
X3790798D01*
Y2985399D01*
X3765398D01*
Y3010799D01*
X3714598D01*
Y2985399D01*
X3689198D01*
Y2934599D01*
X3714598D01*
X2952100Y4382100D02*
Y4356700D01*
X3002900D01*
Y4382100D01*
X3028300D01*
Y4432900D01*
X3002900D01*
Y4458300D01*
X2952100D01*
Y4432900D01*
X2926700D01*
Y4382100D01*
X2952100D01*
X2685259Y3775259D02*
Y3749859D01*
X2736059D01*
Y3775259D01*
X2761459D01*
Y3826059D01*
X2736059D01*
Y3851459D01*
X2685259D01*
Y3826059D01*
X2659859D01*
Y3775259D01*
X2685259D01*
X2714600Y3664600D02*
Y3639200D01*
X2765400D01*
Y3664600D01*
X2790800D01*
Y3715400D01*
X2765400D01*
Y3740800D01*
X2714600D01*
Y3715400D01*
X2689200D01*
Y3664600D01*
X2714600D01*
X3064600Y3714600D02*
Y3689200D01*
X3115400D01*
Y3714600D01*
X3140800D01*
Y3765400D01*
X3115400D01*
Y3790800D01*
X3064600D01*
Y3765400D01*
X3039200D01*
Y3714600D01*
X3064600D01*
X2754600Y3564600D02*
Y3539200D01*
X2805400D01*
Y3564600D01*
X2830800D01*
Y3615400D01*
X2805400D01*
Y3640800D01*
X2754600D01*
Y3615400D01*
X2729200D01*
Y3564600D01*
X2754600D01*
X3544600Y3584600D02*
Y3559200D01*
X3595400D01*
Y3584600D01*
X3620800D01*
Y3635400D01*
X3595400D01*
Y3660800D01*
X3544600D01*
Y3635400D01*
X3519200D01*
Y3584600D01*
X3544600D01*
X4064600Y4304600D02*
Y4279200D01*
X4115400D01*
Y4304600D01*
X4140800D01*
Y4355400D01*
X4115400D01*
Y4380800D01*
X4064600D01*
Y4355400D01*
X4039200D01*
Y4304600D01*
X4064600D01*
X2754600Y4144600D02*
Y4119200D01*
X2805400D01*
Y4144600D01*
X2830800D01*
Y4195400D01*
X2805400D01*
Y4220800D01*
X2754600D01*
Y4195400D01*
X2729200D01*
Y4144600D01*
X2754600D01*
X3354600Y4344600D02*
Y4319200D01*
X3405400D01*
Y4344600D01*
X3430800D01*
Y4395400D01*
X3405400D01*
Y4420800D01*
X3354600D01*
Y4395400D01*
X3329200D01*
Y4344600D01*
X3354600D01*
X3694600Y3484600D02*
Y3459200D01*
X3745400D01*
Y3484600D01*
X3770800D01*
Y3535400D01*
X3745400D01*
Y3560800D01*
X3694600D01*
Y3535400D01*
X3669200D01*
Y3484600D01*
X3694600D01*
X3284600Y4094600D02*
Y4069200D01*
X3335400D01*
Y4094600D01*
X3360800D01*
Y4145400D01*
X3335400D01*
Y4170800D01*
X3284600D01*
Y4145400D01*
X3259200D01*
Y4094600D01*
X3284600D01*
X2743942Y2015261D02*
Y1989861D01*
X2794742D01*
Y2015261D01*
X2820142D01*
Y2066061D01*
X2794742D01*
Y2091461D01*
X2743942D01*
Y2066061D01*
X2718542D01*
Y2015261D01*
X2743942D01*
X2214600Y1344600D02*
Y1319200D01*
X2265400D01*
Y1344600D01*
X2290800D01*
Y1395400D01*
X2265400D01*
Y1420800D01*
X2214600D01*
Y1395400D01*
X2189200D01*
Y1344600D01*
X2214600D01*
X2774600Y1354600D02*
Y1329200D01*
X2825400D01*
Y1354600D01*
X2850800D01*
Y1405400D01*
X2825400D01*
Y1430800D01*
X2774600D01*
Y1405400D01*
X2749200D01*
Y1354600D01*
X2774600D01*
X2594600Y1714600D02*
Y1689200D01*
X2645400D01*
Y1714600D01*
X2670800D01*
Y1765400D01*
X2645400D01*
Y1790800D01*
X2594600D01*
Y1765400D01*
X2569200D01*
Y1714600D01*
X2594600D01*
X2604600Y2414600D02*
Y2389200D01*
X2655400D01*
Y2414600D01*
X2680800D01*
Y2465400D01*
X2655400D01*
Y2490800D01*
X2604600D01*
Y2465400D01*
X2579200D01*
Y2414600D01*
X2604600D01*
X3084600Y704600D02*
Y679200D01*
X3135400D01*
Y704600D01*
X3160800D01*
Y755400D01*
X3135400D01*
Y780800D01*
X3084600D01*
Y755400D01*
X3059200D01*
Y704600D01*
X3084600D01*
X2514600Y2244600D02*
Y2219200D01*
X2565400D01*
Y2244600D01*
X2590800D01*
Y2295400D01*
X2565400D01*
Y2320800D01*
X2514600D01*
Y2295400D01*
X2489200D01*
Y2244600D01*
X2514600D01*
X3024600Y2154600D02*
Y2129200D01*
X3075400D01*
Y2154600D01*
X3100800D01*
Y2205400D01*
X3075400D01*
Y2230800D01*
X3024600D01*
Y2205400D01*
X2999200D01*
Y2154600D01*
X3024600D01*
X3284600Y2394600D02*
Y2369200D01*
X3335400D01*
Y2394600D01*
X3360800D01*
Y2445400D01*
X3335400D01*
Y2470800D01*
X3284600D01*
Y2445400D01*
X3259200D01*
Y2394600D01*
X3284600D01*
X3914600Y3864600D02*
Y3839200D01*
X3965400D01*
Y3864600D01*
X3990800D01*
Y3915400D01*
X3965400D01*
Y3940800D01*
X3914600D01*
Y3915400D01*
X3889200D01*
Y3864600D01*
X3914600D01*
Y4174600D02*
Y4149200D01*
X3965400D01*
Y4174600D01*
X3990800D01*
Y4225400D01*
X3965400D01*
Y4250800D01*
X3914600D01*
Y4225400D01*
X3889200D01*
Y4174600D01*
X3914600D01*
X5734600Y4724600D02*
Y4699200D01*
X5785400D01*
Y4724600D01*
X5810800D01*
Y4775400D01*
X5785400D01*
Y4800800D01*
X5734600D01*
Y4775400D01*
X5709200D01*
Y4724600D01*
X5734600D01*
X3924600Y3244600D02*
Y3219200D01*
X3975400D01*
Y3244600D01*
X4000800D01*
Y3295400D01*
X3975400D01*
Y3320800D01*
X3924600D01*
Y3295400D01*
X3899200D01*
Y3244600D01*
X3924600D01*
X3864600Y2094600D02*
Y2069200D01*
X3915400D01*
Y2094600D01*
X3940800D01*
Y2145400D01*
X3915400D01*
Y2170800D01*
X3864600D01*
Y2145400D01*
X3839200D01*
Y2094600D01*
X3864600D01*
X4034600Y1424600D02*
Y1399200D01*
X4085400D01*
Y1424600D01*
X4110800D01*
Y1475400D01*
X4085400D01*
Y1500800D01*
X4034600D01*
Y1475400D01*
X4009200D01*
Y1424600D01*
X4034600D01*
X4854600Y4804600D02*
Y4779200D01*
X4905400D01*
Y4804600D01*
X4930800D01*
Y4855400D01*
X4905400D01*
Y4880800D01*
X4854600D01*
Y4855400D01*
X4829200D01*
Y4804600D01*
X4854600D01*
X1174600Y4054600D02*
Y4029200D01*
X1225400D01*
Y4054600D01*
X1250800D01*
Y4105400D01*
X1225400D01*
Y4130800D01*
X1174600D01*
Y4105400D01*
X1149200D01*
Y4054600D01*
X1174600D01*
X2834600Y4794600D02*
Y4769200D01*
X2885400D01*
Y4794600D01*
X2910800D01*
Y4845400D01*
X2885400D01*
Y4870800D01*
X2834600D01*
Y4845400D01*
X2809200D01*
Y4794600D01*
X2834600D01*
X5334600Y4524600D02*
Y4499200D01*
X5385400D01*
Y4524600D01*
X5410800D01*
Y4575400D01*
X5385400D01*
Y4600800D01*
X5334600D01*
Y4575400D01*
X5309200D01*
Y4524600D01*
X5334600D01*
X4704600Y4794600D02*
Y4769200D01*
X4755400D01*
Y4794600D01*
X4780800D01*
Y4845400D01*
X4755400D01*
Y4870800D01*
X4704600D01*
Y4845400D01*
X4679200D01*
Y4794600D01*
X4704600D01*
X3454600Y4544600D02*
Y4519200D01*
X3505400D01*
Y4544600D01*
X3530800D01*
Y4595400D01*
X3505400D01*
Y4620800D01*
X3454600D01*
Y4595400D01*
X3429200D01*
Y4544600D01*
X3454600D01*
X4234600Y1944600D02*
Y1919200D01*
X4285400D01*
Y1944600D01*
X4310800D01*
Y1995400D01*
X4285400D01*
Y2020800D01*
X4234600D01*
Y1995400D01*
X4209200D01*
Y1944600D01*
X4234600D01*
X7884600Y4874600D02*
Y4849200D01*
X7935400D01*
Y4874600D01*
X7960800D01*
Y4925400D01*
X7935400D01*
Y4950800D01*
X7884600D01*
Y4925400D01*
X7859200D01*
Y4874600D01*
X7884600D01*
X7747055Y4515738D02*
Y4490338D01*
X7797855D01*
Y4515738D01*
X7823255D01*
Y4566538D01*
X7797855D01*
Y4591938D01*
X7747055D01*
Y4566538D01*
X7721655D01*
Y4515738D01*
X7747055D01*
X7694600Y4704600D02*
Y4679200D01*
X7745400D01*
Y4704600D01*
X7770800D01*
Y4755400D01*
X7745400D01*
Y4780800D01*
X7694600D01*
Y4755400D01*
X7669200D01*
Y4704600D01*
X7694600D01*
X7158735Y4404600D02*
Y4379200D01*
X7209535D01*
Y4404600D01*
X7234935D01*
Y4455400D01*
X7209535D01*
Y4480800D01*
X7158735D01*
Y4455400D01*
X7133335D01*
Y4404600D01*
X7158735D01*
X7804600Y5054600D02*
Y5029200D01*
X7855400D01*
Y5054600D01*
X7880800D01*
Y5105400D01*
X7855400D01*
Y5130800D01*
X7804600D01*
Y5105400D01*
X7779200D01*
Y5054600D01*
X7804600D01*
X6974600Y4592100D02*
Y4566700D01*
X7025400D01*
Y4592100D01*
X7050800D01*
Y4642900D01*
X7025400D01*
Y4668300D01*
X6974600D01*
Y4642900D01*
X6949200D01*
Y4592100D01*
X6974600D01*
X6654600Y4632100D02*
Y4606700D01*
X6705400D01*
Y4632100D01*
X6730800D01*
Y4682900D01*
X6705400D01*
Y4708300D01*
X6654600D01*
Y4682900D01*
X6629200D01*
Y4632100D01*
X6654600D01*
X4594600Y3344600D02*
Y3319200D01*
X4645400D01*
Y3344600D01*
X4670800D01*
Y3395400D01*
X4645400D01*
Y3420800D01*
X4594600D01*
Y3395400D01*
X4569200D01*
Y3344600D01*
X4594600D01*
X4424600Y4814600D02*
Y4789200D01*
X4475400D01*
Y4814600D01*
X4500800D01*
Y4865400D01*
X4475400D01*
Y4890800D01*
X4424600D01*
Y4865400D01*
X4399200D01*
Y4814600D01*
X4424600D01*
X8162600Y2889599D02*
Y2864199D01*
X8213400D01*
Y2889599D01*
X8238800D01*
Y2940399D01*
X8213400D01*
Y2965799D01*
X8162600D01*
Y2940399D01*
X8137200D01*
Y2889599D01*
X8162600D01*
X6616371Y4502829D02*
Y4477429D01*
X6667171D01*
Y4502829D01*
X6692571D01*
Y4553629D01*
X6667171D01*
Y4579029D01*
X6616371D01*
Y4553629D01*
X6590971D01*
Y4502829D01*
X6616371D01*
X6650415Y4246171D02*
Y4220771D01*
X6701215D01*
Y4246171D01*
X6726615D01*
Y4296971D01*
X6701215D01*
Y4322371D01*
X6650415D01*
Y4296971D01*
X6625015D01*
Y4246171D01*
X6650415D01*
X6594600Y4574600D02*
Y4549200D01*
X6645400D01*
Y4574600D01*
X6670800D01*
Y4625400D01*
X6645400D01*
Y4650800D01*
X6594600D01*
Y4625400D01*
X6569200D01*
Y4574600D01*
X6594600D01*
X3614598Y4484599D02*
Y4459199D01*
X3665398D01*
Y4484599D01*
X3690798D01*
Y4535399D01*
X3665398D01*
Y4560799D01*
X3614598D01*
Y4535399D01*
X3589198D01*
Y4484599D01*
X3614598D01*
X5404602Y4584598D02*
Y4559198D01*
X5455402D01*
Y4584598D01*
X5480802D01*
Y4635398D01*
X5455402D01*
Y4660798D01*
X5404602D01*
Y4635398D01*
X5379202D01*
Y4584598D01*
X5404602D01*
X2724602Y2114601D02*
Y2089201D01*
X2775402D01*
Y2114601D01*
X2800802D01*
Y2165401D01*
X2775402D01*
Y2190801D01*
X2724602D01*
Y2165401D01*
X2699202D01*
Y2114601D01*
X2724602D01*
X4404599Y3724600D02*
Y3699200D01*
X4455399D01*
Y3724600D01*
X4480799D01*
Y3775400D01*
X4455399D01*
Y3800800D01*
X4404599D01*
Y3775400D01*
X4379199D01*
Y3724600D01*
X4404599D01*
X4927087Y5111836D02*
Y5086436D01*
X4977887D01*
Y5111836D01*
X5003287D01*
Y5162636D01*
X4977887D01*
Y5188036D01*
X4927087D01*
Y5162636D01*
X4901687D01*
Y5111836D01*
X4927087D01*
X5685069Y5114178D02*
Y5088778D01*
X5735869D01*
Y5114178D01*
X5761269D01*
Y5164978D01*
X5735869D01*
Y5190378D01*
X5685069D01*
Y5164978D01*
X5659669D01*
Y5114178D01*
X5685069D01*
X5515417Y4584598D02*
Y4559198D01*
X5566217D01*
Y4584598D01*
X5591617D01*
Y4635398D01*
X5566217D01*
Y4660798D01*
X5515417D01*
Y4635398D01*
X5490017D01*
Y4584598D01*
X5515417D01*
X4454601Y2424598D02*
Y2399198D01*
X4505401D01*
Y2424598D01*
X4530801D01*
Y2475398D01*
X4505401D01*
Y2500798D01*
X4454601D01*
Y2475398D01*
X4429201D01*
Y2424598D01*
X4454601D01*
X4534601Y2364598D02*
Y2339198D01*
X4585401D01*
Y2364598D01*
X4610801D01*
Y2415398D01*
X4585401D01*
Y2440798D01*
X4534601D01*
Y2415398D01*
X4509201D01*
Y2364598D01*
X4534601D01*
X4414601Y3944600D02*
Y3919200D01*
X4465401D01*
Y3944600D01*
X4490801D01*
Y3995400D01*
X4465401D01*
Y4020800D01*
X4414601D01*
Y3995400D01*
X4389201D01*
Y3944600D01*
X4414601D01*
X3095955Y2994599D02*
Y2969199D01*
X3146755D01*
Y2994599D01*
X3172155D01*
Y3045399D01*
X3146755D01*
Y3070799D01*
X3095955D01*
Y3045399D01*
X3070555D01*
Y2994599D01*
X3095955D01*
X2275175Y2185670D02*
Y2160270D01*
X2325975D01*
Y2185670D01*
X2351375D01*
Y2236470D01*
X2325975D01*
Y2261870D01*
X2275175D01*
Y2236470D01*
X2249775D01*
Y2185670D01*
X2275175D01*
X4274602Y3014599D02*
Y2989199D01*
X4325402D01*
Y3014599D01*
X4350802D01*
Y3065399D01*
X4325402D01*
Y3090799D01*
X4274602D01*
Y3065399D01*
X4249202D01*
Y3014599D01*
X4274602D01*
X4434601Y4034602D02*
Y4009202D01*
X4485401D01*
Y4034602D01*
X4510801D01*
Y4085402D01*
X4485401D01*
Y4110802D01*
X4434601D01*
Y4085402D01*
X4409201D01*
Y4034602D01*
X4434601D01*
X4134602Y3904600D02*
Y3879200D01*
X4185402D01*
Y3904600D01*
X4210802D01*
Y3955400D01*
X4185402D01*
Y3980800D01*
X4134602D01*
Y3955400D01*
X4109202D01*
Y3904600D01*
X4134602D01*
X4067099Y3064601D02*
Y3039201D01*
X4117899D01*
Y3064601D01*
X4143299D01*
Y3115401D01*
X4117899D01*
Y3140801D01*
X4067099D01*
Y3115401D01*
X4041699D01*
Y3064601D01*
X4067099D01*
X2244600Y2854600D02*
Y2829200D01*
X2295400D01*
Y2854600D01*
X2320800D01*
Y2905400D01*
X2295400D01*
Y2930800D01*
X2244600D01*
Y2905400D01*
X2219200D01*
Y2854600D01*
X2244600D01*
X2174600Y2894600D02*
Y2869200D01*
X2225400D01*
Y2894600D01*
X2250800D01*
Y2945400D01*
X2225400D01*
Y2970800D01*
X2174600D01*
Y2945400D01*
X2149200D01*
Y2894600D01*
X2174600D01*
X2404600Y2784600D02*
Y2759200D01*
X2455400D01*
Y2784600D01*
X2480800D01*
Y2835400D01*
X2455400D01*
Y2860800D01*
X2404600D01*
Y2835400D01*
X2379200D01*
Y2784600D01*
X2404600D01*
X2724602Y2434600D02*
Y2409200D01*
X2775402D01*
Y2434600D01*
X2800802D01*
Y2485400D01*
X2775402D01*
Y2510800D01*
X2724602D01*
Y2485400D01*
X2699202D01*
Y2434600D01*
X2724602D01*
X3654598Y294599D02*
Y269199D01*
X3705398D01*
Y294599D01*
X3730798D01*
Y345399D01*
X3705398D01*
Y370799D01*
X3654598D01*
Y345399D01*
X3629198D01*
Y294599D01*
X3654598D01*
X4164599D02*
Y269199D01*
X4215399D01*
Y294599D01*
X4240799D01*
Y345399D01*
X4215399D01*
Y370799D01*
X4164599D01*
Y345399D01*
X4139199D01*
Y294599D01*
X4164599D01*
X2174600Y3174600D02*
Y3149200D01*
X2225400D01*
Y3174600D01*
X2250800D01*
Y3225400D01*
X2225400D01*
Y3250800D01*
X2174600D01*
Y3225400D01*
X2149200D01*
Y3174600D01*
X2174600D01*
Y2974600D02*
Y2949200D01*
X2225400D01*
Y2974600D01*
X2250800D01*
Y3025400D01*
X2225400D01*
Y3050800D01*
X2174600D01*
Y3025400D01*
X2149200D01*
Y2974600D01*
X2174600D01*
Y3074600D02*
Y3049200D01*
X2225400D01*
Y3074600D01*
X2250800D01*
Y3125400D01*
X2225400D01*
Y3150800D01*
X2174600D01*
Y3125400D01*
X2149200D01*
Y3074600D01*
X2174600D01*
Y3274600D02*
Y3249200D01*
X2225400D01*
Y3274600D01*
X2250800D01*
Y3325400D01*
X2225400D01*
Y3350800D01*
X2174600D01*
Y3325400D01*
X2149200D01*
Y3274600D01*
X2174600D01*
Y3374600D02*
Y3349200D01*
X2225400D01*
Y3374600D01*
X2250800D01*
Y3425400D01*
X2225400D01*
Y3450800D01*
X2174600D01*
Y3425400D01*
X2149200D01*
Y3374600D01*
X2174600D01*
X2154601Y3874602D02*
Y3849202D01*
X2205401D01*
Y3874602D01*
X2230801D01*
Y3925402D01*
X2205401D01*
Y3950802D01*
X2154601D01*
Y3925402D01*
X2129201D01*
Y3874602D01*
X2154601D01*
X2174601Y3674598D02*
Y3649198D01*
X2225401D01*
Y3674598D01*
X2250801D01*
Y3725398D01*
X2225401D01*
Y3750798D01*
X2174601D01*
Y3725398D01*
X2149201D01*
Y3674598D01*
X2174601D01*
X2164598Y3774603D02*
Y3749203D01*
X2215398D01*
Y3774603D01*
X2240798D01*
Y3825403D01*
X2215398D01*
Y3850803D01*
X2164598D01*
Y3825403D01*
X2139198D01*
Y3774603D01*
X2164598D01*
X2024598Y4024600D02*
Y3999200D01*
X2075398D01*
Y4024600D01*
X2100798D01*
Y4075400D01*
X2075398D01*
Y4100800D01*
X2024598D01*
Y4075400D01*
X1999198D01*
Y4024600D01*
X2024598D01*
X1924599Y4054602D02*
Y4029202D01*
X1975399D01*
Y4054602D01*
X2000799D01*
Y4105402D01*
X1975399D01*
Y4130802D01*
X1924599D01*
Y4105402D01*
X1899199D01*
Y4054602D01*
X1924599D01*
X2104598Y3964600D02*
Y3939200D01*
X2155398D01*
Y3964600D01*
X2180798D01*
Y4015400D01*
X2155398D01*
Y4040800D01*
X2104598D01*
Y4015400D01*
X2079198D01*
Y3964600D01*
X2104598D01*
X2164600Y4034600D02*
Y4009200D01*
X2215400D01*
Y4034600D01*
X2240800D01*
Y4085400D01*
X2215400D01*
Y4110800D01*
X2164600D01*
Y4085400D01*
X2139200D01*
Y4034600D01*
X2164600D01*
X2174601Y3574598D02*
Y3549198D01*
X2225401D01*
Y3574598D01*
X2250801D01*
Y3625398D01*
X2225401D01*
Y3650798D01*
X2174601D01*
Y3625398D01*
X2149201D01*
Y3574598D01*
X2174601D01*
X2174600Y3474600D02*
Y3449200D01*
X2225400D01*
Y3474600D01*
X2250800D01*
Y3525400D01*
X2225400D01*
Y3550800D01*
X2174600D01*
Y3525400D01*
X2149200D01*
Y3474600D01*
X2174600D01*
X2504600Y3654600D02*
Y3629200D01*
X2555400D01*
Y3654600D01*
X2580800D01*
Y3705400D01*
X2555400D01*
Y3730800D01*
X2504600D01*
Y3705400D01*
X2479200D01*
Y3654600D01*
X2504600D01*
X2374600Y3974602D02*
Y3949202D01*
X2425400D01*
Y3974602D01*
X2450800D01*
Y4025402D01*
X2425400D01*
Y4050802D01*
X2374600D01*
Y4025402D01*
X2349200D01*
Y3974602D01*
X2374600D01*
X2624602Y3944600D02*
Y3919200D01*
X2675402D01*
Y3944600D01*
X2700802D01*
Y3995400D01*
X2675402D01*
Y4020800D01*
X2624602D01*
Y3995400D01*
X2599202D01*
Y3944600D01*
X2624602D01*
X1924600Y4644600D02*
Y4619200D01*
X1975400D01*
Y4644600D01*
X2000800D01*
Y4695400D01*
X1975400D01*
Y4720800D01*
X1924600D01*
Y4695400D01*
X1899200D01*
Y4644600D01*
X1924600D01*
X1824599Y4374601D02*
Y4349201D01*
X1875399D01*
Y4374601D01*
X1900799D01*
Y4425401D01*
X1875399D01*
Y4450801D01*
X1824599D01*
Y4425401D01*
X1799199D01*
Y4374601D01*
X1824599D01*
Y4474601D02*
Y4449201D01*
X1875399D01*
Y4474601D01*
X1900799D01*
Y4525401D01*
X1875399D01*
Y4550801D01*
X1824599D01*
Y4525401D01*
X1799199D01*
Y4474601D01*
X1824599D01*
X1824600Y4584600D02*
Y4559200D01*
X1875400D01*
Y4584600D01*
X1900800D01*
Y4635400D01*
X1875400D01*
Y4660800D01*
X1824600D01*
Y4635400D01*
X1799200D01*
Y4584600D01*
X1824600D01*
X1824599Y4274602D02*
Y4249202D01*
X1875399D01*
Y4274602D01*
X1900799D01*
Y4325402D01*
X1875399D01*
Y4350802D01*
X1824599D01*
Y4325402D01*
X1799199D01*
Y4274602D01*
X1824599D01*
Y4074602D02*
Y4049202D01*
X1875399D01*
Y4074602D01*
X1900799D01*
Y4125402D01*
X1875399D01*
Y4150802D01*
X1824599D01*
Y4125402D01*
X1799199D01*
Y4074602D01*
X1824599D01*
X1824600Y4174600D02*
Y4149200D01*
X1875400D01*
Y4174600D01*
X1900800D01*
Y4225400D01*
X1875400D01*
Y4250800D01*
X1824600D01*
Y4225400D01*
X1799200D01*
Y4174600D01*
X1824600D01*
X2024601Y4644600D02*
Y4619200D01*
X2075401D01*
Y4644600D01*
X2100801D01*
Y4695400D01*
X2075401D01*
Y4720800D01*
X2024601D01*
Y4695400D01*
X1999201D01*
Y4644600D01*
X2024601D01*
X2379905Y4061901D02*
Y4036501D01*
X2430705D01*
Y4061901D01*
X2456105D01*
Y4112701D01*
X2430705D01*
Y4138101D01*
X2379905D01*
Y4112701D01*
X2354505D01*
Y4061901D01*
X2379905D01*
X2564602Y4594601D02*
Y4569201D01*
X2615402D01*
Y4594601D01*
X2640802D01*
Y4645401D01*
X2615402D01*
Y4670801D01*
X2564602D01*
Y4645401D01*
X2539202D01*
Y4594601D01*
X2564602D01*
X2224600Y4644600D02*
Y4619200D01*
X2275400D01*
Y4644600D01*
X2300800D01*
Y4695400D01*
X2275400D01*
Y4720800D01*
X2224600D01*
Y4695400D01*
X2199200D01*
Y4644600D01*
X2224600D01*
X2124601D02*
Y4619200D01*
X2175401D01*
Y4644600D01*
X2200801D01*
Y4695400D01*
X2175401D01*
Y4720800D01*
X2124601D01*
Y4695400D01*
X2099201D01*
Y4644600D01*
X2124601D01*
X2324600D02*
Y4619200D01*
X2375400D01*
Y4644600D01*
X2400800D01*
Y4695400D01*
X2375400D01*
Y4720800D01*
X2324600D01*
Y4695400D01*
X2299200D01*
Y4644600D01*
X2324600D01*
X3254599Y4344599D02*
Y4319199D01*
X3305399D01*
Y4344599D01*
X3330799D01*
Y4395399D01*
X3305399D01*
Y4420799D01*
X3254599D01*
Y4395399D01*
X3229199D01*
Y4344599D01*
X3254599D01*
X3694598Y3131515D02*
Y3106115D01*
X3745398D01*
Y3131515D01*
X3770798D01*
Y3182315D01*
X3745398D01*
Y3207715D01*
X3694598D01*
Y3182315D01*
X3669198D01*
Y3131515D01*
X3694598D01*
X4924598Y294599D02*
Y269199D01*
X4975398D01*
Y294599D01*
X5000798D01*
Y345399D01*
X4975398D01*
Y370799D01*
X4924598D01*
Y345399D01*
X4899198D01*
Y294599D01*
X4924598D01*
X4427677Y4186408D02*
Y4161008D01*
X4478477D01*
Y4186408D01*
X4503877D01*
Y4237208D01*
X4478477D01*
Y4262608D01*
X4427677D01*
Y4237208D01*
X4402277D01*
Y4186408D01*
X4427677D01*
X4294602Y3104601D02*
Y3079201D01*
X4345402D01*
Y3104601D01*
X4370802D01*
Y3155401D01*
X4345402D01*
Y3180801D01*
X4294602D01*
Y3155401D01*
X4269202D01*
Y3104601D01*
X4294602D01*
X3253908Y2004598D02*
Y1979198D01*
X3304708D01*
Y2004598D01*
X3330108D01*
Y2055398D01*
X3304708D01*
Y2080798D01*
X3253908D01*
Y2055398D01*
X3228508D01*
Y2004598D01*
X3253908D01*
X4425259Y3815258D02*
Y3789858D01*
X4476059D01*
Y3815258D01*
X4501459D01*
Y3866058D01*
X4476059D01*
Y3891458D01*
X4425259D01*
Y3866058D01*
X4399859D01*
Y3815258D01*
X4425259D01*
D676*
X1530800Y345000D02*
G03*
X1530800Y345000I-50800J0D01*
G01*
Y695000D02*
G03*
X1530800Y695000I-50800J0D01*
G01*
%TF.MD5,4428a40087d622869eeece6b93054d1d*%
M02*
