%TF.GenerationSoftware,Altium Limited,Altium Designer,23.4.1 (23)*%
G04 Layer_Color=8421504*
%FSLAX45Y45*%
%MOMM*%
%TF.SameCoordinates,30DB59E4-3B06-4861-84B7-939192905612*%
%TF.FilePolarity,Positive*%
%TF.FileFunction,Paste,Top*%
%TF.Part,Single*%
G01*
G75*
%TA.AperFunction,OtherPad,Free Pad (4.95mm,4.05mm)*%
G04:AMPARAMS|DCode=35|XSize=0.38mm|YSize=0.25mm|CornerRadius=0.1125mm|HoleSize=0mm|Usage=FLASHONLY|Rotation=180.000|XOffset=0mm|YOffset=0mm|HoleType=Round|Shape=RoundedRectangle|*
%AMROUNDEDRECTD35*
21,1,0.38000,0.02500,0,0,180.0*
21,1,0.15500,0.25000,0,0,180.0*
1,1,0.22500,-0.07750,0.01250*
1,1,0.22500,0.07750,0.01250*
1,1,0.22500,0.07750,-0.01250*
1,1,0.22500,-0.07750,-0.01250*
%
%ADD35ROUNDEDRECTD35*%
%TA.AperFunction,OtherPad,Free Pad (4.95mm,4.55mm)*%
G04:AMPARAMS|DCode=36|XSize=0.38mm|YSize=0.25mm|CornerRadius=0.1125mm|HoleSize=0mm|Usage=FLASHONLY|Rotation=180.000|XOffset=0mm|YOffset=0mm|HoleType=Round|Shape=RoundedRectangle|*
%AMROUNDEDRECTD36*
21,1,0.38000,0.02500,0,0,180.0*
21,1,0.15500,0.25000,0,0,180.0*
1,1,0.22500,-0.07750,0.01250*
1,1,0.22500,0.07750,0.01250*
1,1,0.22500,0.07750,-0.01250*
1,1,0.22500,-0.07750,-0.01250*
%
%ADD36ROUNDEDRECTD36*%
%TA.AperFunction,OtherPad,Free Pad (4.95mm,5.05mm)*%
G04:AMPARAMS|DCode=37|XSize=0.38mm|YSize=0.25mm|CornerRadius=0.1125mm|HoleSize=0mm|Usage=FLASHONLY|Rotation=180.000|XOffset=0mm|YOffset=0mm|HoleType=Round|Shape=RoundedRectangle|*
%AMROUNDEDRECTD37*
21,1,0.38000,0.02500,0,0,180.0*
21,1,0.15500,0.25000,0,0,180.0*
1,1,0.22500,-0.07750,0.01250*
1,1,0.22500,0.07750,0.01250*
1,1,0.22500,0.07750,-0.01250*
1,1,0.22500,-0.07750,-0.01250*
%
%ADD37ROUNDEDRECTD37*%
%TA.AperFunction,OtherPad,Free Pad (4.95mm,5.55mm)*%
G04:AMPARAMS|DCode=38|XSize=0.38mm|YSize=0.25mm|CornerRadius=0.1125mm|HoleSize=0mm|Usage=FLASHONLY|Rotation=180.000|XOffset=0mm|YOffset=0mm|HoleType=Round|Shape=RoundedRectangle|*
%AMROUNDEDRECTD38*
21,1,0.38000,0.02500,0,0,180.0*
21,1,0.15500,0.25000,0,0,180.0*
1,1,0.22500,-0.07750,0.01250*
1,1,0.22500,0.07750,0.01250*
1,1,0.22500,0.07750,-0.01250*
1,1,0.22500,-0.07750,-0.01250*
%
%ADD38ROUNDEDRECTD38*%
%TA.AperFunction,OtherPad,Free Pad (5.55mm,5.55mm)*%
G04:AMPARAMS|DCode=39|XSize=0.62mm|YSize=0.25mm|CornerRadius=0.1125mm|HoleSize=0mm|Usage=FLASHONLY|Rotation=90.000|XOffset=0mm|YOffset=0mm|HoleType=Round|Shape=RoundedRectangle|*
%AMROUNDEDRECTD39*
21,1,0.62000,0.02500,0,0,90.0*
21,1,0.39500,0.25000,0,0,90.0*
1,1,0.22500,0.01250,0.19750*
1,1,0.22500,0.01250,-0.19750*
1,1,0.22500,-0.01250,-0.19750*
1,1,0.22500,-0.01250,0.19750*
%
%ADD39ROUNDEDRECTD39*%
%TA.AperFunction,OtherPad,Free Pad (6.05mm,5.65mm)*%
G04:AMPARAMS|DCode=40|XSize=0.4mm|YSize=0.25mm|CornerRadius=0.1125mm|HoleSize=0mm|Usage=FLASHONLY|Rotation=90.000|XOffset=0mm|YOffset=0mm|HoleType=Round|Shape=RoundedRectangle|*
%AMROUNDEDRECTD40*
21,1,0.40000,0.02500,0,0,90.0*
21,1,0.17500,0.25000,0,0,90.0*
1,1,0.22500,0.01250,0.08750*
1,1,0.22500,0.01250,-0.08750*
1,1,0.22500,-0.01250,-0.08750*
1,1,0.22500,-0.01250,0.08750*
%
%ADD40ROUNDEDRECTD40*%
%TA.AperFunction,OtherPad,Free Pad (6.55mm,5.55mm)*%
G04:AMPARAMS|DCode=41|XSize=0.62mm|YSize=0.25mm|CornerRadius=0.1125mm|HoleSize=0mm|Usage=FLASHONLY|Rotation=90.000|XOffset=0mm|YOffset=0mm|HoleType=Round|Shape=RoundedRectangle|*
%AMROUNDEDRECTD41*
21,1,0.62000,0.02500,0,0,90.0*
21,1,0.39500,0.25000,0,0,90.0*
1,1,0.22500,0.01250,0.19750*
1,1,0.22500,0.01250,-0.19750*
1,1,0.22500,-0.01250,-0.19750*
1,1,0.22500,-0.01250,0.19750*
%
%ADD41ROUNDEDRECTD41*%
%TA.AperFunction,OtherPad,Free Pad (6.55mm,3.95mm)*%
G04:AMPARAMS|DCode=42|XSize=0.4mm|YSize=0.25mm|CornerRadius=0.1125mm|HoleSize=0mm|Usage=FLASHONLY|Rotation=90.000|XOffset=0mm|YOffset=0mm|HoleType=Round|Shape=RoundedRectangle|*
%AMROUNDEDRECTD42*
21,1,0.40000,0.02500,0,0,90.0*
21,1,0.17500,0.25000,0,0,90.0*
1,1,0.22500,0.01250,0.08750*
1,1,0.22500,0.01250,-0.08750*
1,1,0.22500,-0.01250,-0.08750*
1,1,0.22500,-0.01250,0.08750*
%
%ADD42ROUNDEDRECTD42*%
%TA.AperFunction,OtherPad,Free Pad (6.05mm,4.05mm)*%
G04:AMPARAMS|DCode=43|XSize=0.62mm|YSize=0.25mm|CornerRadius=0.1125mm|HoleSize=0mm|Usage=FLASHONLY|Rotation=90.000|XOffset=0mm|YOffset=0mm|HoleType=Round|Shape=RoundedRectangle|*
%AMROUNDEDRECTD43*
21,1,0.62000,0.02500,0,0,90.0*
21,1,0.39500,0.25000,0,0,90.0*
1,1,0.22500,0.01250,0.19750*
1,1,0.22500,0.01250,-0.19750*
1,1,0.22500,-0.01250,-0.19750*
1,1,0.22500,-0.01250,0.19750*
%
%ADD43ROUNDEDRECTD43*%
%TA.AperFunction,OtherPad,Free Pad (5.55mm,3.95mm)*%
G04:AMPARAMS|DCode=44|XSize=0.4mm|YSize=0.25mm|CornerRadius=0.1125mm|HoleSize=0mm|Usage=FLASHONLY|Rotation=90.000|XOffset=0mm|YOffset=0mm|HoleType=Round|Shape=RoundedRectangle|*
%AMROUNDEDRECTD44*
21,1,0.40000,0.02500,0,0,90.0*
21,1,0.17500,0.25000,0,0,90.0*
1,1,0.22500,0.01250,0.08750*
1,1,0.22500,0.01250,-0.08750*
1,1,0.22500,-0.01250,-0.08750*
1,1,0.22500,-0.01250,0.08750*
%
%ADD44ROUNDEDRECTD44*%
%TA.AperFunction,SMDPad,CuDef*%
G04:AMPARAMS|DCode=45|XSize=0.53666mm|YSize=0.53666mm|CornerRadius=0.11833mm|HoleSize=0mm|Usage=FLASHONLY|Rotation=270.000|XOffset=0mm|YOffset=0mm|HoleType=Round|Shape=RoundedRectangle|*
%AMROUNDEDRECTD45*
21,1,0.53666,0.30000,0,0,270.0*
21,1,0.30000,0.53666,0,0,270.0*
1,1,0.23666,-0.15000,-0.15000*
1,1,0.23666,-0.15000,0.15000*
1,1,0.23666,0.15000,0.15000*
1,1,0.23666,0.15000,-0.15000*
%
%ADD45ROUNDEDRECTD45*%
G04:AMPARAMS|DCode=46|XSize=0.53666mm|YSize=0.53666mm|CornerRadius=0.11833mm|HoleSize=0mm|Usage=FLASHONLY|Rotation=0.000|XOffset=0mm|YOffset=0mm|HoleType=Round|Shape=RoundedRectangle|*
%AMROUNDEDRECTD46*
21,1,0.53666,0.30000,0,0,0.0*
21,1,0.30000,0.53666,0,0,0.0*
1,1,0.23666,0.15000,-0.15000*
1,1,0.23666,-0.15000,-0.15000*
1,1,0.23666,-0.15000,0.15000*
1,1,0.23666,0.15000,0.15000*
%
%ADD46ROUNDEDRECTD46*%
G04:AMPARAMS|DCode=47|XSize=0.69282mm|YSize=0.69282mm|CornerRadius=0.14641mm|HoleSize=0mm|Usage=FLASHONLY|Rotation=0.000|XOffset=0mm|YOffset=0mm|HoleType=Round|Shape=RoundedRectangle|*
%AMROUNDEDRECTD47*
21,1,0.69282,0.40000,0,0,0.0*
21,1,0.40000,0.69282,0,0,0.0*
1,1,0.29282,0.20000,-0.20000*
1,1,0.29282,-0.20000,-0.20000*
1,1,0.29282,-0.20000,0.20000*
1,1,0.29282,0.20000,0.20000*
%
%ADD47ROUNDEDRECTD47*%
G04:AMPARAMS|DCode=48|XSize=0.69282mm|YSize=0.69282mm|CornerRadius=0.14641mm|HoleSize=0mm|Usage=FLASHONLY|Rotation=90.000|XOffset=0mm|YOffset=0mm|HoleType=Round|Shape=RoundedRectangle|*
%AMROUNDEDRECTD48*
21,1,0.69282,0.40000,0,0,90.0*
21,1,0.40000,0.69282,0,0,90.0*
1,1,0.29282,0.20000,0.20000*
1,1,0.29282,0.20000,-0.20000*
1,1,0.29282,-0.20000,-0.20000*
1,1,0.29282,-0.20000,0.20000*
%
%ADD48ROUNDEDRECTD48*%
G04:AMPARAMS|DCode=49|XSize=1.45862mm|YSize=1.05862mm|CornerRadius=0.21681mm|HoleSize=0mm|Usage=FLASHONLY|Rotation=0.000|XOffset=0mm|YOffset=0mm|HoleType=Round|Shape=RoundedRectangle|*
%AMROUNDEDRECTD49*
21,1,1.45862,0.62500,0,0,0.0*
21,1,1.02500,1.05862,0,0,0.0*
1,1,0.43362,0.51250,-0.31250*
1,1,0.43362,-0.51250,-0.31250*
1,1,0.43362,-0.51250,0.31250*
1,1,0.43362,0.51250,0.31250*
%
%ADD49ROUNDEDRECTD49*%
G04:AMPARAMS|DCode=50|XSize=1.45862mm|YSize=1.05862mm|CornerRadius=0.21681mm|HoleSize=0mm|Usage=FLASHONLY|Rotation=270.000|XOffset=0mm|YOffset=0mm|HoleType=Round|Shape=RoundedRectangle|*
%AMROUNDEDRECTD50*
21,1,1.45862,0.62500,0,0,270.0*
21,1,1.02500,1.05862,0,0,270.0*
1,1,0.43362,-0.31250,-0.51250*
1,1,0.43362,-0.31250,0.51250*
1,1,0.43362,0.31250,0.51250*
1,1,0.43362,0.31250,-0.51250*
%
%ADD50ROUNDEDRECTD50*%
G04:AMPARAMS|DCode=51|XSize=3.13376mm|YSize=1.53376mm|CornerRadius=0.26688mm|HoleSize=0mm|Usage=FLASHONLY|Rotation=180.000|XOffset=0mm|YOffset=0mm|HoleType=Round|Shape=RoundedRectangle|*
%AMROUNDEDRECTD51*
21,1,3.13376,1.00000,0,0,180.0*
21,1,2.60000,1.53376,0,0,180.0*
1,1,0.53376,-1.30000,0.50000*
1,1,0.53376,1.30000,0.50000*
1,1,0.53376,1.30000,-0.50000*
1,1,0.53376,-1.30000,-0.50000*
%
%ADD51ROUNDEDRECTD51*%
G04:AMPARAMS|DCode=52|XSize=3.13376mm|YSize=1.53376mm|CornerRadius=0.26688mm|HoleSize=0mm|Usage=FLASHONLY|Rotation=90.000|XOffset=0mm|YOffset=0mm|HoleType=Round|Shape=RoundedRectangle|*
%AMROUNDEDRECTD52*
21,1,3.13376,1.00000,0,0,90.0*
21,1,2.60000,1.53376,0,0,90.0*
1,1,0.53376,0.50000,1.30000*
1,1,0.53376,0.50000,-1.30000*
1,1,0.53376,-0.50000,-1.30000*
1,1,0.53376,-0.50000,1.30000*
%
%ADD52ROUNDEDRECTD52*%
D35*
X495000Y405000D02*
D03*
D36*
Y455000D02*
D03*
D37*
Y505000D02*
D03*
D38*
Y555000D02*
D03*
D39*
X555000D02*
D03*
D40*
X605000Y565000D02*
D03*
D41*
X655000Y555000D02*
D03*
D42*
Y395000D02*
D03*
D43*
X605000Y405000D02*
D03*
D44*
X555000Y395000D02*
D03*
D45*
X260000Y270000D02*
D03*
X360000D02*
D03*
Y370000D02*
D03*
X260000D02*
D03*
Y170000D02*
D03*
X360000D02*
D03*
D46*
X580000Y730000D02*
D03*
Y830000D02*
D03*
D47*
X470000Y900000D02*
D03*
Y740000D02*
D03*
X130000Y350000D02*
D03*
Y190000D02*
D03*
X340000Y900000D02*
D03*
Y740000D02*
D03*
D48*
X190000Y530000D02*
D03*
X350000D02*
D03*
D49*
X1220000Y810000D02*
D03*
Y530000D02*
D03*
D50*
X1820000Y860000D02*
D03*
X1540000D02*
D03*
D51*
X1580000Y270000D02*
D03*
Y610000D02*
D03*
D52*
X860000Y230000D02*
D03*
X1200000D02*
D03*
%TF.MD5,64bfd9bf69834fd951854405956769d8*%
M02*
