%TF.GenerationSoftware,Altium Limited,Altium Designer,20.2.6 (244)*%
G04 Layer_Color=128*
%FSLAX45Y45*%
%MOMM*%
%TF.SameCoordinates,9E4D4D7D-1FFC-428C-BB03-7E89B6F1CBBC*%
%TF.FilePolarity,Positive*%
%TF.FileFunction,Drillmap*%
%TF.Part,Single*%
G01*
G75*
%TA.AperFunction,NonConductor*%
%ADD121C,0.12700*%
D121*
X399000Y236000D02*
X509000D01*
X454000Y181000D02*
Y291000D01*
X399000Y490000D02*
X509000D01*
X454000Y435000D02*
Y545000D01*
X399000Y744000D02*
X509000D01*
X454000Y689000D02*
Y799000D01*
X399000Y998000D02*
X509000D01*
X454000Y943000D02*
Y1053000D01*
X399000Y1252000D02*
X509000D01*
X454000Y1197000D02*
Y1307000D01*
X399000Y1506000D02*
X509000D01*
X454000Y1451000D02*
Y1561000D01*
X399000Y1760000D02*
X509000D01*
X454000Y1705000D02*
Y1815000D01*
X145000Y236000D02*
X255000D01*
X200000Y181000D02*
Y291000D01*
X145000Y490000D02*
X255000D01*
X200000Y435000D02*
Y545000D01*
X145000Y744000D02*
X255000D01*
X200000Y689000D02*
Y799000D01*
X145000Y998000D02*
X255000D01*
X200000Y943000D02*
Y1053000D01*
X145000Y1252000D02*
X255000D01*
X200000Y1197000D02*
Y1307000D01*
X145000Y1506000D02*
X255000D01*
X200000Y1451000D02*
Y1561000D01*
X145000Y1760000D02*
X255000D01*
X200000Y1705000D02*
Y1815000D01*
X1600000Y1560000D02*
X1675000D01*
X1637500Y1522500D02*
Y1597500D01*
X2060000Y1560000D02*
X2135000D01*
X2097500Y1522500D02*
Y1597500D01*
X1390000Y1860000D02*
X1510000D01*
X1450000Y1800000D02*
Y1920000D01*
X2225000Y1860000D02*
X2345000D01*
X2285000Y1800000D02*
Y1920000D01*
X1798565Y845001D02*
X1823565D01*
X1811065Y832501D02*
Y857500D01*
X1797500Y960000D02*
X1822500D01*
X1810000Y947500D02*
Y972500D01*
X1693617Y1068616D02*
X1718616D01*
X1706116Y1056117D02*
Y1081116D01*
X1906435Y965000D02*
X1931435D01*
X1918935Y952500D02*
Y977499D01*
X1689660Y843906D02*
X1714660D01*
X1702160Y831406D02*
Y856405D01*
X1697500Y620000D02*
X1722500D01*
X1710000Y607500D02*
Y632500D01*
X1898492Y614926D02*
X1923491D01*
X1910991Y602426D02*
Y627426D01*
X1685704Y967500D02*
X1710704D01*
X1698204Y955000D02*
Y980000D01*
X1578617Y1065052D02*
X1603617D01*
X1591117Y1052552D02*
Y1077552D01*
X1807497Y1069998D02*
X1832496D01*
X1819996Y1057498D02*
Y1082498D01*
X1908566Y1175000D02*
X1933565D01*
X1921065Y1162500D02*
Y1187500D01*
X2337500Y1280000D02*
X2362500D01*
X2350000Y1267500D02*
Y1292500D01*
X2277500Y480000D02*
X2302500D01*
X2290000Y467500D02*
Y492500D01*
X2337500Y390000D02*
X2362500D01*
X2350000Y377500D02*
Y402500D01*
X2287500Y1350000D02*
X2312500D01*
X2300000Y1337500D02*
Y1362500D01*
X2237500Y1510000D02*
X2262500D01*
X2250000Y1497500D02*
Y1522500D01*
X2352501Y1171065D02*
X2377500D01*
X2365000Y1158565D02*
Y1183565D01*
X2147496Y1049998D02*
X2172496D01*
X2159996Y1037498D02*
Y1062498D01*
X1217498Y1369997D02*
X1242497D01*
X1229998Y1357497D02*
Y1382497D01*
X1297500Y1370000D02*
X1322500D01*
X1310000Y1357500D02*
Y1382500D01*
X2107496Y1359997D02*
X2132496D01*
X2119996Y1347497D02*
Y1372497D01*
X1297498Y759998D02*
X1322497D01*
X1309997Y747499D02*
Y772498D01*
X1377500Y750000D02*
X1402500D01*
X1390000Y737500D02*
Y762500D01*
X1307500Y680000D02*
X1332500D01*
X1320000Y667500D02*
Y692500D01*
X1117498Y1099998D02*
X1142498D01*
X1129998Y1087498D02*
Y1112498D01*
X1167500Y1160000D02*
X1192500D01*
X1180000Y1147500D02*
Y1172500D01*
X2132143Y1170708D02*
X2157142D01*
X2144642Y1158208D02*
Y1183208D01*
X1917500Y1060000D02*
X1942500D01*
X1930000Y1047500D02*
Y1072500D01*
X2013935Y1272500D02*
X2038935D01*
X2026435Y1260001D02*
Y1285000D01*
X1157500Y1450000D02*
X1182500D01*
X1170000Y1437500D02*
Y1462500D01*
X1137500Y1020000D02*
X1162500D01*
X1150000Y1007500D02*
Y1032500D01*
X957500Y1020000D02*
X982500D01*
X970000Y1007500D02*
Y1032500D01*
X2136435Y625000D02*
X2161434D01*
X2148934Y612500D02*
Y637500D01*
X1877500Y380000D02*
X1902500D01*
X1890000Y367500D02*
Y392500D01*
X1467500Y400000D02*
X1492500D01*
X1480000Y387500D02*
Y412500D01*
X937498Y170000D02*
X962498D01*
X949998Y157500D02*
Y182500D01*
X2477500Y170000D02*
X2502500D01*
X2490000Y157500D02*
Y182500D01*
X715297Y490264D02*
X740297D01*
X727797Y477765D02*
Y502764D01*
X957500Y1140000D02*
X982500D01*
X970000Y1127500D02*
Y1152500D01*
X952500Y1445000D02*
X977500D01*
X965000Y1432500D02*
Y1457500D01*
X1457500Y1520000D02*
X1482500D01*
X1470000Y1507500D02*
Y1532500D01*
X1987500Y1710000D02*
X2012500D01*
X2000000Y1697500D02*
Y1722500D01*
X2607500Y568944D02*
X2632500D01*
X2620000Y556444D02*
Y581444D01*
X817500Y1870000D02*
X842500D01*
X830000Y1857500D02*
Y1882500D01*
X977500Y400000D02*
X1002500D01*
X990000Y387500D02*
Y412500D01*
X2047500Y1045000D02*
X2072500D01*
X2060000Y1032500D02*
Y1057500D01*
X1188981Y229704D02*
X1213980D01*
X1201480Y217204D02*
Y242204D01*
X2087500Y350000D02*
X2112500D01*
X2100000Y337500D02*
Y362500D01*
X2339356Y966607D02*
X2364355D01*
X2351856Y954107D02*
Y979107D01*
X2341486Y1077394D02*
X2366486D01*
X2353986Y1064894D02*
Y1089894D01*
X1957500Y170000D02*
X1982500D01*
X1970000Y157500D02*
Y182500D01*
X1697500Y230000D02*
X1722500D01*
X1710000Y217500D02*
Y242500D01*
X2207500Y110000D02*
X2232500D01*
X2220000Y97500D02*
Y122500D01*
X1437500Y110000D02*
X1462500D01*
X1450000Y97500D02*
Y122500D01*
X2457500Y270000D02*
X2482500D01*
X2470000Y257500D02*
Y282500D01*
X2127500Y850000D02*
X2152500D01*
X2140000Y837500D02*
Y862500D01*
%TF.MD5,dae34d5887e9039b68bc93d4ad1acbfd*%
M02*
