%TF.GenerationSoftware,Altium Limited,Altium Designer,20.2.6 (244)*%
G04 Layer_Color=8388736*
%FSLAX45Y45*%
%MOMM*%
%TF.SameCoordinates,9E4D4D7D-1FFC-428C-BB03-7E89B6F1CBBC*%
%TF.FilePolarity,Negative*%
%TF.FileFunction,Soldermask,Top*%
%TF.Part,Single*%
G01*
G75*
%TA.AperFunction,NonConductor*%
%ADD22C,0.15000*%
%ADD87R,5.40000X1.50000*%
%TA.AperFunction,SMDPad,CuDef*%
G04:AMPARAMS|DCode=88|XSize=1.55mm|YSize=2.35mm|CornerRadius=0.425mm|HoleSize=0mm|Usage=FLASHONLY|Rotation=0.000|XOffset=0mm|YOffset=0mm|HoleType=Round|Shape=RoundedRectangle|*
%AMROUNDEDRECTD88*
21,1,1.55000,1.50000,0,0,0.0*
21,1,0.70000,2.35000,0,0,0.0*
1,1,0.85000,0.35000,-0.75000*
1,1,0.85000,-0.35000,-0.75000*
1,1,0.85000,-0.35000,0.75000*
1,1,0.85000,0.35000,0.75000*
%
%ADD88ROUNDEDRECTD88*%
%TA.AperFunction,ComponentPad*%
G04:AMPARAMS|DCode=90|XSize=1.85mm|YSize=2.25mm|CornerRadius=0.5mm|HoleSize=0mm|Usage=FLASHONLY|Rotation=270.000|XOffset=0mm|YOffset=0mm|HoleType=Round|Shape=RoundedRectangle|*
%AMROUNDEDRECTD90*
21,1,1.85000,1.25001,0,0,270.0*
21,1,0.85000,2.25000,0,0,270.0*
1,1,1.00000,-0.62500,-0.42500*
1,1,1.00000,-0.62500,0.42500*
1,1,1.00000,0.62500,0.42500*
1,1,1.00000,0.62500,-0.42500*
%
%ADD90ROUNDEDRECTD90*%
G04:AMPARAMS|DCode=91|XSize=1.85mm|YSize=2.25mm|CornerRadius=0mm|HoleSize=0mm|Usage=FLASHONLY|Rotation=270.000|XOffset=0mm|YOffset=0mm|HoleType=Round|Shape=Octagon|*
%AMOCTAGOND91*
4,1,8,1.12500,0.46250,1.12500,-0.46250,0.66250,-0.92500,-0.66250,-0.92500,-1.12500,-0.46250,-1.12500,0.46250,-0.66250,0.92500,0.66250,0.92500,1.12500,0.46250,0.0*
%
%ADD91OCTAGOND91*%

G04:AMPARAMS|DCode=92|XSize=1.25mm|YSize=1.35mm|CornerRadius=0.35mm|HoleSize=0mm|Usage=FLASHONLY|Rotation=180.000|XOffset=0mm|YOffset=0mm|HoleType=Round|Shape=RoundedRectangle|*
%AMROUNDEDRECTD92*
21,1,1.25000,0.65000,0,0,180.0*
21,1,0.55000,1.35000,0,0,180.0*
1,1,0.70000,-0.27500,0.32500*
1,1,0.70000,0.27500,0.32500*
1,1,0.70000,0.27500,-0.32500*
1,1,0.70000,-0.27500,-0.32500*
%
%ADD92ROUNDEDRECTD92*%
G04:AMPARAMS|DCode=93|XSize=2.05mm|YSize=2.05mm|CornerRadius=0.55mm|HoleSize=0mm|Usage=FLASHONLY|Rotation=180.000|XOffset=0mm|YOffset=0mm|HoleType=Round|Shape=RoundedRectangle|*
%AMROUNDEDRECTD93*
21,1,2.05000,0.95000,0,0,180.0*
21,1,0.95000,2.05000,0,0,180.0*
1,1,1.10000,-0.47500,0.47500*
1,1,1.10000,0.47500,0.47500*
1,1,1.10000,0.47500,-0.47500*
1,1,1.10000,-0.47500,-0.47500*
%
%ADD93ROUNDEDRECTD93*%
%TA.AperFunction,BGAPad,CuDef*%
%ADD103C,0.75000*%
%TA.AperFunction,SMDPad,CuDef*%
G04:AMPARAMS|DCode=104|XSize=0.65mm|YSize=0.75mm|CornerRadius=0.2mm|HoleSize=0mm|Usage=FLASHONLY|Rotation=270.000|XOffset=0mm|YOffset=0mm|HoleType=Round|Shape=RoundedRectangle|*
%AMROUNDEDRECTD104*
21,1,0.65000,0.35000,0,0,270.0*
21,1,0.25000,0.75000,0,0,270.0*
1,1,0.40000,-0.17500,-0.12500*
1,1,0.40000,-0.17500,0.12500*
1,1,0.40000,0.17500,0.12500*
1,1,0.40000,0.17500,-0.12500*
%
%ADD104ROUNDEDRECTD104*%
G04:AMPARAMS|DCode=105|XSize=0.65mm|YSize=0.65mm|CornerRadius=0.2mm|HoleSize=0mm|Usage=FLASHONLY|Rotation=270.000|XOffset=0mm|YOffset=0mm|HoleType=Round|Shape=RoundedRectangle|*
%AMROUNDEDRECTD105*
21,1,0.65000,0.25000,0,0,270.0*
21,1,0.25000,0.65000,0,0,270.0*
1,1,0.40000,-0.12500,-0.12500*
1,1,0.40000,-0.12500,0.12500*
1,1,0.40000,0.12500,0.12500*
1,1,0.40000,0.12500,-0.12500*
%
%ADD105ROUNDEDRECTD105*%
%ADD106R,0.53000X1.55000*%
G04:AMPARAMS|DCode=107|XSize=0.53mm|YSize=1.55mm|CornerRadius=0.17mm|HoleSize=0mm|Usage=FLASHONLY|Rotation=180.000|XOffset=0mm|YOffset=0mm|HoleType=Round|Shape=RoundedRectangle|*
%AMROUNDEDRECTD107*
21,1,0.53000,1.21000,0,0,180.0*
21,1,0.19000,1.55000,0,0,180.0*
1,1,0.34000,-0.09500,0.60500*
1,1,0.34000,0.09500,0.60500*
1,1,0.34000,0.09500,-0.60500*
1,1,0.34000,-0.09500,-0.60500*
%
%ADD107ROUNDEDRECTD107*%
G04:AMPARAMS|DCode=108|XSize=3.05mm|YSize=2.05mm|CornerRadius=0.55mm|HoleSize=0mm|Usage=FLASHONLY|Rotation=180.000|XOffset=0mm|YOffset=0mm|HoleType=Round|Shape=RoundedRectangle|*
%AMROUNDEDRECTD108*
21,1,3.05000,0.95000,0,0,180.0*
21,1,1.95000,2.05000,0,0,180.0*
1,1,1.10000,-0.97500,0.47500*
1,1,1.10000,0.97500,0.47500*
1,1,1.10000,0.97500,-0.47500*
1,1,1.10000,-0.97500,-0.47500*
%
%ADD108ROUNDEDRECTD108*%
G04:AMPARAMS|DCode=109|XSize=1.25mm|YSize=1.25mm|CornerRadius=0.35mm|HoleSize=0mm|Usage=FLASHONLY|Rotation=270.000|XOffset=0mm|YOffset=0mm|HoleType=Round|Shape=RoundedRectangle|*
%AMROUNDEDRECTD109*
21,1,1.25000,0.55000,0,0,270.0*
21,1,0.55000,1.25000,0,0,270.0*
1,1,0.70000,-0.27500,-0.27500*
1,1,0.70000,-0.27500,0.27500*
1,1,0.70000,0.27500,0.27500*
1,1,0.70000,0.27500,-0.27500*
%
%ADD109ROUNDEDRECTD109*%
%ADD110R,1.25000X1.25000*%
G04:AMPARAMS|DCode=111|XSize=0.95mm|YSize=0.95mm|CornerRadius=0.275mm|HoleSize=0mm|Usage=FLASHONLY|Rotation=270.000|XOffset=0mm|YOffset=0mm|HoleType=Round|Shape=RoundedRectangle|*
%AMROUNDEDRECTD111*
21,1,0.95000,0.40000,0,0,270.0*
21,1,0.40000,0.95000,0,0,270.0*
1,1,0.55000,-0.20000,-0.20000*
1,1,0.55000,-0.20000,0.20000*
1,1,0.55000,0.20000,0.20000*
1,1,0.55000,0.20000,-0.20000*
%
%ADD111ROUNDEDRECTD111*%
%ADD112R,0.95000X0.95000*%
G04:AMPARAMS|DCode=113|XSize=0.65mm|YSize=0.65mm|CornerRadius=0.2mm|HoleSize=0mm|Usage=FLASHONLY|Rotation=180.000|XOffset=0mm|YOffset=0mm|HoleType=Round|Shape=RoundedRectangle|*
%AMROUNDEDRECTD113*
21,1,0.65000,0.25000,0,0,180.0*
21,1,0.25000,0.65000,0,0,180.0*
1,1,0.40000,-0.12500,0.12500*
1,1,0.40000,0.12500,0.12500*
1,1,0.40000,0.12500,-0.12500*
1,1,0.40000,-0.12500,-0.12500*
%
%ADD113ROUNDEDRECTD113*%
D22*
X1390033Y1309995D02*
Y1380000D01*
X1390035Y420000D02*
Y489995D01*
X1370000Y439995D02*
X1440031D01*
X1370000Y1359995D02*
X1440030D01*
X3010034Y420000D02*
Y489995D01*
X2810000Y439997D02*
X2879966D01*
X3010034Y1309995D02*
Y1380000D01*
X2810034Y1360000D02*
X2880000D01*
D87*
X2675000Y1870000D02*
D03*
D88*
X1334000Y170000D02*
D03*
X2350000D02*
D03*
X1080000D02*
D03*
X826000D02*
D03*
X2096000D02*
D03*
X1842000D02*
D03*
X2604000D02*
D03*
X1588000D02*
D03*
D90*
X474000Y236000D02*
D03*
Y490000D02*
D03*
Y744000D02*
D03*
Y998000D02*
D03*
Y1252000D02*
D03*
Y1506000D02*
D03*
Y1760000D02*
D03*
X180000Y236000D02*
D03*
Y490000D02*
D03*
Y744000D02*
D03*
Y998000D02*
D03*
Y1252000D02*
D03*
Y1506000D02*
D03*
D91*
Y1760000D02*
D03*
D92*
X1637500Y1560000D02*
D03*
X2097500D02*
D03*
D93*
X1450000Y1860000D02*
D03*
X2285000D02*
D03*
D103*
X1540000Y570000D02*
D03*
X1650000D02*
D03*
X1760000D02*
D03*
X1870000D02*
D03*
X1980000D02*
D03*
X2090000D02*
D03*
X2200000D02*
D03*
X2310000D02*
D03*
X2420000D02*
D03*
X2530000D02*
D03*
X2750000D02*
D03*
X2860000D02*
D03*
X1540000Y680000D02*
D03*
X1650000D02*
D03*
X1760000D02*
D03*
X1870000D02*
D03*
X1980000D02*
D03*
X2090000D02*
D03*
X2200000D02*
D03*
X2310000D02*
D03*
X2420000D02*
D03*
X2530000D02*
D03*
X1540000Y790000D02*
D03*
X1650000D02*
D03*
X1760000D02*
D03*
X1870000D02*
D03*
X1980000D02*
D03*
X2090000D02*
D03*
X2200000D02*
D03*
X2310000D02*
D03*
X2420000D02*
D03*
X2530000D02*
D03*
X1540000Y900000D02*
D03*
X1650000D02*
D03*
X1760000D02*
D03*
X1870000D02*
D03*
X1980000D02*
D03*
X2090000D02*
D03*
X2200000D02*
D03*
X2310000D02*
D03*
X2420000D02*
D03*
X2530000D02*
D03*
X1540000Y1010000D02*
D03*
X1650000D02*
D03*
X1760000D02*
D03*
X1870000D02*
D03*
X1980000D02*
D03*
X2090000D02*
D03*
X2200000D02*
D03*
X2310000D02*
D03*
X2420000D02*
D03*
X2530000D02*
D03*
X1540000Y1120000D02*
D03*
X1650000D02*
D03*
X1760000D02*
D03*
X1870000D02*
D03*
X1980000D02*
D03*
X2090000D02*
D03*
X2200000D02*
D03*
X2310000D02*
D03*
X2420000D02*
D03*
X2530000D02*
D03*
X1540000Y1230000D02*
D03*
X1650000D02*
D03*
X1760000D02*
D03*
X1870000D02*
D03*
X1980000D02*
D03*
X2090000D02*
D03*
X2200000D02*
D03*
X2310000D02*
D03*
X2420000D02*
D03*
X2530000D02*
D03*
X2750000D02*
D03*
X2860000D02*
D03*
D104*
X705000Y1380000D02*
D03*
X895000Y1445000D02*
D03*
Y1315000D02*
D03*
X705000Y780000D02*
D03*
X895000Y845000D02*
D03*
Y715000D02*
D03*
D105*
X790000Y1200000D02*
D03*
X890000D02*
D03*
X890000Y1560000D02*
D03*
X790000D02*
D03*
X2410000Y1430000D02*
D03*
X2310000D02*
D03*
X1950000D02*
D03*
X2050000D02*
D03*
X890000Y590000D02*
D03*
X790000D02*
D03*
X890000Y950000D02*
D03*
X790000D02*
D03*
X1660000Y1430000D02*
D03*
X1560000D02*
D03*
X890000Y490000D02*
D03*
X790000D02*
D03*
D106*
X1737500Y1600000D02*
D03*
D107*
X1802500D02*
D03*
X1867500D02*
D03*
X1932500D02*
D03*
X1997500D02*
D03*
D108*
X1867500Y1860000D02*
D03*
D109*
X730000Y1870000D02*
D03*
D110*
X1030000D02*
D03*
D111*
X720000Y1700000D02*
D03*
Y1080000D02*
D03*
D112*
X880000Y1700000D02*
D03*
Y1080000D02*
D03*
D113*
X1310000Y1010000D02*
D03*
Y910000D02*
D03*
%TF.MD5,514b95da36af7cf0aeed0fdae2d3917c*%
M02*
