%TF.GenerationSoftware,Altium Limited,Altium Designer,20.2.6 (244)*%
G04 Layer_Color=65535*
%FSLAX45Y45*%
%MOMM*%
%TF.SameCoordinates,9E4D4D7D-1FFC-428C-BB03-7E89B6F1CBBC*%
%TF.FilePolarity,Positive*%
%TF.FileFunction,Legend,Top*%
%TF.Part,Single*%
G01*
G75*
%TA.AperFunction,NonConductor*%
%ADD22C,0.15000*%
%ADD94C,0.20000*%
%ADD95C,0.10000*%
G36*
X1410000Y565000D02*
X1510000Y465000D01*
X1410000D01*
Y565000D01*
D02*
G37*
D22*
X903000Y1265000D02*
G03*
X903000Y1265000I-8000J0D01*
G01*
Y665000D02*
G03*
X903000Y665000I-8000J0D01*
G01*
X1745289Y1494927D02*
G03*
X1745289Y1494927I-8000J0D01*
G01*
X918000Y1635000D02*
G03*
X918000Y1635000I-8000J0D01*
G01*
Y1015000D02*
G03*
X918000Y1015000I-8000J0D01*
G01*
X1410000Y465000D02*
Y1335000D01*
X2990000Y465000D02*
Y1335000D01*
X1410000D02*
X2990000D01*
X1410000Y465000D02*
X2990000D01*
X1410000Y565000D02*
X1510000Y465000D01*
X2650000Y1150000D02*
X2990000D01*
X2650000Y650000D02*
Y1150000D01*
Y650000D02*
X2985000D01*
X735000Y1440000D02*
Y1490000D01*
X825000D01*
X735000Y1270000D02*
Y1320000D01*
Y1270000D02*
X825000D01*
X735000Y840000D02*
Y890000D01*
X825000D01*
X735000Y670000D02*
Y720000D01*
Y670000D02*
X825000D01*
X820000Y1175000D02*
X860000D01*
X820000Y1225000D02*
X860000D01*
X820000Y1585000D02*
X860000D01*
X820000Y1535000D02*
X860000D01*
X2340000Y1455000D02*
X2380000D01*
X2340000Y1405000D02*
X2380000D01*
X1980000D02*
X2020000D01*
X1980000Y1455000D02*
X2020000D01*
X820000Y615000D02*
X860000D01*
X820000Y565000D02*
X860000D01*
X820000Y975000D02*
X860000D01*
X820000Y925000D02*
X860000D01*
X1922000Y50000D02*
X1968854D01*
X1924004Y289000D02*
X1968252D01*
X1968171Y293822D02*
X1969000Y35000D01*
X1969146Y289000D02*
X2016000D01*
X1969748Y50000D02*
X2013997D01*
X1968171Y310000D02*
X1969000Y35000D01*
X699440Y289481D02*
X746294D01*
X699748Y50000D02*
X743997D01*
X699000Y35000D02*
Y310000D01*
X2684000Y50000D02*
X2730854D01*
X2686024Y289815D02*
X2730272D01*
X2731000Y35000D02*
Y310000D01*
X80000Y617146D02*
Y664000D01*
X574000Y617748D02*
Y661997D01*
X65000Y617000D02*
X589000D01*
X574000Y570000D02*
Y616854D01*
X80000Y572003D02*
Y616252D01*
X65000Y617000D02*
X589000D01*
X574000Y1840000D02*
Y1886854D01*
X80000Y1842003D02*
Y1886252D01*
X65000Y1887000D02*
X589000D01*
X80000Y109146D02*
Y156000D01*
X574000Y109748D02*
Y153997D01*
X65000Y109000D02*
X589000D01*
X1497500Y2000000D02*
X2237500D01*
X1497500Y1545000D02*
Y1745000D01*
Y1545000D02*
X1567500D01*
X1497500Y1972189D02*
Y2000000D01*
X2237500Y1545000D02*
Y1745000D01*
Y1972189D02*
Y2000000D01*
X2167500Y1545000D02*
X2237500D01*
X909894Y1870000D02*
X960000D01*
X850000Y1810106D02*
X909894Y1870000D01*
X869894D02*
X909894D01*
X850000Y1810106D02*
Y1929894D01*
X909772Y1870122D01*
X909894Y1815000D02*
Y1930000D01*
X800000Y1870000D02*
X869894D01*
X853351Y305107D02*
X800035D01*
X853351Y358423D01*
Y371752D01*
X840022Y385081D01*
X813364D01*
X800035Y371752D01*
X2536000Y300000D02*
X2562658D01*
X2549329D01*
Y379974D01*
X2536000Y366645D01*
X2655961Y379974D02*
X2629303Y366645D01*
X2602645Y339987D01*
Y313329D01*
X2615974Y300000D01*
X2642632D01*
X2655961Y313329D01*
Y326658D01*
X2642632Y339987D01*
X2602645D01*
X414999Y1911684D02*
Y1965000D01*
X468316Y1911684D01*
X481645D01*
X494974Y1925013D01*
Y1951671D01*
X481645Y1965000D01*
X155000Y1945000D02*
Y1918342D01*
Y1931671D01*
X234974D01*
X221645Y1945000D01*
X983355Y1469987D02*
X1036671D01*
X1010013D01*
Y1390013D01*
X1116645D02*
X1063329D01*
X1116645Y1443329D01*
Y1456658D01*
X1103316Y1469987D01*
X1076658D01*
X1063329Y1456658D01*
X983355Y1160013D02*
Y1239987D01*
X1023342D01*
X1036671Y1226658D01*
Y1200000D01*
X1023342Y1186671D01*
X983355D01*
X1010013D02*
X1036671Y1160013D01*
X1116645Y1239987D02*
X1089987Y1226658D01*
X1063329Y1200000D01*
Y1173342D01*
X1076658Y1160013D01*
X1103316D01*
X1116645Y1173342D01*
Y1186671D01*
X1103316Y1200000D01*
X1063329D01*
X983355Y1520013D02*
Y1599987D01*
X1023342D01*
X1036671Y1586658D01*
Y1560000D01*
X1023342Y1546671D01*
X983355D01*
X1010013D02*
X1036671Y1520013D01*
X1116645Y1599987D02*
X1063329D01*
Y1560000D01*
X1089987Y1573329D01*
X1103316D01*
X1116645Y1560000D01*
Y1533342D01*
X1103316Y1520013D01*
X1076658D01*
X1063329Y1533342D01*
X2293355Y1510013D02*
Y1589987D01*
X2333342D01*
X2346671Y1576658D01*
Y1550000D01*
X2333342Y1536671D01*
X2293355D01*
X2320013D02*
X2346671Y1510013D01*
X2413316D02*
Y1589987D01*
X2373329Y1550000D01*
X2426645D01*
X1133355Y1909987D02*
Y1830013D01*
X1173342D01*
X1186671Y1843342D01*
Y1896658D01*
X1173342Y1909987D01*
X1133355D01*
X1213329Y1896658D02*
X1226658Y1909987D01*
X1253316D01*
X1266645Y1896658D01*
Y1883329D01*
X1253316Y1870000D01*
X1239987D01*
X1253316D01*
X1266645Y1856671D01*
Y1843342D01*
X1253316Y1830013D01*
X1226658D01*
X1213329Y1843342D01*
X983355Y1739987D02*
Y1660013D01*
X1023342D01*
X1036671Y1673342D01*
Y1726658D01*
X1023342Y1739987D01*
X983355D01*
X1116645Y1660013D02*
X1063329D01*
X1116645Y1713329D01*
Y1726658D01*
X1103316Y1739987D01*
X1076658D01*
X1063329Y1726658D01*
X2113355Y1390013D02*
Y1469987D01*
X2153342D01*
X2166671Y1456658D01*
Y1430000D01*
X2153342Y1416671D01*
X2113355D01*
X2140013D02*
X2166671Y1390013D01*
X2193329Y1456658D02*
X2206658Y1469987D01*
X2233316D01*
X2246645Y1456658D01*
Y1443329D01*
X2233316Y1430000D01*
X2219987D01*
X2233316D01*
X2246645Y1416671D01*
Y1403342D01*
X2233316Y1390013D01*
X2206658D01*
X2193329Y1403342D01*
X2773355Y190013D02*
Y269987D01*
X2813342D01*
X2826671Y256658D01*
Y230000D01*
X2813342Y216671D01*
X2773355D01*
X2906645Y190013D02*
X2853329D01*
X2906645Y243329D01*
Y256658D01*
X2893316Y269987D01*
X2866658D01*
X2853329Y256658D01*
X2350000Y1719987D02*
X2323342D01*
X2336671D01*
Y1653342D01*
X2323342Y1640013D01*
X2310013D01*
X2296684Y1653342D01*
X2376658Y1640013D02*
X2403316D01*
X2389987D01*
Y1719987D01*
X2376658Y1706658D01*
X1426671Y1456658D02*
X1413342Y1469987D01*
X1386684D01*
X1373355Y1456658D01*
Y1403342D01*
X1386684Y1390013D01*
X1413342D01*
X1426671Y1403342D01*
X1453329Y1456658D02*
X1466658Y1469987D01*
X1493316D01*
X1506645Y1456658D01*
Y1443329D01*
X1493316Y1430000D01*
X1479987D01*
X1493316D01*
X1506645Y1416671D01*
Y1403342D01*
X1493316Y1390013D01*
X1466658D01*
X1453329Y1403342D01*
X1256684Y1319987D02*
Y1253342D01*
X1270013Y1240013D01*
X1296671D01*
X1310000Y1253342D01*
Y1319987D01*
X1336658Y1240013D02*
X1363316D01*
X1349987D01*
Y1319987D01*
X1336658Y1306658D01*
X983355Y869987D02*
X1036671D01*
X1010013D01*
Y790013D01*
X1063329D02*
X1089987D01*
X1076658D01*
Y869987D01*
X1063329Y856658D01*
X983355Y560013D02*
Y639987D01*
X1023342D01*
X1036671Y626658D01*
Y600000D01*
X1023342Y586671D01*
X983355D01*
X1010013D02*
X1036671Y560013D01*
X1116645D02*
X1063329D01*
X1116645Y613329D01*
Y626658D01*
X1103316Y639987D01*
X1076658D01*
X1063329Y626658D01*
X983355Y910013D02*
Y989987D01*
X1023342D01*
X1036671Y976658D01*
Y950000D01*
X1023342Y936671D01*
X983355D01*
X1010013D02*
X1036671Y910013D01*
X1063329D02*
X1089987D01*
X1076658D01*
Y989987D01*
X1063329Y976658D01*
X616684Y1530013D02*
Y1609987D01*
X656671D01*
X670000Y1596658D01*
Y1570000D01*
X656671Y1556671D01*
X616684D01*
X696658Y1530013D02*
X723316D01*
X709987D01*
Y1609987D01*
X696658Y1596658D01*
X983355Y1119987D02*
Y1040013D01*
X1023342D01*
X1036671Y1053342D01*
Y1106658D01*
X1023342Y1119987D01*
X983355D01*
X1063329Y1040013D02*
X1089987D01*
X1076658D01*
Y1119987D01*
X1063329Y1106658D01*
X1310000Y846658D02*
X1296671Y859987D01*
X1270013D01*
X1256684Y846658D01*
Y793342D01*
X1270013Y780013D01*
X1296671D01*
X1310000Y793342D01*
X1336658Y780013D02*
X1363316D01*
X1349987D01*
Y859987D01*
X1336658Y846658D01*
X1036671Y516658D02*
X1023342Y529987D01*
X996684D01*
X983355Y516658D01*
Y463342D01*
X996684Y450013D01*
X1023342D01*
X1036671Y463342D01*
X1116645Y450013D02*
X1063329D01*
X1116645Y503329D01*
Y516658D01*
X1103316Y529987D01*
X1076658D01*
X1063329Y516658D01*
D94*
X95000Y1930000D02*
G03*
X95000Y1930000I-15000J0D01*
G01*
X1070000Y1785000D02*
G03*
X1070000Y1785000I-5000J0D01*
G01*
X2780000Y1720000D02*
X2880000D01*
X2750000Y1600000D02*
Y1700000D01*
X2910000Y1600000D02*
Y1700000D01*
X2780000Y1580000D02*
X2880000D01*
X2750000Y1450000D02*
Y1550000D01*
X2910000Y1450000D02*
Y1550000D01*
X2780000Y1420000D02*
X2880000D01*
X2520000D02*
X2620000D01*
X2650000Y1450000D02*
Y1550000D01*
X2490000Y1450000D02*
Y1550000D01*
X2520000Y1580000D02*
X2620000D01*
X2650000Y1600000D02*
Y1700000D01*
X2490000Y1600000D02*
Y1700000D01*
X2520000Y1720000D02*
X2620000D01*
X2890000Y700000D02*
X2788433D01*
X2737649Y750783D01*
X2788433Y801567D01*
X2890000D01*
X2813825D01*
Y700000D01*
X2890000Y852351D02*
X2737649D01*
X2890000Y953918D01*
X2737649D01*
Y1004701D02*
Y1106269D01*
Y1055485D01*
X2890000D01*
D95*
X780000Y1700000D02*
X820000D01*
X780000Y1660000D02*
Y1740000D01*
X820000Y1700000D01*
X780000Y1660000D02*
X820000Y1700000D01*
Y1660000D02*
Y1740000D01*
Y1700000D02*
X830106D01*
X830228Y1700122D01*
X770577Y1700000D02*
X780000D01*
Y1080000D02*
X820000D01*
X780000Y1040000D02*
Y1120000D01*
X820000Y1080000D01*
X780000Y1040000D02*
X820000Y1080000D01*
Y1040000D02*
Y1120000D01*
Y1080000D02*
X830106D01*
X830228Y1080122D01*
X770577Y1080000D02*
X780000D01*
X1620000Y1430000D02*
X1625094D01*
X1594711D02*
X1600000D01*
Y1402511D02*
Y1457619D01*
X1620000Y1402373D02*
Y1457895D01*
X850000Y490000D02*
X855094D01*
X824711D02*
X830000D01*
Y462511D02*
Y517619D01*
X850000Y462373D02*
Y517895D01*
X1310000Y970000D02*
Y975094D01*
Y944711D02*
Y950000D01*
X1282381D02*
X1337489D01*
X1282105Y970000D02*
X1337627D01*
%TF.MD5,7c869935901e5045c768b8ead4b381c5*%
M02*
