%TF.GenerationSoftware,Altium Limited,Altium Designer,22.10.1 (41)*%
G04 Layer_Color=8388736*
%FSLAX45Y45*%
%MOMM*%
%TF.SameCoordinates,A8474BD1-FA4A-4BD0-88DA-22D9B4FA892B*%
%TF.FilePolarity,Positive*%
%TF.FileFunction,Other,Top_Designator*%
%TF.Part,Single*%
G01*
G75*
%TA.AperFunction,NonConductor*%
%ADD674C,0.10000*%
D674*
X5599958Y3930035D02*
X5589962Y3940031D01*
X5569968D01*
X5559971Y3930035D01*
Y3890048D01*
X5569968Y3880051D01*
X5589962D01*
X5599958Y3890048D01*
X5619952Y3880051D02*
X5639946D01*
X5629949D01*
Y3940031D01*
X5619952Y3930035D01*
X4957476Y3499952D02*
X4947479Y3509949D01*
X4927485D01*
X4917489Y3499952D01*
Y3459965D01*
X4927485Y3449968D01*
X4947479D01*
X4957476Y3459965D01*
X4977469Y3449968D02*
X4997463D01*
X4987466D01*
Y3509949D01*
X4977469Y3499952D01*
X5027453D02*
X5037450Y3509949D01*
X5057443D01*
X5067440Y3499952D01*
Y3459965D01*
X5057443Y3449968D01*
X5037450D01*
X5027453Y3459965D01*
Y3499952D01*
X4849965Y3672471D02*
X4839968Y3662474D01*
Y3642480D01*
X4849965Y3632484D01*
X4889952D01*
X4899949Y3642480D01*
Y3662474D01*
X4889952Y3672471D01*
X4899949Y3692464D02*
Y3712458D01*
Y3702461D01*
X4839968D01*
X4849965Y3692464D01*
X4899949Y3742448D02*
Y3762442D01*
Y3752445D01*
X4839968D01*
X4849965Y3742448D01*
X4949965Y3714963D02*
X4939968Y3704966D01*
Y3684973D01*
X4949965Y3674976D01*
X4989952D01*
X4999949Y3684973D01*
Y3704966D01*
X4989952Y3714963D01*
X4999949Y3764947D02*
X4939968D01*
X4969959Y3734957D01*
Y3774944D01*
X5049965Y3714963D02*
X5039968Y3704966D01*
Y3684973D01*
X5049965Y3674976D01*
X5089952D01*
X5099949Y3684973D01*
Y3704966D01*
X5089952Y3714963D01*
X5039968Y3774944D02*
Y3734957D01*
X5069958D01*
X5059962Y3754950D01*
Y3764947D01*
X5069958Y3774944D01*
X5089952D01*
X5099949Y3764947D01*
Y3744953D01*
X5089952Y3734957D01*
X5167476Y4060035D02*
X5157479Y4070031D01*
X5137485D01*
X5127489Y4060035D01*
Y4020048D01*
X5137485Y4010051D01*
X5157479D01*
X5167476Y4020048D01*
X5187469Y4010051D02*
X5207463D01*
X5197466D01*
Y4070031D01*
X5187469Y4060035D01*
X5277440Y4010051D02*
X5237453D01*
X5277440Y4050038D01*
Y4060035D01*
X5267443Y4070031D01*
X5247449D01*
X5237453Y4060035D01*
X5167476Y3960034D02*
X5157479Y3970031D01*
X5137485D01*
X5127489Y3960034D01*
Y3920048D01*
X5137485Y3910051D01*
X5157479D01*
X5167476Y3920048D01*
X5187469Y3910051D02*
X5207463D01*
X5197466D01*
Y3970031D01*
X5187469Y3960034D01*
X5237453D02*
X5247449Y3970031D01*
X5267443D01*
X5277440Y3960034D01*
Y3950038D01*
X5267443Y3940041D01*
X5257446D01*
X5267443D01*
X5277440Y3930044D01*
Y3920048D01*
X5267443Y3910051D01*
X5247449D01*
X5237453Y3920048D01*
X5704963Y3449952D02*
X5694967Y3459949D01*
X5674973D01*
X5664976Y3449952D01*
Y3409965D01*
X5674973Y3399968D01*
X5694967D01*
X5704963Y3409965D01*
X5724957Y3449952D02*
X5734953Y3459949D01*
X5754947D01*
X5764944Y3449952D01*
Y3439955D01*
X5754947Y3429959D01*
X5744950D01*
X5754947D01*
X5764944Y3419962D01*
Y3409965D01*
X5754947Y3399968D01*
X5734953D01*
X5724957Y3409965D01*
X5744963Y3069952D02*
X5734967Y3079949D01*
X5714973D01*
X5704976Y3069952D01*
Y3029965D01*
X5714973Y3019968D01*
X5734967D01*
X5744963Y3029965D01*
X5764957Y3079949D02*
X5804944D01*
Y3069952D01*
X5764957Y3029965D01*
Y3019968D01*
X5764963Y3189993D02*
X5754967Y3199990D01*
X5734973D01*
X5724976Y3189993D01*
Y3150006D01*
X5734973Y3140010D01*
X5754967D01*
X5764963Y3150006D01*
X5784957Y3189993D02*
X5794954Y3199990D01*
X5814947D01*
X5824944Y3189993D01*
Y3179997D01*
X5814947Y3170000D01*
X5824944Y3160003D01*
Y3150006D01*
X5814947Y3140010D01*
X5794954D01*
X5784957Y3150006D01*
Y3160003D01*
X5794954Y3170000D01*
X5784957Y3179997D01*
Y3189993D01*
X5794954Y3170000D02*
X5814947D01*
X5770003Y2969993D02*
X5760007Y2979990D01*
X5740013D01*
X5730016Y2969993D01*
Y2930006D01*
X5740013Y2920010D01*
X5760007D01*
X5770003Y2930006D01*
X5789997D02*
X5799994Y2920010D01*
X5819987D01*
X5829984Y2930006D01*
Y2969993D01*
X5819987Y2979990D01*
X5799994D01*
X5789997Y2969993D01*
Y2959997D01*
X5799994Y2950000D01*
X5829984D01*
X4759978Y2790035D02*
X4749981Y2800031D01*
X4729987D01*
X4719991Y2790035D01*
Y2750048D01*
X4729987Y2740051D01*
X4749981D01*
X4759978Y2750048D01*
X4819958Y2740051D02*
X4779971D01*
X4819958Y2780038D01*
Y2790035D01*
X4809962Y2800031D01*
X4789968D01*
X4779971Y2790035D01*
X4839952D02*
X4849949Y2800031D01*
X4869942D01*
X4879939Y2790035D01*
Y2750048D01*
X4869942Y2740051D01*
X4849949D01*
X4839952Y2750048D01*
Y2790035D01*
X4774973Y2890035D02*
X4764976Y2900032D01*
X4744983D01*
X4734986Y2890035D01*
Y2850048D01*
X4744983Y2840051D01*
X4764976D01*
X4774973Y2850048D01*
X4834953Y2840051D02*
X4794967D01*
X4834953Y2880038D01*
Y2890035D01*
X4824957Y2900032D01*
X4804963D01*
X4794967Y2890035D01*
X4854947Y2840051D02*
X4874941D01*
X4864944D01*
Y2900032D01*
X4854947Y2890035D01*
X5610006Y2770013D02*
X5600009Y2760016D01*
Y2740022D01*
X5610006Y2730026D01*
X5649993D01*
X5659990Y2740022D01*
Y2760016D01*
X5649993Y2770013D01*
X5659990Y2829993D02*
Y2790006D01*
X5620003Y2829993D01*
X5610006D01*
X5600009Y2819997D01*
Y2800003D01*
X5610006Y2790006D01*
X5659990Y2889974D02*
Y2849987D01*
X5620003Y2889974D01*
X5610006D01*
X5600009Y2879977D01*
Y2859984D01*
X5610006Y2849987D01*
X5720006Y2770013D02*
X5710009Y2760016D01*
Y2740022D01*
X5720006Y2730026D01*
X5759993D01*
X5769990Y2740022D01*
Y2760016D01*
X5759993Y2770013D01*
X5769990Y2829993D02*
Y2790006D01*
X5730003Y2829993D01*
X5720006D01*
X5710009Y2819997D01*
Y2800003D01*
X5720006Y2790006D01*
Y2849987D02*
X5710009Y2859984D01*
Y2879977D01*
X5720006Y2889974D01*
X5730003D01*
X5740000Y2879977D01*
Y2869981D01*
Y2879977D01*
X5749996Y2889974D01*
X5759993D01*
X5769990Y2879977D01*
Y2859984D01*
X5759993Y2849987D01*
X4290006Y2159977D02*
X4280009Y2149981D01*
Y2129987D01*
X4290006Y2119990D01*
X4329993D01*
X4339990Y2129987D01*
Y2149981D01*
X4329993Y2159977D01*
Y2179971D02*
X4339990Y2189968D01*
Y2209961D01*
X4329993Y2219958D01*
X4290006D01*
X4280009Y2209961D01*
Y2189968D01*
X4290006Y2179971D01*
X4300003D01*
X4310000Y2189968D01*
Y2219958D01*
X4280009Y2239952D02*
Y2279939D01*
X4290006D01*
X4329993Y2239952D01*
X4339990D01*
X4360006Y4689977D02*
X4350009Y4679981D01*
Y4659987D01*
X4360006Y4649990D01*
X4399993D01*
X4409990Y4659987D01*
Y4679981D01*
X4399993Y4689977D01*
Y4709971D02*
X4409990Y4719968D01*
Y4739961D01*
X4399993Y4749958D01*
X4360006D01*
X4350009Y4739961D01*
Y4719968D01*
X4360006Y4709971D01*
X4370003D01*
X4380000Y4719968D01*
Y4749958D01*
X4350009Y4809939D02*
Y4769952D01*
X4380000D01*
X4370003Y4789945D01*
Y4799942D01*
X4380000Y4809939D01*
X4399993D01*
X4409990Y4799942D01*
Y4779948D01*
X4399993Y4769952D01*
X2340006Y1219978D02*
X2330010Y1209981D01*
Y1189987D01*
X2340006Y1179991D01*
X2379993D01*
X2389990Y1189987D01*
Y1209981D01*
X2379993Y1219978D01*
X2330010Y1239971D02*
Y1279958D01*
X2340006D01*
X2379993Y1239971D01*
X2389990D01*
X2330010Y1339939D02*
X2340006Y1319946D01*
X2360000Y1299952D01*
X2379993D01*
X2389990Y1309949D01*
Y1329942D01*
X2379993Y1339939D01*
X2369997D01*
X2360000Y1329942D01*
Y1299952D01*
X5482490Y1279993D02*
X5472493Y1289990D01*
X5452500D01*
X5442503Y1279993D01*
Y1240006D01*
X5452500Y1230010D01*
X5472493D01*
X5482490Y1240006D01*
X5502484Y1230010D02*
X5522477D01*
X5512480D01*
Y1289990D01*
X5502484Y1279993D01*
X5552467D02*
X5562464Y1289990D01*
X5582458D01*
X5592454Y1279993D01*
Y1240006D01*
X5582458Y1230010D01*
X5562464D01*
X5552467Y1240006D01*
Y1279993D01*
X5612448D02*
X5622445Y1289990D01*
X5642438D01*
X5652435Y1279993D01*
Y1269997D01*
X5642438Y1260000D01*
X5632442D01*
X5642438D01*
X5652435Y1250003D01*
Y1240006D01*
X5642438Y1230010D01*
X5622445D01*
X5612448Y1240006D01*
X2050006Y789978D02*
X2040009Y779981D01*
Y759987D01*
X2050006Y749991D01*
X2089993D01*
X2099990Y759987D01*
Y779981D01*
X2089993Y789978D01*
X2040009Y809971D02*
Y849958D01*
X2050006D01*
X2089993Y809971D01*
X2099990D01*
X2040009Y869952D02*
Y909939D01*
X2050006D01*
X2089993Y869952D01*
X2099990D01*
X3590006Y2069978D02*
X3580009Y2059981D01*
Y2039987D01*
X3590006Y2029991D01*
X3629993D01*
X3639990Y2039987D01*
Y2059981D01*
X3629993Y2069978D01*
Y2089971D02*
X3639990Y2099968D01*
Y2119961D01*
X3629993Y2129958D01*
X3590006D01*
X3580009Y2119961D01*
Y2099968D01*
X3590006Y2089971D01*
X3600003D01*
X3610000Y2099968D01*
Y2129958D01*
X3639990Y2179942D02*
X3580009D01*
X3610000Y2149952D01*
Y2189939D01*
X5309978Y3310035D02*
X5299981Y3320031D01*
X5279988D01*
X5269991Y3310035D01*
Y3270048D01*
X5279988Y3260051D01*
X5299981D01*
X5309978Y3270048D01*
X5369959Y3320031D02*
X5349965Y3310035D01*
X5329972Y3290041D01*
Y3270048D01*
X5339968Y3260051D01*
X5359962D01*
X5369959Y3270048D01*
Y3280044D01*
X5359962Y3290041D01*
X5329972D01*
X5429939Y3260051D02*
X5389952D01*
X5429939Y3300038D01*
Y3310035D01*
X5419942Y3320031D01*
X5399949D01*
X5389952Y3310035D01*
X6339978Y1769952D02*
X6329981Y1779949D01*
X6309988D01*
X6299991Y1769952D01*
Y1729965D01*
X6309988Y1719969D01*
X6329981D01*
X6339978Y1729965D01*
X6399958Y1779949D02*
X6379965Y1769952D01*
X6359972Y1749959D01*
Y1729965D01*
X6369968Y1719969D01*
X6389962D01*
X6399958Y1729965D01*
Y1739962D01*
X6389962Y1749959D01*
X6359972D01*
X6459939Y1779949D02*
X6419952D01*
Y1749959D01*
X6439946Y1759956D01*
X6449942D01*
X6459939Y1749959D01*
Y1729965D01*
X6449942Y1719969D01*
X6429949D01*
X6419952Y1729965D01*
X6819978Y1540035D02*
X6809981Y1550032D01*
X6789987D01*
X6779991Y1540035D01*
Y1500048D01*
X6789987Y1490051D01*
X6809981D01*
X6819978Y1500048D01*
X6879958Y1550032D02*
X6859965Y1540035D01*
X6839971Y1520041D01*
Y1500048D01*
X6849968Y1490051D01*
X6869962D01*
X6879958Y1500048D01*
Y1510045D01*
X6869962Y1520041D01*
X6839971D01*
X6899952Y1540035D02*
X6909949Y1550032D01*
X6929942D01*
X6939939Y1540035D01*
Y1530038D01*
X6929942Y1520041D01*
X6939939Y1510045D01*
Y1500048D01*
X6929942Y1490051D01*
X6909949D01*
X6899952Y1500048D01*
Y1510045D01*
X6909949Y1520041D01*
X6899952Y1530038D01*
Y1540035D01*
X6909949Y1520041D02*
X6929942D01*
X6839977Y3000034D02*
X6829981Y3010031D01*
X6809987D01*
X6799990Y3000034D01*
Y2960047D01*
X6809987Y2950051D01*
X6829981D01*
X6839977Y2960047D01*
X6899958Y3010031D02*
X6879965Y3000034D01*
X6859971Y2980041D01*
Y2960047D01*
X6869968Y2950051D01*
X6889961D01*
X6899958Y2960047D01*
Y2970044D01*
X6889961Y2980041D01*
X6859971D01*
X6919952Y2960047D02*
X6929948Y2950051D01*
X6949942D01*
X6959939Y2960047D01*
Y3000034D01*
X6949942Y3010031D01*
X6929948D01*
X6919952Y3000034D01*
Y2990038D01*
X6929948Y2980041D01*
X6959939D01*
X8119978Y2860034D02*
X8109981Y2870031D01*
X8089988D01*
X8079991Y2860034D01*
Y2820047D01*
X8089988Y2810051D01*
X8109981D01*
X8119978Y2820047D01*
X8139972Y2870031D02*
X8179958D01*
Y2860034D01*
X8139972Y2820047D01*
Y2810051D01*
X8239939D02*
X8199952D01*
X8239939Y2850038D01*
Y2860034D01*
X8229942Y2870031D01*
X8209949D01*
X8199952Y2860034D01*
X7039977Y2050035D02*
X7029981Y2060032D01*
X7009987D01*
X6999990Y2050035D01*
Y2010048D01*
X7009987Y2000051D01*
X7029981D01*
X7039977Y2010048D01*
X7099958Y2060032D02*
X7079965Y2050035D01*
X7059971Y2030041D01*
Y2010048D01*
X7069968Y2000051D01*
X7089961D01*
X7099958Y2010048D01*
Y2020045D01*
X7089961Y2030041D01*
X7059971D01*
X7149942Y2000051D02*
Y2060032D01*
X7119951Y2030041D01*
X7159938D01*
X6630047Y3609978D02*
X6620051Y3599981D01*
Y3579987D01*
X6630047Y3569991D01*
X6670034D01*
X6680031Y3579987D01*
Y3599981D01*
X6670034Y3609978D01*
X6620051Y3629971D02*
Y3669958D01*
X6630047D01*
X6670034Y3629971D01*
X6680031D01*
X6630047Y3689952D02*
X6620051Y3699948D01*
Y3719942D01*
X6630047Y3729939D01*
X6670034D01*
X6680031Y3719942D01*
Y3699948D01*
X6670034Y3689952D01*
X6630047D01*
X7492490Y3050035D02*
X7482493Y3060031D01*
X7462500D01*
X7452503Y3050035D01*
Y3010048D01*
X7462500Y3000051D01*
X7482493D01*
X7492490Y3010048D01*
X7512484Y3000051D02*
X7532477D01*
X7522480D01*
Y3060031D01*
X7512484Y3050035D01*
X7602454Y3000051D02*
X7562467D01*
X7602454Y3040038D01*
Y3050035D01*
X7592458Y3060031D01*
X7572464D01*
X7562467Y3050035D01*
X7622448D02*
X7632444Y3060031D01*
X7652438D01*
X7662435Y3050035D01*
Y3040038D01*
X7652438Y3030041D01*
X7642441D01*
X7652438D01*
X7662435Y3020045D01*
Y3010048D01*
X7652438Y3000051D01*
X7632444D01*
X7622448Y3010048D01*
X7512490Y1600035D02*
X7502493Y1610032D01*
X7482500D01*
X7472503Y1600035D01*
Y1560048D01*
X7482500Y1550051D01*
X7502493D01*
X7512490Y1560048D01*
X7532484Y1550051D02*
X7552477D01*
X7542480D01*
Y1610032D01*
X7532484Y1600035D01*
X7622454Y1550051D02*
X7582467D01*
X7622454Y1590038D01*
Y1600035D01*
X7612457Y1610032D01*
X7592464D01*
X7582467Y1600035D01*
X7672438Y1550051D02*
Y1610032D01*
X7642448Y1580041D01*
X7682435D01*
X6692490Y1150035D02*
X6682494Y1160031D01*
X6662500D01*
X6652503Y1150035D01*
Y1110048D01*
X6662500Y1100051D01*
X6682494D01*
X6692490Y1110048D01*
X6712484Y1100051D02*
X6732478D01*
X6722481D01*
Y1160031D01*
X6712484Y1150035D01*
X6802455Y1100051D02*
X6762468D01*
X6802455Y1140038D01*
Y1150035D01*
X6792458Y1160031D01*
X6772464D01*
X6762468Y1150035D01*
X6862435Y1160031D02*
X6822448D01*
Y1130041D01*
X6842442Y1140038D01*
X6852438D01*
X6862435Y1130041D01*
Y1110048D01*
X6852438Y1100051D01*
X6832445D01*
X6822448Y1110048D01*
X7512490Y2590034D02*
X7502493Y2600031D01*
X7482500D01*
X7472503Y2590034D01*
Y2550047D01*
X7482500Y2540051D01*
X7502493D01*
X7512490Y2550047D01*
X7532484Y2540051D02*
X7552477D01*
X7542480D01*
Y2600031D01*
X7532484Y2590034D01*
X7622454Y2540051D02*
X7582467D01*
X7622454Y2580038D01*
Y2590034D01*
X7612457Y2600031D01*
X7592464D01*
X7582467Y2590034D01*
X7682435Y2600031D02*
X7662441Y2590034D01*
X7642448Y2570041D01*
Y2550047D01*
X7652444Y2540051D01*
X7672438D01*
X7682435Y2550047D01*
Y2560044D01*
X7672438Y2570041D01*
X7642448D01*
X6629965Y3832490D02*
X6619968Y3822493D01*
Y3802499D01*
X6629965Y3792503D01*
X6669952D01*
X6679949Y3802499D01*
Y3822493D01*
X6669952Y3832490D01*
X6679949Y3852483D02*
Y3872477D01*
Y3862480D01*
X6619968D01*
X6629965Y3852483D01*
X6679949Y3942454D02*
Y3902467D01*
X6639962Y3942454D01*
X6629965D01*
X6619968Y3932457D01*
Y3912464D01*
X6629965Y3902467D01*
X6619968Y3962447D02*
Y4002434D01*
X6629965D01*
X6669952Y3962447D01*
X6679949D01*
X7049965Y3842490D02*
X7039968Y3832493D01*
Y3812499D01*
X7049965Y3802503D01*
X7089952D01*
X7099949Y3812499D01*
Y3832493D01*
X7089952Y3842490D01*
X7099949Y3862483D02*
Y3882477D01*
Y3872480D01*
X7039968D01*
X7049965Y3862483D01*
X7099949Y3952454D02*
Y3912467D01*
X7059962Y3952454D01*
X7049965D01*
X7039968Y3942457D01*
Y3922464D01*
X7049965Y3912467D01*
Y3972447D02*
X7039968Y3982444D01*
Y4002438D01*
X7049965Y4012434D01*
X7059962D01*
X7069958Y4002438D01*
X7079955Y4012434D01*
X7089952D01*
X7099949Y4002438D01*
Y3982444D01*
X7089952Y3972447D01*
X7079955D01*
X7069958Y3982444D01*
X7059962Y3972447D01*
X7049965D01*
X7069958Y3982444D02*
Y4002438D01*
X4804963Y3250035D02*
X4794967Y3260032D01*
X4774973D01*
X4764976Y3250035D01*
Y3210048D01*
X4774973Y3200051D01*
X4794967D01*
X4804963Y3210048D01*
X4864944Y3200051D02*
X4824957D01*
X4864944Y3240038D01*
Y3250035D01*
X4854947Y3260032D01*
X4834953D01*
X4824957Y3250035D01*
X3639965Y4739977D02*
X3629968Y4729981D01*
Y4709987D01*
X3639965Y4699990D01*
X3679952D01*
X3689949Y4709987D01*
Y4729981D01*
X3679952Y4739977D01*
X3639965Y4759971D02*
X3629968Y4769968D01*
Y4789961D01*
X3639965Y4799958D01*
X3649962D01*
X3659958Y4789961D01*
X3669955Y4799958D01*
X3679952D01*
X3689949Y4789961D01*
Y4769968D01*
X3679952Y4759971D01*
X3669955D01*
X3659958Y4769968D01*
X3649962Y4759971D01*
X3639965D01*
X3659958Y4769968D02*
Y4789961D01*
X3689949Y4849942D02*
X3629968D01*
X3659958Y4819951D01*
Y4859938D01*
X4020048Y1252490D02*
X4010051Y1242493D01*
Y1222499D01*
X4020048Y1212503D01*
X4060035D01*
X4070031Y1222499D01*
Y1242493D01*
X4060035Y1252490D01*
X4070031Y1272483D02*
Y1292477D01*
Y1282480D01*
X4010051D01*
X4020048Y1272483D01*
Y1322467D02*
X4010051Y1332464D01*
Y1352457D01*
X4020048Y1362454D01*
X4060035D01*
X4070031Y1352457D01*
Y1332464D01*
X4060035Y1322467D01*
X4020048D01*
X4070031Y1412438D02*
X4010051D01*
X4040041Y1382448D01*
Y1422435D01*
X5822490Y3449952D02*
X5812494Y3459949D01*
X5792500D01*
X5782503Y3449952D01*
Y3409965D01*
X5792500Y3399968D01*
X5812494D01*
X5822490Y3409965D01*
X5842484Y3399968D02*
X5862477D01*
X5852481D01*
Y3459949D01*
X5842484Y3449952D01*
X5892468D02*
X5902464Y3459949D01*
X5922458D01*
X5932454Y3449952D01*
Y3409965D01*
X5922458Y3399968D01*
X5902464D01*
X5892468Y3409965D01*
Y3449952D01*
X5992435Y3459949D02*
X5952448D01*
Y3429959D01*
X5972442Y3439955D01*
X5982438D01*
X5992435Y3429959D01*
Y3409965D01*
X5982438Y3399968D01*
X5962445D01*
X5952448Y3409965D01*
X3819965Y1252490D02*
X3809968Y1242493D01*
Y1222499D01*
X3819965Y1212503D01*
X3859952D01*
X3869949Y1222499D01*
Y1242493D01*
X3859952Y1252490D01*
X3869949Y1272483D02*
Y1292477D01*
Y1282480D01*
X3809968D01*
X3819965Y1272483D01*
Y1322467D02*
X3809968Y1332464D01*
Y1352457D01*
X3819965Y1362454D01*
X3859952D01*
X3869949Y1352457D01*
Y1332464D01*
X3859952Y1322467D01*
X3819965D01*
X3809968Y1422435D02*
X3819965Y1402441D01*
X3839958Y1382448D01*
X3859952D01*
X3869949Y1392444D01*
Y1412438D01*
X3859952Y1422435D01*
X3849955D01*
X3839958Y1412438D01*
Y1382448D01*
X3200006Y1482490D02*
X3190009Y1472493D01*
Y1452500D01*
X3200006Y1442503D01*
X3239993D01*
X3249990Y1452500D01*
Y1472493D01*
X3239993Y1482490D01*
X3249990Y1502483D02*
Y1522477D01*
Y1512480D01*
X3190009D01*
X3200006Y1502483D01*
Y1552467D02*
X3190009Y1562464D01*
Y1582457D01*
X3200006Y1592454D01*
X3239993D01*
X3249990Y1582457D01*
Y1562464D01*
X3239993Y1552467D01*
X3200006D01*
X3190009Y1612448D02*
Y1652435D01*
X3200006D01*
X3239993Y1612448D01*
X3249990D01*
X3592490Y1680034D02*
X3582493Y1690031D01*
X3562500D01*
X3552503Y1680034D01*
Y1640048D01*
X3562500Y1630051D01*
X3582493D01*
X3592490Y1640048D01*
X3612484Y1630051D02*
X3632477D01*
X3622480D01*
Y1690031D01*
X3612484Y1680034D01*
X3662467D02*
X3672464Y1690031D01*
X3692458D01*
X3702454Y1680034D01*
Y1640048D01*
X3692458Y1630051D01*
X3672464D01*
X3662467Y1640048D01*
Y1680034D01*
X3722448D02*
X3732445Y1690031D01*
X3752438D01*
X3762435Y1680034D01*
Y1670038D01*
X3752438Y1660041D01*
X3762435Y1650044D01*
Y1640048D01*
X3752438Y1630051D01*
X3732445D01*
X3722448Y1640048D01*
Y1650044D01*
X3732445Y1660041D01*
X3722448Y1670038D01*
Y1680034D01*
X3732445Y1660041D02*
X3752438D01*
X3269988Y1739993D02*
X3259991Y1749990D01*
X3239998D01*
X3230001Y1739993D01*
Y1700007D01*
X3239998Y1690010D01*
X3259991D01*
X3269988Y1700007D01*
X3289981Y1690010D02*
X3309975D01*
X3299978D01*
Y1749990D01*
X3289981Y1739993D01*
X3339965Y1690010D02*
X3359959D01*
X3349962D01*
Y1749990D01*
X3339965Y1739993D01*
X3389949Y1749990D02*
X3429936D01*
Y1739993D01*
X3389949Y1700007D01*
Y1690010D01*
X5910006Y3582490D02*
X5900010Y3572493D01*
Y3552500D01*
X5910006Y3542503D01*
X5949993D01*
X5959990Y3552500D01*
Y3572493D01*
X5949993Y3582490D01*
X5959990Y3602484D02*
Y3622477D01*
Y3612480D01*
X5900010D01*
X5910006Y3602484D01*
Y3652467D02*
X5900010Y3662464D01*
Y3682458D01*
X5910006Y3692454D01*
X5949993D01*
X5959990Y3682458D01*
Y3662464D01*
X5949993Y3652467D01*
X5910006D01*
X5949993Y3712448D02*
X5959990Y3722445D01*
Y3742438D01*
X5949993Y3752435D01*
X5910006D01*
X5900010Y3742438D01*
Y3722445D01*
X5910006Y3712448D01*
X5920003D01*
X5930000Y3722445D01*
Y3752435D01*
X3349988Y2740034D02*
X3339991Y2750031D01*
X3319998D01*
X3310001Y2740034D01*
Y2700047D01*
X3319998Y2690051D01*
X3339991D01*
X3349988Y2700047D01*
X3369982Y2690051D02*
X3389975D01*
X3379978D01*
Y2750031D01*
X3369982Y2740034D01*
X3419965Y2690051D02*
X3439959D01*
X3429962D01*
Y2750031D01*
X3419965Y2740034D01*
X3469949D02*
X3479946Y2750031D01*
X3499939D01*
X3509936Y2740034D01*
Y2730038D01*
X3499939Y2720041D01*
X3489942D01*
X3499939D01*
X3509936Y2710044D01*
Y2700047D01*
X3499939Y2690051D01*
X3479946D01*
X3469949Y2700047D01*
X3920020Y1759993D02*
X3910023Y1769990D01*
X3890029D01*
X3880033Y1759993D01*
Y1720006D01*
X3890029Y1710010D01*
X3910023D01*
X3920020Y1720006D01*
X3940013Y1710010D02*
X3960007D01*
X3950010D01*
Y1769990D01*
X3940013Y1759993D01*
X3989997Y1710010D02*
X4009990D01*
X3999994D01*
Y1769990D01*
X3989997Y1759993D01*
X4039980D02*
X4049977Y1769990D01*
X4069971D01*
X4079967Y1759993D01*
Y1720006D01*
X4069971Y1710010D01*
X4049977D01*
X4039980Y1720006D01*
Y1759993D01*
X3900020Y1089993D02*
X3890023Y1099990D01*
X3870029D01*
X3860033Y1089993D01*
Y1050006D01*
X3870029Y1040010D01*
X3890023D01*
X3900020Y1050006D01*
X3920013Y1040010D02*
X3940007D01*
X3930010D01*
Y1099990D01*
X3920013Y1089993D01*
X3969997Y1040010D02*
X3989990D01*
X3979994D01*
Y1099990D01*
X3969997Y1089993D01*
X4049971Y1040010D02*
Y1099990D01*
X4019981Y1070000D01*
X4059967D01*
X4290006Y1090019D02*
X4280009Y1080023D01*
Y1060029D01*
X4290006Y1050032D01*
X4329993D01*
X4339990Y1060029D01*
Y1080023D01*
X4329993Y1090019D01*
X4339990Y1110013D02*
Y1130007D01*
Y1120010D01*
X4280009D01*
X4290006Y1110013D01*
X4339990Y1159997D02*
Y1179990D01*
Y1169993D01*
X4280009D01*
X4290006Y1159997D01*
X4280009Y1249967D02*
X4290006Y1229974D01*
X4310000Y1209980D01*
X4329993D01*
X4339990Y1219977D01*
Y1239971D01*
X4329993Y1249967D01*
X4319996D01*
X4310000Y1239971D01*
Y1209980D01*
X3840020Y949993D02*
X3830023Y959990D01*
X3810029D01*
X3800033Y949993D01*
Y910006D01*
X3810029Y900010D01*
X3830023D01*
X3840020Y910006D01*
X3860013Y900010D02*
X3880007D01*
X3870010D01*
Y959990D01*
X3860013Y949993D01*
X3909997Y900010D02*
X3929991D01*
X3919994D01*
Y959990D01*
X3909997Y949993D01*
X3999968Y959990D02*
X3959981D01*
Y930000D01*
X3979974Y939997D01*
X3989971D01*
X3999968Y930000D01*
Y910006D01*
X3989971Y900010D01*
X3969977D01*
X3959981Y910006D01*
X2059978Y1070034D02*
X2049981Y1080031D01*
X2029988D01*
X2019991Y1070034D01*
Y1030047D01*
X2029988Y1020051D01*
X2049981D01*
X2059978Y1030047D01*
X2079971Y1070034D02*
X2089968Y1080031D01*
X2109962D01*
X2119958Y1070034D01*
Y1060038D01*
X2109962Y1050041D01*
X2119958Y1040044D01*
Y1030047D01*
X2109962Y1020051D01*
X2089968D01*
X2079971Y1030047D01*
Y1040044D01*
X2089968Y1050041D01*
X2079971Y1060038D01*
Y1070034D01*
X2089968Y1050041D02*
X2109962D01*
X2139952Y1070034D02*
X2149949Y1080031D01*
X2169942D01*
X2179939Y1070034D01*
Y1030047D01*
X2169942Y1020051D01*
X2149949D01*
X2139952Y1030047D01*
Y1070034D01*
X6320006Y2280013D02*
X6310009Y2270016D01*
Y2250022D01*
X6320006Y2240026D01*
X6359993D01*
X6369990Y2250022D01*
Y2270016D01*
X6359993Y2280013D01*
X6310009Y2339993D02*
X6320006Y2320000D01*
X6340000Y2300006D01*
X6359993D01*
X6369990Y2310003D01*
Y2329997D01*
X6359993Y2339993D01*
X6349996D01*
X6340000Y2329997D01*
Y2300006D01*
X6320006Y2359987D02*
X6310009Y2369984D01*
Y2389977D01*
X6320006Y2399974D01*
X6330003D01*
X6340000Y2389977D01*
Y2379981D01*
Y2389977D01*
X6349996Y2399974D01*
X6359993D01*
X6369990Y2389977D01*
Y2369984D01*
X6359993Y2359987D01*
X3590007Y2377476D02*
X3580010Y2367479D01*
Y2347486D01*
X3590007Y2337489D01*
X3629994D01*
X3639990Y2347486D01*
Y2367479D01*
X3629994Y2377476D01*
X3639990Y2397469D02*
Y2417463D01*
Y2407466D01*
X3580010D01*
X3590007Y2397469D01*
X3580010Y2487440D02*
X3590007Y2467447D01*
X3610000Y2447453D01*
X3629994D01*
X3639990Y2457450D01*
Y2477443D01*
X3629994Y2487440D01*
X3619997D01*
X3610000Y2477443D01*
Y2447453D01*
X6309965Y3037476D02*
X6299968Y3027479D01*
Y3007485D01*
X6309965Y2997489D01*
X6349952D01*
X6359949Y3007485D01*
Y3027479D01*
X6349952Y3037476D01*
X6359949Y3057469D02*
Y3077463D01*
Y3067466D01*
X6299968D01*
X6309965Y3057469D01*
X6299968Y3107453D02*
Y3147440D01*
X6309965D01*
X6349952Y3107453D01*
X6359949D01*
X6009965Y3037476D02*
X5999968Y3027479D01*
Y3007485D01*
X6009965Y2997489D01*
X6049952D01*
X6059949Y3007485D01*
Y3027479D01*
X6049952Y3037476D01*
X6059949Y3057469D02*
Y3077463D01*
Y3067466D01*
X5999968D01*
X6009965Y3057469D01*
Y3107453D02*
X5999968Y3117449D01*
Y3137443D01*
X6009965Y3147440D01*
X6019962D01*
X6029958Y3137443D01*
X6039955Y3147440D01*
X6049952D01*
X6059949Y3137443D01*
Y3117449D01*
X6049952Y3107453D01*
X6039955D01*
X6029958Y3117449D01*
X6019962Y3107453D01*
X6009965D01*
X6029958Y3117449D02*
Y3137443D01*
X7890047Y5009988D02*
X7880051Y4999991D01*
Y4979997D01*
X7890047Y4970001D01*
X7930034D01*
X7940031Y4979997D01*
Y4999991D01*
X7930034Y5009988D01*
X7940031Y5029981D02*
Y5049975D01*
Y5039978D01*
X7880051D01*
X7890047Y5029981D01*
X7940031Y5079965D02*
Y5099959D01*
Y5089962D01*
X7880051D01*
X7890047Y5079965D01*
Y5129949D02*
X7880051Y5139945D01*
Y5159939D01*
X7890047Y5169936D01*
X7900044D01*
X7910041Y5159939D01*
X7920037Y5169936D01*
X7930034D01*
X7940031Y5159939D01*
Y5139945D01*
X7930034Y5129949D01*
X7920037D01*
X7910041Y5139945D01*
X7900044Y5129949D01*
X7890047D01*
X7910041Y5139945D02*
Y5159939D01*
X5889978Y1560034D02*
X5879981Y1570031D01*
X5859988D01*
X5849991Y1560034D01*
Y1520048D01*
X5859988Y1510051D01*
X5879981D01*
X5889978Y1520048D01*
X5949959Y1570031D02*
X5929965Y1560034D01*
X5909972Y1540041D01*
Y1520048D01*
X5919968Y1510051D01*
X5939962D01*
X5949959Y1520048D01*
Y1530044D01*
X5939962Y1540041D01*
X5909972D01*
X6009939Y1570031D02*
X5989946Y1560034D01*
X5969952Y1540041D01*
Y1520048D01*
X5979949Y1510051D01*
X5999943D01*
X6009939Y1520048D01*
Y1530044D01*
X5999943Y1540041D01*
X5969952D01*
X5889978Y1980035D02*
X5879981Y1990032D01*
X5859988D01*
X5849991Y1980035D01*
Y1940048D01*
X5859988Y1930051D01*
X5879981D01*
X5889978Y1940048D01*
X5949959Y1990032D02*
X5929965Y1980035D01*
X5909972Y1960041D01*
Y1940048D01*
X5919968Y1930051D01*
X5939962D01*
X5949959Y1940048D01*
Y1950045D01*
X5939962Y1960041D01*
X5909972D01*
X5969952Y1990032D02*
X6009939D01*
Y1980035D01*
X5969952Y1940048D01*
Y1930051D01*
X7870048Y359987D02*
X7860051Y349991D01*
Y329997D01*
X7870048Y320000D01*
X7910034D01*
X7920031Y329997D01*
Y349991D01*
X7910034Y359987D01*
X7920031Y379981D02*
Y399975D01*
Y389978D01*
X7860051D01*
X7870048Y379981D01*
X7920031Y429965D02*
Y449958D01*
Y439961D01*
X7860051D01*
X7870048Y429965D01*
X7910034Y479948D02*
X7920031Y489945D01*
Y509939D01*
X7910034Y519935D01*
X7870048D01*
X7860051Y509939D01*
Y489945D01*
X7870048Y479948D01*
X7880044D01*
X7890041Y489945D01*
Y519935D01*
X7002490Y3000034D02*
X6992493Y3010031D01*
X6972499D01*
X6962503Y3000034D01*
Y2960047D01*
X6972499Y2950051D01*
X6992493D01*
X7002490Y2960047D01*
X7022483Y2950051D02*
X7042477D01*
X7032480D01*
Y3010031D01*
X7022483Y3000034D01*
X7072467D02*
X7082464Y3010031D01*
X7102457D01*
X7112454Y3000034D01*
Y2960047D01*
X7102457Y2950051D01*
X7082464D01*
X7072467Y2960047D01*
Y3000034D01*
X7132448D02*
X7142444Y3010031D01*
X7162438D01*
X7172434Y3000034D01*
Y2960047D01*
X7162438Y2950051D01*
X7142444D01*
X7132448Y2960047D01*
Y3000034D01*
X7766821Y3404637D02*
Y3344657D01*
X7796811D01*
X7806808Y3354653D01*
Y3394640D01*
X7796811Y3404637D01*
X7766821D01*
X7826802Y3344657D02*
X7846795D01*
X7836798D01*
Y3404637D01*
X7826802Y3394640D01*
X7916772Y3404637D02*
X7896779Y3394640D01*
X7876785Y3374647D01*
Y3354653D01*
X7886782Y3344657D01*
X7906776D01*
X7916772Y3354653D01*
Y3364650D01*
X7906776Y3374647D01*
X7876785D01*
X7766821Y1644638D02*
Y1584657D01*
X7796811D01*
X7806808Y1594654D01*
Y1634641D01*
X7796811Y1644638D01*
X7766821D01*
X7826802Y1584657D02*
X7846795D01*
X7836798D01*
Y1644638D01*
X7826802Y1634641D01*
X7876785Y1644638D02*
X7916772D01*
Y1634641D01*
X7876785Y1594654D01*
Y1584657D01*
X7804976Y3904637D02*
Y3844657D01*
X7834967D01*
X7844963Y3854653D01*
Y3894640D01*
X7834967Y3904637D01*
X7804976D01*
X7864957Y3894640D02*
X7874954Y3904637D01*
X7894947D01*
X7904944Y3894640D01*
Y3884644D01*
X7894947Y3874647D01*
X7884950D01*
X7894947D01*
X7904944Y3864650D01*
Y3854653D01*
X7894947Y3844657D01*
X7874954D01*
X7864957Y3854653D01*
X7804976Y2144638D02*
Y2084657D01*
X7834967D01*
X7844963Y2094654D01*
Y2134641D01*
X7834967Y2144638D01*
X7804976D01*
X7894947Y2084657D02*
Y2144638D01*
X7864957Y2114647D01*
X7904944D01*
X2210010Y809971D02*
X2269990D01*
Y849958D01*
Y869952D02*
Y889945D01*
Y879948D01*
X2210010D01*
X2220007Y869952D01*
X2460010Y794976D02*
X2519990D01*
Y834963D01*
Y894944D02*
Y854957D01*
X2480003Y894944D01*
X2470007D01*
X2460010Y884947D01*
Y864954D01*
X2470007Y854957D01*
X1433476Y5113510D02*
Y5173490D01*
X1453470Y5153497D01*
X1473463Y5173490D01*
Y5113510D01*
X1533444Y5173490D02*
X1513451Y5163493D01*
X1493457Y5143500D01*
Y5123506D01*
X1503454Y5113510D01*
X1523447D01*
X1533444Y5123506D01*
Y5133503D01*
X1523447Y5143500D01*
X1493457D01*
X5659971Y3980010D02*
Y4039990D01*
X5689962D01*
X5699958Y4029993D01*
Y4010000D01*
X5689962Y4000003D01*
X5659971D01*
X5679965D02*
X5699958Y3980010D01*
X5719952D02*
X5739946D01*
X5729949D01*
Y4039990D01*
X5719952Y4029993D01*
X5444976Y3980010D02*
Y4039990D01*
X5474967D01*
X5484963Y4029993D01*
Y4010000D01*
X5474967Y4000003D01*
X5444976D01*
X5464970D02*
X5484963Y3980010D01*
X5544944D02*
X5504957D01*
X5544944Y4019997D01*
Y4029993D01*
X5534947Y4039990D01*
X5514954D01*
X5504957Y4029993D01*
X4774976Y4200010D02*
Y4259990D01*
X4804967D01*
X4814963Y4249993D01*
Y4230000D01*
X4804967Y4220003D01*
X4774976D01*
X4794970D02*
X4814963Y4200010D01*
X4834957Y4259990D02*
X4874944D01*
Y4249993D01*
X4834957Y4210006D01*
Y4200010D01*
X5519990Y3504976D02*
X5460010D01*
Y3534967D01*
X5470007Y3544963D01*
X5490000D01*
X5499997Y3534967D01*
Y3504976D01*
Y3524970D02*
X5519990Y3544963D01*
X5470007Y3564957D02*
X5460010Y3574954D01*
Y3594947D01*
X5470007Y3604944D01*
X5480003D01*
X5490000Y3594947D01*
X5499997Y3604944D01*
X5509994D01*
X5519990Y3594947D01*
Y3574954D01*
X5509994Y3564957D01*
X5499997D01*
X5490000Y3574954D01*
X5480003Y3564957D01*
X5470007D01*
X5490000Y3574954D02*
Y3594947D01*
X6125087Y3950010D02*
Y4009990D01*
X6155078D01*
X6165074Y3999993D01*
Y3980000D01*
X6155078Y3970003D01*
X6125087D01*
X6145081D02*
X6165074Y3950010D01*
X6185068Y3960006D02*
X6195065Y3950010D01*
X6215058D01*
X6225055Y3960006D01*
Y3999993D01*
X6215058Y4009990D01*
X6195065D01*
X6185068Y3999993D01*
Y3989997D01*
X6195065Y3980000D01*
X6225055D01*
X4764976Y3100010D02*
Y3159990D01*
X4794967D01*
X4804963Y3149993D01*
Y3130000D01*
X4794967Y3120003D01*
X4764976D01*
X4784970D02*
X4804963Y3100010D01*
X4864944Y3159990D02*
X4844950Y3149993D01*
X4824957Y3130000D01*
Y3110006D01*
X4834953Y3100010D01*
X4854947D01*
X4864944Y3110006D01*
Y3120003D01*
X4854947Y3130000D01*
X4824957D01*
X7319990Y2439991D02*
X7260010D01*
Y2469981D01*
X7270007Y2479978D01*
X7290000D01*
X7299997Y2469981D01*
Y2439991D01*
Y2459984D02*
X7319990Y2479978D01*
X7270007Y2499971D02*
X7260010Y2509968D01*
Y2529962D01*
X7270007Y2539958D01*
X7280003D01*
X7290000Y2529962D01*
Y2519965D01*
Y2529962D01*
X7299997Y2539958D01*
X7309994D01*
X7319990Y2529962D01*
Y2509968D01*
X7309994Y2499971D01*
X7260010Y2599939D02*
Y2559952D01*
X7290000D01*
X7280003Y2579946D01*
Y2589942D01*
X7290000Y2599939D01*
X7309994D01*
X7319990Y2589942D01*
Y2569949D01*
X7309994Y2559952D01*
X8050001Y2710010D02*
Y2769990D01*
X8079991D01*
X8089988Y2759993D01*
Y2740000D01*
X8079991Y2730003D01*
X8050001D01*
X8069995D02*
X8089988Y2710010D01*
X8109981D02*
X8129975D01*
X8119978D01*
Y2769990D01*
X8109981Y2759993D01*
X8159965Y2710010D02*
X8179959D01*
X8169962D01*
Y2769990D01*
X8159965Y2759993D01*
X8249936Y2710010D02*
X8209949D01*
X8249936Y2749997D01*
Y2759993D01*
X8239939Y2769990D01*
X8219945D01*
X8209949Y2759993D01*
X6999991Y1650010D02*
Y1709990D01*
X7029981D01*
X7039978Y1699993D01*
Y1680000D01*
X7029981Y1670003D01*
X6999991D01*
X7019984D02*
X7039978Y1650010D01*
X7099958Y1709990D02*
X7059971D01*
Y1680000D01*
X7079965Y1689997D01*
X7089962D01*
X7099958Y1680000D01*
Y1660006D01*
X7089962Y1650010D01*
X7069968D01*
X7059971Y1660006D01*
X7159939Y1709990D02*
X7119952D01*
Y1680000D01*
X7139946Y1689997D01*
X7149942D01*
X7159939Y1680000D01*
Y1660006D01*
X7149942Y1650010D01*
X7129949D01*
X7119952Y1660006D01*
X8050001Y2610010D02*
Y2669990D01*
X8079991D01*
X8089988Y2659993D01*
Y2640000D01*
X8079991Y2630003D01*
X8050001D01*
X8069995D02*
X8089988Y2610010D01*
X8109981D02*
X8129975D01*
X8119978D01*
Y2669990D01*
X8109981Y2659993D01*
X8159965Y2610010D02*
X8179959D01*
X8169962D01*
Y2669990D01*
X8159965Y2659993D01*
X8209949D02*
X8219945Y2669990D01*
X8239939D01*
X8249936Y2659993D01*
Y2649997D01*
X8239939Y2640000D01*
X8229942D01*
X8239939D01*
X8249936Y2630003D01*
Y2620006D01*
X8239939Y2610010D01*
X8219945D01*
X8209949Y2620006D01*
X4749990Y3554976D02*
X4690010D01*
Y3584967D01*
X4700007Y3594963D01*
X4720000D01*
X4729997Y3584967D01*
Y3554976D01*
Y3574970D02*
X4749990Y3594963D01*
Y3644947D02*
X4690010D01*
X4720000Y3614957D01*
Y3654944D01*
X4742484Y2970010D02*
Y3029990D01*
X4772474D01*
X4782470Y3019993D01*
Y3000000D01*
X4772474Y2990003D01*
X4742484D01*
X4762477D02*
X4782470Y2970010D01*
X4802464D02*
X4822458D01*
X4812461D01*
Y3029990D01*
X4802464Y3019993D01*
X4852448Y2970010D02*
X4872441D01*
X4862444D01*
Y3029990D01*
X4852448Y3019993D01*
X2789991Y2170010D02*
Y2229990D01*
X2819981D01*
X2829978Y2219994D01*
Y2200000D01*
X2819981Y2190003D01*
X2789991D01*
X2809984D02*
X2829978Y2170010D01*
X2849971Y2180007D02*
X2859968Y2170010D01*
X2879962D01*
X2889958Y2180007D01*
Y2219994D01*
X2879962Y2229990D01*
X2859968D01*
X2849971Y2219994D01*
Y2209997D01*
X2859968Y2200000D01*
X2889958D01*
X2909952Y2219994D02*
X2919949Y2229990D01*
X2939942D01*
X2949939Y2219994D01*
Y2180007D01*
X2939942Y2170010D01*
X2919949D01*
X2909952Y2180007D01*
Y2219994D01*
X2789991Y2270010D02*
Y2329990D01*
X2819981D01*
X2829978Y2319993D01*
Y2300000D01*
X2819981Y2290003D01*
X2789991D01*
X2809984D02*
X2829978Y2270010D01*
X2849971Y2280006D02*
X2859968Y2270010D01*
X2879962D01*
X2889958Y2280006D01*
Y2319993D01*
X2879962Y2329990D01*
X2859968D01*
X2849971Y2319993D01*
Y2309997D01*
X2859968Y2300000D01*
X2889958D01*
X2949939Y2329990D02*
X2909952D01*
Y2300000D01*
X2929946Y2309997D01*
X2939942D01*
X2949939Y2300000D01*
Y2280006D01*
X2939942Y2270010D01*
X2919949D01*
X2909952Y2280006D01*
X6799990Y2660010D02*
Y2719990D01*
X6829981D01*
X6839977Y2709993D01*
Y2690000D01*
X6829981Y2680003D01*
X6799990D01*
X6819984D02*
X6839977Y2660010D01*
X6859971Y2709993D02*
X6869968Y2719990D01*
X6889961D01*
X6899958Y2709993D01*
Y2699997D01*
X6889961Y2690000D01*
X6879965D01*
X6889961D01*
X6899958Y2680003D01*
Y2670006D01*
X6889961Y2660010D01*
X6869968D01*
X6859971Y2670006D01*
X6959939Y2660010D02*
X6919952D01*
X6959939Y2699997D01*
Y2709993D01*
X6949942Y2719990D01*
X6929948D01*
X6919952Y2709993D01*
X5082991Y4169990D02*
X5122978D01*
X5102985D01*
Y4110010D01*
X5142972D02*
Y4169990D01*
X5172962D01*
X5182959Y4159993D01*
Y4140000D01*
X5172962Y4130003D01*
X5142972D01*
X5242939Y4110010D02*
X5202952D01*
X5242939Y4149997D01*
Y4159993D01*
X5232943Y4169990D01*
X5212949D01*
X5202952Y4159993D01*
X5397986Y3939990D02*
X5437973D01*
X5417980D01*
Y3880010D01*
X5457966D02*
Y3939990D01*
X5487957D01*
X5497953Y3929993D01*
Y3910000D01*
X5487957Y3900003D01*
X5457966D01*
X5517947Y3880010D02*
X5537941D01*
X5527944D01*
Y3939990D01*
X5517947Y3929993D01*
X5360010Y3702991D02*
Y3742978D01*
Y3722984D01*
X5419990D01*
Y3762971D02*
X5360010D01*
Y3792961D01*
X5370007Y3802958D01*
X5390000D01*
X5399997Y3792961D01*
Y3762971D01*
X5370007Y3822952D02*
X5360010Y3832948D01*
Y3852942D01*
X5370007Y3862939D01*
X5380003D01*
X5390000Y3852942D01*
Y3842945D01*
Y3852942D01*
X5399997Y3862939D01*
X5409993D01*
X5419990Y3852942D01*
Y3832948D01*
X5409993Y3822952D01*
X5420026Y3239990D02*
X5460013D01*
X5440020D01*
Y3180010D01*
X5480007D02*
Y3239990D01*
X5509997D01*
X5519994Y3229993D01*
Y3210000D01*
X5509997Y3200003D01*
X5480007D01*
X5569977Y3180010D02*
Y3239990D01*
X5539987Y3210000D01*
X5579974D01*
X4820009Y3948726D02*
X4869993D01*
X4879990Y3958722D01*
Y3978716D01*
X4869993Y3988713D01*
X4820009D01*
X4879990Y4048693D02*
Y4008706D01*
X4840003Y4048693D01*
X4830006D01*
X4820009Y4038697D01*
Y4018703D01*
X4830006Y4008706D01*
X5380013Y4259990D02*
Y4210006D01*
X5390010Y4200010D01*
X5410003D01*
X5420000Y4210006D01*
Y4259990D01*
X5439994Y4200010D02*
X5459987D01*
X5449990D01*
Y4259990D01*
X5439994Y4249993D01*
X6951021Y2825288D02*
Y2775305D01*
X6961018Y2765308D01*
X6981011D01*
X6991008Y2775305D01*
Y2825288D01*
X7011002Y2765308D02*
X7030995D01*
X7020998D01*
Y2825288D01*
X7011002Y2815292D01*
X7060985Y2765308D02*
X7080979D01*
X7070982D01*
Y2825288D01*
X7060985Y2815292D01*
X6030026Y1189990D02*
Y1140006D01*
X6040023Y1130010D01*
X6060016D01*
X6070013Y1140006D01*
Y1189990D01*
X6129994Y1130010D02*
X6090007D01*
X6129994Y1169997D01*
Y1179993D01*
X6119997Y1189990D01*
X6100003D01*
X6090007Y1179993D01*
X6189974Y1189990D02*
X6169981Y1179993D01*
X6149987Y1160000D01*
Y1140006D01*
X6159984Y1130010D01*
X6179977D01*
X6189974Y1140006D01*
Y1150003D01*
X6179977Y1160000D01*
X6149987D01*
X6936026Y1885313D02*
Y1835329D01*
X6946023Y1825333D01*
X6966016D01*
X6976013Y1835329D01*
Y1885313D01*
X7035994Y1825333D02*
X6996007D01*
X7035994Y1865320D01*
Y1875316D01*
X7025997Y1885313D01*
X7006003D01*
X6996007Y1875316D01*
X7055987D02*
X7065984Y1885313D01*
X7085977D01*
X7095974Y1875316D01*
Y1865320D01*
X7085977Y1855323D01*
X7075981D01*
X7085977D01*
X7095974Y1845326D01*
Y1835329D01*
X7085977Y1825333D01*
X7065984D01*
X7055987Y1835329D01*
X6030026Y1729990D02*
Y1680006D01*
X6040023Y1670010D01*
X6060016D01*
X6070013Y1680006D01*
Y1729990D01*
X6129994Y1670010D02*
X6090007D01*
X6129994Y1709997D01*
Y1719993D01*
X6119997Y1729990D01*
X6100003D01*
X6090007Y1719993D01*
X6149987D02*
X6159984Y1729990D01*
X6179977D01*
X6189974Y1719993D01*
Y1709997D01*
X6179977Y1700000D01*
X6189974Y1690003D01*
Y1680006D01*
X6179977Y1670010D01*
X6159984D01*
X6149987Y1680006D01*
Y1690003D01*
X6159984Y1700000D01*
X6149987Y1709997D01*
Y1719993D01*
X6159984Y1700000D02*
X6179977D01*
X6941024Y2360313D02*
Y2310329D01*
X6951021Y2300333D01*
X6971015D01*
X6981011Y2310329D01*
Y2360313D01*
X7001005Y2300333D02*
X7020999D01*
X7011002D01*
Y2360313D01*
X7001005Y2350316D01*
X7090976Y2300333D02*
X7050989D01*
X7090976Y2340320D01*
Y2350316D01*
X7080979Y2360313D01*
X7060985D01*
X7050989Y2350316D01*
X8310254Y2804637D02*
Y2754653D01*
X8320251Y2744656D01*
X8340244D01*
X8350241Y2754653D01*
Y2804637D01*
X8370235Y2744656D02*
X8390228D01*
X8380231D01*
Y2804637D01*
X8370235Y2794640D01*
X8460205Y2804637D02*
X8420218D01*
Y2774646D01*
X8440212Y2784643D01*
X8450209D01*
X8460205Y2774646D01*
Y2754653D01*
X8450209Y2744656D01*
X8430215D01*
X8420218Y2754653D01*
X6030026Y1489990D02*
Y1440006D01*
X6040023Y1430010D01*
X6060016D01*
X6070013Y1440006D01*
Y1489990D01*
X6129994Y1430010D02*
X6090007D01*
X6129994Y1469997D01*
Y1479993D01*
X6119997Y1489990D01*
X6100003D01*
X6090007Y1479993D01*
X6179977Y1430010D02*
Y1489990D01*
X6149987Y1460000D01*
X6189974D01*
X6016026Y890313D02*
Y840330D01*
X6026023Y830333D01*
X6046016D01*
X6056013Y840330D01*
Y890313D01*
X6115994Y830333D02*
X6076007D01*
X6115994Y870320D01*
Y880317D01*
X6105997Y890313D01*
X6086003D01*
X6076007Y880317D01*
X6135987Y840330D02*
X6145984Y830333D01*
X6165978D01*
X6175974Y840330D01*
Y880317D01*
X6165978Y890313D01*
X6145984D01*
X6135987Y880317D01*
Y870320D01*
X6145984Y860323D01*
X6175974D01*
X6016026Y1970313D02*
Y1920329D01*
X6026023Y1910333D01*
X6046016D01*
X6056013Y1920329D01*
Y1970313D01*
X6115994Y1910333D02*
X6076007D01*
X6115994Y1950320D01*
Y1960316D01*
X6105997Y1970313D01*
X6086003D01*
X6076007Y1960316D01*
X6135987Y1970313D02*
X6175974D01*
Y1960316D01*
X6135987Y1920329D01*
Y1910333D01*
X6848173Y3533652D02*
Y3483668D01*
X6858169Y3473671D01*
X6878163D01*
X6888160Y3483668D01*
Y3533652D01*
X6908153Y3473671D02*
X6928147D01*
X6918150D01*
Y3533652D01*
X6908153Y3523655D01*
X6958137D02*
X6968134Y3533652D01*
X6988127D01*
X6998124Y3523655D01*
Y3513658D01*
X6988127Y3503662D01*
X6978131D01*
X6988127D01*
X6998124Y3493665D01*
Y3483668D01*
X6988127Y3473671D01*
X6968134D01*
X6958137Y3483668D01*
X7742198Y4427594D02*
X7792182D01*
X7802179Y4437591D01*
Y4457584D01*
X7792182Y4467581D01*
X7742198D01*
X7802179Y4487574D02*
Y4507568D01*
Y4497571D01*
X7742198D01*
X7752195Y4487574D01*
X7802179Y4567548D02*
X7742198D01*
X7772188Y4537558D01*
Y4577545D01*
X3420026Y1449990D02*
Y1400006D01*
X3430023Y1390010D01*
X3450016D01*
X3460013Y1400006D01*
Y1449990D01*
X3519993Y1390010D02*
X3480007D01*
X3519993Y1429997D01*
Y1439993D01*
X3509997Y1449990D01*
X3490003D01*
X3480007Y1439993D01*
X3579974Y1390010D02*
X3539987D01*
X3579974Y1429997D01*
Y1439993D01*
X3569977Y1449990D01*
X3549984D01*
X3539987Y1439993D01*
X6170010Y3350016D02*
X6219993D01*
X6229990Y3360013D01*
Y3380006D01*
X6219993Y3390003D01*
X6170010D01*
X6180006Y3409997D02*
X6170010Y3419993D01*
Y3439987D01*
X6180006Y3449984D01*
X6190003D01*
X6200000Y3439987D01*
Y3429990D01*
Y3439987D01*
X6209996Y3449984D01*
X6219993D01*
X6229990Y3439987D01*
Y3419993D01*
X6219993Y3409997D01*
X4778516Y5111510D02*
Y5171490D01*
X4808507D01*
X4818503Y5161493D01*
Y5141500D01*
X4808507Y5131503D01*
X4778516D01*
X4838497Y5161493D02*
X4848493Y5171490D01*
X4868487D01*
X4878484Y5161493D01*
Y5151497D01*
X4868487Y5141500D01*
X4878484Y5131503D01*
Y5121506D01*
X4868487Y5111510D01*
X4848493D01*
X4838497Y5121506D01*
Y5131503D01*
X4848493Y5141500D01*
X4838497Y5151497D01*
Y5161493D01*
X4848493Y5141500D02*
X4868487D01*
X4778516Y285510D02*
Y345490D01*
X4808507D01*
X4818503Y335493D01*
Y315500D01*
X4808507Y305503D01*
X4778516D01*
X4838497Y295506D02*
X4848493Y285510D01*
X4868487D01*
X4878484Y295506D01*
Y335493D01*
X4868487Y345490D01*
X4848493D01*
X4838497Y335493D01*
Y325497D01*
X4848493Y315500D01*
X4878484D01*
X3449978Y2439952D02*
X3439981Y2449949D01*
X3419988D01*
X3409991Y2439952D01*
Y2399965D01*
X3419988Y2389968D01*
X3439981D01*
X3449978Y2399965D01*
X3469971Y2449949D02*
X3509958D01*
Y2439952D01*
X3469971Y2399965D01*
Y2389968D01*
X3529952Y2439952D02*
X3539949Y2449949D01*
X3559942D01*
X3569939Y2439952D01*
Y2429955D01*
X3559942Y2419959D01*
X3569939Y2409962D01*
Y2399965D01*
X3559942Y2389968D01*
X3539949D01*
X3529952Y2399965D01*
Y2409962D01*
X3539949Y2419959D01*
X3529952Y2429955D01*
Y2439952D01*
X3539949Y2419959D02*
X3559942D01*
X2764976Y4744637D02*
Y4684657D01*
X2794967D01*
X2804963Y4694654D01*
Y4734641D01*
X2794967Y4744637D01*
X2764976D01*
X2864944D02*
X2824957D01*
Y4714647D01*
X2844951Y4724644D01*
X2854947D01*
X2864944Y4714647D01*
Y4694654D01*
X2854947Y4684657D01*
X2834954D01*
X2824957Y4694654D01*
X4624976Y4744637D02*
Y4684657D01*
X4654967D01*
X4664963Y4694654D01*
Y4734641D01*
X4654967Y4744637D01*
X4624976D01*
X4724944D02*
X4704950Y4734641D01*
X4684957Y4714647D01*
Y4694654D01*
X4694954Y4684657D01*
X4714947D01*
X4724944Y4694654D01*
Y4704650D01*
X4714947Y4714647D01*
X4684957D01*
X4459990Y710991D02*
X4400010D01*
Y740981D01*
X4410007Y750978D01*
X4430000D01*
X4439997Y740981D01*
Y710991D01*
Y730985D02*
X4459990Y750978D01*
X4410007Y770972D02*
X4400010Y780968D01*
Y800962D01*
X4410007Y810958D01*
X4420003D01*
X4430000Y800962D01*
X4439997Y810958D01*
X4449994D01*
X4459990Y800962D01*
Y780968D01*
X4449994Y770972D01*
X4439997D01*
X4430000Y780968D01*
X4420003Y770972D01*
X4410007D01*
X4430000Y780968D02*
Y800962D01*
X4400010Y830952D02*
Y870939D01*
X4410007D01*
X4449994Y830952D01*
X4459990D01*
X4349990Y710990D02*
X4290009D01*
Y740981D01*
X4300006Y750977D01*
X4320000D01*
X4329996Y740981D01*
Y710990D01*
Y730984D02*
X4349990Y750977D01*
X4300006Y770971D02*
X4290009Y780968D01*
Y800961D01*
X4300006Y810958D01*
X4310003D01*
X4320000Y800961D01*
X4329996Y810958D01*
X4339993D01*
X4349990Y800961D01*
Y780968D01*
X4339993Y770971D01*
X4329996D01*
X4320000Y780968D01*
X4310003Y770971D01*
X4300006D01*
X4320000Y780968D02*
Y800961D01*
X4300006Y830952D02*
X4290009Y840948D01*
Y860942D01*
X4300006Y870939D01*
X4310003D01*
X4320000Y860942D01*
X4329996Y870939D01*
X4339993D01*
X4349990Y860942D01*
Y840948D01*
X4339993Y830952D01*
X4329996D01*
X4320000Y840948D01*
X4310003Y830952D01*
X4300006D01*
X4320000Y840948D02*
Y860942D01*
X3409991Y2290010D02*
Y2349990D01*
X3439981D01*
X3449978Y2339993D01*
Y2320000D01*
X3439981Y2310003D01*
X3409991D01*
X3429985D02*
X3449978Y2290010D01*
X3469971Y2339993D02*
X3479968Y2349990D01*
X3499962D01*
X3509958Y2339993D01*
Y2329997D01*
X3499962Y2320000D01*
X3509958Y2310003D01*
Y2300006D01*
X3499962Y2290010D01*
X3479968D01*
X3469971Y2300006D01*
Y2310003D01*
X3479968Y2320000D01*
X3469971Y2329997D01*
Y2339993D01*
X3479968Y2320000D02*
X3499962D01*
X3529952Y2300006D02*
X3539949Y2290010D01*
X3559942D01*
X3569939Y2300006D01*
Y2339993D01*
X3559942Y2349990D01*
X3539949D01*
X3529952Y2339993D01*
Y2329997D01*
X3539949Y2320000D01*
X3569939D01*
X2789991Y2370010D02*
Y2429990D01*
X2819981D01*
X2829978Y2419993D01*
Y2400000D01*
X2819981Y2390003D01*
X2789991D01*
X2809984D02*
X2829978Y2370010D01*
X2849971Y2380006D02*
X2859968Y2370010D01*
X2879962D01*
X2889958Y2380006D01*
Y2419993D01*
X2879962Y2429990D01*
X2859968D01*
X2849971Y2419993D01*
Y2409997D01*
X2859968Y2400000D01*
X2889958D01*
X2949939Y2429990D02*
X2929946Y2419993D01*
X2909952Y2400000D01*
Y2380006D01*
X2919949Y2370010D01*
X2939942D01*
X2949939Y2380006D01*
Y2390003D01*
X2939942Y2400000D01*
X2909952D01*
X3459990Y4714986D02*
X3400010D01*
Y4744976D01*
X3410007Y4754973D01*
X3430000D01*
X3439997Y4744976D01*
Y4714986D01*
Y4734979D02*
X3459990Y4754973D01*
X3449994Y4774966D02*
X3459990Y4784963D01*
Y4804957D01*
X3449994Y4814953D01*
X3410007D01*
X3400010Y4804957D01*
Y4784963D01*
X3410007Y4774966D01*
X3420003D01*
X3430000Y4784963D01*
Y4814953D01*
X3459990Y4834947D02*
Y4854941D01*
Y4844944D01*
X3400010D01*
X3410007Y4834947D01*
X5329990Y4709990D02*
X5270010D01*
Y4739981D01*
X5280006Y4749977D01*
X5300000D01*
X5309996Y4739981D01*
Y4709990D01*
Y4729984D02*
X5329990Y4749977D01*
X5319993Y4769971D02*
X5329990Y4779968D01*
Y4799961D01*
X5319993Y4809958D01*
X5280006D01*
X5270010Y4799961D01*
Y4779968D01*
X5280006Y4769971D01*
X5290003D01*
X5300000Y4779968D01*
Y4809958D01*
X5329990Y4869938D02*
Y4829951D01*
X5290003Y4869938D01*
X5280006D01*
X5270010Y4859942D01*
Y4839948D01*
X5280006Y4829951D01*
X3460016Y3390010D02*
Y3449990D01*
X3480010Y3429997D01*
X3500003Y3449990D01*
Y3390010D01*
X3549987D02*
Y3449990D01*
X3519997Y3420000D01*
X3559984D01*
X3045870Y2319990D02*
Y2270006D01*
X3055867Y2260009D01*
X3075860D01*
X3085857Y2270006D01*
Y2319990D01*
X3105851Y2260009D02*
X3125844D01*
X3115847D01*
Y2319990D01*
X3105851Y2309993D01*
X3155834Y2319990D02*
X3195821D01*
Y2309993D01*
X3155834Y2270006D01*
Y2260009D01*
X6207476Y2980034D02*
X6197479Y2990031D01*
X6177485D01*
X6167489Y2980034D01*
Y2940047D01*
X6177485Y2930051D01*
X6197479D01*
X6207476Y2940047D01*
X6227469Y2930051D02*
X6247463D01*
X6237466D01*
Y2990031D01*
X6227469Y2980034D01*
X6307443Y2930051D02*
Y2990031D01*
X6277453Y2960041D01*
X6317440D01*
X3607476Y2729993D02*
X3597479Y2739990D01*
X3577486D01*
X3567489Y2729993D01*
Y2690006D01*
X3577486Y2680010D01*
X3597479D01*
X3607476Y2690006D01*
X3627470Y2680010D02*
X3647463D01*
X3637466D01*
Y2739990D01*
X3627470Y2729993D01*
X3717440Y2739990D02*
X3677453D01*
Y2710000D01*
X3697447Y2719997D01*
X3707443D01*
X3717440Y2710000D01*
Y2690006D01*
X3707443Y2680010D01*
X3687450D01*
X3677453Y2690006D01*
X2940010Y1547476D02*
X2999990D01*
Y1587463D01*
X2950007Y1607457D02*
X2940010Y1617453D01*
Y1637447D01*
X2950007Y1647444D01*
X2960003D01*
X2970000Y1637447D01*
X2979997Y1647444D01*
X2989994D01*
X2999990Y1637447D01*
Y1617453D01*
X2989994Y1607457D01*
X2979997D01*
X2970000Y1617453D01*
X2960003Y1607457D01*
X2950007D01*
X2970000Y1617453D02*
Y1637447D01*
X4630048Y1969978D02*
X4620051Y1959981D01*
Y1939987D01*
X4630048Y1929991D01*
X4670035D01*
X4680031Y1939987D01*
Y1959981D01*
X4670035Y1969978D01*
X4630048Y1989971D02*
X4620051Y1999968D01*
Y2019962D01*
X4630048Y2029958D01*
X4640044D01*
X4650041Y2019962D01*
X4660038Y2029958D01*
X4670035D01*
X4680031Y2019962D01*
Y1999968D01*
X4670035Y1989971D01*
X4660038D01*
X4650041Y1999968D01*
X4640044Y1989971D01*
X4630048D01*
X4650041Y1999968D02*
Y2019962D01*
X4620051Y2089939D02*
Y2049952D01*
X4650041D01*
X4640044Y2069946D01*
Y2079942D01*
X4650041Y2089939D01*
X4670035D01*
X4680031Y2079942D01*
Y2059949D01*
X4670035Y2049952D01*
X5300048Y2029978D02*
X5290051Y2019981D01*
Y1999988D01*
X5300048Y1989991D01*
X5340035D01*
X5350032Y1999988D01*
Y2019981D01*
X5340035Y2029978D01*
X5300048Y2049972D02*
X5290051Y2059968D01*
Y2079962D01*
X5300048Y2089959D01*
X5310045D01*
X5320041Y2079962D01*
X5330038Y2089959D01*
X5340035D01*
X5350032Y2079962D01*
Y2059968D01*
X5340035Y2049972D01*
X5330038D01*
X5320041Y2059968D01*
X5310045Y2049972D01*
X5300048D01*
X5320041Y2059968D02*
Y2079962D01*
X5290051Y2149939D02*
X5300048Y2129946D01*
X5320041Y2109952D01*
X5340035D01*
X5350032Y2119949D01*
Y2139943D01*
X5340035Y2149939D01*
X5330038D01*
X5320041Y2139943D01*
Y2109952D01*
X4790006Y1619977D02*
X4780009Y1609981D01*
Y1589987D01*
X4790006Y1579990D01*
X4829993D01*
X4839990Y1589987D01*
Y1609981D01*
X4829993Y1619977D01*
Y1639971D02*
X4839990Y1649968D01*
Y1669961D01*
X4829993Y1679958D01*
X4790006D01*
X4780009Y1669961D01*
Y1649968D01*
X4790006Y1639971D01*
X4800003D01*
X4810000Y1649968D01*
Y1679958D01*
X4790006Y1699952D02*
X4780009Y1709948D01*
Y1729942D01*
X4790006Y1739939D01*
X4829993D01*
X4839990Y1729942D01*
Y1709948D01*
X4829993Y1699952D01*
X4790006D01*
X5410006Y2049978D02*
X5400010Y2039981D01*
Y2019987D01*
X5410006Y2009991D01*
X5449993D01*
X5459990Y2019987D01*
Y2039981D01*
X5449993Y2049978D01*
X5410006Y2069971D02*
X5400010Y2079968D01*
Y2099962D01*
X5410006Y2109958D01*
X5420003D01*
X5430000Y2099962D01*
X5439996Y2109958D01*
X5449993D01*
X5459990Y2099962D01*
Y2079968D01*
X5449993Y2069971D01*
X5439996D01*
X5430000Y2079968D01*
X5420003Y2069971D01*
X5410006D01*
X5430000Y2079968D02*
Y2099962D01*
X5400010Y2129952D02*
Y2169939D01*
X5410006D01*
X5449993Y2129952D01*
X5459990D01*
X5409965Y1114973D02*
X5399968Y1104976D01*
Y1084983D01*
X5409965Y1074986D01*
X5449952D01*
X5459949Y1084983D01*
Y1104976D01*
X5449952Y1114973D01*
Y1134966D02*
X5459949Y1144963D01*
Y1164957D01*
X5449952Y1174953D01*
X5409965D01*
X5399968Y1164957D01*
Y1144963D01*
X5409965Y1134966D01*
X5419962D01*
X5429958Y1144963D01*
Y1174953D01*
X5459949Y1194947D02*
Y1214941D01*
Y1204944D01*
X5399968D01*
X5409965Y1194947D01*
X5460007Y1459978D02*
X5450010Y1449981D01*
Y1429987D01*
X5460007Y1419991D01*
X5499994D01*
X5509990Y1429987D01*
Y1449981D01*
X5499994Y1459978D01*
Y1479971D02*
X5509990Y1489968D01*
Y1509962D01*
X5499994Y1519958D01*
X5460007D01*
X5450010Y1509962D01*
Y1489968D01*
X5460007Y1479971D01*
X5470003D01*
X5480000Y1489968D01*
Y1519958D01*
X5509990Y1579939D02*
Y1539952D01*
X5470003Y1579939D01*
X5460007D01*
X5450010Y1569942D01*
Y1549949D01*
X5460007Y1539952D01*
X4630048Y2169978D02*
X4620051Y2159981D01*
Y2139988D01*
X4630048Y2129991D01*
X4670035D01*
X4680031Y2139988D01*
Y2159981D01*
X4670035Y2169978D01*
Y2189971D02*
X4680031Y2199968D01*
Y2219962D01*
X4670035Y2229958D01*
X4630048D01*
X4620051Y2219962D01*
Y2199968D01*
X4630048Y2189971D01*
X4640044D01*
X4650041Y2199968D01*
Y2229958D01*
X4630048Y2249952D02*
X4620051Y2259949D01*
Y2279942D01*
X4630048Y2289939D01*
X4640044D01*
X4650041Y2279942D01*
Y2269946D01*
Y2279942D01*
X4660038Y2289939D01*
X4670035D01*
X4680031Y2279942D01*
Y2259949D01*
X4670035Y2249952D01*
X3564983Y1789993D02*
X3554986Y1799990D01*
X3534993D01*
X3524996Y1789993D01*
Y1750006D01*
X3534993Y1740010D01*
X3554986D01*
X3564983Y1750006D01*
X3584977Y1740010D02*
X3604970D01*
X3594973D01*
Y1799990D01*
X3584977Y1789993D01*
X3634960Y1740010D02*
X3654954D01*
X3644957D01*
Y1799990D01*
X3634960Y1789993D01*
X3684944Y1740010D02*
X3704937D01*
X3694941D01*
Y1799990D01*
X3684944Y1789993D01*
X4480007Y2040013D02*
X4470010Y2030017D01*
Y2010023D01*
X4480007Y2000026D01*
X4519994D01*
X4529990Y2010023D01*
Y2030017D01*
X4519994Y2040013D01*
X4480007Y2060007D02*
X4470010Y2070003D01*
Y2089997D01*
X4480007Y2099994D01*
X4490003D01*
X4500000Y2089997D01*
X4509997Y2099994D01*
X4519994D01*
X4529990Y2089997D01*
Y2070003D01*
X4519994Y2060007D01*
X4509997D01*
X4500000Y2070003D01*
X4490003Y2060007D01*
X4480007D01*
X4500000Y2070003D02*
Y2089997D01*
X4480007Y2119987D02*
X4470010Y2129984D01*
Y2149978D01*
X4480007Y2159974D01*
X4490003D01*
X4500000Y2149978D01*
Y2139981D01*
Y2149978D01*
X4509997Y2159974D01*
X4519994D01*
X4529990Y2149978D01*
Y2129984D01*
X4519994Y2119987D01*
X4720010Y1464945D02*
X4710013Y1474942D01*
X4690019D01*
X4680023Y1464945D01*
Y1424958D01*
X4690019Y1414962D01*
X4710013D01*
X4720010Y1424958D01*
X4740003Y1464945D02*
X4750000Y1474942D01*
X4769994D01*
X4779990Y1464945D01*
Y1454949D01*
X4769994Y1444952D01*
X4779990Y1434955D01*
Y1424958D01*
X4769994Y1414962D01*
X4750000D01*
X4740003Y1424958D01*
Y1434955D01*
X4750000Y1444952D01*
X4740003Y1454949D01*
Y1464945D01*
X4750000Y1444952D02*
X4769994D01*
X4799984Y1414962D02*
X4819977D01*
X4809980D01*
Y1474942D01*
X4799984Y1464945D01*
X5210006Y3540013D02*
X5200009Y3530016D01*
Y3510022D01*
X5210006Y3500026D01*
X5249993D01*
X5259990Y3510022D01*
Y3530016D01*
X5249993Y3540013D01*
X5210006Y3560006D02*
X5200009Y3570003D01*
Y3589997D01*
X5210006Y3599993D01*
X5220003D01*
X5230000Y3589997D01*
X5239996Y3599993D01*
X5249993D01*
X5259990Y3589997D01*
Y3570003D01*
X5249993Y3560006D01*
X5239996D01*
X5230000Y3570003D01*
X5220003Y3560006D01*
X5210006D01*
X5230000Y3570003D02*
Y3589997D01*
X5210006Y3619987D02*
X5200009Y3629984D01*
Y3649977D01*
X5210006Y3659974D01*
X5220003D01*
X5230000Y3649977D01*
X5239996Y3659974D01*
X5249993D01*
X5259990Y3649977D01*
Y3629984D01*
X5249993Y3619987D01*
X5239996D01*
X5230000Y3629984D01*
X5220003Y3619987D01*
X5210006D01*
X5230000Y3629984D02*
Y3649977D01*
X4887862Y1459358D02*
X4947843D01*
Y1489349D01*
X4937846Y1499345D01*
X4897859D01*
X4887862Y1489349D01*
Y1459358D01*
X4947843Y1519339D02*
Y1539332D01*
Y1529336D01*
X4887862D01*
X4897859Y1519339D01*
X4947843Y1569322D02*
Y1589316D01*
Y1579319D01*
X4887862D01*
X4897859Y1569322D01*
X5522157Y1046864D02*
X5582137D01*
Y1076854D01*
X5572141Y1086851D01*
X5532154D01*
X5522157Y1076854D01*
Y1046864D01*
X5582137Y1106844D02*
Y1126838D01*
Y1116841D01*
X5522157D01*
X5532154Y1106844D01*
X5582137Y1196815D02*
Y1156828D01*
X5542150Y1196815D01*
X5532154D01*
X5522157Y1186818D01*
Y1166824D01*
X5532154Y1156828D01*
X5167476Y1509990D02*
Y1450010D01*
X5207463D01*
X5267444Y1509990D02*
X5227457D01*
Y1480000D01*
X5247451Y1489997D01*
X5257447D01*
X5267444Y1480000D01*
Y1460006D01*
X5257447Y1450010D01*
X5237454D01*
X5227457Y1460006D01*
X5759990Y709991D02*
X5700009D01*
Y739981D01*
X5710006Y749978D01*
X5730000D01*
X5739996Y739981D01*
Y709991D01*
Y729984D02*
X5759990Y749978D01*
X5700009Y769971D02*
Y809958D01*
X5710006D01*
X5749993Y769971D01*
X5759990D01*
X5700009Y869939D02*
X5710006Y849945D01*
X5730000Y829952D01*
X5749993D01*
X5759990Y839949D01*
Y859942D01*
X5749993Y869939D01*
X5739996D01*
X5730000Y859942D01*
Y829952D01*
X2609990Y1849990D02*
X2550009D01*
Y1879981D01*
X2560006Y1889977D01*
X2580000D01*
X2589996Y1879981D01*
Y1849990D01*
Y1869984D02*
X2609990Y1889977D01*
X2599993Y1909971D02*
X2609990Y1919968D01*
Y1939961D01*
X2599993Y1949958D01*
X2560006D01*
X2550009Y1939961D01*
Y1919968D01*
X2560006Y1909971D01*
X2570003D01*
X2580000Y1919968D01*
Y1949958D01*
X2560006Y1969952D02*
X2550009Y1979948D01*
Y1999942D01*
X2560006Y2009939D01*
X2570003D01*
X2580000Y1999942D01*
X2589996Y2009939D01*
X2599993D01*
X2609990Y1999942D01*
Y1979948D01*
X2599993Y1969952D01*
X2589996D01*
X2580000Y1979948D01*
X2570003Y1969952D01*
X2560006D01*
X2580000Y1979948D02*
Y1999942D01*
X4959990Y945034D02*
X4900010D01*
Y975024D01*
X4910007Y985021D01*
X4930000D01*
X4939997Y975024D01*
Y945034D01*
Y965028D02*
X4959990Y985021D01*
Y1005015D02*
Y1025008D01*
Y1015011D01*
X4900010D01*
X4910007Y1005015D01*
Y1054998D02*
X4900010Y1064995D01*
Y1084989D01*
X4910007Y1094985D01*
X4949994D01*
X4959990Y1084989D01*
Y1064995D01*
X4949994Y1054998D01*
X4910007D01*
X4900010Y1154966D02*
Y1114979D01*
X4930000D01*
X4920003Y1134973D01*
Y1144969D01*
X4930000Y1154966D01*
X4949994D01*
X4959990Y1144969D01*
Y1124976D01*
X4949994Y1114979D01*
X2219991Y2460010D02*
Y2519990D01*
X2249981D01*
X2259978Y2509993D01*
Y2490000D01*
X2249981Y2480003D01*
X2219991D01*
X2239985D02*
X2259978Y2460010D01*
X2279972Y2470006D02*
X2289968Y2460010D01*
X2309962D01*
X2319959Y2470006D01*
Y2509993D01*
X2309962Y2519990D01*
X2289968D01*
X2279972Y2509993D01*
Y2499997D01*
X2289968Y2490000D01*
X2319959D01*
X2339952Y2470006D02*
X2349949Y2460010D01*
X2369942D01*
X2379939Y2470006D01*
Y2509993D01*
X2369942Y2519990D01*
X2349949D01*
X2339952Y2509993D01*
Y2499997D01*
X2349949Y2490000D01*
X2379939D01*
X4959990Y1185034D02*
X4900010D01*
Y1215024D01*
X4910007Y1225021D01*
X4930000D01*
X4939997Y1215024D01*
Y1185034D01*
Y1205028D02*
X4959990Y1225021D01*
Y1245015D02*
Y1265008D01*
Y1255011D01*
X4900010D01*
X4910007Y1245015D01*
Y1294998D02*
X4900010Y1304995D01*
Y1324989D01*
X4910007Y1334985D01*
X4949994D01*
X4959990Y1324989D01*
Y1304995D01*
X4949994Y1294998D01*
X4910007D01*
X4959990Y1384969D02*
X4900010D01*
X4930000Y1354979D01*
Y1394966D01*
X1990010Y1732477D02*
Y1772464D01*
Y1752470D01*
X2049990D01*
Y1832444D02*
Y1792457D01*
X2010003Y1832444D01*
X2000007D01*
X1990010Y1822447D01*
Y1802454D01*
X2000007Y1792457D01*
X4915025Y2039991D02*
Y1990007D01*
X4925022Y1980010D01*
X4945015D01*
X4955012Y1990007D01*
Y2039991D01*
X4975006Y1980010D02*
X4994999D01*
X4985002D01*
Y2039991D01*
X4975006Y2029994D01*
X5024989Y1990007D02*
X5034986Y1980010D01*
X5054979D01*
X5064976Y1990007D01*
Y2029994D01*
X5054979Y2039991D01*
X5034986D01*
X5024989Y2029994D01*
Y2019997D01*
X5034986Y2010001D01*
X5064976D01*
X5109991Y1167490D02*
Y1117506D01*
X5119987Y1107509D01*
X5139981D01*
X5149978Y1117506D01*
Y1167490D01*
X5209958Y1107509D02*
X5169971D01*
X5209958Y1147496D01*
Y1157493D01*
X5199962Y1167490D01*
X5179968D01*
X5169971Y1157493D01*
X5229952D02*
X5239949Y1167490D01*
X5259942D01*
X5269939Y1157493D01*
Y1117506D01*
X5259942Y1107509D01*
X5239949D01*
X5229952Y1117506D01*
Y1157493D01*
X2597862Y2074364D02*
X2657843D01*
Y2104354D01*
X2647846Y2114351D01*
X2607859D01*
X2597862Y2104354D01*
Y2074364D01*
X2657843Y2134344D02*
Y2154338D01*
Y2144341D01*
X2597862D01*
X2607859Y2134344D01*
X2657843Y2214318D02*
X2597862D01*
X2627853Y2184328D01*
Y2224315D01*
X2219990Y2607498D02*
X2160009D01*
Y2637488D01*
X2170006Y2647485D01*
X2190000D01*
X2199996Y2637488D01*
Y2607498D01*
Y2627492D02*
X2219990Y2647485D01*
Y2667479D02*
Y2687472D01*
Y2677475D01*
X2160009D01*
X2170006Y2667479D01*
Y2717462D02*
X2160009Y2727459D01*
Y2747452D01*
X2170006Y2757449D01*
X2209993D01*
X2219990Y2747452D01*
Y2727459D01*
X2209993Y2717462D01*
X2170006D01*
X2219990Y2777443D02*
Y2797436D01*
Y2787439D01*
X2160009D01*
X2170006Y2777443D01*
X3589990Y4662503D02*
X3530009D01*
Y4692493D01*
X3540006Y4702490D01*
X3560000D01*
X3569996Y4692493D01*
Y4662503D01*
Y4682497D02*
X3589990Y4702490D01*
Y4722484D02*
Y4742477D01*
Y4732480D01*
X3530009D01*
X3540006Y4722484D01*
Y4772467D02*
X3530009Y4782464D01*
Y4802458D01*
X3540006Y4812454D01*
X3579993D01*
X3589990Y4802458D01*
Y4782464D01*
X3579993Y4772467D01*
X3540006D01*
Y4832448D02*
X3530009Y4842444D01*
Y4862438D01*
X3540006Y4872435D01*
X3550003D01*
X3560000Y4862438D01*
Y4852441D01*
Y4862438D01*
X3569996Y4872435D01*
X3579993D01*
X3589990Y4862438D01*
Y4842444D01*
X3579993Y4832448D01*
X6177489Y3710010D02*
Y3769990D01*
X6207479D01*
X6217476Y3759993D01*
Y3740000D01*
X6207479Y3730003D01*
X6177489D01*
X6197482D02*
X6217476Y3710010D01*
X6237469D02*
X6257463D01*
X6247466D01*
Y3769990D01*
X6237469Y3759993D01*
X6327440Y3710010D02*
X6287453D01*
X6327440Y3749997D01*
Y3759993D01*
X6317443Y3769990D01*
X6297450D01*
X6287453Y3759993D01*
X2330010Y1857471D02*
Y1897458D01*
Y1877465D01*
X2389990D01*
Y1917452D02*
Y1937445D01*
Y1927449D01*
X2330010D01*
X2340006Y1917452D01*
X2377510Y2167488D02*
X2427493D01*
X2437490Y2177485D01*
Y2197478D01*
X2427493Y2207475D01*
X2377510D01*
X2437490Y2227469D02*
Y2247462D01*
Y2237465D01*
X2377510D01*
X2387507Y2227469D01*
Y2277452D02*
X2377510Y2287449D01*
Y2307443D01*
X2387507Y2317439D01*
X2397503D01*
X2407500Y2307443D01*
X2417497Y2317439D01*
X2427493D01*
X2437490Y2307443D01*
Y2287449D01*
X2427493Y2277452D01*
X2417497D01*
X2407500Y2287449D01*
X2397503Y2277452D01*
X2387507D01*
X2407500Y2287449D02*
Y2307443D01*
X1399657Y519647D02*
Y499654D01*
Y509651D01*
X1449640D01*
X1459637Y499654D01*
Y489657D01*
X1449640Y479660D01*
X1459637Y539641D02*
Y559635D01*
Y549638D01*
X1399657D01*
X1409654Y539641D01*
X2940009Y1127476D02*
X2999990D01*
Y1167463D01*
X2989993Y1187457D02*
X2999990Y1197453D01*
Y1217447D01*
X2989993Y1227444D01*
X2950006D01*
X2940009Y1217447D01*
Y1197453D01*
X2950006Y1187457D01*
X2960003D01*
X2970000Y1197453D01*
Y1227444D01*
X3444987Y1099991D02*
Y1040011D01*
X3484974D01*
X3504967D02*
X3524961D01*
X3514964D01*
Y1099991D01*
X3504967Y1089994D01*
X3594938Y1040011D02*
X3554951D01*
X3594938Y1079998D01*
Y1089994D01*
X3584941Y1099991D01*
X3564948D01*
X3554951Y1089994D01*
X8282990Y4050024D02*
X8223010D01*
Y4080015D01*
X8233007Y4090011D01*
X8253000D01*
X8262997Y4080015D01*
Y4050024D01*
X8282990Y4110005D02*
Y4129999D01*
Y4120002D01*
X8223010D01*
X8233007Y4110005D01*
Y4159989D02*
X8223010Y4169985D01*
Y4189979D01*
X8233007Y4199976D01*
X8272994D01*
X8282990Y4189979D01*
Y4169985D01*
X8272994Y4159989D01*
X8233007D01*
X8282990Y1266021D02*
X8223010D01*
Y1296011D01*
X8233007Y1306008D01*
X8253000D01*
X8262997Y1296011D01*
Y1266021D01*
X8282990Y1326002D02*
Y1345995D01*
Y1335998D01*
X8223010D01*
X8233007Y1326002D01*
X8282990Y1375985D02*
Y1395979D01*
Y1385982D01*
X8223010D01*
X8233007Y1375985D01*
X3799990Y4699990D02*
X3740010D01*
Y4729981D01*
X3750006Y4739977D01*
X3770000D01*
X3779997Y4729981D01*
Y4699990D01*
Y4719984D02*
X3799990Y4739977D01*
X3740010Y4799958D02*
Y4759971D01*
X3770000D01*
X3760003Y4779965D01*
Y4789961D01*
X3770000Y4799958D01*
X3789993D01*
X3799990Y4789961D01*
Y4769968D01*
X3789993Y4759971D01*
Y4819951D02*
X3799990Y4829948D01*
Y4849942D01*
X3789993Y4859938D01*
X3750006D01*
X3740010Y4849942D01*
Y4829948D01*
X3750006Y4819951D01*
X3760003D01*
X3770000Y4829948D01*
Y4859938D01*
X2019991Y1220009D02*
Y1279990D01*
X2049981D01*
X2059978Y1269993D01*
Y1250000D01*
X2049981Y1240003D01*
X2019991D01*
X2039984D02*
X2059978Y1220009D01*
X2079971Y1230006D02*
X2089968Y1220009D01*
X2109962D01*
X2119958Y1230006D01*
Y1269993D01*
X2109962Y1279990D01*
X2089968D01*
X2079971Y1269993D01*
Y1259996D01*
X2089968Y1250000D01*
X2119958D01*
X2139952Y1279990D02*
X2179939D01*
Y1269993D01*
X2139952Y1230006D01*
Y1220009D01*
X1982503Y1120010D02*
Y1179990D01*
X2012494D01*
X2022490Y1169993D01*
Y1150000D01*
X2012494Y1140003D01*
X1982503D01*
X2002497D02*
X2022490Y1120010D01*
X2042484D02*
X2062477D01*
X2052481D01*
Y1179990D01*
X2042484Y1169993D01*
X2092467D02*
X2102464Y1179990D01*
X2122458D01*
X2132454Y1169993D01*
Y1130006D01*
X2122458Y1120010D01*
X2102464D01*
X2092467Y1130006D01*
Y1169993D01*
X2152448D02*
X2162445Y1179990D01*
X2182438D01*
X2192435Y1169993D01*
Y1130006D01*
X2182438Y1120010D01*
X2162445D01*
X2152448Y1130006D01*
Y1169993D01*
X2209990Y2122503D02*
X2150010D01*
Y2152493D01*
X2160007Y2162490D01*
X2180000D01*
X2189997Y2152493D01*
Y2122503D01*
Y2142497D02*
X2209990Y2162490D01*
Y2182484D02*
Y2202477D01*
Y2192480D01*
X2150010D01*
X2160007Y2182484D01*
Y2232467D02*
X2150010Y2242464D01*
Y2262458D01*
X2160007Y2272454D01*
X2199994D01*
X2209990Y2262458D01*
Y2242464D01*
X2199994Y2232467D01*
X2160007D01*
X2209990Y2332435D02*
Y2292448D01*
X2170003Y2332435D01*
X2160007D01*
X2150010Y2322438D01*
Y2302444D01*
X2160007Y2292448D01*
X6799991Y2380009D02*
Y2439990D01*
X6829981D01*
X6839978Y2429993D01*
Y2410000D01*
X6829981Y2400003D01*
X6799991D01*
X6819984D02*
X6839978Y2380009D01*
X6859971Y2429993D02*
X6869968Y2439990D01*
X6889962D01*
X6899958Y2429993D01*
Y2419996D01*
X6889962Y2410000D01*
X6879965D01*
X6889962D01*
X6899958Y2400003D01*
Y2390006D01*
X6889962Y2380009D01*
X6869968D01*
X6859971Y2390006D01*
X6949942Y2380009D02*
Y2439990D01*
X6919952Y2410000D01*
X6959939D01*
X7319990Y2239991D02*
X7260010D01*
Y2269981D01*
X7270007Y2279978D01*
X7290000D01*
X7299997Y2269981D01*
Y2239991D01*
Y2259984D02*
X7319990Y2279978D01*
X7270007Y2299971D02*
X7260010Y2309968D01*
Y2329962D01*
X7270007Y2339958D01*
X7280003D01*
X7290000Y2329962D01*
Y2319965D01*
Y2329962D01*
X7299997Y2339958D01*
X7309994D01*
X7319990Y2329962D01*
Y2309968D01*
X7309994Y2299971D01*
X7260010Y2359952D02*
Y2399939D01*
X7270007D01*
X7309994Y2359952D01*
X7319990D01*
X7219990Y1740026D02*
X7160010D01*
Y1770016D01*
X7170006Y1780013D01*
X7190000D01*
X7199997Y1770016D01*
Y1740026D01*
Y1760019D02*
X7219990Y1780013D01*
X7170006Y1800006D02*
X7160010Y1810003D01*
Y1829997D01*
X7170006Y1839993D01*
X7180003D01*
X7190000Y1829997D01*
Y1820000D01*
Y1829997D01*
X7199997Y1839993D01*
X7209993D01*
X7219990Y1829997D01*
Y1810003D01*
X7209993Y1800006D01*
Y1859987D02*
X7219990Y1869984D01*
Y1889977D01*
X7209993Y1899974D01*
X7170006D01*
X7160010Y1889977D01*
Y1869984D01*
X7170006Y1859987D01*
X7180003D01*
X7190000Y1869984D01*
Y1899974D01*
X7319990Y1249991D02*
X7260009D01*
Y1279981D01*
X7270006Y1289978D01*
X7289999D01*
X7299996Y1279981D01*
Y1249991D01*
Y1269984D02*
X7319990Y1289978D01*
Y1339962D02*
X7260009D01*
X7289999Y1309971D01*
Y1349958D01*
X7270006Y1369952D02*
X7260009Y1379948D01*
Y1399942D01*
X7270006Y1409939D01*
X7280003D01*
X7289999Y1399942D01*
Y1389945D01*
Y1399942D01*
X7299996Y1409939D01*
X7309993D01*
X7319990Y1399942D01*
Y1379948D01*
X7309993Y1369952D01*
X6299991Y1970010D02*
Y2029990D01*
X6329981D01*
X6339978Y2019993D01*
Y2000000D01*
X6329981Y1990003D01*
X6299991D01*
X6319985D02*
X6339978Y1970010D01*
X6389962D02*
Y2029990D01*
X6359972Y2000000D01*
X6399958D01*
X6459939Y2029990D02*
X6419952D01*
Y2000000D01*
X6439946Y2009997D01*
X6449942D01*
X6459939Y2000000D01*
Y1980006D01*
X6449942Y1970010D01*
X6429949D01*
X6419952Y1980006D01*
X3819990Y709991D02*
X3760009D01*
Y739981D01*
X3770006Y749978D01*
X3790000D01*
X3799996Y739981D01*
Y709991D01*
Y729984D02*
X3819990Y749978D01*
Y799962D02*
X3760009D01*
X3790000Y769971D01*
Y809958D01*
X3760009Y829952D02*
Y869939D01*
X3770006D01*
X3809993Y829952D01*
X3819990D01*
X6399990Y1110026D02*
X6340010D01*
Y1140016D01*
X6350007Y1150013D01*
X6370000D01*
X6379997Y1140016D01*
Y1110026D01*
Y1130020D02*
X6399990Y1150013D01*
Y1199997D02*
X6340010D01*
X6370000Y1170007D01*
Y1209994D01*
X6389994Y1229987D02*
X6399990Y1239984D01*
Y1259977D01*
X6389994Y1269974D01*
X6350007D01*
X6340010Y1259977D01*
Y1239984D01*
X6350007Y1229987D01*
X6360003D01*
X6370000Y1239984D01*
Y1269974D01*
X6314986Y1300010D02*
Y1359990D01*
X6344976D01*
X6354973Y1349993D01*
Y1330000D01*
X6344976Y1320003D01*
X6314986D01*
X6334980D02*
X6354973Y1300010D01*
X6414954Y1359990D02*
X6374967D01*
Y1330000D01*
X6394960Y1339997D01*
X6404957D01*
X6414954Y1330000D01*
Y1310007D01*
X6404957Y1300010D01*
X6384963D01*
X6374967Y1310007D01*
X6434947Y1300010D02*
X6454941D01*
X6444944D01*
Y1359990D01*
X6434947Y1349993D01*
X6129991Y2390010D02*
Y2449990D01*
X6159981D01*
X6169978Y2439993D01*
Y2420000D01*
X6159981Y2410003D01*
X6129991D01*
X6149985D02*
X6169978Y2390010D01*
X6229959Y2449990D02*
X6189972D01*
Y2420000D01*
X6209965Y2429997D01*
X6219962D01*
X6229959Y2420000D01*
Y2400006D01*
X6219962Y2390010D01*
X6199968D01*
X6189972Y2400006D01*
X6249952Y2439993D02*
X6259949Y2449990D01*
X6279942D01*
X6289939Y2439993D01*
Y2429997D01*
X6279942Y2420000D01*
X6289939Y2410003D01*
Y2400006D01*
X6279942Y2390010D01*
X6259949D01*
X6249952Y2400006D01*
Y2410003D01*
X6259949Y2420000D01*
X6249952Y2429997D01*
Y2439993D01*
X6259949Y2420000D02*
X6279942D01*
X7319990Y2709990D02*
X7260009D01*
Y2739981D01*
X7270006Y2749977D01*
X7289999D01*
X7299996Y2739981D01*
Y2709990D01*
Y2729984D02*
X7319990Y2749977D01*
X7270006Y2769971D02*
X7260009Y2779968D01*
Y2799961D01*
X7270006Y2809958D01*
X7280003D01*
X7289999Y2799961D01*
Y2789964D01*
Y2799961D01*
X7299996Y2809958D01*
X7309993D01*
X7319990Y2799961D01*
Y2779968D01*
X7309993Y2769971D01*
X7270006Y2829951D02*
X7260009Y2839948D01*
Y2859942D01*
X7270006Y2869938D01*
X7280003D01*
X7289999Y2859942D01*
Y2849945D01*
Y2859942D01*
X7299996Y2869938D01*
X7309993D01*
X7319990Y2859942D01*
Y2839948D01*
X7309993Y2829951D01*
X6799991Y2180010D02*
Y2239990D01*
X6829981D01*
X6839978Y2229993D01*
Y2210000D01*
X6829981Y2200003D01*
X6799991D01*
X6819984D02*
X6839978Y2180010D01*
X6859971Y2229993D02*
X6869968Y2239990D01*
X6889962D01*
X6899958Y2229993D01*
Y2219997D01*
X6889962Y2210000D01*
X6879965D01*
X6889962D01*
X6899958Y2200003D01*
Y2190006D01*
X6889962Y2180010D01*
X6869968D01*
X6859971Y2190006D01*
X6959939Y2239990D02*
X6939945Y2229993D01*
X6919952Y2210000D01*
Y2190006D01*
X6929949Y2180010D01*
X6949942D01*
X6959939Y2190006D01*
Y2200003D01*
X6949942Y2210000D01*
X6919952D01*
X7319990Y1959991D02*
X7260009D01*
Y1989981D01*
X7270006Y1999978D01*
X7289999D01*
X7299996Y1989981D01*
Y1959991D01*
Y1979984D02*
X7319990Y1999978D01*
X7270006Y2019971D02*
X7260009Y2029968D01*
Y2049962D01*
X7270006Y2059958D01*
X7280003D01*
X7289999Y2049962D01*
Y2039965D01*
Y2049962D01*
X7299996Y2059958D01*
X7309993D01*
X7319990Y2049962D01*
Y2029968D01*
X7309993Y2019971D01*
X7270006Y2079952D02*
X7260009Y2089949D01*
Y2109942D01*
X7270006Y2119939D01*
X7280003D01*
X7289999Y2109942D01*
X7299996Y2119939D01*
X7309993D01*
X7319990Y2109942D01*
Y2089949D01*
X7309993Y2079952D01*
X7299996D01*
X7289999Y2089949D01*
X7280003Y2079952D01*
X7270006D01*
X7289999Y2089949D02*
Y2109942D01*
X7319990Y1759991D02*
X7260009D01*
Y1789981D01*
X7270006Y1799978D01*
X7289999D01*
X7299996Y1789981D01*
Y1759991D01*
Y1779984D02*
X7319990Y1799978D01*
Y1849962D02*
X7260009D01*
X7289999Y1819971D01*
Y1859958D01*
X7270006Y1879952D02*
X7260009Y1889948D01*
Y1909942D01*
X7270006Y1919939D01*
X7309993D01*
X7319990Y1909942D01*
Y1889948D01*
X7309993Y1879952D01*
X7270006D01*
X4809990Y709991D02*
X4750010D01*
Y739981D01*
X4760006Y749978D01*
X4780000D01*
X4789997Y739981D01*
Y709991D01*
Y729984D02*
X4809990Y749978D01*
Y799962D02*
X4750010D01*
X4780000Y769971D01*
Y809958D01*
X4809990Y859942D02*
X4750010D01*
X4780000Y829952D01*
Y869939D01*
X5849991Y1740010D02*
Y1799991D01*
X5879981D01*
X5889978Y1789994D01*
Y1770000D01*
X5879981Y1760004D01*
X5849991D01*
X5869985D02*
X5889978Y1740010D01*
X5939962D02*
Y1799991D01*
X5909972Y1770000D01*
X5949959D01*
X6009939Y1799991D02*
X5989946Y1789994D01*
X5969952Y1770000D01*
Y1750007D01*
X5979949Y1740010D01*
X5999943D01*
X6009939Y1750007D01*
Y1760004D01*
X5999943Y1770000D01*
X5969952D01*
X4229990Y709991D02*
X4170009D01*
Y739981D01*
X4180006Y749978D01*
X4200000D01*
X4209996Y739981D01*
Y709991D01*
Y729984D02*
X4229990Y749978D01*
Y799962D02*
X4170009D01*
X4200000Y769971D01*
Y809958D01*
X4180006Y829952D02*
X4170009Y839949D01*
Y859942D01*
X4180006Y869939D01*
X4190003D01*
X4200000Y859942D01*
X4209996Y869939D01*
X4219993D01*
X4229990Y859942D01*
Y839949D01*
X4219993Y829952D01*
X4209996D01*
X4200000Y839949D01*
X4190003Y829952D01*
X4180006D01*
X4200000Y839949D02*
Y859942D01*
X5849991Y1400010D02*
Y1459990D01*
X5879981D01*
X5889978Y1449993D01*
Y1430000D01*
X5879981Y1420003D01*
X5849991D01*
X5869985D02*
X5889978Y1400010D01*
X5949959Y1459990D02*
X5909972D01*
Y1430000D01*
X5929965Y1439997D01*
X5939962D01*
X5949959Y1430000D01*
Y1410006D01*
X5939962Y1400010D01*
X5919968D01*
X5909972Y1410006D01*
X5969952Y1449993D02*
X5979949Y1459990D01*
X5999943D01*
X6009939Y1449993D01*
Y1410006D01*
X5999943Y1400010D01*
X5979949D01*
X5969952Y1410006D01*
Y1449993D01*
X5730061Y990010D02*
Y1049990D01*
X5760051D01*
X5770048Y1039993D01*
Y1020000D01*
X5760051Y1010003D01*
X5730061D01*
X5750055D02*
X5770048Y990010D01*
X5830028Y1049990D02*
X5790042D01*
Y1020000D01*
X5810035Y1029997D01*
X5820032D01*
X5830028Y1020000D01*
Y1000006D01*
X5820032Y990010D01*
X5800038D01*
X5790042Y1000006D01*
X5890009Y990010D02*
X5850022D01*
X5890009Y1029997D01*
Y1039993D01*
X5880012Y1049990D01*
X5860019D01*
X5850022Y1039993D01*
X7799990Y4169991D02*
X7740010D01*
Y4199981D01*
X7750007Y4209978D01*
X7770000D01*
X7779997Y4199981D01*
Y4169991D01*
Y4189985D02*
X7799990Y4209978D01*
X7740010Y4269958D02*
Y4229971D01*
X7770000D01*
X7760003Y4249965D01*
Y4259962D01*
X7770000Y4269958D01*
X7789994D01*
X7799990Y4259962D01*
Y4239968D01*
X7789994Y4229971D01*
X7740010Y4329939D02*
X7750007Y4309946D01*
X7770000Y4289952D01*
X7789994D01*
X7799990Y4299949D01*
Y4319942D01*
X7789994Y4329939D01*
X7779997D01*
X7770000Y4319942D01*
Y4289952D01*
X7699990Y4059991D02*
X7640009D01*
Y4089981D01*
X7650006Y4099978D01*
X7670000D01*
X7679996Y4089981D01*
Y4059991D01*
Y4079984D02*
X7699990Y4099978D01*
X7640009Y4159958D02*
Y4119971D01*
X7670000D01*
X7660003Y4139965D01*
Y4149961D01*
X7670000Y4159958D01*
X7689993D01*
X7699990Y4149961D01*
Y4129968D01*
X7689993Y4119971D01*
X7640009Y4179952D02*
Y4219939D01*
X7650006D01*
X7689993Y4179952D01*
X7699990D01*
X3969990Y1212503D02*
X3910009D01*
Y1242493D01*
X3920006Y1252490D01*
X3940000D01*
X3949996Y1242493D01*
Y1212503D01*
Y1232496D02*
X3969990Y1252490D01*
Y1272483D02*
Y1292477D01*
Y1282480D01*
X3910009D01*
X3920006Y1272483D01*
Y1322467D02*
X3910009Y1332464D01*
Y1352457D01*
X3920006Y1362454D01*
X3959993D01*
X3969990Y1352457D01*
Y1332464D01*
X3959993Y1322467D01*
X3920006D01*
Y1382448D02*
X3910009Y1392444D01*
Y1412438D01*
X3920006Y1422435D01*
X3930003D01*
X3940000Y1412438D01*
X3949996Y1422435D01*
X3959993D01*
X3969990Y1412438D01*
Y1392444D01*
X3959993Y1382448D01*
X3949996D01*
X3940000Y1392444D01*
X3930003Y1382448D01*
X3920006D01*
X3940000Y1392444D02*
Y1412438D01*
X3740033Y1460010D02*
Y1519990D01*
X3770023D01*
X3780020Y1509993D01*
Y1490000D01*
X3770023Y1480003D01*
X3740033D01*
X3760026D02*
X3780020Y1460010D01*
X3800013D02*
X3820007D01*
X3810010D01*
Y1519990D01*
X3800013Y1509993D01*
X3849997Y1460010D02*
X3869990D01*
X3859994D01*
Y1519990D01*
X3849997Y1509993D01*
X3899981D02*
X3909977Y1519990D01*
X3929971D01*
X3939967Y1509993D01*
Y1470006D01*
X3929971Y1460010D01*
X3909977D01*
X3899981Y1470006D01*
Y1509993D01*
X3750029Y1550010D02*
Y1609990D01*
X3780020D01*
X3790016Y1599993D01*
Y1580000D01*
X3780020Y1570003D01*
X3750029D01*
X3770023D02*
X3790016Y1550010D01*
X3810010D02*
X3830004D01*
X3820007D01*
Y1609990D01*
X3810010Y1599993D01*
X3859994Y1550010D02*
X3879987D01*
X3869990D01*
Y1609990D01*
X3859994Y1599993D01*
X3909977Y1550010D02*
X3929971D01*
X3919974D01*
Y1609990D01*
X3909977Y1599993D01*
X5034976Y4210010D02*
Y4269990D01*
X5064967D01*
X5074963Y4259993D01*
Y4240000D01*
X5064967Y4230003D01*
X5034976D01*
X5054970D02*
X5074963Y4210010D01*
X5094957Y4259993D02*
X5104953Y4269990D01*
X5124947D01*
X5134944Y4259993D01*
Y4249997D01*
X5124947Y4240000D01*
X5114950D01*
X5124947D01*
X5134944Y4230003D01*
Y4220006D01*
X5124947Y4210010D01*
X5104953D01*
X5094957Y4220006D01*
X5519990Y3764976D02*
X5460009D01*
Y3794966D01*
X5470006Y3804963D01*
X5490000D01*
X5499996Y3794966D01*
Y3764976D01*
Y3784970D02*
X5519990Y3804963D01*
X5460009Y3864944D02*
Y3824957D01*
X5490000D01*
X5480003Y3844950D01*
Y3854947D01*
X5490000Y3864944D01*
X5509993D01*
X5519990Y3854947D01*
Y3834953D01*
X5509993Y3824957D01*
X4049990Y1465034D02*
X3990010D01*
Y1495024D01*
X4000007Y1505021D01*
X4020000D01*
X4029997Y1495024D01*
Y1465034D01*
Y1485028D02*
X4049990Y1505021D01*
Y1525015D02*
Y1545008D01*
Y1535011D01*
X3990010D01*
X4000007Y1525015D01*
Y1574998D02*
X3990010Y1584995D01*
Y1604989D01*
X4000007Y1614985D01*
X4039994D01*
X4049990Y1604989D01*
Y1584995D01*
X4039994Y1574998D01*
X4000007D01*
X4039994Y1634979D02*
X4049990Y1644976D01*
Y1664969D01*
X4039994Y1674966D01*
X4000007D01*
X3990010Y1664969D01*
Y1644976D01*
X4000007Y1634979D01*
X4010003D01*
X4020000Y1644976D01*
Y1674966D01*
X5649990Y709991D02*
X5590009D01*
Y739981D01*
X5600006Y749978D01*
X5620000D01*
X5629996Y739981D01*
Y709991D01*
Y729984D02*
X5649990Y749978D01*
X5590009Y769971D02*
Y809958D01*
X5600006D01*
X5639993Y769971D01*
X5649990D01*
X5590009Y869939D02*
Y829952D01*
X5620000D01*
X5610003Y849945D01*
Y859942D01*
X5620000Y869939D01*
X5639993D01*
X5649990Y859942D01*
Y839949D01*
X5639993Y829952D01*
X5539990Y709991D02*
X5480009D01*
Y739981D01*
X5490006Y749978D01*
X5510000D01*
X5519996Y739981D01*
Y709991D01*
Y729984D02*
X5539990Y749978D01*
X5480009Y769971D02*
Y809958D01*
X5490006D01*
X5529993Y769971D01*
X5539990D01*
Y859942D02*
X5480009D01*
X5510000Y829952D01*
Y869939D01*
X7219990Y1464986D02*
X7160009D01*
Y1494976D01*
X7170006Y1504973D01*
X7190000D01*
X7199996Y1494976D01*
Y1464986D01*
Y1484980D02*
X7219990Y1504973D01*
Y1554957D02*
X7160009D01*
X7190000Y1524967D01*
Y1564954D01*
X7219990Y1584947D02*
Y1604941D01*
Y1594944D01*
X7160009D01*
X7170006Y1584947D01*
X7319990Y1449991D02*
X7260009D01*
Y1479981D01*
X7270006Y1489978D01*
X7289999D01*
X7299996Y1479981D01*
Y1449991D01*
Y1469984D02*
X7319990Y1489978D01*
Y1539962D02*
X7260009D01*
X7289999Y1509971D01*
Y1549958D01*
X7319990Y1609939D02*
Y1569952D01*
X7280003Y1609939D01*
X7270006D01*
X7260009Y1599942D01*
Y1579949D01*
X7270006Y1569952D01*
X5569990Y4709990D02*
X5510010D01*
Y4739981D01*
X5520006Y4749977D01*
X5540000D01*
X5549997Y4739981D01*
Y4709990D01*
Y4729984D02*
X5569990Y4749977D01*
X5510010Y4769971D02*
Y4809958D01*
X5520006D01*
X5559993Y4769971D01*
X5569990D01*
Y4869938D02*
Y4829951D01*
X5530003Y4869938D01*
X5520006D01*
X5510010Y4859942D01*
Y4839948D01*
X5520006Y4829951D01*
X5459990Y4709991D02*
X5400010D01*
Y4739981D01*
X5410007Y4749978D01*
X5430000D01*
X5439997Y4739981D01*
Y4709991D01*
Y4729984D02*
X5459990Y4749978D01*
X5400010Y4809958D02*
X5410007Y4789965D01*
X5430000Y4769971D01*
X5449994D01*
X5459990Y4779968D01*
Y4799962D01*
X5449994Y4809958D01*
X5439997D01*
X5430000Y4799962D01*
Y4769971D01*
X5449994Y4829952D02*
X5459990Y4839949D01*
Y4859942D01*
X5449994Y4869939D01*
X5410007D01*
X5400010Y4859942D01*
Y4839949D01*
X5410007Y4829952D01*
X5420003D01*
X5430000Y4839949D01*
Y4869939D01*
X6879990Y4709990D02*
X6820009D01*
Y4739981D01*
X6830006Y4749977D01*
X6850000D01*
X6859996Y4739981D01*
Y4709990D01*
Y4729984D02*
X6879990Y4749977D01*
X6820009Y4769971D02*
Y4809958D01*
X6830006D01*
X6869993Y4769971D01*
X6879990D01*
X6820009Y4829951D02*
Y4869938D01*
X6830006D01*
X6869993Y4829951D01*
X6879990D01*
X6779990Y4709991D02*
X6720010D01*
Y4739981D01*
X6730007Y4749978D01*
X6750000D01*
X6759997Y4739981D01*
Y4709991D01*
Y4729984D02*
X6779990Y4749978D01*
X6720010Y4769971D02*
Y4809958D01*
X6730007D01*
X6769994Y4769971D01*
X6779990D01*
X6730007Y4829952D02*
X6720010Y4839949D01*
Y4859942D01*
X6730007Y4869939D01*
X6740003D01*
X6750000Y4859942D01*
X6759997Y4869939D01*
X6769994D01*
X6779990Y4859942D01*
Y4839949D01*
X6769994Y4829952D01*
X6759997D01*
X6750000Y4839949D01*
X6740003Y4829952D01*
X6730007D01*
X6750000Y4839949D02*
Y4859942D01*
X5899990Y4709990D02*
X5840009D01*
Y4739981D01*
X5850006Y4749977D01*
X5870000D01*
X5879996Y4739981D01*
Y4709990D01*
Y4729984D02*
X5899990Y4749977D01*
X5850006Y4769971D02*
X5840009Y4779968D01*
Y4799961D01*
X5850006Y4809958D01*
X5860003D01*
X5870000Y4799961D01*
X5879996Y4809958D01*
X5889993D01*
X5899990Y4799961D01*
Y4779968D01*
X5889993Y4769971D01*
X5879996D01*
X5870000Y4779968D01*
X5860003Y4769971D01*
X5850006D01*
X5870000Y4779968D02*
Y4799961D01*
X5840009Y4869938D02*
Y4829951D01*
X5870000D01*
X5860003Y4849945D01*
Y4859942D01*
X5870000Y4869938D01*
X5889993D01*
X5899990Y4859942D01*
Y4839948D01*
X5889993Y4829951D01*
X5999990Y4709991D02*
X5940010D01*
Y4739981D01*
X5950007Y4749978D01*
X5970000D01*
X5979997Y4739981D01*
Y4709991D01*
Y4729984D02*
X5999990Y4749978D01*
X5950007Y4769971D02*
X5940010Y4779968D01*
Y4799962D01*
X5950007Y4809958D01*
X5960003D01*
X5970000Y4799962D01*
X5979997Y4809958D01*
X5989994D01*
X5999990Y4799962D01*
Y4779968D01*
X5989994Y4769971D01*
X5979997D01*
X5970000Y4779968D01*
X5960003Y4769971D01*
X5950007D01*
X5970000Y4779968D02*
Y4799962D01*
X5940010Y4869939D02*
X5950007Y4849946D01*
X5970000Y4829952D01*
X5989994D01*
X5999990Y4839949D01*
Y4859942D01*
X5989994Y4869939D01*
X5979997D01*
X5970000Y4859942D01*
Y4829952D01*
X3899990Y4699990D02*
X3840009D01*
Y4729981D01*
X3850006Y4739977D01*
X3870000D01*
X3879996Y4729981D01*
Y4699990D01*
Y4719984D02*
X3899990Y4739977D01*
X3840009Y4799958D02*
X3850006Y4779965D01*
X3870000Y4759971D01*
X3889993D01*
X3899990Y4769968D01*
Y4789961D01*
X3889993Y4799958D01*
X3879996D01*
X3870000Y4789961D01*
Y4759971D01*
X3850006Y4819951D02*
X3840009Y4829948D01*
Y4849942D01*
X3850006Y4859938D01*
X3889993D01*
X3899990Y4849942D01*
Y4829948D01*
X3889993Y4819951D01*
X3850006D01*
X4009990Y4714986D02*
X3950010D01*
Y4744976D01*
X3960007Y4754973D01*
X3980000D01*
X3989997Y4744976D01*
Y4714986D01*
Y4734979D02*
X4009990Y4754973D01*
X3950010Y4814953D02*
X3960007Y4794960D01*
X3980000Y4774966D01*
X3999994D01*
X4009990Y4784963D01*
Y4804957D01*
X3999994Y4814953D01*
X3989997D01*
X3980000Y4804957D01*
Y4774966D01*
X4009990Y4834947D02*
Y4854941D01*
Y4844944D01*
X3950010D01*
X3960007Y4834947D01*
X4169990Y4699990D02*
X4110009D01*
Y4729981D01*
X4120006Y4739977D01*
X4140000D01*
X4149996Y4729981D01*
Y4699990D01*
Y4719984D02*
X4169990Y4739977D01*
X4110009Y4799958D02*
X4120006Y4779965D01*
X4140000Y4759971D01*
X4159993D01*
X4169990Y4769968D01*
Y4789961D01*
X4159993Y4799958D01*
X4149996D01*
X4140000Y4789961D01*
Y4759971D01*
X4169990Y4859938D02*
Y4819951D01*
X4130003Y4859938D01*
X4120006D01*
X4110009Y4849942D01*
Y4829948D01*
X4120006Y4819951D01*
X4269990Y4699991D02*
X4210010D01*
Y4729981D01*
X4220007Y4739978D01*
X4240000D01*
X4249997Y4729981D01*
Y4699991D01*
Y4719984D02*
X4269990Y4739978D01*
X4210010Y4799958D02*
X4220007Y4779965D01*
X4240000Y4759971D01*
X4259994D01*
X4269990Y4769968D01*
Y4789962D01*
X4259994Y4799958D01*
X4249997D01*
X4240000Y4789962D01*
Y4759971D01*
X4220007Y4819952D02*
X4210010Y4829949D01*
Y4849942D01*
X4220007Y4859939D01*
X4230003D01*
X4240000Y4849942D01*
Y4839946D01*
Y4849942D01*
X4249997Y4859939D01*
X4259994D01*
X4269990Y4849942D01*
Y4829949D01*
X4259994Y4819952D01*
X3959990Y710991D02*
X3900010D01*
Y740981D01*
X3910007Y750978D01*
X3930000D01*
X3939997Y740981D01*
Y710991D01*
Y730985D02*
X3959990Y750978D01*
X3900010Y810958D02*
X3910007Y790965D01*
X3930000Y770972D01*
X3949994D01*
X3959990Y780968D01*
Y800962D01*
X3949994Y810958D01*
X3939997D01*
X3930000Y800962D01*
Y770972D01*
X3959990Y860942D02*
X3900010D01*
X3930000Y830952D01*
Y870939D01*
X4089990Y709991D02*
X4030009D01*
Y739981D01*
X4040006Y749978D01*
X4060000D01*
X4069996Y739981D01*
Y709991D01*
Y729984D02*
X4089990Y749978D01*
X4030009Y809958D02*
X4040006Y789965D01*
X4060000Y769971D01*
X4079993D01*
X4089990Y779968D01*
Y799962D01*
X4079993Y809958D01*
X4069996D01*
X4060000Y799962D01*
Y769971D01*
X4030009Y869939D02*
Y829952D01*
X4060000D01*
X4050003Y849945D01*
Y859942D01*
X4060000Y869939D01*
X4079993D01*
X4089990Y859942D01*
Y839949D01*
X4079993Y829952D01*
X4919990Y709991D02*
X4860010D01*
Y739981D01*
X4870007Y749978D01*
X4890000D01*
X4899997Y739981D01*
Y709991D01*
Y729984D02*
X4919990Y749978D01*
X4860010Y809958D02*
X4870007Y789965D01*
X4890000Y769971D01*
X4909993D01*
X4919990Y779968D01*
Y799962D01*
X4909993Y809958D01*
X4899997D01*
X4890000Y799962D01*
Y769971D01*
X4860010Y869939D02*
X4870007Y849945D01*
X4890000Y829952D01*
X4909993D01*
X4919990Y839949D01*
Y859942D01*
X4909993Y869939D01*
X4899997D01*
X4890000Y859942D01*
Y829952D01*
X5679990Y4709990D02*
X5620009D01*
Y4739981D01*
X5630006Y4749977D01*
X5650000D01*
X5659996Y4739981D01*
Y4709990D01*
Y4729984D02*
X5679990Y4749977D01*
X5620009Y4809958D02*
X5630006Y4789965D01*
X5650000Y4769971D01*
X5669993D01*
X5679990Y4779968D01*
Y4799961D01*
X5669993Y4809958D01*
X5659996D01*
X5650000Y4799961D01*
Y4769971D01*
X5620009Y4829951D02*
Y4869938D01*
X5630006D01*
X5669993Y4829951D01*
X5679990D01*
X5029990Y709991D02*
X4970009D01*
Y739981D01*
X4980006Y749978D01*
X5000000D01*
X5009996Y739981D01*
Y709991D01*
Y729984D02*
X5029990Y749978D01*
X4970009Y809958D02*
X4980006Y789965D01*
X5000000Y769971D01*
X5019993D01*
X5029990Y779968D01*
Y799962D01*
X5019993Y809958D01*
X5009996D01*
X5000000Y799962D01*
Y769971D01*
X4980006Y829952D02*
X4970009Y839949D01*
Y859942D01*
X4980006Y869939D01*
X4990003D01*
X5000000Y859942D01*
X5009996Y869939D01*
X5019993D01*
X5029990Y859942D01*
Y839949D01*
X5019993Y829952D01*
X5009996D01*
X5000000Y839949D01*
X4990003Y829952D01*
X4980006D01*
X5000000Y839949D02*
Y859942D01*
X4510006Y1540020D02*
X4500010Y1530023D01*
Y1510029D01*
X4510006Y1500033D01*
X4549993D01*
X4559990Y1510029D01*
Y1530023D01*
X4549993Y1540020D01*
X4559990Y1560013D02*
Y1580007D01*
Y1570010D01*
X4500010D01*
X4510006Y1560013D01*
X4559990Y1609997D02*
Y1629990D01*
Y1619993D01*
X4500010D01*
X4510006Y1609997D01*
X4559990Y1699967D02*
Y1659980D01*
X4520003Y1699967D01*
X4510006D01*
X4500010Y1689971D01*
Y1669977D01*
X4510006Y1659980D01*
X2886821Y2084637D02*
Y2024657D01*
X2916812D01*
X2926808Y2034654D01*
Y2074641D01*
X2916812Y2084637D01*
X2886821D01*
X2946802Y2024657D02*
X2966795D01*
X2956799D01*
Y2084637D01*
X2946802Y2074641D01*
X2996785D02*
X3006782Y2084637D01*
X3026776D01*
X3036772Y2074641D01*
Y2064644D01*
X3026776Y2054647D01*
X3016779D01*
X3026776D01*
X3036772Y2044650D01*
Y2034654D01*
X3026776Y2024657D01*
X3006782D01*
X2996785Y2034654D01*
X5209990Y709991D02*
X5150010D01*
Y739981D01*
X5160006Y749978D01*
X5180000D01*
X5189996Y739981D01*
Y709991D01*
Y729984D02*
X5209990Y749978D01*
X5150010Y769971D02*
Y809958D01*
X5160006D01*
X5199993Y769971D01*
X5209990D01*
X5160006Y829952D02*
X5150010Y839949D01*
Y859942D01*
X5160006Y869939D01*
X5199993D01*
X5209990Y859942D01*
Y839949D01*
X5199993Y829952D01*
X5160006D01*
X5319990Y724986D02*
X5260010D01*
Y754976D01*
X5270006Y764973D01*
X5290000D01*
X5299997Y754976D01*
Y724986D01*
Y744979D02*
X5319990Y764973D01*
X5260010Y784966D02*
Y824953D01*
X5270006D01*
X5309993Y784966D01*
X5319990D01*
Y844947D02*
Y864940D01*
Y854943D01*
X5260010D01*
X5270006Y844947D01*
X5429990Y709991D02*
X5370010D01*
Y739981D01*
X5380007Y749978D01*
X5400000D01*
X5409997Y739981D01*
Y709991D01*
Y729984D02*
X5429990Y749978D01*
X5370010Y769971D02*
Y809958D01*
X5380007D01*
X5419993Y769971D01*
X5429990D01*
X5380007Y829952D02*
X5370010Y839949D01*
Y859942D01*
X5380007Y869939D01*
X5390003D01*
X5400000Y859942D01*
Y849945D01*
Y859942D01*
X5409997Y869939D01*
X5419993D01*
X5429990Y859942D01*
Y839949D01*
X5419993Y829952D01*
X5869990Y724986D02*
X5810009D01*
Y754976D01*
X5820006Y764973D01*
X5840000D01*
X5849996Y754976D01*
Y724986D01*
Y744979D02*
X5869990Y764973D01*
X5820006Y784966D02*
X5810009Y794963D01*
Y814956D01*
X5820006Y824953D01*
X5830003D01*
X5840000Y814956D01*
X5849996Y824953D01*
X5859993D01*
X5869990Y814956D01*
Y794963D01*
X5859993Y784966D01*
X5849996D01*
X5840000Y794963D01*
X5830003Y784966D01*
X5820006D01*
X5840000Y794963D02*
Y814956D01*
X5869990Y844947D02*
Y864940D01*
Y854943D01*
X5810009D01*
X5820006Y844947D01*
X5979990Y709991D02*
X5920009D01*
Y739981D01*
X5930006Y749978D01*
X5950000D01*
X5959996Y739981D01*
Y709991D01*
Y729984D02*
X5979990Y749978D01*
X5930006Y769971D02*
X5920009Y779968D01*
Y799962D01*
X5930006Y809958D01*
X5940003D01*
X5950000Y799962D01*
X5959996Y809958D01*
X5969993D01*
X5979990Y799962D01*
Y779968D01*
X5969993Y769971D01*
X5959996D01*
X5950000Y779968D01*
X5940003Y769971D01*
X5930006D01*
X5950000Y779968D02*
Y799962D01*
X5979990Y859942D02*
X5920009D01*
X5950000Y829952D01*
Y869939D01*
X3102503Y2000010D02*
Y2059990D01*
X3132494D01*
X3142490Y2049993D01*
Y2030000D01*
X3132494Y2020003D01*
X3102503D01*
X3122497D02*
X3142490Y2000010D01*
X3162484D02*
X3182478D01*
X3172481D01*
Y2059990D01*
X3162484Y2049993D01*
X3212468D02*
X3222464Y2059990D01*
X3242458D01*
X3252455Y2049993D01*
Y2010006D01*
X3242458Y2000010D01*
X3222464D01*
X3212468Y2010006D01*
Y2049993D01*
X3312435Y2059990D02*
X3292442Y2049993D01*
X3272448Y2030000D01*
Y2010006D01*
X3282445Y2000010D01*
X3302438D01*
X3312435Y2010006D01*
Y2020003D01*
X3302438Y2030000D01*
X3272448D01*
X5280013Y2359993D02*
X5270016Y2369990D01*
X5250023D01*
X5240026Y2359993D01*
Y2320006D01*
X5250023Y2310010D01*
X5270016D01*
X5280013Y2320006D01*
X5300007Y2359993D02*
X5310003Y2369990D01*
X5329997D01*
X5339994Y2359993D01*
Y2349997D01*
X5329997Y2340000D01*
X5339994Y2330003D01*
Y2320006D01*
X5329997Y2310010D01*
X5310003D01*
X5300007Y2320006D01*
Y2330003D01*
X5310003Y2340000D01*
X5300007Y2349997D01*
Y2359993D01*
X5310003Y2340000D02*
X5329997D01*
X5359987Y2320006D02*
X5369984Y2310010D01*
X5389978D01*
X5399974Y2320006D01*
Y2359993D01*
X5389978Y2369990D01*
X5369984D01*
X5359987Y2359993D01*
Y2349997D01*
X5369984Y2340000D01*
X5399974D01*
X2515021Y1499993D02*
X2505024Y1509990D01*
X2485031D01*
X2475034Y1499993D01*
Y1460006D01*
X2485031Y1450010D01*
X2505024D01*
X2515021Y1460006D01*
X2535015Y1450010D02*
X2555008D01*
X2545011D01*
Y1509990D01*
X2535015Y1499993D01*
X2584998D02*
X2594995Y1509990D01*
X2614989D01*
X2624985Y1499993D01*
Y1460006D01*
X2614989Y1450010D01*
X2594995D01*
X2584998Y1460006D01*
Y1499993D01*
X2684966Y1450010D02*
X2644979D01*
X2684966Y1489997D01*
Y1499993D01*
X2674969Y1509990D01*
X2654976D01*
X2644979Y1499993D01*
X2745018Y839993D02*
X2735021Y849990D01*
X2715028D01*
X2705031Y839993D01*
Y800006D01*
X2715028Y790010D01*
X2735021D01*
X2745018Y800006D01*
X2765011Y790010D02*
X2785005D01*
X2775008D01*
Y849990D01*
X2765011Y839993D01*
X2814995D02*
X2824992Y849990D01*
X2844985D01*
X2854982Y839993D01*
Y800006D01*
X2844985Y790010D01*
X2824992D01*
X2814995Y800006D01*
Y839993D01*
X2874976Y790010D02*
X2894969D01*
X2884972D01*
Y849990D01*
X2874976Y839993D01*
X2490006Y4539978D02*
X2480010Y4529981D01*
Y4509987D01*
X2490006Y4499991D01*
X2529993D01*
X2539990Y4509987D01*
Y4529981D01*
X2529993Y4539978D01*
X2539990Y4599958D02*
Y4559971D01*
X2500003Y4599958D01*
X2490006D01*
X2480010Y4589962D01*
Y4569968D01*
X2490006Y4559971D01*
X2539990Y4649942D02*
X2480010D01*
X2510000Y4619952D01*
Y4659939D01*
X4989978Y3319993D02*
X4979981Y3329990D01*
X4959988D01*
X4949991Y3319993D01*
Y3280006D01*
X4959988Y3270010D01*
X4979981D01*
X4989978Y3280006D01*
X5049958Y3270010D02*
X5009971D01*
X5049958Y3309997D01*
Y3319993D01*
X5039962Y3329990D01*
X5019968D01*
X5009971Y3319993D01*
X5109939Y3329990D02*
X5069952D01*
Y3300000D01*
X5089946Y3309997D01*
X5099942D01*
X5109939Y3300000D01*
Y3280006D01*
X5099942Y3270010D01*
X5079949D01*
X5069952Y3280006D01*
X5900006Y2769978D02*
X5890010Y2759981D01*
Y2739987D01*
X5900006Y2729991D01*
X5939993D01*
X5949990Y2739987D01*
Y2759981D01*
X5939993Y2769978D01*
X5949990Y2829958D02*
Y2789971D01*
X5910003Y2829958D01*
X5900006D01*
X5890010Y2819962D01*
Y2799968D01*
X5900006Y2789971D01*
X5890010Y2889939D02*
X5900006Y2869945D01*
X5920000Y2849952D01*
X5939993D01*
X5949990Y2859949D01*
Y2879942D01*
X5939993Y2889939D01*
X5929997D01*
X5920000Y2879942D01*
Y2849952D01*
X2150009Y1405024D02*
X2209990D01*
Y1435015D01*
X2199993Y1445011D01*
X2160006D01*
X2150009Y1435015D01*
Y1405024D01*
X2209990Y1465005D02*
Y1484999D01*
Y1475002D01*
X2150009D01*
X2160006Y1465005D01*
Y1514989D02*
X2150009Y1524985D01*
Y1544979D01*
X2160006Y1554976D01*
X2199993D01*
X2209990Y1544979D01*
Y1524985D01*
X2199993Y1514989D01*
X2160006D01*
X2610048Y2349978D02*
X2600051Y2339981D01*
Y2319987D01*
X2610048Y2309991D01*
X2650035D01*
X2660031Y2319987D01*
Y2339981D01*
X2650035Y2349978D01*
X2600051Y2369971D02*
Y2409958D01*
X2610048D01*
X2650035Y2369971D01*
X2660031D01*
X2650035Y2429952D02*
X2660031Y2439948D01*
Y2459942D01*
X2650035Y2469939D01*
X2610048D01*
X2600051Y2459942D01*
Y2439948D01*
X2610048Y2429952D01*
X2620044D01*
X2630041Y2439948D01*
Y2469939D01*
X3114309Y4744637D02*
Y4684657D01*
X3144299D01*
X3154296Y4694654D01*
Y4734641D01*
X3144299Y4744637D01*
X3114309D01*
X3174289D02*
X3214276D01*
Y4734641D01*
X3174289Y4694654D01*
Y4684657D01*
X4974309Y4744637D02*
Y4684657D01*
X5004299D01*
X5014296Y4694654D01*
Y4734641D01*
X5004299Y4744637D01*
X4974309D01*
X5034289Y4734641D02*
X5044286Y4744637D01*
X5064280D01*
X5074276Y4734641D01*
Y4724644D01*
X5064280Y4714647D01*
X5074276Y4704650D01*
Y4694654D01*
X5064280Y4684657D01*
X5044286D01*
X5034289Y4694654D01*
Y4704650D01*
X5044286Y4714647D01*
X5034289Y4724644D01*
Y4734641D01*
X5044286Y4714647D02*
X5064280D01*
X5219990Y4709991D02*
X5160010D01*
Y4739981D01*
X5170007Y4749978D01*
X5190000D01*
X5199997Y4739981D01*
Y4709991D01*
Y4729984D02*
X5219990Y4749978D01*
X5209994Y4769971D02*
X5219990Y4779968D01*
Y4799962D01*
X5209994Y4809958D01*
X5170007D01*
X5160010Y4799962D01*
Y4779968D01*
X5170007Y4769971D01*
X5180003D01*
X5190000Y4779968D01*
Y4809958D01*
X5219990Y4859942D02*
X5160010D01*
X5190000Y4829952D01*
Y4869939D01*
X3940016Y4144990D02*
Y4095006D01*
X3950013Y4085010D01*
X3970007D01*
X3980003Y4095006D01*
Y4144990D01*
X4039984D02*
X4019990Y4134993D01*
X3999997Y4115000D01*
Y4095006D01*
X4009994Y4085010D01*
X4029987D01*
X4039984Y4095006D01*
Y4105003D01*
X4029987Y4115000D01*
X3999997D01*
X3893726Y3559990D02*
Y3510006D01*
X3903723Y3500010D01*
X3923717D01*
X3933713Y3510006D01*
Y3559990D01*
X3953707Y3549993D02*
X3963704Y3559990D01*
X3983697D01*
X3993694Y3549993D01*
Y3539996D01*
X3983697Y3530000D01*
X3993694Y3520003D01*
Y3510006D01*
X3983697Y3500010D01*
X3963704D01*
X3953707Y3510006D01*
Y3520003D01*
X3963704Y3530000D01*
X3953707Y3539996D01*
Y3549993D01*
X3963704Y3530000D02*
X3983697D01*
X3860016Y3104990D02*
Y3055006D01*
X3870013Y3045010D01*
X3890006D01*
X3900003Y3055006D01*
Y3104990D01*
X3919997Y3055006D02*
X3929993Y3045010D01*
X3949987D01*
X3959984Y3055006D01*
Y3094993D01*
X3949987Y3104990D01*
X3929993D01*
X3919997Y3094993D01*
Y3084997D01*
X3929993Y3075000D01*
X3959984D01*
X2960010Y2980016D02*
X3009994D01*
X3019990Y2990013D01*
Y3010007D01*
X3009994Y3020003D01*
X2960010D01*
Y3039997D02*
Y3079984D01*
X2970007D01*
X3009994Y3039997D01*
X3019990D01*
X3822991Y3809990D02*
X3862978D01*
X3842985D01*
Y3750010D01*
X3882972D02*
Y3809990D01*
X3912962D01*
X3922959Y3799993D01*
Y3780000D01*
X3912962Y3770003D01*
X3882972D01*
X3982939Y3809990D02*
X3962946Y3799993D01*
X3942952Y3780000D01*
Y3760006D01*
X3952949Y3750010D01*
X3972943D01*
X3982939Y3760006D01*
Y3770003D01*
X3972943Y3780000D01*
X3942952D01*
X3860010Y2832991D02*
Y2872978D01*
Y2852984D01*
X3919990D01*
Y2892971D02*
X3860010D01*
Y2922962D01*
X3870007Y2932958D01*
X3890000D01*
X3899997Y2922962D01*
Y2892971D01*
X3860010Y2952952D02*
Y2992939D01*
X3870007D01*
X3909994Y2952952D01*
X3919990D01*
X2969991Y2670010D02*
Y2729990D01*
X2999981D01*
X3009978Y2719993D01*
Y2700000D01*
X2999981Y2690003D01*
X2969991D01*
X2989985D02*
X3009978Y2670010D01*
X3069959D02*
X3029972D01*
X3069959Y2709997D01*
Y2719993D01*
X3059962Y2729990D01*
X3039968D01*
X3029972Y2719993D01*
X3089952Y2680006D02*
X3099949Y2670010D01*
X3119942D01*
X3129939Y2680006D01*
Y2719993D01*
X3119942Y2729990D01*
X3099949D01*
X3089952Y2719993D01*
Y2709997D01*
X3099949Y2700000D01*
X3129939D01*
X3599991Y3640010D02*
Y3699990D01*
X3629981D01*
X3639978Y3689993D01*
Y3670000D01*
X3629981Y3660003D01*
X3599991D01*
X3619985D02*
X3639978Y3640010D01*
X3699959D02*
X3659972D01*
X3699959Y3679997D01*
Y3689993D01*
X3689962Y3699990D01*
X3669968D01*
X3659972Y3689993D01*
X3749942Y3640010D02*
Y3699990D01*
X3719952Y3670000D01*
X3759939D01*
X3017489Y4310010D02*
Y4369990D01*
X3047479D01*
X3057476Y4359994D01*
Y4340000D01*
X3047479Y4330004D01*
X3017489D01*
X3037482D02*
X3057476Y4310010D01*
X3077469D02*
X3097463D01*
X3087466D01*
Y4369990D01*
X3077469Y4359994D01*
X3127453Y4320007D02*
X3137450Y4310010D01*
X3157443D01*
X3167440Y4320007D01*
Y4359994D01*
X3157443Y4369990D01*
X3137450D01*
X3127453Y4359994D01*
Y4349997D01*
X3137450Y4340000D01*
X3167440D01*
X4429990Y3927488D02*
X4370010D01*
Y3957478D01*
X4380006Y3967475D01*
X4400000D01*
X4409997Y3957478D01*
Y3927488D01*
Y3947482D02*
X4429990Y3967475D01*
Y3987469D02*
Y4007462D01*
Y3997465D01*
X4370010D01*
X4380006Y3987469D01*
X4370010Y4037452D02*
Y4077439D01*
X4380006D01*
X4419993Y4037452D01*
X4429990D01*
X2909990Y4277489D02*
X2850010D01*
Y4307479D01*
X2860006Y4317475D01*
X2880000D01*
X2889997Y4307479D01*
Y4277489D01*
Y4297482D02*
X2909990Y4317475D01*
Y4337469D02*
Y4357463D01*
Y4347466D01*
X2850010D01*
X2860006Y4337469D01*
X2850010Y4427440D02*
Y4387453D01*
X2880000D01*
X2870003Y4407446D01*
Y4417443D01*
X2880000Y4427440D01*
X2899993D01*
X2909990Y4417443D01*
Y4397449D01*
X2899993Y4387453D01*
X3499990Y3877488D02*
X3440009D01*
Y3907479D01*
X3450006Y3917475D01*
X3470000D01*
X3479996Y3907479D01*
Y3877488D01*
Y3897482D02*
X3499990Y3917475D01*
Y3937469D02*
Y3957462D01*
Y3947466D01*
X3440009D01*
X3450006Y3937469D01*
X3499990Y4017443D02*
X3440009D01*
X3470000Y3987453D01*
Y4027439D01*
X3614991Y3400010D02*
Y3459990D01*
X3644981D01*
X3654978Y3449993D01*
Y3430000D01*
X3644981Y3420003D01*
X3614991D01*
X3634985D02*
X3654978Y3400010D01*
X3714959D02*
X3674972D01*
X3714959Y3439997D01*
Y3449993D01*
X3704962Y3459990D01*
X3684968D01*
X3674972Y3449993D01*
X3734952D02*
X3744949Y3459990D01*
X3764942D01*
X3774939Y3449993D01*
Y3439997D01*
X3764942Y3430000D01*
X3774939Y3420003D01*
Y3410006D01*
X3764942Y3400010D01*
X3744949D01*
X3734952Y3410006D01*
Y3420003D01*
X3744949Y3430000D01*
X3734952Y3439997D01*
Y3449993D01*
X3744949Y3430000D02*
X3764942D01*
X6639991Y3160010D02*
Y3219990D01*
X6669981D01*
X6679978Y3209993D01*
Y3190000D01*
X6669981Y3180003D01*
X6639991D01*
X6659984D02*
X6679978Y3160010D01*
X6739958D02*
X6699971D01*
X6739958Y3199997D01*
Y3209993D01*
X6729962Y3219990D01*
X6709968D01*
X6699971Y3209993D01*
X6759952D02*
X6769949Y3219990D01*
X6789942D01*
X6799939Y3209993D01*
Y3199997D01*
X6789942Y3190000D01*
X6779946D01*
X6789942D01*
X6799939Y3180003D01*
Y3170006D01*
X6789942Y3160010D01*
X6769949D01*
X6759952Y3170006D01*
X3559991Y3500010D02*
Y3559990D01*
X3589981D01*
X3599978Y3549993D01*
Y3530000D01*
X3589981Y3520003D01*
X3559991D01*
X3579984D02*
X3599978Y3500010D01*
X3659958D02*
X3619971D01*
X3659958Y3539997D01*
Y3549993D01*
X3649962Y3559990D01*
X3629968D01*
X3619971Y3549993D01*
X3679952Y3559990D02*
X3719939D01*
Y3549993D01*
X3679952Y3510006D01*
Y3500010D01*
X4349991Y2930010D02*
Y2989990D01*
X4379981D01*
X4389978Y2979993D01*
Y2960000D01*
X4379981Y2950003D01*
X4349991D01*
X4369984D02*
X4389978Y2930010D01*
X4449958D02*
X4409971D01*
X4449958Y2969997D01*
Y2979993D01*
X4439962Y2989990D01*
X4419968D01*
X4409971Y2979993D01*
X4509939Y2989990D02*
X4489946Y2979993D01*
X4469952Y2960000D01*
Y2940006D01*
X4479949Y2930010D01*
X4499942D01*
X4509939Y2940006D01*
Y2950003D01*
X4499942Y2960000D01*
X4469952D01*
X6137489Y4310010D02*
Y4369990D01*
X6167479D01*
X6177476Y4359993D01*
Y4340000D01*
X6167479Y4330003D01*
X6137489D01*
X6157482D02*
X6177476Y4310010D01*
X6197469D02*
X6217463D01*
X6207466D01*
Y4369990D01*
X6197469Y4359993D01*
X6247453D02*
X6257450Y4369990D01*
X6277443D01*
X6287440Y4359993D01*
Y4349997D01*
X6277443Y4340000D01*
X6287440Y4330003D01*
Y4320006D01*
X6277443Y4310010D01*
X6257450D01*
X6247453Y4320006D01*
Y4330003D01*
X6257450Y4340000D01*
X6247453Y4349997D01*
Y4359993D01*
X6257450Y4340000D02*
X6277443D01*
X2429990Y3124389D02*
X2370010D01*
Y3154380D01*
X2380007Y3164376D01*
X2400000D01*
X2409997Y3154380D01*
Y3124389D01*
Y3144383D02*
X2429990Y3164376D01*
Y3224357D02*
Y3184370D01*
X2390003Y3224357D01*
X2380007D01*
X2370010Y3214360D01*
Y3194367D01*
X2380007Y3184370D01*
X2429990Y3244351D02*
Y3264344D01*
Y3254347D01*
X2370010D01*
X2380007Y3244351D01*
X2839991Y3660010D02*
Y3719990D01*
X2869981D01*
X2879978Y3709993D01*
Y3690000D01*
X2869981Y3680003D01*
X2839991D01*
X2859985D02*
X2879978Y3660010D01*
X2939959D02*
X2899972D01*
X2939959Y3699997D01*
Y3709993D01*
X2929962Y3719990D01*
X2909968D01*
X2899972Y3709993D01*
X2959952D02*
X2969949Y3719990D01*
X2989942D01*
X2999939Y3709993D01*
Y3670006D01*
X2989942Y3660010D01*
X2969949D01*
X2959952Y3670006D01*
Y3709993D01*
X4357489Y2670010D02*
Y2729990D01*
X4387479D01*
X4397476Y2719993D01*
Y2700000D01*
X4387479Y2690003D01*
X4357489D01*
X4377482D02*
X4397476Y2670010D01*
X4417469D02*
X4437463D01*
X4427466D01*
Y2729990D01*
X4417469Y2719993D01*
X4467453D02*
X4477450Y2729990D01*
X4497443D01*
X4507440Y2719993D01*
Y2709997D01*
X4497443Y2700000D01*
X4487446D01*
X4497443D01*
X4507440Y2690003D01*
Y2680006D01*
X4497443Y2670010D01*
X4477450D01*
X4467453Y2680006D01*
X2186990Y4332916D02*
X2127009D01*
Y4362906D01*
X2137006Y4372903D01*
X2157000D01*
X2166996Y4362906D01*
Y4332916D01*
X2127009Y4432883D02*
X2137006Y4412890D01*
X2157000Y4392896D01*
X2176993D01*
X2186990Y4402893D01*
Y4422887D01*
X2176993Y4432883D01*
X2166996D01*
X2157000Y4422887D01*
Y4392896D01*
X2368215Y3667471D02*
X2428196D01*
Y3697461D01*
X2418199Y3707458D01*
X2378212D01*
X2368215Y3697461D01*
Y3667471D01*
X2428196Y3727452D02*
Y3747445D01*
Y3737448D01*
X2368215D01*
X2378212Y3727452D01*
X3059978Y3389952D02*
X3049981Y3399949D01*
X3029988D01*
X3019991Y3389952D01*
Y3349965D01*
X3029988Y3339968D01*
X3049981D01*
X3059978Y3349965D01*
X3109962Y3339968D02*
Y3399949D01*
X3079971Y3369959D01*
X3119958D01*
X3179939Y3399949D02*
X3159946Y3389952D01*
X3139952Y3369959D01*
Y3349965D01*
X3149949Y3339968D01*
X3169942D01*
X3179939Y3349965D01*
Y3359962D01*
X3169942Y3369959D01*
X3139952D01*
X3349978Y4330035D02*
X3339981Y4340031D01*
X3319988D01*
X3309991Y4330035D01*
Y4290048D01*
X3319988Y4280051D01*
X3339981D01*
X3349978Y4290048D01*
X3409958Y4340031D02*
X3369971D01*
Y4310041D01*
X3389965Y4320038D01*
X3399962D01*
X3409958Y4310041D01*
Y4290048D01*
X3399962Y4280051D01*
X3379968D01*
X3369971Y4290048D01*
X3469939Y4340031D02*
X3429952D01*
Y4310041D01*
X3449946Y4320038D01*
X3459942D01*
X3469939Y4310041D01*
Y4290048D01*
X3459942Y4280051D01*
X3439949D01*
X3429952Y4290048D01*
X3549978Y4330035D02*
X3539981Y4340031D01*
X3519988D01*
X3509991Y4330035D01*
Y4290048D01*
X3519988Y4280051D01*
X3539981D01*
X3549978Y4290048D01*
X3609958Y4340031D02*
X3569972D01*
Y4310041D01*
X3589965Y4320038D01*
X3599962D01*
X3609958Y4310041D01*
Y4290048D01*
X3599962Y4280051D01*
X3579968D01*
X3569972Y4290048D01*
X3659942Y4280051D02*
Y4340031D01*
X3629952Y4310041D01*
X3669939D01*
X4789978Y4349952D02*
X4779981Y4359949D01*
X4759988D01*
X4749991Y4349952D01*
Y4309965D01*
X4759988Y4299968D01*
X4779981D01*
X4789978Y4309965D01*
X4849959Y4359949D02*
X4809972D01*
Y4329959D01*
X4829965Y4339955D01*
X4839962D01*
X4849959Y4329959D01*
Y4309965D01*
X4839962Y4299968D01*
X4819968D01*
X4809972Y4309965D01*
X4869952Y4349952D02*
X4879949Y4359949D01*
X4899942D01*
X4909939Y4349952D01*
Y4339955D01*
X4899942Y4329959D01*
X4889946D01*
X4899942D01*
X4909939Y4319962D01*
Y4309965D01*
X4899942Y4299968D01*
X4879949D01*
X4869952Y4309965D01*
X4379965Y4279977D02*
X4369968Y4269981D01*
Y4249987D01*
X4379965Y4239990D01*
X4419952D01*
X4429949Y4249987D01*
Y4269981D01*
X4419952Y4279977D01*
X4369968Y4339958D02*
Y4299971D01*
X4399958D01*
X4389962Y4319964D01*
Y4329961D01*
X4399958Y4339958D01*
X4419952D01*
X4429949Y4329961D01*
Y4309968D01*
X4419952Y4299971D01*
X4429949Y4399938D02*
Y4359951D01*
X4389962Y4399938D01*
X4379965D01*
X4369968Y4389942D01*
Y4369948D01*
X4379965Y4359951D01*
X3064973Y3819952D02*
X3054976Y3829949D01*
X3034983D01*
X3024986Y3819952D01*
Y3779965D01*
X3034983Y3769968D01*
X3054976D01*
X3064973Y3779965D01*
X3124954Y3829949D02*
X3104960Y3819952D01*
X3084967Y3799959D01*
Y3779965D01*
X3094963Y3769968D01*
X3114957D01*
X3124954Y3779965D01*
Y3789962D01*
X3114957Y3799959D01*
X3084967D01*
X3144947Y3769968D02*
X3164941D01*
X3154944D01*
Y3829949D01*
X3144947Y3819952D01*
X2849978Y3820035D02*
X2839981Y3830031D01*
X2819988D01*
X2809991Y3820035D01*
Y3780048D01*
X2819988Y3770051D01*
X2839981D01*
X2849978Y3780048D01*
X2909958Y3830031D02*
X2889965Y3820035D01*
X2869971Y3800041D01*
Y3780048D01*
X2879968Y3770051D01*
X2899962D01*
X2909958Y3780048D01*
Y3790044D01*
X2899962Y3800041D01*
X2869971D01*
X2929952Y3820035D02*
X2939949Y3830031D01*
X2959942D01*
X2969939Y3820035D01*
Y3780048D01*
X2959942Y3770051D01*
X2939949D01*
X2929952Y3780048D01*
Y3820035D01*
X3489978Y4209993D02*
X3479981Y4219990D01*
X3459987D01*
X3449991Y4209993D01*
Y4170006D01*
X3459987Y4160010D01*
X3479981D01*
X3489978Y4170006D01*
X3509971Y4209993D02*
X3519968Y4219990D01*
X3539962D01*
X3549958Y4209993D01*
Y4199997D01*
X3539962Y4190000D01*
X3529965D01*
X3539962D01*
X3549958Y4180003D01*
Y4170006D01*
X3539962Y4160010D01*
X3519968D01*
X3509971Y4170006D01*
X3569952Y4209993D02*
X3579949Y4219990D01*
X3599942D01*
X3609939Y4209993D01*
Y4199997D01*
X3599942Y4190000D01*
X3589946D01*
X3599942D01*
X3609939Y4180003D01*
Y4170006D01*
X3599942Y4160010D01*
X3579949D01*
X3569952Y4170006D01*
X3489978Y4079993D02*
X3479981Y4089990D01*
X3459987D01*
X3449991Y4079993D01*
Y4040006D01*
X3459987Y4030010D01*
X3479981D01*
X3489978Y4040006D01*
X3509971Y4079993D02*
X3519968Y4089990D01*
X3539962D01*
X3549958Y4079993D01*
Y4069997D01*
X3539962Y4060000D01*
X3529965D01*
X3539962D01*
X3549958Y4050003D01*
Y4040006D01*
X3539962Y4030010D01*
X3519968D01*
X3509971Y4040006D01*
X3609939Y4030010D02*
X3569952D01*
X3609939Y4069997D01*
Y4079993D01*
X3599942Y4089990D01*
X3579949D01*
X3569952Y4079993D01*
X3559965Y3934973D02*
X3549968Y3924976D01*
Y3904983D01*
X3559965Y3894986D01*
X3599952D01*
X3609949Y3904983D01*
Y3924976D01*
X3599952Y3934973D01*
X3559965Y3954966D02*
X3549968Y3964963D01*
Y3984957D01*
X3559965Y3994953D01*
X3569962D01*
X3579959Y3984957D01*
Y3974960D01*
Y3984957D01*
X3589955Y3994953D01*
X3599952D01*
X3609949Y3984957D01*
Y3964963D01*
X3599952Y3954966D01*
X3609949Y4014947D02*
Y4034941D01*
Y4024944D01*
X3549968D01*
X3559965Y4014947D01*
X3159965Y4309978D02*
X3149968Y4299981D01*
Y4279987D01*
X3159965Y4269991D01*
X3199952D01*
X3209949Y4279987D01*
Y4299981D01*
X3199952Y4309978D01*
X3159965Y4329971D02*
X3149968Y4339968D01*
Y4359962D01*
X3159965Y4369958D01*
X3169962D01*
X3179958Y4359962D01*
Y4349965D01*
Y4359962D01*
X3189955Y4369958D01*
X3199952D01*
X3209949Y4359962D01*
Y4339968D01*
X3199952Y4329971D01*
X3159965Y4389952D02*
X3149968Y4399949D01*
Y4419942D01*
X3159965Y4429939D01*
X3199952D01*
X3209949Y4419942D01*
Y4399949D01*
X3199952Y4389952D01*
X3159965D01*
X3049978Y4259952D02*
X3039981Y4269949D01*
X3019988D01*
X3009991Y4259952D01*
Y4219965D01*
X3019988Y4209968D01*
X3039981D01*
X3049978Y4219965D01*
X3109958Y4209968D02*
X3069972D01*
X3109958Y4249955D01*
Y4259952D01*
X3099962Y4269949D01*
X3079968D01*
X3069972Y4259952D01*
X3129952Y4219965D02*
X3139949Y4209968D01*
X3159942D01*
X3169939Y4219965D01*
Y4259952D01*
X3159942Y4269949D01*
X3139949D01*
X3129952Y4259952D01*
Y4249955D01*
X3139949Y4239959D01*
X3169939D01*
X3350048Y3909978D02*
X3340051Y3899981D01*
Y3879988D01*
X3350048Y3869991D01*
X3390035D01*
X3400032Y3879988D01*
Y3899981D01*
X3390035Y3909978D01*
X3400032Y3969959D02*
Y3929972D01*
X3360045Y3969959D01*
X3350048D01*
X3340051Y3959962D01*
Y3939968D01*
X3350048Y3929972D01*
Y3989952D02*
X3340051Y3999949D01*
Y4019942D01*
X3350048Y4029939D01*
X3360045D01*
X3370041Y4019942D01*
X3380038Y4029939D01*
X3390035D01*
X3400032Y4019942D01*
Y3999949D01*
X3390035Y3989952D01*
X3380038D01*
X3370041Y3999949D01*
X3360045Y3989952D01*
X3350048D01*
X3370041Y3999949D02*
Y4019942D01*
X3349965Y3539978D02*
X3339968Y3529981D01*
Y3509987D01*
X3349965Y3499991D01*
X3389952D01*
X3399949Y3509987D01*
Y3529981D01*
X3389952Y3539978D01*
X3399949Y3589962D02*
X3339968D01*
X3369958Y3559971D01*
Y3599958D01*
X3339968Y3659939D02*
Y3619952D01*
X3369958D01*
X3359962Y3639945D01*
Y3649942D01*
X3369958Y3659939D01*
X3389952D01*
X3399949Y3649942D01*
Y3629949D01*
X3389952Y3619952D01*
X2819978Y3499993D02*
X2809981Y3509990D01*
X2789988D01*
X2779991Y3499993D01*
Y3460006D01*
X2789988Y3450010D01*
X2809981D01*
X2819978Y3460006D01*
X2869962Y3450010D02*
Y3509990D01*
X2839971Y3480000D01*
X2879958D01*
X2929942Y3450010D02*
Y3509990D01*
X2899952Y3480000D01*
X2939939D01*
X4410048Y3539978D02*
X4400051Y3529981D01*
Y3509987D01*
X4410048Y3499991D01*
X4450035D01*
X4460031Y3509987D01*
Y3529981D01*
X4450035Y3539978D01*
X4460031Y3589962D02*
X4400051D01*
X4430041Y3559971D01*
Y3599958D01*
X4460031Y3659939D02*
Y3619952D01*
X4420044Y3659939D01*
X4410048D01*
X4400051Y3649942D01*
Y3629949D01*
X4410048Y3619952D01*
X4309978Y3589952D02*
X4299981Y3599949D01*
X4279988D01*
X4269991Y3589952D01*
Y3549965D01*
X4279988Y3539968D01*
X4299981D01*
X4309978Y3549965D01*
X4359962Y3539968D02*
Y3599949D01*
X4329972Y3569959D01*
X4369958D01*
X4389952Y3589952D02*
X4399949Y3599949D01*
X4419942D01*
X4429939Y3589952D01*
Y3579955D01*
X4419942Y3569959D01*
X4409946D01*
X4419942D01*
X4429939Y3559962D01*
Y3549965D01*
X4419942Y3539968D01*
X4399949D01*
X4389952Y3549965D01*
X4309978Y3789952D02*
X4299981Y3799949D01*
X4279988D01*
X4269991Y3789952D01*
Y3749965D01*
X4279988Y3739968D01*
X4299981D01*
X4309978Y3749965D01*
X4329972Y3789952D02*
X4339968Y3799949D01*
X4359962D01*
X4369958Y3789952D01*
Y3779955D01*
X4359962Y3769959D01*
X4349965D01*
X4359962D01*
X4369958Y3759962D01*
Y3749965D01*
X4359962Y3739968D01*
X4339968D01*
X4329972Y3749965D01*
X4389952Y3789952D02*
X4399949Y3799949D01*
X4419942D01*
X4429939Y3789952D01*
Y3779955D01*
X4419942Y3769959D01*
X4429939Y3759962D01*
Y3749965D01*
X4419942Y3739968D01*
X4399949D01*
X4389952Y3749965D01*
Y3759962D01*
X4399949Y3769959D01*
X4389952Y3779955D01*
Y3789952D01*
X4399949Y3769959D02*
X4419942D01*
X4309978Y3689952D02*
X4299981Y3699949D01*
X4279988D01*
X4269991Y3689952D01*
Y3649965D01*
X4279988Y3639968D01*
X4299981D01*
X4309978Y3649965D01*
X4329972Y3689952D02*
X4339968Y3699949D01*
X4359962D01*
X4369958Y3689952D01*
Y3679955D01*
X4359962Y3669959D01*
X4349965D01*
X4359962D01*
X4369958Y3659962D01*
Y3649965D01*
X4359962Y3639968D01*
X4339968D01*
X4329972Y3649965D01*
X4389952Y3699949D02*
X4429939D01*
Y3689952D01*
X4389952Y3649965D01*
Y3639968D01*
X3439978Y3699952D02*
X3429981Y3709949D01*
X3409988D01*
X3399991Y3699952D01*
Y3659965D01*
X3409988Y3649968D01*
X3429981D01*
X3439978Y3659965D01*
X3459971Y3699952D02*
X3469968Y3709949D01*
X3489962D01*
X3499958Y3699952D01*
Y3689955D01*
X3489962Y3679959D01*
X3479965D01*
X3489962D01*
X3499958Y3669962D01*
Y3659965D01*
X3489962Y3649968D01*
X3469968D01*
X3459971Y3659965D01*
X3559939Y3709949D02*
X3539946Y3699952D01*
X3519952Y3679959D01*
Y3659965D01*
X3529949Y3649968D01*
X3549942D01*
X3559939Y3659965D01*
Y3669962D01*
X3549942Y3679959D01*
X3519952D01*
X3459978Y3350034D02*
X3449981Y3360031D01*
X3429988D01*
X3419991Y3350034D01*
Y3310047D01*
X3429988Y3300051D01*
X3449981D01*
X3459978Y3310047D01*
X3519958Y3360031D02*
X3479971D01*
Y3330041D01*
X3499965Y3340038D01*
X3509962D01*
X3519958Y3330041D01*
Y3310047D01*
X3509962Y3300051D01*
X3489968D01*
X3479971Y3310047D01*
X3539952D02*
X3549949Y3300051D01*
X3569942D01*
X3579939Y3310047D01*
Y3350034D01*
X3569942Y3360031D01*
X3549949D01*
X3539952Y3350034D01*
Y3340038D01*
X3549949Y3330041D01*
X3579939D01*
X3469978Y3230034D02*
X3459981Y3240031D01*
X3439988D01*
X3429991Y3230034D01*
Y3190047D01*
X3439988Y3180051D01*
X3459981D01*
X3469978Y3190047D01*
X3529958Y3240031D02*
X3489971D01*
Y3210041D01*
X3509965Y3220038D01*
X3519962D01*
X3529958Y3210041D01*
Y3190047D01*
X3519962Y3180051D01*
X3499968D01*
X3489971Y3190047D01*
X3549952Y3230034D02*
X3559949Y3240031D01*
X3579942D01*
X3589939Y3230034D01*
Y3220038D01*
X3579942Y3210041D01*
X3589939Y3200044D01*
Y3190047D01*
X3579942Y3180051D01*
X3559949D01*
X3549952Y3190047D01*
Y3200044D01*
X3559949Y3210041D01*
X3549952Y3220038D01*
Y3230034D01*
X3559949Y3210041D02*
X3579942D01*
X4389978Y3209952D02*
X4379981Y3219949D01*
X4359987D01*
X4349991Y3209952D01*
Y3169965D01*
X4359987Y3159968D01*
X4379981D01*
X4389978Y3169965D01*
X4449958Y3219949D02*
X4409971D01*
Y3189959D01*
X4429965Y3199955D01*
X4439962D01*
X4449958Y3189959D01*
Y3169965D01*
X4439962Y3159968D01*
X4419968D01*
X4409971Y3169965D01*
X4469952Y3219949D02*
X4509939D01*
Y3209952D01*
X4469952Y3169965D01*
Y3159968D01*
X4389978Y3309952D02*
X4379981Y3319949D01*
X4359987D01*
X4349991Y3309952D01*
Y3269965D01*
X4359987Y3259968D01*
X4379981D01*
X4389978Y3269965D01*
X4449958Y3319949D02*
X4409971D01*
Y3289959D01*
X4429965Y3299955D01*
X4439962D01*
X4449958Y3289959D01*
Y3269965D01*
X4439962Y3259968D01*
X4419968D01*
X4409971Y3269965D01*
X4509939Y3319949D02*
X4489946Y3309952D01*
X4469952Y3289959D01*
Y3269965D01*
X4479949Y3259968D01*
X4499942D01*
X4509939Y3269965D01*
Y3279962D01*
X4499942Y3289959D01*
X4469952D01*
X3199965Y3049978D02*
X3189968Y3039981D01*
Y3019987D01*
X3199965Y3009991D01*
X3239952D01*
X3249949Y3019987D01*
Y3039981D01*
X3239952Y3049978D01*
X3189968Y3109958D02*
Y3069971D01*
X3219958D01*
X3209962Y3089965D01*
Y3099962D01*
X3219958Y3109958D01*
X3239952D01*
X3249949Y3099962D01*
Y3079968D01*
X3239952Y3069971D01*
X3199965Y3129952D02*
X3189968Y3139949D01*
Y3159942D01*
X3199965Y3169939D01*
X3239952D01*
X3249949Y3159942D01*
Y3139949D01*
X3239952Y3129952D01*
X3199965D01*
X2749667Y3160524D02*
X2739670Y3150527D01*
Y3130533D01*
X2749667Y3120537D01*
X2789654D01*
X2799651Y3130533D01*
Y3150527D01*
X2789654Y3160524D01*
X2799651Y3210507D02*
X2739670D01*
X2769660Y3180517D01*
Y3220504D01*
X2789654Y3240498D02*
X2799651Y3250494D01*
Y3270488D01*
X2789654Y3280485D01*
X2749667D01*
X2739670Y3270488D01*
Y3250494D01*
X2749667Y3240498D01*
X2759664D01*
X2769660Y3250494D01*
Y3280485D01*
X3424973Y3109993D02*
X3414976Y3119990D01*
X3394983D01*
X3384986Y3109993D01*
Y3070006D01*
X3394983Y3060010D01*
X3414976D01*
X3424973Y3070006D01*
X3474957Y3060010D02*
Y3119990D01*
X3444967Y3090000D01*
X3484954D01*
X3504947Y3060010D02*
X3524941D01*
X3514944D01*
Y3119990D01*
X3504947Y3109993D01*
X3409978Y2869993D02*
X3399981Y2879990D01*
X3379988D01*
X3369991Y2869993D01*
Y2830006D01*
X3379988Y2820010D01*
X3399981D01*
X3409978Y2830006D01*
X3459962Y2820010D02*
Y2879990D01*
X3429972Y2850000D01*
X3469959D01*
X3489952Y2869993D02*
X3499949Y2879990D01*
X3519942D01*
X3529939Y2869993D01*
Y2830006D01*
X3519942Y2820010D01*
X3499949D01*
X3489952Y2830006D01*
Y2869993D01*
X3469978Y2990034D02*
X3459981Y3000031D01*
X3439988D01*
X3429991Y2990034D01*
Y2950047D01*
X3439988Y2940051D01*
X3459981D01*
X3469978Y2950047D01*
X3489971Y2990034D02*
X3499968Y3000031D01*
X3519962D01*
X3529958Y2990034D01*
Y2980038D01*
X3519962Y2970041D01*
X3509965D01*
X3519962D01*
X3529958Y2960044D01*
Y2950047D01*
X3519962Y2940051D01*
X3499968D01*
X3489971Y2950047D01*
X3549952D02*
X3559949Y2940051D01*
X3579942D01*
X3589939Y2950047D01*
Y2990034D01*
X3579942Y3000031D01*
X3559949D01*
X3549952Y2990034D01*
Y2980038D01*
X3559949Y2970041D01*
X3589939D01*
X2909978Y3610034D02*
X2899981Y3620031D01*
X2879988D01*
X2869991Y3610034D01*
Y3570047D01*
X2879988Y3560051D01*
X2899981D01*
X2909978Y3570047D01*
X2929972Y3610034D02*
X2939968Y3620031D01*
X2959962D01*
X2969958Y3610034D01*
Y3600038D01*
X2959962Y3590041D01*
X2949965D01*
X2959962D01*
X2969958Y3580044D01*
Y3570047D01*
X2959962Y3560051D01*
X2939968D01*
X2929972Y3570047D01*
X3019942Y3560051D02*
Y3620031D01*
X2989952Y3590041D01*
X3029939D01*
X4389978Y2859952D02*
X4379981Y2869949D01*
X4359987D01*
X4349991Y2859952D01*
Y2819965D01*
X4359987Y2809968D01*
X4379981D01*
X4389978Y2819965D01*
X4449958Y2809968D02*
X4409971D01*
X4449958Y2849955D01*
Y2859952D01*
X4439962Y2869949D01*
X4419968D01*
X4409971Y2859952D01*
X4469952Y2869949D02*
X4509939D01*
Y2859952D01*
X4469952Y2819965D01*
Y2809968D01*
X6799990Y2850010D02*
Y2909990D01*
X6829981D01*
X6839977Y2899993D01*
Y2880000D01*
X6829981Y2870003D01*
X6799990D01*
X6819984D02*
X6839977Y2850010D01*
X6859971Y2899993D02*
X6869968Y2909990D01*
X6889961D01*
X6899958Y2899993D01*
Y2889997D01*
X6889961Y2880000D01*
X6879965D01*
X6889961D01*
X6899958Y2870003D01*
Y2860006D01*
X6889961Y2850010D01*
X6869968D01*
X6859971Y2860006D01*
X6919952Y2899993D02*
X6929948Y2909990D01*
X6949942D01*
X6959939Y2899993D01*
Y2860006D01*
X6949942Y2850010D01*
X6929948D01*
X6919952Y2860006D01*
Y2899993D01*
X7319990Y2924986D02*
X7260009D01*
Y2954976D01*
X7270006Y2964973D01*
X7289999D01*
X7299996Y2954976D01*
Y2924986D01*
Y2944979D02*
X7319990Y2964973D01*
X7270006Y2984966D02*
X7260009Y2994963D01*
Y3014957D01*
X7270006Y3024953D01*
X7280003D01*
X7289999Y3014957D01*
Y3004960D01*
Y3014957D01*
X7299996Y3024953D01*
X7309993D01*
X7319990Y3014957D01*
Y2994963D01*
X7309993Y2984966D01*
X7319990Y3044947D02*
Y3064941D01*
Y3054944D01*
X7260009D01*
X7270006Y3044947D01*
X6299990Y819991D02*
X6240010D01*
Y849981D01*
X6250007Y859978D01*
X6270000D01*
X6279997Y849981D01*
Y819991D01*
Y839985D02*
X6299990Y859978D01*
X6240010Y919959D02*
Y879972D01*
X6270000D01*
X6260003Y899965D01*
Y909962D01*
X6270000Y919959D01*
X6289994D01*
X6299990Y909962D01*
Y889968D01*
X6289994Y879972D01*
X6250007Y939952D02*
X6240010Y949949D01*
Y969942D01*
X6250007Y979939D01*
X6260003D01*
X6270000Y969942D01*
Y959946D01*
Y969942D01*
X6279997Y979939D01*
X6289994D01*
X6299990Y969942D01*
Y949949D01*
X6289994Y939952D01*
X6399990Y819990D02*
X6340009D01*
Y849981D01*
X6350006Y859977D01*
X6370000D01*
X6379996Y849981D01*
Y819990D01*
Y839984D02*
X6399990Y859977D01*
X6340009Y919958D02*
Y879971D01*
X6370000D01*
X6360003Y899965D01*
Y909961D01*
X6370000Y919958D01*
X6389993D01*
X6399990Y909961D01*
Y889968D01*
X6389993Y879971D01*
X6399990Y969942D02*
X6340009D01*
X6370000Y939952D01*
Y979939D01*
X6254963Y3860034D02*
X6244967Y3870031D01*
X6224973D01*
X6214976Y3860034D01*
Y3820047D01*
X6224973Y3810051D01*
X6244967D01*
X6254963Y3820047D01*
X6314944Y3870031D02*
X6294951Y3860034D01*
X6274957Y3840041D01*
Y3820047D01*
X6284954Y3810051D01*
X6304947D01*
X6314944Y3820047D01*
Y3830044D01*
X6304947Y3840041D01*
X6274957D01*
X2749965Y2889978D02*
X2739968Y2879981D01*
Y2859988D01*
X2749965Y2849991D01*
X2789952D01*
X2799949Y2859988D01*
Y2879981D01*
X2789952Y2889978D01*
X2749965Y2909972D02*
X2739968Y2919968D01*
Y2939962D01*
X2749965Y2949959D01*
X2759962D01*
X2769959Y2939962D01*
Y2929965D01*
Y2939962D01*
X2779955Y2949959D01*
X2789952D01*
X2799949Y2939962D01*
Y2919968D01*
X2789952Y2909972D01*
X2739968Y3009939D02*
Y2969952D01*
X2769959D01*
X2759962Y2989946D01*
Y2999942D01*
X2769959Y3009939D01*
X2789952D01*
X2799949Y2999942D01*
Y2979949D01*
X2789952Y2969952D01*
X4750006Y1110013D02*
X4740009Y1100016D01*
Y1080022D01*
X4750006Y1070026D01*
X4789993D01*
X4799990Y1080022D01*
Y1100016D01*
X4789993Y1110013D01*
X4750006Y1130006D02*
X4740009Y1140003D01*
Y1159996D01*
X4750006Y1169993D01*
X4760003D01*
X4770000Y1159996D01*
X4779996Y1169993D01*
X4789993D01*
X4799990Y1159996D01*
Y1140003D01*
X4789993Y1130006D01*
X4779996D01*
X4770000Y1140003D01*
X4760003Y1130006D01*
X4750006D01*
X4770000Y1140003D02*
Y1159996D01*
X4799990Y1229974D02*
Y1189987D01*
X4760003Y1229974D01*
X4750006D01*
X4740009Y1219977D01*
Y1199983D01*
X4750006Y1189987D01*
X3799978Y2390035D02*
X3789981Y2400032D01*
X3769988D01*
X3759991Y2390035D01*
Y2350048D01*
X3769988Y2340051D01*
X3789981D01*
X3799978Y2350048D01*
X3819972D02*
X3829968Y2340051D01*
X3849962D01*
X3859958Y2350048D01*
Y2390035D01*
X3849962Y2400032D01*
X3829968D01*
X3819972Y2390035D01*
Y2380038D01*
X3829968Y2370041D01*
X3859958D01*
X3919939Y2400032D02*
X3899946Y2390035D01*
X3879952Y2370041D01*
Y2350048D01*
X3889949Y2340051D01*
X3909942D01*
X3919939Y2350048D01*
Y2360045D01*
X3909942Y2370041D01*
X3879952D01*
X7632490Y1070034D02*
X7622494Y1080031D01*
X7602500D01*
X7592503Y1070034D01*
Y1030047D01*
X7602500Y1020051D01*
X7622494D01*
X7632490Y1030047D01*
X7652484Y1020051D02*
X7672477D01*
X7662480D01*
Y1080031D01*
X7652484Y1070034D01*
X7742454Y1020051D02*
X7702467D01*
X7742454Y1060038D01*
Y1070034D01*
X7732458Y1080031D01*
X7712464D01*
X7702467Y1070034D01*
X7802435Y1020051D02*
X7762448D01*
X7802435Y1060038D01*
Y1070034D01*
X7792438Y1080031D01*
X7772445D01*
X7762448Y1070034D01*
X4019991Y2670010D02*
Y2729990D01*
X4049981D01*
X4059978Y2719993D01*
Y2700000D01*
X4049981Y2690003D01*
X4019991D01*
X4039985D02*
X4059978Y2670010D01*
X4119958D02*
X4079972D01*
X4119958Y2709997D01*
Y2719993D01*
X4109962Y2729990D01*
X4089968D01*
X4079972Y2719993D01*
X4179939Y2670010D02*
X4139952D01*
X4179939Y2709997D01*
Y2719993D01*
X4169942Y2729990D01*
X4149949D01*
X4139952Y2719993D01*
X3217489Y3770010D02*
Y3829990D01*
X3247479D01*
X3257476Y3819993D01*
Y3800000D01*
X3247479Y3790003D01*
X3217489D01*
X3237482D02*
X3257476Y3770010D01*
X3277469D02*
X3297463D01*
X3287466D01*
Y3829990D01*
X3277469Y3819993D01*
X3367440Y3829990D02*
X3347446Y3819993D01*
X3327453Y3800000D01*
Y3780006D01*
X3337450Y3770010D01*
X3357443D01*
X3367440Y3780006D01*
Y3790003D01*
X3357443Y3800000D01*
X3327453D01*
X3890023Y2159990D02*
Y2110006D01*
X3900019Y2100010D01*
X3920013D01*
X3930010Y2110006D01*
Y2159990D01*
X3989990Y2100010D02*
X3950003D01*
X3989990Y2139997D01*
Y2149993D01*
X3979994Y2159990D01*
X3960000D01*
X3950003Y2149993D01*
X4009984Y2100010D02*
X4029977D01*
X4019981D01*
Y2159990D01*
X4009984Y2149993D01*
X6936026Y1380313D02*
Y1330330D01*
X6946023Y1320333D01*
X6966016D01*
X6976013Y1330330D01*
Y1380313D01*
X7035994Y1320333D02*
X6996007D01*
X7035994Y1360320D01*
Y1370317D01*
X7025997Y1380313D01*
X7006003D01*
X6996007Y1370317D01*
X7095974Y1380313D02*
X7055987D01*
Y1350323D01*
X7075981Y1360320D01*
X7085977D01*
X7095974Y1350323D01*
Y1330330D01*
X7085977Y1320333D01*
X7065984D01*
X7055987Y1330330D01*
X2580010Y1127476D02*
X2639990D01*
Y1167463D01*
X2590007Y1187457D02*
X2580010Y1197453D01*
Y1217447D01*
X2590007Y1227444D01*
X2600003D01*
X2610000Y1217447D01*
Y1207450D01*
Y1217447D01*
X2619997Y1227444D01*
X2629993D01*
X2639990Y1217447D01*
Y1197453D01*
X2629993Y1187457D01*
X5557489Y3260010D02*
Y3319990D01*
X5587479D01*
X5597476Y3309993D01*
Y3290000D01*
X5587479Y3280003D01*
X5557489D01*
X5577482D02*
X5597476Y3260010D01*
X5617469D02*
X5637463D01*
X5627466D01*
Y3319990D01*
X5617469Y3309993D01*
X5667453D02*
X5677450Y3319990D01*
X5697443D01*
X5707440Y3309993D01*
Y3270006D01*
X5697443Y3260010D01*
X5677450D01*
X5667453Y3270006D01*
Y3309993D01*
X6080007Y2777476D02*
X6070010Y2767479D01*
Y2747485D01*
X6080007Y2737489D01*
X6119994D01*
X6129990Y2747485D01*
Y2767479D01*
X6119994Y2777476D01*
X6129990Y2797469D02*
Y2817463D01*
Y2807466D01*
X6070010D01*
X6080007Y2797469D01*
X6119994Y2847453D02*
X6129990Y2857449D01*
Y2877443D01*
X6119994Y2887440D01*
X6080007D01*
X6070010Y2877443D01*
Y2857449D01*
X6080007Y2847453D01*
X6090003D01*
X6100000Y2857449D01*
Y2887440D01*
X6260006Y2769978D02*
X6250009Y2759981D01*
Y2739987D01*
X6260006Y2729991D01*
X6299993D01*
X6309990Y2739987D01*
Y2759981D01*
X6299993Y2769978D01*
X6309990Y2819962D02*
X6250009D01*
X6280000Y2789971D01*
Y2829958D01*
X6260006Y2849952D02*
X6250009Y2859949D01*
Y2879942D01*
X6260006Y2889939D01*
X6270003D01*
X6280000Y2879942D01*
X6289996Y2889939D01*
X6299993D01*
X6309990Y2879942D01*
Y2859949D01*
X6299993Y2849952D01*
X6289996D01*
X6280000Y2859949D01*
X6270003Y2849952D01*
X6260006D01*
X6280000Y2859949D02*
Y2879942D01*
X3180006Y2774973D02*
X3170009Y2764976D01*
Y2744982D01*
X3180006Y2734986D01*
X3219993D01*
X3229990Y2744982D01*
Y2764976D01*
X3219993Y2774973D01*
X3170009Y2834953D02*
Y2794966D01*
X3200000D01*
X3190003Y2814960D01*
Y2824957D01*
X3200000Y2834953D01*
X3219993D01*
X3229990Y2824957D01*
Y2804963D01*
X3219993Y2794966D01*
X3229990Y2854947D02*
Y2874940D01*
Y2864943D01*
X3170009D01*
X3180006Y2854947D01*
X5980047Y2389978D02*
X5970051Y2379981D01*
Y2359988D01*
X5980047Y2349991D01*
X6020034D01*
X6030031Y2359988D01*
Y2379981D01*
X6020034Y2389978D01*
X5970051Y2409972D02*
Y2449959D01*
X5980047D01*
X6020034Y2409972D01*
X6030031D01*
X5980047Y2469952D02*
X5970051Y2479949D01*
Y2499942D01*
X5980047Y2509939D01*
X5990044D01*
X6000041Y2499942D01*
Y2489946D01*
Y2499942D01*
X6010038Y2509939D01*
X6020034D01*
X6030031Y2499942D01*
Y2479949D01*
X6020034Y2469952D01*
X5979965Y2189978D02*
X5969968Y2179981D01*
Y2159988D01*
X5979965Y2149991D01*
X6019952D01*
X6029949Y2159988D01*
Y2179981D01*
X6019952Y2189978D01*
X5969968Y2209971D02*
Y2249958D01*
X5979965D01*
X6019952Y2209971D01*
X6029949D01*
Y2299942D02*
X5969968D01*
X5999958Y2269952D01*
Y2309939D01*
X6090013Y2239993D02*
X6080016Y2249990D01*
X6060023D01*
X6050026Y2239993D01*
Y2200006D01*
X6060023Y2190010D01*
X6080016D01*
X6090013Y2200006D01*
X6110007Y2249990D02*
X6149994D01*
Y2239993D01*
X6110007Y2200006D01*
Y2190010D01*
X6209974Y2249990D02*
X6169987D01*
Y2220000D01*
X6189981Y2229997D01*
X6199977D01*
X6209974Y2220000D01*
Y2200006D01*
X6199977Y2190010D01*
X6179984D01*
X6169987Y2200006D01*
X5749657Y2224988D02*
X5799640D01*
X5809637Y2234985D01*
Y2254978D01*
X5799640Y2264975D01*
X5749657D01*
X5809637Y2284969D02*
Y2304962D01*
Y2294965D01*
X5749657D01*
X5759653Y2284969D01*
X5749657Y2374939D02*
X5759653Y2354946D01*
X5779647Y2334952D01*
X5799640D01*
X5809637Y2344949D01*
Y2364943D01*
X5799640Y2374939D01*
X5789643D01*
X5779647Y2364943D01*
Y2334952D01*
X3084989Y3600343D02*
Y3550359D01*
X3094985Y3540362D01*
X3114979D01*
X3124976Y3550359D01*
Y3600343D01*
X3144969Y3540362D02*
X3164963D01*
X3154966D01*
Y3600343D01*
X3144969Y3590346D01*
X3194953D02*
X3204950Y3600343D01*
X3224943D01*
X3234940Y3590346D01*
Y3550359D01*
X3224943Y3540362D01*
X3204950D01*
X3194953Y3550359D01*
Y3590346D01*
X2960016Y4049990D02*
Y4000006D01*
X2970013Y3990010D01*
X2990007D01*
X3000003Y4000006D01*
Y4049990D01*
X3059984D02*
X3019997D01*
Y4020000D01*
X3039991Y4029997D01*
X3049987D01*
X3059984Y4020000D01*
Y4000006D01*
X3049987Y3990010D01*
X3029994D01*
X3019997Y4000006D01*
X3450009Y3462991D02*
Y3502978D01*
Y3482984D01*
X3509990D01*
Y3522971D02*
X3450009D01*
Y3552961D01*
X3460006Y3562958D01*
X3480000D01*
X3489996Y3552961D01*
Y3522971D01*
X3460006Y3582952D02*
X3450009Y3592948D01*
Y3612942D01*
X3460006Y3622939D01*
X3470003D01*
X3480000Y3612942D01*
X3489996Y3622939D01*
X3499993D01*
X3509990Y3612942D01*
Y3592948D01*
X3499993Y3582952D01*
X3489996D01*
X3480000Y3592948D01*
X3470003Y3582952D01*
X3460006D01*
X3480000Y3592948D02*
Y3612942D01*
X7849965Y4224973D02*
X7839968Y4214976D01*
Y4194982D01*
X7849965Y4184986D01*
X7889952D01*
X7899949Y4194982D01*
Y4214976D01*
X7889952Y4224973D01*
X7839968Y4244966D02*
Y4284953D01*
X7849965D01*
X7889952Y4244966D01*
X7899949D01*
Y4304947D02*
Y4324941D01*
Y4314944D01*
X7839968D01*
X7849965Y4304947D01*
X7219990Y2900001D02*
X7160009D01*
Y2929991D01*
X7170006Y2939988D01*
X7190000D01*
X7199996Y2929991D01*
Y2900001D01*
Y2919994D02*
X7219990Y2939988D01*
Y2959981D02*
Y2979975D01*
Y2969978D01*
X7160009D01*
X7170006Y2959981D01*
X7219990Y3009965D02*
Y3029959D01*
Y3019962D01*
X7160009D01*
X7170006Y3009965D01*
X7219990Y3089939D02*
X7160009D01*
X7190000Y3059949D01*
Y3099936D01*
X7219990Y2680001D02*
X7160009D01*
Y2709991D01*
X7170006Y2719988D01*
X7190000D01*
X7199996Y2709991D01*
Y2680001D01*
Y2699994D02*
X7219990Y2719988D01*
Y2739981D02*
Y2759975D01*
Y2749978D01*
X7160009D01*
X7170006Y2739981D01*
X7219990Y2789965D02*
Y2809959D01*
Y2799962D01*
X7160009D01*
X7170006Y2789965D01*
X7160009Y2879936D02*
Y2839949D01*
X7190000D01*
X7180003Y2859942D01*
Y2869939D01*
X7190000Y2879936D01*
X7209993D01*
X7219990Y2869939D01*
Y2849945D01*
X7209993Y2839949D01*
X7219990Y2410000D02*
X7160009D01*
Y2439991D01*
X7170006Y2449987D01*
X7190000D01*
X7199996Y2439991D01*
Y2410000D01*
Y2429994D02*
X7219990Y2449987D01*
Y2469981D02*
Y2489974D01*
Y2479978D01*
X7160009D01*
X7170006Y2469981D01*
X7219990Y2519964D02*
Y2539958D01*
Y2529961D01*
X7160009D01*
X7170006Y2519964D01*
X7160009Y2609935D02*
X7170006Y2589942D01*
X7190000Y2569948D01*
X7209993D01*
X7219990Y2579945D01*
Y2599938D01*
X7209993Y2609935D01*
X7199996D01*
X7190000Y2599938D01*
Y2569948D01*
X7219990Y2195000D02*
X7160009D01*
Y2224991D01*
X7170006Y2234987D01*
X7190000D01*
X7199996Y2224991D01*
Y2195000D01*
Y2214994D02*
X7219990Y2234987D01*
Y2254981D02*
Y2274975D01*
Y2264978D01*
X7160009D01*
X7170006Y2254981D01*
X7219990Y2304965D02*
Y2324958D01*
Y2314961D01*
X7160009D01*
X7170006Y2304965D01*
X7160009Y2354948D02*
Y2394935D01*
X7170006D01*
X7209993Y2354948D01*
X7219990D01*
Y1930001D02*
X7160009D01*
Y1959992D01*
X7170006Y1969988D01*
X7190000D01*
X7199996Y1959992D01*
Y1930001D01*
Y1949995D02*
X7219990Y1969988D01*
Y1989982D02*
Y2009975D01*
Y1999978D01*
X7160009D01*
X7170006Y1989982D01*
X7219990Y2039965D02*
Y2059959D01*
Y2049962D01*
X7160009D01*
X7170006Y2039965D01*
Y2089949D02*
X7160009Y2099946D01*
Y2119939D01*
X7170006Y2129936D01*
X7180003D01*
X7190000Y2119939D01*
X7199996Y2129936D01*
X7209993D01*
X7219990Y2119939D01*
Y2099946D01*
X7209993Y2089949D01*
X7199996D01*
X7190000Y2099946D01*
X7180003Y2089949D01*
X7170006D01*
X7190000Y2099946D02*
Y2119939D01*
X6270001Y1870010D02*
Y1929990D01*
X6299991D01*
X6309988Y1919993D01*
Y1900000D01*
X6299991Y1890003D01*
X6270001D01*
X6289995D02*
X6309988Y1870010D01*
X6329981D02*
X6349975D01*
X6339978D01*
Y1929990D01*
X6329981Y1919993D01*
X6379965Y1870010D02*
X6399959D01*
X6389962D01*
Y1929990D01*
X6379965Y1919993D01*
X6429949Y1880006D02*
X6439945Y1870010D01*
X6459939D01*
X6469936Y1880006D01*
Y1919993D01*
X6459939Y1929990D01*
X6439945D01*
X6429949Y1919993D01*
Y1909997D01*
X6439945Y1900000D01*
X6469936D01*
X7219990Y1202503D02*
X7160009D01*
Y1232494D01*
X7170006Y1242490D01*
X7190000D01*
X7199996Y1232494D01*
Y1202503D01*
Y1222497D02*
X7219990Y1242490D01*
Y1262484D02*
Y1282477D01*
Y1272481D01*
X7160009D01*
X7170006Y1262484D01*
X7219990Y1352454D02*
Y1312468D01*
X7180003Y1352454D01*
X7170006D01*
X7160009Y1342458D01*
Y1322464D01*
X7170006Y1312468D01*
Y1372448D02*
X7160009Y1382445D01*
Y1402438D01*
X7170006Y1412435D01*
X7209993D01*
X7219990Y1402438D01*
Y1382445D01*
X7209993Y1372448D01*
X7170006D01*
X6277498Y1400010D02*
Y1459990D01*
X6307489D01*
X6317485Y1449994D01*
Y1430000D01*
X6307489Y1420004D01*
X6277498D01*
X6297492D02*
X6317485Y1400010D01*
X6337479D02*
X6357472D01*
X6347475D01*
Y1459990D01*
X6337479Y1449994D01*
X6427449Y1400010D02*
X6387462D01*
X6427449Y1439997D01*
Y1449994D01*
X6417453Y1459990D01*
X6397459D01*
X6387462Y1449994D01*
X6447443Y1400010D02*
X6467437D01*
X6457440D01*
Y1459990D01*
X6447443Y1449994D01*
X6299990Y1095034D02*
X6240010D01*
Y1125024D01*
X6250007Y1135021D01*
X6270000D01*
X6279997Y1125024D01*
Y1095034D01*
Y1115028D02*
X6299990Y1135021D01*
Y1155015D02*
Y1175008D01*
Y1165011D01*
X6240010D01*
X6250007Y1155015D01*
X6299990Y1244985D02*
Y1204998D01*
X6260003Y1244985D01*
X6250007D01*
X6240010Y1234989D01*
Y1214995D01*
X6250007Y1204998D01*
X6299990Y1304966D02*
Y1264979D01*
X6260003Y1304966D01*
X6250007D01*
X6240010Y1294969D01*
Y1274976D01*
X6250007Y1264979D01*
X6262503Y1620010D02*
Y1679990D01*
X6292494D01*
X6302490Y1669993D01*
Y1650000D01*
X6292494Y1640003D01*
X6262503D01*
X6282497D02*
X6302490Y1620010D01*
X6322484D02*
X6342478D01*
X6332481D01*
Y1679990D01*
X6322484Y1669993D01*
X6412455Y1620010D02*
X6372468D01*
X6412455Y1659997D01*
Y1669993D01*
X6402458Y1679990D01*
X6382464D01*
X6372468Y1669993D01*
X6432448D02*
X6442445Y1679990D01*
X6462438D01*
X6472435Y1669993D01*
Y1659997D01*
X6462438Y1650000D01*
X6452442D01*
X6462438D01*
X6472435Y1640003D01*
Y1630006D01*
X6462438Y1620010D01*
X6442445D01*
X6432448Y1630006D01*
X7362490Y4800035D02*
X7352494Y4810032D01*
X7332500D01*
X7322503Y4800035D01*
Y4760048D01*
X7332500Y4750051D01*
X7352494D01*
X7362490Y4760048D01*
X7382484Y4750051D02*
X7402477D01*
X7392481D01*
Y4810032D01*
X7382484Y4800035D01*
X7472454Y4750051D02*
X7432467D01*
X7472454Y4790038D01*
Y4800035D01*
X7462458Y4810032D01*
X7442464D01*
X7432467Y4800035D01*
X7492448Y4760048D02*
X7502445Y4750051D01*
X7522438D01*
X7532435Y4760048D01*
Y4800035D01*
X7522438Y4810032D01*
X7502445D01*
X7492448Y4800035D01*
Y4790038D01*
X7502445Y4780041D01*
X7532435D01*
X7314989Y4526592D02*
Y4476609D01*
X7324986Y4466612D01*
X7344979D01*
X7354976Y4476609D01*
Y4526592D01*
X7374970Y4516595D02*
X7384966Y4526592D01*
X7404960D01*
X7414956Y4516595D01*
Y4506599D01*
X7404960Y4496602D01*
X7394963D01*
X7404960D01*
X7414956Y4486605D01*
Y4476609D01*
X7404960Y4466612D01*
X7384966D01*
X7374970Y4476609D01*
X7434950Y4516595D02*
X7444947Y4526592D01*
X7464940D01*
X7474937Y4516595D01*
Y4476609D01*
X7464940Y4466612D01*
X7444947D01*
X7434950Y4476609D01*
Y4516595D01*
X6302490Y1549952D02*
X6292494Y1559949D01*
X6272500D01*
X6262503Y1549952D01*
Y1509965D01*
X6272500Y1499969D01*
X6292494D01*
X6302490Y1509965D01*
X6322484Y1499969D02*
X6342478D01*
X6332481D01*
Y1559949D01*
X6322484Y1549952D01*
X6372468D02*
X6382464Y1559949D01*
X6402458D01*
X6412455Y1549952D01*
Y1539956D01*
X6402458Y1529959D01*
X6392461D01*
X6402458D01*
X6412455Y1519962D01*
Y1509965D01*
X6402458Y1499969D01*
X6382464D01*
X6372468Y1509965D01*
X6432448Y1549952D02*
X6442445Y1559949D01*
X6462438D01*
X6472435Y1549952D01*
Y1509965D01*
X6462438Y1499969D01*
X6442445D01*
X6432448Y1509965D01*
Y1549952D01*
X7017485Y2530034D02*
X7007488Y2540031D01*
X6987495D01*
X6977498Y2530034D01*
Y2490047D01*
X6987495Y2480051D01*
X7007488D01*
X7017485Y2490047D01*
X7037478Y2480051D02*
X7057472D01*
X7047475D01*
Y2540031D01*
X7037478Y2530034D01*
X7087462D02*
X7097459Y2540031D01*
X7117452D01*
X7127449Y2530034D01*
Y2520038D01*
X7117452Y2510041D01*
X7107456D01*
X7117452D01*
X7127449Y2500044D01*
Y2490047D01*
X7117452Y2480051D01*
X7097459D01*
X7087462Y2490047D01*
X7147443Y2480051D02*
X7167436D01*
X7157439D01*
Y2540031D01*
X7147443Y2530034D01*
X2659965Y1852490D02*
X2649968Y1842493D01*
Y1822500D01*
X2659965Y1812503D01*
X2699952D01*
X2709949Y1822500D01*
Y1842493D01*
X2699952Y1852490D01*
X2709949Y1872484D02*
Y1892477D01*
Y1882480D01*
X2649968D01*
X2659965Y1872484D01*
Y1922467D02*
X2649968Y1932464D01*
Y1952458D01*
X2659965Y1962454D01*
X2669962D01*
X2679958Y1952458D01*
Y1942461D01*
Y1952458D01*
X2689955Y1962454D01*
X2699952D01*
X2709949Y1952458D01*
Y1932464D01*
X2699952Y1922467D01*
X2709949Y2022435D02*
Y1982448D01*
X2669962Y2022435D01*
X2659965D01*
X2649968Y2012438D01*
Y1992445D01*
X2659965Y1982448D01*
X6232490Y2140035D02*
X6222494Y2150032D01*
X6202500D01*
X6192503Y2140035D01*
Y2100048D01*
X6202500Y2090051D01*
X6222494D01*
X6232490Y2100048D01*
X6252484Y2090051D02*
X6272477D01*
X6262480D01*
Y2150032D01*
X6252484Y2140035D01*
X6302467D02*
X6312464Y2150032D01*
X6332458D01*
X6342454Y2140035D01*
Y2130038D01*
X6332458Y2120041D01*
X6322461D01*
X6332458D01*
X6342454Y2110045D01*
Y2100048D01*
X6332458Y2090051D01*
X6312464D01*
X6302467Y2100048D01*
X6392438Y2090051D02*
Y2150032D01*
X6362448Y2120041D01*
X6402435D01*
X7002490Y1540035D02*
X6992493Y1550032D01*
X6972499D01*
X6962503Y1540035D01*
Y1500048D01*
X6972499Y1490051D01*
X6992493D01*
X7002490Y1500048D01*
X7022483Y1490051D02*
X7042477D01*
X7032480D01*
Y1550032D01*
X7022483Y1540035D01*
X7072467D02*
X7082464Y1550032D01*
X7102457D01*
X7112454Y1540035D01*
Y1530038D01*
X7102457Y1520041D01*
X7092461D01*
X7102457D01*
X7112454Y1510045D01*
Y1500048D01*
X7102457Y1490051D01*
X7082464D01*
X7072467Y1500048D01*
X7172434Y1550032D02*
X7132448D01*
Y1520041D01*
X7152441Y1530038D01*
X7162438D01*
X7172434Y1520041D01*
Y1500048D01*
X7162438Y1490051D01*
X7142444D01*
X7132448Y1500048D01*
X6930048Y4712490D02*
X6920051Y4702493D01*
Y4682500D01*
X6930048Y4672503D01*
X6970035D01*
X6980032Y4682500D01*
Y4702493D01*
X6970035Y4712490D01*
X6980032Y4732484D02*
Y4752477D01*
Y4742480D01*
X6920051D01*
X6930048Y4732484D01*
Y4782467D02*
X6920051Y4792464D01*
Y4812457D01*
X6930048Y4822454D01*
X6940045D01*
X6950041Y4812457D01*
Y4802461D01*
Y4812457D01*
X6960038Y4822454D01*
X6970035D01*
X6980032Y4812457D01*
Y4792464D01*
X6970035Y4782467D01*
X6920051Y4882435D02*
X6930048Y4862441D01*
X6950041Y4842448D01*
X6970035D01*
X6980032Y4852444D01*
Y4872438D01*
X6970035Y4882435D01*
X6960038D01*
X6950041Y4872438D01*
Y4842448D01*
X5849991Y1300010D02*
Y1359990D01*
X5879981D01*
X5889978Y1349993D01*
Y1330000D01*
X5879981Y1320003D01*
X5849991D01*
X5869985D02*
X5889978Y1300010D01*
X5909972Y1359990D02*
X5949959D01*
Y1349993D01*
X5909972Y1310007D01*
Y1300010D01*
X5969952Y1310007D02*
X5979949Y1300010D01*
X5999943D01*
X6009939Y1310007D01*
Y1349993D01*
X5999943Y1359990D01*
X5979949D01*
X5969952Y1349993D01*
Y1339997D01*
X5979949Y1330000D01*
X6009939D01*
X7000026Y1140010D02*
Y1199990D01*
X7030016D01*
X7040013Y1189993D01*
Y1170000D01*
X7030016Y1160003D01*
X7000026D01*
X7020020D02*
X7040013Y1140010D01*
X7060007Y1189993D02*
X7070003Y1199990D01*
X7089997D01*
X7099994Y1189993D01*
Y1179997D01*
X7089997Y1170000D01*
X7099994Y1160003D01*
Y1150006D01*
X7089997Y1140010D01*
X7070003D01*
X7060007Y1150006D01*
Y1160003D01*
X7070003Y1170000D01*
X7060007Y1179997D01*
Y1189993D01*
X7070003Y1170000D02*
X7089997D01*
X7119987Y1189993D02*
X7129984Y1199990D01*
X7149978D01*
X7159974Y1189993D01*
Y1150006D01*
X7149978Y1140010D01*
X7129984D01*
X7119987Y1150006D01*
Y1189993D01*
X5849991Y1640010D02*
Y1699991D01*
X5879981D01*
X5889978Y1689994D01*
Y1670000D01*
X5879981Y1660004D01*
X5849991D01*
X5869985D02*
X5889978Y1640010D01*
X5909972Y1689994D02*
X5919968Y1699991D01*
X5939962D01*
X5949959Y1689994D01*
Y1679997D01*
X5939962Y1670000D01*
X5949959Y1660004D01*
Y1650007D01*
X5939962Y1640010D01*
X5919968D01*
X5909972Y1650007D01*
Y1660004D01*
X5919968Y1670000D01*
X5909972Y1679997D01*
Y1689994D01*
X5919968Y1670000D02*
X5939962D01*
X6009939Y1640010D02*
X5969952D01*
X6009939Y1679997D01*
Y1689994D01*
X5999943Y1699991D01*
X5979949D01*
X5969952Y1689994D01*
X6129991Y2290010D02*
Y2349990D01*
X6159981D01*
X6169978Y2339993D01*
Y2320000D01*
X6159981Y2310003D01*
X6129991D01*
X6149984D02*
X6169978Y2290010D01*
X6189971Y2339993D02*
X6199968Y2349990D01*
X6219962D01*
X6229958Y2339993D01*
Y2329997D01*
X6219962Y2320000D01*
X6229958Y2310003D01*
Y2300006D01*
X6219962Y2290010D01*
X6199968D01*
X6189971Y2300006D01*
Y2310003D01*
X6199968Y2320000D01*
X6189971Y2329997D01*
Y2339993D01*
X6199968Y2320000D02*
X6219962D01*
X6249952Y2339993D02*
X6259949Y2349990D01*
X6279942D01*
X6289939Y2339993D01*
Y2329997D01*
X6279942Y2320000D01*
X6269946D01*
X6279942D01*
X6289939Y2310003D01*
Y2300006D01*
X6279942Y2290010D01*
X6259949D01*
X6249952Y2300006D01*
X6179990Y4672503D02*
X6120009D01*
Y4702493D01*
X6130006Y4712490D01*
X6150000D01*
X6159996Y4702493D01*
Y4672503D01*
Y4692497D02*
X6179990Y4712490D01*
Y4732484D02*
Y4752477D01*
Y4742480D01*
X6120009D01*
X6130006Y4732484D01*
X6179990Y4822454D02*
Y4782467D01*
X6140003Y4822454D01*
X6130006D01*
X6120009Y4812457D01*
Y4792464D01*
X6130006Y4782467D01*
X6179990Y4872438D02*
X6120009D01*
X6150000Y4842448D01*
Y4882435D01*
X6279990Y4672503D02*
X6220010D01*
Y4702493D01*
X6230007Y4712490D01*
X6250000D01*
X6259997Y4702493D01*
Y4672503D01*
Y4692497D02*
X6279990Y4712490D01*
Y4732484D02*
Y4752477D01*
Y4742480D01*
X6220010D01*
X6230007Y4732484D01*
X6279990Y4822454D02*
Y4782467D01*
X6240003Y4822454D01*
X6230007D01*
X6220010Y4812457D01*
Y4792464D01*
X6230007Y4782467D01*
X6220010Y4882435D02*
Y4842448D01*
X6250000D01*
X6240003Y4862441D01*
Y4872438D01*
X6250000Y4882435D01*
X6269994D01*
X6279990Y4872438D01*
Y4852444D01*
X6269994Y4842448D01*
X6379990Y4672503D02*
X6320009D01*
Y4702493D01*
X6330006Y4712490D01*
X6350000D01*
X6359996Y4702493D01*
Y4672503D01*
Y4692497D02*
X6379990Y4712490D01*
Y4732484D02*
Y4752477D01*
Y4742480D01*
X6320009D01*
X6330006Y4732484D01*
X6379990Y4822454D02*
Y4782467D01*
X6340003Y4822454D01*
X6330006D01*
X6320009Y4812457D01*
Y4792464D01*
X6330006Y4782467D01*
X6320009Y4882435D02*
X6330006Y4862441D01*
X6350000Y4842448D01*
X6369993D01*
X6379990Y4852444D01*
Y4872438D01*
X6369993Y4882435D01*
X6359996D01*
X6350000Y4872438D01*
Y4842448D01*
X6499990Y4672503D02*
X6440010D01*
Y4702493D01*
X6450007Y4712490D01*
X6470000D01*
X6479997Y4702493D01*
Y4672503D01*
Y4692497D02*
X6499990Y4712490D01*
Y4732484D02*
Y4752477D01*
Y4742480D01*
X6440010D01*
X6450007Y4732484D01*
X6499990Y4822454D02*
Y4782467D01*
X6460003Y4822454D01*
X6450007D01*
X6440010Y4812457D01*
Y4792464D01*
X6450007Y4782467D01*
X6440010Y4842448D02*
Y4882435D01*
X6450007D01*
X6489994Y4842448D01*
X6499990D01*
X6834986Y4436592D02*
Y4386608D01*
X6844983Y4376611D01*
X6864976D01*
X6874973Y4386608D01*
Y4436592D01*
X6894967Y4426595D02*
X6904963Y4436592D01*
X6924957D01*
X6934954Y4426595D01*
Y4416598D01*
X6924957Y4406602D01*
X6914960D01*
X6924957D01*
X6934954Y4396605D01*
Y4386608D01*
X6924957Y4376611D01*
X6904963D01*
X6894967Y4386608D01*
X6954947Y4376611D02*
X6974941D01*
X6964944D01*
Y4436592D01*
X6954947Y4426595D01*
X7240675Y3893652D02*
Y3843668D01*
X7250672Y3833671D01*
X7270665D01*
X7280662Y3843668D01*
Y3893652D01*
X7300655Y3883655D02*
X7310652Y3893652D01*
X7330646D01*
X7340642Y3883655D01*
Y3873658D01*
X7330646Y3863661D01*
X7320649D01*
X7330646D01*
X7340642Y3853665D01*
Y3843668D01*
X7330646Y3833671D01*
X7310652D01*
X7300655Y3843668D01*
X7360636Y3883655D02*
X7370633Y3893652D01*
X7390626D01*
X7400623Y3883655D01*
Y3873658D01*
X7390626Y3863661D01*
X7380630D01*
X7390626D01*
X7400623Y3853665D01*
Y3843668D01*
X7390626Y3833671D01*
X7370633D01*
X7360636Y3843668D01*
X6840675Y3893652D02*
Y3843668D01*
X6850672Y3833672D01*
X6870665D01*
X6880662Y3843668D01*
Y3893652D01*
X6900655Y3883655D02*
X6910652Y3893652D01*
X6930646D01*
X6940642Y3883655D01*
Y3873658D01*
X6930646Y3863662D01*
X6920649D01*
X6930646D01*
X6940642Y3853665D01*
Y3843668D01*
X6930646Y3833672D01*
X6910652D01*
X6900655Y3843668D01*
X7000623Y3893652D02*
X6960636D01*
Y3863662D01*
X6980630Y3873658D01*
X6990626D01*
X7000623Y3863662D01*
Y3843668D01*
X6990626Y3833672D01*
X6970633D01*
X6960636Y3843668D01*
X5440016Y3420010D02*
Y3479990D01*
X5460010Y3459997D01*
X5480003Y3479990D01*
Y3420010D01*
X5539984D02*
X5499997D01*
X5539984Y3459997D01*
Y3469993D01*
X5529987Y3479990D01*
X5509994D01*
X5499997Y3469993D01*
X8317490Y2600034D02*
X8307494Y2610031D01*
X8287500D01*
X8277503Y2600034D01*
Y2560047D01*
X8287500Y2550051D01*
X8307494D01*
X8317490Y2560047D01*
X8337484Y2550051D02*
X8357478D01*
X8347481D01*
Y2610031D01*
X8337484Y2600034D01*
X8427455Y2550051D02*
X8387468D01*
X8427455Y2590038D01*
Y2600034D01*
X8417458Y2610031D01*
X8397464D01*
X8387468Y2600034D01*
X8447448D02*
X8457445Y2610031D01*
X8477438D01*
X8487435Y2600034D01*
Y2560047D01*
X8477438Y2550051D01*
X8457445D01*
X8447448Y2560047D01*
Y2600034D01*
X7910048Y3137485D02*
X7900051Y3127488D01*
Y3107495D01*
X7910048Y3097498D01*
X7950035D01*
X7960031Y3107495D01*
Y3127488D01*
X7950035Y3137485D01*
X7960031Y3157479D02*
Y3177472D01*
Y3167475D01*
X7900051D01*
X7910048Y3157479D01*
X7960031Y3247449D02*
Y3207462D01*
X7920044Y3247449D01*
X7910048D01*
X7900051Y3237453D01*
Y3217459D01*
X7910048Y3207462D01*
X7960031Y3267443D02*
Y3287436D01*
Y3277439D01*
X7900051D01*
X7910048Y3267443D01*
X3359990Y4699990D02*
X3300009D01*
Y4729981D01*
X3310006Y4739977D01*
X3330000D01*
X3339996Y4729981D01*
Y4699990D01*
Y4719984D02*
X3359990Y4739977D01*
X3349993Y4759971D02*
X3359990Y4769968D01*
Y4789961D01*
X3349993Y4799958D01*
X3310006D01*
X3300009Y4789961D01*
Y4769968D01*
X3310006Y4759971D01*
X3320003D01*
X3330000Y4769968D01*
Y4799958D01*
X3310006Y4819951D02*
X3300009Y4829948D01*
Y4849942D01*
X3310006Y4859938D01*
X3320003D01*
X3330000Y4849942D01*
Y4839945D01*
Y4849942D01*
X3339996Y4859938D01*
X3349993D01*
X3359990Y4849942D01*
Y4829948D01*
X3349993Y4819951D01*
X6302490Y1050034D02*
X6292494Y1060031D01*
X6272500D01*
X6262503Y1050034D01*
Y1010048D01*
X6272500Y1000051D01*
X6292494D01*
X6302490Y1010048D01*
X6322484Y1000051D02*
X6342478D01*
X6332481D01*
Y1060031D01*
X6322484Y1050034D01*
X6372468D02*
X6382464Y1060031D01*
X6402458D01*
X6412455Y1050034D01*
Y1040038D01*
X6402458Y1030041D01*
X6392461D01*
X6402458D01*
X6412455Y1020044D01*
Y1010048D01*
X6402458Y1000051D01*
X6382464D01*
X6372468Y1010048D01*
X6432448Y1060031D02*
X6472435D01*
Y1050034D01*
X6432448Y1010048D01*
Y1000051D01*
X5852490Y1250035D02*
X5842494Y1260032D01*
X5822500D01*
X5812503Y1250035D01*
Y1210048D01*
X5822500Y1200051D01*
X5842494D01*
X5852490Y1210048D01*
X5872484Y1200051D02*
X5892477D01*
X5882480D01*
Y1260032D01*
X5872484Y1250035D01*
X5922467D02*
X5932464Y1260032D01*
X5952458D01*
X5962454Y1250035D01*
Y1240038D01*
X5952458Y1230041D01*
X5942461D01*
X5952458D01*
X5962454Y1220045D01*
Y1210048D01*
X5952458Y1200051D01*
X5932464D01*
X5922467Y1210048D01*
X5982448Y1250035D02*
X5992445Y1260032D01*
X6012438D01*
X6022435Y1250035D01*
Y1240038D01*
X6012438Y1230041D01*
X6022435Y1220045D01*
Y1210048D01*
X6012438Y1200051D01*
X5992445D01*
X5982448Y1210048D01*
Y1220045D01*
X5992445Y1230041D01*
X5982448Y1240038D01*
Y1250035D01*
X5992445Y1230041D02*
X6012438D01*
X5852490Y1140035D02*
X5842494Y1150031D01*
X5822500D01*
X5812503Y1140035D01*
Y1100048D01*
X5822500Y1090051D01*
X5842494D01*
X5852490Y1100048D01*
X5872484Y1090051D02*
X5892477D01*
X5882480D01*
Y1150031D01*
X5872484Y1140035D01*
X5922467D02*
X5932464Y1150031D01*
X5952458D01*
X5962454Y1140035D01*
Y1130038D01*
X5952458Y1120041D01*
X5942461D01*
X5952458D01*
X5962454Y1110045D01*
Y1100048D01*
X5952458Y1090051D01*
X5932464D01*
X5922467Y1100048D01*
X5982448D02*
X5992445Y1090051D01*
X6012438D01*
X6022435Y1100048D01*
Y1140035D01*
X6012438Y1150031D01*
X5992445D01*
X5982448Y1140035D01*
Y1130038D01*
X5992445Y1120041D01*
X6022435D01*
X3822490Y2720034D02*
X3812494Y2730031D01*
X3792500D01*
X3782503Y2720034D01*
Y2680047D01*
X3792500Y2670051D01*
X3812494D01*
X3822490Y2680047D01*
X3842484Y2670051D02*
X3862477D01*
X3852480D01*
Y2730031D01*
X3842484Y2720034D01*
X3922458Y2670051D02*
Y2730031D01*
X3892467Y2700041D01*
X3932454D01*
X3952448Y2720034D02*
X3962445Y2730031D01*
X3982438D01*
X3992435Y2720034D01*
Y2680047D01*
X3982438Y2670051D01*
X3962445D01*
X3952448Y2680047D01*
Y2720034D01*
X1392163Y1380009D02*
Y1439990D01*
X1422154D01*
X1432150Y1429993D01*
Y1410000D01*
X1422154Y1400003D01*
X1392163D01*
X1452144Y1429993D02*
X1462141Y1439990D01*
X1482134D01*
X1492131Y1429993D01*
Y1419996D01*
X1482134Y1410000D01*
X1472138D01*
X1482134D01*
X1492131Y1400003D01*
Y1390006D01*
X1482134Y1380009D01*
X1462141D01*
X1452144Y1390006D01*
X1922503Y1430010D02*
Y1489990D01*
X1952494D01*
X1962490Y1479993D01*
Y1460000D01*
X1952494Y1450003D01*
X1922503D01*
X1942497D02*
X1962490Y1430010D01*
X1982484D02*
X2002478D01*
X1992481D01*
Y1489990D01*
X1982484Y1479993D01*
X2032468D02*
X2042464Y1489990D01*
X2062458D01*
X2072455Y1479993D01*
Y1440006D01*
X2062458Y1430010D01*
X2042464D01*
X2032468Y1440006D01*
Y1479993D01*
X2092448Y1489990D02*
X2132435D01*
Y1479993D01*
X2092448Y1440006D01*
Y1430010D01*
X1959991Y1330010D02*
Y1389990D01*
X1989981D01*
X1999978Y1379993D01*
Y1360000D01*
X1989981Y1350003D01*
X1959991D01*
X1979985D02*
X1999978Y1330010D01*
X2059959D02*
X2019972D01*
X2059959Y1369997D01*
Y1379993D01*
X2049962Y1389990D01*
X2029968D01*
X2019972Y1379993D01*
X2119939Y1389990D02*
X2079952D01*
Y1360000D01*
X2099946Y1369997D01*
X2109942D01*
X2119939Y1360000D01*
Y1340006D01*
X2109942Y1330010D01*
X2089949D01*
X2079952Y1340006D01*
X4992490Y4360034D02*
X4982493Y4370031D01*
X4962500D01*
X4952503Y4360034D01*
Y4320047D01*
X4962500Y4310051D01*
X4982493D01*
X4992490Y4320047D01*
X5012484Y4310051D02*
X5032477D01*
X5022480D01*
Y4370031D01*
X5012484Y4360034D01*
X5062467D02*
X5072464Y4370031D01*
X5092458D01*
X5102454Y4360034D01*
Y4350038D01*
X5092458Y4340041D01*
X5082461D01*
X5092458D01*
X5102454Y4330044D01*
Y4320047D01*
X5092458Y4310051D01*
X5072464D01*
X5062467Y4320047D01*
X5122448Y4360034D02*
X5132445Y4370031D01*
X5152438D01*
X5162435Y4360034D01*
Y4350038D01*
X5152438Y4340041D01*
X5142442D01*
X5152438D01*
X5162435Y4330044D01*
Y4320047D01*
X5152438Y4310051D01*
X5132445D01*
X5122448Y4320047D01*
X5369965Y3477485D02*
X5359968Y3467489D01*
Y3447495D01*
X5369965Y3437498D01*
X5409952D01*
X5419949Y3447495D01*
Y3467489D01*
X5409952Y3477485D01*
X5419949Y3497479D02*
Y3517473D01*
Y3507476D01*
X5359968D01*
X5369965Y3497479D01*
X5419949Y3577453D02*
X5359968D01*
X5389959Y3547463D01*
Y3587450D01*
X5419949Y3607443D02*
Y3627437D01*
Y3617440D01*
X5359968D01*
X5369965Y3607443D01*
X3942490Y3799952D02*
X3932494Y3809949D01*
X3912500D01*
X3902503Y3799952D01*
Y3759965D01*
X3912500Y3749968D01*
X3932494D01*
X3942490Y3759965D01*
X3962484Y3749968D02*
X3982477D01*
X3972480D01*
Y3809949D01*
X3962484Y3799952D01*
X4042458Y3749968D02*
Y3809949D01*
X4012467Y3779959D01*
X4052454D01*
X4112435Y3749968D02*
X4072448D01*
X4112435Y3789955D01*
Y3799952D01*
X4102438Y3809949D01*
X4082445D01*
X4072448Y3799952D01*
X2760048Y4272490D02*
X2750051Y4262493D01*
Y4242500D01*
X2760048Y4232503D01*
X2800035D01*
X2810031Y4242500D01*
Y4262493D01*
X2800035Y4272490D01*
X2810031Y4292483D02*
Y4312477D01*
Y4302480D01*
X2750051D01*
X2760048Y4292483D01*
X2810031Y4372457D02*
X2750051D01*
X2780041Y4342467D01*
Y4382454D01*
X2760048Y4402448D02*
X2750051Y4412444D01*
Y4432438D01*
X2760048Y4442435D01*
X2770044D01*
X2780041Y4432438D01*
Y4422441D01*
Y4432438D01*
X2790038Y4442435D01*
X2800035D01*
X2810031Y4432438D01*
Y4412444D01*
X2800035Y4402448D01*
X4510006Y1085021D02*
X4500010Y1075024D01*
Y1055031D01*
X4510006Y1045034D01*
X4549993D01*
X4559990Y1055031D01*
Y1075024D01*
X4549993Y1085021D01*
X4559990Y1105015D02*
Y1125008D01*
Y1115011D01*
X4500010D01*
X4510006Y1105015D01*
X4559990Y1184988D02*
X4500010D01*
X4530000Y1154998D01*
Y1194985D01*
X4500010Y1254966D02*
Y1214979D01*
X4530000D01*
X4520003Y1234972D01*
Y1244969D01*
X4530000Y1254966D01*
X4549993D01*
X4559990Y1244969D01*
Y1224975D01*
X4549993Y1214979D01*
X4290006Y1535021D02*
X4280009Y1525024D01*
Y1505031D01*
X4290006Y1495034D01*
X4329993D01*
X4339990Y1505031D01*
Y1525024D01*
X4329993Y1535021D01*
X4339990Y1555015D02*
Y1575008D01*
Y1565011D01*
X4280009D01*
X4290006Y1555015D01*
X4339990Y1634989D02*
X4280009D01*
X4310000Y1604998D01*
Y1644985D01*
X4280009Y1704966D02*
X4290006Y1684972D01*
X4310000Y1664979D01*
X4329993D01*
X4339990Y1674976D01*
Y1694969D01*
X4329993Y1704966D01*
X4319996D01*
X4310000Y1694969D01*
Y1664979D01*
X5749965Y4052490D02*
X5739968Y4042493D01*
Y4022499D01*
X5749965Y4012503D01*
X5789952D01*
X5799949Y4022499D01*
Y4042493D01*
X5789952Y4052490D01*
X5799949Y4072483D02*
Y4092477D01*
Y4082480D01*
X5739968D01*
X5749965Y4072483D01*
X5799949Y4152457D02*
X5739968D01*
X5769958Y4122467D01*
Y4162454D01*
X5739968Y4182448D02*
Y4222435D01*
X5749965D01*
X5789952Y4182448D01*
X5799949D01*
X6309965Y4272490D02*
X6299968Y4262493D01*
Y4242500D01*
X6309965Y4232503D01*
X6349952D01*
X6359949Y4242500D01*
Y4262493D01*
X6349952Y4272490D01*
X6359949Y4292483D02*
Y4312477D01*
Y4302480D01*
X6299968D01*
X6309965Y4292483D01*
X6359949Y4372457D02*
X6299968D01*
X6329958Y4342467D01*
Y4382454D01*
X6309965Y4402448D02*
X6299968Y4412444D01*
Y4432438D01*
X6309965Y4442435D01*
X6319962D01*
X6329958Y4432438D01*
X6339955Y4442435D01*
X6349952D01*
X6359949Y4432438D01*
Y4412444D01*
X6349952Y4402448D01*
X6339955D01*
X6329958Y4412444D01*
X6319962Y4402448D01*
X6309965D01*
X6329958Y4412444D02*
Y4432438D01*
X5750048Y4272490D02*
X5740051Y4262493D01*
Y4242500D01*
X5750048Y4232503D01*
X5790035D01*
X5800031Y4242500D01*
Y4262493D01*
X5790035Y4272490D01*
X5800031Y4292483D02*
Y4312477D01*
Y4302480D01*
X5740051D01*
X5750048Y4292483D01*
X5800031Y4372457D02*
X5740051D01*
X5770041Y4342467D01*
Y4382454D01*
X5790035Y4402448D02*
X5800031Y4412444D01*
Y4432438D01*
X5790035Y4442435D01*
X5750048D01*
X5740051Y4432438D01*
Y4412444D01*
X5750048Y4402448D01*
X5760044D01*
X5770041Y4412444D01*
Y4442435D01*
X2445667Y4229801D02*
Y4289781D01*
X2485654Y4229801D01*
Y4289781D01*
X2505648D02*
X2545635D01*
X2525642D01*
Y4229801D01*
X2565629D02*
X2585622D01*
X2575625D01*
Y4289781D01*
X2565629Y4279784D01*
X8410026Y5150010D02*
Y5209990D01*
X8450013Y5150010D01*
Y5209990D01*
X8470007D02*
X8509994D01*
X8490000D01*
Y5150010D01*
X8569974D02*
X8529987D01*
X8569974Y5189997D01*
Y5199993D01*
X8559978Y5209990D01*
X8539984D01*
X8529987Y5199993D01*
X8559990Y2370026D02*
X8500009D01*
X8559990Y2410013D01*
X8500009D01*
Y2430006D02*
Y2469993D01*
Y2450000D01*
X8559990D01*
X8510006Y2489987D02*
X8500009Y2499984D01*
Y2519977D01*
X8510006Y2529974D01*
X8520003D01*
X8530000Y2519977D01*
Y2509981D01*
Y2519977D01*
X8539996Y2529974D01*
X8549993D01*
X8559990Y2519977D01*
Y2499984D01*
X8549993Y2489987D01*
X5999990Y4232503D02*
X5940010D01*
Y4262493D01*
X5950007Y4272490D01*
X5970000D01*
X5979997Y4262493D01*
Y4232503D01*
Y4252496D02*
X5999990Y4272490D01*
Y4292483D02*
Y4312477D01*
Y4302480D01*
X5940010D01*
X5950007Y4292483D01*
X5999990Y4382454D02*
Y4342467D01*
X5960003Y4382454D01*
X5950007D01*
X5940010Y4372457D01*
Y4352464D01*
X5950007Y4342467D01*
Y4402448D02*
X5940010Y4412444D01*
Y4432438D01*
X5950007Y4442435D01*
X5960003D01*
X5970000Y4432438D01*
X5979997Y4442435D01*
X5989994D01*
X5999990Y4432438D01*
Y4412444D01*
X5989994Y4402448D01*
X5979997D01*
X5970000Y4412444D01*
X5960003Y4402448D01*
X5950007D01*
X5970000Y4412444D02*
Y4432438D01*
X6092503Y4210010D02*
Y4269990D01*
X6122493D01*
X6132490Y4259993D01*
Y4240000D01*
X6122493Y4230003D01*
X6092503D01*
X6112497D02*
X6132490Y4210010D01*
X6152484D02*
X6172477D01*
X6162480D01*
Y4269990D01*
X6152484Y4259993D01*
X6242454Y4210010D02*
X6202467D01*
X6242454Y4249997D01*
Y4259993D01*
X6232458Y4269990D01*
X6212464D01*
X6202467Y4259993D01*
X6262448Y4220006D02*
X6272445Y4210010D01*
X6292438D01*
X6302435Y4220006D01*
Y4259993D01*
X6292438Y4269990D01*
X6272445D01*
X6262448Y4259993D01*
Y4249997D01*
X6272445Y4240000D01*
X6302435D01*
X5899990Y4232503D02*
X5840010D01*
Y4262493D01*
X5850007Y4272490D01*
X5870000D01*
X5879997Y4262493D01*
Y4232503D01*
Y4252496D02*
X5899990Y4272490D01*
Y4292483D02*
Y4312477D01*
Y4302480D01*
X5840010D01*
X5850007Y4292483D01*
Y4342467D02*
X5840010Y4352464D01*
Y4372457D01*
X5850007Y4382454D01*
X5860003D01*
X5870000Y4372457D01*
Y4362461D01*
Y4372457D01*
X5879997Y4382454D01*
X5889994D01*
X5899990Y4372457D01*
Y4352464D01*
X5889994Y4342467D01*
X5850007Y4402448D02*
X5840010Y4412444D01*
Y4432438D01*
X5850007Y4442435D01*
X5889994D01*
X5899990Y4432438D01*
Y4412444D01*
X5889994Y4402448D01*
X5850007D01*
X5679657Y3597491D02*
X5729641D01*
X5739637Y3607487D01*
Y3627481D01*
X5729641Y3637478D01*
X5679657D01*
X5689654Y3657471D02*
X5679657Y3667468D01*
Y3687462D01*
X5689654Y3697458D01*
X5699650D01*
X5709647Y3687462D01*
Y3677465D01*
Y3687462D01*
X5719644Y3697458D01*
X5729641D01*
X5739637Y3687462D01*
Y3667468D01*
X5729641Y3657471D01*
X5739637Y3757439D02*
Y3717452D01*
X5699650Y3757439D01*
X5689654D01*
X5679657Y3747442D01*
Y3727448D01*
X5689654Y3717452D01*
X3210006Y3222490D02*
X3200009Y3212493D01*
Y3192500D01*
X3210006Y3182503D01*
X3249993D01*
X3259990Y3192500D01*
Y3212493D01*
X3249993Y3222490D01*
X3259990Y3242483D02*
Y3262477D01*
Y3252480D01*
X3200009D01*
X3210006Y3242483D01*
X3200009Y3332454D02*
Y3292467D01*
X3230000D01*
X3220003Y3312461D01*
Y3322457D01*
X3230000Y3332454D01*
X3249993D01*
X3259990Y3322457D01*
Y3302464D01*
X3249993Y3292467D01*
X3210006Y3352448D02*
X3200009Y3362444D01*
Y3382438D01*
X3210006Y3392435D01*
X3220003D01*
X3230000Y3382438D01*
Y3372441D01*
Y3382438D01*
X3239996Y3392435D01*
X3249993D01*
X3259990Y3382438D01*
Y3362444D01*
X3249993Y3352448D01*
X3200006Y1192490D02*
X3190009Y1182493D01*
Y1162500D01*
X3200006Y1152503D01*
X3239993D01*
X3249990Y1162500D01*
Y1182493D01*
X3239993Y1192490D01*
X3249990Y1212483D02*
Y1232477D01*
Y1222480D01*
X3190009D01*
X3200006Y1212483D01*
X3190009Y1302454D02*
Y1262467D01*
X3220000D01*
X3210003Y1282461D01*
Y1292457D01*
X3220000Y1302454D01*
X3239993D01*
X3249990Y1292457D01*
Y1272464D01*
X3239993Y1262467D01*
X3249990Y1352438D02*
X3190009D01*
X3220000Y1322448D01*
Y1362435D01*
X4130048Y1419978D02*
X4120051Y1409981D01*
Y1389988D01*
X4130048Y1379991D01*
X4170035D01*
X4180032Y1389988D01*
Y1409981D01*
X4170035Y1419978D01*
Y1439971D02*
X4180032Y1449968D01*
Y1469962D01*
X4170035Y1479958D01*
X4130048D01*
X4120051Y1469962D01*
Y1449968D01*
X4130048Y1439971D01*
X4140045D01*
X4150041Y1449968D01*
Y1479958D01*
X4130048Y1499952D02*
X4120051Y1509949D01*
Y1529942D01*
X4130048Y1539939D01*
X4140045D01*
X4150041Y1529942D01*
X4160038Y1539939D01*
X4170035D01*
X4180032Y1529942D01*
Y1509949D01*
X4170035Y1499952D01*
X4160038D01*
X4150041Y1509949D01*
X4140045Y1499952D01*
X4130048D01*
X4150041Y1509949D02*
Y1529942D01*
X2859978Y3390035D02*
X2849981Y3400032D01*
X2829987D01*
X2819991Y3390035D01*
Y3350048D01*
X2829987Y3340051D01*
X2849981D01*
X2859978Y3350048D01*
X2879971D02*
X2889968Y3340051D01*
X2909962D01*
X2919958Y3350048D01*
Y3390035D01*
X2909962Y3400032D01*
X2889968D01*
X2879971Y3390035D01*
Y3380038D01*
X2889968Y3370041D01*
X2919958D01*
X2939952Y3350048D02*
X2949949Y3340051D01*
X2969942D01*
X2979939Y3350048D01*
Y3390035D01*
X2969942Y3400032D01*
X2949949D01*
X2939952Y3390035D01*
Y3380038D01*
X2949949Y3370041D01*
X2979939D01*
X5160016Y2954990D02*
Y2905006D01*
X5170013Y2895010D01*
X5190007D01*
X5200003Y2905006D01*
Y2954990D01*
X5249987Y2895010D02*
Y2954990D01*
X5219997Y2925000D01*
X5259984D01*
X7490520Y2839992D02*
Y2790008D01*
X7500517Y2780011D01*
X7520510D01*
X7530507Y2790008D01*
Y2839992D01*
X7550501Y2829995D02*
X7560497Y2839992D01*
X7580491D01*
X7590488Y2829995D01*
Y2819998D01*
X7580491Y2810001D01*
X7570494D01*
X7580491D01*
X7590488Y2800005D01*
Y2790008D01*
X7580491Y2780011D01*
X7560497D01*
X7550501Y2790008D01*
X7650468Y2839992D02*
X7630475Y2829995D01*
X7610481Y2810001D01*
Y2790008D01*
X7620478Y2780011D01*
X7640472D01*
X7650468Y2790008D01*
Y2800005D01*
X7640472Y2810001D01*
X7610481D01*
X7695515Y829991D02*
Y780007D01*
X7705512Y770011D01*
X7725506D01*
X7735502Y780007D01*
Y829991D01*
X7785486Y770011D02*
Y829991D01*
X7755496Y800001D01*
X7795483D01*
X7815476Y770011D02*
X7835470D01*
X7825473D01*
Y829991D01*
X7815476Y819994D01*
X7490520Y1379992D02*
Y1330008D01*
X7500517Y1320011D01*
X7520510D01*
X7530507Y1330008D01*
Y1379992D01*
X7550501Y1369995D02*
X7560497Y1379992D01*
X7580491D01*
X7590487Y1369995D01*
Y1359998D01*
X7580491Y1350002D01*
X7570494D01*
X7580491D01*
X7590487Y1340005D01*
Y1330008D01*
X7580491Y1320011D01*
X7560497D01*
X7550501Y1330008D01*
X7640471Y1320011D02*
Y1379992D01*
X7610481Y1350002D01*
X7650468D01*
X7490520Y2369991D02*
Y2320008D01*
X7500517Y2310011D01*
X7520510D01*
X7530507Y2320008D01*
Y2369991D01*
X7550501Y2359995D02*
X7560497Y2369991D01*
X7580491D01*
X7590488Y2359995D01*
Y2349998D01*
X7580491Y2340001D01*
X7570494D01*
X7580491D01*
X7590488Y2330004D01*
Y2320008D01*
X7580491Y2310011D01*
X7560497D01*
X7550501Y2320008D01*
X7610481Y2359995D02*
X7620478Y2369991D01*
X7640472D01*
X7650468Y2359995D01*
Y2349998D01*
X7640472Y2340001D01*
X7650468Y2330004D01*
Y2320008D01*
X7640472Y2310011D01*
X7620478D01*
X7610481Y2320008D01*
Y2330004D01*
X7620478Y2340001D01*
X7610481Y2349998D01*
Y2359995D01*
X7620478Y2340001D02*
X7640472D01*
X7490520Y1889992D02*
Y1840008D01*
X7500517Y1830011D01*
X7520510D01*
X7530507Y1840008D01*
Y1889992D01*
X7580491Y1830011D02*
Y1889992D01*
X7550501Y1860002D01*
X7590488D01*
X7610481Y1879995D02*
X7620478Y1889992D01*
X7640472D01*
X7650468Y1879995D01*
Y1840008D01*
X7640472Y1830011D01*
X7620478D01*
X7610481Y1840008D01*
Y1879995D01*
X6740520Y929992D02*
Y880008D01*
X6750517Y870011D01*
X6770510D01*
X6780507Y880008D01*
Y929992D01*
X6800501Y919995D02*
X6810497Y929992D01*
X6830491D01*
X6840488Y919995D01*
Y909998D01*
X6830491Y900001D01*
X6820494D01*
X6830491D01*
X6840488Y890005D01*
Y880008D01*
X6830491Y870011D01*
X6810497D01*
X6800501Y880008D01*
X6860481Y929992D02*
X6900468D01*
Y919995D01*
X6860481Y880008D01*
Y870011D01*
X7220520Y869992D02*
Y820008D01*
X7230517Y810011D01*
X7250511D01*
X7260507Y820008D01*
Y869992D01*
X7280501Y859995D02*
X7290497Y869992D01*
X7310491D01*
X7320488Y859995D01*
Y849998D01*
X7310491Y840001D01*
X7300494D01*
X7310491D01*
X7320488Y830005D01*
Y820008D01*
X7310491Y810011D01*
X7290497D01*
X7280501Y820008D01*
X7340481D02*
X7350478Y810011D01*
X7370472D01*
X7380468Y820008D01*
Y859995D01*
X7370472Y869992D01*
X7350478D01*
X7340481Y859995D01*
Y849998D01*
X7350478Y840001D01*
X7380468D01*
X5910007Y3045021D02*
X5900010Y3035024D01*
Y3015031D01*
X5910007Y3005034D01*
X5949994D01*
X5959990Y3015031D01*
Y3035024D01*
X5949994Y3045021D01*
X5959990Y3065015D02*
Y3085008D01*
Y3075011D01*
X5900010D01*
X5910007Y3065015D01*
X5959990Y3144989D02*
X5900010D01*
X5930000Y3114998D01*
Y3154985D01*
X5959990Y3204969D02*
X5900010D01*
X5930000Y3174979D01*
Y3214966D01*
X5834498Y3250010D02*
Y3309990D01*
X5864489D01*
X5874485Y3299993D01*
Y3280000D01*
X5864489Y3270003D01*
X5834498D01*
X5854492D02*
X5874485Y3250010D01*
X5894479D02*
X5914473D01*
X5904476D01*
Y3309990D01*
X5894479Y3299993D01*
X5944463D02*
X5954459Y3309990D01*
X5974453D01*
X5984450Y3299993D01*
Y3289997D01*
X5974453Y3280000D01*
X5964456D01*
X5974453D01*
X5984450Y3270003D01*
Y3260006D01*
X5974453Y3250010D01*
X5954459D01*
X5944463Y3260006D01*
X6004443Y3250010D02*
X6024437D01*
X6014440D01*
Y3309990D01*
X6004443Y3299993D01*
X2339503Y2700010D02*
Y2759990D01*
X2369494D01*
X2379490Y2749993D01*
Y2730000D01*
X2369494Y2720003D01*
X2339503D01*
X2359497D02*
X2379490Y2700010D01*
X2399484D02*
X2419478D01*
X2409481D01*
Y2759990D01*
X2399484Y2749993D01*
X2449468D02*
X2459464Y2759990D01*
X2479458D01*
X2489455Y2749993D01*
Y2739997D01*
X2479458Y2730000D01*
X2469461D01*
X2479458D01*
X2489455Y2720003D01*
Y2710006D01*
X2479458Y2700010D01*
X2459464D01*
X2449468Y2710006D01*
X2549435Y2700010D02*
X2509448D01*
X2549435Y2739997D01*
Y2749993D01*
X2539438Y2759990D01*
X2519445D01*
X2509448Y2749993D01*
X2342490Y2630035D02*
X2332494Y2640032D01*
X2312500D01*
X2302503Y2630035D01*
Y2590048D01*
X2312500Y2580051D01*
X2332494D01*
X2342490Y2590048D01*
X2362484Y2580051D02*
X2382478D01*
X2372481D01*
Y2640032D01*
X2362484Y2630035D01*
X2452455Y2640032D02*
X2412468D01*
Y2610041D01*
X2432461Y2620038D01*
X2442458D01*
X2452455Y2610041D01*
Y2590048D01*
X2442458Y2580051D01*
X2422464D01*
X2412468Y2590048D01*
X2512435Y2640032D02*
X2472448D01*
Y2610041D01*
X2492442Y2620038D01*
X2502438D01*
X2512435Y2610041D01*
Y2590048D01*
X2502438Y2580051D01*
X2482445D01*
X2472448Y2590048D01*
X6115021Y3080034D02*
X6105025Y3090031D01*
X6085031D01*
X6075034Y3080034D01*
Y3040048D01*
X6085031Y3030051D01*
X6105025D01*
X6115021Y3040048D01*
X6135015Y3030051D02*
X6155009D01*
X6145012D01*
Y3090031D01*
X6135015Y3080034D01*
X6224986Y3090031D02*
X6184999D01*
Y3060041D01*
X6204992Y3070038D01*
X6214989D01*
X6224986Y3060041D01*
Y3040048D01*
X6214989Y3030051D01*
X6194995D01*
X6184999Y3040048D01*
X6284966Y3090031D02*
X6264973Y3080034D01*
X6244979Y3060041D01*
Y3040048D01*
X6254976Y3030051D01*
X6274969D01*
X6284966Y3040048D01*
Y3050044D01*
X6274969Y3060041D01*
X6244979D01*
%TF.MD5,30852a091e08d73c39c63cc19081bd01*%
M02*
