%TF.GenerationSoftware,Altium Limited,Altium Designer,22.10.1 (41)*%
G04 Layer_Color=32768*
%FSLAX45Y45*%
%MOMM*%
%TF.SameCoordinates,A8474BD1-FA4A-4BD0-88DA-22D9B4FA892B*%
%TF.FilePolarity,Positive*%
%TF.FileFunction,Other,Assembly_Notes*%
%TF.Part,Single*%
G01*
G75*
%TA.AperFunction,NonConductor*%
%ADD113C,0.20000*%
%ADD674C,0.10000*%
%ADD675C,0.25400*%
D113*
X93322Y83322D02*
X60000Y116645D01*
Y149967D01*
X93322Y183290D01*
X143306Y166629D02*
X159968Y183290D01*
X193290D01*
X209951Y166629D01*
Y99984D01*
X193290Y83322D01*
X159968D01*
X143306Y99984D01*
Y166629D01*
X259935Y66661D02*
X276597Y83322D01*
Y99984D01*
X259935D01*
Y83322D01*
X276597D01*
X259935Y66661D01*
X243274Y50000D01*
X343242Y166629D02*
X359903Y183290D01*
X393226D01*
X409887Y166629D01*
Y99984D01*
X393226Y83322D01*
X359903D01*
X343242Y99984D01*
Y166629D01*
X443210Y83322D02*
X476532Y116645D01*
Y149967D01*
X443210Y183290D01*
D674*
X1702361Y1135000D02*
G03*
X1702361Y1135000I-22361J0D01*
G01*
X1682361Y1630000D02*
G03*
X1682361Y1630000I-22361J0D01*
G01*
X5877500Y2770000D02*
X5962500D01*
X5920000Y2727500D02*
Y2812500D01*
X5980000Y2635000D02*
Y2905000D01*
X5860000Y2635000D02*
Y2905000D01*
X5980000D01*
X5860000Y2635000D02*
X5980000D01*
X6085000Y3104936D02*
X6275000Y3105179D01*
X6085000Y3015364D02*
X6275000Y3014903D01*
X6152500Y3060000D02*
X6207500D01*
X6180000Y3032500D02*
Y3087500D01*
X6085000Y3015364D02*
Y3104936D01*
X6275000Y3014903D02*
Y3105179D01*
X6021369Y922923D02*
X6076369Y977925D01*
X6110000Y810000D02*
Y910000D01*
X6060000Y860000D02*
X6160000D01*
X6020000Y742721D02*
X6200000D01*
X6020000Y977856D02*
X6200000D01*
Y742721D02*
Y977856D01*
X6020000Y742721D02*
Y977856D01*
X6941369Y1412923D02*
X6996369Y1467925D01*
X7030000Y1300000D02*
Y1400000D01*
X6980000Y1350000D02*
X7080000D01*
X6940000Y1232721D02*
X7120000D01*
X6940000Y1467856D02*
X7120000D01*
Y1232721D02*
Y1467856D01*
X6940000Y1232721D02*
Y1467856D01*
X6941369Y2392923D02*
X6996369Y2447925D01*
X7030000Y2280000D02*
Y2380000D01*
X6980000Y2330000D02*
X7080000D01*
X6940000Y2212721D02*
X7120000D01*
X6940000Y2447856D02*
X7120000D01*
Y2212721D02*
Y2447856D01*
X6940000Y2212721D02*
Y2447856D01*
X6021369Y1762923D02*
X6076369Y1817925D01*
X6110000Y1650000D02*
Y1750000D01*
X6060000Y1700000D02*
X6160000D01*
X6020000Y1582721D02*
X6200000D01*
X6020000Y1817856D02*
X6200000D01*
Y1582721D02*
Y1817856D01*
X6020000Y1582721D02*
Y1817856D01*
X6021369Y2002923D02*
X6076369Y2057925D01*
X6110000Y1890000D02*
Y1990000D01*
X6060000Y1940000D02*
X6160000D01*
X6020000Y1822721D02*
X6200000D01*
X6020000Y2057856D02*
X6200000D01*
Y1822721D02*
Y2057856D01*
X6020000Y1822721D02*
Y2057856D01*
X6021369Y1212923D02*
X6076369Y1267925D01*
X6110000Y1100000D02*
Y1200000D01*
X6060000Y1150000D02*
X6160000D01*
X6020000Y1032721D02*
X6200000D01*
X6020000Y1267856D02*
X6200000D01*
Y1032721D02*
Y1267856D01*
X6020000Y1032721D02*
Y1267856D01*
X6021369Y1522923D02*
X6076369Y1577925D01*
X6110000Y1410000D02*
Y1510000D01*
X6060000Y1460000D02*
X6160000D01*
X6020000Y1342721D02*
X6200000D01*
X6020000Y1577856D02*
X6200000D01*
Y1342721D02*
Y1577856D01*
X6020000Y1342721D02*
Y1577856D01*
X6941369Y1917923D02*
X6996369Y1972925D01*
X7030000Y1805000D02*
Y1905000D01*
X6980000Y1855000D02*
X7080000D01*
X6940000Y1737721D02*
X7120000D01*
X6940000Y1972856D02*
X7120000D01*
Y1737721D02*
Y1972856D01*
X6940000Y1737721D02*
Y1972856D01*
X6941369Y2857898D02*
X6996369Y2912900D01*
X7030000Y2744975D02*
Y2844975D01*
X6980000Y2794975D02*
X7080000D01*
X6940000Y2677696D02*
X7120000D01*
X6940000Y2912831D02*
X7120000D01*
Y2677696D02*
Y2912831D01*
X6940000Y2677696D02*
Y2912831D01*
X7630000Y630000D02*
Y970000D01*
X7810000Y630000D02*
Y970000D01*
X7630000D02*
X7810000D01*
X7630000Y630000D02*
X7810000D01*
X7670000Y800000D02*
X7770000D01*
X7720000Y750000D02*
Y850000D01*
X7630000Y914999D02*
X7685000Y970002D01*
X7440000Y1690000D02*
Y2030000D01*
X7620000Y1690000D02*
Y2030000D01*
X7440000D02*
X7620000D01*
X7440000Y1690000D02*
X7620000D01*
X7480000Y1860000D02*
X7580000D01*
X7530000Y1810000D02*
Y1910000D01*
X7440000Y1975000D02*
X7495000Y2030003D01*
X7170000Y670000D02*
Y1010000D01*
X7350000Y670000D02*
Y1010000D01*
X7170000D02*
X7350000D01*
X7170000Y670000D02*
X7350000D01*
X7210000Y840000D02*
X7310000D01*
X7260000Y790000D02*
Y890000D01*
X7170000Y955000D02*
X7225000Y1010003D01*
X7440000Y2170000D02*
Y2510000D01*
X7620000Y2170000D02*
Y2510000D01*
X7440000D02*
X7620000D01*
X7440000Y2170000D02*
X7620000D01*
X7480000Y2340000D02*
X7580000D01*
X7530000Y2290000D02*
Y2390000D01*
X7440000Y2455000D02*
X7495000Y2510002D01*
X6690000Y730000D02*
Y1070000D01*
X6870000Y730000D02*
Y1070000D01*
X6690000D02*
X6870000D01*
X6690000Y730000D02*
X6870000D01*
X6730000Y900000D02*
X6830000D01*
X6780000Y850000D02*
Y950000D01*
X6690000Y1015000D02*
X6745000Y1070002D01*
X7440000Y2640000D02*
Y2980000D01*
X7620000Y2640000D02*
Y2980000D01*
X7440000D02*
X7620000D01*
X7440000Y2640000D02*
X7620000D01*
X7480000Y2810000D02*
X7580000D01*
X7530000Y2760000D02*
Y2860000D01*
X7440000Y2925000D02*
X7495000Y2980002D01*
X6995000Y3770000D02*
Y3970000D01*
X6745000D02*
X6995000D01*
X6745000Y3770000D02*
X6995000D01*
X6870000Y3820000D02*
Y3920001D01*
X6820000Y3870000D02*
X6920000D01*
X6745000Y3770000D02*
Y3970000D01*
X6925805Y3770000D02*
X6995000Y3839196D01*
X7440000Y1180000D02*
Y1520000D01*
X7620000Y1180000D02*
Y1520000D01*
X7440000D02*
X7620000D01*
X7440000Y1180000D02*
X7620000D01*
X7480000Y1350000D02*
X7580000D01*
X7530000Y1300000D02*
Y1400000D01*
X7440000Y1465000D02*
X7495000Y1520003D01*
X7395000Y3770000D02*
Y3970000D01*
X7145000D02*
X7395000D01*
X7145000Y3770000D02*
X7395000D01*
X7270000Y3820000D02*
Y3920000D01*
X7220000Y3870000D02*
X7320000D01*
X7145000Y3770000D02*
Y3970000D01*
X7325805Y3770000D02*
X7395000Y3839195D01*
X5540000Y3840000D02*
X5775463D01*
X5860000Y3755463D01*
Y3480000D02*
Y3755463D01*
X5540000Y3480000D02*
X5860000D01*
X5540000D02*
Y3840000D01*
X5700000Y3610000D02*
Y3710000D01*
X5650000Y3660000D02*
X5750000D01*
X5860000Y3730000D02*
Y3840000D01*
X5775463D02*
X5860000D01*
X6715000Y4210000D02*
Y4570000D01*
X7025000Y4210000D02*
Y4570000D01*
X6715000D02*
X7025000D01*
X6715000Y4210000D02*
X7025000D01*
X6820000Y4390000D02*
X6920000D01*
X6870000Y4340000D02*
Y4440000D01*
X6715140Y4497350D02*
X6784336Y4566545D01*
X7209998Y4300001D02*
Y4660001D01*
X7519998Y4300001D02*
Y4660001D01*
X7209998D02*
X7519998D01*
X7209998Y4300001D02*
X7519998D01*
X7314998Y4480001D02*
X7414998D01*
X7364998Y4430001D02*
Y4530001D01*
X7210138Y4587350D02*
X7279334Y4656546D01*
X3305000Y1475000D02*
Y1585000D01*
X3395000D01*
X3305000Y1255000D02*
Y1493904D01*
X3396096Y1585000D01*
X3715000D01*
Y1255000D02*
Y1585000D01*
X3510000Y1370000D02*
Y1470000D01*
X3460000Y1420000D02*
X3560000D01*
X3305000Y1255000D02*
X3715000D01*
X3960000Y2080000D02*
Y2180000D01*
X3910000Y2130000D02*
X4010000D01*
X3675000Y1965000D02*
X4245000D01*
Y2295000D01*
X3755964D02*
X4245000D01*
X3675000Y1965000D02*
Y2214036D01*
X3755964Y2295000D01*
X3675000D02*
X3755000D01*
X3675000Y2215000D02*
Y2295000D01*
X4985000Y1200000D02*
Y1290000D01*
X5375000Y970000D02*
Y1290000D01*
X4985000Y970000D02*
X5375000D01*
X5130000Y1130000D02*
X5230000D01*
X5180000Y1080000D02*
Y1180000D01*
X5071377Y1290000D02*
X5375000D01*
X4985000Y1203622D02*
X5071377Y1290000D01*
X4985000Y970000D02*
Y1203622D01*
Y1290000D02*
X5071377D01*
X4990000Y1960000D02*
Y2060000D01*
X4940001Y2010001D02*
X5040001D01*
X4705000Y1845001D02*
X5275000D01*
Y2175000D01*
X4785965D02*
X5275000D01*
X4705000Y1845001D02*
Y2094036D01*
X4785965Y2175000D01*
X4705000D02*
X4785000D01*
X4705000Y2095000D02*
Y2175000D01*
X2470000Y2425000D02*
X2560000D01*
X2240000Y2035000D02*
X2560000D01*
X2240000D02*
Y2425000D01*
X2400000Y2180000D02*
Y2280000D01*
X2350000Y2230000D02*
X2450000D01*
X2560000Y2035000D02*
Y2338622D01*
X2473622Y2425000D02*
X2560000Y2338622D01*
X2240000Y2425000D02*
X2473622D01*
X2560000Y2338622D02*
Y2425000D01*
X2914999Y2315000D02*
Y2395000D01*
X2994999D01*
X3109999Y2230000D02*
Y2330000D01*
X3059999Y2280000D02*
X3159999D01*
X2914999Y2165000D02*
X3304999D01*
Y2395000D01*
X2983907D02*
X3304999D01*
X2914999Y2326092D02*
X2983907Y2395000D01*
X2914999Y2165000D02*
Y2326092D01*
X5610000Y2460000D02*
X5845463D01*
X5930000Y2375463D01*
Y2100000D02*
Y2375463D01*
X5610000Y2100000D02*
X5930000D01*
X5610000D02*
Y2460000D01*
X5770000Y2230000D02*
Y2330000D01*
X5720000Y2280000D02*
X5820000D01*
X5930000Y2350000D02*
Y2460000D01*
X5845463D02*
X5930000D01*
X8200266Y2899551D02*
X8500265D01*
Y2725246D02*
Y2899551D01*
X8200266Y2659551D02*
Y2899551D01*
X8434571Y2659551D02*
X8500265Y2725246D01*
X8200266Y2659551D02*
X8434571D01*
X8350265Y2729551D02*
Y2829551D01*
X8300265Y2779551D02*
X8400265D01*
X8420266Y2659551D02*
X8500265D01*
Y2739551D01*
X7649378Y4295000D02*
X7879999D01*
X7649378D02*
Y4685422D01*
X7879999Y4295000D02*
Y4621158D01*
X7764999Y4440000D02*
Y4540000D01*
X7714999Y4490000D02*
X7814999D01*
X7816157Y4685000D02*
X7879999Y4621158D01*
X7649378Y4685000D02*
X7816157D01*
X7879999Y4605000D02*
Y4685000D01*
X7799999D02*
X7879999D01*
X6995000Y3410000D02*
Y3610000D01*
X6745000D02*
X6995000D01*
X6745000Y3410000D02*
X6995000D01*
X6870000Y3460000D02*
Y3560000D01*
X6820000Y3510000D02*
X6920000D01*
X6745000Y3410000D02*
Y3610000D01*
X6925805Y3410000D02*
X6995000Y3479195D01*
X3320000Y3504537D02*
Y3740000D01*
X3235463Y3420000D02*
X3320000Y3504537D01*
X2960000Y3420000D02*
X3235463D01*
X2960000D02*
Y3740000D01*
X3320000D01*
X3090000Y3580000D02*
X3190000D01*
X3140000Y3530000D02*
Y3630000D01*
X3210000Y3420000D02*
X3320000D01*
Y3504537D01*
X3550000Y3325000D02*
X3630000D01*
X3550000Y3240000D02*
Y3325000D01*
Y2795000D02*
Y3240000D01*
X3635000Y3325000D01*
X4270000D01*
X3910000Y3010000D02*
Y3110000D01*
X3860000Y3060000D02*
X3960000D01*
X3550000Y2795000D02*
X4270000D01*
Y3325000D01*
X3740000Y3615000D02*
Y3695000D01*
X3820000D01*
X3740000Y3365000D02*
X4140000D01*
X3890000Y3530000D02*
X3990000D01*
X3940000Y3480000D02*
Y3580000D01*
X4140000Y3365000D02*
Y3695000D01*
X3812465D02*
X4140000D01*
X3740000Y3622535D02*
X3812465Y3695000D01*
X3740000Y3365000D02*
Y3622535D01*
X2940000Y3030000D02*
X3040000D01*
X2990000Y2980000D02*
Y3080000D01*
X3155000Y2745000D02*
Y3315000D01*
X2825000D02*
X3155000D01*
X2825000Y2825964D02*
Y3315000D01*
X2905964Y2745000D02*
X3155000D01*
X2825000Y2825964D02*
X2905964Y2745000D01*
X2825000D02*
Y2825000D01*
Y2745000D02*
X2905000D01*
X3630000Y4365000D02*
X3710000D01*
X3630000Y4280000D02*
Y4365000D01*
Y3835000D02*
Y4280000D01*
X3715000Y4365000D01*
X4350000D01*
X3990000Y4050000D02*
Y4150000D01*
X3940000Y4100000D02*
X4040000D01*
X3630000Y3835000D02*
X4350000D01*
Y4365000D01*
X3010000Y3970000D02*
Y4070000D01*
X2960000Y4020000D02*
X3060000D01*
X2725000Y4185000D02*
X3295000D01*
X2725000Y3855000D02*
Y4185000D01*
Y3855000D02*
X3214036D01*
X3295000Y3935964D02*
Y4185000D01*
X3214036Y3855000D02*
X3295000Y3935964D01*
X3215000Y3855000D02*
X3295000D01*
Y3935000D01*
X5490000Y2675000D02*
X5570000D01*
Y2760000D01*
Y3205000D01*
X5485000Y2675000D02*
X5570000Y2760000D01*
X4850000Y2675000D02*
X5485000D01*
X5210000Y2890000D02*
Y2990000D01*
X5160000Y2940000D02*
X5260000D01*
X4850000Y3205000D02*
X5570000D01*
X4850000Y2675000D02*
Y3205000D01*
X6150000Y3400000D02*
X6250000D01*
X6200000Y3350000D02*
Y3450000D01*
X6035000Y3115000D02*
Y3685000D01*
Y3115000D02*
X6365000D01*
Y3604036D01*
X6035000Y3685000D02*
X6284036D01*
X6365000Y3604036D01*
Y3605000D02*
Y3685000D01*
X6285000D02*
X6365000D01*
X4935000Y4170000D02*
X5015000D01*
Y4090000D02*
Y4170000D01*
X4685000Y3770000D02*
Y4170000D01*
X4850000Y3920000D02*
Y4020000D01*
X4800000Y3970000D02*
X4900000D01*
X4685000Y3770000D02*
X5015000D01*
Y4097535D01*
X4942535Y4170000D02*
X5015000Y4097535D01*
X4685000Y4170000D02*
X4942535D01*
X5420000Y4180000D02*
Y4280000D01*
X5370000Y4230000D02*
X5470000D01*
X5135000Y4395000D02*
X5705000D01*
X5135000Y4065000D02*
Y4395000D01*
Y4065000D02*
X5624036D01*
X5705000Y4145964D02*
Y4395000D01*
X5624036Y4065000D02*
X5705000Y4145964D01*
X5625000Y4065000D02*
X5705000D01*
Y4145000D01*
X2090000Y1900000D02*
X2180000D01*
Y1810000D02*
Y1900000D01*
Y1580000D02*
Y1810000D01*
X2090000Y1900000D02*
X2180000Y1810000D01*
X1860000Y1900000D02*
X2090000D01*
X1970000Y1740000D02*
X2070000D01*
X2020000Y1690000D02*
Y1790000D01*
X1860000Y1580000D02*
Y1900000D01*
Y1580000D02*
X2180000D01*
X2430000Y2010000D02*
X2520000D01*
Y1920000D02*
Y2010000D01*
Y1690000D02*
Y1920000D01*
X2430000Y2010000D02*
X2520000Y1920000D01*
X2200000Y2010000D02*
X2430000D01*
X2310000Y1850000D02*
X2410000D01*
X2360000Y1800000D02*
Y1900000D01*
X2200000Y1690000D02*
Y2010000D01*
Y1690000D02*
X2520000D01*
X2460000Y2702500D02*
Y2757500D01*
X2432500Y2730000D02*
X2487500D01*
X2365000Y2775000D02*
X2555000D01*
X2365000Y2685000D02*
X2555000D01*
X2365000D02*
Y2775000D01*
X2555000Y2685000D02*
Y2775000D01*
X5940000Y3252500D02*
Y3307500D01*
X5912500Y3280000D02*
X5967500D01*
X5845000Y3325000D02*
X6035000D01*
X5845000Y3235000D02*
X6035000D01*
X5845000D02*
Y3325000D01*
X6035000Y3235000D02*
Y3325000D01*
X5915000Y4195000D02*
Y4385000D01*
X5825000D02*
X5915000D01*
X5825000Y4195000D02*
X5915000D01*
X5825000D02*
Y4385000D01*
X5870000Y4262500D02*
Y4317500D01*
X5842500Y4290000D02*
X5897500D01*
X6055000Y4285000D02*
X6245000D01*
X6055000Y4195000D02*
Y4285000D01*
X6245000Y4195000D02*
Y4285000D01*
X6055000Y4195000D02*
X6245000D01*
X6122500Y4240000D02*
X6177500D01*
X6150000Y4212500D02*
Y4267500D01*
X5925000Y4195000D02*
Y4385000D01*
Y4195000D02*
X6015000D01*
X5925000Y4385000D02*
X6015000D01*
Y4195000D02*
Y4385000D01*
X5970000Y4262500D02*
Y4317500D01*
X5942500Y4290000D02*
X5997500D01*
X6515000Y4635000D02*
Y4825000D01*
X6425000D02*
X6515000D01*
X6425000Y4635000D02*
X6515000D01*
X6425000D02*
Y4825000D01*
X6470000Y4702500D02*
Y4757500D01*
X6442500Y4730000D02*
X6497500D01*
X6305000Y4635000D02*
Y4825000D01*
Y4635000D02*
X6395000D01*
X6305000Y4825000D02*
X6395000D01*
Y4635000D02*
Y4825000D01*
X6350000Y4702500D02*
Y4757500D01*
X6322500Y4730000D02*
X6377500D01*
X6295000Y4635000D02*
Y4825000D01*
X6205000D02*
X6295000D01*
X6205000Y4635000D02*
X6295000D01*
X6205000D02*
Y4825000D01*
X6250000Y4702500D02*
Y4757500D01*
X6222500Y4730000D02*
X6277500D01*
X6105000Y4635000D02*
Y4825000D01*
Y4635000D02*
X6195000D01*
X6105000Y4825000D02*
X6195000D01*
Y4635000D02*
Y4825000D01*
X6150000Y4702500D02*
Y4757500D01*
X6122500Y4730000D02*
X6177500D01*
X6225000Y1695000D02*
X6415000D01*
X6225000Y1605000D02*
Y1695000D01*
X6415000Y1605000D02*
Y1695000D01*
X6225000Y1605000D02*
X6415000D01*
X6292500Y1650000D02*
X6347500D01*
X6320000Y1622500D02*
Y1677500D01*
X6225000Y1085000D02*
Y1275000D01*
Y1085000D02*
X6315000D01*
X6225000Y1275000D02*
X6315000D01*
Y1085000D02*
Y1275000D01*
X6270000Y1152500D02*
Y1207500D01*
X6242500Y1180000D02*
X6297500D01*
X6225000Y1475000D02*
X6415000D01*
X6225000Y1385000D02*
Y1475000D01*
X6415000Y1385000D02*
Y1475000D01*
X6225000Y1385000D02*
X6415000D01*
X6292500Y1430000D02*
X6347500D01*
X6320000Y1402500D02*
Y1457500D01*
X7234999Y1175000D02*
Y1365000D01*
X7145000D02*
X7234999D01*
X7145000Y1175000D02*
X7234999D01*
X7145000D02*
Y1365000D01*
X7190000Y1242500D02*
Y1297500D01*
X7162500Y1270000D02*
X7217500D01*
X6225000Y1945000D02*
X6415000D01*
X6225000Y1855000D02*
Y1945000D01*
X6415000Y1855000D02*
Y1945000D01*
X6225000Y1855000D02*
X6415000D01*
X6292500Y1900000D02*
X6347500D01*
X6320000Y1872500D02*
Y1927500D01*
X7145000Y1885000D02*
Y2075000D01*
Y1885000D02*
X7234999D01*
X7145000Y2075000D02*
X7234999D01*
Y1885000D02*
Y2075000D01*
X7190000Y1952501D02*
Y2007500D01*
X7162500Y1980000D02*
X7217500D01*
X7235000Y2165000D02*
Y2355000D01*
X7145000D02*
X7235000D01*
X7145000Y2165000D02*
X7235000D01*
X7145000D02*
Y2355000D01*
X7190000Y2232500D02*
Y2287500D01*
X7162500Y2260000D02*
X7217500D01*
X7145000Y2365000D02*
Y2555000D01*
Y2365000D02*
X7235000D01*
X7145000Y2555000D02*
X7235000D01*
Y2365000D02*
Y2555000D01*
X7190000Y2432500D02*
Y2487500D01*
X7162500Y2460000D02*
X7217500D01*
X7234999Y2635000D02*
Y2825000D01*
X7145000D02*
X7234999D01*
X7145000Y2635000D02*
X7234999D01*
X7145000D02*
Y2825000D01*
X7190000Y2702500D02*
Y2757500D01*
X7162500Y2730000D02*
X7217500D01*
X7145000Y2835000D02*
Y3025000D01*
Y2835000D02*
X7234999D01*
X7145000Y3025000D02*
X7234999D01*
Y2835000D02*
Y3025000D01*
X7190000Y2902500D02*
Y2957500D01*
X7162500Y2930000D02*
X7217500D01*
X8005000Y2685000D02*
X8195000D01*
X8005000Y2595000D02*
Y2685000D01*
X8195000Y2595000D02*
Y2685000D01*
X8005000Y2595000D02*
X8195000D01*
X8072500Y2640000D02*
X8127500D01*
X8100000Y2612500D02*
Y2667500D01*
X8005000Y2785000D02*
X8195000D01*
X8005000Y2695000D02*
Y2785000D01*
X8195000Y2695000D02*
Y2785000D01*
X8005000Y2695000D02*
X8195000D01*
X8072500Y2740000D02*
X8127500D01*
X8100000Y2712500D02*
Y2767500D01*
X3735000Y1535000D02*
X3925000D01*
Y1625000D01*
X3735000Y1535000D02*
Y1625000D01*
X3925000D01*
X3802500Y1580000D02*
X3857500D01*
X3830000Y1552500D02*
Y1607500D01*
X3735000Y1525000D02*
X3925000D01*
X3735000Y1435000D02*
Y1525000D01*
X3925000Y1435000D02*
Y1525000D01*
X3735000Y1435000D02*
X3925000D01*
X3802500Y1480000D02*
X3857500D01*
X3830000Y1452500D02*
Y1507500D01*
X4025000Y1435000D02*
Y1625000D01*
X3935000D02*
X4025000D01*
X3935000Y1435000D02*
X4025000D01*
X3935000D02*
Y1625000D01*
X3980000Y1502500D02*
Y1557500D01*
X3952500Y1530000D02*
X4007500D01*
X3985000Y1175000D02*
Y1365000D01*
X3895000D02*
X3985000D01*
X3895000Y1175000D02*
X3985000D01*
X3895000D02*
Y1365000D01*
X3940000Y1242500D02*
Y1297500D01*
X3912500Y1270000D02*
X3967500D01*
X1885000Y1415000D02*
X2075000D01*
Y1505000D01*
X1885000Y1415000D02*
Y1505000D01*
X2075000D01*
X1952500Y1460000D02*
X2007500D01*
X1980000Y1432500D02*
Y1487500D01*
X3065000Y2075000D02*
X3255000D01*
X3065000Y1985000D02*
Y2075000D01*
X3255000Y1985000D02*
Y2075000D01*
X3065000Y1985000D02*
X3255000D01*
X3132500Y2030000D02*
X3187500D01*
X3160000Y2002500D02*
Y2057500D01*
X4885000Y915000D02*
Y1105000D01*
Y915000D02*
X4975000D01*
X4885000Y1105000D02*
X4975000D01*
Y915000D02*
Y1105000D01*
X4930000Y982500D02*
Y1037500D01*
X4902500Y1010000D02*
X4957500D01*
X4885000Y1115000D02*
Y1305000D01*
Y1115000D02*
X4975000D01*
X4885000Y1305000D02*
X4975000D01*
Y1115000D02*
Y1305000D01*
X4930000Y1182500D02*
Y1237500D01*
X4902500Y1210000D02*
X4957500D01*
X3515000Y4625000D02*
Y4815000D01*
Y4625000D02*
X3605000D01*
X3515000Y4815000D02*
X3605000D01*
Y4625000D02*
Y4815000D01*
X3560000Y4692500D02*
Y4747500D01*
X3532500Y4720000D02*
X3587500D01*
X2225000Y2085000D02*
Y2275000D01*
X2135000D02*
X2225000D01*
X2135000Y2085000D02*
X2225000D01*
X2135000D02*
Y2275000D01*
X2180000Y2152500D02*
Y2207500D01*
X2152500Y2180000D02*
X2207500D01*
X2235000Y2555000D02*
Y2745000D01*
X2145000D02*
X2235000D01*
X2145000Y2555000D02*
X2235000D01*
X2145000D02*
Y2745000D01*
X2190000Y2622500D02*
Y2677500D01*
X2162500Y2650000D02*
X2217500D01*
X1945000Y1195000D02*
X2135000D01*
X1945000Y1105000D02*
Y1195000D01*
X2135000Y1105000D02*
Y1195000D01*
X1945000Y1105000D02*
X2135000D01*
X2012500Y1150000D02*
X2067500D01*
X2040000Y1122500D02*
Y1177500D01*
X2145000Y2445000D02*
X2335000D01*
Y2535000D01*
X2145000Y2445000D02*
Y2535000D01*
X2335000D01*
X2212500Y2490000D02*
X2267500D01*
X2240000Y2462500D02*
Y2517500D01*
X2535000Y1775000D02*
Y1965000D01*
Y1775000D02*
X2625000D01*
X2535000Y1965000D02*
X2625000D01*
Y1775000D02*
Y1965000D01*
X2580000Y1842500D02*
Y1897500D01*
X2552500Y1870000D02*
X2607500D01*
X1945000Y1294999D02*
X2135000D01*
X1945000Y1205000D02*
Y1294999D01*
X2135000Y1205000D02*
Y1294999D01*
X1945000Y1205000D02*
X2135000D01*
X2012500Y1250000D02*
X2067500D01*
X2040000Y1222499D02*
Y1277500D01*
X2715000Y2445000D02*
X2905000D01*
X2715000Y2355000D02*
Y2445000D01*
X2905000Y2355000D02*
Y2445000D01*
X2715000Y2355000D02*
X2905000D01*
X2782500Y2400000D02*
X2837500D01*
X2810000Y2372500D02*
Y2427500D01*
X2715000Y2345000D02*
X2905000D01*
X2715000Y2255000D02*
Y2345000D01*
X2905000Y2255000D02*
Y2345000D01*
X2715000Y2255000D02*
X2905000D01*
X2782500Y2300000D02*
X2837500D01*
X2810000Y2272500D02*
Y2327500D01*
X5145000Y4635000D02*
Y4825000D01*
Y4635000D02*
X5235000D01*
X5145000Y4825000D02*
X5235000D01*
Y4635000D02*
Y4825000D01*
X5190000Y4702500D02*
Y4757500D01*
X5162500Y4730000D02*
X5217500D01*
X3285000Y4625000D02*
Y4815000D01*
Y4625000D02*
X3375000D01*
X3285000Y4815000D02*
X3375000D01*
Y4625000D02*
Y4815000D01*
X3330000Y4692500D02*
Y4747500D01*
X3302500Y4720000D02*
X3357500D01*
X5255000Y4635000D02*
Y4825000D01*
Y4635000D02*
X5345000D01*
X5255000Y4825000D02*
X5345000D01*
Y4635000D02*
Y4825000D01*
X5300000Y4702500D02*
Y4757500D01*
X5272500Y4730000D02*
X5327500D01*
X3385000Y4625000D02*
Y4815000D01*
Y4625000D02*
X3475000D01*
X3385000Y4815000D02*
X3475000D01*
Y4625000D02*
Y4815000D01*
X3430000Y4692500D02*
Y4747500D01*
X3402500Y4720000D02*
X3457500D01*
X2715000Y2155000D02*
X2905000D01*
Y2245000D01*
X2715000Y2155000D02*
Y2245000D01*
X2905000D01*
X2782500Y2200000D02*
X2837500D01*
X2810000Y2172500D02*
Y2227500D01*
X3335000Y2275000D02*
X3525000D01*
Y2365000D01*
X3335000Y2275000D02*
Y2365000D01*
X3525000D01*
X3402500Y2320000D02*
X3457500D01*
X3430000Y2292500D02*
Y2347500D01*
X4275000Y636000D02*
Y826000D01*
Y636000D02*
X4365000D01*
X4275000Y826000D02*
X4365000D01*
Y636000D02*
Y826000D01*
X4320000Y703500D02*
Y758500D01*
X4292500Y731000D02*
X4347500D01*
X4385000Y636000D02*
Y826000D01*
Y636000D02*
X4475000D01*
X4385000Y826000D02*
X4475000D01*
Y636000D02*
Y826000D01*
X4430000Y703500D02*
Y758500D01*
X4402500Y731000D02*
X4457500D01*
X6015000Y4635000D02*
Y4825000D01*
X5925000D02*
X6015000D01*
X5925000Y4635000D02*
X6015000D01*
X5925000D02*
Y4825000D01*
X5970000Y4702500D02*
Y4757500D01*
X5942500Y4730000D02*
X5997500D01*
X5915000Y4635000D02*
Y4825000D01*
X5825000D02*
X5915000D01*
X5825000Y4635000D02*
X5915000D01*
X5825000D02*
Y4825000D01*
X5870000Y4702500D02*
Y4757500D01*
X5842500Y4730000D02*
X5897500D01*
X5905000Y635000D02*
Y825000D01*
Y635000D02*
X5995000D01*
X5905000Y825000D02*
X5995000D01*
Y635000D02*
Y825000D01*
X5950000Y702500D02*
Y757500D01*
X5922500Y730000D02*
X5977500D01*
X6055000Y2365000D02*
X6245000D01*
X6055000Y2275000D02*
Y2365000D01*
X6245000Y2275000D02*
Y2365000D01*
X6055000Y2275000D02*
X6245000D01*
X6122500Y2320000D02*
X6177500D01*
X6150000Y2292500D02*
Y2347500D01*
X5775000Y1625000D02*
X5965000D01*
Y1715000D01*
X5775000Y1625000D02*
Y1715000D01*
X5965000D01*
X5842500Y1670000D02*
X5897500D01*
X5870000Y1642500D02*
Y1697500D01*
X5795000Y635000D02*
Y825000D01*
Y635000D02*
X5885000D01*
X5795000Y825000D02*
X5885000D01*
Y635000D02*
Y825000D01*
X5840000Y702500D02*
Y757500D01*
X5812500Y730000D02*
X5867500D01*
X6925000Y1135000D02*
X7115000D01*
Y1225000D01*
X6925000Y1135000D02*
Y1225000D01*
X7115000D01*
X6992500Y1180000D02*
X7047500D01*
X7020000Y1152500D02*
Y1207500D01*
X5775000Y1285000D02*
X5965000D01*
Y1375000D01*
X5775000Y1285000D02*
Y1375000D01*
X5965000D01*
X5842500Y1330000D02*
X5897500D01*
X5870000Y1302500D02*
Y1357500D01*
X6705000Y4635000D02*
Y4825000D01*
Y4635000D02*
X6795000D01*
X6705000Y4825000D02*
X6795000D01*
Y4635000D02*
Y4825000D01*
X6750000Y4702500D02*
Y4757500D01*
X6722500Y4730000D02*
X6777500D01*
X6805000Y4635000D02*
Y4825000D01*
Y4635000D02*
X6895000D01*
X6805000Y4825000D02*
X6895000D01*
Y4635000D02*
Y4825000D01*
X6850000Y4702500D02*
Y4757500D01*
X6822500Y4730000D02*
X6877500D01*
X5685000Y635000D02*
Y825000D01*
Y635000D02*
X5775000D01*
X5685000Y825000D02*
X5775000D01*
Y635000D02*
Y825000D01*
X5730000Y702500D02*
Y757500D01*
X5702500Y730000D02*
X5757500D01*
X5575000Y635000D02*
Y825000D01*
Y635000D02*
X5665000D01*
X5575000Y825000D02*
X5665000D01*
Y635000D02*
Y825000D01*
X5620000Y702500D02*
Y757500D01*
X5592500Y730000D02*
X5647500D01*
X5555000Y635000D02*
Y825000D01*
X5465000D02*
X5555000D01*
X5465000Y635000D02*
X5555000D01*
X5465000D02*
Y825000D01*
X5510000Y702500D02*
Y757500D01*
X5482500Y730000D02*
X5537500D01*
X5355000Y635000D02*
Y825000D01*
Y635000D02*
X5445000D01*
X5355000Y825000D02*
X5445000D01*
Y635000D02*
Y825000D01*
X5400000Y702500D02*
Y757500D01*
X5372500Y730000D02*
X5427500D01*
X5585000Y4635000D02*
Y4825000D01*
X5495000D02*
X5585000D01*
X5495000Y4635000D02*
X5585000D01*
X5495000D02*
Y4825000D01*
X5540000Y4702500D02*
Y4757500D01*
X5512500Y4730000D02*
X5567500D01*
X5245000Y635000D02*
Y825000D01*
Y635000D02*
X5335000D01*
X5245000Y825000D02*
X5335000D01*
Y635000D02*
Y825000D01*
X5290000Y702500D02*
Y757500D01*
X5262500Y730000D02*
X5317500D01*
X5135000Y635000D02*
Y825000D01*
Y635000D02*
X5225000D01*
X5135000Y825000D02*
X5225000D01*
Y635000D02*
Y825000D01*
X5180000Y702500D02*
Y757500D01*
X5152500Y730000D02*
X5207500D01*
X5385000Y4635000D02*
Y4825000D01*
Y4635000D02*
X5475000D01*
X5385000Y4825000D02*
X5475000D01*
Y4635000D02*
Y4825000D01*
X5430000Y4702500D02*
Y4757500D01*
X5402500Y4730000D02*
X5457500D01*
X4955000Y635000D02*
Y825000D01*
Y635000D02*
X5045000D01*
X4955000Y825000D02*
X5045000D01*
Y635000D02*
Y825000D01*
X5000000Y702500D02*
Y757500D01*
X4972500Y730000D02*
X5027500D01*
X5695000Y4635000D02*
Y4825000D01*
X5605000D02*
X5695000D01*
X5605000Y4635000D02*
X5695000D01*
X5605000D02*
Y4825000D01*
X5650000Y4702500D02*
Y4757500D01*
X5622500Y4730000D02*
X5677500D01*
X4845000Y635000D02*
Y825000D01*
Y635000D02*
X4935000D01*
X4845000Y825000D02*
X4935000D01*
Y635000D02*
Y825000D01*
X4890000Y702500D02*
Y757500D01*
X4862500Y730000D02*
X4917500D01*
X4015000Y635000D02*
Y825000D01*
Y635000D02*
X4105000D01*
X4015000Y825000D02*
X4105000D01*
Y635000D02*
Y825000D01*
X4060000Y702500D02*
Y757500D01*
X4032500Y730000D02*
X4087500D01*
X3975000Y636000D02*
Y826000D01*
X3885000D02*
X3975000D01*
X3885000Y636000D02*
X3975000D01*
X3885000D02*
Y826000D01*
X3930000Y703500D02*
Y758500D01*
X3902500Y731000D02*
X3957500D01*
X4285000Y4625000D02*
Y4815000D01*
X4195000D02*
X4285000D01*
X4195000Y4625000D02*
X4285000D01*
X4195000D02*
Y4815000D01*
X4240000Y4692500D02*
Y4747500D01*
X4212500Y4720000D02*
X4267500D01*
X4095000Y4625000D02*
Y4815000D01*
Y4625000D02*
X4185000D01*
X4095000Y4815000D02*
X4185000D01*
Y4625000D02*
Y4815000D01*
X4140000Y4692500D02*
Y4747500D01*
X4112500Y4720000D02*
X4167500D01*
X4025000Y4625000D02*
Y4815000D01*
X3935000D02*
X4025000D01*
X3935000Y4625000D02*
X4025000D01*
X3935000D02*
Y4815000D01*
X3980000Y4692500D02*
Y4747500D01*
X3952500Y4720000D02*
X4007500D01*
X3825000Y4625000D02*
Y4815000D01*
Y4625000D02*
X3915000D01*
X3825000Y4815000D02*
X3915000D01*
Y4625000D02*
Y4815000D01*
X3870000Y4692500D02*
Y4747500D01*
X3842500Y4720000D02*
X3897500D01*
X3815000Y4625000D02*
Y4815000D01*
X3725000D02*
X3815000D01*
X3725000Y4625000D02*
X3815000D01*
X3725000D02*
Y4815000D01*
X3770000Y4692500D02*
Y4747500D01*
X3742500Y4720000D02*
X3797500D01*
X6055000Y2465000D02*
X6245000D01*
X6055000Y2375000D02*
Y2465000D01*
X6245000Y2375000D02*
Y2465000D01*
X6055000Y2375000D02*
X6245000D01*
X6122500Y2420000D02*
X6177500D01*
X6150000Y2392500D02*
Y2447500D01*
X7715000Y3985000D02*
Y4175000D01*
X7625000D02*
X7715000D01*
X7625000Y3985000D02*
X7715000D01*
X7625000D02*
Y4175000D01*
X7670000Y4052500D02*
Y4107500D01*
X7642500Y4080000D02*
X7697500D01*
X7815000Y4095000D02*
Y4285000D01*
X7725000D02*
X7815000D01*
X7725000Y4095000D02*
X7815000D01*
X7725000D02*
Y4285000D01*
X7770000Y4162500D02*
Y4217500D01*
X7742500Y4190000D02*
X7797500D01*
X6925000Y1635000D02*
X7115000D01*
Y1725000D01*
X6925000Y1635000D02*
Y1725000D01*
X7115000D01*
X6992500Y1680000D02*
X7047500D01*
X7020000Y1652500D02*
Y1707500D01*
X6325000Y745000D02*
Y935000D01*
Y745000D02*
X6415000D01*
X6325000Y935000D02*
X6415000D01*
Y745000D02*
Y935000D01*
X6370000Y812500D02*
Y867500D01*
X6342500Y840000D02*
X6397500D01*
X6315000Y745000D02*
Y935000D01*
X6225000D02*
X6315000D01*
X6225000Y745000D02*
X6315000D01*
X6225000D02*
Y935000D01*
X6270000Y812500D02*
Y867500D01*
X6242500Y840000D02*
X6297500D01*
X5775000Y1065000D02*
X5965000D01*
X5775000Y975000D02*
Y1065000D01*
X5965000Y975000D02*
Y1065000D01*
X5775000Y975000D02*
X5965000D01*
X5842500Y1020000D02*
X5897500D01*
X5870000Y992500D02*
Y1047500D01*
X6225000Y1375000D02*
X6415000D01*
X6225000Y1285000D02*
Y1375000D01*
X6415000Y1285000D02*
Y1375000D01*
X6225000Y1285000D02*
X6415000D01*
X6292500Y1330000D02*
X6347500D01*
X6320000Y1302500D02*
Y1357500D01*
X5775000Y1385000D02*
X5965000D01*
Y1475000D01*
X5775000Y1385000D02*
Y1475000D01*
X5965000D01*
X5842500Y1430000D02*
X5897500D01*
X5870000Y1402500D02*
Y1457500D01*
X6415000Y1085000D02*
Y1275000D01*
X6325000D02*
X6415000D01*
X6325000Y1085000D02*
X6415000D01*
X6325000D02*
Y1275000D01*
X6370000Y1152500D02*
Y1207500D01*
X6342500Y1180000D02*
X6397500D01*
X4245000Y635000D02*
Y825000D01*
X4155000D02*
X4245000D01*
X4155000Y635000D02*
X4245000D01*
X4155000D02*
Y825000D01*
X4200000Y702500D02*
Y757500D01*
X4172500Y730000D02*
X4227500D01*
X3835000Y635000D02*
Y825000D01*
X3745000D02*
X3835000D01*
X3745000Y635000D02*
X3835000D01*
X3745000D02*
Y825000D01*
X3790000Y702500D02*
Y757500D01*
X3762500Y730000D02*
X3817500D01*
X5775000Y1725000D02*
X5965000D01*
Y1815000D01*
X5775000Y1725000D02*
Y1815000D01*
X5965000D01*
X5842500Y1770000D02*
X5897500D01*
X5870000Y1742500D02*
Y1797500D01*
X6225000Y1955000D02*
X6415000D01*
Y2045000D01*
X6225000Y1955000D02*
Y2045000D01*
X6415000D01*
X6292500Y2000000D02*
X6347500D01*
X6320000Y1972500D02*
Y2027500D01*
X4825000Y635000D02*
Y825000D01*
X4735000D02*
X4825000D01*
X4735000Y635000D02*
X4825000D01*
X4735000D02*
Y825000D01*
X4780000Y702500D02*
Y757500D01*
X4752500Y730000D02*
X4807500D01*
X7245000Y1175000D02*
Y1365000D01*
Y1175000D02*
X7335000D01*
X7245000Y1365000D02*
X7335000D01*
Y1175000D02*
Y1365000D01*
X7290000Y1242500D02*
Y1297500D01*
X7262500Y1270000D02*
X7317500D01*
X7335000Y1375000D02*
Y1565000D01*
X7245000D02*
X7335000D01*
X7245000Y1375000D02*
X7335000D01*
X7245000D02*
Y1565000D01*
X7290000Y1442500D02*
Y1497500D01*
X7262500Y1470000D02*
X7317500D01*
X7145000Y1375000D02*
Y1565000D01*
Y1375000D02*
X7234999D01*
X7145000Y1565000D02*
X7234999D01*
Y1375000D02*
Y1565000D01*
X7190000Y1442501D02*
Y1497500D01*
X7162500Y1470000D02*
X7217500D01*
X7245000Y1685000D02*
Y1875000D01*
Y1685000D02*
X7335000D01*
X7245000Y1875000D02*
X7335000D01*
Y1685000D02*
Y1875000D01*
X7290000Y1752500D02*
Y1807500D01*
X7262500Y1780000D02*
X7317500D01*
X7234999Y1685000D02*
Y1875000D01*
X7145000D02*
X7234999D01*
X7145000Y1685000D02*
X7234999D01*
X7145000D02*
Y1875000D01*
X7190000Y1752500D02*
Y1807500D01*
X7162500Y1780000D02*
X7217500D01*
X7335000Y1885000D02*
Y2075000D01*
X7245000D02*
X7335000D01*
X7245000Y1885000D02*
X7335000D01*
X7245000D02*
Y2075000D01*
X7290000Y1952500D02*
Y2007500D01*
X7262500Y1980000D02*
X7317500D01*
X7245000Y2165000D02*
Y2355000D01*
Y2165000D02*
X7335000D01*
X7245000Y2355000D02*
X7335000D01*
Y2165000D02*
Y2355000D01*
X7290000Y2232500D02*
Y2287500D01*
X7262500Y2260000D02*
X7317500D01*
X6725000Y2165000D02*
X6915000D01*
Y2255000D01*
X6725000Y2165000D02*
Y2255000D01*
X6915000D01*
X6792500Y2210000D02*
X6847500D01*
X6820000Y2182500D02*
Y2237500D01*
X7335000Y2365000D02*
Y2555000D01*
X7245000D02*
X7335000D01*
X7245000Y2365000D02*
X7335000D01*
X7245000D02*
Y2555000D01*
X7290000Y2432500D02*
Y2487500D01*
X7262500Y2460000D02*
X7317500D01*
X6725000Y2365000D02*
X6915000D01*
Y2455000D01*
X6725000Y2365000D02*
Y2455000D01*
X6915000D01*
X6792500Y2410000D02*
X6847500D01*
X6820000Y2382500D02*
Y2437500D01*
X7245000Y2635000D02*
Y2825000D01*
Y2635000D02*
X7335000D01*
X7245000Y2825000D02*
X7335000D01*
Y2635000D02*
Y2825000D01*
X7290000Y2702500D02*
Y2757500D01*
X7262500Y2730000D02*
X7317500D01*
X6725000Y2645000D02*
X6915000D01*
Y2735000D01*
X6725000Y2645000D02*
Y2735000D01*
X6915000D01*
X6792499Y2690000D02*
X6847499D01*
X6820000Y2662500D02*
Y2717500D01*
X7335000Y2835000D02*
Y3025000D01*
X7245000D02*
X7335000D01*
X7245000Y2835000D02*
X7335000D01*
X7245000D02*
Y3025000D01*
X7290000Y2902500D02*
Y2957500D01*
X7262500Y2930000D02*
X7317500D01*
X6725000Y2835000D02*
X6915000D01*
Y2925000D01*
X6725000Y2835000D02*
Y2925000D01*
X6915000D01*
X6792499Y2880000D02*
X6847499D01*
X6820000Y2852500D02*
Y2907500D01*
X2895000Y2655000D02*
X3085000D01*
Y2745000D01*
X2895000Y2655000D02*
Y2745000D01*
X3085000D01*
X2962500Y2700000D02*
X3017500D01*
X2990000Y2672500D02*
Y2727500D01*
X3535000Y3385000D02*
X3725000D01*
Y3475000D01*
X3535000Y3385000D02*
Y3475000D01*
X3725000D01*
X3602500Y3430000D02*
X3657500D01*
X3630000Y3402500D02*
Y3457500D01*
X3475000Y3485000D02*
X3665000D01*
Y3575000D01*
X3475000Y3485000D02*
Y3575000D01*
X3665000D01*
X3542500Y3530000D02*
X3597500D01*
X3570000Y3502500D02*
Y3557500D01*
X4275000Y3005000D02*
X4465000D01*
X4275000Y2915000D02*
Y3005000D01*
X4465000Y2915000D02*
Y3005000D01*
X4275000Y2915000D02*
X4465000D01*
X4342500Y2960000D02*
X4397500D01*
X4370000Y2932500D02*
Y2987500D01*
X1885000Y1315000D02*
X2075000D01*
Y1405000D01*
X1885000Y1315000D02*
Y1405000D01*
X2075000D01*
X1952500Y1360000D02*
X2007500D01*
X1980000Y1332500D02*
Y1387500D01*
X3525000Y3625000D02*
X3715000D01*
Y3715000D01*
X3525000Y3625000D02*
Y3715000D01*
X3715000D01*
X3592500Y3670000D02*
X3647500D01*
X3620000Y3642500D02*
Y3697500D01*
X6565000Y3235000D02*
X6755000D01*
X6565000Y3145000D02*
Y3235000D01*
X6755000Y3145000D02*
Y3235000D01*
X6565000Y3145000D02*
X6755000D01*
X6632500Y3190000D02*
X6687500D01*
X6660000Y3162500D02*
Y3217500D01*
X3945000Y2655000D02*
X4135000D01*
Y2745000D01*
X3945000Y2655000D02*
Y2745000D01*
X4135000D01*
X4012500Y2700000D02*
X4067500D01*
X4040000Y2672500D02*
Y2727500D01*
X2350000Y3190000D02*
X2450000D01*
X2400000Y3140000D02*
Y3240000D01*
X2300000Y2974161D02*
X2500000D01*
Y3405132D01*
X2300000Y2974161D02*
Y3405132D01*
X2500000D01*
X2765000Y3645000D02*
X2955000D01*
Y3735000D01*
X2765000Y3645000D02*
Y3735000D01*
X2955000D01*
X2832500Y3690000D02*
X2887500D01*
X2860000Y3662500D02*
Y3717500D01*
X2935000Y4295000D02*
X3125000D01*
Y4385000D01*
X2935000Y4295000D02*
Y4385000D01*
X3125000D01*
X3002500Y4340000D02*
X3057500D01*
X3030000Y4312500D02*
Y4367500D01*
X6055000Y4385000D02*
X6245000D01*
X6055000Y4295000D02*
Y4385000D01*
X6245000Y4295000D02*
Y4385000D01*
X6055000Y4295000D02*
X6245000D01*
X6122500Y4340000D02*
X6177500D01*
X6150000Y4312500D02*
Y4367500D01*
X4445000Y3845000D02*
Y4035000D01*
X4355000D02*
X4445000D01*
X4355000Y3845000D02*
X4445000D01*
X4355000D02*
Y4035000D01*
X4400000Y3912500D02*
Y3967500D01*
X4372500Y3940000D02*
X4427500D01*
X3135000Y3845000D02*
X3325000D01*
X3135000Y3755000D02*
Y3845000D01*
X3325000Y3755000D02*
Y3845000D01*
X3135000Y3755000D02*
X3325000D01*
X3202500Y3800000D02*
X3257500D01*
X3230000Y3772500D02*
Y3827500D01*
X2835000Y4195000D02*
Y4385000D01*
Y4195000D02*
X2925000D01*
X2835000Y4385000D02*
X2925000D01*
Y4195000D02*
Y4385000D01*
X2880000Y4262500D02*
Y4317500D01*
X2852500Y4290000D02*
X2907500D01*
X3515000Y3795000D02*
Y3985000D01*
X3425000D02*
X3515000D01*
X3425000Y3795000D02*
X3515000D01*
X3425000D02*
Y3985000D01*
X3470000Y3862500D02*
Y3917500D01*
X3442500Y3890000D02*
X3497500D01*
X4275000Y2655000D02*
X4465000D01*
Y2745000D01*
X4275000Y2655000D02*
Y2745000D01*
X4465000D01*
X4342500Y2700000D02*
X4397500D01*
X4370000Y2672500D02*
Y2727500D01*
X6095000Y3785000D02*
X6285000D01*
X6095000Y3695000D02*
Y3785000D01*
X6285000Y3695000D02*
Y3785000D01*
X6095000Y3695000D02*
X6285000D01*
X6162500Y3740000D02*
X6217500D01*
X6190000Y3712500D02*
Y3767500D01*
X4645000Y3045000D02*
X4835000D01*
X4645000Y2955000D02*
Y3045000D01*
X4835000Y2955000D02*
Y3045000D01*
X4645000Y2955000D02*
X4835000D01*
X4712500Y3000000D02*
X4767500D01*
X4740000Y2972500D02*
Y3027500D01*
X5475000Y3245000D02*
X5665000D01*
Y3335000D01*
X5475000Y3245000D02*
Y3335000D01*
X5665000D01*
X5542500Y3290000D02*
X5597500D01*
X5570000Y3262500D02*
Y3317500D01*
X6160000Y3930000D02*
Y4030000D01*
X6110000Y3980000D02*
X6210000D01*
X6375839Y3880000D02*
Y4080000D01*
X5944868D02*
X6375839D01*
X5944868Y3880000D02*
X6375839D01*
X5944868D02*
Y4080000D01*
X5445000Y3385000D02*
Y3575000D01*
Y3385000D02*
X5535000D01*
X5445000Y3575000D02*
X5535000D01*
Y3385000D02*
Y3575000D01*
X5490000Y3452500D02*
Y3507500D01*
X5462500Y3480000D02*
X5517500D01*
X4655000Y4185000D02*
X4845000D01*
Y4275000D01*
X4655000Y4185000D02*
Y4275000D01*
X4845000D01*
X4722500Y4230000D02*
X4777500D01*
X4750000Y4202500D02*
Y4257500D01*
X4645000Y3175000D02*
X4835000D01*
X4645000Y3085000D02*
Y3175000D01*
X4835000Y3085000D02*
Y3175000D01*
X4645000Y3085000D02*
X4835000D01*
X4712500Y3130000D02*
X4767500D01*
X4740000Y3102500D02*
Y3157500D01*
X5535000Y3645000D02*
Y3835000D01*
X5445000D02*
X5535000D01*
X5445000Y3645000D02*
X5535000D01*
X5445000D02*
Y3835000D01*
X5490000Y3712500D02*
Y3767500D01*
X5462500Y3740000D02*
X5517500D01*
X4765000Y3435000D02*
Y3625000D01*
X4675000D02*
X4765000D01*
X4675000Y3435000D02*
X4765000D01*
X4675000D02*
Y3625000D01*
X4720000Y3502500D02*
Y3557500D01*
X4692500Y3530000D02*
X4747500D01*
X4915000Y4285000D02*
X5105000D01*
X4915000Y4195000D02*
Y4285000D01*
X5105000Y4195000D02*
Y4285000D01*
X4915000Y4195000D02*
X5105000D01*
X4982500Y4240000D02*
X5037500D01*
X5010000Y4212500D02*
Y4267500D01*
X5325000Y3965000D02*
X5515000D01*
Y4055000D01*
X5325000Y3965000D02*
Y4055000D01*
X5515000D01*
X5392500Y4010000D02*
X5447500D01*
X5420000Y3982500D02*
Y4037500D01*
X5525000Y4055000D02*
X5715000D01*
X5525000Y3965000D02*
Y4055000D01*
X5715000Y3965000D02*
Y4055000D01*
X5525000Y3965000D02*
X5715000D01*
X5592500Y4010000D02*
X5647500D01*
X5620000Y3982500D02*
Y4037500D01*
X1585731Y1864268D02*
X1590000Y1860000D01*
X1595000Y955000D02*
X1745000D01*
X1590000Y1860000D02*
X1745000D01*
X1030000Y955000D02*
X1595000D01*
X1030000Y1864268D02*
X1585731D01*
X1030000Y955000D02*
Y1864268D01*
X1745000Y955000D02*
Y1860000D01*
X1630000Y1135000D02*
X1730000D01*
X1680000Y1085000D02*
Y1185000D01*
X1660000Y1580000D02*
Y1680000D01*
X1610000Y1630000D02*
X1710000D01*
X1770000Y955000D02*
Y1855000D01*
X1120000Y955000D02*
Y1855000D01*
Y955000D02*
X1620000D01*
X1120000Y1855000D02*
X1620000D01*
Y955000D02*
X1770000D01*
X1620000Y1855000D02*
X1770000D01*
X2595000Y2465000D02*
Y2565000D01*
X2545000Y2515000D02*
X2645000D01*
X4505000Y2465000D02*
Y2565000D01*
X4455000Y2515000D02*
X4555000D01*
X3514998Y1020001D02*
Y1120001D01*
X3464998Y1070001D02*
X3564998D01*
X3304998Y910001D02*
X3724998D01*
X3304998Y1230001D02*
X3724998D01*
Y910001D02*
Y1230001D01*
X3304998Y910001D02*
Y1230001D01*
X2920000Y1160000D02*
X3020000D01*
X2970000Y1110000D02*
Y1210000D01*
X2810000Y950000D02*
Y1370000D01*
X3130000Y950000D02*
Y1370000D01*
X2810000Y950000D02*
X3130000D01*
X2810000Y1370000D02*
X3130000D01*
X2920000Y1580000D02*
X3020000D01*
X2970000Y1530000D02*
Y1630000D01*
X3130000Y1370000D02*
Y1790000D01*
X2810000Y1370000D02*
Y1790000D01*
X3130000D01*
X2810000Y1370000D02*
X3130000D01*
X5200000Y1430000D02*
Y1530000D01*
X5150000Y1480000D02*
X5250000D01*
X4990000Y1640000D02*
X5410000D01*
X4990000Y1320000D02*
X5410000D01*
X4990000D02*
Y1640000D01*
X5410000Y1320000D02*
Y1640000D01*
X2560000Y1160000D02*
X2660000D01*
X2610000Y1110000D02*
Y1210000D01*
X2770000Y950000D02*
Y1370000D01*
X2450000Y950000D02*
Y1370000D01*
X2770000D01*
X2450000Y950000D02*
X2770000D01*
X2555000Y655000D02*
Y925000D01*
X2425000Y655000D02*
X2555000D01*
X2425000Y925000D02*
X2555000D01*
X2445000Y790000D02*
X2535000D01*
X2490000Y745000D02*
Y835000D01*
X2425000Y655000D02*
Y925000D01*
X2175000Y655000D02*
Y925000D01*
X2305000D01*
X2175000Y655000D02*
X2305000D01*
X2195000Y790000D02*
X2285000D01*
X2240000Y745000D02*
Y835000D01*
X2305000Y655000D02*
Y925000D01*
X7664449Y1660000D02*
X7744449D01*
X7664449Y1580000D02*
Y1660000D01*
X7665000Y1540000D02*
Y1619725D01*
X7705275Y1660000D01*
X7933982D01*
X7800000Y1555000D02*
Y1645000D01*
X7755000Y1600000D02*
X7845000D01*
X7665000Y1540000D02*
X7933982D01*
Y1660000D01*
X7664449Y3420000D02*
X7744449D01*
X7664449Y3340000D02*
Y3420000D01*
X7665000Y3300000D02*
Y3379725D01*
X7705275Y3420000D01*
X7933982D01*
X7800000Y3315000D02*
Y3405000D01*
X7755000Y3360000D02*
X7845000D01*
X7665000Y3300000D02*
X7933982D01*
Y3420000D01*
X2590000Y2100000D02*
X2690000D01*
X2640000Y2050000D02*
Y2150000D01*
X2690000Y1980000D02*
Y2217500D01*
X2590000D02*
X2690000D01*
X2590000Y2019326D02*
Y2217500D01*
Y2019326D02*
X2629326Y1980000D01*
X2690000D01*
X2590000D02*
Y2060000D01*
Y1980000D02*
X2670000D01*
X2784449Y2100000D02*
X2864449D01*
X2784449Y2020000D02*
Y2100000D01*
X2785000Y1980000D02*
Y2059725D01*
X2825275Y2100000D01*
X3053982D01*
X2920000Y1995000D02*
Y2085000D01*
X2875000Y2040000D02*
X2965000D01*
X2785000Y1980000D02*
X3053982D01*
Y2100000D01*
X5490000Y1070000D02*
X5590000D01*
X5540000Y1020000D02*
Y1120000D01*
X5490000Y952500D02*
Y1190000D01*
Y952500D02*
X5590000D01*
Y1150674D01*
X5550674Y1190000D02*
X5590000Y1150674D01*
X5490000Y1190000D02*
X5550674D01*
X5590000Y1110000D02*
Y1190000D01*
X5510000D02*
X5590000D01*
X4880000Y1470000D02*
X4980000D01*
X4930000Y1420000D02*
Y1520000D01*
X4980000Y1350000D02*
Y1587500D01*
X4880000D02*
X4980000D01*
X4880000Y1389326D02*
Y1587500D01*
Y1389326D02*
X4919326Y1350000D01*
X4980000D01*
X4880000D02*
Y1430000D01*
Y1350000D02*
X4960000D01*
X2110000Y1440000D02*
X2210000D01*
X2160000Y1390000D02*
Y1490000D01*
X2210000Y1320000D02*
Y1557500D01*
X2110000D02*
X2210000D01*
X2110000Y1359326D02*
Y1557500D01*
Y1359326D02*
X2149326Y1320000D01*
X2210000D01*
X2110000D02*
Y1400000D01*
Y1320000D02*
X2190000D01*
X4834449Y4760000D02*
X4914449D01*
X4834449Y4680000D02*
Y4760000D01*
X4835000Y4640000D02*
Y4719725D01*
X4875275Y4760000D01*
X5103982D01*
X4970000Y4655000D02*
Y4745000D01*
X4925000Y4700000D02*
X5015000D01*
X4835000Y4640000D02*
X5103982D01*
Y4760000D01*
X2974449D02*
X3054449D01*
X2974449Y4680000D02*
Y4760000D01*
X2975000Y4640000D02*
Y4719725D01*
X3015275Y4760000D01*
X3243982D01*
X3110000Y4655000D02*
Y4745000D01*
X3065000Y4700000D02*
X3155000D01*
X2975000Y4640000D02*
X3243982D01*
Y4760000D01*
X4485000D02*
X4565000D01*
X4485000Y4680000D02*
Y4760000D01*
X4620000Y4655000D02*
Y4745000D01*
X4575000Y4700000D02*
X4665000D01*
X4485000Y4640000D02*
X4755000D01*
Y4760000D01*
X4525405D02*
X4755000D01*
X4485000Y4719595D02*
X4525405Y4760000D01*
X4485000Y4640000D02*
Y4719595D01*
X2625000Y4760000D02*
X2705000D01*
X2625000Y4680000D02*
Y4760000D01*
X2760000Y4655000D02*
Y4745000D01*
X2715000Y4700000D02*
X2805000D01*
X2625000Y4640000D02*
X2895000D01*
Y4760000D01*
X2665405D02*
X2895000D01*
X2625000Y4719595D02*
X2665405Y4760000D01*
X2625000Y4640000D02*
Y4719595D01*
X7665000Y2160000D02*
X7745000D01*
X7665000Y2080000D02*
Y2160000D01*
X7800000Y2055000D02*
Y2145000D01*
X7755000Y2100000D02*
X7845000D01*
X7665000Y2040000D02*
X7935000D01*
Y2160000D01*
X7705405D02*
X7935000D01*
X7665000Y2119595D02*
X7705405Y2160000D01*
X7665000Y2040000D02*
Y2119595D01*
Y3920000D02*
X7745000D01*
X7665000Y3840000D02*
Y3920000D01*
X7800000Y3815000D02*
Y3905000D01*
X7755000Y3860000D02*
X7845000D01*
X7665000Y3800000D02*
X7935000D01*
Y3920000D01*
X7705405D02*
X7935000D01*
X7665000Y3879594D02*
X7705405Y3920000D01*
X7665000Y3800000D02*
Y3879594D01*
X2295000Y3470000D02*
Y3550000D01*
Y3470000D02*
X2375000D01*
X2350459D02*
X2505000D01*
X2295000Y3525459D02*
X2350459Y3470000D01*
X2295000Y3525459D02*
Y3910000D01*
X2350000Y3690000D02*
X2450000D01*
X2400000Y3640000D02*
Y3740000D01*
X2505000Y3470000D02*
Y3910000D01*
X2295000D02*
X2505000D01*
X2265000Y2654936D02*
X2455000Y2655180D01*
X2265000Y2565364D02*
X2455000Y2564903D01*
X2332500Y2610000D02*
X2387500D01*
X2360000Y2582500D02*
Y2637500D01*
X2265000Y2565364D02*
Y2654936D01*
X2455000Y2564903D02*
Y2655180D01*
X3160000Y1095000D02*
X3280000D01*
X3160000Y1365000D02*
X3280000D01*
X3160000Y1095000D02*
Y1365000D01*
X3280000Y1095000D02*
Y1365000D01*
X3220000Y1187500D02*
Y1272500D01*
X3177500Y1230000D02*
X3262500D01*
X3170000Y3395000D02*
X3290000D01*
X3170000Y3125000D02*
X3290000D01*
Y3395000D01*
X3170000Y3125000D02*
Y3395000D01*
X3230000Y3217500D02*
Y3302500D01*
X3187500Y3260000D02*
X3272500D01*
X5814936Y4385000D02*
X5815180Y4195000D01*
X5724903D02*
X5725364Y4385000D01*
X5770000Y4262500D02*
Y4317500D01*
X5742500Y4290000D02*
X5797500D01*
X5725364Y4385000D02*
X5814936D01*
X5724903Y4195000D02*
X5815180D01*
X6284821Y4385000D02*
X6285064Y4195000D01*
X6374636D02*
X6375097Y4385000D01*
X6330000Y4262500D02*
Y4317500D01*
X6302500Y4290000D02*
X6357500D01*
X6285064Y4195000D02*
X6374636D01*
X6284821Y4385000D02*
X6375097D01*
X5724820Y4185000D02*
X5725064Y3995000D01*
X5814636D02*
X5815097Y4185000D01*
X5770000Y4062500D02*
Y4117500D01*
X5742500Y4090000D02*
X5797500D01*
X5725064Y3995000D02*
X5814636D01*
X5724820Y4185000D02*
X5815097D01*
X4260000Y1600000D02*
X4360000D01*
X4310000Y1550000D02*
Y1650000D01*
X4205000Y1380000D02*
Y1820000D01*
X4415000Y1380000D02*
Y1820000D01*
X4205000Y1380000D02*
X4415000D01*
X4205000Y1820000D02*
X4415000D01*
X4480000Y1150000D02*
X4580000D01*
X4530000Y1100000D02*
Y1200000D01*
X4635000Y930000D02*
Y1370000D01*
X4425000Y930000D02*
Y1370000D01*
X4635000D01*
X4425000Y930000D02*
X4635000D01*
X5884821Y3205000D02*
X5885064Y3015000D01*
X5974637D02*
X5975097Y3205000D01*
X5930000Y3082500D02*
Y3137500D01*
X5902500Y3110000D02*
X5957500D01*
X5885064Y3015000D02*
X5974637D01*
X5884821Y3205000D02*
X5975097D01*
X2824936Y4385000D02*
X2825180Y4195000D01*
X2734903D02*
X2735364Y4385000D01*
X2780000Y4262500D02*
Y4317500D01*
X2752500Y4290000D02*
X2807500D01*
X2735364Y4385000D02*
X2824936D01*
X2734903Y4195000D02*
X2825180D01*
X3865000Y3734821D02*
X4055000Y3735064D01*
X3865000Y3825097D02*
X4055000Y3824636D01*
X3932500Y3780000D02*
X3987500D01*
X3960000Y3752500D02*
Y3807500D01*
X4055000Y3735064D02*
Y3824636D01*
X3865000Y3734821D02*
Y3825097D01*
X5344821Y3575000D02*
X5345064Y3385000D01*
X5434637D02*
X5435097Y3575000D01*
X5390000Y3452500D02*
Y3507500D01*
X5362500Y3480000D02*
X5417500D01*
X5345064Y3385000D02*
X5434637D01*
X5344821Y3575000D02*
X5435097D01*
X3745000Y2744936D02*
X3935000Y2745179D01*
X3745000Y2655363D02*
X3935000Y2654903D01*
X3812500Y2700000D02*
X3867500D01*
X3840000Y2672500D02*
Y2727500D01*
X3745000Y2655363D02*
Y2744936D01*
X3935000Y2654903D02*
Y2745179D01*
X5775000Y1164936D02*
X5965000Y1165180D01*
X5775000Y1075364D02*
X5965000Y1074903D01*
X5842500Y1120000D02*
X5897500D01*
X5870000Y1092500D02*
Y1147500D01*
X5775000Y1075364D02*
Y1164936D01*
X5965000Y1074903D02*
Y1165180D01*
X5775000Y1274936D02*
X5965000Y1275180D01*
X5775000Y1185364D02*
X5965000Y1184903D01*
X5842500Y1230000D02*
X5897500D01*
X5870000Y1202500D02*
Y1257500D01*
X5775000Y1185364D02*
Y1274936D01*
X5965000Y1184903D02*
Y1275180D01*
X6225000Y1074936D02*
X6415000Y1075179D01*
X6225000Y985364D02*
X6415000Y984903D01*
X6292500Y1030000D02*
X6347500D01*
X6320000Y1002500D02*
Y1057500D01*
X6225000Y985364D02*
Y1074936D01*
X6415000Y984903D02*
Y1075179D01*
X6994936Y4825000D02*
X6995180Y4635000D01*
X6904903D02*
X6905364Y4825000D01*
X6950000Y4702500D02*
Y4757500D01*
X6922500Y4730000D02*
X6977500D01*
X6905364Y4825000D02*
X6994936D01*
X6904903Y4635000D02*
X6995180D01*
X6924999Y1564936D02*
X7114999Y1565180D01*
X6924999Y1475364D02*
X7114999Y1474903D01*
X6992500Y1520000D02*
X7047499D01*
X7019999Y1492500D02*
Y1547500D01*
X6924999Y1475364D02*
Y1564936D01*
X7114999Y1474903D02*
Y1565180D01*
X6155000Y2164936D02*
X6345000Y2165180D01*
X6155000Y2075364D02*
X6345000Y2074903D01*
X6222500Y2120000D02*
X6277500D01*
X6250000Y2092500D02*
Y2147500D01*
X6155000Y2075364D02*
Y2164936D01*
X6345000Y2074903D02*
Y2165180D01*
X4915000Y4384936D02*
X5105000Y4385179D01*
X4915000Y4295364D02*
X5105000Y4294903D01*
X4982500Y4340000D02*
X5037500D01*
X5010000Y4312500D02*
Y4367500D01*
X4915000Y4295364D02*
Y4384936D01*
X5105000Y4294903D02*
Y4385179D01*
X2634820Y1965000D02*
X2635064Y1775000D01*
X2724636D02*
X2725097Y1965000D01*
X2680000Y1842500D02*
Y1897500D01*
X2652500Y1870000D02*
X2707500D01*
X2635064Y1775000D02*
X2724636D01*
X2634820Y1965000D02*
X2725097D01*
X6925000Y2554935D02*
X7115000Y2555179D01*
X6925000Y2465363D02*
X7115000Y2464903D01*
X6992500Y2510000D02*
X7047500D01*
X7020000Y2482500D02*
Y2537500D01*
X6925000Y2465363D02*
Y2554935D01*
X7115000Y2464903D02*
Y2555179D01*
X6225000Y1484821D02*
X6415000Y1485065D01*
X6225000Y1575097D02*
X6415000Y1574637D01*
X6292500Y1530000D02*
X6347500D01*
X6320000Y1502500D02*
Y1557500D01*
X6415000Y1485065D02*
Y1574637D01*
X6225000Y1484821D02*
Y1575097D01*
X7285000Y4824936D02*
X7475000Y4825180D01*
X7285000Y4735364D02*
X7475000Y4734903D01*
X7352500Y4780000D02*
X7407500D01*
X7380000Y4752500D02*
Y4807500D01*
X7285000Y4735364D02*
Y4824936D01*
X7475000Y4734903D02*
Y4825180D01*
X7024821Y3955000D02*
X7025064Y3765000D01*
X7114637D02*
X7115097Y3955000D01*
X7070000Y3832500D02*
Y3887500D01*
X7042500Y3860000D02*
X7097500D01*
X7025064Y3765000D02*
X7114637D01*
X7024821Y3955000D02*
X7115097D01*
X6604820Y3945000D02*
X6605064Y3755000D01*
X6694636D02*
X6695097Y3945000D01*
X6650000Y3822500D02*
Y3877500D01*
X6622500Y3850000D02*
X6677500D01*
X6605064Y3755000D02*
X6694636D01*
X6604820Y3945000D02*
X6695097D01*
X7435000Y2614936D02*
X7625000Y2615179D01*
X7435000Y2525364D02*
X7625000Y2524903D01*
X7502500Y2570000D02*
X7557500D01*
X7530000Y2542500D02*
Y2597500D01*
X7435000Y2525364D02*
Y2614936D01*
X7625000Y2524903D02*
Y2615179D01*
X6615000Y1174936D02*
X6805000Y1175180D01*
X6615000Y1085364D02*
X6805000Y1084903D01*
X6682500Y1130000D02*
X6737500D01*
X6710000Y1102500D02*
Y1157500D01*
X6615000Y1085364D02*
Y1174936D01*
X6805000Y1084903D02*
Y1175180D01*
X7435000Y1624936D02*
X7625000Y1625180D01*
X7435000Y1535364D02*
X7625000Y1534903D01*
X7502500Y1580000D02*
X7557500D01*
X7530000Y1552500D02*
Y1607500D01*
X7435000Y1535364D02*
Y1624936D01*
X7625000Y1534903D02*
Y1625180D01*
X7415000Y3074936D02*
X7605000Y3075180D01*
X7415000Y2985364D02*
X7605000Y2984903D01*
X7482500Y3030000D02*
X7537500D01*
X7510000Y3002500D02*
Y3057500D01*
X7415000Y2985364D02*
Y3074936D01*
X7605000Y2984903D02*
Y3075180D01*
X7555000Y1094936D02*
X7745000Y1095179D01*
X7555000Y1005363D02*
X7745000Y1004903D01*
X7622500Y1050000D02*
X7677500D01*
X7650000Y1022500D02*
Y1077500D01*
X7555000Y1005363D02*
Y1094936D01*
X7745000Y1004903D02*
Y1095179D01*
X7974936Y3235000D02*
X7975179Y3045000D01*
X7884903D02*
X7885363Y3235000D01*
X7930000Y3112500D02*
Y3167500D01*
X7902500Y3140000D02*
X7957500D01*
X7885363Y3235000D02*
X7974936D01*
X7884903Y3045000D02*
X7975179D01*
X8225000Y2624936D02*
X8415000Y2625179D01*
X8225000Y2535363D02*
X8415000Y2534903D01*
X8292500Y2580000D02*
X8347500D01*
X8320000Y2552500D02*
Y2607500D01*
X8225000Y2535363D02*
Y2624936D01*
X8415000Y2534903D02*
Y2625179D01*
X7934936Y465000D02*
X7935179Y275000D01*
X7844903D02*
X7845364Y465000D01*
X7890000Y342500D02*
Y397500D01*
X7862500Y370000D02*
X7917500D01*
X7845364Y465000D02*
X7934936D01*
X7844903Y275000D02*
X7935179D01*
X7954936Y5115000D02*
X7955179Y4925000D01*
X7864903D02*
X7865363Y5115000D01*
X7910000Y4992500D02*
Y5047500D01*
X7882500Y5020000D02*
X7937500D01*
X7865363Y5115000D02*
X7954936D01*
X7864903Y4925000D02*
X7955179D01*
X3165000Y1660000D02*
Y1780000D01*
X3435000Y1660000D02*
Y1780000D01*
X3165000D02*
X3435000D01*
X3165000Y1660000D02*
X3435000D01*
X3257500Y1720000D02*
X3342500D01*
X3300000Y1677500D02*
Y1762500D01*
X4260000Y1150000D02*
X4360000D01*
X4310000Y1100000D02*
Y1200000D01*
X4415000Y930000D02*
Y1370000D01*
X4205000Y930000D02*
Y1370000D01*
X4415000D01*
X4205000Y930000D02*
X4415000D01*
X4015000Y850000D02*
Y970000D01*
X3745000Y850000D02*
Y970000D01*
Y850000D02*
X4015000D01*
X3745000Y970000D02*
X4015000D01*
X3837500Y910000D02*
X3922500D01*
X3880000Y867500D02*
Y952500D01*
X3960000Y1020000D02*
Y1120000D01*
X3910000Y1070000D02*
X4010000D01*
X3740000Y1175000D02*
X4180000D01*
X3740000Y965000D02*
X4180000D01*
X3740000D02*
Y1175000D01*
X4180000Y965000D02*
Y1175000D01*
X3265000Y2764936D02*
X3455000Y2765179D01*
X3265000Y2675363D02*
X3455000Y2674903D01*
X3332500Y2720000D02*
X3387500D01*
X3360000Y2692500D02*
Y2747500D01*
X3265000Y2675363D02*
Y2764936D01*
X3455000Y2674903D02*
Y2765179D01*
X4480000Y1600000D02*
X4580000D01*
X4530000Y1550000D02*
Y1650000D01*
X4425000Y1380000D02*
Y1820000D01*
X4635000Y1380000D02*
Y1820000D01*
X4425000Y1380000D02*
X4635000D01*
X4425000Y1820000D02*
X4635000D01*
X3445000Y1710000D02*
Y1830000D01*
X3715000Y1710000D02*
Y1830000D01*
X3445000D02*
X3715000D01*
X3445000Y1710000D02*
X3715000D01*
X3537500Y1770000D02*
X3622500D01*
X3580000Y1727500D02*
Y1812500D01*
X3980000Y1690000D02*
Y1790000D01*
X3930000Y1740000D02*
X4030000D01*
X3760000Y1845000D02*
X4200000D01*
X3760000Y1635000D02*
X4200000D01*
X3760000D02*
Y1845000D01*
X4200000Y1635000D02*
Y1845000D01*
X5870000Y3755000D02*
X5990000D01*
X5870000Y3485000D02*
X5990000D01*
Y3755000D01*
X5870000Y3485000D02*
Y3755000D01*
X5930000Y3577501D02*
Y3662500D01*
X5887500Y3620000D02*
X5972500D01*
X3515000Y1704936D02*
X3705000Y1705179D01*
X3515000Y1615364D02*
X3705000Y1614903D01*
X3582500Y1660000D02*
X3637500D01*
X3610000Y1632500D02*
Y1687500D01*
X3515000Y1615364D02*
Y1704936D01*
X3705000Y1614903D02*
Y1705179D01*
X3160000Y1655000D02*
X3280000D01*
X3160000Y1385000D02*
X3280000D01*
Y1655000D01*
X3160000Y1385000D02*
Y1655000D01*
X3220000Y1477500D02*
Y1562500D01*
X3177500Y1520000D02*
X3262500D01*
X3794820Y1365000D02*
X3795064Y1175000D01*
X3884636D02*
X3885097Y1365000D01*
X3840000Y1242500D02*
Y1297500D01*
X3812500Y1270000D02*
X3867500D01*
X3795064Y1175000D02*
X3884636D01*
X3794820Y1365000D02*
X3885097D01*
X5745000Y3384821D02*
X5935000Y3385064D01*
X5745000Y3475097D02*
X5935000Y3474636D01*
X5812500Y3430000D02*
X5867500D01*
X5840000Y3402500D02*
Y3457500D01*
X5935000Y3385064D02*
Y3474636D01*
X5745000Y3384821D02*
Y3475097D01*
X4084936Y1365000D02*
X4085180Y1175000D01*
X3994903D02*
X3995364Y1365000D01*
X4040000Y1242500D02*
Y1297500D01*
X4012500Y1270000D02*
X4067500D01*
X3995364Y1365000D02*
X4084936D01*
X3994903Y1175000D02*
X4085180D01*
X5655000Y1200000D02*
Y1320000D01*
X5385000Y1200000D02*
Y1320000D01*
Y1200000D02*
X5655000D01*
X5385000Y1320000D02*
X5655000D01*
X5477500Y1260000D02*
X5562500D01*
X5520000Y1217500D02*
Y1302500D01*
X2580000Y1430000D02*
Y1530000D01*
X2530000Y1480000D02*
X2630000D01*
X2360000Y1375000D02*
X2800000D01*
X2360000Y1585000D02*
X2800000D01*
Y1375000D02*
Y1585000D01*
X2360000Y1375000D02*
Y1585000D01*
X2800000Y770000D02*
Y870000D01*
X2750000Y820000D02*
X2850000D01*
X2580000Y925000D02*
X3020000D01*
X2580000Y715000D02*
X3020000D01*
X2580000D02*
Y925000D01*
X3020000Y715000D02*
Y925000D01*
X6924999Y3024936D02*
X7114999Y3025179D01*
X6924999Y2935363D02*
X7114999Y2934903D01*
X6992500Y2980000D02*
X7047499D01*
X7019999Y2952500D02*
Y3007500D01*
X6924999Y2935363D02*
Y3024936D01*
X7114999Y2934903D02*
Y3025179D01*
X2745000Y3414936D02*
X2935000Y3415180D01*
X2745000Y3325364D02*
X2935000Y3324903D01*
X2812500Y3370000D02*
X2867500D01*
X2840000Y3342500D02*
Y3397500D01*
X2745000Y3325364D02*
Y3414936D01*
X2935000Y3324903D02*
Y3415180D01*
X4194936Y1495000D02*
X4195180Y1305000D01*
X4104903D02*
X4105364Y1495000D01*
X4150000Y1372500D02*
Y1427500D01*
X4122500Y1400000D02*
X4177500D01*
X4105364Y1495000D02*
X4194936D01*
X4104903Y1305000D02*
X4195180D01*
X4250000Y2295000D02*
X4370000D01*
X4250000Y2025000D02*
X4370000D01*
Y2295000D01*
X4250000Y2025000D02*
Y2295000D01*
X4310000Y2117500D02*
Y2202500D01*
X4267500Y2160000D02*
X4352500D01*
X3685000Y2414936D02*
X3875000Y2415180D01*
X3685000Y2325364D02*
X3875000Y2324903D01*
X3752500Y2370000D02*
X3807500D01*
X3780000Y2342500D02*
Y2397500D01*
X3685000Y2325364D02*
Y2414936D01*
X3875000Y2324903D02*
Y2415180D01*
X4320000Y4555000D02*
X4440000D01*
X4320000Y4825000D02*
X4440000D01*
X4320000Y4555000D02*
Y4825000D01*
X4440000Y4555000D02*
Y4825000D01*
X4380000Y4647500D02*
Y4732500D01*
X4337500Y4690000D02*
X4422500D01*
X3550000Y2205000D02*
X3670000D01*
X3550000Y1935000D02*
X3670000D01*
Y2205000D01*
X3550000Y1935000D02*
Y2205000D01*
X3610000Y2027500D02*
Y2112500D01*
X3567500Y2070000D02*
X3652500D01*
X4694936Y2245000D02*
X4695180Y2055000D01*
X4604903D02*
X4605364Y2245000D01*
X4650000Y2122500D02*
Y2177500D01*
X4622500Y2150000D02*
X4677500D01*
X4605364Y2245000D02*
X4694936D01*
X4604903Y2055000D02*
X4695180D01*
X5420000Y1595000D02*
X5540000D01*
X5420000Y1325000D02*
X5540000D01*
Y1595000D01*
X5420000Y1325000D02*
Y1595000D01*
X5480000Y1417500D02*
Y1502500D01*
X5437500Y1460000D02*
X5522500D01*
X5384821Y1175000D02*
X5385064Y985000D01*
X5474636D02*
X5475097Y1175000D01*
X5430000Y1052500D02*
Y1107500D01*
X5402500Y1080000D02*
X5457500D01*
X5385064Y985000D02*
X5474636D01*
X5384821Y1175000D02*
X5475097D01*
X4750000Y1755000D02*
X4870000D01*
X4750000Y1485000D02*
X4870000D01*
Y1755000D01*
X4750000Y1485000D02*
Y1755000D01*
X4810000Y1577500D02*
Y1662500D01*
X4767500Y1620000D02*
X4852500D01*
X5320000Y2290000D02*
Y2390000D01*
X5270000Y2340000D02*
X5370000D01*
X5100000Y2235000D02*
X5540000D01*
X5100000Y2445000D02*
X5540000D01*
Y2235000D02*
Y2445000D01*
X5100000Y2235000D02*
Y2445000D01*
X5180000Y3580000D02*
X5280000D01*
X5230000Y3530000D02*
Y3630000D01*
X5335000Y3360000D02*
Y3800000D01*
X5125000Y3360000D02*
Y3800000D01*
X5335000D01*
X5125000Y3360000D02*
X5335000D01*
X5370000Y2185000D02*
X5490000D01*
X5370000Y1915000D02*
X5490000D01*
Y2185000D01*
X5370000Y1915000D02*
Y2185000D01*
X5430000Y2007500D02*
Y2092500D01*
X5387500Y2050000D02*
X5472500D01*
X5364936Y2105000D02*
X5365180Y1915000D01*
X5274903D02*
X5275364Y2105000D01*
X5320000Y1982500D02*
Y2037500D01*
X5292500Y2010000D02*
X5347500D01*
X5275364Y2105000D02*
X5364936D01*
X5274903Y1915000D02*
X5365180D01*
X4694936Y2045000D02*
X4695180Y1855000D01*
X4604903D02*
X4605364Y2045000D01*
X4650000Y1922500D02*
Y1977500D01*
X4622500Y1950000D02*
X4677500D01*
X4605364Y2045000D02*
X4694936D01*
X4604903Y1855000D02*
X4695180D01*
X3614821Y4815000D02*
X3615064Y4625000D01*
X3704636D02*
X3705097Y4815000D01*
X3660000Y4692500D02*
Y4747500D01*
X3632500Y4720000D02*
X3687500D01*
X3615064Y4625000D02*
X3704636D01*
X3614821Y4815000D02*
X3705097D01*
X4450000Y2080000D02*
X4550000D01*
X4500000Y2030000D02*
Y2130000D01*
X4395000Y1860000D02*
Y2300000D01*
X4605000Y1860000D02*
Y2300000D01*
X4395000Y1860000D02*
X4605000D01*
X4395000Y2300000D02*
X4605000D01*
X4720000Y1150000D02*
X4820000D01*
X4770000Y1100000D02*
Y1200000D01*
X4875000Y930000D02*
Y1370000D01*
X4665000Y930000D02*
Y1370000D01*
X4875000D01*
X4665000Y930000D02*
X4875000D01*
X4655000Y1474936D02*
X4845000Y1475179D01*
X4655000Y1385363D02*
X4845000Y1384903D01*
X4722500Y1430000D02*
X4777500D01*
X4750000Y1402500D02*
Y1457500D01*
X4655000Y1385363D02*
Y1474936D01*
X4845000Y1384903D02*
Y1475179D01*
X1945000Y1094935D02*
X2135000Y1095179D01*
X1945000Y1005363D02*
X2135000Y1004903D01*
X2012500Y1050000D02*
X2067500D01*
X2040000Y1022500D02*
Y1077499D01*
X1945000Y1005363D02*
Y1094935D01*
X2135000Y1004903D02*
Y1095179D01*
X2674936Y2425000D02*
X2675180Y2235000D01*
X2584903D02*
X2585364Y2425000D01*
X2630000Y2302500D02*
Y2357500D01*
X2602500Y2330000D02*
X2657500D01*
X2585364Y2425000D02*
X2674936D01*
X2584903Y2235000D02*
X2675180D01*
X3335000Y2374820D02*
X3525000Y2375064D01*
X3335000Y2465097D02*
X3525000Y2464636D01*
X3402500Y2420000D02*
X3457500D01*
X3430000Y2392500D02*
Y2447500D01*
X3525000Y2375064D02*
Y2464636D01*
X3335000Y2374820D02*
Y2465097D01*
X2010000Y655000D02*
X2130000D01*
X2010000Y925000D02*
X2130000D01*
X2010000Y655000D02*
Y925000D01*
X2130000Y655000D02*
Y925000D01*
X2070000Y747500D02*
Y832500D01*
X2027500Y790000D02*
X2112500D01*
X2300000Y1085000D02*
X2420000D01*
X2300000Y1355000D02*
X2420000D01*
X2300000Y1085000D02*
Y1355000D01*
X2420000Y1085000D02*
Y1355000D01*
X2360000Y1177500D02*
Y1262500D01*
X2317500Y1220000D02*
X2402500D01*
X6055000Y2174820D02*
X6245000Y2175064D01*
X6055000Y2265097D02*
X6245000Y2264636D01*
X6122500Y2220000D02*
X6177500D01*
X6150000Y2192500D02*
Y2247500D01*
X6245000Y2175064D02*
Y2264636D01*
X6055000Y2174820D02*
Y2265097D01*
X5954820Y2265000D02*
X5955064Y2075000D01*
X6044636D02*
X6045097Y2265000D01*
X6000000Y2142500D02*
Y2197500D01*
X5972500Y2170000D02*
X6027500D01*
X5955064Y2075000D02*
X6044636D01*
X5954820Y2265000D02*
X6045097D01*
X6044936Y2465000D02*
X6045179Y2275000D01*
X5954903D02*
X5955364Y2465000D01*
X6000000Y2342500D02*
Y2397500D01*
X5972500Y2370000D02*
X6027500D01*
X5955364Y2465000D02*
X6044936D01*
X5954903Y2275000D02*
X6045179D01*
X8005000Y2884936D02*
X8195000Y2885179D01*
X8005000Y2795363D02*
X8195000Y2794903D01*
X8072500Y2840000D02*
X8127500D01*
X8100000Y2812500D02*
Y2867500D01*
X8005000Y2795363D02*
Y2884936D01*
X8195000Y2794903D02*
Y2885179D01*
X7824821Y4285000D02*
X7825064Y4095000D01*
X7914636D02*
X7915097Y4285000D01*
X7870000Y4162500D02*
Y4217500D01*
X7842500Y4190000D02*
X7897500D01*
X7825064Y4095000D02*
X7914636D01*
X7824821Y4285000D02*
X7915097D01*
X6694936Y3685000D02*
X6695179Y3495000D01*
X6604903D02*
X6605363Y3685000D01*
X6650000Y3562500D02*
Y3617500D01*
X6622500Y3590000D02*
X6677500D01*
X6605363Y3685000D02*
X6694936D01*
X6604903Y3495000D02*
X6695179D01*
X6725000Y3024936D02*
X6915000Y3025179D01*
X6725000Y2935363D02*
X6915000Y2934903D01*
X6792500Y2980000D02*
X6847500D01*
X6820000Y2952500D02*
Y3007500D01*
X6725000Y2935363D02*
Y3024936D01*
X6915000Y2934903D02*
Y3025179D01*
X6725000Y1564936D02*
X6915000Y1565180D01*
X6725000Y1475364D02*
X6915000Y1474903D01*
X6792500Y1520000D02*
X6847500D01*
X6820000Y1492500D02*
Y1547500D01*
X6725000Y1475364D02*
Y1564936D01*
X6915000Y1474903D02*
Y1565180D01*
X5775000Y2004936D02*
X5965000Y2005180D01*
X5775000Y1915364D02*
X5965000Y1914903D01*
X5842500Y1960000D02*
X5897500D01*
X5870000Y1932500D02*
Y1987500D01*
X5775000Y1915364D02*
Y2004936D01*
X5965000Y1914903D02*
Y2005180D01*
X5775000Y1584936D02*
X5965000Y1585179D01*
X5775000Y1495364D02*
X5965000Y1494903D01*
X5842500Y1540000D02*
X5897500D01*
X5870000Y1512500D02*
Y1567500D01*
X5775000Y1495364D02*
Y1584936D01*
X5965000Y1494903D02*
Y1585179D01*
X6225000Y1704821D02*
X6415000Y1705065D01*
X6225000Y1795097D02*
X6415000Y1794637D01*
X6292500Y1750000D02*
X6347500D01*
X6320000Y1722500D02*
Y1777500D01*
X6415000Y1705065D02*
Y1794637D01*
X6225000Y1704821D02*
Y1795097D01*
X6924999Y2074936D02*
X7114999Y2075180D01*
X6924999Y1985364D02*
X7114999Y1984903D01*
X6992500Y2030000D02*
X7047499D01*
X7019999Y2002500D02*
Y2057500D01*
X6924999Y1985364D02*
Y2074936D01*
X7114999Y1984903D02*
Y2075180D01*
X6344936Y2465000D02*
X6345180Y2275000D01*
X6254903D02*
X6255364Y2465000D01*
X6300000Y2342500D02*
Y2397500D01*
X6272500Y2370000D02*
X6327500D01*
X6255364Y2465000D02*
X6344936D01*
X6254903Y2275000D02*
X6345180D01*
X5195000Y3334936D02*
X5385000Y3335180D01*
X5195000Y3245364D02*
X5385000Y3244903D01*
X5262500Y3290000D02*
X5317500D01*
X5290000Y3262500D02*
Y3317500D01*
X5195000Y3245364D02*
Y3334936D01*
X5385000Y3244903D02*
Y3335180D01*
X2935000Y3754821D02*
X3125000Y3755064D01*
X2935000Y3845097D02*
X3125000Y3844636D01*
X3002500Y3800000D02*
X3057500D01*
X3030000Y3772500D02*
Y3827500D01*
X3125000Y3755064D02*
Y3844636D01*
X2935000Y3754821D02*
Y3845097D01*
X2735000Y3844936D02*
X2925000Y3845180D01*
X2735000Y3755364D02*
X2925000Y3754903D01*
X2802500Y3800000D02*
X2857500D01*
X2830000Y3772500D02*
Y3827500D01*
X2735000Y3755364D02*
Y3844936D01*
X2925000Y3754903D02*
Y3845180D01*
X3345000Y3374936D02*
X3535000Y3375179D01*
X3345000Y3285364D02*
X3535000Y3284903D01*
X3412500Y3330000D02*
X3467500D01*
X3440000Y3302500D02*
Y3357500D01*
X3345000Y3285364D02*
Y3374936D01*
X3535000Y3284903D02*
Y3375179D01*
X3355000Y3254936D02*
X3545000Y3255179D01*
X3355000Y3165363D02*
X3545000Y3164903D01*
X3422500Y3210000D02*
X3477500D01*
X3450000Y3182500D02*
Y3237500D01*
X3355000Y3165363D02*
Y3254936D01*
X3545000Y3164903D02*
Y3255179D01*
X4275000Y3144820D02*
X4465000Y3145064D01*
X4275000Y3235097D02*
X4465000Y3234636D01*
X4342500Y3190000D02*
X4397500D01*
X4370000Y3162500D02*
Y3217500D01*
X4465000Y3145064D02*
Y3234636D01*
X4275000Y3144820D02*
Y3235097D01*
Y3244821D02*
X4465000Y3245064D01*
X4275000Y3335097D02*
X4465000Y3334636D01*
X4342500Y3290000D02*
X4397500D01*
X4370000Y3262500D02*
Y3317500D01*
X4465000Y3245064D02*
Y3334636D01*
X4275000Y3244821D02*
Y3335097D01*
X3235000Y4354936D02*
X3425000Y4355180D01*
X3235000Y4265364D02*
X3425000Y4264903D01*
X3302500Y4310000D02*
X3357500D01*
X3330000Y4282500D02*
Y4337500D01*
X3235000Y4265364D02*
Y4354936D01*
X3425000Y4264903D02*
Y4355180D01*
X3435000Y4354936D02*
X3625000Y4355180D01*
X3435000Y4265364D02*
X3625000Y4264903D01*
X3502500Y4310000D02*
X3557500D01*
X3530000Y4282500D02*
Y4337500D01*
X3435000Y4265364D02*
Y4354936D01*
X3625000Y4264903D02*
Y4355180D01*
X4675000Y4284820D02*
X4865000Y4285064D01*
X4675000Y4375097D02*
X4865000Y4374636D01*
X4742500Y4330000D02*
X4797500D01*
X4770000Y4302500D02*
Y4357500D01*
X4865000Y4285064D02*
Y4374636D01*
X4675000Y4284820D02*
Y4375097D01*
X4354821Y4355000D02*
X4355064Y4165000D01*
X4444637D02*
X4445097Y4355000D01*
X4400000Y4232500D02*
Y4287500D01*
X4372500Y4260000D02*
X4427500D01*
X4355064Y4165000D02*
X4444637D01*
X4354821Y4355000D02*
X4445097D01*
X3140000Y2625000D02*
X3260000D01*
X3140000Y2895000D02*
X3260000D01*
X3140000Y2625000D02*
Y2895000D01*
X3260000Y2625000D02*
Y2895000D01*
X3200000Y2717500D02*
Y2802500D01*
X3157500Y2760000D02*
X3242500D01*
X3174820Y3125000D02*
X3175064Y2935000D01*
X3264636D02*
X3265097Y3125000D01*
X3220000Y3002500D02*
Y3057500D01*
X3192500Y3030000D02*
X3247500D01*
X3175064Y2935000D02*
X3264636D01*
X3174820Y3125000D02*
X3265097D01*
X2724522Y3235546D02*
X2724766Y3045546D01*
X2814338D02*
X2814799Y3235546D01*
X2769702Y3113046D02*
Y3168046D01*
X2742202Y3140546D02*
X2797202D01*
X2724766Y3045546D02*
X2814338D01*
X2724522Y3235546D02*
X2814799D01*
X6220000Y2635000D02*
X6340000D01*
X6220000Y2905000D02*
X6340000D01*
X6220000Y2635000D02*
Y2905000D01*
X6340000Y2635000D02*
Y2905000D01*
X6280000Y2727500D02*
Y2812500D01*
X6237500Y2770000D02*
X6322500D01*
X2945000Y3324821D02*
X3135000Y3325064D01*
X2945000Y3415097D02*
X3135000Y3414637D01*
X3012500Y3370000D02*
X3067500D01*
X3040000Y3342500D02*
Y3397500D01*
X3135000Y3325064D02*
Y3414637D01*
X2945000Y3324821D02*
Y3415097D01*
X3324821Y3615000D02*
X3325064Y3425000D01*
X3414637D02*
X3415097Y3615000D01*
X3370000Y3492500D02*
Y3547500D01*
X3342500Y3520000D02*
X3397500D01*
X3325064Y3425000D02*
X3414637D01*
X3324821Y3615000D02*
X3415097D01*
X2685000Y3420000D02*
Y3540000D01*
X2955000Y3420000D02*
Y3540000D01*
X2685000D02*
X2955000D01*
X2685000Y3420000D02*
X2955000D01*
X2777500Y3480000D02*
X2862500D01*
X2820000Y3437500D02*
Y3522500D01*
X4195000Y3524820D02*
X4385000Y3525064D01*
X4195000Y3615097D02*
X4385000Y3614636D01*
X4262500Y3570000D02*
X4317500D01*
X4290000Y3542500D02*
Y3597500D01*
X4385000Y3525064D02*
Y3614636D01*
X4195000Y3524820D02*
Y3615097D01*
X4474936Y3615000D02*
X4475180Y3425000D01*
X4384903D02*
X4385364Y3615000D01*
X4430000Y3492500D02*
Y3547500D01*
X4402500Y3520000D02*
X4457500D01*
X4385364Y3615000D02*
X4474936D01*
X4384903Y3425000D02*
X4475180D01*
X3275000Y3030000D02*
Y3150000D01*
X3545000Y3030000D02*
Y3150000D01*
X3275000D02*
X3545000D01*
X3275000Y3030000D02*
X3545000D01*
X3367500Y3090000D02*
X3452500D01*
X3410000Y3047500D02*
Y3132500D01*
X3275000Y2790000D02*
Y2910000D01*
X3545000Y2790000D02*
Y2910000D01*
X3275000D02*
X3545000D01*
X3275000Y2790000D02*
X3545000D01*
X3367500Y2850000D02*
X3452500D01*
X3410000Y2807500D02*
Y2892500D01*
X3355000Y3014936D02*
X3545000Y3015179D01*
X3355000Y2925363D02*
X3545000Y2924903D01*
X3422500Y2970000D02*
X3477500D01*
X3450000Y2942500D02*
Y2997500D01*
X3355000Y2925363D02*
Y3014936D01*
X3545000Y2924903D02*
Y3015179D01*
X4195000Y3724821D02*
X4385000Y3725064D01*
X4195000Y3815097D02*
X4385000Y3814637D01*
X4262500Y3770000D02*
X4317500D01*
X4290000Y3742500D02*
Y3797500D01*
X4385000Y3725064D02*
Y3814637D01*
X4195000Y3724821D02*
Y3815097D01*
Y3624821D02*
X4385000Y3625064D01*
X4195000Y3715097D02*
X4385000Y3714636D01*
X4262500Y3670000D02*
X4317500D01*
X4290000Y3642500D02*
Y3697500D01*
X4385000Y3625064D02*
Y3714636D01*
X4195000Y3624821D02*
Y3715097D01*
X3325000Y3634821D02*
X3515000Y3635064D01*
X3325000Y3725097D02*
X3515000Y3724636D01*
X3392500Y3680000D02*
X3447500D01*
X3420000Y3652500D02*
Y3707500D01*
X3515000Y3635064D02*
Y3724636D01*
X3325000Y3634821D02*
Y3725097D01*
X2724821Y2965000D02*
X2725064Y2775000D01*
X2814636D02*
X2815097Y2965000D01*
X2770000Y2842500D02*
Y2897500D01*
X2742500Y2870000D02*
X2797500D01*
X2725064Y2775000D02*
X2814636D01*
X2724821Y2965000D02*
X2815097D01*
X2795000Y3634936D02*
X2985000Y3635179D01*
X2795000Y3545363D02*
X2985000Y3544903D01*
X2862500Y3590000D02*
X2917500D01*
X2890000Y3562500D02*
Y3617500D01*
X2795000Y3545363D02*
Y3634936D01*
X2985000Y3544903D02*
Y3635179D01*
X3355000Y4130000D02*
Y4250000D01*
X3625000Y4130000D02*
Y4250000D01*
X3355000D02*
X3625000D01*
X3355000Y4130000D02*
X3625000D01*
X3447500Y4190000D02*
X3532500D01*
X3490000Y4147500D02*
Y4232500D01*
X3355000Y4000000D02*
Y4120000D01*
X3625000Y4000000D02*
Y4120000D01*
X3355000D02*
X3625000D01*
X3355000Y4000000D02*
X3625000D01*
X3447500Y4060000D02*
X3532500D01*
X3490000Y4017500D02*
Y4102500D01*
X3534820Y3995000D02*
X3535064Y3805000D01*
X3624636D02*
X3625097Y3995000D01*
X3580000Y3872500D02*
Y3927500D01*
X3552500Y3900000D02*
X3607500D01*
X3535064Y3805000D02*
X3624636D01*
X3534820Y3995000D02*
X3625097D01*
X3134821Y4385000D02*
X3135064Y4195000D01*
X3224636D02*
X3225097Y4385000D01*
X3180000Y4262500D02*
Y4317500D01*
X3152500Y4290000D02*
X3207500D01*
X3135064Y4195000D02*
X3224636D01*
X3134821Y4385000D02*
X3225097D01*
X2935000Y4194821D02*
X3125000Y4195065D01*
X2935000Y4285097D02*
X3125000Y4284637D01*
X3002500Y4240000D02*
X3057500D01*
X3030000Y4212500D02*
Y4267500D01*
X3125000Y4195065D02*
Y4284637D01*
X2935000Y4194821D02*
Y4285097D01*
X3414936Y3985000D02*
X3415180Y3795000D01*
X3324903D02*
X3325364Y3985000D01*
X3370000Y3862500D02*
Y3917500D01*
X3342500Y3890000D02*
X3397500D01*
X3325364Y3985000D02*
X3414936D01*
X3324903Y3795000D02*
X3415180D01*
X4275000Y2794820D02*
X4465000Y2795064D01*
X4275000Y2885097D02*
X4465000Y2884636D01*
X4342500Y2840000D02*
X4397500D01*
X4370000Y2812500D02*
Y2867500D01*
X4465000Y2795064D02*
Y2884636D01*
X4275000Y2794820D02*
Y2885097D01*
X5125000Y3240000D02*
Y3360000D01*
X4855000Y3240000D02*
Y3360000D01*
Y3240000D02*
X5125000D01*
X4855000Y3360000D02*
X5125000D01*
X4947500Y3300000D02*
X5032500D01*
X4990000Y3257500D02*
Y3342500D01*
X2450000Y4675000D02*
X2570000D01*
X2450000Y4405000D02*
X2570000D01*
Y4675000D01*
X2450000Y4405000D02*
Y4675000D01*
X2510000Y4497500D02*
Y4582500D01*
X2467500Y4540000D02*
X2552500D01*
X5694820Y2855000D02*
X5695064Y2665000D01*
X5784636D02*
X5785097Y2855000D01*
X5740000Y2732500D02*
Y2787500D01*
X5712500Y2760000D02*
X5767500D01*
X5695064Y2665000D02*
X5784636D01*
X5694820Y2855000D02*
X5785097D01*
X5584821Y2855000D02*
X5585065Y2665000D01*
X5674637D02*
X5675097Y2855000D01*
X5630000Y2732500D02*
Y2787500D01*
X5602500Y2760000D02*
X5657500D01*
X5585065Y2665000D02*
X5674637D01*
X5584821Y2855000D02*
X5675097D01*
X4645000Y2914936D02*
X4835000Y2915180D01*
X4645000Y2825364D02*
X4835000Y2824903D01*
X4712500Y2870000D02*
X4767500D01*
X4740000Y2842500D02*
Y2897500D01*
X4645000Y2825364D02*
Y2914936D01*
X4835000Y2824903D02*
Y2915180D01*
X4645000Y2814936D02*
X4835000Y2815180D01*
X4645000Y2725364D02*
X4835000Y2724903D01*
X4712500Y2770000D02*
X4767500D01*
X4740000Y2742500D02*
Y2797500D01*
X4645000Y2725364D02*
Y2814936D01*
X4835000Y2724903D02*
Y2815180D01*
X6040000Y2635000D02*
X6160000D01*
X6040000Y2905000D02*
X6160000D01*
X6040000Y2635000D02*
Y2905000D01*
X6160000Y2635000D02*
Y2905000D01*
X6100000Y2727500D02*
Y2812500D01*
X6057500Y2770000D02*
X6142500D01*
X5984820Y3105000D02*
X5985064Y2915000D01*
X6074636D02*
X6075097Y3105000D01*
X6030000Y2982500D02*
Y3037500D01*
X6002500Y3010000D02*
X6057500D01*
X5985064Y2915000D02*
X6074636D01*
X5984820Y3105000D02*
X6075097D01*
X6284821D02*
X6285064Y2915000D01*
X6374636D02*
X6375097Y3105000D01*
X6330000Y2982500D02*
Y3037500D01*
X6302500Y3010000D02*
X6357500D01*
X6285064Y2915000D02*
X6374636D01*
X6284821Y3105000D02*
X6375097D01*
X3550000Y2235000D02*
X3670000D01*
X3550000Y2505000D02*
X3670000D01*
X3550000Y2235000D02*
Y2505000D01*
X3670000Y2235000D02*
Y2505000D01*
X3610000Y2327500D02*
Y2412500D01*
X3567500Y2370000D02*
X3652500D01*
X3735000Y2650000D02*
Y2770000D01*
X3465000Y2650000D02*
Y2770000D01*
Y2650000D02*
X3735000D01*
X3465000Y2770000D02*
X3735000D01*
X3557500Y2710000D02*
X3642500D01*
X3600000Y2667500D02*
Y2752500D01*
X6085000Y3004936D02*
X6275000Y3005179D01*
X6085000Y2915363D02*
X6275000Y2914903D01*
X6152500Y2960000D02*
X6207500D01*
X6180000Y2932500D02*
Y2987500D01*
X6085000Y2915363D02*
Y3004936D01*
X6275000Y2914903D02*
Y3005179D01*
X5045000Y3984936D02*
X5235000Y3985179D01*
X5045000Y3895364D02*
X5235000Y3894903D01*
X5112500Y3940000D02*
X5167500D01*
X5140000Y3912500D02*
Y3967500D01*
X5045000Y3895364D02*
Y3984936D01*
X5235000Y3894903D02*
Y3985179D01*
X5045000Y4084936D02*
X5235000Y4085180D01*
X5045000Y3995364D02*
X5235000Y3994903D01*
X5112500Y4040000D02*
X5167500D01*
X5140000Y4012500D02*
Y4067500D01*
X5045000Y3995364D02*
Y4084936D01*
X5235000Y3994903D02*
Y4085180D01*
X4824820Y3725000D02*
X4825064Y3535000D01*
X4914636D02*
X4915097Y3725000D01*
X4870000Y3602500D02*
Y3657500D01*
X4842500Y3630000D02*
X4897500D01*
X4825064Y3535000D02*
X4914636D01*
X4824820Y3725000D02*
X4915097D01*
X4835000Y3434820D02*
X5025000Y3435064D01*
X4835000Y3525097D02*
X5025000Y3524636D01*
X4902500Y3480000D02*
X4957500D01*
X4930000Y3452500D02*
Y3507500D01*
X5025000Y3435064D02*
Y3524636D01*
X4835000Y3434820D02*
Y3525097D01*
X5855000Y2870000D02*
Y2990000D01*
X5585000Y2870000D02*
Y2990000D01*
Y2870000D02*
X5855000D01*
X5585000Y2990000D02*
X5855000D01*
X5677500Y2930000D02*
X5762500D01*
X5720000Y2887500D02*
Y2972500D01*
X5855000Y3110000D02*
Y3230000D01*
X5585000Y3110000D02*
Y3230000D01*
Y3110000D02*
X5855000D01*
X5585000Y3230000D02*
X5855000D01*
X5677500Y3170000D02*
X5762500D01*
X5720000Y3127500D02*
Y3212500D01*
X5585000Y3004821D02*
X5775000Y3005064D01*
X5585000Y3095097D02*
X5775000Y3094636D01*
X5652500Y3050000D02*
X5707500D01*
X5680000Y3022500D02*
Y3077500D01*
X5775000Y3005064D02*
Y3094636D01*
X5585000Y3004821D02*
Y3095097D01*
X6095000Y3884936D02*
X6285000Y3885179D01*
X6095000Y3795364D02*
X6285000Y3794903D01*
X6162500Y3840000D02*
X6217500D01*
X6190000Y3812500D02*
Y3867500D01*
X6095000Y3795364D02*
Y3884936D01*
X6285000Y3794903D02*
Y3885179D01*
X5024821Y3745000D02*
X5025064Y3555000D01*
X5114636D02*
X5115097Y3745000D01*
X5070000Y3622500D02*
Y3677500D01*
X5042500Y3650000D02*
X5097500D01*
X5025064Y3555000D02*
X5114636D01*
X5024821Y3745000D02*
X5115097D01*
X4924820D02*
X4925064Y3555000D01*
X5014636D02*
X5015097Y3745000D01*
X4970000Y3622500D02*
Y3677500D01*
X4942500Y3650000D02*
X4997500D01*
X4925064Y3555000D02*
X5014636D01*
X4924820Y3745000D02*
X5015097D01*
X5545000Y3384821D02*
X5735000Y3385064D01*
X5545000Y3475097D02*
X5735000Y3474636D01*
X5612500Y3430000D02*
X5667500D01*
X5640000Y3402500D02*
Y3457500D01*
X5735000Y3385064D02*
Y3474636D01*
X5545000Y3384821D02*
Y3475097D01*
X4645000Y3274936D02*
X4835000Y3275180D01*
X4645000Y3185364D02*
X4835000Y3184903D01*
X4712500Y3230000D02*
X4767500D01*
X4740000Y3202500D02*
Y3257500D01*
X4645000Y3185364D02*
Y3274936D01*
X4835000Y3184903D02*
Y3275180D01*
X5425000Y3954936D02*
X5615000Y3955180D01*
X5425000Y3865364D02*
X5615000Y3864903D01*
X5492500Y3910000D02*
X5547500D01*
X5520000Y3882500D02*
Y3937500D01*
X5425000Y3865364D02*
Y3954936D01*
X5615000Y3864903D02*
Y3955180D01*
X7713322Y1596653D02*
X7704992Y1604984D01*
X7688331D01*
X7680000Y1596653D01*
Y1563331D01*
X7688331Y1555000D01*
X7704992D01*
X7713322Y1563331D01*
Y3356653D02*
X7704992Y3364984D01*
X7688331D01*
X7680000Y3356653D01*
Y3323331D01*
X7688331Y3315000D01*
X7704992D01*
X7713322Y3323331D01*
X2633346Y2033324D02*
X2625015Y2024993D01*
Y2008332D01*
X2633346Y2000001D01*
X2666668D01*
X2674999Y2008332D01*
Y2024993D01*
X2666668Y2033324D01*
X2833323Y2036653D02*
X2824992Y2044984D01*
X2808331D01*
X2800000Y2036653D01*
Y2003331D01*
X2808331Y1995000D01*
X2824992D01*
X2833323Y2003331D01*
X5546653Y1136677D02*
X5554984Y1145008D01*
Y1161669D01*
X5546653Y1170000D01*
X5513331D01*
X5505000Y1161669D01*
Y1145008D01*
X5513331Y1136677D01*
X4923346Y1403323D02*
X4915015Y1394993D01*
Y1378332D01*
X4923346Y1370001D01*
X4956668D01*
X4964999Y1378332D01*
Y1394993D01*
X4956668Y1403323D01*
X2153346Y1373323D02*
X2145015Y1364993D01*
Y1348332D01*
X2153346Y1340001D01*
X2186668D01*
X2194999Y1348332D01*
Y1364993D01*
X2186668Y1373323D01*
X4883322Y4696653D02*
X4874992Y4704984D01*
X4858331D01*
X4850000Y4696653D01*
Y4663331D01*
X4858331Y4655000D01*
X4874992D01*
X4883322Y4663331D01*
X3023322Y4696653D02*
X3014992Y4704984D01*
X2998331D01*
X2990000Y4696653D01*
Y4663331D01*
X2998331Y4655000D01*
X3014992D01*
X3023322Y4663331D01*
X4533322Y4696653D02*
X4524992Y4704984D01*
X4508331D01*
X4500000Y4696653D01*
Y4663331D01*
X4508331Y4655000D01*
X4524992D01*
X4533322Y4663331D01*
X2673323Y4696653D02*
X2664992Y4704984D01*
X2648331D01*
X2640000Y4696653D01*
Y4663331D01*
X2648331Y4655000D01*
X2664992D01*
X2673323Y4663331D01*
X7713322Y2096653D02*
X7704992Y2104984D01*
X7688331D01*
X7680000Y2096653D01*
Y2063331D01*
X7688331Y2055000D01*
X7704992D01*
X7713322Y2063331D01*
Y3856653D02*
X7704992Y3864984D01*
X7688331D01*
X7680000Y3856653D01*
Y3823331D01*
X7688331Y3815000D01*
X7704992D01*
X7713322Y3823331D01*
X2408355Y3548316D02*
X2395026Y3534987D01*
Y3508329D01*
X2408355Y3495000D01*
X2461671D01*
X2475000Y3508329D01*
Y3534987D01*
X2461671Y3548316D01*
D675*
X0Y-76200D02*
Y76200D01*
X-76200Y0D02*
X76200D01*
%TF.MD5,03d933da7b254abbe6fe3a855b0db94f*%
M02*
