%TF.GenerationSoftware,Altium Limited,Altium Designer,22.10.1 (41)*%
G04 Layer_Color=32896*
%FSLAX45Y45*%
%MOMM*%
%TF.SameCoordinates,A8474BD1-FA4A-4BD0-88DA-22D9B4FA892B*%
%TF.FilePolarity,Positive*%
%TF.FileFunction,Legend,Bot*%
%TF.Part,Single*%
G01*
G75*
%TA.AperFunction,NonConductor*%
%ADD112C,0.15000*%
%ADD113C,0.20000*%
%ADD114R,1.40000X0.15001*%
%ADD115R,0.60000X0.15001*%
%ADD116R,0.20000X0.15001*%
%ADD117R,0.40000X0.15001*%
%ADD118R,0.60000X0.14996*%
%ADD119R,0.20000X0.14996*%
%ADD120R,0.40000X0.14996*%
%ADD121R,1.40000X0.14996*%
%ADD122R,0.80000X0.14996*%
%ADD123R,1.20000X0.14996*%
%ADD124R,1.00000X0.14996*%
G36*
X2032000Y50500D02*
X1999842Y10500D01*
X2064157D01*
X2032000Y50500D01*
D02*
G37*
G36*
X1728921Y1690706D02*
X1761079Y1729294D01*
X1696764D01*
X1728921Y1690706D01*
D02*
G37*
G36*
X2895000Y3260000D02*
X2935000Y3227843D01*
Y3292157D01*
X2895000Y3260000D01*
D02*
G37*
G36*
X1892000Y4512400D02*
X1852000Y4544558D01*
Y4480243D01*
X1892000Y4512400D01*
D02*
G37*
G36*
X2032000Y4876500D02*
X1999842Y4836500D01*
X2064157D01*
X2032000Y4876500D01*
D02*
G37*
G36*
X3640000Y1225000D02*
X3607843Y1185000D01*
X3672158D01*
X3640000Y1225000D01*
D02*
G37*
G36*
X4790000Y1305000D02*
X4822157Y1345000D01*
X4757843D01*
X4790000Y1305000D01*
D02*
G37*
G36*
X5520000Y2365000D02*
X5487842Y2325000D01*
X5552157D01*
X5520000Y2365000D01*
D02*
G37*
G36*
X7988000Y2349500D02*
X7948000Y2381658D01*
Y2317343D01*
X7988000Y2349500D01*
D02*
G37*
G36*
Y5143500D02*
X7948000Y5175658D01*
Y5111343D01*
X7988000Y5143500D01*
D02*
G37*
D112*
X2955000Y725000D02*
Y1525000D01*
X3139919Y1110317D02*
X3239919D01*
X3139919Y1140317D02*
X3239919D01*
X3189846D02*
Y1175317D01*
Y1075317D02*
X3189919Y1110317D01*
X2240000Y1125000D02*
Y1200000D01*
X2240000Y1125000D02*
X2240000Y1125000D01*
X2240000Y1050000D02*
Y1125000D01*
X2955000Y1525000D02*
X3030000D01*
X2880001Y1525000D02*
X2955000D01*
X2955000Y725000D02*
X3030000D01*
X2880001Y725000D02*
X2955000D01*
X2240000Y1125000D02*
X2955000D01*
X3090000D01*
X3277459Y1300000D02*
X3445000D01*
X3277117D02*
X3277459D01*
X3189335Y1212900D02*
X3276435Y1300000D01*
X3445000Y1225000D02*
Y1300000D01*
X3445000Y1300000D02*
Y1375000D01*
X3277459Y950000D02*
X3445000D01*
X3445000Y875000D02*
Y950000D01*
X3445000Y950000D02*
Y1024999D01*
X3190359Y1038124D02*
X3277459Y951024D01*
X1120000Y955000D02*
Y1855000D01*
X1620000Y1055000D02*
Y1110000D01*
X1120000Y1855000D02*
X1170000D01*
X1160000Y955179D02*
Y1855000D01*
X1120000Y955000D02*
X1170000D01*
X1450000D02*
X1520000D01*
X1620000Y1700000D02*
Y1755000D01*
X1450000Y1855000D02*
X1520000D01*
X5070359Y2178124D02*
X5157459Y2091024D01*
X5325000Y2090000D02*
Y2164999D01*
X5325000Y2015000D02*
Y2090000D01*
X5157459Y2090000D02*
X5325000D01*
Y2440000D02*
Y2515000D01*
X5325000Y2365000D02*
Y2440000D01*
X5069335Y2352900D02*
X5156434Y2440000D01*
X5157117D02*
X5157459D01*
X5325000D01*
X4835000Y2265000D02*
X4970000D01*
X4120000D02*
X4835000D01*
X4760000Y1865000D02*
X4835000D01*
X4835000Y1865000D02*
X4910000D01*
X4760000Y2665000D02*
X4835000D01*
X4835000Y2665000D02*
X4910000D01*
X4120000Y2190000D02*
Y2265000D01*
X4120000Y2265000D01*
Y2340000D01*
X5069845Y2215317D02*
X5069918Y2250317D01*
X5069845Y2280317D02*
Y2315317D01*
X5019919Y2280317D02*
X5119918D01*
X5019919Y2250317D02*
X5119918D01*
X4835000Y1865000D02*
Y2665000D01*
X5152541Y1578976D02*
X5239641Y1491876D01*
X4985000Y1505001D02*
Y1580000D01*
X4985000Y1580000D02*
Y1655000D01*
X4985000Y1580000D02*
X5152541D01*
X4985000Y1155000D02*
Y1230000D01*
X4985000Y1230000D02*
Y1305000D01*
X5153566Y1230000D02*
X5240665Y1317100D01*
X5152541Y1230000D02*
X5152883D01*
X4985000D02*
X5152541D01*
X5340000Y1405000D02*
X5475000D01*
X6190000D01*
X5475000Y1805000D02*
X5550000D01*
X5400000Y1805000D02*
X5475000D01*
X5475000Y1005000D02*
X5550000D01*
X5400000Y1005000D02*
X5475000D01*
X6190000Y1405000D02*
Y1480000D01*
X6190000Y1405000D02*
X6190000Y1405000D01*
X6190000Y1330000D02*
Y1405000D01*
X5240081Y1419683D02*
X5240155Y1454683D01*
Y1354683D02*
Y1389683D01*
X5190082D02*
X5290081D01*
X5190082Y1419683D02*
X5290081D01*
X5475000Y1005000D02*
Y1805000D01*
X3081876Y2810359D02*
X3168976Y2897459D01*
X3095000Y3065000D02*
X3170000D01*
X3170000Y3065000D02*
X3245000D01*
X3170000Y2897459D02*
Y3065000D01*
X2745000D02*
X2820000D01*
X2820000Y3065000D02*
X2895000D01*
X2820000Y2896435D02*
X2907100Y2809335D01*
X2820000Y2897117D02*
Y2897459D01*
Y3065000D01*
X2995000Y2575000D02*
Y2710000D01*
Y1860000D02*
Y2575000D01*
X3395000Y2500001D02*
Y2575000D01*
X3395000Y2575000D02*
Y2650000D01*
X2595000Y2500001D02*
Y2575000D01*
X2595000Y2575000D02*
Y2650000D01*
X2995000Y1860000D02*
X3070000D01*
X2995000Y1860000D02*
X2995000Y1860000D01*
X2920000Y1860000D02*
X2995000D01*
X3009683Y2809919D02*
X3044683Y2809846D01*
X2944683D02*
X2979683D01*
Y2759919D02*
Y2859919D01*
X3009683Y2759919D02*
Y2859919D01*
X2595000Y2575000D02*
X3395000D01*
X3560000Y1215000D02*
X3490022D01*
Y1180011D01*
X3501685Y1168348D01*
X3525011D01*
X3536674Y1180011D01*
Y1215000D01*
X3560000Y1080000D02*
X3490022D01*
X3560000Y1033348D01*
X3490022D01*
X5440000Y2220000D02*
X5370022D01*
X5440000Y2173348D01*
X5370022D01*
X5440000Y2355000D02*
X5370022D01*
Y2320011D01*
X5381685Y2308348D01*
X5405011D01*
X5416674Y2320011D01*
Y2355000D01*
X4870000Y1450000D02*
X4939977D01*
X4870000Y1496651D01*
X4939977D01*
X4870000Y1315000D02*
X4939977D01*
Y1349988D01*
X4928314Y1361651D01*
X4904988D01*
X4893325Y1349988D01*
Y1315000D01*
X3039999Y3180000D02*
Y3110023D01*
X3086651Y3180000D01*
Y3110023D01*
X2904999Y3180000D02*
Y3110023D01*
X2939988D01*
X2951651Y3121686D01*
Y3145011D01*
X2939988Y3156674D01*
X2904999D01*
X1936645Y1820013D02*
Y1899987D01*
X1896658D01*
X1883329Y1886658D01*
Y1860000D01*
X1896658Y1846671D01*
X1936645D01*
X1803355Y1820013D02*
X1856671D01*
X1803355Y1873329D01*
Y1886658D01*
X1816684Y1899987D01*
X1843342D01*
X1856671Y1886658D01*
D113*
X7963000Y160500D02*
X8548000D01*
X8003000Y164500D02*
Y214500D01*
X8508000Y164500D02*
Y214500D01*
Y1184500D02*
Y1229500D01*
X8003000Y1184500D02*
Y1229500D01*
X7972000Y1206500D02*
X8537000D01*
X8003000Y1184500D02*
Y1229500D01*
X8508000Y1184500D02*
Y1229500D01*
X7963000Y1206500D02*
X8548000D01*
X8003000Y2449500D02*
Y2499500D01*
X7963000Y2501500D02*
X8548000D01*
X8508000Y2449500D02*
Y2499500D01*
X7963000Y2954500D02*
X8548000D01*
X8003000Y2958500D02*
Y3008500D01*
X8508000Y2958500D02*
Y3008500D01*
Y3978500D02*
Y4023500D01*
X8003000Y3978500D02*
Y4023500D01*
X7972000Y4000500D02*
X8537000D01*
X8003000Y3978500D02*
Y4023500D01*
X8508000Y3978500D02*
Y4023500D01*
X7963000Y4000500D02*
X8548000D01*
X8003000Y5243500D02*
Y5293500D01*
X7963000Y5295500D02*
X8548000D01*
X8508000Y5243500D02*
Y5293500D01*
X6962000Y570500D02*
X7007000D01*
X6962000Y65500D02*
X7007000D01*
X6985000Y34500D02*
Y599500D01*
X6962000Y65500D02*
X7007000D01*
X6962000Y570500D02*
X7007000D01*
X6985000Y25500D02*
Y610500D01*
X5692000Y570500D02*
X5737000D01*
X5692000Y65500D02*
X5737000D01*
X5715000Y34500D02*
Y599500D01*
X5692000Y65500D02*
X5737000D01*
X5692000Y570500D02*
X5737000D01*
X5715000Y25500D02*
Y610500D01*
X4422000Y570500D02*
X4467000D01*
X4422000Y65500D02*
X4467000D01*
X4445000Y34500D02*
Y599500D01*
X4422000Y65500D02*
X4467000D01*
X4422000Y570500D02*
X4467000D01*
X4445000Y25500D02*
Y610500D01*
X7777000Y25500D02*
Y610500D01*
X7723000Y65500D02*
X7773000D01*
X7723000Y570500D02*
X7773000D01*
X3152000D02*
X3197000D01*
X3152000Y65500D02*
X3197000D01*
X3175000Y34500D02*
Y599500D01*
X3152000Y65500D02*
X3197000D01*
X3152000Y570500D02*
X3197000D01*
X3175000Y25500D02*
Y610500D01*
X1882000Y65500D02*
X1932000D01*
X1880000Y25500D02*
Y610500D01*
X1882000Y570500D02*
X1932000D01*
X6962000Y5396500D02*
X7007000D01*
X6962000Y4891500D02*
X7007000D01*
X6985000Y4860500D02*
Y5425500D01*
X6962000Y4891500D02*
X7007000D01*
X6962000Y5396500D02*
X7007000D01*
X6985000Y4851500D02*
Y5436500D01*
X5692000Y5396500D02*
X5737000D01*
X5692000Y4891500D02*
X5737000D01*
X5715000Y4860500D02*
Y5425500D01*
X5692000Y4891500D02*
X5737000D01*
X5692000Y5396500D02*
X5737000D01*
X5715000Y4851500D02*
Y5436500D01*
X4422000Y5396500D02*
X4467000D01*
X4422000Y4891500D02*
X4467000D01*
X4445000Y4860500D02*
Y5425500D01*
X4422000Y4891500D02*
X4467000D01*
X4422000Y5396500D02*
X4467000D01*
X4445000Y4851500D02*
Y5436500D01*
X7777000Y4851500D02*
Y5436500D01*
X7723000Y4891500D02*
X7773000D01*
X7723000Y5396500D02*
X7773000D01*
X3152000D02*
X3197000D01*
X3152000Y4891500D02*
X3197000D01*
X3175000Y4860500D02*
Y5425500D01*
X3152000Y4891500D02*
X3197000D01*
X3152000Y5396500D02*
X3197000D01*
X3175000Y4851500D02*
Y5436500D01*
X1882000Y4891500D02*
X1932000D01*
X1880000Y4851500D02*
Y5436500D01*
X1882000Y5396500D02*
X1932000D01*
X2412000Y4112400D02*
Y4157400D01*
X1907000Y4112400D02*
Y4157400D01*
X1867000Y4101400D02*
X2452000D01*
X2412000Y4612400D02*
Y4657400D01*
X1867000Y4664400D02*
X2452000D01*
X1907000Y4612400D02*
Y4657400D01*
X3399968Y1106645D02*
Y1040000D01*
X3349984D01*
X3366645Y1073322D01*
Y1089984D01*
X3349984Y1106645D01*
X3316661D01*
X3300000Y1089984D01*
Y1056661D01*
X3316661Y1040000D01*
X3399968Y1139968D02*
X3333323D01*
X3300000Y1173290D01*
X3333323Y1206613D01*
X3399968D01*
X5030032Y1423355D02*
X5046693Y1456677D01*
X5080016Y1490000D01*
X5113339D01*
X5130000Y1473338D01*
Y1440016D01*
X5113339Y1423355D01*
X5096677D01*
X5080016Y1440016D01*
Y1490000D01*
X5030032Y1390032D02*
X5096677D01*
X5130000Y1356710D01*
X5096677Y1323387D01*
X5030032D01*
X5269968Y2140000D02*
X5170000D01*
Y2206645D01*
X5269968Y2306612D02*
Y2239967D01*
X5219984D01*
X5236645Y2273290D01*
Y2289951D01*
X5219984Y2306612D01*
X5186661D01*
X5170000Y2289951D01*
Y2256629D01*
X5186661Y2239967D01*
X5269968Y2339935D02*
X5203323D01*
X5170000Y2373258D01*
X5203323Y2406580D01*
X5269968D01*
X3120000Y2920000D02*
X3086678D01*
X3103339D01*
Y3019968D01*
X3120000Y3003306D01*
X2970049Y3019968D02*
X3003371Y3003306D01*
X3036694Y2969984D01*
Y2936661D01*
X3020032Y2920000D01*
X2986710D01*
X2970049Y2936661D01*
Y2953323D01*
X2986710Y2969984D01*
X3036694D01*
X2936726Y3019968D02*
Y2953323D01*
X2903403Y2920000D01*
X2870081Y2953323D01*
Y3019968D01*
X1339968Y636645D02*
Y570000D01*
X1289984D01*
X1306645Y603322D01*
Y619984D01*
X1289984Y636645D01*
X1256661D01*
X1240000Y619984D01*
Y586661D01*
X1256661Y570000D01*
X1339968Y669968D02*
X1273323D01*
X1240000Y703290D01*
X1273323Y736613D01*
X1339968D01*
Y836580D02*
Y769935D01*
X1240000D01*
Y836580D01*
X1289984Y769935D02*
Y803258D01*
X1323306Y276645D02*
X1339968Y259983D01*
Y226661D01*
X1323306Y210000D01*
X1256661D01*
X1240000Y226661D01*
Y259983D01*
X1256661Y276645D01*
X1289984D01*
Y243322D01*
X1240000Y309967D02*
X1339968D01*
X1240000Y376612D01*
X1339968D01*
Y409935D02*
X1240000D01*
Y459919D01*
X1256661Y476580D01*
X1323306D01*
X1339968Y459919D01*
Y409935D01*
X2950000Y4349968D02*
Y4283322D01*
X2916677Y4250000D01*
X2883355Y4283322D01*
Y4349968D01*
X2850032D02*
Y4250000D01*
Y4299984D01*
X2783387D01*
Y4349968D01*
Y4250000D01*
X2733403Y4316645D02*
X2700080D01*
X2683419Y4299984D01*
Y4250000D01*
X2733403D01*
X2750064Y4266661D01*
X2733403Y4283322D01*
X2683419D01*
X2650097Y4316645D02*
Y4250000D01*
Y4283322D01*
X2633435Y4299984D01*
X2616774Y4316645D01*
X2600113D01*
X2550129D02*
X2516806Y4250000D01*
X2483484Y4316645D01*
X3050000Y4539968D02*
Y4473323D01*
X3016677Y4440000D01*
X2983355Y4473323D01*
Y4539968D01*
X2883387Y4523306D02*
X2900048Y4539968D01*
X2933371D01*
X2950032Y4523306D01*
Y4506645D01*
X2933371Y4489984D01*
X2900048D01*
X2883387Y4473323D01*
Y4456661D01*
X2900048Y4440000D01*
X2933371D01*
X2950032Y4456661D01*
X2800081Y4440000D02*
X2833403D01*
X2850064Y4456661D01*
Y4489984D01*
X2833403Y4506645D01*
X2800081D01*
X2783419Y4489984D01*
Y4473323D01*
X2850064D01*
X2750097Y4440000D02*
Y4506645D01*
X2700113D01*
X2683452Y4489984D01*
Y4440000D01*
X2650129D02*
X2600145D01*
X2583484Y4456661D01*
X2600145Y4473323D01*
X2633467D01*
X2650129Y4489984D01*
X2633467Y4506645D01*
X2583484D01*
X2500177Y4440000D02*
X2533500D01*
X2550161Y4456661D01*
Y4489984D01*
X2533500Y4506645D01*
X2500177D01*
X2483516Y4489984D01*
Y4473323D01*
X2550161D01*
X1820000Y4349968D02*
Y4283322D01*
X1786677Y4250000D01*
X1753355Y4283322D01*
Y4349968D01*
X1653387Y4333306D02*
X1670048Y4349968D01*
X1703371D01*
X1720032Y4333306D01*
Y4316645D01*
X1703371Y4299984D01*
X1670048D01*
X1653387Y4283322D01*
Y4266661D01*
X1670048Y4250000D01*
X1703371D01*
X1720032Y4266661D01*
X1620064Y4250000D02*
X1586742D01*
X1603403D01*
Y4316645D01*
X1620064D01*
X1536758Y4250000D02*
Y4316645D01*
X1520097D01*
X1503435Y4299984D01*
Y4250000D01*
Y4299984D01*
X1486774Y4316645D01*
X1470113Y4299984D01*
Y4250000D01*
X1753355Y4523306D02*
X1770016Y4539968D01*
X1803339D01*
X1820000Y4523306D01*
Y4456661D01*
X1803339Y4440000D01*
X1770016D01*
X1753355Y4456661D01*
Y4489984D01*
X1786677D01*
X1720032Y4440000D02*
Y4539968D01*
X1653387Y4440000D01*
Y4539968D01*
X1620064D02*
Y4440000D01*
X1570080D01*
X1553419Y4456661D01*
Y4523306D01*
X1570080Y4539968D01*
X1620064D01*
X3599968Y4706645D02*
Y4640000D01*
X3500000D01*
Y4706645D01*
X3549984Y4640000D02*
Y4673322D01*
X3500000Y4739967D02*
X3599968D01*
X3500000Y4806612D01*
X3599968D01*
X2839968Y696645D02*
Y630000D01*
X2789984D01*
X2806645Y663322D01*
Y679983D01*
X2789984Y696645D01*
X2756661D01*
X2740000Y679983D01*
Y646661D01*
X2756661Y630000D01*
X2839968Y729967D02*
X2773322D01*
X2740000Y763290D01*
X2773322Y796612D01*
X2839968D01*
X2579968Y696645D02*
Y630000D01*
X2529984D01*
X2546645Y663322D01*
Y679983D01*
X2529984Y696645D01*
X2496661D01*
X2480000Y679983D01*
Y646661D01*
X2496661Y630000D01*
X2579968Y729967D02*
X2513322D01*
X2480000Y763290D01*
X2513322Y796612D01*
X2579968D01*
Y896580D02*
Y829935D01*
X2480000D01*
Y896580D01*
X2529984Y829935D02*
Y863258D01*
X2323306Y630000D02*
X2339968Y646661D01*
Y679983D01*
X2323306Y696645D01*
X2306645D01*
X2289984Y679983D01*
Y663322D01*
Y679983D01*
X2273322Y696645D01*
X2256661D01*
X2240000Y679983D01*
Y646661D01*
X2256661Y630000D01*
X2339968Y729967D02*
X2273322D01*
X2240000Y763290D01*
X2273322Y796612D01*
X2339968D01*
X2323306Y829935D02*
X2339968Y846596D01*
Y879919D01*
X2323306Y896580D01*
X2306645D01*
X2289984Y879919D01*
Y863258D01*
Y879919D01*
X2273322Y896580D01*
X2256661D01*
X2240000Y879919D01*
Y846596D01*
X2256661Y829935D01*
X2063306Y696645D02*
X2079968Y679983D01*
Y646661D01*
X2063306Y630000D01*
X1996661D01*
X1980000Y646661D01*
Y679983D01*
X1996661Y696645D01*
X2029984D01*
Y663322D01*
X1980000Y729967D02*
X2079968D01*
X1980000Y796612D01*
X2079968D01*
Y829935D02*
X1980000D01*
Y879919D01*
X1996661Y896580D01*
X2063306D01*
X2079968Y879919D01*
Y829935D01*
D114*
X6050000Y4472504D02*
D03*
X6409999D02*
D03*
D115*
X6170000D02*
D03*
X6050000Y4432504D02*
D03*
X6409999D02*
D03*
X6210000Y4412504D02*
D03*
X6369999Y4312504D02*
D03*
D116*
X6310000Y4472504D02*
D03*
X5990000Y4452504D02*
D03*
X6110000D02*
D03*
X6310000D02*
D03*
X6349999D02*
D03*
X6469999D02*
D03*
X5990000Y4432504D02*
D03*
X6110000D02*
D03*
X6190000D02*
D03*
X6230000D02*
D03*
X6349999D02*
D03*
X6469999D02*
D03*
X5990000Y4412504D02*
D03*
X6110000D02*
D03*
X6150000D02*
D03*
X6349999D02*
D03*
X6469999D02*
D03*
X5990000Y4392504D02*
D03*
X6110000D02*
D03*
X6349999D02*
D03*
X6469999D02*
D03*
X5990000Y4372504D02*
D03*
X6110000D02*
D03*
X6190000D02*
D03*
X6349999D02*
D03*
X6469999D02*
D03*
X6150000Y4352504D02*
D03*
X6190000D02*
D03*
X6230000D02*
D03*
X6270000D02*
D03*
X6310000D02*
D03*
X6150000Y4332504D02*
D03*
X6090000Y4312504D02*
D03*
X6230000D02*
D03*
X6270000D02*
D03*
D117*
X6240000Y4452504D02*
D03*
X6300000Y4432504D02*
D03*
X6220000Y4392504D02*
D03*
X6260000Y4332504D02*
D03*
X6459999Y4312504D02*
D03*
Y4292504D02*
D03*
D118*
X6050000Y4412501D02*
D03*
X6290000D02*
D03*
X6409999D02*
D03*
X6050000Y4392501D02*
D03*
X6409999D02*
D03*
X6290000Y4372501D02*
D03*
X6190000Y4272501D02*
D03*
X6310000Y4252502D02*
D03*
X6110000Y4232502D02*
D03*
X6170000Y4212502D02*
D03*
X6050000Y4112502D02*
D03*
X6290000Y4092502D02*
D03*
X6010000Y4072502D02*
D03*
X6409999D02*
D03*
X6110000Y4052502D02*
D03*
X6409999D02*
D03*
Y4032502D02*
D03*
D119*
X6170000Y4392501D02*
D03*
X6310000Y4292501D02*
D03*
X6369999D02*
D03*
X6030000Y4272501D02*
D03*
X6070000D02*
D03*
X6110000D02*
D03*
X6409999D02*
D03*
X6469999D02*
D03*
X6230000Y4252502D02*
D03*
X6389999D02*
D03*
X6449999D02*
D03*
X6250000Y4232502D02*
D03*
X6349999D02*
D03*
X6389999D02*
D03*
X6469999D02*
D03*
X6230000Y4212502D02*
D03*
X6469999D02*
D03*
X6409999Y4192502D02*
D03*
X5990000Y4172502D02*
D03*
X6030000D02*
D03*
X6090000D02*
D03*
X6170000D02*
D03*
X6210000D02*
D03*
X6250000D02*
D03*
X6409999D02*
D03*
X5990000Y4152502D02*
D03*
X6030000D02*
D03*
X6290000D02*
D03*
X6070000Y4132502D02*
D03*
X6150000D02*
D03*
X6310000D02*
D03*
X6110000Y4112502D02*
D03*
X6150000D02*
D03*
X6290000D02*
D03*
X6070000Y4092502D02*
D03*
X6150000D02*
D03*
X6190000D02*
D03*
X6230000D02*
D03*
X6349999D02*
D03*
X6469999D02*
D03*
X6310000Y4072502D02*
D03*
X6349999D02*
D03*
X6469999D02*
D03*
X6050000Y4052502D02*
D03*
X6170000D02*
D03*
X6230000D02*
D03*
X6290000D02*
D03*
X6349999D02*
D03*
X6469999D02*
D03*
X6349999Y4032502D02*
D03*
X6469999D02*
D03*
X6070000Y4012502D02*
D03*
X6130000D02*
D03*
X6170000D02*
D03*
X6210000D02*
D03*
X6310000D02*
D03*
X6349999D02*
D03*
X6469999D02*
D03*
X6130000Y3992502D02*
D03*
D120*
X6280000Y4392501D02*
D03*
X6060000Y4292501D02*
D03*
X6280000Y4272501D02*
D03*
X6359999D02*
D03*
X6020000Y4252502D02*
D03*
X6040000Y4232502D02*
D03*
X6200000D02*
D03*
X6080000Y4212502D02*
D03*
X6280000D02*
D03*
X6040000Y4192502D02*
D03*
X6220000Y4152502D02*
D03*
X6359999D02*
D03*
X6020000Y4132502D02*
D03*
X6200000D02*
D03*
X6020000Y4092502D02*
D03*
X6200000Y4072502D02*
D03*
X6260000D02*
D03*
X6000000Y4052502D02*
D03*
X6020000Y4032502D02*
D03*
X6100000D02*
D03*
X6020000Y4012502D02*
D03*
X6260000D02*
D03*
X6220000Y3992502D02*
D03*
X6300000D02*
D03*
D121*
X6050000Y4352501D02*
D03*
X6409999D02*
D03*
X6130000Y4252502D02*
D03*
X6210000Y4192502D02*
D03*
X6409999Y4112502D02*
D03*
Y3992502D02*
D03*
D122*
X6020000Y4312501D02*
D03*
X6180000Y4292501D02*
D03*
X6399999Y4212502D02*
D03*
X6340000Y4192502D02*
D03*
X6439999Y4152502D02*
D03*
D123*
X6120000D02*
D03*
X6040000Y3992502D02*
D03*
D124*
X6110000Y4072502D02*
D03*
X6230000Y4032502D02*
D03*
%TF.MD5,ff31c1ce9d780ecb1872c89420023c91*%
M02*
